<?xml version="1.0" encoding="UTF-8" standalone="no"?>
<!DOCTYPE svg PUBLIC "-//W3C//DTD SVG 1.1//EN"
 "http://www.w3.org/Graphics/SVG/1.1/DTD/svg11.dtd">
<!-- Generated by graphviz version 2.25.20091207.0545 (20091207.0545)
 -->
<!-- Title: G Pages: 1 -->
<svg width="304pt" height="66pt"
 viewBox="0.00 0.00 304.00 66.00" xmlns="http://www.w3.org/2000/svg" xmlns:xlink="http://www.w3.org/1999/xlink">
<g id="graph1" class="graph" transform="scale(1 1) rotate(0) translate(4 62)">
<title>G</title>
<polygon fill="white" stroke="white" points="-4,5 -4,-62 301,-62 301,5 -4,5"/>
<!-- Node1 -->
<g id="node1" class="node"><title>Node1</title>
<polygon fill="#bfbfbf" stroke="black" points="0.5,-19.5 0.5,-38.5 75.5,-38.5 75.5,-19.5 0.5,-19.5"/>
<text text-anchor="middle" x="38" y="-25.5" font-family="Helvetica,sans-Serif" font-size="10.00">Neuron::getId</text>
</g>
<!-- Node2 -->
<g id="node3" class="node"><title>Node2</title>
<a xlink:href="../../d5/d4c/class_con.html#aad72314592bebdcae6c68a67d2b4a505" target="_top" xlink:title="Con::getFromId">
<polygon fill="white" stroke="black" points="112,-38.5 112,-57.5 196,-57.5 196,-38.5 112,-38.5"/>
<text text-anchor="middle" x="154" y="-44.5" font-family="Helvetica,sans-Serif" font-size="10.00">Con::getFromId</text>
</a>
</g>
<!-- Node1&#45;&gt;Node2 -->
<g id="edge2" class="edge"><title>Node1&#45;&gt;Node2</title>
<path fill="none" stroke="midnightblue" d="M85.6165,-36.7993C94.2619,-38.2153 103.225,-39.6835 111.705,-41.0723"/>
<polygon fill="midnightblue" stroke="midnightblue" points="86.0961,-33.3313 75.6619,-35.1688 84.9646,-40.2392 86.0961,-33.3313"/>
</g>
<!-- Node4 -->
<g id="node7" class="node"><title>Node4</title>
<a xlink:href="../../d5/d4c/class_con.html#af5f836a7b0988b3d9113589b2959d5e6" target="_top" xlink:title="Con::validate">
<polygon fill="white" stroke="black" points="117,-0.5 117,-19.5 191,-19.5 191,-0.5 117,-0.5"/>
<text text-anchor="middle" x="154" y="-6.5" font-family="Helvetica,sans-Serif" font-size="10.00">Con::validate</text>
</a>
</g>
<!-- Node1&#45;&gt;Node4 -->
<g id="edge6" class="edge"><title>Node1&#45;&gt;Node4</title>
<path fill="none" stroke="midnightblue" d="M85.837,-21.1646C96.2126,-19.4652 107.036,-17.6923 116.923,-16.0729"/>
<polygon fill="midnightblue" stroke="midnightblue" points="84.9646,-17.7608 75.6619,-22.8312 86.0961,-24.6687 84.9646,-17.7608"/>
</g>
<!-- Node3 -->
<g id="node5" class="node"><title>Node3</title>
<a xlink:href="../../d5/d4c/class_con.html#ab85838575b5e01f3b8073136f2102922" target="_top" xlink:title="Con::show">
<polygon fill="white" stroke="black" points="232.5,-38.5 232.5,-57.5 295.5,-57.5 295.5,-38.5 232.5,-38.5"/>
<text text-anchor="middle" x="264" y="-44.5" font-family="Helvetica,sans-Serif" font-size="10.00">Con::show</text>
</a>
</g>
<!-- Node2&#45;&gt;Node3 -->
<g id="edge4" class="edge"><title>Node2&#45;&gt;Node3</title>
<path fill="none" stroke="midnightblue" d="M206.485,-48C215.315,-48 224.232,-48 232.322,-48"/>
<polygon fill="midnightblue" stroke="midnightblue" points="206.214,-44.5001 196.214,-48 206.214,-51.5001 206.214,-44.5001"/>
</g>
</g>
</svg>
