<?xml version="1.0" encoding="UTF-8" standalone="no"?>
<!DOCTYPE svg PUBLIC "-//W3C//DTD SVG 1.1//EN"
 "http://www.w3.org/Graphics/SVG/1.1/DTD/svg11.dtd">
<!-- Generated by graphviz version 2.28.0 (20110610.2051)
 -->
<!-- Title: G Pages: 1 -->
<svg width="584pt" height="140pt"
 viewBox="0.00 0.00 584.00 140.00" xmlns="http://www.w3.org/2000/svg" xmlns:xlink="http://www.w3.org/1999/xlink">
<g id="graph1" class="graph" transform="scale(1 1) rotate(0) translate(4 136)">
<title>G</title>
<polygon fill="white" stroke="white" points="-4,5 -4,-136 581,-136 581,5 -4,5"/>
<!-- Node1 -->
<g id="node1" class="node"><title>Node1</title>
<polygon fill="#bfbfbf" stroke="black" points="-0.5,-112.5 -0.5,-131.5 576.5,-131.5 576.5,-112.5 -0.5,-112.5"/>
<text text-anchor="middle" x="288" y="-119.5" font-family="Helvetica,sans-Serif" font-size="10.00">/Users/mcasl/pc&#45;ule/Trabajo/investigacion/AMORE/AMORE&#45;WC/AMORE&#45;WC/pkg/AMORE/src/classHeaders/ADAPTgdwm.h</text>
</g>
<!-- Node2 -->
<g id="node3" class="node"><title>Node2</title>
<a xlink:href="_adapt_behavior_8h.html" target="_top" xlink:title="AdaptBehavior.h">
<polygon fill="white" stroke="black" points="241.5,-56.5 241.5,-75.5 334.5,-75.5 334.5,-56.5 241.5,-56.5"/>
<text text-anchor="middle" x="288" y="-63.5" font-family="Helvetica,sans-Serif" font-size="10.00">AdaptBehavior.h</text>
</a>
</g>
<!-- Node1&#45;&gt;Node2 -->
<g id="edge2" class="edge"><title>Node1&#45;&gt;Node2</title>
<path fill="none" stroke="midnightblue" d="M288,-112.083C288,-105.006 288,-94.8611 288,-85.9865"/>
<polygon fill="midnightblue" stroke="midnightblue" points="291.5,-85.751 288,-75.7511 284.5,-85.7511 291.5,-85.751"/>
</g>
<!-- Node3 -->
<g id="node5" class="node"><title>Node3</title>
<a xlink:href="_training_behavior_8h.html" target="_top" xlink:title="TrainingBehavior.h">
<polygon fill="white" stroke="black" points="237.5,-0.5 237.5,-19.5 338.5,-19.5 338.5,-0.5 237.5,-0.5"/>
<text text-anchor="middle" x="288" y="-7.5" font-family="Helvetica,sans-Serif" font-size="10.00">TrainingBehavior.h</text>
</a>
</g>
<!-- Node2&#45;&gt;Node3 -->
<g id="edge4" class="edge"><title>Node2&#45;&gt;Node3</title>
<path fill="none" stroke="midnightblue" d="M288,-56.083C288,-49.0059 288,-38.8611 288,-29.9865"/>
<polygon fill="midnightblue" stroke="midnightblue" points="291.5,-29.751 288,-19.7511 284.5,-29.7511 291.5,-29.751"/>
</g>
</g>
</svg>
