<?xml version="1.0" encoding="UTF-8" standalone="no"?>
<!DOCTYPE svg PUBLIC "-//W3C//DTD SVG 1.1//EN"
 "http://www.w3.org/Graphics/SVG/1.1/DTD/svg11.dtd">
<!-- Generated by graphviz version 2.28.0 (20110610.2051)
 -->
<!-- Title: G Pages: 1 -->
<svg width="696pt" height="196pt"
 viewBox="0.00 0.00 696.00 196.00" xmlns="http://www.w3.org/2000/svg" xmlns:xlink="http://www.w3.org/1999/xlink">
<g id="graph1" class="graph" transform="scale(1 1) rotate(0) translate(4 192)">
<title>G</title>
<polygon fill="white" stroke="white" points="-4,5 -4,-192 693,-192 693,5 -4,5"/>
<!-- Node1 -->
<g id="node1" class="node"><title>Node1</title>
<polygon fill="#bfbfbf" stroke="black" points="-0.5,-168.5 -0.5,-187.5 688.5,-187.5 688.5,-168.5 -0.5,-168.5"/>
<text text-anchor="middle" x="344" y="-175.5" font-family="Helvetica,sans-Serif" font-size="10.00">/Users/mcasl/pc&#45;ule/Trabajo/investigacion/AMORE/AMORE&#45;WC/AMORE&#45;WC/pkg/AMORE/src/classHeaders/ADAPTgdHiddenNeuronTrainBehavior.h</text>
</g>
<!-- Node2 -->
<g id="node3" class="node"><title>Node2</title>
<a xlink:href="_a_d_a_p_tgd_neuron_train_behavior_8h.html" target="_top" xlink:title="ADAPTgdNeuronTrainBehavior.h">
<polygon fill="white" stroke="black" points="261,-112.5 261,-131.5 427,-131.5 427,-112.5 261,-112.5"/>
<text text-anchor="middle" x="344" y="-119.5" font-family="Helvetica,sans-Serif" font-size="10.00">ADAPTgdNeuronTrainBehavior.h</text>
</a>
</g>
<!-- Node1&#45;&gt;Node2 -->
<g id="edge2" class="edge"><title>Node1&#45;&gt;Node2</title>
<path fill="none" stroke="midnightblue" d="M344,-168.083C344,-161.006 344,-150.861 344,-141.986"/>
<polygon fill="midnightblue" stroke="midnightblue" points="347.5,-141.751 344,-131.751 340.5,-141.751 347.5,-141.751"/>
</g>
<!-- Node3 -->
<g id="node5" class="node"><title>Node3</title>
<a xlink:href="_adapt_neuron_train_behavior_8h.html" target="_top" xlink:title="AdaptNeuronTrainBehavior.h">
<polygon fill="white" stroke="black" points="270,-56.5 270,-75.5 418,-75.5 418,-56.5 270,-56.5"/>
<text text-anchor="middle" x="344" y="-63.5" font-family="Helvetica,sans-Serif" font-size="10.00">AdaptNeuronTrainBehavior.h</text>
</a>
</g>
<!-- Node2&#45;&gt;Node3 -->
<g id="edge4" class="edge"><title>Node2&#45;&gt;Node3</title>
<path fill="none" stroke="midnightblue" d="M344,-112.083C344,-105.006 344,-94.8611 344,-85.9865"/>
<polygon fill="midnightblue" stroke="midnightblue" points="347.5,-85.751 344,-75.7511 340.5,-85.7511 347.5,-85.751"/>
</g>
<!-- Node4 -->
<g id="node7" class="node"><title>Node4</title>
<a xlink:href="_neuron_train_behavior_8h.html" target="_top" xlink:title="NeuronTrainBehavior.h">
<polygon fill="white" stroke="black" points="284,-0.5 284,-19.5 404,-19.5 404,-0.5 284,-0.5"/>
<text text-anchor="middle" x="344" y="-7.5" font-family="Helvetica,sans-Serif" font-size="10.00">NeuronTrainBehavior.h</text>
</a>
</g>
<!-- Node3&#45;&gt;Node4 -->
<g id="edge6" class="edge"><title>Node3&#45;&gt;Node4</title>
<path fill="none" stroke="midnightblue" d="M344,-56.083C344,-49.0059 344,-38.8611 344,-29.9865"/>
<polygon fill="midnightblue" stroke="midnightblue" points="347.5,-29.751 344,-19.7511 340.5,-29.7511 347.5,-29.751"/>
</g>
</g>
</svg>
