<?xml version="1.0" encoding="UTF-8" standalone="no"?>
<!DOCTYPE svg PUBLIC "-//W3C//DTD SVG 1.1//EN"
 "http://www.w3.org/Graphics/SVG/1.1/DTD/svg11.dtd">
<!-- Generated by graphviz version 2.28.0 (20110610.2051)
 -->
<!-- Title: G Pages: 1 -->
<svg width="2849pt" height="140pt"
 viewBox="0.00 0.00 2849.00 140.00" xmlns="http://www.w3.org/2000/svg" xmlns:xlink="http://www.w3.org/1999/xlink">
<g id="graph1" class="graph" transform="scale(1 1) rotate(0) translate(4 136)">
<title>G</title>
<polygon fill="white" stroke="white" points="-4,5 -4,-136 2846,-136 2846,5 -4,5"/>
<!-- Node1 -->
<g id="node1" class="node"><title>Node1</title>
<polygon fill="#bfbfbf" stroke="black" points="1089,-112.5 1089,-131.5 1727,-131.5 1727,-112.5 1089,-112.5"/>
<text text-anchor="middle" x="1408" y="-119.5" font-family="Helvetica,sans-Serif" font-size="10.00">/Users/mcasl/pc&#45;ule/Trabajo/investigacion/AMORE/AMORE&#45;WC/AMORE&#45;WC/pkg/AMORE/src/classHeaders/AdaptNeuronTrainBehavior.h</text>
</g>
<!-- Node2 -->
<g id="node3" class="node"><title>Node2</title>
<a xlink:href="_a_d_a_p_tgd_neuron_train_behavior_8h.html" target="_top" xlink:title="/Users/mcasl/pc&#45;ule/Trabajo/investigacion/AMORE/AMORE&#45;WC/AMORE&#45;WC/pkg/AMORE/src/classHeaders/ADAPTgdNeuronTrainBehavior.h">
<polygon fill="white" stroke="black" points="723,-56.5 723,-75.5 1379,-75.5 1379,-56.5 723,-56.5"/>
<text text-anchor="middle" x="1051" y="-63.5" font-family="Helvetica,sans-Serif" font-size="10.00">/Users/mcasl/pc&#45;ule/Trabajo/investigacion/AMORE/AMORE&#45;WC/AMORE&#45;WC/pkg/AMORE/src/classHeaders/ADAPTgdNeuronTrainBehavior.h</text>
</a>
</g>
<!-- Node1&#45;&gt;Node2 -->
<g id="edge2" class="edge"><title>Node1&#45;&gt;Node2</title>
<path fill="none" stroke="midnightblue" d="M1341.34,-110.917C1273.89,-100.715 1170.78,-85.1174 1107.3,-75.5164"/>
<polygon fill="midnightblue" stroke="midnightblue" points="1341.02,-114.408 1351.43,-112.444 1342.07,-107.487 1341.02,-114.408"/>
</g>
<!-- Node5 -->
<g id="node9" class="node"><title>Node5</title>
<a xlink:href="_a_d_a_p_tgdwm_neuron_train_behavior_8h.html" target="_top" xlink:title="/Users/mcasl/pc&#45;ule/Trabajo/investigacion/AMORE/AMORE&#45;WC/AMORE&#45;WC/pkg/AMORE/src/classHeaders/ADAPTgdwmNeuronTrainBehavior.h">
<polygon fill="white" stroke="black" points="1430,-56.5 1430,-75.5 2102,-75.5 2102,-56.5 1430,-56.5"/>
<text text-anchor="middle" x="1766" y="-63.5" font-family="Helvetica,sans-Serif" font-size="10.00">/Users/mcasl/pc&#45;ule/Trabajo/investigacion/AMORE/AMORE&#45;WC/AMORE&#45;WC/pkg/AMORE/src/classHeaders/ADAPTgdwmNeuronTrainBehavior.h</text>
</a>
</g>
<!-- Node1&#45;&gt;Node5 -->
<g id="edge8" class="edge"><title>Node1&#45;&gt;Node5</title>
<path fill="none" stroke="midnightblue" d="M1474.85,-110.917C1542.48,-100.715 1645.89,-85.1174 1709.54,-75.5164"/>
<polygon fill="midnightblue" stroke="midnightblue" points="1474.09,-107.491 1464.73,-112.444 1475.14,-114.413 1474.09,-107.491"/>
</g>
<!-- Node3 -->
<g id="node5" class="node"><title>Node3</title>
<a xlink:href="_a_d_a_p_tgd_hidden_neuron_train_behavior_8h.html" target="_top" xlink:title="/Users/mcasl/pc&#45;ule/Trabajo/investigacion/AMORE/AMORE&#45;WC/AMORE&#45;WC/pkg/AMORE/src/classHeaders/ADAPTgdHiddenNeuronTrainBehavior.h">
<polygon fill="white" stroke="black" points="-0.5,-0.5 -0.5,-19.5 688.5,-19.5 688.5,-0.5 -0.5,-0.5"/>
<text text-anchor="middle" x="344" y="-7.5" font-family="Helvetica,sans-Serif" font-size="10.00">/Users/mcasl/pc&#45;ule/Trabajo/investigacion/AMORE/AMORE&#45;WC/AMORE&#45;WC/pkg/AMORE/src/classHeaders/ADAPTgdHiddenNeuronTrainBehavior.h</text>
</a>
</g>
<!-- Node2&#45;&gt;Node3 -->
<g id="edge4" class="edge"><title>Node2&#45;&gt;Node3</title>
<path fill="none" stroke="midnightblue" d="M929.114,-55.6904C795.883,-45.5144 584.251,-29.3502 455.341,-19.5042"/>
<polygon fill="midnightblue" stroke="midnightblue" points="929.126,-59.2015 939.364,-56.4733 929.66,-52.2218 929.126,-59.2015"/>
</g>
<!-- Node4 -->
<g id="node7" class="node"><title>Node4</title>
<a xlink:href="_a_d_a_p_tgd_output_neuron_train_behavior_8h.html" target="_top" xlink:title="/Users/mcasl/pc&#45;ule/Trabajo/investigacion/AMORE/AMORE&#45;WC/AMORE&#45;WC/pkg/AMORE/src/classHeaders/ADAPTgdOutputNeuronTrainBehavior.h">
<polygon fill="white" stroke="black" points="707,-0.5 707,-19.5 1395,-19.5 1395,-0.5 707,-0.5"/>
<text text-anchor="middle" x="1051" y="-7.5" font-family="Helvetica,sans-Serif" font-size="10.00">/Users/mcasl/pc&#45;ule/Trabajo/investigacion/AMORE/AMORE&#45;WC/AMORE&#45;WC/pkg/AMORE/src/classHeaders/ADAPTgdOutputNeuronTrainBehavior.h</text>
</a>
</g>
<!-- Node2&#45;&gt;Node4 -->
<g id="edge6" class="edge"><title>Node2&#45;&gt;Node4</title>
<path fill="none" stroke="midnightblue" d="M1051,-45.8045C1051,-36.9102 1051,-26.7798 1051,-19.7511"/>
<polygon fill="midnightblue" stroke="midnightblue" points="1047.5,-46.083 1051,-56.083 1054.5,-46.083 1047.5,-46.083"/>
</g>
<!-- Node6 -->
<g id="node11" class="node"><title>Node6</title>
<a xlink:href="_a_d_a_p_tgdwm_hidden_neuron_train_behavior_8h.html" target="_top" xlink:title="/Users/mcasl/pc&#45;ule/Trabajo/investigacion/AMORE/AMORE&#45;WC/AMORE&#45;WC/pkg/AMORE/src/classHeaders/ADAPTgdwmHiddenNeuronTrainBehavior.h">
<polygon fill="white" stroke="black" points="1413.5,-0.5 1413.5,-19.5 2118.5,-19.5 2118.5,-0.5 1413.5,-0.5"/>
<text text-anchor="middle" x="1766" y="-7.5" font-family="Helvetica,sans-Serif" font-size="10.00">/Users/mcasl/pc&#45;ule/Trabajo/investigacion/AMORE/AMORE&#45;WC/AMORE&#45;WC/pkg/AMORE/src/classHeaders/ADAPTgdwmHiddenNeuronTrainBehavior.h</text>
</a>
</g>
<!-- Node5&#45;&gt;Node6 -->
<g id="edge10" class="edge"><title>Node5&#45;&gt;Node6</title>
<path fill="none" stroke="midnightblue" d="M1766,-45.8045C1766,-36.9102 1766,-26.7798 1766,-19.7511"/>
<polygon fill="midnightblue" stroke="midnightblue" points="1762.5,-46.083 1766,-56.083 1769.5,-46.083 1762.5,-46.083"/>
</g>
<!-- Node7 -->
<g id="node13" class="node"><title>Node7</title>
<a xlink:href="_a_d_a_p_tgdwm_output_neuron_train_behavior_8h.html" target="_top" xlink:title="/Users/mcasl/pc&#45;ule/Trabajo/investigacion/AMORE/AMORE&#45;WC/AMORE&#45;WC/pkg/AMORE/src/classHeaders/ADAPTgdwmOutputNeuronTrainBehavior.h">
<polygon fill="white" stroke="black" points="2137,-0.5 2137,-19.5 2841,-19.5 2841,-0.5 2137,-0.5"/>
<text text-anchor="middle" x="2489" y="-7.5" font-family="Helvetica,sans-Serif" font-size="10.00">/Users/mcasl/pc&#45;ule/Trabajo/investigacion/AMORE/AMORE&#45;WC/AMORE&#45;WC/pkg/AMORE/src/classHeaders/ADAPTgdwmOutputNeuronTrainBehavior.h</text>
</a>
</g>
<!-- Node5&#45;&gt;Node7 -->
<g id="edge12" class="edge"><title>Node5&#45;&gt;Node7</title>
<path fill="none" stroke="midnightblue" d="M1890.24,-55.721C2026.46,-45.5468 2243.18,-29.36 2375.14,-19.5042"/>
<polygon fill="midnightblue" stroke="midnightblue" points="1889.87,-52.2382 1880.16,-56.4733 1890.4,-59.2187 1889.87,-52.2382"/>
</g>
</g>
</svg>
