<?xml version="1.0" encoding="UTF-8" standalone="no"?>
<!DOCTYPE svg PUBLIC "-//W3C//DTD SVG 1.1//EN"
 "http://www.w3.org/Graphics/SVG/1.1/DTD/svg11.dtd">
<!-- Generated by graphviz version 2.28.0 (20110610.2051)
 -->
<!-- Title: G Pages: 1 -->
<svg width="664pt" height="140pt"
 viewBox="0.00 0.00 664.00 140.00" xmlns="http://www.w3.org/2000/svg" xmlns:xlink="http://www.w3.org/1999/xlink">
<g id="graph1" class="graph" transform="scale(1 1) rotate(0) translate(4 136)">
<title>G</title>
<polygon fill="white" stroke="white" points="-4,5 -4,-136 661,-136 661,5 -4,5"/>
<!-- Node1 -->
<g id="node1" class="node"><title>Node1</title>
<polygon fill="#bfbfbf" stroke="black" points="-0.5,-112.5 -0.5,-131.5 656.5,-131.5 656.5,-112.5 -0.5,-112.5"/>
<text text-anchor="middle" x="328" y="-119.5" font-family="Helvetica,sans-Serif" font-size="10.00">/Users/mcasl/pc&#45;ule/Trabajo/investigacion/AMORE/AMORE&#45;WC/AMORE&#45;WC/pkg/AMORE/src/classHeaders/BATCHgdNeuronTrainBehavior.h</text>
</g>
<!-- Node2 -->
<g id="node3" class="node"><title>Node2</title>
<a xlink:href="_batch_neuron_train_behavior_8h.html" target="_top" xlink:title="BatchNeuronTrainBehavior.h">
<polygon fill="white" stroke="black" points="254.5,-56.5 254.5,-75.5 401.5,-75.5 401.5,-56.5 254.5,-56.5"/>
<text text-anchor="middle" x="328" y="-63.5" font-family="Helvetica,sans-Serif" font-size="10.00">BatchNeuronTrainBehavior.h</text>
</a>
</g>
<!-- Node1&#45;&gt;Node2 -->
<g id="edge2" class="edge"><title>Node1&#45;&gt;Node2</title>
<path fill="none" stroke="midnightblue" d="M328,-112.083C328,-105.006 328,-94.8611 328,-85.9865"/>
<polygon fill="midnightblue" stroke="midnightblue" points="331.5,-85.751 328,-75.7511 324.5,-85.7511 331.5,-85.751"/>
</g>
<!-- Node3 -->
<g id="node5" class="node"><title>Node3</title>
<a xlink:href="_neuron_train_behavior_8h.html" target="_top" xlink:title="NeuronTrainBehavior.h">
<polygon fill="white" stroke="black" points="268,-0.5 268,-19.5 388,-19.5 388,-0.5 268,-0.5"/>
<text text-anchor="middle" x="328" y="-7.5" font-family="Helvetica,sans-Serif" font-size="10.00">NeuronTrainBehavior.h</text>
</a>
</g>
<!-- Node2&#45;&gt;Node3 -->
<g id="edge4" class="edge"><title>Node2&#45;&gt;Node3</title>
<path fill="none" stroke="midnightblue" d="M328,-56.083C328,-49.0059 328,-38.8611 328,-29.9865"/>
<polygon fill="midnightblue" stroke="midnightblue" points="331.5,-29.751 328,-19.7511 324.5,-29.7511 331.5,-29.751"/>
</g>
</g>
</svg>
