<?xml version="1.0" encoding="UTF-8" standalone="no"?>
<!DOCTYPE svg PUBLIC "-//W3C//DTD SVG 1.1//EN"
 "http://www.w3.org/Graphics/SVG/1.1/DTD/svg11.dtd">
<!-- Generated by graphviz version 2.28.0 (20110610.2051)
 -->
<!-- Title: G Pages: 1 -->
<svg width="1439pt" height="84pt"
 viewBox="0.00 0.00 1439.00 84.00" xmlns="http://www.w3.org/2000/svg" xmlns:xlink="http://www.w3.org/1999/xlink">
<g id="graph1" class="graph" transform="scale(1 1) rotate(0) translate(4 80)">
<title>G</title>
<polygon fill="white" stroke="white" points="-4,5 -4,-80 1436,-80 1436,5 -4,5"/>
<!-- Node1 -->
<g id="node1" class="node"><title>Node1</title>
<polygon fill="#bfbfbf" stroke="black" points="378,-56.5 378,-75.5 1052,-75.5 1052,-56.5 378,-56.5"/>
<text text-anchor="middle" x="715" y="-63.5" font-family="Helvetica,sans-Serif" font-size="10.00">/Users/mcasl/pc&#45;ule/Trabajo/investigacion/AMORE/AMORE&#45;WC/AMORE&#45;WC/pkg/AMORE/src/classHeaders/BATCHgdwmNeuronTrainBehavior.h</text>
</g>
<!-- Node2 -->
<g id="node3" class="node"><title>Node2</title>
<a xlink:href="_b_a_t_c_hgdwm_hidden_neuron_train_behavior_8h.html" target="_top" xlink:title="/Users/mcasl/pc&#45;ule/Trabajo/investigacion/AMORE/AMORE&#45;WC/AMORE&#45;WC/pkg/AMORE/src/classHeaders/BATCHgdwmHiddenNeuronTrainBehavior.h">
<polygon fill="white" stroke="black" points="-0.5,-0.5 -0.5,-19.5 706.5,-19.5 706.5,-0.5 -0.5,-0.5"/>
<text text-anchor="middle" x="353" y="-7.5" font-family="Helvetica,sans-Serif" font-size="10.00">/Users/mcasl/pc&#45;ule/Trabajo/investigacion/AMORE/AMORE&#45;WC/AMORE&#45;WC/pkg/AMORE/src/classHeaders/BATCHgdwmHiddenNeuronTrainBehavior.h</text>
</a>
</g>
<!-- Node1&#45;&gt;Node2 -->
<g id="edge2" class="edge"><title>Node1&#45;&gt;Node2</title>
<path fill="none" stroke="midnightblue" d="M647.404,-54.9166C579.015,-44.715 474.454,-29.1174 410.092,-19.5164"/>
<polygon fill="midnightblue" stroke="midnightblue" points="647.233,-58.4298 657.64,-56.4435 648.266,-51.5064 647.233,-58.4298"/>
</g>
<!-- Node3 -->
<g id="node5" class="node"><title>Node3</title>
<a xlink:href="_b_a_t_c_hgdwm_output_neuron_train_behavior_8h.html" target="_top" xlink:title="/Users/mcasl/pc&#45;ule/Trabajo/investigacion/AMORE/AMORE&#45;WC/AMORE&#45;WC/pkg/AMORE/src/classHeaders/BATCHgdwmOutputNeuronTrainBehavior.h">
<polygon fill="white" stroke="black" points="725,-0.5 725,-19.5 1431,-19.5 1431,-0.5 725,-0.5"/>
<text text-anchor="middle" x="1078" y="-7.5" font-family="Helvetica,sans-Serif" font-size="10.00">/Users/mcasl/pc&#45;ule/Trabajo/investigacion/AMORE/AMORE&#45;WC/AMORE&#45;WC/pkg/AMORE/src/classHeaders/BATCHgdwmOutputNeuronTrainBehavior.h</text>
</a>
</g>
<!-- Node1&#45;&gt;Node3 -->
<g id="edge4" class="edge"><title>Node1&#45;&gt;Node3</title>
<path fill="none" stroke="midnightblue" d="M782.783,-54.9166C851.36,-44.715 956.21,-29.1174 1020.75,-19.5164"/>
<polygon fill="midnightblue" stroke="midnightblue" points="781.895,-51.5101 772.518,-56.4435 782.925,-58.434 781.895,-51.5101"/>
</g>
</g>
</svg>
