<?xml version="1.0" encoding="UTF-8" standalone="no"?>
<!DOCTYPE svg PUBLIC "-//W3C//DTD SVG 1.1//EN"
 "http://www.w3.org/Graphics/SVG/1.1/DTD/svg11.dtd">
<!-- Generated by graphviz version 2.28.0 (20110610.2051)
 -->
<!-- Title: G Pages: 1 -->
<svg width="1611pt" height="140pt"
 viewBox="0.00 0.00 1610.51 140.00" xmlns="http://www.w3.org/2000/svg" xmlns:xlink="http://www.w3.org/1999/xlink">
<g id="graph1" class="graph" transform="scale(1 1) rotate(0) translate(4 136)">
<title>G</title>
<polygon fill="white" stroke="white" points="-4,5 -4,-136 1607.51,-136 1607.51,5 -4,5"/>
<!-- Node1 -->
<g id="node1" class="node"><title>Node1</title>
<polygon fill="#bfbfbf" stroke="black" points="256.012,-112.5 256.012,-131.5 823.012,-131.5 823.012,-112.5 256.012,-112.5"/>
<text text-anchor="middle" x="539.512" y="-119.5" font-family="Helvetica,sans-Serif" font-size="10.00">/Users/mcasl/pc&#45;ule/Trabajo/investigacion/AMORE/AMORE&#45;WC/AMORE&#45;WC/pkg/AMORE/src/classHeaders/Connection.h</text>
</g>
<!-- Node2 -->
<g id="node3" class="node"><title>Node2</title>
<a xlink:href="_a_m_o_r_e_8h.html" target="_top" xlink:title="/Users/mcasl/pc&#45;ule/Trabajo/investigacion/AMORE/AMORE&#45;WC/AMORE&#45;WC/pkg/AMORE/src/AMORE.h">
<polygon fill="white" stroke="black" points="295.512,-0.5 295.512,-19.5 783.512,-19.5 783.512,-0.5 295.512,-0.5"/>
<text text-anchor="middle" x="539.512" y="-7.5" font-family="Helvetica,sans-Serif" font-size="10.00">/Users/mcasl/pc&#45;ule/Trabajo/investigacion/AMORE/AMORE&#45;WC/AMORE&#45;WC/pkg/AMORE/src/AMORE.h</text>
</a>
</g>
<!-- Node1&#45;&gt;Node2 -->
<g id="edge2" class="edge"><title>Node1&#45;&gt;Node2</title>
<path fill="none" stroke="midnightblue" d="M245.781,-112.922C131.108,-106.675 22.5382,-95.6059 4.51217,-76 -1.50406,-69.4565 -1.50406,-62.5435 4.51217,-56 25.1337,-33.5712 164.249,-22.3144 295.44,-16.6684"/>
<polygon fill="midnightblue" stroke="midnightblue" points="245.649,-116.42 255.821,-113.456 246.021,-109.43 245.649,-116.42"/>
</g>
<!-- Node3 -->
<g id="node5" class="node"><title>Node3</title>
<a xlink:href="_connection_8cpp.html" target="_top" xlink:title="/Users/mcasl/pc&#45;ule/Trabajo/investigacion/AMORE/AMORE&#45;WC/AMORE&#45;WC/pkg/AMORE/src/Connection.cpp">
<polygon fill="white" stroke="black" points="14.0122,-56.5 14.0122,-75.5 529.012,-75.5 529.012,-56.5 14.0122,-56.5"/>
<text text-anchor="middle" x="271.512" y="-63.5" font-family="Helvetica,sans-Serif" font-size="10.00">/Users/mcasl/pc&#45;ule/Trabajo/investigacion/AMORE/AMORE&#45;WC/AMORE&#45;WC/pkg/AMORE/src/Connection.cpp</text>
</a>
</g>
<!-- Node1&#45;&gt;Node3 -->
<g id="edge4" class="edge"><title>Node1&#45;&gt;Node3</title>
<path fill="none" stroke="midnightblue" d="M486.952,-110.41C436.303,-100.204 360.646,-84.9597 313.779,-75.5164"/>
<polygon fill="midnightblue" stroke="midnightblue" points="486.552,-113.899 497.047,-112.444 487.935,-107.037 486.552,-113.899"/>
</g>
<!-- Node4 -->
<g id="node8" class="node"><title>Node4</title>
<a xlink:href="_m_l_pbehavior_8cpp.html" target="_top" xlink:title="/Users/mcasl/pc&#45;ule/Trabajo/investigacion/AMORE/AMORE&#45;WC/AMORE&#45;WC/pkg/AMORE/src/MLPbehavior.cpp">
<polygon fill="white" stroke="black" points="547.512,-56.5 547.512,-75.5 1069.51,-75.5 1069.51,-56.5 547.512,-56.5"/>
<text text-anchor="middle" x="808.512" y="-63.5" font-family="Helvetica,sans-Serif" font-size="10.00">/Users/mcasl/pc&#45;ule/Trabajo/investigacion/AMORE/AMORE&#45;WC/AMORE&#45;WC/pkg/AMORE/src/MLPbehavior.cpp</text>
</a>
</g>
<!-- Node1&#45;&gt;Node4 -->
<g id="edge8" class="edge"><title>Node1&#45;&gt;Node4</title>
<path fill="none" stroke="midnightblue" d="M591.95,-110.473C642.789,-100.268 718.948,-84.9794 766.088,-75.5164"/>
<polygon fill="midnightblue" stroke="midnightblue" points="591.252,-107.044 582.136,-112.444 592.629,-113.907 591.252,-107.044"/>
</g>
<!-- Node5 -->
<g id="node11" class="node"><title>Node5</title>
<a xlink:href="_m_l_pfactory_8cpp.html" target="_top" xlink:title="/Users/mcasl/pc&#45;ule/Trabajo/investigacion/AMORE/AMORE&#45;WC/AMORE&#45;WC/pkg/AMORE/src/MLPfactory.cpp">
<polygon fill="white" stroke="black" points="1088.01,-56.5 1088.01,-75.5 1603.01,-75.5 1603.01,-56.5 1088.01,-56.5"/>
<text text-anchor="middle" x="1345.51" y="-63.5" font-family="Helvetica,sans-Serif" font-size="10.00">/Users/mcasl/pc&#45;ule/Trabajo/investigacion/AMORE/AMORE&#45;WC/AMORE&#45;WC/pkg/AMORE/src/MLPfactory.cpp</text>
</a>
</g>
<!-- Node1&#45;&gt;Node5 -->
<g id="edge12" class="edge"><title>Node1&#45;&gt;Node5</title>
<path fill="none" stroke="midnightblue" d="M677.099,-111.782C828.901,-101.612 1071.18,-85.3798 1218.58,-75.5042"/>
<polygon fill="midnightblue" stroke="midnightblue" points="676.524,-108.313 666.781,-112.473 676.992,-115.297 676.524,-108.313"/>
</g>
<!-- Node3&#45;&gt;Node2 -->
<g id="edge6" class="edge"><title>Node3&#45;&gt;Node2</title>
<path fill="none" stroke="midnightblue" d="M324.072,-54.4096C374.721,-44.2042 450.379,-28.9597 497.245,-19.5164"/>
<polygon fill="midnightblue" stroke="midnightblue" points="323.089,-51.0372 313.978,-56.4435 324.472,-57.8993 323.089,-51.0372"/>
</g>
<!-- Node4&#45;&gt;Node2 -->
<g id="edge10" class="edge"><title>Node4&#45;&gt;Node2</title>
<path fill="none" stroke="midnightblue" d="M756.074,-54.4734C705.235,-44.2678 629.076,-28.9794 581.937,-19.5164"/>
<polygon fill="midnightblue" stroke="midnightblue" points="755.395,-57.9068 765.888,-56.4435 756.773,-51.0437 755.395,-57.9068"/>
</g>
<!-- Node5&#45;&gt;Node2 -->
<g id="edge14" class="edge"><title>Node5&#45;&gt;Node2</title>
<path fill="none" stroke="midnightblue" d="M1207.93,-55.782C1056.12,-45.6117 813.847,-29.3798 666.444,-19.5042"/>
<polygon fill="midnightblue" stroke="midnightblue" points="1208.03,-59.2969 1218.24,-56.4733 1208.5,-52.3126 1208.03,-59.2969"/>
</g>
</g>
</svg>
