<?xml version="1.0" encoding="UTF-8" standalone="no"?>
<!DOCTYPE svg PUBLIC "-//W3C//DTD SVG 1.1//EN"
 "http://www.w3.org/Graphics/SVG/1.1/DTD/svg11.dtd">
<!-- Generated by graphviz version 2.28.0 (20110610.2051)
 -->
<!-- Title: G Pages: 1 -->
<svg width="1940pt" height="196pt"
 viewBox="0.00 0.00 1939.59 196.00" xmlns="http://www.w3.org/2000/svg" xmlns:xlink="http://www.w3.org/1999/xlink">
<g id="graph1" class="graph" transform="scale(1 1) rotate(0) translate(4 192)">
<title>G</title>
<polygon fill="white" stroke="white" points="-4,5 -4,-192 1936.59,-192 1936.59,5 -4,5"/>
<!-- Node1 -->
<g id="node1" class="node"><title>Node1</title>
<polygon fill="#bfbfbf" stroke="black" points="461.086,-168.5 461.086,-187.5 1020.09,-187.5 1020.09,-168.5 461.086,-168.5"/>
<text text-anchor="middle" x="740.586" y="-175.5" font-family="Helvetica,sans-Serif" font-size="10.00">/Users/mcasl/pc&#45;ule/Trabajo/investigacion/AMORE/AMORE&#45;WC/AMORE&#45;WC/pkg/AMORE/src/classHeaders/Container.h</text>
</g>
<!-- Node2 -->
<g id="node3" class="node"><title>Node2</title>
<a xlink:href="_a_m_o_r_e_8h.html" target="_top" xlink:title="/Users/mcasl/pc&#45;ule/Trabajo/investigacion/AMORE/AMORE&#45;WC/AMORE&#45;WC/pkg/AMORE/src/AMORE.h">
<polygon fill="white" stroke="black" points="338.586,-0.5 338.586,-19.5 826.586,-19.5 826.586,-0.5 338.586,-0.5"/>
<text text-anchor="middle" x="582.586" y="-7.5" font-family="Helvetica,sans-Serif" font-size="10.00">/Users/mcasl/pc&#45;ule/Trabajo/investigacion/AMORE/AMORE&#45;WC/AMORE&#45;WC/pkg/AMORE/src/AMORE.h</text>
</a>
</g>
<!-- Node1&#45;&gt;Node2 -->
<g id="edge2" class="edge"><title>Node1&#45;&gt;Node2</title>
<path fill="none" stroke="midnightblue" d="M450.587,-168.235C252.943,-160.794 24.2525,-148.659 8.58585,-132 -13.5472,-108.465 12.4784,-73.1331 38.5859,-56 65.821,-38.1268 220.736,-26.4714 358.318,-19.5108"/>
<polygon fill="midnightblue" stroke="midnightblue" points="450.743,-171.744 460.867,-168.619 451.004,-164.748 450.743,-171.744"/>
</g>
<!-- Node3 -->
<g id="node5" class="node"><title>Node3</title>
<a xlink:href="_simple_container_8h.html" target="_top" xlink:title="/Users/mcasl/pc&#45;ule/Trabajo/investigacion/AMORE/AMORE&#45;WC/AMORE&#45;WC/pkg/AMORE/src/classHeaders/SimpleContainer.h">
<polygon fill="white" stroke="black" points="18.0859,-112.5 18.0859,-131.5 609.086,-131.5 609.086,-112.5 18.0859,-112.5"/>
<text text-anchor="middle" x="313.586" y="-119.5" font-family="Helvetica,sans-Serif" font-size="10.00">/Users/mcasl/pc&#45;ule/Trabajo/investigacion/AMORE/AMORE&#45;WC/AMORE&#45;WC/pkg/AMORE/src/classHeaders/SimpleContainer.h</text>
</a>
</g>
<!-- Node1&#45;&gt;Node3 -->
<g id="edge4" class="edge"><title>Node1&#45;&gt;Node3</title>
<path fill="none" stroke="midnightblue" d="M662.832,-167.167C582.213,-156.972 457.471,-141.196 380.929,-131.516"/>
<polygon fill="midnightblue" stroke="midnightblue" points="662.566,-170.661 672.926,-168.444 663.445,-163.716 662.566,-170.661"/>
</g>
<!-- Node4 -->
<g id="node8" class="node"><title>Node4</title>
<a xlink:href="_m_l_pfactory_8cpp.html" target="_top" xlink:title="/Users/mcasl/pc&#45;ule/Trabajo/investigacion/AMORE/AMORE&#45;WC/AMORE&#45;WC/pkg/AMORE/src/MLPfactory.cpp">
<polygon fill="white" stroke="black" points="56.0859,-56.5 56.0859,-75.5 571.086,-75.5 571.086,-56.5 56.0859,-56.5"/>
<text text-anchor="middle" x="313.586" y="-63.5" font-family="Helvetica,sans-Serif" font-size="10.00">/Users/mcasl/pc&#45;ule/Trabajo/investigacion/AMORE/AMORE&#45;WC/AMORE&#45;WC/pkg/AMORE/src/MLPfactory.cpp</text>
</a>
</g>
<!-- Node1&#45;&gt;Node4 -->
<g id="edge16" class="edge"><title>Node1&#45;&gt;Node4</title>
<path fill="none" stroke="midnightblue" d="M719.402,-162.926C695.649,-147.846 655.477,-124.412 617.586,-112 559.279,-92.9002 492.01,-81.8795 435.598,-75.5336"/>
<polygon fill="midnightblue" stroke="midnightblue" points="717.65,-165.96 727.95,-168.443 721.447,-160.079 717.65,-165.96"/>
</g>
<!-- Node5 -->
<g id="node11" class="node"><title>Node5</title>
<a xlink:href="_simple_neuron_8cpp.html" target="_top" xlink:title="/Users/mcasl/pc&#45;ule/Trabajo/investigacion/AMORE/AMORE&#45;WC/AMORE&#45;WC/pkg/AMORE/src/SimpleNeuron.cpp">
<polygon fill="white" stroke="black" points="589.086,-56.5 589.086,-75.5 1116.09,-75.5 1116.09,-56.5 589.086,-56.5"/>
<text text-anchor="middle" x="852.586" y="-63.5" font-family="Helvetica,sans-Serif" font-size="10.00">/Users/mcasl/pc&#45;ule/Trabajo/investigacion/AMORE/AMORE&#45;WC/AMORE&#45;WC/pkg/AMORE/src/SimpleNeuron.cpp</text>
</a>
</g>
<!-- Node1&#45;&gt;Node5 -->
<g id="edge12" class="edge"><title>Node1&#45;&gt;Node5</title>
<path fill="none" stroke="midnightblue" d="M756.668,-161.205C780.674,-137.627 825.065,-94.0294 843.838,-75.5914"/>
<polygon fill="midnightblue" stroke="midnightblue" points="754.056,-158.864 749.374,-168.368 758.961,-163.858 754.056,-158.864"/>
</g>
<!-- Node6 -->
<g id="node15" class="node"><title>Node6</title>
<a xlink:href="_simple_network_8cpp.html" target="_top" xlink:title="/Users/mcasl/pc&#45;ule/Trabajo/investigacion/AMORE/AMORE&#45;WC/AMORE&#45;WC/pkg/AMORE/src/SimpleNetwork.cpp">
<polygon fill="white" stroke="black" points="1134.09,-56.5 1134.09,-75.5 1667.09,-75.5 1667.09,-56.5 1134.09,-56.5"/>
<text text-anchor="middle" x="1400.59" y="-63.5" font-family="Helvetica,sans-Serif" font-size="10.00">/Users/mcasl/pc&#45;ule/Trabajo/investigacion/AMORE/AMORE&#45;WC/AMORE&#45;WC/pkg/AMORE/src/SimpleNetwork.cpp</text>
</a>
</g>
<!-- Node1&#45;&gt;Node6 -->
<g id="edge18" class="edge"><title>Node1&#45;&gt;Node6</title>
<path fill="none" stroke="midnightblue" d="M801.95,-166.773C931.231,-145.226 1229.54,-95.5076 1349.38,-75.5345"/>
<polygon fill="midnightblue" stroke="midnightblue" points="801.114,-163.364 791.826,-168.46 802.265,-170.268 801.114,-163.364"/>
</g>
<!-- Node7 -->
<g id="node18" class="node"><title>Node7</title>
<a xlink:href="_simple_neural_creator_8cpp.html" target="_top" xlink:title="/Users/mcasl/pc&#45;ule/Trabajo/investigacion/AMORE/AMORE&#45;WC/AMORE&#45;WC/pkg/AMORE/src/SimpleNeuralCreator.cpp">
<polygon fill="white" stroke="black" points="1373.59,-112.5 1373.59,-131.5 1931.59,-131.5 1931.59,-112.5 1373.59,-112.5"/>
<text text-anchor="middle" x="1652.59" y="-119.5" font-family="Helvetica,sans-Serif" font-size="10.00">/Users/mcasl/pc&#45;ule/Trabajo/investigacion/AMORE/AMORE&#45;WC/AMORE&#45;WC/pkg/AMORE/src/SimpleNeuralCreator.cpp</text>
</a>
</g>
<!-- Node1&#45;&gt;Node7 -->
<g id="edge22" class="edge"><title>Node1&#45;&gt;Node7</title>
<path fill="none" stroke="midnightblue" d="M894.471,-167.888C1066.09,-157.727 1341.5,-141.42 1508.88,-131.509"/>
<polygon fill="midnightblue" stroke="midnightblue" points="894.116,-164.403 884.34,-168.488 894.53,-171.391 894.116,-164.403"/>
</g>
<!-- Node3&#45;&gt;Node2 -->
<g id="edge6" class="edge"><title>Node3&#45;&gt;Node2</title>
<path fill="none" stroke="midnightblue" d="M153.698,-111.204C105.708,-104.712 61.7421,-93.9244 46.5859,-76 40.8465,-69.2124 40.5691,-62.543 46.5859,-56 67.2671,-33.5097 206.89,-22.2538 338.436,-16.6235"/>
<polygon fill="midnightblue" stroke="midnightblue" points="153.301,-114.681 163.666,-112.485 154.194,-107.739 153.301,-114.681"/>
</g>
<!-- Node3&#45;&gt;Node4 -->
<g id="edge8" class="edge"><title>Node3&#45;&gt;Node4</title>
<path fill="none" stroke="midnightblue" d="M313.586,-101.805C313.586,-92.9102 313.586,-82.7798 313.586,-75.7511"/>
<polygon fill="midnightblue" stroke="midnightblue" points="310.086,-102.083 313.586,-112.083 317.086,-102.083 310.086,-102.083"/>
</g>
<!-- Node4&#45;&gt;Node2 -->
<g id="edge10" class="edge"><title>Node4&#45;&gt;Node2</title>
<path fill="none" stroke="midnightblue" d="M366.024,-54.4734C416.863,-44.2678 493.022,-28.9794 540.161,-19.5164"/>
<polygon fill="midnightblue" stroke="midnightblue" points="365.325,-51.0437 356.21,-56.4435 366.703,-57.9068 365.325,-51.0437"/>
</g>
<!-- Node5&#45;&gt;Node2 -->
<g id="edge14" class="edge"><title>Node5&#45;&gt;Node2</title>
<path fill="none" stroke="midnightblue" d="M799.953,-54.4734C748.925,-44.2678 672.483,-28.9794 625.168,-19.5164"/>
<polygon fill="midnightblue" stroke="midnightblue" points="799.311,-57.9143 809.804,-56.4435 800.684,-51.0503 799.311,-57.9143"/>
</g>
<!-- Node6&#45;&gt;Node2 -->
<g id="edge20" class="edge"><title>Node6&#45;&gt;Node2</title>
<path fill="none" stroke="midnightblue" d="M1261.41,-55.8125C1107.38,-45.6441 861.155,-29.3896 711.408,-19.5042"/>
<polygon fill="midnightblue" stroke="midnightblue" points="1261.21,-59.3069 1271.42,-56.4733 1261.68,-52.3221 1261.21,-59.3069"/>
</g>
<!-- Node7&#45;&gt;Node2 -->
<g id="edge24" class="edge"><title>Node7&#45;&gt;Node2</title>
<path fill="none" stroke="midnightblue" d="M1667.05,-104.14C1677.66,-89.6823 1688.22,-69.1601 1675.59,-56 1646.62,-25.8221 1139.81,-15.8681 826.613,-12.5948"/>
<polygon fill="midnightblue" stroke="midnightblue" points="1664.1,-102.225 1660.64,-112.238 1669.59,-106.569 1664.1,-102.225"/>
</g>
</g>
</svg>
