<?xml version="1.0" encoding="UTF-8" standalone="no"?>
<!DOCTYPE svg PUBLIC "-//W3C//DTD SVG 1.1//EN"
 "http://www.w3.org/Graphics/SVG/1.1/DTD/svg11.dtd">
<!-- Generated by graphviz version 2.28.0 (20110610.2051)
 -->
<!-- Title: G Pages: 1 -->
<svg width="1082pt" height="140pt"
 viewBox="0.00 0.00 1082.00 140.00" xmlns="http://www.w3.org/2000/svg" xmlns:xlink="http://www.w3.org/1999/xlink">
<g id="graph1" class="graph" transform="scale(1 1) rotate(0) translate(4 136)">
<title>G</title>
<polygon fill="white" stroke="white" points="-4,5 -4,-136 1079,-136 1079,5 -4,5"/>
<!-- Node1 -->
<g id="node1" class="node"><title>Node1</title>
<polygon fill="#bfbfbf" stroke="black" points="0,-112.5 0,-131.5 550,-131.5 550,-112.5 0,-112.5"/>
<text text-anchor="middle" x="275" y="-119.5" font-family="Helvetica,sans-Serif" font-size="10.00">/Users/mcasl/pc&#45;ule/Trabajo/investigacion/AMORE/AMORE&#45;WC/AMORE&#45;WC/pkg/AMORE/src/classHeaders/Identity.h</text>
</g>
<!-- Node2 -->
<g id="node3" class="node"><title>Node2</title>
<a xlink:href="_a_m_o_r_e_8h.html" target="_top" xlink:title="/Users/mcasl/pc&#45;ule/Trabajo/investigacion/AMORE/AMORE&#45;WC/AMORE&#45;WC/pkg/AMORE/src/AMORE.h">
<polygon fill="white" stroke="black" points="31,-0.5 31,-19.5 519,-19.5 519,-0.5 31,-0.5"/>
<text text-anchor="middle" x="275" y="-7.5" font-family="Helvetica,sans-Serif" font-size="10.00">/Users/mcasl/pc&#45;ule/Trabajo/investigacion/AMORE/AMORE&#45;WC/AMORE&#45;WC/pkg/AMORE/src/AMORE.h</text>
</a>
</g>
<!-- Node1&#45;&gt;Node2 -->
<g id="edge2" class="edge"><title>Node1&#45;&gt;Node2</title>
<path fill="none" stroke="midnightblue" d="M124.708,-111.182C76.6983,-104.69 32.0549,-93.9081 17,-76 11.28,-69.196 11.28,-62.804 17,-56 33.0921,-36.8582 82.99,-25.8579 134.671,-19.5368"/>
<polygon fill="midnightblue" stroke="midnightblue" points="124.306,-114.659 134.671,-112.463 125.199,-107.716 124.306,-114.659"/>
</g>
<!-- Node3 -->
<g id="node5" class="node"><title>Node3</title>
<a xlink:href="_identity_8cpp.html" target="_top" xlink:title="/Users/mcasl/pc&#45;ule/Trabajo/investigacion/AMORE/AMORE&#45;WC/AMORE&#45;WC/pkg/AMORE/src/Identity.cpp">
<polygon fill="white" stroke="black" points="26.5,-56.5 26.5,-75.5 523.5,-75.5 523.5,-56.5 26.5,-56.5"/>
<text text-anchor="middle" x="275" y="-63.5" font-family="Helvetica,sans-Serif" font-size="10.00">/Users/mcasl/pc&#45;ule/Trabajo/investigacion/AMORE/AMORE&#45;WC/AMORE&#45;WC/pkg/AMORE/src/Identity.cpp</text>
</a>
</g>
<!-- Node1&#45;&gt;Node3 -->
<g id="edge4" class="edge"><title>Node1&#45;&gt;Node3</title>
<path fill="none" stroke="midnightblue" d="M275,-101.805C275,-92.9102 275,-82.7798 275,-75.7511"/>
<polygon fill="midnightblue" stroke="midnightblue" points="271.5,-102.083 275,-112.083 278.5,-102.083 271.5,-102.083"/>
</g>
<!-- Node4 -->
<g id="node8" class="node"><title>Node4</title>
<a xlink:href="_identity_factory_8cpp.html" target="_top" xlink:title="/Users/mcasl/pc&#45;ule/Trabajo/investigacion/AMORE/AMORE&#45;WC/AMORE&#45;WC/pkg/AMORE/src/IdentityFactory.cpp">
<polygon fill="white" stroke="black" points="542,-56.5 542,-75.5 1074,-75.5 1074,-56.5 542,-56.5"/>
<text text-anchor="middle" x="808" y="-63.5" font-family="Helvetica,sans-Serif" font-size="10.00">/Users/mcasl/pc&#45;ule/Trabajo/investigacion/AMORE/AMORE&#45;WC/AMORE&#45;WC/pkg/AMORE/src/IdentityFactory.cpp</text>
</a>
</g>
<!-- Node1&#45;&gt;Node4 -->
<g id="edge8" class="edge"><title>Node1&#45;&gt;Node4</title>
<path fill="none" stroke="midnightblue" d="M369.308,-111.445C469.799,-101.264 627.414,-85.2958 723.841,-75.5264"/>
<polygon fill="midnightblue" stroke="midnightblue" points="368.758,-107.983 359.161,-112.473 369.463,-114.947 368.758,-107.983"/>
</g>
<!-- Node3&#45;&gt;Node2 -->
<g id="edge6" class="edge"><title>Node3&#45;&gt;Node2</title>
<path fill="none" stroke="midnightblue" d="M275,-45.8045C275,-36.9102 275,-26.7798 275,-19.7511"/>
<polygon fill="midnightblue" stroke="midnightblue" points="271.5,-46.083 275,-56.083 278.5,-46.083 271.5,-46.083"/>
</g>
<!-- Node4&#45;&gt;Node2 -->
<g id="edge10" class="edge"><title>Node4&#45;&gt;Node2</title>
<path fill="none" stroke="midnightblue" d="M713.692,-55.4453C613.201,-45.2642 455.586,-29.2958 359.159,-19.5264"/>
<polygon fill="midnightblue" stroke="midnightblue" points="713.537,-58.9475 723.839,-56.4733 714.242,-51.9831 713.537,-58.9475"/>
</g>
</g>
</svg>
