<?xml version="1.0" encoding="UTF-8" standalone="no"?>
<!DOCTYPE svg PUBLIC "-//W3C//DTD SVG 1.1//EN"
 "http://www.w3.org/Graphics/SVG/1.1/DTD/svg11.dtd">
<!-- Generated by graphviz version 2.28.0 (20110610.2051)
 -->
<!-- Title: G Pages: 1 -->
<svg width="435pt" height="196pt"
 viewBox="0.00 0.00 435.00 196.00" xmlns="http://www.w3.org/2000/svg" xmlns:xlink="http://www.w3.org/1999/xlink">
<g id="graph1" class="graph" transform="scale(1 1) rotate(0) translate(4 192)">
<title>G</title>
<polygon fill="white" stroke="white" points="-4,5 -4,-192 432,-192 432,5 -4,5"/>
<!-- Node1 -->
<g id="node1" class="node"><title>Node1</title>
<polygon fill="#bfbfbf" stroke="black" points="17.5,-168.5 17.5,-187.5 206.5,-187.5 206.5,-168.5 17.5,-168.5"/>
<text text-anchor="middle" x="112" y="-175.5" font-family="Helvetica,sans-Serif" font-size="10.00">pkg/AMORE/src/dia/IteratorInterface.h</text>
</g>
<!-- Node2 -->
<g id="node3" class="node"><title>Node2</title>
<a xlink:href="_a_m_o_r_e_8h.html" target="_top" xlink:title="pkg/AMORE/src/AMORE.h">
<polygon fill="white" stroke="black" points="-0.5,-0.5 -0.5,-19.5 136.5,-19.5 136.5,-0.5 -0.5,-0.5"/>
<text text-anchor="middle" x="68" y="-7.5" font-family="Helvetica,sans-Serif" font-size="10.00">pkg/AMORE/src/AMORE.h</text>
</a>
</g>
<!-- Node1&#45;&gt;Node2 -->
<g id="edge2" class="edge"><title>Node1&#45;&gt;Node2</title>
<path fill="none" stroke="midnightblue" d="M52.2916,-165.12C34.3704,-158.465 16.6601,-148.106 6,-132 -4.77899,-115.714 7.35963,-75.9577 19,-56 27.8451,-40.8349 43.461,-27.8141 54.6892,-19.7375"/>
<polygon fill="midnightblue" stroke="midnightblue" points="51.6322,-168.591 62.2261,-168.45 53.8566,-161.953 51.6322,-168.591"/>
</g>
<!-- Node3 -->
<g id="node5" class="node"><title>Node3</title>
<a xlink:href="_container_iterator_8h.html" target="_top" xlink:title="pkg/AMORE/src/dia/ContainerIterator.h">
<polygon fill="white" stroke="black" points="15.5,-112.5 15.5,-131.5 208.5,-131.5 208.5,-112.5 15.5,-112.5"/>
<text text-anchor="middle" x="112" y="-119.5" font-family="Helvetica,sans-Serif" font-size="10.00">pkg/AMORE/src/dia/ContainerIterator.h</text>
</a>
</g>
<!-- Node1&#45;&gt;Node3 -->
<g id="edge4" class="edge"><title>Node1&#45;&gt;Node3</title>
<path fill="none" stroke="midnightblue" d="M112,-157.805C112,-148.91 112,-138.78 112,-131.751"/>
<polygon fill="midnightblue" stroke="midnightblue" points="108.5,-158.083 112,-168.083 115.5,-158.083 108.5,-158.083"/>
</g>
<!-- Node5 -->
<g id="node11" class="node"><title>Node5</title>
<a xlink:href="_iterator_interface_8cpp.html" target="_top" xlink:title="pkg/AMORE/src/IteratorInterface.cpp">
<polygon fill="white" stroke="black" points="242.5,-56.5 242.5,-75.5 427.5,-75.5 427.5,-56.5 242.5,-56.5"/>
<text text-anchor="middle" x="335" y="-63.5" font-family="Helvetica,sans-Serif" font-size="10.00">pkg/AMORE/src/IteratorInterface.cpp</text>
</a>
</g>
<!-- Node1&#45;&gt;Node5 -->
<g id="edge12" class="edge"><title>Node1&#45;&gt;Node5</title>
<path fill="none" stroke="midnightblue" d="M143.024,-164.646C164.121,-156.016 192.537,-143.944 217,-132 255.041,-113.427 298.277,-88.6242 320.346,-75.6856"/>
<polygon fill="midnightblue" stroke="midnightblue" points="141.545,-161.469 133.596,-168.473 144.178,-167.955 141.545,-161.469"/>
</g>
<!-- Node3&#45;&gt;Node2 -->
<g id="edge6" class="edge"><title>Node3&#45;&gt;Node2</title>
<path fill="none" stroke="midnightblue" d="M68.3799,-108.849C52.1526,-101.978 35.4104,-91.5449 26,-76 13.5454,-55.4265 39.0419,-31.8448 55.5064,-19.5202"/>
<polygon fill="midnightblue" stroke="midnightblue" points="67.2261,-112.155 77.8155,-112.493 69.7485,-105.625 67.2261,-112.155"/>
</g>
<!-- Node4 -->
<g id="node8" class="node"><title>Node4</title>
<a xlink:href="_container_iterator_8cpp.html" target="_top" xlink:title="pkg/AMORE/src/ContainerIterator.cpp">
<polygon fill="white" stroke="black" points="35.5,-56.5 35.5,-75.5 224.5,-75.5 224.5,-56.5 35.5,-56.5"/>
<text text-anchor="middle" x="130" y="-63.5" font-family="Helvetica,sans-Serif" font-size="10.00">pkg/AMORE/src/ContainerIterator.cpp</text>
</a>
</g>
<!-- Node3&#45;&gt;Node4 -->
<g id="edge8" class="edge"><title>Node3&#45;&gt;Node4</title>
<path fill="none" stroke="midnightblue" d="M118.201,-102.396C121.213,-93.362 124.688,-82.936 127.083,-75.7511"/>
<polygon fill="midnightblue" stroke="midnightblue" points="114.814,-101.489 114.972,-112.083 121.455,-103.703 114.814,-101.489"/>
</g>
<!-- Node4&#45;&gt;Node2 -->
<g id="edge10" class="edge"><title>Node4&#45;&gt;Node2</title>
<path fill="none" stroke="midnightblue" d="M112.246,-49.5372C101.192,-39.9087 87.3685,-27.8694 78.1426,-19.8339"/>
<polygon fill="midnightblue" stroke="midnightblue" points="110.199,-52.3954 120.039,-56.324 114.797,-47.1168 110.199,-52.3954"/>
</g>
<!-- Node5&#45;&gt;Node2 -->
<g id="edge14" class="edge"><title>Node5&#45;&gt;Node2</title>
<path fill="none" stroke="midnightblue" d="M282.636,-54.4096C232.176,-44.2042 156.801,-28.9597 110.109,-19.5164"/>
<polygon fill="midnightblue" stroke="midnightblue" points="282.198,-57.8917 292.693,-56.4435 283.585,-51.0306 282.198,-57.8917"/>
</g>
</g>
</svg>
