<?xml version="1.0" encoding="UTF-8" standalone="no"?>
<!DOCTYPE svg PUBLIC "-//W3C//DTD SVG 1.1//EN"
 "http://www.w3.org/Graphics/SVG/1.1/DTD/svg11.dtd">
<!-- Generated by graphviz version 2.28.0 (20110610.2051)
 -->
<!-- Title: G Pages: 1 -->
<svg width="7562pt" height="196pt"
 viewBox="0.00 0.00 7562.45 196.00" xmlns="http://www.w3.org/2000/svg" xmlns:xlink="http://www.w3.org/1999/xlink">
<g id="graph1" class="graph" transform="scale(1 1) rotate(0) translate(4 192)">
<title>G</title>
<polygon fill="white" stroke="white" points="-4,5 -4,-192 7559.45,-192 7559.45,5 -4,5"/>
<!-- Node1 -->
<g id="node1" class="node"><title>Node1</title>
<polygon fill="#bfbfbf" stroke="black" points="2448.95,-168.5 2448.95,-187.5 3015.95,-187.5 3015.95,-168.5 2448.95,-168.5"/>
<text text-anchor="middle" x="2732.45" y="-175.5" font-family="Helvetica,sans-Serif" font-size="10.00">/Users/mcasl/pc&#45;ule/Trabajo/investigacion/AMORE/AMORE&#45;WC/AMORE&#45;WC/pkg/AMORE/src/classHeaders/MLPfactory.h</text>
</g>
<!-- Node2 -->
<g id="node3" class="node"><title>Node2</title>
<a xlink:href="_a_m_o_r_e_8h.html" target="_top" xlink:title="/Users/mcasl/pc&#45;ule/Trabajo/investigacion/AMORE/AMORE&#45;WC/AMORE&#45;WC/pkg/AMORE/src/AMORE.h">
<polygon fill="white" stroke="black" points="617.45,-0.5 617.45,-19.5 1105.45,-19.5 1105.45,-0.5 617.45,-0.5"/>
<text text-anchor="middle" x="861.45" y="-7.5" font-family="Helvetica,sans-Serif" font-size="10.00">/Users/mcasl/pc&#45;ule/Trabajo/investigacion/AMORE/AMORE&#45;WC/AMORE&#45;WC/pkg/AMORE/src/AMORE.h</text>
</a>
</g>
<!-- Node1&#45;&gt;Node2 -->
<g id="edge2" class="edge"><title>Node1&#45;&gt;Node2</title>
<path fill="none" stroke="midnightblue" d="M2438.62,-174.952C1829.55,-170.227 468.377,-157.007 257.45,-132 143.085,-118.441 76.5505,-165.804 4.45042,-76 -1.1145,-69.0686 -1.66796,-62.4481 4.45042,-56 25.4817,-33.8355 371.538,-21.598 617.384,-15.6669"/>
<polygon fill="midnightblue" stroke="midnightblue" points="2438.83,-178.454 2448.86,-175.031 2438.89,-171.454 2438.83,-178.454"/>
</g>
<!-- Node3 -->
<g id="node5" class="node"><title>Node3</title>
<a xlink:href="_tanh_factory_8h.html" target="_top" xlink:title="/Users/mcasl/pc&#45;ule/Trabajo/investigacion/AMORE/AMORE&#45;WC/AMORE&#45;WC/pkg/AMORE/src/classHeaders/TanhFactory.h">
<polygon fill="white" stroke="black" points="277.95,-112.5 277.95,-131.5 848.95,-131.5 848.95,-112.5 277.95,-112.5"/>
<text text-anchor="middle" x="563.45" y="-119.5" font-family="Helvetica,sans-Serif" font-size="10.00">/Users/mcasl/pc&#45;ule/Trabajo/investigacion/AMORE/AMORE&#45;WC/AMORE&#45;WC/pkg/AMORE/src/classHeaders/TanhFactory.h</text>
</a>
</g>
<!-- Node1&#45;&gt;Node3 -->
<g id="edge4" class="edge"><title>Node1&#45;&gt;Node3</title>
<path fill="none" stroke="midnightblue" d="M2438.67,-170.535C2069.69,-162.28 1417.18,-147.231 858.45,-132 852.56,-131.839 846.604,-131.675 840.599,-131.508"/>
<polygon fill="midnightblue" stroke="midnightblue" points="2438.61,-174.035 2448.69,-170.759 2438.77,-167.036 2438.61,-174.035"/>
</g>
<!-- Node4 -->
<g id="node8" class="node"><title>Node4</title>
<a xlink:href="_tanh_factory_8cpp.html" target="_top" xlink:title="/Users/mcasl/pc&#45;ule/Trabajo/investigacion/AMORE/AMORE&#45;WC/AMORE&#45;WC/pkg/AMORE/src/TanhFactory.cpp">
<polygon fill="white" stroke="black" points="13.4504,-56.5 13.4504,-75.5 531.45,-75.5 531.45,-56.5 13.4504,-56.5"/>
<text text-anchor="middle" x="272.45" y="-63.5" font-family="Helvetica,sans-Serif" font-size="10.00">/Users/mcasl/pc&#45;ule/Trabajo/investigacion/AMORE/AMORE&#45;WC/AMORE&#45;WC/pkg/AMORE/src/TanhFactory.cpp</text>
</a>
</g>
<!-- Node1&#45;&gt;Node4 -->
<g id="edge30" class="edge"><title>Node1&#45;&gt;Node4</title>
<path fill="none" stroke="midnightblue" d="M2438.54,-176.964C1793.1,-176.179 305.975,-170.217 268.45,-132 253.717,-116.995 262.505,-89.481 268.412,-75.5563"/>
<polygon fill="midnightblue" stroke="midnightblue" points="2438.91,-180.464 2448.92,-176.976 2438.92,-173.464 2438.91,-180.464"/>
</g>
<!-- Node6 -->
<g id="node14" class="node"><title>Node6</title>
<a xlink:href="_identity_factory_8h.html" target="_top" xlink:title="/Users/mcasl/pc&#45;ule/Trabajo/investigacion/AMORE/AMORE&#45;WC/AMORE&#45;WC/pkg/AMORE/src/classHeaders/IdentityFactory.h">
<polygon fill="white" stroke="black" points="867.45,-112.5 867.45,-131.5 1451.45,-131.5 1451.45,-112.5 867.45,-112.5"/>
<text text-anchor="middle" x="1159.45" y="-119.5" font-family="Helvetica,sans-Serif" font-size="10.00">/Users/mcasl/pc&#45;ule/Trabajo/investigacion/AMORE/AMORE&#45;WC/AMORE&#45;WC/pkg/AMORE/src/classHeaders/IdentityFactory.h</text>
</a>
</g>
<!-- Node1&#45;&gt;Node6 -->
<g id="edge16" class="edge"><title>Node1&#45;&gt;Node6</title>
<path fill="none" stroke="midnightblue" d="M2474.07,-168.13C2178.61,-157.987 1698.31,-141.499 1407.32,-131.509"/>
<polygon fill="midnightblue" stroke="midnightblue" points="2474.39,-171.643 2484.51,-168.488 2474.63,-164.647 2474.39,-171.643"/>
</g>
<!-- Node7 -->
<g id="node17" class="node"><title>Node7</title>
<a xlink:href="_identity_factory_8cpp.html" target="_top" xlink:title="/Users/mcasl/pc&#45;ule/Trabajo/investigacion/AMORE/AMORE&#45;WC/AMORE&#45;WC/pkg/AMORE/src/IdentityFactory.cpp">
<polygon fill="white" stroke="black" points="1191.45,-56.5 1191.45,-75.5 1723.45,-75.5 1723.45,-56.5 1191.45,-56.5"/>
<text text-anchor="middle" x="1457.45" y="-63.5" font-family="Helvetica,sans-Serif" font-size="10.00">/Users/mcasl/pc&#45;ule/Trabajo/investigacion/AMORE/AMORE&#45;WC/AMORE&#45;WC/pkg/AMORE/src/IdentityFactory.cpp</text>
</a>
</g>
<!-- Node1&#45;&gt;Node7 -->
<g id="edge32" class="edge"><title>Node1&#45;&gt;Node7</title>
<path fill="none" stroke="midnightblue" d="M2438.49,-176.566C2109.09,-174.418 1610.24,-165.557 1528.45,-132 1499.38,-120.075 1474.72,-90.6097 1463.67,-75.7979"/>
<polygon fill="midnightblue" stroke="midnightblue" points="2438.65,-180.067 2448.67,-176.63 2438.69,-173.067 2438.65,-180.067"/>
</g>
<!-- Node8 -->
<g id="node21" class="node"><title>Node8</title>
<a xlink:href="_m_l_pfactory_8cpp.html" target="_top" xlink:title="/Users/mcasl/pc&#45;ule/Trabajo/investigacion/AMORE/AMORE&#45;WC/AMORE&#45;WC/pkg/AMORE/src/MLPfactory.cpp">
<polygon fill="white" stroke="black" points="1741.95,-56.5 1741.95,-75.5 2256.95,-75.5 2256.95,-56.5 1741.95,-56.5"/>
<text text-anchor="middle" x="1999.45" y="-63.5" font-family="Helvetica,sans-Serif" font-size="10.00">/Users/mcasl/pc&#45;ule/Trabajo/investigacion/AMORE/AMORE&#45;WC/AMORE&#45;WC/pkg/AMORE/src/MLPfactory.cpp</text>
</a>
</g>
<!-- Node1&#45;&gt;Node8 -->
<g id="edge26" class="edge"><title>Node1&#45;&gt;Node8</title>
<path fill="none" stroke="midnightblue" d="M2438.62,-176.012C2094.88,-173.372 1568.35,-164.08 1537.45,-132 1531.28,-125.597 1531.48,-118.583 1537.45,-112 1554.49,-93.2187 1666.47,-82.0273 1775.91,-75.5027"/>
<polygon fill="midnightblue" stroke="midnightblue" points="2438.71,-179.513 2448.74,-176.088 2438.76,-172.513 2438.71,-179.513"/>
</g>
<!-- Node9 -->
<g id="node26" class="node"><title>Node9</title>
<a xlink:href="_arc_tan_factory_8h.html" target="_top" xlink:title="/Users/mcasl/pc&#45;ule/Trabajo/investigacion/AMORE/AMORE&#45;WC/AMORE&#45;WC/pkg/AMORE/src/classHeaders/ArcTanFactory.h">
<polygon fill="white" stroke="black" points="1545.95,-112.5 1545.95,-131.5 2126.95,-131.5 2126.95,-112.5 1545.95,-112.5"/>
<text text-anchor="middle" x="1836.45" y="-119.5" font-family="Helvetica,sans-Serif" font-size="10.00">/Users/mcasl/pc&#45;ule/Trabajo/investigacion/AMORE/AMORE&#45;WC/AMORE&#45;WC/pkg/AMORE/src/classHeaders/ArcTanFactory.h</text>
</a>
</g>
<!-- Node1&#45;&gt;Node9 -->
<g id="edge34" class="edge"><title>Node1&#45;&gt;Node9</title>
<path fill="none" stroke="midnightblue" d="M2580.76,-167.858C2412.09,-157.693 2141.83,-141.404 1977.56,-131.504"/>
<polygon fill="midnightblue" stroke="midnightblue" points="2580.78,-171.365 2590.97,-168.473 2581.2,-164.378 2580.78,-171.365"/>
</g>
<!-- Node10 -->
<g id="node28" class="node"><title>Node10</title>
<a xlink:href="_cosine_factory_8h.html" target="_top" xlink:title="/Users/mcasl/pc&#45;ule/Trabajo/investigacion/AMORE/AMORE&#45;WC/AMORE&#45;WC/pkg/AMORE/src/classHeaders/CosineFactory.h">
<polygon fill="white" stroke="black" points="2144.95,-112.5 2144.95,-131.5 2725.95,-131.5 2725.95,-112.5 2144.95,-112.5"/>
<text text-anchor="middle" x="2435.45" y="-119.5" font-family="Helvetica,sans-Serif" font-size="10.00">/Users/mcasl/pc&#45;ule/Trabajo/investigacion/AMORE/AMORE&#45;WC/AMORE&#45;WC/pkg/AMORE/src/classHeaders/CosineFactory.h</text>
</a>
</g>
<!-- Node1&#45;&gt;Node10 -->
<g id="edge36" class="edge"><title>Node1&#45;&gt;Node10</title>
<path fill="none" stroke="midnightblue" d="M2675.25,-166.601C2619.12,-156.395 2534.55,-141.019 2482.29,-131.516"/>
<polygon fill="midnightblue" stroke="midnightblue" points="2674.93,-170.098 2685.39,-168.444 2676.18,-163.211 2674.93,-170.098"/>
</g>
<!-- Node11 -->
<g id="node30" class="node"><title>Node11</title>
<a xlink:href="_elliot_factory_8h.html" target="_top" xlink:title="/Users/mcasl/pc&#45;ule/Trabajo/investigacion/AMORE/AMORE&#45;WC/AMORE&#45;WC/pkg/AMORE/src/classHeaders/ElliotFactory.h">
<polygon fill="white" stroke="black" points="2744.45,-112.5 2744.45,-131.5 3316.45,-131.5 3316.45,-112.5 2744.45,-112.5"/>
<text text-anchor="middle" x="3030.45" y="-119.5" font-family="Helvetica,sans-Serif" font-size="10.00">/Users/mcasl/pc&#45;ule/Trabajo/investigacion/AMORE/AMORE&#45;WC/AMORE&#45;WC/pkg/AMORE/src/classHeaders/ElliotFactory.h</text>
</a>
</g>
<!-- Node1&#45;&gt;Node11 -->
<g id="edge38" class="edge"><title>Node1&#45;&gt;Node11</title>
<path fill="none" stroke="midnightblue" d="M2789.84,-166.601C2846.16,-156.395 2931.01,-141.019 2983.45,-131.516"/>
<polygon fill="midnightblue" stroke="midnightblue" points="2788.89,-163.217 2779.67,-168.444 2790.13,-170.104 2788.89,-163.217"/>
</g>
<!-- Node12 -->
<g id="node32" class="node"><title>Node12</title>
<a xlink:href="_exponential_factory_8h.html" target="_top" xlink:title="/Users/mcasl/pc&#45;ule/Trabajo/investigacion/AMORE/AMORE&#45;WC/AMORE&#45;WC/pkg/AMORE/src/classHeaders/ExponentialFactory.h">
<polygon fill="white" stroke="black" points="3334.45,-112.5 3334.45,-131.5 3938.45,-131.5 3938.45,-112.5 3334.45,-112.5"/>
<text text-anchor="middle" x="3636.45" y="-119.5" font-family="Helvetica,sans-Serif" font-size="10.00">/Users/mcasl/pc&#45;ule/Trabajo/investigacion/AMORE/AMORE&#45;WC/AMORE&#45;WC/pkg/AMORE/src/classHeaders/ExponentialFactory.h</text>
</a>
</g>
<!-- Node1&#45;&gt;Node12 -->
<g id="edge40" class="edge"><title>Node1&#45;&gt;Node12</title>
<path fill="none" stroke="midnightblue" d="M2885.24,-167.873C3055.4,-157.709 3328.26,-141.409 3494.08,-131.504"/>
<polygon fill="midnightblue" stroke="midnightblue" points="2884.97,-164.383 2875.19,-168.473 2885.38,-171.371 2884.97,-164.383"/>
</g>
<!-- Node13 -->
<g id="node34" class="node"><title>Node13</title>
<a xlink:href="_gauss_factory_8h.html" target="_top" xlink:title="/Users/mcasl/pc&#45;ule/Trabajo/investigacion/AMORE/AMORE&#45;WC/AMORE&#45;WC/pkg/AMORE/src/classHeaders/GaussFactory.h">
<polygon fill="white" stroke="black" points="3956.45,-112.5 3956.45,-131.5 4534.45,-131.5 4534.45,-112.5 3956.45,-112.5"/>
<text text-anchor="middle" x="4245.45" y="-119.5" font-family="Helvetica,sans-Serif" font-size="10.00">/Users/mcasl/pc&#45;ule/Trabajo/investigacion/AMORE/AMORE&#45;WC/AMORE&#45;WC/pkg/AMORE/src/classHeaders/GaussFactory.h</text>
</a>
</g>
<!-- Node1&#45;&gt;Node13 -->
<g id="edge42" class="edge"><title>Node1&#45;&gt;Node13</title>
<path fill="none" stroke="midnightblue" d="M2980.97,-168.13C3265.16,-157.987 3727.14,-141.499 4007.04,-131.509"/>
<polygon fill="midnightblue" stroke="midnightblue" points="2980.81,-164.634 2970.94,-168.488 2981.06,-171.629 2980.81,-164.634"/>
</g>
<!-- Node14 -->
<g id="node36" class="node"><title>Node14</title>
<a xlink:href="_logistic_factory_8h.html" target="_top" xlink:title="/Users/mcasl/pc&#45;ule/Trabajo/investigacion/AMORE/AMORE&#45;WC/AMORE&#45;WC/pkg/AMORE/src/classHeaders/LogisticFactory.h">
<polygon fill="white" stroke="black" points="4552.45,-112.5 4552.45,-131.5 5138.45,-131.5 5138.45,-112.5 4552.45,-112.5"/>
<text text-anchor="middle" x="4845.45" y="-119.5" font-family="Helvetica,sans-Serif" font-size="10.00">/Users/mcasl/pc&#45;ule/Trabajo/investigacion/AMORE/AMORE&#45;WC/AMORE&#45;WC/pkg/AMORE/src/classHeaders/LogisticFactory.h</text>
</a>
</g>
<!-- Node1&#45;&gt;Node14 -->
<g id="edge44" class="edge"><title>Node1&#45;&gt;Node14</title>
<path fill="none" stroke="midnightblue" d="M3026.6,-170.138C3384.9,-161.676 4008.63,-146.614 4543.45,-132 4549.35,-131.839 4555.31,-131.674 4561.32,-131.507"/>
<polygon fill="midnightblue" stroke="midnightblue" points="3026.25,-166.645 3016.34,-170.38 3026.42,-173.643 3026.25,-166.645"/>
</g>
<!-- Node15 -->
<g id="node38" class="node"><title>Node15</title>
<a xlink:href="_reciprocal_factory_8h.html" target="_top" xlink:title="/Users/mcasl/pc&#45;ule/Trabajo/investigacion/AMORE/AMORE&#45;WC/AMORE&#45;WC/pkg/AMORE/src/classHeaders/ReciprocalFactory.h">
<polygon fill="white" stroke="black" points="5156.45,-112.5 5156.45,-131.5 5754.45,-131.5 5754.45,-112.5 5156.45,-112.5"/>
<text text-anchor="middle" x="5455.45" y="-119.5" font-family="Helvetica,sans-Serif" font-size="10.00">/Users/mcasl/pc&#45;ule/Trabajo/investigacion/AMORE/AMORE&#45;WC/AMORE&#45;WC/pkg/AMORE/src/classHeaders/ReciprocalFactory.h</text>
</a>
</g>
<!-- Node1&#45;&gt;Node15 -->
<g id="edge46" class="edge"><title>Node1&#45;&gt;Node15</title>
<path fill="none" stroke="midnightblue" d="M3026.28,-172.527C3480.96,-165.378 4382.44,-150.304 5147.45,-132 5154.14,-131.84 5160.9,-131.674 5167.73,-131.504"/>
<polygon fill="midnightblue" stroke="midnightblue" points="3025.9,-169.032 3015.96,-172.689 3026.01,-176.031 3025.9,-169.032"/>
</g>
<!-- Node16 -->
<g id="node40" class="node"><title>Node16</title>
<a xlink:href="_sine_factory_8h.html" target="_top" xlink:title="/Users/mcasl/pc&#45;ule/Trabajo/investigacion/AMORE/AMORE&#45;WC/AMORE&#45;WC/pkg/AMORE/src/classHeaders/SineFactory.h">
<polygon fill="white" stroke="black" points="5772.45,-112.5 5772.45,-131.5 6342.45,-131.5 6342.45,-112.5 5772.45,-112.5"/>
<text text-anchor="middle" x="6057.45" y="-119.5" font-family="Helvetica,sans-Serif" font-size="10.00">/Users/mcasl/pc&#45;ule/Trabajo/investigacion/AMORE/AMORE&#45;WC/AMORE&#45;WC/pkg/AMORE/src/classHeaders/SineFactory.h</text>
</a>
</g>
<!-- Node1&#45;&gt;Node16 -->
<g id="edge48" class="edge"><title>Node1&#45;&gt;Node16</title>
<path fill="none" stroke="midnightblue" d="M3026.41,-174.174C3567.87,-168.625 4759.35,-154.821 5763.45,-132 5770.34,-131.843 5777.33,-131.678 5784.37,-131.506"/>
<polygon fill="midnightblue" stroke="midnightblue" points="3026.07,-170.677 3016.11,-174.279 3026.15,-177.676 3026.07,-170.677"/>
</g>
<!-- Node17 -->
<g id="node42" class="node"><title>Node17</title>
<a xlink:href="_square_factory_8h.html" target="_top" xlink:title="/Users/mcasl/pc&#45;ule/Trabajo/investigacion/AMORE/AMORE&#45;WC/AMORE&#45;WC/pkg/AMORE/src/classHeaders/SquareFactory.h">
<polygon fill="white" stroke="black" points="6360.45,-112.5 6360.45,-131.5 6942.45,-131.5 6942.45,-112.5 6360.45,-112.5"/>
<text text-anchor="middle" x="6651.45" y="-119.5" font-family="Helvetica,sans-Serif" font-size="10.00">/Users/mcasl/pc&#45;ule/Trabajo/investigacion/AMORE/AMORE&#45;WC/AMORE&#45;WC/pkg/AMORE/src/classHeaders/SquareFactory.h</text>
</a>
</g>
<!-- Node1&#45;&gt;Node17 -->
<g id="edge50" class="edge"><title>Node1&#45;&gt;Node17</title>
<path fill="none" stroke="midnightblue" d="M3026.41,-175.093C3642.85,-170.708 5115.95,-158.212 6351.45,-132 6358.74,-131.845 6366.14,-131.681 6373.6,-131.507"/>
<polygon fill="midnightblue" stroke="midnightblue" points="3026.03,-171.595 3016.05,-175.166 3026.08,-178.595 3026.03,-171.595"/>
</g>
<!-- Node18 -->
<g id="node44" class="node"><title>Node18</title>
<a xlink:href="_threshold_factory_8h.html" target="_top" xlink:title="/Users/mcasl/pc&#45;ule/Trabajo/investigacion/AMORE/AMORE&#45;WC/AMORE&#45;WC/pkg/AMORE/src/classHeaders/ThresholdFactory.h">
<polygon fill="white" stroke="black" points="6960.45,-112.5 6960.45,-131.5 7554.45,-131.5 7554.45,-112.5 6960.45,-112.5"/>
<text text-anchor="middle" x="7257.45" y="-119.5" font-family="Helvetica,sans-Serif" font-size="10.00">/Users/mcasl/pc&#45;ule/Trabajo/investigacion/AMORE/AMORE&#45;WC/AMORE&#45;WC/pkg/AMORE/src/classHeaders/ThresholdFactory.h</text>
</a>
</g>
<!-- Node1&#45;&gt;Node18 -->
<g id="edge52" class="edge"><title>Node1&#45;&gt;Node18</title>
<path fill="none" stroke="midnightblue" d="M3026.14,-175.76C3712.9,-172.447 5477.26,-161.539 6951.45,-132 6959.16,-131.846 6966.97,-131.68 6974.85,-131.504"/>
<polygon fill="midnightblue" stroke="midnightblue" points="3026.09,-172.26 3016.11,-175.808 3026.13,-179.26 3026.09,-172.26"/>
</g>
<!-- Node3&#45;&gt;Node2 -->
<g id="edge6" class="edge"><title>Node3&#45;&gt;Node2</title>
<path fill="none" stroke="midnightblue" d="M562.514,-102.364C562.855,-87.6506 565.9,-67.7114 578.45,-56 598.955,-36.8654 656.294,-25.8566 714.044,-19.5277"/>
<polygon fill="midnightblue" stroke="midnightblue" points="559.015,-102.43 562.669,-112.375 566.014,-102.322 559.015,-102.43"/>
</g>
<!-- Node3&#45;&gt;Node4 -->
<g id="edge8" class="edge"><title>Node3&#45;&gt;Node4</title>
<path fill="none" stroke="midnightblue" d="M507.41,-110.601C452.414,-100.395 369.552,-85.0189 318.345,-75.5164"/>
<polygon fill="midnightblue" stroke="midnightblue" points="506.87,-114.06 517.341,-112.444 508.147,-107.178 506.87,-114.06"/>
</g>
<!-- Node5 -->
<g id="node11" class="node"><title>Node5</title>
<a xlink:href="_network_rinterface_8cpp.html" target="_top" xlink:title="/Users/mcasl/pc&#45;ule/Trabajo/investigacion/AMORE/AMORE&#45;WC/AMORE&#45;WC/pkg/AMORE/src/NetworkRinterface.cpp">
<polygon fill="white" stroke="black" points="587.45,-56.5 587.45,-75.5 1135.45,-75.5 1135.45,-56.5 587.45,-56.5"/>
<text text-anchor="middle" x="861.45" y="-63.5" font-family="Helvetica,sans-Serif" font-size="10.00">/Users/mcasl/pc&#45;ule/Trabajo/investigacion/AMORE/AMORE&#45;WC/AMORE&#45;WC/pkg/AMORE/src/NetworkRinterface.cpp</text>
</a>
</g>
<!-- Node3&#45;&gt;Node5 -->
<g id="edge12" class="edge"><title>Node3&#45;&gt;Node5</title>
<path fill="none" stroke="midnightblue" d="M620.839,-110.601C677.158,-100.395 762.013,-85.0189 814.452,-75.5164"/>
<polygon fill="midnightblue" stroke="midnightblue" points="619.885,-107.217 610.669,-112.444 621.133,-114.104 619.885,-107.217"/>
</g>
<!-- Node4&#45;&gt;Node2 -->
<g id="edge10" class="edge"><title>Node4&#45;&gt;Node2</title>
<path fill="none" stroke="midnightblue" d="M375.659,-55.5377C486.66,-45.3611 661.568,-29.3254 768.449,-19.5264"/>
<polygon fill="midnightblue" stroke="midnightblue" points="375.093,-52.0749 365.454,-56.4733 375.732,-59.0457 375.093,-52.0749"/>
</g>
<!-- Node5&#45;&gt;Node2 -->
<g id="edge14" class="edge"><title>Node5&#45;&gt;Node2</title>
<path fill="none" stroke="midnightblue" d="M861.45,-45.8045C861.45,-36.9102 861.45,-26.7798 861.45,-19.7511"/>
<polygon fill="midnightblue" stroke="midnightblue" points="857.951,-46.083 861.45,-56.083 864.951,-46.083 857.951,-46.083"/>
</g>
<!-- Node6&#45;&gt;Node2 -->
<g id="edge18" class="edge"><title>Node6&#45;&gt;Node2</title>
<path fill="none" stroke="midnightblue" d="M1160.39,-102.364C1160.05,-87.6506 1157,-67.7114 1144.45,-56 1123.95,-36.8654 1066.61,-25.8566 1008.86,-19.5277"/>
<polygon fill="midnightblue" stroke="midnightblue" points="1156.89,-102.322 1160.23,-112.375 1163.89,-102.43 1156.89,-102.322"/>
</g>
<!-- Node6&#45;&gt;Node5 -->
<g id="edge24" class="edge"><title>Node6&#45;&gt;Node5</title>
<path fill="none" stroke="midnightblue" d="M1102.06,-110.601C1045.74,-100.395 960.888,-85.0189 908.448,-75.5164"/>
<polygon fill="midnightblue" stroke="midnightblue" points="1101.77,-114.104 1112.23,-112.444 1103.02,-107.217 1101.77,-114.104"/>
</g>
<!-- Node6&#45;&gt;Node7 -->
<g id="edge20" class="edge"><title>Node6&#45;&gt;Node7</title>
<path fill="none" stroke="midnightblue" d="M1216.84,-110.601C1273.16,-100.395 1358.01,-85.0189 1410.45,-75.5164"/>
<polygon fill="midnightblue" stroke="midnightblue" points="1215.89,-107.217 1206.67,-112.444 1217.13,-114.104 1215.89,-107.217"/>
</g>
<!-- Node7&#45;&gt;Node2 -->
<g id="edge22" class="edge"><title>Node7&#45;&gt;Node2</title>
<path fill="none" stroke="midnightblue" d="M1353.35,-55.5685C1241.05,-45.3934 1063.82,-29.3352 955.557,-19.5264"/>
<polygon fill="midnightblue" stroke="midnightblue" points="1353.07,-59.0566 1363.34,-56.4733 1353.7,-52.0852 1353.07,-59.0566"/>
</g>
<!-- Node8&#45;&gt;Node2 -->
<g id="edge28" class="edge"><title>Node8&#45;&gt;Node2</title>
<path fill="none" stroke="midnightblue" d="M1809.98,-56.0095C1596.03,-45.8569 1250.46,-29.4592 1040.77,-19.5091"/>
<polygon fill="midnightblue" stroke="midnightblue" points="1809.92,-59.5102 1820.07,-56.4882 1810.25,-52.5181 1809.92,-59.5102"/>
</g>
</g>
</svg>
