<?xml version="1.0" encoding="UTF-8" standalone="no"?>
<!DOCTYPE svg PUBLIC "-//W3C//DTD SVG 1.1//EN"
 "http://www.w3.org/Graphics/SVG/1.1/DTD/svg11.dtd">
<!-- Generated by graphviz version 2.28.0 (20110610.2051)
 -->
<!-- Title: G Pages: 1 -->
<svg width="1126pt" height="140pt"
 viewBox="0.00 0.00 1126.00 140.00" xmlns="http://www.w3.org/2000/svg" xmlns:xlink="http://www.w3.org/1999/xlink">
<g id="graph1" class="graph" transform="scale(1 1) rotate(0) translate(4 136)">
<title>G</title>
<polygon fill="white" stroke="white" points="-4,5 -4,-136 1123,-136 1123,5 -4,5"/>
<!-- Node1 -->
<g id="node1" class="node"><title>Node1</title>
<polygon fill="#bfbfbf" stroke="black" points="-0.5,-112.5 -0.5,-131.5 600.5,-131.5 600.5,-112.5 -0.5,-112.5"/>
<text text-anchor="middle" x="300" y="-119.5" font-family="Helvetica,sans-Serif" font-size="10.00">/Users/mcasl/pc&#45;ule/Trabajo/investigacion/AMORE/AMORE&#45;WC/AMORE&#45;WC/pkg/AMORE/src/classHeaders/NetworkRinterface.h</text>
</g>
<!-- Node2 -->
<g id="node3" class="node"><title>Node2</title>
<a xlink:href="_a_m_o_r_e_8h.html" target="_top" xlink:title="/Users/mcasl/pc&#45;ule/Trabajo/investigacion/AMORE/AMORE&#45;WC/AMORE&#45;WC/pkg/AMORE/src/AMORE.h">
<polygon fill="white" stroke="black" points="56,-0.5 56,-19.5 544,-19.5 544,-0.5 56,-0.5"/>
<text text-anchor="middle" x="300" y="-7.5" font-family="Helvetica,sans-Serif" font-size="10.00">/Users/mcasl/pc&#45;ule/Trabajo/investigacion/AMORE/AMORE&#45;WC/AMORE&#45;WC/pkg/AMORE/src/AMORE.h</text>
</a>
</g>
<!-- Node1&#45;&gt;Node2 -->
<g id="edge2" class="edge"><title>Node1&#45;&gt;Node2</title>
<path fill="none" stroke="midnightblue" d="M121.774,-111.124C74.4217,-104.589 32.1897,-93.7958 17,-76 11.2292,-69.2391 11.2292,-62.7609 17,-56 33.2701,-36.9384 80.5664,-25.9105 131.948,-19.5453"/>
<polygon fill="midnightblue" stroke="midnightblue" points="121.578,-114.628 131.948,-112.455 122.486,-107.687 121.578,-114.628"/>
</g>
<!-- Node3 -->
<g id="node5" class="node"><title>Node3</title>
<a xlink:href="_network_rinterface_8cpp.html" target="_top" xlink:title="/Users/mcasl/pc&#45;ule/Trabajo/investigacion/AMORE/AMORE&#45;WC/AMORE&#45;WC/pkg/AMORE/src/NetworkRinterface.cpp">
<polygon fill="white" stroke="black" points="26,-56.5 26,-75.5 574,-75.5 574,-56.5 26,-56.5"/>
<text text-anchor="middle" x="300" y="-63.5" font-family="Helvetica,sans-Serif" font-size="10.00">/Users/mcasl/pc&#45;ule/Trabajo/investigacion/AMORE/AMORE&#45;WC/AMORE&#45;WC/pkg/AMORE/src/NetworkRinterface.cpp</text>
</a>
</g>
<!-- Node1&#45;&gt;Node3 -->
<g id="edge4" class="edge"><title>Node1&#45;&gt;Node3</title>
<path fill="none" stroke="midnightblue" d="M300,-101.805C300,-92.9102 300,-82.7798 300,-75.7511"/>
<polygon fill="midnightblue" stroke="midnightblue" points="296.5,-102.083 300,-112.083 303.5,-102.083 296.5,-102.083"/>
</g>
<!-- Node4 -->
<g id="node8" class="node"><title>Node4</title>
<a xlink:href="_rcpp_modules_8cpp.html" target="_top" xlink:title="/Users/mcasl/pc&#45;ule/Trabajo/investigacion/AMORE/AMORE&#45;WC/AMORE&#45;WC/pkg/AMORE/src/RcppModules.cpp">
<polygon fill="white" stroke="black" points="592,-56.5 592,-75.5 1118,-75.5 1118,-56.5 592,-56.5"/>
<text text-anchor="middle" x="855" y="-63.5" font-family="Helvetica,sans-Serif" font-size="10.00">/Users/mcasl/pc&#45;ule/Trabajo/investigacion/AMORE/AMORE&#45;WC/AMORE&#45;WC/pkg/AMORE/src/RcppModules.cpp</text>
</a>
</g>
<!-- Node1&#45;&gt;Node4 -->
<g id="edge8" class="edge"><title>Node1&#45;&gt;Node4</title>
<path fill="none" stroke="midnightblue" d="M397.884,-111.476C502.508,-101.297 666.859,-85.3056 767.367,-75.5264"/>
<polygon fill="midnightblue" stroke="midnightblue" points="397.249,-108.021 387.635,-112.473 397.927,-114.988 397.249,-108.021"/>
</g>
<!-- Node3&#45;&gt;Node2 -->
<g id="edge6" class="edge"><title>Node3&#45;&gt;Node2</title>
<path fill="none" stroke="midnightblue" d="M300,-45.8045C300,-36.9102 300,-26.7798 300,-19.7511"/>
<polygon fill="midnightblue" stroke="midnightblue" points="296.5,-46.083 300,-56.083 303.5,-46.083 296.5,-46.083"/>
</g>
<!-- Node4&#45;&gt;Node2 -->
<g id="edge10" class="edge"><title>Node4&#45;&gt;Node2</title>
<path fill="none" stroke="midnightblue" d="M757.116,-55.4762C652.492,-45.2965 488.141,-29.3056 387.633,-19.5264"/>
<polygon fill="midnightblue" stroke="midnightblue" points="757.073,-58.9884 767.365,-56.4733 757.751,-52.0213 757.073,-58.9884"/>
</g>
</g>
</svg>
