<?xml version="1.0" encoding="UTF-8" standalone="no"?>
<!DOCTYPE svg PUBLIC "-//W3C//DTD SVG 1.1//EN"
 "http://www.w3.org/Graphics/SVG/1.1/DTD/svg11.dtd">
<!-- Generated by graphviz version 2.28.0 (20110610.2051)
 -->
<!-- Title: G Pages: 1 -->
<svg width="839pt" height="140pt"
 viewBox="0.00 0.00 839.00 140.00" xmlns="http://www.w3.org/2000/svg" xmlns:xlink="http://www.w3.org/1999/xlink">
<g id="graph1" class="graph" transform="scale(1 1) rotate(0) translate(4 136)">
<title>G</title>
<polygon fill="white" stroke="white" points="-4,5 -4,-136 836,-136 836,5 -4,5"/>
<!-- Node1 -->
<g id="node1" class="node"><title>Node1</title>
<polygon fill="#bfbfbf" stroke="black" points="223,-112.5 223,-131.5 753,-131.5 753,-112.5 223,-112.5"/>
<text text-anchor="middle" x="488" y="-119.5" font-family="Helvetica,sans-Serif" font-size="10.00">/Users/mcasl/pc&#45;ule/Trabajo/investigacion/AMORE/AMORE&#45;WC/AMORE&#45;WC/pkg/AMORE/src/NeuralNetwork.cpp</text>
</g>
<!-- Node2 -->
<g id="node3" class="node"><title>Node2</title>
<a xlink:href="package_8h.html" target="_top" xlink:title="package.h">
<polygon fill="white" stroke="black" points="330.5,-56.5 330.5,-75.5 393.5,-75.5 393.5,-56.5 330.5,-56.5"/>
<text text-anchor="middle" x="362" y="-63.5" font-family="Helvetica,sans-Serif" font-size="10.00">package.h</text>
</a>
</g>
<!-- Node1&#45;&gt;Node2 -->
<g id="edge2" class="edge"><title>Node1&#45;&gt;Node2</title>
<path fill="none" stroke="midnightblue" d="M468.035,-112.444C447.391,-103.596 414.937,-89.6875 391.368,-79.5865"/>
<polygon fill="midnightblue" stroke="midnightblue" points="392.442,-76.2387 381.872,-75.5164 389.684,-82.6727 392.442,-76.2387"/>
</g>
<!-- Node13 -->
<g id="node25" class="node"><title>Node13</title>
<a xlink:href="_neural_factory_8h.html" target="_top" xlink:title="classHeaders/NeuralFactory.h">
<polygon fill="white" stroke="black" points="411.5,-56.5 411.5,-75.5 564.5,-75.5 564.5,-56.5 411.5,-56.5"/>
<text text-anchor="middle" x="488" y="-63.5" font-family="Helvetica,sans-Serif" font-size="10.00">classHeaders/NeuralFactory.h</text>
</a>
</g>
<!-- Node1&#45;&gt;Node13 -->
<g id="edge24" class="edge"><title>Node1&#45;&gt;Node13</title>
<path fill="none" stroke="midnightblue" d="M488,-112.083C488,-105.006 488,-94.8611 488,-85.9865"/>
<polygon fill="midnightblue" stroke="midnightblue" points="491.5,-85.751 488,-75.7511 484.5,-85.7511 491.5,-85.751"/>
</g>
<!-- Node14 -->
<g id="node27" class="node"><title>Node14</title>
<a xlink:href="_neural_network_8h.html" target="_top" xlink:title="classHeaders/NeuralNetwork.h">
<polygon fill="white" stroke="black" points="583,-56.5 583,-75.5 741,-75.5 741,-56.5 583,-56.5"/>
<text text-anchor="middle" x="662" y="-63.5" font-family="Helvetica,sans-Serif" font-size="10.00">classHeaders/NeuralNetwork.h</text>
</a>
</g>
<!-- Node1&#45;&gt;Node14 -->
<g id="edge26" class="edge"><title>Node1&#45;&gt;Node14</title>
<path fill="none" stroke="midnightblue" d="M515.571,-112.444C545.097,-103.28 592.118,-88.6876 624.883,-78.5192"/>
<polygon fill="midnightblue" stroke="midnightblue" points="626.045,-81.8232 634.558,-75.5164 623.97,-75.1378 626.045,-81.8232"/>
</g>
<!-- Node3 -->
<g id="node5" class="node"><title>Node3</title>
<polygon fill="white" stroke="#bfbfbf" points="0,-0.5 0,-19.5 56,-19.5 56,-0.5 0,-0.5"/>
<text text-anchor="middle" x="28" y="-7.5" font-family="Helvetica,sans-Serif" font-size="10.00">iostream</text>
</g>
<!-- Node2&#45;&gt;Node3 -->
<g id="edge4" class="edge"><title>Node2&#45;&gt;Node3</title>
<path fill="none" stroke="midnightblue" d="M330.193,-61.1177C277.37,-54.4679 168.051,-39.8496 66.0692,-20.0676"/>
<polygon fill="midnightblue" stroke="midnightblue" points="66.7117,-16.627 56.225,-18.1372 65.3646,-23.4962 66.7117,-16.627"/>
</g>
<!-- Node4 -->
<g id="node7" class="node"><title>Node4</title>
<polygon fill="white" stroke="#bfbfbf" points="74.5,-0.5 74.5,-19.5 127.5,-19.5 127.5,-0.5 74.5,-0.5"/>
<text text-anchor="middle" x="101" y="-7.5" font-family="Helvetica,sans-Serif" font-size="10.00">sstream</text>
</g>
<!-- Node2&#45;&gt;Node4 -->
<g id="edge6" class="edge"><title>Node2&#45;&gt;Node4</title>
<path fill="none" stroke="midnightblue" d="M330.441,-59.2849C288.53,-51.5712 211.984,-37.0547 137.704,-20.3012"/>
<polygon fill="midnightblue" stroke="midnightblue" points="138.243,-16.8346 127.716,-18.0315 136.692,-23.6605 138.243,-16.8346"/>
</g>
<!-- Node5 -->
<g id="node9" class="node"><title>Node5</title>
<polygon fill="white" stroke="#bfbfbf" points="145.5,-0.5 145.5,-19.5 204.5,-19.5 204.5,-0.5 145.5,-0.5"/>
<text text-anchor="middle" x="175" y="-7.5" font-family="Helvetica,sans-Serif" font-size="10.00">algorithm</text>
</g>
<!-- Node2&#45;&gt;Node5 -->
<g id="edge8" class="edge"><title>Node2&#45;&gt;Node5</title>
<path fill="none" stroke="midnightblue" d="M332.369,-56.4435C300.5,-47.2406 249.667,-32.5617 214.436,-22.3879"/>
<polygon fill="midnightblue" stroke="midnightblue" points="215.071,-18.9282 204.492,-19.5164 213.128,-25.6534 215.071,-18.9282"/>
</g>
<!-- Node6 -->
<g id="node11" class="node"><title>Node6</title>
<polygon fill="white" stroke="#bfbfbf" points="223,-0.5 223,-19.5 269,-19.5 269,-0.5 223,-0.5"/>
<text text-anchor="middle" x="246" y="-7.5" font-family="Helvetica,sans-Serif" font-size="10.00">vector</text>
</g>
<!-- Node2&#45;&gt;Node6 -->
<g id="edge10" class="edge"><title>Node2&#45;&gt;Node6</title>
<path fill="none" stroke="midnightblue" d="M343.619,-56.4435C324.784,-47.6751 295.269,-33.9355 273.621,-23.8579"/>
<polygon fill="midnightblue" stroke="midnightblue" points="274.838,-20.5637 264.295,-19.5164 271.883,-26.9098 274.838,-20.5637"/>
</g>
<!-- Node7 -->
<g id="node13" class="node"><title>Node7</title>
<polygon fill="white" stroke="#bfbfbf" points="287,-0.5 287,-19.5 337,-19.5 337,-0.5 287,-0.5"/>
<text text-anchor="middle" x="312" y="-7.5" font-family="Helvetica,sans-Serif" font-size="10.00">iterator</text>
</g>
<!-- Node2&#45;&gt;Node7 -->
<g id="edge12" class="edge"><title>Node2&#45;&gt;Node7</title>
<path fill="none" stroke="midnightblue" d="M353.744,-56.083C346.535,-48.2982 335.89,-36.8015 327.154,-27.3665"/>
<polygon fill="midnightblue" stroke="midnightblue" points="329.465,-24.7108 320.103,-19.7511 324.329,-29.4666 329.465,-24.7108"/>
</g>
<!-- Node8 -->
<g id="node15" class="node"><title>Node8</title>
<polygon fill="white" stroke="#bfbfbf" points="355.5,-0.5 355.5,-19.5 470.5,-19.5 470.5,-0.5 355.5,-0.5"/>
<text text-anchor="middle" x="413" y="-7.5" font-family="Helvetica,sans-Serif" font-size="10.00">boost/shared_ptr.hpp</text>
</g>
<!-- Node2&#45;&gt;Node8 -->
<g id="edge14" class="edge"><title>Node2&#45;&gt;Node8</title>
<path fill="none" stroke="midnightblue" d="M370.422,-56.083C377.848,-48.2195 388.852,-36.5688 397.812,-27.0813"/>
<polygon fill="midnightblue" stroke="midnightblue" points="400.413,-29.4244 404.735,-19.7511 395.324,-24.618 400.413,-29.4244"/>
</g>
<!-- Node9 -->
<g id="node17" class="node"><title>Node9</title>
<polygon fill="white" stroke="#bfbfbf" points="489,-0.5 489,-19.5 597,-19.5 597,-0.5 489,-0.5"/>
<text text-anchor="middle" x="543" y="-7.5" font-family="Helvetica,sans-Serif" font-size="10.00">boost/weak_ptr.hpp</text>
</g>
<!-- Node2&#45;&gt;Node9 -->
<g id="edge16" class="edge"><title>Node2&#45;&gt;Node9</title>
<path fill="none" stroke="midnightblue" d="M390.68,-56.4435C421.527,-47.2406 470.728,-32.5617 504.829,-22.3879"/>
<polygon fill="midnightblue" stroke="midnightblue" points="505.872,-25.7293 514.454,-19.5164 503.871,-19.0215 505.872,-25.7293"/>
</g>
<!-- Node10 -->
<g id="node19" class="node"><title>Node10</title>
<polygon fill="white" stroke="#bfbfbf" points="615,-0.5 615,-19.5 693,-19.5 693,-0.5 615,-0.5"/>
<text text-anchor="middle" x="654" y="-7.5" font-family="Helvetica,sans-Serif" font-size="10.00">boost/ref.hpp</text>
</g>
<!-- Node2&#45;&gt;Node10 -->
<g id="edge18" class="edge"><title>Node2&#45;&gt;Node10</title>
<path fill="none" stroke="midnightblue" d="M393.757,-57.8956C396.877,-57.2378 399.998,-56.5955 403,-56 489.807,-38.7826 514.209,-36.5804 605.071,-20.1499"/>
<polygon fill="midnightblue" stroke="midnightblue" points="605.76,-23.5821 614.973,-18.3507 604.509,-16.6948 605.76,-23.5821"/>
</g>
<!-- Node11 -->
<g id="node21" class="node"><title>Node11</title>
<polygon fill="white" stroke="#bfbfbf" points="711.5,-0.5 711.5,-19.5 762.5,-19.5 762.5,-0.5 711.5,-0.5"/>
<text text-anchor="middle" x="737" y="-7.5" font-family="Helvetica,sans-Serif" font-size="10.00">valarray</text>
</g>
<!-- Node2&#45;&gt;Node11 -->
<g id="edge20" class="edge"><title>Node2&#45;&gt;Node11</title>
<path fill="none" stroke="midnightblue" d="M393.725,-57.7199C396.851,-57.0977 399.982,-56.5117 403,-56 531.743,-34.1713 568.664,-44.1988 701.33,-19.8707"/>
<polygon fill="midnightblue" stroke="midnightblue" points="702.284,-23.2531 711.473,-17.9787 701.001,-16.3718 702.284,-23.2531"/>
</g>
<!-- Node12 -->
<g id="node23" class="node"><title>Node12</title>
<polygon fill="white" stroke="#bfbfbf" points="781,-0.5 781,-19.5 831,-19.5 831,-0.5 781,-0.5"/>
<text text-anchor="middle" x="806" y="-7.5" font-family="Helvetica,sans-Serif" font-size="10.00">Rcpp.h</text>
</g>
<!-- Node2&#45;&gt;Node12 -->
<g id="edge22" class="edge"><title>Node2&#45;&gt;Node12</title>
<path fill="none" stroke="midnightblue" d="M393.714,-57.6493C396.842,-57.0413 399.977,-56.478 403,-56 565.32,-30.3375 609.162,-48.548 771,-20 771.1,-19.9823 771.201,-19.9644 771.302,-19.9465"/>
<polygon fill="midnightblue" stroke="midnightblue" points="771.789,-23.4202 780.866,-17.9572 770.363,-16.5668 771.789,-23.4202"/>
</g>
</g>
</svg>
