<?xml version="1.0" encoding="UTF-8" standalone="no"?>
<!DOCTYPE svg PUBLIC "-//W3C//DTD SVG 1.1//EN"
 "http://www.w3.org/Graphics/SVG/1.1/DTD/svg11.dtd">
<!-- Generated by graphviz version 2.28.0 (20110610.2051)
 -->
<!-- Title: G Pages: 1 -->
<svg width="2089pt" height="196pt"
 viewBox="0.00 0.00 2089.14 196.00" xmlns="http://www.w3.org/2000/svg" xmlns:xlink="http://www.w3.org/1999/xlink">
<g id="graph1" class="graph" transform="scale(1 1) rotate(0) translate(4 192)">
<title>G</title>
<polygon fill="white" stroke="white" points="-4,5 -4,-192 2086.14,-192 2086.14,5 -4,5"/>
<!-- Node1 -->
<g id="node1" class="node"><title>Node1</title>
<polygon fill="#bfbfbf" stroke="black" points="599.645,-168.5 599.645,-187.5 1182.64,-187.5 1182.64,-168.5 599.645,-168.5"/>
<text text-anchor="middle" x="891.145" y="-175.5" font-family="Helvetica,sans-Serif" font-size="10.00">/Users/mcasl/pc&#45;ule/Trabajo/investigacion/AMORE/AMORE&#45;WC/AMORE&#45;WC/pkg/AMORE/src/classHeaders/NeuralNetwork.h</text>
</g>
<!-- Node2 -->
<g id="node3" class="node"><title>Node2</title>
<a xlink:href="_a_m_o_r_e_8h.html" target="_top" xlink:title="/Users/mcasl/pc&#45;ule/Trabajo/investigacion/AMORE/AMORE&#45;WC/AMORE&#45;WC/pkg/AMORE/src/AMORE.h">
<polygon fill="white" stroke="black" points="621.145,-0.5 621.145,-19.5 1109.14,-19.5 1109.14,-0.5 621.145,-0.5"/>
<text text-anchor="middle" x="865.145" y="-7.5" font-family="Helvetica,sans-Serif" font-size="10.00">/Users/mcasl/pc&#45;ule/Trabajo/investigacion/AMORE/AMORE&#45;WC/AMORE&#45;WC/pkg/AMORE/src/AMORE.h</text>
</a>
</g>
<!-- Node1&#45;&gt;Node2 -->
<g id="edge2" class="edge"><title>Node1&#45;&gt;Node2</title>
<path fill="none" stroke="midnightblue" d="M634.371,-167.93C518.906,-161.495 381.203,-150.553 258.145,-132 147.089,-115.256 -60.1383,-137.493 17.1447,-56 37.8782,-34.137 378.029,-21.845 621.133,-15.8165"/>
<polygon fill="midnightblue" stroke="midnightblue" points="634.232,-171.427 644.409,-168.481 634.616,-164.438 634.232,-171.427"/>
</g>
<!-- Node3 -->
<g id="node5" class="node"><title>Node3</title>
<a xlink:href="_simple_network_8h.html" target="_top" xlink:title="/Users/mcasl/pc&#45;ule/Trabajo/investigacion/AMORE/AMORE&#45;WC/AMORE&#45;WC/pkg/AMORE/src/classHeaders/SimpleNetwork.h">
<polygon fill="white" stroke="black" points="277.145,-112.5 277.145,-131.5 863.145,-131.5 863.145,-112.5 277.145,-112.5"/>
<text text-anchor="middle" x="570.145" y="-119.5" font-family="Helvetica,sans-Serif" font-size="10.00">/Users/mcasl/pc&#45;ule/Trabajo/investigacion/AMORE/AMORE&#45;WC/AMORE&#45;WC/pkg/AMORE/src/classHeaders/SimpleNetwork.h</text>
</a>
</g>
<!-- Node1&#45;&gt;Node3 -->
<g id="edge4" class="edge"><title>Node1&#45;&gt;Node3</title>
<path fill="none" stroke="midnightblue" d="M830.08,-166.727C769.421,-156.523 677.491,-141.058 620.77,-131.516"/>
<polygon fill="midnightblue" stroke="midnightblue" points="829.839,-170.236 840.281,-168.444 831,-163.333 829.839,-170.236"/>
</g>
<!-- Node4 -->
<g id="node8" class="node"><title>Node4</title>
<a xlink:href="_m_l_pfactory_8cpp.html" target="_top" xlink:title="/Users/mcasl/pc&#45;ule/Trabajo/investigacion/AMORE/AMORE&#45;WC/AMORE&#45;WC/pkg/AMORE/src/MLPfactory.cpp">
<polygon fill="white" stroke="black" points="26.6447,-56.5 26.6447,-75.5 541.645,-75.5 541.645,-56.5 26.6447,-56.5"/>
<text text-anchor="middle" x="284.145" y="-63.5" font-family="Helvetica,sans-Serif" font-size="10.00">/Users/mcasl/pc&#45;ule/Trabajo/investigacion/AMORE/AMORE&#45;WC/AMORE&#45;WC/pkg/AMORE/src/MLPfactory.cpp</text>
</a>
</g>
<!-- Node1&#45;&gt;Node4 -->
<g id="edge16" class="edge"><title>Node1&#45;&gt;Node4</title>
<path fill="none" stroke="midnightblue" d="M589.417,-173.289C442.063,-168.254 291.364,-156.957 268.145,-132 253.579,-116.344 268.217,-89.6145 277.603,-75.8175"/>
<polygon fill="midnightblue" stroke="midnightblue" points="589.456,-176.792 599.567,-173.626 589.689,-169.796 589.456,-176.792"/>
</g>
<!-- Node5 -->
<g id="node11" class="node"><title>Node5</title>
<a xlink:href="_simple_network_8cpp.html" target="_top" xlink:title="/Users/mcasl/pc&#45;ule/Trabajo/investigacion/AMORE/AMORE&#45;WC/AMORE&#45;WC/pkg/AMORE/src/SimpleNetwork.cpp">
<polygon fill="white" stroke="black" points="598.645,-56.5 598.645,-75.5 1131.64,-75.5 1131.64,-56.5 598.645,-56.5"/>
<text text-anchor="middle" x="865.145" y="-63.5" font-family="Helvetica,sans-Serif" font-size="10.00">/Users/mcasl/pc&#45;ule/Trabajo/investigacion/AMORE/AMORE&#45;WC/AMORE&#45;WC/pkg/AMORE/src/SimpleNetwork.cpp</text>
</a>
</g>
<!-- Node1&#45;&gt;Node5 -->
<g id="edge22" class="edge"><title>Node1&#45;&gt;Node5</title>
<path fill="none" stroke="midnightblue" d="M886.736,-158.348C881.041,-134.254 871.363,-93.3079 867.175,-75.5914"/>
<polygon fill="midnightblue" stroke="midnightblue" points="883.398,-159.442 889.105,-168.368 890.21,-157.832 883.398,-159.442"/>
</g>
<!-- Node6 -->
<g id="node15" class="node"><title>Node6</title>
<a xlink:href="_neural_network_8cpp.html" target="_top" xlink:title="/Users/mcasl/pc&#45;ule/Trabajo/investigacion/AMORE/AMORE&#45;WC/AMORE&#45;WC/pkg/AMORE/src/NeuralNetwork.cpp">
<polygon fill="white" stroke="black" points="1150.14,-56.5 1150.14,-75.5 1680.14,-75.5 1680.14,-56.5 1150.14,-56.5"/>
<text text-anchor="middle" x="1415.14" y="-63.5" font-family="Helvetica,sans-Serif" font-size="10.00">/Users/mcasl/pc&#45;ule/Trabajo/investigacion/AMORE/AMORE&#45;WC/AMORE&#45;WC/pkg/AMORE/src/NeuralNetwork.cpp</text>
</a>
</g>
<!-- Node1&#45;&gt;Node6 -->
<g id="edge18" class="edge"><title>Node1&#45;&gt;Node6</title>
<path fill="none" stroke="midnightblue" d="M900.962,-159.789C910.765,-144.391 927.348,-122.655 948.145,-112 985.478,-92.8728 1068.37,-81.8523 1154.11,-75.5116"/>
<polygon fill="midnightblue" stroke="midnightblue" points="897.934,-158.032 895.758,-168.401 903.925,-161.653 897.934,-158.032"/>
</g>
<!-- Node7 -->
<g id="node19" class="node"><title>Node7</title>
<a xlink:href="_simple_neural_creator_8cpp.html" target="_top" xlink:title="/Users/mcasl/pc&#45;ule/Trabajo/investigacion/AMORE/AMORE&#45;WC/AMORE&#45;WC/pkg/AMORE/src/SimpleNeuralCreator.cpp">
<polygon fill="white" stroke="black" points="957.145,-112.5 957.145,-131.5 1515.14,-131.5 1515.14,-112.5 957.145,-112.5"/>
<text text-anchor="middle" x="1236.14" y="-119.5" font-family="Helvetica,sans-Serif" font-size="10.00">/Users/mcasl/pc&#45;ule/Trabajo/investigacion/AMORE/AMORE&#45;WC/AMORE&#45;WC/pkg/AMORE/src/SimpleNeuralCreator.cpp</text>
</a>
</g>
<!-- Node1&#45;&gt;Node7 -->
<g id="edge24" class="edge"><title>Node1&#45;&gt;Node7</title>
<path fill="none" stroke="midnightblue" d="M955.968,-166.854C1021.15,-156.651 1120.52,-141.098 1181.73,-131.516"/>
<polygon fill="midnightblue" stroke="midnightblue" points="955.149,-163.439 945.811,-168.444 956.232,-170.355 955.149,-163.439"/>
</g>
<!-- Node8 -->
<g id="node22" class="node"><title>Node8</title>
<a xlink:href="_network_rinterface_8cpp.html" target="_top" xlink:title="/Users/mcasl/pc&#45;ule/Trabajo/investigacion/AMORE/AMORE&#45;WC/AMORE&#45;WC/pkg/AMORE/src/NetworkRinterface.cpp">
<polygon fill="white" stroke="black" points="1533.14,-112.5 1533.14,-131.5 2081.14,-131.5 2081.14,-112.5 1533.14,-112.5"/>
<text text-anchor="middle" x="1807.14" y="-119.5" font-family="Helvetica,sans-Serif" font-size="10.00">/Users/mcasl/pc&#45;ule/Trabajo/investigacion/AMORE/AMORE&#45;WC/AMORE&#45;WC/pkg/AMORE/src/NetworkRinterface.cpp</text>
</a>
</g>
<!-- Node1&#45;&gt;Node8 -->
<g id="edge28" class="edge"><title>Node1&#45;&gt;Node8</title>
<path fill="none" stroke="midnightblue" d="M1045.7,-167.888C1218.07,-157.727 1494.69,-141.42 1662.8,-131.509"/>
<polygon fill="midnightblue" stroke="midnightblue" points="1045.31,-164.406 1035.53,-168.488 1045.72,-171.394 1045.31,-164.406"/>
</g>
<!-- Node3&#45;&gt;Node2 -->
<g id="edge6" class="edge"><title>Node3&#45;&gt;Node2</title>
<path fill="none" stroke="midnightblue" d="M570.47,-102.275C571.783,-87.5088 576.09,-67.543 589.145,-56 610.694,-36.9458 671.432,-25.8895 730.46,-19.5096"/>
<polygon fill="midnightblue" stroke="midnightblue" points="566.972,-102.161 569.955,-112.327 573.962,-102.519 566.972,-102.161"/>
</g>
<!-- Node3&#45;&gt;Node4 -->
<g id="edge8" class="edge"><title>Node3&#45;&gt;Node4</title>
<path fill="none" stroke="midnightblue" d="M514.73,-110.537C460.678,-100.332 379.474,-84.9992 329.25,-75.5164"/>
<polygon fill="midnightblue" stroke="midnightblue" points="514.351,-114.027 524.827,-112.444 515.65,-107.149 514.351,-114.027"/>
</g>
<!-- Node3&#45;&gt;Node5 -->
<g id="edge12" class="edge"><title>Node3&#45;&gt;Node5</title>
<path fill="none" stroke="midnightblue" d="M626.956,-110.601C682.707,-100.395 766.708,-85.0189 818.62,-75.5164"/>
<polygon fill="midnightblue" stroke="midnightblue" points="626.095,-107.2 616.888,-112.444 627.355,-114.086 626.095,-107.2"/>
</g>
<!-- Node4&#45;&gt;Node2 -->
<g id="edge10" class="edge"><title>Node4&#45;&gt;Node2</title>
<path fill="none" stroke="midnightblue" d="M385.952,-55.5377C495.445,-45.3611 667.977,-29.3254 773.407,-19.5264"/>
<polygon fill="midnightblue" stroke="midnightblue" points="385.518,-52.0628 375.885,-56.4733 386.166,-59.0328 385.518,-52.0628"/>
</g>
<!-- Node5&#45;&gt;Node2 -->
<g id="edge14" class="edge"><title>Node5&#45;&gt;Node2</title>
<path fill="none" stroke="midnightblue" d="M865.145,-45.8045C865.145,-36.9102 865.145,-26.7798 865.145,-19.7511"/>
<polygon fill="midnightblue" stroke="midnightblue" points="861.645,-46.083 865.145,-56.083 868.645,-46.083 861.645,-46.083"/>
</g>
<!-- Node6&#45;&gt;Node2 -->
<g id="edge20" class="edge"><title>Node6&#45;&gt;Node2</title>
<path fill="none" stroke="midnightblue" d="M1318.14,-55.4762C1214.46,-45.2965 1051.59,-29.3056 951.988,-19.5264"/>
<polygon fill="midnightblue" stroke="midnightblue" points="1318,-58.9794 1328.3,-56.4733 1318.69,-52.0129 1318,-58.9794"/>
</g>
<!-- Node7&#45;&gt;Node2 -->
<g id="edge26" class="edge"><title>Node7&#45;&gt;Node2</title>
<path fill="none" stroke="midnightblue" d="M1461.38,-111.852C1566.74,-105.199 1672.76,-94.0894 1689.14,-76 1695.11,-69.4113 1695.26,-62.4545 1689.14,-56 1669.21,-34.9498 1345.02,-22.5282 1109.33,-16.2396"/>
<polygon fill="midnightblue" stroke="midnightblue" points="1460.96,-108.372 1451.19,-112.482 1461.39,-115.359 1460.96,-108.372"/>
</g>
<!-- Node8&#45;&gt;Node2 -->
<g id="edge30" class="edge"><title>Node8&#45;&gt;Node2</title>
<path fill="none" stroke="midnightblue" d="M1789.96,-105.896C1770.94,-90.2068 1738.66,-66.5119 1706.14,-56 1650.62,-38.053 1337.36,-24.9914 1109.37,-17.7004"/>
<polygon fill="midnightblue" stroke="midnightblue" points="1787.82,-108.673 1797.72,-112.465 1792.35,-103.331 1787.82,-108.673"/>
</g>
</g>
</svg>
