<?xml version="1.0" encoding="UTF-8" standalone="no"?>
<!DOCTYPE svg PUBLIC "-//W3C//DTD SVG 1.1//EN"
 "http://www.w3.org/Graphics/SVG/1.1/DTD/svg11.dtd">
<!-- Generated by graphviz version 2.28.0 (20110610.2051)
 -->
<!-- Title: G Pages: 1 -->
<svg width="4246pt" height="196pt"
 viewBox="0.00 0.00 4246.00 196.00" xmlns="http://www.w3.org/2000/svg" xmlns:xlink="http://www.w3.org/1999/xlink">
<g id="graph1" class="graph" transform="scale(1 1) rotate(0) translate(4 192)">
<title>G</title>
<polygon fill="white" stroke="white" points="-4,5 -4,-192 4243,-192 4243,5 -4,5"/>
<!-- Node1 -->
<g id="node1" class="node"><title>Node1</title>
<polygon fill="#bfbfbf" stroke="black" points="1735,-168.5 1735,-187.5 2283,-187.5 2283,-168.5 1735,-168.5"/>
<text text-anchor="middle" x="2009" y="-175.5" font-family="Helvetica,sans-Serif" font-size="10.00">/Users/mcasl/pc&#45;ule/Trabajo/investigacion/AMORE/AMORE&#45;WC/AMORE&#45;WC/pkg/AMORE/src/classHeaders/Neuron.h</text>
</g>
<!-- Node2 -->
<g id="node3" class="node"><title>Node2</title>
<a xlink:href="_activation_function_8cpp.html" target="_top" xlink:title="/Users/mcasl/pc&#45;ule/Trabajo/investigacion/AMORE/AMORE&#45;WC/AMORE&#45;WC/pkg/AMORE/src/ActivationFunction.cpp">
<polygon fill="white" stroke="black" points="-0.5,-56.5 -0.5,-75.5 546.5,-75.5 546.5,-56.5 -0.5,-56.5"/>
<text text-anchor="middle" x="273" y="-63.5" font-family="Helvetica,sans-Serif" font-size="10.00">/Users/mcasl/pc&#45;ule/Trabajo/investigacion/AMORE/AMORE&#45;WC/AMORE&#45;WC/pkg/AMORE/src/ActivationFunction.cpp</text>
</a>
</g>
<!-- Node1&#45;&gt;Node2 -->
<g id="edge2" class="edge"><title>Node1&#45;&gt;Node2</title>
<path fill="none" stroke="midnightblue" d="M1724.62,-174.598C1368.26,-170.463 777.929,-159.594 561,-132 464.897,-119.776 353.719,-90.1725 302.107,-75.5144"/>
<polygon fill="midnightblue" stroke="midnightblue" points="1724.79,-178.1 1734.83,-174.715 1724.87,-171.1 1724.79,-178.1"/>
</g>
<!-- Node3 -->
<g id="node5" class="node"><title>Node3</title>
<a xlink:href="_a_m_o_r_e_8h.html" target="_top" xlink:title="/Users/mcasl/pc&#45;ule/Trabajo/investigacion/AMORE/AMORE&#45;WC/AMORE&#45;WC/pkg/AMORE/src/AMORE.h">
<polygon fill="white" stroke="black" points="1992,-0.5 1992,-19.5 2480,-19.5 2480,-0.5 1992,-0.5"/>
<text text-anchor="middle" x="2236" y="-7.5" font-family="Helvetica,sans-Serif" font-size="10.00">/Users/mcasl/pc&#45;ule/Trabajo/investigacion/AMORE/AMORE&#45;WC/AMORE&#45;WC/pkg/AMORE/src/AMORE.h</text>
</a>
</g>
<!-- Node1&#45;&gt;Node3 -->
<g id="edge6" class="edge"><title>Node1&#45;&gt;Node3</title>
<path fill="none" stroke="midnightblue" d="M1724.92,-174.661C1373.44,-170.593 809.68,-159.792 716,-132 664.825,-116.818 585.785,-94.2678 623,-56 646.498,-31.8371 1546.7,-18.5684 1991.84,-13.4726"/>
<polygon fill="midnightblue" stroke="midnightblue" points="1724.96,-178.162 1735,-174.777 1725.04,-171.162 1724.96,-178.162"/>
</g>
<!-- Node4 -->
<g id="node8" class="node"><title>Node4</title>
<a xlink:href="_simple_neuron_8h.html" target="_top" xlink:title="/Users/mcasl/pc&#45;ule/Trabajo/investigacion/AMORE/AMORE&#45;WC/AMORE&#45;WC/pkg/AMORE/src/classHeaders/SimpleNeuron.h">
<polygon fill="white" stroke="black" points="725,-112.5 725,-131.5 1305,-131.5 1305,-112.5 725,-112.5"/>
<text text-anchor="middle" x="1015" y="-119.5" font-family="Helvetica,sans-Serif" font-size="10.00">/Users/mcasl/pc&#45;ule/Trabajo/investigacion/AMORE/AMORE&#45;WC/AMORE&#45;WC/pkg/AMORE/src/classHeaders/SimpleNeuron.h</text>
</a>
</g>
<!-- Node1&#45;&gt;Node4 -->
<g id="edge8" class="edge"><title>Node1&#45;&gt;Node4</title>
<path fill="none" stroke="midnightblue" d="M1842.12,-167.934C1655.13,-157.776 1354.33,-141.435 1171.63,-131.509"/>
<polygon fill="midnightblue" stroke="midnightblue" points="1842.15,-171.441 1852.32,-168.488 1842.52,-164.451 1842.15,-171.441"/>
</g>
<!-- Node6 -->
<g id="node14" class="node"><title>Node6</title>
<a xlink:href="_m_l_pfactory_8cpp.html" target="_top" xlink:title="/Users/mcasl/pc&#45;ule/Trabajo/investigacion/AMORE/AMORE&#45;WC/AMORE&#45;WC/pkg/AMORE/src/MLPfactory.cpp">
<polygon fill="white" stroke="black" points="1186.5,-56.5 1186.5,-75.5 1701.5,-75.5 1701.5,-56.5 1186.5,-56.5"/>
<text text-anchor="middle" x="1444" y="-63.5" font-family="Helvetica,sans-Serif" font-size="10.00">/Users/mcasl/pc&#45;ule/Trabajo/investigacion/AMORE/AMORE&#45;WC/AMORE&#45;WC/pkg/AMORE/src/MLPfactory.cpp</text>
</a>
</g>
<!-- Node1&#45;&gt;Node6 -->
<g id="edge40" class="edge"><title>Node1&#45;&gt;Node6</title>
<path fill="none" stroke="midnightblue" d="M1955.13,-166.512C1843.75,-144.827 1590.01,-95.4275 1487.84,-75.5345"/>
<polygon fill="midnightblue" stroke="midnightblue" points="1954.65,-169.984 1965.14,-168.46 1955.99,-163.113 1954.65,-169.984"/>
</g>
<!-- Node7 -->
<g id="node17" class="node"><title>Node7</title>
<a xlink:href="_connection_8cpp.html" target="_top" xlink:title="/Users/mcasl/pc&#45;ule/Trabajo/investigacion/AMORE/AMORE&#45;WC/AMORE&#45;WC/pkg/AMORE/src/Connection.cpp">
<polygon fill="white" stroke="black" points="1719.5,-56.5 1719.5,-75.5 2234.5,-75.5 2234.5,-56.5 1719.5,-56.5"/>
<text text-anchor="middle" x="1977" y="-63.5" font-family="Helvetica,sans-Serif" font-size="10.00">/Users/mcasl/pc&#45;ule/Trabajo/investigacion/AMORE/AMORE&#45;WC/AMORE&#45;WC/pkg/AMORE/src/Connection.cpp</text>
</a>
</g>
<!-- Node1&#45;&gt;Node7 -->
<g id="edge20" class="edge"><title>Node1&#45;&gt;Node7</title>
<path fill="none" stroke="midnightblue" d="M2003.19,-158.788C2000.62,-150.615 1997.6,-140.842 1995,-132 1989.12,-112.003 1982.72,-88.3896 1979.36,-75.8564"/>
<polygon fill="midnightblue" stroke="midnightblue" points="1999.88,-159.922 2006.24,-168.398 2006.55,-157.808 1999.88,-159.922"/>
</g>
<!-- Node8 -->
<g id="node20" class="node"><title>Node8</title>
<a xlink:href="_tanh_8cpp.html" target="_top" xlink:title="/Users/mcasl/pc&#45;ule/Trabajo/investigacion/AMORE/AMORE&#45;WC/AMORE&#45;WC/pkg/AMORE/src/Tanh.cpp">
<polygon fill="white" stroke="black" points="2253,-56.5 2253,-75.5 2737,-75.5 2737,-56.5 2253,-56.5"/>
<text text-anchor="middle" x="2495" y="-63.5" font-family="Helvetica,sans-Serif" font-size="10.00">/Users/mcasl/pc&#45;ule/Trabajo/investigacion/AMORE/AMORE&#45;WC/AMORE&#45;WC/pkg/AMORE/src/Tanh.cpp</text>
</a>
</g>
<!-- Node1&#45;&gt;Node8 -->
<g id="edge24" class="edge"><title>Node1&#45;&gt;Node8</title>
<path fill="none" stroke="midnightblue" d="M2010.67,-157.928C2013.07,-142.96 2018.88,-122.891 2033,-112 2055.57,-94.5868 2194.34,-82.6751 2313.96,-75.5033"/>
<polygon fill="midnightblue" stroke="midnightblue" points="2007.16,-157.794 2009.43,-168.144 2014.11,-158.64 2007.16,-157.794"/>
</g>
<!-- Node9 -->
<g id="node23" class="node"><title>Node9</title>
<a xlink:href="_predict_behavior_8cpp.html" target="_top" xlink:title="/Users/mcasl/pc&#45;ule/Trabajo/investigacion/AMORE/AMORE&#45;WC/AMORE&#45;WC/pkg/AMORE/src/PredictBehavior.cpp">
<polygon fill="white" stroke="black" points="2755,-56.5 2755,-75.5 3291,-75.5 3291,-56.5 2755,-56.5"/>
<text text-anchor="middle" x="3023" y="-63.5" font-family="Helvetica,sans-Serif" font-size="10.00">/Users/mcasl/pc&#45;ule/Trabajo/investigacion/AMORE/AMORE&#45;WC/AMORE&#45;WC/pkg/AMORE/src/PredictBehavior.cpp</text>
</a>
</g>
<!-- Node1&#45;&gt;Node9 -->
<g id="edge28" class="edge"><title>Node1&#45;&gt;Node9</title>
<path fill="none" stroke="midnightblue" d="M2018.7,-159.552C2028.42,-143.988 2044.95,-122.141 2066,-112 2082.28,-104.158 2517.61,-86.2207 2795.45,-75.5115"/>
<polygon fill="midnightblue" stroke="midnightblue" points="2015.62,-157.88 2013.55,-168.27 2021.65,-161.442 2015.62,-157.88"/>
</g>
<!-- Node10 -->
<g id="node26" class="node"><title>Node10</title>
<a xlink:href="_m_l_pbehavior_8cpp.html" target="_top" xlink:title="/Users/mcasl/pc&#45;ule/Trabajo/investigacion/AMORE/AMORE&#45;WC/AMORE&#45;WC/pkg/AMORE/src/MLPbehavior.cpp">
<polygon fill="white" stroke="black" points="2075,-112.5 2075,-131.5 2597,-131.5 2597,-112.5 2075,-112.5"/>
<text text-anchor="middle" x="2336" y="-119.5" font-family="Helvetica,sans-Serif" font-size="10.00">/Users/mcasl/pc&#45;ule/Trabajo/investigacion/AMORE/AMORE&#45;WC/AMORE&#45;WC/pkg/AMORE/src/MLPbehavior.cpp</text>
</a>
</g>
<!-- Node1&#45;&gt;Node10 -->
<g id="edge32" class="edge"><title>Node1&#45;&gt;Node10</title>
<path fill="none" stroke="midnightblue" d="M2070.82,-166.791C2132.61,-156.587 2226.53,-141.078 2284.43,-131.516"/>
<polygon fill="midnightblue" stroke="midnightblue" points="2070.11,-163.361 2060.81,-168.444 2071.25,-170.267 2070.11,-163.361"/>
</g>
<!-- Node11 -->
<g id="node29" class="node"><title>Node11</title>
<a xlink:href="_neuron_8cpp.html" target="_top" xlink:title="/Users/mcasl/pc&#45;ule/Trabajo/investigacion/AMORE/AMORE&#45;WC/AMORE&#45;WC/pkg/AMORE/src/Neuron.cpp">
<polygon fill="white" stroke="black" points="2615.5,-112.5 2615.5,-131.5 3110.5,-131.5 3110.5,-112.5 2615.5,-112.5"/>
<text text-anchor="middle" x="2863" y="-119.5" font-family="Helvetica,sans-Serif" font-size="10.00">/Users/mcasl/pc&#45;ule/Trabajo/investigacion/AMORE/AMORE&#45;WC/AMORE&#45;WC/pkg/AMORE/src/Neuron.cpp</text>
</a>
</g>
<!-- Node1&#45;&gt;Node11 -->
<g id="edge36" class="edge"><title>Node1&#45;&gt;Node11</title>
<path fill="none" stroke="midnightblue" d="M2154.3,-167.812C2315.11,-157.644 2572.17,-141.39 2728.51,-131.504"/>
<polygon fill="midnightblue" stroke="midnightblue" points="2153.61,-164.349 2143.85,-168.473 2154.05,-171.335 2153.61,-164.349"/>
</g>
<!-- Node12 -->
<g id="node33" class="node"><title>Node12</title>
<a xlink:href="_simple_network_8cpp.html" target="_top" xlink:title="/Users/mcasl/pc&#45;ule/Trabajo/investigacion/AMORE/AMORE&#45;WC/AMORE&#45;WC/pkg/AMORE/src/SimpleNetwork.cpp">
<polygon fill="white" stroke="black" points="3128.5,-112.5 3128.5,-131.5 3661.5,-131.5 3661.5,-112.5 3128.5,-112.5"/>
<text text-anchor="middle" x="3395" y="-119.5" font-family="Helvetica,sans-Serif" font-size="10.00">/Users/mcasl/pc&#45;ule/Trabajo/investigacion/AMORE/AMORE&#45;WC/AMORE&#45;WC/pkg/AMORE/src/SimpleNetwork.cpp</text>
</a>
</g>
<!-- Node1&#45;&gt;Node12 -->
<g id="edge42" class="edge"><title>Node1&#45;&gt;Node12</title>
<path fill="none" stroke="midnightblue" d="M2237.82,-168.085C2498.25,-157.938 2920.58,-141.484 3176.6,-131.509"/>
<polygon fill="midnightblue" stroke="midnightblue" points="2237.33,-164.601 2227.47,-168.488 2237.6,-171.596 2237.33,-164.601"/>
</g>
<!-- Node13 -->
<g id="node36" class="node"><title>Node13</title>
<a xlink:href="_simple_neural_creator_8cpp.html" target="_top" xlink:title="/Users/mcasl/pc&#45;ule/Trabajo/investigacion/AMORE/AMORE&#45;WC/AMORE&#45;WC/pkg/AMORE/src/SimpleNeuralCreator.cpp">
<polygon fill="white" stroke="black" points="3680,-112.5 3680,-131.5 4238,-131.5 4238,-112.5 3680,-112.5"/>
<text text-anchor="middle" x="3959" y="-119.5" font-family="Helvetica,sans-Serif" font-size="10.00">/Users/mcasl/pc&#45;ule/Trabajo/investigacion/AMORE/AMORE&#45;WC/AMORE&#45;WC/pkg/AMORE/src/SimpleNeuralCreator.cpp</text>
</a>
</g>
<!-- Node1&#45;&gt;Node13 -->
<g id="edge46" class="edge"><title>Node1&#45;&gt;Node13</title>
<path fill="none" stroke="midnightblue" d="M2293.29,-169.648C2624.05,-161.013 3186.61,-146.075 3670,-132 3675.52,-131.839 3681.1,-131.676 3686.72,-131.51"/>
<polygon fill="midnightblue" stroke="midnightblue" points="2292.99,-166.154 2283.08,-169.914 2293.17,-173.152 2292.99,-166.154"/>
</g>
<!-- Node2&#45;&gt;Node3 -->
<g id="edge4" class="edge"><title>Node2&#45;&gt;Node3</title>
<path fill="none" stroke="midnightblue" d="M554.115,-56.2007C556.419,-56.1333 558.715,-56.0664 561,-56 1069.87,-41.2135 1665.75,-25.6144 1991.88,-17.2234"/>
<polygon fill="midnightblue" stroke="midnightblue" points="553.848,-52.7069 543.955,-56.4988 554.053,-59.7039 553.848,-52.7069"/>
</g>
<!-- Node4&#45;&gt;Node3 -->
<g id="edge10" class="edge"><title>Node4&#45;&gt;Node3</title>
<path fill="none" stroke="midnightblue" d="M800.63,-111.685C697.473,-103.165 601.939,-86.9164 632,-56 655.343,-31.9934 1548.8,-18.6603 1991.91,-13.5122"/>
<polygon fill="midnightblue" stroke="midnightblue" points="800.385,-115.177 810.632,-112.486 800.943,-108.199 800.385,-115.177"/>
</g>
<!-- Node5 -->
<g id="node11" class="node"><title>Node5</title>
<a xlink:href="_simple_neuron_8cpp.html" target="_top" xlink:title="/Users/mcasl/pc&#45;ule/Trabajo/investigacion/AMORE/AMORE&#45;WC/AMORE&#45;WC/pkg/AMORE/src/SimpleNeuron.cpp">
<polygon fill="white" stroke="black" points="641.5,-56.5 641.5,-75.5 1168.5,-75.5 1168.5,-56.5 641.5,-56.5"/>
<text text-anchor="middle" x="905" y="-63.5" font-family="Helvetica,sans-Serif" font-size="10.00">/Users/mcasl/pc&#45;ule/Trabajo/investigacion/AMORE/AMORE&#45;WC/AMORE&#45;WC/pkg/AMORE/src/SimpleNeuron.cpp</text>
</a>
</g>
<!-- Node4&#45;&gt;Node5 -->
<g id="edge12" class="edge"><title>Node4&#45;&gt;Node5</title>
<path fill="none" stroke="midnightblue" d="M988.238,-107.862C967.841,-97.8492 940.334,-84.3458 922.63,-75.6545"/>
<polygon fill="midnightblue" stroke="midnightblue" points="986.808,-111.059 997.327,-112.324 989.892,-104.775 986.808,-111.059"/>
</g>
<!-- Node4&#45;&gt;Node6 -->
<g id="edge16" class="edge"><title>Node4&#45;&gt;Node6</title>
<path fill="none" stroke="midnightblue" d="M1093.12,-111.167C1174.11,-100.972 1299.44,-85.1963 1376.34,-75.5164"/>
<polygon fill="midnightblue" stroke="midnightblue" points="1092.46,-107.722 1082.98,-112.444 1093.34,-114.667 1092.46,-107.722"/>
</g>
<!-- Node5&#45;&gt;Node3 -->
<g id="edge14" class="edge"><title>Node5&#45;&gt;Node3</title>
<path fill="none" stroke="midnightblue" d="M1125.11,-56.0699C1375.24,-45.922 1780.53,-29.4789 2026.27,-19.5091"/>
<polygon fill="midnightblue" stroke="midnightblue" points="1124.65,-52.5856 1114.8,-56.4882 1124.93,-59.5799 1124.65,-52.5856"/>
</g>
<!-- Node6&#45;&gt;Node3 -->
<g id="edge18" class="edge"><title>Node6&#45;&gt;Node3</title>
<path fill="none" stroke="midnightblue" d="M1579.2,-55.782C1728.36,-45.6117 1966.43,-29.3798 2111.27,-19.5042"/>
<polygon fill="midnightblue" stroke="midnightblue" points="1578.8,-52.3011 1569.06,-56.4733 1579.27,-59.2849 1578.8,-52.3011"/>
</g>
<!-- Node7&#45;&gt;Node3 -->
<g id="edge22" class="edge"><title>Node7&#45;&gt;Node3</title>
<path fill="none" stroke="midnightblue" d="M2028.1,-54.3456C2077.05,-44.1405 2149.95,-28.94 2195.15,-19.5164"/>
<polygon fill="midnightblue" stroke="midnightblue" points="2027.11,-50.9761 2018.04,-56.4435 2028.54,-57.8287 2027.11,-50.9761"/>
</g>
<!-- Node8&#45;&gt;Node3 -->
<g id="edge26" class="edge"><title>Node8&#45;&gt;Node3</title>
<path fill="none" stroke="midnightblue" d="M2443.9,-54.3456C2394.95,-44.1405 2322.05,-28.94 2276.85,-19.5164"/>
<polygon fill="midnightblue" stroke="midnightblue" points="2443.46,-57.8287 2453.96,-56.4435 2444.89,-50.9761 2443.46,-57.8287"/>
</g>
<!-- Node9&#45;&gt;Node3 -->
<g id="edge30" class="edge"><title>Node9&#45;&gt;Node3</title>
<path fill="none" stroke="midnightblue" d="M2888.66,-55.782C2740.43,-45.6117 2503.87,-29.3798 2359.94,-19.5042"/>
<polygon fill="midnightblue" stroke="midnightblue" points="2888.52,-59.2805 2898.73,-56.4733 2888.99,-52.2969 2888.52,-59.2805"/>
</g>
<!-- Node10&#45;&gt;Node3 -->
<g id="edge34" class="edge"><title>Node10&#45;&gt;Node3</title>
<path fill="none" stroke="midnightblue" d="M2568.33,-112.1C2851.57,-100.971 3293.72,-82.5833 3300,-76 3306.14,-69.5697 3306.15,-62.4168 3300,-56 3272.02,-26.8142 2785.43,-16.5031 2480.07,-12.8995"/>
<polygon fill="midnightblue" stroke="midnightblue" points="2568.18,-108.603 2558.32,-112.492 2568.45,-115.597 2568.18,-108.603"/>
</g>
<!-- Node11&#45;&gt;Node3 -->
<g id="edge38" class="edge"><title>Node11&#45;&gt;Node3</title>
<path fill="none" stroke="midnightblue" d="M3089.04,-111.863C3194.53,-105.216 3300.6,-94.1094 3317,-76 3322.97,-69.4119 3323.15,-62.4148 3317,-56 3288.45,-26.2416 2790.31,-16.1348 2480.32,-12.7219"/>
<polygon fill="midnightblue" stroke="midnightblue" points="3088.6,-108.383 3078.84,-112.493 3089.04,-115.37 3088.6,-108.383"/>
</g>
<!-- Node12&#45;&gt;Node3 -->
<g id="edge44" class="edge"><title>Node12&#45;&gt;Node3</title>
<path fill="none" stroke="midnightblue" d="M3384.33,-103.498C3373.73,-87.8954 3355.91,-66.0231 3334,-56 3258.67,-21.5372 2780.13,-13.1238 2480.18,-11.2764"/>
<polygon fill="midnightblue" stroke="midnightblue" points="3381.61,-105.735 3389.97,-112.24 3387.49,-101.939 3381.61,-105.735"/>
</g>
<!-- Node13&#45;&gt;Node3 -->
<g id="edge48" class="edge"><title>Node13&#45;&gt;Node3</title>
<path fill="none" stroke="midnightblue" d="M3884.28,-111.201C3771.38,-96.7718 3550.48,-70.0102 3362,-56 3058.61,-33.4483 2708.34,-21.6901 2480.08,-15.9337"/>
<polygon fill="midnightblue" stroke="midnightblue" points="3883.84,-114.673 3894.2,-112.473 3884.73,-107.729 3883.84,-114.673"/>
</g>
</g>
</svg>
