<?xml version="1.0" encoding="UTF-8" standalone="no"?>
<!DOCTYPE svg PUBLIC "-//W3C//DTD SVG 1.1//EN"
 "http://www.w3.org/Graphics/SVG/1.1/DTD/svg11.dtd">
<!-- Generated by graphviz version 2.28.0 (20110610.2051)
 -->
<!-- Title: G Pages: 1 -->
<svg width="9728pt" height="252pt"
 viewBox="0.00 0.00 9727.84 252.00" xmlns="http://www.w3.org/2000/svg" xmlns:xlink="http://www.w3.org/1999/xlink">
<g id="graph1" class="graph" transform="scale(1 1) rotate(0) translate(4 248)">
<title>G</title>
<polygon fill="white" stroke="white" points="-4,5 -4,-248 9724.84,-248 9724.84,5 -4,5"/>
<!-- Node1 -->
<g id="node1" class="node"><title>Node1</title>
<polygon fill="#bfbfbf" stroke="black" points="7368.84,-224.5 7368.84,-243.5 7946.84,-243.5 7946.84,-224.5 7368.84,-224.5"/>
<text text-anchor="middle" x="7657.84" y="-231.5" font-family="Helvetica,sans-Serif" font-size="10.00">/Users/mcasl/pc&#45;ule/Trabajo/investigacion/AMORE/AMORE&#45;WC/AMORE&#45;WC/pkg/AMORE/src/classHeaders/NeuralFactory.h</text>
</g>
<!-- Node2 -->
<g id="node3" class="node"><title>Node2</title>
<a xlink:href="_a_m_o_r_e_8h.html" target="_top" xlink:title="/Users/mcasl/pc&#45;ule/Trabajo/investigacion/AMORE/AMORE&#45;WC/AMORE&#45;WC/pkg/AMORE/src/AMORE.h">
<polygon fill="white" stroke="black" points="6760.84,-0.5 6760.84,-19.5 7248.84,-19.5 7248.84,-0.5 6760.84,-0.5"/>
<text text-anchor="middle" x="7004.84" y="-7.5" font-family="Helvetica,sans-Serif" font-size="10.00">/Users/mcasl/pc&#45;ule/Trabajo/investigacion/AMORE/AMORE&#45;WC/AMORE&#45;WC/pkg/AMORE/src/AMORE.h</text>
</a>
</g>
<!-- Node1&#45;&gt;Node2 -->
<g id="edge2" class="edge"><title>Node1&#45;&gt;Node2</title>
<path fill="none" stroke="midnightblue" d="M7358.24,-232.303C6115.87,-229.244 1402.95,-215.892 736.84,-188 575.612,-181.249 122.458,-250.424 12.8402,-132 -102.007,-7.92688 600.911,-62.8504 769.84,-56 1967.55,-7.43095 5759.35,-9.2184 6760.49,-10.5843"/>
<polygon fill="midnightblue" stroke="midnightblue" points="7358.64,-235.804 7368.65,-232.329 7358.66,-228.804 7358.64,-235.804"/>
</g>
<!-- Node3 -->
<g id="node5" class="node"><title>Node3</title>
<a xlink:href="_m_l_pfactory_8h.html" target="_top" xlink:title="/Users/mcasl/pc&#45;ule/Trabajo/investigacion/AMORE/AMORE&#45;WC/AMORE&#45;WC/pkg/AMORE/src/classHeaders/MLPfactory.h">
<polygon fill="white" stroke="black" points="3684.34,-168.5 3684.34,-187.5 4251.34,-187.5 4251.34,-168.5 3684.34,-168.5"/>
<text text-anchor="middle" x="3967.84" y="-175.5" font-family="Helvetica,sans-Serif" font-size="10.00">/Users/mcasl/pc&#45;ule/Trabajo/investigacion/AMORE/AMORE&#45;WC/AMORE&#45;WC/pkg/AMORE/src/classHeaders/MLPfactory.h</text>
</a>
</g>
<!-- Node1&#45;&gt;Node3 -->
<g id="edge4" class="edge"><title>Node1&#45;&gt;Node3</title>
<path fill="none" stroke="midnightblue" d="M7358.48,-228.619C6660.61,-218.406 4933.37,-193.13 4251.37,-183.149"/>
<polygon fill="midnightblue" stroke="midnightblue" points="7358.63,-232.122 7368.68,-228.768 7358.73,-225.122 7358.63,-232.122"/>
</g>
<!-- Node5 -->
<g id="node11" class="node"><title>Node5</title>
<a xlink:href="_tanh_factory_8cpp.html" target="_top" xlink:title="/Users/mcasl/pc&#45;ule/Trabajo/investigacion/AMORE/AMORE&#45;WC/AMORE&#45;WC/pkg/AMORE/src/TanhFactory.cpp">
<polygon fill="white" stroke="black" points="2957.84,-56.5 2957.84,-75.5 3475.84,-75.5 3475.84,-56.5 2957.84,-56.5"/>
<text text-anchor="middle" x="3216.84" y="-63.5" font-family="Helvetica,sans-Serif" font-size="10.00">/Users/mcasl/pc&#45;ule/Trabajo/investigacion/AMORE/AMORE&#45;WC/AMORE&#45;WC/pkg/AMORE/src/TanhFactory.cpp</text>
</a>
</g>
<!-- Node1&#45;&gt;Node5 -->
<g id="edge68" class="edge"><title>Node1&#45;&gt;Node5</title>
<path fill="none" stroke="midnightblue" d="M7358.54,-231.865C5954.54,-226.196 86.3621,-198.534 20.8402,-132 14.6032,-125.667 14.5992,-118.329 20.8402,-112 46.5303,-85.9456 2201.03,-72.2701 2957.68,-68.2674"/>
<polygon fill="midnightblue" stroke="midnightblue" points="7358.76,-235.366 7368.77,-231.906 7358.79,-228.366 7358.76,-235.366"/>
</g>
<!-- Node6 -->
<g id="node14" class="node"><title>Node6</title>
<a xlink:href="_network_rinterface_8cpp.html" target="_top" xlink:title="/Users/mcasl/pc&#45;ule/Trabajo/investigacion/AMORE/AMORE&#45;WC/AMORE&#45;WC/pkg/AMORE/src/NetworkRinterface.cpp">
<polygon fill="white" stroke="black" points="6281.84,-56.5 6281.84,-75.5 6829.84,-75.5 6829.84,-56.5 6281.84,-56.5"/>
<text text-anchor="middle" x="6555.84" y="-63.5" font-family="Helvetica,sans-Serif" font-size="10.00">/Users/mcasl/pc&#45;ule/Trabajo/investigacion/AMORE/AMORE&#45;WC/AMORE&#45;WC/pkg/AMORE/src/NetworkRinterface.cpp</text>
</a>
</g>
<!-- Node1&#45;&gt;Node6 -->
<g id="edge80" class="edge"><title>Node1&#45;&gt;Node6</title>
<path fill="none" stroke="midnightblue" d="M7507.4,-223.838C7279.37,-208.782 6857.49,-176.029 6712.84,-132 6694.58,-126.442 6692.24,-119.835 6674.84,-112 6643.22,-97.7649 6605.63,-84.0649 6581.28,-75.5977"/>
<polygon fill="midnightblue" stroke="midnightblue" points="7507.23,-227.334 7517.44,-224.498 7507.69,-220.349 7507.23,-227.334"/>
</g>
<!-- Node8 -->
<g id="node20" class="node"><title>Node8</title>
<a xlink:href="_identity_factory_8cpp.html" target="_top" xlink:title="/Users/mcasl/pc&#45;ule/Trabajo/investigacion/AMORE/AMORE&#45;WC/AMORE&#45;WC/pkg/AMORE/src/IdentityFactory.cpp">
<polygon fill="white" stroke="black" points="6885.84,-56.5 6885.84,-75.5 7417.84,-75.5 7417.84,-56.5 6885.84,-56.5"/>
<text text-anchor="middle" x="7151.84" y="-63.5" font-family="Helvetica,sans-Serif" font-size="10.00">/Users/mcasl/pc&#45;ule/Trabajo/investigacion/AMORE/AMORE&#45;WC/AMORE&#45;WC/pkg/AMORE/src/IdentityFactory.cpp</text>
</a>
</g>
<!-- Node1&#45;&gt;Node8 -->
<g id="edge70" class="edge"><title>Node1&#45;&gt;Node8</title>
<path fill="none" stroke="midnightblue" d="M7625.55,-220.699C7549.42,-191.736 7362.94,-120.998 7333.84,-112 7285.64,-97.0955 7229.09,-83.7427 7191.97,-75.5266"/>
<polygon fill="midnightblue" stroke="midnightblue" points="7624.52,-224.053 7635.11,-224.339 7627.01,-217.51 7624.52,-224.053"/>
</g>
<!-- Node9 -->
<g id="node24" class="node"><title>Node9</title>
<a xlink:href="_m_l_pfactory_8cpp.html" target="_top" xlink:title="/Users/mcasl/pc&#45;ule/Trabajo/investigacion/AMORE/AMORE&#45;WC/AMORE&#45;WC/pkg/AMORE/src/MLPfactory.cpp">
<polygon fill="white" stroke="black" points="7400.34,-112.5 7400.34,-131.5 7915.34,-131.5 7915.34,-112.5 7400.34,-112.5"/>
<text text-anchor="middle" x="7657.84" y="-119.5" font-family="Helvetica,sans-Serif" font-size="10.00">/Users/mcasl/pc&#45;ule/Trabajo/investigacion/AMORE/AMORE&#45;WC/AMORE&#45;WC/pkg/AMORE/src/MLPfactory.cpp</text>
</a>
</g>
<!-- Node1&#45;&gt;Node9 -->
<g id="edge66" class="edge"><title>Node1&#45;&gt;Node9</title>
<path fill="none" stroke="midnightblue" d="M7657.84,-214.348C7657.84,-190.254 7657.84,-149.308 7657.84,-131.591"/>
<polygon fill="midnightblue" stroke="midnightblue" points="7654.34,-214.368 7657.84,-224.368 7661.34,-214.369 7654.34,-214.368"/>
</g>
<!-- Node20 -->
<g id="node49" class="node"><title>Node20</title>
<a xlink:href="_neuron_8cpp.html" target="_top" xlink:title="/Users/mcasl/pc&#45;ule/Trabajo/investigacion/AMORE/AMORE&#45;WC/AMORE&#45;WC/pkg/AMORE/src/Neuron.cpp">
<polygon fill="white" stroke="black" points="7474.34,-56.5 7474.34,-75.5 7969.34,-75.5 7969.34,-56.5 7474.34,-56.5"/>
<text text-anchor="middle" x="7721.84" y="-63.5" font-family="Helvetica,sans-Serif" font-size="10.00">/Users/mcasl/pc&#45;ule/Trabajo/investigacion/AMORE/AMORE&#45;WC/AMORE&#45;WC/pkg/AMORE/src/Neuron.cpp</text>
</a>
</g>
<!-- Node1&#45;&gt;Node20 -->
<g id="edge58" class="edge"><title>Node1&#45;&gt;Node20</title>
<path fill="none" stroke="midnightblue" d="M7759.03,-222.544C7817.63,-210.706 7886.91,-185.521 7923.84,-132 7945.29,-100.919 7917.17,-84.3065 7875.75,-75.5594"/>
<polygon fill="midnightblue" stroke="midnightblue" points="7758.14,-219.151 7748.98,-224.467 7759.46,-226.026 7758.14,-219.151"/>
</g>
<!-- Node21 -->
<g id="node52" class="node"><title>Node21</title>
<a xlink:href="_simple_neuron_8cpp.html" target="_top" xlink:title="/Users/mcasl/pc&#45;ule/Trabajo/investigacion/AMORE/AMORE&#45;WC/AMORE&#45;WC/pkg/AMORE/src/SimpleNeuron.cpp">
<polygon fill="white" stroke="black" points="7987.34,-56.5 7987.34,-75.5 8514.34,-75.5 8514.34,-56.5 7987.34,-56.5"/>
<text text-anchor="middle" x="8250.84" y="-63.5" font-family="Helvetica,sans-Serif" font-size="10.00">/Users/mcasl/pc&#45;ule/Trabajo/investigacion/AMORE/AMORE&#45;WC/AMORE&#45;WC/pkg/AMORE/src/SimpleNeuron.cpp</text>
</a>
</g>
<!-- Node1&#45;&gt;Node21 -->
<g id="edge62" class="edge"><title>Node1&#45;&gt;Node21</title>
<path fill="none" stroke="midnightblue" d="M7721.65,-222.784C7768.09,-214.801 7832.31,-202.624 7887.84,-188 8019.21,-153.407 8172.34,-96.8683 8228.63,-75.5204"/>
<polygon fill="midnightblue" stroke="midnightblue" points="7721,-219.345 7711.73,-224.473 7722.17,-226.246 7721,-219.345"/>
</g>
<!-- Node22 -->
<g id="node58" class="node"><title>Node22</title>
<a xlink:href="_neural_network_8cpp.html" target="_top" xlink:title="/Users/mcasl/pc&#45;ule/Trabajo/investigacion/AMORE/AMORE&#45;WC/AMORE&#45;WC/pkg/AMORE/src/NeuralNetwork.cpp">
<polygon fill="white" stroke="black" points="8009.84,-168.5 8009.84,-187.5 8539.84,-187.5 8539.84,-168.5 8009.84,-168.5"/>
<text text-anchor="middle" x="8274.84" y="-175.5" font-family="Helvetica,sans-Serif" font-size="10.00">/Users/mcasl/pc&#45;ule/Trabajo/investigacion/AMORE/AMORE&#45;WC/AMORE&#45;WC/pkg/AMORE/src/NeuralNetwork.cpp</text>
</a>
</g>
<!-- Node1&#45;&gt;Node22 -->
<g id="edge72" class="edge"><title>Node1&#45;&gt;Node22</title>
<path fill="none" stroke="midnightblue" d="M7765.26,-223.599C7881.59,-213.417 8065.51,-197.321 8177.67,-187.504"/>
<polygon fill="midnightblue" stroke="midnightblue" points="7764.92,-220.115 7755.27,-224.473 7765.53,-227.088 7764.92,-220.115"/>
</g>
<!-- Node23 -->
<g id="node61" class="node"><title>Node23</title>
<a xlink:href="_simple_neural_creator_8cpp.html" target="_top" xlink:title="/Users/mcasl/pc&#45;ule/Trabajo/investigacion/AMORE/AMORE&#45;WC/AMORE&#45;WC/pkg/AMORE/src/SimpleNeuralCreator.cpp">
<polygon fill="white" stroke="black" points="8557.84,-168.5 8557.84,-187.5 9115.84,-187.5 9115.84,-168.5 8557.84,-168.5"/>
<text text-anchor="middle" x="8836.84" y="-175.5" font-family="Helvetica,sans-Serif" font-size="10.00">/Users/mcasl/pc&#45;ule/Trabajo/investigacion/AMORE/AMORE&#45;WC/AMORE&#45;WC/pkg/AMORE/src/SimpleNeuralCreator.cpp</text>
</a>
</g>
<!-- Node1&#45;&gt;Node23 -->
<g id="edge76" class="edge"><title>Node1&#45;&gt;Node23</title>
<path fill="none" stroke="midnightblue" d="M7853.8,-224.025C8075.44,-213.873 8433.71,-197.464 8651.06,-187.509"/>
<polygon fill="midnightblue" stroke="midnightblue" points="7853.51,-220.534 7843.68,-224.488 7853.83,-227.527 7853.51,-220.534"/>
</g>
<!-- Node24 -->
<g id="node65" class="node"><title>Node24</title>
<a xlink:href="_r_b_ffactory_8h.html" target="_top" xlink:title="/Users/mcasl/pc&#45;ule/Trabajo/investigacion/AMORE/AMORE&#45;WC/AMORE&#45;WC/pkg/AMORE/src/classHeaders/RBFfactory.h">
<polygon fill="white" stroke="black" points="9134.34,-168.5 9134.34,-187.5 9701.34,-187.5 9701.34,-168.5 9134.34,-168.5"/>
<text text-anchor="middle" x="9417.84" y="-175.5" font-family="Helvetica,sans-Serif" font-size="10.00">/Users/mcasl/pc&#45;ule/Trabajo/investigacion/AMORE/AMORE&#45;WC/AMORE&#45;WC/pkg/AMORE/src/classHeaders/RBFfactory.h</text>
</a>
</g>
<!-- Node1&#45;&gt;Node24 -->
<g id="edge82" class="edge"><title>Node1&#45;&gt;Node24</title>
<path fill="none" stroke="midnightblue" d="M7945.33,-224.185C8241.1,-215.115 8715.15,-200.576 9124.84,-188 9130.18,-187.836 9135.58,-187.67 9141.01,-187.503"/>
<polygon fill="midnightblue" stroke="midnightblue" points="7945.21,-220.687 7935.32,-224.492 7945.43,-227.683 7945.21,-220.687"/>
</g>
<!-- Node3&#45;&gt;Node2 -->
<g id="edge6" class="edge"><title>Node3&#45;&gt;Node2</title>
<path fill="none" stroke="midnightblue" d="M3673.93,-176.363C2764.11,-174.05 52.9106,-164.438 20.8402,-132 14.5907,-125.679 14.6152,-118.345 20.8402,-112 81.1148,-50.5616 5531.8,-18.6396 6760.63,-12.2201"/>
<polygon fill="midnightblue" stroke="midnightblue" points="3674.21,-179.864 3684.22,-176.389 3674.23,-172.864 3674.21,-179.864"/>
</g>
<!-- Node4 -->
<g id="node8" class="node"><title>Node4</title>
<a xlink:href="_tanh_factory_8h.html" target="_top" xlink:title="/Users/mcasl/pc&#45;ule/Trabajo/investigacion/AMORE/AMORE&#45;WC/AMORE&#45;WC/pkg/AMORE/src/classHeaders/TanhFactory.h">
<polygon fill="white" stroke="black" points="3088.34,-112.5 3088.34,-131.5 3659.34,-131.5 3659.34,-112.5 3088.34,-112.5"/>
<text text-anchor="middle" x="3373.84" y="-119.5" font-family="Helvetica,sans-Serif" font-size="10.00">/Users/mcasl/pc&#45;ule/Trabajo/investigacion/AMORE/AMORE&#45;WC/AMORE&#45;WC/pkg/AMORE/src/classHeaders/TanhFactory.h</text>
</a>
</g>
<!-- Node3&#45;&gt;Node4 -->
<g id="edge8" class="edge"><title>Node3&#45;&gt;Node4</title>
<path fill="none" stroke="midnightblue" d="M3863.76,-167.538C3751.81,-157.361 3575.42,-141.325 3467.63,-131.526"/>
<polygon fill="midnightblue" stroke="midnightblue" points="3863.77,-171.054 3874.05,-168.473 3864.4,-164.082 3863.77,-171.054"/>
</g>
<!-- Node3&#45;&gt;Node5 -->
<g id="edge34" class="edge"><title>Node3&#45;&gt;Node5</title>
<path fill="none" stroke="midnightblue" d="M3674.18,-171.711C3423.29,-165.704 3099.54,-153.777 3078.84,-132 3050.65,-102.346 3106.75,-84.81 3155.67,-75.5664"/>
<polygon fill="midnightblue" stroke="midnightblue" points="3674.11,-175.21 3684.19,-171.948 3674.28,-168.212 3674.11,-175.21"/>
</g>
<!-- Node7 -->
<g id="node17" class="node"><title>Node7</title>
<a xlink:href="_identity_factory_8h.html" target="_top" xlink:title="/Users/mcasl/pc&#45;ule/Trabajo/investigacion/AMORE/AMORE&#45;WC/AMORE&#45;WC/pkg/AMORE/src/classHeaders/IdentityFactory.h">
<polygon fill="white" stroke="black" points="6721.84,-112.5 6721.84,-131.5 7305.84,-131.5 7305.84,-112.5 6721.84,-112.5"/>
<text text-anchor="middle" x="7013.84" y="-119.5" font-family="Helvetica,sans-Serif" font-size="10.00">/Users/mcasl/pc&#45;ule/Trabajo/investigacion/AMORE/AMORE&#45;WC/AMORE&#45;WC/pkg/AMORE/src/classHeaders/IdentityFactory.h</text>
</a>
</g>
<!-- Node3&#45;&gt;Node7 -->
<g id="edge20" class="edge"><title>Node3&#45;&gt;Node7</title>
<path fill="none" stroke="midnightblue" d="M4261.56,-173.071C4758.51,-166.21 5796.85,-150.952 6674.84,-132 6690.14,-131.67 6705.84,-131.314 6721.68,-130.94"/>
<polygon fill="midnightblue" stroke="midnightblue" points="4261.33,-169.574 4251.38,-173.212 4261.43,-176.573 4261.33,-169.574"/>
</g>
<!-- Node3&#45;&gt;Node8 -->
<g id="edge36" class="edge"><title>Node3&#45;&gt;Node8</title>
<path fill="none" stroke="midnightblue" d="M4261.76,-175.741C5073.47,-171.918 7288.18,-159.023 7314.84,-132 7345.65,-100.771 7290.23,-84.1082 7235.83,-75.5057"/>
<polygon fill="midnightblue" stroke="midnightblue" points="4261.67,-172.241 4251.68,-175.788 4261.7,-179.241 4261.67,-172.241"/>
</g>
<!-- Node3&#45;&gt;Node9 -->
<g id="edge30" class="edge"><title>Node3&#45;&gt;Node9</title>
<path fill="none" stroke="midnightblue" d="M4261.65,-174.641C4848.32,-169.586 6206.6,-156.162 7347.84,-132 7364.93,-131.638 7382.55,-131.228 7400.31,-130.786"/>
<polygon fill="midnightblue" stroke="midnightblue" points="4261.33,-171.143 4251.36,-174.729 4261.39,-178.143 4261.33,-171.143"/>
</g>
<!-- Node10 -->
<g id="node29" class="node"><title>Node10</title>
<a xlink:href="_arc_tan_factory_8h.html" target="_top" xlink:title="/Users/mcasl/pc&#45;ule/Trabajo/investigacion/AMORE/AMORE&#45;WC/AMORE&#45;WC/pkg/AMORE/src/classHeaders/ArcTanFactory.h">
<polygon fill="white" stroke="black" points="3677.34,-112.5 3677.34,-131.5 4258.34,-131.5 4258.34,-112.5 3677.34,-112.5"/>
<text text-anchor="middle" x="3967.84" y="-119.5" font-family="Helvetica,sans-Serif" font-size="10.00">/Users/mcasl/pc&#45;ule/Trabajo/investigacion/AMORE/AMORE&#45;WC/AMORE&#45;WC/pkg/AMORE/src/classHeaders/ArcTanFactory.h</text>
</a>
</g>
<!-- Node3&#45;&gt;Node10 -->
<g id="edge38" class="edge"><title>Node3&#45;&gt;Node10</title>
<path fill="none" stroke="midnightblue" d="M3967.84,-157.805C3967.84,-148.91 3967.84,-138.78 3967.84,-131.751"/>
<polygon fill="midnightblue" stroke="midnightblue" points="3964.34,-158.083 3967.84,-168.083 3971.34,-158.083 3964.34,-158.083"/>
</g>
<!-- Node11 -->
<g id="node31" class="node"><title>Node11</title>
<a xlink:href="_cosine_factory_8h.html" target="_top" xlink:title="/Users/mcasl/pc&#45;ule/Trabajo/investigacion/AMORE/AMORE&#45;WC/AMORE&#45;WC/pkg/AMORE/src/classHeaders/CosineFactory.h">
<polygon fill="white" stroke="black" points="4276.34,-112.5 4276.34,-131.5 4857.34,-131.5 4857.34,-112.5 4276.34,-112.5"/>
<text text-anchor="middle" x="4566.84" y="-119.5" font-family="Helvetica,sans-Serif" font-size="10.00">/Users/mcasl/pc&#45;ule/Trabajo/investigacion/AMORE/AMORE&#45;WC/AMORE&#45;WC/pkg/AMORE/src/classHeaders/CosineFactory.h</text>
</a>
</g>
<!-- Node3&#45;&gt;Node11 -->
<g id="edge40" class="edge"><title>Node3&#45;&gt;Node11</title>
<path fill="none" stroke="midnightblue" d="M4072.46,-167.568C4185.33,-157.393 4363.45,-141.335 4472.26,-131.526"/>
<polygon fill="midnightblue" stroke="midnightblue" points="4072.07,-164.09 4062.42,-168.473 4072.7,-171.061 4072.07,-164.09"/>
</g>
<!-- Node12 -->
<g id="node33" class="node"><title>Node12</title>
<a xlink:href="_elliot_factory_8h.html" target="_top" xlink:title="/Users/mcasl/pc&#45;ule/Trabajo/investigacion/AMORE/AMORE&#45;WC/AMORE&#45;WC/pkg/AMORE/src/classHeaders/ElliotFactory.h">
<polygon fill="white" stroke="black" points="4875.84,-112.5 4875.84,-131.5 5447.84,-131.5 5447.84,-112.5 4875.84,-112.5"/>
<text text-anchor="middle" x="5161.84" y="-119.5" font-family="Helvetica,sans-Serif" font-size="10.00">/Users/mcasl/pc&#45;ule/Trabajo/investigacion/AMORE/AMORE&#45;WC/AMORE&#45;WC/pkg/AMORE/src/classHeaders/ElliotFactory.h</text>
</a>
</g>
<!-- Node3&#45;&gt;Node12 -->
<g id="edge42" class="edge"><title>Node3&#45;&gt;Node12</title>
<path fill="none" stroke="midnightblue" d="M4166.3,-168.025C4390.76,-157.873 4753.58,-141.464 4973.69,-131.509"/>
<polygon fill="midnightblue" stroke="midnightblue" points="4165.88,-164.54 4156.05,-168.488 4166.19,-171.533 4165.88,-164.54"/>
</g>
<!-- Node13 -->
<g id="node35" class="node"><title>Node13</title>
<a xlink:href="_exponential_factory_8h.html" target="_top" xlink:title="/Users/mcasl/pc&#45;ule/Trabajo/investigacion/AMORE/AMORE&#45;WC/AMORE&#45;WC/pkg/AMORE/src/classHeaders/ExponentialFactory.h">
<polygon fill="white" stroke="black" points="5465.84,-112.5 5465.84,-131.5 6069.84,-131.5 6069.84,-112.5 5465.84,-112.5"/>
<text text-anchor="middle" x="5767.84" y="-119.5" font-family="Helvetica,sans-Serif" font-size="10.00">/Users/mcasl/pc&#45;ule/Trabajo/investigacion/AMORE/AMORE&#45;WC/AMORE&#45;WC/pkg/AMORE/src/classHeaders/ExponentialFactory.h</text>
</a>
</g>
<!-- Node3&#45;&gt;Node13 -->
<g id="edge44" class="edge"><title>Node3&#45;&gt;Node13</title>
<path fill="none" stroke="midnightblue" d="M4261.75,-168.183C4599.7,-158.044 5150.64,-141.516 5484.2,-131.509"/>
<polygon fill="midnightblue" stroke="midnightblue" points="4261.46,-164.69 4251.57,-168.488 4261.67,-171.687 4261.46,-164.69"/>
</g>
<!-- Node14 -->
<g id="node37" class="node"><title>Node14</title>
<a xlink:href="_gauss_factory_8h.html" target="_top" xlink:title="/Users/mcasl/pc&#45;ule/Trabajo/investigacion/AMORE/AMORE&#45;WC/AMORE&#45;WC/pkg/AMORE/src/classHeaders/GaussFactory.h">
<polygon fill="white" stroke="black" points="6087.84,-112.5 6087.84,-131.5 6665.84,-131.5 6665.84,-112.5 6087.84,-112.5"/>
<text text-anchor="middle" x="6376.84" y="-119.5" font-family="Helvetica,sans-Serif" font-size="10.00">/Users/mcasl/pc&#45;ule/Trabajo/investigacion/AMORE/AMORE&#45;WC/AMORE&#45;WC/pkg/AMORE/src/classHeaders/GaussFactory.h</text>
</a>
</g>
<!-- Node3&#45;&gt;Node14 -->
<g id="edge46" class="edge"><title>Node3&#45;&gt;Node14</title>
<path fill="none" stroke="midnightblue" d="M4261.85,-171.556C4669.74,-163.816 5430.38,-148.704 6078.84,-132 6085.05,-131.84 6091.33,-131.675 6097.67,-131.507"/>
<polygon fill="midnightblue" stroke="midnightblue" points="4261.62,-168.06 4251.69,-171.749 4261.75,-175.059 4261.62,-168.06"/>
</g>
<!-- Node15 -->
<g id="node39" class="node"><title>Node15</title>
<a xlink:href="_logistic_factory_8h.html" target="_top" xlink:title="/Users/mcasl/pc&#45;ule/Trabajo/investigacion/AMORE/AMORE&#45;WC/AMORE&#45;WC/pkg/AMORE/src/classHeaders/LogisticFactory.h">
<polygon fill="white" stroke="black" points="29.8402,-112.5 29.8402,-131.5 615.84,-131.5 615.84,-112.5 29.8402,-112.5"/>
<text text-anchor="middle" x="322.84" y="-119.5" font-family="Helvetica,sans-Serif" font-size="10.00">/Users/mcasl/pc&#45;ule/Trabajo/investigacion/AMORE/AMORE&#45;WC/AMORE&#45;WC/pkg/AMORE/src/classHeaders/LogisticFactory.h</text>
</a>
</g>
<!-- Node3&#45;&gt;Node15 -->
<g id="edge48" class="edge"><title>Node3&#45;&gt;Node15</title>
<path fill="none" stroke="midnightblue" d="M3673.9,-174.655C3091.85,-169.656 1751.42,-156.367 624.84,-132 617.629,-131.844 610.322,-131.679 602.949,-131.506"/>
<polygon fill="midnightblue" stroke="midnightblue" points="3674.08,-178.157 3684.11,-174.743 3674.14,-171.157 3674.08,-178.157"/>
</g>
<!-- Node16 -->
<g id="node41" class="node"><title>Node16</title>
<a xlink:href="_reciprocal_factory_8h.html" target="_top" xlink:title="/Users/mcasl/pc&#45;ule/Trabajo/investigacion/AMORE/AMORE&#45;WC/AMORE&#45;WC/pkg/AMORE/src/classHeaders/ReciprocalFactory.h">
<polygon fill="white" stroke="black" points="633.84,-112.5 633.84,-131.5 1231.84,-131.5 1231.84,-112.5 633.84,-112.5"/>
<text text-anchor="middle" x="932.84" y="-119.5" font-family="Helvetica,sans-Serif" font-size="10.00">/Users/mcasl/pc&#45;ule/Trabajo/investigacion/AMORE/AMORE&#45;WC/AMORE&#45;WC/pkg/AMORE/src/classHeaders/ReciprocalFactory.h</text>
</a>
</g>
<!-- Node3&#45;&gt;Node16 -->
<g id="edge50" class="edge"><title>Node3&#45;&gt;Node16</title>
<path fill="none" stroke="midnightblue" d="M3673.93,-173.374C3174.09,-166.934 2126.47,-152.246 1240.84,-132 1233.89,-131.841 1226.85,-131.675 1219.75,-131.503"/>
<polygon fill="midnightblue" stroke="midnightblue" points="3674.13,-176.877 3684.18,-173.506 3674.22,-169.878 3674.13,-176.877"/>
</g>
<!-- Node17 -->
<g id="node43" class="node"><title>Node17</title>
<a xlink:href="_sine_factory_8h.html" target="_top" xlink:title="/Users/mcasl/pc&#45;ule/Trabajo/investigacion/AMORE/AMORE&#45;WC/AMORE&#45;WC/pkg/AMORE/src/classHeaders/SineFactory.h">
<polygon fill="white" stroke="black" points="1249.84,-112.5 1249.84,-131.5 1819.84,-131.5 1819.84,-112.5 1249.84,-112.5"/>
<text text-anchor="middle" x="1534.84" y="-119.5" font-family="Helvetica,sans-Serif" font-size="10.00">/Users/mcasl/pc&#45;ule/Trabajo/investigacion/AMORE/AMORE&#45;WC/AMORE&#45;WC/pkg/AMORE/src/classHeaders/SineFactory.h</text>
</a>
</g>
<!-- Node3&#45;&gt;Node17 -->
<g id="edge52" class="edge"><title>Node3&#45;&gt;Node17</title>
<path fill="none" stroke="midnightblue" d="M3673.82,-171.704C3261.48,-164.074 2487.97,-149.022 1828.84,-132 1822.59,-131.839 1816.26,-131.672 1809.88,-131.501"/>
<polygon fill="midnightblue" stroke="midnightblue" points="3674.04,-175.209 3684.1,-171.894 3674.17,-168.21 3674.04,-175.209"/>
</g>
<!-- Node18 -->
<g id="node45" class="node"><title>Node18</title>
<a xlink:href="_square_factory_8h.html" target="_top" xlink:title="/Users/mcasl/pc&#45;ule/Trabajo/investigacion/AMORE/AMORE&#45;WC/AMORE&#45;WC/pkg/AMORE/src/classHeaders/SquareFactory.h">
<polygon fill="white" stroke="black" points="1837.84,-112.5 1837.84,-131.5 2419.84,-131.5 2419.84,-112.5 1837.84,-112.5"/>
<text text-anchor="middle" x="2128.84" y="-119.5" font-family="Helvetica,sans-Serif" font-size="10.00">/Users/mcasl/pc&#45;ule/Trabajo/investigacion/AMORE/AMORE&#45;WC/AMORE&#45;WC/pkg/AMORE/src/classHeaders/SquareFactory.h</text>
</a>
</g>
<!-- Node3&#45;&gt;Node18 -->
<g id="edge54" class="edge"><title>Node3&#45;&gt;Node18</title>
<path fill="none" stroke="midnightblue" d="M3674.17,-168.479C3364.48,-159.478 2862.32,-144.839 2428.84,-132 2423.37,-131.838 2417.85,-131.674 2412.28,-131.509"/>
<polygon fill="midnightblue" stroke="midnightblue" points="3674.09,-171.979 3684.19,-168.771 3674.29,-164.981 3674.09,-171.979"/>
</g>
<!-- Node19 -->
<g id="node47" class="node"><title>Node19</title>
<a xlink:href="_threshold_factory_8h.html" target="_top" xlink:title="/Users/mcasl/pc&#45;ule/Trabajo/investigacion/AMORE/AMORE&#45;WC/AMORE&#45;WC/pkg/AMORE/src/classHeaders/ThresholdFactory.h">
<polygon fill="white" stroke="black" points="2437.84,-112.5 2437.84,-131.5 3031.84,-131.5 3031.84,-112.5 2437.84,-112.5"/>
<text text-anchor="middle" x="2734.84" y="-119.5" font-family="Helvetica,sans-Serif" font-size="10.00">/Users/mcasl/pc&#45;ule/Trabajo/investigacion/AMORE/AMORE&#45;WC/AMORE&#45;WC/pkg/AMORE/src/classHeaders/ThresholdFactory.h</text>
</a>
</g>
<!-- Node3&#45;&gt;Node19 -->
<g id="edge56" class="edge"><title>Node3&#45;&gt;Node19</title>
<path fill="none" stroke="midnightblue" d="M3763.25,-168.04C3531.48,-157.889 3156.55,-141.469 2929.13,-131.509"/>
<polygon fill="midnightblue" stroke="midnightblue" points="3763.34,-171.547 3773.49,-168.488 3763.65,-164.554 3763.34,-171.547"/>
</g>
<!-- Node4&#45;&gt;Node2 -->
<g id="edge10" class="edge"><title>Node4&#45;&gt;Node2</title>
<path fill="none" stroke="midnightblue" d="M3661.79,-112.184C3663.81,-112.123 3665.83,-112.061 3667.84,-112 4825.61,-76.7581 6209.34,-34.9894 6760.7,-18.3604"/>
<polygon fill="midnightblue" stroke="midnightblue" points="3661.5,-108.691 3651.61,-112.494 3661.71,-115.688 3661.5,-108.691"/>
</g>
<!-- Node4&#45;&gt;Node5 -->
<g id="edge12" class="edge"><title>Node4&#45;&gt;Node5</title>
<path fill="none" stroke="midnightblue" d="M3339.45,-109.172C3309.89,-99.0039 3267.97,-84.5852 3241.6,-75.5164"/>
<polygon fill="midnightblue" stroke="midnightblue" points="3338.37,-112.501 3348.96,-112.444 3340.65,-105.881 3338.37,-112.501"/>
</g>
<!-- Node4&#45;&gt;Node6 -->
<g id="edge16" class="edge"><title>Node4&#45;&gt;Node6</title>
<path fill="none" stroke="midnightblue" d="M3657.31,-112.248C3660.84,-112.163 3664.35,-112.081 3667.84,-112 4628.33,-89.8168 5768.77,-75.6325 6281.81,-69.8994"/>
<polygon fill="midnightblue" stroke="midnightblue" points="3657.22,-108.749 3647.31,-112.491 3657.39,-115.747 3657.22,-108.749"/>
</g>
<!-- Node5&#45;&gt;Node2 -->
<g id="edge14" class="edge"><title>Node5&#45;&gt;Node2</title>
<path fill="none" stroke="midnightblue" d="M3486.13,-61.1612C4191.41,-51.107 6084.64,-24.118 6760.72,-14.4801"/>
<polygon fill="midnightblue" stroke="midnightblue" points="3486.04,-57.662 3476.09,-61.3043 3486.14,-64.6613 3486.04,-57.662"/>
</g>
<!-- Node6&#45;&gt;Node2 -->
<g id="edge18" class="edge"><title>Node6&#45;&gt;Node2</title>
<path fill="none" stroke="midnightblue" d="M6637.08,-55.2291C6721.84,-45.0359 6853.38,-29.216 6934.03,-19.5164"/>
<polygon fill="midnightblue" stroke="midnightblue" points="6636.5,-51.7744 6626.99,-56.4435 6637.33,-58.7243 6636.5,-51.7744"/>
</g>
<!-- Node7&#45;&gt;Node2 -->
<g id="edge22" class="edge"><title>Node7&#45;&gt;Node2</title>
<path fill="none" stroke="midnightblue" d="M6924.96,-109.327C6906.17,-102.584 6888.52,-92.1323 6876.84,-76 6854.84,-45.6188 6902.95,-28.4942 6946.33,-19.5396"/>
<polygon fill="midnightblue" stroke="midnightblue" points="6923.96,-112.683 6934.55,-112.437 6926.12,-106.024 6923.96,-112.683"/>
</g>
<!-- Node7&#45;&gt;Node6 -->
<g id="edge28" class="edge"><title>Node7&#45;&gt;Node6</title>
<path fill="none" stroke="midnightblue" d="M6931.49,-111.291C6845.09,-101.103 6710.6,-85.2464 6628.16,-75.5264"/>
<polygon fill="midnightblue" stroke="midnightblue" points="6931.18,-114.778 6941.52,-112.473 6932,-107.826 6931.18,-114.778"/>
</g>
<!-- Node7&#45;&gt;Node8 -->
<g id="edge24" class="edge"><title>Node7&#45;&gt;Node8</title>
<path fill="none" stroke="midnightblue" d="M7045.09,-108.772C7071.01,-98.6287 7107.2,-84.4669 7130.08,-75.5164"/>
<polygon fill="midnightblue" stroke="midnightblue" points="7043.74,-105.54 7035.71,-112.444 7046.29,-112.059 7043.74,-105.54"/>
</g>
<!-- Node8&#45;&gt;Node2 -->
<g id="edge26" class="edge"><title>Node8&#45;&gt;Node2</title>
<path fill="none" stroke="midnightblue" d="M7118.92,-52.9058C7091.28,-42.7536 7052.5,-28.5063 7028.02,-19.5164"/>
<polygon fill="midnightblue" stroke="midnightblue" points="7117.95,-56.2806 7128.55,-56.4435 7120.37,-49.71 7117.95,-56.2806"/>
</g>
<!-- Node9&#45;&gt;Node2 -->
<g id="edge32" class="edge"><title>Node9&#45;&gt;Node2</title>
<path fill="none" stroke="midnightblue" d="M7595.18,-110.596C7556.83,-103.203 7507.16,-91.7737 7464.84,-76 7446.96,-69.3344 7445.1,-61.5553 7426.84,-56 7365.43,-37.3147 7296.94,-26.1356 7233.3,-19.5178"/>
<polygon fill="midnightblue" stroke="midnightblue" points="7594.7,-114.067 7605.17,-112.481 7595.99,-107.188 7594.7,-114.067"/>
</g>
<!-- Node20&#45;&gt;Node2 -->
<g id="edge60" class="edge"><title>Node20&#45;&gt;Node2</title>
<path fill="none" stroke="midnightblue" d="M7598.64,-55.721C7463.55,-45.5468 7248.62,-29.36 7117.76,-19.5042"/>
<polygon fill="midnightblue" stroke="midnightblue" points="7598.39,-59.2123 7608.63,-56.4733 7598.92,-52.2321 7598.39,-59.2123"/>
</g>
<!-- Node21&#45;&gt;Node2 -->
<g id="edge64" class="edge"><title>Node21&#45;&gt;Node2</title>
<path fill="none" stroke="midnightblue" d="M8044.44,-56.0548C7810.26,-45.9057 7431.11,-29.474 7201.18,-19.5091"/>
<polygon fill="midnightblue" stroke="midnightblue" points="8044.3,-59.5519 8054.44,-56.4882 8044.6,-52.5584 8044.3,-59.5519"/>
</g>
<!-- Node22&#45;&gt;Node2 -->
<g id="edge74" class="edge"><title>Node22&#45;&gt;Node2</title>
<path fill="none" stroke="midnightblue" d="M8348.29,-166.874C8441.05,-151.318 8581.84,-116.775 8522.84,-56 8501,-33.4984 7672.7,-19.583 7249.07,-13.9234"/>
<polygon fill="midnightblue" stroke="midnightblue" points="8347.66,-163.431 8338.36,-168.499 8348.79,-170.339 8347.66,-163.431"/>
</g>
<!-- Node23&#45;&gt;Node2 -->
<g id="edge78" class="edge"><title>Node23&#45;&gt;Node2</title>
<path fill="none" stroke="midnightblue" d="M8812.74,-163.482C8763.86,-136.889 8648.79,-78.4171 8543.84,-56 8421.18,-29.8011 7651.14,-17.8297 7248.91,-13.3062"/>
<polygon fill="midnightblue" stroke="midnightblue" points="8811.16,-166.608 8821.61,-168.355 8814.53,-160.473 8811.16,-166.608"/>
</g>
<!-- Node25 -->
<g id="node67" class="node"><title>Node25</title>
<a xlink:href="_radial_basis_factory_8h.html" target="_top" xlink:title="/Users/mcasl/pc&#45;ule/Trabajo/investigacion/AMORE/AMORE&#45;WC/AMORE&#45;WC/pkg/AMORE/src/classHeaders/RadialBasisFactory.h">
<polygon fill="white" stroke="black" points="9116.34,-112.5 9116.34,-131.5 9719.34,-131.5 9719.34,-112.5 9116.34,-112.5"/>
<text text-anchor="middle" x="9417.84" y="-119.5" font-family="Helvetica,sans-Serif" font-size="10.00">/Users/mcasl/pc&#45;ule/Trabajo/investigacion/AMORE/AMORE&#45;WC/AMORE&#45;WC/pkg/AMORE/src/classHeaders/RadialBasisFactory.h</text>
</a>
</g>
<!-- Node24&#45;&gt;Node25 -->
<g id="edge84" class="edge"><title>Node24&#45;&gt;Node25</title>
<path fill="none" stroke="midnightblue" d="M9417.84,-157.805C9417.84,-148.91 9417.84,-138.78 9417.84,-131.751"/>
<polygon fill="midnightblue" stroke="midnightblue" points="9414.34,-158.083 9417.84,-168.083 9421.34,-158.083 9414.34,-158.083"/>
</g>
</g>
</svg>
