<?xml version="1.0" encoding="UTF-8" standalone="no"?>
<!DOCTYPE svg PUBLIC "-//W3C//DTD SVG 1.1//EN"
 "http://www.w3.org/Graphics/SVG/1.1/DTD/svg11.dtd">
<!-- Generated by graphviz version 2.28.0 (20110610.2051)
 -->
<!-- Title: G Pages: 1 -->
<svg width="5714pt" height="196pt"
 viewBox="0.00 0.00 5714.00 196.00" xmlns="http://www.w3.org/2000/svg" xmlns:xlink="http://www.w3.org/1999/xlink">
<g id="graph1" class="graph" transform="scale(1 1) rotate(0) translate(4 192)">
<title>G</title>
<polygon fill="white" stroke="white" points="-4,5 -4,-192 5711,-192 5711,5 -4,5"/>
<!-- Node1 -->
<g id="node1" class="node"><title>Node1</title>
<polygon fill="#bfbfbf" stroke="black" points="1822,-168.5 1822,-187.5 2432,-187.5 2432,-168.5 1822,-168.5"/>
<text text-anchor="middle" x="2127" y="-175.5" font-family="Helvetica,sans-Serif" font-size="10.00">/Users/mcasl/pc&#45;ule/Trabajo/investigacion/AMORE/AMORE&#45;WC/AMORE&#45;WC/pkg/AMORE/src/classHeaders/NeuronTrainBehavior.h</text>
</g>
<!-- Node2 -->
<g id="node3" class="node"><title>Node2</title>
<a xlink:href="_a_m_o_r_e_8h.html" target="_top" xlink:title="/Users/mcasl/pc&#45;ule/Trabajo/investigacion/AMORE/AMORE&#45;WC/AMORE&#45;WC/pkg/AMORE/src/AMORE.h">
<polygon fill="white" stroke="black" points="1302,-112.5 1302,-131.5 1790,-131.5 1790,-112.5 1302,-112.5"/>
<text text-anchor="middle" x="1546" y="-119.5" font-family="Helvetica,sans-Serif" font-size="10.00">/Users/mcasl/pc&#45;ule/Trabajo/investigacion/AMORE/AMORE&#45;WC/AMORE&#45;WC/pkg/AMORE/src/AMORE.h</text>
</a>
</g>
<!-- Node1&#45;&gt;Node2 -->
<g id="edge2" class="edge"><title>Node1&#45;&gt;Node2</title>
<path fill="none" stroke="midnightblue" d="M2025.19,-167.538C1915.7,-157.361 1743.17,-141.325 1637.74,-131.526"/>
<polygon fill="midnightblue" stroke="midnightblue" points="2024.98,-171.033 2035.26,-168.473 2025.63,-164.063 2024.98,-171.033"/>
</g>
<!-- Node3 -->
<g id="node5" class="node"><title>Node3</title>
<a xlink:href="_adapt_neuron_train_behavior_8h.html" target="_top" xlink:title="/Users/mcasl/pc&#45;ule/Trabajo/investigacion/AMORE/AMORE&#45;WC/AMORE&#45;WC/pkg/AMORE/src/classHeaders/AdaptNeuronTrainBehavior.h">
<polygon fill="white" stroke="black" points="1808,-112.5 1808,-131.5 2446,-131.5 2446,-112.5 1808,-112.5"/>
<text text-anchor="middle" x="2127" y="-119.5" font-family="Helvetica,sans-Serif" font-size="10.00">/Users/mcasl/pc&#45;ule/Trabajo/investigacion/AMORE/AMORE&#45;WC/AMORE&#45;WC/pkg/AMORE/src/classHeaders/AdaptNeuronTrainBehavior.h</text>
</a>
</g>
<!-- Node1&#45;&gt;Node3 -->
<g id="edge4" class="edge"><title>Node1&#45;&gt;Node3</title>
<path fill="none" stroke="midnightblue" d="M2127,-157.805C2127,-148.91 2127,-138.78 2127,-131.751"/>
<polygon fill="midnightblue" stroke="midnightblue" points="2123.5,-158.083 2127,-168.083 2130.5,-158.083 2123.5,-158.083"/>
</g>
<!-- Node10 -->
<g id="node19" class="node"><title>Node10</title>
<a xlink:href="_batch_neuron_train_behavior_8h.html" target="_top" xlink:title="/Users/mcasl/pc&#45;ule/Trabajo/investigacion/AMORE/AMORE&#45;WC/AMORE&#45;WC/pkg/AMORE/src/classHeaders/BatchNeuronTrainBehavior.h">
<polygon fill="white" stroke="black" points="3239.5,-112.5 3239.5,-131.5 3876.5,-131.5 3876.5,-112.5 3239.5,-112.5"/>
<text text-anchor="middle" x="3558" y="-119.5" font-family="Helvetica,sans-Serif" font-size="10.00">/Users/mcasl/pc&#45;ule/Trabajo/investigacion/AMORE/AMORE&#45;WC/AMORE&#45;WC/pkg/AMORE/src/classHeaders/BatchNeuronTrainBehavior.h</text>
</a>
</g>
<!-- Node1&#45;&gt;Node10 -->
<g id="edge18" class="edge"><title>Node1&#45;&gt;Node10</title>
<path fill="none" stroke="midnightblue" d="M2362.85,-168.1C2631.7,-157.955 3068.05,-141.489 3332.51,-131.509"/>
<polygon fill="midnightblue" stroke="midnightblue" points="2362.42,-164.614 2352.56,-168.488 2362.69,-171.609 2362.42,-164.614"/>
</g>
<!-- Node4 -->
<g id="node7" class="node"><title>Node4</title>
<a xlink:href="_a_d_a_p_tgd_neuron_train_behavior_8h.html" target="_top" xlink:title="/Users/mcasl/pc&#45;ule/Trabajo/investigacion/AMORE/AMORE&#45;WC/AMORE&#45;WC/pkg/AMORE/src/classHeaders/ADAPTgdNeuronTrainBehavior.h">
<polygon fill="white" stroke="black" points="723,-56.5 723,-75.5 1379,-75.5 1379,-56.5 723,-56.5"/>
<text text-anchor="middle" x="1051" y="-63.5" font-family="Helvetica,sans-Serif" font-size="10.00">/Users/mcasl/pc&#45;ule/Trabajo/investigacion/AMORE/AMORE&#45;WC/AMORE&#45;WC/pkg/AMORE/src/classHeaders/ADAPTgdNeuronTrainBehavior.h</text>
</a>
</g>
<!-- Node3&#45;&gt;Node4 -->
<g id="edge6" class="edge"><title>Node3&#45;&gt;Node4</title>
<path fill="none" stroke="midnightblue" d="M1947.25,-111.979C1744.91,-101.824 1418.62,-85.4493 1220.55,-75.5091"/>
<polygon fill="midnightblue" stroke="midnightblue" points="1947.23,-115.483 1957.39,-112.488 1947.58,-108.491 1947.23,-115.483"/>
</g>
<!-- Node7 -->
<g id="node13" class="node"><title>Node7</title>
<a xlink:href="_a_d_a_p_tgdwm_neuron_train_behavior_8h.html" target="_top" xlink:title="/Users/mcasl/pc&#45;ule/Trabajo/investigacion/AMORE/AMORE&#45;WC/AMORE&#45;WC/pkg/AMORE/src/classHeaders/ADAPTgdwmNeuronTrainBehavior.h">
<polygon fill="white" stroke="black" points="1791,-56.5 1791,-75.5 2463,-75.5 2463,-56.5 1791,-56.5"/>
<text text-anchor="middle" x="2127" y="-63.5" font-family="Helvetica,sans-Serif" font-size="10.00">/Users/mcasl/pc&#45;ule/Trabajo/investigacion/AMORE/AMORE&#45;WC/AMORE&#45;WC/pkg/AMORE/src/classHeaders/ADAPTgdwmNeuronTrainBehavior.h</text>
</a>
</g>
<!-- Node3&#45;&gt;Node7 -->
<g id="edge12" class="edge"><title>Node3&#45;&gt;Node7</title>
<path fill="none" stroke="midnightblue" d="M2127,-101.805C2127,-92.9102 2127,-82.7798 2127,-75.7511"/>
<polygon fill="midnightblue" stroke="midnightblue" points="2123.5,-102.083 2127,-112.083 2130.5,-102.083 2123.5,-102.083"/>
</g>
<!-- Node5 -->
<g id="node9" class="node"><title>Node5</title>
<a xlink:href="_a_d_a_p_tgd_hidden_neuron_train_behavior_8h.html" target="_top" xlink:title="/Users/mcasl/pc&#45;ule/Trabajo/investigacion/AMORE/AMORE&#45;WC/AMORE&#45;WC/pkg/AMORE/src/classHeaders/ADAPTgdHiddenNeuronTrainBehavior.h">
<polygon fill="white" stroke="black" points="-0.5,-0.5 -0.5,-19.5 688.5,-19.5 688.5,-0.5 -0.5,-0.5"/>
<text text-anchor="middle" x="344" y="-7.5" font-family="Helvetica,sans-Serif" font-size="10.00">/Users/mcasl/pc&#45;ule/Trabajo/investigacion/AMORE/AMORE&#45;WC/AMORE&#45;WC/pkg/AMORE/src/classHeaders/ADAPTgdHiddenNeuronTrainBehavior.h</text>
</a>
</g>
<!-- Node4&#45;&gt;Node5 -->
<g id="edge8" class="edge"><title>Node4&#45;&gt;Node5</title>
<path fill="none" stroke="midnightblue" d="M929.114,-55.6904C795.883,-45.5144 584.251,-29.3502 455.341,-19.5042"/>
<polygon fill="midnightblue" stroke="midnightblue" points="929.126,-59.2015 939.364,-56.4733 929.66,-52.2218 929.126,-59.2015"/>
</g>
<!-- Node6 -->
<g id="node11" class="node"><title>Node6</title>
<a xlink:href="_a_d_a_p_tgd_output_neuron_train_behavior_8h.html" target="_top" xlink:title="/Users/mcasl/pc&#45;ule/Trabajo/investigacion/AMORE/AMORE&#45;WC/AMORE&#45;WC/pkg/AMORE/src/classHeaders/ADAPTgdOutputNeuronTrainBehavior.h">
<polygon fill="white" stroke="black" points="707,-0.5 707,-19.5 1395,-19.5 1395,-0.5 707,-0.5"/>
<text text-anchor="middle" x="1051" y="-7.5" font-family="Helvetica,sans-Serif" font-size="10.00">/Users/mcasl/pc&#45;ule/Trabajo/investigacion/AMORE/AMORE&#45;WC/AMORE&#45;WC/pkg/AMORE/src/classHeaders/ADAPTgdOutputNeuronTrainBehavior.h</text>
</a>
</g>
<!-- Node4&#45;&gt;Node6 -->
<g id="edge10" class="edge"><title>Node4&#45;&gt;Node6</title>
<path fill="none" stroke="midnightblue" d="M1051,-45.8045C1051,-36.9102 1051,-26.7798 1051,-19.7511"/>
<polygon fill="midnightblue" stroke="midnightblue" points="1047.5,-46.083 1051,-56.083 1054.5,-46.083 1047.5,-46.083"/>
</g>
<!-- Node8 -->
<g id="node15" class="node"><title>Node8</title>
<a xlink:href="_a_d_a_p_tgdwm_hidden_neuron_train_behavior_8h.html" target="_top" xlink:title="/Users/mcasl/pc&#45;ule/Trabajo/investigacion/AMORE/AMORE&#45;WC/AMORE&#45;WC/pkg/AMORE/src/classHeaders/ADAPTgdwmHiddenNeuronTrainBehavior.h">
<polygon fill="white" stroke="black" points="1413.5,-0.5 1413.5,-19.5 2118.5,-19.5 2118.5,-0.5 1413.5,-0.5"/>
<text text-anchor="middle" x="1766" y="-7.5" font-family="Helvetica,sans-Serif" font-size="10.00">/Users/mcasl/pc&#45;ule/Trabajo/investigacion/AMORE/AMORE&#45;WC/AMORE&#45;WC/pkg/AMORE/src/classHeaders/ADAPTgdwmHiddenNeuronTrainBehavior.h</text>
</a>
</g>
<!-- Node7&#45;&gt;Node8 -->
<g id="edge14" class="edge"><title>Node7&#45;&gt;Node8</title>
<path fill="none" stroke="midnightblue" d="M2059.59,-54.9166C1991.39,-44.715 1887.12,-29.1174 1822.93,-19.5164"/>
<polygon fill="midnightblue" stroke="midnightblue" points="2059.39,-58.4256 2069.8,-56.4435 2060.43,-51.5026 2059.39,-58.4256"/>
</g>
<!-- Node9 -->
<g id="node17" class="node"><title>Node9</title>
<a xlink:href="_a_d_a_p_tgdwm_output_neuron_train_behavior_8h.html" target="_top" xlink:title="/Users/mcasl/pc&#45;ule/Trabajo/investigacion/AMORE/AMORE&#45;WC/AMORE&#45;WC/pkg/AMORE/src/classHeaders/ADAPTgdwmOutputNeuronTrainBehavior.h">
<polygon fill="white" stroke="black" points="2137,-0.5 2137,-19.5 2841,-19.5 2841,-0.5 2137,-0.5"/>
<text text-anchor="middle" x="2489" y="-7.5" font-family="Helvetica,sans-Serif" font-size="10.00">/Users/mcasl/pc&#45;ule/Trabajo/investigacion/AMORE/AMORE&#45;WC/AMORE&#45;WC/pkg/AMORE/src/classHeaders/ADAPTgdwmOutputNeuronTrainBehavior.h</text>
</a>
</g>
<!-- Node7&#45;&gt;Node9 -->
<g id="edge16" class="edge"><title>Node7&#45;&gt;Node9</title>
<path fill="none" stroke="midnightblue" d="M2194.6,-54.9166C2262.98,-44.715 2367.55,-29.1174 2431.91,-19.5164"/>
<polygon fill="midnightblue" stroke="midnightblue" points="2193.73,-51.5064 2184.36,-56.4435 2194.77,-58.4298 2193.73,-51.5064"/>
</g>
<!-- Node11 -->
<g id="node21" class="node"><title>Node11</title>
<a xlink:href="_b_a_t_c_hgd_neuron_train_behavior_8h.html" target="_top" xlink:title="/Users/mcasl/pc&#45;ule/Trabajo/investigacion/AMORE/AMORE&#45;WC/AMORE&#45;WC/pkg/AMORE/src/classHeaders/BATCHgdNeuronTrainBehavior.h">
<polygon fill="white" stroke="black" points="3229.5,-56.5 3229.5,-75.5 3886.5,-75.5 3886.5,-56.5 3229.5,-56.5"/>
<text text-anchor="middle" x="3558" y="-63.5" font-family="Helvetica,sans-Serif" font-size="10.00">/Users/mcasl/pc&#45;ule/Trabajo/investigacion/AMORE/AMORE&#45;WC/AMORE&#45;WC/pkg/AMORE/src/classHeaders/BATCHgdNeuronTrainBehavior.h</text>
</a>
</g>
<!-- Node10&#45;&gt;Node11 -->
<g id="edge20" class="edge"><title>Node10&#45;&gt;Node11</title>
<path fill="none" stroke="midnightblue" d="M3558,-101.805C3558,-92.9102 3558,-82.7798 3558,-75.7511"/>
<polygon fill="midnightblue" stroke="midnightblue" points="3554.5,-102.083 3558,-112.083 3561.5,-102.083 3554.5,-102.083"/>
</g>
<!-- Node14 -->
<g id="node27" class="node"><title>Node14</title>
<a xlink:href="_b_a_t_c_hgdwm_neuron_train_behavior_8h.html" target="_top" xlink:title="/Users/mcasl/pc&#45;ule/Trabajo/investigacion/AMORE/AMORE&#45;WC/AMORE&#45;WC/pkg/AMORE/src/classHeaders/BATCHgdwmNeuronTrainBehavior.h">
<polygon fill="white" stroke="black" points="4291,-56.5 4291,-75.5 4965,-75.5 4965,-56.5 4291,-56.5"/>
<text text-anchor="middle" x="4628" y="-63.5" font-family="Helvetica,sans-Serif" font-size="10.00">/Users/mcasl/pc&#45;ule/Trabajo/investigacion/AMORE/AMORE&#45;WC/AMORE&#45;WC/pkg/AMORE/src/classHeaders/BATCHgdwmNeuronTrainBehavior.h</text>
</a>
</g>
<!-- Node10&#45;&gt;Node14 -->
<g id="edge26" class="edge"><title>Node10&#45;&gt;Node14</title>
<path fill="none" stroke="midnightblue" d="M3736.74,-111.979C3937.96,-101.824 4262.43,-85.4493 4459.39,-75.5091"/>
<polygon fill="midnightblue" stroke="midnightblue" points="3736.47,-108.489 3726.66,-112.488 3736.82,-115.48 3736.47,-108.489"/>
</g>
<!-- Node12 -->
<g id="node23" class="node"><title>Node12</title>
<a xlink:href="_b_a_t_c_hgd_hidden_neuron_train_behavior_8h.html" target="_top" xlink:title="/Users/mcasl/pc&#45;ule/Trabajo/investigacion/AMORE/AMORE&#45;WC/AMORE&#45;WC/pkg/AMORE/src/classHeaders/BATCHgdHiddenNeuronTrainBehavior.h">
<polygon fill="white" stroke="black" points="2859,-0.5 2859,-19.5 3549,-19.5 3549,-0.5 2859,-0.5"/>
<text text-anchor="middle" x="3204" y="-7.5" font-family="Helvetica,sans-Serif" font-size="10.00">/Users/mcasl/pc&#45;ule/Trabajo/investigacion/AMORE/AMORE&#45;WC/AMORE&#45;WC/pkg/AMORE/src/classHeaders/BATCHgdHiddenNeuronTrainBehavior.h</text>
</a>
</g>
<!-- Node11&#45;&gt;Node12 -->
<g id="edge22" class="edge"><title>Node11&#45;&gt;Node12</title>
<path fill="none" stroke="midnightblue" d="M3491.9,-54.9166C3425.02,-44.715 3322.77,-29.1174 3259.83,-19.5164"/>
<polygon fill="midnightblue" stroke="midnightblue" points="3491.49,-58.3955 3501.91,-56.4435 3492.55,-51.4755 3491.49,-58.3955"/>
</g>
<!-- Node13 -->
<g id="node25" class="node"><title>Node13</title>
<a xlink:href="_b_a_t_c_hgd_output_neuron_train_behavior_8h.html" target="_top" xlink:title="/Users/mcasl/pc&#45;ule/Trabajo/investigacion/AMORE/AMORE&#45;WC/AMORE&#45;WC/pkg/AMORE/src/classHeaders/BATCHgdOutputNeuronTrainBehavior.h">
<polygon fill="white" stroke="black" points="3567.5,-0.5 3567.5,-19.5 4256.5,-19.5 4256.5,-0.5 3567.5,-0.5"/>
<text text-anchor="middle" x="3912" y="-7.5" font-family="Helvetica,sans-Serif" font-size="10.00">/Users/mcasl/pc&#45;ule/Trabajo/investigacion/AMORE/AMORE&#45;WC/AMORE&#45;WC/pkg/AMORE/src/classHeaders/BATCHgdOutputNeuronTrainBehavior.h</text>
</a>
</g>
<!-- Node11&#45;&gt;Node13 -->
<g id="edge24" class="edge"><title>Node11&#45;&gt;Node13</title>
<path fill="none" stroke="midnightblue" d="M3624.1,-54.9166C3690.98,-44.715 3793.23,-29.1174 3856.17,-19.5164"/>
<polygon fill="midnightblue" stroke="midnightblue" points="3623.45,-51.4755 3614.09,-56.4435 3624.51,-58.3955 3623.45,-51.4755"/>
</g>
<!-- Node15 -->
<g id="node29" class="node"><title>Node15</title>
<a xlink:href="_b_a_t_c_hgdwm_hidden_neuron_train_behavior_8h.html" target="_top" xlink:title="/Users/mcasl/pc&#45;ule/Trabajo/investigacion/AMORE/AMORE&#45;WC/AMORE&#45;WC/pkg/AMORE/src/classHeaders/BATCHgdwmHiddenNeuronTrainBehavior.h">
<polygon fill="white" stroke="black" points="4274.5,-0.5 4274.5,-19.5 4981.5,-19.5 4981.5,-0.5 4274.5,-0.5"/>
<text text-anchor="middle" x="4628" y="-7.5" font-family="Helvetica,sans-Serif" font-size="10.00">/Users/mcasl/pc&#45;ule/Trabajo/investigacion/AMORE/AMORE&#45;WC/AMORE&#45;WC/pkg/AMORE/src/classHeaders/BATCHgdwmHiddenNeuronTrainBehavior.h</text>
</a>
</g>
<!-- Node14&#45;&gt;Node15 -->
<g id="edge28" class="edge"><title>Node14&#45;&gt;Node15</title>
<path fill="none" stroke="midnightblue" d="M4628,-45.8045C4628,-36.9102 4628,-26.7798 4628,-19.7511"/>
<polygon fill="midnightblue" stroke="midnightblue" points="4624.5,-46.083 4628,-56.083 4631.5,-46.083 4624.5,-46.083"/>
</g>
<!-- Node16 -->
<g id="node31" class="node"><title>Node16</title>
<a xlink:href="_b_a_t_c_hgdwm_output_neuron_train_behavior_8h.html" target="_top" xlink:title="/Users/mcasl/pc&#45;ule/Trabajo/investigacion/AMORE/AMORE&#45;WC/AMORE&#45;WC/pkg/AMORE/src/classHeaders/BATCHgdwmOutputNeuronTrainBehavior.h">
<polygon fill="white" stroke="black" points="5000,-0.5 5000,-19.5 5706,-19.5 5706,-0.5 5000,-0.5"/>
<text text-anchor="middle" x="5353" y="-7.5" font-family="Helvetica,sans-Serif" font-size="10.00">/Users/mcasl/pc&#45;ule/Trabajo/investigacion/AMORE/AMORE&#45;WC/AMORE&#45;WC/pkg/AMORE/src/classHeaders/BATCHgdwmOutputNeuronTrainBehavior.h</text>
</a>
</g>
<!-- Node14&#45;&gt;Node16 -->
<g id="edge30" class="edge"><title>Node14&#45;&gt;Node16</title>
<path fill="none" stroke="midnightblue" d="M4752.58,-55.721C4889.18,-45.5468 5106.5,-29.36 5238.82,-19.5042"/>
<polygon fill="midnightblue" stroke="midnightblue" points="4752.19,-52.2401 4742.48,-56.4733 4752.71,-59.2208 4752.19,-52.2401"/>
</g>
</g>
</svg>
