<?xml version="1.0" encoding="UTF-8" standalone="no"?>
<!DOCTYPE svg PUBLIC "-//W3C//DTD SVG 1.1//EN"
 "http://www.w3.org/Graphics/SVG/1.1/DTD/svg11.dtd">
<!-- Generated by graphviz version 2.28.0 (20110610.2051)
 -->
<!-- Title: G Pages: 1 -->
<svg width="2086pt" height="196pt"
 viewBox="0.00 0.00 2086.44 196.00" xmlns="http://www.w3.org/2000/svg" xmlns:xlink="http://www.w3.org/1999/xlink">
<g id="graph1" class="graph" transform="scale(1 1) rotate(0) translate(4 192)">
<title>G</title>
<polygon fill="white" stroke="white" points="-4,5 -4,-192 2083.44,-192 2083.44,5 -4,5"/>
<!-- Node1 -->
<g id="node1" class="node"><title>Node1</title>
<polygon fill="#bfbfbf" stroke="black" points="598.438,-168.5 598.438,-187.5 1186.44,-187.5 1186.44,-168.5 598.438,-168.5"/>
<text text-anchor="middle" x="892.438" y="-175.5" font-family="Helvetica,sans-Serif" font-size="10.00">/Users/mcasl/pc&#45;ule/Trabajo/investigacion/AMORE/AMORE&#45;WC/AMORE&#45;WC/pkg/AMORE/src/classHeaders/PredictBehavior.h</text>
</g>
<!-- Node2 -->
<g id="node3" class="node"><title>Node2</title>
<a xlink:href="_a_m_o_r_e_8h.html" target="_top" xlink:title="/Users/mcasl/pc&#45;ule/Trabajo/investigacion/AMORE/AMORE&#45;WC/AMORE&#45;WC/pkg/AMORE/src/AMORE.h">
<polygon fill="white" stroke="black" points="462.438,-0.5 462.438,-19.5 950.438,-19.5 950.438,-0.5 462.438,-0.5"/>
<text text-anchor="middle" x="706.438" y="-7.5" font-family="Helvetica,sans-Serif" font-size="10.00">/Users/mcasl/pc&#45;ule/Trabajo/investigacion/AMORE/AMORE&#45;WC/AMORE&#45;WC/pkg/AMORE/src/AMORE.h</text>
</a>
</g>
<!-- Node1&#45;&gt;Node2 -->
<g id="edge2" class="edge"><title>Node1&#45;&gt;Node2</title>
<path fill="none" stroke="midnightblue" d="M675.954,-167.965C426.718,-155.193 46.0633,-127.462 4.43803,-76 -1.15202,-69.0889 -1.643,-62.4833 4.43803,-56 20.3513,-39.034 266.026,-26.3222 462.31,-18.811"/>
<polygon fill="midnightblue" stroke="midnightblue" points="676.076,-171.476 686.241,-168.488 676.431,-164.485 676.076,-171.476"/>
</g>
<!-- Node3 -->
<g id="node5" class="node"><title>Node3</title>
<a xlink:href="_m_l_pbehavior_8h.html" target="_top" xlink:title="/Users/mcasl/pc&#45;ule/Trabajo/investigacion/AMORE/AMORE&#45;WC/AMORE&#45;WC/pkg/AMORE/src/classHeaders/MLPbehavior.h">
<polygon fill="white" stroke="black" points="288.938,-112.5 288.938,-131.5 863.938,-131.5 863.938,-112.5 288.938,-112.5"/>
<text text-anchor="middle" x="576.438" y="-119.5" font-family="Helvetica,sans-Serif" font-size="10.00">/Users/mcasl/pc&#45;ule/Trabajo/investigacion/AMORE/AMORE&#45;WC/AMORE&#45;WC/pkg/AMORE/src/classHeaders/MLPbehavior.h</text>
</a>
</g>
<!-- Node1&#45;&gt;Node3 -->
<g id="edge4" class="edge"><title>Node1&#45;&gt;Node3</title>
<path fill="none" stroke="midnightblue" d="M832.325,-166.727C772.61,-156.523 682.113,-141.058 626.275,-131.516"/>
<polygon fill="midnightblue" stroke="midnightblue" points="831.92,-170.209 842.367,-168.444 833.099,-163.309 831.92,-170.209"/>
</g>
<!-- Node4 -->
<g id="node8" class="node"><title>Node4</title>
<a xlink:href="_m_l_pbehavior_8cpp.html" target="_top" xlink:title="/Users/mcasl/pc&#45;ule/Trabajo/investigacion/AMORE/AMORE&#45;WC/AMORE&#45;WC/pkg/AMORE/src/MLPbehavior.cpp">
<polygon fill="white" stroke="black" points="13.438,-56.5 13.438,-75.5 535.438,-75.5 535.438,-56.5 13.438,-56.5"/>
<text text-anchor="middle" x="274.438" y="-63.5" font-family="Helvetica,sans-Serif" font-size="10.00">/Users/mcasl/pc&#45;ule/Trabajo/investigacion/AMORE/AMORE&#45;WC/AMORE&#45;WC/pkg/AMORE/src/MLPbehavior.cpp</text>
</a>
</g>
<!-- Node1&#45;&gt;Node4 -->
<g id="edge20" class="edge"><title>Node1&#45;&gt;Node4</title>
<path fill="none" stroke="midnightblue" d="M587.815,-171.976C445.775,-166.508 302.736,-155.217 279.438,-132 264.526,-117.14 268.644,-89.5606 272.01,-75.5889"/>
<polygon fill="midnightblue" stroke="midnightblue" points="587.914,-175.482 598.038,-172.36 588.177,-168.487 587.914,-175.482"/>
</g>
<!-- Node5 -->
<g id="node11" class="node"><title>Node5</title>
<a xlink:href="_m_l_pfactory_8cpp.html" target="_top" xlink:title="/Users/mcasl/pc&#45;ule/Trabajo/investigacion/AMORE/AMORE&#45;WC/AMORE&#45;WC/pkg/AMORE/src/MLPfactory.cpp">
<polygon fill="white" stroke="black" points="591.938,-56.5 591.938,-75.5 1106.94,-75.5 1106.94,-56.5 591.938,-56.5"/>
<text text-anchor="middle" x="849.438" y="-63.5" font-family="Helvetica,sans-Serif" font-size="10.00">/Users/mcasl/pc&#45;ule/Trabajo/investigacion/AMORE/AMORE&#45;WC/AMORE&#45;WC/pkg/AMORE/src/MLPfactory.cpp</text>
</a>
</g>
<!-- Node1&#45;&gt;Node5 -->
<g id="edge26" class="edge"><title>Node1&#45;&gt;Node5</title>
<path fill="none" stroke="midnightblue" d="M887.717,-158.667C884.1,-145.481 878.681,-127.385 872.438,-112 867.159,-98.9921 859.495,-84.666 854.488,-75.7506"/>
<polygon fill="midnightblue" stroke="midnightblue" points="884.358,-159.657 890.309,-168.422 891.123,-157.858 884.358,-159.657"/>
</g>
<!-- Node6 -->
<g id="node14" class="node"><title>Node6</title>
<a xlink:href="_predict_behavior_8cpp.html" target="_top" xlink:title="/Users/mcasl/pc&#45;ule/Trabajo/investigacion/AMORE/AMORE&#45;WC/AMORE&#45;WC/pkg/AMORE/src/PredictBehavior.cpp">
<polygon fill="white" stroke="black" points="1125.44,-56.5 1125.44,-75.5 1661.44,-75.5 1661.44,-56.5 1125.44,-56.5"/>
<text text-anchor="middle" x="1393.44" y="-63.5" font-family="Helvetica,sans-Serif" font-size="10.00">/Users/mcasl/pc&#45;ule/Trabajo/investigacion/AMORE/AMORE&#45;WC/AMORE&#45;WC/pkg/AMORE/src/PredictBehavior.cpp</text>
</a>
</g>
<!-- Node1&#45;&gt;Node6 -->
<g id="edge16" class="edge"><title>Node1&#45;&gt;Node6</title>
<path fill="none" stroke="midnightblue" d="M902.268,-159.812C912.079,-144.431 928.668,-122.706 949.438,-112 986.626,-92.8307 1071.46,-81.8265 1157.12,-75.5098"/>
<polygon fill="midnightblue" stroke="midnightblue" points="899.245,-158.048 897.058,-168.414 905.232,-161.674 899.245,-158.048"/>
</g>
<!-- Node7 -->
<g id="node18" class="node"><title>Node7</title>
<a xlink:href="_simple_neuron_8cpp.html" target="_top" xlink:title="/Users/mcasl/pc&#45;ule/Trabajo/investigacion/AMORE/AMORE&#45;WC/AMORE&#45;WC/pkg/AMORE/src/SimpleNeuron.cpp">
<polygon fill="white" stroke="black" points="958.938,-112.5 958.938,-131.5 1485.94,-131.5 1485.94,-112.5 958.938,-112.5"/>
<text text-anchor="middle" x="1222.44" y="-119.5" font-family="Helvetica,sans-Serif" font-size="10.00">/Users/mcasl/pc&#45;ule/Trabajo/investigacion/AMORE/AMORE&#45;WC/AMORE&#45;WC/pkg/AMORE/src/SimpleNeuron.cpp</text>
</a>
</g>
<!-- Node1&#45;&gt;Node7 -->
<g id="edge22" class="edge"><title>Node1&#45;&gt;Node7</title>
<path fill="none" stroke="midnightblue" d="M954.828,-166.791C1017.18,-156.587 1111.96,-141.078 1170.39,-131.516"/>
<polygon fill="midnightblue" stroke="midnightblue" points="954.031,-163.375 944.728,-168.444 955.161,-170.283 954.031,-163.375"/>
</g>
<!-- Node8 -->
<g id="node22" class="node"><title>Node8</title>
<a xlink:href="_r_b_fbehavior_8h.html" target="_top" xlink:title="/Users/mcasl/pc&#45;ule/Trabajo/investigacion/AMORE/AMORE&#45;WC/AMORE&#45;WC/pkg/AMORE/src/classHeaders/RBFbehavior.h">
<polygon fill="white" stroke="black" points="1503.94,-112.5 1503.94,-131.5 2078.94,-131.5 2078.94,-112.5 1503.94,-112.5"/>
<text text-anchor="middle" x="1791.44" y="-119.5" font-family="Helvetica,sans-Serif" font-size="10.00">/Users/mcasl/pc&#45;ule/Trabajo/investigacion/AMORE/AMORE&#45;WC/AMORE&#45;WC/pkg/AMORE/src/classHeaders/RBFbehavior.h</text>
</a>
</g>
<!-- Node1&#45;&gt;Node8 -->
<g id="edge28" class="edge"><title>Node1&#45;&gt;Node8</title>
<path fill="none" stroke="midnightblue" d="M1044.38,-167.873C1213.6,-157.709 1484.96,-141.409 1649.86,-131.504"/>
<polygon fill="midnightblue" stroke="midnightblue" points="1044.16,-164.38 1034.39,-168.473 1044.58,-171.367 1044.16,-164.38"/>
</g>
<!-- Node3&#45;&gt;Node2 -->
<g id="edge6" class="edge"><title>Node3&#45;&gt;Node2</title>
<path fill="none" stroke="midnightblue" d="M573.186,-102.328C571.804,-88.1829 572.384,-69.0249 582.438,-56 597.201,-36.8739 620.856,-25.8693 643.566,-19.5406"/>
<polygon fill="midnightblue" stroke="midnightblue" points="569.739,-102.956 574.571,-112.384 576.674,-102 569.739,-102.956"/>
</g>
<!-- Node3&#45;&gt;Node4 -->
<g id="edge8" class="edge"><title>Node3&#45;&gt;Node4</title>
<path fill="none" stroke="midnightblue" d="M518.634,-110.664C461.561,-100.459 375.321,-85.0386 322.067,-75.5164"/>
<polygon fill="midnightblue" stroke="midnightblue" points="518.125,-114.129 528.585,-112.444 519.357,-107.238 518.125,-114.129"/>
</g>
<!-- Node3&#45;&gt;Node5 -->
<g id="edge12" class="edge"><title>Node3&#45;&gt;Node5</title>
<path fill="none" stroke="midnightblue" d="M629.656,-110.473C681.251,-100.268 758.542,-84.9794 806.383,-75.5164"/>
<polygon fill="midnightblue" stroke="midnightblue" points="628.826,-107.07 619.696,-112.444 630.185,-113.937 628.826,-107.07"/>
</g>
<!-- Node4&#45;&gt;Node2 -->
<g id="edge10" class="edge"><title>Node4&#45;&gt;Node2</title>
<path fill="none" stroke="midnightblue" d="M353.103,-55.1669C434.665,-44.9716 560.868,-29.1963 638.307,-19.5164"/>
<polygon fill="midnightblue" stroke="midnightblue" points="352.378,-51.7301 342.89,-56.4435 353.247,-58.6761 352.378,-51.7301"/>
</g>
<!-- Node5&#45;&gt;Node2 -->
<g id="edge14" class="edge"><title>Node5&#45;&gt;Node2</title>
<path fill="none" stroke="midnightblue" d="M817.411,-52.9058C790.526,-42.7536 752.797,-28.5063 728.991,-19.5164"/>
<polygon fill="midnightblue" stroke="midnightblue" points="816.188,-56.1851 826.779,-56.4435 818.661,-49.6364 816.188,-56.1851"/>
</g>
<!-- Node6&#45;&gt;Node2 -->
<g id="edge18" class="edge"><title>Node6&#45;&gt;Node2</title>
<path fill="none" stroke="midnightblue" d="M1274.61,-55.6598C1145.13,-45.482 939.767,-29.3403 814.63,-19.5042"/>
<polygon fill="midnightblue" stroke="midnightblue" points="1274.72,-59.1789 1284.96,-56.4733 1275.26,-52.2004 1274.72,-59.1789"/>
</g>
<!-- Node7&#45;&gt;Node2 -->
<g id="edge24" class="edge"><title>Node7&#45;&gt;Node2</title>
<path fill="none" stroke="midnightblue" d="M1442.74,-111.857C1547.74,-105.177 1654.12,-94.041 1670.44,-76 1676.4,-69.408 1676.58,-62.4303 1670.44,-56 1645.83,-30.2162 1227.9,-18.8264 950.478,-14.0877"/>
<polygon fill="midnightblue" stroke="midnightblue" points="1442.35,-108.375 1432.59,-112.49 1442.79,-115.361 1442.35,-108.375"/>
</g>
</g>
</svg>
