<?xml version="1.0" encoding="UTF-8" standalone="no"?>
<!DOCTYPE svg PUBLIC "-//W3C//DTD SVG 1.1//EN"
 "http://www.w3.org/Graphics/SVG/1.1/DTD/svg11.dtd">
<!-- Generated by graphviz version 2.28.0 (20110610.2051)
 -->
<!-- Title: G Pages: 1 -->
<svg width="576pt" height="218pt"
 viewBox="0.00 0.00 576.00 218.00" xmlns="http://www.w3.org/2000/svg" xmlns:xlink="http://www.w3.org/1999/xlink">
<g id="graph1" class="graph" transform="scale(1 1) rotate(0) translate(4 214)">
<title>G</title>
<polygon fill="white" stroke="white" points="-4,5 -4,-214 573,-214 573,5 -4,5"/>
<!-- Node1 -->
<g id="node1" class="node"><title>Node1</title>
<polygon fill="#bfbfbf" stroke="black" points="0.5,-95.5 0.5,-114.5 95.5,-114.5 95.5,-95.5 0.5,-95.5"/>
<text text-anchor="middle" x="48" y="-102.5" font-family="Helvetica,sans-Serif" font-size="10.00">RCPP_MODULE</text>
</g>
<!-- Node2 -->
<g id="node3" class="node"><title>Node2</title>
<a xlink:href="class_network_rinterface.html#aa2a5e2b5605382da022dd0f277f0a73f" target="_top" xlink:title="NetworkRinterface::createFeedForwardNetwork">
<polygon fill="white" stroke="black" points="132.5,-190.5 132.5,-209.5 371.5,-209.5 371.5,-190.5 132.5,-190.5"/>
<text text-anchor="middle" x="252" y="-197.5" font-family="Helvetica,sans-Serif" font-size="10.00">NetworkRinterface::createFeedForwardNetwork</text>
</a>
</g>
<!-- Node1&#45;&gt;Node2 -->
<g id="edge2" class="edge"><title>Node1&#45;&gt;Node2</title>
<path fill="none" stroke="midnightblue" d="M57.1112,-114.558C70.8446,-130.072 100.292,-160.553 132,-176 142.111,-180.926 153.179,-184.841 164.364,-187.953"/>
<polygon fill="midnightblue" stroke="midnightblue" points="163.645,-191.382 174.202,-190.486 165.391,-184.603 163.645,-191.382"/>
</g>
<!-- Node3 -->
<g id="node5" class="node"><title>Node3</title>
<a xlink:href="class_network_rinterface.html#ae82e946eb0ad4fc532803ee2e34d4e08" target="_top" xlink:title="NetworkRinterface::inputSize">
<polygon fill="white" stroke="black" points="412,-133.5 412,-152.5 564,-152.5 564,-133.5 412,-133.5"/>
<text text-anchor="middle" x="488" y="-140.5" font-family="Helvetica,sans-Serif" font-size="10.00">NetworkRinterface::inputSize</text>
</a>
</g>
<!-- Node1&#45;&gt;Node3 -->
<g id="edge4" class="edge"><title>Node1&#45;&gt;Node3</title>
<path fill="none" stroke="midnightblue" d="M64.5074,-114.57C80.669,-123.936 107.07,-137.564 132,-143 222.582,-162.75 329.283,-159.29 401.886,-153.077"/>
<polygon fill="midnightblue" stroke="midnightblue" points="402.249,-156.559 411.898,-152.184 401.627,-149.586 402.249,-156.559"/>
</g>
<!-- Node4 -->
<g id="node7" class="node"><title>Node4</title>
<a xlink:href="class_network_rinterface.html#a4e5243781bd453c3abd2baea0713f7dc" target="_top" xlink:title="NetworkRinterface::outputSize">
<polygon fill="white" stroke="black" points="408.5,-86.5 408.5,-105.5 567.5,-105.5 567.5,-86.5 408.5,-86.5"/>
<text text-anchor="middle" x="488" y="-93.5" font-family="Helvetica,sans-Serif" font-size="10.00">NetworkRinterface::outputSize</text>
</a>
</g>
<!-- Node1&#45;&gt;Node4 -->
<g id="edge6" class="edge"><title>Node1&#45;&gt;Node4</title>
<path fill="none" stroke="midnightblue" d="M95.8737,-104.037C167.877,-102.557 306.942,-99.6998 398.36,-97.8214"/>
<polygon fill="midnightblue" stroke="midnightblue" points="398.508,-101.319 408.434,-97.6144 398.364,-94.3206 398.508,-101.319"/>
</g>
<!-- Node5 -->
<g id="node9" class="node"><title>Node5</title>
<a xlink:href="class_network_rinterface.html#a28c63ea70e49d8771e8242107b65d62c" target="_top" xlink:title="NetworkRinterface::predict">
<polygon fill="white" stroke="black" points="181.5,-114.5 181.5,-133.5 322.5,-133.5 322.5,-114.5 181.5,-114.5"/>
<text text-anchor="middle" x="252" y="-121.5" font-family="Helvetica,sans-Serif" font-size="10.00">NetworkRinterface::predict</text>
</a>
</g>
<!-- Node1&#45;&gt;Node5 -->
<g id="edge8" class="edge"><title>Node1&#45;&gt;Node5</title>
<path fill="none" stroke="midnightblue" d="M95.5965,-109.383C118.02,-111.492 145.543,-114.081 171.164,-116.491"/>
<polygon fill="midnightblue" stroke="midnightblue" points="170.966,-119.987 181.25,-117.439 171.622,-113.018 170.966,-119.987"/>
</g>
<!-- Node6 -->
<g id="node13" class="node"><title>Node6</title>
<a xlink:href="class_network_rinterface.html#a3bcc22e2278cc28157b807ac190c7787" target="_top" xlink:title="NetworkRinterface::show">
<polygon fill="white" stroke="black" points="185,-38.5 185,-57.5 319,-57.5 319,-38.5 185,-38.5"/>
<text text-anchor="middle" x="252" y="-45.5" font-family="Helvetica,sans-Serif" font-size="10.00">NetworkRinterface::show</text>
</a>
</g>
<!-- Node1&#45;&gt;Node6 -->
<g id="edge14" class="edge"><title>Node1&#45;&gt;Node6</title>
<path fill="none" stroke="midnightblue" d="M70.1242,-95.3786C86.6806,-88.1387 110.446,-78.402 132,-72 148.229,-67.1797 165.99,-63.0214 182.723,-59.5843"/>
<polygon fill="midnightblue" stroke="midnightblue" points="183.864,-62.9258 192.987,-57.5379 182.495,-56.061 183.864,-62.9258"/>
</g>
<!-- Node7 -->
<g id="node15" class="node"><title>Node7</title>
<a xlink:href="class_network_rinterface.html#a1b37bfff06e29aedd525fa25137b94e1" target="_top" xlink:title="NetworkRinterface::validate">
<polygon fill="white" stroke="black" points="179.5,-0.5 179.5,-19.5 324.5,-19.5 324.5,-0.5 179.5,-0.5"/>
<text text-anchor="middle" x="252" y="-7.5" font-family="Helvetica,sans-Serif" font-size="10.00">NetworkRinterface::validate</text>
</a>
</g>
<!-- Node1&#45;&gt;Node7 -->
<g id="edge16" class="edge"><title>Node1&#45;&gt;Node7</title>
<path fill="none" stroke="midnightblue" d="M56.2467,-95.4073C69.3543,-78.8295 98.7472,-45.0574 132,-29 143.635,-23.3816 156.582,-19.3682 169.531,-16.5124"/>
<polygon fill="midnightblue" stroke="midnightblue" points="170.286,-19.9308 179.411,-14.5468 168.92,-13.0653 170.286,-19.9308"/>
</g>
<!-- Node5&#45;&gt;Node3 -->
<g id="edge10" class="edge"><title>Node5&#45;&gt;Node3</title>
<path fill="none" stroke="midnightblue" d="M322.574,-129.649C347.431,-131.667 375.726,-133.965 401.753,-136.078"/>
<polygon fill="midnightblue" stroke="midnightblue" points="401.734,-139.588 411.984,-136.909 402.3,-132.611 401.734,-139.588"/>
</g>
<!-- Node5&#45;&gt;Node4 -->
<g id="edge12" class="edge"><title>Node5&#45;&gt;Node4</title>
<path fill="none" stroke="midnightblue" d="M322.574,-115.675C346.255,-112.841 373.057,-109.634 398.045,-106.644"/>
<polygon fill="midnightblue" stroke="midnightblue" points="398.744,-110.086 408.257,-105.422 397.912,-103.135 398.744,-110.086"/>
</g>
</g>
</svg>
