<?xml version="1.0" encoding="UTF-8" standalone="no"?>
<!DOCTYPE svg PUBLIC "-//W3C//DTD SVG 1.1//EN"
 "http://www.w3.org/Graphics/SVG/1.1/DTD/svg11.dtd">
<!-- Generated by graphviz version 2.28.0 (20110610.2051)
 -->
<!-- Title: G Pages: 1 -->
<svg width="632pt" height="140pt"
 viewBox="0.00 0.00 632.00 140.00" xmlns="http://www.w3.org/2000/svg" xmlns:xlink="http://www.w3.org/1999/xlink">
<g id="graph1" class="graph" transform="scale(1 1) rotate(0) translate(4 136)">
<title>G</title>
<polygon fill="white" stroke="white" points="-4,5 -4,-136 629,-136 629,5 -4,5"/>
<!-- Node1 -->
<g id="node1" class="node"><title>Node1</title>
<polygon fill="#bfbfbf" stroke="black" points="-0.5,-112.5 -0.5,-131.5 624.5,-131.5 624.5,-112.5 -0.5,-112.5"/>
<text text-anchor="middle" x="312" y="-119.5" font-family="Helvetica,sans-Serif" font-size="10.00">/Users/mcasl/pc&#45;ule/Trabajo/investigacion/AMORE/AMORE&#45;WC/AMORE&#45;WC/pkg/AMORE/src/classHeaders/SimpleContainerIterator.h</text>
</g>
<!-- Node2 -->
<g id="node3" class="node"><title>Node2</title>
<a xlink:href="_iterator_8h.html" target="_top" xlink:title="Iterator.h">
<polygon fill="white" stroke="black" points="218.5,-56.5 218.5,-75.5 277.5,-75.5 277.5,-56.5 218.5,-56.5"/>
<text text-anchor="middle" x="248" y="-63.5" font-family="Helvetica,sans-Serif" font-size="10.00">Iterator.h</text>
</a>
</g>
<!-- Node1&#45;&gt;Node2 -->
<g id="edge2" class="edge"><title>Node1&#45;&gt;Node2</title>
<path fill="none" stroke="midnightblue" d="M301.717,-112.324C292.164,-104.263 277.72,-92.0765 266.216,-82.3695"/>
<polygon fill="midnightblue" stroke="midnightblue" points="268.37,-79.6076 258.47,-75.8339 263.856,-84.9577 268.37,-79.6076"/>
</g>
<!-- Node4 -->
<g id="node7" class="node"><title>Node4</title>
<polygon fill="white" stroke="#bfbfbf" points="295.5,-56.5 295.5,-75.5 456.5,-75.5 456.5,-56.5 295.5,-56.5"/>
<text text-anchor="middle" x="376" y="-63.5" font-family="Helvetica,sans-Serif" font-size="10.00">../SimpleContainerIterator.code</text>
</g>
<!-- Node1&#45;&gt;Node4 -->
<g id="edge6" class="edge"><title>Node1&#45;&gt;Node4</title>
<path fill="none" stroke="midnightblue" d="M322.283,-112.324C331.836,-104.263 346.28,-92.0765 357.784,-82.3695"/>
<polygon fill="midnightblue" stroke="midnightblue" points="360.144,-84.9577 365.53,-75.8339 355.63,-79.6076 360.144,-84.9577"/>
</g>
<!-- Node3 -->
<g id="node5" class="node"><title>Node3</title>
<polygon fill="white" stroke="#bfbfbf" points="205.5,-0.5 205.5,-19.5 290.5,-19.5 290.5,-0.5 205.5,-0.5"/>
<text text-anchor="middle" x="248" y="-7.5" font-family="Helvetica,sans-Serif" font-size="10.00">../Iterator.code</text>
</g>
<!-- Node2&#45;&gt;Node3 -->
<g id="edge4" class="edge"><title>Node2&#45;&gt;Node3</title>
<path fill="none" stroke="midnightblue" d="M248,-56.083C248,-49.0059 248,-38.8611 248,-29.9865"/>
<polygon fill="midnightblue" stroke="midnightblue" points="251.5,-29.751 248,-19.7511 244.5,-29.7511 251.5,-29.751"/>
</g>
</g>
</svg>
