<?xml version="1.0" encoding="UTF-8" standalone="no"?>
<!DOCTYPE svg PUBLIC "-//W3C//DTD SVG 1.1//EN"
 "http://www.w3.org/Graphics/SVG/1.1/DTD/svg11.dtd">
<!-- Generated by graphviz version 2.28.0 (20110610.2051)
 -->
<!-- Title: G Pages: 1 -->
<svg width="598pt" height="140pt"
 viewBox="0.00 0.00 598.00 140.00" xmlns="http://www.w3.org/2000/svg" xmlns:xlink="http://www.w3.org/1999/xlink">
<g id="graph1" class="graph" transform="scale(1 1) rotate(0) translate(4 136)">
<title>G</title>
<polygon fill="white" stroke="white" points="-4,5 -4,-136 595,-136 595,5 -4,5"/>
<!-- Node1 -->
<g id="node1" class="node"><title>Node1</title>
<polygon fill="#bfbfbf" stroke="black" points="-0.5,-112.5 -0.5,-131.5 590.5,-131.5 590.5,-112.5 -0.5,-112.5"/>
<text text-anchor="middle" x="295" y="-119.5" font-family="Helvetica,sans-Serif" font-size="10.00">/Users/mcasl/pc&#45;ule/Trabajo/investigacion/AMORE/AMORE&#45;WC/AMORE&#45;WC/pkg/AMORE/src/classHeaders/SimpleContainer.h</text>
</g>
<!-- Node2 -->
<g id="node3" class="node"><title>Node2</title>
<a xlink:href="_container_8h.html" target="_top" xlink:title="Container.h">
<polygon fill="white" stroke="black" points="202.5,-56.5 202.5,-75.5 271.5,-75.5 271.5,-56.5 202.5,-56.5"/>
<text text-anchor="middle" x="237" y="-63.5" font-family="Helvetica,sans-Serif" font-size="10.00">Container.h</text>
</a>
</g>
<!-- Node1&#45;&gt;Node2 -->
<g id="edge2" class="edge"><title>Node1&#45;&gt;Node2</title>
<path fill="none" stroke="midnightblue" d="M285.681,-112.324C277.107,-104.341 264.188,-92.3128 253.812,-82.6529"/>
<polygon fill="midnightblue" stroke="midnightblue" points="256.192,-80.0865 246.488,-75.8339 251.422,-85.2098 256.192,-80.0865"/>
</g>
<!-- Node4 -->
<g id="node7" class="node"><title>Node4</title>
<polygon fill="white" stroke="#bfbfbf" points="290,-56.5 290,-75.5 418,-75.5 418,-56.5 290,-56.5"/>
<text text-anchor="middle" x="354" y="-63.5" font-family="Helvetica,sans-Serif" font-size="10.00">../SimpleContainer.code</text>
</g>
<!-- Node1&#45;&gt;Node4 -->
<g id="edge6" class="edge"><title>Node1&#45;&gt;Node4</title>
<path fill="none" stroke="midnightblue" d="M304.479,-112.324C313.201,-104.341 326.343,-92.3128 336.898,-82.6529"/>
<polygon fill="midnightblue" stroke="midnightblue" points="339.334,-85.1674 344.348,-75.8339 334.608,-80.0036 339.334,-85.1674"/>
</g>
<!-- Node3 -->
<g id="node5" class="node"><title>Node3</title>
<polygon fill="white" stroke="#bfbfbf" points="189.5,-0.5 189.5,-19.5 284.5,-19.5 284.5,-0.5 189.5,-0.5"/>
<text text-anchor="middle" x="237" y="-7.5" font-family="Helvetica,sans-Serif" font-size="10.00">../Container.code</text>
</g>
<!-- Node2&#45;&gt;Node3 -->
<g id="edge4" class="edge"><title>Node2&#45;&gt;Node3</title>
<path fill="none" stroke="midnightblue" d="M237,-56.083C237,-49.0059 237,-38.8611 237,-29.9865"/>
<polygon fill="midnightblue" stroke="midnightblue" points="240.5,-29.751 237,-19.7511 233.5,-29.7511 240.5,-29.751"/>
</g>
</g>
</svg>
