<?xml version="1.0" encoding="UTF-8" standalone="no"?>
<!DOCTYPE svg PUBLIC "-//W3C//DTD SVG 1.1//EN"
 "http://www.w3.org/Graphics/SVG/1.1/DTD/svg11.dtd">
<!-- Generated by graphviz version 2.28.0 (20110610.2051)
 -->
<!-- Title: G Pages: 1 -->
<svg width="1250pt" height="196pt"
 viewBox="0.00 0.00 1250.00 196.00" xmlns="http://www.w3.org/2000/svg" xmlns:xlink="http://www.w3.org/1999/xlink">
<g id="graph1" class="graph" transform="scale(1 1) rotate(0) translate(4 192)">
<title>G</title>
<polygon fill="white" stroke="white" points="-4,5 -4,-192 1247,-192 1247,5 -4,5"/>
<!-- Node1 -->
<g id="node1" class="node"><title>Node1</title>
<polygon fill="#bfbfbf" stroke="black" points="688,-168.5 688,-187.5 1206,-187.5 1206,-168.5 688,-168.5"/>
<text text-anchor="middle" x="947" y="-175.5" font-family="Helvetica,sans-Serif" font-size="10.00">/Users/mcasl/pc&#45;ule/Trabajo/investigacion/AMORE/AMORE&#45;WC/AMORE&#45;WC/pkg/AMORE/src/TanhFactory.cpp</text>
</g>
<!-- Node2 -->
<g id="node3" class="node"><title>Node2</title>
<a xlink:href="package_8h.html" target="_top" xlink:title="package.h">
<polygon fill="white" stroke="black" points="381.5,-112.5 381.5,-131.5 444.5,-131.5 444.5,-112.5 381.5,-112.5"/>
<text text-anchor="middle" x="413" y="-119.5" font-family="Helvetica,sans-Serif" font-size="10.00">package.h</text>
</a>
</g>
<!-- Node1&#45;&gt;Node2 -->
<g id="edge2" class="edge"><title>Node1&#45;&gt;Node2</title>
<path fill="none" stroke="midnightblue" d="M862.681,-168.473C746.747,-156.75 542.533,-136.099 454.884,-127.235"/>
<polygon fill="midnightblue" stroke="midnightblue" points="455.088,-123.738 444.786,-126.214 454.383,-130.703 455.088,-123.738"/>
</g>
<!-- Node13 -->
<g id="node25" class="node"><title>Node13</title>
<a xlink:href="_neural_factory_8h.html" target="_top" xlink:title="classHeaders/NeuralFactory.h">
<polygon fill="white" stroke="black" points="831.5,-0.5 831.5,-19.5 984.5,-19.5 984.5,-0.5 831.5,-0.5"/>
<text text-anchor="middle" x="908" y="-7.5" font-family="Helvetica,sans-Serif" font-size="10.00">classHeaders/NeuralFactory.h</text>
</a>
</g>
<!-- Node1&#45;&gt;Node13 -->
<g id="edge24" class="edge"><title>Node1&#45;&gt;Node13</title>
<path fill="none" stroke="midnightblue" d="M937.927,-168.354C921.696,-152.129 888.411,-115.202 878,-76 875.719,-67.4089 875.424,-64.5075 878,-56 881.117,-45.7048 887.452,-35.612 893.501,-27.6023"/>
<polygon fill="midnightblue" stroke="midnightblue" points="896.228,-29.7968 899.786,-19.8175 890.781,-25.3995 896.228,-29.7968"/>
</g>
<!-- Node14 -->
<g id="node27" class="node"><title>Node14</title>
<a xlink:href="_m_l_pfactory_8h.html" target="_top" xlink:title="classHeaders/MLPfactory.h">
<polygon fill="white" stroke="black" points="887,-56.5 887,-75.5 1029,-75.5 1029,-56.5 887,-56.5"/>
<text text-anchor="middle" x="958" y="-63.5" font-family="Helvetica,sans-Serif" font-size="10.00">classHeaders/MLPfactory.h</text>
</a>
</g>
<!-- Node1&#45;&gt;Node14 -->
<g id="edge26" class="edge"><title>Node1&#45;&gt;Node14</title>
<path fill="none" stroke="midnightblue" d="M937.847,-168.341C926.014,-156.041 907.839,-132.704 916,-112 920.514,-100.548 929.469,-90.291 937.955,-82.4724"/>
<polygon fill="midnightblue" stroke="midnightblue" points="940.469,-84.9275 945.786,-75.7638 935.915,-79.6113 940.469,-84.9275"/>
</g>
<!-- Node15 -->
<g id="node30" class="node"><title>Node15</title>
<a xlink:href="_tanh_8h.html" target="_top" xlink:title="classHeaders/Tanh.h">
<polygon fill="white" stroke="black" points="1089.5,-112.5 1089.5,-131.5 1200.5,-131.5 1200.5,-112.5 1089.5,-112.5"/>
<text text-anchor="middle" x="1145" y="-119.5" font-family="Helvetica,sans-Serif" font-size="10.00">classHeaders/Tanh.h</text>
</a>
</g>
<!-- Node1&#45;&gt;Node15 -->
<g id="edge30" class="edge"><title>Node1&#45;&gt;Node15</title>
<path fill="none" stroke="midnightblue" d="M978.374,-168.444C1012.26,-159.201 1066.4,-144.436 1103.72,-134.257"/>
<polygon fill="midnightblue" stroke="midnightblue" points="1105.05,-137.524 1113.77,-131.516 1103.2,-130.771 1105.05,-137.524"/>
</g>
<!-- Node16 -->
<g id="node32" class="node"><title>Node16</title>
<a xlink:href="_activation_function_8h.html" target="_top" xlink:title="ActivationFunction.h">
<polygon fill="white" stroke="black" points="1132,-56.5 1132,-75.5 1242,-75.5 1242,-56.5 1132,-56.5"/>
<text text-anchor="middle" x="1187" y="-63.5" font-family="Helvetica,sans-Serif" font-size="10.00">ActivationFunction.h</text>
</a>
</g>
<!-- Node1&#45;&gt;Node16 -->
<g id="edge38" class="edge"><title>Node1&#45;&gt;Node16</title>
<path fill="none" stroke="midnightblue" d="M1091.63,-168.464C1143.34,-162.144 1192.86,-151.144 1209,-132 1220.59,-118.251 1210.86,-98.1187 1200.93,-83.9102"/>
<polygon fill="midnightblue" stroke="midnightblue" points="1203.43,-81.4081 1194.59,-75.5552 1197.85,-85.638 1203.43,-81.4081"/>
</g>
<!-- Node17 -->
<g id="node34" class="node"><title>Node17</title>
<a xlink:href="_tanh_factory_8h.html" target="_top" xlink:title="classHeaders/TanhFactory.h">
<polygon fill="white" stroke="black" points="925,-112.5 925,-131.5 1071,-131.5 1071,-112.5 925,-112.5"/>
<text text-anchor="middle" x="998" y="-119.5" font-family="Helvetica,sans-Serif" font-size="10.00">classHeaders/TanhFactory.h</text>
</a>
</g>
<!-- Node1&#45;&gt;Node17 -->
<g id="edge34" class="edge"><title>Node1&#45;&gt;Node17</title>
<path fill="none" stroke="midnightblue" d="M955.422,-168.083C962.848,-160.22 973.852,-148.569 982.812,-139.081"/>
<polygon fill="midnightblue" stroke="midnightblue" points="985.413,-141.424 989.735,-131.751 980.324,-136.618 985.413,-141.424"/>
</g>
<!-- Node3 -->
<g id="node5" class="node"><title>Node3</title>
<polygon fill="white" stroke="#bfbfbf" points="0,-56.5 0,-75.5 56,-75.5 56,-56.5 0,-56.5"/>
<text text-anchor="middle" x="28" y="-63.5" font-family="Helvetica,sans-Serif" font-size="10.00">iostream</text>
</g>
<!-- Node2&#45;&gt;Node3 -->
<g id="edge4" class="edge"><title>Node2&#45;&gt;Node3</title>
<path fill="none" stroke="midnightblue" d="M381.149,-118.066C321.311,-112.298 187.88,-98.2339 66.0809,-76.0235"/>
<polygon fill="midnightblue" stroke="midnightblue" points="66.6821,-72.5755 56.2128,-74.2012 65.4109,-79.4591 66.6821,-72.5755"/>
</g>
<!-- Node4 -->
<g id="node7" class="node"><title>Node4</title>
<polygon fill="white" stroke="#bfbfbf" points="74.5,-56.5 74.5,-75.5 127.5,-75.5 127.5,-56.5 74.5,-56.5"/>
<text text-anchor="middle" x="101" y="-63.5" font-family="Helvetica,sans-Serif" font-size="10.00">sstream</text>
</g>
<!-- Node2&#45;&gt;Node4 -->
<g id="edge6" class="edge"><title>Node2&#45;&gt;Node4</title>
<path fill="none" stroke="midnightblue" d="M381.256,-116.798C331.359,-109.986 231.361,-95.5036 137.621,-76.1977"/>
<polygon fill="midnightblue" stroke="midnightblue" points="138.198,-72.7429 127.695,-74.13 136.771,-79.5958 138.198,-72.7429"/>
</g>
<!-- Node5 -->
<g id="node9" class="node"><title>Node5</title>
<polygon fill="white" stroke="#bfbfbf" points="145.5,-56.5 145.5,-75.5 204.5,-75.5 204.5,-56.5 145.5,-56.5"/>
<text text-anchor="middle" x="175" y="-63.5" font-family="Helvetica,sans-Serif" font-size="10.00">algorithm</text>
</g>
<!-- Node2&#45;&gt;Node5 -->
<g id="edge8" class="edge"><title>Node2&#45;&gt;Node5</title>
<path fill="none" stroke="midnightblue" d="M381.282,-113.873C343.92,-105.468 279.712,-90.9918 214.805,-76.1764"/>
<polygon fill="midnightblue" stroke="midnightblue" points="215.336,-72.7075 204.807,-73.8929 213.777,-79.5318 215.336,-72.7075"/>
</g>
<!-- Node6 -->
<g id="node11" class="node"><title>Node6</title>
<polygon fill="white" stroke="#bfbfbf" points="223,-56.5 223,-75.5 269,-75.5 269,-56.5 223,-56.5"/>
<text text-anchor="middle" x="246" y="-63.5" font-family="Helvetica,sans-Serif" font-size="10.00">vector</text>
</g>
<!-- Node2&#45;&gt;Node6 -->
<g id="edge10" class="edge"><title>Node2&#45;&gt;Node6</title>
<path fill="none" stroke="midnightblue" d="M386.538,-112.444C357.326,-102.998 310.272,-87.7826 278.755,-77.5916"/>
<polygon fill="midnightblue" stroke="midnightblue" points="279.703,-74.2195 269.111,-74.473 277.549,-80.88 279.703,-74.2195"/>
</g>
<!-- Node7 -->
<g id="node13" class="node"><title>Node7</title>
<polygon fill="white" stroke="#bfbfbf" points="287,-56.5 287,-75.5 337,-75.5 337,-56.5 287,-56.5"/>
<text text-anchor="middle" x="312" y="-63.5" font-family="Helvetica,sans-Serif" font-size="10.00">iterator</text>
</g>
<!-- Node2&#45;&gt;Node7 -->
<g id="edge12" class="edge"><title>Node2&#45;&gt;Node7</title>
<path fill="none" stroke="midnightblue" d="M396.773,-112.324C380.649,-103.703 355.7,-90.3643 337.036,-80.3855"/>
<polygon fill="midnightblue" stroke="midnightblue" points="338.656,-77.283 328.187,-75.6545 335.356,-83.456 338.656,-77.283"/>
</g>
<!-- Node8 -->
<g id="node15" class="node"><title>Node8</title>
<polygon fill="white" stroke="#bfbfbf" points="355.5,-56.5 355.5,-75.5 470.5,-75.5 470.5,-56.5 355.5,-56.5"/>
<text text-anchor="middle" x="413" y="-63.5" font-family="Helvetica,sans-Serif" font-size="10.00">boost/shared_ptr.hpp</text>
</g>
<!-- Node2&#45;&gt;Node8 -->
<g id="edge14" class="edge"><title>Node2&#45;&gt;Node8</title>
<path fill="none" stroke="midnightblue" d="M413,-112.083C413,-105.006 413,-94.8611 413,-85.9865"/>
<polygon fill="midnightblue" stroke="midnightblue" points="416.5,-85.751 413,-75.7511 409.5,-85.7511 416.5,-85.751"/>
</g>
<!-- Node9 -->
<g id="node17" class="node"><title>Node9</title>
<polygon fill="white" stroke="#bfbfbf" points="489,-56.5 489,-75.5 597,-75.5 597,-56.5 489,-56.5"/>
<text text-anchor="middle" x="543" y="-63.5" font-family="Helvetica,sans-Serif" font-size="10.00">boost/weak_ptr.hpp</text>
</g>
<!-- Node2&#45;&gt;Node9 -->
<g id="edge16" class="edge"><title>Node2&#45;&gt;Node9</title>
<path fill="none" stroke="midnightblue" d="M433.599,-112.444C454.993,-103.557 488.681,-89.5632 513.024,-79.4514"/>
<polygon fill="midnightblue" stroke="midnightblue" points="514.605,-82.5848 522.497,-75.5164 511.92,-76.1203 514.605,-82.5848"/>
</g>
<!-- Node10 -->
<g id="node19" class="node"><title>Node10</title>
<polygon fill="white" stroke="#bfbfbf" points="615,-56.5 615,-75.5 693,-75.5 693,-56.5 615,-56.5"/>
<text text-anchor="middle" x="654" y="-63.5" font-family="Helvetica,sans-Serif" font-size="10.00">boost/ref.hpp</text>
</g>
<!-- Node2&#45;&gt;Node10 -->
<g id="edge18" class="edge"><title>Node2&#45;&gt;Node10</title>
<path fill="none" stroke="midnightblue" d="M444.507,-113.94C485.602,-104.732 557.898,-88.5332 605.877,-77.7829"/>
<polygon fill="midnightblue" stroke="midnightblue" points="606.733,-81.1779 615.725,-75.576 605.202,-74.3472 606.733,-81.1779"/>
</g>
<!-- Node11 -->
<g id="node21" class="node"><title>Node11</title>
<polygon fill="white" stroke="#bfbfbf" points="711.5,-56.5 711.5,-75.5 762.5,-75.5 762.5,-56.5 711.5,-56.5"/>
<text text-anchor="middle" x="737" y="-63.5" font-family="Helvetica,sans-Serif" font-size="10.00">valarray</text>
</g>
<!-- Node2&#45;&gt;Node11 -->
<g id="edge20" class="edge"><title>Node2&#45;&gt;Node11</title>
<path fill="none" stroke="midnightblue" d="M444.826,-117.074C496.533,-110.474 602.151,-96.068 701.546,-75.9081"/>
<polygon fill="midnightblue" stroke="midnightblue" points="702.36,-79.314 711.453,-73.8751 700.953,-72.4569 702.36,-79.314"/>
</g>
<!-- Node12 -->
<g id="node23" class="node"><title>Node12</title>
<polygon fill="white" stroke="#bfbfbf" points="781,-56.5 781,-75.5 831,-75.5 831,-56.5 781,-56.5"/>
<text text-anchor="middle" x="806" y="-63.5" font-family="Helvetica,sans-Serif" font-size="10.00">Rcpp.h</text>
</g>
<!-- Node2&#45;&gt;Node12 -->
<g id="edge22" class="edge"><title>Node2&#45;&gt;Node12</title>
<path fill="none" stroke="midnightblue" d="M444.818,-118.364C507.585,-112.865 651.624,-98.7561 771,-76 771.1,-75.9809 771.2,-75.9617 771.301,-75.9424"/>
<polygon fill="midnightblue" stroke="midnightblue" points="771.819,-79.4114 780.851,-73.873 770.336,-72.5702 771.819,-79.4114"/>
</g>
<!-- Node14&#45;&gt;Node13 -->
<g id="edge28" class="edge"><title>Node14&#45;&gt;Node13</title>
<path fill="none" stroke="midnightblue" d="M949.744,-56.083C942.535,-48.2982 931.89,-36.8015 923.154,-27.3665"/>
<polygon fill="midnightblue" stroke="midnightblue" points="925.465,-24.7108 916.103,-19.7511 920.329,-29.4666 925.465,-24.7108"/>
</g>
<!-- Node15&#45;&gt;Node16 -->
<g id="edge32" class="edge"><title>Node15&#45;&gt;Node16</title>
<path fill="none" stroke="midnightblue" d="M1151.94,-112.083C1157.93,-104.377 1166.75,-93.0333 1174.05,-83.6531"/>
<polygon fill="midnightblue" stroke="midnightblue" points="1176.82,-85.7934 1180.19,-75.7511 1171.29,-81.4958 1176.82,-85.7934"/>
</g>
<!-- Node17&#45;&gt;Node14 -->
<g id="edge36" class="edge"><title>Node17&#45;&gt;Node14</title>
<path fill="none" stroke="midnightblue" d="M991.395,-112.083C985.745,-104.455 977.455,-93.2645 970.549,-83.9408"/>
<polygon fill="midnightblue" stroke="midnightblue" points="973.247,-81.7034 964.482,-75.7511 967.622,-85.87 973.247,-81.7034"/>
</g>
</g>
</svg>
