<?xml version="1.0" encoding="UTF-8" standalone="no"?>
<!DOCTYPE svg PUBLIC "-//W3C//DTD SVG 1.1//EN"
 "http://www.w3.org/Graphics/SVG/1.1/DTD/svg11.dtd">
<!-- Generated by graphviz version 2.28.0 (20110610.2051)
 -->
<!-- Title: G Pages: 1 -->
<svg width="602pt" height="140pt"
 viewBox="0.00 0.00 602.00 140.00" xmlns="http://www.w3.org/2000/svg" xmlns:xlink="http://www.w3.org/1999/xlink">
<g id="graph1" class="graph" transform="scale(1 1) rotate(0) translate(4 136)">
<title>G</title>
<polygon fill="white" stroke="white" points="-4,5 -4,-136 599,-136 599,5 -4,5"/>
<!-- Node1 -->
<g id="node1" class="node"><title>Node1</title>
<polygon fill="#bfbfbf" stroke="black" points="0,-112.5 0,-131.5 594,-131.5 594,-112.5 0,-112.5"/>
<text text-anchor="middle" x="297" y="-119.5" font-family="Helvetica,sans-Serif" font-size="10.00">/Users/mcasl/pc&#45;ule/Trabajo/investigacion/AMORE/AMORE&#45;WC/AMORE&#45;WC/pkg/AMORE/src/classHeaders/ThresholdFactory.h</text>
</g>
<!-- Node2 -->
<g id="node3" class="node"><title>Node2</title>
<a xlink:href="_m_l_pfactory_8h.html" target="_top" xlink:title="MLPfactory.h">
<polygon fill="white" stroke="black" points="258.5,-56.5 258.5,-75.5 335.5,-75.5 335.5,-56.5 258.5,-56.5"/>
<text text-anchor="middle" x="297" y="-63.5" font-family="Helvetica,sans-Serif" font-size="10.00">MLPfactory.h</text>
</a>
</g>
<!-- Node1&#45;&gt;Node2 -->
<g id="edge2" class="edge"><title>Node1&#45;&gt;Node2</title>
<path fill="none" stroke="midnightblue" d="M297,-112.083C297,-105.006 297,-94.8611 297,-85.9865"/>
<polygon fill="midnightblue" stroke="midnightblue" points="300.5,-85.751 297,-75.7511 293.5,-85.7511 300.5,-85.751"/>
</g>
<!-- Node3 -->
<g id="node5" class="node"><title>Node3</title>
<a xlink:href="_neural_factory_8h.html" target="_top" xlink:title="NeuralFactory.h">
<polygon fill="white" stroke="black" points="252.5,-0.5 252.5,-19.5 341.5,-19.5 341.5,-0.5 252.5,-0.5"/>
<text text-anchor="middle" x="297" y="-7.5" font-family="Helvetica,sans-Serif" font-size="10.00">NeuralFactory.h</text>
</a>
</g>
<!-- Node2&#45;&gt;Node3 -->
<g id="edge4" class="edge"><title>Node2&#45;&gt;Node3</title>
<path fill="none" stroke="midnightblue" d="M297,-56.083C297,-49.0059 297,-38.8611 297,-29.9865"/>
<polygon fill="midnightblue" stroke="midnightblue" points="300.5,-29.751 297,-19.7511 293.5,-29.7511 300.5,-29.751"/>
</g>
</g>
</svg>
