<?xml version="1.0" encoding="UTF-8" standalone="no"?>
<!DOCTYPE svg PUBLIC "-//W3C//DTD SVG 1.1//EN"
 "http://www.w3.org/Graphics/SVG/1.1/DTD/svg11.dtd">
<!-- Generated by graphviz version 2.28.0 (20110610.2051)
 -->
<!-- Title: G Pages: 1 -->
<svg width="202pt" height="142pt"
 viewBox="0.00 0.00 202.00 142.00" xmlns="http://www.w3.org/2000/svg" xmlns:xlink="http://www.w3.org/1999/xlink">
<g id="graph1" class="graph" transform="scale(1 1) rotate(0) translate(4 138)">
<title>G</title>
<polygon fill="white" stroke="white" points="-4,5 -4,-138 199,-138 199,5 -4,5"/>
<!-- Node1 -->
<g id="node1" class="node"><title>Node1</title>
<polygon fill="#bfbfbf" stroke="black" points="0.5,-57.5 0.5,-76.5 65.5,-76.5 65.5,-57.5 0.5,-57.5"/>
<text text-anchor="middle" x="33" y="-64.5" font-family="Helvetica,sans-Serif" font-size="10.00">Neuron::Id</text>
</g>
<!-- Node2 -->
<g id="node3" class="node"><title>Node2</title>
<a xlink:href="class_neuron.html#ad9211d55ea50ad6dfbd2676b9e2335e4" target="_top" xlink:title="Neuron::getId">
<polygon fill="white" stroke="black" points="108,-114.5 108,-133.5 188,-133.5 188,-114.5 108,-114.5"/>
<text text-anchor="middle" x="148" y="-121.5" font-family="Helvetica,sans-Serif" font-size="10.00">Neuron::getId</text>
</a>
</g>
<!-- Node1&#45;&gt;Node2 -->
<g id="edge2" class="edge"><title>Node1&#45;&gt;Node2</title>
<path fill="none" stroke="midnightblue" d="M58.6147,-81.6173C71.3808,-88.9766 87.3339,-97.8329 102,-105 108.705,-108.277 116.118,-111.546 122.959,-114.425"/>
<polygon fill="midnightblue" stroke="midnightblue" points="60.3491,-78.5771 49.9463,-76.5687 56.8261,-84.6259 60.3491,-78.5771"/>
</g>
<!-- Node3 -->
<g id="node5" class="node"><title>Node3</title>
<a xlink:href="class_neuron.html#aa93290c13b40c5b07d92f272a0a2ce63" target="_top" xlink:title="Neuron::setId">
<polygon fill="white" stroke="black" points="108,-76.5 108,-95.5 188,-95.5 188,-76.5 108,-76.5"/>
<text text-anchor="middle" x="148" y="-83.5" font-family="Helvetica,sans-Serif" font-size="10.00">Neuron::setId</text>
</a>
</g>
<!-- Node1&#45;&gt;Node3 -->
<g id="edge4" class="edge"><title>Node1&#45;&gt;Node3</title>
<path fill="none" stroke="midnightblue" d="M75.9227,-74.049C86.3634,-75.8045 97.517,-77.6799 107.82,-79.4122"/>
<polygon fill="midnightblue" stroke="midnightblue" points="76.2195,-70.5498 65.7775,-72.3431 75.0587,-77.4529 76.2195,-70.5498"/>
</g>
<!-- Node4 -->
<g id="node7" class="node"><title>Node4</title>
<a xlink:href="class_neuron.html#a255c3597520c730d798218f7174eff1b" target="_top" xlink:title="Neuron::show">
<polygon fill="white" stroke="black" points="108,-38.5 108,-57.5 188,-57.5 188,-38.5 108,-38.5"/>
<text text-anchor="middle" x="148" y="-45.5" font-family="Helvetica,sans-Serif" font-size="10.00">Neuron::show</text>
</a>
</g>
<!-- Node1&#45;&gt;Node4 -->
<g id="edge6" class="edge"><title>Node1&#45;&gt;Node4</title>
<path fill="none" stroke="midnightblue" d="M75.9227,-59.951C86.3634,-58.1955 97.517,-56.3201 107.82,-54.5878"/>
<polygon fill="midnightblue" stroke="midnightblue" points="75.0587,-56.5471 65.7775,-61.6569 76.2195,-63.4502 75.0587,-56.5471"/>
</g>
<!-- Node5 -->
<g id="node9" class="node"><title>Node5</title>
<a xlink:href="class_neuron.html#a95327aa80a9ec949491f214a0c159b5a" target="_top" xlink:title="Neuron::validate">
<polygon fill="white" stroke="black" points="102,-0.5 102,-19.5 194,-19.5 194,-0.5 102,-0.5"/>
<text text-anchor="middle" x="148" y="-7.5" font-family="Helvetica,sans-Serif" font-size="10.00">Neuron::validate</text>
</a>
</g>
<!-- Node1&#45;&gt;Node5 -->
<g id="edge8" class="edge"><title>Node1&#45;&gt;Node5</title>
<path fill="none" stroke="midnightblue" d="M58.6147,-52.3827C71.3808,-45.0234 87.3339,-36.1671 102,-29 108.705,-25.7234 116.118,-22.4544 122.959,-19.5749"/>
<polygon fill="midnightblue" stroke="midnightblue" points="56.8261,-49.3741 49.9463,-57.4313 60.3491,-55.4229 56.8261,-49.3741"/>
</g>
</g>
</svg>
