<?xml version="1.0" encoding="UTF-8" standalone="no"?>
<!DOCTYPE svg PUBLIC "-//W3C//DTD SVG 1.1//EN"
 "http://www.w3.org/Graphics/SVG/1.1/DTD/svg11.dtd">
<!-- Generated by graphviz version 2.28.0 (20110610.2051)
 -->
<!-- Title: G Pages: 1 -->
<svg width="407pt" height="406pt"
 viewBox="0.00 0.00 407.00 406.00" xmlns="http://www.w3.org/2000/svg" xmlns:xlink="http://www.w3.org/1999/xlink">
<g id="graph1" class="graph" transform="scale(1 1) rotate(0) translate(4 402)">
<title>G</title>
<polygon fill="white" stroke="white" points="-4,5 -4,-402 404,-402 404,5 -4,5"/>
<!-- Node1 -->
<g id="node1" class="node"><title>Node1</title>
<polygon fill="#bfbfbf" stroke="black" points="114.5,-106.5 114.5,-185.5 283.5,-185.5 283.5,-106.5 114.5,-106.5"/>
<text text-anchor="middle" x="199" y="-173.5" font-family="Helvetica,sans-Serif" font-size="10.00">ADAPTgdNeuronTrainBehavior</text>
<polyline fill="none" stroke="black" points="114.5,-166.5 283.5,-166.5 "/>
<text text-anchor="start" x="122.5" y="-154.5" font-family="Helvetica,sans-Serif" font-size="10.00"># d_delta</text>
<text text-anchor="start" x="122.5" y="-143.5" font-family="Helvetica,sans-Serif" font-size="10.00"># d_learningRate</text>
<polyline fill="none" stroke="black" points="114.5,-136.5 283.5,-136.5 "/>
<text text-anchor="start" x="122.5" y="-124.5" font-family="Helvetica,sans-Serif" font-size="10.00">+ singlePatternBackwardAction()</text>
<text text-anchor="start" x="122.5" y="-113.5" font-family="Helvetica,sans-Serif" font-size="10.00">+ endOfEpochAction()</text>
</g>
<!-- Node4 -->
<g id="node7" class="node"><title>Node4</title>
<a xlink:href="class_a_d_a_p_tgd_hidden_neuron_train_behavior.html" target="_top" xlink:title="class ADAPTgdHiddenNeuronTrainBehavior &#45;">
<polygon fill="white" stroke="black" points="-0.5,-1 -0.5,-69 190.5,-69 190.5,-1 -0.5,-1"/>
<text text-anchor="middle" x="95" y="-57" font-family="Helvetica,sans-Serif" font-size="10.00">ADAPTgdHiddenNeuronTrainBehavior</text>
<polyline fill="none" stroke="black" points="-0.5,-50 190.5,-50 "/>
<text text-anchor="middle" x="95" y="-38" font-family="Helvetica,sans-Serif" font-size="10.00"> </text>
<polyline fill="none" stroke="black" points="-0.5,-31 190.5,-31 "/>
<text text-anchor="start" x="7.5" y="-19" font-family="Helvetica,sans-Serif" font-size="10.00">&#45; singlePatternBackwardAction()</text>
<text text-anchor="start" x="7.5" y="-8" font-family="Helvetica,sans-Serif" font-size="10.00">&#45; endOfEpochAction()</text>
</a>
</g>
<!-- Node1&#45;&gt;Node4 -->
<g id="edge6" class="edge"><title>Node1&#45;&gt;Node4</title>
<path fill="none" stroke="midnightblue" d="M154.883,-98.7625C145.405,-88.8281 135.568,-78.5186 126.673,-69.1962"/>
<polygon fill="none" stroke="midnightblue" points="152.605,-101.445 162.041,-106.264 157.67,-96.6126 152.605,-101.445"/>
</g>
<!-- Node5 -->
<g id="node9" class="node"><title>Node5</title>
<a xlink:href="class_a_d_a_p_tgd_output_neuron_train_behavior.html" target="_top" xlink:title="class ADAPTgdOutputNeuronTrainBehavior &#45;">
<polygon fill="white" stroke="black" points="209,-1 209,-69 399,-69 399,-1 209,-1"/>
<text text-anchor="middle" x="304" y="-57" font-family="Helvetica,sans-Serif" font-size="10.00">ADAPTgdOutputNeuronTrainBehavior</text>
<polyline fill="none" stroke="black" points="209,-50 399,-50 "/>
<text text-anchor="start" x="217" y="-38" font-family="Helvetica,sans-Serif" font-size="10.00">&#45; d_costFunction</text>
<polyline fill="none" stroke="black" points="209,-31 399,-31 "/>
<text text-anchor="start" x="217" y="-19" font-family="Helvetica,sans-Serif" font-size="10.00">&#45; singlePatternBackwardAction()</text>
<text text-anchor="start" x="217" y="-8" font-family="Helvetica,sans-Serif" font-size="10.00">&#45; endOfEpochAction()</text>
</a>
</g>
<!-- Node1&#45;&gt;Node5 -->
<g id="edge8" class="edge"><title>Node1&#45;&gt;Node5</title>
<path fill="none" stroke="midnightblue" d="M243.259,-99.0546C252.916,-89.0303 262.954,-78.61 272.022,-69.1962"/>
<polygon fill="none" stroke="midnightblue" points="240.732,-96.6336 236.315,-106.264 245.773,-101.49 240.732,-96.6336"/>
</g>
<!-- Node2 -->
<g id="node2" class="node"><title>Node2</title>
<a xlink:href="class_adapt_neuron_train_behavior.html" target="_top" xlink:title="class AdaptNeuronTrainBehavior &#45;">
<polygon fill="white" stroke="black" points="114.5,-223 114.5,-291 283.5,-291 283.5,-223 114.5,-223"/>
<text text-anchor="middle" x="199" y="-279" font-family="Helvetica,sans-Serif" font-size="10.00">AdaptNeuronTrainBehavior</text>
<polyline fill="none" stroke="black" points="114.5,-272 283.5,-272 "/>
<text text-anchor="middle" x="199" y="-260" font-family="Helvetica,sans-Serif" font-size="10.00"> </text>
<polyline fill="none" stroke="black" points="114.5,-253 283.5,-253 "/>
<text text-anchor="start" x="122.5" y="-241" font-family="Helvetica,sans-Serif" font-size="10.00">+ singlePatternBackwardAction()</text>
<text text-anchor="start" x="122.5" y="-230" font-family="Helvetica,sans-Serif" font-size="10.00">+ endOfEpochAction()</text>
</a>
</g>
<!-- Node2&#45;&gt;Node1 -->
<g id="edge2" class="edge"><title>Node2&#45;&gt;Node1</title>
<path fill="none" stroke="midnightblue" d="M199,-212.575C199,-203.737 199,-194.493 199,-185.827"/>
<polygon fill="none" stroke="midnightblue" points="195.5,-212.704 199,-222.704 202.5,-212.704 195.5,-212.704"/>
</g>
<!-- Node3 -->
<g id="node4" class="node"><title>Node3</title>
<a xlink:href="class_neuron_train_behavior.html" target="_top" xlink:title="class NeuronTrainBehavior &#45;">
<polygon fill="white" stroke="black" points="114.5,-329 114.5,-397 283.5,-397 283.5,-329 114.5,-329"/>
<text text-anchor="middle" x="199" y="-385" font-family="Helvetica,sans-Serif" font-size="10.00">NeuronTrainBehavior</text>
<polyline fill="none" stroke="black" points="114.5,-378 283.5,-378 "/>
<text text-anchor="start" x="122.5" y="-366" font-family="Helvetica,sans-Serif" font-size="10.00"># d_neuron</text>
<polyline fill="none" stroke="black" points="114.5,-359 283.5,-359 "/>
<text text-anchor="start" x="122.5" y="-347" font-family="Helvetica,sans-Serif" font-size="10.00">+ singlePatternBackwardAction()</text>
<text text-anchor="start" x="122.5" y="-336" font-family="Helvetica,sans-Serif" font-size="10.00">+ endOfEpochAction()</text>
</a>
</g>
<!-- Node3&#45;&gt;Node2 -->
<g id="edge4" class="edge"><title>Node3&#45;&gt;Node2</title>
<path fill="none" stroke="midnightblue" d="M199,-318.674C199,-309.502 199,-299.961 199,-291.234"/>
<polygon fill="none" stroke="midnightblue" points="195.5,-318.808 199,-328.808 202.5,-318.808 195.5,-318.808"/>
</g>
</g>
</svg>
