<?xml version="1.0" encoding="UTF-8" standalone="no"?>
<!DOCTYPE svg PUBLIC "-//W3C//DTD SVG 1.1//EN"
 "http://www.w3.org/Graphics/SVG/1.1/DTD/svg11.dtd">
<!-- Generated by graphviz version 2.28.0 (20110610.2051)
 -->
<!-- Title: G Pages: 1 -->
<svg width="438pt" height="66pt"
 viewBox="0.00 0.00 438.00 66.00" xmlns="http://www.w3.org/2000/svg" xmlns:xlink="http://www.w3.org/1999/xlink">
<g id="graph1" class="graph" transform="scale(1 1) rotate(0) translate(4 62)">
<title>G</title>
<polygon fill="white" stroke="white" points="-4,5 -4,-62 435,-62 435,5 -4,5"/>
<!-- Node1 -->
<g id="node1" class="node"><title>Node1</title>
<polygon fill="#bfbfbf" stroke="black" points="0.5,-19.5 0.5,-38.5 173.5,-38.5 173.5,-19.5 0.5,-19.5"/>
<text text-anchor="middle" x="87" y="-26.5" font-family="Helvetica,sans-Serif" font-size="10.00">MLPfactory::makePredictBehavior</text>
</g>
<!-- Node2 -->
<g id="node3" class="node"><title>Node2</title>
<a xlink:href="class_m_l_pfactory.html#a69562b8fd06c60a2d5db66d8b0f10299" target="_top" xlink:title="MLPfactory::makeConContainer">
<polygon fill="white" stroke="black" points="239,-38.5 239,-57.5 401,-57.5 401,-38.5 239,-38.5"/>
<text text-anchor="middle" x="320" y="-45.5" font-family="Helvetica,sans-Serif" font-size="10.00">MLPfactory::makeConContainer</text>
</a>
</g>
<!-- Node1&#45;&gt;Node2 -->
<g id="edge2" class="edge"><title>Node1&#45;&gt;Node2</title>
<path fill="none" stroke="midnightblue" d="M173.688,-36.0479C191.671,-37.5271 210.69,-39.0914 228.832,-40.5836"/>
<polygon fill="midnightblue" stroke="midnightblue" points="228.556,-44.0726 238.809,-41.4042 229.129,-37.0961 228.556,-44.0726"/>
</g>
<!-- Node3 -->
<g id="node5" class="node"><title>Node3</title>
<a xlink:href="class_m_l_pfactory.html#a2e0323210a1a086a8a646b060d4db1b3" target="_top" xlink:title="MLPfactory::makeIdentityActivationFunction">
<polygon fill="white" stroke="black" points="210.5,-0.5 210.5,-19.5 429.5,-19.5 429.5,-0.5 210.5,-0.5"/>
<text text-anchor="middle" x="320" y="-7.5" font-family="Helvetica,sans-Serif" font-size="10.00">MLPfactory::makeIdentityActivationFunction</text>
</a>
</g>
<!-- Node1&#45;&gt;Node3 -->
<g id="edge4" class="edge"><title>Node1&#45;&gt;Node3</title>
<path fill="none" stroke="midnightblue" d="M173.688,-21.9521C182.364,-21.2385 191.28,-20.5051 200.224,-19.7695"/>
<polygon fill="midnightblue" stroke="midnightblue" points="200.641,-23.2471 210.32,-18.939 200.067,-16.2706 200.641,-23.2471"/>
</g>
</g>
</svg>
