<?xml version="1.0" encoding="UTF-8" standalone="no"?>
<!DOCTYPE svg PUBLIC "-//W3C//DTD SVG 1.1//EN"
 "http://www.w3.org/Graphics/SVG/1.1/DTD/svg11.dtd">
<!-- Generated by graphviz version 2.25.20091207.0545 (20091207.0545)
 -->
<!-- Title: G Pages: 1 -->
<svg width="400pt" height="28pt"
 viewBox="0.00 0.00 400.00 28.00" xmlns="http://www.w3.org/2000/svg" xmlns:xlink="http://www.w3.org/1999/xlink">
<g id="graph1" class="graph" transform="scale(1 1) rotate(0) translate(4 24)">
<title>G</title>
<polygon fill="white" stroke="white" points="-4,5 -4,-24 397,-24 397,5 -4,5"/>
<!-- Node1 -->
<g id="node1" class="node"><title>Node1</title>
<polygon fill="#bfbfbf" stroke="black" points="0.5,-0.5 0.5,-19.5 111.5,-19.5 111.5,-0.5 0.5,-0.5"/>
<text text-anchor="middle" x="56" y="-6.5" font-family="Helvetica,sans-Serif" font-size="10.00">Container::push_back</text>
</g>
<!-- Node2 -->
<g id="node3" class="node"><title>Node2</title>
<a xlink:href="class_con_container.html#a705da30e27c1022561e32c59ce81da5e" target="_top" xlink:title="Getter of the from field of the Con objects related to ConContainer.">
<polygon fill="white" stroke="black" points="148,-0.5 148,-19.5 266,-19.5 266,-0.5 148,-0.5"/>
<text text-anchor="middle" x="207" y="-6.5" font-family="Helvetica,sans-Serif" font-size="10.00">ConContainer::getFrom</text>
</a>
</g>
<!-- Node1&#45;&gt;Node2 -->
<g id="edge2" class="edge"><title>Node1&#45;&gt;Node2</title>
<path fill="none" stroke="midnightblue" d="M121.857,-10C130.516,-10 139.348,-10 147.886,-10"/>
<polygon fill="midnightblue" stroke="midnightblue" points="121.798,-6.5001 111.798,-10 121.798,-13.5001 121.798,-6.5001"/>
</g>
<!-- Node3 -->
<g id="node5" class="node"><title>Node3</title>
<a xlink:href="class_neuron.html#a66862d729f68bc25d11af331f7a1fc51" target="_top" xlink:title="Neuron::getFrom">
<polygon fill="white" stroke="black" points="302,-0.5 302,-19.5 392,-19.5 392,-0.5 302,-0.5"/>
<text text-anchor="middle" x="347" y="-6.5" font-family="Helvetica,sans-Serif" font-size="10.00">Neuron::getFrom</text>
</a>
</g>
<!-- Node2&#45;&gt;Node3 -->
<g id="edge4" class="edge"><title>Node2&#45;&gt;Node3</title>
<path fill="none" stroke="midnightblue" d="M276.502,-10C285.161,-10 293.831,-10 301.981,-10"/>
<polygon fill="midnightblue" stroke="midnightblue" points="276.373,-6.5001 266.373,-10 276.373,-13.5001 276.373,-6.5001"/>
</g>
</g>
</svg>
