<?xml version="1.0" encoding="UTF-8" standalone="no"?>
<!DOCTYPE svg PUBLIC "-//W3C//DTD SVG 1.1//EN"
 "http://www.w3.org/Graphics/SVG/1.1/DTD/svg11.dtd">
<!-- Generated by graphviz version 2.28.0 (20110610.2051)
 -->
<!-- Title: G Pages: 1 -->
<svg width="309pt" height="452pt"
 viewBox="0.00 0.00 309.00 452.00" xmlns="http://www.w3.org/2000/svg" xmlns:xlink="http://www.w3.org/1999/xlink">
<g id="graph1" class="graph" transform="scale(1 1) rotate(0) translate(4 448)">
<title>G</title>
<polygon fill="white" stroke="white" points="-4,5 -4,-448 306,-448 306,5 -4,5"/>
<!-- Node1 -->
<g id="node1" class="node"><title>Node1</title>
<polygon fill="#bfbfbf" stroke="black" points="94.5,-0.5 94.5,-101.5 263.5,-101.5 263.5,-0.5 94.5,-0.5"/>
<text text-anchor="middle" x="179" y="-89.5" font-family="Helvetica,sans-Serif" font-size="10.00">BATCHgdNeuronTrainBehavior</text>
<polyline fill="none" stroke="black" points="94.5,-82.5 263.5,-82.5 "/>
<text text-anchor="start" x="102.5" y="-70.5" font-family="Helvetica,sans-Serif" font-size="10.00"># d_delta</text>
<text text-anchor="start" x="102.5" y="-59.5" font-family="Helvetica,sans-Serif" font-size="10.00"># d_learningRate</text>
<text text-anchor="start" x="102.5" y="-48.5" font-family="Helvetica,sans-Serif" font-size="10.00"># d_sum_delta_x</text>
<text text-anchor="start" x="102.5" y="-37.5" font-family="Helvetica,sans-Serif" font-size="10.00"># d_sum_delta_bias</text>
<polyline fill="none" stroke="black" points="94.5,-30.5 263.5,-30.5 "/>
<text text-anchor="start" x="102.5" y="-18.5" font-family="Helvetica,sans-Serif" font-size="10.00">+ singlePatternBackwardAction()</text>
<text text-anchor="start" x="102.5" y="-7.5" font-family="Helvetica,sans-Serif" font-size="10.00">+ endOfEpochAction()</text>
</g>
<!-- Node2 -->
<g id="node2" class="node"><title>Node2</title>
<a xlink:href="class_batch_neuron_train_behavior.html" target="_top" xlink:title="class BatchNeuronTrainBehavior &#45;">
<polygon fill="white" stroke="black" points="-0.5,-151 -0.5,-219 168.5,-219 168.5,-151 -0.5,-151"/>
<text text-anchor="middle" x="84" y="-207" font-family="Helvetica,sans-Serif" font-size="10.00">BatchNeuronTrainBehavior</text>
<polyline fill="none" stroke="black" points="-0.5,-200 168.5,-200 "/>
<text text-anchor="middle" x="84" y="-188" font-family="Helvetica,sans-Serif" font-size="10.00"> </text>
<polyline fill="none" stroke="black" points="-0.5,-181 168.5,-181 "/>
<text text-anchor="start" x="7.5" y="-169" font-family="Helvetica,sans-Serif" font-size="10.00">+ singlePatternBackwardAction()</text>
<text text-anchor="start" x="7.5" y="-158" font-family="Helvetica,sans-Serif" font-size="10.00">+ endOfEpochAction()</text>
</a>
</g>
<!-- Node2&#45;&gt;Node1 -->
<g id="edge2" class="edge"><title>Node2&#45;&gt;Node1</title>
<path fill="none" stroke="midnightblue" d="M113.939,-142.4C123.278,-129.425 133.67,-114.984 143.359,-101.522"/>
<polygon fill="none" stroke="midnightblue" points="110.973,-140.53 107.973,-150.691 116.655,-144.619 110.973,-140.53"/>
</g>
<!-- Node3 -->
<g id="node4" class="node"><title>Node3</title>
<a xlink:href="class_neuron_train_behavior.html" target="_top" xlink:title="class NeuronTrainBehavior &#45;">
<polygon fill="white" stroke="black" points="-0.5,-269 -0.5,-337 168.5,-337 168.5,-269 -0.5,-269"/>
<text text-anchor="middle" x="84" y="-325" font-family="Helvetica,sans-Serif" font-size="10.00">NeuronTrainBehavior</text>
<polyline fill="none" stroke="black" points="-0.5,-318 168.5,-318 "/>
<text text-anchor="start" x="7.5" y="-306" font-family="Helvetica,sans-Serif" font-size="10.00"># d_neuron</text>
<polyline fill="none" stroke="black" points="-0.5,-299 168.5,-299 "/>
<text text-anchor="start" x="7.5" y="-287" font-family="Helvetica,sans-Serif" font-size="10.00">+ singlePatternBackwardAction()</text>
<text text-anchor="start" x="7.5" y="-276" font-family="Helvetica,sans-Serif" font-size="10.00">+ endOfEpochAction()</text>
</a>
</g>
<!-- Node3&#45;&gt;Node2 -->
<g id="edge4" class="edge"><title>Node3&#45;&gt;Node2</title>
<path fill="none" stroke="midnightblue" d="M84,-258.596C84,-245.574 84,-231.502 84,-219.246"/>
<polygon fill="none" stroke="midnightblue" points="80.5001,-258.759 84,-268.759 87.5001,-258.759 80.5001,-258.759"/>
</g>
<!-- Node4 -->
<g id="node6" class="node"><title>Node4</title>
<polygon fill="white" stroke="#bfbfbf" points="186.5,-156.5 186.5,-213.5 301.5,-213.5 301.5,-156.5 186.5,-156.5"/>
<text text-anchor="middle" x="244" y="-201.5" font-family="Helvetica,sans-Serif" font-size="10.00">std::vector&lt; double &gt;</text>
<polyline fill="none" stroke="#bfbfbf" points="186.5,-194.5 301.5,-194.5 "/>
<text text-anchor="start" x="194.5" y="-182.5" font-family="Helvetica,sans-Serif" font-size="10.00">&#45; elements</text>
<polyline fill="none" stroke="#bfbfbf" points="186.5,-175.5 301.5,-175.5 "/>
<text text-anchor="middle" x="244" y="-163.5" font-family="Helvetica,sans-Serif" font-size="10.00"> </text>
</g>
<!-- Node4&#45;&gt;Node1 -->
<g id="edge6" class="edge"><title>Node4&#45;&gt;Node1</title>
<path fill="none" stroke="#9a32cd" stroke-dasharray="5,2" d="M225.762,-146.963C218.821,-132.867 210.797,-116.572 203.376,-101.503"/>
<polygon fill="#9a32cd" stroke="#9a32cd" points="230.374,-156.328 221.919,-149.345 228.165,-151.843 225.956,-147.357 225.956,-147.357 225.956,-147.357 228.165,-151.843 229.993,-145.369 230.374,-156.328 230.374,-156.328"/>
<text text-anchor="middle" x="252" y="-123.5" font-family="Helvetica,sans-Serif" font-size="10.00">d_sum_delta_x</text>
</g>
<!-- Node5 -->
<g id="node8" class="node"><title>Node5</title>
<a xlink:title="STL class.">
<polygon fill="white" stroke="#bfbfbf" points="199.5,-274.5 199.5,-331.5 288.5,-331.5 288.5,-274.5 199.5,-274.5"/>
<text text-anchor="middle" x="244" y="-319.5" font-family="Helvetica,sans-Serif" font-size="10.00">std::vector&lt; T &gt;</text>
<polyline fill="none" stroke="#bfbfbf" points="199.5,-312.5 288.5,-312.5 "/>
<text text-anchor="start" x="207.5" y="-300.5" font-family="Helvetica,sans-Serif" font-size="10.00">&#45; elements</text>
<polyline fill="none" stroke="#bfbfbf" points="199.5,-293.5 288.5,-293.5 "/>
<text text-anchor="middle" x="244" y="-281.5" font-family="Helvetica,sans-Serif" font-size="10.00"> </text>
</a>
</g>
<!-- Node5&#45;&gt;Node4 -->
<g id="edge8" class="edge"><title>Node5&#45;&gt;Node4</title>
<path fill="none" stroke="orange" stroke-dasharray="5,2" d="M244,-263.837C244,-247.417 244,-228.585 244,-213.558"/>
<polygon fill="orange" stroke="orange" points="240.5,-264.215 244,-274.215 247.5,-264.215 240.5,-264.215"/>
<text text-anchor="middle" x="268.5" y="-241.5" font-family="Helvetica,sans-Serif" font-size="10.00">&lt; double &gt;</text>
</g>
<!-- Node6 -->
<g id="node10" class="node"><title>Node6</title>
<polygon fill="white" stroke="#bfbfbf" points="229.5,-386.5 229.5,-443.5 258.5,-443.5 258.5,-386.5 229.5,-386.5"/>
<text text-anchor="middle" x="244" y="-431.5" font-family="Helvetica,sans-Serif" font-size="10.00">T</text>
<polyline fill="none" stroke="#bfbfbf" points="229.5,-424.5 258.5,-424.5 "/>
<text text-anchor="middle" x="244" y="-412.5" font-family="Helvetica,sans-Serif" font-size="10.00"> </text>
<polyline fill="none" stroke="#bfbfbf" points="229.5,-405.5 258.5,-405.5 "/>
<text text-anchor="middle" x="244" y="-393.5" font-family="Helvetica,sans-Serif" font-size="10.00"> </text>
</g>
<!-- Node6&#45;&gt;Node5 -->
<g id="edge10" class="edge"><title>Node6&#45;&gt;Node5</title>
<path fill="none" stroke="#9a32cd" stroke-dasharray="5,2" d="M244,-376.027C244,-361.478 244,-345.166 244,-331.749"/>
<polygon fill="#9a32cd" stroke="#9a32cd" points="244,-386.242 239.5,-376.242 244,-381.242 244,-376.242 244,-376.242 244,-376.242 244,-381.242 248.5,-376.242 244,-386.242 244,-386.242"/>
<text text-anchor="middle" x="265.5" y="-359.5" font-family="Helvetica,sans-Serif" font-size="10.00">elements</text>
</g>
</g>
</svg>
