<?xml version="1.0" encoding="UTF-8" standalone="no"?>
<!DOCTYPE svg PUBLIC "-//W3C//DTD SVG 1.1//EN"
 "http://www.w3.org/Graphics/SVG/1.1/DTD/svg11.dtd">
<!-- Generated by graphviz version 2.28.0 (20110610.2051)
 -->
<!-- Title: G Pages: 1 -->
<svg width="188pt" height="266pt"
 viewBox="0.00 0.00 188.00 266.00" xmlns="http://www.w3.org/2000/svg" xmlns:xlink="http://www.w3.org/1999/xlink">
<g id="graph1" class="graph" transform="scale(1 1) rotate(0) translate(4 262)">
<title>G</title>
<polygon fill="white" stroke="white" points="-4,5 -4,-262 185,-262 185,5 -4,5"/>
<!-- Node1 -->
<g id="node1" class="node"><title>Node1</title>
<polygon fill="#bfbfbf" stroke="black" points="0,-0.5 0,-57.5 180,-57.5 180,-0.5 0,-0.5"/>
<text text-anchor="middle" x="90" y="-45.5" font-family="Helvetica,sans-Serif" font-size="10.00">ADAPTgdwmNetworkTrainBehavior</text>
<polyline fill="none" stroke="black" points="0,-38.5 180,-38.5 "/>
<text text-anchor="middle" x="90" y="-26.5" font-family="Helvetica,sans-Serif" font-size="10.00"> </text>
<polyline fill="none" stroke="black" points="0,-19.5 180,-19.5 "/>
<text text-anchor="start" x="8" y="-7.5" font-family="Helvetica,sans-Serif" font-size="10.00">+ train()</text>
</g>
<!-- Node2 -->
<g id="node2" class="node"><title>Node2</title>
<a xlink:href="class_adapt_network_train_behavior.html" target="_top" xlink:title="class AdaptNetworkTrainBehavior &#45;">
<polygon fill="white" stroke="black" points="17,-94.5 17,-151.5 163,-151.5 163,-94.5 17,-94.5"/>
<text text-anchor="middle" x="90" y="-139.5" font-family="Helvetica,sans-Serif" font-size="10.00">AdaptNetworkTrainBehavior</text>
<polyline fill="none" stroke="black" points="17,-132.5 163,-132.5 "/>
<text text-anchor="middle" x="90" y="-120.5" font-family="Helvetica,sans-Serif" font-size="10.00"> </text>
<polyline fill="none" stroke="black" points="17,-113.5 163,-113.5 "/>
<text text-anchor="start" x="25" y="-101.5" font-family="Helvetica,sans-Serif" font-size="10.00">+ train()</text>
</a>
</g>
<!-- Node2&#45;&gt;Node1 -->
<g id="edge2" class="edge"><title>Node2&#45;&gt;Node1</title>
<path fill="none" stroke="midnightblue" d="M90,-84.2092C90,-75.2929 90,-65.9513 90,-57.5836"/>
<polygon fill="none" stroke="midnightblue" points="86.5001,-84.3969 90,-94.397 93.5001,-84.397 86.5001,-84.3969"/>
</g>
<!-- Node3 -->
<g id="node4" class="node"><title>Node3</title>
<a xlink:href="class_network_train_behavior.html" target="_top" xlink:title="class NetworkTrainBehavior &#45;">
<polygon fill="white" stroke="black" points="31,-189 31,-257 149,-257 149,-189 31,-189"/>
<text text-anchor="middle" x="90" y="-245" font-family="Helvetica,sans-Serif" font-size="10.00">NetworkTrainBehavior</text>
<polyline fill="none" stroke="black" points="31,-238 149,-238 "/>
<text text-anchor="start" x="39" y="-226" font-family="Helvetica,sans-Serif" font-size="10.00"># d_neuralNetwork</text>
<text text-anchor="start" x="39" y="-215" font-family="Helvetica,sans-Serif" font-size="10.00"># d_costFunction</text>
<polyline fill="none" stroke="black" points="31,-208 149,-208 "/>
<text text-anchor="start" x="39" y="-196" font-family="Helvetica,sans-Serif" font-size="10.00">+ train()</text>
</a>
</g>
<!-- Node3&#45;&gt;Node2 -->
<g id="edge4" class="edge"><title>Node3&#45;&gt;Node2</title>
<path fill="none" stroke="midnightblue" d="M90,-178.638C90,-169.455 90,-160.005 90,-151.6"/>
<polygon fill="none" stroke="midnightblue" points="86.5001,-178.822 90,-188.822 93.5001,-178.822 86.5001,-178.822"/>
</g>
</g>
</svg>
