<?xml version="1.0" encoding="UTF-8" standalone="no"?>
<!DOCTYPE svg PUBLIC "-//W3C//DTD SVG 1.1//EN"
 "http://www.w3.org/Graphics/SVG/1.1/DTD/svg11.dtd">
<!-- Generated by graphviz version 2.25.20091207.0545 (20091207.0545)
 -->
<!-- Title: G Pages: 1 -->
<svg width="528pt" height="28pt"
 viewBox="0.00 0.00 528.00 28.00" xmlns="http://www.w3.org/2000/svg" xmlns:xlink="http://www.w3.org/1999/xlink">
<g id="graph1" class="graph" transform="scale(1 1) rotate(0) translate(4 24)">
<title>G</title>
<polygon fill="white" stroke="white" points="-4,5 -4,-24 525,-24 525,5 -4,5"/>
<!-- Node1 -->
<g id="node1" class="node"><title>Node1</title>
<polygon fill="#bfbfbf" stroke="black" points="0,-0.5 0,-19.5 90,-19.5 90,-0.5 0,-0.5"/>
<text text-anchor="middle" x="45" y="-6.5" font-family="Helvetica,sans-Serif" font-size="10.00">Neuron::getFrom</text>
</g>
<!-- Node2 -->
<g id="node3" class="node"><title>Node2</title>
<a xlink:href="class_vec_con.html#aee24ad1e9f3a8af771bef14cac0bf71d" target="_top" xlink:title="Getter of the from field of the Con objects related to VecCon.">
<polygon fill="white" stroke="black" points="126.5,-0.5 126.5,-19.5 219.5,-19.5 219.5,-0.5 126.5,-0.5"/>
<text text-anchor="middle" x="173" y="-6.5" font-family="Helvetica,sans-Serif" font-size="10.00">VecCon::getFrom</text>
</a>
</g>
<!-- Node1&#45;&gt;Node2 -->
<g id="edge2" class="edge"><title>Node1&#45;&gt;Node2</title>
<path fill="none" stroke="midnightblue" d="M90.128,-10C98.5088,-10 107.364,-10 116.044,-10"/>
<polygon fill="midnightblue" stroke="midnightblue" points="116.114,-13.5001 126.114,-10 116.114,-6.5001 116.114,-13.5001"/>
</g>
<!-- Node3 -->
<g id="node5" class="node"><title>Node3</title>
<a xlink:href="class_vec_con.html#aa9a397520b07fbeead0b6d252c1ea882" target="_top" xlink:title="Size of the VecCon object.">
<polygon fill="white" stroke="black" points="256,-0.5 256,-19.5 366,-19.5 366,-0.5 256,-0.5"/>
<text text-anchor="middle" x="311" y="-6.5" font-family="Helvetica,sans-Serif" font-size="10.00">VecCon::numOfCons</text>
</a>
</g>
<!-- Node2&#45;&gt;Node3 -->
<g id="edge4" class="edge"><title>Node2&#45;&gt;Node3</title>
<path fill="none" stroke="midnightblue" d="M219.721,-10C228.038,-10 236.84,-10 245.565,-10"/>
<polygon fill="midnightblue" stroke="midnightblue" points="245.74,-13.5001 255.74,-10 245.74,-6.5001 245.74,-13.5001"/>
</g>
<!-- Node4 -->
<g id="node7" class="node"><title>Node4</title>
<a xlink:href="class_container.html#a842c3d9eca81b78b59112fde9707b091" target="_top" xlink:title="Container\&lt; Con \&gt;::size">
<polygon fill="white" stroke="black" points="402,-0.5 402,-19.5 520,-19.5 520,-0.5 402,-0.5"/>
<text text-anchor="middle" x="461" y="-6.5" font-family="Helvetica,sans-Serif" font-size="10.00">Container&lt; Con &gt;::size</text>
</a>
</g>
<!-- Node3&#45;&gt;Node4 -->
<g id="edge6" class="edge"><title>Node3&#45;&gt;Node4</title>
<path fill="none" stroke="midnightblue" d="M366.003,-10C374.416,-10 383.192,-10 391.863,-10"/>
<polygon fill="midnightblue" stroke="midnightblue" points="391.965,-13.5001 401.965,-10 391.965,-6.5001 391.965,-13.5001"/>
</g>
</g>
</svg>
