<?xml version="1.0" encoding="UTF-8" standalone="no"?>
<!DOCTYPE svg PUBLIC "-//W3C//DTD SVG 1.1//EN"
 "http://www.w3.org/Graphics/SVG/1.1/DTD/svg11.dtd">
<!-- Generated by graphviz version 2.28.0 (20110610.2051)
 -->
<!-- Title: G Pages: 1 -->
<svg width="216pt" height="66pt"
 viewBox="0.00 0.00 216.00 66.00" xmlns="http://www.w3.org/2000/svg" xmlns:xlink="http://www.w3.org/1999/xlink">
<g id="graph1" class="graph" transform="scale(1 1) rotate(0) translate(4 62)">
<title>G</title>
<polygon fill="white" stroke="white" points="-4,5 -4,-62 213,-62 213,5 -4,5"/>
<!-- Node1 -->
<g id="node1" class="node"><title>Node1</title>
<polygon fill="#bfbfbf" stroke="black" points="0,-19.5 0,-38.5 80,-38.5 80,-19.5 0,-19.5"/>
<text text-anchor="middle" x="40" y="-26.5" font-family="Helvetica,sans-Serif" font-size="10.00">Neuron::getId</text>
</g>
<!-- Node2 -->
<g id="node3" class="node"><title>Node2</title>
<a xlink:href="class_neuron.html#ac00de42d7b409ebe14fb9c67cb38a326" target="_top" xlink:title="Neuron::show">
<polygon fill="white" stroke="black" points="122,-38.5 122,-57.5 202,-57.5 202,-38.5 122,-38.5"/>
<text text-anchor="middle" x="162" y="-45.5" font-family="Helvetica,sans-Serif" font-size="10.00">Neuron::show</text>
</a>
</g>
<!-- Node1&#45;&gt;Node2 -->
<g id="edge2" class="edge"><title>Node1&#45;&gt;Node2</title>
<path fill="none" stroke="midnightblue" d="M90.4784,-36.8341C100.857,-38.4773 111.669,-40.1892 121.619,-41.7647"/>
<polygon fill="midnightblue" stroke="midnightblue" points="90.7168,-33.3283 80.2925,-35.2213 89.6221,-40.2422 90.7168,-33.3283"/>
</g>
<!-- Node3 -->
<g id="node5" class="node"><title>Node3</title>
<a xlink:href="class_neuron.html#a2953fb8e98aea1c74c4f796412644e11" target="_top" xlink:title="Neuron::validate">
<polygon fill="white" stroke="black" points="116,-0.5 116,-19.5 208,-19.5 208,-0.5 116,-0.5"/>
<text text-anchor="middle" x="162" y="-7.5" font-family="Helvetica,sans-Serif" font-size="10.00">Neuron::validate</text>
</a>
</g>
<!-- Node1&#45;&gt;Node3 -->
<g id="edge4" class="edge"><title>Node1&#45;&gt;Node3</title>
<path fill="none" stroke="midnightblue" d="M90.3681,-21.1834C98.7835,-19.8509 107.487,-18.4729 115.788,-17.1585"/>
<polygon fill="midnightblue" stroke="midnightblue" points="89.6221,-17.7578 80.2925,-22.7787 90.7168,-24.6717 89.6221,-17.7578"/>
</g>
</g>
</svg>
