<?xml version="1.0" encoding="UTF-8" standalone="no"?>
<!DOCTYPE svg PUBLIC "-//W3C//DTD SVG 1.1//EN"
 "http://www.w3.org/Graphics/SVG/1.1/DTD/svg11.dtd">
<!-- Generated by graphviz version 2.28.0 (20110610.2051)
 -->
<!-- Title: G Pages: 1 -->
<svg width="130pt" height="228pt"
 viewBox="0.00 0.00 130.00 228.00" xmlns="http://www.w3.org/2000/svg" xmlns:xlink="http://www.w3.org/1999/xlink">
<g id="graph1" class="graph" transform="scale(1 1) rotate(0) translate(4 224)">
<title>G</title>
<polygon fill="white" stroke="white" points="-4,5 -4,-224 127,-224 127,5 -4,5"/>
<!-- Node1 -->
<g id="node1" class="node"><title>Node1</title>
<polygon fill="#bfbfbf" stroke="black" points="0,-1 0,-91 122,-91 122,-1 0,-1"/>
<text text-anchor="middle" x="61" y="-79" font-family="Helvetica,sans-Serif" font-size="10.00">Container_iterator&lt; T &gt;</text>
<polyline fill="none" stroke="black" points="0,-72 122,-72 "/>
<text text-anchor="middle" x="61" y="-60" font-family="Helvetica,sans-Serif" font-size="10.00"> </text>
<polyline fill="none" stroke="black" points="0,-53 122,-53 "/>
<text text-anchor="start" x="8" y="-41" font-family="Helvetica,sans-Serif" font-size="10.00">+ first()</text>
<text text-anchor="start" x="8" y="-30" font-family="Helvetica,sans-Serif" font-size="10.00">+ next()</text>
<text text-anchor="start" x="8" y="-19" font-family="Helvetica,sans-Serif" font-size="10.00">+ isDone()</text>
<text text-anchor="start" x="8" y="-8" font-family="Helvetica,sans-Serif" font-size="10.00">+ currentItem()</text>
</g>
<!-- Node2 -->
<g id="node2" class="node"><title>Node2</title>
<a xlink:href="class_iterator_interface.html" target="_top" xlink:title="class IteratorInterface &#45;">
<polygon fill="white" stroke="black" points="15.5,-129 15.5,-219 106.5,-219 106.5,-129 15.5,-129"/>
<text text-anchor="middle" x="61" y="-207" font-family="Helvetica,sans-Serif" font-size="10.00">IteratorInterface</text>
<polyline fill="none" stroke="black" points="15.5,-200 106.5,-200 "/>
<text text-anchor="middle" x="61" y="-188" font-family="Helvetica,sans-Serif" font-size="10.00"> </text>
<polyline fill="none" stroke="black" points="15.5,-181 106.5,-181 "/>
<text text-anchor="start" x="23.5" y="-169" font-family="Helvetica,sans-Serif" font-size="10.00">+ first()</text>
<text text-anchor="start" x="23.5" y="-158" font-family="Helvetica,sans-Serif" font-size="10.00">+ next()</text>
<text text-anchor="start" x="23.5" y="-147" font-family="Helvetica,sans-Serif" font-size="10.00">+ isDone()</text>
<text text-anchor="start" x="23.5" y="-136" font-family="Helvetica,sans-Serif" font-size="10.00">+ currentItem()</text>
</a>
</g>
<!-- Node2&#45;&gt;Node1 -->
<g id="edge2" class="edge"><title>Node2&#45;&gt;Node1</title>
<path fill="none" stroke="midnightblue" d="M61,-118.726C61,-109.556 61,-100.133 61,-91.2568"/>
<polygon fill="none" stroke="midnightblue" points="57.5001,-118.931 61,-128.931 64.5001,-118.931 57.5001,-118.931"/>
</g>
</g>
</svg>
