<?xml version="1.0" encoding="UTF-8" standalone="no"?>
<!DOCTYPE svg PUBLIC "-//W3C//DTD SVG 1.1//EN"
 "http://www.w3.org/Graphics/SVG/1.1/DTD/svg11.dtd">
<!-- Generated by graphviz version 2.28.0 (20110610.2051)
 -->
<!-- Title: G Pages: 1 -->
<svg width="122pt" height="160pt"
 viewBox="0.00 0.00 122.00 160.00" xmlns="http://www.w3.org/2000/svg" xmlns:xlink="http://www.w3.org/1999/xlink">
<g id="graph1" class="graph" transform="scale(1 1) rotate(0) translate(4 156)">
<title>G</title>
<polygon fill="white" stroke="white" points="-4,5 -4,-156 119,-156 119,5 -4,5"/>
<!-- Node1 -->
<g id="node1" class="node"><title>Node1</title>
<polygon fill="#bfbfbf" stroke="black" points="-0.5,-0.5 -0.5,-57.5 114.5,-57.5 114.5,-0.5 -0.5,-0.5"/>
<text text-anchor="middle" x="57" y="-45.5" font-family="Helvetica,sans-Serif" font-size="10.00">AdaptBehavior</text>
<polyline fill="none" stroke="black" points="-0.5,-38.5 114.5,-38.5 "/>
<text text-anchor="middle" x="57" y="-26.5" font-family="Helvetica,sans-Serif" font-size="10.00"> </text>
<polyline fill="none" stroke="black" points="-0.5,-19.5 114.5,-19.5 "/>
<text text-anchor="start" x="7.5" y="-7.5" font-family="Helvetica,sans-Serif" font-size="10.00">+ adjustParameters()</text>
</g>
<!-- Node2 -->
<g id="node2" class="node"><title>Node2</title>
<a xlink:href="class_training_behavior.html" target="_top" xlink:title="class TrainingBehavior &#45;">
<polygon fill="white" stroke="black" points="-0.5,-94.5 -0.5,-151.5 114.5,-151.5 114.5,-94.5 -0.5,-94.5"/>
<text text-anchor="middle" x="57" y="-139.5" font-family="Helvetica,sans-Serif" font-size="10.00">TrainingBehavior</text>
<polyline fill="none" stroke="black" points="-0.5,-132.5 114.5,-132.5 "/>
<text text-anchor="middle" x="57" y="-120.5" font-family="Helvetica,sans-Serif" font-size="10.00"> </text>
<polyline fill="none" stroke="black" points="-0.5,-113.5 114.5,-113.5 "/>
<text text-anchor="start" x="7.5" y="-101.5" font-family="Helvetica,sans-Serif" font-size="10.00">+ adjustParameters()</text>
</a>
</g>
<!-- Node2&#45;&gt;Node1 -->
<g id="edge2" class="edge"><title>Node2&#45;&gt;Node1</title>
<path fill="none" stroke="midnightblue" d="M57,-84.2092C57,-75.2929 57,-65.9513 57,-57.5836"/>
<polygon fill="none" stroke="midnightblue" points="53.5001,-84.3969 57,-94.397 60.5001,-84.397 53.5001,-84.3969"/>
</g>
</g>
</svg>
