<?xml version="1.0" encoding="UTF-8" standalone="no"?>
<!DOCTYPE svg PUBLIC "-//W3C//DTD SVG 1.1//EN"
 "http://www.w3.org/Graphics/SVG/1.1/DTD/svg11.dtd">
<!-- Generated by graphviz version 2.28.0 (20110610.2051)
 -->
<!-- Title: G Pages: 1 -->
<svg width="409pt" height="428pt"
 viewBox="0.00 0.00 409.00 428.00" xmlns="http://www.w3.org/2000/svg" xmlns:xlink="http://www.w3.org/1999/xlink">
<g id="graph1" class="graph" transform="scale(1 1) rotate(0) translate(4 424)">
<title>G</title>
<polygon fill="white" stroke="white" points="-4,5 -4,-424 406,-424 406,5 -4,5"/>
<!-- Node1 -->
<g id="node1" class="node"><title>Node1</title>
<polygon fill="#bfbfbf" stroke="black" points="116.5,-106.5 116.5,-207.5 285.5,-207.5 285.5,-106.5 116.5,-106.5"/>
<text text-anchor="middle" x="201" y="-195.5" font-family="Helvetica,sans-Serif" font-size="10.00">BATCHgdNeuronTrainBehavior</text>
<polyline fill="none" stroke="black" points="116.5,-188.5 285.5,-188.5 "/>
<text text-anchor="start" x="124.5" y="-176.5" font-family="Helvetica,sans-Serif" font-size="10.00"># d_delta</text>
<text text-anchor="start" x="124.5" y="-165.5" font-family="Helvetica,sans-Serif" font-size="10.00"># d_learningRate</text>
<text text-anchor="start" x="124.5" y="-154.5" font-family="Helvetica,sans-Serif" font-size="10.00"># d_sum_delta_x</text>
<text text-anchor="start" x="124.5" y="-143.5" font-family="Helvetica,sans-Serif" font-size="10.00"># d_sum_delta_bias</text>
<polyline fill="none" stroke="black" points="116.5,-136.5 285.5,-136.5 "/>
<text text-anchor="start" x="124.5" y="-124.5" font-family="Helvetica,sans-Serif" font-size="10.00">+ singlePatternBackwardAction()</text>
<text text-anchor="start" x="124.5" y="-113.5" font-family="Helvetica,sans-Serif" font-size="10.00">+ endOfEpochAction()</text>
</g>
<!-- Node4 -->
<g id="node7" class="node"><title>Node4</title>
<a xlink:href="class_b_a_t_c_hgd_hidden_neuron_train_behavior.html" target="_top" xlink:title="class BATCHgdHiddenNeuronTrainBehavior &#45;">
<polygon fill="white" stroke="black" points="0,-1 0,-69 192,-69 192,-1 0,-1"/>
<text text-anchor="middle" x="96" y="-57" font-family="Helvetica,sans-Serif" font-size="10.00">BATCHgdHiddenNeuronTrainBehavior</text>
<polyline fill="none" stroke="black" points="0,-50 192,-50 "/>
<text text-anchor="middle" x="96" y="-38" font-family="Helvetica,sans-Serif" font-size="10.00"> </text>
<polyline fill="none" stroke="black" points="0,-31 192,-31 "/>
<text text-anchor="start" x="8" y="-19" font-family="Helvetica,sans-Serif" font-size="10.00">&#45; singlePatternBackwardAction()</text>
<text text-anchor="start" x="8" y="-8" font-family="Helvetica,sans-Serif" font-size="10.00">&#45; endOfEpochAction()</text>
</a>
</g>
<!-- Node1&#45;&gt;Node4 -->
<g id="edge6" class="edge"><title>Node1&#45;&gt;Node4</title>
<path fill="none" stroke="midnightblue" d="M150.956,-98.8073C142.11,-88.6975 133.171,-78.4811 125.146,-69.3096"/>
<polygon fill="none" stroke="midnightblue" points="148.467,-101.278 157.686,-106.499 153.735,-96.668 148.467,-101.278"/>
</g>
<!-- Node5 -->
<g id="node9" class="node"><title>Node5</title>
<a xlink:href="class_b_a_t_c_hgd_output_neuron_train_behavior.html" target="_top" xlink:title="class BATCHgdOutputNeuronTrainBehavior &#45;">
<polygon fill="white" stroke="black" points="210.5,-1 210.5,-69 401.5,-69 401.5,-1 210.5,-1"/>
<text text-anchor="middle" x="306" y="-57" font-family="Helvetica,sans-Serif" font-size="10.00">BATCHgdOutputNeuronTrainBehavior</text>
<polyline fill="none" stroke="black" points="210.5,-50 401.5,-50 "/>
<text text-anchor="start" x="218.5" y="-38" font-family="Helvetica,sans-Serif" font-size="10.00"># d_costFunction</text>
<polyline fill="none" stroke="black" points="210.5,-31 401.5,-31 "/>
<text text-anchor="start" x="218.5" y="-19" font-family="Helvetica,sans-Serif" font-size="10.00">&#45; singlePatternBackwardAction()</text>
<text text-anchor="start" x="218.5" y="-8" font-family="Helvetica,sans-Serif" font-size="10.00">&#45; endOfEpochAction()</text>
</a>
</g>
<!-- Node1&#45;&gt;Node5 -->
<g id="edge8" class="edge"><title>Node1&#45;&gt;Node5</title>
<path fill="none" stroke="midnightblue" d="M251.044,-98.8073C259.89,-88.6975 268.829,-78.4811 276.854,-69.3096"/>
<polygon fill="none" stroke="midnightblue" points="248.265,-96.668 244.314,-106.499 253.533,-101.278 248.265,-96.668"/>
</g>
<!-- Node2 -->
<g id="node2" class="node"><title>Node2</title>
<a xlink:href="class_batch_neuron_train_behavior.html" target="_top" xlink:title="class BatchNeuronTrainBehavior &#45;">
<polygon fill="white" stroke="black" points="116.5,-245 116.5,-313 285.5,-313 285.5,-245 116.5,-245"/>
<text text-anchor="middle" x="201" y="-301" font-family="Helvetica,sans-Serif" font-size="10.00">BatchNeuronTrainBehavior</text>
<polyline fill="none" stroke="black" points="116.5,-294 285.5,-294 "/>
<text text-anchor="middle" x="201" y="-282" font-family="Helvetica,sans-Serif" font-size="10.00"> </text>
<polyline fill="none" stroke="black" points="116.5,-275 285.5,-275 "/>
<text text-anchor="start" x="124.5" y="-263" font-family="Helvetica,sans-Serif" font-size="10.00">+ singlePatternBackwardAction()</text>
<text text-anchor="start" x="124.5" y="-252" font-family="Helvetica,sans-Serif" font-size="10.00">+ endOfEpochAction()</text>
</a>
</g>
<!-- Node2&#45;&gt;Node1 -->
<g id="edge2" class="edge"><title>Node2&#45;&gt;Node1</title>
<path fill="none" stroke="midnightblue" d="M201,-234.831C201,-226.01 201,-216.661 201,-207.636"/>
<polygon fill="none" stroke="midnightblue" points="197.5,-234.892 201,-244.892 204.5,-234.892 197.5,-234.892"/>
</g>
<!-- Node3 -->
<g id="node4" class="node"><title>Node3</title>
<a xlink:href="class_neuron_train_behavior.html" target="_top" xlink:title="class NeuronTrainBehavior &#45;">
<polygon fill="white" stroke="black" points="116.5,-351 116.5,-419 285.5,-419 285.5,-351 116.5,-351"/>
<text text-anchor="middle" x="201" y="-407" font-family="Helvetica,sans-Serif" font-size="10.00">NeuronTrainBehavior</text>
<polyline fill="none" stroke="black" points="116.5,-400 285.5,-400 "/>
<text text-anchor="start" x="124.5" y="-388" font-family="Helvetica,sans-Serif" font-size="10.00"># d_neuron</text>
<polyline fill="none" stroke="black" points="116.5,-381 285.5,-381 "/>
<text text-anchor="start" x="124.5" y="-369" font-family="Helvetica,sans-Serif" font-size="10.00">+ singlePatternBackwardAction()</text>
<text text-anchor="start" x="124.5" y="-358" font-family="Helvetica,sans-Serif" font-size="10.00">+ endOfEpochAction()</text>
</a>
</g>
<!-- Node3&#45;&gt;Node2 -->
<g id="edge4" class="edge"><title>Node3&#45;&gt;Node2</title>
<path fill="none" stroke="midnightblue" d="M201,-340.674C201,-331.502 201,-321.961 201,-313.234"/>
<polygon fill="none" stroke="midnightblue" points="197.5,-340.808 201,-350.808 204.5,-340.808 197.5,-340.808"/>
</g>
</g>
</svg>
