<?xml version="1.0" encoding="UTF-8" standalone="no"?>
<!DOCTYPE svg PUBLIC "-//W3C//DTD SVG 1.1//EN"
 "http://www.w3.org/Graphics/SVG/1.1/DTD/svg11.dtd">
<!-- Generated by graphviz version 2.25.20091207.0545 (20091207.0545)
 -->
<!-- Title: G Pages: 1 -->
<svg width="518pt" height="180pt"
 viewBox="0.00 0.00 518.00 180.00" xmlns="http://www.w3.org/2000/svg" xmlns:xlink="http://www.w3.org/1999/xlink">
<g id="graph1" class="graph" transform="scale(1 1) rotate(0) translate(4 176)">
<title>G</title>
<polygon fill="white" stroke="white" points="-4,5 -4,-176 515,-176 515,5 -4,5"/>
<!-- Node1 -->
<g id="node1" class="node"><title>Node1</title>
<polygon fill="#bfbfbf" stroke="black" points="0,-57.5 0,-76.5 110,-76.5 110,-57.5 0,-57.5"/>
<text text-anchor="middle" x="55" y="-63.5" font-family="Helvetica,sans-Serif" font-size="10.00">VecCon::numOfCons</text>
</g>
<!-- Node2 -->
<g id="node3" class="node"><title>Node2</title>
<a xlink:href="class_vec_con.html#ad9dc02872d29a1a58f5079457c3f8001" target="_top" xlink:title="Getter of the from field of the Con objects related to VecCon.">
<polygon fill="white" stroke="black" points="152.5,-133.5 152.5,-152.5 245.5,-152.5 245.5,-133.5 152.5,-133.5"/>
<text text-anchor="middle" x="199" y="-139.5" font-family="Helvetica,sans-Serif" font-size="10.00">VecCon::getFrom</text>
</a>
</g>
<!-- Node1&#45;&gt;Node2 -->
<g id="edge2" class="edge"><title>Node1&#45;&gt;Node2</title>
<path fill="none" stroke="midnightblue" d="M82.3887,-81.4551C111.318,-96.7232 156.104,-120.36 180.91,-133.453"/>
<polygon fill="midnightblue" stroke="midnightblue" points="83.7152,-78.1977 73.2377,-76.6255 80.4479,-84.3884 83.7152,-78.1977"/>
</g>
<!-- Node4 -->
<g id="node7" class="node"><title>Node4</title>
<a xlink:href="class_vec_con.html#a03d5dde143e166e68b01c9596573eb5f" target="_top" xlink:title="Getter of the Id values of the vector of Cons.">
<polygon fill="white" stroke="black" points="159.5,-76.5 159.5,-95.5 238.5,-95.5 238.5,-76.5 159.5,-76.5"/>
<text text-anchor="middle" x="199" y="-82.5" font-family="Helvetica,sans-Serif" font-size="10.00">VecCon::getId</text>
</a>
</g>
<!-- Node1&#45;&gt;Node4 -->
<g id="edge6" class="edge"><title>Node1&#45;&gt;Node4</title>
<path fill="none" stroke="midnightblue" d="M120.339,-75.6211C133.634,-77.3753 147.234,-79.1698 159.306,-80.7626"/>
<polygon fill="midnightblue" stroke="midnightblue" points="120.634,-72.1298 110.262,-74.2916 119.719,-79.0697 120.634,-72.1298"/>
</g>
<!-- Node8 -->
<g id="node15" class="node"><title>Node8</title>
<a xlink:href="class_vec_con.html#aafa37c30d566b8784ac84d23a14b5638" target="_top" xlink:title="Getter of the weight field of the Con objects related to VecCon.">
<polygon fill="white" stroke="black" points="148,-38.5 148,-57.5 250,-57.5 250,-38.5 148,-38.5"/>
<text text-anchor="middle" x="199" y="-44.5" font-family="Helvetica,sans-Serif" font-size="10.00">VecCon::getWeight</text>
</a>
</g>
<!-- Node1&#45;&gt;Node8 -->
<g id="edge14" class="edge"><title>Node1&#45;&gt;Node8</title>
<path fill="none" stroke="midnightblue" d="M120.24,-58.3919C129.518,-57.1678 138.946,-55.9238 147.902,-54.7421"/>
<polygon fill="midnightblue" stroke="midnightblue" points="119.719,-54.9303 110.262,-59.7084 120.634,-61.8702 119.719,-54.9303"/>
</g>
<!-- Node10 -->
<g id="node19" class="node"><title>Node10</title>
<a xlink:href="class_neuron.html#ae447dce39ed04581609a83d742b585d1" target="_top" xlink:title="Neuron::numOfCons">
<polygon fill="white" stroke="black" points="146,-0.5 146,-19.5 252,-19.5 252,-0.5 146,-0.5"/>
<text text-anchor="middle" x="199" y="-6.5" font-family="Helvetica,sans-Serif" font-size="10.00">Neuron::numOfCons</text>
</a>
</g>
<!-- Node1&#45;&gt;Node10 -->
<g id="edge18" class="edge"><title>Node1&#45;&gt;Node10</title>
<path fill="none" stroke="midnightblue" d="M86.6113,-53.3304C104.041,-45.9122 126.118,-36.7092 146,-29 154.202,-25.8196 163.188,-22.5271 171.392,-19.5944"/>
<polygon fill="midnightblue" stroke="midnightblue" points="84.7562,-50.3171 76.9379,-57.4672 87.5086,-56.7533 84.7562,-50.3171"/>
</g>
<!-- Node3 -->
<g id="node5" class="node"><title>Node3</title>
<a xlink:href="class_neuron.html#a49a8d313aacc9b2f737343e1c3be75dc" target="_top" xlink:title="Neuron::getFrom">
<polygon fill="white" stroke="black" points="292,-152.5 292,-171.5 382,-171.5 382,-152.5 292,-152.5"/>
<text text-anchor="middle" x="337" y="-158.5" font-family="Helvetica,sans-Serif" font-size="10.00">Neuron::getFrom</text>
</a>
</g>
<!-- Node2&#45;&gt;Node3 -->
<g id="edge4" class="edge"><title>Node2&#45;&gt;Node3</title>
<path fill="none" stroke="midnightblue" d="M255.658,-150.801C267.674,-152.455 280.205,-154.18 291.73,-155.767"/>
<polygon fill="midnightblue" stroke="midnightblue" points="256.104,-147.329 245.721,-149.433 255.15,-154.264 256.104,-147.329"/>
</g>
<!-- Node5 -->
<g id="node9" class="node"><title>Node5</title>
<a xlink:href="class_neuron.html#aac7d538b4a5087f730ba80f19852bced" target="_top" xlink:title="Neuron::getConId">
<polygon fill="white" stroke="black" points="290.5,-114.5 290.5,-133.5 383.5,-133.5 383.5,-114.5 290.5,-114.5"/>
<text text-anchor="middle" x="337" y="-120.5" font-family="Helvetica,sans-Serif" font-size="10.00">Neuron::getConId</text>
</a>
</g>
<!-- Node4&#45;&gt;Node5 -->
<g id="edge8" class="edge"><title>Node4&#45;&gt;Node5</title>
<path fill="none" stroke="midnightblue" d="M243.473,-98.2462C262.495,-103.484 284.375,-109.509 302.188,-114.414"/>
<polygon fill="midnightblue" stroke="midnightblue" points="244.394,-94.8695 233.823,-95.589 242.535,-101.618 244.394,-94.8695"/>
</g>
<!-- Node6 -->
<g id="node11" class="node"><title>Node6</title>
<a xlink:href="class_vec_con.html#af008396d3982fb7ccf1af9618b89937c" target="_top" xlink:title="Object validator.">
<polygon fill="white" stroke="black" points="291.5,-76.5 291.5,-95.5 382.5,-95.5 382.5,-76.5 291.5,-76.5"/>
<text text-anchor="middle" x="337" y="-82.5" font-family="Helvetica,sans-Serif" font-size="10.00">VecCon::validate</text>
</a>
</g>
<!-- Node4&#45;&gt;Node6 -->
<g id="edge10" class="edge"><title>Node4&#45;&gt;Node6</title>
<path fill="none" stroke="midnightblue" d="M248.841,-86C262.641,-86 277.552,-86 291.115,-86"/>
<polygon fill="midnightblue" stroke="midnightblue" points="248.545,-82.5001 238.545,-86 248.545,-89.5001 248.545,-82.5001"/>
</g>
<!-- Node7 -->
<g id="node13" class="node"><title>Node7</title>
<a xlink:href="class_neuron.html#a95327aa80a9ec949491f214a0c159b5a" target="_top" xlink:title="Neuron::validate">
<polygon fill="white" stroke="black" points="422.5,-76.5 422.5,-95.5 509.5,-95.5 509.5,-76.5 422.5,-76.5"/>
<text text-anchor="middle" x="466" y="-82.5" font-family="Helvetica,sans-Serif" font-size="10.00">Neuron::validate</text>
</a>
</g>
<!-- Node6&#45;&gt;Node7 -->
<g id="edge12" class="edge"><title>Node6&#45;&gt;Node7</title>
<path fill="none" stroke="midnightblue" d="M392.991,-86C402.86,-86 413,-86 422.464,-86"/>
<polygon fill="midnightblue" stroke="midnightblue" points="392.844,-82.5001 382.844,-86 392.844,-89.5001 392.844,-82.5001"/>
</g>
<!-- Node9 -->
<g id="node17" class="node"><title>Node9</title>
<a xlink:href="class_neuron.html#a3349c0a2053e35afa5b7036bb816f8c6" target="_top" xlink:title="Neuron::getWeight">
<polygon fill="white" stroke="black" points="288,-38.5 288,-57.5 386,-57.5 386,-38.5 288,-38.5"/>
<text text-anchor="middle" x="337" y="-44.5" font-family="Helvetica,sans-Serif" font-size="10.00">Neuron::getWeight</text>
</a>
</g>
<!-- Node8&#45;&gt;Node9 -->
<g id="edge16" class="edge"><title>Node8&#45;&gt;Node9</title>
<path fill="none" stroke="midnightblue" d="M260.588,-48C269.72,-48 279.028,-48 287.861,-48"/>
<polygon fill="midnightblue" stroke="midnightblue" points="260.386,-44.5001 250.386,-48 260.386,-51.5001 260.386,-44.5001"/>
</g>
<!-- Node11 -->
<g id="node21" class="node"><title>Node11</title>
<a xlink:href="class_neuron.html#a255c3597520c730d798218f7174eff1b" target="_top" xlink:title="Neuron::show">
<polygon fill="white" stroke="black" points="298.5,-0.5 298.5,-19.5 375.5,-19.5 375.5,-0.5 298.5,-0.5"/>
<text text-anchor="middle" x="337" y="-6.5" font-family="Helvetica,sans-Serif" font-size="10.00">Neuron::show</text>
</a>
</g>
<!-- Node10&#45;&gt;Node11 -->
<g id="edge20" class="edge"><title>Node10&#45;&gt;Node11</title>
<path fill="none" stroke="midnightblue" d="M262.531,-10C274.75,-10 287.2,-10 298.334,-10"/>
<polygon fill="midnightblue" stroke="midnightblue" points="262.354,-6.5001 252.354,-10 262.354,-13.5001 262.354,-6.5001"/>
</g>
</g>
</svg>
