<?xml version="1.0" encoding="UTF-8" standalone="no"?>
<!DOCTYPE svg PUBLIC "-//W3C//DTD SVG 1.1//EN"
 "http://www.w3.org/Graphics/SVG/1.1/DTD/svg11.dtd">
<!-- Generated by graphviz version 2.25.20091207.0545 (20091207.0545)
 -->
<!-- Title: G Pages: 1 -->
<svg width="390pt" height="104pt"
 viewBox="0.00 0.00 390.00 104.00" xmlns="http://www.w3.org/2000/svg" xmlns:xlink="http://www.w3.org/1999/xlink">
<g id="graph1" class="graph" transform="scale(1 1) rotate(0) translate(4 100)">
<title>G</title>
<polygon fill="white" stroke="white" points="-4,5 -4,-100 387,-100 387,5 -4,5"/>
<!-- Node1 -->
<g id="node1" class="node"><title>Node1</title>
<polygon fill="#bfbfbf" stroke="black" points="0,-38.5 0,-57.5 102,-57.5 102,-38.5 0,-38.5"/>
<text text-anchor="middle" x="51" y="-44.5" font-family="Helvetica,sans-Serif" font-size="10.00">VecCon::setWeight</text>
</g>
<!-- Node2 -->
<g id="node3" class="node"><title>Node2</title>
<a xlink:href="class_vec_con.html#ac911eb9746bc1d7620becd7cd54bb6c0" target="_top" xlink:title="Selects the specified elements from the vecCom object.">
<polygon fill="white" stroke="black" points="138,-38.5 138,-57.5 222,-57.5 222,-38.5 138,-38.5"/>
<text text-anchor="middle" x="180" y="-44.5" font-family="Helvetica,sans-Serif" font-size="10.00">VecCon::select</text>
</a>
</g>
<!-- Node1&#45;&gt;Node2 -->
<g id="edge2" class="edge"><title>Node1&#45;&gt;Node2</title>
<path fill="none" stroke="midnightblue" d="M102.355,-48C110.747,-48 119.449,-48 127.859,-48"/>
<polygon fill="midnightblue" stroke="midnightblue" points="127.934,-51.5001 137.933,-48 127.933,-44.5001 127.934,-51.5001"/>
</g>
<!-- Node3 -->
<g id="node5" class="node"><title>Node3</title>
<a xlink:href="class_container.html#a9ad6802d12bf5f48400bc346de37ad0f" target="_top" xlink:title="Container\&lt; Con \&gt;::begin">
<polygon fill="white" stroke="black" points="258.5,-76.5 258.5,-95.5 381.5,-95.5 381.5,-76.5 258.5,-76.5"/>
<text text-anchor="middle" x="320" y="-82.5" font-family="Helvetica,sans-Serif" font-size="10.00">Container&lt; Con &gt;::begin</text>
</a>
</g>
<!-- Node2&#45;&gt;Node3 -->
<g id="edge4" class="edge"><title>Node2&#45;&gt;Node3</title>
<path fill="none" stroke="midnightblue" d="M215.328,-57.589C233.401,-62.4944 255.598,-68.5196 274.895,-73.7571"/>
<polygon fill="midnightblue" stroke="midnightblue" points="274.116,-77.1723 284.683,-76.4141 275.949,-70.4167 274.116,-77.1723"/>
</g>
<!-- Node4 -->
<g id="node7" class="node"><title>Node4</title>
<a xlink:href="class_container.html#a769250b7546b782007f1adaba8a07336" target="_top" xlink:title="Container\&lt; Con \&gt;::end">
<polygon fill="white" stroke="black" points="262,-38.5 262,-57.5 378,-57.5 378,-38.5 262,-38.5"/>
<text text-anchor="middle" x="320" y="-44.5" font-family="Helvetica,sans-Serif" font-size="10.00">Container&lt; Con &gt;::end</text>
</a>
</g>
<!-- Node2&#45;&gt;Node4 -->
<g id="edge6" class="edge"><title>Node2&#45;&gt;Node4</title>
<path fill="none" stroke="midnightblue" d="M222.005,-48C231.428,-48 241.662,-48 251.844,-48"/>
<polygon fill="midnightblue" stroke="midnightblue" points="251.977,-51.5001 261.976,-48 251.976,-44.5001 251.977,-51.5001"/>
</g>
<!-- Node5 -->
<g id="node9" class="node"><title>Node5</title>
<a xlink:href="class_container.html#a842c3d9eca81b78b59112fde9707b091" target="_top" xlink:title="Container\&lt; Con \&gt;::size">
<polygon fill="white" stroke="black" points="261,-0.5 261,-19.5 379,-19.5 379,-0.5 261,-0.5"/>
<text text-anchor="middle" x="320" y="-6.5" font-family="Helvetica,sans-Serif" font-size="10.00">Container&lt; Con &gt;::size</text>
</a>
</g>
<!-- Node2&#45;&gt;Node5 -->
<g id="edge8" class="edge"><title>Node2&#45;&gt;Node5</title>
<path fill="none" stroke="midnightblue" d="M215.328,-38.411C233.401,-33.5056 255.598,-27.4804 274.895,-22.2429"/>
<polygon fill="midnightblue" stroke="midnightblue" points="275.949,-25.5833 284.683,-19.5859 274.116,-18.8277 275.949,-25.5833"/>
</g>
</g>
</svg>
