<?xml version="1.0" encoding="UTF-8" standalone="no"?>
<!DOCTYPE svg PUBLIC "-//W3C//DTD SVG 1.1//EN"
 "http://www.w3.org/Graphics/SVG/1.1/DTD/svg11.dtd">
<!-- Generated by graphviz version 2.28.0 (20110610.2051)
 -->
<!-- Title: G Pages: 1 -->
<svg width="336pt" height="464pt"
 viewBox="0.00 0.00 336.00 464.00" xmlns="http://www.w3.org/2000/svg" xmlns:xlink="http://www.w3.org/1999/xlink">
<g id="graph1" class="graph" transform="scale(1 1) rotate(0) translate(4 460)">
<title>G</title>
<polygon fill="white" stroke="white" points="-4,5 -4,-460 333,-460 333,5 -4,5"/>
<!-- Node1 -->
<g id="node1" class="node"><title>Node1</title>
<polygon fill="#bfbfbf" stroke="black" points="92,-1 92,-113 266,-113 266,-1 92,-1"/>
<text text-anchor="middle" x="179" y="-101" font-family="Helvetica,sans-Serif" font-size="10.00">ADAPTgdwmNeuronTrainBehavior</text>
<polyline fill="none" stroke="black" points="92,-94 266,-94 "/>
<text text-anchor="start" x="100" y="-82" font-family="Helvetica,sans-Serif" font-size="10.00"># d_delta</text>
<text text-anchor="start" x="100" y="-71" font-family="Helvetica,sans-Serif" font-size="10.00"># d_learningRate</text>
<text text-anchor="start" x="100" y="-60" font-family="Helvetica,sans-Serif" font-size="10.00"># d_momentum</text>
<text text-anchor="start" x="100" y="-49" font-family="Helvetica,sans-Serif" font-size="10.00"># d_formerWeightChange</text>
<text text-anchor="start" x="100" y="-38" font-family="Helvetica,sans-Serif" font-size="10.00"># d_formerBiasChange</text>
<polyline fill="none" stroke="black" points="92,-31 266,-31 "/>
<text text-anchor="start" x="100" y="-19" font-family="Helvetica,sans-Serif" font-size="10.00">+ singlePatternBackwardAction()</text>
<text text-anchor="start" x="100" y="-8" font-family="Helvetica,sans-Serif" font-size="10.00">+ endOfEpochAction()</text>
</g>
<!-- Node2 -->
<g id="node2" class="node"><title>Node2</title>
<a xlink:href="class_adapt_neuron_train_behavior.html" target="_top" xlink:title="class AdaptNeuronTrainBehavior &#45;">
<polygon fill="white" stroke="black" points="-0.5,-163 -0.5,-231 168.5,-231 168.5,-163 -0.5,-163"/>
<text text-anchor="middle" x="84" y="-219" font-family="Helvetica,sans-Serif" font-size="10.00">AdaptNeuronTrainBehavior</text>
<polyline fill="none" stroke="black" points="-0.5,-212 168.5,-212 "/>
<text text-anchor="middle" x="84" y="-200" font-family="Helvetica,sans-Serif" font-size="10.00"> </text>
<polyline fill="none" stroke="black" points="-0.5,-193 168.5,-193 "/>
<text text-anchor="start" x="7.5" y="-181" font-family="Helvetica,sans-Serif" font-size="10.00">+ singlePatternBackwardAction()</text>
<text text-anchor="start" x="7.5" y="-170" font-family="Helvetica,sans-Serif" font-size="10.00">+ endOfEpochAction()</text>
</a>
</g>
<!-- Node2&#45;&gt;Node1 -->
<g id="edge2" class="edge"><title>Node2&#45;&gt;Node1</title>
<path fill="none" stroke="midnightblue" d="M112.478,-154.631C121.452,-141.596 131.51,-126.985 141.035,-113.149"/>
<polygon fill="none" stroke="midnightblue" points="109.542,-152.724 106.755,-162.946 115.308,-156.693 109.542,-152.724"/>
</g>
<!-- Node3 -->
<g id="node4" class="node"><title>Node3</title>
<a xlink:href="class_neuron_train_behavior.html" target="_top" xlink:title="class NeuronTrainBehavior &#45;">
<polygon fill="white" stroke="black" points="-0.5,-281 -0.5,-349 168.5,-349 168.5,-281 -0.5,-281"/>
<text text-anchor="middle" x="84" y="-337" font-family="Helvetica,sans-Serif" font-size="10.00">NeuronTrainBehavior</text>
<polyline fill="none" stroke="black" points="-0.5,-330 168.5,-330 "/>
<text text-anchor="start" x="7.5" y="-318" font-family="Helvetica,sans-Serif" font-size="10.00"># d_neuron</text>
<polyline fill="none" stroke="black" points="-0.5,-311 168.5,-311 "/>
<text text-anchor="start" x="7.5" y="-299" font-family="Helvetica,sans-Serif" font-size="10.00">+ singlePatternBackwardAction()</text>
<text text-anchor="start" x="7.5" y="-288" font-family="Helvetica,sans-Serif" font-size="10.00">+ endOfEpochAction()</text>
</a>
</g>
<!-- Node3&#45;&gt;Node2 -->
<g id="edge4" class="edge"><title>Node3&#45;&gt;Node2</title>
<path fill="none" stroke="midnightblue" d="M84,-270.596C84,-257.574 84,-243.502 84,-231.246"/>
<polygon fill="none" stroke="midnightblue" points="80.5001,-270.759 84,-280.759 87.5001,-270.759 80.5001,-270.759"/>
</g>
<!-- Node4 -->
<g id="node6" class="node"><title>Node4</title>
<polygon fill="white" stroke="#bfbfbf" points="186.5,-168.5 186.5,-225.5 301.5,-225.5 301.5,-168.5 186.5,-168.5"/>
<text text-anchor="middle" x="244" y="-213.5" font-family="Helvetica,sans-Serif" font-size="10.00">std::vector&lt; double &gt;</text>
<polyline fill="none" stroke="#bfbfbf" points="186.5,-206.5 301.5,-206.5 "/>
<text text-anchor="start" x="194.5" y="-194.5" font-family="Helvetica,sans-Serif" font-size="10.00">&#45; elements</text>
<polyline fill="none" stroke="#bfbfbf" points="186.5,-187.5 301.5,-187.5 "/>
<text text-anchor="middle" x="244" y="-175.5" font-family="Helvetica,sans-Serif" font-size="10.00"> </text>
</g>
<!-- Node4&#45;&gt;Node1 -->
<g id="edge6" class="edge"><title>Node4&#45;&gt;Node1</title>
<path fill="none" stroke="#9a32cd" stroke-dasharray="5,2" d="M226.604,-159.067C219.974,-144.992 212.267,-128.628 205.009,-113.219"/>
<polygon fill="#9a32cd" stroke="#9a32cd" points="231.003,-168.405 222.67,-161.276 228.872,-163.882 226.741,-159.359 226.741,-159.359 226.741,-159.359 228.872,-163.882 230.812,-157.441 231.003,-168.405 231.003,-168.405"/>
<text text-anchor="middle" x="273.5" y="-135.5" font-family="Helvetica,sans-Serif" font-size="10.00">d_formerWeightChange</text>
</g>
<!-- Node5 -->
<g id="node8" class="node"><title>Node5</title>
<a xlink:title="STL class.">
<polygon fill="white" stroke="#bfbfbf" points="199.5,-286.5 199.5,-343.5 288.5,-343.5 288.5,-286.5 199.5,-286.5"/>
<text text-anchor="middle" x="244" y="-331.5" font-family="Helvetica,sans-Serif" font-size="10.00">std::vector&lt; T &gt;</text>
<polyline fill="none" stroke="#bfbfbf" points="199.5,-324.5 288.5,-324.5 "/>
<text text-anchor="start" x="207.5" y="-312.5" font-family="Helvetica,sans-Serif" font-size="10.00">&#45; elements</text>
<polyline fill="none" stroke="#bfbfbf" points="199.5,-305.5 288.5,-305.5 "/>
<text text-anchor="middle" x="244" y="-293.5" font-family="Helvetica,sans-Serif" font-size="10.00"> </text>
</a>
</g>
<!-- Node5&#45;&gt;Node4 -->
<g id="edge8" class="edge"><title>Node5&#45;&gt;Node4</title>
<path fill="none" stroke="orange" stroke-dasharray="5,2" d="M244,-275.837C244,-259.417 244,-240.585 244,-225.558"/>
<polygon fill="orange" stroke="orange" points="240.5,-276.215 244,-286.215 247.5,-276.215 240.5,-276.215"/>
<text text-anchor="middle" x="268.5" y="-253.5" font-family="Helvetica,sans-Serif" font-size="10.00">&lt; double &gt;</text>
</g>
<!-- Node6 -->
<g id="node10" class="node"><title>Node6</title>
<polygon fill="white" stroke="#bfbfbf" points="229.5,-398.5 229.5,-455.5 258.5,-455.5 258.5,-398.5 229.5,-398.5"/>
<text text-anchor="middle" x="244" y="-443.5" font-family="Helvetica,sans-Serif" font-size="10.00">T</text>
<polyline fill="none" stroke="#bfbfbf" points="229.5,-436.5 258.5,-436.5 "/>
<text text-anchor="middle" x="244" y="-424.5" font-family="Helvetica,sans-Serif" font-size="10.00"> </text>
<polyline fill="none" stroke="#bfbfbf" points="229.5,-417.5 258.5,-417.5 "/>
<text text-anchor="middle" x="244" y="-405.5" font-family="Helvetica,sans-Serif" font-size="10.00"> </text>
</g>
<!-- Node6&#45;&gt;Node5 -->
<g id="edge10" class="edge"><title>Node6&#45;&gt;Node5</title>
<path fill="none" stroke="#9a32cd" stroke-dasharray="5,2" d="M244,-388.027C244,-373.478 244,-357.166 244,-343.749"/>
<polygon fill="#9a32cd" stroke="#9a32cd" points="244,-398.242 239.5,-388.242 244,-393.242 244,-388.242 244,-388.242 244,-388.242 244,-393.242 248.5,-388.242 244,-398.242 244,-398.242"/>
<text text-anchor="middle" x="265.5" y="-371.5" font-family="Helvetica,sans-Serif" font-size="10.00">elements</text>
</g>
</g>
</svg>
