<?xml version="1.0" encoding="UTF-8" standalone="no"?>
<!DOCTYPE svg PUBLIC "-//W3C//DTD SVG 1.1//EN"
 "http://www.w3.org/Graphics/SVG/1.1/DTD/svg11.dtd">
<!-- Generated by graphviz version 2.28.0 (20110610.2051)
 -->
<!-- Title: G Pages: 1 -->
<svg width="318pt" height="104pt"
 viewBox="0.00 0.00 318.00 104.00" xmlns="http://www.w3.org/2000/svg" xmlns:xlink="http://www.w3.org/1999/xlink">
<g id="graph1" class="graph" transform="scale(1 1) rotate(0) translate(4 100)">
<title>G</title>
<polygon fill="white" stroke="white" points="-4,5 -4,-100 315,-100 315,5 -4,5"/>
<!-- Node1 -->
<g id="node1" class="node"><title>Node1</title>
<polygon fill="#bfbfbf" stroke="black" points="0.5,-38.5 0.5,-57.5 207.5,-57.5 207.5,-38.5 0.5,-38.5"/>
<text text-anchor="middle" x="104" y="-45.5" font-family="Helvetica,sans-Serif" font-size="10.00">ActivationFunction::getInducedLocalField</text>
</g>
<!-- Node2 -->
<g id="node3" class="node"><title>Node2</title>
<a xlink:href="class_tanh.html#a7ba7f087622d22bb6cdd1c17380a2baa" target="_top" xlink:title="Tanh::f0">
<polygon fill="white" stroke="black" points="250.5,-76.5 250.5,-95.5 303.5,-95.5 303.5,-76.5 250.5,-76.5"/>
<text text-anchor="middle" x="277" y="-83.5" font-family="Helvetica,sans-Serif" font-size="10.00">Tanh::f0</text>
</a>
</g>
<!-- Node1&#45;&gt;Node2 -->
<g id="edge2" class="edge"><title>Node1&#45;&gt;Node2</title>
<path fill="none" stroke="midnightblue" d="M158.283,-59.8406C188.977,-66.6615 226.159,-74.9241 250.411,-80.3136"/>
<polygon fill="midnightblue" stroke="midnightblue" points="158.672,-56.3417 148.151,-57.589 157.153,-63.175 158.672,-56.3417"/>
</g>
<!-- Node3 -->
<g id="node5" class="node"><title>Node3</title>
<a xlink:href="class_identity.html#a52e31d60b819554bf57a7e19f5a1a91e" target="_top" xlink:title="Identity::f0">
<polygon fill="white" stroke="black" points="244,-38.5 244,-57.5 310,-57.5 310,-38.5 244,-38.5"/>
<text text-anchor="middle" x="277" y="-45.5" font-family="Helvetica,sans-Serif" font-size="10.00">Identity::f0</text>
</a>
</g>
<!-- Node1&#45;&gt;Node3 -->
<g id="edge4" class="edge"><title>Node1&#45;&gt;Node3</title>
<path fill="none" stroke="midnightblue" d="M218.044,-48C227.219,-48 235.92,-48 243.659,-48"/>
<polygon fill="midnightblue" stroke="midnightblue" points="217.925,-44.5001 207.925,-48 217.925,-51.5001 217.925,-44.5001"/>
</g>
<!-- Node4 -->
<g id="node7" class="node"><title>Node4</title>
<a xlink:href="class_tanh.html#af723894488a3c1adb7dcdefbcc4b360a" target="_top" xlink:title="Tanh::f1">
<polygon fill="white" stroke="black" points="250.5,-0.5 250.5,-19.5 303.5,-19.5 303.5,-0.5 250.5,-0.5"/>
<text text-anchor="middle" x="277" y="-7.5" font-family="Helvetica,sans-Serif" font-size="10.00">Tanh::f1</text>
</a>
</g>
<!-- Node1&#45;&gt;Node4 -->
<g id="edge6" class="edge"><title>Node1&#45;&gt;Node4</title>
<path fill="none" stroke="midnightblue" d="M158.283,-36.1594C188.977,-29.3385 226.159,-21.0759 250.411,-15.6864"/>
<polygon fill="midnightblue" stroke="midnightblue" points="157.153,-32.825 148.151,-38.411 158.672,-39.6583 157.153,-32.825"/>
</g>
</g>
</svg>
