<?xml version="1.0" encoding="UTF-8" standalone="no"?>
<!DOCTYPE svg PUBLIC "-//W3C//DTD SVG 1.1//EN"
 "http://www.w3.org/Graphics/SVG/1.1/DTD/svg11.dtd">
<!-- Generated by graphviz version 2.28.0 (20110610.2051)
 -->
<!-- Title: G Pages: 1 -->
<svg width="86pt" height="184pt"
 viewBox="0.00 0.00 86.00 184.00" xmlns="http://www.w3.org/2000/svg" xmlns:xlink="http://www.w3.org/1999/xlink">
<g id="graph1" class="graph" transform="scale(1 1) rotate(0) translate(4 180)">
<title>G</title>
<polygon fill="white" stroke="white" points="-4,5 -4,-180 83,-180 83,5 -4,5"/>
<!-- Node1 -->
<g id="node1" class="node"><title>Node1</title>
<polygon fill="#bfbfbf" stroke="black" points="17,-1 17,-69 61,-69 61,-1 17,-1"/>
<text text-anchor="middle" x="39" y="-57" font-family="Helvetica,sans-Serif" font-size="10.00">LMLS</text>
<polyline fill="none" stroke="black" points="17,-50 61,-50 "/>
<text text-anchor="middle" x="39" y="-38" font-family="Helvetica,sans-Serif" font-size="10.00"> </text>
<polyline fill="none" stroke="black" points="17,-31 61,-31 "/>
<text text-anchor="start" x="25" y="-19" font-family="Helvetica,sans-Serif" font-size="10.00">+ f0()</text>
<text text-anchor="start" x="25" y="-8" font-family="Helvetica,sans-Serif" font-size="10.00">+ f1()</text>
</g>
<!-- Node2 -->
<g id="node2" class="node"><title>Node2</title>
<a xlink:href="class_cost_function.html" target="_top" xlink:title="class CostFunction &#45;">
<polygon fill="white" stroke="black" points="0,-107 0,-175 78,-175 78,-107 0,-107"/>
<text text-anchor="middle" x="39" y="-163" font-family="Helvetica,sans-Serif" font-size="10.00">CostFunction</text>
<polyline fill="none" stroke="black" points="0,-156 78,-156 "/>
<text text-anchor="middle" x="39" y="-144" font-family="Helvetica,sans-Serif" font-size="10.00"> </text>
<polyline fill="none" stroke="black" points="0,-137 78,-137 "/>
<text text-anchor="start" x="8" y="-125" font-family="Helvetica,sans-Serif" font-size="10.00">+ f0()</text>
<text text-anchor="start" x="8" y="-114" font-family="Helvetica,sans-Serif" font-size="10.00">+ f1()</text>
</a>
</g>
<!-- Node2&#45;&gt;Node1 -->
<g id="edge2" class="edge"><title>Node2&#45;&gt;Node1</title>
<path fill="none" stroke="midnightblue" d="M39,-96.6737C39,-87.5025 39,-77.9608 39,-69.2336"/>
<polygon fill="none" stroke="midnightblue" points="35.5001,-96.8078 39,-106.808 42.5001,-96.8078 35.5001,-96.8078"/>
</g>
</g>
</svg>
