<?xml version="1.0" encoding="UTF-8" standalone="no"?>
<!DOCTYPE svg PUBLIC "-//W3C//DTD SVG 1.1//EN"
 "http://www.w3.org/Graphics/SVG/1.1/DTD/svg11.dtd">
<!-- Generated by graphviz version 2.28.0 (20110610.2051)
 -->
<!-- Title: G Pages: 1 -->
<svg width="282pt" height="66pt"
 viewBox="0.00 0.00 282.00 66.00" xmlns="http://www.w3.org/2000/svg" xmlns:xlink="http://www.w3.org/1999/xlink">
<g id="graph1" class="graph" transform="scale(1 1) rotate(0) translate(4 62)">
<title>G</title>
<polygon fill="white" stroke="white" points="-4,5 -4,-62 279,-62 279,5 -4,5"/>
<!-- Node1 -->
<g id="node1" class="node"><title>Node1</title>
<polygon fill="#bfbfbf" stroke="black" points="0.5,-19.5 0.5,-38.5 113.5,-38.5 113.5,-19.5 0.5,-19.5"/>
<text text-anchor="middle" x="57" y="-26.5" font-family="Helvetica,sans-Serif" font-size="10.00">SimpleNeuron::getId</text>
</g>
<!-- Node2 -->
<g id="node3" class="node"><title>Node2</title>
<a xlink:href="class_simple_neuron.html#afea22112336409283a5bb7d281f7f4bd" target="_top" xlink:title="SimpleNeuron::show">
<polygon fill="white" stroke="black" points="155.5,-38.5 155.5,-57.5 268.5,-57.5 268.5,-38.5 155.5,-38.5"/>
<text text-anchor="middle" x="212" y="-45.5" font-family="Helvetica,sans-Serif" font-size="10.00">SimpleNeuron::show</text>
</a>
</g>
<!-- Node1&#45;&gt;Node2 -->
<g id="edge2" class="edge"><title>Node1&#45;&gt;Node2</title>
<path fill="none" stroke="midnightblue" d="M123.68,-37.1563C134.239,-38.4676 145.078,-39.8137 155.372,-41.092"/>
<polygon fill="midnightblue" stroke="midnightblue" points="124.024,-33.6723 113.669,-35.9132 123.162,-40.619 124.024,-33.6723"/>
</g>
<!-- Node3 -->
<g id="node5" class="node"><title>Node3</title>
<a xlink:href="class_simple_neuron.html#a9e7173abb892281d0b2ffb0efc82f0e5" target="_top" xlink:title="SimpleNeuron::validate">
<polygon fill="white" stroke="black" points="150,-0.5 150,-19.5 274,-19.5 274,-0.5 150,-0.5"/>
<text text-anchor="middle" x="212" y="-7.5" font-family="Helvetica,sans-Serif" font-size="10.00">SimpleNeuron::validate</text>
</a>
</g>
<!-- Node1&#45;&gt;Node3 -->
<g id="edge4" class="edge"><title>Node1&#45;&gt;Node3</title>
<path fill="none" stroke="midnightblue" d="M123.76,-20.8337C132.453,-19.7542 141.335,-18.6512 149.945,-17.582"/>
<polygon fill="midnightblue" stroke="midnightblue" points="123.162,-17.381 113.669,-22.0868 124.024,-24.3277 123.162,-17.381"/>
</g>
</g>
</svg>
