<?xml version="1.0" encoding="UTF-8" standalone="no"?>
<!DOCTYPE svg PUBLIC "-//W3C//DTD SVG 1.1//EN"
 "http://www.w3.org/Graphics/SVG/1.1/DTD/svg11.dtd">
<!-- Generated by graphviz version 2.28.0 (20110610.2051)
 -->
<!-- Title: G Pages: 1 -->
<svg width="152pt" height="172pt"
 viewBox="0.00 0.00 152.00 172.00" xmlns="http://www.w3.org/2000/svg" xmlns:xlink="http://www.w3.org/1999/xlink">
<g id="graph1" class="graph" transform="scale(1 1) rotate(0) translate(4 168)">
<title>G</title>
<polygon fill="white" stroke="white" points="-4,5 -4,-168 149,-168 149,5 -4,5"/>
<!-- Node1 -->
<g id="node1" class="node"><title>Node1</title>
<polygon fill="#bfbfbf" stroke="black" points="-0.5,-0.5 -0.5,-57.5 144.5,-57.5 144.5,-0.5 -0.5,-0.5"/>
<text text-anchor="middle" x="72" y="-45.5" font-family="Helvetica,sans-Serif" font-size="10.00">BatchNetworkTrainBehavior</text>
<polyline fill="none" stroke="black" points="-0.5,-38.5 144.5,-38.5 "/>
<text text-anchor="middle" x="72" y="-26.5" font-family="Helvetica,sans-Serif" font-size="10.00"> </text>
<polyline fill="none" stroke="black" points="-0.5,-19.5 144.5,-19.5 "/>
<text text-anchor="start" x="7.5" y="-7.5" font-family="Helvetica,sans-Serif" font-size="10.00">+ train()</text>
</g>
<!-- Node2 -->
<g id="node2" class="node"><title>Node2</title>
<a xlink:href="class_network_train_behavior.html" target="_top" xlink:title="class NetworkTrainBehavior &#45;">
<polygon fill="white" stroke="black" points="13,-95 13,-163 131,-163 131,-95 13,-95"/>
<text text-anchor="middle" x="72" y="-151" font-family="Helvetica,sans-Serif" font-size="10.00">NetworkTrainBehavior</text>
<polyline fill="none" stroke="black" points="13,-144 131,-144 "/>
<text text-anchor="start" x="21" y="-132" font-family="Helvetica,sans-Serif" font-size="10.00"># d_neuralNetwork</text>
<text text-anchor="start" x="21" y="-121" font-family="Helvetica,sans-Serif" font-size="10.00"># d_costFunction</text>
<polyline fill="none" stroke="black" points="13,-114 131,-114 "/>
<text text-anchor="start" x="21" y="-102" font-family="Helvetica,sans-Serif" font-size="10.00">+ train()</text>
</a>
</g>
<!-- Node2&#45;&gt;Node1 -->
<g id="edge2" class="edge"><title>Node2&#45;&gt;Node1</title>
<path fill="none" stroke="midnightblue" d="M72,-84.6379C72,-75.4553 72,-66.005 72,-57.6001"/>
<polygon fill="none" stroke="midnightblue" points="68.5001,-84.8216 72,-94.8217 75.5001,-84.8217 68.5001,-84.8216"/>
</g>
</g>
</svg>
