<?xml version="1.0" encoding="UTF-8" standalone="no"?>
<!DOCTYPE svg PUBLIC "-//W3C//DTD SVG 1.1//EN"
 "http://www.w3.org/Graphics/SVG/1.1/DTD/svg11.dtd">
<!-- Generated by graphviz version 2.28.0 (20110610.2051)
 -->
<!-- Title: G Pages: 1 -->
<svg width="439pt" height="440pt"
 viewBox="0.00 0.00 439.00 440.00" xmlns="http://www.w3.org/2000/svg" xmlns:xlink="http://www.w3.org/1999/xlink">
<g id="graph1" class="graph" transform="scale(1 1) rotate(0) translate(4 436)">
<title>G</title>
<polygon fill="white" stroke="white" points="-4,5 -4,-436 436,-436 436,5 -4,5"/>
<!-- Node1 -->
<g id="node1" class="node"><title>Node1</title>
<polygon fill="#bfbfbf" stroke="black" points="128,-107 128,-219 302,-219 302,-107 128,-107"/>
<text text-anchor="middle" x="215" y="-207" font-family="Helvetica,sans-Serif" font-size="10.00">ADAPTgdwmNeuronTrainBehavior</text>
<polyline fill="none" stroke="black" points="128,-200 302,-200 "/>
<text text-anchor="start" x="136" y="-188" font-family="Helvetica,sans-Serif" font-size="10.00"># d_delta</text>
<text text-anchor="start" x="136" y="-177" font-family="Helvetica,sans-Serif" font-size="10.00"># d_learningRate</text>
<text text-anchor="start" x="136" y="-166" font-family="Helvetica,sans-Serif" font-size="10.00"># d_momentum</text>
<text text-anchor="start" x="136" y="-155" font-family="Helvetica,sans-Serif" font-size="10.00"># d_formerWeightChange</text>
<text text-anchor="start" x="136" y="-144" font-family="Helvetica,sans-Serif" font-size="10.00"># d_formerBiasChange</text>
<polyline fill="none" stroke="black" points="128,-137 302,-137 "/>
<text text-anchor="start" x="136" y="-125" font-family="Helvetica,sans-Serif" font-size="10.00">+ singlePatternBackwardAction()</text>
<text text-anchor="start" x="136" y="-114" font-family="Helvetica,sans-Serif" font-size="10.00">+ endOfEpochAction()</text>
</g>
<!-- Node4 -->
<g id="node7" class="node"><title>Node4</title>
<a xlink:href="class_a_d_a_p_tgdwm_hidden_neuron_train_behavior.html" target="_top" xlink:title="class ADAPTgdwmHiddenNeuronTrainBehavior &#45;">
<polygon fill="white" stroke="black" points="-0.5,-1 -0.5,-69 206.5,-69 206.5,-1 -0.5,-1"/>
<text text-anchor="middle" x="103" y="-57" font-family="Helvetica,sans-Serif" font-size="10.00">ADAPTgdwmHiddenNeuronTrainBehavior</text>
<polyline fill="none" stroke="black" points="-0.5,-50 206.5,-50 "/>
<text text-anchor="middle" x="103" y="-38" font-family="Helvetica,sans-Serif" font-size="10.00"> </text>
<polyline fill="none" stroke="black" points="-0.5,-31 206.5,-31 "/>
<text text-anchor="start" x="7.5" y="-19" font-family="Helvetica,sans-Serif" font-size="10.00">&#45; singlePatternBackwardAction()</text>
<text text-anchor="start" x="7.5" y="-8" font-family="Helvetica,sans-Serif" font-size="10.00">&#45; endOfEpochAction()</text>
</a>
</g>
<!-- Node1&#45;&gt;Node4 -->
<g id="edge6" class="edge"><title>Node1&#45;&gt;Node4</title>
<path fill="none" stroke="midnightblue" d="M159.164,-99.1848C149.927,-88.7926 140.683,-78.3937 132.439,-69.1192"/>
<polygon fill="none" stroke="midnightblue" points="156.616,-101.586 165.875,-106.735 161.847,-96.9352 156.616,-101.586"/>
</g>
<!-- Node5 -->
<g id="node9" class="node"><title>Node5</title>
<a xlink:href="class_a_d_a_p_tgdwm_output_neuron_train_behavior.html" target="_top" xlink:title="class ADAPTgdwmOutputNeuronTrainBehavior &#45;">
<polygon fill="white" stroke="black" points="225,-1 225,-69 431,-69 431,-1 225,-1"/>
<text text-anchor="middle" x="328" y="-57" font-family="Helvetica,sans-Serif" font-size="10.00">ADAPTgdwmOutputNeuronTrainBehavior</text>
<polyline fill="none" stroke="black" points="225,-50 431,-50 "/>
<text text-anchor="start" x="233" y="-38" font-family="Helvetica,sans-Serif" font-size="10.00">&#45; d_costFunction</text>
<polyline fill="none" stroke="black" points="225,-31 431,-31 "/>
<text text-anchor="start" x="233" y="-19" font-family="Helvetica,sans-Serif" font-size="10.00">&#45; singlePatternBackwardAction()</text>
<text text-anchor="start" x="233" y="-8" font-family="Helvetica,sans-Serif" font-size="10.00">&#45; endOfEpochAction()</text>
</a>
</g>
<!-- Node1&#45;&gt;Node5 -->
<g id="edge8" class="edge"><title>Node1&#45;&gt;Node5</title>
<path fill="none" stroke="midnightblue" d="M271.334,-99.1848C280.654,-88.7926 289.98,-78.3937 298.298,-69.1192"/>
<polygon fill="none" stroke="midnightblue" points="268.634,-96.953 264.563,-106.735 273.846,-101.627 268.634,-96.953"/>
</g>
<!-- Node2 -->
<g id="node2" class="node"><title>Node2</title>
<a xlink:href="class_adapt_neuron_train_behavior.html" target="_top" xlink:title="class AdaptNeuronTrainBehavior &#45;">
<polygon fill="white" stroke="black" points="130.5,-257 130.5,-325 299.5,-325 299.5,-257 130.5,-257"/>
<text text-anchor="middle" x="215" y="-313" font-family="Helvetica,sans-Serif" font-size="10.00">AdaptNeuronTrainBehavior</text>
<polyline fill="none" stroke="black" points="130.5,-306 299.5,-306 "/>
<text text-anchor="middle" x="215" y="-294" font-family="Helvetica,sans-Serif" font-size="10.00"> </text>
<polyline fill="none" stroke="black" points="130.5,-287 299.5,-287 "/>
<text text-anchor="start" x="138.5" y="-275" font-family="Helvetica,sans-Serif" font-size="10.00">+ singlePatternBackwardAction()</text>
<text text-anchor="start" x="138.5" y="-264" font-family="Helvetica,sans-Serif" font-size="10.00">+ endOfEpochAction()</text>
</a>
</g>
<!-- Node2&#45;&gt;Node1 -->
<g id="edge2" class="edge"><title>Node2&#45;&gt;Node1</title>
<path fill="none" stroke="midnightblue" d="M215,-246.811C215,-237.952 215,-228.511 215,-219.294"/>
<polygon fill="none" stroke="midnightblue" points="211.5,-246.895 215,-256.895 218.5,-246.895 211.5,-246.895"/>
</g>
<!-- Node3 -->
<g id="node4" class="node"><title>Node3</title>
<a xlink:href="class_neuron_train_behavior.html" target="_top" xlink:title="class NeuronTrainBehavior &#45;">
<polygon fill="white" stroke="black" points="130.5,-363 130.5,-431 299.5,-431 299.5,-363 130.5,-363"/>
<text text-anchor="middle" x="215" y="-419" font-family="Helvetica,sans-Serif" font-size="10.00">NeuronTrainBehavior</text>
<polyline fill="none" stroke="black" points="130.5,-412 299.5,-412 "/>
<text text-anchor="start" x="138.5" y="-400" font-family="Helvetica,sans-Serif" font-size="10.00"># d_neuron</text>
<polyline fill="none" stroke="black" points="130.5,-393 299.5,-393 "/>
<text text-anchor="start" x="138.5" y="-381" font-family="Helvetica,sans-Serif" font-size="10.00">+ singlePatternBackwardAction()</text>
<text text-anchor="start" x="138.5" y="-370" font-family="Helvetica,sans-Serif" font-size="10.00">+ endOfEpochAction()</text>
</a>
</g>
<!-- Node3&#45;&gt;Node2 -->
<g id="edge4" class="edge"><title>Node3&#45;&gt;Node2</title>
<path fill="none" stroke="midnightblue" d="M215,-352.674C215,-343.502 215,-333.961 215,-325.234"/>
<polygon fill="none" stroke="midnightblue" points="211.5,-352.808 215,-362.808 218.5,-352.808 211.5,-352.808"/>
</g>
</g>
</svg>
