<?xml version="1.0" encoding="UTF-8" standalone="no"?>
<!DOCTYPE svg PUBLIC "-//W3C//DTD SVG 1.1//EN"
 "http://www.w3.org/Graphics/SVG/1.1/DTD/svg11.dtd">
<!-- Generated by graphviz version 2.28.0 (20110610.2051)
 -->
<!-- Title: G Pages: 1 -->
<svg width="254pt" height="66pt"
 viewBox="0.00 0.00 254.00 66.00" xmlns="http://www.w3.org/2000/svg" xmlns:xlink="http://www.w3.org/1999/xlink">
<g id="graph1" class="graph" transform="scale(1 1) rotate(0) translate(4 62)">
<title>G</title>
<polygon fill="white" stroke="white" points="-4,5 -4,-62 251,-62 251,5 -4,5"/>
<!-- Node1 -->
<g id="node1" class="node"><title>Node1</title>
<polygon fill="#bfbfbf" stroke="black" points="0.5,-19.5 0.5,-38.5 85.5,-38.5 85.5,-19.5 0.5,-19.5"/>
<text text-anchor="middle" x="43" y="-26.5" font-family="Helvetica,sans-Serif" font-size="10.00">Container::size</text>
</g>
<!-- Node2 -->
<g id="node3" class="node"><title>Node2</title>
<a xlink:href="class_container.html#a86d42cf807e073724bd2f8e08dcdfefa" target="_top" xlink:title="Appends a Container&lt;T&gt; object.">
<polygon fill="white" stroke="black" points="133.5,-38.5 133.5,-57.5 234.5,-57.5 234.5,-38.5 133.5,-38.5"/>
<text text-anchor="middle" x="184" y="-45.5" font-family="Helvetica,sans-Serif" font-size="10.00">Container::append</text>
</a>
</g>
<!-- Node1&#45;&gt;Node2 -->
<g id="edge2" class="edge"><title>Node1&#45;&gt;Node2</title>
<path fill="none" stroke="midnightblue" d="M95.8316,-36.0849C108.154,-37.7693 121.27,-39.5621 133.486,-41.2319"/>
<polygon fill="midnightblue" stroke="midnightblue" points="96.0865,-32.5873 85.7046,-34.7006 95.1384,-39.5228 96.0865,-32.5873"/>
</g>
<!-- Node3 -->
<g id="node5" class="node"><title>Node3</title>
<a xlink:href="class_con_container.html#aa7f1bbd910afe9c4241e8bd4d5fbc497" target="_top" xlink:title="Setter of the from fields of the Con objects related to ConContainer.">
<polygon fill="white" stroke="black" points="122,-0.5 122,-19.5 246,-19.5 246,-0.5 122,-0.5"/>
<text text-anchor="middle" x="184" y="-7.5" font-family="Helvetica,sans-Serif" font-size="10.00">ConContainer::setFrom</text>
</a>
</g>
<!-- Node1&#45;&gt;Node3 -->
<g id="edge4" class="edge"><title>Node1&#45;&gt;Node3</title>
<path fill="none" stroke="midnightblue" d="M95.812,-21.9178C104.281,-20.7601 113.126,-19.5512 121.796,-18.3661"/>
<polygon fill="midnightblue" stroke="midnightblue" points="95.1384,-18.4772 85.7046,-23.2994 96.0865,-25.4127 95.1384,-18.4772"/>
</g>
</g>
</svg>
