<?xml version="1.0" encoding="UTF-8" standalone="no"?>
<!DOCTYPE svg PUBLIC "-//W3C//DTD SVG 1.1//EN"
 "http://www.w3.org/Graphics/SVG/1.1/DTD/svg11.dtd">
<!-- Generated by graphviz version 2.28.0 (20110610.2051)
 -->
<!-- Title: G Pages: 1 -->
<svg width="212pt" height="66pt"
 viewBox="0.00 0.00 212.00 66.00" xmlns="http://www.w3.org/2000/svg" xmlns:xlink="http://www.w3.org/1999/xlink">
<g id="graph1" class="graph" transform="scale(1 1) rotate(0) translate(4 62)">
<title>G</title>
<polygon fill="white" stroke="white" points="-4,5 -4,-62 209,-62 209,5 -4,5"/>
<!-- Node1 -->
<g id="node1" class="node"><title>Node1</title>
<polygon fill="#bfbfbf" stroke="black" points="0,-19.5 0,-38.5 90,-38.5 90,-19.5 0,-19.5"/>
<text text-anchor="middle" x="45" y="-26.5" font-family="Helvetica,sans-Serif" font-size="10.00">Con::getWeight</text>
</g>
<!-- Node2 -->
<g id="node3" class="node"><title>Node2</title>
<a xlink:href="class_con.html#a6fac8dbf2a320d6fb674295a9c900a8a" target="_top" xlink:title="Pretty print of the Con information.">
<polygon fill="white" stroke="black" points="132,-38.5 132,-57.5 198,-57.5 198,-38.5 132,-38.5"/>
<text text-anchor="middle" x="165" y="-45.5" font-family="Helvetica,sans-Serif" font-size="10.00">Con::show</text>
</a>
</g>
<!-- Node1&#45;&gt;Node2 -->
<g id="edge2" class="edge"><title>Node1&#45;&gt;Node2</title>
<path fill="none" stroke="midnightblue" d="M100.407,-37.7604C111.087,-39.4801 121.97,-41.2324 131.643,-42.7899"/>
<polygon fill="midnightblue" stroke="midnightblue" points="100.704,-34.2632 90.2746,-36.129 99.591,-41.1742 100.704,-34.2632"/>
</g>
<!-- Node3 -->
<g id="node5" class="node"><title>Node3</title>
<a xlink:href="class_con.html#af5f836a7b0988b3d9113589b2959d5e6" target="_top" xlink:title="Object validator.">
<polygon fill="white" stroke="black" points="126.5,-0.5 126.5,-19.5 203.5,-19.5 203.5,-0.5 126.5,-0.5"/>
<text text-anchor="middle" x="165" y="-7.5" font-family="Helvetica,sans-Serif" font-size="10.00">Con::validate</text>
</a>
</g>
<!-- Node1&#45;&gt;Node3 -->
<g id="edge4" class="edge"><title>Node1&#45;&gt;Node3</title>
<path fill="none" stroke="midnightblue" d="M100.186,-20.2751C109.059,-18.8465 118.077,-17.3943 126.432,-16.0491"/>
<polygon fill="midnightblue" stroke="midnightblue" points="99.591,-16.8258 90.2746,-21.871 100.704,-23.7368 99.591,-16.8258"/>
</g>
</g>
</svg>
