<?xml version="1.0" encoding="UTF-8" standalone="no"?>
<!DOCTYPE svg PUBLIC "-//W3C//DTD SVG 1.1//EN"
 "http://www.w3.org/Graphics/SVG/1.1/DTD/svg11.dtd">
<!-- Generated by graphviz version 2.28.0 (20110610.2051)
 -->
<!-- Title: G Pages: 1 -->
<svg width="190pt" height="160pt"
 viewBox="0.00 0.00 190.00 160.00" xmlns="http://www.w3.org/2000/svg" xmlns:xlink="http://www.w3.org/1999/xlink">
<g id="graph1" class="graph" transform="scale(1 1) rotate(0) translate(4 156)">
<title>G</title>
<polygon fill="white" stroke="white" points="-4,5 -4,-156 187,-156 187,5 -4,5"/>
<!-- Node1 -->
<g id="node1" class="node"><title>Node1</title>
<polygon fill="#bfbfbf" stroke="black" points="59.5,-94.5 59.5,-151.5 122.5,-151.5 122.5,-94.5 59.5,-94.5"/>
<text text-anchor="middle" x="91" y="-139.5" font-family="Helvetica,sans-Serif" font-size="10.00">NeuralNet</text>
<polyline fill="none" stroke="black" points="59.5,-132.5 122.5,-132.5 "/>
<text text-anchor="middle" x="91" y="-120.5" font-family="Helvetica,sans-Serif" font-size="10.00"> </text>
<polyline fill="none" stroke="black" points="59.5,-113.5 122.5,-113.5 "/>
<text text-anchor="start" x="67.5" y="-101.5" font-family="Helvetica,sans-Serif" font-size="10.00">+ train()</text>
</g>
<!-- Node2 -->
<g id="node3" class="node"><title>Node2</title>
<a xlink:href="class_m_l_pneural_net.html" target="_top" xlink:title="{MLPneuralNet\n|&#45; nLayers\l|}">
<polygon fill="white" stroke="black" points="0,-0.5 0,-57.5 82,-57.5 82,-0.5 0,-0.5"/>
<text text-anchor="middle" x="41" y="-45.5" font-family="Helvetica,sans-Serif" font-size="10.00">MLPneuralNet</text>
<polyline fill="none" stroke="black" points="0,-38.5 82,-38.5 "/>
<text text-anchor="start" x="8" y="-26.5" font-family="Helvetica,sans-Serif" font-size="10.00">&#45; nLayers</text>
<polyline fill="none" stroke="black" points="0,-19.5 82,-19.5 "/>
<text text-anchor="middle" x="41" y="-7.5" font-family="Helvetica,sans-Serif" font-size="10.00"> </text>
</a>
</g>
<!-- Node1&#45;&gt;Node2 -->
<g id="edge2" class="edge"><title>Node1&#45;&gt;Node2</title>
<path fill="none" stroke="midnightblue" d="M71.0922,-85.3697C66.0582,-76.107 60.7365,-66.3151 55.9911,-57.5836"/>
<polygon fill="none" stroke="midnightblue" points="68.148,-87.282 75.9984,-94.397 74.2984,-83.9394 68.148,-87.282"/>
</g>
<!-- Node3 -->
<g id="node5" class="node"><title>Node3</title>
<a xlink:href="class_r_b_fneural_net.html" target="_top" xlink:title="{RBFneuralNet\n||}">
<polygon fill="white" stroke="black" points="100,-0.5 100,-57.5 182,-57.5 182,-0.5 100,-0.5"/>
<text text-anchor="middle" x="141" y="-45.5" font-family="Helvetica,sans-Serif" font-size="10.00">RBFneuralNet</text>
<polyline fill="none" stroke="black" points="100,-38.5 182,-38.5 "/>
<text text-anchor="middle" x="141" y="-26.5" font-family="Helvetica,sans-Serif" font-size="10.00"> </text>
<polyline fill="none" stroke="black" points="100,-19.5 182,-19.5 "/>
<text text-anchor="middle" x="141" y="-7.5" font-family="Helvetica,sans-Serif" font-size="10.00"> </text>
</a>
</g>
<!-- Node1&#45;&gt;Node3 -->
<g id="edge4" class="edge"><title>Node1&#45;&gt;Node3</title>
<path fill="none" stroke="midnightblue" d="M110.908,-85.3697C115.942,-76.107 121.264,-66.3151 126.009,-57.5836"/>
<polygon fill="none" stroke="midnightblue" points="107.702,-83.9394 106.002,-94.397 113.852,-87.282 107.702,-83.9394"/>
</g>
</g>
</svg>
