<?xml version="1.0" encoding="UTF-8" standalone="no"?>
<!DOCTYPE svg PUBLIC "-//W3C//DTD SVG 1.1//EN"
 "http://www.w3.org/Graphics/SVG/1.1/DTD/svg11.dtd">
<!-- Generated by graphviz version 2.28.0 (20110610.2051)
 -->
<!-- Title: G Pages: 1 -->
<svg width="754pt" height="266pt"
 viewBox="0.00 0.00 754.00 266.00" xmlns="http://www.w3.org/2000/svg" xmlns:xlink="http://www.w3.org/1999/xlink">
<g id="graph1" class="graph" transform="scale(1 1) rotate(0) translate(4 262)">
<title>G</title>
<polygon fill="white" stroke="white" points="-4,5 -4,-262 751,-262 751,5 -4,5"/>
<!-- Node1 -->
<g id="node1" class="node"><title>Node1</title>
<polygon fill="#bfbfbf" stroke="black" points="308,-189 308,-257 426,-257 426,-189 308,-189"/>
<text text-anchor="middle" x="367" y="-245" font-family="Helvetica,sans-Serif" font-size="10.00">NetworkTrainBehavior</text>
<polyline fill="none" stroke="black" points="308,-238 426,-238 "/>
<text text-anchor="start" x="316" y="-226" font-family="Helvetica,sans-Serif" font-size="10.00"># d_neuralNetwork</text>
<text text-anchor="start" x="316" y="-215" font-family="Helvetica,sans-Serif" font-size="10.00"># d_costFunction</text>
<polyline fill="none" stroke="black" points="308,-208 426,-208 "/>
<text text-anchor="start" x="316" y="-196" font-family="Helvetica,sans-Serif" font-size="10.00">+ train()</text>
</g>
<!-- Node2 -->
<g id="node3" class="node"><title>Node2</title>
<a xlink:href="class_adapt_network_train_behavior.html" target="_top" xlink:title="class AdaptNetworkTrainBehavior &#45;">
<polygon fill="white" stroke="black" points="199,-94.5 199,-151.5 345,-151.5 345,-94.5 199,-94.5"/>
<text text-anchor="middle" x="272" y="-139.5" font-family="Helvetica,sans-Serif" font-size="10.00">AdaptNetworkTrainBehavior</text>
<polyline fill="none" stroke="black" points="199,-132.5 345,-132.5 "/>
<text text-anchor="middle" x="272" y="-120.5" font-family="Helvetica,sans-Serif" font-size="10.00"> </text>
<polyline fill="none" stroke="black" points="199,-113.5 345,-113.5 "/>
<text text-anchor="start" x="207" y="-101.5" font-family="Helvetica,sans-Serif" font-size="10.00">+ train()</text>
</a>
</g>
<!-- Node1&#45;&gt;Node2 -->
<g id="edge2" class="edge"><title>Node1&#45;&gt;Node2</title>
<path fill="none" stroke="midnightblue" d="M327.826,-181.589C318.046,-171.5 307.779,-160.909 298.755,-151.6"/>
<polygon fill="none" stroke="midnightblue" points="325.364,-184.078 334.837,-188.822 330.39,-179.205 325.364,-184.078"/>
</g>
<!-- Node5 -->
<g id="node9" class="node"><title>Node5</title>
<a xlink:href="class_batch_network_train_behavior.html" target="_top" xlink:title="class BatchNetworkTrainBehavior &#45;">
<polygon fill="white" stroke="black" points="390.5,-94.5 390.5,-151.5 535.5,-151.5 535.5,-94.5 390.5,-94.5"/>
<text text-anchor="middle" x="463" y="-139.5" font-family="Helvetica,sans-Serif" font-size="10.00">BatchNetworkTrainBehavior</text>
<polyline fill="none" stroke="black" points="390.5,-132.5 535.5,-132.5 "/>
<text text-anchor="middle" x="463" y="-120.5" font-family="Helvetica,sans-Serif" font-size="10.00"> </text>
<polyline fill="none" stroke="black" points="390.5,-113.5 535.5,-113.5 "/>
<text text-anchor="start" x="398.5" y="-101.5" font-family="Helvetica,sans-Serif" font-size="10.00">+ train()</text>
</a>
</g>
<!-- Node1&#45;&gt;Node5 -->
<g id="edge8" class="edge"><title>Node1&#45;&gt;Node5</title>
<path fill="none" stroke="midnightblue" d="M406.586,-181.589C416.47,-171.5 426.845,-160.909 435.963,-151.6"/>
<polygon fill="none" stroke="midnightblue" points="403.999,-179.229 399.501,-188.822 408.999,-184.127 403.999,-179.229"/>
</g>
<!-- Node3 -->
<g id="node5" class="node"><title>Node3</title>
<a xlink:href="class_a_d_a_p_tgd_network_train_behavior.html" target="_top" xlink:title="class ADAPTgdNetworkTrainBehavior &#45;">
<polygon fill="white" stroke="black" points="0,-0.5 0,-57.5 164,-57.5 164,-0.5 0,-0.5"/>
<text text-anchor="middle" x="82" y="-45.5" font-family="Helvetica,sans-Serif" font-size="10.00">ADAPTgdNetworkTrainBehavior</text>
<polyline fill="none" stroke="black" points="0,-38.5 164,-38.5 "/>
<text text-anchor="middle" x="82" y="-26.5" font-family="Helvetica,sans-Serif" font-size="10.00"> </text>
<polyline fill="none" stroke="black" points="0,-19.5 164,-19.5 "/>
<text text-anchor="start" x="8" y="-7.5" font-family="Helvetica,sans-Serif" font-size="10.00">+ train()</text>
</a>
</g>
<!-- Node2&#45;&gt;Node3 -->
<g id="edge4" class="edge"><title>Node2&#45;&gt;Node3</title>
<path fill="none" stroke="midnightblue" d="M205.809,-89.9495C184.023,-79.4005 160.004,-67.7704 138.966,-57.5836"/>
<polygon fill="none" stroke="midnightblue" points="204.468,-93.189 214.994,-94.397 207.519,-86.8887 204.468,-93.189"/>
</g>
<!-- Node4 -->
<g id="node7" class="node"><title>Node4</title>
<a xlink:href="class_a_d_a_p_tgdwm_network_train_behavior.html" target="_top" xlink:title="class ADAPTgdwmNetworkTrainBehavior &#45;">
<polygon fill="white" stroke="black" points="182,-0.5 182,-57.5 362,-57.5 362,-0.5 182,-0.5"/>
<text text-anchor="middle" x="272" y="-45.5" font-family="Helvetica,sans-Serif" font-size="10.00">ADAPTgdwmNetworkTrainBehavior</text>
<polyline fill="none" stroke="black" points="182,-38.5 362,-38.5 "/>
<text text-anchor="middle" x="272" y="-26.5" font-family="Helvetica,sans-Serif" font-size="10.00"> </text>
<polyline fill="none" stroke="black" points="182,-19.5 362,-19.5 "/>
<text text-anchor="start" x="190" y="-7.5" font-family="Helvetica,sans-Serif" font-size="10.00">+ train()</text>
</a>
</g>
<!-- Node2&#45;&gt;Node4 -->
<g id="edge6" class="edge"><title>Node2&#45;&gt;Node4</title>
<path fill="none" stroke="midnightblue" d="M272,-84.2092C272,-75.2929 272,-65.9513 272,-57.5836"/>
<polygon fill="none" stroke="midnightblue" points="268.5,-84.3969 272,-94.397 275.5,-84.397 268.5,-84.3969"/>
</g>
<!-- Node6 -->
<g id="node11" class="node"><title>Node6</title>
<a xlink:href="class_b_a_t_c_hgd_network_train_behavior.html" target="_top" xlink:title="class BATCHgdNetworkTrainBehavior &#45;">
<polygon fill="white" stroke="black" points="380.5,-0.5 380.5,-57.5 545.5,-57.5 545.5,-0.5 380.5,-0.5"/>
<text text-anchor="middle" x="463" y="-45.5" font-family="Helvetica,sans-Serif" font-size="10.00">BATCHgdNetworkTrainBehavior</text>
<polyline fill="none" stroke="black" points="380.5,-38.5 545.5,-38.5 "/>
<text text-anchor="middle" x="463" y="-26.5" font-family="Helvetica,sans-Serif" font-size="10.00"> </text>
<polyline fill="none" stroke="black" points="380.5,-19.5 545.5,-19.5 "/>
<text text-anchor="start" x="388.5" y="-7.5" font-family="Helvetica,sans-Serif" font-size="10.00">+ train()</text>
</a>
</g>
<!-- Node5&#45;&gt;Node6 -->
<g id="edge10" class="edge"><title>Node5&#45;&gt;Node6</title>
<path fill="none" stroke="midnightblue" d="M463,-84.2092C463,-75.2929 463,-65.9513 463,-57.5836"/>
<polygon fill="none" stroke="midnightblue" points="459.5,-84.3969 463,-94.397 466.5,-84.397 459.5,-84.3969"/>
</g>
<!-- Node7 -->
<g id="node13" class="node"><title>Node7</title>
<a xlink:href="class_b_a_t_c_hgdwm_network_train_behavior.html" target="_top" xlink:title="class BATCHgdwmNetworkTrainBehavior &#45;">
<polygon fill="white" stroke="black" points="564,-0.5 564,-57.5 746,-57.5 746,-0.5 564,-0.5"/>
<text text-anchor="middle" x="655" y="-45.5" font-family="Helvetica,sans-Serif" font-size="10.00">BATCHgdwmNetworkTrainBehavior</text>
<polyline fill="none" stroke="black" points="564,-38.5 746,-38.5 "/>
<text text-anchor="middle" x="655" y="-26.5" font-family="Helvetica,sans-Serif" font-size="10.00"> </text>
<polyline fill="none" stroke="black" points="564,-19.5 746,-19.5 "/>
<text text-anchor="start" x="572" y="-7.5" font-family="Helvetica,sans-Serif" font-size="10.00">+ train()</text>
</a>
</g>
<!-- Node5&#45;&gt;Node7 -->
<g id="edge12" class="edge"><title>Node5&#45;&gt;Node7</title>
<path fill="none" stroke="midnightblue" d="M529.888,-89.9495C551.903,-79.4005 576.175,-67.7704 597.434,-57.5836"/>
<polygon fill="none" stroke="midnightblue" points="528.112,-86.9194 520.606,-94.397 531.137,-93.2321 528.112,-86.9194"/>
</g>
</g>
</svg>
