<?xml version="1.0" encoding="UTF-8" standalone="no"?>
<!DOCTYPE svg PUBLIC "-//W3C//DTD SVG 1.1//EN"
 "http://www.w3.org/Graphics/SVG/1.1/DTD/svg11.dtd">
<!-- Generated by graphviz version 2.28.0 (20110610.2051)
 -->
<!-- Title: G Pages: 1 -->
<svg width="363pt" height="1488pt"
 viewBox="0.00 0.00 363.00 1488.00" xmlns="http://www.w3.org/2000/svg" xmlns:xlink="http://www.w3.org/1999/xlink">
<g id="graph1" class="graph" transform="scale(1 1) rotate(0) translate(4 1484)">
<title>G</title>
<polygon fill="white" stroke="white" points="-4,5 -4,-1484 360,-1484 360,5 -4,5"/>
<!-- Node1 -->
<g id="node1" class="node"><title>Node1</title>
<polygon fill="#bfbfbf" stroke="black" points="110,-0.5 110,-57.5 178,-57.5 178,-0.5 110,-0.5"/>
<text text-anchor="middle" x="144" y="-45.5" font-family="Helvetica,sans-Serif" font-size="10.00">MLPneuron</text>
<polyline fill="none" stroke="black" points="110,-38.5 178,-38.5 "/>
<text text-anchor="start" x="118" y="-26.5" font-family="Helvetica,sans-Serif" font-size="10.00">&#45; bias</text>
<polyline fill="none" stroke="black" points="110,-19.5 178,-19.5 "/>
<text text-anchor="middle" x="144" y="-7.5" font-family="Helvetica,sans-Serif" font-size="10.00"> </text>
</g>
<!-- Node2 -->
<g id="node2" class="node"><title>Node2</title>
<a xlink:href="class_neuron.html" target="_top" xlink:title="class Neuron &#45;">
<polygon fill="white" stroke="black" points="100,-96.5 100,-351.5 188,-351.5 188,-96.5 100,-96.5"/>
<text text-anchor="middle" x="144" y="-339.5" font-family="Helvetica,sans-Serif" font-size="10.00">Neuron</text>
<polyline fill="none" stroke="black" points="100,-332.5 188,-332.5 "/>
<text text-anchor="start" x="108" y="-320.5" font-family="Helvetica,sans-Serif" font-size="10.00">&#45; Id</text>
<text text-anchor="start" x="108" y="-309.5" font-family="Helvetica,sans-Serif" font-size="10.00">&#45; con</text>
<text text-anchor="start" x="108" y="-298.5" font-family="Helvetica,sans-Serif" font-size="10.00">&#45; outputValue</text>
<polyline fill="none" stroke="black" points="100,-291.5 188,-291.5 "/>
<text text-anchor="start" x="108" y="-279.5" font-family="Helvetica,sans-Serif" font-size="10.00">+ getId()</text>
<text text-anchor="start" x="108" y="-268.5" font-family="Helvetica,sans-Serif" font-size="10.00">+ setId()</text>
<text text-anchor="start" x="108" y="-257.5" font-family="Helvetica,sans-Serif" font-size="10.00">+ show()</text>
<text text-anchor="start" x="108" y="-246.5" font-family="Helvetica,sans-Serif" font-size="10.00">+ validate()</text>
<text text-anchor="start" x="108" y="-235.5" font-family="Helvetica,sans-Serif" font-size="10.00">+ Neuron()</text>
<text text-anchor="start" x="108" y="-224.5" font-family="Helvetica,sans-Serif" font-size="10.00">+ Neuron()</text>
<text text-anchor="start" x="108" y="-213.5" font-family="Helvetica,sans-Serif" font-size="10.00">+ Neuron()</text>
<text text-anchor="start" x="108" y="-202.5" font-family="Helvetica,sans-Serif" font-size="10.00">+ ~Neuron()</text>
<text text-anchor="start" x="108" y="-191.5" font-family="Helvetica,sans-Serif" font-size="10.00">+ getId()</text>
<text text-anchor="start" x="108" y="-180.5" font-family="Helvetica,sans-Serif" font-size="10.00">+ setId()</text>
<text text-anchor="start" x="108" y="-169.5" font-family="Helvetica,sans-Serif" font-size="10.00">+ getConId()</text>
<text text-anchor="start" x="108" y="-158.5" font-family="Helvetica,sans-Serif" font-size="10.00">+ getWeight()</text>
<text text-anchor="start" x="108" y="-147.5" font-family="Helvetica,sans-Serif" font-size="10.00">+ setFrom()</text>
<text text-anchor="start" x="108" y="-136.5" font-family="Helvetica,sans-Serif" font-size="10.00">+ setWeight()</text>
<text text-anchor="start" x="108" y="-125.5" font-family="Helvetica,sans-Serif" font-size="10.00">+ numOfCons()</text>
<text text-anchor="start" x="108" y="-114.5" font-family="Helvetica,sans-Serif" font-size="10.00">+ show()</text>
<text text-anchor="start" x="108" y="-103.5" font-family="Helvetica,sans-Serif" font-size="10.00">+ validate()</text>
</a>
</g>
<!-- Node2&#45;&gt;Node1 -->
<g id="edge2" class="edge"><title>Node2&#45;&gt;Node1</title>
<path fill="none" stroke="midnightblue" d="M144,-86.186C144,-75.7364 144,-66.0557 144,-57.7774"/>
<polygon fill="none" stroke="midnightblue" points="140.5,-86.4196 144,-96.4197 147.5,-86.4197 140.5,-86.4196"/>
</g>
<!-- Node3 -->
<g id="node4" class="node"><title>Node3</title>
<a xlink:href="class_container.html" target="_top" xlink:title="{Container\&lt; Con \&gt;\n|# collection\l|+ ~Container()\l+ createIterator()\l+ push_back()\l+ push_back()\l+ reserve()\l+ reserve()\l+ empty()\l+ empty()\l+ size()\l+ size()\l+ clear()\l+ clear()\l+ show()\l+ show()\l+ validate()\l+ validate()\l+ Container()\l+ Container()\l+ begin()\l+ end()\l+ load()\l+ store()\l+ append()\l+ resize()\l+ operator[]()\l# Container()\l}">
<polygon fill="white" stroke="black" points="95.5,-401 95.5,-733 192.5,-733 192.5,-401 95.5,-401"/>
<text text-anchor="middle" x="144" y="-721" font-family="Helvetica,sans-Serif" font-size="10.00">Container&lt; Con &gt;</text>
<polyline fill="none" stroke="black" points="95.5,-714 192.5,-714 "/>
<text text-anchor="start" x="103.5" y="-702" font-family="Helvetica,sans-Serif" font-size="10.00"># collection</text>
<polyline fill="none" stroke="black" points="95.5,-695 192.5,-695 "/>
<text text-anchor="start" x="103.5" y="-683" font-family="Helvetica,sans-Serif" font-size="10.00">+ ~Container()</text>
<text text-anchor="start" x="103.5" y="-672" font-family="Helvetica,sans-Serif" font-size="10.00">+ createIterator()</text>
<text text-anchor="start" x="103.5" y="-661" font-family="Helvetica,sans-Serif" font-size="10.00">+ push_back()</text>
<text text-anchor="start" x="103.5" y="-650" font-family="Helvetica,sans-Serif" font-size="10.00">+ push_back()</text>
<text text-anchor="start" x="103.5" y="-639" font-family="Helvetica,sans-Serif" font-size="10.00">+ reserve()</text>
<text text-anchor="start" x="103.5" y="-628" font-family="Helvetica,sans-Serif" font-size="10.00">+ reserve()</text>
<text text-anchor="start" x="103.5" y="-617" font-family="Helvetica,sans-Serif" font-size="10.00">+ empty()</text>
<text text-anchor="start" x="103.5" y="-606" font-family="Helvetica,sans-Serif" font-size="10.00">+ empty()</text>
<text text-anchor="start" x="103.5" y="-595" font-family="Helvetica,sans-Serif" font-size="10.00">+ size()</text>
<text text-anchor="start" x="103.5" y="-584" font-family="Helvetica,sans-Serif" font-size="10.00">+ size()</text>
<text text-anchor="start" x="103.5" y="-573" font-family="Helvetica,sans-Serif" font-size="10.00">+ clear()</text>
<text text-anchor="start" x="103.5" y="-562" font-family="Helvetica,sans-Serif" font-size="10.00">+ clear()</text>
<text text-anchor="start" x="103.5" y="-551" font-family="Helvetica,sans-Serif" font-size="10.00">+ show()</text>
<text text-anchor="start" x="103.5" y="-540" font-family="Helvetica,sans-Serif" font-size="10.00">+ show()</text>
<text text-anchor="start" x="103.5" y="-529" font-family="Helvetica,sans-Serif" font-size="10.00">+ validate()</text>
<text text-anchor="start" x="103.5" y="-518" font-family="Helvetica,sans-Serif" font-size="10.00">+ validate()</text>
<text text-anchor="start" x="103.5" y="-507" font-family="Helvetica,sans-Serif" font-size="10.00">+ Container()</text>
<text text-anchor="start" x="103.5" y="-496" font-family="Helvetica,sans-Serif" font-size="10.00">+ Container()</text>
<text text-anchor="start" x="103.5" y="-485" font-family="Helvetica,sans-Serif" font-size="10.00">+ begin()</text>
<text text-anchor="start" x="103.5" y="-474" font-family="Helvetica,sans-Serif" font-size="10.00">+ end()</text>
<text text-anchor="start" x="103.5" y="-463" font-family="Helvetica,sans-Serif" font-size="10.00">+ load()</text>
<text text-anchor="start" x="103.5" y="-452" font-family="Helvetica,sans-Serif" font-size="10.00">+ store()</text>
<text text-anchor="start" x="103.5" y="-441" font-family="Helvetica,sans-Serif" font-size="10.00">+ append()</text>
<text text-anchor="start" x="103.5" y="-430" font-family="Helvetica,sans-Serif" font-size="10.00">+ resize()</text>
<text text-anchor="start" x="103.5" y="-419" font-family="Helvetica,sans-Serif" font-size="10.00">+ operator[]()</text>
<text text-anchor="start" x="103.5" y="-408" font-family="Helvetica,sans-Serif" font-size="10.00"># Container()</text>
</a>
</g>
<!-- Node3&#45;&gt;Node2 -->
<g id="edge4" class="edge"><title>Node3&#45;&gt;Node2</title>
<path fill="none" stroke="#9a32cd" stroke-dasharray="5,2" d="M144,-390.942C144,-377.799 144,-364.693 144,-351.935"/>
<polygon fill="#9a32cd" stroke="#9a32cd" points="144,-400.994 139.5,-390.994 144,-395.994 144,-390.994 144,-390.994 144,-390.994 144,-395.994 148.5,-390.994 144,-400.994 144,-400.994"/>
<text text-anchor="middle" x="152.5" y="-373.5" font-family="Helvetica,sans-Serif" font-size="10.00">con</text>
</g>
<!-- Node4 -->
<g id="node6" class="node"><title>Node4</title>
<polygon fill="white" stroke="#bfbfbf" points="0,-1134.5 0,-1191.5 200,-1191.5 200,-1134.5 0,-1134.5"/>
<text text-anchor="middle" x="100" y="-1179.5" font-family="Helvetica,sans-Serif" font-size="10.00">std::vector&lt; boost::shared_ptr&lt; Con &gt; &gt;</text>
<polyline fill="none" stroke="#bfbfbf" points="0,-1172.5 200,-1172.5 "/>
<text text-anchor="start" x="8" y="-1160.5" font-family="Helvetica,sans-Serif" font-size="10.00">&#45; elements</text>
<polyline fill="none" stroke="#bfbfbf" points="0,-1153.5 200,-1153.5 "/>
<text text-anchor="middle" x="100" y="-1141.5" font-family="Helvetica,sans-Serif" font-size="10.00"> </text>
</g>
<!-- Node4&#45;&gt;Node3 -->
<g id="edge6" class="edge"><title>Node4&#45;&gt;Node3</title>
<path fill="none" stroke="#9a32cd" stroke-dasharray="5,2" d="M101.255,-1124.03C103.683,-1055.58 109.711,-906.995 120,-782 121.304,-766.165 122.836,-749.689 124.485,-733.222"/>
<polygon fill="#9a32cd" stroke="#9a32cd" points="100.896,-1134.31 96.748,-1124.16 101.071,-1129.31 101.245,-1124.31 101.245,-1124.31 101.245,-1124.31 101.071,-1129.31 105.742,-1124.47 100.896,-1134.31 100.896,-1134.31"/>
<text text-anchor="middle" x="142.5" y="-946.5" font-family="Helvetica,sans-Serif" font-size="10.00">collection</text>
</g>
<!-- Node5 -->
<g id="node8" class="node"><title>Node5</title>
<a xlink:title="STL class.">
<polygon fill="white" stroke="#bfbfbf" points="125.5,-1316.5 125.5,-1373.5 214.5,-1373.5 214.5,-1316.5 125.5,-1316.5"/>
<text text-anchor="middle" x="170" y="-1361.5" font-family="Helvetica,sans-Serif" font-size="10.00">std::vector&lt; T &gt;</text>
<polyline fill="none" stroke="#bfbfbf" points="125.5,-1354.5 214.5,-1354.5 "/>
<text text-anchor="start" x="133.5" y="-1342.5" font-family="Helvetica,sans-Serif" font-size="10.00">&#45; elements</text>
<polyline fill="none" stroke="#bfbfbf" points="125.5,-1335.5 214.5,-1335.5 "/>
<text text-anchor="middle" x="170" y="-1323.5" font-family="Helvetica,sans-Serif" font-size="10.00"> </text>
</a>
</g>
<!-- Node5&#45;&gt;Node4 -->
<g id="edge8" class="edge"><title>Node5&#45;&gt;Node4</title>
<path fill="none" stroke="orange" stroke-dasharray="5,2" d="M116.558,-1324.25C105.577,-1317.63 95.4196,-1309.03 89,-1298 69.9765,-1265.32 79.4346,-1220.34 88.9452,-1191.71"/>
<polygon fill="orange" stroke="orange" points="115.035,-1327.41 125.486,-1329.14 118.4,-1321.27 115.035,-1327.41"/>
<text text-anchor="middle" x="156" y="-1289.5" font-family="Helvetica,sans-Serif" font-size="10.00">&lt; boost::shared_ptr&lt; Con &gt; &gt;</text>
</g>
<!-- Node8 -->
<g id="node14" class="node"><title>Node8</title>
<polygon fill="white" stroke="#bfbfbf" points="150,-1210.5 150,-1267.5 338,-1267.5 338,-1210.5 150,-1210.5"/>
<text text-anchor="middle" x="244" y="-1255.5" font-family="Helvetica,sans-Serif" font-size="10.00">std::vector&lt; boost::shared_ptr&lt; T &gt; &gt;</text>
<polyline fill="none" stroke="#bfbfbf" points="150,-1248.5 338,-1248.5 "/>
<text text-anchor="start" x="158" y="-1236.5" font-family="Helvetica,sans-Serif" font-size="10.00">&#45; elements</text>
<polyline fill="none" stroke="#bfbfbf" points="150,-1229.5 338,-1229.5 "/>
<text text-anchor="middle" x="244" y="-1217.5" font-family="Helvetica,sans-Serif" font-size="10.00"> </text>
</g>
<!-- Node5&#45;&gt;Node8 -->
<g id="edge16" class="edge"><title>Node5&#45;&gt;Node8</title>
<path fill="none" stroke="orange" stroke-dasharray="5,2" d="M217.929,-1309.31C221.274,-1305.74 224.36,-1301.96 227,-1298 232.999,-1289.01 236.923,-1277.87 239.47,-1267.75"/>
<polygon fill="orange" stroke="orange" points="215.446,-1306.85 210.76,-1316.35 220.349,-1311.84 215.446,-1306.85"/>
<text text-anchor="middle" x="294.5" y="-1289.5" font-family="Helvetica,sans-Serif" font-size="10.00">&lt; boost::shared_ptr&lt; T &gt; &gt;</text>
</g>
<!-- Node6 -->
<g id="node10" class="node"><title>Node6</title>
<polygon fill="white" stroke="#bfbfbf" points="155.5,-1422.5 155.5,-1479.5 184.5,-1479.5 184.5,-1422.5 155.5,-1422.5"/>
<text text-anchor="middle" x="170" y="-1467.5" font-family="Helvetica,sans-Serif" font-size="10.00">T</text>
<polyline fill="none" stroke="#bfbfbf" points="155.5,-1460.5 184.5,-1460.5 "/>
<text text-anchor="middle" x="170" y="-1448.5" font-family="Helvetica,sans-Serif" font-size="10.00"> </text>
<polyline fill="none" stroke="#bfbfbf" points="155.5,-1441.5 184.5,-1441.5 "/>
<text text-anchor="middle" x="170" y="-1429.5" font-family="Helvetica,sans-Serif" font-size="10.00"> </text>
</g>
<!-- Node6&#45;&gt;Node5 -->
<g id="edge10" class="edge"><title>Node6&#45;&gt;Node5</title>
<path fill="none" stroke="#9a32cd" stroke-dasharray="5,2" d="M170,-1412.1C170,-1399.4 170,-1385.49 170,-1373.73"/>
<polygon fill="#9a32cd" stroke="#9a32cd" points="170,-1422.4 165.5,-1412.4 170,-1417.4 170,-1412.4 170,-1412.4 170,-1412.4 170,-1417.4 174.5,-1412.4 170,-1422.4 170,-1422.4"/>
<text text-anchor="middle" x="191.5" y="-1395.5" font-family="Helvetica,sans-Serif" font-size="10.00">elements</text>
</g>
<!-- Node7 -->
<g id="node12" class="node"><title>Node7</title>
<a xlink:href="class_container.html" target="_top" xlink:title="class Container &#45;">
<polygon fill="white" stroke="black" points="174.5,-783 174.5,-1115 271.5,-1115 271.5,-783 174.5,-783"/>
<text text-anchor="middle" x="223" y="-1103" font-family="Helvetica,sans-Serif" font-size="10.00">Container&lt; T &gt;</text>
<polyline fill="none" stroke="black" points="174.5,-1096 271.5,-1096 "/>
<text text-anchor="start" x="182.5" y="-1084" font-family="Helvetica,sans-Serif" font-size="10.00"># collection</text>
<polyline fill="none" stroke="black" points="174.5,-1077 271.5,-1077 "/>
<text text-anchor="start" x="182.5" y="-1065" font-family="Helvetica,sans-Serif" font-size="10.00">+ ~Container()</text>
<text text-anchor="start" x="182.5" y="-1054" font-family="Helvetica,sans-Serif" font-size="10.00">+ createIterator()</text>
<text text-anchor="start" x="182.5" y="-1043" font-family="Helvetica,sans-Serif" font-size="10.00">+ push_back()</text>
<text text-anchor="start" x="182.5" y="-1032" font-family="Helvetica,sans-Serif" font-size="10.00">+ reserve()</text>
<text text-anchor="start" x="182.5" y="-1021" font-family="Helvetica,sans-Serif" font-size="10.00">+ empty()</text>
<text text-anchor="start" x="182.5" y="-1010" font-family="Helvetica,sans-Serif" font-size="10.00">+ size()</text>
<text text-anchor="start" x="182.5" y="-999" font-family="Helvetica,sans-Serif" font-size="10.00">+ clear()</text>
<text text-anchor="start" x="182.5" y="-988" font-family="Helvetica,sans-Serif" font-size="10.00">+ show()</text>
<text text-anchor="start" x="182.5" y="-977" font-family="Helvetica,sans-Serif" font-size="10.00">+ validate()</text>
<text text-anchor="start" x="182.5" y="-966" font-family="Helvetica,sans-Serif" font-size="10.00">+ Container()</text>
<text text-anchor="start" x="182.5" y="-955" font-family="Helvetica,sans-Serif" font-size="10.00">+ Container()</text>
<text text-anchor="start" x="182.5" y="-944" font-family="Helvetica,sans-Serif" font-size="10.00">+ begin()</text>
<text text-anchor="start" x="182.5" y="-933" font-family="Helvetica,sans-Serif" font-size="10.00">+ end()</text>
<text text-anchor="start" x="182.5" y="-922" font-family="Helvetica,sans-Serif" font-size="10.00">+ load()</text>
<text text-anchor="start" x="182.5" y="-911" font-family="Helvetica,sans-Serif" font-size="10.00">+ store()</text>
<text text-anchor="start" x="182.5" y="-900" font-family="Helvetica,sans-Serif" font-size="10.00">+ size()</text>
<text text-anchor="start" x="182.5" y="-889" font-family="Helvetica,sans-Serif" font-size="10.00">+ push_back()</text>
<text text-anchor="start" x="182.5" y="-878" font-family="Helvetica,sans-Serif" font-size="10.00">+ append()</text>
<text text-anchor="start" x="182.5" y="-867" font-family="Helvetica,sans-Serif" font-size="10.00">+ show()</text>
<text text-anchor="start" x="182.5" y="-856" font-family="Helvetica,sans-Serif" font-size="10.00">+ validate()</text>
<text text-anchor="start" x="182.5" y="-845" font-family="Helvetica,sans-Serif" font-size="10.00">+ reserve()</text>
<text text-anchor="start" x="182.5" y="-834" font-family="Helvetica,sans-Serif" font-size="10.00">+ resize()</text>
<text text-anchor="start" x="182.5" y="-823" font-family="Helvetica,sans-Serif" font-size="10.00">+ empty()</text>
<text text-anchor="start" x="182.5" y="-812" font-family="Helvetica,sans-Serif" font-size="10.00">+ clear()</text>
<text text-anchor="start" x="182.5" y="-801" font-family="Helvetica,sans-Serif" font-size="10.00">+ operator[]()</text>
<text text-anchor="start" x="182.5" y="-790" font-family="Helvetica,sans-Serif" font-size="10.00"># Container()</text>
</a>
</g>
<!-- Node7&#45;&gt;Node3 -->
<g id="edge12" class="edge"><title>Node7&#45;&gt;Node3</title>
<path fill="none" stroke="orange" stroke-dasharray="5,2" d="M186.595,-772.887C183.844,-759.653 181.072,-746.322 178.334,-733.153"/>
<polygon fill="orange" stroke="orange" points="183.232,-773.906 188.694,-782.984 190.085,-772.481 183.232,-773.906"/>
<text text-anchor="middle" x="202" y="-755.5" font-family="Helvetica,sans-Serif" font-size="10.00">&lt; Con &gt;</text>
</g>
<!-- Node8&#45;&gt;Node7 -->
<g id="edge14" class="edge"><title>Node8&#45;&gt;Node7</title>
<path fill="none" stroke="#9a32cd" stroke-dasharray="5,2" d="M241.247,-1200.24C239.594,-1177.58 237.365,-1147 235.032,-1115.02"/>
<polygon fill="#9a32cd" stroke="#9a32cd" points="241.986,-1210.39 236.771,-1200.74 241.623,-1205.4 241.259,-1200.41 241.259,-1200.41 241.259,-1200.41 241.623,-1205.4 245.747,-1200.08 241.986,-1210.39 241.986,-1210.39"/>
<text text-anchor="middle" x="263.5" y="-1160.5" font-family="Helvetica,sans-Serif" font-size="10.00">collection</text>
</g>
</g>
</svg>
