<?xml version="1.0" encoding="UTF-8" standalone="no"?>
<!DOCTYPE svg PUBLIC "-//W3C//DTD SVG 1.1//EN"
 "http://www.w3.org/Graphics/SVG/1.1/DTD/svg11.dtd">
<!-- Generated by graphviz version 2.25.20091207.0545 (20091207.0545)
 -->
<!-- Title: G Pages: 1 -->
<svg width="382pt" height="28pt"
 viewBox="0.00 0.00 382.00 28.00" xmlns="http://www.w3.org/2000/svg" xmlns:xlink="http://www.w3.org/1999/xlink">
<g id="graph1" class="graph" transform="scale(1 1) rotate(0) translate(4 24)">
<title>G</title>
<polygon fill="white" stroke="white" points="-4,5 -4,-24 379,-24 379,5 -4,5"/>
<!-- Node1 -->
<g id="node1" class="node"><title>Node1</title>
<polygon fill="#bfbfbf" stroke="black" points="0,-0.5 0,-19.5 90,-19.5 90,-0.5 0,-0.5"/>
<text text-anchor="middle" x="45" y="-6.5" font-family="Helvetica,sans-Serif" font-size="10.00">Neuron::setFrom</text>
</g>
<!-- Node2 -->
<g id="node3" class="node"><title>Node2</title>
<a xlink:href="class_vec_con.html#ad5327f9345cc4dee223ba7f1038ad9ec" target="_top" xlink:title="Setter of the from fields of the Con objects related to VecCon.">
<polygon fill="white" stroke="black" points="126.5,-0.5 126.5,-19.5 219.5,-19.5 219.5,-0.5 126.5,-0.5"/>
<text text-anchor="middle" x="173" y="-6.5" font-family="Helvetica,sans-Serif" font-size="10.00">VecCon::setFrom</text>
</a>
</g>
<!-- Node1&#45;&gt;Node2 -->
<g id="edge2" class="edge"><title>Node1&#45;&gt;Node2</title>
<path fill="none" stroke="midnightblue" d="M90.128,-10C98.5088,-10 107.364,-10 116.044,-10"/>
<polygon fill="midnightblue" stroke="midnightblue" points="116.114,-13.5001 126.114,-10 116.114,-6.5001 116.114,-13.5001"/>
</g>
<!-- Node3 -->
<g id="node5" class="node"><title>Node3</title>
<a xlink:href="class_container.html#a842c3d9eca81b78b59112fde9707b091" target="_top" xlink:title="Container\&lt; Con \&gt;::size">
<polygon fill="white" stroke="black" points="256,-0.5 256,-19.5 374,-19.5 374,-0.5 256,-0.5"/>
<text text-anchor="middle" x="315" y="-6.5" font-family="Helvetica,sans-Serif" font-size="10.00">Container&lt; Con &gt;::size</text>
</a>
</g>
<!-- Node2&#45;&gt;Node3 -->
<g id="edge4" class="edge"><title>Node2&#45;&gt;Node3</title>
<path fill="none" stroke="midnightblue" d="M219.89,-10C228.135,-10 236.872,-10 245.578,-10"/>
<polygon fill="midnightblue" stroke="midnightblue" points="245.751,-13.5001 255.751,-10 245.751,-6.5001 245.751,-13.5001"/>
</g>
</g>
</svg>
