<?xml version="1.0" encoding="UTF-8" standalone="no"?>
<!DOCTYPE svg PUBLIC "-//W3C//DTD SVG 1.1//EN"
 "http://www.w3.org/Graphics/SVG/1.1/DTD/svg11.dtd">
<!-- Generated by graphviz version 2.25.20091207.0545 (20091207.0545)
 -->
<!-- Title: G Pages: 1 -->
<svg width="346pt" height="142pt"
 viewBox="0.00 0.00 346.00 142.00" xmlns="http://www.w3.org/2000/svg" xmlns:xlink="http://www.w3.org/1999/xlink">
<g id="graph1" class="graph" transform="scale(1 1) rotate(0) translate(4 138)">
<title>G</title>
<polygon fill="white" stroke="white" points="-4,5 -4,-138 343,-138 343,5 -4,5"/>
<!-- Node1 -->
<g id="node1" class="node"><title>Node1</title>
<polygon fill="#bfbfbf" stroke="black" points="0.5,-38.5 0.5,-57.5 153.5,-57.5 153.5,-38.5 0.5,-38.5"/>
<text text-anchor="middle" x="77" y="-44.5" font-family="Helvetica,sans-Serif" font-size="10.00">ConContainer::buildAndAppend</text>
</g>
<!-- Node2 -->
<g id="node3" class="node"><title>Node2</title>
<a xlink:href="class_container.html#ab8e09c25f519687468ef5b9f0fae9b3e" target="_top" xlink:title="Container::empty">
<polygon fill="white" stroke="black" points="218.5,-114.5 218.5,-133.5 309.5,-133.5 309.5,-114.5 218.5,-114.5"/>
<text text-anchor="middle" x="264" y="-120.5" font-family="Helvetica,sans-Serif" font-size="10.00">Container::empty</text>
</a>
</g>
<!-- Node1&#45;&gt;Node2 -->
<g id="edge2" class="edge"><title>Node1&#45;&gt;Node2</title>
<path fill="none" stroke="midnightblue" d="M93.3375,-57.6608C114.868,-70.0564 154.208,-91.5584 190,-105 196.507,-107.444 203.452,-109.683 210.381,-111.7"/>
<polygon fill="midnightblue" stroke="midnightblue" points="209.899,-115.198 220.47,-114.492 211.766,-108.452 209.899,-115.198"/>
</g>
<!-- Node3 -->
<g id="node5" class="node"><title>Node3</title>
<a xlink:href="class_container.html#afd87c69cb799ed7b434c29090083a285" target="_top" xlink:title="Container\&lt; Con \&gt;::push_back">
<polygon fill="white" stroke="black" points="190.5,-76.5 190.5,-95.5 337.5,-95.5 337.5,-76.5 190.5,-76.5"/>
<text text-anchor="middle" x="264" y="-82.5" font-family="Helvetica,sans-Serif" font-size="10.00">Container&lt; Con &gt;::push_back</text>
</a>
</g>
<!-- Node1&#45;&gt;Node3 -->
<g id="edge4" class="edge"><title>Node1&#45;&gt;Node3</title>
<path fill="none" stroke="midnightblue" d="M124.188,-57.589C149.42,-62.7165 180.673,-69.0672 207.227,-74.4632"/>
<polygon fill="midnightblue" stroke="midnightblue" points="206.655,-77.9184 217.151,-76.4799 208.049,-71.0586 206.655,-77.9184"/>
</g>
<!-- Node4 -->
<g id="node7" class="node"><title>Node4</title>
<a xlink:href="class_container.html#aa3cbae68ebeed649c52eb3805a30fb75" target="_top" xlink:title="Container\&lt; Con \&gt;::reserve">
<polygon fill="white" stroke="black" points="198,-38.5 198,-57.5 330,-57.5 330,-38.5 198,-38.5"/>
<text text-anchor="middle" x="264" y="-44.5" font-family="Helvetica,sans-Serif" font-size="10.00">Container&lt; Con &gt;::reserve</text>
</a>
</g>
<!-- Node1&#45;&gt;Node4 -->
<g id="edge6" class="edge"><title>Node1&#45;&gt;Node4</title>
<path fill="none" stroke="midnightblue" d="M153.6,-48C164.874,-48 176.488,-48 187.756,-48"/>
<polygon fill="midnightblue" stroke="midnightblue" points="187.987,-51.5001 197.987,-48 187.986,-44.5001 187.987,-51.5001"/>
</g>
<!-- Node5 -->
<g id="node9" class="node"><title>Node5</title>
<a xlink:href="class_container.html#a842c3d9eca81b78b59112fde9707b091" target="_top" xlink:title="Container\&lt; Con \&gt;::size">
<polygon fill="white" stroke="black" points="205,-0.5 205,-19.5 323,-19.5 323,-0.5 205,-0.5"/>
<text text-anchor="middle" x="264" y="-6.5" font-family="Helvetica,sans-Serif" font-size="10.00">Container&lt; Con &gt;::size</text>
</a>
</g>
<!-- Node1&#45;&gt;Node5 -->
<g id="edge8" class="edge"><title>Node1&#45;&gt;Node5</title>
<path fill="none" stroke="midnightblue" d="M101.064,-38.4076C124.665,-31.8157 161.787,-23.6577 194.64,-17.5485"/>
<polygon fill="midnightblue" stroke="midnightblue" points="195.467,-20.9556 204.68,-15.7224 194.215,-14.0686 195.467,-20.9556"/>
</g>
<!-- Node1&#45;&gt;Node5 -->
<g id="edge10" class="edge"><title>Node1&#45;&gt;Node5</title>
<path fill="none" stroke="midnightblue" d="M153.6,-39.0853C180.297,-33.976 208.896,-27.7244 230.296,-22.1801"/>
<polygon fill="midnightblue" stroke="midnightblue" points="231.434,-25.4986 240.183,-19.5233 229.617,-18.7384 231.434,-25.4986"/>
</g>
</g>
</svg>
