<?xml version="1.0" encoding="UTF-8" standalone="no"?>
<!DOCTYPE svg PUBLIC "-//W3C//DTD SVG 1.1//EN"
 "http://www.w3.org/Graphics/SVG/1.1/DTD/svg11.dtd">
<!-- Generated by graphviz version 2.28.0 (20110610.2051)
 -->
<!-- Title: G Pages: 1 -->
<svg width="198pt" height="406pt"
 viewBox="0.00 0.00 198.00 406.00" xmlns="http://www.w3.org/2000/svg" xmlns:xlink="http://www.w3.org/1999/xlink">
<g id="graph1" class="graph" transform="scale(1 1) rotate(0) translate(4 402)">
<title>G</title>
<polygon fill="white" stroke="white" points="-4,5 -4,-402 195,-402 195,5 -4,5"/>
<!-- Node1 -->
<g id="node1" class="node"><title>Node1</title>
<polygon fill="#bfbfbf" stroke="black" points="0,-1 0,-69 190,-69 190,-1 0,-1"/>
<text text-anchor="middle" x="95" y="-57" font-family="Helvetica,sans-Serif" font-size="10.00">ADAPTgdOutputNeuronTrainBehavior</text>
<polyline fill="none" stroke="black" points="0,-50 190,-50 "/>
<text text-anchor="start" x="8" y="-38" font-family="Helvetica,sans-Serif" font-size="10.00">&#45; d_costFunction</text>
<polyline fill="none" stroke="black" points="0,-31 190,-31 "/>
<text text-anchor="start" x="8" y="-19" font-family="Helvetica,sans-Serif" font-size="10.00">&#45; singlePatternBackwardAction()</text>
<text text-anchor="start" x="8" y="-8" font-family="Helvetica,sans-Serif" font-size="10.00">&#45; endOfEpochAction()</text>
</g>
<!-- Node2 -->
<g id="node2" class="node"><title>Node2</title>
<a xlink:href="class_a_d_a_p_tgd_neuron_train_behavior.html" target="_top" xlink:title="class ADAPTgdNeuronTrainBehavior &#45;">
<polygon fill="white" stroke="black" points="10.5,-106.5 10.5,-185.5 179.5,-185.5 179.5,-106.5 10.5,-106.5"/>
<text text-anchor="middle" x="95" y="-173.5" font-family="Helvetica,sans-Serif" font-size="10.00">ADAPTgdNeuronTrainBehavior</text>
<polyline fill="none" stroke="black" points="10.5,-166.5 179.5,-166.5 "/>
<text text-anchor="start" x="18.5" y="-154.5" font-family="Helvetica,sans-Serif" font-size="10.00"># d_delta</text>
<text text-anchor="start" x="18.5" y="-143.5" font-family="Helvetica,sans-Serif" font-size="10.00"># d_learningRate</text>
<polyline fill="none" stroke="black" points="10.5,-136.5 179.5,-136.5 "/>
<text text-anchor="start" x="18.5" y="-124.5" font-family="Helvetica,sans-Serif" font-size="10.00">+ singlePatternBackwardAction()</text>
<text text-anchor="start" x="18.5" y="-113.5" font-family="Helvetica,sans-Serif" font-size="10.00">+ endOfEpochAction()</text>
</a>
</g>
<!-- Node2&#45;&gt;Node1 -->
<g id="edge2" class="edge"><title>Node2&#45;&gt;Node1</title>
<path fill="none" stroke="midnightblue" d="M95,-96.125C95,-87.0164 95,-77.6961 95,-69.1962"/>
<polygon fill="none" stroke="midnightblue" points="91.5001,-96.2637 95,-106.264 98.5001,-96.2638 91.5001,-96.2637"/>
</g>
<!-- Node3 -->
<g id="node4" class="node"><title>Node3</title>
<a xlink:href="class_adapt_neuron_train_behavior.html" target="_top" xlink:title="class AdaptNeuronTrainBehavior &#45;">
<polygon fill="white" stroke="black" points="10.5,-223 10.5,-291 179.5,-291 179.5,-223 10.5,-223"/>
<text text-anchor="middle" x="95" y="-279" font-family="Helvetica,sans-Serif" font-size="10.00">AdaptNeuronTrainBehavior</text>
<polyline fill="none" stroke="black" points="10.5,-272 179.5,-272 "/>
<text text-anchor="middle" x="95" y="-260" font-family="Helvetica,sans-Serif" font-size="10.00"> </text>
<polyline fill="none" stroke="black" points="10.5,-253 179.5,-253 "/>
<text text-anchor="start" x="18.5" y="-241" font-family="Helvetica,sans-Serif" font-size="10.00">+ singlePatternBackwardAction()</text>
<text text-anchor="start" x="18.5" y="-230" font-family="Helvetica,sans-Serif" font-size="10.00">+ endOfEpochAction()</text>
</a>
</g>
<!-- Node3&#45;&gt;Node2 -->
<g id="edge4" class="edge"><title>Node3&#45;&gt;Node2</title>
<path fill="none" stroke="midnightblue" d="M95,-212.575C95,-203.737 95,-194.493 95,-185.827"/>
<polygon fill="none" stroke="midnightblue" points="91.5001,-212.704 95,-222.704 98.5001,-212.704 91.5001,-212.704"/>
</g>
<!-- Node4 -->
<g id="node6" class="node"><title>Node4</title>
<a xlink:href="class_neuron_train_behavior.html" target="_top" xlink:title="class NeuronTrainBehavior &#45;">
<polygon fill="white" stroke="black" points="10.5,-329 10.5,-397 179.5,-397 179.5,-329 10.5,-329"/>
<text text-anchor="middle" x="95" y="-385" font-family="Helvetica,sans-Serif" font-size="10.00">NeuronTrainBehavior</text>
<polyline fill="none" stroke="black" points="10.5,-378 179.5,-378 "/>
<text text-anchor="start" x="18.5" y="-366" font-family="Helvetica,sans-Serif" font-size="10.00"># d_neuron</text>
<polyline fill="none" stroke="black" points="10.5,-359 179.5,-359 "/>
<text text-anchor="start" x="18.5" y="-347" font-family="Helvetica,sans-Serif" font-size="10.00">+ singlePatternBackwardAction()</text>
<text text-anchor="start" x="18.5" y="-336" font-family="Helvetica,sans-Serif" font-size="10.00">+ endOfEpochAction()</text>
</a>
</g>
<!-- Node4&#45;&gt;Node3 -->
<g id="edge6" class="edge"><title>Node4&#45;&gt;Node3</title>
<path fill="none" stroke="midnightblue" d="M95,-318.674C95,-309.502 95,-299.961 95,-291.234"/>
<polygon fill="none" stroke="midnightblue" points="91.5001,-318.808 95,-328.808 98.5001,-318.808 91.5001,-318.808"/>
</g>
</g>
</svg>
