<?xml version="1.0" encoding="UTF-8" standalone="no"?>
<!DOCTYPE svg PUBLIC "-//W3C//DTD SVG 1.1//EN"
 "http://www.w3.org/Graphics/SVG/1.1/DTD/svg11.dtd">
<!-- Generated by graphviz version 2.28.0 (20110610.2051)
 -->
<!-- Title: G Pages: 1 -->
<svg width="176pt" height="392pt"
 viewBox="0.00 0.00 176.00 392.00" xmlns="http://www.w3.org/2000/svg" xmlns:xlink="http://www.w3.org/1999/xlink">
<g id="graph1" class="graph" transform="scale(1 1) rotate(0) translate(4 388)">
<title>G</title>
<polygon fill="white" stroke="white" points="-4,5 -4,-388 173,-388 173,5 -4,5"/>
<!-- Node1 -->
<g id="node1" class="node"><title>Node1</title>
<polygon fill="#bfbfbf" stroke="black" points="-0.5,-194.5 -0.5,-383.5 168.5,-383.5 168.5,-194.5 -0.5,-194.5"/>
<text text-anchor="middle" x="84" y="-371.5" font-family="Helvetica,sans-Serif" font-size="10.00">NeuralNetwork</text>
<polyline fill="none" stroke="black" points="-0.5,-364.5 168.5,-364.5 "/>
<text text-anchor="start" x="7.5" y="-352.5" font-family="Helvetica,sans-Serif" font-size="10.00"># d_inputLayer</text>
<text text-anchor="start" x="7.5" y="-341.5" font-family="Helvetica,sans-Serif" font-size="10.00"># d_hiddenLayers</text>
<text text-anchor="start" x="7.5" y="-330.5" font-family="Helvetica,sans-Serif" font-size="10.00"># d_outputLayer</text>
<text text-anchor="start" x="7.5" y="-319.5" font-family="Helvetica,sans-Serif" font-size="10.00"># d_networkTrainBehavior</text>
<polyline fill="none" stroke="black" points="-0.5,-312.5 168.5,-312.5 "/>
<text text-anchor="start" x="7.5" y="-300.5" font-family="Helvetica,sans-Serif" font-size="10.00">+ writeInput()</text>
<text text-anchor="start" x="7.5" y="-289.5" font-family="Helvetica,sans-Serif" font-size="10.00">+ singlePatternForwardAction()</text>
<text text-anchor="start" x="7.5" y="-278.5" font-family="Helvetica,sans-Serif" font-size="10.00">+ singlePatternBackwardAction()</text>
<text text-anchor="start" x="7.5" y="-267.5" font-family="Helvetica,sans-Serif" font-size="10.00">+ readOutput()</text>
<text text-anchor="start" x="7.5" y="-256.5" font-family="Helvetica,sans-Serif" font-size="10.00">+ train()</text>
<text text-anchor="start" x="7.5" y="-245.5" font-family="Helvetica,sans-Serif" font-size="10.00">+ inputSize()</text>
<text text-anchor="start" x="7.5" y="-234.5" font-family="Helvetica,sans-Serif" font-size="10.00">+ outputSize()</text>
<text text-anchor="start" x="7.5" y="-223.5" font-family="Helvetica,sans-Serif" font-size="10.00">+ show()</text>
<text text-anchor="start" x="7.5" y="-212.5" font-family="Helvetica,sans-Serif" font-size="10.00">+ validate()</text>
<text text-anchor="start" x="7.5" y="-201.5" font-family="Helvetica,sans-Serif" font-size="10.00"># NeuralNetwork()</text>
</g>
<!-- Node2 -->
<g id="node3" class="node"><title>Node2</title>
<a xlink:href="class_simple_network.html" target="_top" xlink:title="class SimpleNetwork &#45;">
<polygon fill="white" stroke="black" points="1,-1 1,-157 167,-157 167,-1 1,-1"/>
<text text-anchor="middle" x="84" y="-145" font-family="Helvetica,sans-Serif" font-size="10.00">SimpleNetwork</text>
<polyline fill="none" stroke="black" points="1,-138 167,-138 "/>
<text text-anchor="middle" x="84" y="-126" font-family="Helvetica,sans-Serif" font-size="10.00"> </text>
<polyline fill="none" stroke="black" points="1,-119 167,-119 "/>
<text text-anchor="start" x="9" y="-107" font-family="Helvetica,sans-Serif" font-size="10.00">+ SimpleNetwork()</text>
<text text-anchor="start" x="9" y="-96" font-family="Helvetica,sans-Serif" font-size="10.00">&#45; writeInput()</text>
<text text-anchor="start" x="9" y="-85" font-family="Helvetica,sans-Serif" font-size="10.00">&#45; singlePatternForwardAction()</text>
<text text-anchor="start" x="9" y="-74" font-family="Helvetica,sans-Serif" font-size="10.00">&#45; singlePatternBackwardAction()</text>
<text text-anchor="start" x="9" y="-63" font-family="Helvetica,sans-Serif" font-size="10.00">&#45; readOutput()</text>
<text text-anchor="start" x="9" y="-52" font-family="Helvetica,sans-Serif" font-size="10.00">&#45; train()</text>
<text text-anchor="start" x="9" y="-41" font-family="Helvetica,sans-Serif" font-size="10.00">&#45; inputSize()</text>
<text text-anchor="start" x="9" y="-30" font-family="Helvetica,sans-Serif" font-size="10.00">&#45; outputSize()</text>
<text text-anchor="start" x="9" y="-19" font-family="Helvetica,sans-Serif" font-size="10.00">&#45; show()</text>
<text text-anchor="start" x="9" y="-8" font-family="Helvetica,sans-Serif" font-size="10.00">&#45; validate()</text>
</a>
</g>
<!-- Node1&#45;&gt;Node2 -->
<g id="edge2" class="edge"><title>Node1&#45;&gt;Node2</title>
<path fill="none" stroke="midnightblue" d="M84,-184.142C84,-175.093 84,-166.042 84,-157.263"/>
<polygon fill="none" stroke="midnightblue" points="80.5001,-184.344 84,-194.344 87.5001,-184.344 80.5001,-184.344"/>
</g>
</g>
</svg>
