<?xml version="1.0" encoding="UTF-8" standalone="no"?>
<!DOCTYPE svg PUBLIC "-//W3C//DTD SVG 1.1//EN"
 "http://www.w3.org/Graphics/SVG/1.1/DTD/svg11.dtd">
<!-- Generated by graphviz version 2.28.0 (20110610.2051)
 -->
<!-- Title: G Pages: 1 -->
<svg width="226pt" height="66pt"
 viewBox="0.00 0.00 226.00 66.00" xmlns="http://www.w3.org/2000/svg" xmlns:xlink="http://www.w3.org/1999/xlink">
<g id="graph1" class="graph" transform="scale(1 1) rotate(0) translate(4 62)">
<title>G</title>
<polygon fill="white" stroke="white" points="-4,5 -4,-62 223,-62 223,5 -4,5"/>
<!-- Node1 -->
<g id="node1" class="node"><title>Node1</title>
<polygon fill="#bfbfbf" stroke="black" points="0.5,-19.5 0.5,-38.5 89.5,-38.5 89.5,-19.5 0.5,-19.5"/>
<text text-anchor="middle" x="45" y="-26.5" font-family="Helvetica,sans-Serif" font-size="10.00">Neuron::Neuron</text>
</g>
<!-- Node2 -->
<g id="node3" class="node"><title>Node2</title>
<a xlink:href="class_container.html#ac5e2a75311f6e6a690ca67603490ddb1" target="_top" xlink:title="Container::begin">
<polygon fill="white" stroke="black" points="126,-38.5 126,-57.5 218,-57.5 218,-38.5 126,-38.5"/>
<text text-anchor="middle" x="172" y="-45.5" font-family="Helvetica,sans-Serif" font-size="10.00">Container::begin</text>
</a>
</g>
<!-- Node1&#45;&gt;Node2 -->
<g id="edge2" class="edge"><title>Node1&#45;&gt;Node2</title>
<path fill="none" stroke="midnightblue" d="M89.7189,-35.6453C98.1189,-36.9221 107.018,-38.2747 115.727,-39.5985"/>
<polygon fill="midnightblue" stroke="midnightblue" points="115.41,-43.0904 125.822,-41.133 116.462,-36.1699 115.41,-43.0904"/>
</g>
<!-- Node3 -->
<g id="node5" class="node"><title>Node3</title>
<a xlink:href="class_container.html#a9c0320e9873286ea5a3b70c2ce29bdf4" target="_top" xlink:title="Container::insert">
<polygon fill="white" stroke="black" points="126,-0.5 126,-19.5 218,-19.5 218,-0.5 126,-0.5"/>
<text text-anchor="middle" x="172" y="-7.5" font-family="Helvetica,sans-Serif" font-size="10.00">Container::insert</text>
</a>
</g>
<!-- Node1&#45;&gt;Node3 -->
<g id="edge4" class="edge"><title>Node1&#45;&gt;Node3</title>
<path fill="none" stroke="midnightblue" d="M89.7189,-22.3547C98.1189,-21.0779 107.018,-19.7253 115.727,-18.4015"/>
<polygon fill="midnightblue" stroke="midnightblue" points="116.462,-21.8301 125.822,-16.867 115.41,-14.9096 116.462,-21.8301"/>
</g>
</g>
</svg>
