<?xml version="1.0" encoding="UTF-8" standalone="no"?>
<!DOCTYPE svg PUBLIC "-//W3C//DTD SVG 1.1//EN"
 "http://www.w3.org/Graphics/SVG/1.1/DTD/svg11.dtd">
<!-- Generated by graphviz version 2.28.0 (20110610.2051)
 -->
<!-- Title: G Pages: 1 -->
<svg width="309pt" height="496pt"
 viewBox="0.00 0.00 309.00 496.00" xmlns="http://www.w3.org/2000/svg" xmlns:xlink="http://www.w3.org/1999/xlink">
<g id="graph1" class="graph" transform="scale(1 1) rotate(0) translate(4 492)">
<title>G</title>
<polygon fill="white" stroke="white" points="-4,5 -4,-492 306,-492 306,5 -4,5"/>
<!-- Node1 -->
<g id="node1" class="node"><title>Node1</title>
<polygon fill="#bfbfbf" stroke="black" points="91,-1 91,-135 267,-135 267,-1 91,-1"/>
<text text-anchor="middle" x="179" y="-123" font-family="Helvetica,sans-Serif" font-size="10.00">BATCHgdwmNeuronTrainBehavior</text>
<polyline fill="none" stroke="black" points="91,-116 267,-116 "/>
<text text-anchor="start" x="99" y="-104" font-family="Helvetica,sans-Serif" font-size="10.00"># delta</text>
<text text-anchor="start" x="99" y="-93" font-family="Helvetica,sans-Serif" font-size="10.00"># rate</text>
<text text-anchor="start" x="99" y="-82" font-family="Helvetica,sans-Serif" font-size="10.00"># x</text>
<text text-anchor="start" x="99" y="-71" font-family="Helvetica,sans-Serif" font-size="10.00"># bias</text>
<text text-anchor="start" x="99" y="-60" font-family="Helvetica,sans-Serif" font-size="10.00"># momentum</text>
<text text-anchor="start" x="99" y="-49" font-family="Helvetica,sans-Serif" font-size="10.00"># change</text>
<text text-anchor="start" x="99" y="-38" font-family="Helvetica,sans-Serif" font-size="10.00"># change</text>
<polyline fill="none" stroke="black" points="91,-31 267,-31 "/>
<text text-anchor="start" x="99" y="-19" font-family="Helvetica,sans-Serif" font-size="10.00">&#45; singlePatternBackwardAction()</text>
<text text-anchor="start" x="99" y="-8" font-family="Helvetica,sans-Serif" font-size="10.00">&#45; endOfEpochAction()</text>
</g>
<!-- Node2 -->
<g id="node2" class="node"><title>Node2</title>
<a xlink:href="class_batch_neuron_train_behavior.html" target="_top" xlink:title="class BatchNeuronTrainBehavior &#45;">
<polygon fill="white" stroke="black" points="-0.5,-195 -0.5,-263 168.5,-263 168.5,-195 -0.5,-195"/>
<text text-anchor="middle" x="84" y="-251" font-family="Helvetica,sans-Serif" font-size="10.00">BatchNeuronTrainBehavior</text>
<polyline fill="none" stroke="black" points="-0.5,-244 168.5,-244 "/>
<text text-anchor="middle" x="84" y="-232" font-family="Helvetica,sans-Serif" font-size="10.00"> </text>
<polyline fill="none" stroke="black" points="-0.5,-225 168.5,-225 "/>
<text text-anchor="start" x="7.5" y="-213" font-family="Helvetica,sans-Serif" font-size="10.00">+ singlePatternBackwardAction()</text>
<text text-anchor="start" x="7.5" y="-202" font-family="Helvetica,sans-Serif" font-size="10.00">+ endOfEpochAction()</text>
</a>
</g>
<!-- Node2&#45;&gt;Node1 -->
<g id="edge2" class="edge"><title>Node2&#45;&gt;Node1</title>
<path fill="none" stroke="midnightblue" d="M109.204,-185.817C118.5,-170.258 129.271,-152.231 139.527,-135.065"/>
<polygon fill="none" stroke="midnightblue" points="106.04,-184.289 103.915,-194.668 112.049,-187.879 106.04,-184.289"/>
</g>
<!-- Node3 -->
<g id="node4" class="node"><title>Node3</title>
<a xlink:href="class_neuron_train_behavior.html" target="_top" xlink:title="class NeuronTrainBehavior &#45;">
<polygon fill="white" stroke="black" points="-0.5,-313 -0.5,-381 168.5,-381 168.5,-313 -0.5,-313"/>
<text text-anchor="middle" x="84" y="-369" font-family="Helvetica,sans-Serif" font-size="10.00">NeuronTrainBehavior</text>
<polyline fill="none" stroke="black" points="-0.5,-362 168.5,-362 "/>
<text text-anchor="start" x="7.5" y="-350" font-family="Helvetica,sans-Serif" font-size="10.00"># d_neuron</text>
<polyline fill="none" stroke="black" points="-0.5,-343 168.5,-343 "/>
<text text-anchor="start" x="7.5" y="-331" font-family="Helvetica,sans-Serif" font-size="10.00">+ singlePatternBackwardAction()</text>
<text text-anchor="start" x="7.5" y="-320" font-family="Helvetica,sans-Serif" font-size="10.00">+ endOfEpochAction()</text>
</a>
</g>
<!-- Node3&#45;&gt;Node2 -->
<g id="edge4" class="edge"><title>Node3&#45;&gt;Node2</title>
<path fill="none" stroke="midnightblue" d="M84,-302.596C84,-289.574 84,-275.502 84,-263.246"/>
<polygon fill="none" stroke="midnightblue" points="80.5001,-302.759 84,-312.759 87.5001,-302.759 80.5001,-302.759"/>
</g>
<!-- Node4 -->
<g id="node6" class="node"><title>Node4</title>
<polygon fill="white" stroke="#bfbfbf" points="186.5,-200.5 186.5,-257.5 301.5,-257.5 301.5,-200.5 186.5,-200.5"/>
<text text-anchor="middle" x="244" y="-245.5" font-family="Helvetica,sans-Serif" font-size="10.00">std::vector&lt; double &gt;</text>
<polyline fill="none" stroke="#bfbfbf" points="186.5,-238.5 301.5,-238.5 "/>
<text text-anchor="start" x="194.5" y="-226.5" font-family="Helvetica,sans-Serif" font-size="10.00">&#45; elements</text>
<polyline fill="none" stroke="#bfbfbf" points="186.5,-219.5 301.5,-219.5 "/>
<text text-anchor="middle" x="244" y="-207.5" font-family="Helvetica,sans-Serif" font-size="10.00"> </text>
</g>
<!-- Node4&#45;&gt;Node1 -->
<g id="edge6" class="edge"><title>Node4&#45;&gt;Node1</title>
<path fill="none" stroke="#9a32cd" stroke-dasharray="5,2" d="M228.849,-190.939C222.041,-174.284 213.795,-154.114 205.986,-135.013"/>
<polygon fill="#9a32cd" stroke="#9a32cd" points="232.678,-200.304 224.728,-192.751 230.786,-195.676 228.894,-191.048 228.894,-191.048 228.894,-191.048 230.786,-195.676 233.059,-189.345 232.678,-200.304 232.678,-200.304"/>
<text text-anchor="middle" x="238" y="-168" font-family="Helvetica,sans-Serif" font-size="10.00">x</text>
<text text-anchor="middle" x="238" y="-157" font-family="Helvetica,sans-Serif" font-size="10.00">change</text>
</g>
<!-- Node5 -->
<g id="node8" class="node"><title>Node5</title>
<a xlink:title="STL class.">
<polygon fill="white" stroke="#bfbfbf" points="199.5,-318.5 199.5,-375.5 288.5,-375.5 288.5,-318.5 199.5,-318.5"/>
<text text-anchor="middle" x="244" y="-363.5" font-family="Helvetica,sans-Serif" font-size="10.00">std::vector&lt; T &gt;</text>
<polyline fill="none" stroke="#bfbfbf" points="199.5,-356.5 288.5,-356.5 "/>
<text text-anchor="start" x="207.5" y="-344.5" font-family="Helvetica,sans-Serif" font-size="10.00">&#45; elements</text>
<polyline fill="none" stroke="#bfbfbf" points="199.5,-337.5 288.5,-337.5 "/>
<text text-anchor="middle" x="244" y="-325.5" font-family="Helvetica,sans-Serif" font-size="10.00"> </text>
</a>
</g>
<!-- Node5&#45;&gt;Node4 -->
<g id="edge8" class="edge"><title>Node5&#45;&gt;Node4</title>
<path fill="none" stroke="orange" stroke-dasharray="5,2" d="M244,-307.837C244,-291.417 244,-272.585 244,-257.558"/>
<polygon fill="orange" stroke="orange" points="240.5,-308.215 244,-318.215 247.5,-308.215 240.5,-308.215"/>
<text text-anchor="middle" x="268.5" y="-285.5" font-family="Helvetica,sans-Serif" font-size="10.00">&lt; double &gt;</text>
</g>
<!-- Node6 -->
<g id="node10" class="node"><title>Node6</title>
<polygon fill="white" stroke="#bfbfbf" points="229.5,-430.5 229.5,-487.5 258.5,-487.5 258.5,-430.5 229.5,-430.5"/>
<text text-anchor="middle" x="244" y="-475.5" font-family="Helvetica,sans-Serif" font-size="10.00">T</text>
<polyline fill="none" stroke="#bfbfbf" points="229.5,-468.5 258.5,-468.5 "/>
<text text-anchor="middle" x="244" y="-456.5" font-family="Helvetica,sans-Serif" font-size="10.00"> </text>
<polyline fill="none" stroke="#bfbfbf" points="229.5,-449.5 258.5,-449.5 "/>
<text text-anchor="middle" x="244" y="-437.5" font-family="Helvetica,sans-Serif" font-size="10.00"> </text>
</g>
<!-- Node6&#45;&gt;Node5 -->
<g id="edge10" class="edge"><title>Node6&#45;&gt;Node5</title>
<path fill="none" stroke="#9a32cd" stroke-dasharray="5,2" d="M244,-420.027C244,-405.478 244,-389.166 244,-375.749"/>
<polygon fill="#9a32cd" stroke="#9a32cd" points="244,-430.242 239.5,-420.242 244,-425.242 244,-420.242 244,-420.242 244,-420.242 244,-425.242 248.5,-420.242 244,-430.242 244,-430.242"/>
<text text-anchor="middle" x="265.5" y="-403.5" font-family="Helvetica,sans-Serif" font-size="10.00">elements</text>
</g>
</g>
</svg>
