<?xml version="1.0" encoding="UTF-8" standalone="no"?>
<!DOCTYPE svg PUBLIC "-//W3C//DTD SVG 1.1//EN"
 "http://www.w3.org/Graphics/SVG/1.1/DTD/svg11.dtd">
<!-- Generated by graphviz version 2.28.0 (20110610.2051)
 -->
<!-- Title: G Pages: 1 -->
<svg width="606pt" height="28pt"
 viewBox="0.00 0.00 606.00 28.00" xmlns="http://www.w3.org/2000/svg" xmlns:xlink="http://www.w3.org/1999/xlink">
<g id="graph1" class="graph" transform="scale(1 1) rotate(0) translate(4 24)">
<title>G</title>
<polygon fill="white" stroke="white" points="-4,5 -4,-24 603,-24 603,5 -4,5"/>
<!-- Node1 -->
<g id="node1" class="node"><title>Node1</title>
<polygon fill="#bfbfbf" stroke="black" points="0.5,-0.5 0.5,-19.5 219.5,-19.5 219.5,-0.5 0.5,-0.5"/>
<text text-anchor="middle" x="110" y="-7.5" font-family="Helvetica,sans-Serif" font-size="10.00">MLPfactory::makeIdentityActivationFunction</text>
</g>
<!-- Node2 -->
<g id="node3" class="node"><title>Node2</title>
<a xlink:href="class_m_l_pfactory.html#aba55f8dff50e23de43170ccbfffa4f89" target="_top" xlink:title="MLPfactory::makePredictBehavior">
<polygon fill="white" stroke="black" points="256.5,-0.5 256.5,-19.5 429.5,-19.5 429.5,-0.5 256.5,-0.5"/>
<text text-anchor="middle" x="343" y="-7.5" font-family="Helvetica,sans-Serif" font-size="10.00">MLPfactory::makePredictBehavior</text>
</a>
</g>
<!-- Node1&#45;&gt;Node2 -->
<g id="edge2" class="edge"><title>Node1&#45;&gt;Node2</title>
<path fill="none" stroke="midnightblue" d="M229.827,-10C238.764,-10 247.676,-10 256.346,-10"/>
<polygon fill="midnightblue" stroke="midnightblue" points="229.736,-6.5001 219.736,-10 229.736,-13.5001 229.736,-6.5001"/>
</g>
<!-- Node3 -->
<g id="node5" class="node"><title>Node3</title>
<a xlink:href="class_m_l_pfactory.html#a7bb87e6e5427385b02041f2c36d1c8fb" target="_top" xlink:title="MLPfactory::makeNeuron">
<polygon fill="white" stroke="black" points="466,-0.5 466,-19.5 598,-19.5 598,-0.5 466,-0.5"/>
<text text-anchor="middle" x="532" y="-7.5" font-family="Helvetica,sans-Serif" font-size="10.00">MLPfactory::makeNeuron</text>
</a>
</g>
<!-- Node2&#45;&gt;Node3 -->
<g id="edge4" class="edge"><title>Node2&#45;&gt;Node3</title>
<path fill="none" stroke="midnightblue" d="M439.607,-10C448.508,-10 457.383,-10 465.91,-10"/>
<polygon fill="midnightblue" stroke="midnightblue" points="439.565,-6.5001 429.565,-10 439.565,-13.5001 439.565,-6.5001"/>
</g>
</g>
</svg>
