<?xml version="1.0" encoding="UTF-8" standalone="no"?>
<!DOCTYPE svg PUBLIC "-//W3C//DTD SVG 1.1//EN"
 "http://www.w3.org/Graphics/SVG/1.1/DTD/svg11.dtd">
<!-- Generated by graphviz version 2.28.0 (20110610.2051)
 -->
<!-- Title: G Pages: 1 -->
<svg width="443pt" height="462pt"
 viewBox="0.00 0.00 443.00 462.00" xmlns="http://www.w3.org/2000/svg" xmlns:xlink="http://www.w3.org/1999/xlink">
<g id="graph1" class="graph" transform="scale(1 1) rotate(0) translate(4 458)">
<title>G</title>
<polygon fill="white" stroke="white" points="-4,5 -4,-458 440,-458 440,5 -4,5"/>
<!-- Node1 -->
<g id="node1" class="node"><title>Node1</title>
<polygon fill="#bfbfbf" stroke="black" points="129,-107 129,-241 305,-241 305,-107 129,-107"/>
<text text-anchor="middle" x="217" y="-229" font-family="Helvetica,sans-Serif" font-size="10.00">BATCHgdwmNeuronTrainBehavior</text>
<polyline fill="none" stroke="black" points="129,-222 305,-222 "/>
<text text-anchor="start" x="137" y="-210" font-family="Helvetica,sans-Serif" font-size="10.00"># delta</text>
<text text-anchor="start" x="137" y="-199" font-family="Helvetica,sans-Serif" font-size="10.00"># rate</text>
<text text-anchor="start" x="137" y="-188" font-family="Helvetica,sans-Serif" font-size="10.00"># x</text>
<text text-anchor="start" x="137" y="-177" font-family="Helvetica,sans-Serif" font-size="10.00"># bias</text>
<text text-anchor="start" x="137" y="-166" font-family="Helvetica,sans-Serif" font-size="10.00"># momentum</text>
<text text-anchor="start" x="137" y="-155" font-family="Helvetica,sans-Serif" font-size="10.00"># change</text>
<text text-anchor="start" x="137" y="-144" font-family="Helvetica,sans-Serif" font-size="10.00"># change</text>
<polyline fill="none" stroke="black" points="129,-137 305,-137 "/>
<text text-anchor="start" x="137" y="-125" font-family="Helvetica,sans-Serif" font-size="10.00">&#45; singlePatternBackwardAction()</text>
<text text-anchor="start" x="137" y="-114" font-family="Helvetica,sans-Serif" font-size="10.00">&#45; endOfEpochAction()</text>
</g>
<!-- Node4 -->
<g id="node7" class="node"><title>Node4</title>
<a xlink:href="class_b_a_t_c_hgdwm_hidden_neuron_train_behavior.html" target="_top" xlink:title="class BATCHgdwmHiddenNeuronTrainBehavior &#45;">
<polygon fill="white" stroke="black" points="-0.5,-1 -0.5,-69 208.5,-69 208.5,-1 -0.5,-1"/>
<text text-anchor="middle" x="104" y="-57" font-family="Helvetica,sans-Serif" font-size="10.00">BATCHgdwmHiddenNeuronTrainBehavior</text>
<polyline fill="none" stroke="black" points="-0.5,-50 208.5,-50 "/>
<text text-anchor="middle" x="104" y="-38" font-family="Helvetica,sans-Serif" font-size="10.00"> </text>
<polyline fill="none" stroke="black" points="-0.5,-31 208.5,-31 "/>
<text text-anchor="start" x="7.5" y="-19" font-family="Helvetica,sans-Serif" font-size="10.00">&#45; singlePatternBackwardAction()</text>
<text text-anchor="start" x="7.5" y="-8" font-family="Helvetica,sans-Serif" font-size="10.00">&#45; endOfEpochAction()</text>
</a>
</g>
<!-- Node1&#45;&gt;Node4 -->
<g id="edge6" class="edge"><title>Node1&#45;&gt;Node4</title>
<path fill="none" stroke="midnightblue" d="M155.884,-98.9037C147.27,-88.46 138.8,-78.1911 131.282,-69.0765"/>
<polygon fill="none" stroke="midnightblue" points="153.423,-101.42 162.486,-106.908 158.823,-96.9663 153.423,-101.42"/>
</g>
<!-- Node5 -->
<g id="node9" class="node"><title>Node5</title>
<a xlink:href="class_b_a_t_c_hgdwm_output_neuron_train_behavior.html" target="_top" xlink:title="class BATCHgdwmOutputNeuronTrainBehavior &#45;">
<polygon fill="white" stroke="black" points="227,-1 227,-69 435,-69 435,-1 227,-1"/>
<text text-anchor="middle" x="331" y="-57" font-family="Helvetica,sans-Serif" font-size="10.00">BATCHgdwmOutputNeuronTrainBehavior</text>
<polyline fill="none" stroke="black" points="227,-50 435,-50 "/>
<text text-anchor="start" x="235" y="-38" font-family="Helvetica,sans-Serif" font-size="10.00"># d_costFunction</text>
<polyline fill="none" stroke="black" points="227,-31 435,-31 "/>
<text text-anchor="start" x="235" y="-19" font-family="Helvetica,sans-Serif" font-size="10.00">&#45; singlePatternBackwardAction()</text>
<text text-anchor="start" x="235" y="-8" font-family="Helvetica,sans-Serif" font-size="10.00">&#45; endOfEpochAction()</text>
</a>
</g>
<!-- Node1&#45;&gt;Node5 -->
<g id="edge8" class="edge"><title>Node1&#45;&gt;Node5</title>
<path fill="none" stroke="midnightblue" d="M278.401,-99.2109C287.179,-88.6615 295.818,-78.2805 303.476,-69.0765"/>
<polygon fill="none" stroke="midnightblue" points="275.702,-96.9822 271.996,-106.908 281.083,-101.46 275.702,-96.9822"/>
</g>
<!-- Node2 -->
<g id="node2" class="node"><title>Node2</title>
<a xlink:href="class_batch_neuron_train_behavior.html" target="_top" xlink:title="class BatchNeuronTrainBehavior &#45;">
<polygon fill="white" stroke="black" points="132.5,-279 132.5,-347 301.5,-347 301.5,-279 132.5,-279"/>
<text text-anchor="middle" x="217" y="-335" font-family="Helvetica,sans-Serif" font-size="10.00">BatchNeuronTrainBehavior</text>
<polyline fill="none" stroke="black" points="132.5,-328 301.5,-328 "/>
<text text-anchor="middle" x="217" y="-316" font-family="Helvetica,sans-Serif" font-size="10.00"> </text>
<polyline fill="none" stroke="black" points="132.5,-309 301.5,-309 "/>
<text text-anchor="start" x="140.5" y="-297" font-family="Helvetica,sans-Serif" font-size="10.00">+ singlePatternBackwardAction()</text>
<text text-anchor="start" x="140.5" y="-286" font-family="Helvetica,sans-Serif" font-size="10.00">+ endOfEpochAction()</text>
</a>
</g>
<!-- Node2&#45;&gt;Node1 -->
<g id="edge2" class="edge"><title>Node2&#45;&gt;Node1</title>
<path fill="none" stroke="midnightblue" d="M217,-268.83C217,-260.015 217,-250.549 217,-241.142"/>
<polygon fill="none" stroke="midnightblue" points="213.5,-268.836 217,-278.836 220.5,-268.836 213.5,-268.836"/>
</g>
<!-- Node3 -->
<g id="node4" class="node"><title>Node3</title>
<a xlink:href="class_neuron_train_behavior.html" target="_top" xlink:title="class NeuronTrainBehavior &#45;">
<polygon fill="white" stroke="black" points="132.5,-385 132.5,-453 301.5,-453 301.5,-385 132.5,-385"/>
<text text-anchor="middle" x="217" y="-441" font-family="Helvetica,sans-Serif" font-size="10.00">NeuronTrainBehavior</text>
<polyline fill="none" stroke="black" points="132.5,-434 301.5,-434 "/>
<text text-anchor="start" x="140.5" y="-422" font-family="Helvetica,sans-Serif" font-size="10.00"># d_neuron</text>
<polyline fill="none" stroke="black" points="132.5,-415 301.5,-415 "/>
<text text-anchor="start" x="140.5" y="-403" font-family="Helvetica,sans-Serif" font-size="10.00">+ singlePatternBackwardAction()</text>
<text text-anchor="start" x="140.5" y="-392" font-family="Helvetica,sans-Serif" font-size="10.00">+ endOfEpochAction()</text>
</a>
</g>
<!-- Node3&#45;&gt;Node2 -->
<g id="edge4" class="edge"><title>Node3&#45;&gt;Node2</title>
<path fill="none" stroke="midnightblue" d="M217,-374.674C217,-365.502 217,-355.961 217,-347.234"/>
<polygon fill="none" stroke="midnightblue" points="213.5,-374.808 217,-384.808 220.5,-374.808 213.5,-374.808"/>
</g>
</g>
</svg>
