<?xml version="1.0" encoding="UTF-8" standalone="no"?>
<!DOCTYPE svg PUBLIC "-//W3C//DTD SVG 1.1//EN"
 "http://www.w3.org/Graphics/SVG/1.1/DTD/svg11.dtd">
<!-- Generated by graphviz version 2.28.0 (20110610.2051)
 -->
<!-- Title: G Pages: 1 -->
<svg width="223pt" height="660pt"
 viewBox="0.00 0.00 223.00 660.00" xmlns="http://www.w3.org/2000/svg" xmlns:xlink="http://www.w3.org/1999/xlink">
<g id="graph1" class="graph" transform="scale(1 1) rotate(0) translate(4 656)">
<title>G</title>
<polygon fill="white" stroke="white" points="-4,5 -4,-656 220,-656 220,5 -4,5"/>
<!-- Node1 -->
<g id="node1" class="node"><title>Node1</title>
<polygon fill="#bfbfbf" stroke="black" points="45.5,-1 45.5,-333 142.5,-333 142.5,-1 45.5,-1"/>
<text text-anchor="middle" x="94" y="-321" font-family="Helvetica,sans-Serif" font-size="10.00">Container&lt; T &gt;</text>
<polyline fill="none" stroke="black" points="45.5,-314 142.5,-314 "/>
<text text-anchor="start" x="53.5" y="-302" font-family="Helvetica,sans-Serif" font-size="10.00"># collection</text>
<polyline fill="none" stroke="black" points="45.5,-295 142.5,-295 "/>
<text text-anchor="start" x="53.5" y="-283" font-family="Helvetica,sans-Serif" font-size="10.00">+ ~Container()</text>
<text text-anchor="start" x="53.5" y="-272" font-family="Helvetica,sans-Serif" font-size="10.00">+ createIterator()</text>
<text text-anchor="start" x="53.5" y="-261" font-family="Helvetica,sans-Serif" font-size="10.00">+ push_back()</text>
<text text-anchor="start" x="53.5" y="-250" font-family="Helvetica,sans-Serif" font-size="10.00">+ reserve()</text>
<text text-anchor="start" x="53.5" y="-239" font-family="Helvetica,sans-Serif" font-size="10.00">+ empty()</text>
<text text-anchor="start" x="53.5" y="-228" font-family="Helvetica,sans-Serif" font-size="10.00">+ size()</text>
<text text-anchor="start" x="53.5" y="-217" font-family="Helvetica,sans-Serif" font-size="10.00">+ clear()</text>
<text text-anchor="start" x="53.5" y="-206" font-family="Helvetica,sans-Serif" font-size="10.00">+ show()</text>
<text text-anchor="start" x="53.5" y="-195" font-family="Helvetica,sans-Serif" font-size="10.00">+ validate()</text>
<text text-anchor="start" x="53.5" y="-184" font-family="Helvetica,sans-Serif" font-size="10.00">+ Container()</text>
<text text-anchor="start" x="53.5" y="-173" font-family="Helvetica,sans-Serif" font-size="10.00">+ Container()</text>
<text text-anchor="start" x="53.5" y="-162" font-family="Helvetica,sans-Serif" font-size="10.00">+ begin()</text>
<text text-anchor="start" x="53.5" y="-151" font-family="Helvetica,sans-Serif" font-size="10.00">+ end()</text>
<text text-anchor="start" x="53.5" y="-140" font-family="Helvetica,sans-Serif" font-size="10.00">+ load()</text>
<text text-anchor="start" x="53.5" y="-129" font-family="Helvetica,sans-Serif" font-size="10.00">+ store()</text>
<text text-anchor="start" x="53.5" y="-118" font-family="Helvetica,sans-Serif" font-size="10.00">+ size()</text>
<text text-anchor="start" x="53.5" y="-107" font-family="Helvetica,sans-Serif" font-size="10.00">+ push_back()</text>
<text text-anchor="start" x="53.5" y="-96" font-family="Helvetica,sans-Serif" font-size="10.00">+ append()</text>
<text text-anchor="start" x="53.5" y="-85" font-family="Helvetica,sans-Serif" font-size="10.00">+ show()</text>
<text text-anchor="start" x="53.5" y="-74" font-family="Helvetica,sans-Serif" font-size="10.00">+ validate()</text>
<text text-anchor="start" x="53.5" y="-63" font-family="Helvetica,sans-Serif" font-size="10.00">+ reserve()</text>
<text text-anchor="start" x="53.5" y="-52" font-family="Helvetica,sans-Serif" font-size="10.00">+ resize()</text>
<text text-anchor="start" x="53.5" y="-41" font-family="Helvetica,sans-Serif" font-size="10.00">+ empty()</text>
<text text-anchor="start" x="53.5" y="-30" font-family="Helvetica,sans-Serif" font-size="10.00">+ clear()</text>
<text text-anchor="start" x="53.5" y="-19" font-family="Helvetica,sans-Serif" font-size="10.00">+ operator[]()</text>
<text text-anchor="start" x="53.5" y="-8" font-family="Helvetica,sans-Serif" font-size="10.00"># Container()</text>
</g>
<!-- Node2 -->
<g id="node2" class="node"><title>Node2</title>
<polygon fill="white" stroke="#bfbfbf" points="0,-382.5 0,-439.5 188,-439.5 188,-382.5 0,-382.5"/>
<text text-anchor="middle" x="94" y="-427.5" font-family="Helvetica,sans-Serif" font-size="10.00">std::vector&lt; boost::shared_ptr&lt; T &gt; &gt;</text>
<polyline fill="none" stroke="#bfbfbf" points="0,-420.5 188,-420.5 "/>
<text text-anchor="start" x="8" y="-408.5" font-family="Helvetica,sans-Serif" font-size="10.00">&#45; elements</text>
<polyline fill="none" stroke="#bfbfbf" points="0,-401.5 188,-401.5 "/>
<text text-anchor="middle" x="94" y="-389.5" font-family="Helvetica,sans-Serif" font-size="10.00"> </text>
</g>
<!-- Node2&#45;&gt;Node1 -->
<g id="edge2" class="edge"><title>Node2&#45;&gt;Node1</title>
<path fill="none" stroke="#9a32cd" stroke-dasharray="5,2" d="M94,-371.949C94,-360.582 94,-347.332 94,-333.144"/>
<polygon fill="#9a32cd" stroke="#9a32cd" points="94,-382.24 89.5001,-372.239 94,-377.24 94.0001,-372.24 94.0001,-372.24 94.0001,-372.24 94,-377.24 98.5001,-372.24 94,-382.24 94,-382.24"/>
<text text-anchor="middle" x="116.5" y="-355.5" font-family="Helvetica,sans-Serif" font-size="10.00">collection</text>
</g>
<!-- Node3 -->
<g id="node4" class="node"><title>Node3</title>
<a xlink:title="STL class.">
<polygon fill="white" stroke="#bfbfbf" points="49.5,-488.5 49.5,-545.5 138.5,-545.5 138.5,-488.5 49.5,-488.5"/>
<text text-anchor="middle" x="94" y="-533.5" font-family="Helvetica,sans-Serif" font-size="10.00">std::vector&lt; T &gt;</text>
<polyline fill="none" stroke="#bfbfbf" points="49.5,-526.5 138.5,-526.5 "/>
<text text-anchor="start" x="57.5" y="-514.5" font-family="Helvetica,sans-Serif" font-size="10.00">&#45; elements</text>
<polyline fill="none" stroke="#bfbfbf" points="49.5,-507.5 138.5,-507.5 "/>
<text text-anchor="middle" x="94" y="-495.5" font-family="Helvetica,sans-Serif" font-size="10.00"> </text>
</a>
</g>
<!-- Node3&#45;&gt;Node2 -->
<g id="edge4" class="edge"><title>Node3&#45;&gt;Node2</title>
<path fill="none" stroke="orange" stroke-dasharray="5,2" d="M94,-478.098C94,-465.403 94,-451.495 94,-439.726"/>
<polygon fill="orange" stroke="orange" points="90.5001,-478.403 94,-488.403 97.5001,-478.403 90.5001,-478.403"/>
<text text-anchor="middle" x="154.5" y="-461.5" font-family="Helvetica,sans-Serif" font-size="10.00">&lt; boost::shared_ptr&lt; T &gt; &gt;</text>
</g>
<!-- Node4 -->
<g id="node6" class="node"><title>Node4</title>
<polygon fill="white" stroke="#bfbfbf" points="79.5,-594.5 79.5,-651.5 108.5,-651.5 108.5,-594.5 79.5,-594.5"/>
<text text-anchor="middle" x="94" y="-639.5" font-family="Helvetica,sans-Serif" font-size="10.00">T</text>
<polyline fill="none" stroke="#bfbfbf" points="79.5,-632.5 108.5,-632.5 "/>
<text text-anchor="middle" x="94" y="-620.5" font-family="Helvetica,sans-Serif" font-size="10.00"> </text>
<polyline fill="none" stroke="#bfbfbf" points="79.5,-613.5 108.5,-613.5 "/>
<text text-anchor="middle" x="94" y="-601.5" font-family="Helvetica,sans-Serif" font-size="10.00"> </text>
</g>
<!-- Node4&#45;&gt;Node3 -->
<g id="edge6" class="edge"><title>Node4&#45;&gt;Node3</title>
<path fill="none" stroke="#9a32cd" stroke-dasharray="5,2" d="M94,-584.098C94,-571.403 94,-557.495 94,-545.726"/>
<polygon fill="#9a32cd" stroke="#9a32cd" points="94,-594.403 89.5001,-584.403 94,-589.403 94.0001,-584.403 94.0001,-584.403 94.0001,-584.403 94,-589.403 98.5001,-584.403 94,-594.403 94,-594.403"/>
<text text-anchor="middle" x="115.5" y="-567.5" font-family="Helvetica,sans-Serif" font-size="10.00">elements</text>
</g>
</g>
</svg>
