<?xml version="1.0" encoding="UTF-8" standalone="no"?>
<!DOCTYPE svg PUBLIC "-//W3C//DTD SVG 1.1//EN"
 "http://www.w3.org/Graphics/SVG/1.1/DTD/svg11.dtd">
<!-- Generated by graphviz version 2.28.0 (20110610.2051)
 -->
<!-- Title: G Pages: 1 -->
<svg width="309pt" height="604pt"
 viewBox="0.00 0.00 309.00 604.00" xmlns="http://www.w3.org/2000/svg" xmlns:xlink="http://www.w3.org/1999/xlink">
<g id="graph1" class="graph" transform="scale(1 1) rotate(0) translate(4 600)">
<title>G</title>
<polygon fill="white" stroke="white" points="-4,5 -4,-600 306,-600 306,5 -4,5"/>
<!-- Node1 -->
<g id="node1" class="node"><title>Node1</title>
<polygon fill="#bfbfbf" stroke="black" points="75,-1 75,-69 283,-69 283,-1 75,-1"/>
<text text-anchor="middle" x="179" y="-57" font-family="Helvetica,sans-Serif" font-size="10.00">BATCHgdwmOutputNeuronTrainBehavior</text>
<polyline fill="none" stroke="black" points="75,-50 283,-50 "/>
<text text-anchor="start" x="83" y="-38" font-family="Helvetica,sans-Serif" font-size="10.00"># d_costFunction</text>
<polyline fill="none" stroke="black" points="75,-31 283,-31 "/>
<text text-anchor="start" x="83" y="-19" font-family="Helvetica,sans-Serif" font-size="10.00">&#45; singlePatternBackwardAction()</text>
<text text-anchor="start" x="83" y="-8" font-family="Helvetica,sans-Serif" font-size="10.00">&#45; endOfEpochAction()</text>
</g>
<!-- Node2 -->
<g id="node2" class="node"><title>Node2</title>
<a xlink:href="class_b_a_t_c_hgdwm_neuron_train_behavior.html" target="_top" xlink:title="class BATCHgdwmNeuronTrainBehavior &#45;">
<polygon fill="white" stroke="black" points="91,-109 91,-243 267,-243 267,-109 91,-109"/>
<text text-anchor="middle" x="179" y="-231" font-family="Helvetica,sans-Serif" font-size="10.00">BATCHgdwmNeuronTrainBehavior</text>
<polyline fill="none" stroke="black" points="91,-224 267,-224 "/>
<text text-anchor="start" x="99" y="-212" font-family="Helvetica,sans-Serif" font-size="10.00"># delta</text>
<text text-anchor="start" x="99" y="-201" font-family="Helvetica,sans-Serif" font-size="10.00"># rate</text>
<text text-anchor="start" x="99" y="-190" font-family="Helvetica,sans-Serif" font-size="10.00"># x</text>
<text text-anchor="start" x="99" y="-179" font-family="Helvetica,sans-Serif" font-size="10.00"># bias</text>
<text text-anchor="start" x="99" y="-168" font-family="Helvetica,sans-Serif" font-size="10.00"># momentum</text>
<text text-anchor="start" x="99" y="-157" font-family="Helvetica,sans-Serif" font-size="10.00"># change</text>
<text text-anchor="start" x="99" y="-146" font-family="Helvetica,sans-Serif" font-size="10.00"># change</text>
<polyline fill="none" stroke="black" points="91,-139 267,-139 "/>
<text text-anchor="start" x="99" y="-127" font-family="Helvetica,sans-Serif" font-size="10.00">&#45; singlePatternBackwardAction()</text>
<text text-anchor="start" x="99" y="-116" font-family="Helvetica,sans-Serif" font-size="10.00">&#45; endOfEpochAction()</text>
</a>
</g>
<!-- Node2&#45;&gt;Node1 -->
<g id="edge2" class="edge"><title>Node2&#45;&gt;Node1</title>
<path fill="none" stroke="midnightblue" d="M179,-98.4796C179,-88.2376 179,-78.201 179,-69.2719"/>
<polygon fill="none" stroke="midnightblue" points="175.5,-98.7567 179,-108.757 182.5,-98.7568 175.5,-98.7567"/>
</g>
<!-- Node3 -->
<g id="node4" class="node"><title>Node3</title>
<a xlink:href="class_batch_neuron_train_behavior.html" target="_top" xlink:title="class BatchNeuronTrainBehavior &#45;">
<polygon fill="white" stroke="black" points="-0.5,-303 -0.5,-371 168.5,-371 168.5,-303 -0.5,-303"/>
<text text-anchor="middle" x="84" y="-359" font-family="Helvetica,sans-Serif" font-size="10.00">BatchNeuronTrainBehavior</text>
<polyline fill="none" stroke="black" points="-0.5,-352 168.5,-352 "/>
<text text-anchor="middle" x="84" y="-340" font-family="Helvetica,sans-Serif" font-size="10.00"> </text>
<polyline fill="none" stroke="black" points="-0.5,-333 168.5,-333 "/>
<text text-anchor="start" x="7.5" y="-321" font-family="Helvetica,sans-Serif" font-size="10.00">+ singlePatternBackwardAction()</text>
<text text-anchor="start" x="7.5" y="-310" font-family="Helvetica,sans-Serif" font-size="10.00">+ endOfEpochAction()</text>
</a>
</g>
<!-- Node3&#45;&gt;Node2 -->
<g id="edge4" class="edge"><title>Node3&#45;&gt;Node2</title>
<path fill="none" stroke="midnightblue" d="M109.204,-293.817C118.5,-278.258 129.271,-260.231 139.527,-243.065"/>
<polygon fill="none" stroke="midnightblue" points="106.04,-292.289 103.915,-302.668 112.049,-295.879 106.04,-292.289"/>
</g>
<!-- Node4 -->
<g id="node6" class="node"><title>Node4</title>
<a xlink:href="class_neuron_train_behavior.html" target="_top" xlink:title="class NeuronTrainBehavior &#45;">
<polygon fill="white" stroke="black" points="-0.5,-421 -0.5,-489 168.5,-489 168.5,-421 -0.5,-421"/>
<text text-anchor="middle" x="84" y="-477" font-family="Helvetica,sans-Serif" font-size="10.00">NeuronTrainBehavior</text>
<polyline fill="none" stroke="black" points="-0.5,-470 168.5,-470 "/>
<text text-anchor="start" x="7.5" y="-458" font-family="Helvetica,sans-Serif" font-size="10.00"># d_neuron</text>
<polyline fill="none" stroke="black" points="-0.5,-451 168.5,-451 "/>
<text text-anchor="start" x="7.5" y="-439" font-family="Helvetica,sans-Serif" font-size="10.00">+ singlePatternBackwardAction()</text>
<text text-anchor="start" x="7.5" y="-428" font-family="Helvetica,sans-Serif" font-size="10.00">+ endOfEpochAction()</text>
</a>
</g>
<!-- Node4&#45;&gt;Node3 -->
<g id="edge6" class="edge"><title>Node4&#45;&gt;Node3</title>
<path fill="none" stroke="midnightblue" d="M84,-410.596C84,-397.574 84,-383.502 84,-371.246"/>
<polygon fill="none" stroke="midnightblue" points="80.5001,-410.759 84,-420.759 87.5001,-410.759 80.5001,-410.759"/>
</g>
<!-- Node5 -->
<g id="node8" class="node"><title>Node5</title>
<polygon fill="white" stroke="#bfbfbf" points="186.5,-308.5 186.5,-365.5 301.5,-365.5 301.5,-308.5 186.5,-308.5"/>
<text text-anchor="middle" x="244" y="-353.5" font-family="Helvetica,sans-Serif" font-size="10.00">std::vector&lt; double &gt;</text>
<polyline fill="none" stroke="#bfbfbf" points="186.5,-346.5 301.5,-346.5 "/>
<text text-anchor="start" x="194.5" y="-334.5" font-family="Helvetica,sans-Serif" font-size="10.00">&#45; elements</text>
<polyline fill="none" stroke="#bfbfbf" points="186.5,-327.5 301.5,-327.5 "/>
<text text-anchor="middle" x="244" y="-315.5" font-family="Helvetica,sans-Serif" font-size="10.00"> </text>
</g>
<!-- Node5&#45;&gt;Node2 -->
<g id="edge8" class="edge"><title>Node5&#45;&gt;Node2</title>
<path fill="none" stroke="#9a32cd" stroke-dasharray="5,2" d="M228.849,-298.939C222.041,-282.284 213.795,-262.114 205.986,-243.013"/>
<polygon fill="#9a32cd" stroke="#9a32cd" points="232.678,-308.304 224.728,-300.751 230.786,-303.676 228.894,-299.048 228.894,-299.048 228.894,-299.048 230.786,-303.676 233.059,-297.345 232.678,-308.304 232.678,-308.304"/>
<text text-anchor="middle" x="238" y="-276" font-family="Helvetica,sans-Serif" font-size="10.00">x</text>
<text text-anchor="middle" x="238" y="-265" font-family="Helvetica,sans-Serif" font-size="10.00">change</text>
</g>
<!-- Node6 -->
<g id="node10" class="node"><title>Node6</title>
<a xlink:title="STL class.">
<polygon fill="white" stroke="#bfbfbf" points="199.5,-426.5 199.5,-483.5 288.5,-483.5 288.5,-426.5 199.5,-426.5"/>
<text text-anchor="middle" x="244" y="-471.5" font-family="Helvetica,sans-Serif" font-size="10.00">std::vector&lt; T &gt;</text>
<polyline fill="none" stroke="#bfbfbf" points="199.5,-464.5 288.5,-464.5 "/>
<text text-anchor="start" x="207.5" y="-452.5" font-family="Helvetica,sans-Serif" font-size="10.00">&#45; elements</text>
<polyline fill="none" stroke="#bfbfbf" points="199.5,-445.5 288.5,-445.5 "/>
<text text-anchor="middle" x="244" y="-433.5" font-family="Helvetica,sans-Serif" font-size="10.00"> </text>
</a>
</g>
<!-- Node6&#45;&gt;Node5 -->
<g id="edge10" class="edge"><title>Node6&#45;&gt;Node5</title>
<path fill="none" stroke="orange" stroke-dasharray="5,2" d="M244,-415.837C244,-399.417 244,-380.585 244,-365.558"/>
<polygon fill="orange" stroke="orange" points="240.5,-416.215 244,-426.215 247.5,-416.215 240.5,-416.215"/>
<text text-anchor="middle" x="268.5" y="-393.5" font-family="Helvetica,sans-Serif" font-size="10.00">&lt; double &gt;</text>
</g>
<!-- Node7 -->
<g id="node12" class="node"><title>Node7</title>
<polygon fill="white" stroke="#bfbfbf" points="229.5,-538.5 229.5,-595.5 258.5,-595.5 258.5,-538.5 229.5,-538.5"/>
<text text-anchor="middle" x="244" y="-583.5" font-family="Helvetica,sans-Serif" font-size="10.00">T</text>
<polyline fill="none" stroke="#bfbfbf" points="229.5,-576.5 258.5,-576.5 "/>
<text text-anchor="middle" x="244" y="-564.5" font-family="Helvetica,sans-Serif" font-size="10.00"> </text>
<polyline fill="none" stroke="#bfbfbf" points="229.5,-557.5 258.5,-557.5 "/>
<text text-anchor="middle" x="244" y="-545.5" font-family="Helvetica,sans-Serif" font-size="10.00"> </text>
</g>
<!-- Node7&#45;&gt;Node6 -->
<g id="edge12" class="edge"><title>Node7&#45;&gt;Node6</title>
<path fill="none" stroke="#9a32cd" stroke-dasharray="5,2" d="M244,-528.027C244,-513.478 244,-497.166 244,-483.749"/>
<polygon fill="#9a32cd" stroke="#9a32cd" points="244,-538.242 239.5,-528.242 244,-533.242 244,-528.242 244,-528.242 244,-528.242 244,-533.242 248.5,-528.242 244,-538.242 244,-538.242"/>
<text text-anchor="middle" x="265.5" y="-511.5" font-family="Helvetica,sans-Serif" font-size="10.00">elements</text>
</g>
</g>
</svg>
