<?xml version="1.0" encoding="UTF-8" standalone="no"?>
<!DOCTYPE svg PUBLIC "-//W3C//DTD SVG 1.1//EN"
 "http://www.w3.org/Graphics/SVG/1.1/DTD/svg11.dtd">
<!-- Generated by graphviz version 2.28.0 (20110610.2051)
 -->
<!-- Title: G Pages: 1 -->
<svg width="428pt" height="66pt"
 viewBox="0.00 0.00 428.00 66.00" xmlns="http://www.w3.org/2000/svg" xmlns:xlink="http://www.w3.org/1999/xlink">
<g id="graph1" class="graph" transform="scale(1 1) rotate(0) translate(4 62)">
<title>G</title>
<polygon fill="white" stroke="white" points="-4,5 -4,-62 425,-62 425,5 -4,5"/>
<!-- Node1 -->
<g id="node1" class="node"><title>Node1</title>
<polygon fill="#bfbfbf" stroke="black" points="0,-19.5 0,-38.5 136,-38.5 136,-19.5 0,-19.5"/>
<text text-anchor="middle" x="68" y="-26.5" font-family="Helvetica,sans-Serif" font-size="10.00">NeuralFactory::makeLayer</text>
</g>
<!-- Node2 -->
<g id="node3" class="node"><title>Node2</title>
<a xlink:href="class_simple_neural_creator.html#a02ea62733f819e7b4a0b9878910545c5" target="_top" xlink:title="SimpleNeuralCreator::createFeedForwardNetwork">
<polygon fill="white" stroke="black" points="172,-38.5 172,-57.5 420,-57.5 420,-38.5 172,-38.5"/>
<text text-anchor="middle" x="296" y="-45.5" font-family="Helvetica,sans-Serif" font-size="10.00">SimpleNeuralCreator::createFeedForwardNetwork</text>
</a>
</g>
<!-- Node1&#45;&gt;Node2 -->
<g id="edge2" class="edge"><title>Node1&#45;&gt;Node2</title>
<path fill="none" stroke="midnightblue" d="M146.183,-35.4889C157.727,-36.4594 169.828,-37.4766 181.929,-38.494"/>
<polygon fill="midnightblue" stroke="midnightblue" points="146.454,-31.9993 136.196,-34.6492 145.867,-38.9747 146.454,-31.9993"/>
</g>
<!-- Node3 -->
<g id="node5" class="node"><title>Node3</title>
<a xlink:href="class_neural_network.html#a94089745c72c49c41c51aaa73935145e" target="_top" xlink:title="NeuralNetwork::NeuralNetwork">
<polygon fill="white" stroke="black" points="216.5,-0.5 216.5,-19.5 375.5,-19.5 375.5,-0.5 216.5,-0.5"/>
<text text-anchor="middle" x="296" y="-7.5" font-family="Helvetica,sans-Serif" font-size="10.00">NeuralNetwork::NeuralNetwork</text>
</a>
</g>
<!-- Node1&#45;&gt;Node3 -->
<g id="edge4" class="edge"><title>Node1&#45;&gt;Node3</title>
<path fill="none" stroke="midnightblue" d="M146.379,-22.4947C168.896,-20.6017 193.515,-18.5319 216.124,-16.6312"/>
<polygon fill="midnightblue" stroke="midnightblue" points="145.867,-19.0253 136.196,-23.3508 146.454,-26.0007 145.867,-19.0253"/>
</g>
</g>
</svg>
