<?xml version="1.0" encoding="UTF-8" standalone="no"?>
<!DOCTYPE svg PUBLIC "-//W3C//DTD SVG 1.1//EN"
 "http://www.w3.org/Graphics/SVG/1.1/DTD/svg11.dtd">
<!-- Generated by graphviz version 2.28.0 (20110610.2051)
 -->
<!-- Title: G Pages: 1 -->
<svg width="373pt" height="266pt"
 viewBox="0.00 0.00 373.00 266.00" xmlns="http://www.w3.org/2000/svg" xmlns:xlink="http://www.w3.org/1999/xlink">
<g id="graph1" class="graph" transform="scale(1 1) rotate(0) translate(4 262)">
<title>G</title>
<polygon fill="white" stroke="white" points="-4,5 -4,-262 370,-262 370,5 -4,5"/>
<!-- Node1 -->
<g id="node1" class="node"><title>Node1</title>
<polygon fill="#bfbfbf" stroke="black" points="105.5,-94.5 105.5,-151.5 250.5,-151.5 250.5,-94.5 105.5,-94.5"/>
<text text-anchor="middle" x="178" y="-139.5" font-family="Helvetica,sans-Serif" font-size="10.00">BatchNetworkTrainBehavior</text>
<polyline fill="none" stroke="black" points="105.5,-132.5 250.5,-132.5 "/>
<text text-anchor="middle" x="178" y="-120.5" font-family="Helvetica,sans-Serif" font-size="10.00"> </text>
<polyline fill="none" stroke="black" points="105.5,-113.5 250.5,-113.5 "/>
<text text-anchor="start" x="113.5" y="-101.5" font-family="Helvetica,sans-Serif" font-size="10.00">+ train()</text>
</g>
<!-- Node3 -->
<g id="node5" class="node"><title>Node3</title>
<a xlink:href="class_b_a_t_c_hgd_network_train_behavior.html" target="_top" xlink:title="class BATCHgdNetworkTrainBehavior &#45;">
<polygon fill="white" stroke="black" points="-0.5,-0.5 -0.5,-57.5 164.5,-57.5 164.5,-0.5 -0.5,-0.5"/>
<text text-anchor="middle" x="82" y="-45.5" font-family="Helvetica,sans-Serif" font-size="10.00">BATCHgdNetworkTrainBehavior</text>
<polyline fill="none" stroke="black" points="-0.5,-38.5 164.5,-38.5 "/>
<text text-anchor="middle" x="82" y="-26.5" font-family="Helvetica,sans-Serif" font-size="10.00"> </text>
<polyline fill="none" stroke="black" points="-0.5,-19.5 164.5,-19.5 "/>
<text text-anchor="start" x="7.5" y="-7.5" font-family="Helvetica,sans-Serif" font-size="10.00">+ train()</text>
</a>
</g>
<!-- Node1&#45;&gt;Node3 -->
<g id="edge4" class="edge"><title>Node1&#45;&gt;Node3</title>
<path fill="none" stroke="midnightblue" d="M141.882,-87.3868C131.608,-77.5407 120.558,-66.9518 110.783,-57.5836"/>
<polygon fill="none" stroke="midnightblue" points="139.555,-90.0049 149.197,-94.397 144.399,-84.9509 139.555,-90.0049"/>
</g>
<!-- Node4 -->
<g id="node7" class="node"><title>Node4</title>
<a xlink:href="class_b_a_t_c_hgdwm_network_train_behavior.html" target="_top" xlink:title="class BATCHgdwmNetworkTrainBehavior &#45;">
<polygon fill="white" stroke="black" points="183,-0.5 183,-57.5 365,-57.5 365,-0.5 183,-0.5"/>
<text text-anchor="middle" x="274" y="-45.5" font-family="Helvetica,sans-Serif" font-size="10.00">BATCHgdwmNetworkTrainBehavior</text>
<polyline fill="none" stroke="black" points="183,-38.5 365,-38.5 "/>
<text text-anchor="middle" x="274" y="-26.5" font-family="Helvetica,sans-Serif" font-size="10.00"> </text>
<polyline fill="none" stroke="black" points="183,-19.5 365,-19.5 "/>
<text text-anchor="start" x="191" y="-7.5" font-family="Helvetica,sans-Serif" font-size="10.00">+ train()</text>
</a>
</g>
<!-- Node1&#45;&gt;Node4 -->
<g id="edge6" class="edge"><title>Node1&#45;&gt;Node4</title>
<path fill="none" stroke="midnightblue" d="M214.118,-87.3868C224.392,-77.5407 235.442,-66.9518 245.217,-57.5836"/>
<polygon fill="none" stroke="midnightblue" points="211.601,-84.9509 206.803,-94.397 216.445,-90.0049 211.601,-84.9509"/>
</g>
<!-- Node2 -->
<g id="node2" class="node"><title>Node2</title>
<a xlink:href="class_network_train_behavior.html" target="_top" xlink:title="class NetworkTrainBehavior &#45;">
<polygon fill="white" stroke="black" points="119,-189 119,-257 237,-257 237,-189 119,-189"/>
<text text-anchor="middle" x="178" y="-245" font-family="Helvetica,sans-Serif" font-size="10.00">NetworkTrainBehavior</text>
<polyline fill="none" stroke="black" points="119,-238 237,-238 "/>
<text text-anchor="start" x="127" y="-226" font-family="Helvetica,sans-Serif" font-size="10.00"># d_neuralNetwork</text>
<text text-anchor="start" x="127" y="-215" font-family="Helvetica,sans-Serif" font-size="10.00"># d_costFunction</text>
<polyline fill="none" stroke="black" points="119,-208 237,-208 "/>
<text text-anchor="start" x="127" y="-196" font-family="Helvetica,sans-Serif" font-size="10.00">+ train()</text>
</a>
</g>
<!-- Node2&#45;&gt;Node1 -->
<g id="edge2" class="edge"><title>Node2&#45;&gt;Node1</title>
<path fill="none" stroke="midnightblue" d="M178,-178.638C178,-169.455 178,-160.005 178,-151.6"/>
<polygon fill="none" stroke="midnightblue" points="174.5,-178.822 178,-188.822 181.5,-178.822 174.5,-178.822"/>
</g>
</g>
</svg>
