<?xml version="1.0" encoding="UTF-8" standalone="no"?>
<!DOCTYPE svg PUBLIC "-//W3C//DTD SVG 1.1//EN"
 "http://www.w3.org/Graphics/SVG/1.1/DTD/svg11.dtd">
<!-- Generated by graphviz version 2.28.0 (20110610.2051)
 -->
<!-- Title: G Pages: 1 -->
<svg width="472pt" height="104pt"
 viewBox="0.00 0.00 472.00 104.00" xmlns="http://www.w3.org/2000/svg" xmlns:xlink="http://www.w3.org/1999/xlink">
<g id="graph1" class="graph" transform="scale(1 1) rotate(0) translate(4 100)">
<title>G</title>
<polygon fill="white" stroke="white" points="-4,5 -4,-100 469,-100 469,5 -4,5"/>
<!-- Node1 -->
<g id="node1" class="node"><title>Node1</title>
<polygon fill="#bfbfbf" stroke="black" points="0,-38.5 0,-57.5 248,-57.5 248,-38.5 0,-38.5"/>
<text text-anchor="middle" x="124" y="-45.5" font-family="Helvetica,sans-Serif" font-size="10.00">SimpleNeuralCreator::createFeedForwardNetwork</text>
</g>
<!-- Node2 -->
<g id="node3" class="node"><title>Node2</title>
<a xlink:href="class_neural_factory.html#a1a02bc2427430c4085654a72a03a5f4f" target="_top" xlink:title="NeuralFactory::makeLayer">
<polygon fill="white" stroke="black" points="306,-76.5 306,-95.5 442,-95.5 442,-76.5 306,-76.5"/>
<text text-anchor="middle" x="374" y="-83.5" font-family="Helvetica,sans-Serif" font-size="10.00">NeuralFactory::makeLayer</text>
</a>
</g>
<!-- Node1&#45;&gt;Node2 -->
<g id="edge2" class="edge"><title>Node1&#45;&gt;Node2</title>
<path fill="none" stroke="midnightblue" d="M187.261,-57.54C221.753,-62.8251 264.803,-69.4214 300.77,-74.9325"/>
<polygon fill="midnightblue" stroke="midnightblue" points="300.299,-78.4011 310.714,-76.4561 301.359,-71.4818 300.299,-78.4011"/>
</g>
<!-- Node3 -->
<g id="node5" class="node"><title>Node3</title>
<a xlink:href="class_neural_factory.html#a15b9308e868ca439869b1d68afabfcde" target="_top" xlink:title="NeuralFactory::makeNeuralNetwork">
<polygon fill="white" stroke="black" points="284.5,-38.5 284.5,-57.5 463.5,-57.5 463.5,-38.5 284.5,-38.5"/>
<text text-anchor="middle" x="374" y="-45.5" font-family="Helvetica,sans-Serif" font-size="10.00">NeuralFactory::makeNeuralNetwork</text>
</a>
</g>
<!-- Node1&#45;&gt;Node3 -->
<g id="edge4" class="edge"><title>Node1&#45;&gt;Node3</title>
<path fill="none" stroke="midnightblue" d="M248.273,-48C256.916,-48 265.563,-48 274.047,-48"/>
<polygon fill="midnightblue" stroke="midnightblue" points="274.304,-51.5001 284.303,-48 274.303,-44.5001 274.304,-51.5001"/>
</g>
<!-- Node4 -->
<g id="node7" class="node"><title>Node4</title>
<a xlink:href="class_neural_factory.html#a12abbf93f829aab585975f157c8c98f7" target="_top" xlink:title="NeuralFactory::makeNeuron">
<polygon fill="white" stroke="black" points="302.5,-0.5 302.5,-19.5 445.5,-19.5 445.5,-0.5 302.5,-0.5"/>
<text text-anchor="middle" x="374" y="-7.5" font-family="Helvetica,sans-Serif" font-size="10.00">NeuralFactory::makeNeuron</text>
</a>
</g>
<!-- Node1&#45;&gt;Node4 -->
<g id="edge6" class="edge"><title>Node1&#45;&gt;Node4</title>
<path fill="none" stroke="midnightblue" d="M187.261,-38.46C221.753,-33.1749 264.803,-26.5786 300.77,-21.0675"/>
<polygon fill="midnightblue" stroke="midnightblue" points="301.359,-24.5182 310.714,-19.5439 300.299,-17.5989 301.359,-24.5182"/>
</g>
</g>
</svg>
