<?xml version="1.0" encoding="UTF-8" standalone="no"?>
<!DOCTYPE svg PUBLIC "-//W3C//DTD SVG 1.1//EN"
 "http://www.w3.org/Graphics/SVG/1.1/DTD/svg11.dtd">
<!-- Generated by graphviz version 2.28.0 (20110610.2051)
 -->
<!-- Title: G Pages: 1 -->
<svg width="863pt" height="462pt"
 viewBox="0.00 0.00 863.00 462.00" xmlns="http://www.w3.org/2000/svg" xmlns:xlink="http://www.w3.org/1999/xlink">
<g id="graph1" class="graph" transform="scale(1 1) rotate(0) translate(4 458)">
<title>G</title>
<polygon fill="white" stroke="white" points="-4,5 -4,-458 860,-458 860,5 -4,5"/>
<!-- Node1 -->
<g id="node1" class="node"><title>Node1</title>
<polygon fill="#bfbfbf" stroke="black" points="330.5,-279 330.5,-347 499.5,-347 499.5,-279 330.5,-279"/>
<text text-anchor="middle" x="415" y="-335" font-family="Helvetica,sans-Serif" font-size="10.00">BatchNeuronTrainBehavior</text>
<polyline fill="none" stroke="black" points="330.5,-328 499.5,-328 "/>
<text text-anchor="middle" x="415" y="-316" font-family="Helvetica,sans-Serif" font-size="10.00"> </text>
<polyline fill="none" stroke="black" points="330.5,-309 499.5,-309 "/>
<text text-anchor="start" x="338.5" y="-297" font-family="Helvetica,sans-Serif" font-size="10.00">+ singlePatternBackwardAction()</text>
<text text-anchor="start" x="338.5" y="-286" font-family="Helvetica,sans-Serif" font-size="10.00">+ endOfEpochAction()</text>
</g>
<!-- Node3 -->
<g id="node5" class="node"><title>Node3</title>
<a xlink:href="class_b_a_t_c_hgd_neuron_train_behavior.html" target="_top" xlink:title="class BATCHgdNeuronTrainBehavior &#45;">
<polygon fill="white" stroke="black" points="221.5,-123.5 221.5,-224.5 390.5,-224.5 390.5,-123.5 221.5,-123.5"/>
<text text-anchor="middle" x="306" y="-212.5" font-family="Helvetica,sans-Serif" font-size="10.00">BATCHgdNeuronTrainBehavior</text>
<polyline fill="none" stroke="black" points="221.5,-205.5 390.5,-205.5 "/>
<text text-anchor="start" x="229.5" y="-193.5" font-family="Helvetica,sans-Serif" font-size="10.00"># d_delta</text>
<text text-anchor="start" x="229.5" y="-182.5" font-family="Helvetica,sans-Serif" font-size="10.00"># d_learningRate</text>
<text text-anchor="start" x="229.5" y="-171.5" font-family="Helvetica,sans-Serif" font-size="10.00"># d_sum_delta_x</text>
<text text-anchor="start" x="229.5" y="-160.5" font-family="Helvetica,sans-Serif" font-size="10.00"># d_sum_delta_bias</text>
<polyline fill="none" stroke="black" points="221.5,-153.5 390.5,-153.5 "/>
<text text-anchor="start" x="229.5" y="-141.5" font-family="Helvetica,sans-Serif" font-size="10.00">+ singlePatternBackwardAction()</text>
<text text-anchor="start" x="229.5" y="-130.5" font-family="Helvetica,sans-Serif" font-size="10.00">+ endOfEpochAction()</text>
</a>
</g>
<!-- Node1&#45;&gt;Node3 -->
<g id="edge4" class="edge"><title>Node1&#45;&gt;Node3</title>
<path fill="none" stroke="midnightblue" d="M382.364,-270.98C370.792,-256.435 357.643,-239.909 345.556,-224.717"/>
<polygon fill="none" stroke="midnightblue" points="379.649,-273.19 388.614,-278.836 385.127,-268.832 379.649,-273.19"/>
</g>
<!-- Node6 -->
<g id="node11" class="node"><title>Node6</title>
<a xlink:href="class_b_a_t_c_hgdwm_neuron_train_behavior.html" target="_top" xlink:title="class BATCHgdwmNeuronTrainBehavior &#45;">
<polygon fill="white" stroke="black" points="436,-107 436,-241 612,-241 612,-107 436,-107"/>
<text text-anchor="middle" x="524" y="-229" font-family="Helvetica,sans-Serif" font-size="10.00">BATCHgdwmNeuronTrainBehavior</text>
<polyline fill="none" stroke="black" points="436,-222 612,-222 "/>
<text text-anchor="start" x="444" y="-210" font-family="Helvetica,sans-Serif" font-size="10.00"># delta</text>
<text text-anchor="start" x="444" y="-199" font-family="Helvetica,sans-Serif" font-size="10.00"># rate</text>
<text text-anchor="start" x="444" y="-188" font-family="Helvetica,sans-Serif" font-size="10.00"># x</text>
<text text-anchor="start" x="444" y="-177" font-family="Helvetica,sans-Serif" font-size="10.00"># bias</text>
<text text-anchor="start" x="444" y="-166" font-family="Helvetica,sans-Serif" font-size="10.00"># momentum</text>
<text text-anchor="start" x="444" y="-155" font-family="Helvetica,sans-Serif" font-size="10.00"># change</text>
<text text-anchor="start" x="444" y="-144" font-family="Helvetica,sans-Serif" font-size="10.00"># change</text>
<polyline fill="none" stroke="black" points="436,-137 612,-137 "/>
<text text-anchor="start" x="444" y="-125" font-family="Helvetica,sans-Serif" font-size="10.00">&#45; singlePatternBackwardAction()</text>
<text text-anchor="start" x="444" y="-114" font-family="Helvetica,sans-Serif" font-size="10.00">&#45; endOfEpochAction()</text>
</a>
</g>
<!-- Node1&#45;&gt;Node6 -->
<g id="edge10" class="edge"><title>Node1&#45;&gt;Node6</title>
<path fill="none" stroke="midnightblue" d="M447.755,-270.831C455.214,-261.456 463.322,-251.265 471.376,-241.142"/>
<polygon fill="none" stroke="midnightblue" points="444.873,-268.832 441.386,-278.836 450.351,-273.19 444.873,-268.832"/>
</g>
<!-- Node2 -->
<g id="node2" class="node"><title>Node2</title>
<a xlink:href="class_neuron_train_behavior.html" target="_top" xlink:title="class NeuronTrainBehavior &#45;">
<polygon fill="white" stroke="black" points="330.5,-385 330.5,-453 499.5,-453 499.5,-385 330.5,-385"/>
<text text-anchor="middle" x="415" y="-441" font-family="Helvetica,sans-Serif" font-size="10.00">NeuronTrainBehavior</text>
<polyline fill="none" stroke="black" points="330.5,-434 499.5,-434 "/>
<text text-anchor="start" x="338.5" y="-422" font-family="Helvetica,sans-Serif" font-size="10.00"># d_neuron</text>
<polyline fill="none" stroke="black" points="330.5,-415 499.5,-415 "/>
<text text-anchor="start" x="338.5" y="-403" font-family="Helvetica,sans-Serif" font-size="10.00">+ singlePatternBackwardAction()</text>
<text text-anchor="start" x="338.5" y="-392" font-family="Helvetica,sans-Serif" font-size="10.00">+ endOfEpochAction()</text>
</a>
</g>
<!-- Node2&#45;&gt;Node1 -->
<g id="edge2" class="edge"><title>Node2&#45;&gt;Node1</title>
<path fill="none" stroke="midnightblue" d="M415,-374.674C415,-365.502 415,-355.961 415,-347.234"/>
<polygon fill="none" stroke="midnightblue" points="411.5,-374.808 415,-384.808 418.5,-374.808 411.5,-374.808"/>
</g>
<!-- Node4 -->
<g id="node7" class="node"><title>Node4</title>
<a xlink:href="class_b_a_t_c_hgd_hidden_neuron_train_behavior.html" target="_top" xlink:title="class BATCHgdHiddenNeuronTrainBehavior &#45;">
<polygon fill="white" stroke="black" points="0,-1 0,-69 192,-69 192,-1 0,-1"/>
<text text-anchor="middle" x="96" y="-57" font-family="Helvetica,sans-Serif" font-size="10.00">BATCHgdHiddenNeuronTrainBehavior</text>
<polyline fill="none" stroke="black" points="0,-50 192,-50 "/>
<text text-anchor="middle" x="96" y="-38" font-family="Helvetica,sans-Serif" font-size="10.00"> </text>
<polyline fill="none" stroke="black" points="0,-31 192,-31 "/>
<text text-anchor="start" x="8" y="-19" font-family="Helvetica,sans-Serif" font-size="10.00">&#45; singlePatternBackwardAction()</text>
<text text-anchor="start" x="8" y="-8" font-family="Helvetica,sans-Serif" font-size="10.00">&#45; endOfEpochAction()</text>
</a>
</g>
<!-- Node3&#45;&gt;Node4 -->
<g id="edge6" class="edge"><title>Node3&#45;&gt;Node4</title>
<path fill="none" stroke="midnightblue" d="M221.367,-117.787C196.027,-101.256 169.042,-83.6512 146.624,-69.0261"/>
<polygon fill="none" stroke="midnightblue" points="219.601,-120.814 229.888,-123.346 223.425,-114.951 219.601,-120.814"/>
</g>
<!-- Node5 -->
<g id="node9" class="node"><title>Node5</title>
<a xlink:href="class_b_a_t_c_hgd_output_neuron_train_behavior.html" target="_top" xlink:title="class BATCHgdOutputNeuronTrainBehavior &#45;">
<polygon fill="white" stroke="black" points="210.5,-1 210.5,-69 401.5,-69 401.5,-1 210.5,-1"/>
<text text-anchor="middle" x="306" y="-57" font-family="Helvetica,sans-Serif" font-size="10.00">BATCHgdOutputNeuronTrainBehavior</text>
<polyline fill="none" stroke="black" points="210.5,-50 401.5,-50 "/>
<text text-anchor="start" x="218.5" y="-38" font-family="Helvetica,sans-Serif" font-size="10.00"># d_costFunction</text>
<polyline fill="none" stroke="black" points="210.5,-31 401.5,-31 "/>
<text text-anchor="start" x="218.5" y="-19" font-family="Helvetica,sans-Serif" font-size="10.00">&#45; singlePatternBackwardAction()</text>
<text text-anchor="start" x="218.5" y="-8" font-family="Helvetica,sans-Serif" font-size="10.00">&#45; endOfEpochAction()</text>
</a>
</g>
<!-- Node3&#45;&gt;Node5 -->
<g id="edge8" class="edge"><title>Node3&#45;&gt;Node5</title>
<path fill="none" stroke="midnightblue" d="M306,-112.924C306,-97.972 306,-82.4767 306,-69.3456"/>
<polygon fill="none" stroke="midnightblue" points="302.5,-113.152 306,-123.152 309.5,-113.152 302.5,-113.152"/>
</g>
<!-- Node7 -->
<g id="node13" class="node"><title>Node7</title>
<a xlink:href="class_b_a_t_c_hgdwm_hidden_neuron_train_behavior.html" target="_top" xlink:title="class BATCHgdwmHiddenNeuronTrainBehavior &#45;">
<polygon fill="white" stroke="black" points="419.5,-1 419.5,-69 628.5,-69 628.5,-1 419.5,-1"/>
<text text-anchor="middle" x="524" y="-57" font-family="Helvetica,sans-Serif" font-size="10.00">BATCHgdwmHiddenNeuronTrainBehavior</text>
<polyline fill="none" stroke="black" points="419.5,-50 628.5,-50 "/>
<text text-anchor="middle" x="524" y="-38" font-family="Helvetica,sans-Serif" font-size="10.00"> </text>
<polyline fill="none" stroke="black" points="419.5,-31 628.5,-31 "/>
<text text-anchor="start" x="427.5" y="-19" font-family="Helvetica,sans-Serif" font-size="10.00">&#45; singlePatternBackwardAction()</text>
<text text-anchor="start" x="427.5" y="-8" font-family="Helvetica,sans-Serif" font-size="10.00">&#45; endOfEpochAction()</text>
</a>
</g>
<!-- Node6&#45;&gt;Node7 -->
<g id="edge12" class="edge"><title>Node6&#45;&gt;Node7</title>
<path fill="none" stroke="midnightblue" d="M524,-96.7563C524,-87.056 524,-77.5656 524,-69.0765"/>
<polygon fill="none" stroke="midnightblue" points="520.5,-96.9077 524,-106.908 527.5,-96.9078 520.5,-96.9077"/>
</g>
<!-- Node8 -->
<g id="node15" class="node"><title>Node8</title>
<a xlink:href="class_b_a_t_c_hgdwm_output_neuron_train_behavior.html" target="_top" xlink:title="class BATCHgdwmOutputNeuronTrainBehavior &#45;">
<polygon fill="white" stroke="black" points="647,-1 647,-69 855,-69 855,-1 647,-1"/>
<text text-anchor="middle" x="751" y="-57" font-family="Helvetica,sans-Serif" font-size="10.00">BATCHgdwmOutputNeuronTrainBehavior</text>
<polyline fill="none" stroke="black" points="647,-50 855,-50 "/>
<text text-anchor="start" x="655" y="-38" font-family="Helvetica,sans-Serif" font-size="10.00"># d_costFunction</text>
<polyline fill="none" stroke="black" points="647,-31 855,-31 "/>
<text text-anchor="start" x="655" y="-19" font-family="Helvetica,sans-Serif" font-size="10.00">&#45; singlePatternBackwardAction()</text>
<text text-anchor="start" x="655" y="-8" font-family="Helvetica,sans-Serif" font-size="10.00">&#45; endOfEpochAction()</text>
</a>
</g>
<!-- Node6&#45;&gt;Node8 -->
<g id="edge14" class="edge"><title>Node6&#45;&gt;Node8</title>
<path fill="none" stroke="midnightblue" d="M620.769,-114.597C646.522,-99.0553 673.449,-82.8042 696.09,-69.1396"/>
<polygon fill="none" stroke="midnightblue" points="618.842,-111.672 612.089,-119.836 622.459,-117.666 618.842,-111.672"/>
</g>
</g>
</svg>
