<?xml version="1.0" encoding="UTF-8" standalone="no"?>
<!DOCTYPE svg PUBLIC "-//W3C//DTD SVG 1.1//EN"
 "http://www.w3.org/Graphics/SVG/1.1/DTD/svg11.dtd">
<!-- Generated by graphviz version 2.25.20091207.0545 (20091207.0545)
 -->
<!-- Title: G Pages: 1 -->
<svg width="452pt" height="104pt"
 viewBox="0.00 0.00 452.00 104.00" xmlns="http://www.w3.org/2000/svg" xmlns:xlink="http://www.w3.org/1999/xlink">
<g id="graph1" class="graph" transform="scale(1 1) rotate(0) translate(4 100)">
<title>G</title>
<polygon fill="white" stroke="white" points="-4,5 -4,-100 449,-100 449,5 -4,5"/>
<!-- Node1 -->
<g id="node1" class="node"><title>Node1</title>
<polygon fill="#bfbfbf" stroke="black" points="0,-38.5 0,-57.5 118,-57.5 118,-38.5 0,-38.5"/>
<text text-anchor="middle" x="59" y="-44.5" font-family="Helvetica,sans-Serif" font-size="10.00">ConContainer::getFrom</text>
</g>
<!-- Node2 -->
<g id="node3" class="node"><title>Node2</title>
<a xlink:href="class_con_container.html#a8895e2c10e223e9950028f595588b9fe" target="_top" xlink:title="Size of the ConContainer object.">
<polygon fill="white" stroke="black" points="154.5,-76.5 154.5,-95.5 289.5,-95.5 289.5,-76.5 154.5,-76.5"/>
<text text-anchor="middle" x="222" y="-82.5" font-family="Helvetica,sans-Serif" font-size="10.00">ConContainer::numOfCons</text>
</a>
</g>
<!-- Node1&#45;&gt;Node2 -->
<g id="edge2" class="edge"><title>Node1&#45;&gt;Node2</title>
<path fill="none" stroke="midnightblue" d="M100.132,-57.589C121.738,-62.6261 148.409,-68.8438 171.286,-74.1771"/>
<polygon fill="midnightblue" stroke="midnightblue" points="170.63,-77.6181 181.164,-76.4799 172.22,-70.8009 170.63,-77.6181"/>
</g>
<!-- Node4 -->
<g id="node7" class="node"><title>Node4</title>
<a xlink:href="class_container.html#afd87c69cb799ed7b434c29090083a285" target="_top" xlink:title="Append a shared_ptr at the end of collection.">
<polygon fill="white" stroke="black" points="166.5,-38.5 166.5,-57.5 277.5,-57.5 277.5,-38.5 166.5,-38.5"/>
<text text-anchor="middle" x="222" y="-44.5" font-family="Helvetica,sans-Serif" font-size="10.00">Container::push_back</text>
</a>
</g>
<!-- Node1&#45;&gt;Node4 -->
<g id="edge6" class="edge"><title>Node1&#45;&gt;Node4</title>
<path fill="none" stroke="midnightblue" d="M118.308,-48C130.54,-48 143.493,-48 155.947,-48"/>
<polygon fill="midnightblue" stroke="midnightblue" points="156.264,-51.5001 166.264,-48 156.264,-44.5001 156.264,-51.5001"/>
</g>
<!-- Node5 -->
<g id="node9" class="node"><title>Node5</title>
<a xlink:href="class_container.html#aa3cbae68ebeed649c52eb3805a30fb75" target="_top" xlink:title="Container::reserve">
<polygon fill="white" stroke="black" points="174,-0.5 174,-19.5 270,-19.5 270,-0.5 174,-0.5"/>
<text text-anchor="middle" x="222" y="-6.5" font-family="Helvetica,sans-Serif" font-size="10.00">Container::reserve</text>
</a>
</g>
<!-- Node1&#45;&gt;Node5 -->
<g id="edge8" class="edge"><title>Node1&#45;&gt;Node5</title>
<path fill="none" stroke="midnightblue" d="M100.132,-38.411C121.738,-33.3739 148.409,-27.1562 171.286,-21.8229"/>
<polygon fill="midnightblue" stroke="midnightblue" points="172.22,-25.1991 181.164,-19.5201 170.63,-18.3819 172.22,-25.1991"/>
</g>
<!-- Node3 -->
<g id="node5" class="node"><title>Node3</title>
<a xlink:href="class_container.html#a842c3d9eca81b78b59112fde9707b091" target="_top" xlink:title="Container\&lt; Con \&gt;::size">
<polygon fill="white" stroke="black" points="326,-76.5 326,-95.5 444,-95.5 444,-76.5 326,-76.5"/>
<text text-anchor="middle" x="385" y="-82.5" font-family="Helvetica,sans-Serif" font-size="10.00">Container&lt; Con &gt;::size</text>
</a>
</g>
<!-- Node2&#45;&gt;Node3 -->
<g id="edge4" class="edge"><title>Node2&#45;&gt;Node3</title>
<path fill="none" stroke="midnightblue" d="M289.711,-86C298.324,-86 307.148,-86 315.784,-86"/>
<polygon fill="midnightblue" stroke="midnightblue" points="315.812,-89.5001 325.812,-86 315.812,-82.5001 315.812,-89.5001"/>
</g>
</g>
</svg>
