<?xml version="1.0" encoding="UTF-8" standalone="no"?>
<!DOCTYPE svg PUBLIC "-//W3C//DTD SVG 1.1//EN"
 "http://www.w3.org/Graphics/SVG/1.1/DTD/svg11.dtd">
<!-- Generated by graphviz version 2.25.20091207.0545 (20091207.0545)
 -->
<!-- Title: G Pages: 1 -->
<svg width="252pt" height="104pt"
 viewBox="0.00 0.00 252.00 104.00" xmlns="http://www.w3.org/2000/svg" xmlns:xlink="http://www.w3.org/1999/xlink">
<g id="graph1" class="graph" transform="scale(1 1) rotate(0) translate(4 100)">
<title>G</title>
<polygon fill="white" stroke="white" points="-4,5 -4,-100 249,-100 249,5 -4,5"/>
<!-- Node1 -->
<g id="node1" class="node"><title>Node1</title>
<polygon fill="#bfbfbf" stroke="black" points="0.5,-38.5 0.5,-57.5 81.5,-57.5 81.5,-38.5 0.5,-38.5"/>
<text text-anchor="middle" x="41" y="-44.5" font-family="Helvetica,sans-Serif" font-size="10.00">VecCon::erase</text>
</g>
<!-- Node2 -->
<g id="node3" class="node"><title>Node2</title>
<a xlink:href="class_container.html#a9ad6802d12bf5f48400bc346de37ad0f" target="_top" xlink:title="Container\&lt; Con \&gt;::begin">
<polygon fill="white" stroke="black" points="119.5,-76.5 119.5,-95.5 242.5,-95.5 242.5,-76.5 119.5,-76.5"/>
<text text-anchor="middle" x="181" y="-82.5" font-family="Helvetica,sans-Serif" font-size="10.00">Container&lt; Con &gt;::begin</text>
</a>
</g>
<!-- Node1&#45;&gt;Node2 -->
<g id="edge2" class="edge"><title>Node1&#45;&gt;Node2</title>
<path fill="none" stroke="midnightblue" d="M76.3279,-57.589C94.4006,-62.4944 116.598,-68.5196 135.895,-73.7571"/>
<polygon fill="midnightblue" stroke="midnightblue" points="135.116,-77.1723 145.683,-76.4141 136.949,-70.4167 135.116,-77.1723"/>
</g>
<!-- Node3 -->
<g id="node5" class="node"><title>Node3</title>
<a xlink:href="class_container.html#a769250b7546b782007f1adaba8a07336" target="_top" xlink:title="Container\&lt; Con \&gt;::end">
<polygon fill="white" stroke="black" points="123,-38.5 123,-57.5 239,-57.5 239,-38.5 123,-38.5"/>
<text text-anchor="middle" x="181" y="-44.5" font-family="Helvetica,sans-Serif" font-size="10.00">Container&lt; Con &gt;::end</text>
</a>
</g>
<!-- Node1&#45;&gt;Node3 -->
<g id="edge4" class="edge"><title>Node1&#45;&gt;Node3</title>
<path fill="none" stroke="midnightblue" d="M81.8701,-48C91.5949,-48 102.233,-48 112.815,-48"/>
<polygon fill="midnightblue" stroke="midnightblue" points="112.912,-51.5001 122.912,-48 112.912,-44.5001 112.912,-51.5001"/>
</g>
<!-- Node4 -->
<g id="node7" class="node"><title>Node4</title>
<a xlink:href="class_container.html#ab77ce6f8173bd47c4cf46643317dffdb" target="_top" xlink:title="Container\&lt; Con \&gt;::resize">
<polygon fill="white" stroke="black" points="118,-0.5 118,-19.5 244,-19.5 244,-0.5 118,-0.5"/>
<text text-anchor="middle" x="181" y="-6.5" font-family="Helvetica,sans-Serif" font-size="10.00">Container&lt; Con &gt;::resize</text>
</a>
</g>
<!-- Node1&#45;&gt;Node4 -->
<g id="edge6" class="edge"><title>Node1&#45;&gt;Node4</title>
<path fill="none" stroke="midnightblue" d="M76.3279,-38.411C94.4006,-33.5056 116.598,-27.4804 135.895,-22.2429"/>
<polygon fill="midnightblue" stroke="midnightblue" points="136.949,-25.5833 145.683,-19.5859 135.116,-18.8277 136.949,-25.5833"/>
</g>
</g>
</svg>
