<?xml version="1.0" encoding="UTF-8" standalone="no"?>
<!DOCTYPE svg PUBLIC "-//W3C//DTD SVG 1.1//EN"
 "http://www.w3.org/Graphics/SVG/1.1/DTD/svg11.dtd">
<!-- Generated by graphviz version 2.25.20091207.0545 (20091207.0545)
 -->
<!-- Title: G Pages: 1 -->
<svg width="594pt" height="28pt"
 viewBox="0.00 0.00 594.00 28.00" xmlns="http://www.w3.org/2000/svg" xmlns:xlink="http://www.w3.org/1999/xlink">
<g id="graph1" class="graph" transform="scale(1 1) rotate(0) translate(4 24)">
<title>G</title>
<polygon fill="white" stroke="white" points="-4,5 -4,-24 591,-24 591,5 -4,5"/>
<!-- Node1 -->
<g id="node1" class="node"><title>Node1</title>
<polygon fill="#bfbfbf" stroke="black" points="0,-0.5 0,-19.5 98,-19.5 98,-0.5 0,-0.5"/>
<text text-anchor="middle" x="49" y="-6.5" font-family="Helvetica,sans-Serif" font-size="10.00">Neuron::getWeight</text>
</g>
<!-- Node2 -->
<g id="node3" class="node"><title>Node2</title>
<a xlink:href="class_con_container.html#a9a460c0aa4154c29caff4777607b43c1" target="_top" xlink:title="Getter of the weight field of the Con objects related to ConContainer.">
<polygon fill="white" stroke="black" points="134,-0.5 134,-19.5 260,-19.5 260,-0.5 134,-0.5"/>
<text text-anchor="middle" x="197" y="-6.5" font-family="Helvetica,sans-Serif" font-size="10.00">ConContainer::getWeight</text>
</a>
</g>
<!-- Node1&#45;&gt;Node2 -->
<g id="edge2" class="edge"><title>Node1&#45;&gt;Node2</title>
<path fill="none" stroke="midnightblue" d="M98.2819,-10C106.502,-10 115.181,-10 123.845,-10"/>
<polygon fill="midnightblue" stroke="midnightblue" points="123.98,-13.5001 133.98,-10 123.98,-6.5001 123.98,-13.5001"/>
</g>
<!-- Node3 -->
<g id="node5" class="node"><title>Node3</title>
<a xlink:href="class_con_container.html#a8895e2c10e223e9950028f595588b9fe" target="_top" xlink:title="Size of the ConContainer object.">
<polygon fill="white" stroke="black" points="296.5,-0.5 296.5,-19.5 431.5,-19.5 431.5,-0.5 296.5,-0.5"/>
<text text-anchor="middle" x="364" y="-6.5" font-family="Helvetica,sans-Serif" font-size="10.00">ConContainer::numOfCons</text>
</a>
</g>
<!-- Node2&#45;&gt;Node3 -->
<g id="edge4" class="edge"><title>Node2&#45;&gt;Node3</title>
<path fill="none" stroke="midnightblue" d="M260.136,-10C268.633,-10 277.431,-10 286.146,-10"/>
<polygon fill="midnightblue" stroke="midnightblue" points="286.315,-13.5001 296.315,-10 286.315,-6.5001 286.315,-13.5001"/>
</g>
<!-- Node4 -->
<g id="node7" class="node"><title>Node4</title>
<a xlink:href="class_container.html#a842c3d9eca81b78b59112fde9707b091" target="_top" xlink:title="Container\&lt; Con \&gt;::size">
<polygon fill="white" stroke="black" points="468,-0.5 468,-19.5 586,-19.5 586,-0.5 468,-0.5"/>
<text text-anchor="middle" x="527" y="-6.5" font-family="Helvetica,sans-Serif" font-size="10.00">Container&lt; Con &gt;::size</text>
</a>
</g>
<!-- Node3&#45;&gt;Node4 -->
<g id="edge6" class="edge"><title>Node3&#45;&gt;Node4</title>
<path fill="none" stroke="midnightblue" d="M431.711,-10C440.324,-10 449.148,-10 457.784,-10"/>
<polygon fill="midnightblue" stroke="midnightblue" points="457.812,-13.5001 467.812,-10 457.812,-6.5001 457.812,-13.5001"/>
</g>
</g>
</svg>
