<?xml version="1.0" encoding="UTF-8" standalone="no"?>
<!DOCTYPE svg PUBLIC "-//W3C//DTD SVG 1.1//EN"
 "http://www.w3.org/Graphics/SVG/1.1/DTD/svg11.dtd">
<!-- Generated by graphviz version 2.25.20091207.0545 (20091207.0545)
 -->
<!-- Title: G Pages: 1 -->
<svg width="180pt" height="66pt"
 viewBox="0.00 0.00 180.00 66.00" xmlns="http://www.w3.org/2000/svg" xmlns:xlink="http://www.w3.org/1999/xlink">
<g id="graph1" class="graph" transform="scale(1 1) rotate(0) translate(4 62)">
<title>G</title>
<polygon fill="white" stroke="white" points="-4,5 -4,-62 177,-62 177,5 -4,5"/>
<!-- Node1 -->
<g id="node1" class="node"><title>Node1</title>
<polygon fill="#bfbfbf" stroke="black" points="0,-19.5 0,-38.5 62,-38.5 62,-19.5 0,-19.5"/>
<text text-anchor="middle" x="31" y="-25.5" font-family="Helvetica,sans-Serif" font-size="10.00">Con::getId</text>
</g>
<!-- Node2 -->
<g id="node3" class="node"><title>Node2</title>
<a xlink:href="class_con.html#ab85838575b5e01f3b8073136f2102922" target="_top" xlink:title="Pretty print of the Con information.">
<polygon fill="white" stroke="black" points="103.5,-38.5 103.5,-57.5 166.5,-57.5 166.5,-38.5 103.5,-38.5"/>
<text text-anchor="middle" x="135" y="-44.5" font-family="Helvetica,sans-Serif" font-size="10.00">Con::show</text>
</a>
</g>
<!-- Node1&#45;&gt;Node2 -->
<g id="edge2" class="edge"><title>Node1&#45;&gt;Node2</title>
<path fill="none" stroke="midnightblue" d="M72.313,-36.5476C82.685,-38.4425 93.6499,-40.4457 103.459,-42.2377"/>
<polygon fill="midnightblue" stroke="midnightblue" points="72.6697,-33.0549 62.2034,-34.7006 71.4116,-39.9409 72.6697,-33.0549"/>
</g>
<!-- Node3 -->
<g id="node5" class="node"><title>Node3</title>
<a xlink:href="class_con.html#af5f836a7b0988b3d9113589b2959d5e6" target="_top" xlink:title="Object validator.">
<polygon fill="white" stroke="black" points="98,-0.5 98,-19.5 172,-19.5 172,-0.5 98,-0.5"/>
<text text-anchor="middle" x="135" y="-6.5" font-family="Helvetica,sans-Serif" font-size="10.00">Con::validate</text>
</a>
</g>
<!-- Node1&#45;&gt;Node3 -->
<g id="edge4" class="edge"><title>Node1&#45;&gt;Node3</title>
<path fill="none" stroke="midnightblue" d="M72.2833,-21.4579C80.7612,-19.909 89.6363,-18.2876 97.9536,-16.7681"/>
<polygon fill="midnightblue" stroke="midnightblue" points="71.4116,-18.0591 62.2034,-23.2994 72.6697,-24.9451 71.4116,-18.0591"/>
</g>
</g>
</svg>
