<?xml version="1.0" encoding="UTF-8" standalone="no"?>
<!DOCTYPE svg PUBLIC "-//W3C//DTD SVG 1.1//EN"
 "http://www.w3.org/Graphics/SVG/1.1/DTD/svg11.dtd">
<!-- Generated by graphviz version 2.28.0 (20110610.2051)
 -->
<!-- Title: G Pages: 1 -->
<svg width="168pt" height="282pt"
 viewBox="0.00 0.00 168.00 282.00" xmlns="http://www.w3.org/2000/svg" xmlns:xlink="http://www.w3.org/1999/xlink">
<g id="graph1" class="graph" transform="scale(1 1) rotate(0) translate(4 278)">
<title>G</title>
<polygon fill="white" stroke="white" points="-4,5 -4,-278 165,-278 165,5 -4,5"/>
<!-- Node1 -->
<g id="node1" class="node"><title>Node1</title>
<polygon fill="#bfbfbf" stroke="black" points="1,-1 1,-91 159,-91 159,-1 1,-1"/>
<text text-anchor="middle" x="80" y="-79" font-family="Helvetica,sans-Serif" font-size="10.00">RBFbehavior</text>
<polyline fill="none" stroke="black" points="1,-72 159,-72 "/>
<text text-anchor="start" x="9" y="-60" font-family="Helvetica,sans-Serif" font-size="10.00">&#45; d_width</text>
<text text-anchor="start" x="9" y="-49" font-family="Helvetica,sans-Serif" font-size="10.00">&#45; d_altitude</text>
<polyline fill="none" stroke="black" points="1,-42 159,-42 "/>
<text text-anchor="start" x="9" y="-30" font-family="Helvetica,sans-Serif" font-size="10.00">+ RBFbehavior()</text>
<text text-anchor="start" x="9" y="-19" font-family="Helvetica,sans-Serif" font-size="10.00">&#45; singlePatternForwardAction()</text>
<text text-anchor="start" x="9" y="-8" font-family="Helvetica,sans-Serif" font-size="10.00">&#45; show()</text>
</g>
<!-- Node2 -->
<g id="node2" class="node"><title>Node2</title>
<a xlink:href="class_predict_behavior.html" target="_top" xlink:title="class PredictBehavior &#45;">
<polygon fill="white" stroke="black" points="-0.5,-128.5 -0.5,-273.5 160.5,-273.5 160.5,-128.5 -0.5,-128.5"/>
<text text-anchor="middle" x="80" y="-261.5" font-family="Helvetica,sans-Serif" font-size="10.00">PredictBehavior</text>
<polyline fill="none" stroke="black" points="-0.5,-254.5 160.5,-254.5 "/>
<text text-anchor="start" x="7.5" y="-242.5" font-family="Helvetica,sans-Serif" font-size="10.00"># d_neuron</text>
<polyline fill="none" stroke="black" points="-0.5,-235.5 160.5,-235.5 "/>
<text text-anchor="start" x="7.5" y="-223.5" font-family="Helvetica,sans-Serif" font-size="10.00">+ singlePatternForwardAction()</text>
<text text-anchor="start" x="7.5" y="-212.5" font-family="Helvetica,sans-Serif" font-size="10.00">+ show()</text>
<text text-anchor="start" x="7.5" y="-201.5" font-family="Helvetica,sans-Serif" font-size="10.00"># PredictBehavior()</text>
<text text-anchor="start" x="7.5" y="-190.5" font-family="Helvetica,sans-Serif" font-size="10.00"># useActivationFunctionf0()</text>
<text text-anchor="start" x="7.5" y="-179.5" font-family="Helvetica,sans-Serif" font-size="10.00"># useActivationFunctionf1()</text>
<text text-anchor="start" x="7.5" y="-168.5" font-family="Helvetica,sans-Serif" font-size="10.00"># getConIterator()</text>
<text text-anchor="start" x="7.5" y="-157.5" font-family="Helvetica,sans-Serif" font-size="10.00"># setOutput()</text>
<text text-anchor="start" x="7.5" y="-146.5" font-family="Helvetica,sans-Serif" font-size="10.00"># setOutputDerivative()</text>
<text text-anchor="start" x="7.5" y="-135.5" font-family="Helvetica,sans-Serif" font-size="10.00"># setInducedLocalField()</text>
</a>
</g>
<!-- Node2&#45;&gt;Node1 -->
<g id="edge2" class="edge"><title>Node2&#45;&gt;Node1</title>
<path fill="none" stroke="midnightblue" d="M80,-118.252C80,-108.887 80,-99.628 80,-91.0391"/>
<polygon fill="none" stroke="midnightblue" points="76.5001,-118.428 80,-128.428 83.5001,-118.428 76.5001,-118.428"/>
</g>
</g>
</svg>
