<?xml version="1.0" encoding="UTF-8" standalone="no"?>
<!DOCTYPE svg PUBLIC "-//W3C//DTD SVG 1.1//EN"
 "http://www.w3.org/Graphics/SVG/1.1/DTD/svg11.dtd">
<!-- Generated by graphviz version 2.28.0 (20110610.2051)
 -->
<!-- Title: G Pages: 1 -->
<svg width="608pt" height="28pt"
 viewBox="0.00 0.00 608.00 28.00" xmlns="http://www.w3.org/2000/svg" xmlns:xlink="http://www.w3.org/1999/xlink">
<g id="graph1" class="graph" transform="scale(1 1) rotate(0) translate(4 24)">
<title>G</title>
<polygon fill="white" stroke="white" points="-4,5 -4,-24 605,-24 605,5 -4,5"/>
<!-- Node1 -->
<g id="node1" class="node"><title>Node1</title>
<polygon fill="#bfbfbf" stroke="black" points="0,-0.5 0,-19.5 122,-19.5 122,-0.5 0,-0.5"/>
<text text-anchor="middle" x="61" y="-7.5" font-family="Helvetica,sans-Serif" font-size="10.00">ConContainer::validate</text>
</g>
<!-- Node2 -->
<g id="node3" class="node"><title>Node2</title>
<a xlink:href="class_con_container.html#a387ac09ab154d21c5ad597d32b32dbc2" target="_top" xlink:title="Getter of the Id values of the vector of Cons.">
<polygon fill="white" stroke="black" points="158,-0.5 158,-19.5 268,-19.5 268,-0.5 158,-0.5"/>
<text text-anchor="middle" x="213" y="-7.5" font-family="Helvetica,sans-Serif" font-size="10.00">ConContainer::getId</text>
</a>
</g>
<!-- Node1&#45;&gt;Node2 -->
<g id="edge2" class="edge"><title>Node1&#45;&gt;Node2</title>
<path fill="none" stroke="midnightblue" d="M122.146,-10C130.491,-10 139.09,-10 147.51,-10"/>
<polygon fill="midnightblue" stroke="midnightblue" points="147.661,-13.5001 157.661,-10 147.661,-6.5001 147.661,-13.5001"/>
</g>
<!-- Node3 -->
<g id="node5" class="node"><title>Node3</title>
<a xlink:href="class_con_container.html#a8895e2c10e223e9950028f595588b9fe" target="_top" xlink:title="Size of the ConContainer object.">
<polygon fill="white" stroke="black" points="304,-0.5 304,-19.5 444,-19.5 444,-0.5 304,-0.5"/>
<text text-anchor="middle" x="374" y="-7.5" font-family="Helvetica,sans-Serif" font-size="10.00">ConContainer::numOfCons</text>
</a>
</g>
<!-- Node2&#45;&gt;Node3 -->
<g id="edge4" class="edge"><title>Node2&#45;&gt;Node3</title>
<path fill="none" stroke="midnightblue" d="M268.274,-10C276.486,-10 285.099,-10 293.708,-10"/>
<polygon fill="midnightblue" stroke="midnightblue" points="293.789,-13.5001 303.789,-10 293.789,-6.5001 293.789,-13.5001"/>
</g>
<!-- Node4 -->
<g id="node7" class="node"><title>Node4</title>
<a xlink:href="class_container.html#a359f34bc418575b474184cbe3f33527e" target="_top" xlink:title="Container\&lt; Con \&gt;::size">
<polygon fill="white" stroke="black" points="480,-0.5 480,-19.5 600,-19.5 600,-0.5 480,-0.5"/>
<text text-anchor="middle" x="540" y="-7.5" font-family="Helvetica,sans-Serif" font-size="10.00">Container&lt; Con &gt;::size</text>
</a>
</g>
<!-- Node3&#45;&gt;Node4 -->
<g id="edge6" class="edge"><title>Node3&#45;&gt;Node4</title>
<path fill="none" stroke="midnightblue" d="M444.075,-10C452.539,-10 461.192,-10 469.66,-10"/>
<polygon fill="midnightblue" stroke="midnightblue" points="469.872,-13.5001 479.872,-10 469.872,-6.5001 469.872,-13.5001"/>
</g>
</g>
</svg>
