<?xml version="1.0" encoding="UTF-8" standalone="no"?>
<!DOCTYPE svg PUBLIC "-//W3C//DTD SVG 1.1//EN"
 "http://www.w3.org/Graphics/SVG/1.1/DTD/svg11.dtd">
<!-- Generated by graphviz version 2.25.20091207.0545 (20091207.0545)
 -->
<!-- Title: G Pages: 1 -->
<svg width="578pt" height="104pt"
 viewBox="0.00 0.00 578.00 104.00" xmlns="http://www.w3.org/2000/svg" xmlns:xlink="http://www.w3.org/1999/xlink">
<g id="graph1" class="graph" transform="scale(1 1) rotate(0) translate(4 100)">
<title>G</title>
<polygon fill="white" stroke="white" points="-4,5 -4,-100 575,-100 575,5 -4,5"/>
<!-- Node1 -->
<g id="node1" class="node"><title>Node1</title>
<polygon fill="#bfbfbf" stroke="black" points="0,-38.5 0,-57.5 90,-57.5 90,-38.5 0,-38.5"/>
<text text-anchor="middle" x="45" y="-44.5" font-family="Helvetica,sans-Serif" font-size="10.00">Neuron::getFrom</text>
</g>
<!-- Node2 -->
<g id="node3" class="node"><title>Node2</title>
<a xlink:href="class_con_container.html#a705da30e27c1022561e32c59ce81da5e" target="_top" xlink:title="Getter of the from field of the Con objects related to ConContainer.">
<polygon fill="white" stroke="black" points="126,-38.5 126,-57.5 244,-57.5 244,-38.5 126,-38.5"/>
<text text-anchor="middle" x="185" y="-44.5" font-family="Helvetica,sans-Serif" font-size="10.00">ConContainer::getFrom</text>
</a>
</g>
<!-- Node1&#45;&gt;Node2 -->
<g id="edge2" class="edge"><title>Node1&#45;&gt;Node2</title>
<path fill="none" stroke="midnightblue" d="M90.0675,-48C98.2833,-48 107.026,-48 115.753,-48"/>
<polygon fill="midnightblue" stroke="midnightblue" points="115.959,-51.5001 125.959,-48 115.959,-44.5001 115.959,-51.5001"/>
</g>
<!-- Node3 -->
<g id="node5" class="node"><title>Node3</title>
<a xlink:href="class_con_container.html#a8895e2c10e223e9950028f595588b9fe" target="_top" xlink:title="Size of the ConContainer object.">
<polygon fill="white" stroke="black" points="280.5,-76.5 280.5,-95.5 415.5,-95.5 415.5,-76.5 280.5,-76.5"/>
<text text-anchor="middle" x="348" y="-82.5" font-family="Helvetica,sans-Serif" font-size="10.00">ConContainer::numOfCons</text>
</a>
</g>
<!-- Node2&#45;&gt;Node3 -->
<g id="edge4" class="edge"><title>Node2&#45;&gt;Node3</title>
<path fill="none" stroke="midnightblue" d="M226.132,-57.589C247.738,-62.6261 274.409,-68.8438 297.286,-74.1771"/>
<polygon fill="midnightblue" stroke="midnightblue" points="296.63,-77.6181 307.164,-76.4799 298.22,-70.8009 296.63,-77.6181"/>
</g>
<!-- Node5 -->
<g id="node9" class="node"><title>Node5</title>
<a xlink:href="class_container.html#afd87c69cb799ed7b434c29090083a285" target="_top" xlink:title="Append a shared_ptr at the end of collection.">
<polygon fill="white" stroke="black" points="292.5,-38.5 292.5,-57.5 403.5,-57.5 403.5,-38.5 292.5,-38.5"/>
<text text-anchor="middle" x="348" y="-44.5" font-family="Helvetica,sans-Serif" font-size="10.00">Container::push_back</text>
</a>
</g>
<!-- Node2&#45;&gt;Node5 -->
<g id="edge8" class="edge"><title>Node2&#45;&gt;Node5</title>
<path fill="none" stroke="midnightblue" d="M244.308,-48C256.54,-48 269.493,-48 281.947,-48"/>
<polygon fill="midnightblue" stroke="midnightblue" points="282.264,-51.5001 292.264,-48 282.264,-44.5001 282.264,-51.5001"/>
</g>
<!-- Node6 -->
<g id="node11" class="node"><title>Node6</title>
<a xlink:href="class_container.html#aa3cbae68ebeed649c52eb3805a30fb75" target="_top" xlink:title="Container::reserve">
<polygon fill="white" stroke="black" points="300,-0.5 300,-19.5 396,-19.5 396,-0.5 300,-0.5"/>
<text text-anchor="middle" x="348" y="-6.5" font-family="Helvetica,sans-Serif" font-size="10.00">Container::reserve</text>
</a>
</g>
<!-- Node2&#45;&gt;Node6 -->
<g id="edge10" class="edge"><title>Node2&#45;&gt;Node6</title>
<path fill="none" stroke="midnightblue" d="M226.132,-38.411C247.738,-33.3739 274.409,-27.1562 297.286,-21.8229"/>
<polygon fill="midnightblue" stroke="midnightblue" points="298.22,-25.1991 307.164,-19.5201 296.63,-18.3819 298.22,-25.1991"/>
</g>
<!-- Node4 -->
<g id="node7" class="node"><title>Node4</title>
<a xlink:href="class_container.html#a842c3d9eca81b78b59112fde9707b091" target="_top" xlink:title="Container\&lt; Con \&gt;::size">
<polygon fill="white" stroke="black" points="452,-76.5 452,-95.5 570,-95.5 570,-76.5 452,-76.5"/>
<text text-anchor="middle" x="511" y="-82.5" font-family="Helvetica,sans-Serif" font-size="10.00">Container&lt; Con &gt;::size</text>
</a>
</g>
<!-- Node3&#45;&gt;Node4 -->
<g id="edge6" class="edge"><title>Node3&#45;&gt;Node4</title>
<path fill="none" stroke="midnightblue" d="M415.711,-86C424.324,-86 433.148,-86 441.784,-86"/>
<polygon fill="midnightblue" stroke="midnightblue" points="441.812,-89.5001 451.812,-86 441.812,-82.5001 441.812,-89.5001"/>
</g>
</g>
</svg>
