<?xml version="1.0" encoding="UTF-8" standalone="no"?>
<!DOCTYPE svg PUBLIC "-//W3C//DTD SVG 1.1//EN"
 "http://www.w3.org/Graphics/SVG/1.1/DTD/svg11.dtd">
<!-- Generated by graphviz version 2.28.0 (20110610.2051)
 -->
<!-- Title: G Pages: 1 -->
<svg width="395pt" height="1290pt"
 viewBox="0.00 0.00 395.00 1290.00" xmlns="http://www.w3.org/2000/svg" xmlns:xlink="http://www.w3.org/1999/xlink">
<g id="graph1" class="graph" transform="scale(1 1) rotate(0) translate(4 1286)">
<title>G</title>
<polygon fill="white" stroke="white" points="-4,5 -4,-1286 392,-1286 392,5 -4,5"/>
<!-- Node1 -->
<g id="node1" class="node"><title>Node1</title>
<polygon fill="#bfbfbf" stroke="black" points="54,-0.5 54,-57.5 136,-57.5 136,-0.5 54,-0.5"/>
<text text-anchor="middle" x="95" y="-45.5" font-family="Helvetica,sans-Serif" font-size="10.00">MLPneuralNet</text>
<polyline fill="none" stroke="black" points="54,-38.5 136,-38.5 "/>
<text text-anchor="start" x="62" y="-26.5" font-family="Helvetica,sans-Serif" font-size="10.00">&#45; nLayers</text>
<polyline fill="none" stroke="black" points="54,-19.5 136,-19.5 "/>
<text text-anchor="middle" x="95" y="-7.5" font-family="Helvetica,sans-Serif" font-size="10.00"> </text>
</g>
<!-- Node2 -->
<g id="node2" class="node"><title>Node2</title>
<a xlink:href="class_neural_net.html" target="_top" xlink:title="{NeuralNet\n||+ train()\l}">
<polygon fill="white" stroke="black" points="30.5,-106.5 30.5,-163.5 93.5,-163.5 93.5,-106.5 30.5,-106.5"/>
<text text-anchor="middle" x="62" y="-151.5" font-family="Helvetica,sans-Serif" font-size="10.00">NeuralNet</text>
<polyline fill="none" stroke="black" points="30.5,-144.5 93.5,-144.5 "/>
<text text-anchor="middle" x="62" y="-132.5" font-family="Helvetica,sans-Serif" font-size="10.00"> </text>
<polyline fill="none" stroke="black" points="30.5,-125.5 93.5,-125.5 "/>
<text text-anchor="start" x="38.5" y="-113.5" font-family="Helvetica,sans-Serif" font-size="10.00">+ train()</text>
</a>
</g>
<!-- Node2&#45;&gt;Node1 -->
<g id="edge2" class="edge"><title>Node2&#45;&gt;Node1</title>
<path fill="none" stroke="midnightblue" d="M73.7854,-96.8581C77.8781,-83.9599 82.3933,-69.7303 86.2023,-57.726"/>
<polygon fill="none" stroke="midnightblue" points="70.4452,-95.8127 70.7568,-106.403 77.1174,-97.9299 70.4452,-95.8127"/>
</g>
<!-- Node3 -->
<g id="node4" class="node"><title>Node3</title>
<a xlink:href="class_m_l_player_container.html" target="_top" xlink:title="{MLPlayerContainer\n||}">
<polygon fill="white" stroke="black" points="112,-106.5 112,-163.5 216,-163.5 216,-106.5 112,-106.5"/>
<text text-anchor="middle" x="164" y="-151.5" font-family="Helvetica,sans-Serif" font-size="10.00">MLPlayerContainer</text>
<polyline fill="none" stroke="black" points="112,-144.5 216,-144.5 "/>
<text text-anchor="middle" x="164" y="-132.5" font-family="Helvetica,sans-Serif" font-size="10.00"> </text>
<polyline fill="none" stroke="black" points="112,-125.5 216,-125.5 "/>
<text text-anchor="middle" x="164" y="-113.5" font-family="Helvetica,sans-Serif" font-size="10.00"> </text>
</a>
</g>
<!-- Node3&#45;&gt;Node1 -->
<g id="edge4" class="edge"><title>Node3&#45;&gt;Node1</title>
<path fill="none" stroke="#9a32cd" stroke-dasharray="5,2" d="M140.11,-97.9926C131.357,-84.7989 121.594,-70.0834 113.395,-57.726"/>
<polygon fill="#9a32cd" stroke="#9a32cd" points="145.69,-106.403 136.412,-100.558 142.926,-102.237 140.162,-98.0701 140.162,-98.0701 140.162,-98.0701 142.926,-102.237 143.912,-95.5823 145.69,-106.403 145.69,-106.403"/>
<text text-anchor="middle" x="149.5" y="-79.5" font-family="Helvetica,sans-Serif" font-size="10.00">nLayers</text>
</g>
<!-- Node4 -->
<g id="node6" class="node"><title>Node4</title>
<a xlink:href="class_container.html" target="_top" xlink:title="{Container\&lt; MLPlayer \&gt;\n|# collection\l|+ ~Container()\l+ createIterator()\l+ push_back()\l+ push_back()\l+ reserve()\l+ reserve()\l+ empty()\l+ empty()\l+ size()\l+ size()\l+ clear()\l+ clear()\l+ show()\l+ show()\l+ validate()\l+ validate()\l+ Container()\l+ Container()\l+ begin()\l+ end()\l+ load()\l+ store()\l+ append()\l+ resize()\l+ operator[]()\l# Container()\l}">
<polygon fill="white" stroke="black" points="104,-203 104,-535 224,-535 224,-203 104,-203"/>
<text text-anchor="middle" x="164" y="-523" font-family="Helvetica,sans-Serif" font-size="10.00">Container&lt; MLPlayer &gt;</text>
<polyline fill="none" stroke="black" points="104,-516 224,-516 "/>
<text text-anchor="start" x="112" y="-504" font-family="Helvetica,sans-Serif" font-size="10.00"># collection</text>
<polyline fill="none" stroke="black" points="104,-497 224,-497 "/>
<text text-anchor="start" x="112" y="-485" font-family="Helvetica,sans-Serif" font-size="10.00">+ ~Container()</text>
<text text-anchor="start" x="112" y="-474" font-family="Helvetica,sans-Serif" font-size="10.00">+ createIterator()</text>
<text text-anchor="start" x="112" y="-463" font-family="Helvetica,sans-Serif" font-size="10.00">+ push_back()</text>
<text text-anchor="start" x="112" y="-452" font-family="Helvetica,sans-Serif" font-size="10.00">+ push_back()</text>
<text text-anchor="start" x="112" y="-441" font-family="Helvetica,sans-Serif" font-size="10.00">+ reserve()</text>
<text text-anchor="start" x="112" y="-430" font-family="Helvetica,sans-Serif" font-size="10.00">+ reserve()</text>
<text text-anchor="start" x="112" y="-419" font-family="Helvetica,sans-Serif" font-size="10.00">+ empty()</text>
<text text-anchor="start" x="112" y="-408" font-family="Helvetica,sans-Serif" font-size="10.00">+ empty()</text>
<text text-anchor="start" x="112" y="-397" font-family="Helvetica,sans-Serif" font-size="10.00">+ size()</text>
<text text-anchor="start" x="112" y="-386" font-family="Helvetica,sans-Serif" font-size="10.00">+ size()</text>
<text text-anchor="start" x="112" y="-375" font-family="Helvetica,sans-Serif" font-size="10.00">+ clear()</text>
<text text-anchor="start" x="112" y="-364" font-family="Helvetica,sans-Serif" font-size="10.00">+ clear()</text>
<text text-anchor="start" x="112" y="-353" font-family="Helvetica,sans-Serif" font-size="10.00">+ show()</text>
<text text-anchor="start" x="112" y="-342" font-family="Helvetica,sans-Serif" font-size="10.00">+ show()</text>
<text text-anchor="start" x="112" y="-331" font-family="Helvetica,sans-Serif" font-size="10.00">+ validate()</text>
<text text-anchor="start" x="112" y="-320" font-family="Helvetica,sans-Serif" font-size="10.00">+ validate()</text>
<text text-anchor="start" x="112" y="-309" font-family="Helvetica,sans-Serif" font-size="10.00">+ Container()</text>
<text text-anchor="start" x="112" y="-298" font-family="Helvetica,sans-Serif" font-size="10.00">+ Container()</text>
<text text-anchor="start" x="112" y="-287" font-family="Helvetica,sans-Serif" font-size="10.00">+ begin()</text>
<text text-anchor="start" x="112" y="-276" font-family="Helvetica,sans-Serif" font-size="10.00">+ end()</text>
<text text-anchor="start" x="112" y="-265" font-family="Helvetica,sans-Serif" font-size="10.00">+ load()</text>
<text text-anchor="start" x="112" y="-254" font-family="Helvetica,sans-Serif" font-size="10.00">+ store()</text>
<text text-anchor="start" x="112" y="-243" font-family="Helvetica,sans-Serif" font-size="10.00">+ append()</text>
<text text-anchor="start" x="112" y="-232" font-family="Helvetica,sans-Serif" font-size="10.00">+ resize()</text>
<text text-anchor="start" x="112" y="-221" font-family="Helvetica,sans-Serif" font-size="10.00">+ operator[]()</text>
<text text-anchor="start" x="112" y="-210" font-family="Helvetica,sans-Serif" font-size="10.00"># Container()</text>
</a>
</g>
<!-- Node4&#45;&gt;Node3 -->
<g id="edge6" class="edge"><title>Node4&#45;&gt;Node3</title>
<path fill="none" stroke="midnightblue" d="M164,-192.684C164,-181.944 164,-172.132 164,-163.801"/>
<polygon fill="none" stroke="midnightblue" points="160.5,-192.793 164,-202.793 167.5,-192.793 160.5,-192.793"/>
</g>
<!-- Node5 -->
<g id="node8" class="node"><title>Node5</title>
<polygon fill="white" stroke="#bfbfbf" points="0,-936.5 0,-993.5 224,-993.5 224,-936.5 0,-936.5"/>
<text text-anchor="middle" x="112" y="-981.5" font-family="Helvetica,sans-Serif" font-size="10.00">std::vector&lt; boost::shared_ptr&lt; MLPlayer &gt; &gt;</text>
<polyline fill="none" stroke="#bfbfbf" points="0,-974.5 224,-974.5 "/>
<text text-anchor="start" x="8" y="-962.5" font-family="Helvetica,sans-Serif" font-size="10.00">&#45; elements</text>
<polyline fill="none" stroke="#bfbfbf" points="0,-955.5 224,-955.5 "/>
<text text-anchor="middle" x="112" y="-943.5" font-family="Helvetica,sans-Serif" font-size="10.00"> </text>
</g>
<!-- Node5&#45;&gt;Node4 -->
<g id="edge8" class="edge"><title>Node5&#45;&gt;Node4</title>
<path fill="none" stroke="#9a32cd" stroke-dasharray="5,2" d="M114.888,-926.059C120.14,-857.662 131.755,-709.156 143,-584 144.428,-568.105 145.965,-551.551 147.534,-535.001"/>
<polygon fill="#9a32cd" stroke="#9a32cd" points="114.101,-936.332 110.378,-926.018 114.483,-931.347 114.865,-926.362 114.865,-926.362 114.865,-926.362 114.483,-931.347 119.352,-926.706 114.101,-936.332 114.101,-936.332"/>
<text text-anchor="middle" x="165.5" y="-748.5" font-family="Helvetica,sans-Serif" font-size="10.00">collection</text>
</g>
<!-- Node6 -->
<g id="node10" class="node"><title>Node6</title>
<a xlink:title="STL class.">
<polygon fill="white" stroke="#bfbfbf" points="146.5,-1118.5 146.5,-1175.5 235.5,-1175.5 235.5,-1118.5 146.5,-1118.5"/>
<text text-anchor="middle" x="191" y="-1163.5" font-family="Helvetica,sans-Serif" font-size="10.00">std::vector&lt; T &gt;</text>
<polyline fill="none" stroke="#bfbfbf" points="146.5,-1156.5 235.5,-1156.5 "/>
<text text-anchor="start" x="154.5" y="-1144.5" font-family="Helvetica,sans-Serif" font-size="10.00">&#45; elements</text>
<polyline fill="none" stroke="#bfbfbf" points="146.5,-1137.5 235.5,-1137.5 "/>
<text text-anchor="middle" x="191" y="-1125.5" font-family="Helvetica,sans-Serif" font-size="10.00"> </text>
</a>
</g>
<!-- Node6&#45;&gt;Node5 -->
<g id="edge10" class="edge"><title>Node6&#45;&gt;Node5</title>
<path fill="none" stroke="orange" stroke-dasharray="5,2" d="M136.934,-1131.24C121.711,-1124.32 106.893,-1114.32 98,-1100 77.9475,-1067.71 88.9933,-1022.42 99.7368,-993.646"/>
<polygon fill="orange" stroke="orange" points="135.837,-1134.57 146.416,-1135.16 138.514,-1128.1 135.837,-1134.57"/>
<text text-anchor="middle" x="177" y="-1091.5" font-family="Helvetica,sans-Serif" font-size="10.00">&lt; boost::shared_ptr&lt; MLPlayer &gt; &gt;</text>
</g>
<!-- Node9 -->
<g id="node16" class="node"><title>Node9</title>
<polygon fill="white" stroke="#bfbfbf" points="182,-1012.5 182,-1069.5 370,-1069.5 370,-1012.5 182,-1012.5"/>
<text text-anchor="middle" x="276" y="-1057.5" font-family="Helvetica,sans-Serif" font-size="10.00">std::vector&lt; boost::shared_ptr&lt; T &gt; &gt;</text>
<polyline fill="none" stroke="#bfbfbf" points="182,-1050.5 370,-1050.5 "/>
<text text-anchor="start" x="190" y="-1038.5" font-family="Helvetica,sans-Serif" font-size="10.00">&#45; elements</text>
<polyline fill="none" stroke="#bfbfbf" points="182,-1031.5 370,-1031.5 "/>
<text text-anchor="middle" x="276" y="-1019.5" font-family="Helvetica,sans-Serif" font-size="10.00"> </text>
</g>
<!-- Node6&#45;&gt;Node9 -->
<g id="edge18" class="edge"><title>Node6&#45;&gt;Node9</title>
<path fill="none" stroke="orange" stroke-dasharray="5,2" d="M243.529,-1117.08C249.712,-1112.02 255.433,-1106.32 260,-1100 266.365,-1091.2 270.199,-1079.97 272.508,-1069.75"/>
<polygon fill="orange" stroke="orange" points="241.364,-1114.33 235.502,-1123.16 245.588,-1119.92 241.364,-1114.33"/>
<text text-anchor="middle" x="326.5" y="-1091.5" font-family="Helvetica,sans-Serif" font-size="10.00">&lt; boost::shared_ptr&lt; T &gt; &gt;</text>
</g>
<!-- Node7 -->
<g id="node12" class="node"><title>Node7</title>
<polygon fill="white" stroke="#bfbfbf" points="176.5,-1224.5 176.5,-1281.5 205.5,-1281.5 205.5,-1224.5 176.5,-1224.5"/>
<text text-anchor="middle" x="191" y="-1269.5" font-family="Helvetica,sans-Serif" font-size="10.00">T</text>
<polyline fill="none" stroke="#bfbfbf" points="176.5,-1262.5 205.5,-1262.5 "/>
<text text-anchor="middle" x="191" y="-1250.5" font-family="Helvetica,sans-Serif" font-size="10.00"> </text>
<polyline fill="none" stroke="#bfbfbf" points="176.5,-1243.5 205.5,-1243.5 "/>
<text text-anchor="middle" x="191" y="-1231.5" font-family="Helvetica,sans-Serif" font-size="10.00"> </text>
</g>
<!-- Node7&#45;&gt;Node6 -->
<g id="edge12" class="edge"><title>Node7&#45;&gt;Node6</title>
<path fill="none" stroke="#9a32cd" stroke-dasharray="5,2" d="M191,-1214.1C191,-1201.4 191,-1187.49 191,-1175.73"/>
<polygon fill="#9a32cd" stroke="#9a32cd" points="191,-1224.4 186.5,-1214.4 191,-1219.4 191,-1214.4 191,-1214.4 191,-1214.4 191,-1219.4 195.5,-1214.4 191,-1224.4 191,-1224.4"/>
<text text-anchor="middle" x="212.5" y="-1197.5" font-family="Helvetica,sans-Serif" font-size="10.00">elements</text>
</g>
<!-- Node8 -->
<g id="node14" class="node"><title>Node8</title>
<a xlink:href="class_container.html" target="_top" xlink:title="class Container &#45;">
<polygon fill="white" stroke="black" points="196.5,-585 196.5,-917 293.5,-917 293.5,-585 196.5,-585"/>
<text text-anchor="middle" x="245" y="-905" font-family="Helvetica,sans-Serif" font-size="10.00">Container&lt; T &gt;</text>
<polyline fill="none" stroke="black" points="196.5,-898 293.5,-898 "/>
<text text-anchor="start" x="204.5" y="-886" font-family="Helvetica,sans-Serif" font-size="10.00"># collection</text>
<polyline fill="none" stroke="black" points="196.5,-879 293.5,-879 "/>
<text text-anchor="start" x="204.5" y="-867" font-family="Helvetica,sans-Serif" font-size="10.00">+ ~Container()</text>
<text text-anchor="start" x="204.5" y="-856" font-family="Helvetica,sans-Serif" font-size="10.00">+ createIterator()</text>
<text text-anchor="start" x="204.5" y="-845" font-family="Helvetica,sans-Serif" font-size="10.00">+ push_back()</text>
<text text-anchor="start" x="204.5" y="-834" font-family="Helvetica,sans-Serif" font-size="10.00">+ reserve()</text>
<text text-anchor="start" x="204.5" y="-823" font-family="Helvetica,sans-Serif" font-size="10.00">+ empty()</text>
<text text-anchor="start" x="204.5" y="-812" font-family="Helvetica,sans-Serif" font-size="10.00">+ size()</text>
<text text-anchor="start" x="204.5" y="-801" font-family="Helvetica,sans-Serif" font-size="10.00">+ clear()</text>
<text text-anchor="start" x="204.5" y="-790" font-family="Helvetica,sans-Serif" font-size="10.00">+ show()</text>
<text text-anchor="start" x="204.5" y="-779" font-family="Helvetica,sans-Serif" font-size="10.00">+ validate()</text>
<text text-anchor="start" x="204.5" y="-768" font-family="Helvetica,sans-Serif" font-size="10.00">+ Container()</text>
<text text-anchor="start" x="204.5" y="-757" font-family="Helvetica,sans-Serif" font-size="10.00">+ Container()</text>
<text text-anchor="start" x="204.5" y="-746" font-family="Helvetica,sans-Serif" font-size="10.00">+ begin()</text>
<text text-anchor="start" x="204.5" y="-735" font-family="Helvetica,sans-Serif" font-size="10.00">+ end()</text>
<text text-anchor="start" x="204.5" y="-724" font-family="Helvetica,sans-Serif" font-size="10.00">+ load()</text>
<text text-anchor="start" x="204.5" y="-713" font-family="Helvetica,sans-Serif" font-size="10.00">+ store()</text>
<text text-anchor="start" x="204.5" y="-702" font-family="Helvetica,sans-Serif" font-size="10.00">+ size()</text>
<text text-anchor="start" x="204.5" y="-691" font-family="Helvetica,sans-Serif" font-size="10.00">+ push_back()</text>
<text text-anchor="start" x="204.5" y="-680" font-family="Helvetica,sans-Serif" font-size="10.00">+ append()</text>
<text text-anchor="start" x="204.5" y="-669" font-family="Helvetica,sans-Serif" font-size="10.00">+ show()</text>
<text text-anchor="start" x="204.5" y="-658" font-family="Helvetica,sans-Serif" font-size="10.00">+ validate()</text>
<text text-anchor="start" x="204.5" y="-647" font-family="Helvetica,sans-Serif" font-size="10.00">+ reserve()</text>
<text text-anchor="start" x="204.5" y="-636" font-family="Helvetica,sans-Serif" font-size="10.00">+ resize()</text>
<text text-anchor="start" x="204.5" y="-625" font-family="Helvetica,sans-Serif" font-size="10.00">+ empty()</text>
<text text-anchor="start" x="204.5" y="-614" font-family="Helvetica,sans-Serif" font-size="10.00">+ clear()</text>
<text text-anchor="start" x="204.5" y="-603" font-family="Helvetica,sans-Serif" font-size="10.00">+ operator[]()</text>
<text text-anchor="start" x="204.5" y="-592" font-family="Helvetica,sans-Serif" font-size="10.00"># Container()</text>
</a>
</g>
<!-- Node8&#45;&gt;Node4 -->
<g id="edge14" class="edge"><title>Node8&#45;&gt;Node4</title>
<path fill="none" stroke="orange" stroke-dasharray="5,2" d="M207.673,-574.887C204.852,-561.653 202.011,-548.322 199.204,-535.153"/>
<polygon fill="orange" stroke="orange" points="204.318,-575.934 209.826,-584.984 211.164,-574.474 204.318,-575.934"/>
<text text-anchor="middle" x="234" y="-557.5" font-family="Helvetica,sans-Serif" font-size="10.00">&lt; MLPlayer &gt;</text>
</g>
<!-- Node9&#45;&gt;Node8 -->
<g id="edge16" class="edge"><title>Node9&#45;&gt;Node8</title>
<path fill="none" stroke="#9a32cd" stroke-dasharray="5,2" d="M271.935,-1002.24C269.496,-979.577 266.205,-949.003 262.762,-917.015"/>
<polygon fill="#9a32cd" stroke="#9a32cd" points="273.028,-1012.39 267.483,-1002.92 272.492,-1007.41 271.957,-1002.44 271.957,-1002.44 271.957,-1002.44 272.492,-1007.41 276.431,-1001.96 273.028,-1012.39 273.028,-1012.39"/>
<text text-anchor="middle" x="292.5" y="-962.5" font-family="Helvetica,sans-Serif" font-size="10.00">collection</text>
</g>
</g>
</svg>
