<?xml version="1.0" encoding="UTF-8" standalone="no"?>
<!DOCTYPE svg PUBLIC "-//W3C//DTD SVG 1.1//EN"
 "http://www.w3.org/Graphics/SVG/1.1/DTD/svg11.dtd">
<!-- Generated by graphviz version 2.28.0 (20110610.2051)
 -->
<!-- Title: G Pages: 1 -->
<svg width="360pt" height="104pt"
 viewBox="0.00 0.00 360.00 104.00" xmlns="http://www.w3.org/2000/svg" xmlns:xlink="http://www.w3.org/1999/xlink">
<g id="graph1" class="graph" transform="scale(1 1) rotate(0) translate(4 100)">
<title>G</title>
<polygon fill="white" stroke="white" points="-4,5 -4,-100 357,-100 357,5 -4,5"/>
<!-- Node1 -->
<g id="node1" class="node"><title>Node1</title>
<polygon fill="#bfbfbf" stroke="black" points="0,-38.5 0,-57.5 132,-57.5 132,-38.5 0,-38.5"/>
<text text-anchor="middle" x="66" y="-45.5" font-family="Helvetica,sans-Serif" font-size="10.00">MLPfactory::makeNeuron</text>
</g>
<!-- Node2 -->
<g id="node3" class="node"><title>Node2</title>
<a xlink:href="class_m_l_pfactory.html#a92109ea285be7dd847d359a1ade9064a" target="_top" xlink:title="MLPfactory::makeActivationFunction">
<polygon fill="white" stroke="black" points="168,-76.5 168,-95.5 352,-95.5 352,-76.5 168,-76.5"/>
<text text-anchor="middle" x="260" y="-83.5" font-family="Helvetica,sans-Serif" font-size="10.00">MLPfactory::makeActivationFunction</text>
</a>
</g>
<!-- Node1&#45;&gt;Node2 -->
<g id="edge2" class="edge"><title>Node1&#45;&gt;Node2</title>
<path fill="none" stroke="midnightblue" d="M115.45,-57.589C141.471,-62.739 173.728,-69.1232 201.069,-74.5344"/>
<polygon fill="midnightblue" stroke="midnightblue" points="200.409,-77.9718 210.899,-76.4799 201.769,-71.105 200.409,-77.9718"/>
</g>
<!-- Node3 -->
<g id="node5" class="node"><title>Node3</title>
<a xlink:href="class_m_l_pfactory.html#a69562b8fd06c60a2d5db66d8b0f10299" target="_top" xlink:title="MLPfactory::makeConContainer">
<polygon fill="white" stroke="black" points="179,-38.5 179,-57.5 341,-57.5 341,-38.5 179,-38.5"/>
<text text-anchor="middle" x="260" y="-45.5" font-family="Helvetica,sans-Serif" font-size="10.00">MLPfactory::makeConContainer</text>
</a>
</g>
<!-- Node1&#45;&gt;Node3 -->
<g id="edge4" class="edge"><title>Node1&#45;&gt;Node3</title>
<path fill="none" stroke="midnightblue" d="M132.002,-48C143.731,-48 156.152,-48 168.453,-48"/>
<polygon fill="midnightblue" stroke="midnightblue" points="168.739,-51.5001 178.739,-48 168.739,-44.5001 168.739,-51.5001"/>
</g>
<!-- Node4 -->
<g id="node7" class="node"><title>Node4</title>
<a xlink:href="class_m_l_pfactory.html#a9e9e9bb4390df09c78a24c4ff79cdab6" target="_top" xlink:title="MLPfactory::makePredictBehavior">
<polygon fill="white" stroke="black" points="173.5,-0.5 173.5,-19.5 346.5,-19.5 346.5,-0.5 173.5,-0.5"/>
<text text-anchor="middle" x="260" y="-7.5" font-family="Helvetica,sans-Serif" font-size="10.00">MLPfactory::makePredictBehavior</text>
</a>
</g>
<!-- Node1&#45;&gt;Node4 -->
<g id="edge6" class="edge"><title>Node1&#45;&gt;Node4</title>
<path fill="none" stroke="midnightblue" d="M115.45,-38.411C141.471,-33.261 173.728,-26.8768 201.069,-21.4656"/>
<polygon fill="midnightblue" stroke="midnightblue" points="201.769,-24.895 210.899,-19.5201 200.409,-18.0282 201.769,-24.895"/>
</g>
</g>
</svg>
