<?xml version="1.0" encoding="UTF-8" standalone="no"?>
<!DOCTYPE svg PUBLIC "-//W3C//DTD SVG 1.1//EN"
 "http://www.w3.org/Graphics/SVG/1.1/DTD/svg11.dtd">
<!-- Generated by graphviz version 2.28.0 (20110610.2051)
 -->
<!-- Title: G Pages: 1 -->
<svg width="196pt" height="282pt"
 viewBox="0.00 0.00 196.00 282.00" xmlns="http://www.w3.org/2000/svg" xmlns:xlink="http://www.w3.org/1999/xlink">
<g id="graph1" class="graph" transform="scale(1 1) rotate(0) translate(4 278)">
<title>G</title>
<polygon fill="white" stroke="white" points="-4,5 -4,-278 193,-278 193,5 -4,5"/>
<!-- Node1 -->
<g id="node1" class="node"><title>Node1</title>
<polygon fill="#bfbfbf" stroke="black" points="-0.5,-0.5 -0.5,-123.5 188.5,-123.5 188.5,-0.5 -0.5,-0.5"/>
<text text-anchor="middle" x="94" y="-111.5" font-family="Helvetica,sans-Serif" font-size="10.00">SimpleContainerReverseIterator&lt; T &gt;</text>
<polyline fill="none" stroke="black" points="-0.5,-104.5 188.5,-104.5 "/>
<text text-anchor="start" x="7.5" y="-92.5" font-family="Helvetica,sans-Serif" font-size="10.00">&#45; d_container</text>
<text text-anchor="start" x="7.5" y="-81.5" font-family="Helvetica,sans-Serif" font-size="10.00">&#45; d_current</text>
<polyline fill="none" stroke="black" points="-0.5,-74.5 188.5,-74.5 "/>
<text text-anchor="start" x="7.5" y="-62.5" font-family="Helvetica,sans-Serif" font-size="10.00">+ SimpleContainerReverseIterator()</text>
<text text-anchor="start" x="7.5" y="-51.5" font-family="Helvetica,sans-Serif" font-size="10.00">+ ~SimpleContainerReverseIterator()</text>
<text text-anchor="start" x="7.5" y="-40.5" font-family="Helvetica,sans-Serif" font-size="10.00">&#45; first()</text>
<text text-anchor="start" x="7.5" y="-29.5" font-family="Helvetica,sans-Serif" font-size="10.00">&#45; next()</text>
<text text-anchor="start" x="7.5" y="-18.5" font-family="Helvetica,sans-Serif" font-size="10.00">&#45; isDone()</text>
<text text-anchor="start" x="7.5" y="-7.5" font-family="Helvetica,sans-Serif" font-size="10.00">&#45; currentItem()</text>
</g>
<!-- Node2 -->
<g id="node2" class="node"><title>Node2</title>
<a xlink:href="class_iterator.html" target="_top" xlink:title="class Iterator &#45;">
<polygon fill="white" stroke="black" points="51,-161 51,-273 137,-273 137,-161 51,-161"/>
<text text-anchor="middle" x="94" y="-261" font-family="Helvetica,sans-Serif" font-size="10.00">Iterator&lt; T &gt;</text>
<polyline fill="none" stroke="black" points="51,-254 137,-254 "/>
<text text-anchor="middle" x="94" y="-242" font-family="Helvetica,sans-Serif" font-size="10.00"> </text>
<polyline fill="none" stroke="black" points="51,-235 137,-235 "/>
<text text-anchor="start" x="59" y="-223" font-family="Helvetica,sans-Serif" font-size="10.00">+ ~Iterator()</text>
<text text-anchor="start" x="59" y="-212" font-family="Helvetica,sans-Serif" font-size="10.00">+ first()</text>
<text text-anchor="start" x="59" y="-201" font-family="Helvetica,sans-Serif" font-size="10.00">+ next()</text>
<text text-anchor="start" x="59" y="-190" font-family="Helvetica,sans-Serif" font-size="10.00">+ isDone()</text>
<text text-anchor="start" x="59" y="-179" font-family="Helvetica,sans-Serif" font-size="10.00">+ currentItem()</text>
<text text-anchor="start" x="59" y="-168" font-family="Helvetica,sans-Serif" font-size="10.00"># Iterator()</text>
</a>
</g>
<!-- Node2&#45;&gt;Node1 -->
<g id="edge2" class="edge"><title>Node2&#45;&gt;Node1</title>
<path fill="none" stroke="midnightblue" d="M94,-150.718C94,-141.717 94,-132.505 94,-123.593"/>
<polygon fill="none" stroke="midnightblue" points="90.5001,-150.763 94,-160.763 97.5001,-150.764 90.5001,-150.763"/>
</g>
</g>
</svg>
