<?xml version="1.0" encoding="UTF-8" standalone="no"?>
<!DOCTYPE svg PUBLIC "-//W3C//DTD SVG 1.1//EN"
 "http://www.w3.org/Graphics/SVG/1.1/DTD/svg11.dtd">
<!-- Generated by graphviz version 2.28.0 (20110610.2051)
 -->
<!-- Title: G Pages: 1 -->
<svg width="658pt" height="172pt"
 viewBox="0.00 0.00 658.00 172.00" xmlns="http://www.w3.org/2000/svg" xmlns:xlink="http://www.w3.org/1999/xlink">
<g id="graph1" class="graph" transform="scale(1 1) rotate(0) translate(4 168)">
<title>G</title>
<polygon fill="white" stroke="white" points="-4,5 -4,-168 655,-168 655,5 -4,5"/>
<!-- Node1 -->
<g id="node1" class="node"><title>Node1</title>
<polygon fill="#bfbfbf" stroke="black" points="263.5,-106.5 263.5,-163.5 374.5,-163.5 374.5,-106.5 263.5,-106.5"/>
<text text-anchor="middle" x="319" y="-151.5" font-family="Helvetica,sans-Serif" font-size="10.00">TrainingVariablesSet</text>
<polyline fill="none" stroke="black" points="263.5,-144.5 374.5,-144.5 "/>
<text text-anchor="middle" x="319" y="-132.5" font-family="Helvetica,sans-Serif" font-size="10.00"> </text>
<polyline fill="none" stroke="black" points="263.5,-125.5 374.5,-125.5 "/>
<text text-anchor="middle" x="319" y="-113.5" font-family="Helvetica,sans-Serif" font-size="10.00"> </text>
</g>
<!-- Node2 -->
<g id="node3" class="node"><title>Node2</title>
<a xlink:href="class_a_d_a_p_tgd_training_variables.html" target="_top" xlink:title="class ADAPTgdTrainingVariables &#45;">
<polygon fill="white" stroke="black" points="0,-1 0,-69 140,-69 140,-1 0,-1"/>
<text text-anchor="middle" x="70" y="-57" font-family="Helvetica,sans-Serif" font-size="10.00">ADAPTgdTrainingVariables</text>
<polyline fill="none" stroke="black" points="0,-50 140,-50 "/>
<text text-anchor="start" x="8" y="-38" font-family="Helvetica,sans-Serif" font-size="10.00"># output</text>
<text text-anchor="start" x="8" y="-27" font-family="Helvetica,sans-Serif" font-size="10.00"># outputDerivative</text>
<polyline fill="none" stroke="black" points="0,-20 140,-20 "/>
<text text-anchor="middle" x="70" y="-8" font-family="Helvetica,sans-Serif" font-size="10.00"> </text>
</a>
</g>
<!-- Node1&#45;&gt;Node2 -->
<g id="edge2" class="edge"><title>Node1&#45;&gt;Node2</title>
<path fill="none" stroke="midnightblue" d="M253.628,-110.196C221.907,-98.4401 183.326,-83.8392 149,-70 146.092,-68.8275 143.129,-67.6186 140.141,-66.3871"/>
<polygon fill="none" stroke="midnightblue" points="252.646,-113.564 263.24,-113.749 255.074,-106.999 252.646,-113.564"/>
</g>
<!-- Node3 -->
<g id="node5" class="node"><title>Node3</title>
<a xlink:href="class_a_d_a_p_tgdwm_training_variables.html" target="_top" xlink:title="class ADAPTgdwmTrainingVariables &#45;">
<polygon fill="white" stroke="black" points="158,-1 158,-69 314,-69 314,-1 158,-1"/>
<text text-anchor="middle" x="236" y="-57" font-family="Helvetica,sans-Serif" font-size="10.00">ADAPTgdwmTrainingVariables</text>
<polyline fill="none" stroke="black" points="158,-50 314,-50 "/>
<text text-anchor="start" x="166" y="-38" font-family="Helvetica,sans-Serif" font-size="10.00"># output</text>
<text text-anchor="start" x="166" y="-27" font-family="Helvetica,sans-Serif" font-size="10.00"># outputDerivative</text>
<polyline fill="none" stroke="black" points="158,-20 314,-20 "/>
<text text-anchor="middle" x="236" y="-8" font-family="Helvetica,sans-Serif" font-size="10.00"> </text>
</a>
</g>
<!-- Node1&#45;&gt;Node3 -->
<g id="edge4" class="edge"><title>Node1&#45;&gt;Node3</title>
<path fill="none" stroke="midnightblue" d="M289.03,-98.6132C280.923,-89.0414 272.179,-78.7168 264.174,-69.2659"/>
<polygon fill="none" stroke="midnightblue" points="286.525,-101.072 295.659,-106.441 291.867,-96.5478 286.525,-101.072"/>
</g>
<!-- Node4 -->
<g id="node7" class="node"><title>Node4</title>
<a xlink:href="class_b_a_t_c_hgd_training_variables.html" target="_top" xlink:title="class BATCHgdTrainingVariables &#45;">
<polygon fill="white" stroke="black" points="332.5,-1 332.5,-69 473.5,-69 473.5,-1 332.5,-1"/>
<text text-anchor="middle" x="403" y="-57" font-family="Helvetica,sans-Serif" font-size="10.00">BATCHgdTrainingVariables</text>
<polyline fill="none" stroke="black" points="332.5,-50 473.5,-50 "/>
<text text-anchor="start" x="340.5" y="-38" font-family="Helvetica,sans-Serif" font-size="10.00"># output</text>
<text text-anchor="start" x="340.5" y="-27" font-family="Helvetica,sans-Serif" font-size="10.00"># outputDerivative</text>
<polyline fill="none" stroke="black" points="332.5,-20 473.5,-20 "/>
<text text-anchor="middle" x="403" y="-8" font-family="Helvetica,sans-Serif" font-size="10.00"> </text>
</a>
</g>
<!-- Node1&#45;&gt;Node4 -->
<g id="edge6" class="edge"><title>Node1&#45;&gt;Node4</title>
<path fill="none" stroke="midnightblue" d="M349.332,-98.6132C357.536,-89.0414 366.386,-78.7168 374.486,-69.2659"/>
<polygon fill="none" stroke="midnightblue" points="346.473,-96.5704 342.622,-106.441 351.788,-101.126 346.473,-96.5704"/>
</g>
<!-- Node5 -->
<g id="node9" class="node"><title>Node5</title>
<a xlink:href="class_b_a_t_c_hgdwm_training_variables.html" target="_top" xlink:title="class BATCHgdwmTrainingVariables &#45;">
<polygon fill="white" stroke="black" points="492,-1 492,-69 650,-69 650,-1 492,-1"/>
<text text-anchor="middle" x="571" y="-57" font-family="Helvetica,sans-Serif" font-size="10.00">BATCHgdwmTrainingVariables</text>
<polyline fill="none" stroke="black" points="492,-50 650,-50 "/>
<text text-anchor="start" x="500" y="-38" font-family="Helvetica,sans-Serif" font-size="10.00"># output</text>
<text text-anchor="start" x="500" y="-27" font-family="Helvetica,sans-Serif" font-size="10.00"># outputDerivative</text>
<polyline fill="none" stroke="black" points="492,-20 650,-20 "/>
<text text-anchor="middle" x="571" y="-8" font-family="Helvetica,sans-Serif" font-size="10.00"> </text>
</a>
</g>
<!-- Node1&#45;&gt;Node5 -->
<g id="edge8" class="edge"><title>Node1&#45;&gt;Node5</title>
<path fill="none" stroke="midnightblue" d="M384.11,-108.679C416.932,-95.9153 457.012,-80.3288 491.626,-66.8678"/>
<polygon fill="none" stroke="midnightblue" points="382.666,-105.486 374.614,-112.372 385.203,-112.01 382.666,-105.486"/>
</g>
</g>
</svg>
