<?xml version="1.0" encoding="UTF-8" standalone="no"?>
<!DOCTYPE svg PUBLIC "-//W3C//DTD SVG 1.1//EN"
 "http://www.w3.org/Graphics/SVG/1.1/DTD/svg11.dtd">
<!-- Generated by graphviz version 2.28.0 (20110610.2051)
 -->
<!-- Title: G Pages: 1 -->
<svg width="144pt" height="404pt"
 viewBox="0.00 0.00 144.00 404.00" xmlns="http://www.w3.org/2000/svg" xmlns:xlink="http://www.w3.org/1999/xlink">
<g id="graph1" class="graph" transform="scale(1 1) rotate(0) translate(4 400)">
<title>G</title>
<polygon fill="white" stroke="white" points="-4,5 -4,-400 141,-400 141,5 -4,5"/>
<!-- Node1 -->
<g id="node1" class="node"><title>Node1</title>
<polygon fill="#bfbfbf" stroke="black" points="0,-217 0,-395 136,-395 136,-217 0,-217"/>
<text text-anchor="middle" x="68" y="-383" font-family="Helvetica,sans-Serif" font-size="10.00">Container&lt; T &gt;</text>
<polyline fill="none" stroke="black" points="0,-376 136,-376 "/>
<text text-anchor="middle" x="68" y="-364" font-family="Helvetica,sans-Serif" font-size="10.00"> </text>
<polyline fill="none" stroke="black" points="0,-357 136,-357 "/>
<text text-anchor="start" x="8" y="-345" font-family="Helvetica,sans-Serif" font-size="10.00">+ ~Container()</text>
<text text-anchor="start" x="8" y="-334" font-family="Helvetica,sans-Serif" font-size="10.00">+ createIterator()</text>
<text text-anchor="start" x="8" y="-323" font-family="Helvetica,sans-Serif" font-size="10.00">+ createReverseIterator()</text>
<text text-anchor="start" x="8" y="-312" font-family="Helvetica,sans-Serif" font-size="10.00">+ at()</text>
<text text-anchor="start" x="8" y="-301" font-family="Helvetica,sans-Serif" font-size="10.00">+ push_back()</text>
<text text-anchor="start" x="8" y="-290" font-family="Helvetica,sans-Serif" font-size="10.00">+ reserve()</text>
<text text-anchor="start" x="8" y="-279" font-family="Helvetica,sans-Serif" font-size="10.00">+ empty()</text>
<text text-anchor="start" x="8" y="-268" font-family="Helvetica,sans-Serif" font-size="10.00">+ size()</text>
<text text-anchor="start" x="8" y="-257" font-family="Helvetica,sans-Serif" font-size="10.00">+ clear()</text>
<text text-anchor="start" x="8" y="-246" font-family="Helvetica,sans-Serif" font-size="10.00">+ show()</text>
<text text-anchor="start" x="8" y="-235" font-family="Helvetica,sans-Serif" font-size="10.00">+ validate()</text>
<text text-anchor="start" x="8" y="-224" font-family="Helvetica,sans-Serif" font-size="10.00"># Container()</text>
</g>
<!-- Node2 -->
<g id="node3" class="node"><title>Node2</title>
<a xlink:href="class_simple_container.html" target="_top" xlink:title="class SimpleContainer &#45;">
<polygon fill="white" stroke="black" points="1.5,-1 1.5,-179 134.5,-179 134.5,-1 1.5,-1"/>
<text text-anchor="middle" x="68" y="-167" font-family="Helvetica,sans-Serif" font-size="10.00">SimpleContainer&lt; T &gt;</text>
<polyline fill="none" stroke="black" points="1.5,-160 134.5,-160 "/>
<text text-anchor="start" x="9.5" y="-148" font-family="Helvetica,sans-Serif" font-size="10.00"># d_collection</text>
<polyline fill="none" stroke="black" points="1.5,-141 134.5,-141 "/>
<text text-anchor="start" x="9.5" y="-129" font-family="Helvetica,sans-Serif" font-size="10.00">+ SimpleContainer()</text>
<text text-anchor="start" x="9.5" y="-118" font-family="Helvetica,sans-Serif" font-size="10.00">+ ~SimpleContainer()</text>
<text text-anchor="start" x="9.5" y="-107" font-family="Helvetica,sans-Serif" font-size="10.00">&#45; at()</text>
<text text-anchor="start" x="9.5" y="-96" font-family="Helvetica,sans-Serif" font-size="10.00">&#45; createIterator()</text>
<text text-anchor="start" x="9.5" y="-85" font-family="Helvetica,sans-Serif" font-size="10.00">&#45; createReverseIterator()</text>
<text text-anchor="start" x="9.5" y="-74" font-family="Helvetica,sans-Serif" font-size="10.00">&#45; push_back()</text>
<text text-anchor="start" x="9.5" y="-63" font-family="Helvetica,sans-Serif" font-size="10.00">&#45; reserve()</text>
<text text-anchor="start" x="9.5" y="-52" font-family="Helvetica,sans-Serif" font-size="10.00">&#45; empty()</text>
<text text-anchor="start" x="9.5" y="-41" font-family="Helvetica,sans-Serif" font-size="10.00">&#45; size()</text>
<text text-anchor="start" x="9.5" y="-30" font-family="Helvetica,sans-Serif" font-size="10.00">&#45; clear()</text>
<text text-anchor="start" x="9.5" y="-19" font-family="Helvetica,sans-Serif" font-size="10.00">&#45; show()</text>
<text text-anchor="start" x="9.5" y="-8" font-family="Helvetica,sans-Serif" font-size="10.00">&#45; validate()</text>
</a>
</g>
<!-- Node1&#45;&gt;Node2 -->
<g id="edge2" class="edge"><title>Node1&#45;&gt;Node2</title>
<path fill="none" stroke="midnightblue" d="M68,-206.459C68,-197.324 68,-188.106 68,-179.075"/>
<polygon fill="none" stroke="midnightblue" points="64.5001,-206.722 68,-216.722 71.5001,-206.723 64.5001,-206.722"/>
</g>
</g>
</svg>
