<?xml version="1.0" encoding="UTF-8" standalone="no"?>
<!DOCTYPE svg PUBLIC "-//W3C//DTD SVG 1.1//EN"
 "http://www.w3.org/Graphics/SVG/1.1/DTD/svg11.dtd">
<!-- Generated by graphviz version 2.28.0 (20110610.2051)
 -->
<!-- Title: G Pages: 1 -->
<svg width="212pt" height="66pt"
 viewBox="0.00 0.00 212.00 66.00" xmlns="http://www.w3.org/2000/svg" xmlns:xlink="http://www.w3.org/1999/xlink">
<g id="graph1" class="graph" transform="scale(1 1) rotate(0) translate(4 62)">
<title>G</title>
<polygon fill="white" stroke="white" points="-4,5 -4,-62 209,-62 209,5 -4,5"/>
<!-- Node1 -->
<g id="node1" class="node"><title>Node1</title>
<polygon fill="#bfbfbf" stroke="black" points="0.5,-19.5 0.5,-38.5 77.5,-38.5 77.5,-19.5 0.5,-19.5"/>
<text text-anchor="middle" x="39" y="-26.5" font-family="Helvetica,sans-Serif" font-size="10.00">Con::validate</text>
</g>
<!-- Node2 -->
<g id="node3" class="node"><title>Node2</title>
<a xlink:href="class_con.html#a385c5bf6eb9e2ffc94c5b427c287ccb2" target="_top" xlink:title="weight field accessor.">
<polygon fill="white" stroke="black" points="114,-38.5 114,-57.5 204,-57.5 204,-38.5 114,-38.5"/>
<text text-anchor="middle" x="159" y="-45.5" font-family="Helvetica,sans-Serif" font-size="10.00">Con::getWeight</text>
</a>
</g>
<!-- Node1&#45;&gt;Node2 -->
<g id="edge2" class="edge"><title>Node1&#45;&gt;Node2</title>
<path fill="none" stroke="midnightblue" d="M77.6604,-35.064C85.9913,-36.4054 94.9782,-37.8524 103.82,-39.2761"/>
<polygon fill="midnightblue" stroke="midnightblue" points="103.269,-42.7323 113.698,-40.8666 104.381,-35.8213 103.269,-42.7323"/>
</g>
<!-- Node3 -->
<g id="node5" class="node"><title>Node3</title>
<a xlink:href="class_con.html#aee0a0b6c5beff6e227f9ebf33af2d209" target="_top" xlink:title="A getter of the Id of the Neuron pointed by the from field.">
<polygon fill="white" stroke="black" points="134,-0.5 134,-19.5 184,-19.5 184,-0.5 134,-0.5"/>
<text text-anchor="middle" x="159" y="-7.5" font-family="Helvetica,sans-Serif" font-size="10.00">Con::Id</text>
</a>
</g>
<!-- Node1&#45;&gt;Node3 -->
<g id="edge4" class="edge"><title>Node1&#45;&gt;Node3</title>
<path fill="none" stroke="midnightblue" d="M77.6604,-22.936C92.4231,-20.559 109.246,-17.8502 123.67,-15.5278"/>
<polygon fill="midnightblue" stroke="midnightblue" points="124.368,-18.9605 133.684,-13.9152 123.255,-12.0495 124.368,-18.9605"/>
</g>
</g>
</svg>
