<?xml version="1.0" encoding="UTF-8" standalone="no"?>
<!DOCTYPE svg PUBLIC "-//W3C//DTD SVG 1.1//EN"
 "http://www.w3.org/Graphics/SVG/1.1/DTD/svg11.dtd">
<!-- Generated by graphviz version 2.28.0 (20110610.2051)
 -->
<!-- Title: G Pages: 1 -->
<svg width="365pt" height="282pt"
 viewBox="0.00 0.00 365.00 282.00" xmlns="http://www.w3.org/2000/svg" xmlns:xlink="http://www.w3.org/1999/xlink">
<g id="graph1" class="graph" transform="scale(1 1) rotate(0) translate(4 278)">
<title>G</title>
<polygon fill="white" stroke="white" points="-4,5 -4,-278 362,-278 362,5 -4,5"/>
<!-- Node1 -->
<g id="node1" class="node"><title>Node1</title>
<polygon fill="#bfbfbf" stroke="black" points="126,-161 126,-273 212,-273 212,-161 126,-161"/>
<text text-anchor="middle" x="169" y="-261" font-family="Helvetica,sans-Serif" font-size="10.00">Iterator&lt; T &gt;</text>
<polyline fill="none" stroke="black" points="126,-254 212,-254 "/>
<text text-anchor="middle" x="169" y="-242" font-family="Helvetica,sans-Serif" font-size="10.00"> </text>
<polyline fill="none" stroke="black" points="126,-235 212,-235 "/>
<text text-anchor="start" x="134" y="-223" font-family="Helvetica,sans-Serif" font-size="10.00">+ ~Iterator()</text>
<text text-anchor="start" x="134" y="-212" font-family="Helvetica,sans-Serif" font-size="10.00">+ first()</text>
<text text-anchor="start" x="134" y="-201" font-family="Helvetica,sans-Serif" font-size="10.00">+ next()</text>
<text text-anchor="start" x="134" y="-190" font-family="Helvetica,sans-Serif" font-size="10.00">+ isDone()</text>
<text text-anchor="start" x="134" y="-179" font-family="Helvetica,sans-Serif" font-size="10.00">+ currentItem()</text>
<text text-anchor="start" x="134" y="-168" font-family="Helvetica,sans-Serif" font-size="10.00"># Iterator()</text>
</g>
<!-- Node2 -->
<g id="node3" class="node"><title>Node2</title>
<a xlink:href="class_simple_container_iterator.html" target="_top" xlink:title="class SimpleContainerIterator &#45;">
<polygon fill="white" stroke="black" points="0,-0.5 0,-123.5 150,-123.5 150,-0.5 0,-0.5"/>
<text text-anchor="middle" x="75" y="-111.5" font-family="Helvetica,sans-Serif" font-size="10.00">SimpleContainerIterator&lt; T &gt;</text>
<polyline fill="none" stroke="black" points="0,-104.5 150,-104.5 "/>
<text text-anchor="start" x="8" y="-92.5" font-family="Helvetica,sans-Serif" font-size="10.00">&#45; d_container</text>
<text text-anchor="start" x="8" y="-81.5" font-family="Helvetica,sans-Serif" font-size="10.00">&#45; d_current</text>
<polyline fill="none" stroke="black" points="0,-74.5 150,-74.5 "/>
<text text-anchor="start" x="8" y="-62.5" font-family="Helvetica,sans-Serif" font-size="10.00">+ SimpleContainerIterator()</text>
<text text-anchor="start" x="8" y="-51.5" font-family="Helvetica,sans-Serif" font-size="10.00">+ ~SimpleContainerIterator()</text>
<text text-anchor="start" x="8" y="-40.5" font-family="Helvetica,sans-Serif" font-size="10.00">&#45; first()</text>
<text text-anchor="start" x="8" y="-29.5" font-family="Helvetica,sans-Serif" font-size="10.00">&#45; next()</text>
<text text-anchor="start" x="8" y="-18.5" font-family="Helvetica,sans-Serif" font-size="10.00">&#45; isDone()</text>
<text text-anchor="start" x="8" y="-7.5" font-family="Helvetica,sans-Serif" font-size="10.00">&#45; currentItem()</text>
</a>
</g>
<!-- Node1&#45;&gt;Node2 -->
<g id="edge2" class="edge"><title>Node1&#45;&gt;Node2</title>
<path fill="none" stroke="midnightblue" d="M129.783,-152.168C123.972,-142.709 117.997,-132.984 112.227,-123.593"/>
<polygon fill="none" stroke="midnightblue" points="126.847,-154.075 135.064,-160.763 132.811,-150.411 126.847,-154.075"/>
</g>
<!-- Node3 -->
<g id="node5" class="node"><title>Node3</title>
<a xlink:href="class_simple_container_reverse_iterator.html" target="_top" xlink:title="class SimpleContainerReverseIterator &#45;">
<polygon fill="white" stroke="black" points="168.5,-0.5 168.5,-123.5 357.5,-123.5 357.5,-0.5 168.5,-0.5"/>
<text text-anchor="middle" x="263" y="-111.5" font-family="Helvetica,sans-Serif" font-size="10.00">SimpleContainerReverseIterator&lt; T &gt;</text>
<polyline fill="none" stroke="black" points="168.5,-104.5 357.5,-104.5 "/>
<text text-anchor="start" x="176.5" y="-92.5" font-family="Helvetica,sans-Serif" font-size="10.00">&#45; d_container</text>
<text text-anchor="start" x="176.5" y="-81.5" font-family="Helvetica,sans-Serif" font-size="10.00">&#45; d_current</text>
<polyline fill="none" stroke="black" points="168.5,-74.5 357.5,-74.5 "/>
<text text-anchor="start" x="176.5" y="-62.5" font-family="Helvetica,sans-Serif" font-size="10.00">+ SimpleContainerReverseIterator()</text>
<text text-anchor="start" x="176.5" y="-51.5" font-family="Helvetica,sans-Serif" font-size="10.00">+ ~SimpleContainerReverseIterator()</text>
<text text-anchor="start" x="176.5" y="-40.5" font-family="Helvetica,sans-Serif" font-size="10.00">&#45; first()</text>
<text text-anchor="start" x="176.5" y="-29.5" font-family="Helvetica,sans-Serif" font-size="10.00">&#45; next()</text>
<text text-anchor="start" x="176.5" y="-18.5" font-family="Helvetica,sans-Serif" font-size="10.00">&#45; isDone()</text>
<text text-anchor="start" x="176.5" y="-7.5" font-family="Helvetica,sans-Serif" font-size="10.00">&#45; currentItem()</text>
</a>
</g>
<!-- Node1&#45;&gt;Node3 -->
<g id="edge4" class="edge"><title>Node1&#45;&gt;Node3</title>
<path fill="none" stroke="midnightblue" d="M208.217,-152.168C214.028,-142.709 220.003,-132.984 225.773,-123.593"/>
<polygon fill="none" stroke="midnightblue" points="205.189,-150.411 202.936,-160.763 211.153,-154.075 205.189,-150.411"/>
</g>
</g>
</svg>
