<?xml version="1.0" encoding="UTF-8" standalone="no"?>
<!DOCTYPE svg PUBLIC "-//W3C//DTD SVG 1.1//EN"
 "http://www.w3.org/Graphics/SVG/1.1/DTD/svg11.dtd">
<!-- Generated by graphviz version 2.28.0 (20110610.2051)
 -->
<!-- Title: G Pages: 1 -->
<svg width="140pt" height="216pt"
 viewBox="0.00 0.00 140.00 216.00" xmlns="http://www.w3.org/2000/svg" xmlns:xlink="http://www.w3.org/1999/xlink">
<g id="graph1" class="graph" transform="scale(1 1) rotate(0) translate(4 212)">
<title>G</title>
<polygon fill="white" stroke="white" points="-4,5 -4,-212 137,-212 137,5 -4,5"/>
<!-- Node1 -->
<g id="node1" class="node"><title>Node1</title>
<polygon fill="#bfbfbf" stroke="black" points="30.5,-0.5 30.5,-79.5 101.5,-79.5 101.5,-0.5 30.5,-0.5"/>
<text text-anchor="middle" x="66" y="-67.5" font-family="Helvetica,sans-Serif" font-size="10.00">Logistic</text>
<polyline fill="none" stroke="black" points="30.5,-60.5 101.5,-60.5 "/>
<text text-anchor="middle" x="66" y="-48.5" font-family="Helvetica,sans-Serif" font-size="10.00"> </text>
<polyline fill="none" stroke="black" points="30.5,-41.5 101.5,-41.5 "/>
<text text-anchor="start" x="38.5" y="-29.5" font-family="Helvetica,sans-Serif" font-size="10.00">+ Logistic()</text>
<text text-anchor="start" x="38.5" y="-18.5" font-family="Helvetica,sans-Serif" font-size="10.00">+ f0()</text>
<text text-anchor="start" x="38.5" y="-7.5" font-family="Helvetica,sans-Serif" font-size="10.00">+ f1()</text>
</g>
<!-- Node2 -->
<g id="node2" class="node"><title>Node2</title>
<a xlink:href="class_activation_function.html" target="_top" xlink:title="class ActivationFunction &#45;">
<polygon fill="white" stroke="black" points="0,-117 0,-207 132,-207 132,-117 0,-117"/>
<text text-anchor="middle" x="66" y="-195" font-family="Helvetica,sans-Serif" font-size="10.00">ActivationFunction</text>
<polyline fill="none" stroke="black" points="0,-188 132,-188 "/>
<text text-anchor="start" x="8" y="-176" font-family="Helvetica,sans-Serif" font-size="10.00"># d_neuron</text>
<polyline fill="none" stroke="black" points="0,-169 132,-169 "/>
<text text-anchor="start" x="8" y="-157" font-family="Helvetica,sans-Serif" font-size="10.00">+ f0()</text>
<text text-anchor="start" x="8" y="-146" font-family="Helvetica,sans-Serif" font-size="10.00">+ f1()</text>
<text text-anchor="start" x="8" y="-135" font-family="Helvetica,sans-Serif" font-size="10.00"># ActivationFunction()</text>
<text text-anchor="start" x="8" y="-124" font-family="Helvetica,sans-Serif" font-size="10.00"># getInducedLocalField()</text>
</a>
</g>
<!-- Node2&#45;&gt;Node1 -->
<g id="edge2" class="edge"><title>Node2&#45;&gt;Node1</title>
<path fill="none" stroke="midnightblue" d="M66,-106.844C66,-97.7422 66,-88.4594 66,-79.844"/>
<polygon fill="none" stroke="midnightblue" points="62.5001,-106.998 66,-116.998 69.5001,-106.998 62.5001,-106.998"/>
</g>
</g>
</svg>
