<?xml version="1.0" encoding="UTF-8" standalone="no"?>
<!DOCTYPE svg PUBLIC "-//W3C//DTD SVG 1.1//EN"
 "http://www.w3.org/Graphics/SVG/1.1/DTD/svg11.dtd">
<!-- Generated by graphviz version 2.28.0 (20110610.2051)
 -->
<!-- Title: G Pages: 1 -->
<svg width="172pt" height="266pt"
 viewBox="0.00 0.00 172.00 266.00" xmlns="http://www.w3.org/2000/svg" xmlns:xlink="http://www.w3.org/1999/xlink">
<g id="graph1" class="graph" transform="scale(1 1) rotate(0) translate(4 262)">
<title>G</title>
<polygon fill="white" stroke="white" points="-4,5 -4,-262 169,-262 169,5 -4,5"/>
<!-- Node1 -->
<g id="node1" class="node"><title>Node1</title>
<polygon fill="#bfbfbf" stroke="black" points="-0.5,-0.5 -0.5,-57.5 164.5,-57.5 164.5,-0.5 -0.5,-0.5"/>
<text text-anchor="middle" x="82" y="-45.5" font-family="Helvetica,sans-Serif" font-size="10.00">BATCHgdNetworkTrainBehavior</text>
<polyline fill="none" stroke="black" points="-0.5,-38.5 164.5,-38.5 "/>
<text text-anchor="middle" x="82" y="-26.5" font-family="Helvetica,sans-Serif" font-size="10.00"> </text>
<polyline fill="none" stroke="black" points="-0.5,-19.5 164.5,-19.5 "/>
<text text-anchor="start" x="7.5" y="-7.5" font-family="Helvetica,sans-Serif" font-size="10.00">+ train()</text>
</g>
<!-- Node2 -->
<g id="node2" class="node"><title>Node2</title>
<a xlink:href="class_batch_network_train_behavior.html" target="_top" xlink:title="class BatchNetworkTrainBehavior &#45;">
<polygon fill="white" stroke="black" points="9.5,-94.5 9.5,-151.5 154.5,-151.5 154.5,-94.5 9.5,-94.5"/>
<text text-anchor="middle" x="82" y="-139.5" font-family="Helvetica,sans-Serif" font-size="10.00">BatchNetworkTrainBehavior</text>
<polyline fill="none" stroke="black" points="9.5,-132.5 154.5,-132.5 "/>
<text text-anchor="middle" x="82" y="-120.5" font-family="Helvetica,sans-Serif" font-size="10.00"> </text>
<polyline fill="none" stroke="black" points="9.5,-113.5 154.5,-113.5 "/>
<text text-anchor="start" x="17.5" y="-101.5" font-family="Helvetica,sans-Serif" font-size="10.00">+ train()</text>
</a>
</g>
<!-- Node2&#45;&gt;Node1 -->
<g id="edge2" class="edge"><title>Node2&#45;&gt;Node1</title>
<path fill="none" stroke="midnightblue" d="M82,-84.2092C82,-75.2929 82,-65.9513 82,-57.5836"/>
<polygon fill="none" stroke="midnightblue" points="78.5001,-84.3969 82,-94.397 85.5001,-84.397 78.5001,-84.3969"/>
</g>
<!-- Node3 -->
<g id="node4" class="node"><title>Node3</title>
<a xlink:href="class_network_train_behavior.html" target="_top" xlink:title="class NetworkTrainBehavior &#45;">
<polygon fill="white" stroke="black" points="23,-189 23,-257 141,-257 141,-189 23,-189"/>
<text text-anchor="middle" x="82" y="-245" font-family="Helvetica,sans-Serif" font-size="10.00">NetworkTrainBehavior</text>
<polyline fill="none" stroke="black" points="23,-238 141,-238 "/>
<text text-anchor="start" x="31" y="-226" font-family="Helvetica,sans-Serif" font-size="10.00"># d_neuralNetwork</text>
<text text-anchor="start" x="31" y="-215" font-family="Helvetica,sans-Serif" font-size="10.00"># d_costFunction</text>
<polyline fill="none" stroke="black" points="23,-208 141,-208 "/>
<text text-anchor="start" x="31" y="-196" font-family="Helvetica,sans-Serif" font-size="10.00">+ train()</text>
</a>
</g>
<!-- Node3&#45;&gt;Node2 -->
<g id="edge4" class="edge"><title>Node3&#45;&gt;Node2</title>
<path fill="none" stroke="midnightblue" d="M82,-178.638C82,-169.455 82,-160.005 82,-151.6"/>
<polygon fill="none" stroke="midnightblue" points="78.5001,-178.822 82,-188.822 85.5001,-178.822 78.5001,-178.822"/>
</g>
</g>
</svg>
