<?xml version="1.0" encoding="UTF-8" standalone="no"?>
<!DOCTYPE svg PUBLIC "-//W3C//DTD SVG 1.1//EN"
 "http://www.w3.org/Graphics/SVG/1.1/DTD/svg11.dtd">
<!-- Generated by graphviz version 2.28.0 (20110610.2051)
 -->
<!-- Title: G Pages: 1 -->
<svg width="286pt" height="104pt"
 viewBox="0.00 0.00 286.00 104.00" xmlns="http://www.w3.org/2000/svg" xmlns:xlink="http://www.w3.org/1999/xlink">
<g id="graph1" class="graph" transform="scale(1 1) rotate(0) translate(4 100)">
<title>G</title>
<polygon fill="white" stroke="white" points="-4,5 -4,-100 283,-100 283,5 -4,5"/>
<!-- Node1 -->
<g id="node1" class="node"><title>Node1</title>
<polygon fill="#bfbfbf" stroke="black" points="0,-38.5 0,-57.5 114,-57.5 114,-38.5 0,-38.5"/>
<text text-anchor="middle" x="57" y="-45.5" font-family="Helvetica,sans-Serif" font-size="10.00">ConContainer::select</text>
</g>
<!-- Node2 -->
<g id="node3" class="node"><title>Node2</title>
<a xlink:href="class_container.html#ac5e2a75311f6e6a690ca67603490ddb1" target="_top" xlink:title="Container\&lt; Con \&gt;::begin">
<polygon fill="white" stroke="black" points="150,-76.5 150,-95.5 278,-95.5 278,-76.5 150,-76.5"/>
<text text-anchor="middle" x="214" y="-83.5" font-family="Helvetica,sans-Serif" font-size="10.00">Container&lt; Con &gt;::begin</text>
</a>
</g>
<!-- Node1&#45;&gt;Node2 -->
<g id="edge2" class="edge"><title>Node1&#45;&gt;Node2</title>
<path fill="none" stroke="midnightblue" d="M97.113,-57.589C117.475,-62.5809 142.566,-68.7324 164.189,-74.0334"/>
<polygon fill="midnightblue" stroke="midnightblue" points="163.622,-77.4981 174.168,-76.4799 165.289,-70.6994 163.622,-77.4981"/>
</g>
<!-- Node3 -->
<g id="node5" class="node"><title>Node3</title>
<a xlink:href="class_container.html#a266eabe62963d6909d3aca7f105e203e" target="_top" xlink:title="Container\&lt; Con \&gt;::end">
<polygon fill="white" stroke="black" points="154.5,-38.5 154.5,-57.5 273.5,-57.5 273.5,-38.5 154.5,-38.5"/>
<text text-anchor="middle" x="214" y="-45.5" font-family="Helvetica,sans-Serif" font-size="10.00">Container&lt; Con &gt;::end</text>
</a>
</g>
<!-- Node1&#45;&gt;Node3 -->
<g id="edge4" class="edge"><title>Node1&#45;&gt;Node3</title>
<path fill="none" stroke="midnightblue" d="M114.397,-48C124.034,-48 134.141,-48 144.06,-48"/>
<polygon fill="midnightblue" stroke="midnightblue" points="144.299,-51.5001 154.299,-48 144.299,-44.5001 144.299,-51.5001"/>
</g>
<!-- Node4 -->
<g id="node7" class="node"><title>Node4</title>
<a xlink:href="class_container.html#a359f34bc418575b474184cbe3f33527e" target="_top" xlink:title="Container\&lt; Con \&gt;::size">
<polygon fill="white" stroke="black" points="154,-0.5 154,-19.5 274,-19.5 274,-0.5 154,-0.5"/>
<text text-anchor="middle" x="214" y="-7.5" font-family="Helvetica,sans-Serif" font-size="10.00">Container&lt; Con &gt;::size</text>
</a>
</g>
<!-- Node1&#45;&gt;Node4 -->
<g id="edge6" class="edge"><title>Node1&#45;&gt;Node4</title>
<path fill="none" stroke="midnightblue" d="M97.113,-38.411C117.475,-33.4191 142.566,-27.2676 164.189,-21.9666"/>
<polygon fill="midnightblue" stroke="midnightblue" points="165.289,-25.3006 174.168,-19.5201 163.622,-18.5019 165.289,-25.3006"/>
</g>
</g>
</svg>
