<?xml version="1.0" encoding="UTF-8" standalone="no"?>
<!DOCTYPE svg PUBLIC "-//W3C//DTD SVG 1.1//EN"
 "http://www.w3.org/Graphics/SVG/1.1/DTD/svg11.dtd">
<!-- Generated by graphviz version 2.28.0 (20110610.2051)
 -->
<!-- Title: G Pages: 1 -->
<svg width="194pt" height="140pt"
 viewBox="0.00 0.00 194.00 140.00" xmlns="http://www.w3.org/2000/svg" xmlns:xlink="http://www.w3.org/1999/xlink">
<g id="graph1" class="graph" transform="scale(1 1) rotate(0) translate(4 136)">
<title>G</title>
<polygon fill="white" stroke="white" points="-4,5 -4,-136 191,-136 191,5 -4,5"/>
<!-- Node1 -->
<g id="node1" class="node"><title>Node1</title>
<polygon fill="#bfbfbf" stroke="black" points="0,-112.5 0,-131.5 148,-131.5 148,-112.5 0,-112.5"/>
<text text-anchor="middle" x="74" y="-119.5" font-family="Helvetica,sans-Serif" font-size="10.00">pkg/AMORE/src/dia/Neuron.h</text>
</g>
<!-- Node2 -->
<g id="node3" class="node"><title>Node2</title>
<a xlink:href="_a_m_o_r_e_8h.html" target="_top" xlink:title="pkg/AMORE/src/AMORE.h">
<polygon fill="white" stroke="black" points="5.5,-0.5 5.5,-19.5 142.5,-19.5 142.5,-0.5 5.5,-0.5"/>
<text text-anchor="middle" x="74" y="-7.5" font-family="Helvetica,sans-Serif" font-size="10.00">pkg/AMORE/src/AMORE.h</text>
</a>
</g>
<!-- Node1&#45;&gt;Node2 -->
<g id="edge2" class="edge"><title>Node1&#45;&gt;Node2</title>
<path fill="none" stroke="midnightblue" d="M60.9668,-104.231C55.5091,-96.168 49.7919,-86.0795 47,-76 41.194,-55.0384 56.5154,-31.8017 66.3908,-19.5877"/>
<polygon fill="midnightblue" stroke="midnightblue" points="58.1526,-106.312 66.8485,-112.364 63.8249,-102.21 58.1526,-106.312"/>
</g>
<!-- Node3 -->
<g id="node5" class="node"><title>Node3</title>
<a xlink:href="_con_8cpp.html" target="_top" xlink:title="pkg/AMORE/src/Con.cpp">
<polygon fill="white" stroke="black" points="56,-56.5 56,-75.5 186,-75.5 186,-56.5 56,-56.5"/>
<text text-anchor="middle" x="121" y="-63.5" font-family="Helvetica,sans-Serif" font-size="10.00">pkg/AMORE/src/Con.cpp</text>
</a>
</g>
<!-- Node1&#45;&gt;Node3 -->
<g id="edge4" class="edge"><title>Node1&#45;&gt;Node3</title>
<path fill="none" stroke="midnightblue" d="M88.4208,-104.431C96.6581,-94.9673 106.654,-83.4827 113.383,-75.7511"/>
<polygon fill="midnightblue" stroke="midnightblue" points="85.6863,-102.242 81.7611,-112.083 90.9664,-106.838 85.6863,-102.242"/>
</g>
<!-- Node3&#45;&gt;Node2 -->
<g id="edge6" class="edge"><title>Node3&#45;&gt;Node2</title>
<path fill="none" stroke="midnightblue" d="M106.579,-48.4314C98.3419,-38.9673 88.3461,-27.4827 81.6167,-19.7511"/>
<polygon fill="midnightblue" stroke="midnightblue" points="104.034,-50.8378 113.239,-56.083 109.314,-46.2421 104.034,-50.8378"/>
</g>
</g>
</svg>
