<?xml version="1.0" encoding="UTF-8" standalone="no"?>
<!DOCTYPE svg PUBLIC "-//W3C//DTD SVG 1.1//EN"
 "http://www.w3.org/Graphics/SVG/1.1/DTD/svg11.dtd">
<!-- Generated by graphviz version 2.25.20091207.0545 (20091207.0545)
 -->
<!-- Title: G Pages: 1 -->
<svg width="504pt" height="164pt"
 viewBox="0.00 0.00 504.00 164.00" xmlns="http://www.w3.org/2000/svg" xmlns:xlink="http://www.w3.org/1999/xlink">
<g id="graph1" class="graph" transform="scale(1 1) rotate(0) translate(4 160)">
<title>G</title>
<polygon fill="white" stroke="white" points="-4,5 -4,-160 501,-160 501,5 -4,5"/>
<!-- Node9 -->
<g id="node1" class="node"><title>Node9</title>
<polygon fill="#bfbfbf" stroke="black" points="289,-19.5 235,-19.5 235,-0.5 289,-0.5 289,-19.5"/>
<text text-anchor="middle" x="262" y="-6.5" font-family="Helvetica,sans-Serif" font-size="10.00">Inherited</text>
</g>
<!-- Node10 -->
<g id="node2" class="node"><title>Node10</title>
<a xlink:href="$classPublicBase.html" xlink:title="PublicBase">
<polygon fill="none" stroke="black" points="66,-87.5 2.84217e-14,-87.5 0,-68.5 66,-68.5 66,-87.5"/>
<text text-anchor="middle" x="33" y="-74.5" font-family="Helvetica,sans-Serif" font-size="10.00">PublicBase</text>
</a>
</g>
<!-- Node10&#45;&gt;Node9 -->
<g id="edge2" class="edge"><title>Node10&#45;&gt;Node9</title>
<path fill="none" stroke="midnightblue" d="M75.1147,-65.4943C121.688,-51.6647 195.346,-29.7923 234.846,-18.0633"/>
<polygon fill="midnightblue" stroke="midnightblue" points="73.9144,-62.1996 65.3244,-68.4015 75.907,-68.91 73.9144,-62.1996"/>
</g>
<!-- Node11 -->
<g id="node4" class="node"><title>Node11</title>
<a xlink:href="$classTruncated.html" xlink:title="Truncated">
<polygon fill="none" stroke="red" points="63,-155.5 3,-155.5 3,-136.5 63,-136.5 63,-155.5"/>
<text text-anchor="middle" x="33" y="-142.5" font-family="Helvetica,sans-Serif" font-size="10.00">Truncated</text>
</a>
</g>
<!-- Node11&#45;&gt;Node10 -->
<g id="edge4" class="edge"><title>Node11&#45;&gt;Node10</title>
<path fill="none" stroke="midnightblue" d="M33,-126.195C33,-113.551 33,-97.7157 33,-87.7247"/>
<polygon fill="midnightblue" stroke="midnightblue" points="29.5001,-126.257 33,-136.257 36.5001,-126.257 29.5001,-126.257"/>
</g>
<!-- Node13 -->
<g id="node6" class="node"><title>Node13</title>
<a xlink:href="$classProtectedBase.html" xlink:title="ProtectedBase">
<polygon fill="none" stroke="black" points="164,-87.5 84,-87.5 84,-68.5 164,-68.5 164,-87.5"/>
<text text-anchor="middle" x="124" y="-74.5" font-family="Helvetica,sans-Serif" font-size="10.00">ProtectedBase</text>
</a>
</g>
<!-- Node13&#45;&gt;Node9 -->
<g id="edge6" class="edge"><title>Node13&#45;&gt;Node9</title>
<path fill="none" stroke="darkgreen" d="M152.784,-63.8164C179.728,-50.5396 219.241,-31.0697 242.62,-19.5497"/>
<polygon fill="darkgreen" stroke="darkgreen" points="150.902,-60.8418 143.479,-68.4015 153.997,-67.1209 150.902,-60.8418"/>
</g>
<!-- Node14 -->
<g id="node8" class="node"><title>Node14</title>
<a xlink:href="$classPrivateBase.html" xlink:title="PrivateBase">
<polygon fill="none" stroke="black" points="250,-87.5 182,-87.5 182,-68.5 250,-68.5 250,-87.5"/>
<text text-anchor="middle" x="216" y="-74.5" font-family="Helvetica,sans-Serif" font-size="10.00">PrivateBase</text>
</a>
</g>
<!-- Node14&#45;&gt;Node9 -->
<g id="edge8" class="edge"><title>Node14&#45;&gt;Node9</title>
<path fill="none" stroke="#8b1a1a" d="M228.372,-59.7114C237.078,-46.8406 248.39,-30.1194 255.422,-19.7247"/>
<polygon fill="#8b1a1a" stroke="#8b1a1a" points="225.295,-58.0133 222.591,-68.2573 231.093,-61.9355 225.295,-58.0133"/>
</g>
<!-- Node15 -->
<g id="node10" class="node"><title>Node15</title>
<polygon fill="none" stroke="#bfbfbf" points="350,-87.5 268,-87.5 268,-68.5 350,-68.5 350,-87.5"/>
<text text-anchor="middle" x="309" y="-74.5" font-family="Helvetica,sans-Serif" font-size="10.00">Undocumented</text>
</g>
<!-- Node15&#45;&gt;Node9 -->
<g id="edge10" class="edge"><title>Node15&#45;&gt;Node9</title>
<path fill="none" stroke="midnightblue" d="M296.359,-59.7114C287.463,-46.8406 275.906,-30.1194 268.721,-19.7247"/>
<polygon fill="midnightblue" stroke="midnightblue" points="293.701,-62.021 302.266,-68.2573 299.459,-58.0409 293.701,-62.021"/>
</g>
<!-- Node16 -->
<g id="node12" class="node"><title>Node16</title>
<a xlink:href="$classTempl.html" xlink:title="Templ&lt; int &gt;">
<polygon fill="none" stroke="black" points="440,-87.5 368,-87.5 368,-68.5 440,-68.5 440,-87.5"/>
<text text-anchor="middle" x="404" y="-74.5" font-family="Helvetica,sans-Serif" font-size="10.00">Templ&lt; int &gt;</text>
</a>
</g>
<!-- Node16&#45;&gt;Node9 -->
<g id="edge12" class="edge"><title>Node16&#45;&gt;Node9</title>
<path fill="none" stroke="midnightblue" d="M374.745,-63.9908C347.013,-50.7106 306.104,-31.1202 281.942,-19.5497"/>
<polygon fill="midnightblue" stroke="midnightblue" points="373.425,-67.2391 383.956,-68.4015 376.449,-60.9257 373.425,-67.2391"/>
</g>
<!-- Node17 -->
<g id="node14" class="node"><title>Node17</title>
<a xlink:href="$classTempl.html" xlink:title="Templ&lt; T &gt;">
<polygon fill="none" stroke="black" points="437,-155.5 371,-155.5 371,-136.5 437,-136.5 437,-155.5"/>
<text text-anchor="middle" x="404" y="-142.5" font-family="Helvetica,sans-Serif" font-size="10.00">Templ&lt; T &gt;</text>
</a>
</g>
<!-- Node17&#45;&gt;Node16 -->
<g id="edge14" class="edge"><title>Node17&#45;&gt;Node16</title>
<path fill="none" stroke="orange" stroke-dasharray="5,2" d="M404,-126.195C404,-113.551 404,-97.7157 404,-87.7247"/>
<polygon fill="orange" stroke="orange" points="400.5,-126.257 404,-136.257 407.5,-126.257 400.5,-126.257"/>
<text text-anchor="middle" x="418.5" y="-108.5" font-family="Helvetica,sans-Serif" font-size="10.00">&lt; int &gt;</text>
</g>
<!-- Node18 -->
<g id="node16" class="node"><title>Node18</title>
<a xlink:href="$classUsed.html" xlink:title="Used">
<polygon fill="none" stroke="black" points="496,-87.5 458,-87.5 458,-68.5 496,-68.5 496,-87.5"/>
<text text-anchor="middle" x="477" y="-74.5" font-family="Helvetica,sans-Serif" font-size="10.00">Used</text>
</a>
</g>
<!-- Node18&#45;&gt;Node9 -->
<g id="edge16" class="edge"><title>Node18&#45;&gt;Node9</title>
<path fill="none" stroke="#9a32cd" stroke-dasharray="5,2" d="M448.178,-67.8146C385.95,-47.1722 323.744,-28.3418 289.056,-18.0002"/>
<polygon fill="#9a32cd" stroke="#9a32cd" points="447.164,-71.1659 457.757,-71.0071 449.377,-64.525 447.164,-71.1659"/>
<text text-anchor="middle" x="422" y="-40.5" font-family="Helvetica,sans-Serif" font-size="10.00">m_usedClass</text>
</g>
</g>
</svg>
