<?xml version="1.0" encoding="UTF-8" standalone="no"?>
<!DOCTYPE svg PUBLIC "-//W3C//DTD SVG 1.1//EN"
 "http://www.w3.org/Graphics/SVG/1.1/DTD/svg11.dtd">
<!-- Generated by graphviz version 2.28.0 (20110610.2051)
 -->
<!-- Title: G Pages: 1 -->
<svg width="336pt" height="484pt"
 viewBox="0.00 0.00 336.00 484.00" xmlns="http://www.w3.org/2000/svg" xmlns:xlink="http://www.w3.org/1999/xlink">
<g id="graph1" class="graph" transform="scale(1 1) rotate(0) translate(4 480)">
<title>G</title>
<polygon fill="white" stroke="white" points="-4,5 -4,-480 333,-480 333,5 -4,5"/>
<!-- Node1 -->
<g id="node1" class="node"><title>Node1</title>
<a xlink:href="class_neural_factory.html" target="_top" xlink:title="class NeuralFactory &#45;">
<polygon fill="white" stroke="black" points="0,-161.5 0,-180.5 80,-180.5 80,-161.5 0,-161.5"/>
<text text-anchor="middle" x="40" y="-168.5" font-family="Helvetica,sans-Serif" font-size="10.00">NeuralFactory</text>
</a>
</g>
<!-- Node2 -->
<g id="node3" class="node"><title>Node2</title>
<a xlink:href="class_m_l_pfactory.html" target="_top" xlink:title="class MLPfactory &#45;">
<polygon fill="white" stroke="black" points="116.5,-228.5 116.5,-247.5 185.5,-247.5 185.5,-228.5 116.5,-228.5"/>
<text text-anchor="middle" x="151" y="-235.5" font-family="Helvetica,sans-Serif" font-size="10.00">MLPfactory</text>
</a>
</g>
<!-- Node1&#45;&gt;Node2 -->
<g id="edge2" class="edge"><title>Node1&#45;&gt;Node2</title>
<path fill="none" stroke="midnightblue" d="M65.3431,-185.963C86.4537,-198.939 116.375,-217.331 134.412,-228.418"/>
<polygon fill="midnightblue" stroke="midnightblue" points="66.9692,-182.854 56.617,-180.599 63.3035,-188.818 66.9692,-182.854"/>
</g>
<!-- Node15 -->
<g id="node29" class="node"><title>Node15</title>
<a xlink:href="class_r_b_ffactory.html" target="_top" xlink:title="class RBFfactory &#45;">
<polygon fill="white" stroke="black" points="116.5,-95.5 116.5,-114.5 185.5,-114.5 185.5,-95.5 116.5,-95.5"/>
<text text-anchor="middle" x="151" y="-102.5" font-family="Helvetica,sans-Serif" font-size="10.00">RBFfactory</text>
</a>
</g>
<!-- Node1&#45;&gt;Node15 -->
<g id="edge28" class="edge"><title>Node1&#45;&gt;Node15</title>
<path fill="none" stroke="midnightblue" d="M65.7857,-155.992C86.7892,-143.274 116.273,-125.422 134.205,-114.564"/>
<polygon fill="midnightblue" stroke="midnightblue" points="63.8246,-153.088 57.0833,-161.261 67.4503,-159.076 63.8246,-153.088"/>
</g>
<!-- Node3 -->
<g id="node5" class="node"><title>Node3</title>
<a xlink:href="class_arc_tan_factory.html" target="_top" xlink:title="class ArcTanFactory &#45;">
<polygon fill="white" stroke="black" points="233.5,-456.5 233.5,-475.5 316.5,-475.5 316.5,-456.5 233.5,-456.5"/>
<text text-anchor="middle" x="275" y="-463.5" font-family="Helvetica,sans-Serif" font-size="10.00">ArcTanFactory</text>
</a>
</g>
<!-- Node2&#45;&gt;Node3 -->
<g id="edge4" class="edge"><title>Node2&#45;&gt;Node3</title>
<path fill="none" stroke="midnightblue" d="M153.086,-257.875C156.377,-298.791 169.551,-393.108 222,-447 225.754,-450.857 230.354,-453.936 235.25,-456.393"/>
<polygon fill="midnightblue" stroke="midnightblue" points="156.573,-257.565 152.396,-247.829 149.59,-258.045 156.573,-257.565"/>
</g>
<!-- Node4 -->
<g id="node7" class="node"><title>Node4</title>
<a xlink:href="class_cosine_factory.html" target="_top" xlink:title="class CosineFactory &#45;">
<polygon fill="white" stroke="black" points="233.5,-418.5 233.5,-437.5 316.5,-437.5 316.5,-418.5 233.5,-418.5"/>
<text text-anchor="middle" x="275" y="-425.5" font-family="Helvetica,sans-Serif" font-size="10.00">CosineFactory</text>
</a>
</g>
<!-- Node2&#45;&gt;Node4 -->
<g id="edge6" class="edge"><title>Node2&#45;&gt;Node4</title>
<path fill="none" stroke="midnightblue" d="M154.765,-257.59C160.726,-292.706 177.995,-366.646 222,-409 226.017,-412.866 230.882,-415.955 236.006,-418.422"/>
<polygon fill="midnightblue" stroke="midnightblue" points="158.213,-256.981 153.208,-247.643 151.297,-258.064 158.213,-256.981"/>
</g>
<!-- Node5 -->
<g id="node9" class="node"><title>Node5</title>
<a xlink:href="class_elliot_factory.html" target="_top" xlink:title="class ElliotFactory &#45;">
<polygon fill="white" stroke="black" points="238,-380.5 238,-399.5 312,-399.5 312,-380.5 238,-380.5"/>
<text text-anchor="middle" x="275" y="-387.5" font-family="Helvetica,sans-Serif" font-size="10.00">ElliotFactory</text>
</a>
</g>
<!-- Node2&#45;&gt;Node5 -->
<g id="edge8" class="edge"><title>Node2&#45;&gt;Node5</title>
<path fill="none" stroke="midnightblue" d="M157.235,-257.185C165.998,-285.841 186.288,-339.785 222,-371 226.631,-375.048 232.197,-378.26 237.941,-380.8"/>
<polygon fill="midnightblue" stroke="midnightblue" points="160.584,-256.167 154.432,-247.541 153.862,-258.12 160.584,-256.167"/>
</g>
<!-- Node6 -->
<g id="node11" class="node"><title>Node6</title>
<a xlink:href="class_exponential_factory.html" target="_top" xlink:title="class ExponentialFactory &#45;">
<polygon fill="white" stroke="black" points="222,-342.5 222,-361.5 328,-361.5 328,-342.5 222,-342.5"/>
<text text-anchor="middle" x="275" y="-349.5" font-family="Helvetica,sans-Serif" font-size="10.00">ExponentialFactory</text>
</a>
</g>
<!-- Node2&#45;&gt;Node6 -->
<g id="edge10" class="edge"><title>Node2&#45;&gt;Node6</title>
<path fill="none" stroke="midnightblue" d="M161.294,-256.514C172.83,-277.759 194.4,-312.32 222,-333 227.077,-336.804 232.992,-339.909 238.976,-342.423"/>
<polygon fill="midnightblue" stroke="midnightblue" points="164.327,-254.762 156.584,-247.531 158.127,-258.013 164.327,-254.762"/>
</g>
<!-- Node7 -->
<g id="node13" class="node"><title>Node7</title>
<a xlink:href="class_gauss_factory.html" target="_top" xlink:title="class GaussFactory &#45;">
<polygon fill="white" stroke="black" points="235,-304.5 235,-323.5 315,-323.5 315,-304.5 235,-304.5"/>
<text text-anchor="middle" x="275" y="-311.5" font-family="Helvetica,sans-Serif" font-size="10.00">GaussFactory</text>
</a>
</g>
<!-- Node2&#45;&gt;Node7 -->
<g id="edge12" class="edge"><title>Node2&#45;&gt;Node7</title>
<path fill="none" stroke="midnightblue" d="M169.179,-254.756C182.658,-267.185 202.367,-283.841 222,-295 228.434,-298.657 235.702,-301.833 242.72,-304.487"/>
<polygon fill="midnightblue" stroke="midnightblue" points="171.323,-251.967 161.648,-247.65 166.52,-257.059 171.323,-251.967"/>
</g>
<!-- Node8 -->
<g id="node15" class="node"><title>Node8</title>
<a xlink:href="class_identity_factory.html" target="_top" xlink:title="class IdentityFactory &#45;">
<polygon fill="white" stroke="black" points="232,-266.5 232,-285.5 318,-285.5 318,-266.5 232,-266.5"/>
<text text-anchor="middle" x="275" y="-273.5" font-family="Helvetica,sans-Serif" font-size="10.00">IdentityFactory</text>
</a>
</g>
<!-- Node2&#45;&gt;Node8 -->
<g id="edge14" class="edge"><title>Node2&#45;&gt;Node8</title>
<path fill="none" stroke="midnightblue" d="M192.711,-250.68C209.195,-255.815 227.91,-261.644 243.224,-266.414"/>
<polygon fill="midnightblue" stroke="midnightblue" points="193.374,-247.221 182.786,-247.589 191.292,-253.905 193.374,-247.221"/>
</g>
<!-- Node9 -->
<g id="node17" class="node"><title>Node9</title>
<a xlink:href="class_logistic_factory.html" target="_top" xlink:title="class LogisticFactory &#45;">
<polygon fill="white" stroke="black" points="231,-228.5 231,-247.5 319,-247.5 319,-228.5 231,-228.5"/>
<text text-anchor="middle" x="275" y="-235.5" font-family="Helvetica,sans-Serif" font-size="10.00">LogisticFactory</text>
</a>
</g>
<!-- Node2&#45;&gt;Node9 -->
<g id="edge16" class="edge"><title>Node2&#45;&gt;Node9</title>
<path fill="none" stroke="midnightblue" d="M195.825,-238C207.216,-238 219.477,-238 230.833,-238"/>
<polygon fill="midnightblue" stroke="midnightblue" points="195.66,-234.5 185.66,-238 195.66,-241.5 195.66,-234.5"/>
</g>
<!-- Node10 -->
<g id="node19" class="node"><title>Node10</title>
<a xlink:href="class_reciprocal_factory.html" target="_top" xlink:title="class ReciprocalFactory &#45;">
<polygon fill="white" stroke="black" points="225,-190.5 225,-209.5 325,-209.5 325,-190.5 225,-190.5"/>
<text text-anchor="middle" x="275" y="-197.5" font-family="Helvetica,sans-Serif" font-size="10.00">ReciprocalFactory</text>
</a>
</g>
<!-- Node2&#45;&gt;Node10 -->
<g id="edge18" class="edge"><title>Node2&#45;&gt;Node10</title>
<path fill="none" stroke="midnightblue" d="M192.711,-225.32C209.195,-220.185 227.91,-214.356 243.224,-209.586"/>
<polygon fill="midnightblue" stroke="midnightblue" points="191.292,-222.095 182.786,-228.411 193.374,-228.779 191.292,-222.095"/>
</g>
<!-- Node11 -->
<g id="node21" class="node"><title>Node11</title>
<a xlink:href="class_sine_factory.html" target="_top" xlink:title="class SineFactory &#45;">
<polygon fill="white" stroke="black" points="239,-152.5 239,-171.5 311,-171.5 311,-152.5 239,-152.5"/>
<text text-anchor="middle" x="275" y="-159.5" font-family="Helvetica,sans-Serif" font-size="10.00">SineFactory</text>
</a>
</g>
<!-- Node2&#45;&gt;Node11 -->
<g id="edge20" class="edge"><title>Node2&#45;&gt;Node11</title>
<path fill="none" stroke="midnightblue" d="M169.179,-221.244C182.658,-208.815 202.367,-192.159 222,-181 228.434,-177.343 235.702,-174.167 242.72,-171.513"/>
<polygon fill="midnightblue" stroke="midnightblue" points="166.52,-218.941 161.648,-228.35 171.323,-224.033 166.52,-218.941"/>
</g>
<!-- Node12 -->
<g id="node23" class="node"><title>Node12</title>
<a xlink:href="class_square_factory.html" target="_top" xlink:title="class SquareFactory &#45;">
<polygon fill="white" stroke="black" points="233,-114.5 233,-133.5 317,-133.5 317,-114.5 233,-114.5"/>
<text text-anchor="middle" x="275" y="-121.5" font-family="Helvetica,sans-Serif" font-size="10.00">SquareFactory</text>
</a>
</g>
<!-- Node2&#45;&gt;Node12 -->
<g id="edge22" class="edge"><title>Node2&#45;&gt;Node12</title>
<path fill="none" stroke="midnightblue" d="M161.294,-219.486C172.83,-198.241 194.4,-163.68 222,-143 227.077,-139.196 232.992,-136.091 238.976,-133.577"/>
<polygon fill="midnightblue" stroke="midnightblue" points="158.127,-217.987 156.584,-228.469 164.327,-221.238 158.127,-217.987"/>
</g>
<!-- Node13 -->
<g id="node25" class="node"><title>Node13</title>
<a xlink:href="class_tanh_factory.html" target="_top" xlink:title="class TanhFactory &#45;">
<polygon fill="white" stroke="black" points="238.5,-76.5 238.5,-95.5 311.5,-95.5 311.5,-76.5 238.5,-76.5"/>
<text text-anchor="middle" x="275" y="-83.5" font-family="Helvetica,sans-Serif" font-size="10.00">TanhFactory</text>
</a>
</g>
<!-- Node2&#45;&gt;Node13 -->
<g id="edge24" class="edge"><title>Node2&#45;&gt;Node13</title>
<path fill="none" stroke="midnightblue" d="M157.235,-218.815C165.998,-190.159 186.288,-136.215 222,-105 226.776,-100.825 232.546,-97.5401 238.48,-94.9635"/>
<polygon fill="midnightblue" stroke="midnightblue" points="153.862,-217.88 154.432,-228.459 160.584,-219.833 153.862,-217.88"/>
</g>
<!-- Node14 -->
<g id="node27" class="node"><title>Node14</title>
<a xlink:href="class_threshold_factory.html" target="_top" xlink:title="class ThresholdFactory &#45;">
<polygon fill="white" stroke="black" points="227,-38.5 227,-57.5 323,-57.5 323,-38.5 227,-38.5"/>
<text text-anchor="middle" x="275" y="-45.5" font-family="Helvetica,sans-Serif" font-size="10.00">ThresholdFactory</text>
</a>
</g>
<!-- Node2&#45;&gt;Node14 -->
<g id="edge26" class="edge"><title>Node2&#45;&gt;Node14</title>
<path fill="none" stroke="midnightblue" d="M157.823,-218.395C170.071,-178.311 199.241,-88.9053 222,-67 226.017,-63.1342 230.882,-60.0448 236.006,-57.5784"/>
<polygon fill="midnightblue" stroke="midnightblue" points="154.437,-217.502 154.899,-228.087 161.139,-219.524 154.437,-217.502"/>
</g>
<!-- Node16 -->
<g id="node31" class="node"><title>Node16</title>
<a xlink:href="class_radial_basis_factory.html" target="_top" xlink:title="class RadialBasisFactory &#45;">
<polygon fill="white" stroke="black" points="222.5,-0.5 222.5,-19.5 327.5,-19.5 327.5,-0.5 222.5,-0.5"/>
<text text-anchor="middle" x="275" y="-7.5" font-family="Helvetica,sans-Serif" font-size="10.00">RadialBasisFactory</text>
</a>
</g>
<!-- Node15&#45;&gt;Node16 -->
<g id="edge30" class="edge"><title>Node15&#45;&gt;Node16</title>
<path fill="none" stroke="midnightblue" d="M164.609,-86.9598C177.344,-69.9239 198.456,-44.709 222,-29 227.597,-25.2658 234.021,-22.1531 240.401,-19.6013"/>
<polygon fill="midnightblue" stroke="midnightblue" points="161.473,-85.3211 158.433,-95.4704 167.139,-89.4321 161.473,-85.3211"/>
</g>
</g>
</svg>
