<?xml version="1.0" encoding="UTF-8" standalone="no"?>
<!DOCTYPE svg PUBLIC "-//W3C//DTD SVG 1.1//EN"
 "http://www.w3.org/Graphics/SVG/1.1/DTD/svg11.dtd">
<!-- Generated by graphviz version 2.28.0 (20110610.2051)
 -->
<!-- Title: G Pages: 1 -->
<svg width="367pt" height="196pt"
 viewBox="0.00 0.00 367.00 196.00" xmlns="http://www.w3.org/2000/svg" xmlns:xlink="http://www.w3.org/1999/xlink">
<g id="graph1" class="graph" transform="scale(1 1) rotate(0) translate(4 192)">
<title>G</title>
<polygon fill="white" stroke="white" points="-4,5 -4,-192 364,-192 364,5 -4,5"/>
<!-- Node1 -->
<g id="node1" class="node"><title>Node1</title>
<polygon fill="#bfbfbf" stroke="black" points="109.5,-168.5 109.5,-187.5 258.5,-187.5 258.5,-168.5 109.5,-168.5"/>
<text text-anchor="middle" x="184" y="-175.5" font-family="Helvetica,sans-Serif" font-size="10.00">pkg/AMORE/src/old/Neuron.h</text>
</g>
<!-- Node2 -->
<g id="node3" class="node"><title>Node2</title>
<a xlink:href="_simple_neuron_8h.html" target="_top" xlink:title="pkg/AMORE/src/dia/SimpleNeuron.h">
<polygon fill="white" stroke="black" points="0,-112.5 0,-131.5 180,-131.5 180,-112.5 0,-112.5"/>
<text text-anchor="middle" x="90" y="-119.5" font-family="Helvetica,sans-Serif" font-size="10.00">pkg/AMORE/src/dia/SimpleNeuron.h</text>
</a>
</g>
<!-- Node1&#45;&gt;Node2 -->
<g id="edge2" class="edge"><title>Node1&#45;&gt;Node2</title>
<path fill="none" stroke="midnightblue" d="M159.938,-163.177C142.641,-153.241 119.852,-140.149 105.065,-131.655"/>
<polygon fill="midnightblue" stroke="midnightblue" points="158.483,-166.378 168.897,-168.324 161.97,-160.308 158.483,-166.378"/>
</g>
<!-- Node5 -->
<g id="node10" class="node"><title>Node5</title>
<a xlink:href="_neuron_8cpp.html" target="_top" xlink:title="pkg/AMORE/src/old/Neuron.cpp">
<polygon fill="white" stroke="black" points="198.5,-112.5 198.5,-131.5 359.5,-131.5 359.5,-112.5 198.5,-112.5"/>
<text text-anchor="middle" x="279" y="-119.5" font-family="Helvetica,sans-Serif" font-size="10.00">pkg/AMORE/src/old/Neuron.cpp</text>
</a>
</g>
<!-- Node1&#45;&gt;Node5 -->
<g id="edge10" class="edge"><title>Node1&#45;&gt;Node5</title>
<path fill="none" stroke="midnightblue" d="M208.318,-163.177C225.799,-153.241 248.83,-140.149 263.774,-131.655"/>
<polygon fill="midnightblue" stroke="midnightblue" points="206.227,-160.339 199.263,-168.324 209.687,-166.425 206.227,-160.339"/>
</g>
<!-- Node3 -->
<g id="node5" class="node"><title>Node3</title>
<a xlink:href="_a_m_o_r_e_8h.html" target="_top" xlink:title="pkg/AMORE/src/AMORE.h">
<polygon fill="white" stroke="black" points="21.5,-0.5 21.5,-19.5 158.5,-19.5 158.5,-0.5 21.5,-0.5"/>
<text text-anchor="middle" x="90" y="-7.5" font-family="Helvetica,sans-Serif" font-size="10.00">pkg/AMORE/src/AMORE.h</text>
</a>
</g>
<!-- Node2&#45;&gt;Node3 -->
<g id="edge4" class="edge"><title>Node2&#45;&gt;Node3</title>
<path fill="none" stroke="midnightblue" d="M71.4238,-105.324C63.5196,-97.4402 55.1734,-87.1876 51,-76 42.9048,-54.2989 64.3741,-31.7142 78.5829,-19.7179"/>
<polygon fill="midnightblue" stroke="midnightblue" points="69.2994,-108.128 79.0098,-112.365 74.0616,-102.997 69.2994,-108.128"/>
</g>
<!-- Node4 -->
<g id="node7" class="node"><title>Node4</title>
<a xlink:href="_simple_neuron_8cpp.html" target="_top" xlink:title="pkg/AMORE/src/SimpleNeuron.cpp">
<polygon fill="white" stroke="black" points="60,-56.5 60,-75.5 236,-75.5 236,-56.5 60,-56.5"/>
<text text-anchor="middle" x="148" y="-63.5" font-family="Helvetica,sans-Serif" font-size="10.00">pkg/AMORE/src/SimpleNeuron.cpp</text>
</a>
</g>
<!-- Node2&#45;&gt;Node4 -->
<g id="edge6" class="edge"><title>Node2&#45;&gt;Node4</title>
<path fill="none" stroke="midnightblue" d="M106.913,-105.253C117.203,-95.6731 129.966,-83.7906 138.512,-75.8339"/>
<polygon fill="midnightblue" stroke="midnightblue" points="104.253,-102.948 99.3187,-112.324 109.023,-108.071 104.253,-102.948"/>
</g>
<!-- Node4&#45;&gt;Node3 -->
<g id="edge8" class="edge"><title>Node4&#45;&gt;Node3</title>
<path fill="none" stroke="midnightblue" d="M131.087,-49.2533C120.797,-39.6731 108.034,-27.7906 99.4883,-19.8339"/>
<polygon fill="midnightblue" stroke="midnightblue" points="128.977,-52.0714 138.681,-56.324 133.747,-46.9481 128.977,-52.0714"/>
</g>
</g>
</svg>
