<?xml version="1.0" encoding="UTF-8" standalone="no"?>
<!DOCTYPE svg PUBLIC "-//W3C//DTD SVG 1.1//EN"
 "http://www.w3.org/Graphics/SVG/1.1/DTD/svg11.dtd">
<!-- Generated by graphviz version 2.28.0 (20110610.2051)
 -->
<!-- Title: G Pages: 1 -->
<svg width="839pt" height="84pt"
 viewBox="0.00 0.00 839.00 84.00" xmlns="http://www.w3.org/2000/svg" xmlns:xlink="http://www.w3.org/1999/xlink">
<g id="graph1" class="graph" transform="scale(1 1) rotate(0) translate(4 80)">
<title>G</title>
<polygon fill="white" stroke="white" points="-4,5 -4,-80 836,-80 836,5 -4,5"/>
<!-- Node1 -->
<g id="node1" class="node"><title>Node1</title>
<polygon fill="#bfbfbf" stroke="black" points="118,-56.5 118,-75.5 606,-75.5 606,-56.5 118,-56.5"/>
<text text-anchor="middle" x="362" y="-63.5" font-family="Helvetica,sans-Serif" font-size="10.00">/Users/mcasl/pc&#45;ule/Trabajo/investigacion/AMORE/AMORE&#45;WC/AMORE&#45;WC/pkg/AMORE/src/package.h</text>
</g>
<!-- Node2 -->
<g id="node3" class="node"><title>Node2</title>
<polygon fill="white" stroke="#bfbfbf" points="0,-0.5 0,-19.5 56,-19.5 56,-0.5 0,-0.5"/>
<text text-anchor="middle" x="28" y="-7.5" font-family="Helvetica,sans-Serif" font-size="10.00">iostream</text>
</g>
<!-- Node1&#45;&gt;Node2 -->
<g id="edge2" class="edge"><title>Node1&#45;&gt;Node2</title>
<path fill="none" stroke="midnightblue" d="M294.472,-56.497C236.383,-48.788 150.159,-36.4086 66.1868,-20.0936"/>
<polygon fill="midnightblue" stroke="midnightblue" points="66.7121,-16.6299 56.225,-18.1372 65.3631,-23.4987 66.7121,-16.6299"/>
</g>
<!-- Node3 -->
<g id="node5" class="node"><title>Node3</title>
<polygon fill="white" stroke="#bfbfbf" points="74.5,-0.5 74.5,-19.5 127.5,-19.5 127.5,-0.5 74.5,-0.5"/>
<text text-anchor="middle" x="101" y="-7.5" font-family="Helvetica,sans-Serif" font-size="10.00">sstream</text>
</g>
<!-- Node1&#45;&gt;Node3 -->
<g id="edge4" class="edge"><title>Node1&#45;&gt;Node3</title>
<path fill="none" stroke="midnightblue" d="M315.094,-56.4414C271.421,-48.2976 204.289,-35.3348 137.556,-20.2693"/>
<polygon fill="midnightblue" stroke="midnightblue" points="138.243,-16.8362 127.716,-18.0315 136.691,-23.6619 138.243,-16.8362"/>
</g>
<!-- Node4 -->
<g id="node7" class="node"><title>Node4</title>
<polygon fill="white" stroke="#bfbfbf" points="145.5,-0.5 145.5,-19.5 204.5,-19.5 204.5,-0.5 145.5,-0.5"/>
<text text-anchor="middle" x="175" y="-7.5" font-family="Helvetica,sans-Serif" font-size="10.00">algorithm</text>
</g>
<!-- Node1&#45;&gt;Node4 -->
<g id="edge6" class="edge"><title>Node1&#45;&gt;Node4</title>
<path fill="none" stroke="midnightblue" d="M332.369,-56.4435C300.5,-47.2406 249.667,-32.5617 214.436,-22.3879"/>
<polygon fill="midnightblue" stroke="midnightblue" points="215.071,-18.9282 204.492,-19.5164 213.128,-25.6534 215.071,-18.9282"/>
</g>
<!-- Node5 -->
<g id="node9" class="node"><title>Node5</title>
<polygon fill="white" stroke="#bfbfbf" points="223,-0.5 223,-19.5 269,-19.5 269,-0.5 223,-0.5"/>
<text text-anchor="middle" x="246" y="-7.5" font-family="Helvetica,sans-Serif" font-size="10.00">vector</text>
</g>
<!-- Node1&#45;&gt;Node5 -->
<g id="edge8" class="edge"><title>Node1&#45;&gt;Node5</title>
<path fill="none" stroke="midnightblue" d="M343.619,-56.4435C324.784,-47.6751 295.269,-33.9355 273.621,-23.8579"/>
<polygon fill="midnightblue" stroke="midnightblue" points="274.838,-20.5637 264.295,-19.5164 271.883,-26.9098 274.838,-20.5637"/>
</g>
<!-- Node6 -->
<g id="node11" class="node"><title>Node6</title>
<polygon fill="white" stroke="#bfbfbf" points="287,-0.5 287,-19.5 337,-19.5 337,-0.5 287,-0.5"/>
<text text-anchor="middle" x="312" y="-7.5" font-family="Helvetica,sans-Serif" font-size="10.00">iterator</text>
</g>
<!-- Node1&#45;&gt;Node6 -->
<g id="edge10" class="edge"><title>Node1&#45;&gt;Node6</title>
<path fill="none" stroke="midnightblue" d="M353.744,-56.083C346.535,-48.2982 335.89,-36.8015 327.154,-27.3665"/>
<polygon fill="midnightblue" stroke="midnightblue" points="329.465,-24.7108 320.103,-19.7511 324.329,-29.4666 329.465,-24.7108"/>
</g>
<!-- Node7 -->
<g id="node13" class="node"><title>Node7</title>
<polygon fill="white" stroke="#bfbfbf" points="355.5,-0.5 355.5,-19.5 470.5,-19.5 470.5,-0.5 355.5,-0.5"/>
<text text-anchor="middle" x="413" y="-7.5" font-family="Helvetica,sans-Serif" font-size="10.00">boost/shared_ptr.hpp</text>
</g>
<!-- Node1&#45;&gt;Node7 -->
<g id="edge12" class="edge"><title>Node1&#45;&gt;Node7</title>
<path fill="none" stroke="midnightblue" d="M370.422,-56.083C377.848,-48.2195 388.852,-36.5688 397.812,-27.0813"/>
<polygon fill="midnightblue" stroke="midnightblue" points="400.413,-29.4244 404.735,-19.7511 395.324,-24.618 400.413,-29.4244"/>
</g>
<!-- Node8 -->
<g id="node15" class="node"><title>Node8</title>
<polygon fill="white" stroke="#bfbfbf" points="489,-0.5 489,-19.5 597,-19.5 597,-0.5 489,-0.5"/>
<text text-anchor="middle" x="543" y="-7.5" font-family="Helvetica,sans-Serif" font-size="10.00">boost/weak_ptr.hpp</text>
</g>
<!-- Node1&#45;&gt;Node8 -->
<g id="edge14" class="edge"><title>Node1&#45;&gt;Node8</title>
<path fill="none" stroke="midnightblue" d="M390.68,-56.4435C421.527,-47.2406 470.728,-32.5617 504.829,-22.3879"/>
<polygon fill="midnightblue" stroke="midnightblue" points="505.872,-25.7293 514.454,-19.5164 503.871,-19.0215 505.872,-25.7293"/>
</g>
<!-- Node9 -->
<g id="node17" class="node"><title>Node9</title>
<polygon fill="white" stroke="#bfbfbf" points="615,-0.5 615,-19.5 693,-19.5 693,-0.5 615,-0.5"/>
<text text-anchor="middle" x="654" y="-7.5" font-family="Helvetica,sans-Serif" font-size="10.00">boost/ref.hpp</text>
</g>
<!-- Node1&#45;&gt;Node9 -->
<g id="edge16" class="edge"><title>Node1&#45;&gt;Node9</title>
<path fill="none" stroke="midnightblue" d="M408.33,-56.4978C455.307,-47.8674 530.384,-34.0489 604.934,-20.1942"/>
<polygon fill="midnightblue" stroke="midnightblue" points="605.777,-23.5974 614.969,-18.3283 604.498,-16.7153 605.777,-23.5974"/>
</g>
<!-- Node10 -->
<g id="node19" class="node"><title>Node10</title>
<polygon fill="white" stroke="#bfbfbf" points="711.5,-0.5 711.5,-19.5 762.5,-19.5 762.5,-0.5 711.5,-0.5"/>
<text text-anchor="middle" x="737" y="-7.5" font-family="Helvetica,sans-Serif" font-size="10.00">valarray</text>
</g>
<!-- Node1&#45;&gt;Node10 -->
<g id="edge18" class="edge"><title>Node1&#45;&gt;Node10</title>
<path fill="none" stroke="midnightblue" d="M448.4,-56.4632C514.972,-49.2143 609.445,-37.4759 701.423,-19.8892"/>
<polygon fill="midnightblue" stroke="midnightblue" points="702.315,-23.2817 711.466,-17.9434 700.983,-16.4095 702.315,-23.2817"/>
</g>
<!-- Node11 -->
<g id="node21" class="node"><title>Node11</title>
<polygon fill="white" stroke="#bfbfbf" points="781,-0.5 781,-19.5 831,-19.5 831,-0.5 781,-0.5"/>
<text text-anchor="middle" x="806" y="-7.5" font-family="Helvetica,sans-Serif" font-size="10.00">Rcpp.h</text>
</g>
<!-- Node1&#45;&gt;Node11 -->
<g id="edge20" class="edge"><title>Node1&#45;&gt;Node11</title>
<path fill="none" stroke="midnightblue" d="M479.882,-56.496C561.942,-49.4881 673.672,-37.7748 771,-20 771.1,-19.9817 771.201,-19.9632 771.301,-19.9447"/>
<polygon fill="midnightblue" stroke="midnightblue" points="771.802,-23.4164 780.86,-17.9202 770.351,-16.5683 771.802,-23.4164"/>
</g>
</g>
</svg>
