<?xml version="1.0" encoding="UTF-8" standalone="no"?>
<!DOCTYPE svg PUBLIC "-//W3C//DTD SVG 1.1//EN"
 "http://www.w3.org/Graphics/SVG/1.1/DTD/svg11.dtd">
<!-- Generated by graphviz version 2.28.0 (20110610.2051)
 -->
<!-- Title: G Pages: 1 -->
<svg width="680pt" height="140pt"
 viewBox="0.00 0.00 680.00 140.00" xmlns="http://www.w3.org/2000/svg" xmlns:xlink="http://www.w3.org/1999/xlink">
<g id="graph1" class="graph" transform="scale(1 1) rotate(0) translate(4 136)">
<title>G</title>
<polygon fill="white" stroke="white" points="-4,5 -4,-136 677,-136 677,5 -4,5"/>
<!-- Node1 -->
<g id="node1" class="node"><title>Node1</title>
<polygon fill="#bfbfbf" stroke="black" points="0,-112.5 0,-131.5 672,-131.5 672,-112.5 0,-112.5"/>
<text text-anchor="middle" x="336" y="-119.5" font-family="Helvetica,sans-Serif" font-size="10.00">/Users/mcasl/pc&#45;ule/Trabajo/investigacion/AMORE/AMORE&#45;WC/AMORE&#45;WC/pkg/AMORE/src/classHeaders/ADAPTgdwmNeuronTrainBehavior.h</text>
</g>
<!-- Node2 -->
<g id="node3" class="node"><title>Node2</title>
<a xlink:href="_adapt_neuron_train_behavior_8h.html" target="_top" xlink:title="AdaptNeuronTrainBehavior.h">
<polygon fill="white" stroke="black" points="262,-56.5 262,-75.5 410,-75.5 410,-56.5 262,-56.5"/>
<text text-anchor="middle" x="336" y="-63.5" font-family="Helvetica,sans-Serif" font-size="10.00">AdaptNeuronTrainBehavior.h</text>
</a>
</g>
<!-- Node1&#45;&gt;Node2 -->
<g id="edge2" class="edge"><title>Node1&#45;&gt;Node2</title>
<path fill="none" stroke="midnightblue" d="M336,-112.083C336,-105.006 336,-94.8611 336,-85.9865"/>
<polygon fill="midnightblue" stroke="midnightblue" points="339.5,-85.751 336,-75.7511 332.5,-85.7511 339.5,-85.751"/>
</g>
<!-- Node3 -->
<g id="node5" class="node"><title>Node3</title>
<a xlink:href="_neuron_train_behavior_8h.html" target="_top" xlink:title="NeuronTrainBehavior.h">
<polygon fill="white" stroke="black" points="276,-0.5 276,-19.5 396,-19.5 396,-0.5 276,-0.5"/>
<text text-anchor="middle" x="336" y="-7.5" font-family="Helvetica,sans-Serif" font-size="10.00">NeuronTrainBehavior.h</text>
</a>
</g>
<!-- Node2&#45;&gt;Node3 -->
<g id="edge4" class="edge"><title>Node2&#45;&gt;Node3</title>
<path fill="none" stroke="midnightblue" d="M336,-56.083C336,-49.0059 336,-38.8611 336,-29.9865"/>
<polygon fill="midnightblue" stroke="midnightblue" points="339.5,-29.751 336,-19.7511 332.5,-29.7511 339.5,-29.751"/>
</g>
</g>
</svg>
