<?xml version="1.0" encoding="UTF-8" standalone="no"?>
<!DOCTYPE svg PUBLIC "-//W3C//DTD SVG 1.1//EN"
 "http://www.w3.org/Graphics/SVG/1.1/DTD/svg11.dtd">
<!-- Generated by graphviz version 2.28.0 (20110610.2051)
 -->
<!-- Title: G Pages: 1 -->
<svg width="712pt" height="196pt"
 viewBox="0.00 0.00 712.00 196.00" xmlns="http://www.w3.org/2000/svg" xmlns:xlink="http://www.w3.org/1999/xlink">
<g id="graph1" class="graph" transform="scale(1 1) rotate(0) translate(4 192)">
<title>G</title>
<polygon fill="white" stroke="white" points="-4,5 -4,-192 709,-192 709,5 -4,5"/>
<!-- Node1 -->
<g id="node1" class="node"><title>Node1</title>
<polygon fill="#bfbfbf" stroke="black" points="0,-168.5 0,-187.5 704,-187.5 704,-168.5 0,-168.5"/>
<text text-anchor="middle" x="352" y="-175.5" font-family="Helvetica,sans-Serif" font-size="10.00">/Users/mcasl/pc&#45;ule/Trabajo/investigacion/AMORE/AMORE&#45;WC/AMORE&#45;WC/pkg/AMORE/src/classHeaders/ADAPTgdwmOutputNeuronTrainBehavior.h</text>
</g>
<!-- Node2 -->
<g id="node3" class="node"><title>Node2</title>
<a xlink:href="_a_d_a_p_tgdwm_neuron_train_behavior_8h.html" target="_top" xlink:title="ADAPTgdwmNeuronTrainBehavior.h">
<polygon fill="white" stroke="black" points="261,-112.5 261,-131.5 443,-131.5 443,-112.5 261,-112.5"/>
<text text-anchor="middle" x="352" y="-119.5" font-family="Helvetica,sans-Serif" font-size="10.00">ADAPTgdwmNeuronTrainBehavior.h</text>
</a>
</g>
<!-- Node1&#45;&gt;Node2 -->
<g id="edge2" class="edge"><title>Node1&#45;&gt;Node2</title>
<path fill="none" stroke="midnightblue" d="M352,-168.083C352,-161.006 352,-150.861 352,-141.986"/>
<polygon fill="midnightblue" stroke="midnightblue" points="355.5,-141.751 352,-131.751 348.5,-141.751 355.5,-141.751"/>
</g>
<!-- Node3 -->
<g id="node5" class="node"><title>Node3</title>
<a xlink:href="_adapt_neuron_train_behavior_8h.html" target="_top" xlink:title="AdaptNeuronTrainBehavior.h">
<polygon fill="white" stroke="black" points="278,-56.5 278,-75.5 426,-75.5 426,-56.5 278,-56.5"/>
<text text-anchor="middle" x="352" y="-63.5" font-family="Helvetica,sans-Serif" font-size="10.00">AdaptNeuronTrainBehavior.h</text>
</a>
</g>
<!-- Node2&#45;&gt;Node3 -->
<g id="edge4" class="edge"><title>Node2&#45;&gt;Node3</title>
<path fill="none" stroke="midnightblue" d="M352,-112.083C352,-105.006 352,-94.8611 352,-85.9865"/>
<polygon fill="midnightblue" stroke="midnightblue" points="355.5,-85.751 352,-75.7511 348.5,-85.7511 355.5,-85.751"/>
</g>
<!-- Node4 -->
<g id="node7" class="node"><title>Node4</title>
<a xlink:href="_neuron_train_behavior_8h.html" target="_top" xlink:title="NeuronTrainBehavior.h">
<polygon fill="white" stroke="black" points="292,-0.5 292,-19.5 412,-19.5 412,-0.5 292,-0.5"/>
<text text-anchor="middle" x="352" y="-7.5" font-family="Helvetica,sans-Serif" font-size="10.00">NeuronTrainBehavior.h</text>
</a>
</g>
<!-- Node3&#45;&gt;Node4 -->
<g id="edge6" class="edge"><title>Node3&#45;&gt;Node4</title>
<path fill="none" stroke="midnightblue" d="M352,-56.083C352,-49.0059 352,-38.8611 352,-29.9865"/>
<polygon fill="midnightblue" stroke="midnightblue" points="355.5,-29.751 352,-19.7511 348.5,-29.7511 355.5,-29.751"/>
</g>
</g>
</svg>
