<?xml version="1.0" encoding="UTF-8" standalone="no"?>
<!DOCTYPE svg PUBLIC "-//W3C//DTD SVG 1.1//EN"
 "http://www.w3.org/Graphics/SVG/1.1/DTD/svg11.dtd">
<!-- Generated by graphviz version 2.28.0 (20110610.2051)
 -->
<!-- Title: G Pages: 1 -->
<svg width="168pt" height="140pt"
 viewBox="0.00 0.00 168.00 140.00" xmlns="http://www.w3.org/2000/svg" xmlns:xlink="http://www.w3.org/1999/xlink">
<g id="graph1" class="graph" transform="scale(1 1) rotate(0) translate(4 136)">
<title>G</title>
<polygon fill="white" stroke="white" points="-4,5 -4,-136 165,-136 165,5 -4,5"/>
<!-- Node1 -->
<g id="node1" class="node"><title>Node1</title>
<polygon fill="#bfbfbf" stroke="black" points="-0.5,-112.5 -0.5,-131.5 160.5,-131.5 160.5,-112.5 -0.5,-112.5"/>
<text text-anchor="middle" x="80" y="-119.5" font-family="Helvetica,sans-Serif" font-size="10.00">pkg/AMORE/src/dia/ADAPTgd.h</text>
</g>
<!-- Node2 -->
<g id="node3" class="node"><title>Node2</title>
<a xlink:href="_adapt_behavior_8h.html" target="_top" xlink:title="AdaptBehavior.h">
<polygon fill="white" stroke="black" points="33.5,-56.5 33.5,-75.5 126.5,-75.5 126.5,-56.5 33.5,-56.5"/>
<text text-anchor="middle" x="80" y="-63.5" font-family="Helvetica,sans-Serif" font-size="10.00">AdaptBehavior.h</text>
</a>
</g>
<!-- Node1&#45;&gt;Node2 -->
<g id="edge2" class="edge"><title>Node1&#45;&gt;Node2</title>
<path fill="none" stroke="midnightblue" d="M80,-112.083C80,-105.006 80,-94.8611 80,-85.9865"/>
<polygon fill="midnightblue" stroke="midnightblue" points="83.5001,-85.751 80,-75.7511 76.5001,-85.7511 83.5001,-85.751"/>
</g>
<!-- Node3 -->
<g id="node5" class="node"><title>Node3</title>
<a xlink:href="_training_behavior_8h.html" target="_top" xlink:title="TrainingBehavior.h">
<polygon fill="white" stroke="black" points="29.5,-0.5 29.5,-19.5 130.5,-19.5 130.5,-0.5 29.5,-0.5"/>
<text text-anchor="middle" x="80" y="-7.5" font-family="Helvetica,sans-Serif" font-size="10.00">TrainingBehavior.h</text>
</a>
</g>
<!-- Node2&#45;&gt;Node3 -->
<g id="edge4" class="edge"><title>Node2&#45;&gt;Node3</title>
<path fill="none" stroke="midnightblue" d="M80,-56.083C80,-49.0059 80,-38.8611 80,-29.9865"/>
<polygon fill="midnightblue" stroke="midnightblue" points="83.5001,-29.751 80,-19.7511 76.5001,-29.7511 83.5001,-29.751"/>
</g>
</g>
</svg>
