<?xml version="1.0" encoding="UTF-8" standalone="no"?>
<!DOCTYPE svg PUBLIC "-//W3C//DTD SVG 1.1//EN"
 "http://www.w3.org/Graphics/SVG/1.1/DTD/svg11.dtd">
<!-- Generated by graphviz version 2.28.0 (20110610.2051)
 -->
<!-- Title: G Pages: 1 -->
<svg width="686pt" height="140pt"
 viewBox="0.00 0.00 686.00 140.00" xmlns="http://www.w3.org/2000/svg" xmlns:xlink="http://www.w3.org/1999/xlink">
<g id="graph1" class="graph" transform="scale(1 1) rotate(0) translate(4 136)">
<title>G</title>
<polygon fill="white" stroke="white" points="-4,5 -4,-136 683,-136 683,5 -4,5"/>
<!-- Node1 -->
<g id="node1" class="node"><title>Node1</title>
<polygon fill="#bfbfbf" stroke="black" points="0,-112.5 0,-131.5 678,-131.5 678,-112.5 0,-112.5"/>
<text text-anchor="middle" x="339" y="-119.5" font-family="Helvetica,sans-Serif" font-size="10.00">/Users/mcasl/pc&#45;ule/Trabajo/investigacion/AMORE/AMORE&#45;WC/AMORE&#45;WC/pkg/AMORE/src/classHeaders/ADAPTgdwmNetworkTrainBehavior.h</text>
</g>
<!-- Node2 -->
<g id="node3" class="node"><title>Node2</title>
<a xlink:href="_adapt_network_train_behavior_8h.html" target="_top" xlink:title="AdaptNetworkTrainBehavior.h">
<polygon fill="white" stroke="black" points="262,-56.5 262,-75.5 416,-75.5 416,-56.5 262,-56.5"/>
<text text-anchor="middle" x="339" y="-63.5" font-family="Helvetica,sans-Serif" font-size="10.00">AdaptNetworkTrainBehavior.h</text>
</a>
</g>
<!-- Node1&#45;&gt;Node2 -->
<g id="edge2" class="edge"><title>Node1&#45;&gt;Node2</title>
<path fill="none" stroke="midnightblue" d="M339,-112.083C339,-105.006 339,-94.8611 339,-85.9865"/>
<polygon fill="midnightblue" stroke="midnightblue" points="342.5,-85.751 339,-75.7511 335.5,-85.7511 342.5,-85.751"/>
</g>
<!-- Node3 -->
<g id="node5" class="node"><title>Node3</title>
<a xlink:href="_network_train_behavior_8h.html" target="_top" xlink:title="NetworkTrainBehavior.h">
<polygon fill="white" stroke="black" points="276,-0.5 276,-19.5 402,-19.5 402,-0.5 276,-0.5"/>
<text text-anchor="middle" x="339" y="-7.5" font-family="Helvetica,sans-Serif" font-size="10.00">NetworkTrainBehavior.h</text>
</a>
</g>
<!-- Node2&#45;&gt;Node3 -->
<g id="edge4" class="edge"><title>Node2&#45;&gt;Node3</title>
<path fill="none" stroke="midnightblue" d="M339,-56.083C339,-49.0059 339,-38.8611 339,-29.9865"/>
<polygon fill="midnightblue" stroke="midnightblue" points="342.5,-29.751 339,-19.7511 335.5,-29.7511 342.5,-29.751"/>
</g>
</g>
</svg>
