<?xml version="1.0" encoding="UTF-8" standalone="no"?>
<!DOCTYPE svg PUBLIC "-//W3C//DTD SVG 1.1//EN"
 "http://www.w3.org/Graphics/SVG/1.1/DTD/svg11.dtd">
<!-- Generated by graphviz version 2.28.0 (20110610.2051)
 -->
<!-- Title: G Pages: 1 -->
<svg width="3282pt" height="252pt"
 viewBox="0.00 0.00 3282.42 252.00" xmlns="http://www.w3.org/2000/svg" xmlns:xlink="http://www.w3.org/1999/xlink">
<g id="graph1" class="graph" transform="scale(1 1) rotate(0) translate(4 248)">
<title>G</title>
<polygon fill="white" stroke="white" points="-4,5 -4,-248 3279.42,-248 3279.42,5 -4,5"/>
<!-- Node1 -->
<g id="node1" class="node"><title>Node1</title>
<polygon fill="#bfbfbf" stroke="black" points="1536.5,-224.5 1536.5,-243.5 1673.5,-243.5 1673.5,-224.5 1536.5,-224.5"/>
<text text-anchor="middle" x="1605" y="-231.5" font-family="Helvetica,sans-Serif" font-size="10.00">pkg/AMORE/src/AMORE.h</text>
</g>
<!-- Node2 -->
<g id="node3" class="node"><title>Node2</title>
<polygon fill="white" stroke="#bfbfbf" points="0,-168.5 0,-187.5 56,-187.5 56,-168.5 0,-168.5"/>
<text text-anchor="middle" x="28" y="-175.5" font-family="Helvetica,sans-Serif" font-size="10.00">iostream</text>
</g>
<!-- Node1&#45;&gt;Node2 -->
<g id="edge2" class="edge"><title>Node1&#45;&gt;Node2</title>
<path fill="none" stroke="midnightblue" d="M1536.43,-232.903C1279.88,-232.249 376.044,-227.24 66.482,-187.85"/>
<polygon fill="midnightblue" stroke="midnightblue" points="66.5365,-184.327 56.1658,-186.495 65.6245,-191.268 66.5365,-184.327"/>
</g>
<!-- Node3 -->
<g id="node5" class="node"><title>Node3</title>
<polygon fill="white" stroke="#bfbfbf" points="74.5,-168.5 74.5,-187.5 127.5,-187.5 127.5,-168.5 74.5,-168.5"/>
<text text-anchor="middle" x="101" y="-175.5" font-family="Helvetica,sans-Serif" font-size="10.00">sstream</text>
</g>
<!-- Node1&#45;&gt;Node3 -->
<g id="edge4" class="edge"><title>Node1&#45;&gt;Node3</title>
<path fill="none" stroke="midnightblue" d="M1536.14,-232.907C1286.96,-232.262 431.874,-227.269 137.851,-187.909"/>
<polygon fill="midnightblue" stroke="midnightblue" points="138.016,-184.399 127.631,-186.495 137.056,-191.333 138.016,-184.399"/>
</g>
<!-- Node4 -->
<g id="node7" class="node"><title>Node4</title>
<polygon fill="white" stroke="#bfbfbf" points="145.5,-168.5 145.5,-187.5 204.5,-187.5 204.5,-168.5 145.5,-168.5"/>
<text text-anchor="middle" x="175" y="-175.5" font-family="Helvetica,sans-Serif" font-size="10.00">algorithm</text>
</g>
<!-- Node1&#45;&gt;Node4 -->
<g id="edge6" class="edge"><title>Node1&#45;&gt;Node4</title>
<path fill="none" stroke="midnightblue" d="M1536.09,-232.543C1295.64,-230.677 493.862,-222.086 214.806,-187.765"/>
<polygon fill="midnightblue" stroke="midnightblue" points="215.064,-184.27 204.702,-186.481 214.181,-191.214 215.064,-184.27"/>
</g>
<!-- Node5 -->
<g id="node9" class="node"><title>Node5</title>
<polygon fill="white" stroke="#bfbfbf" points="223,-168.5 223,-187.5 269,-187.5 269,-168.5 223,-168.5"/>
<text text-anchor="middle" x="246" y="-175.5" font-family="Helvetica,sans-Serif" font-size="10.00">vector</text>
</g>
<!-- Node1&#45;&gt;Node5 -->
<g id="edge8" class="edge"><title>Node1&#45;&gt;Node5</title>
<path fill="none" stroke="midnightblue" d="M1536.36,-232.846C1303.48,-231.99 543.775,-226.363 279.233,-187.75"/>
<polygon fill="midnightblue" stroke="midnightblue" points="279.687,-184.279 269.276,-186.244 278.64,-191.2 279.687,-184.279"/>
</g>
<!-- Node6 -->
<g id="node11" class="node"><title>Node6</title>
<polygon fill="white" stroke="#bfbfbf" points="287,-168.5 287,-187.5 337,-187.5 337,-168.5 287,-168.5"/>
<text text-anchor="middle" x="312" y="-175.5" font-family="Helvetica,sans-Serif" font-size="10.00">iterator</text>
</g>
<!-- Node1&#45;&gt;Node6 -->
<g id="edge10" class="edge"><title>Node1&#45;&gt;Node6</title>
<path fill="none" stroke="midnightblue" d="M1536.36,-232.561C1311.63,-230.814 598.441,-222.722 347.295,-187.786"/>
<polygon fill="midnightblue" stroke="midnightblue" points="347.518,-184.282 337.121,-186.318 346.518,-191.21 347.518,-184.282"/>
</g>
<!-- Node7 -->
<g id="node13" class="node"><title>Node7</title>
<polygon fill="white" stroke="#bfbfbf" points="355.5,-168.5 355.5,-187.5 470.5,-187.5 470.5,-168.5 355.5,-168.5"/>
<text text-anchor="middle" x="413" y="-175.5" font-family="Helvetica,sans-Serif" font-size="10.00">boost/shared_ptr.hpp</text>
</g>
<!-- Node1&#45;&gt;Node7 -->
<g id="edge12" class="edge"><title>Node1&#45;&gt;Node7</title>
<path fill="none" stroke="midnightblue" d="M1536.37,-232.488C1361.92,-230.705 887.172,-222.852 480.893,-187.981"/>
<polygon fill="midnightblue" stroke="midnightblue" points="480.97,-184.475 470.706,-187.1 480.367,-191.449 480.97,-184.475"/>
</g>
<!-- Node8 -->
<g id="node15" class="node"><title>Node8</title>
<polygon fill="white" stroke="#bfbfbf" points="489,-168.5 489,-187.5 597,-187.5 597,-168.5 489,-168.5"/>
<text text-anchor="middle" x="543" y="-175.5" font-family="Helvetica,sans-Serif" font-size="10.00">boost/weak_ptr.hpp</text>
</g>
<!-- Node1&#45;&gt;Node8 -->
<g id="edge14" class="edge"><title>Node1&#45;&gt;Node8</title>
<path fill="none" stroke="midnightblue" d="M1536.41,-232.198C1375.77,-229.824 962.499,-220.855 607.222,-188.02"/>
<polygon fill="midnightblue" stroke="midnightblue" points="607.538,-184.534 597.257,-187.091 606.889,-191.504 607.538,-184.534"/>
</g>
<!-- Node9 -->
<g id="node17" class="node"><title>Node9</title>
<polygon fill="white" stroke="#bfbfbf" points="615,-168.5 615,-187.5 715,-187.5 715,-168.5 615,-168.5"/>
<text text-anchor="middle" x="665" y="-175.5" font-family="Helvetica,sans-Serif" font-size="10.00">boost/foreach.hpp</text>
</g>
<!-- Node1&#45;&gt;Node9 -->
<g id="edge16" class="edge"><title>Node1&#45;&gt;Node9</title>
<path fill="none" stroke="midnightblue" d="M1536.28,-231.835C1389.32,-228.834 1033.44,-218.854 725.193,-188.015"/>
<polygon fill="midnightblue" stroke="midnightblue" points="725.469,-184.525 715.168,-187.003 724.766,-191.49 725.469,-184.525"/>
</g>
<!-- Node10 -->
<g id="node19" class="node"><title>Node10</title>
<polygon fill="white" stroke="#bfbfbf" points="733,-168.5 733,-187.5 811,-187.5 811,-168.5 733,-168.5"/>
<text text-anchor="middle" x="772" y="-175.5" font-family="Helvetica,sans-Serif" font-size="10.00">boost/ref.hpp</text>
</g>
<!-- Node1&#45;&gt;Node10 -->
<g id="edge18" class="edge"><title>Node1&#45;&gt;Node10</title>
<path fill="none" stroke="midnightblue" d="M1536.32,-231.924C1401.32,-229.185 1091.79,-219.823 821.26,-187.849"/>
<polygon fill="midnightblue" stroke="midnightblue" points="821.594,-184.364 811.249,-186.653 820.764,-191.314 821.594,-184.364"/>
</g>
<!-- Node11 -->
<g id="node21" class="node"><title>Node11</title>
<polygon fill="white" stroke="#bfbfbf" points="829.5,-168.5 829.5,-187.5 880.5,-187.5 880.5,-168.5 829.5,-168.5"/>
<text text-anchor="middle" x="855" y="-175.5" font-family="Helvetica,sans-Serif" font-size="10.00">valarray</text>
</g>
<!-- Node1&#45;&gt;Node11 -->
<g id="edge20" class="edge"><title>Node1&#45;&gt;Node11</title>
<path fill="none" stroke="midnightblue" d="M1536.26,-232.972C1410.02,-231.984 1132.8,-225.463 890.917,-187.819"/>
<polygon fill="midnightblue" stroke="midnightblue" points="891.303,-184.336 880.879,-186.235 890.212,-191.251 891.303,-184.336"/>
</g>
<!-- Node12 -->
<g id="node23" class="node"><title>Node12</title>
<polygon fill="white" stroke="#bfbfbf" points="899,-168.5 899,-187.5 949,-187.5 949,-168.5 899,-168.5"/>
<text text-anchor="middle" x="924" y="-175.5" font-family="Helvetica,sans-Serif" font-size="10.00">Rcpp.h</text>
</g>
<!-- Node1&#45;&gt;Node12 -->
<g id="edge22" class="edge"><title>Node1&#45;&gt;Node12</title>
<path fill="none" stroke="midnightblue" d="M1536.21,-231.711C1418.28,-228.715 1170.19,-218.973 963,-188 961.724,-187.809 960.429,-187.599 959.122,-187.373"/>
<polygon fill="midnightblue" stroke="midnightblue" points="959.552,-183.89 949.064,-185.393 958.2,-190.759 959.552,-183.89"/>
</g>
<!-- Node13 -->
<g id="node25" class="node"><title>Node13</title>
<a xlink:href="_con_8h.html" target="_top" xlink:title="dia/Con.h">
<polygon fill="white" stroke="black" points="839.5,-112.5 839.5,-131.5 898.5,-131.5 898.5,-112.5 839.5,-112.5"/>
<text text-anchor="middle" x="869" y="-119.5" font-family="Helvetica,sans-Serif" font-size="10.00">dia/Con.h</text>
</a>
</g>
<!-- Node1&#45;&gt;Node13 -->
<g id="edge24" class="edge"><title>Node1&#45;&gt;Node13</title>
<path fill="none" stroke="midnightblue" d="M1536.26,-231.446C1399.03,-227.767 1095.75,-216.588 996,-188 977.653,-182.742 974.961,-176.751 958,-168 936.968,-157.149 913.023,-145.057 895.271,-136.142"/>
<polygon fill="midnightblue" stroke="midnightblue" points="896.612,-132.899 886.104,-131.544 893.474,-139.156 896.612,-132.899"/>
</g>
<!-- Node14 -->
<g id="node27" class="node"><title>Node14</title>
<a xlink:href="_activation_function_8h.html" target="_top" xlink:title="dia/ActivationFunction.h">
<polygon fill="white" stroke="black" points="1303.5,-56.5 1303.5,-75.5 1428.5,-75.5 1428.5,-56.5 1303.5,-56.5"/>
<text text-anchor="middle" x="1366" y="-63.5" font-family="Helvetica,sans-Serif" font-size="10.00">dia/ActivationFunction.h</text>
</a>
</g>
<!-- Node1&#45;&gt;Node14 -->
<g id="edge26" class="edge"><title>Node1&#45;&gt;Node14</title>
<path fill="none" stroke="midnightblue" d="M1597.59,-224.318C1586.1,-211.166 1562.92,-185.839 1540,-168 1514.11,-147.849 1432.51,-102.881 1390.91,-80.3725"/>
<polygon fill="midnightblue" stroke="midnightblue" points="1392.43,-77.2129 1381.97,-75.5438 1389.1,-83.3731 1392.43,-77.2129"/>
</g>
<!-- Node15 -->
<g id="node29" class="node"><title>Node15</title>
<a xlink:href="_tanh_8h.html" target="_top" xlink:title="dia/Tanh.h">
<polygon fill="white" stroke="black" points="1243,-112.5 1243,-131.5 1305,-131.5 1305,-112.5 1243,-112.5"/>
<text text-anchor="middle" x="1274" y="-119.5" font-family="Helvetica,sans-Serif" font-size="10.00">dia/Tanh.h</text>
</a>
</g>
<!-- Node1&#45;&gt;Node15 -->
<g id="edge28" class="edge"><title>Node1&#45;&gt;Node15</title>
<path fill="none" stroke="midnightblue" d="M1556.55,-224.46C1518.67,-217.016 1465.07,-204.773 1420,-188 1401.74,-181.207 1398.66,-176.226 1381,-168 1355.81,-156.266 1326.72,-144.118 1305.23,-135.405"/>
<polygon fill="midnightblue" stroke="midnightblue" points="1306.52,-132.151 1295.93,-131.658 1303.9,-138.643 1306.52,-132.151"/>
</g>
<!-- Node16 -->
<g id="node32" class="node"><title>Node16</title>
<a xlink:href="_identity_8h.html" target="_top" xlink:title="dia/Identity.h">
<polygon fill="white" stroke="black" points="1361,-112.5 1361,-131.5 1437,-131.5 1437,-112.5 1361,-112.5"/>
<text text-anchor="middle" x="1399" y="-119.5" font-family="Helvetica,sans-Serif" font-size="10.00">dia/Identity.h</text>
</a>
</g>
<!-- Node1&#45;&gt;Node16 -->
<g id="edge32" class="edge"><title>Node1&#45;&gt;Node16</title>
<path fill="none" stroke="midnightblue" d="M1594.09,-224.377C1576.92,-211.079 1542.22,-185.295 1510,-168 1485.42,-154.808 1456.12,-143.085 1433.8,-134.914"/>
<polygon fill="midnightblue" stroke="midnightblue" points="1434.98,-131.619 1424.38,-131.526 1432.61,-138.205 1434.98,-131.619"/>
</g>
<!-- Node17 -->
<g id="node35" class="node"><title>Node17</title>
<a xlink:href="_predict_behavior_8h.html" target="_top" xlink:title="dia/PredictBehavior.h">
<polygon fill="white" stroke="black" points="1704,-56.5 1704,-75.5 1818,-75.5 1818,-56.5 1704,-56.5"/>
<text text-anchor="middle" x="1761" y="-63.5" font-family="Helvetica,sans-Serif" font-size="10.00">dia/PredictBehavior.h</text>
</a>
</g>
<!-- Node1&#45;&gt;Node17 -->
<g id="edge36" class="edge"><title>Node1&#45;&gt;Node17</title>
<path fill="none" stroke="midnightblue" d="M1606.85,-224.487C1611.95,-202.911 1628.11,-145.431 1662,-112 1677.64,-96.5742 1699.51,-85.8751 1718.72,-78.7925"/>
<polygon fill="midnightblue" stroke="midnightblue" points="1719.88,-82.0927 1728.18,-75.507 1717.59,-75.4797 1719.88,-82.0927"/>
</g>
<!-- Node18 -->
<g id="node37" class="node"><title>Node18</title>
<a xlink:href="_m_l_pbehavior_8h.html" target="_top" xlink:title="dia/MLPBehavior.h">
<polygon fill="white" stroke="black" points="1671,-112.5 1671,-131.5 1773,-131.5 1773,-112.5 1671,-112.5"/>
<text text-anchor="middle" x="1722" y="-119.5" font-family="Helvetica,sans-Serif" font-size="10.00">dia/MLPBehavior.h</text>
</a>
</g>
<!-- Node1&#45;&gt;Node18 -->
<g id="edge38" class="edge"><title>Node1&#45;&gt;Node18</title>
<path fill="none" stroke="midnightblue" d="M1615.55,-224.251C1626.2,-215.337 1643.02,-201.012 1657,-188 1674.42,-171.795 1693.59,-152.424 1706.57,-139.068"/>
<polygon fill="midnightblue" stroke="midnightblue" points="1709.34,-141.233 1713.78,-131.611 1704.31,-136.368 1709.34,-141.233"/>
</g>
<!-- Node19 -->
<g id="node40" class="node"><title>Node19</title>
<a xlink:href="_neuron_8h.html" target="_top" xlink:title="dia/Neuron.h">
<polygon fill="white" stroke="black" points="984,-56.5 984,-75.5 1058,-75.5 1058,-56.5 984,-56.5"/>
<text text-anchor="middle" x="1021" y="-63.5" font-family="Helvetica,sans-Serif" font-size="10.00">dia/Neuron.h</text>
</a>
</g>
<!-- Node1&#45;&gt;Node19 -->
<g id="edge42" class="edge"><title>Node1&#45;&gt;Node19</title>
<path fill="none" stroke="midnightblue" d="M1536.37,-230.829C1426.23,-226.586 1215.35,-215.12 1146,-188 1093.43,-167.444 1051,-112.421 1031.92,-84.2059"/>
<polygon fill="midnightblue" stroke="midnightblue" points="1034.78,-82.1867 1026.36,-75.7534 1028.93,-86.0321 1034.78,-82.1867"/>
</g>
<!-- Node20 -->
<g id="node42" class="node"><title>Node20</title>
<a xlink:href="_simple_neuron_8h.html" target="_top" xlink:title="dia/SimpleNeuron.h">
<polygon fill="white" stroke="black" points="1081,-112.5 1081,-131.5 1187,-131.5 1187,-112.5 1081,-112.5"/>
<text text-anchor="middle" x="1134" y="-119.5" font-family="Helvetica,sans-Serif" font-size="10.00">dia/SimpleNeuron.h</text>
</a>
</g>
<!-- Node1&#45;&gt;Node20 -->
<g id="edge44" class="edge"><title>Node1&#45;&gt;Node20</title>
<path fill="none" stroke="midnightblue" d="M1536.24,-229.046C1474.48,-224.012 1381.95,-212.767 1305,-188 1286.46,-182.032 1283.93,-175.607 1266,-168 1235.27,-154.963 1199.35,-142.915 1172.74,-134.573"/>
<polygon fill="midnightblue" stroke="midnightblue" points="1173.62,-131.181 1163.03,-131.563 1171.55,-137.867 1173.62,-131.181"/>
</g>
<!-- Node21 -->
<g id="node45" class="node"><title>Node21</title>
<a xlink:href="_neural_factory_8h.html" target="_top" xlink:title="dia/NeuralFactory.h">
<polygon fill="white" stroke="black" points="2195,-0.5 2195,-19.5 2299,-19.5 2299,-0.5 2195,-0.5"/>
<text text-anchor="middle" x="2247" y="-7.5" font-family="Helvetica,sans-Serif" font-size="10.00">dia/NeuralFactory.h</text>
</a>
</g>
<!-- Node1&#45;&gt;Node21 -->
<g id="edge48" class="edge"><title>Node1&#45;&gt;Node21</title>
<path fill="none" stroke="midnightblue" d="M1673.57,-225.485C1721.67,-218.895 1786.96,-207.275 1842,-188 1954.33,-148.664 1965.26,-102.082 2075,-56 2112.04,-40.4456 2155.88,-29.0756 2190.02,-21.6558"/>
<polygon fill="midnightblue" stroke="midnightblue" points="2190.78,-25.0731 2199.84,-19.5737 2189.33,-18.2255 2190.78,-25.0731"/>
</g>
<!-- Node22 -->
<g id="node47" class="node"><title>Node22</title>
<a xlink:href="_m_l_pfactory_8h.html" target="_top" xlink:title="dia/MLPfactory.h">
<polygon fill="white" stroke="black" points="2200.5,-56.5 2200.5,-75.5 2293.5,-75.5 2293.5,-56.5 2200.5,-56.5"/>
<text text-anchor="middle" x="2247" y="-63.5" font-family="Helvetica,sans-Serif" font-size="10.00">dia/MLPfactory.h</text>
</a>
</g>
<!-- Node1&#45;&gt;Node22 -->
<g id="edge50" class="edge"><title>Node1&#45;&gt;Node22</title>
<path fill="none" stroke="midnightblue" d="M1673.76,-232.33C1796.13,-230.274 2046.33,-221.918 2126,-188 2176.86,-166.348 2217.71,-112.251 2236.23,-84.31"/>
<polygon fill="midnightblue" stroke="midnightblue" points="2239.36,-85.9161 2241.83,-75.6136 2233.47,-82.1259 2239.36,-85.9161"/>
</g>
<!-- Node23 -->
<g id="node50" class="node"><title>Node23</title>
<a xlink:href="_tanh_factory_8h.html" target="_top" xlink:title="dia/TanhFactory.h">
<polygon fill="white" stroke="black" points="2237.5,-112.5 2237.5,-131.5 2334.5,-131.5 2334.5,-112.5 2237.5,-112.5"/>
<text text-anchor="middle" x="2286" y="-119.5" font-family="Helvetica,sans-Serif" font-size="10.00">dia/TanhFactory.h</text>
</a>
</g>
<!-- Node1&#45;&gt;Node23 -->
<g id="edge54" class="edge"><title>Node1&#45;&gt;Node23</title>
<path fill="none" stroke="midnightblue" d="M1673.74,-231.966C1806.6,-229.267 2093.79,-219.829 2187,-188 2218.72,-177.167 2250.19,-153.77 2268.86,-138.205"/>
<polygon fill="midnightblue" stroke="midnightblue" points="2271.17,-140.837 2276.5,-131.678 2266.62,-135.516 2271.17,-140.837"/>
</g>
<!-- Node24 -->
<g id="node53" class="node"><title>Node24</title>
<a xlink:href="_identity_factory_8h.html" target="_top" xlink:title="dia/IdentityFactory.h">
<polygon fill="white" stroke="black" points="2071,-112.5 2071,-131.5 2181,-131.5 2181,-112.5 2071,-112.5"/>
<text text-anchor="middle" x="2126" y="-119.5" font-family="Helvetica,sans-Serif" font-size="10.00">dia/IdentityFactory.h</text>
</a>
</g>
<!-- Node1&#45;&gt;Node24 -->
<g id="edge58" class="edge"><title>Node1&#45;&gt;Node24</title>
<path fill="none" stroke="midnightblue" d="M1673.63,-231.035C1803.04,-226.726 2073.13,-214.629 2106,-188 2119.6,-176.983 2124.15,-156.934 2125.58,-142.005"/>
<polygon fill="midnightblue" stroke="midnightblue" points="2129.09,-142.004 2126.16,-131.821 2122.1,-141.606 2129.09,-142.004"/>
</g>
<!-- Node25 -->
<g id="node56" class="node"><title>Node25</title>
<a xlink:href="_neural_creator_8h.html" target="_top" xlink:title="dia/NeuralCreator.h">
<polygon fill="white" stroke="black" points="2650,-56.5 2650,-75.5 2754,-75.5 2754,-56.5 2650,-56.5"/>
<text text-anchor="middle" x="2702" y="-63.5" font-family="Helvetica,sans-Serif" font-size="10.00">dia/NeuralCreator.h</text>
</a>
</g>
<!-- Node1&#45;&gt;Node25 -->
<g id="edge62" class="edge"><title>Node1&#45;&gt;Node25</title>
<path fill="none" stroke="midnightblue" d="M1673.83,-231.698C1880.07,-227.532 2483.99,-213.293 2569,-188 2585.8,-183 2587.14,-175.471 2603,-168 2645.35,-148.048 2675.14,-170.348 2702,-132 2711.3,-118.726 2710.16,-99.89 2707.38,-85.9092"/>
<polygon fill="midnightblue" stroke="midnightblue" points="2710.72,-84.8281 2704.95,-75.9369 2703.91,-86.4805 2710.72,-84.8281"/>
</g>
<!-- Node26 -->
<g id="node58" class="node"><title>Node26</title>
<a xlink:href="_simple_neural_creator_8h.html" target="_top" xlink:title="dia/SimpleNeuralCreator.h">
<polygon fill="white" stroke="black" points="2536.5,-112.5 2536.5,-131.5 2673.5,-131.5 2673.5,-112.5 2536.5,-112.5"/>
<text text-anchor="middle" x="2605" y="-119.5" font-family="Helvetica,sans-Serif" font-size="10.00">dia/SimpleNeuralCreator.h</text>
</a>
</g>
<!-- Node1&#45;&gt;Node26 -->
<g id="edge64" class="edge"><title>Node1&#45;&gt;Node26</title>
<path fill="none" stroke="midnightblue" d="M1673.57,-232.128C1836.34,-229.554 2242.18,-220.027 2374,-188 2395.27,-182.833 2398.28,-175.047 2419,-168 2462.13,-153.334 2512.41,-141.469 2549.82,-133.613"/>
<polygon fill="midnightblue" stroke="midnightblue" points="2550.92,-136.957 2560.01,-131.504 2549.51,-130.103 2550.92,-136.957"/>
</g>
<!-- Node27 -->
<g id="node61" class="node"><title>Node27</title>
<a xlink:href="_container_8h.html" target="_top" xlink:title="dia/Container.h">
<polygon fill="white" stroke="black" points="2778.5,-112.5 2778.5,-131.5 2863.5,-131.5 2863.5,-112.5 2778.5,-112.5"/>
<text text-anchor="middle" x="2821" y="-119.5" font-family="Helvetica,sans-Serif" font-size="10.00">dia/Container.h</text>
</a>
</g>
<!-- Node1&#45;&gt;Node27 -->
<g id="edge68" class="edge"><title>Node1&#45;&gt;Node27</title>
<path fill="none" stroke="midnightblue" d="M1673.63,-233.286C1869.13,-233.566 2426.14,-230.502 2603,-188 2623.89,-182.981 2626.75,-175.161 2647,-168 2687.43,-153.705 2734.6,-141.789 2769.62,-133.818"/>
<polygon fill="midnightblue" stroke="midnightblue" points="2770.62,-137.179 2779.62,-131.574 2769.09,-130.349 2770.62,-137.179"/>
</g>
<!-- Node28 -->
<g id="node63" class="node"><title>Node28</title>
<a xlink:href="_simple_container_8h.html" target="_top" xlink:title="dia/SimpleContainer.h">
<polygon fill="white" stroke="black" points="2655.5,-168.5 2655.5,-187.5 2772.5,-187.5 2772.5,-168.5 2655.5,-168.5"/>
<text text-anchor="middle" x="2714" y="-175.5" font-family="Helvetica,sans-Serif" font-size="10.00">dia/SimpleContainer.h</text>
</a>
</g>
<!-- Node1&#45;&gt;Node28 -->
<g id="edge70" class="edge"><title>Node1&#45;&gt;Node28</title>
<path fill="none" stroke="midnightblue" d="M1673.61,-231.899C1839.84,-228.821 2277.25,-218.275 2641,-188 2642.47,-187.878 2643.96,-187.748 2645.46,-187.612"/>
<polygon fill="midnightblue" stroke="midnightblue" points="2645.86,-191.089 2655.47,-186.63 2645.18,-184.122 2645.86,-191.089"/>
</g>
<!-- Node29 -->
<g id="node66" class="node"><title>Node29</title>
<a xlink:href="_iterator_8h.html" target="_top" xlink:title="dia/Iterator.h">
<polygon fill="white" stroke="black" points="3191,-56.5 3191,-75.5 3265,-75.5 3265,-56.5 3191,-56.5"/>
<text text-anchor="middle" x="3228" y="-63.5" font-family="Helvetica,sans-Serif" font-size="10.00">dia/Iterator.h</text>
</a>
</g>
<!-- Node1&#45;&gt;Node29 -->
<g id="edge74" class="edge"><title>Node1&#45;&gt;Node29</title>
<path fill="none" stroke="midnightblue" d="M1673.53,-232.481C1971.56,-230.045 3143.18,-218.557 3215,-188 3247.68,-174.097 3258.26,-164.75 3272,-132 3279.83,-113.339 3263.77,-94.4555 3248.9,-81.8872"/>
<polygon fill="midnightblue" stroke="midnightblue" points="3250.94,-79.04 3240.92,-75.596 3246.61,-84.5365 3250.94,-79.04"/>
</g>
<!-- Node30 -->
<g id="node68" class="node"><title>Node30</title>
<a xlink:href="_simple_container_iterator_8h.html" target="_top" xlink:title="dia/SimpleContainerIterator.h">
<polygon fill="white" stroke="black" points="3023.5,-112.5 3023.5,-131.5 3174.5,-131.5 3174.5,-112.5 3023.5,-112.5"/>
<text text-anchor="middle" x="3099" y="-119.5" font-family="Helvetica,sans-Serif" font-size="10.00">dia/SimpleContainerIterator.h</text>
</a>
</g>
<!-- Node1&#45;&gt;Node30 -->
<g id="edge76" class="edge"><title>Node1&#45;&gt;Node30</title>
<path fill="none" stroke="midnightblue" d="M1673.75,-232.325C1973.14,-229.224 3149.45,-215.319 3176,-188 3195.33,-168.105 3161.17,-147.917 3132.37,-135.433"/>
<polygon fill="midnightblue" stroke="midnightblue" points="3133.47,-132.1 3122.89,-131.506 3130.79,-138.567 3133.47,-132.1"/>
</g>
<!-- Node31 -->
<g id="node71" class="node"><title>Node31</title>
<a xlink:href="_con_8cpp.html" target="_top" xlink:title="Con.cpp">
<polygon fill="white" stroke="black" points="1005,-168.5 1005,-187.5 1061,-187.5 1061,-168.5 1005,-168.5"/>
<text text-anchor="middle" x="1033" y="-175.5" font-family="Helvetica,sans-Serif" font-size="10.00">Con.cpp</text>
</a>
</g>
<!-- Node1&#45;&gt;Node31 -->
<g id="edge80" class="edge"><title>Node1&#45;&gt;Node31</title>
<path fill="none" stroke="midnightblue" d="M1536.49,-229.954C1435.18,-224.825 1239.63,-212.528 1075,-188 1073.76,-187.815 1072.49,-187.614 1071.22,-187.402"/>
<polygon fill="midnightblue" stroke="midnightblue" points="1071.85,-183.959 1061.38,-185.589 1070.58,-190.843 1071.85,-183.959"/>
</g>
<!-- Node32 -->
<g id="node75" class="node"><title>Node32</title>
<a xlink:href="_activation_function_8cpp.html" target="_top" xlink:title="ActivationFunction.cpp">
<polygon fill="white" stroke="black" points="1493,-112.5 1493,-131.5 1615,-131.5 1615,-112.5 1493,-112.5"/>
<text text-anchor="middle" x="1554" y="-119.5" font-family="Helvetica,sans-Serif" font-size="10.00">ActivationFunction.cpp</text>
</a>
</g>
<!-- Node1&#45;&gt;Node32 -->
<g id="edge86" class="edge"><title>Node1&#45;&gt;Node32</title>
<path fill="none" stroke="midnightblue" d="M1602.39,-224.378C1598.42,-211.728 1590.36,-187.525 1581,-168 1576.47,-158.552 1570.56,-148.512 1565.43,-140.318"/>
<polygon fill="midnightblue" stroke="midnightblue" points="1568.24,-138.213 1559.88,-131.693 1562.35,-141.998 1568.24,-138.213"/>
</g>
<!-- Node33 -->
<g id="node78" class="node"><title>Node33</title>
<a xlink:href="_tanh_8cpp.html" target="_top" xlink:title="Tanh.cpp">
<polygon fill="white" stroke="black" points="1313.5,-168.5 1313.5,-187.5 1372.5,-187.5 1372.5,-168.5 1313.5,-168.5"/>
<text text-anchor="middle" x="1343" y="-175.5" font-family="Helvetica,sans-Serif" font-size="10.00">Tanh.cpp</text>
</a>
</g>
<!-- Node1&#45;&gt;Node33 -->
<g id="edge90" class="edge"><title>Node1&#45;&gt;Node33</title>
<path fill="none" stroke="midnightblue" d="M1563.49,-224.444C1513.78,-214.198 1431.14,-197.167 1382.39,-187.119"/>
<polygon fill="midnightblue" stroke="midnightblue" points="1383.03,-183.677 1372.53,-185.086 1381.62,-190.533 1383.03,-183.677"/>
</g>
<!-- Node34 -->
<g id="node82" class="node"><title>Node34</title>
<a xlink:href="_identity_8cpp.html" target="_top" xlink:title="Identity.cpp">
<polygon fill="white" stroke="black" points="1429,-168.5 1429,-187.5 1501,-187.5 1501,-168.5 1429,-168.5"/>
<text text-anchor="middle" x="1465" y="-175.5" font-family="Helvetica,sans-Serif" font-size="10.00">Identity.cpp</text>
</a>
</g>
<!-- Node1&#45;&gt;Node34 -->
<g id="edge96" class="edge"><title>Node1&#45;&gt;Node34</title>
<path fill="none" stroke="midnightblue" d="M1582.82,-224.444C1559.57,-215.478 1522.85,-201.314 1496.58,-191.183"/>
<polygon fill="midnightblue" stroke="midnightblue" points="1497.67,-187.85 1487.08,-187.516 1495.15,-194.381 1497.67,-187.85"/>
</g>
<!-- Node35 -->
<g id="node86" class="node"><title>Node35</title>
<a xlink:href="_predict_behavior_8cpp.html" target="_top" xlink:title="PredictBehavior.cpp">
<polygon fill="white" stroke="black" points="1829,-112.5 1829,-131.5 1939,-131.5 1939,-112.5 1829,-112.5"/>
<text text-anchor="middle" x="1884" y="-119.5" font-family="Helvetica,sans-Serif" font-size="10.00">PredictBehavior.cpp</text>
</a>
</g>
<!-- Node1&#45;&gt;Node35 -->
<g id="edge102" class="edge"><title>Node1&#45;&gt;Node35</title>
<path fill="none" stroke="midnightblue" d="M1673.92,-227.716C1716.54,-222.207 1771.26,-210.959 1815,-188 1837.66,-176.108 1858.25,-154.684 1870.92,-139.693"/>
<polygon fill="midnightblue" stroke="midnightblue" points="1873.81,-141.69 1877.42,-131.731 1868.39,-137.262 1873.81,-141.69"/>
</g>
<!-- Node36 -->
<g id="node89" class="node"><title>Node36</title>
<a xlink:href="_m_l_pbehavior_8cpp.html" target="_top" xlink:title="MLPbehavior.cpp">
<polygon fill="white" stroke="black" points="1709.5,-168.5 1709.5,-187.5 1806.5,-187.5 1806.5,-168.5 1709.5,-168.5"/>
<text text-anchor="middle" x="1758" y="-175.5" font-family="Helvetica,sans-Serif" font-size="10.00">MLPbehavior.cpp</text>
</a>
</g>
<!-- Node1&#45;&gt;Node36 -->
<g id="edge106" class="edge"><title>Node1&#45;&gt;Node36</title>
<path fill="none" stroke="midnightblue" d="M1629.24,-224.444C1654.87,-215.399 1695.49,-201.064 1724.24,-190.916"/>
<polygon fill="midnightblue" stroke="midnightblue" points="1725.61,-194.145 1733.87,-187.516 1723.28,-187.544 1725.61,-194.145"/>
</g>
<!-- Node37 -->
<g id="node93" class="node"><title>Node37</title>
<a xlink:href="_neuron_8cpp.html" target="_top" xlink:title="Neuron.cpp">
<polygon fill="white" stroke="black" points="955,-112.5 955,-131.5 1025,-131.5 1025,-112.5 955,-112.5"/>
<text text-anchor="middle" x="990" y="-119.5" font-family="Helvetica,sans-Serif" font-size="10.00">Neuron.cpp</text>
</a>
</g>
<!-- Node1&#45;&gt;Node37 -->
<g id="edge112" class="edge"><title>Node1&#45;&gt;Node37</title>
<path fill="none" stroke="midnightblue" d="M1536.12,-230.042C1420.01,-224.499 1190.39,-210.984 1113,-188 1102.73,-184.949 1047.58,-154.887 1014.72,-136.733"/>
<polygon fill="midnightblue" stroke="midnightblue" points="1016.14,-133.523 1005.7,-131.742 1012.75,-139.647 1016.14,-133.523"/>
</g>
<!-- Node38 -->
<g id="node96" class="node"><title>Node38</title>
<a xlink:href="_simple_neuron_8cpp.html" target="_top" xlink:title="SimpleNeuron.cpp">
<polygon fill="white" stroke="black" points="1155,-168.5 1155,-187.5 1257,-187.5 1257,-168.5 1155,-168.5"/>
<text text-anchor="middle" x="1206" y="-175.5" font-family="Helvetica,sans-Serif" font-size="10.00">SimpleNeuron.cpp</text>
</a>
</g>
<!-- Node1&#45;&gt;Node38 -->
<g id="edge116" class="edge"><title>Node1&#45;&gt;Node38</title>
<path fill="none" stroke="midnightblue" d="M1541.27,-224.484C1474.05,-215.486 1365.06,-200.848 1271,-188 1269.73,-187.827 1268.45,-187.651 1267.15,-187.474"/>
<polygon fill="midnightblue" stroke="midnightblue" points="1267.48,-183.985 1257.09,-186.092 1266.52,-190.92 1267.48,-183.985"/>
</g>
<!-- Node39 -->
<g id="node99" class="node"><title>Node39</title>
<a xlink:href="_m_l_pfactory_8cpp.html" target="_top" xlink:title="MLPfactory.cpp">
<polygon fill="white" stroke="black" points="2429.5,-112.5 2429.5,-131.5 2518.5,-131.5 2518.5,-112.5 2429.5,-112.5"/>
<text text-anchor="middle" x="2474" y="-119.5" font-family="Helvetica,sans-Serif" font-size="10.00">MLPfactory.cpp</text>
</a>
</g>
<!-- Node1&#45;&gt;Node39 -->
<g id="edge120" class="edge"><title>Node1&#45;&gt;Node39</title>
<path fill="none" stroke="midnightblue" d="M1673.62,-232.226C1831.44,-229.893 2216.21,-220.907 2341,-188 2346.62,-186.519 2410.67,-154.695 2447.79,-136.136"/>
<polygon fill="midnightblue" stroke="midnightblue" points="2449.66,-139.114 2457.04,-131.509 2446.53,-132.854 2449.66,-139.114"/>
</g>
<!-- Node40 -->
<g id="node103" class="node"><title>Node40</title>
<a xlink:href="_tanh_factory_8cpp.html" target="_top" xlink:title="TanhFactory.cpp">
<polygon fill="white" stroke="black" points="2239.5,-168.5 2239.5,-187.5 2332.5,-187.5 2332.5,-168.5 2239.5,-168.5"/>
<text text-anchor="middle" x="2286" y="-175.5" font-family="Helvetica,sans-Serif" font-size="10.00">TanhFactory.cpp</text>
</a>
</g>
<!-- Node1&#45;&gt;Node40 -->
<g id="edge126" class="edge"><title>Node1&#45;&gt;Node40</title>
<path fill="none" stroke="midnightblue" d="M1673.96,-229.665C1788.59,-223.748 2025.47,-209.93 2225,-188 2226.46,-187.839 2227.95,-187.67 2229.44,-187.493"/>
<polygon fill="midnightblue" stroke="midnightblue" points="2229.94,-190.958 2239.42,-186.235 2229.06,-184.013 2229.94,-190.958"/>
</g>
<!-- Node41 -->
<g id="node108" class="node"><title>Node41</title>
<a xlink:href="_identity_factory_8cpp.html" target="_top" xlink:title="IdentityFactory.cpp">
<polygon fill="white" stroke="black" points="1990.5,-168.5 1990.5,-187.5 2097.5,-187.5 2097.5,-168.5 1990.5,-168.5"/>
<text text-anchor="middle" x="2044" y="-175.5" font-family="Helvetica,sans-Serif" font-size="10.00">IdentityFactory.cpp</text>
</a>
</g>
<!-- Node1&#45;&gt;Node41 -->
<g id="edge134" class="edge"><title>Node1&#45;&gt;Node41</title>
<path fill="none" stroke="midnightblue" d="M1673.75,-224.888C1748.24,-216.045 1870.6,-201.367 1976,-188 1977.3,-187.836 1978.61,-187.669 1979.93,-187.5"/>
<polygon fill="midnightblue" stroke="midnightblue" points="1980.71,-190.927 1990.19,-186.177 1979.82,-183.985 1980.71,-190.927"/>
</g>
<!-- Node42 -->
<g id="node113" class="node"><title>Node42</title>
<a xlink:href="_simple_neural_creator_8cpp.html" target="_top" xlink:title="SimpleNeuralCreator.cpp">
<polygon fill="white" stroke="black" points="2427.5,-168.5 2427.5,-187.5 2560.5,-187.5 2560.5,-168.5 2427.5,-168.5"/>
<text text-anchor="middle" x="2494" y="-175.5" font-family="Helvetica,sans-Serif" font-size="10.00">SimpleNeuralCreator.cpp</text>
</a>
</g>
<!-- Node1&#45;&gt;Node42 -->
<g id="edge142" class="edge"><title>Node1&#45;&gt;Node42</title>
<path fill="none" stroke="midnightblue" d="M1673.73,-230.449C1813.24,-224.989 2139.63,-210.782 2413,-188 2414.31,-187.891 2415.63,-187.778 2416.96,-187.661"/>
<polygon fill="midnightblue" stroke="midnightblue" points="2417.65,-191.113 2427.28,-186.707 2417,-184.142 2417.65,-191.113"/>
</g>
<!-- Node43 -->
<g id="node117" class="node"><title>Node43</title>
<a xlink:href="_container_8cpp.html" target="_top" xlink:title="Container.cpp">
<polygon fill="white" stroke="black" points="2790.5,-168.5 2790.5,-187.5 2871.5,-187.5 2871.5,-168.5 2790.5,-168.5"/>
<text text-anchor="middle" x="2831" y="-175.5" font-family="Helvetica,sans-Serif" font-size="10.00">Container.cpp</text>
</a>
</g>
<!-- Node1&#45;&gt;Node43 -->
<g id="edge148" class="edge"><title>Node1&#45;&gt;Node43</title>
<path fill="none" stroke="midnightblue" d="M1673.51,-233.717C1853.42,-234.882 2354.16,-233.516 2780.36,-187.882"/>
<polygon fill="midnightblue" stroke="midnightblue" points="2780.84,-191.35 2790.41,-186.796 2780.09,-184.391 2780.84,-191.35"/>
</g>
<!-- Node44 -->
<g id="node120" class="node"><title>Node44</title>
<a xlink:href="_iterator_8cpp.html" target="_top" xlink:title="Iterator.cpp">
<polygon fill="white" stroke="black" points="3192.5,-112.5 3192.5,-131.5 3263.5,-131.5 3263.5,-112.5 3192.5,-112.5"/>
<text text-anchor="middle" x="3228" y="-119.5" font-family="Helvetica,sans-Serif" font-size="10.00">Iterator.cpp</text>
</a>
</g>
<!-- Node1&#45;&gt;Node44 -->
<g id="edge152" class="edge"><title>Node1&#45;&gt;Node44</title>
<path fill="none" stroke="midnightblue" d="M1673.54,-232.941C1969.56,-232.449 3126.33,-227.964 3192,-188 3208.67,-177.855 3218.21,-157.001 3223.23,-141.638"/>
<polygon fill="midnightblue" stroke="midnightblue" points="3226.7,-142.232 3226.11,-131.654 3219.97,-140.287 3226.7,-142.232"/>
</g>
<!-- Node45 -->
<g id="node123" class="node"><title>Node45</title>
<a xlink:href="_simple_container_8cpp.html" target="_top" xlink:title="SimpleContainer.cpp">
<polygon fill="white" stroke="black" points="2889.5,-168.5 2889.5,-187.5 3002.5,-187.5 3002.5,-168.5 2889.5,-168.5"/>
<text text-anchor="middle" x="2946" y="-175.5" font-family="Helvetica,sans-Serif" font-size="10.00">SimpleContainer.cpp</text>
</a>
</g>
<!-- Node1&#45;&gt;Node45 -->
<g id="edge156" class="edge"><title>Node1&#45;&gt;Node45</title>
<path fill="none" stroke="midnightblue" d="M1673.56,-232.994C1863.48,-232.46 2412.58,-227.417 2879.19,-187.968"/>
<polygon fill="midnightblue" stroke="midnightblue" points="2879.49,-191.455 2889.16,-187.119 2878.9,-184.481 2879.49,-191.455"/>
</g>
<!-- Node46 -->
<g id="node126" class="node"><title>Node46</title>
<a xlink:href="_simple_container_iterator_8cpp.html" target="_top" xlink:title="SimpleContainerIterator.cpp">
<polygon fill="white" stroke="black" points="3020.5,-168.5 3020.5,-187.5 3167.5,-187.5 3167.5,-168.5 3020.5,-168.5"/>
<text text-anchor="middle" x="3094" y="-175.5" font-family="Helvetica,sans-Serif" font-size="10.00">SimpleContainerIterator.cpp</text>
</a>
</g>
<!-- Node1&#45;&gt;Node46 -->
<g id="edge160" class="edge"><title>Node1&#45;&gt;Node46</title>
<path fill="none" stroke="midnightblue" d="M1673.86,-232.648C1876.73,-231.217 2490.01,-224.054 3009.92,-188.011"/>
<polygon fill="midnightblue" stroke="midnightblue" points="3010.53,-191.478 3020.26,-187.29 3010.04,-184.495 3010.53,-191.478"/>
</g>
<!-- Node15&#45;&gt;Node14 -->
<g id="edge30" class="edge"><title>Node15&#45;&gt;Node14</title>
<path fill="none" stroke="midnightblue" d="M1288.78,-112.324C1303.27,-103.822 1325.57,-90.7288 1342.49,-80.7975"/>
<polygon fill="midnightblue" stroke="midnightblue" points="1344.4,-83.735 1351.26,-75.6545 1340.86,-77.6981 1344.4,-83.735"/>
</g>
<!-- Node16&#45;&gt;Node14 -->
<g id="edge34" class="edge"><title>Node16&#45;&gt;Node14</title>
<path fill="none" stroke="midnightblue" d="M1393.55,-112.083C1388.99,-104.613 1382.33,-93.7244 1376.71,-84.5199"/>
<polygon fill="midnightblue" stroke="midnightblue" points="1379.55,-82.4588 1371.35,-75.7511 1373.58,-86.109 1379.55,-82.4588"/>
</g>
<!-- Node18&#45;&gt;Node17 -->
<g id="edge40" class="edge"><title>Node18&#45;&gt;Node17</title>
<path fill="none" stroke="midnightblue" d="M1728.44,-112.083C1733.95,-104.455 1742.03,-93.2645 1748.76,-83.9408"/>
<polygon fill="midnightblue" stroke="midnightblue" points="1751.66,-85.9071 1754.68,-75.7511 1745.99,-81.8087 1751.66,-85.9071"/>
</g>
<!-- Node20&#45;&gt;Node19 -->
<g id="edge46" class="edge"><title>Node20&#45;&gt;Node19</title>
<path fill="none" stroke="midnightblue" d="M1116.09,-112.444C1097.75,-103.675 1068.99,-89.9355 1047.91,-79.8579"/>
<polygon fill="midnightblue" stroke="midnightblue" points="1049.35,-76.6703 1038.82,-75.5164 1046.33,-82.9862 1049.35,-76.6703"/>
</g>
<!-- Node22&#45;&gt;Node21 -->
<g id="edge52" class="edge"><title>Node22&#45;&gt;Node21</title>
<path fill="none" stroke="midnightblue" d="M2247,-56.083C2247,-49.0059 2247,-38.8611 2247,-29.9865"/>
<polygon fill="midnightblue" stroke="midnightblue" points="2250.5,-29.751 2247,-19.7511 2243.5,-29.7511 2250.5,-29.751"/>
</g>
<!-- Node23&#45;&gt;Node22 -->
<g id="edge56" class="edge"><title>Node23&#45;&gt;Node22</title>
<path fill="none" stroke="midnightblue" d="M2279.56,-112.083C2274.05,-104.455 2265.97,-93.2645 2259.24,-83.9408"/>
<polygon fill="midnightblue" stroke="midnightblue" points="2262.01,-81.8087 2253.32,-75.7511 2256.34,-85.9071 2262.01,-81.8087"/>
</g>
<!-- Node24&#45;&gt;Node22 -->
<g id="edge60" class="edge"><title>Node24&#45;&gt;Node22</title>
<path fill="none" stroke="midnightblue" d="M2145.17,-112.444C2164.91,-103.636 2195.89,-89.8116 2218.49,-79.722"/>
<polygon fill="midnightblue" stroke="midnightblue" points="2220.21,-82.788 2227.92,-75.5164 2217.36,-76.3957 2220.21,-82.788"/>
</g>
<!-- Node26&#45;&gt;Node25 -->
<g id="edge66" class="edge"><title>Node26&#45;&gt;Node25</title>
<path fill="none" stroke="midnightblue" d="M2620.58,-112.324C2636,-103.743 2659.81,-90.486 2677.71,-80.5224"/>
<polygon fill="midnightblue" stroke="midnightblue" points="2679.42,-83.5767 2686.45,-75.6545 2676.01,-77.4606 2679.42,-83.5767"/>
</g>
<!-- Node28&#45;&gt;Node27 -->
<g id="edge72" class="edge"><title>Node28&#45;&gt;Node27</title>
<path fill="none" stroke="midnightblue" d="M2731.19,-168.324C2748.35,-159.664 2774.95,-146.242 2794.75,-136.249"/>
<polygon fill="midnightblue" stroke="midnightblue" points="2796.5,-139.285 2803.85,-131.655 2793.35,-133.035 2796.5,-139.285"/>
</g>
<!-- Node30&#45;&gt;Node29 -->
<g id="edge78" class="edge"><title>Node30&#45;&gt;Node29</title>
<path fill="none" stroke="midnightblue" d="M3119.44,-112.444C3140.67,-103.557 3174.1,-89.5632 3198.25,-79.4514"/>
<polygon fill="midnightblue" stroke="midnightblue" points="3199.78,-82.6064 3207.66,-75.5164 3197.08,-76.1493 3199.78,-82.6064"/>
</g>
<!-- Node31&#45;&gt;Node13 -->
<g id="edge82" class="edge"><title>Node31&#45;&gt;Node13</title>
<path fill="none" stroke="midnightblue" d="M1007.01,-168.444C979.304,-159.32 935.248,-144.813 904.384,-134.651"/>
<polygon fill="midnightblue" stroke="midnightblue" points="905.458,-131.32 894.865,-131.516 903.268,-137.968 905.458,-131.32"/>
</g>
<!-- Node31&#45;&gt;Node19 -->
<g id="edge84" class="edge"><title>Node31&#45;&gt;Node19</title>
<path fill="none" stroke="midnightblue" d="M1004.92,-170.708C984.667,-164.541 958.731,-152.918 946,-132 932.437,-109.715 961.151,-91.0536 986.879,-79.5248"/>
<polygon fill="midnightblue" stroke="midnightblue" points="988.293,-82.7269 996.139,-75.6065 985.565,-76.2803 988.293,-82.7269"/>
</g>
<!-- Node32&#45;&gt;Node14 -->
<g id="edge88" class="edge"><title>Node32&#45;&gt;Node14</title>
<path fill="none" stroke="midnightblue" d="M1524.21,-112.444C1492.17,-103.241 1441.07,-88.5617 1405.65,-78.3879"/>
<polygon fill="midnightblue" stroke="midnightblue" points="1406.23,-74.9132 1395.65,-75.5164 1404.29,-81.6412 1406.23,-74.9132"/>
</g>
<!-- Node33&#45;&gt;Node14 -->
<g id="edge92" class="edge"><title>Node33&#45;&gt;Node14</title>
<path fill="none" stroke="midnightblue" d="M1313.43,-168.829C1284.42,-160.142 1243.22,-145.783 1234,-132 1229.06,-124.612 1228.83,-119.229 1234,-112 1247.93,-92.5319 1270.79,-81.3893 1293.61,-75.0452"/>
<polygon fill="midnightblue" stroke="midnightblue" points="1294.5,-78.4293 1303.36,-72.6098 1292.81,-71.638 1294.5,-78.4293"/>
</g>
<!-- Node33&#45;&gt;Node15 -->
<g id="edge94" class="edge"><title>Node33&#45;&gt;Node15</title>
<path fill="none" stroke="midnightblue" d="M1331.91,-168.324C1321.51,-160.185 1305.74,-147.839 1293.28,-138.087"/>
<polygon fill="midnightblue" stroke="midnightblue" points="1295.32,-135.241 1285.29,-131.834 1291.01,-140.753 1295.32,-135.241"/>
</g>
<!-- Node34&#45;&gt;Node14 -->
<g id="edge98" class="edge"><title>Node34&#45;&gt;Node14</title>
<path fill="none" stroke="midnightblue" d="M1432.68,-168.498C1402.73,-159.888 1361.42,-145.894 1352,-132 1342.51,-118.008 1348.46,-98.7521 1355.29,-84.8343"/>
<polygon fill="midnightblue" stroke="midnightblue" points="1358.5,-86.2515 1360.21,-75.795 1352.36,-82.9049 1358.5,-86.2515"/>
</g>
<!-- Node34&#45;&gt;Node16 -->
<g id="edge100" class="edge"><title>Node34&#45;&gt;Node16</title>
<path fill="none" stroke="midnightblue" d="M1454.4,-168.324C1444.54,-160.263 1429.65,-148.077 1417.78,-138.369"/>
<polygon fill="midnightblue" stroke="midnightblue" points="1419.75,-135.457 1409.8,-131.834 1415.32,-140.875 1419.75,-135.457"/>
</g>
<!-- Node35&#45;&gt;Node17 -->
<g id="edge104" class="edge"><title>Node35&#45;&gt;Node17</title>
<path fill="none" stroke="midnightblue" d="M1864.51,-112.444C1844.36,-103.596 1812.68,-89.6875 1789.67,-79.5865"/>
<polygon fill="midnightblue" stroke="midnightblue" points="1790.96,-76.3316 1780.4,-75.5164 1788.15,-82.7411 1790.96,-76.3316"/>
</g>
<!-- Node36&#45;&gt;Node17 -->
<g id="edge108" class="edge"><title>Node36&#45;&gt;Node17</title>
<path fill="none" stroke="midnightblue" d="M1764.37,-168.232C1770.26,-159.532 1778.61,-145.572 1782,-132 1786.08,-115.681 1779.19,-97.4908 1772.24,-84.513"/>
<polygon fill="midnightblue" stroke="midnightblue" points="1775.16,-82.581 1767.09,-75.7222 1769.12,-86.1197 1775.16,-82.581"/>
</g>
<!-- Node36&#45;&gt;Node18 -->
<g id="edge110" class="edge"><title>Node36&#45;&gt;Node18</title>
<path fill="none" stroke="midnightblue" d="M1752.06,-168.083C1747.02,-160.534 1739.66,-149.495 1733.49,-140.23"/>
<polygon fill="midnightblue" stroke="midnightblue" points="1736.29,-138.13 1727.83,-131.751 1730.47,-142.013 1736.29,-138.13"/>
</g>
<!-- Node37&#45;&gt;Node19 -->
<g id="edge114" class="edge"><title>Node37&#45;&gt;Node19</title>
<path fill="none" stroke="midnightblue" d="M995.119,-112.083C999.408,-104.613 1005.66,-93.7244 1010.94,-84.5199"/>
<polygon fill="midnightblue" stroke="midnightblue" points="1014.03,-86.1662 1015.98,-75.7511 1007.96,-82.6811 1014.03,-86.1662"/>
</g>
<!-- Node38&#45;&gt;Node20 -->
<g id="edge118" class="edge"><title>Node38&#45;&gt;Node20</title>
<path fill="none" stroke="midnightblue" d="M1194.43,-168.324C1183.58,-160.185 1167.12,-147.839 1154.12,-138.087"/>
<polygon fill="midnightblue" stroke="midnightblue" points="1155.88,-135.034 1145.78,-131.834 1151.68,-140.634 1155.88,-135.034"/>
</g>
<!-- Node39&#45;&gt;Node21 -->
<g id="edge122" class="edge"><title>Node39&#45;&gt;Node21</title>
<path fill="none" stroke="midnightblue" d="M2468.61,-112.389C2459.38,-98.3858 2439.2,-70.7617 2415,-56 2383,-36.4777 2342.52,-25.3069 2309.32,-18.9789"/>
<polygon fill="midnightblue" stroke="midnightblue" points="2309.72,-15.4962 2299.26,-17.1666 2308.48,-22.3852 2309.72,-15.4962"/>
</g>
<!-- Node39&#45;&gt;Node22 -->
<g id="edge124" class="edge"><title>Node39&#45;&gt;Node22</title>
<path fill="none" stroke="midnightblue" d="M2438.03,-112.444C2398.68,-103.083 2335.51,-88.0561 2292.69,-77.868"/>
<polygon fill="midnightblue" stroke="midnightblue" points="2293.34,-74.4258 2282.8,-75.5164 2291.72,-81.2358 2293.34,-74.4258"/>
</g>
<!-- Node40&#45;&gt;Node21 -->
<g id="edge128" class="edge"><title>Node40&#45;&gt;Node21</title>
<path fill="none" stroke="midnightblue" d="M2311.5,-168.472C2327.99,-161.478 2348.14,-149.792 2358,-132 2362.31,-124.225 2361.4,-120.212 2358,-112 2341.43,-71.9912 2299.58,-41.3591 2272.27,-24.7933"/>
<polygon fill="midnightblue" stroke="midnightblue" points="2274.02,-21.7611 2263.62,-19.7213 2270.48,-27.7993 2274.02,-21.7611"/>
</g>
<!-- Node40&#45;&gt;Node22 -->
<g id="edge130" class="edge"><title>Node40&#45;&gt;Node22</title>
<path fill="none" stroke="midnightblue" d="M2303.37,-168.456C2324.92,-156.656 2357.17,-134.293 2343,-112 2332.84,-96.0096 2315.32,-85.6029 2298.02,-78.8748"/>
<polygon fill="midnightblue" stroke="midnightblue" points="2299.07,-75.5334 2288.47,-75.5034 2296.73,-82.1339 2299.07,-75.5334"/>
</g>
<!-- Node40&#45;&gt;Node23 -->
<g id="edge132" class="edge"><title>Node40&#45;&gt;Node23</title>
<path fill="none" stroke="midnightblue" d="M2286,-168.083C2286,-161.006 2286,-150.861 2286,-141.986"/>
<polygon fill="midnightblue" stroke="midnightblue" points="2289.5,-141.751 2286,-131.751 2282.5,-141.751 2289.5,-141.751"/>
</g>
<!-- Node41&#45;&gt;Node21 -->
<g id="edge136" class="edge"><title>Node41&#45;&gt;Node21</title>
<path fill="none" stroke="midnightblue" d="M2041.46,-168.205C2038.17,-154.906 2034.07,-129.389 2045,-112 2077.05,-61.0227 2143.34,-34.86 2191.26,-22.0851"/>
<polygon fill="midnightblue" stroke="midnightblue" points="2192.36,-25.4169 2201.19,-19.5581 2190.63,-18.6332 2192.36,-25.4169"/>
</g>
<!-- Node41&#45;&gt;Node22 -->
<g id="edge138" class="edge"><title>Node41&#45;&gt;Node22</title>
<path fill="none" stroke="midnightblue" d="M2043.79,-168.477C2043.94,-154.601 2046.36,-127.156 2062,-112 2080.19,-94.3745 2142.9,-81.7248 2190.31,-74.41"/>
<polygon fill="midnightblue" stroke="midnightblue" points="2191.11,-77.8301 2200.48,-72.8862 2190.07,-70.9075 2191.11,-77.8301"/>
</g>
<!-- Node41&#45;&gt;Node24 -->
<g id="edge140" class="edge"><title>Node41&#45;&gt;Node24</title>
<path fill="none" stroke="midnightblue" d="M2057.17,-168.324C2069.85,-159.979 2089.23,-147.212 2104.21,-137.352"/>
<polygon fill="midnightblue" stroke="midnightblue" points="2106.43,-140.078 2112.86,-131.655 2102.58,-134.231 2106.43,-140.078"/>
</g>
<!-- Node42&#45;&gt;Node25 -->
<g id="edge144" class="edge"><title>Node42&#45;&gt;Node25</title>
<path fill="none" stroke="midnightblue" d="M2558.89,-168.424C2605.9,-160.959 2664.2,-148.707 2682,-132 2694.64,-120.142 2699.36,-100.517 2701.09,-85.9274"/>
<polygon fill="midnightblue" stroke="midnightblue" points="2704.61,-85.8007 2701.92,-75.5513 2697.63,-85.2369 2704.61,-85.8007"/>
</g>
<!-- Node42&#45;&gt;Node26 -->
<g id="edge146" class="edge"><title>Node42&#45;&gt;Node26</title>
<path fill="none" stroke="midnightblue" d="M2511.83,-168.324C2529.72,-159.625 2557.48,-146.12 2578.05,-136.113"/>
<polygon fill="midnightblue" stroke="midnightblue" points="2579.75,-139.177 2587.21,-131.655 2576.69,-132.882 2579.75,-139.177"/>
</g>
<!-- Node43&#45;&gt;Node27 -->
<g id="edge150" class="edge"><title>Node43&#45;&gt;Node27</title>
<path fill="none" stroke="midnightblue" d="M2829.35,-168.083C2828.02,-160.927 2826.12,-150.635 2824.46,-141.691"/>
<polygon fill="midnightblue" stroke="midnightblue" points="2827.88,-140.947 2822.62,-131.751 2821,-142.221 2827.88,-140.947"/>
</g>
<!-- Node44&#45;&gt;Node29 -->
<g id="edge154" class="edge"><title>Node44&#45;&gt;Node29</title>
<path fill="none" stroke="midnightblue" d="M3228,-112.083C3228,-105.006 3228,-94.8611 3228,-85.9865"/>
<polygon fill="midnightblue" stroke="midnightblue" points="3231.5,-85.751 3228,-75.7511 3224.5,-85.7511 3231.5,-85.751"/>
</g>
<!-- Node45&#45;&gt;Node27 -->
<g id="edge158" class="edge"><title>Node45&#45;&gt;Node27</title>
<path fill="none" stroke="midnightblue" d="M2926.19,-168.444C2905.71,-159.596 2873.52,-145.687 2850.14,-135.586"/>
<polygon fill="midnightblue" stroke="midnightblue" points="2851.28,-132.269 2840.71,-131.516 2848.51,-138.695 2851.28,-132.269"/>
</g>
<!-- Node46&#45;&gt;Node30 -->
<g id="edge162" class="edge"><title>Node46&#45;&gt;Node30</title>
<path fill="none" stroke="midnightblue" d="M3094.83,-168.083C3095.48,-161.006 3096.42,-150.861 3097.24,-141.986"/>
<polygon fill="midnightblue" stroke="midnightblue" points="3100.75,-142.031 3098.19,-131.751 3093.78,-141.386 3100.75,-142.031"/>
</g>
</g>
</svg>
