<?xml version="1.0" encoding="UTF-8" standalone="no"?>
<!DOCTYPE svg PUBLIC "-//W3C//DTD SVG 1.1//EN"
 "http://www.w3.org/Graphics/SVG/1.1/DTD/svg11.dtd">
<!-- Generated by graphviz version 2.28.0 (20110610.2051)
 -->
<!-- Title: G Pages: 1 -->
<svg width="2482pt" height="196pt"
 viewBox="0.00 0.00 2482.00 196.00" xmlns="http://www.w3.org/2000/svg" xmlns:xlink="http://www.w3.org/1999/xlink">
<g id="graph1" class="graph" transform="scale(1 1) rotate(0) translate(4 192)">
<title>G</title>
<polygon fill="white" stroke="white" points="-4,5 -4,-192 2479,-192 2479,5 -4,5"/>
<!-- Node1 -->
<g id="node1" class="node"><title>Node1</title>
<polygon fill="#bfbfbf" stroke="black" points="1181.5,-168.5 1181.5,-187.5 1318.5,-187.5 1318.5,-168.5 1181.5,-168.5"/>
<text text-anchor="middle" x="1250" y="-175.5" font-family="Helvetica,sans-Serif" font-size="10.00">pkg/AMORE/src/AMORE.h</text>
</g>
<!-- Node2 -->
<g id="node3" class="node"><title>Node2</title>
<polygon fill="white" stroke="#bfbfbf" points="0,-112.5 0,-131.5 56,-131.5 56,-112.5 0,-112.5"/>
<text text-anchor="middle" x="28" y="-119.5" font-family="Helvetica,sans-Serif" font-size="10.00">iostream</text>
</g>
<!-- Node1&#45;&gt;Node2 -->
<g id="edge2" class="edge"><title>Node1&#45;&gt;Node2</title>
<path fill="none" stroke="midnightblue" d="M1181.25,-176.201C965.481,-173.412 302.611,-162.634 66.4175,-131.855"/>
<polygon fill="midnightblue" stroke="midnightblue" points="66.5482,-128.341 56.1693,-130.469 65.61,-135.278 66.5482,-128.341"/>
</g>
<!-- Node3 -->
<g id="node5" class="node"><title>Node3</title>
<polygon fill="white" stroke="#bfbfbf" points="74.5,-112.5 74.5,-131.5 127.5,-131.5 127.5,-112.5 74.5,-112.5"/>
<text text-anchor="middle" x="101" y="-119.5" font-family="Helvetica,sans-Serif" font-size="10.00">sstream</text>
</g>
<!-- Node1&#45;&gt;Node3 -->
<g id="edge4" class="edge"><title>Node1&#45;&gt;Node3</title>
<path fill="none" stroke="midnightblue" d="M1181.32,-176.125C974.52,-173.196 358.877,-162.241 137.858,-131.926"/>
<polygon fill="midnightblue" stroke="midnightblue" points="138.029,-128.415 127.634,-130.467 137.04,-135.344 138.029,-128.415"/>
</g>
<!-- Node4 -->
<g id="node7" class="node"><title>Node4</title>
<polygon fill="white" stroke="#bfbfbf" points="145.5,-112.5 145.5,-131.5 204.5,-131.5 204.5,-112.5 145.5,-112.5"/>
<text text-anchor="middle" x="175" y="-119.5" font-family="Helvetica,sans-Serif" font-size="10.00">algorithm</text>
</g>
<!-- Node1&#45;&gt;Node4 -->
<g id="edge6" class="edge"><title>Node1&#45;&gt;Node4</title>
<path fill="none" stroke="midnightblue" d="M1181.25,-175.659C984.523,-171.567 420.891,-157.983 214.833,-131.784"/>
<polygon fill="midnightblue" stroke="midnightblue" points="215.079,-128.286 204.707,-130.447 214.162,-135.226 215.079,-128.286"/>
</g>
<!-- Node5 -->
<g id="node9" class="node"><title>Node5</title>
<polygon fill="white" stroke="#bfbfbf" points="223,-112.5 223,-131.5 269,-131.5 269,-112.5 223,-112.5"/>
<text text-anchor="middle" x="246" y="-119.5" font-family="Helvetica,sans-Serif" font-size="10.00">vector</text>
</g>
<!-- Node1&#45;&gt;Node5 -->
<g id="edge8" class="edge"><title>Node1&#45;&gt;Node5</title>
<path fill="none" stroke="midnightblue" d="M1181.36,-175.854C993.214,-172.396 471.064,-160.588 279.256,-131.773"/>
<polygon fill="midnightblue" stroke="midnightblue" points="279.702,-128.3 269.281,-130.21 278.619,-135.216 279.702,-128.3"/>
</g>
<!-- Node6 -->
<g id="node11" class="node"><title>Node6</title>
<polygon fill="white" stroke="#bfbfbf" points="287,-112.5 287,-131.5 337,-131.5 337,-112.5 287,-112.5"/>
<text text-anchor="middle" x="312" y="-119.5" font-family="Helvetica,sans-Serif" font-size="10.00">iterator</text>
</g>
<!-- Node1&#45;&gt;Node6 -->
<g id="edge10" class="edge"><title>Node1&#45;&gt;Node6</title>
<path fill="none" stroke="midnightblue" d="M1181.4,-175.375C999.483,-170.779 507.714,-156.411 347,-132 346.899,-131.985 346.798,-131.969 346.697,-131.954"/>
<polygon fill="midnightblue" stroke="midnightblue" points="347.592,-128.562 337.11,-130.104 346.265,-135.435 347.592,-128.562"/>
</g>
<!-- Node7 -->
<g id="node13" class="node"><title>Node7</title>
<polygon fill="white" stroke="#bfbfbf" points="355.5,-112.5 355.5,-131.5 470.5,-131.5 470.5,-112.5 355.5,-112.5"/>
<text text-anchor="middle" x="413" y="-119.5" font-family="Helvetica,sans-Serif" font-size="10.00">boost/shared_ptr.hpp</text>
</g>
<!-- Node1&#45;&gt;Node7 -->
<g id="edge12" class="edge"><title>Node1&#45;&gt;Node7</title>
<path fill="none" stroke="midnightblue" d="M1181.37,-174.721C1048.36,-169.926 746.057,-157.185 480.921,-132.01"/>
<polygon fill="midnightblue" stroke="midnightblue" points="481,-128.501 470.712,-131.032 480.333,-135.47 481,-128.501"/>
</g>
<!-- Node8 -->
<g id="node15" class="node"><title>Node8</title>
<polygon fill="white" stroke="#bfbfbf" points="489,-112.5 489,-131.5 597,-131.5 597,-112.5 489,-112.5"/>
<text text-anchor="middle" x="543" y="-119.5" font-family="Helvetica,sans-Serif" font-size="10.00">boost/weak_ptr.hpp</text>
</g>
<!-- Node1&#45;&gt;Node8 -->
<g id="edge14" class="edge"><title>Node1&#45;&gt;Node8</title>
<path fill="none" stroke="midnightblue" d="M1181.23,-173.827C1065.14,-168.11 822.699,-154.628 607.492,-132.086"/>
<polygon fill="midnightblue" stroke="midnightblue" points="607.578,-128.576 597.265,-131.006 606.842,-135.537 607.578,-128.576"/>
</g>
<!-- Node9 -->
<g id="node17" class="node"><title>Node9</title>
<polygon fill="white" stroke="#bfbfbf" points="615,-112.5 615,-131.5 715,-131.5 715,-112.5 615,-112.5"/>
<text text-anchor="middle" x="665" y="-119.5" font-family="Helvetica,sans-Serif" font-size="10.00">boost/foreach.hpp</text>
</g>
<!-- Node1&#45;&gt;Node9 -->
<g id="edge16" class="edge"><title>Node1&#45;&gt;Node9</title>
<path fill="none" stroke="midnightblue" d="M1181.34,-172.579C1082.74,-165.907 895.105,-152.01 725.307,-132.083"/>
<polygon fill="midnightblue" stroke="midnightblue" points="725.523,-128.585 715.181,-130.885 724.701,-135.536 725.523,-128.585"/>
</g>
<!-- Node10 -->
<g id="node19" class="node"><title>Node10</title>
<polygon fill="white" stroke="#bfbfbf" points="733,-112.5 733,-131.5 811,-131.5 811,-112.5 733,-112.5"/>
<text text-anchor="middle" x="772" y="-119.5" font-family="Helvetica,sans-Serif" font-size="10.00">boost/ref.hpp</text>
</g>
<!-- Node1&#45;&gt;Node10 -->
<g id="edge18" class="edge"><title>Node1&#45;&gt;Node10</title>
<path fill="none" stroke="midnightblue" d="M1181.27,-171.537C1098.28,-164.553 954.256,-151.195 821.216,-132.074"/>
<polygon fill="midnightblue" stroke="midnightblue" points="821.648,-128.6 811.249,-130.627 820.643,-135.527 821.648,-128.6"/>
</g>
<!-- Node11 -->
<g id="node21" class="node"><title>Node11</title>
<polygon fill="white" stroke="#bfbfbf" points="829,-112.5 829,-131.5 879,-131.5 879,-112.5 829,-112.5"/>
<text text-anchor="middle" x="854" y="-119.5" font-family="Helvetica,sans-Serif" font-size="10.00">Rcpp.h</text>
</g>
<!-- Node1&#45;&gt;Node11 -->
<g id="edge20" class="edge"><title>Node1&#45;&gt;Node11</title>
<path fill="none" stroke="midnightblue" d="M1181.25,-170.425C1109.13,-163.04 992.636,-149.729 893,-132 891.73,-131.774 890.439,-131.534 889.137,-131.282"/>
<polygon fill="midnightblue" stroke="midnightblue" points="889.603,-127.804 879.098,-129.186 888.172,-134.656 889.603,-127.804"/>
</g>
<!-- Node12 -->
<g id="node23" class="node"><title>Node12</title>
<a xlink:href="_con_8h.html" target="_top" xlink:title="dia/Con.h">
<polygon fill="white" stroke="black" points="1085.5,-56.5 1085.5,-75.5 1144.5,-75.5 1144.5,-56.5 1085.5,-56.5"/>
<text text-anchor="middle" x="1115" y="-63.5" font-family="Helvetica,sans-Serif" font-size="10.00">dia/Con.h</text>
</a>
</g>
<!-- Node1&#45;&gt;Node12 -->
<g id="edge22" class="edge"><title>Node1&#45;&gt;Node12</title>
<path fill="none" stroke="midnightblue" d="M1181.3,-169.45C1157.51,-163.228 1133.05,-152.037 1118,-132 1108.15,-118.886 1108.51,-99.7395 1110.66,-85.6216"/>
<polygon fill="midnightblue" stroke="midnightblue" points="1114.14,-86.0731 1112.62,-75.5886 1107.27,-84.7355 1114.14,-86.0731"/>
</g>
<!-- Node13 -->
<g id="node25" class="node"><title>Node13</title>
<a xlink:href="_predict_behavior_8h.html" target="_top" xlink:title="dia/PredictBehavior.h">
<polygon fill="white" stroke="black" points="921,-0.5 921,-19.5 1035,-19.5 1035,-0.5 921,-0.5"/>
<text text-anchor="middle" x="978" y="-7.5" font-family="Helvetica,sans-Serif" font-size="10.00">dia/PredictBehavior.h</text>
</a>
</g>
<!-- Node1&#45;&gt;Node13 -->
<g id="edge24" class="edge"><title>Node1&#45;&gt;Node13</title>
<path fill="none" stroke="midnightblue" d="M1181.43,-173.075C1105.97,-167.638 990.528,-155.681 954,-132 922.638,-111.669 901.285,-89.4298 918,-56 924.728,-42.5432 937.606,-32.0665 949.712,-24.6212"/>
<polygon fill="midnightblue" stroke="midnightblue" points="951.733,-27.4985 958.704,-19.5195 948.279,-21.4101 951.733,-27.4985"/>
</g>
<!-- Node14 -->
<g id="node27" class="node"><title>Node14</title>
<a xlink:href="_m_l_pbehavior_8h.html" target="_top" xlink:title="dia/MLPBehavior.h">
<polygon fill="white" stroke="black" points="927,-56.5 927,-75.5 1029,-75.5 1029,-56.5 927,-56.5"/>
<text text-anchor="middle" x="978" y="-63.5" font-family="Helvetica,sans-Serif" font-size="10.00">dia/MLPBehavior.h</text>
</a>
</g>
<!-- Node1&#45;&gt;Node14 -->
<g id="edge26" class="edge"><title>Node1&#45;&gt;Node14</title>
<path fill="none" stroke="midnightblue" d="M1181.48,-176.032C1106.19,-173.345 992.294,-163.942 965,-132 953.823,-118.92 960.134,-98.9496 967.319,-84.5973"/>
<polygon fill="midnightblue" stroke="midnightblue" points="970.456,-86.1578 972.229,-75.7124 964.329,-82.7721 970.456,-86.1578"/>
</g>
<!-- Node15 -->
<g id="node30" class="node"><title>Node15</title>
<a xlink:href="_neuron_8h.html" target="_top" xlink:title="dia/Neuron.h">
<polygon fill="white" stroke="black" points="1174,-0.5 1174,-19.5 1248,-19.5 1248,-0.5 1174,-0.5"/>
<text text-anchor="middle" x="1211" y="-7.5" font-family="Helvetica,sans-Serif" font-size="10.00">dia/Neuron.h</text>
</a>
</g>
<!-- Node1&#45;&gt;Node15 -->
<g id="edge30" class="edge"><title>Node1&#45;&gt;Node15</title>
<path fill="none" stroke="midnightblue" d="M1245.31,-168.297C1240.72,-159.418 1233.87,-145.12 1230,-132 1219.6,-96.7714 1214.59,-53.9946 1212.42,-29.8946"/>
<polygon fill="midnightblue" stroke="midnightblue" points="1215.89,-29.3568 1211.58,-19.679 1208.91,-29.9332 1215.89,-29.3568"/>
</g>
<!-- Node16 -->
<g id="node32" class="node"><title>Node16</title>
<a xlink:href="_simple_neuron_8h.html" target="_top" xlink:title="dia/SimpleNeuron.h">
<polygon fill="white" stroke="black" points="1239,-56.5 1239,-75.5 1345,-75.5 1345,-56.5 1239,-56.5"/>
<text text-anchor="middle" x="1292" y="-63.5" font-family="Helvetica,sans-Serif" font-size="10.00">dia/SimpleNeuron.h</text>
</a>
</g>
<!-- Node1&#45;&gt;Node16 -->
<g id="edge32" class="edge"><title>Node1&#45;&gt;Node16</title>
<path fill="none" stroke="midnightblue" d="M1294.7,-168.476C1315.23,-162.086 1337.7,-151.025 1350,-132 1362.59,-112.529 1339.3,-93.0666 1318.59,-80.5863"/>
<polygon fill="midnightblue" stroke="midnightblue" points="1320.11,-77.426 1309.69,-75.527 1316.65,-83.5115 1320.11,-77.426"/>
</g>
<!-- Node17 -->
<g id="node35" class="node"><title>Node17</title>
<a xlink:href="_neural_factory_8h.html" target="_top" xlink:title="dia/NeuralFactory.h">
<polygon fill="white" stroke="black" points="1393,-0.5 1393,-19.5 1497,-19.5 1497,-0.5 1393,-0.5"/>
<text text-anchor="middle" x="1445" y="-7.5" font-family="Helvetica,sans-Serif" font-size="10.00">dia/NeuralFactory.h</text>
</a>
</g>
<!-- Node1&#45;&gt;Node17 -->
<g id="edge36" class="edge"><title>Node1&#45;&gt;Node17</title>
<path fill="none" stroke="midnightblue" d="M1287.97,-168.462C1311.97,-161.628 1342.57,-150.127 1365,-132 1400.29,-103.476 1425.53,-55.1657 1437.39,-29.05"/>
<polygon fill="midnightblue" stroke="midnightblue" points="1440.71,-30.1931 1441.52,-19.6293 1434.3,-27.3823 1440.71,-30.1931"/>
</g>
<!-- Node18 -->
<g id="node37" class="node"><title>Node18</title>
<a xlink:href="_m_l_pfactory_8h.html" target="_top" xlink:title="dia/MLPfactory.h">
<polygon fill="white" stroke="black" points="1473.5,-56.5 1473.5,-75.5 1566.5,-75.5 1566.5,-56.5 1473.5,-56.5"/>
<text text-anchor="middle" x="1520" y="-63.5" font-family="Helvetica,sans-Serif" font-size="10.00">dia/MLPfactory.h</text>
</a>
</g>
<!-- Node1&#45;&gt;Node18 -->
<g id="edge38" class="edge"><title>Node1&#45;&gt;Node18</title>
<path fill="none" stroke="midnightblue" d="M1318.72,-175.934C1393.48,-173.147 1505.99,-163.643 1533,-132 1544.17,-118.914 1537.86,-98.9446 1530.68,-84.5942"/>
<polygon fill="midnightblue" stroke="midnightblue" points="1533.67,-82.7709 1525.77,-75.7107 1527.54,-86.1562 1533.67,-82.7709"/>
</g>
<!-- Node19 -->
<g id="node40" class="node"><title>Node19</title>
<a xlink:href="_neural_creator_8h.html" target="_top" xlink:title="dia/NeuralCreator.h">
<polygon fill="white" stroke="black" points="1618,-0.5 1618,-19.5 1722,-19.5 1722,-0.5 1618,-0.5"/>
<text text-anchor="middle" x="1670" y="-7.5" font-family="Helvetica,sans-Serif" font-size="10.00">dia/NeuralCreator.h</text>
</a>
</g>
<!-- Node1&#45;&gt;Node19 -->
<g id="edge42" class="edge"><title>Node1&#45;&gt;Node19</title>
<path fill="none" stroke="midnightblue" d="M1318.67,-171.735C1394.37,-165.055 1510.66,-151.945 1550,-132 1598.86,-107.228 1639.82,-54.9866 1658.75,-27.9743"/>
<polygon fill="midnightblue" stroke="midnightblue" points="1661.74,-29.7892 1664.5,-19.5582 1655.97,-25.8394 1661.74,-29.7892"/>
</g>
<!-- Node20 -->
<g id="node42" class="node"><title>Node20</title>
<a xlink:href="_simple_neural_creator_8h.html" target="_top" xlink:title="dia/SimpleNeuralCreator.h">
<polygon fill="white" stroke="black" points="1698.5,-56.5 1698.5,-75.5 1835.5,-75.5 1835.5,-56.5 1698.5,-56.5"/>
<text text-anchor="middle" x="1767" y="-63.5" font-family="Helvetica,sans-Serif" font-size="10.00">dia/SimpleNeuralCreator.h</text>
</a>
</g>
<!-- Node1&#45;&gt;Node20 -->
<g id="edge44" class="edge"><title>Node1&#45;&gt;Node20</title>
<path fill="none" stroke="midnightblue" d="M1318.74,-175.753C1450.93,-172.67 1730.29,-162.576 1761,-132 1772.9,-120.148 1773.03,-100.231 1771.03,-85.5608"/>
<polygon fill="midnightblue" stroke="midnightblue" points="1774.46,-84.8131 1769.25,-75.5858 1767.57,-86.0459 1774.46,-84.8131"/>
</g>
<!-- Node21 -->
<g id="node45" class="node"><title>Node21</title>
<a xlink:href="_container_8h.html" target="_top" xlink:title="dia/Container.h">
<polygon fill="white" stroke="black" points="1876.5,-56.5 1876.5,-75.5 1961.5,-75.5 1961.5,-56.5 1876.5,-56.5"/>
<text text-anchor="middle" x="1919" y="-63.5" font-family="Helvetica,sans-Serif" font-size="10.00">dia/Container.h</text>
</a>
</g>
<!-- Node1&#45;&gt;Node21 -->
<g id="edge48" class="edge"><title>Node1&#45;&gt;Node21</title>
<path fill="none" stroke="midnightblue" d="M1318.54,-174.143C1441.33,-168.531 1693.93,-154.609 1779,-132 1822.55,-120.425 1869.3,-96.007 1896.25,-80.6151"/>
<polygon fill="midnightblue" stroke="midnightblue" points="1898.03,-83.6303 1904.92,-75.5831 1894.51,-77.5763 1898.03,-83.6303"/>
</g>
<!-- Node22 -->
<g id="node47" class="node"><title>Node22</title>
<a xlink:href="_simple_container_8h.html" target="_top" xlink:title="dia/SimpleContainer.h">
<polygon fill="white" stroke="black" points="1847.5,-112.5 1847.5,-131.5 1964.5,-131.5 1964.5,-112.5 1847.5,-112.5"/>
<text text-anchor="middle" x="1906" y="-119.5" font-family="Helvetica,sans-Serif" font-size="10.00">dia/SimpleContainer.h</text>
</a>
</g>
<!-- Node1&#45;&gt;Node22 -->
<g id="edge50" class="edge"><title>Node1&#45;&gt;Node22</title>
<path fill="none" stroke="midnightblue" d="M1318.75,-172.714C1427.87,-165.68 1647.39,-150.595 1833,-132 1834.47,-131.853 1835.95,-131.701 1837.45,-131.544"/>
<polygon fill="midnightblue" stroke="midnightblue" points="1837.89,-135.017 1847.46,-130.456 1837.14,-128.058 1837.89,-135.017"/>
</g>
<!-- Node23 -->
<g id="node50" class="node"><title>Node23</title>
<a xlink:href="_iterator_8h.html" target="_top" xlink:title="dia/Iterator.h">
<polygon fill="white" stroke="black" points="2224,-0.5 2224,-19.5 2298,-19.5 2298,-0.5 2224,-0.5"/>
<text text-anchor="middle" x="2261" y="-7.5" font-family="Helvetica,sans-Serif" font-size="10.00">dia/Iterator.h</text>
</a>
</g>
<!-- Node1&#45;&gt;Node23 -->
<g id="edge54" class="edge"><title>Node1&#45;&gt;Node23</title>
<path fill="none" stroke="midnightblue" d="M1318.7,-175.874C1534.02,-172.074 2183.65,-158.461 2220,-132 2252.48,-108.358 2259.52,-57.5997 2260.87,-29.9306"/>
<polygon fill="midnightblue" stroke="midnightblue" points="2264.37,-29.7248 2261.15,-19.6323 2257.37,-29.5322 2264.37,-29.7248"/>
</g>
<!-- Node24 -->
<g id="node52" class="node"><title>Node24</title>
<a xlink:href="_simple_container_iterator_8h.html" target="_top" xlink:title="dia/SimpleContainerIterator.h">
<polygon fill="white" stroke="black" points="2289.5,-56.5 2289.5,-75.5 2440.5,-75.5 2440.5,-56.5 2289.5,-56.5"/>
<text text-anchor="middle" x="2365" y="-63.5" font-family="Helvetica,sans-Serif" font-size="10.00">dia/SimpleContainerIterator.h</text>
</a>
</g>
<!-- Node1&#45;&gt;Node24 -->
<g id="edge56" class="edge"><title>Node1&#45;&gt;Node24</title>
<path fill="none" stroke="midnightblue" d="M1318.7,-176.264C1533.79,-173.643 2185.31,-163.192 2275,-132 2304.41,-121.772 2332.55,-98.5647 2349.3,-82.8346"/>
<polygon fill="midnightblue" stroke="midnightblue" points="2351.82,-85.272 2356.57,-75.8028 2346.95,-80.2416 2351.82,-85.272"/>
</g>
<!-- Node25 -->
<g id="node55" class="node"><title>Node25</title>
<a xlink:href="_con_8cpp.html" target="_top" xlink:title="Con.cpp">
<polygon fill="white" stroke="black" points="1127,-112.5 1127,-131.5 1183,-131.5 1183,-112.5 1127,-112.5"/>
<text text-anchor="middle" x="1155" y="-119.5" font-family="Helvetica,sans-Serif" font-size="10.00">Con.cpp</text>
</a>
</g>
<!-- Node1&#45;&gt;Node25 -->
<g id="edge60" class="edge"><title>Node1&#45;&gt;Node25</title>
<path fill="none" stroke="midnightblue" d="M1234.74,-168.324C1219.78,-159.822 1196.75,-146.729 1179.27,-136.797"/>
<polygon fill="midnightblue" stroke="midnightblue" points="1180.65,-133.553 1170.23,-131.655 1177.19,-139.639 1180.65,-133.553"/>
</g>
<!-- Node26 -->
<g id="node59" class="node"><title>Node26</title>
<a xlink:href="_m_l_pbehavior_8cpp.html" target="_top" xlink:title="MLPbehavior.cpp">
<polygon fill="white" stroke="black" points="973.5,-112.5 973.5,-131.5 1070.5,-131.5 1070.5,-112.5 973.5,-112.5"/>
<text text-anchor="middle" x="1022" y="-119.5" font-family="Helvetica,sans-Serif" font-size="10.00">MLPbehavior.cpp</text>
</a>
</g>
<!-- Node1&#45;&gt;Node26 -->
<g id="edge66" class="edge"><title>Node1&#45;&gt;Node26</title>
<path fill="none" stroke="midnightblue" d="M1213.87,-168.444C1174.35,-159.083 1110.9,-144.056 1067.89,-133.868"/>
<polygon fill="midnightblue" stroke="midnightblue" points="1068.5,-130.415 1057.96,-131.516 1066.88,-137.227 1068.5,-130.415"/>
</g>
<!-- Node27 -->
<g id="node63" class="node"><title>Node27</title>
<a xlink:href="_simple_neuron_8cpp.html" target="_top" xlink:title="SimpleNeuron.cpp">
<polygon fill="white" stroke="black" points="1239,-112.5 1239,-131.5 1341,-131.5 1341,-112.5 1239,-112.5"/>
<text text-anchor="middle" x="1290" y="-119.5" font-family="Helvetica,sans-Serif" font-size="10.00">SimpleNeuron.cpp</text>
</a>
</g>
<!-- Node1&#45;&gt;Node27 -->
<g id="edge72" class="edge"><title>Node1&#45;&gt;Node27</title>
<path fill="none" stroke="midnightblue" d="M1256.61,-168.083C1262.26,-160.455 1270.54,-149.264 1277.45,-139.941"/>
<polygon fill="midnightblue" stroke="midnightblue" points="1280.38,-141.87 1283.52,-131.751 1274.75,-137.703 1280.38,-141.87"/>
</g>
<!-- Node28 -->
<g id="node66" class="node"><title>Node28</title>
<a xlink:href="_m_l_pfactory_8cpp.html" target="_top" xlink:title="MLPfactory.cpp">
<polygon fill="white" stroke="black" points="1435.5,-112.5 1435.5,-131.5 1524.5,-131.5 1524.5,-112.5 1435.5,-112.5"/>
<text text-anchor="middle" x="1480" y="-119.5" font-family="Helvetica,sans-Serif" font-size="10.00">MLPfactory.cpp</text>
</a>
</g>
<!-- Node1&#45;&gt;Node28 -->
<g id="edge76" class="edge"><title>Node1&#45;&gt;Node28</title>
<path fill="none" stroke="midnightblue" d="M1286.44,-168.444C1326.4,-159.063 1390.59,-143.993 1433.98,-133.804"/>
<polygon fill="midnightblue" stroke="midnightblue" points="1434.79,-137.21 1443.73,-131.516 1433.19,-130.395 1434.79,-137.21"/>
</g>
<!-- Node29 -->
<g id="node70" class="node"><title>Node29</title>
<a xlink:href="_simple_neural_creator_8cpp.html" target="_top" xlink:title="SimpleNeuralCreator.cpp">
<polygon fill="white" stroke="black" points="1619.5,-112.5 1619.5,-131.5 1752.5,-131.5 1752.5,-112.5 1619.5,-112.5"/>
<text text-anchor="middle" x="1686" y="-119.5" font-family="Helvetica,sans-Serif" font-size="10.00">SimpleNeuralCreator.cpp</text>
</a>
</g>
<!-- Node1&#45;&gt;Node29 -->
<g id="edge82" class="edge"><title>Node1&#45;&gt;Node29</title>
<path fill="none" stroke="midnightblue" d="M1318.6,-168.503C1397.57,-158.723 1526.91,-142.703 1609.18,-132.514"/>
<polygon fill="midnightblue" stroke="midnightblue" points="1609.73,-135.973 1619.23,-131.27 1608.87,-129.026 1609.73,-135.973"/>
</g>
<!-- Node30 -->
<g id="node74" class="node"><title>Node30</title>
<a xlink:href="_container_8cpp.html" target="_top" xlink:title="Container.cpp">
<polygon fill="white" stroke="black" points="1982.5,-112.5 1982.5,-131.5 2063.5,-131.5 2063.5,-112.5 1982.5,-112.5"/>
<text text-anchor="middle" x="2023" y="-119.5" font-family="Helvetica,sans-Serif" font-size="10.00">Container.cpp</text>
</a>
</g>
<!-- Node1&#45;&gt;Node30 -->
<g id="edge88" class="edge"><title>Node1&#45;&gt;Node30</title>
<path fill="none" stroke="midnightblue" d="M1318.52,-175.38C1445.44,-171.802 1725.78,-161.195 1972.17,-131.941"/>
<polygon fill="midnightblue" stroke="midnightblue" points="1972.89,-135.381 1982.4,-130.714 1972.05,-128.431 1972.89,-135.381"/>
</g>
<!-- Node31 -->
<g id="node77" class="node"><title>Node31</title>
<a xlink:href="_iterator_8cpp.html" target="_top" xlink:title="Iterator.cpp">
<polygon fill="white" stroke="black" points="2161.5,-56.5 2161.5,-75.5 2232.5,-75.5 2232.5,-56.5 2161.5,-56.5"/>
<text text-anchor="middle" x="2197" y="-63.5" font-family="Helvetica,sans-Serif" font-size="10.00">Iterator.cpp</text>
</a>
</g>
<!-- Node1&#45;&gt;Node31 -->
<g id="edge92" class="edge"><title>Node1&#45;&gt;Node31</title>
<path fill="none" stroke="midnightblue" d="M1318.68,-176.323C1532.28,-173.884 2172.54,-163.929 2203,-132 2214.71,-119.727 2210.67,-99.5861 2205.3,-84.973"/>
<polygon fill="midnightblue" stroke="midnightblue" points="2208.44,-83.3894 2201.36,-75.5008 2201.97,-86.0781 2208.44,-83.3894"/>
</g>
<!-- Node32 -->
<g id="node80" class="node"><title>Node32</title>
<a xlink:href="_simple_container_8cpp.html" target="_top" xlink:title="SimpleContainer.cpp">
<polygon fill="white" stroke="black" points="2081.5,-112.5 2081.5,-131.5 2194.5,-131.5 2194.5,-112.5 2081.5,-112.5"/>
<text text-anchor="middle" x="2138" y="-119.5" font-family="Helvetica,sans-Serif" font-size="10.00">SimpleContainer.cpp</text>
</a>
</g>
<!-- Node1&#45;&gt;Node32 -->
<g id="edge96" class="edge"><title>Node1&#45;&gt;Node32</title>
<path fill="none" stroke="midnightblue" d="M1318.61,-175.119C1458.21,-170.883 1785.53,-158.871 2071.01,-132.011"/>
<polygon fill="midnightblue" stroke="midnightblue" points="2071.53,-135.478 2081.15,-131.049 2070.87,-128.509 2071.53,-135.478"/>
</g>
<!-- Node33 -->
<g id="node83" class="node"><title>Node33</title>
<a xlink:href="_simple_container_iterator_8cpp.html" target="_top" xlink:title="SimpleContainerIterator.cpp">
<polygon fill="white" stroke="black" points="2327.5,-112.5 2327.5,-131.5 2474.5,-131.5 2474.5,-112.5 2327.5,-112.5"/>
<text text-anchor="middle" x="2401" y="-119.5" font-family="Helvetica,sans-Serif" font-size="10.00">SimpleContainerIterator.cpp</text>
</a>
</g>
<!-- Node1&#45;&gt;Node33 -->
<g id="edge100" class="edge"><title>Node1&#45;&gt;Node33</title>
<path fill="none" stroke="midnightblue" d="M1318.79,-175.508C1488.07,-171.529 1938.31,-159.067 2313,-132 2314.29,-131.907 2315.6,-131.81 2316.91,-131.709"/>
<polygon fill="midnightblue" stroke="midnightblue" points="2317.4,-135.181 2327.09,-130.882 2316.84,-128.204 2317.4,-135.181"/>
</g>
<!-- Node14&#45;&gt;Node13 -->
<g id="edge28" class="edge"><title>Node14&#45;&gt;Node13</title>
<path fill="none" stroke="midnightblue" d="M978,-56.083C978,-49.0059 978,-38.8611 978,-29.9865"/>
<polygon fill="midnightblue" stroke="midnightblue" points="981.5,-29.751 978,-19.7511 974.5,-29.7511 981.5,-29.751"/>
</g>
<!-- Node16&#45;&gt;Node15 -->
<g id="edge34" class="edge"><title>Node16&#45;&gt;Node15</title>
<path fill="none" stroke="midnightblue" d="M1278.99,-56.324C1266.47,-47.979 1247.32,-35.2122 1232.53,-25.3524"/>
<polygon fill="midnightblue" stroke="midnightblue" points="1234.24,-22.2894 1223.98,-19.6545 1230.36,-28.1137 1234.24,-22.2894"/>
</g>
<!-- Node18&#45;&gt;Node17 -->
<g id="edge40" class="edge"><title>Node18&#45;&gt;Node17</title>
<path fill="none" stroke="midnightblue" d="M1507.95,-56.324C1496.54,-48.1066 1479.17,-35.6017 1465.57,-25.8069"/>
<polygon fill="midnightblue" stroke="midnightblue" points="1467.43,-22.8366 1457.27,-19.8339 1463.34,-28.5174 1467.43,-22.8366"/>
</g>
<!-- Node20&#45;&gt;Node19 -->
<g id="edge46" class="edge"><title>Node20&#45;&gt;Node19</title>
<path fill="none" stroke="midnightblue" d="M1751.42,-56.324C1736,-47.7428 1712.19,-34.486 1694.29,-24.5224"/>
<polygon fill="midnightblue" stroke="midnightblue" points="1695.99,-21.4606 1685.55,-19.6545 1692.58,-27.5767 1695.99,-21.4606"/>
</g>
<!-- Node22&#45;&gt;Node21 -->
<g id="edge52" class="edge"><title>Node22&#45;&gt;Node21</title>
<path fill="none" stroke="midnightblue" d="M1908.15,-112.083C1909.87,-104.927 1912.35,-94.6353 1914.5,-85.6911"/>
<polygon fill="midnightblue" stroke="midnightblue" points="1917.96,-86.2925 1916.89,-75.7511 1911.15,-84.6541 1917.96,-86.2925"/>
</g>
<!-- Node24&#45;&gt;Node23 -->
<g id="edge58" class="edge"><title>Node24&#45;&gt;Node23</title>
<path fill="none" stroke="midnightblue" d="M2348.29,-56.324C2331.69,-47.7034 2306,-34.3643 2286.78,-24.3855"/>
<polygon fill="midnightblue" stroke="midnightblue" points="2288.16,-21.1565 2277.67,-19.6545 2284.93,-27.3689 2288.16,-21.1565"/>
</g>
<!-- Node25&#45;&gt;Node12 -->
<g id="edge62" class="edge"><title>Node25&#45;&gt;Node12</title>
<path fill="none" stroke="midnightblue" d="M1148.39,-112.083C1142.74,-104.455 1134.46,-93.2645 1127.55,-83.9408"/>
<polygon fill="midnightblue" stroke="midnightblue" points="1130.25,-81.7034 1121.48,-75.7511 1124.62,-85.87 1130.25,-81.7034"/>
</g>
<!-- Node25&#45;&gt;Node15 -->
<g id="edge64" class="edge"><title>Node25&#45;&gt;Node15</title>
<path fill="none" stroke="midnightblue" d="M1159.39,-112.368C1168.55,-94.376 1189.85,-52.5503 1202.03,-28.6267"/>
<polygon fill="midnightblue" stroke="midnightblue" points="1205.21,-30.091 1206.63,-19.5914 1198.97,-26.9152 1205.21,-30.091"/>
</g>
<!-- Node26&#45;&gt;Node13 -->
<g id="edge68" class="edge"><title>Node26&#45;&gt;Node13</title>
<path fill="none" stroke="midnightblue" d="M1027.87,-112.162C1035.64,-99.2443 1047.36,-74.7104 1038,-56 1031.27,-42.5432 1018.39,-32.0665 1006.29,-24.6212"/>
<polygon fill="midnightblue" stroke="midnightblue" points="1007.72,-21.4101 997.296,-19.5195 1004.27,-27.4985 1007.72,-21.4101"/>
</g>
<!-- Node26&#45;&gt;Node14 -->
<g id="edge70" class="edge"><title>Node26&#45;&gt;Node14</title>
<path fill="none" stroke="midnightblue" d="M1014.73,-112.083C1008.46,-104.377 999.212,-93.0333 991.569,-83.6531"/>
<polygon fill="midnightblue" stroke="midnightblue" points="994.161,-81.2926 985.131,-75.7511 988.734,-85.7143 994.161,-81.2926"/>
</g>
<!-- Node27&#45;&gt;Node16 -->
<g id="edge74" class="edge"><title>Node27&#45;&gt;Node16</title>
<path fill="none" stroke="midnightblue" d="M1290.33,-112.083C1290.59,-105.006 1290.97,-94.8611 1291.3,-85.9865"/>
<polygon fill="midnightblue" stroke="midnightblue" points="1294.8,-85.8738 1291.68,-75.7511 1287.81,-85.6147 1294.8,-85.8738"/>
</g>
<!-- Node28&#45;&gt;Node17 -->
<g id="edge78" class="edge"><title>Node28&#45;&gt;Node17</title>
<path fill="none" stroke="midnightblue" d="M1477.06,-112.393C1474,-103.35 1469.07,-88.7044 1465,-76 1459.99,-60.3644 1454.52,-42.5355 1450.57,-29.5099"/>
<polygon fill="midnightblue" stroke="midnightblue" points="1453.9,-28.4122 1447.65,-19.8518 1447.19,-30.4367 1453.9,-28.4122"/>
</g>
<!-- Node28&#45;&gt;Node18 -->
<g id="edge80" class="edge"><title>Node28&#45;&gt;Node18</title>
<path fill="none" stroke="midnightblue" d="M1486.61,-112.083C1492.26,-104.455 1500.54,-93.2645 1507.45,-83.9408"/>
<polygon fill="midnightblue" stroke="midnightblue" points="1510.38,-85.87 1513.52,-75.7511 1504.75,-81.7034 1510.38,-85.87"/>
</g>
<!-- Node29&#45;&gt;Node19 -->
<g id="edge84" class="edge"><title>Node29&#45;&gt;Node19</title>
<path fill="none" stroke="midnightblue" d="M1684.74,-112.368C1682.16,-94.617 1676.21,-53.6664 1672.71,-29.5974"/>
<polygon fill="midnightblue" stroke="midnightblue" points="1676.15,-28.9835 1671.25,-19.5914 1669.23,-29.9911 1676.15,-28.9835"/>
</g>
<!-- Node29&#45;&gt;Node20 -->
<g id="edge86" class="edge"><title>Node29&#45;&gt;Node20</title>
<path fill="none" stroke="midnightblue" d="M1699.01,-112.324C1711.53,-103.979 1730.68,-91.2122 1745.47,-81.3524"/>
<polygon fill="midnightblue" stroke="midnightblue" points="1747.64,-84.1137 1754.02,-75.6545 1743.76,-78.2894 1747.64,-84.1137"/>
</g>
<!-- Node30&#45;&gt;Node21 -->
<g id="edge90" class="edge"><title>Node30&#45;&gt;Node21</title>
<path fill="none" stroke="midnightblue" d="M2006.29,-112.324C1989.69,-103.703 1964,-90.3643 1944.78,-80.3855"/>
<polygon fill="midnightblue" stroke="midnightblue" points="1946.16,-77.1565 1935.67,-75.6545 1942.93,-83.3689 1946.16,-77.1565"/>
</g>
<!-- Node31&#45;&gt;Node23 -->
<g id="edge94" class="edge"><title>Node31&#45;&gt;Node23</title>
<path fill="none" stroke="midnightblue" d="M2207.28,-56.324C2216.84,-48.2631 2231.28,-36.0765 2242.78,-26.3695"/>
<polygon fill="midnightblue" stroke="midnightblue" points="2245.14,-28.9577 2250.53,-19.8339 2240.63,-23.6076 2245.14,-28.9577"/>
</g>
<!-- Node32&#45;&gt;Node21 -->
<g id="edge98" class="edge"><title>Node32&#45;&gt;Node21</title>
<path fill="none" stroke="midnightblue" d="M2103.3,-112.444C2065.42,-103.102 2004.65,-88.1194 1963.34,-77.9326"/>
<polygon fill="midnightblue" stroke="midnightblue" points="1964.09,-74.5123 1953.54,-75.5164 1962.41,-81.3088 1964.09,-74.5123"/>
</g>
<!-- Node33&#45;&gt;Node24 -->
<g id="edge102" class="edge"><title>Node33&#45;&gt;Node24</title>
<path fill="none" stroke="midnightblue" d="M2395.06,-112.083C2390.02,-104.534 2382.66,-93.4948 2376.49,-84.2298"/>
<polygon fill="midnightblue" stroke="midnightblue" points="2379.29,-82.1301 2370.83,-75.7511 2373.47,-86.0131 2379.29,-82.1301"/>
</g>
</g>
</svg>
