<?xml version="1.0" encoding="UTF-8" standalone="no"?>
<!DOCTYPE svg PUBLIC "-//W3C//DTD SVG 1.1//EN"
 "http://www.w3.org/Graphics/SVG/1.1/DTD/svg11.dtd">
<!-- Generated by graphviz version 2.25.20091207.0545 (20091207.0545)
 -->
<!-- Title: G Pages: 1 -->
<svg width="1616pt" height="140pt"
 viewBox="0.00 0.00 1616.00 140.00" xmlns="http://www.w3.org/2000/svg" xmlns:xlink="http://www.w3.org/1999/xlink">
<g id="graph1" class="graph" transform="scale(1 1) rotate(0) translate(4 136)">
<title>G</title>
<polygon fill="white" stroke="white" points="-4,5 -4,-136 1613,-136 1613,5 -4,5"/>
<!-- Node1 -->
<g id="node1" class="node"><title>Node1</title>
<polygon fill="#bfbfbf" stroke="black" points="704,-112.5 704,-131.5 840,-131.5 840,-112.5 704,-112.5"/>
<text text-anchor="middle" x="772" y="-118.5" font-family="Helvetica,sans-Serif" font-size="10.00">pkg/AMORE/src/AMORE.h</text>
</g>
<!-- Node2 -->
<g id="node3" class="node"><title>Node2</title>
<polygon fill="white" stroke="#bfbfbf" points="0,-56.5 0,-75.5 54,-75.5 54,-56.5 0,-56.5"/>
<text text-anchor="middle" x="27" y="-62.5" font-family="Helvetica,sans-Serif" font-size="10.00">iostream</text>
</g>
<!-- Node1&#45;&gt;Node2 -->
<g id="edge2" class="edge"><title>Node1&#45;&gt;Node2</title>
<path fill="none" stroke="midnightblue" d="M703.955,-119.376C554.954,-113.347 202.75,-97.4742 64.3666,-75.8671"/>
<polygon fill="midnightblue" stroke="midnightblue" points="64.8196,-72.3947 54.3857,-74.2342 63.6894,-79.3029 64.8196,-72.3947"/>
</g>
<!-- Node3 -->
<g id="node5" class="node"><title>Node3</title>
<polygon fill="white" stroke="#bfbfbf" points="71.5,-56.5 71.5,-75.5 122.5,-75.5 122.5,-56.5 71.5,-56.5"/>
<text text-anchor="middle" x="97" y="-62.5" font-family="Helvetica,sans-Serif" font-size="10.00">sstream</text>
</g>
<!-- Node1&#45;&gt;Node3 -->
<g id="edge4" class="edge"><title>Node1&#45;&gt;Node3</title>
<path fill="none" stroke="midnightblue" d="M703.865,-118.962C565.944,-112.517 256.928,-96.5074 132.868,-75.9674"/>
<polygon fill="midnightblue" stroke="midnightblue" points="133.303,-72.4907 122.851,-74.2245 132.103,-79.387 133.303,-72.4907"/>
</g>
<!-- Node4 -->
<g id="node7" class="node"><title>Node4</title>
<polygon fill="white" stroke="#bfbfbf" points="140,-56.5 140,-75.5 196,-75.5 196,-56.5 140,-56.5"/>
<text text-anchor="middle" x="168" y="-62.5" font-family="Helvetica,sans-Serif" font-size="10.00">algorithm</text>
</g>
<!-- Node1&#45;&gt;Node4 -->
<g id="edge6" class="edge"><title>Node1&#45;&gt;Node4</title>
<path fill="none" stroke="midnightblue" d="M703.852,-120.491C598.746,-117.279 390.77,-107.412 206.055,-75.8943"/>
<polygon fill="midnightblue" stroke="midnightblue" points="206.613,-72.439 196.162,-74.1816 205.419,-79.3364 206.613,-72.439"/>
</g>
<!-- Node5 -->
<g id="node9" class="node"><title>Node5</title>
<polygon fill="white" stroke="#bfbfbf" points="213.5,-56.5 213.5,-75.5 256.5,-75.5 256.5,-56.5 213.5,-56.5"/>
<text text-anchor="middle" x="235" y="-62.5" font-family="Helvetica,sans-Serif" font-size="10.00">vector</text>
</g>
<!-- Node1&#45;&gt;Node5 -->
<g id="edge8" class="edge"><title>Node1&#45;&gt;Node5</title>
<path fill="none" stroke="midnightblue" d="M703.733,-117.77C589.555,-110.379 363.586,-94.3205 266.843,-75.9323"/>
<polygon fill="midnightblue" stroke="midnightblue" points="267.288,-72.4518 256.794,-73.9133 265.909,-79.3146 267.288,-72.4518"/>
</g>
<!-- Node6 -->
<g id="node11" class="node"><title>Node6</title>
<polygon fill="white" stroke="#bfbfbf" points="274,-56.5 274,-75.5 320,-75.5 320,-56.5 274,-56.5"/>
<text text-anchor="middle" x="297" y="-62.5" font-family="Helvetica,sans-Serif" font-size="10.00">iterator</text>
</g>
<!-- Node1&#45;&gt;Node6 -->
<g id="edge10" class="edge"><title>Node1&#45;&gt;Node6</title>
<path fill="none" stroke="midnightblue" d="M703.811,-119.141C618.318,-114.619 467.304,-103.528 330.129,-75.8831"/>
<polygon fill="midnightblue" stroke="midnightblue" points="330.777,-72.4431 320.278,-73.8639 329.371,-79.3005 330.777,-72.4431"/>
</g>
<!-- Node7 -->
<g id="node13" class="node"><title>Node7</title>
<polygon fill="white" stroke="#bfbfbf" points="338,-56.5 338,-75.5 446,-75.5 446,-56.5 338,-56.5"/>
<text text-anchor="middle" x="392" y="-62.5" font-family="Helvetica,sans-Serif" font-size="10.00">boost/shared_ptr.hpp</text>
</g>
<!-- Node1&#45;&gt;Node7 -->
<g id="edge12" class="edge"><title>Node1&#45;&gt;Node7</title>
<path fill="none" stroke="midnightblue" d="M704.557,-112.479C642.613,-103.673 547.984,-90.069 456.298,-76.1831"/>
<polygon fill="midnightblue" stroke="midnightblue" points="456.701,-72.7043 446.289,-74.6643 455.651,-79.625 456.701,-72.7043"/>
</g>
<!-- Node8 -->
<g id="node15" class="node"><title>Node8</title>
<polygon fill="white" stroke="#bfbfbf" points="464,-56.5 464,-75.5 566,-75.5 566,-56.5 464,-56.5"/>
<text text-anchor="middle" x="515" y="-62.5" font-family="Helvetica,sans-Serif" font-size="10.00">boost/weak_ptr.hpp</text>
</g>
<!-- Node1&#45;&gt;Node8 -->
<g id="edge14" class="edge"><title>Node1&#45;&gt;Node8</title>
<path fill="none" stroke="midnightblue" d="M728.112,-112.437C684.036,-102.833 616.052,-88.0191 568.764,-77.7152"/>
<polygon fill="midnightblue" stroke="midnightblue" points="569.223,-74.233 558.707,-75.5237 567.732,-81.0725 569.223,-74.233"/>
</g>
<!-- Node9 -->
<g id="node17" class="node"><title>Node9</title>
<polygon fill="white" stroke="#bfbfbf" points="584,-56.5 584,-75.5 678,-75.5 678,-56.5 584,-56.5"/>
<text text-anchor="middle" x="631" y="-62.5" font-family="Helvetica,sans-Serif" font-size="10.00">boost/foreach.hpp</text>
</g>
<!-- Node1&#45;&gt;Node9 -->
<g id="edge16" class="edge"><title>Node1&#45;&gt;Node9</title>
<path fill="none" stroke="midnightblue" d="M747.761,-112.373C724.721,-103.223 689.879,-89.3844 664.25,-79.2057"/>
<polygon fill="midnightblue" stroke="midnightblue" points="665.508,-75.9395 654.922,-75.5011 662.924,-82.4452 665.508,-75.9395"/>
</g>
<!-- Node10 -->
<g id="node19" class="node"><title>Node10</title>
<polygon fill="white" stroke="#bfbfbf" points="696,-56.5 696,-75.5 744,-75.5 744,-56.5 696,-56.5"/>
<text text-anchor="middle" x="720" y="-62.5" font-family="Helvetica,sans-Serif" font-size="10.00">Rcpp.h</text>
</g>
<!-- Node1&#45;&gt;Node10 -->
<g id="edge18" class="edge"><title>Node1&#45;&gt;Node10</title>
<path fill="none" stroke="midnightblue" d="M762.942,-112.246C755.486,-104.216 744.737,-92.6394 735.858,-83.0781"/>
<polygon fill="midnightblue" stroke="midnightblue" points="738.323,-80.589 728.954,-75.6427 733.194,-85.3522 738.323,-80.589"/>
</g>
<!-- Node11 -->
<g id="node21" class="node"><title>Node11</title>
<a xlink:href="_con_8h.html" target="_top" xlink:title="Con.h">
<polygon fill="white" stroke="black" points="871,-0.5 871,-19.5 913,-19.5 913,-0.5 871,-0.5"/>
<text text-anchor="middle" x="892" y="-6.5" font-family="Helvetica,sans-Serif" font-size="10.00">Con.h</text>
</a>
</g>
<!-- Node1&#45;&gt;Node11 -->
<g id="edge20" class="edge"><title>Node1&#45;&gt;Node11</title>
<path fill="none" stroke="midnightblue" d="M772.322,-112.3C773.282,-98.2781 776.98,-72.2504 791,-56 809.01,-35.1259 838.44,-23.2156 860.897,-16.77"/>
<polygon fill="midnightblue" stroke="midnightblue" points="861.891,-20.1275 870.659,-14.1804 860.096,-13.3616 861.891,-20.1275"/>
</g>
<!-- Node12 -->
<g id="node23" class="node"><title>Node12</title>
<a xlink:href="_container_8h.html" target="_top" xlink:title="Container.h">
<polygon fill="white" stroke="black" points="800,-56.5 800,-75.5 866,-75.5 866,-56.5 800,-56.5"/>
<text text-anchor="middle" x="833" y="-62.5" font-family="Helvetica,sans-Serif" font-size="10.00">Container.h</text>
</a>
</g>
<!-- Node1&#45;&gt;Node12 -->
<g id="edge22" class="edge"><title>Node1&#45;&gt;Node12</title>
<path fill="none" stroke="midnightblue" d="M782.625,-112.246C791.547,-104.055 804.488,-92.1749 815.019,-82.5069"/>
<polygon fill="midnightblue" stroke="midnightblue" points="817.497,-84.9837 822.496,-75.6427 812.763,-79.8271 817.497,-84.9837"/>
</g>
<!-- Node13 -->
<g id="node25" class="node"><title>Node13</title>
<a xlink:href="_con_container_8h.html" target="_top" xlink:title="ConContainer.h">
<polygon fill="white" stroke="black" points="884,-56.5 884,-75.5 968,-75.5 968,-56.5 884,-56.5"/>
<text text-anchor="middle" x="926" y="-62.5" font-family="Helvetica,sans-Serif" font-size="10.00">ConContainer.h</text>
</a>
</g>
<!-- Node1&#45;&gt;Node13 -->
<g id="edge24" class="edge"><title>Node1&#45;&gt;Node13</title>
<path fill="none" stroke="midnightblue" d="M798.474,-112.373C823.86,-103.142 862.364,-89.1402 890.422,-78.9375"/>
<polygon fill="midnightblue" stroke="midnightblue" points="891.67,-82.2079 899.872,-75.5011 889.278,-75.6293 891.67,-82.2079"/>
</g>
<!-- Node14 -->
<g id="node27" class="node"><title>Node14</title>
<a xlink:href="_neuron_8h.html" target="_top" xlink:title="Neuron.h">
<polygon fill="white" stroke="black" points="1310,-0.5 1310,-19.5 1366,-19.5 1366,-0.5 1310,-0.5"/>
<text text-anchor="middle" x="1338" y="-6.5" font-family="Helvetica,sans-Serif" font-size="10.00">Neuron.h</text>
</a>
</g>
<!-- Node1&#45;&gt;Node14 -->
<g id="edge26" class="edge"><title>Node1&#45;&gt;Node14</title>
<path fill="none" stroke="midnightblue" d="M840.153,-119.882C1008.56,-114.316 1432.28,-98.1697 1453,-76 1479.92,-47.1977 1419.35,-27.3932 1376.3,-17.4387"/>
<polygon fill="midnightblue" stroke="midnightblue" points="1376.86,-13.9778 1366.34,-15.2349 1375.35,-20.8125 1376.86,-13.9778"/>
</g>
<!-- Node15 -->
<g id="node29" class="node"><title>Node15</title>
<a xlink:href="_neuron_container_8h.html" target="_top" xlink:title="NeuronContainer.h">
<polygon fill="white" stroke="black" points="1056,-56.5 1056,-75.5 1154,-75.5 1154,-56.5 1056,-56.5"/>
<text text-anchor="middle" x="1105" y="-62.5" font-family="Helvetica,sans-Serif" font-size="10.00">NeuronContainer.h</text>
</a>
</g>
<!-- Node1&#45;&gt;Node15 -->
<g id="edge28" class="edge"><title>Node1&#45;&gt;Node15</title>
<path fill="none" stroke="midnightblue" d="M829.425,-112.48C882.894,-103.597 965.105,-89.8884 1046.09,-76.1491"/>
<polygon fill="midnightblue" stroke="midnightblue" points="1046.68,-79.5983 1055.96,-74.4737 1045.51,-72.697 1046.68,-79.5983"/>
</g>
<!-- Node16 -->
<g id="node31" class="node"><title>Node16</title>
<a xlink:href="_con_8cpp.html" target="_top" xlink:title="Con.cpp">
<polygon fill="white" stroke="black" points="985.5,-56.5 985.5,-75.5 1038.5,-75.5 1038.5,-56.5 985.5,-56.5"/>
<text text-anchor="middle" x="1012" y="-62.5" font-family="Helvetica,sans-Serif" font-size="10.00">Con.cpp</text>
</a>
</g>
<!-- Node1&#45;&gt;Node16 -->
<g id="edge30" class="edge"><title>Node1&#45;&gt;Node16</title>
<path fill="none" stroke="midnightblue" d="M818.182,-112.431C857.652,-104.075 916.17,-91.2658 975.395,-76.3185"/>
<polygon fill="midnightblue" stroke="midnightblue" points="976.461,-79.659 985.29,-73.8027 974.736,-72.8749 976.461,-79.659"/>
</g>
<!-- Node17 -->
<g id="node34" class="node"><title>Node17</title>
<a xlink:href="_container_8cpp.html" target="_top" xlink:title="Container.cpp">
<polygon fill="white" stroke="black" points="1255.5,-56.5 1255.5,-75.5 1332.5,-75.5 1332.5,-56.5 1255.5,-56.5"/>
<text text-anchor="middle" x="1294" y="-62.5" font-family="Helvetica,sans-Serif" font-size="10.00">Container.cpp</text>
</a>
</g>
<!-- Node1&#45;&gt;Node17 -->
<g id="edge34" class="edge"><title>Node1&#45;&gt;Node17</title>
<path fill="none" stroke="midnightblue" d="M840.343,-117.819C930.823,-111.741 1095.49,-98.8028 1245.05,-76.1646"/>
<polygon fill="midnightblue" stroke="midnightblue" points="1245.98,-79.563 1255.34,-74.5887 1244.92,-72.6437 1245.98,-79.563"/>
</g>
<!-- Node18 -->
<g id="node36" class="node"><title>Node18</title>
<a xlink:href="_con_container_8cpp.html" target="_top" xlink:title="ConContainer.cpp">
<polygon fill="white" stroke="black" points="1349.5,-56.5 1349.5,-75.5 1444.5,-75.5 1444.5,-56.5 1349.5,-56.5"/>
<text text-anchor="middle" x="1397" y="-62.5" font-family="Helvetica,sans-Serif" font-size="10.00">ConContainer.cpp</text>
</a>
</g>
<!-- Node1&#45;&gt;Node18 -->
<g id="edge36" class="edge"><title>Node1&#45;&gt;Node18</title>
<path fill="none" stroke="midnightblue" d="M840.101,-118.613C945.196,-112.919 1153.4,-99.7797 1339.43,-76.1038"/>
<polygon fill="midnightblue" stroke="midnightblue" points="1339.92,-79.5696 1349.39,-74.8228 1339.02,-72.6267 1339.92,-79.5696"/>
</g>
<!-- Node19 -->
<g id="node38" class="node"><title>Node19</title>
<a xlink:href="_neuron_8cpp.html" target="_top" xlink:title="Neuron.cpp">
<polygon fill="white" stroke="black" points="1172,-56.5 1172,-75.5 1238,-75.5 1238,-56.5 1172,-56.5"/>
<text text-anchor="middle" x="1205" y="-62.5" font-family="Helvetica,sans-Serif" font-size="10.00">Neuron.cpp</text>
</a>
</g>
<!-- Node1&#45;&gt;Node19 -->
<g id="edge38" class="edge"><title>Node1&#45;&gt;Node19</title>
<path fill="none" stroke="midnightblue" d="M840.162,-116.41C916.32,-109.618 1043.42,-96.6551 1161.65,-76.0766"/>
<polygon fill="midnightblue" stroke="midnightblue" points="1162.36,-79.5057 1171.6,-74.323 1161.15,-72.612 1162.36,-79.5057"/>
</g>
<!-- Node20 -->
<g id="node41" class="node"><title>Node20</title>
<a xlink:href="_neuron_container_8cpp.html" target="_top" xlink:title="NeuronContainer.cpp">
<polygon fill="white" stroke="black" points="1500,-56.5 1500,-75.5 1608,-75.5 1608,-56.5 1500,-56.5"/>
<text text-anchor="middle" x="1554" y="-62.5" font-family="Helvetica,sans-Serif" font-size="10.00">NeuronContainer.cpp</text>
</a>
</g>
<!-- Node1&#45;&gt;Node20 -->
<g id="edge42" class="edge"><title>Node1&#45;&gt;Node20</title>
<path fill="none" stroke="midnightblue" d="M840.085,-119.467C967.261,-114.324 1249.44,-100.972 1486,-76 1487.27,-75.8661 1488.55,-75.726 1489.84,-75.5804"/>
<polygon fill="midnightblue" stroke="midnightblue" points="1490.35,-79.0439 1499.86,-74.3688 1489.51,-72.0945 1490.35,-79.0439"/>
</g>
<!-- Node16&#45;&gt;Node11 -->
<g id="edge32" class="edge"><title>Node16&#45;&gt;Node11</title>
<path fill="none" stroke="midnightblue" d="M991.371,-56.3733C972.108,-47.3838 943.151,-33.8706 921.458,-23.7471"/>
<polygon fill="midnightblue" stroke="midnightblue" points="922.902,-20.5584 912.36,-19.5011 919.941,-26.9017 922.902,-20.5584"/>
</g>
<!-- Node19&#45;&gt;Node14 -->
<g id="edge40" class="edge"><title>Node19&#45;&gt;Node14</title>
<path fill="none" stroke="midnightblue" d="M1227.86,-56.3733C1249.4,-47.3032 1281.88,-33.6279 1306,-23.4755"/>
<polygon fill="midnightblue" stroke="midnightblue" points="1307.58,-26.6075 1315.43,-19.5011 1304.86,-20.156 1307.58,-26.6075"/>
</g>
</g>
</svg>
