<?xml version="1.0" encoding="UTF-8" standalone="no"?>
<!DOCTYPE svg PUBLIC "-//W3C//DTD SVG 1.1//EN"
 "http://www.w3.org/Graphics/SVG/1.1/DTD/svg11.dtd">
<!-- Generated by graphviz version 2.28.0 (20110610.2051)
 -->
<!-- Title: G Pages: 1 -->
<svg width="1849pt" height="196pt"
 viewBox="0.00 0.00 1849.00 196.00" xmlns="http://www.w3.org/2000/svg" xmlns:xlink="http://www.w3.org/1999/xlink">
<g id="graph1" class="graph" transform="scale(1 1) rotate(0) translate(4 192)">
<title>G</title>
<polygon fill="white" stroke="white" points="-4,5 -4,-192 1846,-192 1846,5 -4,5"/>
<!-- Node1 -->
<g id="node1" class="node"><title>Node1</title>
<polygon fill="#bfbfbf" stroke="black" points="887.5,-168.5 887.5,-187.5 1024.5,-187.5 1024.5,-168.5 887.5,-168.5"/>
<text text-anchor="middle" x="956" y="-175.5" font-family="Helvetica,sans-Serif" font-size="10.00">pkg/AMORE/src/AMORE.h</text>
</g>
<!-- Node2 -->
<g id="node3" class="node"><title>Node2</title>
<polygon fill="white" stroke="#bfbfbf" points="0,-112.5 0,-131.5 56,-131.5 56,-112.5 0,-112.5"/>
<text text-anchor="middle" x="28" y="-119.5" font-family="Helvetica,sans-Serif" font-size="10.00">iostream</text>
</g>
<!-- Node1&#45;&gt;Node2 -->
<g id="edge2" class="edge"><title>Node1&#45;&gt;Node2</title>
<path fill="none" stroke="midnightblue" d="M887.35,-175.205C710.634,-170.322 242.22,-155.65 66.3329,-131.864"/>
<polygon fill="midnightblue" stroke="midnightblue" points="66.5653,-128.362 56.1746,-130.432 65.588,-135.294 66.5653,-128.362"/>
</g>
<!-- Node3 -->
<g id="node5" class="node"><title>Node3</title>
<polygon fill="white" stroke="#bfbfbf" points="74.5,-112.5 74.5,-131.5 127.5,-131.5 127.5,-112.5 74.5,-112.5"/>
<text text-anchor="middle" x="101" y="-119.5" font-family="Helvetica,sans-Serif" font-size="10.00">sstream</text>
</g>
<!-- Node1&#45;&gt;Node3 -->
<g id="edge4" class="edge"><title>Node1&#45;&gt;Node3</title>
<path fill="none" stroke="midnightblue" d="M887.331,-177.614C747.677,-177.912 420.584,-173.764 137.667,-131.765"/>
<polygon fill="midnightblue" stroke="midnightblue" points="138.031,-128.28 127.622,-130.255 136.991,-135.202 138.031,-128.28"/>
</g>
<!-- Node4 -->
<g id="node7" class="node"><title>Node4</title>
<polygon fill="white" stroke="#bfbfbf" points="145.5,-112.5 145.5,-131.5 204.5,-131.5 204.5,-112.5 145.5,-112.5"/>
<text text-anchor="middle" x="175" y="-119.5" font-family="Helvetica,sans-Serif" font-size="10.00">algorithm</text>
</g>
<!-- Node1&#45;&gt;Node4 -->
<g id="edge6" class="edge"><title>Node1&#45;&gt;Node4</title>
<path fill="none" stroke="midnightblue" d="M887.328,-176.637C757.644,-175.122 467.806,-167.794 214.833,-131.849"/>
<polygon fill="midnightblue" stroke="midnightblue" points="215.111,-128.353 204.714,-130.393 214.114,-135.282 215.111,-128.353"/>
</g>
<!-- Node5 -->
<g id="node9" class="node"><title>Node5</title>
<polygon fill="white" stroke="#bfbfbf" points="223,-112.5 223,-131.5 269,-131.5 269,-112.5 223,-112.5"/>
<text text-anchor="middle" x="246" y="-119.5" font-family="Helvetica,sans-Serif" font-size="10.00">vector</text>
</g>
<!-- Node1&#45;&gt;Node5 -->
<g id="edge8" class="edge"><title>Node1&#45;&gt;Node5</title>
<path fill="none" stroke="midnightblue" d="M887.118,-177.134C765.774,-176.344 506.069,-170.057 279.378,-131.879"/>
<polygon fill="midnightblue" stroke="midnightblue" points="279.737,-128.389 269.29,-130.155 278.558,-135.289 279.737,-128.389"/>
</g>
<!-- Node6 -->
<g id="node11" class="node"><title>Node6</title>
<polygon fill="white" stroke="#bfbfbf" points="287,-112.5 287,-131.5 337,-131.5 337,-112.5 287,-112.5"/>
<text text-anchor="middle" x="312" y="-119.5" font-family="Helvetica,sans-Serif" font-size="10.00">iterator</text>
</g>
<!-- Node1&#45;&gt;Node6 -->
<g id="edge10" class="edge"><title>Node1&#45;&gt;Node6</title>
<path fill="none" stroke="midnightblue" d="M887.49,-175.901C774.275,-173.201 541.326,-163.904 347,-132 346.899,-131.983 346.799,-131.967 346.698,-131.95"/>
<polygon fill="midnightblue" stroke="midnightblue" points="347.614,-128.564 337.121,-130.03 346.238,-135.428 347.614,-128.564"/>
</g>
<!-- Node7 -->
<g id="node13" class="node"><title>Node7</title>
<polygon fill="white" stroke="#bfbfbf" points="355.5,-112.5 355.5,-131.5 470.5,-131.5 470.5,-112.5 355.5,-112.5"/>
<text text-anchor="middle" x="413" y="-119.5" font-family="Helvetica,sans-Serif" font-size="10.00">boost/shared_ptr.hpp</text>
</g>
<!-- Node1&#45;&gt;Node7 -->
<g id="edge12" class="edge"><title>Node1&#45;&gt;Node7</title>
<path fill="none" stroke="midnightblue" d="M887.333,-171.361C796.722,-163.729 632.003,-149.197 480.673,-132.035"/>
<polygon fill="midnightblue" stroke="midnightblue" points="481.058,-128.556 470.726,-130.901 480.265,-135.511 481.058,-128.556"/>
</g>
<!-- Node8 -->
<g id="node15" class="node"><title>Node8</title>
<polygon fill="white" stroke="#bfbfbf" points="489,-112.5 489,-131.5 597,-131.5 597,-112.5 489,-112.5"/>
<text text-anchor="middle" x="543" y="-119.5" font-family="Helvetica,sans-Serif" font-size="10.00">boost/weak_ptr.hpp</text>
</g>
<!-- Node1&#45;&gt;Node8 -->
<g id="edge14" class="edge"><title>Node1&#45;&gt;Node8</title>
<path fill="none" stroke="midnightblue" d="M887.556,-168.488C819.18,-159.919 710.775,-146.157 607.287,-132.16"/>
<polygon fill="midnightblue" stroke="midnightblue" points="607.669,-128.68 597.289,-130.805 606.729,-135.616 607.669,-128.68"/>
</g>
<!-- Node9 -->
<g id="node17" class="node"><title>Node9</title>
<polygon fill="white" stroke="#bfbfbf" points="615,-112.5 615,-131.5 715,-131.5 715,-112.5 615,-112.5"/>
<text text-anchor="middle" x="665" y="-119.5" font-family="Helvetica,sans-Serif" font-size="10.00">boost/foreach.hpp</text>
</g>
<!-- Node1&#45;&gt;Node9 -->
<g id="edge16" class="edge"><title>Node1&#45;&gt;Node9</title>
<path fill="none" stroke="midnightblue" d="M909.89,-168.444C858.594,-158.925 775.727,-143.547 720.809,-133.356"/>
<polygon fill="midnightblue" stroke="midnightblue" points="721.365,-129.9 710.894,-131.516 720.088,-136.782 721.365,-129.9"/>
</g>
<!-- Node10 -->
<g id="node19" class="node"><title>Node10</title>
<polygon fill="white" stroke="#bfbfbf" points="733,-112.5 733,-131.5 811,-131.5 811,-112.5 733,-112.5"/>
<text text-anchor="middle" x="772" y="-119.5" font-family="Helvetica,sans-Serif" font-size="10.00">boost/ref.hpp</text>
</g>
<!-- Node1&#45;&gt;Node10 -->
<g id="edge18" class="edge"><title>Node1&#45;&gt;Node10</title>
<path fill="none" stroke="midnightblue" d="M926.845,-168.444C895.487,-159.241 845.469,-144.562 810.803,-134.388"/>
<polygon fill="midnightblue" stroke="midnightblue" points="811.6,-130.974 801.019,-131.516 809.629,-137.691 811.6,-130.974"/>
</g>
<!-- Node11 -->
<g id="node21" class="node"><title>Node11</title>
<polygon fill="white" stroke="#bfbfbf" points="829,-112.5 829,-131.5 879,-131.5 879,-112.5 829,-112.5"/>
<text text-anchor="middle" x="854" y="-119.5" font-family="Helvetica,sans-Serif" font-size="10.00">Rcpp.h</text>
</g>
<!-- Node1&#45;&gt;Node11 -->
<g id="edge20" class="edge"><title>Node1&#45;&gt;Node11</title>
<path fill="none" stroke="midnightblue" d="M939.612,-168.324C923.329,-159.703 898.133,-146.364 879.284,-136.386"/>
<polygon fill="midnightblue" stroke="midnightblue" points="880.823,-133.24 870.347,-131.655 877.548,-139.427 880.823,-133.24"/>
</g>
<!-- Node12 -->
<g id="node23" class="node"><title>Node12</title>
<a xlink:href="dia_2_con_8h.html" target="_top" xlink:title="dia/Con.h">
<polygon fill="white" stroke="black" points="897.5,-112.5 897.5,-131.5 956.5,-131.5 956.5,-112.5 897.5,-112.5"/>
<text text-anchor="middle" x="927" y="-119.5" font-family="Helvetica,sans-Serif" font-size="10.00">dia/Con.h</text>
</a>
</g>
<!-- Node1&#45;&gt;Node12 -->
<g id="edge22" class="edge"><title>Node1&#45;&gt;Node12</title>
<path fill="none" stroke="midnightblue" d="M951.211,-168.083C947.242,-160.691 941.475,-149.953 936.565,-140.811"/>
<polygon fill="midnightblue" stroke="midnightblue" points="939.514,-138.905 931.7,-131.751 933.347,-142.217 939.514,-138.905"/>
</g>
<!-- Node13 -->
<g id="node25" class="node"><title>Node13</title>
<a xlink:href="_iterator_interface_8h.html" target="_top" xlink:title="dia/IteratorInterface.h">
<polygon fill="white" stroke="black" points="1601.5,-0.5 1601.5,-19.5 1716.5,-19.5 1716.5,-0.5 1601.5,-0.5"/>
<text text-anchor="middle" x="1659" y="-7.5" font-family="Helvetica,sans-Serif" font-size="10.00">dia/IteratorInterface.h</text>
</a>
</g>
<!-- Node1&#45;&gt;Node13 -->
<g id="edge24" class="edge"><title>Node1&#45;&gt;Node13</title>
<path fill="none" stroke="midnightblue" d="M1024.61,-177.008C1198.6,-176.449 1647.08,-171.18 1701,-132 1729.45,-111.329 1739.21,-87.2072 1723,-56 1715.85,-42.2262 1702.33,-31.783 1689.55,-24.4413"/>
<polygon fill="midnightblue" stroke="midnightblue" points="1690.96,-21.2252 1680.48,-19.6403 1687.68,-27.412 1690.96,-21.2252"/>
</g>
<!-- Node14 -->
<g id="node27" class="node"><title>Node14</title>
<a xlink:href="_container_interface_8h.html" target="_top" xlink:title="dia/ContainerInterface.h">
<polygon fill="white" stroke="black" points="1165.5,-56.5 1165.5,-75.5 1290.5,-75.5 1290.5,-56.5 1165.5,-56.5"/>
<text text-anchor="middle" x="1228" y="-63.5" font-family="Helvetica,sans-Serif" font-size="10.00">dia/ContainerInterface.h</text>
</a>
</g>
<!-- Node1&#45;&gt;Node14 -->
<g id="edge26" class="edge"><title>Node1&#45;&gt;Node14</title>
<path fill="none" stroke="midnightblue" d="M1013.29,-168.457C1049.85,-161.643 1097.6,-150.165 1137,-132 1165.18,-119.008 1193.65,-96.8988 1211.06,-82.1232"/>
<polygon fill="midnightblue" stroke="midnightblue" points="1213.4,-84.7247 1218.67,-75.5309 1208.82,-79.4344 1213.4,-84.7247"/>
</g>
<!-- Node15 -->
<g id="node29" class="node"><title>Node15</title>
<a xlink:href="dia_2_container_8h.html" target="_top" xlink:title="dia/Container.h">
<polygon fill="white" stroke="black" points="1185.5,-112.5 1185.5,-131.5 1270.5,-131.5 1270.5,-112.5 1185.5,-112.5"/>
<text text-anchor="middle" x="1228" y="-119.5" font-family="Helvetica,sans-Serif" font-size="10.00">dia/Container.h</text>
</a>
</g>
<!-- Node1&#45;&gt;Node15 -->
<g id="edge28" class="edge"><title>Node1&#45;&gt;Node15</title>
<path fill="none" stroke="midnightblue" d="M999.099,-168.444C1046.85,-158.964 1123.86,-143.675 1175.19,-133.483"/>
<polygon fill="midnightblue" stroke="midnightblue" points="1175.98,-136.897 1185.1,-131.516 1174.61,-130.031 1175.98,-136.897"/>
</g>
<!-- Node16 -->
<g id="node32" class="node"><title>Node16</title>
<a xlink:href="_container_iterator_8h.html" target="_top" xlink:title="dia/ContainerIterator.h">
<polygon fill="white" stroke="black" points="1011.5,-56.5 1011.5,-75.5 1130.5,-75.5 1130.5,-56.5 1011.5,-56.5"/>
<text text-anchor="middle" x="1071" y="-63.5" font-family="Helvetica,sans-Serif" font-size="10.00">dia/ContainerIterator.h</text>
</a>
</g>
<!-- Node1&#45;&gt;Node16 -->
<g id="edge32" class="edge"><title>Node1&#45;&gt;Node16</title>
<path fill="none" stroke="midnightblue" d="M961.25,-168.296C969.473,-155.115 986.386,-129.75 1005,-112 1017.52,-100.063 1033.51,-89.0758 1046.61,-80.9464"/>
<polygon fill="midnightblue" stroke="midnightblue" points="1048.79,-83.7179 1055.55,-75.5594 1045.18,-77.722 1048.79,-83.7179"/>
</g>
<!-- Node17 -->
<g id="node35" class="node"><title>Node17</title>
<a xlink:href="dia_2_neuron_8h.html" target="_top" xlink:title="dia/Neuron.h">
<polygon fill="white" stroke="black" points="1289,-112.5 1289,-131.5 1363,-131.5 1363,-112.5 1289,-112.5"/>
<text text-anchor="middle" x="1326" y="-119.5" font-family="Helvetica,sans-Serif" font-size="10.00">dia/Neuron.h</text>
</a>
</g>
<!-- Node1&#45;&gt;Node17 -->
<g id="edge36" class="edge"><title>Node1&#45;&gt;Node17</title>
<path fill="none" stroke="midnightblue" d="M1024.52,-168.479C1087.77,-160.38 1184.55,-147.398 1278.83,-131.948"/>
<polygon fill="midnightblue" stroke="midnightblue" points="1279.53,-135.379 1288.83,-130.298 1278.39,-128.472 1279.53,-135.379"/>
</g>
<!-- Node18 -->
<g id="node37" class="node"><title>Node18</title>
<polygon fill="white" stroke="#bfbfbf" points="1381,-112.5 1381,-131.5 1437,-131.5 1437,-112.5 1381,-112.5"/>
<text text-anchor="middle" x="1409" y="-119.5" font-family="Helvetica,sans-Serif" font-size="10.00">Con.cpp</text>
</g>
<!-- Node1&#45;&gt;Node18 -->
<g id="edge38" class="edge"><title>Node1&#45;&gt;Node18</title>
<path fill="none" stroke="midnightblue" d="M1024.85,-172.326C1105.56,-166.225 1243.49,-153.866 1370.87,-131.992"/>
<polygon fill="midnightblue" stroke="midnightblue" points="1371.55,-135.426 1380.8,-130.263 1370.35,-128.529 1371.55,-135.426"/>
</g>
<!-- Node19 -->
<g id="node39" class="node"><title>Node19</title>
<a xlink:href="container_interface_8cpp.html" target="_top" xlink:title="ContainerInterface.cpp">
<polygon fill="white" stroke="black" points="1455,-112.5 1455,-131.5 1577,-131.5 1577,-112.5 1455,-112.5"/>
<text text-anchor="middle" x="1516" y="-119.5" font-family="Helvetica,sans-Serif" font-size="10.00">ContainerInterface.cpp</text>
</a>
</g>
<!-- Node1&#45;&gt;Node19 -->
<g id="edge40" class="edge"><title>Node1&#45;&gt;Node19</title>
<path fill="none" stroke="midnightblue" d="M1024.65,-171.486C1117.46,-163.856 1288.37,-149.182 1444.66,-132.112"/>
<polygon fill="midnightblue" stroke="midnightblue" points="1445.37,-135.555 1454.93,-130.984 1444.61,-128.596 1445.37,-135.555"/>
</g>
<!-- Node20 -->
<g id="node42" class="node"><title>Node20</title>
<polygon fill="white" stroke="#bfbfbf" points="1595.5,-112.5 1595.5,-131.5 1676.5,-131.5 1676.5,-112.5 1595.5,-112.5"/>
<text text-anchor="middle" x="1636" y="-119.5" font-family="Helvetica,sans-Serif" font-size="10.00">Container.cpp</text>
</g>
<!-- Node1&#45;&gt;Node20 -->
<g id="edge44" class="edge"><title>Node1&#45;&gt;Node20</title>
<path fill="none" stroke="midnightblue" d="M1024.75,-174.494C1139,-169.801 1375.28,-157.851 1585.41,-131.928"/>
<polygon fill="midnightblue" stroke="midnightblue" points="1585.91,-135.393 1595.4,-130.683 1585.04,-128.447 1585.91,-135.393"/>
</g>
<!-- Node21 -->
<g id="node44" class="node"><title>Node21</title>
<a xlink:href="_iterator_interface_8cpp.html" target="_top" xlink:title="IteratorInterface.cpp">
<polygon fill="white" stroke="black" points="1603.5,-56.5 1603.5,-75.5 1714.5,-75.5 1714.5,-56.5 1603.5,-56.5"/>
<text text-anchor="middle" x="1659" y="-63.5" font-family="Helvetica,sans-Serif" font-size="10.00">IteratorInterface.cpp</text>
</a>
</g>
<!-- Node1&#45;&gt;Node21 -->
<g id="edge46" class="edge"><title>Node1&#45;&gt;Node21</title>
<path fill="none" stroke="midnightblue" d="M1024.71,-175.278C1201.99,-170.502 1662.58,-155.847 1685,-132 1697.81,-118.38 1685.84,-97.6618 1674.24,-83.2918"/>
<polygon fill="midnightblue" stroke="midnightblue" points="1676.84,-80.9412 1667.65,-75.6662 1671.54,-85.5198 1676.84,-80.9412"/>
</g>
<!-- Node22 -->
<g id="node47" class="node"><title>Node22</title>
<a xlink:href="_container_iterator_8cpp.html" target="_top" xlink:title="ContainerIterator.cpp">
<polygon fill="white" stroke="black" points="1013.5,-112.5 1013.5,-131.5 1128.5,-131.5 1128.5,-112.5 1013.5,-112.5"/>
<text text-anchor="middle" x="1071" y="-119.5" font-family="Helvetica,sans-Serif" font-size="10.00">ContainerIterator.cpp</text>
</a>
</g>
<!-- Node1&#45;&gt;Node22 -->
<g id="edge50" class="edge"><title>Node1&#45;&gt;Node22</title>
<path fill="none" stroke="midnightblue" d="M974.222,-168.444C992.896,-159.675 1022.16,-145.935 1043.62,-135.858"/>
<polygon fill="midnightblue" stroke="midnightblue" points="1045.3,-138.935 1052.86,-131.516 1042.32,-132.599 1045.3,-138.935"/>
</g>
<!-- Node23 -->
<g id="node50" class="node"><title>Node23</title>
<polygon fill="white" stroke="#bfbfbf" points="1771,-112.5 1771,-131.5 1841,-131.5 1841,-112.5 1771,-112.5"/>
<text text-anchor="middle" x="1806" y="-119.5" font-family="Helvetica,sans-Serif" font-size="10.00">Neuron.cpp</text>
</g>
<!-- Node1&#45;&gt;Node23 -->
<g id="edge54" class="edge"><title>Node1&#45;&gt;Node23</title>
<path fill="none" stroke="midnightblue" d="M1024.56,-176.045C1163.31,-173.473 1487.14,-164.234 1757,-132 1758.26,-131.85 1759.53,-131.688 1760.81,-131.515"/>
<polygon fill="midnightblue" stroke="midnightblue" points="1761.38,-134.969 1770.75,-130.021 1760.34,-128.046 1761.38,-134.969"/>
</g>
<!-- Node15&#45;&gt;Node14 -->
<g id="edge30" class="edge"><title>Node15&#45;&gt;Node14</title>
<path fill="none" stroke="midnightblue" d="M1228,-112.083C1228,-105.006 1228,-94.8611 1228,-85.9865"/>
<polygon fill="midnightblue" stroke="midnightblue" points="1231.5,-85.751 1228,-75.7511 1224.5,-85.7511 1231.5,-85.751"/>
</g>
<!-- Node16&#45;&gt;Node13 -->
<g id="edge34" class="edge"><title>Node16&#45;&gt;Node13</title>
<path fill="none" stroke="midnightblue" d="M1130.67,-58.6396C1139.5,-57.7324 1148.48,-56.8273 1157,-56 1312.25,-40.9192 1494.69,-25.0222 1591.18,-16.7574"/>
<polygon fill="midnightblue" stroke="midnightblue" points="1591.71,-20.2245 1601.38,-15.8848 1591.12,-13.25 1591.71,-20.2245"/>
</g>
<!-- Node19&#45;&gt;Node14 -->
<g id="edge42" class="edge"><title>Node19&#45;&gt;Node14</title>
<path fill="none" stroke="midnightblue" d="M1470.37,-112.444C1419.7,-102.944 1337.93,-87.611 1283.57,-77.4198"/>
<polygon fill="midnightblue" stroke="midnightblue" points="1283.89,-73.9193 1273.42,-75.5164 1282.6,-80.7994 1283.89,-73.9193"/>
</g>
<!-- Node21&#45;&gt;Node13 -->
<g id="edge48" class="edge"><title>Node21&#45;&gt;Node13</title>
<path fill="none" stroke="midnightblue" d="M1659,-56.083C1659,-49.0059 1659,-38.8611 1659,-29.9865"/>
<polygon fill="midnightblue" stroke="midnightblue" points="1662.5,-29.751 1659,-19.7511 1655.5,-29.7511 1662.5,-29.751"/>
</g>
<!-- Node22&#45;&gt;Node16 -->
<g id="edge52" class="edge"><title>Node22&#45;&gt;Node16</title>
<path fill="none" stroke="midnightblue" d="M1071,-112.083C1071,-105.006 1071,-94.8611 1071,-85.9865"/>
<polygon fill="midnightblue" stroke="midnightblue" points="1074.5,-85.751 1071,-75.7511 1067.5,-85.7511 1074.5,-85.751"/>
</g>
</g>
</svg>
