<?xml version="1.0" encoding="UTF-8" standalone="no"?>
<!DOCTYPE svg PUBLIC "-//W3C//DTD SVG 1.1//EN"
 "http://www.w3.org/Graphics/SVG/1.1/DTD/svg11.dtd">
<!-- Generated by graphviz version 2.25.20091207.0545 (20091207.0545)
 -->
<!-- Title: G Pages: 1 -->
<svg width="1416pt" height="140pt"
 viewBox="0.00 0.00 1416.00 140.00" xmlns="http://www.w3.org/2000/svg" xmlns:xlink="http://www.w3.org/1999/xlink">
<g id="graph1" class="graph" transform="scale(1 1) rotate(0) translate(4 136)">
<title>G</title>
<polygon fill="white" stroke="white" points="-4,5 -4,-136 1413,-136 1413,5 -4,5"/>
<!-- Node1 -->
<g id="node1" class="node"><title>Node1</title>
<polygon fill="#bfbfbf" stroke="black" points="686,-112.5 686,-131.5 822,-131.5 822,-112.5 686,-112.5"/>
<text text-anchor="middle" x="754" y="-118.5" font-family="Helvetica,sans-Serif" font-size="10.00">pkg/AMORE/src/AMORE.h</text>
</g>
<!-- Node2 -->
<g id="node3" class="node"><title>Node2</title>
<polygon fill="white" stroke="#bfbfbf" points="0,-56.5 0,-75.5 54,-75.5 54,-56.5 0,-56.5"/>
<text text-anchor="middle" x="27" y="-62.5" font-family="Helvetica,sans-Serif" font-size="10.00">iostream</text>
</g>
<!-- Node1&#45;&gt;Node2 -->
<g id="edge2" class="edge"><title>Node1&#45;&gt;Node2</title>
<path fill="none" stroke="midnightblue" d="M685.722,-119.234C539.528,-113.028 199.238,-97.0043 64.4922,-75.8899"/>
<polygon fill="midnightblue" stroke="midnightblue" points="64.8217,-72.3972 54.3865,-74.2293 63.6867,-79.3045 64.8217,-72.3972"/>
</g>
<!-- Node3 -->
<g id="node5" class="node"><title>Node3</title>
<polygon fill="white" stroke="#bfbfbf" points="71.5,-56.5 71.5,-75.5 122.5,-75.5 122.5,-56.5 71.5,-56.5"/>
<text text-anchor="middle" x="97" y="-62.5" font-family="Helvetica,sans-Serif" font-size="10.00">sstream</text>
</g>
<!-- Node1&#45;&gt;Node3 -->
<g id="edge4" class="edge"><title>Node1&#45;&gt;Node3</title>
<path fill="none" stroke="midnightblue" d="M685.935,-118.803C551.115,-112.178 253.396,-96.0256 132.926,-75.9812"/>
<polygon fill="midnightblue" stroke="midnightblue" points="133.306,-72.4946 122.852,-74.2188 132.099,-79.3899 133.306,-72.4946"/>
</g>
<!-- Node4 -->
<g id="node7" class="node"><title>Node4</title>
<polygon fill="white" stroke="#bfbfbf" points="140,-56.5 140,-75.5 196,-75.5 196,-56.5 140,-56.5"/>
<text text-anchor="middle" x="168" y="-62.5" font-family="Helvetica,sans-Serif" font-size="10.00">algorithm</text>
</g>
<!-- Node1&#45;&gt;Node4 -->
<g id="edge6" class="edge"><title>Node1&#45;&gt;Node4</title>
<path fill="none" stroke="midnightblue" d="M685.88,-120.236C583.539,-116.717 384.033,-106.488 206.224,-75.9289"/>
<polygon fill="midnightblue" stroke="midnightblue" points="206.617,-72.4445 196.164,-74.1738 205.414,-79.3404 206.617,-72.4445"/>
</g>
<!-- Node5 -->
<g id="node9" class="node"><title>Node5</title>
<polygon fill="white" stroke="#bfbfbf" points="213.5,-56.5 213.5,-75.5 256.5,-75.5 256.5,-56.5 213.5,-56.5"/>
<text text-anchor="middle" x="235" y="-62.5" font-family="Helvetica,sans-Serif" font-size="10.00">vector</text>
</g>
<!-- Node1&#45;&gt;Node5 -->
<g id="edge8" class="edge"><title>Node1&#45;&gt;Node5</title>
<path fill="none" stroke="midnightblue" d="M685.633,-120.47C592.457,-117.303 420.481,-107.607 266.886,-76.0172"/>
<polygon fill="midnightblue" stroke="midnightblue" points="267.301,-72.5284 256.796,-73.9046 265.867,-79.3798 267.301,-72.5284"/>
</g>
<!-- Node6 -->
<g id="node11" class="node"><title>Node6</title>
<polygon fill="white" stroke="#bfbfbf" points="274,-56.5 274,-75.5 320,-75.5 320,-56.5 274,-56.5"/>
<text text-anchor="middle" x="297" y="-62.5" font-family="Helvetica,sans-Serif" font-size="10.00">iterator</text>
</g>
<!-- Node1&#45;&gt;Node6 -->
<g id="edge10" class="edge"><title>Node1&#45;&gt;Node6</title>
<path fill="none" stroke="midnightblue" d="M685.643,-118.713C603.278,-113.836 460.712,-102.474 330.436,-75.9555"/>
<polygon fill="midnightblue" stroke="midnightblue" points="330.782,-72.453 320.28,-73.8518 329.362,-79.3075 330.782,-72.453"/>
</g>
<!-- Node7 -->
<g id="node13" class="node"><title>Node7</title>
<polygon fill="white" stroke="#bfbfbf" points="338,-56.5 338,-75.5 446,-75.5 446,-56.5 338,-56.5"/>
<text text-anchor="middle" x="392" y="-62.5" font-family="Helvetica,sans-Serif" font-size="10.00">boost/shared_ptr.hpp</text>
</g>
<!-- Node1&#45;&gt;Node7 -->
<g id="edge12" class="edge"><title>Node1&#45;&gt;Node7</title>
<path fill="none" stroke="midnightblue" d="M691.566,-112.483C633.312,-103.584 543.683,-89.8396 456.376,-76.2099"/>
<polygon fill="midnightblue" stroke="midnightblue" points="456.714,-72.7204 446.294,-74.6349 455.633,-79.6365 456.714,-72.7204"/>
</g>
<!-- Node8 -->
<g id="node15" class="node"><title>Node8</title>
<polygon fill="white" stroke="#bfbfbf" points="464,-56.5 464,-75.5 566,-75.5 566,-56.5 464,-56.5"/>
<text text-anchor="middle" x="515" y="-62.5" font-family="Helvetica,sans-Serif" font-size="10.00">boost/weak_ptr.hpp</text>
</g>
<!-- Node1&#45;&gt;Node8 -->
<g id="edge14" class="edge"><title>Node1&#45;&gt;Node8</title>
<path fill="none" stroke="midnightblue" d="M713.186,-112.437C672.369,-102.873 609.504,-88.1432 565.553,-77.845"/>
<polygon fill="midnightblue" stroke="midnightblue" points="566.18,-74.3973 555.646,-75.5237 564.583,-81.2128 566.18,-74.3973"/>
</g>
<!-- Node9 -->
<g id="node17" class="node"><title>Node9</title>
<polygon fill="white" stroke="#bfbfbf" points="584,-56.5 584,-75.5 678,-75.5 678,-56.5 584,-56.5"/>
<text text-anchor="middle" x="631" y="-62.5" font-family="Helvetica,sans-Serif" font-size="10.00">boost/foreach.hpp</text>
</g>
<!-- Node1&#45;&gt;Node9 -->
<g id="edge16" class="edge"><title>Node1&#45;&gt;Node9</title>
<path fill="none" stroke="midnightblue" d="M732.856,-112.373C713.111,-103.384 683.43,-89.8706 661.195,-79.7471"/>
<polygon fill="midnightblue" stroke="midnightblue" points="662.42,-76.4594 651.869,-75.5011 659.519,-82.8302 662.42,-76.4594"/>
</g>
<!-- Node10 -->
<g id="node19" class="node"><title>Node10</title>
<polygon fill="white" stroke="#bfbfbf" points="696,-56.5 696,-75.5 744,-75.5 744,-56.5 696,-56.5"/>
<text text-anchor="middle" x="720" y="-62.5" font-family="Helvetica,sans-Serif" font-size="10.00">Rcpp.h</text>
</g>
<!-- Node1&#45;&gt;Node10 -->
<g id="edge18" class="edge"><title>Node1&#45;&gt;Node10</title>
<path fill="none" stroke="midnightblue" d="M748.078,-112.246C743.397,-104.537 736.733,-93.5598 731.071,-84.2348"/>
<polygon fill="midnightblue" stroke="midnightblue" points="734.036,-82.3741 725.854,-75.6427 728.053,-86.007 734.036,-82.3741"/>
</g>
<!-- Node11 -->
<g id="node21" class="node"><title>Node11</title>
<a xlink:href="_con_8h.html" target="_top" xlink:title="Con.h">
<polygon fill="white" stroke="black" points="875,-0.5 875,-19.5 917,-19.5 917,-0.5 875,-0.5"/>
<text text-anchor="middle" x="896" y="-6.5" font-family="Helvetica,sans-Serif" font-size="10.00">Con.h</text>
</a>
</g>
<!-- Node1&#45;&gt;Node11 -->
<g id="edge20" class="edge"><title>Node1&#45;&gt;Node11</title>
<path fill="none" stroke="midnightblue" d="M822.074,-117.791C882.631,-112.457 964.671,-100.776 985,-76 1005.62,-50.8653 960.221,-30.1508 926.986,-18.9758"/>
<polygon fill="midnightblue" stroke="midnightblue" points="927.74,-15.5421 917.149,-15.8196 925.602,-22.2074 927.74,-15.5421"/>
</g>
<!-- Node12 -->
<g id="node23" class="node"><title>Node12</title>
<a xlink:href="_container_8h.html" target="_top" xlink:title="Container.h">
<polygon fill="white" stroke="black" points="832,-56.5 832,-75.5 898,-75.5 898,-56.5 832,-56.5"/>
<text text-anchor="middle" x="865" y="-62.5" font-family="Helvetica,sans-Serif" font-size="10.00">Container.h</text>
</a>
</g>
<!-- Node1&#45;&gt;Node12 -->
<g id="edge22" class="edge"><title>Node1&#45;&gt;Node12</title>
<path fill="none" stroke="midnightblue" d="M773.082,-112.373C790.74,-103.464 817.205,-90.1127 837.21,-80.0203"/>
<polygon fill="midnightblue" stroke="midnightblue" points="838.816,-83.1303 846.167,-75.5011 835.663,-76.8806 838.816,-83.1303"/>
</g>
<!-- Node13 -->
<g id="node25" class="node"><title>Node13</title>
<a xlink:href="_vec_con_8h.html" target="_top" xlink:title="VecCon.h">
<polygon fill="white" stroke="black" points="916,-56.5 916,-75.5 976,-75.5 976,-56.5 916,-56.5"/>
<text text-anchor="middle" x="946" y="-62.5" font-family="Helvetica,sans-Serif" font-size="10.00">VecCon.h</text>
</a>
</g>
<!-- Node1&#45;&gt;Node13 -->
<g id="edge24" class="edge"><title>Node1&#45;&gt;Node13</title>
<path fill="none" stroke="midnightblue" d="M787.006,-112.373C819.99,-102.753 870.736,-87.9519 905.993,-77.6687"/>
<polygon fill="midnightblue" stroke="midnightblue" points="907.329,-80.925 915.949,-74.7649 905.369,-74.205 907.329,-80.925"/>
</g>
<!-- Node14 -->
<g id="node27" class="node"><title>Node14</title>
<a xlink:href="_neuron_8h.html" target="_top" xlink:title="Neuron.h">
<polygon fill="white" stroke="black" points="1225,-0.5 1225,-19.5 1281,-19.5 1281,-0.5 1225,-0.5"/>
<text text-anchor="middle" x="1253" y="-6.5" font-family="Helvetica,sans-Serif" font-size="10.00">Neuron.h</text>
</a>
</g>
<!-- Node1&#45;&gt;Node14 -->
<g id="edge26" class="edge"><title>Node1&#45;&gt;Node14</title>
<path fill="none" stroke="midnightblue" d="M822.194,-116.176C910.787,-108.108 1060.35,-92.6318 1113,-76 1131.2,-70.2514 1133.85,-64.3714 1151,-56 1174.25,-44.6501 1200.92,-32.6575 1221.16,-23.7639"/>
<polygon fill="midnightblue" stroke="midnightblue" points="1222.77,-26.8778 1230.53,-19.6633 1219.97,-20.4646 1222.77,-26.8778"/>
</g>
<!-- Node15 -->
<g id="node29" class="node"><title>Node15</title>
<a xlink:href="_vec_neuron_8h.html" target="_top" xlink:title="VecNeuron.h">
<polygon fill="white" stroke="black" points="1031.5,-56.5 1031.5,-75.5 1104.5,-75.5 1104.5,-56.5 1031.5,-56.5"/>
<text text-anchor="middle" x="1068" y="-62.5" font-family="Helvetica,sans-Serif" font-size="10.00">VecNeuron.h</text>
</a>
</g>
<!-- Node1&#45;&gt;Node15 -->
<g id="edge28" class="edge"><title>Node1&#45;&gt;Node15</title>
<path fill="none" stroke="midnightblue" d="M810.979,-112.493C864.497,-103.463 946.775,-89.3256 1018,-76 1019.09,-75.7965 1020.19,-75.589 1021.3,-75.3785"/>
<polygon fill="midnightblue" stroke="midnightblue" points="1022.27,-78.755 1031.43,-73.4234 1020.95,-71.8818 1022.27,-78.755"/>
</g>
<!-- Node16 -->
<g id="node31" class="node"><title>Node16</title>
<a xlink:href="_con_8cpp.html" target="_top" xlink:title="Con.cpp">
<polygon fill="white" stroke="black" points="761.5,-56.5 761.5,-75.5 814.5,-75.5 814.5,-56.5 761.5,-56.5"/>
<text text-anchor="middle" x="788" y="-62.5" font-family="Helvetica,sans-Serif" font-size="10.00">Con.cpp</text>
</a>
</g>
<!-- Node1&#45;&gt;Node16 -->
<g id="edge30" class="edge"><title>Node1&#45;&gt;Node16</title>
<path fill="none" stroke="midnightblue" d="M759.922,-112.246C764.603,-104.537 771.267,-93.5598 776.929,-84.2348"/>
<polygon fill="midnightblue" stroke="midnightblue" points="779.947,-86.007 782.146,-75.6427 773.964,-82.3741 779.947,-86.007"/>
</g>
<!-- Node17 -->
<g id="node34" class="node"><title>Node17</title>
<a xlink:href="_container_8cpp.html" target="_top" xlink:title="Container.cpp">
<polygon fill="white" stroke="black" points="1159.5,-56.5 1159.5,-75.5 1236.5,-75.5 1236.5,-56.5 1159.5,-56.5"/>
<text text-anchor="middle" x="1198" y="-62.5" font-family="Helvetica,sans-Serif" font-size="10.00">Container.cpp</text>
</a>
</g>
<!-- Node1&#45;&gt;Node17 -->
<g id="edge34" class="edge"><title>Node1&#45;&gt;Node17</title>
<path fill="none" stroke="midnightblue" d="M822.188,-115.526C900.551,-107.733 1032.91,-93.4853 1146,-76 1147.09,-75.8314 1148.19,-75.6567 1149.3,-75.4767"/>
<polygon fill="midnightblue" stroke="midnightblue" points="1150.17,-78.8794 1159.44,-73.7418 1148.99,-71.9798 1150.17,-78.8794"/>
</g>
<!-- Node18 -->
<g id="node36" class="node"><title>Node18</title>
<a xlink:href="_vec_con_8cpp.html" target="_top" xlink:title="VecCon.cpp">
<polygon fill="white" stroke="black" points="1254,-56.5 1254,-75.5 1324,-75.5 1324,-56.5 1254,-56.5"/>
<text text-anchor="middle" x="1289" y="-62.5" font-family="Helvetica,sans-Serif" font-size="10.00">VecCon.cpp</text>
</a>
</g>
<!-- Node1&#45;&gt;Node18 -->
<g id="edge36" class="edge"><title>Node1&#45;&gt;Node18</title>
<path fill="none" stroke="midnightblue" d="M822.261,-118.417C915.378,-112.905 1087.55,-100.493 1243.3,-76.1005"/>
<polygon fill="midnightblue" stroke="midnightblue" points="1244.21,-79.5006 1253.54,-74.4765 1243.11,-72.5871 1244.21,-79.5006"/>
</g>
<!-- Node19 -->
<g id="node38" class="node"><title>Node19</title>
<a xlink:href="_neuron_8cpp.html" target="_top" xlink:title="Neuron.cpp">
<polygon fill="white" stroke="black" points="1342,-56.5 1342,-75.5 1408,-75.5 1408,-56.5 1342,-56.5"/>
<text text-anchor="middle" x="1375" y="-62.5" font-family="Helvetica,sans-Serif" font-size="10.00">Neuron.cpp</text>
</a>
</g>
<!-- Node1&#45;&gt;Node19 -->
<g id="edge38" class="edge"><title>Node1&#45;&gt;Node19</title>
<path fill="none" stroke="midnightblue" d="M822.145,-119.994C928.887,-116.101 1142.06,-105.309 1331.48,-76.0281"/>
<polygon fill="midnightblue" stroke="midnightblue" points="1332.28,-79.4446 1341.62,-74.4385 1331.2,-72.529 1332.28,-79.4446"/>
</g>
<!-- Node16&#45;&gt;Node11 -->
<g id="edge32" class="edge"><title>Node16&#45;&gt;Node11</title>
<path fill="none" stroke="midnightblue" d="M806.812,-56.2455C823.847,-47.4125 849.158,-34.2887 868.468,-24.2758"/>
<polygon fill="midnightblue" stroke="midnightblue" points="870.137,-27.353 877.403,-19.6427 866.915,-21.1388 870.137,-27.353"/>
</g>
<!-- Node19&#45;&gt;Node14 -->
<g id="edge40" class="edge"><title>Node19&#45;&gt;Node14</title>
<path fill="none" stroke="midnightblue" d="M1354.03,-56.3733C1334.44,-47.3838 1305,-33.8706 1282.95,-23.7471"/>
<polygon fill="midnightblue" stroke="midnightblue" points="1284.25,-20.4919 1273.7,-19.5011 1281.33,-26.8538 1284.25,-20.4919"/>
</g>
</g>
</svg>
