<?xml version="1.0" encoding="UTF-8" standalone="no"?>
<!DOCTYPE svg PUBLIC "-//W3C//DTD SVG 1.1//EN"
 "http://www.w3.org/Graphics/SVG/1.1/DTD/svg11.dtd">
<!-- Generated by graphviz version 2.25.20091207.0545 (20091207.0545)
 -->
<!-- Title: G Pages: 1 -->
<svg width="1230pt" height="140pt"
 viewBox="0.00 0.00 1230.00 140.00" xmlns="http://www.w3.org/2000/svg" xmlns:xlink="http://www.w3.org/1999/xlink">
<g id="graph1" class="graph" transform="scale(1 1) rotate(0) translate(4 136)">
<title>G</title>
<polygon fill="white" stroke="white" points="-4,5 -4,-136 1227,-136 1227,5 -4,5"/>
<!-- Node1 -->
<g id="node1" class="node"><title>Node1</title>
<polygon fill="#bfbfbf" stroke="black" points="566,-112.5 566,-131.5 702,-131.5 702,-112.5 566,-112.5"/>
<text text-anchor="middle" x="634" y="-118.5" font-family="Helvetica,sans-Serif" font-size="10.00">pkg/AMORE/src/AMORE.h</text>
</g>
<!-- Node2 -->
<g id="node3" class="node"><title>Node2</title>
<polygon fill="white" stroke="#bfbfbf" points="0,-56.5 0,-75.5 54,-75.5 54,-56.5 0,-56.5"/>
<text text-anchor="middle" x="27" y="-62.5" font-family="Helvetica,sans-Serif" font-size="10.00">iostream</text>
</g>
<!-- Node1&#45;&gt;Node2 -->
<g id="edge2" class="edge"><title>Node1&#45;&gt;Node2</title>
<path fill="none" stroke="midnightblue" d="M565.785,-120.696C460.047,-117.752 250.23,-108.237 64.3476,-75.9444"/>
<polygon fill="midnightblue" stroke="midnightblue" points="64.8494,-72.479 54.3935,-74.1891 63.6337,-79.3726 64.8494,-72.479"/>
</g>
<!-- Node3 -->
<g id="node5" class="node"><title>Node3</title>
<polygon fill="white" stroke="#bfbfbf" points="71.5,-56.5 71.5,-75.5 122.5,-75.5 122.5,-56.5 71.5,-56.5"/>
<text text-anchor="middle" x="97" y="-62.5" font-family="Helvetica,sans-Serif" font-size="10.00">sstream</text>
</g>
<!-- Node1&#45;&gt;Node3 -->
<g id="edge4" class="edge"><title>Node1&#45;&gt;Node3</title>
<path fill="none" stroke="midnightblue" d="M565.888,-119.975C470.634,-116.214 292.258,-105.79 132.848,-76.0636"/>
<polygon fill="midnightblue" stroke="midnightblue" points="133.338,-72.5942 122.861,-74.1709 132.034,-79.4718 133.338,-72.5942"/>
</g>
<!-- Node4 -->
<g id="node7" class="node"><title>Node4</title>
<polygon fill="white" stroke="#bfbfbf" points="140,-56.5 140,-75.5 196,-75.5 196,-56.5 140,-56.5"/>
<text text-anchor="middle" x="168" y="-62.5" font-family="Helvetica,sans-Serif" font-size="10.00">algorithm</text>
</g>
<!-- Node1&#45;&gt;Node4 -->
<g id="edge6" class="edge"><title>Node1&#45;&gt;Node4</title>
<path fill="none" stroke="midnightblue" d="M565.905,-118.013C482.962,-112.417 338.53,-100.291 206.095,-75.955"/>
<polygon fill="midnightblue" stroke="midnightblue" points="206.649,-72.498 196.176,-74.105 205.365,-79.3793 206.649,-72.498"/>
</g>
<!-- Node5 -->
<g id="node9" class="node"><title>Node5</title>
<polygon fill="white" stroke="#bfbfbf" points="213.5,-56.5 213.5,-75.5 256.5,-75.5 256.5,-56.5 213.5,-56.5"/>
<text text-anchor="middle" x="235" y="-62.5" font-family="Helvetica,sans-Serif" font-size="10.00">vector</text>
</g>
<!-- Node1&#45;&gt;Node5 -->
<g id="edge8" class="edge"><title>Node1&#45;&gt;Node5</title>
<path fill="none" stroke="midnightblue" d="M565.972,-117.568C493.585,-111.944 375.727,-100.19 266.663,-76.046"/>
<polygon fill="midnightblue" stroke="midnightblue" points="267.338,-72.6105 256.813,-73.8259 265.799,-79.4392 267.338,-72.6105"/>
</g>
<!-- Node6 -->
<g id="node11" class="node"><title>Node6</title>
<polygon fill="white" stroke="#bfbfbf" points="274,-56.5 274,-75.5 320,-75.5 320,-56.5 274,-56.5"/>
<text text-anchor="middle" x="297" y="-62.5" font-family="Helvetica,sans-Serif" font-size="10.00">iterator</text>
</g>
<!-- Node1&#45;&gt;Node6 -->
<g id="edge10" class="edge"><title>Node1&#45;&gt;Node6</title>
<path fill="none" stroke="midnightblue" d="M565.903,-114.759C506.026,-107.704 416.444,-95.4823 330.254,-76.0189"/>
<polygon fill="midnightblue" stroke="midnightblue" points="330.835,-72.5614 320.305,-73.7362 329.269,-79.3841 330.835,-72.5614"/>
</g>
<!-- Node7 -->
<g id="node13" class="node"><title>Node7</title>
<polygon fill="white" stroke="#bfbfbf" points="338,-56.5 338,-75.5 446,-75.5 446,-56.5 338,-56.5"/>
<text text-anchor="middle" x="392" y="-62.5" font-family="Helvetica,sans-Serif" font-size="10.00">boost/shared_ptr.hpp</text>
</g>
<!-- Node1&#45;&gt;Node7 -->
<g id="edge12" class="edge"><title>Node1&#45;&gt;Node7</title>
<path fill="none" stroke="midnightblue" d="M592.674,-112.437C551.257,-102.853 487.422,-88.0812 442.907,-77.78"/>
<polygon fill="midnightblue" stroke="midnightblue" points="443.688,-74.3683 433.156,-75.5237 442.109,-81.1881 443.688,-74.3683"/>
</g>
<!-- Node8 -->
<g id="node15" class="node"><title>Node8</title>
<polygon fill="white" stroke="#bfbfbf" points="464,-56.5 464,-75.5 566,-75.5 566,-56.5 464,-56.5"/>
<text text-anchor="middle" x="515" y="-62.5" font-family="Helvetica,sans-Serif" font-size="10.00">boost/weak_ptr.hpp</text>
</g>
<!-- Node1&#45;&gt;Node8 -->
<g id="edge14" class="edge"><title>Node1&#45;&gt;Node8</title>
<path fill="none" stroke="midnightblue" d="M613.543,-112.373C594.526,-103.424 565.982,-89.9917 544.502,-79.8835"/>
<polygon fill="midnightblue" stroke="midnightblue" points="545.728,-76.5923 535.19,-75.5011 542.748,-82.926 545.728,-76.5923"/>
</g>
<!-- Node9 -->
<g id="node17" class="node"><title>Node9</title>
<polygon fill="white" stroke="#bfbfbf" points="584,-56.5 584,-75.5 632,-75.5 632,-56.5 584,-56.5"/>
<text text-anchor="middle" x="608" y="-62.5" font-family="Helvetica,sans-Serif" font-size="10.00">Rcpp.h</text>
</g>
<!-- Node1&#45;&gt;Node9 -->
<g id="edge16" class="edge"><title>Node1&#45;&gt;Node9</title>
<path fill="none" stroke="midnightblue" d="M629.471,-112.246C625.967,-104.697 621.007,-94.0158 616.738,-84.8197"/>
<polygon fill="midnightblue" stroke="midnightblue" points="619.863,-83.2389 612.477,-75.6427 613.514,-86.1867 619.863,-83.2389"/>
</g>
<!-- Node10 -->
<g id="node19" class="node"><title>Node10</title>
<a xlink:href="_con_8h.html" target="_top" xlink:title="Con.h">
<polygon fill="white" stroke="black" points="744,-0.5 744,-19.5 786,-19.5 786,-0.5 744,-0.5"/>
<text text-anchor="middle" x="765" y="-6.5" font-family="Helvetica,sans-Serif" font-size="10.00">Con.h</text>
</a>
</g>
<!-- Node1&#45;&gt;Node10 -->
<g id="edge18" class="edge"><title>Node1&#45;&gt;Node10</title>
<path fill="none" stroke="midnightblue" d="M638.633,-112.413C645.725,-98.5331 660.428,-72.6799 679,-56 695.262,-41.3945 716.993,-29.8219 734.54,-21.9375"/>
<polygon fill="midnightblue" stroke="midnightblue" points="736.004,-25.1179 743.798,-17.9408 733.23,-18.6912 736.004,-25.1179"/>
</g>
<!-- Node11 -->
<g id="node21" class="node"><title>Node11</title>
<a xlink:href="vec_a_m_o_r_e_8h.html" target="_top" xlink:title="Container.h">
<polygon fill="white" stroke="black" points="687.5,-56.5 687.5,-75.5 764.5,-75.5 764.5,-56.5 687.5,-56.5"/>
<text text-anchor="middle" x="726" y="-62.5" font-family="Helvetica,sans-Serif" font-size="10.00">Container.h</text>
</a>
</g>
<!-- Node1&#45;&gt;Node11 -->
<g id="edge20" class="edge"><title>Node1&#45;&gt;Node11</title>
<path fill="none" stroke="midnightblue" d="M650.025,-112.246C664.141,-103.653 684.926,-91.0014 701.19,-81.1018"/>
<polygon fill="midnightblue" stroke="midnightblue" points="703.436,-83.8319 710.158,-75.6427 699.797,-77.8525 703.436,-83.8319"/>
</g>
<!-- Node12 -->
<g id="node23" class="node"><title>Node12</title>
<a xlink:href="vec_con_8h.html" target="_top" xlink:title="VecCon.h">
<polygon fill="white" stroke="black" points="782,-56.5 782,-75.5 840,-75.5 840,-56.5 782,-56.5"/>
<text text-anchor="middle" x="811" y="-62.5" font-family="Helvetica,sans-Serif" font-size="10.00">VecCon.h</text>
</a>
</g>
<!-- Node1&#45;&gt;Node12 -->
<g id="edge22" class="edge"><title>Node1&#45;&gt;Node12</title>
<path fill="none" stroke="midnightblue" d="M664.427,-112.373C694.256,-102.936 739.843,-88.5131 772.249,-78.2604"/>
<polygon fill="midnightblue" stroke="midnightblue" points="773.372,-81.576 781.85,-75.2225 771.26,-74.9021 773.372,-81.576"/>
</g>
<!-- Node13 -->
<g id="node25" class="node"><title>Node13</title>
<a xlink:href="_neuron_8h.html" target="_top" xlink:title="Neuron.h">
<polygon fill="white" stroke="black" points="1035,-0.5 1035,-19.5 1091,-19.5 1091,-0.5 1035,-0.5"/>
<text text-anchor="middle" x="1063" y="-6.5" font-family="Helvetica,sans-Serif" font-size="10.00">Neuron.h</text>
</a>
</g>
<!-- Node1&#45;&gt;Node13 -->
<g id="edge24" class="edge"><title>Node1&#45;&gt;Node13</title>
<path fill="none" stroke="midnightblue" d="M702.276,-117.229C760.958,-111.666 847.215,-99.9682 919,-76 937.103,-69.9557 939.79,-64.2491 957,-56 981.206,-44.3977 1009.07,-32.3568 1030.15,-23.5056"/>
<polygon fill="midnightblue" stroke="midnightblue" points="1031.73,-26.6368 1039.61,-19.5547 1029.04,-20.177 1031.73,-26.6368"/>
</g>
<!-- Node14 -->
<g id="node27" class="node"><title>Node14</title>
<a xlink:href="_con_8cpp.html" target="_top" xlink:title="Con.cpp">
<polygon fill="white" stroke="black" points="857.5,-56.5 857.5,-75.5 910.5,-75.5 910.5,-56.5 857.5,-56.5"/>
<text text-anchor="middle" x="884" y="-62.5" font-family="Helvetica,sans-Serif" font-size="10.00">Con.cpp</text>
</a>
</g>
<!-- Node1&#45;&gt;Node14 -->
<g id="edge26" class="edge"><title>Node1&#45;&gt;Node14</title>
<path fill="none" stroke="midnightblue" d="M683.317,-112.434C724.816,-104.162 785.926,-91.4646 847.426,-76.2872"/>
<polygon fill="midnightblue" stroke="midnightblue" points="848.438,-79.6421 857.297,-73.8303 846.748,-72.8493 848.438,-79.6421"/>
</g>
<!-- Node15 -->
<g id="node30" class="node"><title>Node15</title>
<a xlink:href="vec_a_m_o_r_e_8cpp.html" target="_top" xlink:title="Container.cpp">
<polygon fill="white" stroke="black" points="965.5,-56.5 965.5,-75.5 1052.5,-75.5 1052.5,-56.5 965.5,-56.5"/>
<text text-anchor="middle" x="1009" y="-62.5" font-family="Helvetica,sans-Serif" font-size="10.00">Container.cpp</text>
</a>
</g>
<!-- Node1&#45;&gt;Node15 -->
<g id="edge30" class="edge"><title>Node1&#45;&gt;Node15</title>
<path fill="none" stroke="midnightblue" d="M702.016,-112.763C766.465,-103.868 865.934,-89.7714 952,-76 953.091,-75.8254 954.194,-75.6473 955.305,-75.4664"/>
<polygon fill="midnightblue" stroke="midnightblue" points="956.163,-78.8718 965.453,-73.7783 955.015,-71.9667 956.163,-78.8718"/>
</g>
<!-- Node16 -->
<g id="node32" class="node"><title>Node16</title>
<a xlink:href="vec_con_8cpp.html" target="_top" xlink:title="VecCon.cpp">
<polygon fill="white" stroke="black" points="1069.5,-56.5 1069.5,-75.5 1138.5,-75.5 1138.5,-56.5 1069.5,-56.5"/>
<text text-anchor="middle" x="1104" y="-62.5" font-family="Helvetica,sans-Serif" font-size="10.00">VecCon.cpp</text>
</a>
</g>
<!-- Node1&#45;&gt;Node16 -->
<g id="edge32" class="edge"><title>Node1&#45;&gt;Node16</title>
<path fill="none" stroke="midnightblue" d="M702.017,-117.23C784.423,-110.878 927.608,-98.0133 1059.09,-76.1665"/>
<polygon fill="midnightblue" stroke="midnightblue" points="1060.06,-79.5524 1069.34,-74.4407 1058.9,-72.6496 1060.06,-79.5524"/>
</g>
<!-- Node17 -->
<g id="node34" class="node"><title>Node17</title>
<a xlink:href="_neuron_8cpp.html" target="_top" xlink:title="Neuron.cpp">
<polygon fill="white" stroke="black" points="1156,-56.5 1156,-75.5 1222,-75.5 1222,-56.5 1156,-56.5"/>
<text text-anchor="middle" x="1189" y="-62.5" font-family="Helvetica,sans-Serif" font-size="10.00">Neuron.cpp</text>
</a>
</g>
<!-- Node1&#45;&gt;Node17 -->
<g id="edge34" class="edge"><title>Node1&#45;&gt;Node17</title>
<path fill="none" stroke="midnightblue" d="M702.024,-119.029C798.611,-114.118 981.123,-102.286 1145.33,-76.073"/>
<polygon fill="midnightblue" stroke="midnightblue" points="1146.3,-79.4605 1155.62,-74.4075 1145.19,-72.5504 1146.3,-79.4605"/>
</g>
<!-- Node14&#45;&gt;Node10 -->
<g id="edge28" class="edge"><title>Node14&#45;&gt;Node10</title>
<path fill="none" stroke="midnightblue" d="M863.543,-56.3733C844.526,-47.4241 815.982,-33.9917 794.502,-23.8835"/>
<polygon fill="midnightblue" stroke="midnightblue" points="795.728,-20.5923 785.19,-19.5011 792.748,-26.926 795.728,-20.5923"/>
</g>
<!-- Node17&#45;&gt;Node13 -->
<g id="edge36" class="edge"><title>Node17&#45;&gt;Node13</title>
<path fill="none" stroke="midnightblue" d="M1167.34,-56.3733C1147.02,-47.3435 1116.44,-33.7494 1093.63,-23.6111"/>
<polygon fill="midnightblue" stroke="midnightblue" points="1094.94,-20.3642 1084.38,-19.5011 1092.09,-26.7609 1094.94,-20.3642"/>
</g>
</g>
</svg>
