<?xml version="1.0" encoding="UTF-8" standalone="no"?>
<!DOCTYPE svg PUBLIC "-//W3C//DTD SVG 1.1//EN"
 "http://www.w3.org/Graphics/SVG/1.1/DTD/svg11.dtd">
<!-- Generated by graphviz version 2.25.20091207.0545 (20091207.0545)
 -->
<!-- Title: G Pages: 1 -->
<svg width="674pt" height="140pt"
 viewBox="0.00 0.00 674.00 140.00" xmlns="http://www.w3.org/2000/svg" xmlns:xlink="http://www.w3.org/1999/xlink">
<g id="graph1" class="graph" transform="scale(1 1) rotate(0) translate(4 136)">
<title>G</title>
<polygon fill="white" stroke="white" points="-4,5 -4,-136 671,-136 671,5 -4,5"/>
<!-- Node1 -->
<g id="node1" class="node"><title>Node1</title>
<polygon fill="#bfbfbf" stroke="black" points="230,-112.5 230,-131.5 366,-131.5 366,-112.5 230,-112.5"/>
<text text-anchor="middle" x="298" y="-118.5" font-family="Helvetica,sans-Serif" font-size="10.00">pkg/AMORE/src/AMORE.h</text>
</g>
<!-- Node2 -->
<g id="node3" class="node"><title>Node2</title>
<polygon fill="white" stroke="#bfbfbf" points="0,-56.5 0,-75.5 54,-75.5 54,-56.5 0,-56.5"/>
<text text-anchor="middle" x="27" y="-62.5" font-family="Helvetica,sans-Serif" font-size="10.00">iostream</text>
</g>
<!-- Node1&#45;&gt;Node2 -->
<g id="edge2" class="edge"><title>Node1&#45;&gt;Node2</title>
<path fill="none" stroke="midnightblue" d="M242.661,-112.421C197.114,-104.252 130.677,-91.6876 63.9181,-76.0855"/>
<polygon fill="midnightblue" stroke="midnightblue" points="64.6051,-72.6516 54.0686,-73.7617 62.9977,-79.4645 64.6051,-72.6516"/>
</g>
<!-- Node3 -->
<g id="node5" class="node"><title>Node3</title>
<polygon fill="white" stroke="#bfbfbf" points="71.5,-56.5 71.5,-75.5 122.5,-75.5 122.5,-56.5 71.5,-56.5"/>
<text text-anchor="middle" x="97" y="-62.5" font-family="Helvetica,sans-Serif" font-size="10.00">sstream</text>
</g>
<!-- Node1&#45;&gt;Node3 -->
<g id="edge4" class="edge"><title>Node1&#45;&gt;Node3</title>
<path fill="none" stroke="midnightblue" d="M262.764,-112.484C230.981,-103.858 182.701,-90.652 132.361,-76.3588"/>
<polygon fill="midnightblue" stroke="midnightblue" points="133.182,-72.9536 122.606,-73.5826 131.266,-79.6862 133.182,-72.9536"/>
</g>
<!-- Node4 -->
<g id="node7" class="node"><title>Node4</title>
<polygon fill="white" stroke="#bfbfbf" points="140,-56.5 140,-75.5 196,-75.5 196,-56.5 140,-56.5"/>
<text text-anchor="middle" x="168" y="-62.5" font-family="Helvetica,sans-Serif" font-size="10.00">algorithm</text>
</g>
<!-- Node1&#45;&gt;Node4 -->
<g id="edge6" class="edge"><title>Node1&#45;&gt;Node4</title>
<path fill="none" stroke="midnightblue" d="M275.652,-112.373C254.597,-103.303 222.85,-89.6279 199.283,-79.4755"/>
<polygon fill="midnightblue" stroke="midnightblue" points="200.625,-76.243 190.056,-75.5011 197.856,-82.6719 200.625,-76.243"/>
</g>
<!-- Node5 -->
<g id="node9" class="node"><title>Node5</title>
<polygon fill="white" stroke="#bfbfbf" points="213.5,-56.5 213.5,-75.5 256.5,-75.5 256.5,-56.5 213.5,-56.5"/>
<text text-anchor="middle" x="235" y="-62.5" font-family="Helvetica,sans-Serif" font-size="10.00">vector</text>
</g>
<!-- Node1&#45;&gt;Node5 -->
<g id="edge8" class="edge"><title>Node1&#45;&gt;Node5</title>
<path fill="none" stroke="midnightblue" d="M287.026,-112.246C277.812,-104.055 264.447,-92.1749 253.57,-82.5069"/>
<polygon fill="midnightblue" stroke="midnightblue" points="255.647,-79.6704 245.848,-75.6427 250.997,-84.9023 255.647,-79.6704"/>
</g>
<!-- Node6 -->
<g id="node11" class="node"><title>Node6</title>
<polygon fill="white" stroke="#bfbfbf" points="274,-56.5 274,-75.5 322,-75.5 322,-56.5 274,-56.5"/>
<text text-anchor="middle" x="298" y="-62.5" font-family="Helvetica,sans-Serif" font-size="10.00">Rcpp.h</text>
</g>
<!-- Node1&#45;&gt;Node6 -->
<g id="edge10" class="edge"><title>Node1&#45;&gt;Node6</title>
<path fill="none" stroke="midnightblue" d="M298,-112.246C298,-104.938 298,-94.6944 298,-85.7046"/>
<polygon fill="midnightblue" stroke="midnightblue" points="301.5,-85.6426 298,-75.6427 294.5,-85.6427 301.5,-85.6426"/>
</g>
<!-- Node7 -->
<g id="node13" class="node"><title>Node7</title>
<a xlink:href="_con_8cpp.html" target="_top" xlink:title="Con.cpp">
<polygon fill="white" stroke="black" points="339.5,-56.5 339.5,-75.5 392.5,-75.5 392.5,-56.5 339.5,-56.5"/>
<text text-anchor="middle" x="366" y="-62.5" font-family="Helvetica,sans-Serif" font-size="10.00">Con.cpp</text>
</a>
</g>
<!-- Node1&#45;&gt;Node7 -->
<g id="edge12" class="edge"><title>Node1&#45;&gt;Node7</title>
<path fill="none" stroke="midnightblue" d="M309.845,-112.246C319.888,-103.975 334.499,-91.9416 346.3,-82.2232"/>
<polygon fill="midnightblue" stroke="midnightblue" points="348.797,-84.7015 354.291,-75.6427 344.347,-79.298 348.797,-84.7015"/>
</g>
<!-- Node9 -->
<g id="node17" class="node"><title>Node9</title>
<a xlink:href="vec_a_m_o_r_e_8cpp.html" target="_top" xlink:title="vecAMORE.cpp">
<polygon fill="white" stroke="black" points="409.5,-56.5 409.5,-75.5 496.5,-75.5 496.5,-56.5 409.5,-56.5"/>
<text text-anchor="middle" x="453" y="-62.5" font-family="Helvetica,sans-Serif" font-size="10.00">vecAMORE.cpp</text>
</a>
</g>
<!-- Node1&#45;&gt;Node9 -->
<g id="edge16" class="edge"><title>Node1&#45;&gt;Node9</title>
<path fill="none" stroke="midnightblue" d="M324.645,-112.373C350.196,-103.142 388.951,-89.1402 417.191,-78.9375"/>
<polygon fill="midnightblue" stroke="midnightblue" points="418.487,-82.1909 426.702,-75.5011 416.108,-75.6074 418.487,-82.1909"/>
</g>
<!-- Node10 -->
<g id="node19" class="node"><title>Node10</title>
<a xlink:href="vec_con_8cpp.html" target="_top" xlink:title="vecCon.cpp">
<polygon fill="white" stroke="black" points="513.5,-56.5 513.5,-75.5 582.5,-75.5 582.5,-56.5 513.5,-56.5"/>
<text text-anchor="middle" x="548" y="-62.5" font-family="Helvetica,sans-Serif" font-size="10.00">vecCon.cpp</text>
</a>
</g>
<!-- Node1&#45;&gt;Node10 -->
<g id="edge18" class="edge"><title>Node1&#45;&gt;Node10</title>
<path fill="none" stroke="midnightblue" d="M341.642,-112.432C381.425,-103.681 442.09,-90.2642 503.426,-76.3446"/>
<polygon fill="midnightblue" stroke="midnightblue" points="504.297,-79.736 513.273,-74.1069 502.746,-72.91 504.297,-79.736"/>
</g>
<!-- Node11 -->
<g id="node21" class="node"><title>Node11</title>
<a xlink:href="_neuron_8cpp.html" target="_top" xlink:title="Neuron.cpp">
<polygon fill="white" stroke="black" points="600,-56.5 600,-75.5 666,-75.5 666,-56.5 600,-56.5"/>
<text text-anchor="middle" x="633" y="-62.5" font-family="Helvetica,sans-Serif" font-size="10.00">Neuron.cpp</text>
</a>
</g>
<!-- Node1&#45;&gt;Node11 -->
<g id="edge20" class="edge"><title>Node1&#45;&gt;Node11</title>
<path fill="none" stroke="midnightblue" d="M366.055,-112.85C423.283,-104.805 507.452,-92.1561 589.577,-76.1712"/>
<polygon fill="midnightblue" stroke="midnightblue" points="590.443,-79.5681 599.581,-74.2054 589.094,-72.6994 590.443,-79.5681"/>
</g>
<!-- Node8 -->
<g id="node15" class="node"><title>Node8</title>
<a xlink:href="_con_8h.html" target="_top" xlink:title="Con.h">
<polygon fill="white" stroke="black" points="345,-0.5 345,-19.5 387,-19.5 387,-0.5 345,-0.5"/>
<text text-anchor="middle" x="366" y="-6.5" font-family="Helvetica,sans-Serif" font-size="10.00">Con.h</text>
</a>
</g>
<!-- Node7&#45;&gt;Node8 -->
<g id="edge14" class="edge"><title>Node7&#45;&gt;Node8</title>
<path fill="none" stroke="midnightblue" d="M366,-56.2455C366,-48.9382 366,-38.6944 366,-29.7046"/>
<polygon fill="midnightblue" stroke="midnightblue" points="369.5,-29.6426 366,-19.6427 362.5,-29.6427 369.5,-29.6426"/>
</g>
<!-- Node12 -->
<g id="node23" class="node"><title>Node12</title>
<a xlink:href="_neuron_8h.html" target="_top" xlink:title="Neuron.h">
<polygon fill="white" stroke="black" points="605,-0.5 605,-19.5 661,-19.5 661,-0.5 605,-0.5"/>
<text text-anchor="middle" x="633" y="-6.5" font-family="Helvetica,sans-Serif" font-size="10.00">Neuron.h</text>
</a>
</g>
<!-- Node11&#45;&gt;Node12 -->
<g id="edge22" class="edge"><title>Node11&#45;&gt;Node12</title>
<path fill="none" stroke="midnightblue" d="M633,-56.2455C633,-48.9382 633,-38.6944 633,-29.7046"/>
<polygon fill="midnightblue" stroke="midnightblue" points="636.5,-29.6426 633,-19.6427 629.5,-29.6427 636.5,-29.6426"/>
</g>
</g>
</svg>
