<?xml version="1.0" encoding="UTF-8" standalone="no"?>
<!DOCTYPE svg PUBLIC "-//W3C//DTD SVG 1.1//EN"
 "http://www.w3.org/Graphics/SVG/1.1/DTD/svg11.dtd">
<!-- Generated by graphviz version 2.25.20091207.0545 (20091207.0545)
 -->
<!-- Title: G Pages: 1 -->
<svg width="1166pt" height="140pt"
 viewBox="0.00 0.00 1166.00 140.00" xmlns="http://www.w3.org/2000/svg" xmlns:xlink="http://www.w3.org/1999/xlink">
<g id="graph1" class="graph" transform="scale(1 1) rotate(0) translate(4 136)">
<title>G</title>
<polygon fill="white" stroke="white" points="-4,5 -4,-136 1163,-136 1163,5 -4,5"/>
<!-- Node1 -->
<g id="node1" class="node"><title>Node1</title>
<polygon fill="#bfbfbf" stroke="black" points="528,-112.5 528,-131.5 664,-131.5 664,-112.5 528,-112.5"/>
<text text-anchor="middle" x="596" y="-118.5" font-family="Helvetica,sans-Serif" font-size="10.00">pkg/AMORE/src/AMORE.h</text>
</g>
<!-- Node2 -->
<g id="node3" class="node"><title>Node2</title>
<polygon fill="white" stroke="#bfbfbf" points="0,-56.5 0,-75.5 54,-75.5 54,-56.5 0,-56.5"/>
<text text-anchor="middle" x="27" y="-62.5" font-family="Helvetica,sans-Serif" font-size="10.00">iostream</text>
</g>
<!-- Node1&#45;&gt;Node2 -->
<g id="edge2" class="edge"><title>Node1&#45;&gt;Node2</title>
<path fill="none" stroke="midnightblue" d="M527.739,-120.14C427.774,-116.527 235.702,-106.213 63.9797,-75.8678"/>
<polygon fill="midnightblue" stroke="midnightblue" points="64.4637,-72.3988 54.0028,-74.0778 63.2275,-79.2888 64.4637,-72.3988"/>
</g>
<!-- Node3 -->
<g id="node5" class="node"><title>Node3</title>
<polygon fill="white" stroke="#bfbfbf" points="71.5,-56.5 71.5,-75.5 122.5,-75.5 122.5,-56.5 71.5,-56.5"/>
<text text-anchor="middle" x="97" y="-62.5" font-family="Helvetica,sans-Serif" font-size="10.00">sstream</text>
</g>
<!-- Node1&#45;&gt;Node3 -->
<g id="edge4" class="edge"><title>Node1&#45;&gt;Node3</title>
<path fill="none" stroke="midnightblue" d="M527.653,-119.249C438.524,-114.771 277.773,-103.65 132.83,-76.0775"/>
<polygon fill="midnightblue" stroke="midnightblue" points="133.348,-72.6128 122.865,-74.1507 132.019,-79.4855 133.348,-72.6128"/>
</g>
<!-- Node4 -->
<g id="node7" class="node"><title>Node4</title>
<polygon fill="white" stroke="#bfbfbf" points="140,-56.5 140,-75.5 196,-75.5 196,-56.5 140,-56.5"/>
<text text-anchor="middle" x="168" y="-62.5" font-family="Helvetica,sans-Serif" font-size="10.00">algorithm</text>
</g>
<!-- Node1&#45;&gt;Node4 -->
<g id="edge6" class="edge"><title>Node1&#45;&gt;Node4</title>
<path fill="none" stroke="midnightblue" d="M527.724,-117.025C451.465,-110.782 324.271,-98.3228 206.124,-75.9822"/>
<polygon fill="midnightblue" stroke="midnightblue" points="206.663,-72.5218 196.182,-74.0745 205.343,-79.3964 206.663,-72.5218"/>
</g>
<!-- Node5 -->
<g id="node9" class="node"><title>Node5</title>
<polygon fill="white" stroke="#bfbfbf" points="213.5,-56.5 213.5,-75.5 256.5,-75.5 256.5,-56.5 213.5,-56.5"/>
<text text-anchor="middle" x="235" y="-62.5" font-family="Helvetica,sans-Serif" font-size="10.00">vector</text>
</g>
<!-- Node1&#45;&gt;Node5 -->
<g id="edge8" class="edge"><title>Node1&#45;&gt;Node5</title>
<path fill="none" stroke="midnightblue" d="M527.816,-116.216C462.657,-109.855 361.659,-97.8233 266.594,-76.0656"/>
<polygon fill="midnightblue" stroke="midnightblue" points="267.355,-72.6494 256.822,-73.7894 265.767,-79.4668 267.355,-72.6494"/>
</g>
<!-- Node6 -->
<g id="node11" class="node"><title>Node6</title>
<polygon fill="white" stroke="#bfbfbf" points="274,-56.5 274,-75.5 382,-75.5 382,-56.5 274,-56.5"/>
<text text-anchor="middle" x="328" y="-62.5" font-family="Helvetica,sans-Serif" font-size="10.00">boost/shared_ptr.hpp</text>
</g>
<!-- Node1&#45;&gt;Node6 -->
<g id="edge10" class="edge"><title>Node1&#45;&gt;Node6</title>
<path fill="none" stroke="midnightblue" d="M550.234,-112.437C504.078,-102.793 432.782,-87.8948 383.446,-77.5858"/>
<polygon fill="midnightblue" stroke="midnightblue" points="384.082,-74.1431 373.578,-75.5237 382.65,-80.9951 384.082,-74.1431"/>
</g>
<!-- Node7 -->
<g id="node13" class="node"><title>Node7</title>
<polygon fill="white" stroke="#bfbfbf" points="400,-56.5 400,-75.5 502,-75.5 502,-56.5 400,-56.5"/>
<text text-anchor="middle" x="451" y="-62.5" font-family="Helvetica,sans-Serif" font-size="10.00">boost/weak_ptr.hpp</text>
</g>
<!-- Node1&#45;&gt;Node7 -->
<g id="edge12" class="edge"><title>Node1&#45;&gt;Node7</title>
<path fill="none" stroke="midnightblue" d="M571.074,-112.373C547.38,-103.223 511.549,-89.3844 485.193,-79.2057"/>
<polygon fill="midnightblue" stroke="midnightblue" points="486.191,-75.8389 475.601,-75.5011 483.669,-82.3689 486.191,-75.8389"/>
</g>
<!-- Node8 -->
<g id="node15" class="node"><title>Node8</title>
<polygon fill="white" stroke="#bfbfbf" points="520,-56.5 520,-75.5 568,-75.5 568,-56.5 520,-56.5"/>
<text text-anchor="middle" x="544" y="-62.5" font-family="Helvetica,sans-Serif" font-size="10.00">Rcpp.h</text>
</g>
<!-- Node1&#45;&gt;Node8 -->
<g id="edge14" class="edge"><title>Node1&#45;&gt;Node8</title>
<path fill="none" stroke="midnightblue" d="M586.942,-112.246C579.486,-104.216 568.737,-92.6394 559.858,-83.0781"/>
<polygon fill="midnightblue" stroke="midnightblue" points="562.323,-80.589 552.954,-75.6427 557.194,-85.3522 562.323,-80.589"/>
</g>
<!-- Node9 -->
<g id="node17" class="node"><title>Node9</title>
<a xlink:href="_con_8h.html" target="_top" xlink:title="Con.h">
<polygon fill="white" stroke="black" points="680,-0.5 680,-19.5 722,-19.5 722,-0.5 680,-0.5"/>
<text text-anchor="middle" x="701" y="-6.5" font-family="Helvetica,sans-Serif" font-size="10.00">Con.h</text>
</a>
</g>
<!-- Node1&#45;&gt;Node9 -->
<g id="edge16" class="edge"><title>Node1&#45;&gt;Node9</title>
<path fill="none" stroke="midnightblue" d="M596.461,-112.416C597.594,-98.5386 601.505,-72.6892 615,-56 629.168,-38.4779 651.847,-26.7423 670.359,-19.5122"/>
<polygon fill="midnightblue" stroke="midnightblue" points="671.669,-22.76 679.862,-16.0431 669.269,-16.1843 671.669,-22.76"/>
</g>
<!-- Node10 -->
<g id="node19" class="node"><title>Node10</title>
<a xlink:href="vec_a_m_o_r_e_8h.html" target="_top" xlink:title="vecAMORE.h">
<polygon fill="white" stroke="black" points="623.5,-56.5 623.5,-75.5 700.5,-75.5 700.5,-56.5 623.5,-56.5"/>
<text text-anchor="middle" x="662" y="-62.5" font-family="Helvetica,sans-Serif" font-size="10.00">vecAMORE.h</text>
</a>
</g>
<!-- Node1&#45;&gt;Node10 -->
<g id="edge18" class="edge"><title>Node1&#45;&gt;Node10</title>
<path fill="none" stroke="midnightblue" d="M607.496,-112.246C617.244,-103.975 631.426,-91.9416 642.88,-82.2232"/>
<polygon fill="midnightblue" stroke="midnightblue" points="645.275,-84.7813 650.635,-75.6427 640.746,-79.4437 645.275,-84.7813"/>
</g>
<!-- Node11 -->
<g id="node21" class="node"><title>Node11</title>
<a xlink:href="vec_con_8h.html" target="_top" xlink:title="vecCon.h">
<polygon fill="white" stroke="black" points="718,-56.5 718,-75.5 776,-75.5 776,-56.5 718,-56.5"/>
<text text-anchor="middle" x="747" y="-62.5" font-family="Helvetica,sans-Serif" font-size="10.00">vecCon.h</text>
</a>
</g>
<!-- Node1&#45;&gt;Node11 -->
<g id="edge20" class="edge"><title>Node1&#45;&gt;Node11</title>
<path fill="none" stroke="midnightblue" d="M621.958,-112.373C646.741,-103.182 684.275,-89.2624 711.754,-79.0713"/>
<polygon fill="midnightblue" stroke="midnightblue" points="713.222,-82.26 721.381,-75.5011 710.788,-75.6968 713.222,-82.26"/>
</g>
<!-- Node12 -->
<g id="node23" class="node"><title>Node12</title>
<a xlink:href="_neuron_8h.html" target="_top" xlink:title="Neuron.h">
<polygon fill="white" stroke="black" points="971,-0.5 971,-19.5 1027,-19.5 1027,-0.5 971,-0.5"/>
<text text-anchor="middle" x="999" y="-6.5" font-family="Helvetica,sans-Serif" font-size="10.00">Neuron.h</text>
</a>
</g>
<!-- Node1&#45;&gt;Node12 -->
<g id="edge22" class="edge"><title>Node1&#45;&gt;Node12</title>
<path fill="none" stroke="midnightblue" d="M664.247,-115.695C717.326,-109.414 792.248,-97.503 855,-76 873.055,-69.8133 875.79,-64.2491 893,-56 917.206,-44.3977 945.068,-32.3568 966.15,-23.5056"/>
<polygon fill="midnightblue" stroke="midnightblue" points="967.734,-26.6368 975.614,-19.5547 965.038,-20.177 967.734,-26.6368"/>
</g>
<!-- Node13 -->
<g id="node25" class="node"><title>Node13</title>
<a xlink:href="_con_8cpp.html" target="_top" xlink:title="Con.cpp">
<polygon fill="white" stroke="black" points="793.5,-56.5 793.5,-75.5 846.5,-75.5 846.5,-56.5 793.5,-56.5"/>
<text text-anchor="middle" x="820" y="-62.5" font-family="Helvetica,sans-Serif" font-size="10.00">Con.cpp</text>
</a>
</g>
<!-- Node1&#45;&gt;Node13 -->
<g id="edge24" class="edge"><title>Node1&#45;&gt;Node13</title>
<path fill="none" stroke="midnightblue" d="M637.413,-112.418C673.61,-103.932 727.821,-90.9562 783.278,-76.3926"/>
<polygon fill="midnightblue" stroke="midnightblue" points="784.502,-79.6895 793.277,-73.7528 782.715,-72.9214 784.502,-79.6895"/>
</g>
<!-- Node14 -->
<g id="node28" class="node"><title>Node14</title>
<a xlink:href="vec_a_m_o_r_e_8cpp.html" target="_top" xlink:title="vecAMORE.cpp">
<polygon fill="white" stroke="black" points="901.5,-56.5 901.5,-75.5 988.5,-75.5 988.5,-56.5 901.5,-56.5"/>
<text text-anchor="middle" x="945" y="-62.5" font-family="Helvetica,sans-Serif" font-size="10.00">vecAMORE.cpp</text>
</a>
</g>
<!-- Node1&#45;&gt;Node14 -->
<g id="edge28" class="edge"><title>Node1&#45;&gt;Node14</title>
<path fill="none" stroke="midnightblue" d="M658.423,-112.488C717.58,-103.398 808.902,-89.1678 888,-76 889.09,-75.8185 890.192,-75.6342 891.302,-75.4475"/>
<polygon fill="midnightblue" stroke="midnightblue" points="892.173,-78.8497 901.444,-73.7218 890.999,-71.9489 892.173,-78.8497"/>
</g>
<!-- Node15 -->
<g id="node30" class="node"><title>Node15</title>
<a xlink:href="vec_con_8cpp.html" target="_top" xlink:title="vecCon.cpp">
<polygon fill="white" stroke="black" points="1005.5,-56.5 1005.5,-75.5 1074.5,-75.5 1074.5,-56.5 1005.5,-56.5"/>
<text text-anchor="middle" x="1040" y="-62.5" font-family="Helvetica,sans-Serif" font-size="10.00">vecCon.cpp</text>
</a>
</g>
<!-- Node1&#45;&gt;Node15 -->
<g id="edge30" class="edge"><title>Node1&#45;&gt;Node15</title>
<path fill="none" stroke="midnightblue" d="M664.096,-116.577C742.036,-109.835 873.658,-96.814 995.463,-76.1183"/>
<polygon fill="midnightblue" stroke="midnightblue" points="996.074,-79.5646 1005.34,-74.4199 994.887,-72.6659 996.074,-79.5646"/>
</g>
<!-- Node16 -->
<g id="node32" class="node"><title>Node16</title>
<a xlink:href="_neuron_8cpp.html" target="_top" xlink:title="Neuron.cpp">
<polygon fill="white" stroke="black" points="1092,-56.5 1092,-75.5 1158,-75.5 1158,-56.5 1092,-56.5"/>
<text text-anchor="middle" x="1125" y="-62.5" font-family="Helvetica,sans-Serif" font-size="10.00">Neuron.cpp</text>
</a>
</g>
<!-- Node1&#45;&gt;Node16 -->
<g id="edge32" class="edge"><title>Node1&#45;&gt;Node16</title>
<path fill="none" stroke="midnightblue" d="M664.14,-118.571C756.633,-113.25 927.172,-101.074 1081.48,-76.0593"/>
<polygon fill="midnightblue" stroke="midnightblue" points="1082.31,-79.4684 1091.61,-74.393 1081.18,-72.5611 1082.31,-79.4684"/>
</g>
<!-- Node13&#45;&gt;Node9 -->
<g id="edge26" class="edge"><title>Node13&#45;&gt;Node9</title>
<path fill="none" stroke="midnightblue" d="M799.543,-56.3733C780.526,-47.4241 751.982,-33.9917 730.502,-23.8835"/>
<polygon fill="midnightblue" stroke="midnightblue" points="731.728,-20.5923 721.19,-19.5011 728.748,-26.926 731.728,-20.5923"/>
</g>
<!-- Node16&#45;&gt;Node12 -->
<g id="edge34" class="edge"><title>Node16&#45;&gt;Node12</title>
<path fill="none" stroke="midnightblue" d="M1103.34,-56.3733C1083.02,-47.3435 1052.44,-33.7494 1029.63,-23.6111"/>
<polygon fill="midnightblue" stroke="midnightblue" points="1030.94,-20.3642 1020.38,-19.5011 1028.09,-26.7609 1030.94,-20.3642"/>
</g>
</g>
</svg>
