<?xml version="1.0" encoding="UTF-8" standalone="no"?>
<!DOCTYPE svg PUBLIC "-//W3C//DTD SVG 1.1//EN"
 "http://www.w3.org/Graphics/SVG/1.1/DTD/svg11.dtd">
<!-- Generated by graphviz version 2.25.20091207.0545 (20091207.0545)
 -->
<!-- Title: G Pages: 1 -->
<svg width="1518pt" height="140pt"
 viewBox="0.00 0.00 1518.00 140.00" xmlns="http://www.w3.org/2000/svg" xmlns:xlink="http://www.w3.org/1999/xlink">
<g id="graph1" class="graph" transform="scale(1 1) rotate(0) translate(4 136)">
<title>G</title>
<polygon fill="white" stroke="white" points="-4,5 -4,-136 1515,-136 1515,5 -4,5"/>
<!-- Node1 -->
<g id="node1" class="node"><title>Node1</title>
<polygon fill="#bfbfbf" stroke="black" points="704,-112.5 704,-131.5 840,-131.5 840,-112.5 704,-112.5"/>
<text text-anchor="middle" x="772" y="-118.5" font-family="Helvetica,sans-Serif" font-size="10.00">pkg/AMORE/src/AMORE.h</text>
</g>
<!-- Node2 -->
<g id="node3" class="node"><title>Node2</title>
<polygon fill="white" stroke="#bfbfbf" points="0,-56.5 0,-75.5 54,-75.5 54,-56.5 0,-56.5"/>
<text text-anchor="middle" x="27" y="-62.5" font-family="Helvetica,sans-Serif" font-size="10.00">iostream</text>
</g>
<!-- Node1&#45;&gt;Node2 -->
<g id="edge2" class="edge"><title>Node1&#45;&gt;Node2</title>
<path fill="none" stroke="midnightblue" d="M703.955,-119.376C554.954,-113.347 202.75,-97.4742 64.3666,-75.8671"/>
<polygon fill="midnightblue" stroke="midnightblue" points="64.8196,-72.3947 54.3857,-74.2342 63.6894,-79.3029 64.8196,-72.3947"/>
</g>
<!-- Node3 -->
<g id="node5" class="node"><title>Node3</title>
<polygon fill="white" stroke="#bfbfbf" points="71.5,-56.5 71.5,-75.5 122.5,-75.5 122.5,-56.5 71.5,-56.5"/>
<text text-anchor="middle" x="97" y="-62.5" font-family="Helvetica,sans-Serif" font-size="10.00">sstream</text>
</g>
<!-- Node1&#45;&gt;Node3 -->
<g id="edge4" class="edge"><title>Node1&#45;&gt;Node3</title>
<path fill="none" stroke="midnightblue" d="M703.865,-118.962C565.944,-112.517 256.928,-96.5074 132.868,-75.9674"/>
<polygon fill="midnightblue" stroke="midnightblue" points="133.303,-72.4907 122.851,-74.2245 132.103,-79.387 133.303,-72.4907"/>
</g>
<!-- Node4 -->
<g id="node7" class="node"><title>Node4</title>
<polygon fill="white" stroke="#bfbfbf" points="140,-56.5 140,-75.5 196,-75.5 196,-56.5 140,-56.5"/>
<text text-anchor="middle" x="168" y="-62.5" font-family="Helvetica,sans-Serif" font-size="10.00">algorithm</text>
</g>
<!-- Node1&#45;&gt;Node4 -->
<g id="edge6" class="edge"><title>Node1&#45;&gt;Node4</title>
<path fill="none" stroke="midnightblue" d="M703.852,-120.491C598.746,-117.279 390.77,-107.412 206.055,-75.8943"/>
<polygon fill="midnightblue" stroke="midnightblue" points="206.613,-72.439 196.162,-74.1816 205.419,-79.3364 206.613,-72.439"/>
</g>
<!-- Node5 -->
<g id="node9" class="node"><title>Node5</title>
<polygon fill="white" stroke="#bfbfbf" points="213.5,-56.5 213.5,-75.5 256.5,-75.5 256.5,-56.5 213.5,-56.5"/>
<text text-anchor="middle" x="235" y="-62.5" font-family="Helvetica,sans-Serif" font-size="10.00">vector</text>
</g>
<!-- Node1&#45;&gt;Node5 -->
<g id="edge8" class="edge"><title>Node1&#45;&gt;Node5</title>
<path fill="none" stroke="midnightblue" d="M703.733,-117.77C589.555,-110.379 363.586,-94.3205 266.843,-75.9323"/>
<polygon fill="midnightblue" stroke="midnightblue" points="267.288,-72.4518 256.794,-73.9133 265.909,-79.3146 267.288,-72.4518"/>
</g>
<!-- Node6 -->
<g id="node11" class="node"><title>Node6</title>
<polygon fill="white" stroke="#bfbfbf" points="274,-56.5 274,-75.5 320,-75.5 320,-56.5 274,-56.5"/>
<text text-anchor="middle" x="297" y="-62.5" font-family="Helvetica,sans-Serif" font-size="10.00">iterator</text>
</g>
<!-- Node1&#45;&gt;Node6 -->
<g id="edge10" class="edge"><title>Node1&#45;&gt;Node6</title>
<path fill="none" stroke="midnightblue" d="M703.811,-119.141C618.318,-114.619 467.304,-103.528 330.129,-75.8831"/>
<polygon fill="midnightblue" stroke="midnightblue" points="330.777,-72.4431 320.278,-73.8639 329.371,-79.3005 330.777,-72.4431"/>
</g>
<!-- Node7 -->
<g id="node13" class="node"><title>Node7</title>
<polygon fill="white" stroke="#bfbfbf" points="338,-56.5 338,-75.5 446,-75.5 446,-56.5 338,-56.5"/>
<text text-anchor="middle" x="392" y="-62.5" font-family="Helvetica,sans-Serif" font-size="10.00">boost/shared_ptr.hpp</text>
</g>
<!-- Node1&#45;&gt;Node7 -->
<g id="edge12" class="edge"><title>Node1&#45;&gt;Node7</title>
<path fill="none" stroke="midnightblue" d="M704.557,-112.479C642.613,-103.673 547.984,-90.069 456.298,-76.1831"/>
<polygon fill="midnightblue" stroke="midnightblue" points="456.701,-72.7043 446.289,-74.6643 455.651,-79.625 456.701,-72.7043"/>
</g>
<!-- Node8 -->
<g id="node15" class="node"><title>Node8</title>
<polygon fill="white" stroke="#bfbfbf" points="464,-56.5 464,-75.5 566,-75.5 566,-56.5 464,-56.5"/>
<text text-anchor="middle" x="515" y="-62.5" font-family="Helvetica,sans-Serif" font-size="10.00">boost/weak_ptr.hpp</text>
</g>
<!-- Node1&#45;&gt;Node8 -->
<g id="edge14" class="edge"><title>Node1&#45;&gt;Node8</title>
<path fill="none" stroke="midnightblue" d="M728.112,-112.437C684.036,-102.833 616.052,-88.0191 568.764,-77.7152"/>
<polygon fill="midnightblue" stroke="midnightblue" points="569.223,-74.233 558.707,-75.5237 567.732,-81.0725 569.223,-74.233"/>
</g>
<!-- Node9 -->
<g id="node17" class="node"><title>Node9</title>
<polygon fill="white" stroke="#bfbfbf" points="584,-56.5 584,-75.5 678,-75.5 678,-56.5 584,-56.5"/>
<text text-anchor="middle" x="631" y="-62.5" font-family="Helvetica,sans-Serif" font-size="10.00">boost/foreach.hpp</text>
</g>
<!-- Node1&#45;&gt;Node9 -->
<g id="edge16" class="edge"><title>Node1&#45;&gt;Node9</title>
<path fill="none" stroke="midnightblue" d="M747.761,-112.373C724.721,-103.223 689.879,-89.3844 664.25,-79.2057"/>
<polygon fill="midnightblue" stroke="midnightblue" points="665.508,-75.9395 654.922,-75.5011 662.924,-82.4452 665.508,-75.9395"/>
</g>
<!-- Node10 -->
<g id="node19" class="node"><title>Node10</title>
<polygon fill="white" stroke="#bfbfbf" points="696,-56.5 696,-75.5 744,-75.5 744,-56.5 696,-56.5"/>
<text text-anchor="middle" x="720" y="-62.5" font-family="Helvetica,sans-Serif" font-size="10.00">Rcpp.h</text>
</g>
<!-- Node1&#45;&gt;Node10 -->
<g id="edge18" class="edge"><title>Node1&#45;&gt;Node10</title>
<path fill="none" stroke="midnightblue" d="M762.942,-112.246C755.486,-104.216 744.737,-92.6394 735.858,-83.0781"/>
<polygon fill="midnightblue" stroke="midnightblue" points="738.323,-80.589 728.954,-75.6427 733.194,-85.3522 738.323,-80.589"/>
</g>
<!-- Node11 -->
<g id="node21" class="node"><title>Node11</title>
<a xlink:href="_con_8h.html" target="_top" xlink:title="Con.h">
<polygon fill="white" stroke="black" points="859,-0.5 859,-19.5 901,-19.5 901,-0.5 859,-0.5"/>
<text text-anchor="middle" x="880" y="-6.5" font-family="Helvetica,sans-Serif" font-size="10.00">Con.h</text>
</a>
</g>
<!-- Node1&#45;&gt;Node11 -->
<g id="edge20" class="edge"><title>Node1&#45;&gt;Node11</title>
<path fill="none" stroke="midnightblue" d="M772.43,-112.39C773.524,-98.4818 777.387,-72.5935 791,-56 805.936,-37.7926 829.97,-25.9772 849.299,-18.8855"/>
<polygon fill="midnightblue" stroke="midnightblue" points="850.576,-22.1477 858.905,-15.5988 848.31,-15.5246 850.576,-22.1477"/>
</g>
<!-- Node12 -->
<g id="node23" class="node"><title>Node12</title>
<a xlink:href="_container_8h.html" target="_top" xlink:title="Container.h">
<polygon fill="white" stroke="black" points="800,-56.5 800,-75.5 866,-75.5 866,-56.5 800,-56.5"/>
<text text-anchor="middle" x="833" y="-62.5" font-family="Helvetica,sans-Serif" font-size="10.00">Container.h</text>
</a>
</g>
<!-- Node1&#45;&gt;Node12 -->
<g id="edge22" class="edge"><title>Node1&#45;&gt;Node12</title>
<path fill="none" stroke="midnightblue" d="M782.625,-112.246C791.547,-104.055 804.488,-92.1749 815.019,-82.5069"/>
<polygon fill="midnightblue" stroke="midnightblue" points="817.497,-84.9837 822.496,-75.6427 812.763,-79.8271 817.497,-84.9837"/>
</g>
<!-- Node13 -->
<g id="node25" class="node"><title>Node13</title>
<a xlink:href="_vec_con_8h.html" target="_top" xlink:title="VecCon.h">
<polygon fill="white" stroke="black" points="884,-56.5 884,-75.5 944,-75.5 944,-56.5 884,-56.5"/>
<text text-anchor="middle" x="914" y="-62.5" font-family="Helvetica,sans-Serif" font-size="10.00">VecCon.h</text>
</a>
</g>
<!-- Node1&#45;&gt;Node13 -->
<g id="edge24" class="edge"><title>Node1&#45;&gt;Node13</title>
<path fill="none" stroke="midnightblue" d="M796.411,-112.373C819.614,-103.223 854.704,-89.3844 880.514,-79.2057"/>
<polygon fill="midnightblue" stroke="midnightblue" points="881.889,-82.4258 889.908,-75.5011 879.321,-75.9139 881.889,-82.4258"/>
</g>
<!-- Node14 -->
<g id="node27" class="node"><title>Node14</title>
<a xlink:href="_neuron_8h.html" target="_top" xlink:title="Neuron.h">
<polygon fill="white" stroke="black" points="1248,-0.5 1248,-19.5 1304,-19.5 1304,-0.5 1248,-0.5"/>
<text text-anchor="middle" x="1276" y="-6.5" font-family="Helvetica,sans-Serif" font-size="10.00">Neuron.h</text>
</a>
</g>
<!-- Node1&#45;&gt;Node14 -->
<g id="edge26" class="edge"><title>Node1&#45;&gt;Node14</title>
<path fill="none" stroke="midnightblue" d="M840.07,-119.299C994.779,-112.832 1360.89,-95.5329 1379,-76 1402.99,-50.1223 1352.45,-30.0335 1314.02,-19.12"/>
<polygon fill="midnightblue" stroke="midnightblue" points="1314.64,-15.6609 1304.07,-16.4165 1312.8,-22.416 1314.64,-15.6609"/>
</g>
<!-- Node15 -->
<g id="node29" class="node"><title>Node15</title>
<a xlink:href="_vec_neuron_8h.html" target="_top" xlink:title="VecNeuron.h">
<polygon fill="white" stroke="black" points="1031.5,-56.5 1031.5,-75.5 1104.5,-75.5 1104.5,-56.5 1031.5,-56.5"/>
<text text-anchor="middle" x="1068" y="-62.5" font-family="Helvetica,sans-Serif" font-size="10.00">VecNeuron.h</text>
</a>
</g>
<!-- Node1&#45;&gt;Node15 -->
<g id="edge28" class="edge"><title>Node1&#45;&gt;Node15</title>
<path fill="none" stroke="midnightblue" d="M827.447,-112.452C876.095,-103.936 949.005,-90.838 1021.03,-76.3513"/>
<polygon fill="midnightblue" stroke="midnightblue" points="1022.08,-79.7106 1031.19,-74.2983 1020.69,-72.8494 1022.08,-79.7106"/>
</g>
<!-- Node16 -->
<g id="node31" class="node"><title>Node16</title>
<a xlink:href="_con_8cpp.html" target="_top" xlink:title="Con.cpp">
<polygon fill="white" stroke="black" points="961.5,-56.5 961.5,-75.5 1014.5,-75.5 1014.5,-56.5 961.5,-56.5"/>
<text text-anchor="middle" x="988" y="-62.5" font-family="Helvetica,sans-Serif" font-size="10.00">Con.cpp</text>
</a>
</g>
<!-- Node1&#45;&gt;Node16 -->
<g id="edge30" class="edge"><title>Node1&#45;&gt;Node16</title>
<path fill="none" stroke="midnightblue" d="M810.925,-112.459C845.558,-103.891 897.828,-90.7702 951.576,-76.3379"/>
<polygon fill="midnightblue" stroke="midnightblue" points="952.525,-79.707 961.27,-73.7248 950.703,-72.9482 952.525,-79.707"/>
</g>
<!-- Node17 -->
<g id="node34" class="node"><title>Node17</title>
<a xlink:href="_container_8cpp.html" target="_top" xlink:title="Container.cpp">
<polygon fill="white" stroke="black" points="1205.5,-56.5 1205.5,-75.5 1282.5,-75.5 1282.5,-56.5 1205.5,-56.5"/>
<text text-anchor="middle" x="1244" y="-62.5" font-family="Helvetica,sans-Serif" font-size="10.00">Container.cpp</text>
</a>
</g>
<!-- Node1&#45;&gt;Node17 -->
<g id="edge34" class="edge"><title>Node1&#45;&gt;Node17</title>
<path fill="none" stroke="midnightblue" d="M840.003,-116.788C922.02,-110.021 1064.24,-96.7551 1195.12,-76.177"/>
<polygon fill="midnightblue" stroke="midnightblue" points="1196,-79.5812 1205.33,-74.5538 1194.9,-72.6681 1196,-79.5812"/>
</g>
<!-- Node18 -->
<g id="node36" class="node"><title>Node18</title>
<a xlink:href="_vec_con_8cpp.html" target="_top" xlink:title="VecCon.cpp">
<polygon fill="white" stroke="black" points="1300,-56.5 1300,-75.5 1370,-75.5 1370,-56.5 1300,-56.5"/>
<text text-anchor="middle" x="1335" y="-62.5" font-family="Helvetica,sans-Serif" font-size="10.00">VecCon.cpp</text>
</a>
</g>
<!-- Node1&#45;&gt;Node18 -->
<g id="edge36" class="edge"><title>Node1&#45;&gt;Node18</title>
<path fill="none" stroke="midnightblue" d="M840.368,-118.887C938.028,-113.788 1123.19,-101.702 1289.62,-76.0416"/>
<polygon fill="midnightblue" stroke="midnightblue" points="1290.2,-79.4932 1299.54,-74.492 1289.12,-72.577 1290.2,-79.4932"/>
</g>
<!-- Node19 -->
<g id="node38" class="node"><title>Node19</title>
<a xlink:href="_neuron_8cpp.html" target="_top" xlink:title="Neuron.cpp">
<polygon fill="white" stroke="black" points="1122,-56.5 1122,-75.5 1188,-75.5 1188,-56.5 1122,-56.5"/>
<text text-anchor="middle" x="1155" y="-62.5" font-family="Helvetica,sans-Serif" font-size="10.00">Neuron.cpp</text>
</a>
</g>
<!-- Node1&#45;&gt;Node19 -->
<g id="edge38" class="edge"><title>Node1&#45;&gt;Node19</title>
<path fill="none" stroke="midnightblue" d="M840.252,-114.82C907.095,-107.328 1012,-94.3502 1111.66,-76.1108"/>
<polygon fill="midnightblue" stroke="midnightblue" points="1112.4,-79.5332 1121.59,-74.2712 1111.12,-72.6502 1112.4,-79.5332"/>
</g>
<!-- Node20 -->
<g id="node41" class="node"><title>Node20</title>
<a xlink:href="_vec_neuron_8cpp.html" target="_top" xlink:title="VecNeuron.cpp">
<polygon fill="white" stroke="black" points="1426,-56.5 1426,-75.5 1510,-75.5 1510,-56.5 1426,-56.5"/>
<text text-anchor="middle" x="1468" y="-62.5" font-family="Helvetica,sans-Serif" font-size="10.00">VecNeuron.cpp</text>
</a>
</g>
<!-- Node1&#45;&gt;Node20 -->
<g id="edge42" class="edge"><title>Node1&#45;&gt;Node20</title>
<path fill="none" stroke="midnightblue" d="M840.427,-119.441C957.76,-114.527 1204.74,-101.881 1412,-76 1413.27,-75.8417 1414.55,-75.6738 1415.84,-75.4978"/>
<polygon fill="midnightblue" stroke="midnightblue" points="1416.5,-78.9394 1425.87,-74.011 1415.47,-72.015 1416.5,-78.9394"/>
</g>
<!-- Node16&#45;&gt;Node11 -->
<g id="edge32" class="edge"><title>Node16&#45;&gt;Node11</title>
<path fill="none" stroke="midnightblue" d="M969.188,-56.2455C952.153,-47.4125 926.842,-34.2887 907.532,-24.2758"/>
<polygon fill="midnightblue" stroke="midnightblue" points="909.085,-21.1388 898.597,-19.6427 905.863,-27.353 909.085,-21.1388"/>
</g>
<!-- Node19&#45;&gt;Node14 -->
<g id="edge40" class="edge"><title>Node19&#45;&gt;Node14</title>
<path fill="none" stroke="midnightblue" d="M1175.8,-56.3733C1195.22,-47.3838 1224.42,-33.8706 1246.3,-23.7471"/>
<polygon fill="midnightblue" stroke="midnightblue" points="1247.87,-26.8776 1255.47,-19.5011 1244.93,-20.5249 1247.87,-26.8776"/>
</g>
</g>
</svg>
