<?xml version="1.0" encoding="UTF-8" standalone="no"?>
<!DOCTYPE svg PUBLIC "-//W3C//DTD SVG 1.1//EN"
 "http://www.w3.org/Graphics/SVG/1.1/DTD/svg11.dtd">
<!-- Generated by graphviz version 2.25.20091207.0545 (20091207.0545)
 -->
<!-- Title: G Pages: 1 -->
<svg width="1326pt" height="140pt"
 viewBox="0.00 0.00 1326.00 140.00" xmlns="http://www.w3.org/2000/svg" xmlns:xlink="http://www.w3.org/1999/xlink">
<g id="graph1" class="graph" transform="scale(1 1) rotate(0) translate(4 136)">
<title>G</title>
<polygon fill="white" stroke="white" points="-4,5 -4,-136 1323,-136 1323,5 -4,5"/>
<!-- Node1 -->
<g id="node1" class="node"><title>Node1</title>
<polygon fill="#bfbfbf" stroke="black" points="652,-112.5 652,-131.5 788,-131.5 788,-112.5 652,-112.5"/>
<text text-anchor="middle" x="720" y="-118.5" font-family="Helvetica,sans-Serif" font-size="10.00">pkg/AMORE/src/AMORE.h</text>
</g>
<!-- Node2 -->
<g id="node3" class="node"><title>Node2</title>
<polygon fill="white" stroke="#bfbfbf" points="0,-56.5 0,-75.5 54,-75.5 54,-56.5 0,-56.5"/>
<text text-anchor="middle" x="27" y="-62.5" font-family="Helvetica,sans-Serif" font-size="10.00">iostream</text>
</g>
<!-- Node1&#45;&gt;Node2 -->
<g id="edge2" class="edge"><title>Node1&#45;&gt;Node2</title>
<path fill="none" stroke="midnightblue" d="M651.835,-118.968C511.218,-112.437 192.114,-96.114 64.3407,-75.8724"/>
<polygon fill="midnightblue" stroke="midnightblue" points="64.8266,-72.4053 54.3882,-74.2194 63.6796,-79.3107 64.8266,-72.4053"/>
</g>
<!-- Node3 -->
<g id="node5" class="node"><title>Node3</title>
<polygon fill="white" stroke="#bfbfbf" points="71.5,-56.5 71.5,-75.5 122.5,-75.5 122.5,-56.5 71.5,-56.5"/>
<text text-anchor="middle" x="97" y="-62.5" font-family="Helvetica,sans-Serif" font-size="10.00">sstream</text>
</g>
<!-- Node1&#45;&gt;Node3 -->
<g id="edge4" class="edge"><title>Node1&#45;&gt;Node3</title>
<path fill="none" stroke="midnightblue" d="M651.852,-118.465C522.9,-111.489 246.62,-95.1087 133.01,-76.0042"/>
<polygon fill="midnightblue" stroke="midnightblue" points="133.311,-72.5033 122.854,-74.2072 132.091,-79.3962 133.311,-72.5033"/>
</g>
<!-- Node4 -->
<g id="node7" class="node"><title>Node4</title>
<polygon fill="white" stroke="#bfbfbf" points="140,-56.5 140,-75.5 196,-75.5 196,-56.5 140,-56.5"/>
<text text-anchor="middle" x="168" y="-62.5" font-family="Helvetica,sans-Serif" font-size="10.00">algorithm</text>
</g>
<!-- Node1&#45;&gt;Node4 -->
<g id="edge6" class="edge"><title>Node1&#45;&gt;Node4</title>
<path fill="none" stroke="midnightblue" d="M651.6,-119.695C554.505,-115.581 371.121,-104.714 206.482,-75.9856"/>
<polygon fill="midnightblue" stroke="midnightblue" points="206.624,-72.4563 196.167,-74.1575 205.403,-79.3489 206.624,-72.4563"/>
</g>
<!-- Node5 -->
<g id="node9" class="node"><title>Node5</title>
<polygon fill="white" stroke="#bfbfbf" points="213.5,-56.5 213.5,-75.5 256.5,-75.5 256.5,-56.5 213.5,-56.5"/>
<text text-anchor="middle" x="235" y="-62.5" font-family="Helvetica,sans-Serif" font-size="10.00">vector</text>
</g>
<!-- Node1&#45;&gt;Node5 -->
<g id="edge8" class="edge"><title>Node1&#45;&gt;Node5</title>
<path fill="none" stroke="midnightblue" d="M651.82,-119.798C564.298,-115.932 407.822,-105.513 266.917,-76.0415"/>
<polygon fill="midnightblue" stroke="midnightblue" points="267.31,-72.5467 256.8,-73.8865 265.851,-79.3931 267.31,-72.5467"/>
</g>
<!-- Node6 -->
<g id="node11" class="node"><title>Node6</title>
<polygon fill="white" stroke="#bfbfbf" points="274,-56.5 274,-75.5 320,-75.5 320,-56.5 274,-56.5"/>
<text text-anchor="middle" x="297" y="-62.5" font-family="Helvetica,sans-Serif" font-size="10.00">iterator</text>
</g>
<!-- Node1&#45;&gt;Node6 -->
<g id="edge10" class="edge"><title>Node1&#45;&gt;Node6</title>
<path fill="none" stroke="midnightblue" d="M651.916,-117.84C575.557,-112.312 448.016,-100.499 330.198,-75.9287"/>
<polygon fill="midnightblue" stroke="midnightblue" points="330.794,-72.4774 320.286,-73.8261 329.342,-79.3251 330.794,-72.4774"/>
</g>
<!-- Node7 -->
<g id="node13" class="node"><title>Node7</title>
<polygon fill="white" stroke="#bfbfbf" points="338,-56.5 338,-75.5 446,-75.5 446,-56.5 338,-56.5"/>
<text text-anchor="middle" x="392" y="-62.5" font-family="Helvetica,sans-Serif" font-size="10.00">boost/shared_ptr.hpp</text>
</g>
<!-- Node1&#45;&gt;Node7 -->
<g id="edge12" class="edge"><title>Node1&#45;&gt;Node7</title>
<path fill="none" stroke="midnightblue" d="M663.987,-112.437C606.39,-102.603 516.804,-87.308 456.336,-76.9842"/>
<polygon fill="midnightblue" stroke="midnightblue" points="456.592,-73.4774 446.146,-75.2444 455.414,-80.3776 456.592,-73.4774"/>
</g>
<!-- Node8 -->
<g id="node15" class="node"><title>Node8</title>
<polygon fill="white" stroke="#bfbfbf" points="464,-56.5 464,-75.5 566,-75.5 566,-56.5 464,-56.5"/>
<text text-anchor="middle" x="515" y="-62.5" font-family="Helvetica,sans-Serif" font-size="10.00">boost/weak_ptr.hpp</text>
</g>
<!-- Node1&#45;&gt;Node8 -->
<g id="edge14" class="edge"><title>Node1&#45;&gt;Node8</title>
<path fill="none" stroke="midnightblue" d="M684.759,-112.373C650.081,-102.9 597.012,-88.4032 559.454,-78.1435"/>
<polygon fill="midnightblue" stroke="midnightblue" points="560.35,-74.7601 549.781,-75.5011 558.505,-81.5126 560.35,-74.7601"/>
</g>
<!-- Node9 -->
<g id="node17" class="node"><title>Node9</title>
<polygon fill="white" stroke="#bfbfbf" points="584,-56.5 584,-75.5 678,-75.5 678,-56.5 584,-56.5"/>
<text text-anchor="middle" x="631" y="-62.5" font-family="Helvetica,sans-Serif" font-size="10.00">boost/foreach.hpp</text>
</g>
<!-- Node1&#45;&gt;Node9 -->
<g id="edge16" class="edge"><title>Node1&#45;&gt;Node9</title>
<path fill="none" stroke="midnightblue" d="M704.497,-112.246C690.842,-103.653 670.734,-91.0014 655.001,-81.1018"/>
<polygon fill="midnightblue" stroke="midnightblue" points="656.653,-78.006 646.325,-75.6427 652.925,-83.9307 656.653,-78.006"/>
</g>
<!-- Node10 -->
<g id="node19" class="node"><title>Node10</title>
<polygon fill="white" stroke="#bfbfbf" points="696,-56.5 696,-75.5 744,-75.5 744,-56.5 696,-56.5"/>
<text text-anchor="middle" x="720" y="-62.5" font-family="Helvetica,sans-Serif" font-size="10.00">Rcpp.h</text>
</g>
<!-- Node1&#45;&gt;Node10 -->
<g id="edge18" class="edge"><title>Node1&#45;&gt;Node10</title>
<path fill="none" stroke="midnightblue" d="M720,-112.246C720,-104.938 720,-94.6944 720,-85.7046"/>
<polygon fill="midnightblue" stroke="midnightblue" points="723.5,-85.6426 720,-75.6427 716.5,-85.6427 723.5,-85.6426"/>
</g>
<!-- Node11 -->
<g id="node21" class="node"><title>Node11</title>
<a xlink:href="_con_8h.html" target="_top" xlink:title="Con.h">
<polygon fill="white" stroke="black" points="852,-0.5 852,-19.5 894,-19.5 894,-0.5 852,-0.5"/>
<text text-anchor="middle" x="873" y="-6.5" font-family="Helvetica,sans-Serif" font-size="10.00">Con.h</text>
</a>
</g>
<!-- Node1&#45;&gt;Node11 -->
<g id="edge20" class="edge"><title>Node1&#45;&gt;Node11</title>
<path fill="none" stroke="midnightblue" d="M729.016,-112.268C741.925,-98.6641 766.796,-73.6506 791,-56 807.648,-43.8599 827.814,-32.5082 843.982,-24.1189"/>
<polygon fill="midnightblue" stroke="midnightblue" points="845.658,-27.1932 852.983,-19.5381 842.483,-20.9547 845.658,-27.1932"/>
</g>
<!-- Node12 -->
<g id="node23" class="node"><title>Node12</title>
<a xlink:href="_container_8h.html" target="_top" xlink:title="Container.h">
<polygon fill="white" stroke="black" points="800,-56.5 800,-75.5 866,-75.5 866,-56.5 800,-56.5"/>
<text text-anchor="middle" x="833" y="-62.5" font-family="Helvetica,sans-Serif" font-size="10.00">Container.h</text>
</a>
</g>
<!-- Node1&#45;&gt;Node12 -->
<g id="edge22" class="edge"><title>Node1&#45;&gt;Node12</title>
<path fill="none" stroke="midnightblue" d="M739.425,-112.373C757.402,-103.464 784.344,-90.1127 804.709,-80.0203"/>
<polygon fill="midnightblue" stroke="midnightblue" points="806.422,-83.0776 813.828,-75.5011 803.314,-76.8055 806.422,-83.0776"/>
</g>
<!-- Node13 -->
<g id="node25" class="node"><title>Node13</title>
<a xlink:href="_vec_con_8h.html" target="_top" xlink:title="VecCon.h">
<polygon fill="white" stroke="black" points="884,-56.5 884,-75.5 944,-75.5 944,-56.5 884,-56.5"/>
<text text-anchor="middle" x="914" y="-62.5" font-family="Helvetica,sans-Serif" font-size="10.00">VecCon.h</text>
</a>
</g>
<!-- Node1&#45;&gt;Node13 -->
<g id="edge24" class="edge"><title>Node1&#45;&gt;Node13</title>
<path fill="none" stroke="midnightblue" d="M753.35,-112.373C786.776,-102.725 838.256,-87.8642 873.892,-77.5776"/>
<polygon fill="midnightblue" stroke="midnightblue" points="875.312,-80.8106 883.949,-74.6744 873.371,-74.0851 875.312,-80.8106"/>
</g>
<!-- Node14 -->
<g id="node27" class="node"><title>Node14</title>
<a xlink:href="_neuron_8h.html" target="_top" xlink:title="Neuron.h">
<polygon fill="white" stroke="black" points="1135,-0.5 1135,-19.5 1191,-19.5 1191,-0.5 1135,-0.5"/>
<text text-anchor="middle" x="1163" y="-6.5" font-family="Helvetica,sans-Serif" font-size="10.00">Neuron.h</text>
</a>
</g>
<!-- Node1&#45;&gt;Node14 -->
<g id="edge26" class="edge"><title>Node1&#45;&gt;Node14</title>
<path fill="none" stroke="midnightblue" d="M788.295,-118.146C850.712,-113.11 944.906,-101.669 1023,-76 1041.13,-70.0404 1043.85,-64.3714 1061,-56 1084.25,-44.6501 1110.92,-32.6575 1131.16,-23.7639"/>
<polygon fill="midnightblue" stroke="midnightblue" points="1132.77,-26.8778 1140.53,-19.6633 1129.97,-20.4646 1132.77,-26.8778"/>
</g>
<!-- Node15 -->
<g id="node29" class="node"><title>Node15</title>
<a xlink:href="_con_8cpp.html" target="_top" xlink:title="Con.cpp">
<polygon fill="white" stroke="black" points="961.5,-56.5 961.5,-75.5 1014.5,-75.5 1014.5,-56.5 961.5,-56.5"/>
<text text-anchor="middle" x="988" y="-62.5" font-family="Helvetica,sans-Serif" font-size="10.00">Con.cpp</text>
</a>
</g>
<!-- Node1&#45;&gt;Node15 -->
<g id="edge28" class="edge"><title>Node1&#45;&gt;Node15</title>
<path fill="none" stroke="midnightblue" d="M774.891,-112.498C819.971,-104.392 885.674,-91.8896 951.218,-76.2995"/>
<polygon fill="midnightblue" stroke="midnightblue" points="952.403,-79.6145 961.308,-73.8743 950.767,-72.8083 952.403,-79.6145"/>
</g>
<!-- Node16 -->
<g id="node32" class="node"><title>Node16</title>
<a xlink:href="_container_8cpp.html" target="_top" xlink:title="Container.cpp">
<polygon fill="white" stroke="black" points="1069.5,-56.5 1069.5,-75.5 1146.5,-75.5 1146.5,-56.5 1069.5,-56.5"/>
<text text-anchor="middle" x="1108" y="-62.5" font-family="Helvetica,sans-Serif" font-size="10.00">Container.cpp</text>
</a>
</g>
<!-- Node1&#45;&gt;Node16 -->
<g id="edge32" class="edge"><title>Node1&#45;&gt;Node16</title>
<path fill="none" stroke="midnightblue" d="M788.055,-113.776C856.046,-105.303 963.481,-91.2179 1056,-76 1057.09,-75.821 1058.19,-75.6367 1059.3,-75.4482"/>
<polygon fill="midnightblue" stroke="midnightblue" points="1060.18,-78.846 1069.42,-73.6587 1058.97,-71.9529 1060.18,-78.846"/>
</g>
<!-- Node17 -->
<g id="node34" class="node"><title>Node17</title>
<a xlink:href="_vec_con_8cpp.html" target="_top" xlink:title="VecCon.cpp">
<polygon fill="white" stroke="black" points="1164,-56.5 1164,-75.5 1234,-75.5 1234,-56.5 1164,-56.5"/>
<text text-anchor="middle" x="1199" y="-62.5" font-family="Helvetica,sans-Serif" font-size="10.00">VecCon.cpp</text>
</a>
</g>
<!-- Node1&#45;&gt;Node17 -->
<g id="edge34" class="edge"><title>Node1&#45;&gt;Node17</title>
<path fill="none" stroke="midnightblue" d="M788.148,-117.298C871.973,-110.954 1018.76,-98.0304 1153.44,-76.1028"/>
<polygon fill="midnightblue" stroke="midnightblue" points="1154.23,-79.5199 1163.53,-74.4397 1153.09,-72.6131 1154.23,-79.5199"/>
</g>
<!-- Node18 -->
<g id="node36" class="node"><title>Node18</title>
<a xlink:href="_neuron_8cpp.html" target="_top" xlink:title="Neuron.cpp">
<polygon fill="white" stroke="black" points="1252,-56.5 1252,-75.5 1318,-75.5 1318,-56.5 1252,-56.5"/>
<text text-anchor="middle" x="1285" y="-62.5" font-family="Helvetica,sans-Serif" font-size="10.00">Neuron.cpp</text>
</a>
</g>
<!-- Node1&#45;&gt;Node18 -->
<g id="edge36" class="edge"><title>Node1&#45;&gt;Node18</title>
<path fill="none" stroke="midnightblue" d="M788.094,-119.187C886.32,-114.427 1073.55,-102.727 1241.6,-76.0263"/>
<polygon fill="midnightblue" stroke="midnightblue" points="1242.3,-79.4583 1251.62,-74.4127 1241.19,-72.5474 1242.3,-79.4583"/>
</g>
<!-- Node15&#45;&gt;Node11 -->
<g id="edge30" class="edge"><title>Node15&#45;&gt;Node11</title>
<path fill="none" stroke="midnightblue" d="M968.231,-56.3733C949.853,-47.4241 922.269,-33.9917 901.511,-23.8835"/>
<polygon fill="midnightblue" stroke="midnightblue" points="903.034,-20.7325 892.511,-19.5011 899.97,-27.026 903.034,-20.7325"/>
</g>
<!-- Node18&#45;&gt;Node14 -->
<g id="edge38" class="edge"><title>Node18&#45;&gt;Node14</title>
<path fill="none" stroke="midnightblue" d="M1264.03,-56.3733C1244.44,-47.3838 1215,-33.8706 1192.95,-23.7471"/>
<polygon fill="midnightblue" stroke="midnightblue" points="1194.25,-20.4919 1183.7,-19.5011 1191.33,-26.8538 1194.25,-20.4919"/>
</g>
</g>
</svg>
