<?xml version="1.0" encoding="UTF-8" standalone="no"?>
<!DOCTYPE svg PUBLIC "-//W3C//DTD SVG 1.1//EN"
 "http://www.w3.org/Graphics/SVG/1.1/DTD/svg11.dtd">
<!-- Generated by graphviz version 2.28.0 (20110610.2051)
 -->
<!-- Title: G Pages: 1 -->
<svg width="2935pt" height="196pt"
 viewBox="0.00 0.00 2935.00 196.00" xmlns="http://www.w3.org/2000/svg" xmlns:xlink="http://www.w3.org/1999/xlink">
<g id="graph1" class="graph" transform="scale(1 1) rotate(0) translate(4 192)">
<title>G</title>
<polygon fill="white" stroke="white" points="-4,5 -4,-192 2932,-192 2932,5 -4,5"/>
<!-- Node1 -->
<g id="node1" class="node"><title>Node1</title>
<polygon fill="#bfbfbf" stroke="black" points="1411.5,-168.5 1411.5,-187.5 1548.5,-187.5 1548.5,-168.5 1411.5,-168.5"/>
<text text-anchor="middle" x="1480" y="-175.5" font-family="Helvetica,sans-Serif" font-size="10.00">pkg/AMORE/src/AMORE.h</text>
</g>
<!-- Node2 -->
<g id="node3" class="node"><title>Node2</title>
<polygon fill="white" stroke="#bfbfbf" points="0,-112.5 0,-131.5 56,-131.5 56,-112.5 0,-112.5"/>
<text text-anchor="middle" x="28" y="-119.5" font-family="Helvetica,sans-Serif" font-size="10.00">iostream</text>
</g>
<!-- Node1&#45;&gt;Node2 -->
<g id="edge2" class="edge"><title>Node1&#45;&gt;Node2</title>
<path fill="none" stroke="midnightblue" d="M1411.16,-176.695C1168.1,-175.328 350.006,-168.184 66.4329,-131.848"/>
<polygon fill="midnightblue" stroke="midnightblue" points="66.54,-128.331 56.1668,-130.487 65.6203,-135.271 66.54,-128.331"/>
</g>
<!-- Node3 -->
<g id="node5" class="node"><title>Node3</title>
<polygon fill="white" stroke="#bfbfbf" points="74.5,-112.5 74.5,-131.5 127.5,-131.5 127.5,-112.5 74.5,-112.5"/>
<text text-anchor="middle" x="101" y="-119.5" font-family="Helvetica,sans-Serif" font-size="10.00">sstream</text>
</g>
<!-- Node1&#45;&gt;Node3 -->
<g id="edge4" class="edge"><title>Node1&#45;&gt;Node3</title>
<path fill="none" stroke="midnightblue" d="M1411.34,-176.679C1176.55,-175.276 405.923,-168.077 137.726,-131.897"/>
<polygon fill="midnightblue" stroke="midnightblue" points="138.02,-128.404 127.632,-130.487 137.051,-135.337 138.02,-128.404"/>
</g>
<!-- Node4 -->
<g id="node7" class="node"><title>Node4</title>
<polygon fill="white" stroke="#bfbfbf" points="145.5,-112.5 145.5,-131.5 204.5,-131.5 204.5,-112.5 145.5,-112.5"/>
<text text-anchor="middle" x="175" y="-119.5" font-family="Helvetica,sans-Serif" font-size="10.00">algorithm</text>
</g>
<!-- Node1&#45;&gt;Node4 -->
<g id="edge6" class="edge"><title>Node1&#45;&gt;Node4</title>
<path fill="none" stroke="midnightblue" d="M1411.42,-176.291C1186.01,-173.693 468.516,-163.231 214.977,-131.791"/>
<polygon fill="midnightblue" stroke="midnightblue" points="215.068,-128.274 204.703,-130.471 214.176,-135.217 215.068,-128.274"/>
</g>
<!-- Node5 -->
<g id="node9" class="node"><title>Node5</title>
<polygon fill="white" stroke="#bfbfbf" points="223,-112.5 223,-131.5 269,-131.5 269,-112.5 223,-112.5"/>
<text text-anchor="middle" x="246" y="-119.5" font-family="Helvetica,sans-Serif" font-size="10.00">vector</text>
</g>
<!-- Node1&#45;&gt;Node5 -->
<g id="edge8" class="edge"><title>Node1&#45;&gt;Node5</title>
<path fill="none" stroke="midnightblue" d="M1411.38,-176.563C1193.51,-174.847 518.231,-166.9 279.3,-131.765"/>
<polygon fill="midnightblue" stroke="midnightblue" points="279.691,-128.284 269.277,-130.234 278.634,-135.204 279.691,-128.284"/>
</g>
<!-- Node6 -->
<g id="node11" class="node"><title>Node6</title>
<polygon fill="white" stroke="#bfbfbf" points="287,-112.5 287,-131.5 337,-131.5 337,-112.5 287,-112.5"/>
<text text-anchor="middle" x="312" y="-119.5" font-family="Helvetica,sans-Serif" font-size="10.00">iterator</text>
</g>
<!-- Node1&#45;&gt;Node6 -->
<g id="edge10" class="edge"><title>Node1&#45;&gt;Node6</title>
<path fill="none" stroke="midnightblue" d="M1411.21,-176.244C1201.69,-173.635 572.577,-163.455 347.224,-131.782"/>
<polygon fill="midnightblue" stroke="midnightblue" points="347.523,-128.289 337.122,-130.307 346.511,-135.215 347.523,-128.289"/>
</g>
<!-- Node7 -->
<g id="node13" class="node"><title>Node7</title>
<polygon fill="white" stroke="#bfbfbf" points="355.5,-112.5 355.5,-131.5 470.5,-131.5 470.5,-112.5 355.5,-112.5"/>
<text text-anchor="middle" x="413" y="-119.5" font-family="Helvetica,sans-Serif" font-size="10.00">boost/shared_ptr.hpp</text>
</g>
<!-- Node1&#45;&gt;Node7 -->
<g id="edge12" class="edge"><title>Node1&#45;&gt;Node7</title>
<path fill="none" stroke="midnightblue" d="M1411.36,-176.004C1250.59,-173.22 836.988,-163.434 480.701,-131.971"/>
<polygon fill="midnightblue" stroke="midnightblue" points="480.978,-128.482 470.707,-131.082 480.357,-135.455 480.978,-128.482"/>
</g>
<!-- Node8 -->
<g id="node15" class="node"><title>Node8</title>
<polygon fill="white" stroke="#bfbfbf" points="489,-112.5 489,-131.5 597,-131.5 597,-112.5 489,-112.5"/>
<text text-anchor="middle" x="543" y="-119.5" font-family="Helvetica,sans-Serif" font-size="10.00">boost/weak_ptr.hpp</text>
</g>
<!-- Node1&#45;&gt;Node8 -->
<g id="edge14" class="edge"><title>Node1&#45;&gt;Node8</title>
<path fill="none" stroke="midnightblue" d="M1411.29,-175.575C1265.26,-172.088 913.08,-161.247 607.648,-132.07"/>
<polygon fill="midnightblue" stroke="midnightblue" points="607.548,-128.545 597.259,-131.069 606.877,-135.512 607.548,-128.545"/>
</g>
<!-- Node9 -->
<g id="node17" class="node"><title>Node9</title>
<polygon fill="white" stroke="#bfbfbf" points="615,-112.5 615,-131.5 715,-131.5 715,-112.5 615,-112.5"/>
<text text-anchor="middle" x="665" y="-119.5" font-family="Helvetica,sans-Serif" font-size="10.00">boost/foreach.hpp</text>
</g>
<!-- Node1&#45;&gt;Node9 -->
<g id="edge16" class="edge"><title>Node1&#45;&gt;Node9</title>
<path fill="none" stroke="midnightblue" d="M1411.29,-175.025C1279.97,-170.789 984.151,-159.022 725.144,-132.023"/>
<polygon fill="midnightblue" stroke="midnightblue" points="725.483,-128.54 715.171,-130.974 724.75,-135.501 725.483,-128.54"/>
</g>
<!-- Node10 -->
<g id="node19" class="node"><title>Node10</title>
<polygon fill="white" stroke="#bfbfbf" points="733,-112.5 733,-131.5 811,-131.5 811,-112.5 733,-112.5"/>
<text text-anchor="middle" x="772" y="-119.5" font-family="Helvetica,sans-Serif" font-size="10.00">boost/ref.hpp</text>
</g>
<!-- Node1&#45;&gt;Node10 -->
<g id="edge18" class="edge"><title>Node1&#45;&gt;Node10</title>
<path fill="none" stroke="midnightblue" d="M1411.45,-174.881C1293.22,-170.665 1043.2,-159.283 821.457,-131.889"/>
<polygon fill="midnightblue" stroke="midnightblue" points="821.611,-128.381 811.254,-130.615 820.743,-135.327 821.611,-128.381"/>
</g>
<!-- Node11 -->
<g id="node21" class="node"><title>Node11</title>
<polygon fill="white" stroke="#bfbfbf" points="829.5,-112.5 829.5,-131.5 880.5,-131.5 880.5,-112.5 829.5,-112.5"/>
<text text-anchor="middle" x="855" y="-119.5" font-family="Helvetica,sans-Serif" font-size="10.00">valarray</text>
</g>
<!-- Node1&#45;&gt;Node11 -->
<g id="edge20" class="edge"><title>Node1&#45;&gt;Node11</title>
<path fill="none" stroke="midnightblue" d="M1411.4,-175.667C1302.8,-172.701 1084.61,-163.257 890.601,-131.772"/>
<polygon fill="midnightblue" stroke="midnightblue" points="890.94,-128.281 880.504,-130.11 889.802,-135.188 890.94,-128.281"/>
</g>
<!-- Node12 -->
<g id="node23" class="node"><title>Node12</title>
<polygon fill="white" stroke="#bfbfbf" points="899,-112.5 899,-131.5 949,-131.5 949,-112.5 899,-112.5"/>
<text text-anchor="middle" x="924" y="-119.5" font-family="Helvetica,sans-Serif" font-size="10.00">Rcpp.h</text>
</g>
<!-- Node1&#45;&gt;Node12 -->
<g id="edge22" class="edge"><title>Node1&#45;&gt;Node12</title>
<path fill="none" stroke="midnightblue" d="M1411.47,-174.092C1312.12,-169.185 1122.52,-157.221 963,-132 961.726,-131.799 960.432,-131.579 959.127,-131.345"/>
<polygon fill="midnightblue" stroke="midnightblue" points="959.567,-127.864 949.074,-129.33 958.191,-134.727 959.567,-127.864"/>
</g>
<!-- Node13 -->
<g id="node25" class="node"><title>Node13</title>
<a xlink:href="_con_8h.html" target="_top" xlink:title="dia/Con.h">
<polygon fill="white" stroke="black" points="1126.5,-56.5 1126.5,-75.5 1185.5,-75.5 1185.5,-56.5 1126.5,-56.5"/>
<text text-anchor="middle" x="1156" y="-63.5" font-family="Helvetica,sans-Serif" font-size="10.00">dia/Con.h</text>
</a>
</g>
<!-- Node1&#45;&gt;Node13 -->
<g id="edge24" class="edge"><title>Node1&#45;&gt;Node13</title>
<path fill="none" stroke="midnightblue" d="M1419.19,-168.453C1377.46,-161.451 1321.29,-149.762 1274,-132 1238.4,-118.629 1200.42,-96.0212 1177.44,-81.3043"/>
<polygon fill="midnightblue" stroke="midnightblue" points="1179.14,-78.2318 1168.85,-75.7154 1175.32,-84.1005 1179.14,-78.2318"/>
</g>
<!-- Node14 -->
<g id="node27" class="node"><title>Node14</title>
<a xlink:href="_activation_function_8h.html" target="_top" xlink:title="dia/ActivationFunction.h">
<polygon fill="white" stroke="black" points="1327.5,-0.5 1327.5,-19.5 1452.5,-19.5 1452.5,-0.5 1327.5,-0.5"/>
<text text-anchor="middle" x="1390" y="-7.5" font-family="Helvetica,sans-Serif" font-size="10.00">dia/ActivationFunction.h</text>
</a>
</g>
<!-- Node1&#45;&gt;Node14 -->
<g id="edge26" class="edge"><title>Node1&#45;&gt;Node14</title>
<path fill="none" stroke="midnightblue" d="M1467.88,-168.386C1440.63,-148.717 1376.01,-100.329 1365,-76 1357.71,-59.891 1366.91,-40.9736 1376.13,-27.7142"/>
<polygon fill="midnightblue" stroke="midnightblue" points="1379.08,-29.6271 1382.33,-19.5426 1373.5,-25.4001 1379.08,-29.6271"/>
</g>
<!-- Node15 -->
<g id="node29" class="node"><title>Node15</title>
<a xlink:href="_tanh_8h.html" target="_top" xlink:title="dia/Tanh.h">
<polygon fill="white" stroke="black" points="1552,-56.5 1552,-75.5 1614,-75.5 1614,-56.5 1552,-56.5"/>
<text text-anchor="middle" x="1583" y="-63.5" font-family="Helvetica,sans-Serif" font-size="10.00">dia/Tanh.h</text>
</a>
</g>
<!-- Node1&#45;&gt;Node15 -->
<g id="edge28" class="edge"><title>Node1&#45;&gt;Node15</title>
<path fill="none" stroke="midnightblue" d="M1497.35,-168.366C1511.95,-160.443 1532.69,-147.588 1547,-132 1559.65,-118.217 1569.52,-99.1885 1575.7,-85.2822"/>
<polygon fill="midnightblue" stroke="midnightblue" points="1579.03,-86.3921 1579.69,-75.8179 1572.58,-83.6716 1579.03,-86.3921"/>
</g>
<!-- Node16 -->
<g id="node32" class="node"><title>Node16</title>
<a xlink:href="_identity_8h.html" target="_top" xlink:title="dia/Identity.h">
<polygon fill="white" stroke="black" points="1204,-56.5 1204,-75.5 1280,-75.5 1280,-56.5 1204,-56.5"/>
<text text-anchor="middle" x="1242" y="-63.5" font-family="Helvetica,sans-Serif" font-size="10.00">dia/Identity.h</text>
</a>
</g>
<!-- Node1&#45;&gt;Node16 -->
<g id="edge32" class="edge"><title>Node1&#45;&gt;Node16</title>
<path fill="none" stroke="midnightblue" d="M1411.41,-168.583C1377.37,-162.204 1336.66,-151.122 1304,-132 1283.27,-119.863 1265.04,-98.8 1253.81,-83.9458"/>
<polygon fill="midnightblue" stroke="midnightblue" points="1256.47,-81.6596 1247.76,-75.6347 1250.81,-85.7793 1256.47,-81.6596"/>
</g>
<!-- Node17 -->
<g id="node35" class="node"><title>Node17</title>
<a xlink:href="_predict_behavior_8h.html" target="_top" xlink:title="dia/PredictBehavior.h">
<polygon fill="white" stroke="black" points="1662,-0.5 1662,-19.5 1776,-19.5 1776,-0.5 1662,-0.5"/>
<text text-anchor="middle" x="1719" y="-7.5" font-family="Helvetica,sans-Serif" font-size="10.00">dia/PredictBehavior.h</text>
</a>
</g>
<!-- Node1&#45;&gt;Node17 -->
<g id="edge36" class="edge"><title>Node1&#45;&gt;Node17</title>
<path fill="none" stroke="midnightblue" d="M1499.5,-168.42C1517.76,-160.068 1545.52,-146.538 1568,-132 1619.89,-98.4356 1675.18,-50.6242 1702.19,-26.376"/>
<polygon fill="midnightblue" stroke="midnightblue" points="1704.56,-28.9526 1709.63,-19.649 1699.86,-23.761 1704.56,-28.9526"/>
</g>
<!-- Node18 -->
<g id="node37" class="node"><title>Node18</title>
<a xlink:href="_m_l_pbehavior_8h.html" target="_top" xlink:title="dia/MLPBehavior.h">
<polygon fill="white" stroke="black" points="1708,-56.5 1708,-75.5 1810,-75.5 1810,-56.5 1708,-56.5"/>
<text text-anchor="middle" x="1759" y="-63.5" font-family="Helvetica,sans-Serif" font-size="10.00">dia/MLPBehavior.h</text>
</a>
</g>
<!-- Node1&#45;&gt;Node18 -->
<g id="edge38" class="edge"><title>Node1&#45;&gt;Node18</title>
<path fill="none" stroke="midnightblue" d="M1548.52,-173.09C1615.51,-167.894 1711.35,-156.36 1739,-132 1752.13,-120.432 1756.76,-100.47 1758.33,-85.7122"/>
<polygon fill="midnightblue" stroke="midnightblue" points="1761.83,-85.8838 1759.03,-75.666 1754.85,-85.4004 1761.83,-85.8838"/>
</g>
<!-- Node19 -->
<g id="node40" class="node"><title>Node19</title>
<a xlink:href="_neuron_8h.html" target="_top" xlink:title="dia/Neuron.h">
<polygon fill="white" stroke="black" points="980,-0.5 980,-19.5 1054,-19.5 1054,-0.5 980,-0.5"/>
<text text-anchor="middle" x="1017" y="-7.5" font-family="Helvetica,sans-Serif" font-size="10.00">dia/Neuron.h</text>
</a>
</g>
<!-- Node1&#45;&gt;Node19 -->
<g id="edge42" class="edge"><title>Node1&#45;&gt;Node19</title>
<path fill="none" stroke="midnightblue" d="M1411.39,-175.576C1300.14,-172.397 1085.89,-162.415 1017,-132 977.121,-114.395 935.2,-94.8358 955,-56 962,-42.2698 975.366,-31.7496 987.9,-24.3465"/>
<polygon fill="midnightblue" stroke="midnightblue" points="989.674,-27.366 996.777,-19.5055 986.322,-21.2204 989.674,-27.366"/>
</g>
<!-- Node20 -->
<g id="node42" class="node"><title>Node20</title>
<a xlink:href="_simple_neuron_8h.html" target="_top" xlink:title="dia/SimpleNeuron.h">
<polygon fill="white" stroke="black" points="964,-56.5 964,-75.5 1070,-75.5 1070,-56.5 964,-56.5"/>
<text text-anchor="middle" x="1017" y="-63.5" font-family="Helvetica,sans-Serif" font-size="10.00">dia/SimpleNeuron.h</text>
</a>
</g>
<!-- Node1&#45;&gt;Node20 -->
<g id="edge44" class="edge"><title>Node1&#45;&gt;Node20</title>
<path fill="none" stroke="midnightblue" d="M1411.49,-174.341C1293.55,-169.145 1062.05,-156.002 1034,-132 1020.86,-120.76 1017.24,-100.746 1016.52,-85.8863"/>
<polygon fill="midnightblue" stroke="midnightblue" points="1020.02,-85.7242 1016.42,-75.7581 1013.02,-85.7912 1020.02,-85.7242"/>
</g>
<!-- Node21 -->
<g id="node45" class="node"><title>Node21</title>
<a xlink:href="_neural_factory_8h.html" target="_top" xlink:title="dia/NeuralFactory.h">
<polygon fill="white" stroke="black" points="2026,-0.5 2026,-19.5 2130,-19.5 2130,-0.5 2026,-0.5"/>
<text text-anchor="middle" x="2078" y="-7.5" font-family="Helvetica,sans-Serif" font-size="10.00">dia/NeuralFactory.h</text>
</a>
</g>
<!-- Node1&#45;&gt;Node21 -->
<g id="edge48" class="edge"><title>Node1&#45;&gt;Node21</title>
<path fill="none" stroke="midnightblue" d="M1548.65,-173.701C1662.51,-167.707 1885.4,-153.614 1961,-132 1980.11,-126.536 1983.11,-120.654 2001,-112 2035.01,-95.5512 2057.72,-107.872 2078,-76 2086.7,-62.3277 2085.64,-43.54 2083.03,-29.6787"/>
<polygon fill="midnightblue" stroke="midnightblue" points="2086.41,-28.7728 2080.76,-19.8103 2079.59,-30.34 2086.41,-28.7728"/>
</g>
<!-- Node22 -->
<g id="node47" class="node"><title>Node22</title>
<a xlink:href="_m_l_pfactory_8h.html" target="_top" xlink:title="dia/MLPfactory.h">
<polygon fill="white" stroke="black" points="1956.5,-56.5 1956.5,-75.5 2049.5,-75.5 2049.5,-56.5 1956.5,-56.5"/>
<text text-anchor="middle" x="2003" y="-63.5" font-family="Helvetica,sans-Serif" font-size="10.00">dia/MLPfactory.h</text>
</a>
</g>
<!-- Node1&#45;&gt;Node22 -->
<g id="edge50" class="edge"><title>Node1&#45;&gt;Node22</title>
<path fill="none" stroke="midnightblue" d="M1548.8,-170.914C1613.28,-164.34 1712.05,-152.024 1796,-132 1822.93,-125.576 1828.64,-120.473 1855,-112 1891.98,-100.113 1934.42,-87.2919 1964.35,-78.3878"/>
<polygon fill="midnightblue" stroke="midnightblue" points="1965.4,-81.7267 1973.99,-75.5254 1963.41,-75.0161 1965.4,-81.7267"/>
</g>
<!-- Node23 -->
<g id="node50" class="node"><title>Node23</title>
<a xlink:href="_neural_creator_8h.html" target="_top" xlink:title="dia/NeuralCreator.h">
<polygon fill="white" stroke="black" points="2410,-0.5 2410,-19.5 2514,-19.5 2514,-0.5 2410,-0.5"/>
<text text-anchor="middle" x="2462" y="-7.5" font-family="Helvetica,sans-Serif" font-size="10.00">dia/NeuralCreator.h</text>
</a>
</g>
<!-- Node1&#45;&gt;Node23 -->
<g id="edge54" class="edge"><title>Node1&#45;&gt;Node23</title>
<path fill="none" stroke="midnightblue" d="M1548.63,-175.572C1756.7,-170.991 2368.5,-155.574 2404,-132 2439.31,-108.553 2453.72,-57.3197 2459.11,-29.6367"/>
<polygon fill="midnightblue" stroke="midnightblue" points="2462.58,-30.1234 2460.85,-19.6698 2455.68,-28.9172 2462.58,-30.1234"/>
</g>
<!-- Node24 -->
<g id="node52" class="node"><title>Node24</title>
<a xlink:href="_simple_neural_creator_8h.html" target="_top" xlink:title="dia/SimpleNeuralCreator.h">
<polygon fill="white" stroke="black" points="2490.5,-56.5 2490.5,-75.5 2627.5,-75.5 2627.5,-56.5 2490.5,-56.5"/>
<text text-anchor="middle" x="2559" y="-63.5" font-family="Helvetica,sans-Serif" font-size="10.00">dia/SimpleNeuralCreator.h</text>
</a>
</g>
<!-- Node1&#45;&gt;Node24 -->
<g id="edge56" class="edge"><title>Node1&#45;&gt;Node24</title>
<path fill="none" stroke="midnightblue" d="M1548.79,-176.815C1786.05,-175.843 2557.72,-169.78 2594,-132 2607.71,-117.727 2592.15,-97.0251 2577.64,-82.842"/>
<polygon fill="midnightblue" stroke="midnightblue" points="2579.61,-79.9016 2569.88,-75.7153 2574.88,-85.0573 2579.61,-79.9016"/>
</g>
<!-- Node25 -->
<g id="node55" class="node"><title>Node25</title>
<a xlink:href="_container_8h.html" target="_top" xlink:title="dia/Container.h">
<polygon fill="white" stroke="black" points="2162.5,-56.5 2162.5,-75.5 2247.5,-75.5 2247.5,-56.5 2162.5,-56.5"/>
<text text-anchor="middle" x="2205" y="-63.5" font-family="Helvetica,sans-Serif" font-size="10.00">dia/Container.h</text>
</a>
</g>
<!-- Node1&#45;&gt;Node25 -->
<g id="edge60" class="edge"><title>Node1&#45;&gt;Node25</title>
<path fill="none" stroke="midnightblue" d="M1548.67,-174.871C1705.83,-169.627 2082.24,-154.836 2135,-132 2158.92,-121.647 2179.85,-99.5093 2192.45,-83.9574"/>
<polygon fill="midnightblue" stroke="midnightblue" points="2195.49,-85.745 2198.86,-75.7007 2189.96,-81.4506 2195.49,-85.745"/>
</g>
<!-- Node26 -->
<g id="node57" class="node"><title>Node26</title>
<a xlink:href="_simple_container_8h.html" target="_top" xlink:title="dia/SimpleContainer.h">
<polygon fill="white" stroke="black" points="2009.5,-112.5 2009.5,-131.5 2126.5,-131.5 2126.5,-112.5 2009.5,-112.5"/>
<text text-anchor="middle" x="2068" y="-119.5" font-family="Helvetica,sans-Serif" font-size="10.00">dia/SimpleContainer.h</text>
</a>
</g>
<!-- Node1&#45;&gt;Node26 -->
<g id="edge62" class="edge"><title>Node1&#45;&gt;Node26</title>
<path fill="none" stroke="midnightblue" d="M1548.8,-171.77C1647.63,-164.079 1835.45,-148.8 1995,-132 1996.47,-131.845 1997.95,-131.686 1999.45,-131.524"/>
<polygon fill="midnightblue" stroke="midnightblue" points="1999.9,-134.995 2009.45,-130.404 1999.12,-128.038 1999.9,-134.995"/>
</g>
<!-- Node27 -->
<g id="node60" class="node"><title>Node27</title>
<a xlink:href="_iterator_8h.html" target="_top" xlink:title="dia/Iterator.h">
<polygon fill="white" stroke="black" points="2724,-0.5 2724,-19.5 2798,-19.5 2798,-0.5 2724,-0.5"/>
<text text-anchor="middle" x="2761" y="-7.5" font-family="Helvetica,sans-Serif" font-size="10.00">dia/Iterator.h</text>
</a>
</g>
<!-- Node1&#45;&gt;Node27 -->
<g id="edge66" class="edge"><title>Node1&#45;&gt;Node27</title>
<path fill="none" stroke="midnightblue" d="M1548.73,-177.389C1779.03,-178.265 2514.48,-177.439 2610,-132 2650.66,-112.656 2641.71,-83.9638 2677,-56 2693.48,-42.9455 2714.29,-31.7641 2731.08,-23.8124"/>
<polygon fill="midnightblue" stroke="midnightblue" points="2732.81,-26.8694 2740.43,-19.514 2729.88,-20.5087 2732.81,-26.8694"/>
</g>
<!-- Node28 -->
<g id="node62" class="node"><title>Node28</title>
<a xlink:href="_simple_container_iterator_8h.html" target="_top" xlink:title="dia/SimpleContainerIterator.h">
<polygon fill="white" stroke="black" points="2685.5,-56.5 2685.5,-75.5 2836.5,-75.5 2836.5,-56.5 2685.5,-56.5"/>
<text text-anchor="middle" x="2761" y="-63.5" font-family="Helvetica,sans-Serif" font-size="10.00">dia/SimpleContainerIterator.h</text>
</a>
</g>
<!-- Node1&#45;&gt;Node28 -->
<g id="edge68" class="edge"><title>Node1&#45;&gt;Node28</title>
<path fill="none" stroke="midnightblue" d="M1548.84,-176.612C1785.97,-174.968 2560.16,-166.955 2666,-132 2696.66,-121.875 2726.46,-98.6406 2744.27,-82.8766"/>
<polygon fill="midnightblue" stroke="midnightblue" points="2746.97,-85.1513 2752,-75.8282 2742.26,-79.9778 2746.97,-85.1513"/>
</g>
<!-- Node29 -->
<g id="node65" class="node"><title>Node29</title>
<a xlink:href="_con_8cpp.html" target="_top" xlink:title="Con.cpp">
<polygon fill="white" stroke="black" points="1163,-112.5 1163,-131.5 1219,-131.5 1219,-112.5 1163,-112.5"/>
<text text-anchor="middle" x="1191" y="-119.5" font-family="Helvetica,sans-Serif" font-size="10.00">Con.cpp</text>
</a>
</g>
<!-- Node1&#45;&gt;Node29 -->
<g id="edge72" class="edge"><title>Node1&#45;&gt;Node29</title>
<path fill="none" stroke="midnightblue" d="M1430.71,-168.481C1380.79,-159.747 1301.41,-145.558 1233,-132 1231.77,-131.755 1230.51,-131.504 1229.25,-131.247"/>
<polygon fill="midnightblue" stroke="midnightblue" points="1229.94,-127.818 1219.44,-129.219 1228.53,-134.673 1229.94,-127.818"/>
</g>
<!-- Node30 -->
<g id="node69" class="node"><title>Node30</title>
<a xlink:href="_activation_function_8cpp.html" target="_top" xlink:title="ActivationFunction.cpp">
<polygon fill="white" stroke="black" points="1374,-56.5 1374,-75.5 1496,-75.5 1496,-56.5 1374,-56.5"/>
<text text-anchor="middle" x="1435" y="-63.5" font-family="Helvetica,sans-Serif" font-size="10.00">ActivationFunction.cpp</text>
</a>
</g>
<!-- Node1&#45;&gt;Node30 -->
<g id="edge78" class="edge"><title>Node1&#45;&gt;Node30</title>
<path fill="none" stroke="midnightblue" d="M1476.47,-168.368C1469.14,-150.456 1452.15,-108.923 1442.34,-84.9482"/>
<polygon fill="midnightblue" stroke="midnightblue" points="1445.54,-83.5217 1438.51,-75.5914 1439.06,-86.1721 1445.54,-83.5217"/>
</g>
<!-- Node31 -->
<g id="node72" class="node"><title>Node31</title>
<a xlink:href="_tanh_8cpp.html" target="_top" xlink:title="Tanh.cpp">
<polygon fill="white" stroke="black" points="1479.5,-112.5 1479.5,-131.5 1538.5,-131.5 1538.5,-112.5 1479.5,-112.5"/>
<text text-anchor="middle" x="1509" y="-119.5" font-family="Helvetica,sans-Serif" font-size="10.00">Tanh.cpp</text>
</a>
</g>
<!-- Node1&#45;&gt;Node31 -->
<g id="edge82" class="edge"><title>Node1&#45;&gt;Node31</title>
<path fill="none" stroke="midnightblue" d="M1484.79,-168.083C1488.76,-160.691 1494.53,-149.953 1499.43,-140.811"/>
<polygon fill="midnightblue" stroke="midnightblue" points="1502.65,-142.217 1504.3,-131.751 1496.49,-138.905 1502.65,-142.217"/>
</g>
<!-- Node32 -->
<g id="node76" class="node"><title>Node32</title>
<a xlink:href="_identity_8cpp.html" target="_top" xlink:title="Identity.cpp">
<polygon fill="white" stroke="black" points="1313,-112.5 1313,-131.5 1385,-131.5 1385,-112.5 1313,-112.5"/>
<text text-anchor="middle" x="1349" y="-119.5" font-family="Helvetica,sans-Serif" font-size="10.00">Identity.cpp</text>
</a>
</g>
<!-- Node1&#45;&gt;Node32 -->
<g id="edge88" class="edge"><title>Node1&#45;&gt;Node32</title>
<path fill="none" stroke="midnightblue" d="M1459.24,-168.444C1437.68,-159.557 1403.74,-145.563 1379.21,-135.451"/>
<polygon fill="midnightblue" stroke="midnightblue" points="1380.24,-132.092 1369.66,-131.516 1377.57,-138.563 1380.24,-132.092"/>
</g>
<!-- Node33 -->
<g id="node80" class="node"><title>Node33</title>
<a xlink:href="_predict_behavior_8cpp.html" target="_top" xlink:title="PredictBehavior.cpp">
<polygon fill="white" stroke="black" points="1828,-56.5 1828,-75.5 1938,-75.5 1938,-56.5 1828,-56.5"/>
<text text-anchor="middle" x="1883" y="-63.5" font-family="Helvetica,sans-Serif" font-size="10.00">PredictBehavior.cpp</text>
</a>
</g>
<!-- Node1&#45;&gt;Node33 -->
<g id="edge94" class="edge"><title>Node1&#45;&gt;Node33</title>
<path fill="none" stroke="midnightblue" d="M1548.55,-172.145C1605.95,-166.624 1689.41,-155.168 1759,-132 1796.87,-119.394 1837.17,-96.217 1861.21,-81.2165"/>
<polygon fill="midnightblue" stroke="midnightblue" points="1863.31,-84.0306 1869.88,-75.719 1859.56,-78.1192 1863.31,-84.0306"/>
</g>
<!-- Node34 -->
<g id="node83" class="node"><title>Node34</title>
<a xlink:href="_m_l_pbehavior_8cpp.html" target="_top" xlink:title="MLPbehavior.cpp">
<polygon fill="white" stroke="black" points="1633.5,-112.5 1633.5,-131.5 1730.5,-131.5 1730.5,-112.5 1633.5,-112.5"/>
<text text-anchor="middle" x="1682" y="-119.5" font-family="Helvetica,sans-Serif" font-size="10.00">MLPbehavior.cpp</text>
</a>
</g>
<!-- Node1&#45;&gt;Node34 -->
<g id="edge98" class="edge"><title>Node1&#45;&gt;Node34</title>
<path fill="none" stroke="midnightblue" d="M1512.01,-168.444C1546.73,-159.162 1602.29,-144.309 1640.38,-134.127"/>
<polygon fill="midnightblue" stroke="midnightblue" points="1641.39,-137.48 1650.14,-131.516 1639.58,-130.718 1641.39,-137.48"/>
</g>
<!-- Node35 -->
<g id="node87" class="node"><title>Node35</title>
<a xlink:href="_simple_neuron_8cpp.html" target="_top" xlink:title="SimpleNeuron.cpp">
<polygon fill="white" stroke="black" points="1043,-112.5 1043,-131.5 1145,-131.5 1145,-112.5 1043,-112.5"/>
<text text-anchor="middle" x="1094" y="-119.5" font-family="Helvetica,sans-Serif" font-size="10.00">SimpleNeuron.cpp</text>
</a>
</g>
<!-- Node1&#45;&gt;Node35 -->
<g id="edge104" class="edge"><title>Node1&#45;&gt;Node35</title>
<path fill="none" stroke="midnightblue" d="M1416.56,-168.467C1353.02,-159.87 1252.16,-146.085 1155.05,-132.138"/>
<polygon fill="midnightblue" stroke="midnightblue" points="1155.45,-128.66 1145.06,-130.7 1154.46,-135.589 1155.45,-128.66"/>
</g>
<!-- Node36 -->
<g id="node90" class="node"><title>Node36</title>
<a xlink:href="_m_l_pfactory_8cpp.html" target="_top" xlink:title="MLPfactory.cpp">
<polygon fill="white" stroke="black" points="1863.5,-112.5 1863.5,-131.5 1952.5,-131.5 1952.5,-112.5 1863.5,-112.5"/>
<text text-anchor="middle" x="1908" y="-119.5" font-family="Helvetica,sans-Serif" font-size="10.00">MLPfactory.cpp</text>
</a>
</g>
<!-- Node1&#45;&gt;Node36 -->
<g id="edge108" class="edge"><title>Node1&#45;&gt;Node36</title>
<path fill="none" stroke="midnightblue" d="M1548.77,-169.239C1622.94,-160.722 1744.46,-146.344 1849,-132 1850.3,-131.822 1851.61,-131.639 1852.94,-131.453"/>
<polygon fill="midnightblue" stroke="midnightblue" points="1853.84,-134.859 1863.24,-129.972 1852.85,-127.931 1853.84,-134.859"/>
</g>
<!-- Node37 -->
<g id="node94" class="node"><title>Node37</title>
<a xlink:href="_simple_neural_creator_8cpp.html" target="_top" xlink:title="SimpleNeuralCreator.cpp">
<polygon fill="white" stroke="black" points="2452.5,-112.5 2452.5,-131.5 2585.5,-131.5 2585.5,-112.5 2452.5,-112.5"/>
<text text-anchor="middle" x="2519" y="-119.5" font-family="Helvetica,sans-Serif" font-size="10.00">SimpleNeuralCreator.cpp</text>
</a>
</g>
<!-- Node1&#45;&gt;Node37 -->
<g id="edge114" class="edge"><title>Node1&#45;&gt;Node37</title>
<path fill="none" stroke="midnightblue" d="M1548.63,-175.277C1706.05,-170.998 2105.2,-158.278 2438,-132 2439.31,-131.897 2440.63,-131.789 2441.96,-131.677"/>
<polygon fill="midnightblue" stroke="midnightblue" points="2442.64,-135.131 2452.29,-130.753 2442.01,-128.158 2442.64,-135.131"/>
</g>
<!-- Node38 -->
<g id="node98" class="node"><title>Node38</title>
<a xlink:href="_container_8cpp.html" target="_top" xlink:title="Container.cpp">
<polygon fill="white" stroke="black" points="2183.5,-112.5 2183.5,-131.5 2264.5,-131.5 2264.5,-112.5 2183.5,-112.5"/>
<text text-anchor="middle" x="2224" y="-119.5" font-family="Helvetica,sans-Serif" font-size="10.00">Container.cpp</text>
</a>
</g>
<!-- Node1&#45;&gt;Node38 -->
<g id="edge120" class="edge"><title>Node1&#45;&gt;Node38</title>
<path fill="none" stroke="midnightblue" d="M1548.65,-174.722C1672.79,-170.113 1942.71,-157.842 2169,-132 2170.3,-131.852 2171.61,-131.694 2172.94,-131.529"/>
<polygon fill="midnightblue" stroke="midnightblue" points="2173.78,-134.946 2183.21,-130.126 2172.83,-128.01 2173.78,-134.946"/>
</g>
<!-- Node39 -->
<g id="node101" class="node"><title>Node39</title>
<a xlink:href="_iterator_8cpp.html" target="_top" xlink:title="Iterator.cpp">
<polygon fill="white" stroke="black" points="2856.5,-56.5 2856.5,-75.5 2927.5,-75.5 2927.5,-56.5 2856.5,-56.5"/>
<text text-anchor="middle" x="2892" y="-63.5" font-family="Helvetica,sans-Serif" font-size="10.00">Iterator.cpp</text>
</a>
</g>
<!-- Node1&#45;&gt;Node39 -->
<g id="edge124" class="edge"><title>Node1&#45;&gt;Node39</title>
<path fill="none" stroke="midnightblue" d="M1548.56,-177.025C1821.87,-176.84 2821.45,-173.329 2874,-132 2887.64,-121.271 2891.52,-101.176 2892.37,-86.158"/>
<polygon fill="midnightblue" stroke="midnightblue" points="2895.87,-85.9584 2892.54,-75.9019 2888.87,-85.8427 2895.87,-85.9584"/>
</g>
<!-- Node40 -->
<g id="node104" class="node"><title>Node40</title>
<a xlink:href="_simple_container_8cpp.html" target="_top" xlink:title="SimpleContainer.cpp">
<polygon fill="white" stroke="black" points="2282.5,-112.5 2282.5,-131.5 2395.5,-131.5 2395.5,-112.5 2282.5,-112.5"/>
<text text-anchor="middle" x="2339" y="-119.5" font-family="Helvetica,sans-Serif" font-size="10.00">SimpleContainer.cpp</text>
</a>
</g>
<!-- Node1&#45;&gt;Node40 -->
<g id="edge128" class="edge"><title>Node1&#45;&gt;Node40</title>
<path fill="none" stroke="midnightblue" d="M1548.56,-174.93C1684.48,-170.43 1997.91,-158.076 2272.01,-132.014"/>
<polygon fill="midnightblue" stroke="midnightblue" points="2272.53,-135.48 2282.15,-131.042 2271.86,-128.512 2272.53,-135.48"/>
</g>
<!-- Node41 -->
<g id="node107" class="node"><title>Node41</title>
<a xlink:href="_simple_container_iterator_8cpp.html" target="_top" xlink:title="SimpleContainerIterator.cpp">
<polygon fill="white" stroke="black" points="2718.5,-112.5 2718.5,-131.5 2865.5,-131.5 2865.5,-112.5 2718.5,-112.5"/>
<text text-anchor="middle" x="2792" y="-119.5" font-family="Helvetica,sans-Serif" font-size="10.00">SimpleContainerIterator.cpp</text>
</a>
</g>
<!-- Node1&#45;&gt;Node41 -->
<g id="edge132" class="edge"><title>Node1&#45;&gt;Node41</title>
<path fill="none" stroke="midnightblue" d="M1548.76,-176.042C1734.98,-173.108 2264.62,-162.513 2704,-132 2705.29,-131.91 2706.6,-131.817 2707.91,-131.719"/>
<polygon fill="midnightblue" stroke="midnightblue" points="2708.4,-135.192 2718.09,-130.912 2707.84,-128.214 2708.4,-135.192"/>
</g>
<!-- Node15&#45;&gt;Node14 -->
<g id="edge30" class="edge"><title>Node15&#45;&gt;Node14</title>
<path fill="none" stroke="midnightblue" d="M1552.42,-56.4435C1519.39,-47.2011 1466.61,-32.4356 1430.23,-22.2572"/>
<polygon fill="midnightblue" stroke="midnightblue" points="1431.01,-18.8404 1420.44,-19.5164 1429.13,-25.5815 1431.01,-18.8404"/>
</g>
<!-- Node16&#45;&gt;Node14 -->
<g id="edge34" class="edge"><title>Node16&#45;&gt;Node14</title>
<path fill="none" stroke="midnightblue" d="M1265.45,-56.4435C1290.13,-47.4381 1329.19,-33.1891 1356.98,-23.049"/>
<polygon fill="midnightblue" stroke="midnightblue" points="1358.46,-26.2321 1366.66,-19.5164 1356.06,-19.6561 1358.46,-26.2321"/>
</g>
<!-- Node18&#45;&gt;Node17 -->
<g id="edge40" class="edge"><title>Node18&#45;&gt;Node17</title>
<path fill="none" stroke="midnightblue" d="M1752.39,-56.083C1746.74,-48.4554 1738.46,-37.2645 1731.55,-27.9408"/>
<polygon fill="midnightblue" stroke="midnightblue" points="1734.25,-25.7034 1725.48,-19.7511 1728.62,-29.87 1734.25,-25.7034"/>
</g>
<!-- Node20&#45;&gt;Node19 -->
<g id="edge46" class="edge"><title>Node20&#45;&gt;Node19</title>
<path fill="none" stroke="midnightblue" d="M1017,-56.083C1017,-49.0059 1017,-38.8611 1017,-29.9865"/>
<polygon fill="midnightblue" stroke="midnightblue" points="1020.5,-29.751 1017,-19.7511 1013.5,-29.7511 1020.5,-29.751"/>
</g>
<!-- Node22&#45;&gt;Node21 -->
<g id="edge52" class="edge"><title>Node22&#45;&gt;Node21</title>
<path fill="none" stroke="midnightblue" d="M2015.05,-56.324C2026.46,-48.1066 2043.83,-35.6017 2057.43,-25.8069"/>
<polygon fill="midnightblue" stroke="midnightblue" points="2059.66,-28.5174 2065.73,-19.8339 2055.57,-22.8366 2059.66,-28.5174"/>
</g>
<!-- Node24&#45;&gt;Node23 -->
<g id="edge58" class="edge"><title>Node24&#45;&gt;Node23</title>
<path fill="none" stroke="midnightblue" d="M2543.42,-56.324C2528,-47.7428 2504.19,-34.486 2486.29,-24.5224"/>
<polygon fill="midnightblue" stroke="midnightblue" points="2487.99,-21.4606 2477.55,-19.6545 2484.58,-27.5767 2487.99,-21.4606"/>
</g>
<!-- Node26&#45;&gt;Node25 -->
<g id="edge64" class="edge"><title>Node26&#45;&gt;Node25</title>
<path fill="none" stroke="midnightblue" d="M2089.71,-112.444C2112.35,-103.517 2148.07,-89.4387 2173.75,-79.3168"/>
<polygon fill="midnightblue" stroke="midnightblue" points="2175.37,-82.4397 2183.39,-75.5164 2172.81,-75.9273 2175.37,-82.4397"/>
</g>
<!-- Node28&#45;&gt;Node27 -->
<g id="edge70" class="edge"><title>Node28&#45;&gt;Node27</title>
<path fill="none" stroke="midnightblue" d="M2761,-56.083C2761,-49.0059 2761,-38.8611 2761,-29.9865"/>
<polygon fill="midnightblue" stroke="midnightblue" points="2764.5,-29.751 2761,-19.7511 2757.5,-29.7511 2764.5,-29.751"/>
</g>
<!-- Node29&#45;&gt;Node13 -->
<g id="edge74" class="edge"><title>Node29&#45;&gt;Node13</title>
<path fill="none" stroke="midnightblue" d="M1185.22,-112.083C1180.33,-104.534 1173.17,-93.4948 1167.17,-84.2298"/>
<polygon fill="midnightblue" stroke="midnightblue" points="1170.05,-82.239 1161.67,-75.7511 1164.17,-86.0463 1170.05,-82.239"/>
</g>
<!-- Node29&#45;&gt;Node19 -->
<g id="edge76" class="edge"><title>Node29&#45;&gt;Node19</title>
<path fill="none" stroke="midnightblue" d="M1176.96,-112.454C1162.22,-103.461 1138.41,-88.855 1118,-76 1090.61,-58.7482 1059.3,-38.5196 1038.9,-25.267"/>
<polygon fill="midnightblue" stroke="midnightblue" points="1040.64,-22.2215 1030.34,-19.7047 1036.82,-28.09 1040.64,-22.2215"/>
</g>
<!-- Node30&#45;&gt;Node14 -->
<g id="edge80" class="edge"><title>Node30&#45;&gt;Node14</title>
<path fill="none" stroke="midnightblue" d="M1427.57,-56.083C1421.15,-48.3768 1411.69,-37.0333 1403.88,-27.6531"/>
<polygon fill="midnightblue" stroke="midnightblue" points="1406.38,-25.1927 1397.29,-19.7511 1401.01,-29.674 1406.38,-25.1927"/>
</g>
<!-- Node31&#45;&gt;Node14 -->
<g id="edge84" class="edge"><title>Node31&#45;&gt;Node14</title>
<path fill="none" stroke="midnightblue" d="M1511.14,-112.457C1513.96,-99.037 1517.25,-72.814 1505,-56 1493.07,-39.6197 1474.27,-29.2008 1455.3,-22.574"/>
<polygon fill="midnightblue" stroke="midnightblue" points="1456.29,-19.2174 1445.7,-19.5295 1454.17,-25.8897 1456.29,-19.2174"/>
</g>
<!-- Node31&#45;&gt;Node15 -->
<g id="edge86" class="edge"><title>Node31&#45;&gt;Node15</title>
<path fill="none" stroke="midnightblue" d="M1520.89,-112.324C1532.15,-104.107 1549.29,-91.6017 1562.71,-81.8069"/>
<polygon fill="midnightblue" stroke="midnightblue" points="1564.88,-84.5559 1570.89,-75.8339 1560.75,-78.9014 1564.88,-84.5559"/>
</g>
<!-- Node32&#45;&gt;Node14 -->
<g id="edge90" class="edge"><title>Node32&#45;&gt;Node14</title>
<path fill="none" stroke="midnightblue" d="M1342.95,-112.201C1334.92,-99.3303 1322.76,-74.8553 1332,-56 1338.52,-42.6839 1351.1,-32.177 1362.87,-24.6761"/>
<polygon fill="midnightblue" stroke="midnightblue" points="1364.77,-27.6205 1371.61,-19.5294 1361.22,-21.5891 1364.77,-27.6205"/>
</g>
<!-- Node32&#45;&gt;Node16 -->
<g id="edge92" class="edge"><title>Node32&#45;&gt;Node16</title>
<path fill="none" stroke="midnightblue" d="M1331.81,-112.324C1314.65,-103.664 1288.05,-90.2424 1268.25,-80.249"/>
<polygon fill="midnightblue" stroke="midnightblue" points="1269.65,-77.0354 1259.15,-75.6545 1266.5,-83.2847 1269.65,-77.0354"/>
</g>
<!-- Node33&#45;&gt;Node17 -->
<g id="edge96" class="edge"><title>Node33&#45;&gt;Node17</title>
<path fill="none" stroke="midnightblue" d="M1857.01,-56.4435C1829.3,-47.3196 1785.25,-32.8133 1754.38,-22.6509"/>
<polygon fill="midnightblue" stroke="midnightblue" points="1755.46,-19.3196 1744.86,-19.5164 1753.27,-25.9684 1755.46,-19.3196"/>
</g>
<!-- Node34&#45;&gt;Node17 -->
<g id="edge100" class="edge"><title>Node34&#45;&gt;Node17</title>
<path fill="none" stroke="midnightblue" d="M1683.77,-112.454C1686.47,-99.8999 1692.06,-75.8146 1699,-56 1702.18,-46.923 1706.43,-37.1335 1710.19,-29.0106"/>
<polygon fill="midnightblue" stroke="midnightblue" points="1713.44,-30.3255 1714.58,-19.7921 1707.12,-27.316 1713.44,-30.3255"/>
</g>
<!-- Node34&#45;&gt;Node18 -->
<g id="edge102" class="edge"><title>Node34&#45;&gt;Node18</title>
<path fill="none" stroke="midnightblue" d="M1694.37,-112.324C1706.16,-104.058 1724.13,-91.4527 1738.14,-81.6322"/>
<polygon fill="midnightblue" stroke="midnightblue" points="1740.48,-84.2619 1746.66,-75.6545 1736.46,-78.5307 1740.48,-84.2619"/>
</g>
<!-- Node35&#45;&gt;Node20 -->
<g id="edge106" class="edge"><title>Node35&#45;&gt;Node20</title>
<path fill="none" stroke="midnightblue" d="M1081.63,-112.324C1069.84,-104.058 1051.87,-91.4527 1037.86,-81.6322"/>
<polygon fill="midnightblue" stroke="midnightblue" points="1039.54,-78.5307 1029.34,-75.6545 1035.52,-84.2619 1039.54,-78.5307"/>
</g>
<!-- Node36&#45;&gt;Node21 -->
<g id="edge110" class="edge"><title>Node36&#45;&gt;Node21</title>
<path fill="none" stroke="midnightblue" d="M1952.64,-112.447C1991.21,-104.212 2043.05,-90.8468 2058,-76 2070.16,-63.9215 2074.96,-44.6364 2076.84,-30.2039"/>
<polygon fill="midnightblue" stroke="midnightblue" points="2080.36,-30.1824 2077.8,-19.9001 2073.39,-29.5312 2080.36,-30.1824"/>
</g>
<!-- Node36&#45;&gt;Node22 -->
<g id="edge112" class="edge"><title>Node36&#45;&gt;Node22</title>
<path fill="none" stroke="midnightblue" d="M1923.26,-112.324C1938.22,-103.822 1961.25,-90.7288 1978.73,-80.7975"/>
<polygon fill="midnightblue" stroke="midnightblue" points="1980.81,-83.639 1987.77,-75.6545 1977.35,-77.5534 1980.81,-83.639"/>
</g>
<!-- Node37&#45;&gt;Node23 -->
<g id="edge116" class="edge"><title>Node37&#45;&gt;Node23</title>
<path fill="none" stroke="midnightblue" d="M2510.21,-112.453C2501.89,-103.918 2489.57,-90.0751 2482,-76 2474.14,-61.3764 2468.88,-43.2051 2465.73,-29.7964"/>
<polygon fill="midnightblue" stroke="midnightblue" points="2469.11,-28.87 2463.58,-19.8356 2462.27,-30.3495 2469.11,-28.87"/>
</g>
<!-- Node37&#45;&gt;Node24 -->
<g id="edge118" class="edge"><title>Node37&#45;&gt;Node24</title>
<path fill="none" stroke="midnightblue" d="M2525.61,-112.083C2531.26,-104.455 2539.54,-93.2645 2546.45,-83.9408"/>
<polygon fill="midnightblue" stroke="midnightblue" points="2549.38,-85.87 2552.52,-75.7511 2543.75,-81.7034 2549.38,-85.87"/>
</g>
<!-- Node38&#45;&gt;Node25 -->
<g id="edge122" class="edge"><title>Node38&#45;&gt;Node25</title>
<path fill="none" stroke="midnightblue" d="M2220.86,-112.083C2218.32,-104.849 2214.64,-94.4087 2211.47,-85.3968"/>
<polygon fill="midnightblue" stroke="midnightblue" points="2214.7,-84.0225 2208.08,-75.7511 2208.1,-86.3459 2214.7,-84.0225"/>
</g>
<!-- Node39&#45;&gt;Node27 -->
<g id="edge126" class="edge"><title>Node39&#45;&gt;Node27</title>
<path fill="none" stroke="midnightblue" d="M2871.24,-56.4435C2849.68,-47.5566 2815.74,-33.5632 2791.21,-23.4514"/>
<polygon fill="midnightblue" stroke="midnightblue" points="2792.24,-20.0917 2781.66,-19.5164 2789.57,-26.5634 2792.24,-20.0917"/>
</g>
<!-- Node40&#45;&gt;Node25 -->
<g id="edge130" class="edge"><title>Node40&#45;&gt;Node25</title>
<path fill="none" stroke="midnightblue" d="M2317.77,-112.444C2295.62,-103.517 2260.68,-89.4387 2235.56,-79.3168"/>
<polygon fill="midnightblue" stroke="midnightblue" points="2236.72,-76.0079 2226.13,-75.5164 2234.1,-82.5006 2236.72,-76.0079"/>
</g>
<!-- Node41&#45;&gt;Node28 -->
<g id="edge134" class="edge"><title>Node41&#45;&gt;Node28</title>
<path fill="none" stroke="midnightblue" d="M2786.88,-112.083C2782.59,-104.613 2776.34,-93.7244 2771.06,-84.5199"/>
<polygon fill="midnightblue" stroke="midnightblue" points="2774.04,-82.6811 2766.02,-75.7511 2767.97,-86.1662 2774.04,-82.6811"/>
</g>
</g>
</svg>
