<?xml version="1.0" encoding="UTF-8" standalone="no"?>
<!DOCTYPE svg PUBLIC "-//W3C//DTD SVG 1.1//EN"
 "http://www.w3.org/Graphics/SVG/1.1/DTD/svg11.dtd">
<!-- Generated by graphviz version 2.28.0 (20110610.2051)
 -->
<!-- Title: G Pages: 1 -->
<svg width="1682pt" height="196pt"
 viewBox="0.00 0.00 1681.51 196.00" xmlns="http://www.w3.org/2000/svg" xmlns:xlink="http://www.w3.org/1999/xlink">
<g id="graph1" class="graph" transform="scale(1 1) rotate(0) translate(4 192)">
<title>G</title>
<polygon fill="white" stroke="white" points="-4,5 -4,-192 1678.51,-192 1678.51,5 -4,5"/>
<!-- Node1 -->
<g id="node1" class="node"><title>Node1</title>
<polygon fill="#bfbfbf" stroke="black" points="858.5,-168.5 858.5,-187.5 995.5,-187.5 995.5,-168.5 858.5,-168.5"/>
<text text-anchor="middle" x="927" y="-175.5" font-family="Helvetica,sans-Serif" font-size="10.00">pkg/AMORE/src/AMORE.h</text>
</g>
<!-- Node2 -->
<g id="node3" class="node"><title>Node2</title>
<polygon fill="white" stroke="#bfbfbf" points="0,-112.5 0,-131.5 56,-131.5 56,-112.5 0,-112.5"/>
<text text-anchor="middle" x="28" y="-119.5" font-family="Helvetica,sans-Serif" font-size="10.00">iostream</text>
</g>
<!-- Node1&#45;&gt;Node2 -->
<g id="edge2" class="edge"><title>Node1&#45;&gt;Node2</title>
<path fill="none" stroke="midnightblue" d="M858.41,-177.741C713.537,-178.372 365.77,-174.955 66.3584,-131.909"/>
<polygon fill="midnightblue" stroke="midnightblue" points="66.5752,-128.404 56.1753,-130.427 65.5669,-135.331 66.5752,-128.404"/>
</g>
<!-- Node3 -->
<g id="node5" class="node"><title>Node3</title>
<polygon fill="white" stroke="#bfbfbf" points="74.5,-112.5 74.5,-131.5 127.5,-131.5 127.5,-112.5 74.5,-112.5"/>
<text text-anchor="middle" x="101" y="-119.5" font-family="Helvetica,sans-Serif" font-size="10.00">sstream</text>
</g>
<!-- Node1&#45;&gt;Node3 -->
<g id="edge4" class="edge"><title>Node1&#45;&gt;Node3</title>
<path fill="none" stroke="midnightblue" d="M858.283,-177.573C722.118,-177.736 408.474,-173.27 137.661,-131.969"/>
<polygon fill="midnightblue" stroke="midnightblue" points="138.059,-128.489 127.641,-130.421 136.99,-135.407 138.059,-128.489"/>
</g>
<!-- Node4 -->
<g id="node7" class="node"><title>Node4</title>
<polygon fill="white" stroke="#bfbfbf" points="145.5,-112.5 145.5,-131.5 204.5,-131.5 204.5,-112.5 145.5,-112.5"/>
<text text-anchor="middle" x="175" y="-119.5" font-family="Helvetica,sans-Serif" font-size="10.00">algorithm</text>
</g>
<!-- Node1&#45;&gt;Node4 -->
<g id="edge6" class="edge"><title>Node1&#45;&gt;Node4</title>
<path fill="none" stroke="midnightblue" d="M858.283,-176.394C732.417,-174.47 456.404,-166.478 214.744,-131.841"/>
<polygon fill="midnightblue" stroke="midnightblue" points="215.114,-128.358 204.715,-130.385 214.109,-135.286 215.114,-128.358"/>
</g>
<!-- Node5 -->
<g id="node9" class="node"><title>Node5</title>
<polygon fill="white" stroke="#bfbfbf" points="223,-112.5 223,-131.5 269,-131.5 269,-112.5 223,-112.5"/>
<text text-anchor="middle" x="246" y="-119.5" font-family="Helvetica,sans-Serif" font-size="10.00">vector</text>
</g>
<!-- Node1&#45;&gt;Node5 -->
<g id="edge8" class="edge"><title>Node1&#45;&gt;Node5</title>
<path fill="none" stroke="midnightblue" d="M858.237,-176.841C740.957,-175.561 494.81,-168.497 279.21,-131.857"/>
<polygon fill="midnightblue" stroke="midnightblue" points="279.741,-128.397 269.292,-130.146 278.552,-135.295 279.741,-128.397"/>
</g>
<!-- Node6 -->
<g id="node11" class="node"><title>Node6</title>
<polygon fill="white" stroke="#bfbfbf" points="287,-112.5 287,-131.5 337,-131.5 337,-112.5 287,-112.5"/>
<text text-anchor="middle" x="312" y="-119.5" font-family="Helvetica,sans-Serif" font-size="10.00">iterator</text>
</g>
<!-- Node1&#45;&gt;Node6 -->
<g id="edge10" class="edge"><title>Node1&#45;&gt;Node6</title>
<path fill="none" stroke="midnightblue" d="M858.229,-175.535C749.152,-172.344 530.075,-162.402 347,-132 346.899,-131.983 346.799,-131.966 346.698,-131.949"/>
<polygon fill="midnightblue" stroke="midnightblue" points="347.618,-128.565 337.123,-130.019 346.234,-135.426 347.618,-128.565"/>
</g>
<!-- Node7 -->
<g id="node13" class="node"><title>Node7</title>
<polygon fill="white" stroke="#bfbfbf" points="355.5,-112.5 355.5,-131.5 470.5,-131.5 470.5,-112.5 355.5,-112.5"/>
<text text-anchor="middle" x="413" y="-119.5" font-family="Helvetica,sans-Serif" font-size="10.00">boost/shared_ptr.hpp</text>
</g>
<!-- Node1&#45;&gt;Node7 -->
<g id="edge12" class="edge"><title>Node1&#45;&gt;Node7</title>
<path fill="none" stroke="midnightblue" d="M858.386,-170.806C772.639,-162.905 621.129,-148.418 480.811,-132.059"/>
<polygon fill="midnightblue" stroke="midnightblue" points="481.068,-128.566 470.728,-130.878 480.253,-135.518 481.068,-128.566"/>
</g>
<!-- Node8 -->
<g id="node15" class="node"><title>Node8</title>
<polygon fill="white" stroke="#bfbfbf" points="489,-112.5 489,-131.5 597,-131.5 597,-112.5 489,-112.5"/>
<text text-anchor="middle" x="543" y="-119.5" font-family="Helvetica,sans-Serif" font-size="10.00">boost/weak_ptr.hpp</text>
</g>
<!-- Node1&#45;&gt;Node8 -->
<g id="edge14" class="edge"><title>Node1&#45;&gt;Node8</title>
<path fill="none" stroke="midnightblue" d="M865.754,-168.463C803.364,-159.755 703.518,-145.789 607.475,-132.206"/>
<polygon fill="midnightblue" stroke="midnightblue" points="607.687,-128.701 597.295,-130.766 606.706,-135.632 607.687,-128.701"/>
</g>
<!-- Node9 -->
<g id="node17" class="node"><title>Node9</title>
<polygon fill="white" stroke="#bfbfbf" points="615,-112.5 615,-131.5 715,-131.5 715,-112.5 615,-112.5"/>
<text text-anchor="middle" x="665" y="-119.5" font-family="Helvetica,sans-Serif" font-size="10.00">boost/foreach.hpp</text>
</g>
<!-- Node1&#45;&gt;Node9 -->
<g id="edge16" class="edge"><title>Node1&#45;&gt;Node9</title>
<path fill="none" stroke="midnightblue" d="M885.485,-168.444C839.588,-158.984 765.62,-143.738 716.174,-133.547"/>
<polygon fill="midnightblue" stroke="midnightblue" points="716.821,-130.107 706.32,-131.516 715.408,-136.963 716.821,-130.107"/>
</g>
<!-- Node10 -->
<g id="node19" class="node"><title>Node10</title>
<polygon fill="white" stroke="#bfbfbf" points="733,-112.5 733,-131.5 811,-131.5 811,-112.5 733,-112.5"/>
<text text-anchor="middle" x="772" y="-119.5" font-family="Helvetica,sans-Serif" font-size="10.00">boost/ref.hpp</text>
</g>
<!-- Node1&#45;&gt;Node10 -->
<g id="edge18" class="edge"><title>Node1&#45;&gt;Node10</title>
<path fill="none" stroke="midnightblue" d="M902.44,-168.444C876.477,-159.399 835.332,-145.064 806.203,-134.916"/>
<polygon fill="midnightblue" stroke="midnightblue" points="807.04,-131.501 796.445,-131.516 804.737,-138.112 807.04,-131.501"/>
</g>
<!-- Node11 -->
<g id="node21" class="node"><title>Node11</title>
<polygon fill="white" stroke="#bfbfbf" points="829,-112.5 829,-131.5 879,-131.5 879,-112.5 829,-112.5"/>
<text text-anchor="middle" x="854" y="-119.5" font-family="Helvetica,sans-Serif" font-size="10.00">Rcpp.h</text>
</g>
<!-- Node1&#45;&gt;Node11 -->
<g id="edge20" class="edge"><title>Node1&#45;&gt;Node11</title>
<path fill="none" stroke="midnightblue" d="M915.271,-168.324C904.163,-160.107 887.258,-147.602 874.017,-137.807"/>
<polygon fill="midnightblue" stroke="midnightblue" points="876.063,-134.967 865.942,-131.834 871.9,-140.595 876.063,-134.967"/>
</g>
<!-- Node12 -->
<g id="node23" class="node"><title>Node12</title>
<a xlink:href="dia_2_con_8h.html" target="_top" xlink:title="dia/Con.h">
<polygon fill="white" stroke="black" points="897.5,-112.5 897.5,-131.5 956.5,-131.5 956.5,-112.5 897.5,-112.5"/>
<text text-anchor="middle" x="927" y="-119.5" font-family="Helvetica,sans-Serif" font-size="10.00">dia/Con.h</text>
</a>
</g>
<!-- Node1&#45;&gt;Node12 -->
<g id="edge22" class="edge"><title>Node1&#45;&gt;Node12</title>
<path fill="none" stroke="midnightblue" d="M927,-168.083C927,-161.006 927,-150.861 927,-141.986"/>
<polygon fill="midnightblue" stroke="midnightblue" points="930.5,-141.751 927,-131.751 923.5,-141.751 930.5,-141.751"/>
</g>
<!-- Node13 -->
<g id="node25" class="node"><title>Node13</title>
<a xlink:href="dia_2_neuron_8h.html" target="_top" xlink:title="dia/Neuron.h">
<polygon fill="white" stroke="black" points="975,-112.5 975,-131.5 1049,-131.5 1049,-112.5 975,-112.5"/>
<text text-anchor="middle" x="1012" y="-119.5" font-family="Helvetica,sans-Serif" font-size="10.00">dia/Neuron.h</text>
</a>
</g>
<!-- Node1&#45;&gt;Node13 -->
<g id="edge24" class="edge"><title>Node1&#45;&gt;Node13</title>
<path fill="none" stroke="midnightblue" d="M940.657,-168.324C953.916,-159.9 974.268,-146.971 989.846,-137.074"/>
<polygon fill="midnightblue" stroke="midnightblue" points="991.813,-139.971 998.377,-131.655 988.06,-134.063 991.813,-139.971"/>
</g>
<!-- Node14 -->
<g id="node27" class="node"><title>Node14</title>
<a xlink:href="_simple_neuron_8h.html" target="_top" xlink:title="dia/SimpleNeuron.h">
<polygon fill="white" stroke="black" points="1083,-56.5 1083,-75.5 1189,-75.5 1189,-56.5 1083,-56.5"/>
<text text-anchor="middle" x="1136" y="-63.5" font-family="Helvetica,sans-Serif" font-size="10.00">dia/SimpleNeuron.h</text>
</a>
</g>
<!-- Node1&#45;&gt;Node14 -->
<g id="edge26" class="edge"><title>Node1&#45;&gt;Node14</title>
<path fill="none" stroke="midnightblue" d="M995.594,-174.301C1061.75,-170.085 1155.13,-159.333 1178,-132 1191.29,-116.117 1173.35,-95.7973 1156.97,-82.1408"/>
<polygon fill="midnightblue" stroke="midnightblue" points="1158.75,-79.0865 1148.72,-75.6655 1154.43,-84.5929 1158.75,-79.0865"/>
</g>
<!-- Node16 -->
<g id="node31" class="node"><title>Node16</title>
<a xlink:href="_neural_factory_8h.html" target="_top" xlink:title="dia/NeuralFactory.h">
<polygon fill="white" stroke="black" points="1259,-0.5 1259,-19.5 1363,-19.5 1363,-0.5 1259,-0.5"/>
<text text-anchor="middle" x="1311" y="-7.5" font-family="Helvetica,sans-Serif" font-size="10.00">dia/NeuralFactory.h</text>
</a>
</g>
<!-- Node1&#45;&gt;Node16 -->
<g id="edge30" class="edge"><title>Node1&#45;&gt;Node16</title>
<path fill="none" stroke="midnightblue" d="M995.622,-171.071C1063.32,-164.231 1161.29,-151.374 1194,-132 1231.03,-110.068 1223.57,-86.4307 1254,-56 1265.11,-44.8852 1278.92,-33.9236 1290.16,-25.6021"/>
<polygon fill="midnightblue" stroke="midnightblue" points="1292.48,-28.2432 1298.53,-19.5419 1288.38,-22.5745 1292.48,-28.2432"/>
</g>
<!-- Node17 -->
<g id="node33" class="node"><title>Node17</title>
<a xlink:href="_m_l_pfactory_8h.html" target="_top" xlink:title="dia/MLPFactory.h">
<polygon fill="white" stroke="black" points="1263,-56.5 1263,-75.5 1359,-75.5 1359,-56.5 1263,-56.5"/>
<text text-anchor="middle" x="1311" y="-63.5" font-family="Helvetica,sans-Serif" font-size="10.00">dia/MLPFactory.h</text>
</a>
</g>
<!-- Node1&#45;&gt;Node17 -->
<g id="edge32" class="edge"><title>Node1&#45;&gt;Node17</title>
<path fill="none" stroke="midnightblue" d="M995.721,-172.696C1076.81,-166.705 1206.06,-154.026 1249,-132 1270.37,-121.037 1288.47,-99.7349 1299.5,-84.5044"/>
<polygon fill="midnightblue" stroke="midnightblue" points="1302.6,-86.1673 1305.42,-75.9526 1296.85,-82.1839 1302.6,-86.1673"/>
</g>
<!-- Node18 -->
<g id="node36" class="node"><title>Node18</title>
<a xlink:href="_neural_creator_8h.html" target="_top" xlink:title="dia/NeuralCreator.h">
<polygon fill="white" stroke="black" points="1565,-0.5 1565,-19.5 1669,-19.5 1669,-0.5 1565,-0.5"/>
<text text-anchor="middle" x="1617" y="-7.5" font-family="Helvetica,sans-Serif" font-size="10.00">dia/NeuralCreator.h</text>
</a>
</g>
<!-- Node1&#45;&gt;Node18 -->
<g id="edge36" class="edge"><title>Node1&#45;&gt;Node18</title>
<path fill="none" stroke="midnightblue" d="M995.722,-175.32C1174.23,-170.623 1640.33,-156.097 1663,-132 1691.22,-101.999 1655.46,-52.9343 1632.86,-27.481"/>
<polygon fill="midnightblue" stroke="midnightblue" points="1635.16,-24.8086 1625.81,-19.8158 1630,-29.5463 1635.16,-24.8086"/>
</g>
<!-- Node19 -->
<g id="node38" class="node"><title>Node19</title>
<a xlink:href="_simple_neural_creator_8h.html" target="_top" xlink:title="dia/SimpleNeuralCreator.h">
<polygon fill="white" stroke="black" points="1451.5,-56.5 1451.5,-75.5 1588.5,-75.5 1588.5,-56.5 1451.5,-56.5"/>
<text text-anchor="middle" x="1520" y="-63.5" font-family="Helvetica,sans-Serif" font-size="10.00">dia/SimpleNeuralCreator.h</text>
</a>
</g>
<!-- Node1&#45;&gt;Node19 -->
<g id="edge38" class="edge"><title>Node1&#45;&gt;Node19</title>
<path fill="none" stroke="midnightblue" d="M995.585,-174.587C1133.2,-169.278 1433.37,-155.183 1474,-132 1492.34,-121.535 1505.17,-100.417 1512.54,-85.0841"/>
<polygon fill="midnightblue" stroke="midnightblue" points="1515.89,-86.1546 1516.77,-75.5957 1509.5,-83.3059 1515.89,-86.1546"/>
</g>
<!-- Node20 -->
<g id="node41" class="node"><title>Node20</title>
<polygon fill="white" stroke="#bfbfbf" points="1409,-112.5 1409,-131.5 1465,-131.5 1465,-112.5 1409,-112.5"/>
<text text-anchor="middle" x="1437" y="-119.5" font-family="Helvetica,sans-Serif" font-size="10.00">Con.cpp</text>
</g>
<!-- Node1&#45;&gt;Node20 -->
<g id="edge42" class="edge"><title>Node1&#45;&gt;Node20</title>
<path fill="none" stroke="midnightblue" d="M995.777,-173.414C1088.01,-167.929 1256.67,-155.525 1399,-132 1399.1,-131.983 1399.2,-131.967 1399.3,-131.95"/>
<polygon fill="midnightblue" stroke="midnightblue" points="1399.7,-135.437 1408.87,-130.118 1398.39,-128.562 1399.7,-135.437"/>
</g>
<!-- Node21 -->
<g id="node43" class="node"><title>Node21</title>
<a xlink:href="_simple_neuron_8cpp.html" target="_top" xlink:title="SimpleNeuron.cpp">
<polygon fill="white" stroke="black" points="1067,-112.5 1067,-131.5 1169,-131.5 1169,-112.5 1067,-112.5"/>
<text text-anchor="middle" x="1118" y="-119.5" font-family="Helvetica,sans-Serif" font-size="10.00">SimpleNeuron.cpp</text>
</a>
</g>
<!-- Node1&#45;&gt;Node21 -->
<g id="edge44" class="edge"><title>Node1&#45;&gt;Node21</title>
<path fill="none" stroke="midnightblue" d="M957.265,-168.444C989.955,-159.201 1042.18,-144.436 1078.18,-134.257"/>
<polygon fill="midnightblue" stroke="midnightblue" points="1079.21,-137.605 1087.88,-131.516 1077.3,-130.869 1079.21,-137.605"/>
</g>
<!-- Node22 -->
<g id="node46" class="node"><title>Node22</title>
<a xlink:href="_m_l_pfactory_8cpp.html" target="_top" xlink:title="MLPfactory.cpp">
<polygon fill="white" stroke="black" points="1301.5,-112.5 1301.5,-131.5 1390.5,-131.5 1390.5,-112.5 1301.5,-112.5"/>
<text text-anchor="middle" x="1346" y="-119.5" font-family="Helvetica,sans-Serif" font-size="10.00">MLPfactory.cpp</text>
</a>
</g>
<!-- Node1&#45;&gt;Node22 -->
<g id="edge48" class="edge"><title>Node1&#45;&gt;Node22</title>
<path fill="none" stroke="midnightblue" d="M995.752,-168.966C1068.25,-160.363 1185.77,-146.045 1287,-132 1288.3,-131.82 1289.61,-131.635 1290.94,-131.448"/>
<polygon fill="midnightblue" stroke="midnightblue" points="1291.84,-134.853 1301.24,-129.958 1290.84,-127.925 1291.84,-134.853"/>
</g>
<!-- Node23 -->
<g id="node50" class="node"><title>Node23</title>
<a xlink:href="_simple_neural_creator_8cpp.html" target="_top" xlink:title="SimpleNeuralCreator.cpp">
<polygon fill="white" stroke="black" points="1521.5,-112.5 1521.5,-131.5 1654.5,-131.5 1654.5,-112.5 1521.5,-112.5"/>
<text text-anchor="middle" x="1588" y="-119.5" font-family="Helvetica,sans-Serif" font-size="10.00">SimpleNeuralCreator.cpp</text>
</a>
</g>
<!-- Node1&#45;&gt;Node23 -->
<g id="edge54" class="edge"><title>Node1&#45;&gt;Node23</title>
<path fill="none" stroke="midnightblue" d="M995.811,-172.404C1104.49,-164.978 1322.49,-149.403 1507,-132 1508.31,-131.877 1509.63,-131.75 1510.95,-131.622"/>
<polygon fill="midnightblue" stroke="midnightblue" points="1511.67,-135.068 1521.27,-130.592 1510.97,-128.102 1511.67,-135.068"/>
</g>
<!-- Node15 -->
<g id="node29" class="node"><title>Node15</title>
<polygon fill="white" stroke="#bfbfbf" points="1107,-0.5 1107,-19.5 1165,-19.5 1165,-0.5 1107,-0.5"/>
<text text-anchor="middle" x="1136" y="-7.5" font-family="Helvetica,sans-Serif" font-size="10.00">Neuron.h</text>
</g>
<!-- Node14&#45;&gt;Node15 -->
<g id="edge28" class="edge"><title>Node14&#45;&gt;Node15</title>
<path fill="none" stroke="midnightblue" d="M1136,-56.083C1136,-49.0059 1136,-38.8611 1136,-29.9865"/>
<polygon fill="midnightblue" stroke="midnightblue" points="1139.5,-29.751 1136,-19.7511 1132.5,-29.7511 1139.5,-29.751"/>
</g>
<!-- Node17&#45;&gt;Node16 -->
<g id="edge34" class="edge"><title>Node17&#45;&gt;Node16</title>
<path fill="none" stroke="midnightblue" d="M1311,-56.083C1311,-49.0059 1311,-38.8611 1311,-29.9865"/>
<polygon fill="midnightblue" stroke="midnightblue" points="1314.5,-29.751 1311,-19.7511 1307.5,-29.7511 1314.5,-29.751"/>
</g>
<!-- Node19&#45;&gt;Node18 -->
<g id="edge40" class="edge"><title>Node19&#45;&gt;Node18</title>
<path fill="none" stroke="midnightblue" d="M1535.58,-56.324C1551,-47.7428 1574.81,-34.486 1592.71,-24.5224"/>
<polygon fill="midnightblue" stroke="midnightblue" points="1594.42,-27.5767 1601.45,-19.6545 1591.01,-21.4606 1594.42,-27.5767"/>
</g>
<!-- Node21&#45;&gt;Node14 -->
<g id="edge46" class="edge"><title>Node21&#45;&gt;Node14</title>
<path fill="none" stroke="midnightblue" d="M1120.97,-112.083C1123.38,-104.849 1126.86,-94.4087 1129.87,-85.3968"/>
<polygon fill="midnightblue" stroke="midnightblue" points="1133.24,-86.3447 1133.08,-75.7511 1126.6,-84.1311 1133.24,-86.3447"/>
</g>
<!-- Node22&#45;&gt;Node16 -->
<g id="edge50" class="edge"><title>Node22&#45;&gt;Node16</title>
<path fill="none" stroke="midnightblue" d="M1353.14,-112.318C1362.68,-99.5931 1377.35,-75.2979 1368,-56 1361.6,-42.7996 1349.25,-32.3032 1337.67,-24.7794"/>
<polygon fill="midnightblue" stroke="midnightblue" points="1339.45,-21.7678 1329.08,-19.6099 1335.84,-27.7653 1339.45,-21.7678"/>
</g>
<!-- Node22&#45;&gt;Node17 -->
<g id="edge52" class="edge"><title>Node22&#45;&gt;Node17</title>
<path fill="none" stroke="midnightblue" d="M1340.22,-112.083C1335.33,-104.534 1328.17,-93.4948 1322.17,-84.2298"/>
<polygon fill="midnightblue" stroke="midnightblue" points="1325.05,-82.239 1316.67,-75.7511 1319.17,-86.0463 1325.05,-82.239"/>
</g>
<!-- Node23&#45;&gt;Node18 -->
<g id="edge56" class="edge"><title>Node23&#45;&gt;Node18</title>
<path fill="none" stroke="midnightblue" d="M1590.28,-112.368C1594.98,-94.5366 1605.85,-53.2953 1612.18,-29.2717"/>
<polygon fill="midnightblue" stroke="midnightblue" points="1615.57,-30.1533 1614.73,-19.5914 1608.8,-28.3688 1615.57,-30.1533"/>
</g>
<!-- Node23&#45;&gt;Node19 -->
<g id="edge58" class="edge"><title>Node23&#45;&gt;Node19</title>
<path fill="none" stroke="midnightblue" d="M1577.07,-112.324C1566.83,-104.185 1551.28,-91.8395 1539,-82.0874"/>
<polygon fill="midnightblue" stroke="midnightblue" points="1541.13,-79.3119 1531.12,-75.8339 1536.78,-84.7937 1541.13,-79.3119"/>
</g>
</g>
</svg>
