<?xml version="1.0" encoding="UTF-8" standalone="no"?>
<!DOCTYPE svg PUBLIC "-//W3C//DTD SVG 1.1//EN"
 "http://www.w3.org/Graphics/SVG/1.1/DTD/svg11.dtd">
<!-- Generated by graphviz version 2.28.0 (20110610.2051)
 -->
<!-- Title: G Pages: 1 -->
<svg width="1039pt" height="84pt"
 viewBox="0.00 0.00 1039.00 84.00" xmlns="http://www.w3.org/2000/svg" xmlns:xlink="http://www.w3.org/1999/xlink">
<g id="graph1" class="graph" transform="scale(1 1) rotate(0) translate(4 80)">
<title>G</title>
<polygon fill="white" stroke="white" points="-4,5 -4,-80 1036,-80 1036,5 -4,5"/>
<!-- Node1 -->
<g id="node1" class="node"><title>Node1</title>
<polygon fill="#bfbfbf" stroke="black" points="409.5,-56.5 409.5,-75.5 546.5,-75.5 546.5,-56.5 409.5,-56.5"/>
<text text-anchor="middle" x="478" y="-63.5" font-family="Helvetica,sans-Serif" font-size="10.00">pkg/AMORE/src/AMORE.h</text>
</g>
<!-- Node2 -->
<g id="node3" class="node"><title>Node2</title>
<polygon fill="white" stroke="#bfbfbf" points="0,-0.5 0,-19.5 56,-19.5 56,-0.5 0,-0.5"/>
<text text-anchor="middle" x="28" y="-7.5" font-family="Helvetica,sans-Serif" font-size="10.00">iostream</text>
</g>
<!-- Node1&#45;&gt;Node2 -->
<g id="edge2" class="edge"><title>Node1&#45;&gt;Node2</title>
<path fill="none" stroke="midnightblue" d="M409.287,-60.2625C329.1,-54.1174 192.4,-41.7315 66.0545,-19.9795"/>
<polygon fill="midnightblue" stroke="midnightblue" points="66.6549,-16.5314 56.2021,-18.2603 65.4516,-23.4272 66.6549,-16.5314"/>
</g>
<!-- Node3 -->
<g id="node5" class="node"><title>Node3</title>
<polygon fill="white" stroke="#bfbfbf" points="74.5,-0.5 74.5,-19.5 127.5,-19.5 127.5,-0.5 74.5,-0.5"/>
<text text-anchor="middle" x="101" y="-7.5" font-family="Helvetica,sans-Serif" font-size="10.00">sstream</text>
</g>
<!-- Node1&#45;&gt;Node3 -->
<g id="edge4" class="edge"><title>Node1&#45;&gt;Node3</title>
<path fill="none" stroke="midnightblue" d="M409.476,-58.446C342.382,-51.4714 237.124,-39.0481 137.599,-20.1261"/>
<polygon fill="midnightblue" stroke="midnightblue" points="138.159,-16.6697 127.678,-18.2141 136.835,-23.5432 138.159,-16.6697"/>
</g>
<!-- Node4 -->
<g id="node7" class="node"><title>Node4</title>
<polygon fill="white" stroke="#bfbfbf" points="145.5,-0.5 145.5,-19.5 204.5,-19.5 204.5,-0.5 145.5,-0.5"/>
<text text-anchor="middle" x="175" y="-7.5" font-family="Helvetica,sans-Serif" font-size="10.00">algorithm</text>
</g>
<!-- Node1&#45;&gt;Node4 -->
<g id="edge6" class="edge"><title>Node1&#45;&gt;Node4</title>
<path fill="none" stroke="midnightblue" d="M422.459,-56.4922C371.112,-48.4099 292.464,-35.4832 214.738,-20.0512"/>
<polygon fill="midnightblue" stroke="midnightblue" points="215.264,-16.5873 204.772,-18.0576 213.891,-23.4513 215.264,-16.5873"/>
</g>
<!-- Node5 -->
<g id="node9" class="node"><title>Node5</title>
<polygon fill="white" stroke="#bfbfbf" points="223,-0.5 223,-19.5 269,-19.5 269,-0.5 223,-0.5"/>
<text text-anchor="middle" x="246" y="-7.5" font-family="Helvetica,sans-Serif" font-size="10.00">vector</text>
</g>
<!-- Node1&#45;&gt;Node5 -->
<g id="edge8" class="edge"><title>Node1&#45;&gt;Node5</title>
<path fill="none" stroke="midnightblue" d="M437.247,-56.4907C398.783,-48.3123 339.287,-35.2842 278.754,-20.0915"/>
<polygon fill="midnightblue" stroke="midnightblue" points="279.586,-16.6917 269.033,-17.635 277.871,-23.4784 279.586,-16.6917"/>
</g>
<!-- Node6 -->
<g id="node11" class="node"><title>Node6</title>
<polygon fill="white" stroke="#bfbfbf" points="287,-0.5 287,-19.5 337,-19.5 337,-0.5 287,-0.5"/>
<text text-anchor="middle" x="312" y="-7.5" font-family="Helvetica,sans-Serif" font-size="10.00">iterator</text>
</g>
<!-- Node1&#45;&gt;Node6 -->
<g id="edge10" class="edge"><title>Node1&#45;&gt;Node6</title>
<path fill="none" stroke="midnightblue" d="M451.697,-56.4435C423.319,-47.2123 378.004,-32.4712 346.719,-22.2941"/>
<polygon fill="midnightblue" stroke="midnightblue" points="347.686,-18.9281 337.094,-19.1629 345.52,-25.5848 347.686,-18.9281"/>
</g>
<!-- Node7 -->
<g id="node13" class="node"><title>Node7</title>
<polygon fill="white" stroke="#bfbfbf" points="355.5,-0.5 355.5,-19.5 470.5,-19.5 470.5,-0.5 355.5,-0.5"/>
<text text-anchor="middle" x="413" y="-7.5" font-family="Helvetica,sans-Serif" font-size="10.00">boost/shared_ptr.hpp</text>
</g>
<!-- Node1&#45;&gt;Node7 -->
<g id="edge12" class="edge"><title>Node1&#45;&gt;Node7</title>
<path fill="none" stroke="midnightblue" d="M467.557,-56.324C457.854,-48.2631 443.185,-36.0765 431.5,-26.3695"/>
<polygon fill="midnightblue" stroke="midnightblue" points="433.562,-23.532 423.633,-19.8339 429.089,-28.9163 433.562,-23.532"/>
</g>
<!-- Node8 -->
<g id="node15" class="node"><title>Node8</title>
<polygon fill="white" stroke="#bfbfbf" points="489,-0.5 489,-19.5 597,-19.5 597,-0.5 489,-0.5"/>
<text text-anchor="middle" x="543" y="-7.5" font-family="Helvetica,sans-Serif" font-size="10.00">boost/weak_ptr.hpp</text>
</g>
<!-- Node1&#45;&gt;Node8 -->
<g id="edge14" class="edge"><title>Node1&#45;&gt;Node8</title>
<path fill="none" stroke="midnightblue" d="M488.443,-56.324C498.146,-48.2631 512.815,-36.0765 524.5,-26.3695"/>
<polygon fill="midnightblue" stroke="midnightblue" points="526.911,-28.9163 532.367,-19.8339 522.438,-23.532 526.911,-28.9163"/>
</g>
<!-- Node9 -->
<g id="node17" class="node"><title>Node9</title>
<polygon fill="white" stroke="#bfbfbf" points="615,-0.5 615,-19.5 715,-19.5 715,-0.5 615,-0.5"/>
<text text-anchor="middle" x="665" y="-7.5" font-family="Helvetica,sans-Serif" font-size="10.00">boost/foreach.hpp</text>
</g>
<!-- Node1&#45;&gt;Node9 -->
<g id="edge16" class="edge"><title>Node1&#45;&gt;Node9</title>
<path fill="none" stroke="midnightblue" d="M507.631,-56.4435C539.5,-47.2406 590.333,-32.5617 625.564,-22.3879"/>
<polygon fill="midnightblue" stroke="midnightblue" points="626.872,-25.6534 635.508,-19.5164 624.929,-18.9282 626.872,-25.6534"/>
</g>
<!-- Node10 -->
<g id="node19" class="node"><title>Node10</title>
<polygon fill="white" stroke="#bfbfbf" points="733,-0.5 733,-19.5 811,-19.5 811,-0.5 733,-0.5"/>
<text text-anchor="middle" x="772" y="-7.5" font-family="Helvetica,sans-Serif" font-size="10.00">boost/ref.hpp</text>
</g>
<!-- Node1&#45;&gt;Node10 -->
<g id="edge18" class="edge"><title>Node1&#45;&gt;Node10</title>
<path fill="none" stroke="midnightblue" d="M525.171,-56.4351C572.572,-47.8141 648.01,-34.055 722.89,-20.1994"/>
<polygon fill="midnightblue" stroke="midnightblue" points="723.774,-23.5953 732.97,-18.3331 722.5,-16.7123 723.774,-23.5953"/>
</g>
<!-- Node11 -->
<g id="node21" class="node"><title>Node11</title>
<polygon fill="white" stroke="#bfbfbf" points="829,-0.5 829,-19.5 879,-19.5 879,-0.5 829,-0.5"/>
<text text-anchor="middle" x="854" y="-7.5" font-family="Helvetica,sans-Serif" font-size="10.00">Rcpp.h</text>
</g>
<!-- Node1&#45;&gt;Node11 -->
<g id="edge20" class="edge"><title>Node1&#45;&gt;Node11</title>
<path fill="none" stroke="midnightblue" d="M546.552,-58.5865C613.666,-51.7176 718.94,-39.3756 818.869,-20.0044"/>
<polygon fill="midnightblue" stroke="midnightblue" points="819.695,-23.4091 828.833,-18.0458 818.345,-16.5405 819.695,-23.4091"/>
</g>
<!-- Node12 -->
<g id="node23" class="node"><title>Node12</title>
<a xlink:href="dia_2_con_8h.html" target="_top" xlink:title="dia/Con.h">
<polygon fill="white" stroke="black" points="897.5,-0.5 897.5,-19.5 956.5,-19.5 956.5,-0.5 897.5,-0.5"/>
<text text-anchor="middle" x="927" y="-7.5" font-family="Helvetica,sans-Serif" font-size="10.00">dia/Con.h</text>
</a>
</g>
<!-- Node1&#45;&gt;Node12 -->
<g id="edge22" class="edge"><title>Node1&#45;&gt;Node12</title>
<path fill="none" stroke="midnightblue" d="M546.533,-59.9545C626.07,-53.5434 761.321,-40.9302 887.068,-19.9634"/>
<polygon fill="midnightblue" stroke="midnightblue" points="887.985,-23.3583 897.262,-18.2416 886.819,-16.4561 887.985,-23.3583"/>
</g>
<!-- Node13 -->
<g id="node25" class="node"><title>Node13</title>
<polygon fill="white" stroke="#bfbfbf" points="975,-0.5 975,-19.5 1031,-19.5 1031,-0.5 975,-0.5"/>
<text text-anchor="middle" x="1003" y="-7.5" font-family="Helvetica,sans-Serif" font-size="10.00">Con.cpp</text>
</g>
<!-- Node1&#45;&gt;Node13 -->
<g id="edge24" class="edge"><title>Node1&#45;&gt;Node13</title>
<path fill="none" stroke="midnightblue" d="M546.537,-61.7067C641.154,-56.4702 816.897,-44.2578 965,-20 965.1,-19.9836 965.201,-19.967 965.301,-19.9503"/>
<polygon fill="midnightblue" stroke="midnightblue" points="965.699,-23.4377 974.867,-18.1277 964.389,-16.5614 965.699,-23.4377"/>
</g>
</g>
</svg>
