<?xml version="1.0" encoding="UTF-8" standalone="no"?>
<!DOCTYPE svg PUBLIC "-//W3C//DTD SVG 1.1//EN"
 "http://www.w3.org/Graphics/SVG/1.1/DTD/svg11.dtd">
<!-- Generated by graphviz version 2.28.0 (20110610.2051)
 -->
<!-- Title: G Pages: 1 -->
<svg width="2274pt" height="196pt"
 viewBox="0.00 0.00 2273.88 196.00" xmlns="http://www.w3.org/2000/svg" xmlns:xlink="http://www.w3.org/1999/xlink">
<g id="graph1" class="graph" transform="scale(1 1) rotate(0) translate(4 192)">
<title>G</title>
<polygon fill="white" stroke="white" points="-4,5 -4,-192 2270.88,-192 2270.88,5 -4,5"/>
<!-- Node1 -->
<g id="node1" class="node"><title>Node1</title>
<polygon fill="#bfbfbf" stroke="black" points="1090.5,-168.5 1090.5,-187.5 1227.5,-187.5 1227.5,-168.5 1090.5,-168.5"/>
<text text-anchor="middle" x="1159" y="-175.5" font-family="Helvetica,sans-Serif" font-size="10.00">pkg/AMORE/src/AMORE.h</text>
</g>
<!-- Node2 -->
<g id="node3" class="node"><title>Node2</title>
<polygon fill="white" stroke="#bfbfbf" points="0,-112.5 0,-131.5 56,-131.5 56,-112.5 0,-112.5"/>
<text text-anchor="middle" x="28" y="-119.5" font-family="Helvetica,sans-Serif" font-size="10.00">iostream</text>
</g>
<!-- Node1&#45;&gt;Node2 -->
<g id="edge2" class="edge"><title>Node1&#45;&gt;Node2</title>
<path fill="none" stroke="midnightblue" d="M1090.47,-175.952C886.353,-172.556 283.645,-160.459 66.2294,-131.835"/>
<polygon fill="midnightblue" stroke="midnightblue" points="66.5527,-128.347 56.1706,-130.46 65.6041,-135.282 66.5527,-128.347"/>
</g>
<!-- Node3 -->
<g id="node5" class="node"><title>Node3</title>
<polygon fill="white" stroke="#bfbfbf" points="74.5,-112.5 74.5,-131.5 127.5,-131.5 127.5,-112.5 74.5,-112.5"/>
<text text-anchor="middle" x="101" y="-119.5" font-family="Helvetica,sans-Serif" font-size="10.00">sstream</text>
</g>
<!-- Node1&#45;&gt;Node3 -->
<g id="edge4" class="edge"><title>Node1&#45;&gt;Node3</title>
<path fill="none" stroke="midnightblue" d="M1090.37,-175.839C895.39,-172.252 339.713,-159.944 137.568,-131.891"/>
<polygon fill="midnightblue" stroke="midnightblue" points="138.034,-128.422 127.636,-130.457 137.033,-135.351 138.034,-128.422"/>
</g>
<!-- Node4 -->
<g id="node7" class="node"><title>Node4</title>
<polygon fill="white" stroke="#bfbfbf" points="145.5,-112.5 145.5,-131.5 204.5,-131.5 204.5,-112.5 145.5,-112.5"/>
<text text-anchor="middle" x="175" y="-119.5" font-family="Helvetica,sans-Serif" font-size="10.00">algorithm</text>
</g>
<!-- Node1&#45;&gt;Node4 -->
<g id="edge6" class="edge"><title>Node1&#45;&gt;Node4</title>
<path fill="none" stroke="midnightblue" d="M1090.31,-175.328C905.941,-170.591 402.066,-155.932 214.724,-131.776"/>
<polygon fill="midnightblue" stroke="midnightblue" points="215.085,-128.294 204.708,-130.434 214.155,-135.232 215.085,-128.294"/>
</g>
<!-- Node5 -->
<g id="node9" class="node"><title>Node5</title>
<polygon fill="white" stroke="#bfbfbf" points="223,-112.5 223,-131.5 269,-131.5 269,-112.5 223,-112.5"/>
<text text-anchor="middle" x="246" y="-119.5" font-family="Helvetica,sans-Serif" font-size="10.00">vector</text>
</g>
<!-- Node1&#45;&gt;Node5 -->
<g id="edge8" class="edge"><title>Node1&#45;&gt;Node5</title>
<path fill="none" stroke="midnightblue" d="M1090.42,-175.475C915.077,-171.263 452.582,-158.126 279.291,-131.787"/>
<polygon fill="midnightblue" stroke="midnightblue" points="279.709,-128.309 269.283,-130.197 278.61,-135.222 279.709,-128.309"/>
</g>
<!-- Node6 -->
<g id="node11" class="node"><title>Node6</title>
<polygon fill="white" stroke="#bfbfbf" points="287,-112.5 287,-131.5 337,-131.5 337,-112.5 287,-112.5"/>
<text text-anchor="middle" x="312" y="-119.5" font-family="Helvetica,sans-Serif" font-size="10.00">iterator</text>
</g>
<!-- Node1&#45;&gt;Node6 -->
<g id="edge10" class="edge"><title>Node1&#45;&gt;Node6</title>
<path fill="none" stroke="midnightblue" d="M1090.36,-177.72C949.906,-178.2 619.951,-174.238 347,-132 346.899,-131.984 346.798,-131.969 346.697,-131.953"/>
<polygon fill="midnightblue" stroke="midnightblue" points="347.597,-128.562 337.112,-130.086 346.259,-135.433 347.597,-128.562"/>
</g>
<!-- Node7 -->
<g id="node13" class="node"><title>Node7</title>
<polygon fill="white" stroke="#bfbfbf" points="355.5,-112.5 355.5,-131.5 470.5,-131.5 470.5,-112.5 355.5,-112.5"/>
<text text-anchor="middle" x="413" y="-119.5" font-family="Helvetica,sans-Serif" font-size="10.00">boost/shared_ptr.hpp</text>
</g>
<!-- Node1&#45;&gt;Node7 -->
<g id="edge12" class="edge"><title>Node1&#45;&gt;Node7</title>
<path fill="none" stroke="midnightblue" d="M1090.45,-173.986C969.584,-168.336 710.495,-154.724 480.933,-132.022"/>
<polygon fill="midnightblue" stroke="midnightblue" points="481.012,-128.513 470.715,-131.004 480.318,-135.478 481.012,-128.513"/>
</g>
<!-- Node8 -->
<g id="node15" class="node"><title>Node8</title>
<polygon fill="white" stroke="#bfbfbf" points="489,-112.5 489,-131.5 597,-131.5 597,-112.5 489,-112.5"/>
<text text-anchor="middle" x="543" y="-119.5" font-family="Helvetica,sans-Serif" font-size="10.00">boost/weak_ptr.hpp</text>
</g>
<!-- Node1&#45;&gt;Node8 -->
<g id="edge14" class="edge"><title>Node1&#45;&gt;Node8</title>
<path fill="none" stroke="midnightblue" d="M1090.33,-172.757C987.602,-166.112 787.579,-152.023 607.463,-132.102"/>
<polygon fill="midnightblue" stroke="midnightblue" points="607.596,-128.595 597.269,-130.966 606.82,-135.552 607.596,-128.595"/>
</g>
<!-- Node9 -->
<g id="node17" class="node"><title>Node9</title>
<polygon fill="white" stroke="#bfbfbf" points="615,-112.5 615,-131.5 715,-131.5 715,-112.5 615,-112.5"/>
<text text-anchor="middle" x="665" y="-119.5" font-family="Helvetica,sans-Serif" font-size="10.00">boost/foreach.hpp</text>
</g>
<!-- Node1&#45;&gt;Node9 -->
<g id="edge16" class="edge"><title>Node1&#45;&gt;Node9</title>
<path fill="none" stroke="midnightblue" d="M1090.32,-170.928C1006.59,-163.294 860.507,-149.23 725.317,-132.115"/>
<polygon fill="midnightblue" stroke="midnightblue" points="725.551,-128.617 715.189,-130.825 724.666,-135.561 725.551,-128.617"/>
</g>
<!-- Node10 -->
<g id="node19" class="node"><title>Node10</title>
<polygon fill="white" stroke="#bfbfbf" points="733,-112.5 733,-131.5 811,-131.5 811,-112.5 733,-112.5"/>
<text text-anchor="middle" x="772" y="-119.5" font-family="Helvetica,sans-Serif" font-size="10.00">boost/ref.hpp</text>
</g>
<!-- Node1&#45;&gt;Node10 -->
<g id="edge18" class="edge"><title>Node1&#45;&gt;Node10</title>
<path fill="none" stroke="midnightblue" d="M1090.34,-168.977C1023.96,-160.971 920.305,-147.82 820.916,-132.075"/>
<polygon fill="midnightblue" stroke="midnightblue" points="821.429,-128.612 811.002,-130.493 820.326,-135.525 821.429,-128.612"/>
</g>
<!-- Node11 -->
<g id="node21" class="node"><title>Node11</title>
<polygon fill="white" stroke="#bfbfbf" points="829,-112.5 829,-131.5 879,-131.5 879,-112.5 829,-112.5"/>
<text text-anchor="middle" x="854" y="-119.5" font-family="Helvetica,sans-Serif" font-size="10.00">Rcpp.h</text>
</g>
<!-- Node1&#45;&gt;Node11 -->
<g id="edge20" class="edge"><title>Node1&#45;&gt;Node11</title>
<path fill="none" stroke="midnightblue" d="M1102.78,-168.479C1048.82,-160.068 965.109,-146.406 893,-132 891.735,-131.747 890.449,-131.484 889.15,-131.213"/>
<polygon fill="midnightblue" stroke="midnightblue" points="889.644,-127.738 879.128,-129.029 888.154,-134.578 889.644,-127.738"/>
</g>
<!-- Node12 -->
<g id="node23" class="node"><title>Node12</title>
<a xlink:href="_con_8h.html" target="_top" xlink:title="dia/Con.h">
<polygon fill="white" stroke="black" points="1072.5,-56.5 1072.5,-75.5 1131.5,-75.5 1131.5,-56.5 1072.5,-56.5"/>
<text text-anchor="middle" x="1102" y="-63.5" font-family="Helvetica,sans-Serif" font-size="10.00">dia/Con.h</text>
</a>
</g>
<!-- Node1&#45;&gt;Node12 -->
<g id="edge22" class="edge"><title>Node1&#45;&gt;Node12</title>
<path fill="none" stroke="midnightblue" d="M1150.21,-168.453C1141.89,-159.918 1129.57,-146.075 1122,-132 1114.14,-117.376 1108.88,-99.2051 1105.73,-85.7964"/>
<polygon fill="midnightblue" stroke="midnightblue" points="1109.11,-84.87 1103.58,-75.8356 1102.27,-86.3495 1109.11,-84.87"/>
</g>
<!-- Node13 -->
<g id="node25" class="node"><title>Node13</title>
<a xlink:href="_neuron_8h.html" target="_top" xlink:title="dia/Neuron.h">
<polygon fill="white" stroke="black" points="958,-0.5 958,-19.5 1032,-19.5 1032,-0.5 958,-0.5"/>
<text text-anchor="middle" x="995" y="-7.5" font-family="Helvetica,sans-Serif" font-size="10.00">dia/Neuron.h</text>
</a>
</g>
<!-- Node1&#45;&gt;Node13 -->
<g id="edge24" class="edge"><title>Node1&#45;&gt;Node13</title>
<path fill="none" stroke="midnightblue" d="M1090.31,-168.851C1039.31,-161.537 975.237,-149.281 955,-132 928.259,-109.164 917.028,-87.328 933,-56 940,-42.2698 953.366,-31.7496 965.9,-24.3465"/>
<polygon fill="midnightblue" stroke="midnightblue" points="967.674,-27.366 974.777,-19.5055 964.322,-21.2204 967.674,-27.366"/>
</g>
<!-- Node14 -->
<g id="node27" class="node"><title>Node14</title>
<a xlink:href="_simple_neuron_8h.html" target="_top" xlink:title="dia/SimpleNeuron.h">
<polygon fill="white" stroke="black" points="942,-56.5 942,-75.5 1048,-75.5 1048,-56.5 942,-56.5"/>
<text text-anchor="middle" x="995" y="-63.5" font-family="Helvetica,sans-Serif" font-size="10.00">dia/SimpleNeuron.h</text>
</a>
</g>
<!-- Node1&#45;&gt;Node14 -->
<g id="edge26" class="edge"><title>Node1&#45;&gt;Node14</title>
<path fill="none" stroke="midnightblue" d="M1090.42,-170.175C1040.78,-163.653 979.763,-151.815 964,-132 952.158,-117.114 965.341,-96.9643 977.986,-83.0646"/>
<polygon fill="midnightblue" stroke="midnightblue" points="980.701,-85.2935 985.176,-75.69 975.689,-80.4068 980.701,-85.2935"/>
</g>
<!-- Node15 -->
<g id="node30" class="node"><title>Node15</title>
<a xlink:href="_neural_factory_8h.html" target="_top" xlink:title="dia/NeuralFactory.h">
<polygon fill="white" stroke="black" points="1201,-0.5 1201,-19.5 1305,-19.5 1305,-0.5 1201,-0.5"/>
<text text-anchor="middle" x="1253" y="-7.5" font-family="Helvetica,sans-Serif" font-size="10.00">dia/NeuralFactory.h</text>
</a>
</g>
<!-- Node1&#45;&gt;Node15 -->
<g id="edge30" class="edge"><title>Node1&#45;&gt;Node15</title>
<path fill="none" stroke="midnightblue" d="M1167.36,-168.202C1175.36,-159.48 1187.45,-145.504 1196,-132 1217.85,-97.4724 1236.59,-53.2437 1246.18,-28.9624"/>
<polygon fill="midnightblue" stroke="midnightblue" points="1249.46,-30.1784 1249.81,-19.5893 1242.93,-27.6482 1249.46,-30.1784"/>
</g>
<!-- Node16 -->
<g id="node32" class="node"><title>Node16</title>
<a xlink:href="_m_l_pfactory_8h.html" target="_top" xlink:title="dia/MLPFactory.h">
<polygon fill="white" stroke="black" points="1281,-56.5 1281,-75.5 1377,-75.5 1377,-56.5 1281,-56.5"/>
<text text-anchor="middle" x="1329" y="-63.5" font-family="Helvetica,sans-Serif" font-size="10.00">dia/MLPFactory.h</text>
</a>
</g>
<!-- Node1&#45;&gt;Node16 -->
<g id="edge32" class="edge"><title>Node1&#45;&gt;Node16</title>
<path fill="none" stroke="midnightblue" d="M1227.62,-168.855C1273.08,-161.885 1326.85,-150.069 1341,-132 1351.47,-118.621 1345.82,-98.9751 1339.19,-84.7865"/>
<polygon fill="midnightblue" stroke="midnightblue" points="1342.12,-82.8442 1334.4,-75.5872 1335.91,-86.0741 1342.12,-82.8442"/>
</g>
<!-- Node17 -->
<g id="node35" class="node"><title>Node17</title>
<a xlink:href="_neural_creator_8h.html" target="_top" xlink:title="dia/NeuralCreator.h">
<polygon fill="white" stroke="black" points="1741,-0.5 1741,-19.5 1845,-19.5 1845,-0.5 1741,-0.5"/>
<text text-anchor="middle" x="1793" y="-7.5" font-family="Helvetica,sans-Serif" font-size="10.00">dia/NeuralCreator.h</text>
</a>
</g>
<!-- Node1&#45;&gt;Node17 -->
<g id="edge36" class="edge"><title>Node1&#45;&gt;Node17</title>
<path fill="none" stroke="midnightblue" d="M1203.01,-168.49C1243.38,-160.333 1304.66,-147.061 1357,-132 1455.2,-103.742 1475.51,-83.2341 1574,-56 1626.58,-41.4605 1687.44,-29.3217 1731.64,-21.3302"/>
<polygon fill="midnightblue" stroke="midnightblue" points="1732.42,-24.7453 1741.65,-19.539 1731.19,-17.8547 1732.42,-24.7453"/>
</g>
<!-- Node18 -->
<g id="node37" class="node"><title>Node18</title>
<a xlink:href="_simple_neural_creator_8h.html" target="_top" xlink:title="dia/SimpleNeuralCreator.h">
<polygon fill="white" stroke="black" points="1821.5,-56.5 1821.5,-75.5 1958.5,-75.5 1958.5,-56.5 1821.5,-56.5"/>
<text text-anchor="middle" x="1890" y="-63.5" font-family="Helvetica,sans-Serif" font-size="10.00">dia/SimpleNeuralCreator.h</text>
</a>
</g>
<!-- Node1&#45;&gt;Node18 -->
<g id="edge38" class="edge"><title>Node1&#45;&gt;Node18</title>
<path fill="none" stroke="midnightblue" d="M1227.63,-175.743C1419.23,-171.902 1947.54,-158.906 1973,-132 1992.81,-111.067 1956.85,-91.2941 1926.23,-79.1736"/>
<polygon fill="midnightblue" stroke="midnightblue" points="1927.15,-75.7781 1916.56,-75.5154 1924.67,-82.3257 1927.15,-75.7781"/>
</g>
<!-- Node19 -->
<g id="node40" class="node"><title>Node19</title>
<a xlink:href="_container_8h.html" target="_top" xlink:title="dia/Container.h">
<polygon fill="white" stroke="black" points="1582.5,-56.5 1582.5,-75.5 1667.5,-75.5 1667.5,-56.5 1582.5,-56.5"/>
<text text-anchor="middle" x="1625" y="-63.5" font-family="Helvetica,sans-Serif" font-size="10.00">dia/Container.h</text>
</a>
</g>
<!-- Node1&#45;&gt;Node19 -->
<g id="edge42" class="edge"><title>Node1&#45;&gt;Node19</title>
<path fill="none" stroke="midnightblue" d="M1227.73,-175.699C1355.74,-172.561 1620.24,-162.43 1648,-132 1660.29,-118.524 1649.8,-98.0624 1639.3,-83.7048"/>
<polygon fill="midnightblue" stroke="midnightblue" points="1641.9,-81.3528 1632.96,-75.6712 1636.4,-85.6894 1641.9,-81.3528"/>
</g>
<!-- Node20 -->
<g id="node42" class="node"><title>Node20</title>
<a xlink:href="_simple_container_8h.html" target="_top" xlink:title="dia/SimpleContainer.h">
<polygon fill="white" stroke="black" points="1696.5,-112.5 1696.5,-131.5 1813.5,-131.5 1813.5,-112.5 1696.5,-112.5"/>
<text text-anchor="middle" x="1755" y="-119.5" font-family="Helvetica,sans-Serif" font-size="10.00">dia/SimpleContainer.h</text>
</a>
</g>
<!-- Node1&#45;&gt;Node20 -->
<g id="edge44" class="edge"><title>Node1&#45;&gt;Node20</title>
<path fill="none" stroke="midnightblue" d="M1227.61,-171.907C1327.63,-164.298 1519.3,-149.023 1682,-132 1683.47,-131.846 1684.95,-131.688 1686.45,-131.526"/>
<polygon fill="midnightblue" stroke="midnightblue" points="1686.9,-134.998 1696.45,-130.411 1686.12,-128.041 1686.9,-134.998"/>
</g>
<!-- Node21 -->
<g id="node45" class="node"><title>Node21</title>
<a xlink:href="_iterator_8h.html" target="_top" xlink:title="dia/Iterator.h">
<polygon fill="white" stroke="black" points="2039,-0.5 2039,-19.5 2113,-19.5 2113,-0.5 2039,-0.5"/>
<text text-anchor="middle" x="2076" y="-7.5" font-family="Helvetica,sans-Serif" font-size="10.00">dia/Iterator.h</text>
</a>
</g>
<!-- Node1&#45;&gt;Node21 -->
<g id="edge48" class="edge"><title>Node1&#45;&gt;Node21</title>
<path fill="none" stroke="midnightblue" d="M1227.54,-176.533C1417.46,-174.797 1941.01,-166.87 2010,-132 2049.21,-112.18 2066.13,-58.5388 2072.56,-29.7928"/>
<polygon fill="midnightblue" stroke="midnightblue" points="2076.03,-30.2958 2074.59,-19.7986 2069.17,-28.8997 2076.03,-30.2958"/>
</g>
<!-- Node22 -->
<g id="node47" class="node"><title>Node22</title>
<a xlink:href="_simple_container_iterator_8h.html" target="_top" xlink:title="dia/SimpleContainerIterator.h">
<polygon fill="white" stroke="black" points="2104.5,-56.5 2104.5,-75.5 2255.5,-75.5 2255.5,-56.5 2104.5,-56.5"/>
<text text-anchor="middle" x="2180" y="-63.5" font-family="Helvetica,sans-Serif" font-size="10.00">dia/SimpleContainerIterator.h</text>
</a>
</g>
<!-- Node1&#45;&gt;Node22 -->
<g id="edge50" class="edge"><title>Node1&#45;&gt;Node22</title>
<path fill="none" stroke="midnightblue" d="M1227.8,-176.78C1463.25,-175.695 2224.19,-169.305 2260,-132 2279.63,-111.556 2244.36,-91.532 2214.6,-79.2317"/>
<polygon fill="midnightblue" stroke="midnightblue" points="2215.79,-75.9406 2205.21,-75.5187 2213.22,-82.4503 2215.79,-75.9406"/>
</g>
<!-- Node23 -->
<g id="node50" class="node"><title>Node23</title>
<a xlink:href="_con_8cpp.html" target="_top" xlink:title="Con.cpp">
<polygon fill="white" stroke="black" points="1131,-112.5 1131,-131.5 1187,-131.5 1187,-112.5 1131,-112.5"/>
<text text-anchor="middle" x="1159" y="-119.5" font-family="Helvetica,sans-Serif" font-size="10.00">Con.cpp</text>
</a>
</g>
<!-- Node1&#45;&gt;Node23 -->
<g id="edge54" class="edge"><title>Node1&#45;&gt;Node23</title>
<path fill="none" stroke="midnightblue" d="M1159,-168.083C1159,-161.006 1159,-150.861 1159,-141.986"/>
<polygon fill="midnightblue" stroke="midnightblue" points="1162.5,-141.751 1159,-131.751 1155.5,-141.751 1162.5,-141.751"/>
</g>
<!-- Node24 -->
<g id="node54" class="node"><title>Node24</title>
<a xlink:href="_simple_neuron_8cpp.html" target="_top" xlink:title="SimpleNeuron.cpp">
<polygon fill="white" stroke="black" points="973,-112.5 973,-131.5 1075,-131.5 1075,-112.5 973,-112.5"/>
<text text-anchor="middle" x="1024" y="-119.5" font-family="Helvetica,sans-Serif" font-size="10.00">SimpleNeuron.cpp</text>
</a>
</g>
<!-- Node1&#45;&gt;Node24 -->
<g id="edge60" class="edge"><title>Node1&#45;&gt;Node24</title>
<path fill="none" stroke="midnightblue" d="M1137.61,-168.444C1115.29,-159.517 1080.1,-145.439 1054.79,-135.317"/>
<polygon fill="midnightblue" stroke="midnightblue" points="1055.88,-131.981 1045.29,-131.516 1053.28,-138.48 1055.88,-131.981"/>
</g>
<!-- Node25 -->
<g id="node57" class="node"><title>Node25</title>
<a xlink:href="_m_l_pfactory_8cpp.html" target="_top" xlink:title="MLPfactory.cpp">
<polygon fill="white" stroke="black" points="1243.5,-112.5 1243.5,-131.5 1332.5,-131.5 1332.5,-112.5 1243.5,-112.5"/>
<text text-anchor="middle" x="1288" y="-119.5" font-family="Helvetica,sans-Serif" font-size="10.00">MLPfactory.cpp</text>
</a>
</g>
<!-- Node1&#45;&gt;Node25 -->
<g id="edge64" class="edge"><title>Node1&#45;&gt;Node25</title>
<path fill="none" stroke="midnightblue" d="M1179.44,-168.444C1200.67,-159.557 1234.1,-145.563 1258.25,-135.451"/>
<polygon fill="midnightblue" stroke="midnightblue" points="1259.78,-138.606 1267.66,-131.516 1257.08,-132.149 1259.78,-138.606"/>
</g>
<!-- Node26 -->
<g id="node61" class="node"><title>Node26</title>
<a xlink:href="_simple_neural_creator_8cpp.html" target="_top" xlink:title="SimpleNeuralCreator.cpp">
<polygon fill="white" stroke="black" points="1831.5,-112.5 1831.5,-131.5 1964.5,-131.5 1964.5,-112.5 1831.5,-112.5"/>
<text text-anchor="middle" x="1898" y="-119.5" font-family="Helvetica,sans-Serif" font-size="10.00">SimpleNeuralCreator.cpp</text>
</a>
</g>
<!-- Node1&#45;&gt;Node26 -->
<g id="edge70" class="edge"><title>Node1&#45;&gt;Node26</title>
<path fill="none" stroke="midnightblue" d="M1227.81,-173.468C1346.52,-167.125 1597.71,-152.605 1821.02,-132.044"/>
<polygon fill="midnightblue" stroke="midnightblue" points="1821.66,-135.499 1831.29,-131.091 1821.01,-128.529 1821.66,-135.499"/>
</g>
<!-- Node27 -->
<g id="node65" class="node"><title>Node27</title>
<a xlink:href="_container_8cpp.html" target="_top" xlink:title="Container.cpp">
<polygon fill="white" stroke="black" points="1427.5,-112.5 1427.5,-131.5 1508.5,-131.5 1508.5,-112.5 1427.5,-112.5"/>
<text text-anchor="middle" x="1468" y="-119.5" font-family="Helvetica,sans-Serif" font-size="10.00">Container.cpp</text>
</a>
</g>
<!-- Node1&#45;&gt;Node27 -->
<g id="edge76" class="edge"><title>Node1&#45;&gt;Node27</title>
<path fill="none" stroke="midnightblue" d="M1207.96,-168.444C1265.11,-158.456 1359.17,-142.019 1417.13,-131.89"/>
<polygon fill="midnightblue" stroke="midnightblue" points="1417.91,-135.306 1427.16,-130.137 1416.71,-128.411 1417.91,-135.306"/>
</g>
<!-- Node28 -->
<g id="node68" class="node"><title>Node28</title>
<a xlink:href="_iterator_8cpp.html" target="_top" xlink:title="Iterator.cpp">
<polygon fill="white" stroke="black" points="1976.5,-56.5 1976.5,-75.5 2047.5,-75.5 2047.5,-56.5 1976.5,-56.5"/>
<text text-anchor="middle" x="2012" y="-63.5" font-family="Helvetica,sans-Serif" font-size="10.00">Iterator.cpp</text>
</a>
</g>
<!-- Node1&#45;&gt;Node28 -->
<g id="edge80" class="edge"><title>Node1&#45;&gt;Node28</title>
<path fill="none" stroke="midnightblue" d="M1227.56,-177.58C1415.47,-178.576 1928.74,-177.095 1989,-132 2003.21,-121.37 2008.67,-101.26 2010.76,-86.2107"/>
<polygon fill="midnightblue" stroke="midnightblue" points="2014.27,-86.2275 2011.78,-75.9298 2007.31,-85.5337 2014.27,-86.2275"/>
</g>
<!-- Node29 -->
<g id="node71" class="node"><title>Node29</title>
<a xlink:href="_simple_container_8cpp.html" target="_top" xlink:title="SimpleContainer.cpp">
<polygon fill="white" stroke="black" points="1526.5,-112.5 1526.5,-131.5 1639.5,-131.5 1639.5,-112.5 1526.5,-112.5"/>
<text text-anchor="middle" x="1583" y="-119.5" font-family="Helvetica,sans-Serif" font-size="10.00">SimpleContainer.cpp</text>
</a>
</g>
<!-- Node1&#45;&gt;Node29 -->
<g id="edge84" class="edge"><title>Node1&#45;&gt;Node29</title>
<path fill="none" stroke="midnightblue" d="M1227.66,-168.587C1297.56,-159.971 1409.36,-146.058 1516.46,-132.058"/>
<polygon fill="midnightblue" stroke="midnightblue" points="1517.02,-135.516 1526.48,-130.747 1516.11,-128.575 1517.02,-135.516"/>
</g>
<!-- Node30 -->
<g id="node74" class="node"><title>Node30</title>
<a xlink:href="_simple_container_iterator_8cpp.html" target="_top" xlink:title="SimpleContainerIterator.cpp">
<polygon fill="white" stroke="black" points="2104.5,-112.5 2104.5,-131.5 2251.5,-131.5 2251.5,-112.5 2104.5,-112.5"/>
<text text-anchor="middle" x="2178" y="-119.5" font-family="Helvetica,sans-Serif" font-size="10.00">SimpleContainerIterator.cpp</text>
</a>
</g>
<!-- Node1&#45;&gt;Node30 -->
<g id="edge88" class="edge"><title>Node1&#45;&gt;Node30</title>
<path fill="none" stroke="midnightblue" d="M1227.7,-174.941C1382.02,-170.039 1767.88,-156.24 2090,-132 2091.29,-131.903 2092.59,-131.802 2093.91,-131.699"/>
<polygon fill="midnightblue" stroke="midnightblue" points="2094.41,-135.169 2104.08,-130.85 2093.83,-128.193 2094.41,-135.169"/>
</g>
<!-- Node14&#45;&gt;Node13 -->
<g id="edge28" class="edge"><title>Node14&#45;&gt;Node13</title>
<path fill="none" stroke="midnightblue" d="M995,-56.083C995,-49.0059 995,-38.8611 995,-29.9865"/>
<polygon fill="midnightblue" stroke="midnightblue" points="998.5,-29.751 995,-19.7511 991.5,-29.7511 998.5,-29.751"/>
</g>
<!-- Node16&#45;&gt;Node15 -->
<g id="edge34" class="edge"><title>Node16&#45;&gt;Node15</title>
<path fill="none" stroke="midnightblue" d="M1316.79,-56.324C1305.22,-48.1066 1287.62,-35.6017 1273.84,-25.8069"/>
<polygon fill="midnightblue" stroke="midnightblue" points="1275.61,-22.7729 1265.43,-19.8339 1271.56,-28.4791 1275.61,-22.7729"/>
</g>
<!-- Node18&#45;&gt;Node17 -->
<g id="edge40" class="edge"><title>Node18&#45;&gt;Node17</title>
<path fill="none" stroke="midnightblue" d="M1874.42,-56.324C1859,-47.7428 1835.19,-34.486 1817.29,-24.5224"/>
<polygon fill="midnightblue" stroke="midnightblue" points="1818.99,-21.4606 1808.55,-19.6545 1815.58,-27.5767 1818.99,-21.4606"/>
</g>
<!-- Node20&#45;&gt;Node19 -->
<g id="edge46" class="edge"><title>Node20&#45;&gt;Node19</title>
<path fill="none" stroke="midnightblue" d="M1734.4,-112.444C1713.01,-103.557 1679.32,-89.5632 1654.98,-79.4514"/>
<polygon fill="midnightblue" stroke="midnightblue" points="1656.08,-76.1203 1645.5,-75.5164 1653.39,-82.5848 1656.08,-76.1203"/>
</g>
<!-- Node22&#45;&gt;Node21 -->
<g id="edge52" class="edge"><title>Node22&#45;&gt;Node21</title>
<path fill="none" stroke="midnightblue" d="M2163.29,-56.324C2146.69,-47.7034 2121,-34.3643 2101.78,-24.3855"/>
<polygon fill="midnightblue" stroke="midnightblue" points="2103.16,-21.1565 2092.67,-19.6545 2099.93,-27.3689 2103.16,-21.1565"/>
</g>
<!-- Node23&#45;&gt;Node12 -->
<g id="edge56" class="edge"><title>Node23&#45;&gt;Node12</title>
<path fill="none" stroke="midnightblue" d="M1149.84,-112.324C1141.5,-104.42 1128.97,-92.5482 1118.82,-82.9377"/>
<polygon fill="midnightblue" stroke="midnightblue" points="1120.99,-80.1705 1111.32,-75.8339 1116.18,-85.2522 1120.99,-80.1705"/>
</g>
<!-- Node23&#45;&gt;Node13 -->
<g id="edge58" class="edge"><title>Node23&#45;&gt;Node13</title>
<path fill="none" stroke="midnightblue" d="M1158.94,-112.127C1158.35,-98.2543 1155.17,-71.4226 1140,-56 1114.32,-29.8873 1073.79,-18.8642 1042.1,-14.243"/>
<polygon fill="midnightblue" stroke="midnightblue" points="1042.52,-10.7681 1032.16,-12.9565 1041.63,-17.7103 1042.52,-10.7681"/>
</g>
<!-- Node24&#45;&gt;Node14 -->
<g id="edge62" class="edge"><title>Node24&#45;&gt;Node14</title>
<path fill="none" stroke="midnightblue" d="M1019.21,-112.083C1015.24,-104.691 1009.47,-93.9533 1004.57,-84.8111"/>
<polygon fill="midnightblue" stroke="midnightblue" points="1007.51,-82.9051 999.7,-75.7511 1001.35,-86.217 1007.51,-82.9051"/>
</g>
<!-- Node25&#45;&gt;Node15 -->
<g id="edge66" class="edge"><title>Node25&#45;&gt;Node15</title>
<path fill="none" stroke="midnightblue" d="M1284.79,-112.423C1281.44,-103.406 1276.14,-88.7798 1272,-76 1266.97,-60.4449 1261.79,-42.609 1258.12,-29.5603"/>
<polygon fill="midnightblue" stroke="midnightblue" points="1261.48,-28.5734 1255.42,-19.8804 1254.74,-30.453 1261.48,-28.5734"/>
</g>
<!-- Node25&#45;&gt;Node16 -->
<g id="edge68" class="edge"><title>Node25&#45;&gt;Node16</title>
<path fill="none" stroke="midnightblue" d="M1294.77,-112.083C1300.56,-104.455 1309.06,-93.2645 1316.14,-83.9408"/>
<polygon fill="midnightblue" stroke="midnightblue" points="1319.1,-85.8321 1322.36,-75.7511 1313.52,-81.5991 1319.1,-85.8321"/>
</g>
<!-- Node26&#45;&gt;Node17 -->
<g id="edge72" class="edge"><title>Node26&#45;&gt;Node17</title>
<path fill="none" stroke="midnightblue" d="M1869.83,-112.447C1851.24,-105.443 1827.69,-93.7538 1813,-76 1802.07,-62.7923 1797.11,-43.6588 1794.86,-29.5692"/>
<polygon fill="midnightblue" stroke="midnightblue" points="1798.32,-29.0331 1793.57,-19.5606 1791.37,-29.925 1798.32,-29.0331"/>
</g>
<!-- Node26&#45;&gt;Node18 -->
<g id="edge74" class="edge"><title>Node26&#45;&gt;Node18</title>
<path fill="none" stroke="midnightblue" d="M1896.68,-112.083C1895.62,-104.927 1894.09,-94.6353 1892.77,-85.6911"/>
<polygon fill="midnightblue" stroke="midnightblue" points="1896.22,-85.1302 1891.3,-75.7511 1889.3,-86.1561 1896.22,-85.1302"/>
</g>
<!-- Node27&#45;&gt;Node19 -->
<g id="edge78" class="edge"><title>Node27&#45;&gt;Node19</title>
<path fill="none" stroke="midnightblue" d="M1492.88,-112.444C1519.29,-103.359 1561.22,-88.9388 1590.74,-78.7831"/>
<polygon fill="midnightblue" stroke="midnightblue" points="1591.92,-82.0787 1600.24,-75.5164 1589.64,-75.4593 1591.92,-82.0787"/>
</g>
<!-- Node28&#45;&gt;Node21 -->
<g id="edge82" class="edge"><title>Node28&#45;&gt;Node21</title>
<path fill="none" stroke="midnightblue" d="M2022.28,-56.324C2031.84,-48.2631 2046.28,-36.0765 2057.78,-26.3695"/>
<polygon fill="midnightblue" stroke="midnightblue" points="2060.14,-28.9577 2065.53,-19.8339 2055.63,-23.6076 2060.14,-28.9577"/>
</g>
<!-- Node29&#45;&gt;Node19 -->
<g id="edge86" class="edge"><title>Node29&#45;&gt;Node19</title>
<path fill="none" stroke="midnightblue" d="M1589.94,-112.083C1595.93,-104.377 1604.75,-93.0333 1612.05,-83.6531"/>
<polygon fill="midnightblue" stroke="midnightblue" points="1614.82,-85.7934 1618.19,-75.7511 1609.29,-81.4958 1614.82,-85.7934"/>
</g>
<!-- Node30&#45;&gt;Node22 -->
<g id="edge90" class="edge"><title>Node30&#45;&gt;Node22</title>
<path fill="none" stroke="midnightblue" d="M2178.33,-112.083C2178.59,-105.006 2178.97,-94.8611 2179.3,-85.9865"/>
<polygon fill="midnightblue" stroke="midnightblue" points="2182.8,-85.8738 2179.68,-75.7511 2175.81,-85.6147 2182.8,-85.8738"/>
</g>
</g>
</svg>
