<?xml version="1.0" encoding="UTF-8" standalone="no"?>
<!DOCTYPE svg PUBLIC "-//W3C//DTD SVG 1.1//EN"
 "http://www.w3.org/Graphics/SVG/1.1/DTD/svg11.dtd">
<!-- Generated by graphviz version 2.28.0 (20110610.2051)
 -->
<!-- Title: G Pages: 1 -->
<svg width="1279pt" height="84pt"
 viewBox="0.00 0.00 1279.00 84.00" xmlns="http://www.w3.org/2000/svg" xmlns:xlink="http://www.w3.org/1999/xlink">
<g id="graph1" class="graph" transform="scale(1 1) rotate(0) translate(4 80)">
<title>G</title>
<polygon fill="white" stroke="white" points="-4,5 -4,-80 1276,-80 1276,5 -4,5"/>
<!-- Node1 -->
<g id="node1" class="node"><title>Node1</title>
<polygon fill="#bfbfbf" stroke="black" points="596.5,-56.5 596.5,-75.5 733.5,-75.5 733.5,-56.5 596.5,-56.5"/>
<text text-anchor="middle" x="665" y="-63.5" font-family="Helvetica,sans-Serif" font-size="10.00">pkg/AMORE/src/AMORE.h</text>
</g>
<!-- Node2 -->
<g id="node3" class="node"><title>Node2</title>
<polygon fill="white" stroke="#bfbfbf" points="0,-0.5 0,-19.5 56,-19.5 56,-0.5 0,-0.5"/>
<text text-anchor="middle" x="28" y="-7.5" font-family="Helvetica,sans-Serif" font-size="10.00">iostream</text>
</g>
<!-- Node1&#45;&gt;Node2 -->
<g id="edge2" class="edge"><title>Node1&#45;&gt;Node2</title>
<path fill="none" stroke="midnightblue" d="M596.192,-63.4967C486.077,-60.2868 263.43,-50.4974 66.1543,-19.9258"/>
<polygon fill="midnightblue" stroke="midnightblue" points="66.6076,-16.4542 56.1855,-18.3596 65.5211,-23.3693 66.6076,-16.4542"/>
</g>
<!-- Node3 -->
<g id="node5" class="node"><title>Node3</title>
<polygon fill="white" stroke="#bfbfbf" points="74.5,-0.5 74.5,-19.5 127.5,-19.5 127.5,-0.5 74.5,-0.5"/>
<text text-anchor="middle" x="101" y="-7.5" font-family="Helvetica,sans-Serif" font-size="10.00">sstream</text>
</g>
<!-- Node1&#45;&gt;Node3 -->
<g id="edge4" class="edge"><title>Node1&#45;&gt;Node3</title>
<path fill="none" stroke="midnightblue" d="M596.482,-62.8205C497.167,-58.8552 307.39,-48.2507 137.766,-20.049"/>
<polygon fill="midnightblue" stroke="midnightblue" points="138.097,-16.5554 127.654,-18.3426 136.932,-23.4578 138.097,-16.5554"/>
</g>
<!-- Node4 -->
<g id="node7" class="node"><title>Node4</title>
<polygon fill="white" stroke="#bfbfbf" points="145.5,-0.5 145.5,-19.5 204.5,-19.5 204.5,-0.5 145.5,-0.5"/>
<text text-anchor="middle" x="175" y="-7.5" font-family="Helvetica,sans-Serif" font-size="10.00">algorithm</text>
</g>
<!-- Node1&#45;&gt;Node4 -->
<g id="edge6" class="edge"><title>Node1&#45;&gt;Node4</title>
<path fill="none" stroke="midnightblue" d="M596.26,-60.8739C509.601,-55.0624 355.931,-42.735 214.867,-19.9322"/>
<polygon fill="midnightblue" stroke="midnightblue" points="215.167,-16.4348 204.733,-18.2722 214.036,-23.3428 215.167,-16.4348"/>
</g>
<!-- Node5 -->
<g id="node9" class="node"><title>Node5</title>
<polygon fill="white" stroke="#bfbfbf" points="223,-0.5 223,-19.5 269,-19.5 269,-0.5 223,-0.5"/>
<text text-anchor="middle" x="246" y="-7.5" font-family="Helvetica,sans-Serif" font-size="10.00">vector</text>
</g>
<!-- Node1&#45;&gt;Node5 -->
<g id="edge8" class="edge"><title>Node1&#45;&gt;Node5</title>
<path fill="none" stroke="midnightblue" d="M596.332,-60.3182C520.769,-54.4253 395.656,-42.4864 279.452,-20.0104"/>
<polygon fill="midnightblue" stroke="midnightblue" points="279.803,-16.5125 269.316,-18.0182 278.453,-23.3811 279.803,-16.5125"/>
</g>
<!-- Node6 -->
<g id="node11" class="node"><title>Node6</title>
<polygon fill="white" stroke="#bfbfbf" points="287,-0.5 287,-19.5 337,-19.5 337,-0.5 287,-0.5"/>
<text text-anchor="middle" x="312" y="-7.5" font-family="Helvetica,sans-Serif" font-size="10.00">iterator</text>
</g>
<!-- Node1&#45;&gt;Node6 -->
<g id="edge10" class="edge"><title>Node1&#45;&gt;Node6</title>
<path fill="none" stroke="midnightblue" d="M596.461,-57.7145C533.871,-50.5197 438.642,-38.2185 347.157,-20.0309"/>
<polygon fill="midnightblue" stroke="midnightblue" points="347.667,-16.5636 337.173,-18.0193 346.284,-23.4256 347.667,-16.5636"/>
</g>
<!-- Node7 -->
<g id="node13" class="node"><title>Node7</title>
<polygon fill="white" stroke="#bfbfbf" points="355.5,-0.5 355.5,-19.5 470.5,-19.5 470.5,-0.5 355.5,-0.5"/>
<text text-anchor="middle" x="413" y="-7.5" font-family="Helvetica,sans-Serif" font-size="10.00">boost/shared_ptr.hpp</text>
</g>
<!-- Node1&#45;&gt;Node7 -->
<g id="edge12" class="edge"><title>Node1&#45;&gt;Node7</title>
<path fill="none" stroke="midnightblue" d="M625.07,-56.4435C581.109,-47.0234 510.373,-31.8656 462.817,-21.6752"/>
<polygon fill="midnightblue" stroke="midnightblue" points="463.255,-18.1895 452.743,-19.5164 461.788,-25.0341 463.255,-18.1895"/>
</g>
<!-- Node8 -->
<g id="node15" class="node"><title>Node8</title>
<polygon fill="white" stroke="#bfbfbf" points="489,-0.5 489,-19.5 597,-19.5 597,-0.5 489,-0.5"/>
<text text-anchor="middle" x="543" y="-7.5" font-family="Helvetica,sans-Serif" font-size="10.00">boost/weak_ptr.hpp</text>
</g>
<!-- Node1&#45;&gt;Node8 -->
<g id="edge14" class="edge"><title>Node1&#45;&gt;Node8</title>
<path fill="none" stroke="midnightblue" d="M645.669,-56.4435C625.68,-47.5961 594.257,-33.6875 571.436,-23.5865"/>
<polygon fill="midnightblue" stroke="midnightblue" points="572.802,-20.3635 562.241,-19.5164 569.968,-26.7645 572.802,-20.3635"/>
</g>
<!-- Node9 -->
<g id="node17" class="node"><title>Node9</title>
<polygon fill="white" stroke="#bfbfbf" points="615,-0.5 615,-19.5 715,-19.5 715,-0.5 615,-0.5"/>
<text text-anchor="middle" x="665" y="-7.5" font-family="Helvetica,sans-Serif" font-size="10.00">boost/foreach.hpp</text>
</g>
<!-- Node1&#45;&gt;Node9 -->
<g id="edge16" class="edge"><title>Node1&#45;&gt;Node9</title>
<path fill="none" stroke="midnightblue" d="M665,-56.083C665,-49.0059 665,-38.8611 665,-29.9865"/>
<polygon fill="midnightblue" stroke="midnightblue" points="668.5,-29.751 665,-19.7511 661.5,-29.7511 668.5,-29.751"/>
</g>
<!-- Node10 -->
<g id="node19" class="node"><title>Node10</title>
<polygon fill="white" stroke="#bfbfbf" points="733,-0.5 733,-19.5 783,-19.5 783,-0.5 733,-0.5"/>
<text text-anchor="middle" x="758" y="-7.5" font-family="Helvetica,sans-Serif" font-size="10.00">Rcpp.h</text>
</g>
<!-- Node1&#45;&gt;Node10 -->
<g id="edge18" class="edge"><title>Node1&#45;&gt;Node10</title>
<path fill="none" stroke="midnightblue" d="M679.942,-56.324C694.585,-47.8215 717.134,-34.7288 734.238,-24.7975"/>
<polygon fill="midnightblue" stroke="midnightblue" points="736.205,-27.7027 743.095,-19.6545 732.69,-21.6491 736.205,-27.7027"/>
</g>
<!-- Node11 -->
<g id="node21" class="node"><title>Node11</title>
<polygon fill="white" stroke="#bfbfbf" points="801,-0.5 801,-19.5 845,-19.5 845,-0.5 801,-0.5"/>
<text text-anchor="middle" x="823" y="-7.5" font-family="Helvetica,sans-Serif" font-size="10.00">Con.h</text>
</g>
<!-- Node1&#45;&gt;Node11 -->
<g id="edge20" class="edge"><title>Node1&#45;&gt;Node11</title>
<path fill="none" stroke="midnightblue" d="M690.036,-56.4435C717.476,-47.0652 761.555,-32.0001 791.367,-21.8112"/>
<polygon fill="midnightblue" stroke="midnightblue" points="792.555,-25.104 800.886,-18.558 790.291,-18.4802 792.555,-25.104"/>
</g>
<!-- Node12 -->
<g id="node23" class="node"><title>Node12</title>
<polygon fill="white" stroke="#bfbfbf" points="863.5,-0.5 863.5,-19.5 932.5,-19.5 932.5,-0.5 863.5,-0.5"/>
<text text-anchor="middle" x="898" y="-7.5" font-family="Helvetica,sans-Serif" font-size="10.00">Container.h</text>
</g>
<!-- Node1&#45;&gt;Node12 -->
<g id="edge22" class="edge"><title>Node1&#45;&gt;Node12</title>
<path fill="none" stroke="midnightblue" d="M701.92,-56.4435C742.991,-46.9249 809.339,-31.5481 853.31,-21.3573"/>
<polygon fill="midnightblue" stroke="midnightblue" points="854.204,-24.7429 863.156,-19.0755 852.624,-17.9237 854.204,-24.7429"/>
</g>
<!-- Node13 -->
<g id="node25" class="node"><title>Node13</title>
<polygon fill="white" stroke="#bfbfbf" points="951,-0.5 951,-19.5 1009,-19.5 1009,-0.5 951,-0.5"/>
<text text-anchor="middle" x="980" y="-7.5" font-family="Helvetica,sans-Serif" font-size="10.00">Neuron.h</text>
</g>
<!-- Node1&#45;&gt;Node13 -->
<g id="edge24" class="edge"><title>Node1&#45;&gt;Node13</title>
<path fill="none" stroke="midnightblue" d="M724.154,-56.496C777.989,-48.4979 859.865,-35.6893 940.794,-19.9244"/>
<polygon fill="midnightblue" stroke="midnightblue" points="941.519,-23.349 950.657,-17.9873 940.169,-16.4802 941.519,-23.349"/>
</g>
<!-- Node14 -->
<g id="node27" class="node"><title>Node14</title>
<polygon fill="white" stroke="#bfbfbf" points="1027,-0.5 1027,-19.5 1083,-19.5 1083,-0.5 1027,-0.5"/>
<text text-anchor="middle" x="1055" y="-7.5" font-family="Helvetica,sans-Serif" font-size="10.00">Con.cpp</text>
</g>
<!-- Node1&#45;&gt;Node14 -->
<g id="edge26" class="edge"><title>Node1&#45;&gt;Node14</title>
<path fill="none" stroke="midnightblue" d="M733.683,-58.542C802.844,-51.5194 912.752,-38.945 1016.74,-20.0544"/>
<polygon fill="midnightblue" stroke="midnightblue" points="1017.59,-23.4582 1026.79,-18.2065 1016.32,-16.5738 1017.59,-23.4582"/>
</g>
<!-- Node15 -->
<g id="node29" class="node"><title>Node15</title>
<polygon fill="white" stroke="#bfbfbf" points="1101.5,-0.5 1101.5,-19.5 1182.5,-19.5 1182.5,-0.5 1101.5,-0.5"/>
<text text-anchor="middle" x="1142" y="-7.5" font-family="Helvetica,sans-Serif" font-size="10.00">Container.cpp</text>
</g>
<!-- Node1&#45;&gt;Node15 -->
<g id="edge28" class="edge"><title>Node1&#45;&gt;Node15</title>
<path fill="none" stroke="midnightblue" d="M733.598,-59.3265C816.05,-52.1579 958.809,-38.6368 1091.44,-19.9781"/>
<polygon fill="midnightblue" stroke="midnightblue" points="1091.97,-23.4382 1101.38,-18.5676 1090.99,-16.5077 1091.97,-23.4382"/>
</g>
<!-- Node16 -->
<g id="node31" class="node"><title>Node16</title>
<polygon fill="white" stroke="#bfbfbf" points="1201,-0.5 1201,-19.5 1271,-19.5 1271,-0.5 1201,-0.5"/>
<text text-anchor="middle" x="1236" y="-7.5" font-family="Helvetica,sans-Serif" font-size="10.00">Neuron.cpp</text>
</g>
<!-- Node1&#45;&gt;Node16 -->
<g id="edge30" class="edge"><title>Node1&#45;&gt;Node16</title>
<path fill="none" stroke="midnightblue" d="M733.786,-61.5795C832.547,-56.1221 1020.38,-43.7099 1190.54,-19.8877"/>
<polygon fill="midnightblue" stroke="midnightblue" points="1191.28,-23.3184 1200.69,-18.4505 1190.3,-16.3875 1191.28,-23.3184"/>
</g>
</g>
</svg>
