<?xml version="1.0" encoding="UTF-8" standalone="no"?>
<!DOCTYPE svg PUBLIC "-//W3C//DTD SVG 1.1//EN"
 "http://www.w3.org/Graphics/SVG/1.1/DTD/svg11.dtd">
<!-- Generated by graphviz version 2.25.20091207.0545 (20091207.0545)
 -->
<!-- Title: G Pages: 1 -->
<svg width="1004pt" height="140pt"
 viewBox="0.00 0.00 1004.00 140.00" xmlns="http://www.w3.org/2000/svg" xmlns:xlink="http://www.w3.org/1999/xlink">
<g id="graph1" class="graph" transform="scale(1 1) rotate(0) translate(4 136)">
<title>G</title>
<polygon fill="white" stroke="white" points="-4,5 -4,-136 1001,-136 1001,5 -4,5"/>
<!-- Node1 -->
<g id="node1" class="node"><title>Node1</title>
<polygon fill="#bfbfbf" stroke="black" points="476,-112.5 476,-131.5 612,-131.5 612,-112.5 476,-112.5"/>
<text text-anchor="middle" x="544" y="-118.5" font-family="Helvetica,sans-Serif" font-size="10.00">pkg/AMORE/src/AMORE.h</text>
</g>
<!-- Node2 -->
<g id="node3" class="node"><title>Node2</title>
<polygon fill="white" stroke="#bfbfbf" points="0,-56.5 0,-75.5 54,-75.5 54,-56.5 0,-56.5"/>
<text text-anchor="middle" x="27" y="-62.5" font-family="Helvetica,sans-Serif" font-size="10.00">iostream</text>
</g>
<!-- Node1&#45;&gt;Node2 -->
<g id="edge2" class="edge"><title>Node1&#45;&gt;Node2</title>
<path fill="none" stroke="midnightblue" d="M475.77,-119.248C384.077,-114.714 216.003,-103.463 63.996,-75.8902"/>
<polygon fill="midnightblue" stroke="midnightblue" points="64.4764,-72.4199 54.0078,-74.0504 63.2082,-79.3041 64.4764,-72.4199"/>
</g>
<!-- Node3 -->
<g id="node5" class="node"><title>Node3</title>
<polygon fill="white" stroke="#bfbfbf" points="71.5,-56.5 71.5,-75.5 122.5,-75.5 122.5,-56.5 71.5,-56.5"/>
<text text-anchor="middle" x="97" y="-62.5" font-family="Helvetica,sans-Serif" font-size="10.00">sstream</text>
</g>
<!-- Node1&#45;&gt;Node3 -->
<g id="edge4" class="edge"><title>Node1&#45;&gt;Node3</title>
<path fill="none" stroke="midnightblue" d="M475.834,-118.077C395.661,-112.645 258.53,-100.795 133.04,-76.1478"/>
<polygon fill="midnightblue" stroke="midnightblue" points="133.363,-72.6433 122.872,-74.117 131.993,-79.5078 133.363,-72.6433"/>
</g>
<!-- Node4 -->
<g id="node7" class="node"><title>Node4</title>
<polygon fill="white" stroke="#bfbfbf" points="140,-56.5 140,-75.5 196,-75.5 196,-56.5 140,-56.5"/>
<text text-anchor="middle" x="168" y="-62.5" font-family="Helvetica,sans-Serif" font-size="10.00">algorithm</text>
</g>
<!-- Node1&#45;&gt;Node4 -->
<g id="edge6" class="edge"><title>Node1&#45;&gt;Node4</title>
<path fill="none" stroke="midnightblue" d="M475.712,-115.353C409.157,-108.282 304.981,-95.6436 206.056,-76.0071"/>
<polygon fill="midnightblue" stroke="midnightblue" points="206.686,-72.5639 196.192,-74.0221 205.305,-79.4263 206.686,-72.5639"/>
</g>
<!-- Node5 -->
<g id="node9" class="node"><title>Node5</title>
<polygon fill="white" stroke="#bfbfbf" points="213.5,-56.5 213.5,-75.5 256.5,-75.5 256.5,-56.5 213.5,-56.5"/>
<text text-anchor="middle" x="235" y="-62.5" font-family="Helvetica,sans-Serif" font-size="10.00">vector</text>
</g>
<!-- Node1&#45;&gt;Node5 -->
<g id="edge8" class="edge"><title>Node1&#45;&gt;Node5</title>
<path fill="none" stroke="midnightblue" d="M475.735,-113.818C421.202,-106.58 342.758,-94.6033 266.307,-76.0414"/>
<polygon fill="midnightblue" stroke="midnightblue" points="267.058,-72.6218 256.51,-73.6235 265.38,-79.4178 267.058,-72.6218"/>
</g>
<!-- Node6 -->
<g id="node11" class="node"><title>Node6</title>
<polygon fill="white" stroke="#bfbfbf" points="274,-56.5 274,-75.5 382,-75.5 382,-56.5 274,-56.5"/>
<text text-anchor="middle" x="328" y="-62.5" font-family="Helvetica,sans-Serif" font-size="10.00">boost/shared_ptr.hpp</text>
</g>
<!-- Node1&#45;&gt;Node6 -->
<g id="edge10" class="edge"><title>Node1&#45;&gt;Node6</title>
<path fill="none" stroke="midnightblue" d="M506.868,-112.373C470.173,-102.86 413.936,-88.2797 374.335,-78.0127"/>
<polygon fill="midnightblue" stroke="midnightblue" points="375.206,-74.6228 364.647,-75.5011 373.449,-81.3988 375.206,-74.6228"/>
</g>
<!-- Node7 -->
<g id="node13" class="node"><title>Node7</title>
<polygon fill="white" stroke="#bfbfbf" points="400,-56.5 400,-75.5 502,-75.5 502,-56.5 400,-56.5"/>
<text text-anchor="middle" x="451" y="-62.5" font-family="Helvetica,sans-Serif" font-size="10.00">boost/weak_ptr.hpp</text>
</g>
<!-- Node1&#45;&gt;Node7 -->
<g id="edge12" class="edge"><title>Node1&#45;&gt;Node7</title>
<path fill="none" stroke="midnightblue" d="M527.801,-112.246C513.398,-103.573 492.127,-90.7645 475.62,-80.825"/>
<polygon fill="midnightblue" stroke="midnightblue" points="477.386,-77.8028 467.014,-75.6427 473.775,-83.7996 477.386,-77.8028"/>
</g>
<!-- Node8 -->
<g id="node15" class="node"><title>Node8</title>
<polygon fill="white" stroke="#bfbfbf" points="520,-56.5 520,-75.5 568,-75.5 568,-56.5 520,-56.5"/>
<text text-anchor="middle" x="544" y="-62.5" font-family="Helvetica,sans-Serif" font-size="10.00">Rcpp.h</text>
</g>
<!-- Node1&#45;&gt;Node8 -->
<g id="edge14" class="edge"><title>Node1&#45;&gt;Node8</title>
<path fill="none" stroke="midnightblue" d="M544,-112.246C544,-104.938 544,-94.6944 544,-85.7046"/>
<polygon fill="midnightblue" stroke="midnightblue" points="547.5,-85.6426 544,-75.6427 540.5,-85.6427 547.5,-85.6426"/>
</g>
<!-- Node9 -->
<g id="node17" class="node"><title>Node9</title>
<a xlink:href="_con_8h.html" target="_top" xlink:title="Con.h">
<polygon fill="white" stroke="black" points="642,-0.5 642,-19.5 684,-19.5 684,-0.5 642,-0.5"/>
<text text-anchor="middle" x="663" y="-6.5" font-family="Helvetica,sans-Serif" font-size="10.00">Con.h</text>
</a>
</g>
<!-- Node1&#45;&gt;Node9 -->
<g id="edge16" class="edge"><title>Node1&#45;&gt;Node9</title>
<path fill="none" stroke="midnightblue" d="M554.146,-112.451C574.433,-93.3574 620.213,-50.2697 645.462,-26.5063"/>
<polygon fill="midnightblue" stroke="midnightblue" points="647.997,-28.9273 652.88,-19.5249 643.199,-23.8299 647.997,-28.9273"/>
</g>
<!-- Node10 -->
<g id="node19" class="node"><title>Node10</title>
<a xlink:href="vec_a_m_o_r_e_8h.html" target="_top" xlink:title="vecAMORE.h">
<polygon fill="white" stroke="black" points="623.5,-56.5 623.5,-75.5 700.5,-75.5 700.5,-56.5 623.5,-56.5"/>
<text text-anchor="middle" x="662" y="-62.5" font-family="Helvetica,sans-Serif" font-size="10.00">vecAMORE.h</text>
</a>
</g>
<!-- Node1&#45;&gt;Node10 -->
<g id="edge18" class="edge"><title>Node1&#45;&gt;Node10</title>
<path fill="none" stroke="midnightblue" d="M564.285,-112.373C583.142,-103.424 611.446,-89.9917 632.745,-79.8835"/>
<polygon fill="midnightblue" stroke="midnightblue" points="634.446,-82.9506 641.98,-75.5011 631.445,-76.6266 634.446,-82.9506"/>
</g>
<!-- Node11 -->
<g id="node21" class="node"><title>Node11</title>
<a xlink:href="_neuron_8h.html" target="_top" xlink:title="Neuron.h">
<polygon fill="white" stroke="black" points="852,-0.5 852,-19.5 908,-19.5 908,-0.5 852,-0.5"/>
<text text-anchor="middle" x="880" y="-6.5" font-family="Helvetica,sans-Serif" font-size="10.00">Neuron.h</text>
</a>
</g>
<!-- Node1&#45;&gt;Node11 -->
<g id="edge20" class="edge"><title>Node1&#45;&gt;Node11</title>
<path fill="none" stroke="midnightblue" d="M612.071,-115.691C660.087,-109.576 725.178,-97.876 779,-76 795.332,-69.3619 833.854,-42.9183 858.323,-25.5847"/>
<polygon fill="midnightblue" stroke="midnightblue" points="860.52,-28.3167 866.635,-19.6644 856.459,-22.6151 860.52,-28.3167"/>
</g>
<!-- Node12 -->
<g id="node23" class="node"><title>Node12</title>
<a xlink:href="_con_8cpp.html" target="_top" xlink:title="Con.cpp">
<polygon fill="white" stroke="black" points="717.5,-56.5 717.5,-75.5 770.5,-75.5 770.5,-56.5 717.5,-56.5"/>
<text text-anchor="middle" x="744" y="-62.5" font-family="Helvetica,sans-Serif" font-size="10.00">Con.cpp</text>
</a>
</g>
<!-- Node1&#45;&gt;Node12 -->
<g id="edge22" class="edge"><title>Node1&#45;&gt;Node12</title>
<path fill="none" stroke="midnightblue" d="M578.464,-112.461C609.836,-103.763 657.687,-90.457 707.583,-76.3897"/>
<polygon fill="midnightblue" stroke="midnightblue" points="708.578,-79.7456 717.252,-73.6614 706.677,-73.0087 708.578,-79.7456"/>
</g>
<!-- Node13 -->
<g id="node26" class="node"><title>Node13</title>
<a xlink:href="vec_a_m_o_r_e_8cpp.html" target="_top" xlink:title="vecAMORE.cpp">
<polygon fill="white" stroke="black" points="825.5,-56.5 825.5,-75.5 912.5,-75.5 912.5,-56.5 825.5,-56.5"/>
<text text-anchor="middle" x="869" y="-62.5" font-family="Helvetica,sans-Serif" font-size="10.00">vecAMORE.cpp</text>
</a>
</g>
<!-- Node1&#45;&gt;Node13 -->
<g id="edge26" class="edge"><title>Node1&#45;&gt;Node13</title>
<path fill="none" stroke="midnightblue" d="M599.96,-112.457C654.184,-103.195 738.742,-88.7132 812,-76 813.089,-75.811 814.189,-75.6198 815.299,-75.427"/>
<polygon fill="midnightblue" stroke="midnightblue" points="816.183,-78.8256 825.434,-73.6602 814.981,-71.9296 816.183,-78.8256"/>
</g>
<!-- Node14 -->
<g id="node28" class="node"><title>Node14</title>
<a xlink:href="_neuron_8cpp.html" target="_top" xlink:title="Neuron.cpp">
<polygon fill="white" stroke="black" points="930,-56.5 930,-75.5 996,-75.5 996,-56.5 930,-56.5"/>
<text text-anchor="middle" x="963" y="-62.5" font-family="Helvetica,sans-Serif" font-size="10.00">Neuron.cpp</text>
</a>
</g>
<!-- Node1&#45;&gt;Node14 -->
<g id="edge28" class="edge"><title>Node1&#45;&gt;Node14</title>
<path fill="none" stroke="midnightblue" d="M612.107,-116.013C685.729,-109.017 806.663,-96.0109 919.735,-76.071"/>
<polygon fill="midnightblue" stroke="midnightblue" points="920.371,-79.5129 929.6,-74.3098 919.141,-72.6218 920.371,-79.5129"/>
</g>
<!-- Node12&#45;&gt;Node9 -->
<g id="edge24" class="edge"><title>Node12&#45;&gt;Node9</title>
<path fill="none" stroke="midnightblue" d="M729.891,-56.2455C717.579,-47.7337 699.504,-35.2375 685.246,-25.3801"/>
<polygon fill="midnightblue" stroke="midnightblue" points="687.163,-22.4506 676.947,-19.6427 683.183,-28.2085 687.163,-22.4506"/>
</g>
<!-- Node14&#45;&gt;Node11 -->
<g id="edge30" class="edge"><title>Node14&#45;&gt;Node11</title>
<path fill="none" stroke="midnightblue" d="M948.543,-56.2455C935.927,-47.7337 917.406,-35.2375 902.795,-25.3801"/>
<polygon fill="midnightblue" stroke="midnightblue" points="904.539,-22.3343 894.292,-19.6427 900.624,-28.1371 904.539,-22.3343"/>
</g>
</g>
</svg>
