<?xml version="1.0" encoding="UTF-8" standalone="no"?>
<!DOCTYPE svg PUBLIC "-//W3C//DTD SVG 1.1//EN"
 "http://www.w3.org/Graphics/SVG/1.1/DTD/svg11.dtd">
<!-- Generated by graphviz version 2.25.20091207.0545 (20091207.0545)
 -->
<!-- Title: G Pages: 1 -->
<svg width="1046pt" height="140pt"
 viewBox="0.00 0.00 1046.00 140.00" xmlns="http://www.w3.org/2000/svg" xmlns:xlink="http://www.w3.org/1999/xlink">
<g id="graph1" class="graph" transform="scale(1 1) rotate(0) translate(4 136)">
<title>G</title>
<polygon fill="white" stroke="white" points="-4,5 -4,-136 1043,-136 1043,5 -4,5"/>
<!-- Node1 -->
<g id="node1" class="node"><title>Node1</title>
<polygon fill="#bfbfbf" stroke="black" points="441,-112.5 441,-131.5 577,-131.5 577,-112.5 441,-112.5"/>
<text text-anchor="middle" x="509" y="-118.5" font-family="Helvetica,sans-Serif" font-size="10.00">pkg/AMORE/src/AMORE.h</text>
</g>
<!-- Node2 -->
<g id="node3" class="node"><title>Node2</title>
<polygon fill="white" stroke="#bfbfbf" points="0,-56.5 0,-75.5 54,-75.5 54,-56.5 0,-56.5"/>
<text text-anchor="middle" x="27" y="-62.5" font-family="Helvetica,sans-Serif" font-size="10.00">iostream</text>
</g>
<!-- Node1&#45;&gt;Node2 -->
<g id="edge2" class="edge"><title>Node1&#45;&gt;Node2</title>
<path fill="none" stroke="midnightblue" d="M440.862,-118.541C354.996,-113.389 202.853,-101.622 63.9863,-75.9043"/>
<polygon fill="midnightblue" stroke="midnightblue" points="64.4865,-72.4371 54.0119,-74.0284 63.1927,-79.3165 64.4865,-72.4371"/>
</g>
<!-- Node3 -->
<g id="node5" class="node"><title>Node3</title>
<polygon fill="white" stroke="#bfbfbf" points="71.5,-56.5 71.5,-75.5 122.5,-75.5 122.5,-56.5 71.5,-56.5"/>
<text text-anchor="middle" x="97" y="-62.5" font-family="Helvetica,sans-Serif" font-size="10.00">sstream</text>
</g>
<!-- Node1&#45;&gt;Node3 -->
<g id="edge4" class="edge"><title>Node1&#45;&gt;Node3</title>
<path fill="none" stroke="midnightblue" d="M440.854,-117.111C366.897,-111.042 245.281,-98.8364 132.356,-76.0149"/>
<polygon fill="midnightblue" stroke="midnightblue" points="133.005,-72.5753 122.506,-73.9923 131.597,-79.4322 133.005,-72.5753"/>
</g>
<!-- Node4 -->
<g id="node7" class="node"><title>Node4</title>
<polygon fill="white" stroke="#bfbfbf" points="140,-56.5 140,-75.5 196,-75.5 196,-56.5 140,-56.5"/>
<text text-anchor="middle" x="168" y="-62.5" font-family="Helvetica,sans-Serif" font-size="10.00">algorithm</text>
</g>
<!-- Node1&#45;&gt;Node4 -->
<g id="edge6" class="edge"><title>Node1&#45;&gt;Node4</title>
<path fill="none" stroke="midnightblue" d="M440.989,-113.96C381.413,-106.405 292.355,-93.8737 206.154,-76.0601"/>
<polygon fill="midnightblue" stroke="midnightblue" points="206.707,-72.6 196.202,-73.9769 205.273,-79.4515 206.707,-72.6"/>
</g>
<!-- Node5 -->
<g id="node9" class="node"><title>Node5</title>
<polygon fill="white" stroke="#bfbfbf" points="213.5,-56.5 213.5,-75.5 256.5,-75.5 256.5,-56.5 213.5,-56.5"/>
<text text-anchor="middle" x="235" y="-62.5" font-family="Helvetica,sans-Serif" font-size="10.00">vector</text>
</g>
<!-- Node1&#45;&gt;Node5 -->
<g id="edge8" class="edge"><title>Node1&#45;&gt;Node5</title>
<path fill="none" stroke="midnightblue" d="M445.796,-112.498C398.552,-104.844 332.273,-92.9439 266.261,-76.0863"/>
<polygon fill="midnightblue" stroke="midnightblue" points="267.084,-72.684 256.525,-73.563 265.327,-79.4601 267.084,-72.684"/>
</g>
<!-- Node6 -->
<g id="node11" class="node"><title>Node6</title>
<polygon fill="white" stroke="#bfbfbf" points="274,-56.5 274,-75.5 382,-75.5 382,-56.5 274,-56.5"/>
<text text-anchor="middle" x="328" y="-62.5" font-family="Helvetica,sans-Serif" font-size="10.00">boost/shared_ptr.hpp</text>
</g>
<!-- Node1&#45;&gt;Node6 -->
<g id="edge10" class="edge"><title>Node1&#45;&gt;Node6</title>
<path fill="none" stroke="midnightblue" d="M477.885,-112.373C447.657,-103.021 401.604,-88.7725 368.526,-78.5385"/>
<polygon fill="midnightblue" stroke="midnightblue" points="369.297,-75.1133 358.709,-75.5011 367.228,-81.8005 369.297,-75.1133"/>
</g>
<!-- Node7 -->
<g id="node13" class="node"><title>Node7</title>
<polygon fill="white" stroke="#bfbfbf" points="400,-56.5 400,-75.5 448,-75.5 448,-56.5 400,-56.5"/>
<text text-anchor="middle" x="424" y="-62.5" font-family="Helvetica,sans-Serif" font-size="10.00">Rcpp.h</text>
</g>
<!-- Node1&#45;&gt;Node7 -->
<g id="edge12" class="edge"><title>Node1&#45;&gt;Node7</title>
<path fill="none" stroke="midnightblue" d="M494.194,-112.246C481.274,-103.734 462.307,-91.2375 447.345,-81.3801"/>
<polygon fill="midnightblue" stroke="midnightblue" points="448.912,-78.2216 438.636,-75.6427 445.061,-84.067 448.912,-78.2216"/>
</g>
<!-- Node8 -->
<g id="node15" class="node"><title>Node8</title>
<a xlink:href="_con_8h.html" target="_top" xlink:title="Con.h">
<polygon fill="white" stroke="black" points="560,-0.5 560,-19.5 602,-19.5 602,-0.5 560,-0.5"/>
<text text-anchor="middle" x="581" y="-6.5" font-family="Helvetica,sans-Serif" font-size="10.00">Con.h</text>
</a>
</g>
<!-- Node1&#45;&gt;Node8 -->
<g id="edge14" class="edge"><title>Node1&#45;&gt;Node8</title>
<path fill="none" stroke="midnightblue" d="M502.908,-112.333C495.238,-98.8069 484.284,-73.8849 495,-56 506.858,-36.2104 530.454,-24.4557 549.935,-17.7888"/>
<polygon fill="midnightblue" stroke="midnightblue" points="551.161,-21.0726 559.663,-14.7507 549.075,-14.3909 551.161,-21.0726"/>
</g>
<!-- Node9 -->
<g id="node17" class="node"><title>Node9</title>
<a xlink:href="vec_a_m_o_r_e_8h.html" target="_top" xlink:title="vecAMORE.h">
<polygon fill="white" stroke="black" points="503.5,-56.5 503.5,-75.5 580.5,-75.5 580.5,-56.5 503.5,-56.5"/>
<text text-anchor="middle" x="542" y="-62.5" font-family="Helvetica,sans-Serif" font-size="10.00">vecAMORE.h</text>
</a>
</g>
<!-- Node1&#45;&gt;Node9 -->
<g id="edge16" class="edge"><title>Node1&#45;&gt;Node9</title>
<path fill="none" stroke="midnightblue" d="M514.748,-112.246C519.244,-104.617 525.625,-93.7881 531.082,-84.5267"/>
<polygon fill="midnightblue" stroke="midnightblue" points="534.256,-86.035 536.318,-75.6427 528.225,-82.4811 534.256,-86.035"/>
</g>
<!-- Node10 -->
<g id="node19" class="node"><title>Node10</title>
<a xlink:href="vec_con_8h.html" target="_top" xlink:title="vecCon.h">
<polygon fill="white" stroke="black" points="598,-56.5 598,-75.5 656,-75.5 656,-56.5 598,-56.5"/>
<text text-anchor="middle" x="627" y="-62.5" font-family="Helvetica,sans-Serif" font-size="10.00">vecCon.h</text>
</a>
</g>
<!-- Node1&#45;&gt;Node10 -->
<g id="edge18" class="edge"><title>Node1&#45;&gt;Node10</title>
<path fill="none" stroke="midnightblue" d="M529.285,-112.373C548.142,-103.424 576.446,-89.9917 597.745,-79.8835"/>
<polygon fill="midnightblue" stroke="midnightblue" points="599.446,-82.9506 606.98,-75.5011 596.445,-76.6266 599.446,-82.9506"/>
</g>
<!-- Node11 -->
<g id="node21" class="node"><title>Node11</title>
<a xlink:href="_neuron_8h.html" target="_top" xlink:title="Neuron.h">
<polygon fill="white" stroke="black" points="851,-0.5 851,-19.5 907,-19.5 907,-0.5 851,-0.5"/>
<text text-anchor="middle" x="879" y="-6.5" font-family="Helvetica,sans-Serif" font-size="10.00">Neuron.h</text>
</a>
</g>
<!-- Node1&#45;&gt;Node11 -->
<g id="edge20" class="edge"><title>Node1&#45;&gt;Node11</title>
<path fill="none" stroke="midnightblue" d="M577.109,-113.291C622.687,-106.221 683.522,-94.3627 735,-76 752.976,-69.5879 755.79,-64.2491 773,-56 797.206,-44.3977 825.068,-32.3568 846.15,-23.5056"/>
<polygon fill="midnightblue" stroke="midnightblue" points="847.734,-26.6368 855.614,-19.5547 845.038,-20.177 847.734,-26.6368"/>
</g>
<!-- Node12 -->
<g id="node23" class="node"><title>Node12</title>
<a xlink:href="_con_8cpp.html" target="_top" xlink:title="Con.cpp">
<polygon fill="white" stroke="black" points="673.5,-56.5 673.5,-75.5 726.5,-75.5 726.5,-56.5 673.5,-56.5"/>
<text text-anchor="middle" x="700" y="-62.5" font-family="Helvetica,sans-Serif" font-size="10.00">Con.cpp</text>
</a>
</g>
<!-- Node1&#45;&gt;Node12 -->
<g id="edge22" class="edge"><title>Node1&#45;&gt;Node12</title>
<path fill="none" stroke="midnightblue" d="M541.834,-112.373C575.714,-102.44 628.433,-86.983 663.575,-76.6794"/>
<polygon fill="midnightblue" stroke="midnightblue" points="664.822,-79.9613 673.434,-73.7891 662.853,-73.244 664.822,-79.9613"/>
</g>
<!-- Node13 -->
<g id="node26" class="node"><title>Node13</title>
<a xlink:href="vec_a_m_o_r_e_8cpp.html" target="_top" xlink:title="vecAMORE.cpp">
<polygon fill="white" stroke="black" points="781.5,-56.5 781.5,-75.5 868.5,-75.5 868.5,-56.5 781.5,-56.5"/>
<text text-anchor="middle" x="825" y="-62.5" font-family="Helvetica,sans-Serif" font-size="10.00">vecAMORE.cpp</text>
</a>
</g>
<!-- Node1&#45;&gt;Node13 -->
<g id="edge26" class="edge"><title>Node1&#45;&gt;Node13</title>
<path fill="none" stroke="midnightblue" d="M562.963,-112.437C621.165,-102.123 713.273,-85.7998 771.352,-75.5072"/>
<polygon fill="midnightblue" stroke="midnightblue" points="772.195,-78.9125 781.431,-73.7211 770.974,-72.0199 772.195,-78.9125"/>
</g>
<!-- Node14 -->
<g id="node28" class="node"><title>Node14</title>
<a xlink:href="vec_con_8cpp.html" target="_top" xlink:title="vecCon.cpp">
<polygon fill="white" stroke="black" points="885.5,-56.5 885.5,-75.5 954.5,-75.5 954.5,-56.5 885.5,-56.5"/>
<text text-anchor="middle" x="920" y="-62.5" font-family="Helvetica,sans-Serif" font-size="10.00">vecCon.cpp</text>
</a>
</g>
<!-- Node1&#45;&gt;Node14 -->
<g id="edge28" class="edge"><title>Node1&#45;&gt;Node14</title>
<path fill="none" stroke="midnightblue" d="M577.145,-115.628C649.084,-108.417 765.951,-95.3283 875.438,-76.1432"/>
<polygon fill="midnightblue" stroke="midnightblue" points="876.095,-79.5815 885.33,-74.3894 874.873,-72.6889 876.095,-79.5815"/>
</g>
<!-- Node15 -->
<g id="node30" class="node"><title>Node15</title>
<a xlink:href="_neuron_8cpp.html" target="_top" xlink:title="Neuron.cpp">
<polygon fill="white" stroke="black" points="972,-56.5 972,-75.5 1038,-75.5 1038,-56.5 972,-56.5"/>
<text text-anchor="middle" x="1005" y="-62.5" font-family="Helvetica,sans-Serif" font-size="10.00">Neuron.cpp</text>
</a>
</g>
<!-- Node1&#45;&gt;Node15 -->
<g id="edge30" class="edge"><title>Node1&#45;&gt;Node15</title>
<path fill="none" stroke="midnightblue" d="M577.064,-117.933C664.099,-112.101 819.576,-99.5682 961.423,-76.0822"/>
<polygon fill="midnightblue" stroke="midnightblue" points="962.329,-79.4792 971.611,-74.3722 961.17,-72.5758 962.329,-79.4792"/>
</g>
<!-- Node12&#45;&gt;Node8 -->
<g id="edge24" class="edge"><title>Node12&#45;&gt;Node8</title>
<path fill="none" stroke="midnightblue" d="M679.543,-56.3733C660.526,-47.4241 631.982,-33.9917 610.502,-23.8835"/>
<polygon fill="midnightblue" stroke="midnightblue" points="611.728,-20.5923 601.19,-19.5011 608.748,-26.926 611.728,-20.5923"/>
</g>
<!-- Node15&#45;&gt;Node11 -->
<g id="edge32" class="edge"><title>Node15&#45;&gt;Node11</title>
<path fill="none" stroke="midnightblue" d="M983.34,-56.3733C963.023,-47.3435 932.436,-33.7494 909.625,-23.6111"/>
<polygon fill="midnightblue" stroke="midnightblue" points="910.937,-20.3642 900.378,-19.5011 908.094,-26.7609 910.937,-20.3642"/>
</g>
</g>
</svg>
