<?xml version="1.0" encoding="UTF-8" standalone="no"?>
<!DOCTYPE svg PUBLIC "-//W3C//DTD SVG 1.1//EN"
 "http://www.w3.org/Graphics/SVG/1.1/DTD/svg11.dtd">
<!-- Generated by graphviz version 2.25.20091207.0545 (20091207.0545)
 -->
<!-- Title: G Pages: 1 -->
<svg width="884pt" height="140pt"
 viewBox="0.00 0.00 884.00 140.00" xmlns="http://www.w3.org/2000/svg" xmlns:xlink="http://www.w3.org/1999/xlink">
<g id="graph1" class="graph" transform="scale(1 1) rotate(0) translate(4 136)">
<title>G</title>
<polygon fill="white" stroke="white" points="-4,5 -4,-136 881,-136 881,5 -4,5"/>
<!-- Node1 -->
<g id="node1" class="node"><title>Node1</title>
<polygon fill="#bfbfbf" stroke="black" points="382,-112.5 382,-131.5 518,-131.5 518,-112.5 382,-112.5"/>
<text text-anchor="middle" x="450" y="-118.5" font-family="Helvetica,sans-Serif" font-size="10.00">pkg/AMORE/src/AMORE.h</text>
</g>
<!-- Node2 -->
<g id="node3" class="node"><title>Node2</title>
<polygon fill="white" stroke="#bfbfbf" points="0,-56.5 0,-75.5 54,-75.5 54,-56.5 0,-56.5"/>
<text text-anchor="middle" x="27" y="-62.5" font-family="Helvetica,sans-Serif" font-size="10.00">iostream</text>
</g>
<!-- Node1&#45;&gt;Node2 -->
<g id="edge2" class="edge"><title>Node1&#45;&gt;Node2</title>
<path fill="none" stroke="midnightblue" d="M381.697,-117.053C306.112,-110.867 180.623,-98.4884 63.8473,-75.9108"/>
<polygon fill="midnightblue" stroke="midnightblue" points="64.5076,-72.4737 54.0208,-73.9824 63.1596,-79.3427 64.5076,-72.4737"/>
</g>
<!-- Node3 -->
<g id="node5" class="node"><title>Node3</title>
<polygon fill="white" stroke="#bfbfbf" points="71.5,-56.5 71.5,-75.5 122.5,-75.5 122.5,-56.5 71.5,-56.5"/>
<text text-anchor="middle" x="97" y="-62.5" font-family="Helvetica,sans-Serif" font-size="10.00">sstream</text>
</g>
<!-- Node1&#45;&gt;Node3 -->
<g id="edge4" class="edge"><title>Node1&#45;&gt;Node3</title>
<path fill="none" stroke="midnightblue" d="M381.977,-115.042C319.33,-107.988 223.709,-95.5915 132.473,-76.0905"/>
<polygon fill="midnightblue" stroke="midnightblue" points="133.033,-72.6309 122.519,-73.9305 131.549,-79.4717 133.033,-72.6309"/>
</g>
<!-- Node4 -->
<g id="node7" class="node"><title>Node4</title>
<polygon fill="white" stroke="#bfbfbf" points="140,-56.5 140,-75.5 196,-75.5 196,-56.5 140,-56.5"/>
<text text-anchor="middle" x="168" y="-62.5" font-family="Helvetica,sans-Serif" font-size="10.00">algorithm</text>
</g>
<!-- Node1&#45;&gt;Node4 -->
<g id="edge6" class="edge"><title>Node1&#45;&gt;Node4</title>
<path fill="none" stroke="midnightblue" d="M392.314,-112.484C344.736,-104.336 275.287,-91.7588 205.998,-76.1022"/>
<polygon fill="midnightblue" stroke="midnightblue" points="206.753,-72.6845 196.225,-73.8727 205.196,-79.5092 206.753,-72.6845"/>
</g>
<!-- Node5 -->
<g id="node9" class="node"><title>Node5</title>
<polygon fill="white" stroke="#bfbfbf" points="213.5,-56.5 213.5,-75.5 256.5,-75.5 256.5,-56.5 213.5,-56.5"/>
<text text-anchor="middle" x="235" y="-62.5" font-family="Helvetica,sans-Serif" font-size="10.00">vector</text>
</g>
<!-- Node1&#45;&gt;Node5 -->
<g id="edge8" class="edge"><title>Node1&#45;&gt;Node5</title>
<path fill="none" stroke="midnightblue" d="M407.5,-112.427C371.973,-104.203 319.794,-91.6085 266.227,-76.2152"/>
<polygon fill="midnightblue" stroke="midnightblue" points="267.146,-72.8376 256.567,-73.4126 265.196,-79.5604 267.146,-72.8376"/>
</g>
<!-- Node6 -->
<g id="node11" class="node"><title>Node6</title>
<polygon fill="white" stroke="#bfbfbf" points="274,-56.5 274,-75.5 382,-75.5 382,-56.5 274,-56.5"/>
<text text-anchor="middle" x="328" y="-62.5" font-family="Helvetica,sans-Serif" font-size="10.00">boost/shared_ptr.hpp</text>
</g>
<!-- Node1&#45;&gt;Node6 -->
<g id="edge10" class="edge"><title>Node1&#45;&gt;Node6</title>
<path fill="none" stroke="midnightblue" d="M429.027,-112.373C409.443,-103.384 380.004,-89.8706 357.949,-79.7471"/>
<polygon fill="midnightblue" stroke="midnightblue" points="359.247,-76.4919 348.699,-75.5011 356.327,-82.8538 359.247,-76.4919"/>
</g>
<!-- Node7 -->
<g id="node13" class="node"><title>Node7</title>
<polygon fill="white" stroke="#bfbfbf" points="400,-56.5 400,-75.5 448,-75.5 448,-56.5 400,-56.5"/>
<text text-anchor="middle" x="424" y="-62.5" font-family="Helvetica,sans-Serif" font-size="10.00">Rcpp.h</text>
</g>
<!-- Node1&#45;&gt;Node7 -->
<g id="edge12" class="edge"><title>Node1&#45;&gt;Node7</title>
<path fill="none" stroke="midnightblue" d="M445.471,-112.246C441.967,-104.697 437.007,-94.0158 432.738,-84.8197"/>
<polygon fill="midnightblue" stroke="midnightblue" points="435.863,-83.2389 428.477,-75.6427 429.514,-86.1867 435.863,-83.2389"/>
</g>
<!-- Node8 -->
<g id="node15" class="node"><title>Node8</title>
<a xlink:href="_con_8h.html" target="_top" xlink:title="Con.h">
<polygon fill="white" stroke="black" points="522,-0.5 522,-19.5 564,-19.5 564,-0.5 522,-0.5"/>
<text text-anchor="middle" x="543" y="-6.5" font-family="Helvetica,sans-Serif" font-size="10.00">Con.h</text>
</a>
</g>
<!-- Node1&#45;&gt;Node8 -->
<g id="edge14" class="edge"><title>Node1&#45;&gt;Node8</title>
<path fill="none" stroke="midnightblue" d="M455.816,-112.15C463.873,-98.838 479.228,-74.6283 495,-56 503.883,-45.5076 514.891,-34.8209 524.124,-26.392"/>
<polygon fill="midnightblue" stroke="midnightblue" points="526.564,-28.9047 531.682,-19.6277 521.896,-23.6885 526.564,-28.9047"/>
</g>
<!-- Node9 -->
<g id="node17" class="node"><title>Node9</title>
<a xlink:href="vec_a_m_o_r_e_8h.html" target="_top" xlink:title="vecAMORE.h">
<polygon fill="white" stroke="black" points="503.5,-56.5 503.5,-75.5 580.5,-75.5 580.5,-56.5 503.5,-56.5"/>
<text text-anchor="middle" x="542" y="-62.5" font-family="Helvetica,sans-Serif" font-size="10.00">vecAMORE.h</text>
</a>
</g>
<!-- Node1&#45;&gt;Node9 -->
<g id="edge16" class="edge"><title>Node1&#45;&gt;Node9</title>
<path fill="none" stroke="midnightblue" d="M466.025,-112.246C480.141,-103.653 500.926,-91.0014 517.19,-81.1018"/>
<polygon fill="midnightblue" stroke="midnightblue" points="519.436,-83.8319 526.158,-75.6427 515.797,-77.8525 519.436,-83.8319"/>
</g>
<!-- Node10 -->
<g id="node19" class="node"><title>Node10</title>
<a xlink:href="_neuron_8h.html" target="_top" xlink:title="Neuron.h">
<polygon fill="white" stroke="black" points="732,-0.5 732,-19.5 788,-19.5 788,-0.5 732,-0.5"/>
<text text-anchor="middle" x="760" y="-6.5" font-family="Helvetica,sans-Serif" font-size="10.00">Neuron.h</text>
</a>
</g>
<!-- Node1&#45;&gt;Node10 -->
<g id="edge18" class="edge"><title>Node1&#45;&gt;Node10</title>
<path fill="none" stroke="midnightblue" d="M518.255,-113.37C560.042,-106.543 613.957,-94.9231 659,-76 675.253,-69.1717 713.8,-42.7881 738.295,-25.5178"/>
<polygon fill="midnightblue" stroke="midnightblue" points="740.482,-28.2582 746.617,-19.6205 736.434,-22.547 740.482,-28.2582"/>
</g>
<!-- Node11 -->
<g id="node21" class="node"><title>Node11</title>
<a xlink:href="_con_8cpp.html" target="_top" xlink:title="Con.cpp">
<polygon fill="white" stroke="black" points="597.5,-56.5 597.5,-75.5 650.5,-75.5 650.5,-56.5 597.5,-56.5"/>
<text text-anchor="middle" x="624" y="-62.5" font-family="Helvetica,sans-Serif" font-size="10.00">Con.cpp</text>
</a>
</g>
<!-- Node1&#45;&gt;Node11 -->
<g id="edge20" class="edge"><title>Node1&#45;&gt;Node11</title>
<path fill="none" stroke="midnightblue" d="M479.912,-112.373C509.722,-102.779 555.543,-88.0323 587.483,-77.7527"/>
<polygon fill="midnightblue" stroke="midnightblue" points="588.881,-80.9797 597.327,-74.5843 586.736,-74.3163 588.881,-80.9797"/>
</g>
<!-- Node12 -->
<g id="node24" class="node"><title>Node12</title>
<a xlink:href="vec_a_m_o_r_e_8cpp.html" target="_top" xlink:title="vecAMORE.cpp">
<polygon fill="white" stroke="black" points="705.5,-56.5 705.5,-75.5 792.5,-75.5 792.5,-56.5 705.5,-56.5"/>
<text text-anchor="middle" x="749" y="-62.5" font-family="Helvetica,sans-Serif" font-size="10.00">vecAMORE.cpp</text>
</a>
</g>
<!-- Node1&#45;&gt;Node12 -->
<g id="edge24" class="edge"><title>Node1&#45;&gt;Node12</title>
<path fill="none" stroke="midnightblue" d="M501.06,-112.437C555.232,-102.291 640.446,-86.3311 695.521,-76.0161"/>
<polygon fill="midnightblue" stroke="midnightblue" points="696.255,-79.4396 705.44,-74.1584 694.966,-72.5592 696.255,-79.4396"/>
</g>
<!-- Node13 -->
<g id="node26" class="node"><title>Node13</title>
<a xlink:href="_neuron_8cpp.html" target="_top" xlink:title="Neuron.cpp">
<polygon fill="white" stroke="black" points="810,-56.5 810,-75.5 876,-75.5 876,-56.5 810,-56.5"/>
<text text-anchor="middle" x="843" y="-62.5" font-family="Helvetica,sans-Serif" font-size="10.00">Neuron.cpp</text>
</a>
</g>
<!-- Node1&#45;&gt;Node13 -->
<g id="edge26" class="edge"><title>Node1&#45;&gt;Node13</title>
<path fill="none" stroke="midnightblue" d="M518.271,-115.168C587.022,-107.81 696.292,-94.8121 799.617,-76.1104"/>
<polygon fill="midnightblue" stroke="midnightblue" points="800.39,-79.5271 809.596,-74.2827 799.129,-72.6416 800.39,-79.5271"/>
</g>
<!-- Node11&#45;&gt;Node8 -->
<g id="edge22" class="edge"><title>Node11&#45;&gt;Node8</title>
<path fill="none" stroke="midnightblue" d="M609.891,-56.2455C597.579,-47.7337 579.504,-35.2375 565.246,-25.3801"/>
<polygon fill="midnightblue" stroke="midnightblue" points="567.163,-22.4506 556.947,-19.6427 563.183,-28.2085 567.163,-22.4506"/>
</g>
<!-- Node13&#45;&gt;Node10 -->
<g id="edge28" class="edge"><title>Node13&#45;&gt;Node10</title>
<path fill="none" stroke="midnightblue" d="M828.543,-56.2455C815.927,-47.7337 797.406,-35.2375 782.795,-25.3801"/>
<polygon fill="midnightblue" stroke="midnightblue" points="784.539,-22.3343 774.292,-19.6427 780.624,-28.1371 784.539,-22.3343"/>
</g>
</g>
</svg>
