<?xml version="1.0" encoding="UTF-8" standalone="no"?>
<!DOCTYPE svg PUBLIC "-//W3C//DTD SVG 1.1//EN"
 "http://www.w3.org/Graphics/SVG/1.1/DTD/svg11.dtd">
<!-- Generated by graphviz version 2.28.0 (20110610.2051)
 -->
<!-- Title: G Pages: 1 -->
<svg width="8563pt" height="196pt"
 viewBox="0.00 0.00 8563.00 196.00" xmlns="http://www.w3.org/2000/svg" xmlns:xlink="http://www.w3.org/1999/xlink">
<g id="graph1" class="graph" transform="scale(1 1) rotate(0) translate(4 192)">
<title>G</title>
<polygon fill="white" stroke="white" points="-4,5 -4,-192 8560,-192 8560,5 -4,5"/>
<!-- Node1 -->
<g id="node1" class="node"><title>Node1</title>
<polygon fill="#bfbfbf" stroke="black" points="2839.5,-168.5 2839.5,-187.5 3438.5,-187.5 3438.5,-168.5 2839.5,-168.5"/>
<text text-anchor="middle" x="3139" y="-175.5" font-family="Helvetica,sans-Serif" font-size="10.00">/Users/mcasl/pc&#45;ule/Trabajo/investigacion/AMORE/AMORE&#45;WC/AMORE&#45;WC/pkg/AMORE/src/classHeaders/ActivationFunction.h</text>
</g>
<!-- Node2 -->
<g id="node3" class="node"><title>Node2</title>
<a xlink:href="_activation_function_8cpp.html" target="_top" xlink:title="/Users/mcasl/pc&#45;ule/Trabajo/investigacion/AMORE/AMORE&#45;WC/AMORE&#45;WC/pkg/AMORE/src/ActivationFunction.cpp">
<polygon fill="white" stroke="black" points="-0.5,-56.5 -0.5,-75.5 546.5,-75.5 546.5,-56.5 -0.5,-56.5"/>
<text text-anchor="middle" x="273" y="-63.5" font-family="Helvetica,sans-Serif" font-size="10.00">/Users/mcasl/pc&#45;ule/Trabajo/investigacion/AMORE/AMORE&#45;WC/AMORE&#45;WC/pkg/AMORE/src/ActivationFunction.cpp</text>
</a>
</g>
<!-- Node1&#45;&gt;Node2 -->
<g id="edge2" class="edge"><title>Node1&#45;&gt;Node2</title>
<path fill="none" stroke="midnightblue" d="M2829.2,-175.147C2192.96,-170.823 780.228,-158.371 561,-132 464.562,-120.4 353.089,-90.3566 301.682,-75.5312"/>
<polygon fill="midnightblue" stroke="midnightblue" points="2829.41,-178.648 2839.44,-175.216 2829.46,-171.649 2829.41,-178.648"/>
</g>
<!-- Node3 -->
<g id="node5" class="node"><title>Node3</title>
<a xlink:href="_a_m_o_r_e_8h.html" target="_top" xlink:title="/Users/mcasl/pc&#45;ule/Trabajo/investigacion/AMORE/AMORE&#45;WC/AMORE&#45;WC/pkg/AMORE/src/AMORE.h">
<polygon fill="white" stroke="black" points="1158,-0.5 1158,-19.5 1646,-19.5 1646,-0.5 1158,-0.5"/>
<text text-anchor="middle" x="1402" y="-7.5" font-family="Helvetica,sans-Serif" font-size="10.00">/Users/mcasl/pc&#45;ule/Trabajo/investigacion/AMORE/AMORE&#45;WC/AMORE&#45;WC/pkg/AMORE/src/AMORE.h</text>
</a>
</g>
<!-- Node1&#45;&gt;Node3 -->
<g id="edge6" class="edge"><title>Node1&#45;&gt;Node3</title>
<path fill="none" stroke="midnightblue" d="M2829.35,-177.676C2299.97,-177.687 1242.35,-172.409 873,-132 747.277,-118.245 674.149,-173.835 594,-76 588.367,-69.1239 587.892,-62.4578 594,-56 613.407,-35.4824 927.271,-22.9849 1157.99,-16.5278"/>
<polygon fill="midnightblue" stroke="midnightblue" points="2829.43,-181.176 2839.43,-177.675 2829.43,-174.176 2829.43,-181.176"/>
</g>
<!-- Node4 -->
<g id="node8" class="node"><title>Node4</title>
<a xlink:href="_tanh_8h.html" target="_top" xlink:title="/Users/mcasl/pc&#45;ule/Trabajo/investigacion/AMORE/AMORE&#45;WC/AMORE&#45;WC/pkg/AMORE/src/classHeaders/Tanh.h">
<polygon fill="white" stroke="black" points="912,-112.5 912,-131.5 1448,-131.5 1448,-112.5 912,-112.5"/>
<text text-anchor="middle" x="1180" y="-119.5" font-family="Helvetica,sans-Serif" font-size="10.00">/Users/mcasl/pc&#45;ule/Trabajo/investigacion/AMORE/AMORE&#45;WC/AMORE&#45;WC/pkg/AMORE/src/classHeaders/Tanh.h</text>
</a>
</g>
<!-- Node1&#45;&gt;Node4 -->
<g id="edge8" class="edge"><title>Node1&#45;&gt;Node4</title>
<path fill="none" stroke="midnightblue" d="M2829.27,-168.462C2448.54,-157.967 1808.73,-140.331 1448.13,-130.391"/>
<polygon fill="midnightblue" stroke="midnightblue" points="2829.24,-171.963 2839.34,-168.74 2829.44,-164.965 2829.24,-171.963"/>
</g>
<!-- Node5 -->
<g id="node11" class="node"><title>Node5</title>
<a xlink:href="_tanh_8cpp.html" target="_top" xlink:title="/Users/mcasl/pc&#45;ule/Trabajo/investigacion/AMORE/AMORE&#45;WC/AMORE&#45;WC/pkg/AMORE/src/Tanh.cpp">
<polygon fill="white" stroke="black" points="603,-56.5 603,-75.5 1087,-75.5 1087,-56.5 603,-56.5"/>
<text text-anchor="middle" x="845" y="-63.5" font-family="Helvetica,sans-Serif" font-size="10.00">/Users/mcasl/pc&#45;ule/Trabajo/investigacion/AMORE/AMORE&#45;WC/AMORE&#45;WC/pkg/AMORE/src/Tanh.cpp</text>
</a>
</g>
<!-- Node1&#45;&gt;Node5 -->
<g id="edge32" class="edge"><title>Node1&#45;&gt;Node5</title>
<path fill="none" stroke="midnightblue" d="M2828.8,-177.288C2235.05,-176.933 988.763,-171.456 903,-132 877.169,-120.116 857.998,-90.6319 849.635,-75.8067"/>
<polygon fill="midnightblue" stroke="midnightblue" points="2829.23,-180.788 2839.23,-177.293 2829.24,-173.788 2829.23,-180.788"/>
</g>
<!-- Node6 -->
<g id="node14" class="node"><title>Node6</title>
<a xlink:href="_tanh_factory_8cpp.html" target="_top" xlink:title="/Users/mcasl/pc&#45;ule/Trabajo/investigacion/AMORE/AMORE&#45;WC/AMORE&#45;WC/pkg/AMORE/src/TanhFactory.cpp">
<polygon fill="white" stroke="black" points="1143,-56.5 1143,-75.5 1661,-75.5 1661,-56.5 1143,-56.5"/>
<text text-anchor="middle" x="1402" y="-63.5" font-family="Helvetica,sans-Serif" font-size="10.00">/Users/mcasl/pc&#45;ule/Trabajo/investigacion/AMORE/AMORE&#45;WC/AMORE&#45;WC/pkg/AMORE/src/TanhFactory.cpp</text>
</a>
</g>
<!-- Node1&#45;&gt;Node6 -->
<g id="edge40" class="edge"><title>Node1&#45;&gt;Node6</title>
<path fill="none" stroke="midnightblue" d="M2829.13,-175.95C2460.51,-173.242 1867.44,-163.876 1648,-132 1565.38,-119.999 1470.67,-90.2892 1426.75,-75.5602"/>
<polygon fill="midnightblue" stroke="midnightblue" points="2829.13,-179.45 2839.15,-176.023 2829.18,-172.45 2829.13,-179.45"/>
</g>
<!-- Node7 -->
<g id="node17" class="node"><title>Node7</title>
<a xlink:href="_identity_8h.html" target="_top" xlink:title="/Users/mcasl/pc&#45;ule/Trabajo/investigacion/AMORE/AMORE&#45;WC/AMORE&#45;WC/pkg/AMORE/src/classHeaders/Identity.h">
<polygon fill="white" stroke="black" points="1657,-112.5 1657,-131.5 2207,-131.5 2207,-112.5 1657,-112.5"/>
<text text-anchor="middle" x="1932" y="-119.5" font-family="Helvetica,sans-Serif" font-size="10.00">/Users/mcasl/pc&#45;ule/Trabajo/investigacion/AMORE/AMORE&#45;WC/AMORE&#45;WC/pkg/AMORE/src/classHeaders/Identity.h</text>
</a>
</g>
<!-- Node1&#45;&gt;Node7 -->
<g id="edge20" class="edge"><title>Node1&#45;&gt;Node7</title>
<path fill="none" stroke="midnightblue" d="M2938.72,-168.04C2711.84,-157.889 2344.82,-141.469 2122.2,-131.509"/>
<polygon fill="midnightblue" stroke="midnightblue" points="2938.6,-171.538 2948.75,-168.488 2938.91,-164.545 2938.6,-171.538"/>
</g>
<!-- Node8 -->
<g id="node20" class="node"><title>Node8</title>
<a xlink:href="_identity_8cpp.html" target="_top" xlink:title="/Users/mcasl/pc&#45;ule/Trabajo/investigacion/AMORE/AMORE&#45;WC/AMORE&#45;WC/pkg/AMORE/src/Identity.cpp">
<polygon fill="white" stroke="black" points="2267.5,-56.5 2267.5,-75.5 2764.5,-75.5 2764.5,-56.5 2267.5,-56.5"/>
<text text-anchor="middle" x="2516" y="-63.5" font-family="Helvetica,sans-Serif" font-size="10.00">/Users/mcasl/pc&#45;ule/Trabajo/investigacion/AMORE/AMORE&#45;WC/AMORE&#45;WC/pkg/AMORE/src/Identity.cpp</text>
</a>
</g>
<!-- Node1&#45;&gt;Node8 -->
<g id="edge34" class="edge"><title>Node1&#45;&gt;Node8</title>
<path fill="none" stroke="midnightblue" d="M2829.12,-170.627C2591.96,-164.178 2302.18,-152.213 2283,-132 2253.52,-100.926 2284.52,-84.2947 2332.48,-75.5308"/>
<polygon fill="midnightblue" stroke="midnightblue" points="2829.21,-174.131 2839.31,-170.902 2829.4,-167.134 2829.21,-174.131"/>
</g>
<!-- Node10 -->
<g id="node28" class="node"><title>Node10</title>
<a xlink:href="_simple_neuron_8cpp.html" target="_top" xlink:title="/Users/mcasl/pc&#45;ule/Trabajo/investigacion/AMORE/AMORE&#45;WC/AMORE&#45;WC/pkg/AMORE/src/SimpleNeuron.cpp">
<polygon fill="white" stroke="black" points="2782.5,-56.5 2782.5,-75.5 3309.5,-75.5 3309.5,-56.5 2782.5,-56.5"/>
<text text-anchor="middle" x="3046" y="-63.5" font-family="Helvetica,sans-Serif" font-size="10.00">/Users/mcasl/pc&#45;ule/Trabajo/investigacion/AMORE/AMORE&#45;WC/AMORE&#45;WC/pkg/AMORE/src/SimpleNeuron.cpp</text>
</a>
</g>
<!-- Node1&#45;&gt;Node10 -->
<g id="edge36" class="edge"><title>Node1&#45;&gt;Node10</title>
<path fill="none" stroke="midnightblue" d="M2829.19,-170.432C2595.12,-163.898 2310.89,-151.916 2292,-132 2285.88,-125.55 2285.9,-118.47 2292,-112 2301.51,-101.903 2628.02,-85.4878 2848.21,-75.5218"/>
<polygon fill="midnightblue" stroke="midnightblue" points="2829.15,-173.932 2839.24,-170.71 2829.34,-166.935 2829.15,-173.932"/>
</g>
<!-- Node11 -->
<g id="node32" class="node"><title>Node11</title>
<a xlink:href="_arc_tan_8h.html" target="_top" xlink:title="/Users/mcasl/pc&#45;ule/Trabajo/investigacion/AMORE/AMORE&#45;WC/AMORE&#45;WC/pkg/AMORE/src/classHeaders/ArcTan.h">
<polygon fill="white" stroke="black" points="2301,-112.5 2301,-131.5 2847,-131.5 2847,-112.5 2301,-112.5"/>
<text text-anchor="middle" x="2574" y="-119.5" font-family="Helvetica,sans-Serif" font-size="10.00">/Users/mcasl/pc&#45;ule/Trabajo/investigacion/AMORE/AMORE&#45;WC/AMORE&#45;WC/pkg/AMORE/src/classHeaders/ArcTan.h</text>
</a>
</g>
<!-- Node1&#45;&gt;Node11 -->
<g id="edge42" class="edge"><title>Node1&#45;&gt;Node11</title>
<path fill="none" stroke="midnightblue" d="M3039.67,-167.507C2933.18,-157.329 2765.63,-141.316 2663.21,-131.526"/>
<polygon fill="midnightblue" stroke="midnightblue" points="3039.5,-171.006 3049.79,-168.473 3040.16,-164.038 3039.5,-171.006"/>
</g>
<!-- Node12 -->
<g id="node34" class="node"><title>Node12</title>
<a xlink:href="_cosine_8h.html" target="_top" xlink:title="/Users/mcasl/pc&#45;ule/Trabajo/investigacion/AMORE/AMORE&#45;WC/AMORE&#45;WC/pkg/AMORE/src/classHeaders/Cosine.h">
<polygon fill="white" stroke="black" points="2865.5,-112.5 2865.5,-131.5 3412.5,-131.5 3412.5,-112.5 2865.5,-112.5"/>
<text text-anchor="middle" x="3139" y="-119.5" font-family="Helvetica,sans-Serif" font-size="10.00">/Users/mcasl/pc&#45;ule/Trabajo/investigacion/AMORE/AMORE&#45;WC/AMORE&#45;WC/pkg/AMORE/src/classHeaders/Cosine.h</text>
</a>
</g>
<!-- Node1&#45;&gt;Node12 -->
<g id="edge44" class="edge"><title>Node1&#45;&gt;Node12</title>
<path fill="none" stroke="midnightblue" d="M3139,-157.805C3139,-148.91 3139,-138.78 3139,-131.751"/>
<polygon fill="midnightblue" stroke="midnightblue" points="3135.5,-158.083 3139,-168.083 3142.5,-158.083 3135.5,-158.083"/>
</g>
<!-- Node13 -->
<g id="node36" class="node"><title>Node13</title>
<a xlink:href="_elliot_8h.html" target="_top" xlink:title="/Users/mcasl/pc&#45;ule/Trabajo/investigacion/AMORE/AMORE&#45;WC/AMORE&#45;WC/pkg/AMORE/src/classHeaders/Elliot.h">
<polygon fill="white" stroke="black" points="3431,-112.5 3431,-131.5 3969,-131.5 3969,-112.5 3431,-112.5"/>
<text text-anchor="middle" x="3700" y="-119.5" font-family="Helvetica,sans-Serif" font-size="10.00">/Users/mcasl/pc&#45;ule/Trabajo/investigacion/AMORE/AMORE&#45;WC/AMORE&#45;WC/pkg/AMORE/src/classHeaders/Elliot.h</text>
</a>
</g>
<!-- Node1&#45;&gt;Node13 -->
<g id="edge46" class="edge"><title>Node1&#45;&gt;Node13</title>
<path fill="none" stroke="midnightblue" d="M3237.62,-167.507C3343.36,-157.329 3509.72,-141.316 3611.42,-131.526"/>
<polygon fill="midnightblue" stroke="midnightblue" points="3237.2,-164.031 3227.58,-168.473 3237.87,-170.999 3237.2,-164.031"/>
</g>
<!-- Node14 -->
<g id="node38" class="node"><title>Node14</title>
<a xlink:href="_exponential_8h.html" target="_top" xlink:title="/Users/mcasl/pc&#45;ule/Trabajo/investigacion/AMORE/AMORE&#45;WC/AMORE&#45;WC/pkg/AMORE/src/classHeaders/Exponential.h">
<polygon fill="white" stroke="black" points="3987.5,-112.5 3987.5,-131.5 4556.5,-131.5 4556.5,-112.5 3987.5,-112.5"/>
<text text-anchor="middle" x="4272" y="-119.5" font-family="Helvetica,sans-Serif" font-size="10.00">/Users/mcasl/pc&#45;ule/Trabajo/investigacion/AMORE/AMORE&#45;WC/AMORE&#45;WC/pkg/AMORE/src/classHeaders/Exponential.h</text>
</a>
</g>
<!-- Node1&#45;&gt;Node14 -->
<g id="edge48" class="edge"><title>Node1&#45;&gt;Node14</title>
<path fill="none" stroke="midnightblue" d="M3327.63,-168.01C3540.65,-157.857 3884.7,-141.459 4093.47,-131.509"/>
<polygon fill="midnightblue" stroke="midnightblue" points="3327.41,-164.516 3317.59,-168.488 3327.75,-171.508 3327.41,-164.516"/>
</g>
<!-- Node15 -->
<g id="node40" class="node"><title>Node15</title>
<a xlink:href="_gauss_8h.html" target="_top" xlink:title="/Users/mcasl/pc&#45;ule/Trabajo/investigacion/AMORE/AMORE&#45;WC/AMORE&#45;WC/pkg/AMORE/src/classHeaders/Gauss.h">
<polygon fill="white" stroke="black" points="4575,-112.5 4575,-131.5 5119,-131.5 5119,-112.5 4575,-112.5"/>
<text text-anchor="middle" x="4847" y="-119.5" font-family="Helvetica,sans-Serif" font-size="10.00">/Users/mcasl/pc&#45;ule/Trabajo/investigacion/AMORE/AMORE&#45;WC/AMORE&#45;WC/pkg/AMORE/src/classHeaders/Gauss.h</text>
</a>
</g>
<!-- Node1&#45;&gt;Node15 -->
<g id="edge50" class="edge"><title>Node1&#45;&gt;Node15</title>
<path fill="none" stroke="midnightblue" d="M3419.55,-168.176C3707.12,-159.125 4167.26,-144.623 4565,-132 4570.14,-131.837 4575.33,-131.672 4580.57,-131.506"/>
<polygon fill="midnightblue" stroke="midnightblue" points="3419.28,-164.683 3409.39,-168.496 3419.5,-171.68 3419.28,-164.683"/>
</g>
<!-- Node16 -->
<g id="node42" class="node"><title>Node16</title>
<a xlink:href="_logistic_8h.html" target="_top" xlink:title="/Users/mcasl/pc&#45;ule/Trabajo/investigacion/AMORE/AMORE&#45;WC/AMORE&#45;WC/pkg/AMORE/src/classHeaders/Logistic.h">
<polygon fill="white" stroke="black" points="5137.5,-112.5 5137.5,-131.5 5688.5,-131.5 5688.5,-112.5 5137.5,-112.5"/>
<text text-anchor="middle" x="5413" y="-119.5" font-family="Helvetica,sans-Serif" font-size="10.00">/Users/mcasl/pc&#45;ule/Trabajo/investigacion/AMORE/AMORE&#45;WC/AMORE&#45;WC/pkg/AMORE/src/classHeaders/Logistic.h</text>
</a>
</g>
<!-- Node1&#45;&gt;Node16 -->
<g id="edge52" class="edge"><title>Node1&#45;&gt;Node16</title>
<path fill="none" stroke="midnightblue" d="M3448.55,-170.854C3839.76,-162.889 4533.85,-148.102 5128,-132 5133.94,-131.839 5139.95,-131.673 5146,-131.504"/>
<polygon fill="midnightblue" stroke="midnightblue" points="3448.43,-167.356 3438.5,-171.059 3448.57,-174.354 3448.43,-167.356"/>
</g>
<!-- Node17 -->
<g id="node44" class="node"><title>Node17</title>
<a xlink:href="_radial_basis_8h.html" target="_top" xlink:title="/Users/mcasl/pc&#45;ule/Trabajo/investigacion/AMORE/AMORE&#45;WC/AMORE&#45;WC/pkg/AMORE/src/classHeaders/RadialBasis.h">
<polygon fill="white" stroke="black" points="5706.5,-112.5 5706.5,-131.5 6275.5,-131.5 6275.5,-112.5 5706.5,-112.5"/>
<text text-anchor="middle" x="5991" y="-119.5" font-family="Helvetica,sans-Serif" font-size="10.00">/Users/mcasl/pc&#45;ule/Trabajo/investigacion/AMORE/AMORE&#45;WC/AMORE&#45;WC/pkg/AMORE/src/classHeaders/RadialBasis.h</text>
</a>
</g>
<!-- Node1&#45;&gt;Node17 -->
<g id="edge54" class="edge"><title>Node1&#45;&gt;Node17</title>
<path fill="none" stroke="midnightblue" d="M3449.03,-172.847C3930.25,-166.106 4886.03,-151.545 5697,-132 5703.64,-131.84 5710.36,-131.673 5717.14,-131.5"/>
<polygon fill="midnightblue" stroke="midnightblue" points="3448.76,-169.35 3438.81,-172.99 3448.86,-176.349 3448.76,-169.35"/>
</g>
<!-- Node18 -->
<g id="node46" class="node"><title>Node18</title>
<a xlink:href="_reciprocal_8h.html" target="_top" xlink:title="/Users/mcasl/pc&#45;ule/Trabajo/investigacion/AMORE/AMORE&#45;WC/AMORE&#45;WC/pkg/AMORE/src/classHeaders/Reciprocal.h">
<polygon fill="white" stroke="black" points="6293.5,-112.5 6293.5,-131.5 6856.5,-131.5 6856.5,-112.5 6293.5,-112.5"/>
<text text-anchor="middle" x="6575" y="-119.5" font-family="Helvetica,sans-Serif" font-size="10.00">/Users/mcasl/pc&#45;ule/Trabajo/investigacion/AMORE/AMORE&#45;WC/AMORE&#45;WC/pkg/AMORE/src/classHeaders/Reciprocal.h</text>
</a>
</g>
<!-- Node1&#45;&gt;Node18 -->
<g id="edge56" class="edge"><title>Node1&#45;&gt;Node18</title>
<path fill="none" stroke="midnightblue" d="M3448.83,-174.272C4012.88,-168.926 5245.11,-155.496 6284,-132 6290.95,-131.843 6297.99,-131.677 6305.09,-131.503"/>
<polygon fill="midnightblue" stroke="midnightblue" points="3448.48,-170.775 3438.51,-174.37 3448.55,-177.775 3448.48,-170.775"/>
</g>
<!-- Node19 -->
<g id="node48" class="node"><title>Node19</title>
<a xlink:href="_sine_8h.html" target="_top" xlink:title="/Users/mcasl/pc&#45;ule/Trabajo/investigacion/AMORE/AMORE&#45;WC/AMORE&#45;WC/pkg/AMORE/src/classHeaders/Sine.h">
<polygon fill="white" stroke="black" points="6875,-112.5 6875,-131.5 7411,-131.5 7411,-112.5 6875,-112.5"/>
<text text-anchor="middle" x="7143" y="-119.5" font-family="Helvetica,sans-Serif" font-size="10.00">/Users/mcasl/pc&#45;ule/Trabajo/investigacion/AMORE/AMORE&#45;WC/AMORE&#45;WC/pkg/AMORE/src/classHeaders/Sine.h</text>
</a>
</g>
<!-- Node1&#45;&gt;Node19 -->
<g id="edge58" class="edge"><title>Node1&#45;&gt;Node19</title>
<path fill="none" stroke="midnightblue" d="M3449.05,-175.38C4088.05,-171.573 5597.92,-160.159 6865,-132 6872,-131.844 6879.1,-131.678 6886.26,-131.501"/>
<polygon fill="midnightblue" stroke="midnightblue" points="3448.76,-171.882 3438.78,-175.441 3448.8,-178.882 3448.76,-171.882"/>
</g>
<!-- Node20 -->
<g id="node50" class="node"><title>Node20</title>
<a xlink:href="_square_8h.html" target="_top" xlink:title="/Users/mcasl/pc&#45;ule/Trabajo/investigacion/AMORE/AMORE&#45;WC/AMORE&#45;WC/pkg/AMORE/src/classHeaders/Square.h">
<polygon fill="white" stroke="black" points="7429,-112.5 7429,-131.5 7977,-131.5 7977,-112.5 7429,-112.5"/>
<text text-anchor="middle" x="7703" y="-119.5" font-family="Helvetica,sans-Serif" font-size="10.00">/Users/mcasl/pc&#45;ule/Trabajo/investigacion/AMORE/AMORE&#45;WC/AMORE&#45;WC/pkg/AMORE/src/classHeaders/Square.h</text>
</a>
</g>
<!-- Node1&#45;&gt;Node20 -->
<g id="edge60" class="edge"><title>Node1&#45;&gt;Node20</title>
<path fill="none" stroke="midnightblue" d="M3448.81,-176.002C4153.89,-173.237 5932.55,-163.466 7420,-132 7427.25,-131.847 7434.6,-131.681 7442.02,-131.505"/>
<polygon fill="midnightblue" stroke="midnightblue" points="3448.75,-172.503 3438.77,-176.042 3448.78,-179.502 3448.75,-172.503"/>
</g>
<!-- Node21 -->
<g id="node52" class="node"><title>Node21</title>
<a xlink:href="_threshold_8h.html" target="_top" xlink:title="/Users/mcasl/pc&#45;ule/Trabajo/investigacion/AMORE/AMORE&#45;WC/AMORE&#45;WC/pkg/AMORE/src/classHeaders/Threshold.h">
<polygon fill="white" stroke="black" points="7995,-112.5 7995,-131.5 8555,-131.5 8555,-112.5 7995,-112.5"/>
<text text-anchor="middle" x="8275" y="-119.5" font-family="Helvetica,sans-Serif" font-size="10.00">/Users/mcasl/pc&#45;ule/Trabajo/investigacion/AMORE/AMORE&#45;WC/AMORE&#45;WC/pkg/AMORE/src/classHeaders/Threshold.h</text>
</a>
</g>
<!-- Node1&#45;&gt;Node21 -->
<g id="edge62" class="edge"><title>Node1&#45;&gt;Node21</title>
<path fill="none" stroke="midnightblue" d="M3448.71,-176.47C4217,-174.644 6272.2,-166.637 7986,-132 7993.53,-131.848 8001.17,-131.683 8008.88,-131.506"/>
<polygon fill="midnightblue" stroke="midnightblue" points="3448.6,-172.97 3438.61,-176.494 3448.62,-179.97 3448.6,-172.97"/>
</g>
<!-- Node2&#45;&gt;Node3 -->
<g id="edge4" class="edge"><title>Node2&#45;&gt;Node3</title>
<path fill="none" stroke="midnightblue" d="M460.967,-56.0095C673.233,-45.8569 1016.07,-29.4592 1224.1,-19.5091"/>
<polygon fill="midnightblue" stroke="midnightblue" points="460.781,-52.5144 450.959,-56.4882 461.115,-59.5064 460.781,-52.5144"/>
</g>
<!-- Node4&#45;&gt;Node3 -->
<g id="edge10" class="edge"><title>Node4&#45;&gt;Node3</title>
<path fill="none" stroke="midnightblue" d="M1157.89,-106.413C1140.08,-92.8803 1120.11,-72.4163 1134,-56 1150.19,-36.8659 1199.1,-25.8631 1250.79,-19.5378"/>
<polygon fill="midnightblue" stroke="midnightblue" points="1156.14,-109.463 1166.31,-112.451 1160.22,-103.776 1156.14,-109.463"/>
</g>
<!-- Node4&#45;&gt;Node5 -->
<g id="edge12" class="edge"><title>Node4&#45;&gt;Node5</title>
<path fill="none" stroke="midnightblue" d="M1116.66,-110.791C1053.36,-100.587 957.151,-85.078 897.833,-75.5164"/>
<polygon fill="midnightblue" stroke="midnightblue" points="1116.49,-114.307 1126.92,-112.444 1117.6,-107.397 1116.49,-114.307"/>
</g>
<!-- Node4&#45;&gt;Node6 -->
<g id="edge16" class="edge"><title>Node4&#45;&gt;Node6</title>
<path fill="none" stroke="midnightblue" d="M1225.12,-110.024C1267.06,-99.8232 1328.65,-84.8414 1366.99,-75.5164"/>
<polygon fill="midnightblue" stroke="midnightblue" points="1224.07,-106.679 1215.18,-112.444 1225.72,-113.481 1224.07,-106.679"/>
</g>
<!-- Node5&#45;&gt;Node3 -->
<g id="edge14" class="edge"><title>Node5&#45;&gt;Node3</title>
<path fill="none" stroke="midnightblue" d="M942.919,-55.507C1047.9,-45.3288 1213.08,-29.3155 1314.05,-19.5264"/>
<polygon fill="midnightblue" stroke="midnightblue" points="942.567,-52.0246 932.951,-56.4733 943.242,-58.992 942.567,-52.0246"/>
</g>
<!-- Node6&#45;&gt;Node3 -->
<g id="edge18" class="edge"><title>Node6&#45;&gt;Node3</title>
<path fill="none" stroke="midnightblue" d="M1402,-45.8045C1402,-36.9102 1402,-26.7798 1402,-19.7511"/>
<polygon fill="midnightblue" stroke="midnightblue" points="1398.5,-46.083 1402,-56.083 1405.5,-46.083 1398.5,-46.083"/>
</g>
<!-- Node7&#45;&gt;Node3 -->
<g id="edge22" class="edge"><title>Node7&#45;&gt;Node3</title>
<path fill="none" stroke="midnightblue" d="M2115.86,-111.124C2163.03,-104.571 2204.79,-93.7676 2220,-76 2225.78,-69.2469 2226.11,-62.4557 2220,-56 2200.26,-35.1471 1879.88,-22.6954 1646.03,-16.3441"/>
<polygon fill="midnightblue" stroke="midnightblue" points="2115.18,-107.683 2105.72,-112.458 2116.09,-114.623 2115.18,-107.683"/>
</g>
<!-- Node7&#45;&gt;Node8 -->
<g id="edge24" class="edge"><title>Node7&#45;&gt;Node8</title>
<path fill="none" stroke="midnightblue" d="M2034.33,-111.538C2144.39,-101.361 2317.81,-85.3254 2423.79,-75.5264"/>
<polygon fill="midnightblue" stroke="midnightblue" points="2033.85,-108.067 2024.21,-112.473 2034.49,-115.038 2033.85,-108.067"/>
</g>
<!-- Node9 -->
<g id="node23" class="node"><title>Node9</title>
<a xlink:href="_identity_factory_8cpp.html" target="_top" xlink:title="/Users/mcasl/pc&#45;ule/Trabajo/investigacion/AMORE/AMORE&#45;WC/AMORE&#45;WC/pkg/AMORE/src/IdentityFactory.cpp">
<polygon fill="white" stroke="black" points="1679,-56.5 1679,-75.5 2211,-75.5 2211,-56.5 1679,-56.5"/>
<text text-anchor="middle" x="1945" y="-63.5" font-family="Helvetica,sans-Serif" font-size="10.00">/Users/mcasl/pc&#45;ule/Trabajo/investigacion/AMORE/AMORE&#45;WC/AMORE&#45;WC/pkg/AMORE/src/IdentityFactory.cpp</text>
</a>
</g>
<!-- Node7&#45;&gt;Node9 -->
<g id="edge28" class="edge"><title>Node7&#45;&gt;Node9</title>
<path fill="none" stroke="midnightblue" d="M1936.55,-102.101C1938.71,-93.1357 1941.18,-82.8579 1942.89,-75.7511"/>
<polygon fill="midnightblue" stroke="midnightblue" points="1933.08,-101.542 1934.15,-112.083 1939.89,-103.18 1933.08,-101.542"/>
</g>
<!-- Node8&#45;&gt;Node3 -->
<g id="edge26" class="edge"><title>Node8&#45;&gt;Node3</title>
<path fill="none" stroke="midnightblue" d="M2330.22,-55.9944C2120.75,-45.8406 1782.7,-29.4543 1577.54,-19.5091"/>
<polygon fill="midnightblue" stroke="midnightblue" points="2330.25,-59.4999 2340.41,-56.4882 2330.59,-52.5081 2330.25,-59.4999"/>
</g>
<!-- Node9&#45;&gt;Node3 -->
<g id="edge30" class="edge"><title>Node9&#45;&gt;Node3</title>
<path fill="none" stroke="midnightblue" d="M1849.23,-55.4762C1746.87,-45.2965 1586.07,-29.3056 1487.74,-19.5264"/>
<polygon fill="midnightblue" stroke="midnightblue" points="1848.96,-58.9665 1859.26,-56.4733 1849.66,-52.0008 1848.96,-58.9665"/>
</g>
<!-- Node10&#45;&gt;Node3 -->
<g id="edge38" class="edge"><title>Node10&#45;&gt;Node3</title>
<path fill="none" stroke="midnightblue" d="M2777.68,-56.154C2776.12,-56.1025 2774.56,-56.0512 2773,-56 2378.63,-43.0272 1920.45,-27.9968 1646.25,-19.0064"/>
<polygon fill="midnightblue" stroke="midnightblue" points="2777.96,-59.665 2788.07,-56.4958 2778.19,-52.6688 2777.96,-59.665"/>
</g>
</g>
</svg>
