<?xml version="1.0" encoding="UTF-8" standalone="no"?>
<!DOCTYPE svg PUBLIC "-//W3C//DTD SVG 1.1//EN"
 "http://www.w3.org/Graphics/SVG/1.1/DTD/svg11.dtd">
<!-- Generated by graphviz version 2.28.0 (20110610.2051)
 -->
<!-- Title: G Pages: 1 -->
<svg width="2516pt" height="196pt"
 viewBox="0.00 0.00 2516.00 196.00" xmlns="http://www.w3.org/2000/svg" xmlns:xlink="http://www.w3.org/1999/xlink">
<g id="graph1" class="graph" transform="scale(1 1) rotate(0) translate(4 192)">
<title>G</title>
<polygon fill="white" stroke="white" points="-4,5 -4,-192 2513,-192 2513,5 -4,5"/>
<!-- Node1 -->
<g id="node1" class="node"><title>Node1</title>
<polygon fill="#bfbfbf" stroke="black" points="951,-168.5 951,-187.5 1151,-187.5 1151,-168.5 951,-168.5"/>
<text text-anchor="middle" x="1051" y="-175.5" font-family="Helvetica,sans-Serif" font-size="10.00">pkg/AMORE/src/dia/ActivationFunction.h</text>
</g>
<!-- Node2 -->
<g id="node3" class="node"><title>Node2</title>
<a xlink:href="_activation_function_8cpp.html" target="_top" xlink:title="pkg/AMORE/src/ActivationFunction.cpp">
<polygon fill="white" stroke="black" points="0,-56.5 0,-75.5 196,-75.5 196,-56.5 0,-56.5"/>
<text text-anchor="middle" x="98" y="-63.5" font-family="Helvetica,sans-Serif" font-size="10.00">pkg/AMORE/src/ActivationFunction.cpp</text>
</a>
</g>
<!-- Node1&#45;&gt;Node2 -->
<g id="edge2" class="edge"><title>Node1&#45;&gt;Node2</title>
<path fill="none" stroke="midnightblue" d="M940.789,-177.483C744.775,-177.285 343.598,-171.817 210,-132 169.279,-119.864 127.639,-90.2186 108.632,-75.5325"/>
<polygon fill="midnightblue" stroke="midnightblue" points="940.823,-180.983 950.825,-177.488 940.827,-173.983 940.823,-180.983"/>
</g>
<!-- Node3 -->
<g id="node5" class="node"><title>Node3</title>
<a xlink:href="_a_m_o_r_e_8h.html" target="_top" xlink:title="pkg/AMORE/src/AMORE.h">
<polygon fill="white" stroke="black" points="270.5,-0.5 270.5,-19.5 407.5,-19.5 407.5,-0.5 270.5,-0.5"/>
<text text-anchor="middle" x="339" y="-7.5" font-family="Helvetica,sans-Serif" font-size="10.00">pkg/AMORE/src/AMORE.h</text>
</a>
</g>
<!-- Node1&#45;&gt;Node3 -->
<g id="edge6" class="edge"><title>Node1&#45;&gt;Node3</title>
<path fill="none" stroke="midnightblue" d="M940.564,-174.82C724.896,-170.02 266.581,-156.93 243,-132 205.778,-92.6474 287.069,-40.0612 323.019,-19.6273"/>
<polygon fill="midnightblue" stroke="midnightblue" points="940.573,-178.321 950.648,-175.042 940.727,-171.323 940.573,-178.321"/>
</g>
<!-- Node4 -->
<g id="node8" class="node"><title>Node4</title>
<a xlink:href="_tanh_8h.html" target="_top" xlink:title="pkg/AMORE/src/dia/Tanh.h">
<polygon fill="white" stroke="black" points="252.5,-112.5 252.5,-131.5 389.5,-131.5 389.5,-112.5 252.5,-112.5"/>
<text text-anchor="middle" x="321" y="-119.5" font-family="Helvetica,sans-Serif" font-size="10.00">pkg/AMORE/src/dia/Tanh.h</text>
</a>
</g>
<!-- Node1&#45;&gt;Node4 -->
<g id="edge8" class="edge"><title>Node1&#45;&gt;Node4</title>
<path fill="none" stroke="midnightblue" d="M940.606,-170.622C811.734,-162.875 592.229,-148.745 404,-132 399.38,-131.589 394.618,-131.14 389.822,-130.669"/>
<polygon fill="midnightblue" stroke="midnightblue" points="940.683,-174.133 950.875,-171.237 941.102,-167.145 940.683,-174.133"/>
</g>
<!-- Node5 -->
<g id="node11" class="node"><title>Node5</title>
<a xlink:href="_tanh_8cpp.html" target="_top" xlink:title="pkg/AMORE/src/Tanh.cpp">
<polygon fill="white" stroke="black" points="320.5,-56.5 320.5,-75.5 453.5,-75.5 453.5,-56.5 320.5,-56.5"/>
<text text-anchor="middle" x="387" y="-63.5" font-family="Helvetica,sans-Serif" font-size="10.00">pkg/AMORE/src/Tanh.cpp</text>
</a>
</g>
<!-- Node1&#45;&gt;Node5 -->
<g id="edge24" class="edge"><title>Node1&#45;&gt;Node5</title>
<path fill="none" stroke="midnightblue" d="M940.641,-173.782C775.84,-168.245 480.089,-155.212 437,-132 413.436,-119.306 397.516,-90.2013 390.722,-75.6352"/>
<polygon fill="midnightblue" stroke="midnightblue" points="940.706,-177.286 950.817,-174.12 940.938,-170.29 940.706,-177.286"/>
</g>
<!-- Node6 -->
<g id="node14" class="node"><title>Node6</title>
<a xlink:href="_identity_8h.html" target="_top" xlink:title="pkg/AMORE/src/dia/Identity.h">
<polygon fill="white" stroke="black" points="446,-112.5 446,-131.5 596,-131.5 596,-112.5 446,-112.5"/>
<text text-anchor="middle" x="521" y="-119.5" font-family="Helvetica,sans-Serif" font-size="10.00">pkg/AMORE/src/dia/Identity.h</text>
</a>
</g>
<!-- Node1&#45;&gt;Node6 -->
<g id="edge16" class="edge"><title>Node1&#45;&gt;Node6</title>
<path fill="none" stroke="midnightblue" d="M957.232,-167.446C854.267,-156.955 690.984,-140.319 596.107,-130.652"/>
<polygon fill="midnightblue" stroke="midnightblue" points="957.009,-170.942 967.312,-168.473 957.719,-163.978 957.009,-170.942"/>
</g>
<!-- Node7 -->
<g id="node17" class="node"><title>Node7</title>
<a xlink:href="_identity_8cpp.html" target="_top" xlink:title="pkg/AMORE/src/Identity.cpp">
<polygon fill="white" stroke="black" points="510,-56.5 510,-75.5 656,-75.5 656,-56.5 510,-56.5"/>
<text text-anchor="middle" x="583" y="-63.5" font-family="Helvetica,sans-Serif" font-size="10.00">pkg/AMORE/src/Identity.cpp</text>
</a>
</g>
<!-- Node1&#45;&gt;Node7 -->
<g id="edge26" class="edge"><title>Node1&#45;&gt;Node7</title>
<path fill="none" stroke="midnightblue" d="M940.419,-173.465C837.752,-168.637 693.404,-157.453 643,-132 617.227,-118.986 596.95,-90.0312 587.996,-75.5674"/>
<polygon fill="midnightblue" stroke="midnightblue" points="940.383,-176.967 950.532,-173.927 940.702,-169.974 940.383,-176.967"/>
</g>
<!-- Node8 -->
<g id="node22" class="node"><title>Node8</title>
<a xlink:href="_arc_tan_8h.html" target="_top" xlink:title="pkg/AMORE/src/dia/ArcTan.h">
<polygon fill="white" stroke="black" points="652,-112.5 652,-131.5 798,-131.5 798,-112.5 652,-112.5"/>
<text text-anchor="middle" x="725" y="-119.5" font-family="Helvetica,sans-Serif" font-size="10.00">pkg/AMORE/src/dia/ArcTan.h</text>
</a>
</g>
<!-- Node1&#45;&gt;Node8 -->
<g id="edge28" class="edge"><title>Node1&#45;&gt;Node8</title>
<path fill="none" stroke="midnightblue" d="M989.366,-166.791C927.766,-156.587 834.138,-141.078 776.414,-131.516"/>
<polygon fill="midnightblue" stroke="midnightblue" points="988.907,-170.262 999.344,-168.444 990.051,-163.356 988.907,-170.262"/>
</g>
<!-- Node9 -->
<g id="node24" class="node"><title>Node9</title>
<a xlink:href="_cosine_8h.html" target="_top" xlink:title="pkg/AMORE/src/dia/Cosine.h">
<polygon fill="white" stroke="black" points="816.5,-112.5 816.5,-131.5 963.5,-131.5 963.5,-112.5 816.5,-112.5"/>
<text text-anchor="middle" x="890" y="-119.5" font-family="Helvetica,sans-Serif" font-size="10.00">pkg/AMORE/src/dia/Cosine.h</text>
</a>
</g>
<!-- Node1&#45;&gt;Node9 -->
<g id="edge30" class="edge"><title>Node1&#45;&gt;Node9</title>
<path fill="none" stroke="midnightblue" d="M1015.74,-165.172C985.419,-155.004 942.43,-140.585 915.392,-131.516"/>
<polygon fill="midnightblue" stroke="midnightblue" points="1014.9,-168.582 1025.49,-168.444 1017.12,-161.945 1014.9,-168.582"/>
</g>
<!-- Node10 -->
<g id="node26" class="node"><title>Node10</title>
<a xlink:href="_elliot_8h.html" target="_top" xlink:title="pkg/AMORE/src/dia/Elliot.h">
<polygon fill="white" stroke="black" points="982,-112.5 982,-131.5 1120,-131.5 1120,-112.5 982,-112.5"/>
<text text-anchor="middle" x="1051" y="-119.5" font-family="Helvetica,sans-Serif" font-size="10.00">pkg/AMORE/src/dia/Elliot.h</text>
</a>
</g>
<!-- Node1&#45;&gt;Node10 -->
<g id="edge32" class="edge"><title>Node1&#45;&gt;Node10</title>
<path fill="none" stroke="midnightblue" d="M1051,-157.805C1051,-148.91 1051,-138.78 1051,-131.751"/>
<polygon fill="midnightblue" stroke="midnightblue" points="1047.5,-158.083 1051,-168.083 1054.5,-158.083 1047.5,-158.083"/>
</g>
<!-- Node11 -->
<g id="node28" class="node"><title>Node11</title>
<a xlink:href="_exponential_8h.html" target="_top" xlink:title="pkg/AMORE/src/dia/Exponential.h">
<polygon fill="white" stroke="black" points="1138,-112.5 1138,-131.5 1308,-131.5 1308,-112.5 1138,-112.5"/>
<text text-anchor="middle" x="1223" y="-119.5" font-family="Helvetica,sans-Serif" font-size="10.00">pkg/AMORE/src/dia/Exponential.h</text>
</a>
</g>
<!-- Node1&#45;&gt;Node11 -->
<g id="edge34" class="edge"><title>Node1&#45;&gt;Node11</title>
<path fill="none" stroke="midnightblue" d="M1087.83,-165.436C1120.26,-155.255 1166.74,-140.664 1195.87,-131.516"/>
<polygon fill="midnightblue" stroke="midnightblue" points="1086.75,-162.109 1078.25,-168.444 1088.84,-168.787 1086.75,-162.109"/>
</g>
<!-- Node12 -->
<g id="node30" class="node"><title>Node12</title>
<a xlink:href="_gauss_8h.html" target="_top" xlink:title="pkg/AMORE/src/dia/Gauss.h">
<polygon fill="white" stroke="black" points="1326,-112.5 1326,-131.5 1470,-131.5 1470,-112.5 1326,-112.5"/>
<text text-anchor="middle" x="1398" y="-119.5" font-family="Helvetica,sans-Serif" font-size="10.00">pkg/AMORE/src/dia/Gauss.h</text>
</a>
</g>
<!-- Node1&#45;&gt;Node12 -->
<g id="edge36" class="edge"><title>Node1&#45;&gt;Node12</title>
<path fill="none" stroke="midnightblue" d="M1116.2,-166.854C1181.76,-156.651 1281.71,-141.098 1343.27,-131.516"/>
<polygon fill="midnightblue" stroke="midnightblue" points="1115.33,-163.447 1105.98,-168.444 1116.4,-170.364 1115.33,-163.447"/>
</g>
<!-- Node13 -->
<g id="node32" class="node"><title>Node13</title>
<a xlink:href="_logistic_8h.html" target="_top" xlink:title="pkg/AMORE/src/dia/Logistic.h">
<polygon fill="white" stroke="black" points="1488,-112.5 1488,-131.5 1640,-131.5 1640,-112.5 1488,-112.5"/>
<text text-anchor="middle" x="1564" y="-119.5" font-family="Helvetica,sans-Serif" font-size="10.00">pkg/AMORE/src/dia/Logistic.h</text>
</a>
</g>
<!-- Node1&#45;&gt;Node13 -->
<g id="edge38" class="edge"><title>Node1&#45;&gt;Node13</title>
<path fill="none" stroke="midnightblue" d="M1142.32,-167.418C1228.98,-158.321 1362.86,-144.254 1479,-132 1481.8,-131.704 1484.66,-131.403 1487.54,-131.098"/>
<polygon fill="midnightblue" stroke="midnightblue" points="1141.84,-163.95 1132.26,-168.475 1142.57,-170.911 1141.84,-163.95"/>
</g>
<!-- Node14 -->
<g id="node34" class="node"><title>Node14</title>
<a xlink:href="_radial_basis_8h.html" target="_top" xlink:title="pkg/AMORE/src/dia/RadialBasis.h">
<polygon fill="white" stroke="black" points="1658.5,-112.5 1658.5,-131.5 1827.5,-131.5 1827.5,-112.5 1658.5,-112.5"/>
<text text-anchor="middle" x="1743" y="-119.5" font-family="Helvetica,sans-Serif" font-size="10.00">pkg/AMORE/src/dia/RadialBasis.h</text>
</a>
</g>
<!-- Node1&#45;&gt;Node14 -->
<g id="edge40" class="edge"><title>Node1&#45;&gt;Node14</title>
<path fill="none" stroke="midnightblue" d="M1161.33,-169.372C1281.37,-160.916 1478.91,-146.541 1649,-132 1652.1,-131.735 1655.26,-131.459 1658.46,-131.176"/>
<polygon fill="midnightblue" stroke="midnightblue" points="1160.77,-165.903 1151.04,-170.097 1161.26,-172.886 1160.77,-165.903"/>
</g>
<!-- Node15 -->
<g id="node36" class="node"><title>Node15</title>
<a xlink:href="_reciprocal_8h.html" target="_top" xlink:title="pkg/AMORE/src/dia/Reciprocal.h">
<polygon fill="white" stroke="black" points="1846,-112.5 1846,-131.5 2010,-131.5 2010,-112.5 1846,-112.5"/>
<text text-anchor="middle" x="1928" y="-119.5" font-family="Helvetica,sans-Serif" font-size="10.00">pkg/AMORE/src/dia/Reciprocal.h</text>
</a>
</g>
<!-- Node1&#45;&gt;Node15 -->
<g id="edge42" class="edge"><title>Node1&#45;&gt;Node15</title>
<path fill="none" stroke="midnightblue" d="M1161.42,-172.074C1313.44,-164.971 1595.69,-150.634 1836,-132 1839.2,-131.752 1842.46,-131.488 1845.76,-131.211"/>
<polygon fill="midnightblue" stroke="midnightblue" points="1160.98,-168.59 1151.15,-172.552 1161.3,-175.583 1160.98,-168.59"/>
</g>
<!-- Node16 -->
<g id="node38" class="node"><title>Node16</title>
<a xlink:href="_sine_8h.html" target="_top" xlink:title="pkg/AMORE/src/dia/Sine.h">
<polygon fill="white" stroke="black" points="2028,-112.5 2028,-131.5 2164,-131.5 2164,-112.5 2028,-112.5"/>
<text text-anchor="middle" x="2096" y="-119.5" font-family="Helvetica,sans-Serif" font-size="10.00">pkg/AMORE/src/dia/Sine.h</text>
</a>
</g>
<!-- Node1&#45;&gt;Node16 -->
<g id="edge44" class="edge"><title>Node1&#45;&gt;Node16</title>
<path fill="none" stroke="midnightblue" d="M1161.39,-174.379C1341.28,-169.543 1708.74,-157.313 2019,-132 2021.82,-131.77 2024.69,-131.517 2027.59,-131.247"/>
<polygon fill="midnightblue" stroke="midnightblue" points="1161.03,-170.887 1151.13,-174.652 1161.22,-177.884 1161.03,-170.887"/>
</g>
<!-- Node17 -->
<g id="node40" class="node"><title>Node17</title>
<a xlink:href="_square_8h.html" target="_top" xlink:title="pkg/AMORE/src/dia/Square.h">
<polygon fill="white" stroke="black" points="2182,-112.5 2182,-131.5 2330,-131.5 2330,-112.5 2182,-112.5"/>
<text text-anchor="middle" x="2256" y="-119.5" font-family="Helvetica,sans-Serif" font-size="10.00">pkg/AMORE/src/dia/Square.h</text>
</a>
</g>
<!-- Node1&#45;&gt;Node17 -->
<g id="edge46" class="edge"><title>Node1&#45;&gt;Node17</title>
<path fill="none" stroke="midnightblue" d="M1161.61,-175.054C1363.03,-170.956 1803,-159.448 2173,-132 2175.89,-131.786 2178.84,-131.55 2181.81,-131.297"/>
<polygon fill="midnightblue" stroke="midnightblue" points="1161.25,-171.56 1151.33,-175.261 1161.39,-178.559 1161.25,-171.56"/>
</g>
<!-- Node18 -->
<g id="node42" class="node"><title>Node18</title>
<a xlink:href="_threshold_8h.html" target="_top" xlink:title="pkg/AMORE/src/dia/Threshold.h">
<polygon fill="white" stroke="black" points="2348,-112.5 2348,-131.5 2508,-131.5 2508,-112.5 2348,-112.5"/>
<text text-anchor="middle" x="2428" y="-119.5" font-family="Helvetica,sans-Serif" font-size="10.00">pkg/AMORE/src/dia/Threshold.h</text>
</a>
</g>
<!-- Node1&#45;&gt;Node18 -->
<g id="edge48" class="edge"><title>Node1&#45;&gt;Node18</title>
<path fill="none" stroke="midnightblue" d="M1161.38,-175.592C1384.22,-172.208 1903.69,-161.582 2339,-132 2341.94,-131.8 2344.94,-131.58 2347.97,-131.344"/>
<polygon fill="midnightblue" stroke="midnightblue" points="1161.27,-172.093 1151.32,-175.742 1161.37,-179.092 1161.27,-172.093"/>
</g>
<!-- Node2&#45;&gt;Node3 -->
<g id="edge4" class="edge"><title>Node2&#45;&gt;Node3</title>
<path fill="none" stroke="midnightblue" d="M146.123,-54.2172C191.662,-44.0134 259.11,-28.9006 300.991,-19.5164"/>
<polygon fill="midnightblue" stroke="midnightblue" points="145.18,-50.8417 136.187,-56.4435 146.71,-57.6723 145.18,-50.8417"/>
</g>
<!-- Node4&#45;&gt;Node3 -->
<g id="edge10" class="edge"><title>Node4&#45;&gt;Node3</title>
<path fill="none" stroke="midnightblue" d="M314.05,-102.7C310.042,-89.529 306.589,-71.4381 311,-56 314.994,-42.0212 324.724,-28.156 331.588,-19.5891"/>
<polygon fill="midnightblue" stroke="midnightblue" points="310.834,-104.114 317.386,-112.44 317.456,-101.845 310.834,-104.114"/>
</g>
<!-- Node4&#45;&gt;Node5 -->
<g id="edge12" class="edge"><title>Node4&#45;&gt;Node5</title>
<path fill="none" stroke="midnightblue" d="M339.554,-105.82C351.378,-96.1452 366.286,-83.9481 376.203,-75.8339"/>
<polygon fill="midnightblue" stroke="midnightblue" points="337.127,-103.283 331.604,-112.324 341.56,-108.7 337.127,-103.283"/>
</g>
<!-- Node5&#45;&gt;Node3 -->
<g id="edge14" class="edge"><title>Node5&#45;&gt;Node3</title>
<path fill="none" stroke="midnightblue" d="M372.272,-48.4314C363.86,-38.9673 353.651,-27.4827 346.779,-19.7511"/>
<polygon fill="midnightblue" stroke="midnightblue" points="369.814,-50.9342 379.074,-56.083 375.046,-46.2836 369.814,-50.9342"/>
</g>
<!-- Node6&#45;&gt;Node3 -->
<g id="edge18" class="edge"><title>Node6&#45;&gt;Node3</title>
<path fill="none" stroke="midnightblue" d="M509.296,-104.043C498.501,-89.5228 481.267,-68.9631 462,-56 435.776,-38.3567 401.768,-26.6062 376.159,-19.5509"/>
<polygon fill="midnightblue" stroke="midnightblue" points="506.467,-106.105 515.145,-112.182 512.151,-102.019 506.467,-106.105"/>
</g>
<!-- Node6&#45;&gt;Node7 -->
<g id="edge20" class="edge"><title>Node6&#45;&gt;Node7</title>
<path fill="none" stroke="midnightblue" d="M538.754,-105.537C549.808,-95.9087 563.631,-83.8694 572.857,-75.8339"/>
<polygon fill="midnightblue" stroke="midnightblue" points="536.203,-103.117 530.961,-112.324 540.801,-108.395 536.203,-103.117"/>
</g>
<!-- Node7&#45;&gt;Node3 -->
<g id="edge22" class="edge"><title>Node7&#45;&gt;Node3</title>
<path fill="none" stroke="midnightblue" d="M534.568,-54.2815C488.459,-44.0769 419.973,-28.9203 377.482,-19.5164"/>
<polygon fill="midnightblue" stroke="midnightblue" points="533.817,-57.6999 544.337,-56.4435 535.33,-50.8653 533.817,-57.6999"/>
</g>
</g>
</svg>
