<?xml version="1.0" encoding="UTF-8" standalone="no"?>
<!DOCTYPE svg PUBLIC "-//W3C//DTD SVG 1.1//EN"
 "http://www.w3.org/Graphics/SVG/1.1/DTD/svg11.dtd">
<!-- Generated by graphviz version 2.28.0 (20110610.2051)
 -->
<!-- Title: G Pages: 1 -->
<svg width="586pt" height="140pt"
 viewBox="0.00 0.00 586.00 140.00" xmlns="http://www.w3.org/2000/svg" xmlns:xlink="http://www.w3.org/1999/xlink">
<g id="graph1" class="graph" transform="scale(1 1) rotate(0) translate(4 136)">
<title>G</title>
<polygon fill="white" stroke="white" points="-4,5 -4,-136 583,-136 583,5 -4,5"/>
<!-- Node1 -->
<g id="node1" class="node"><title>Node1</title>
<polygon fill="#bfbfbf" stroke="black" points="0,-112.5 0,-131.5 578,-131.5 578,-112.5 0,-112.5"/>
<text text-anchor="middle" x="289" y="-119.5" font-family="Helvetica,sans-Serif" font-size="10.00">/Users/mcasl/pc&#45;ule/Trabajo/investigacion/AMORE/AMORE&#45;WC/AMORE&#45;WC/pkg/AMORE/src/classHeaders/BATCHgdwm.h</text>
</g>
<!-- Node2 -->
<g id="node3" class="node"><title>Node2</title>
<a xlink:href="_batch_behavior_8h.html" target="_top" xlink:title="BatchBehavior.h">
<polygon fill="white" stroke="black" points="243,-56.5 243,-75.5 335,-75.5 335,-56.5 243,-56.5"/>
<text text-anchor="middle" x="289" y="-63.5" font-family="Helvetica,sans-Serif" font-size="10.00">BatchBehavior.h</text>
</a>
</g>
<!-- Node1&#45;&gt;Node2 -->
<g id="edge2" class="edge"><title>Node1&#45;&gt;Node2</title>
<path fill="none" stroke="midnightblue" d="M289,-112.083C289,-105.006 289,-94.8611 289,-85.9865"/>
<polygon fill="midnightblue" stroke="midnightblue" points="292.5,-85.751 289,-75.7511 285.5,-85.7511 292.5,-85.751"/>
</g>
<!-- Node3 -->
<g id="node5" class="node"><title>Node3</title>
<a xlink:href="_training_behavior_8h.html" target="_top" xlink:title="TrainingBehavior.h">
<polygon fill="white" stroke="black" points="238.5,-0.5 238.5,-19.5 339.5,-19.5 339.5,-0.5 238.5,-0.5"/>
<text text-anchor="middle" x="289" y="-7.5" font-family="Helvetica,sans-Serif" font-size="10.00">TrainingBehavior.h</text>
</a>
</g>
<!-- Node2&#45;&gt;Node3 -->
<g id="edge4" class="edge"><title>Node2&#45;&gt;Node3</title>
<path fill="none" stroke="midnightblue" d="M289,-56.083C289,-49.0059 289,-38.8611 289,-29.9865"/>
<polygon fill="midnightblue" stroke="midnightblue" points="292.5,-29.751 289,-19.7511 285.5,-29.7511 292.5,-29.751"/>
</g>
</g>
</svg>
