<?xml version="1.0" encoding="UTF-8" standalone="no"?>
<!DOCTYPE svg PUBLIC "-//W3C//DTD SVG 1.1//EN"
 "http://www.w3.org/Graphics/SVG/1.1/DTD/svg11.dtd">
<!-- Generated by graphviz version 2.28.0 (20110610.2051)
 -->
<!-- Title: G Pages: 1 -->
<svg width="2855pt" height="140pt"
 viewBox="0.00 0.00 2855.00 140.00" xmlns="http://www.w3.org/2000/svg" xmlns:xlink="http://www.w3.org/1999/xlink">
<g id="graph1" class="graph" transform="scale(1 1) rotate(0) translate(4 136)">
<title>G</title>
<polygon fill="white" stroke="white" points="-4,5 -4,-136 2852,-136 2852,5 -4,5"/>
<!-- Node1 -->
<g id="node1" class="node"><title>Node1</title>
<polygon fill="#bfbfbf" stroke="black" points="1092.5,-112.5 1092.5,-131.5 1729.5,-131.5 1729.5,-112.5 1092.5,-112.5"/>
<text text-anchor="middle" x="1411" y="-119.5" font-family="Helvetica,sans-Serif" font-size="10.00">/Users/mcasl/pc&#45;ule/Trabajo/investigacion/AMORE/AMORE&#45;WC/AMORE&#45;WC/pkg/AMORE/src/classHeaders/BatchNeuronTrainBehavior.h</text>
</g>
<!-- Node2 -->
<g id="node3" class="node"><title>Node2</title>
<a xlink:href="_b_a_t_c_hgd_neuron_train_behavior_8h.html" target="_top" xlink:title="/Users/mcasl/pc&#45;ule/Trabajo/investigacion/AMORE/AMORE&#45;WC/AMORE&#45;WC/pkg/AMORE/src/classHeaders/BATCHgdNeuronTrainBehavior.h">
<polygon fill="white" stroke="black" points="724.5,-56.5 724.5,-75.5 1381.5,-75.5 1381.5,-56.5 724.5,-56.5"/>
<text text-anchor="middle" x="1053" y="-63.5" font-family="Helvetica,sans-Serif" font-size="10.00">/Users/mcasl/pc&#45;ule/Trabajo/investigacion/AMORE/AMORE&#45;WC/AMORE&#45;WC/pkg/AMORE/src/classHeaders/BATCHgdNeuronTrainBehavior.h</text>
</a>
</g>
<!-- Node1&#45;&gt;Node2 -->
<g id="edge2" class="edge"><title>Node1&#45;&gt;Node2</title>
<path fill="none" stroke="midnightblue" d="M1344.15,-110.917C1276.52,-100.715 1173.11,-85.1174 1109.46,-75.5164"/>
<polygon fill="midnightblue" stroke="midnightblue" points="1343.86,-114.413 1354.27,-112.444 1344.91,-107.491 1343.86,-114.413"/>
</g>
<!-- Node5 -->
<g id="node9" class="node"><title>Node5</title>
<a xlink:href="_b_a_t_c_hgdwm_neuron_train_behavior_8h.html" target="_top" xlink:title="/Users/mcasl/pc&#45;ule/Trabajo/investigacion/AMORE/AMORE&#45;WC/AMORE&#45;WC/pkg/AMORE/src/classHeaders/BATCHgdwmNeuronTrainBehavior.h">
<polygon fill="white" stroke="black" points="1432,-56.5 1432,-75.5 2106,-75.5 2106,-56.5 1432,-56.5"/>
<text text-anchor="middle" x="1769" y="-63.5" font-family="Helvetica,sans-Serif" font-size="10.00">/Users/mcasl/pc&#45;ule/Trabajo/investigacion/AMORE/AMORE&#45;WC/AMORE&#45;WC/pkg/AMORE/src/classHeaders/BATCHgdwmNeuronTrainBehavior.h</text>
</a>
</g>
<!-- Node1&#45;&gt;Node5 -->
<g id="edge8" class="edge"><title>Node1&#45;&gt;Node5</title>
<path fill="none" stroke="midnightblue" d="M1477.85,-110.917C1545.48,-100.715 1648.89,-85.1174 1712.54,-75.5164"/>
<polygon fill="midnightblue" stroke="midnightblue" points="1477.09,-107.491 1467.73,-112.444 1478.14,-114.413 1477.09,-107.491"/>
</g>
<!-- Node3 -->
<g id="node5" class="node"><title>Node3</title>
<a xlink:href="_b_a_t_c_hgd_hidden_neuron_train_behavior_8h.html" target="_top" xlink:title="/Users/mcasl/pc&#45;ule/Trabajo/investigacion/AMORE/AMORE&#45;WC/AMORE&#45;WC/pkg/AMORE/src/classHeaders/BATCHgdHiddenNeuronTrainBehavior.h">
<polygon fill="white" stroke="black" points="0,-0.5 0,-19.5 690,-19.5 690,-0.5 0,-0.5"/>
<text text-anchor="middle" x="345" y="-7.5" font-family="Helvetica,sans-Serif" font-size="10.00">/Users/mcasl/pc&#45;ule/Trabajo/investigacion/AMORE/AMORE&#45;WC/AMORE&#45;WC/pkg/AMORE/src/classHeaders/BATCHgdHiddenNeuronTrainBehavior.h</text>
</a>
</g>
<!-- Node2&#45;&gt;Node3 -->
<g id="edge4" class="edge"><title>Node2&#45;&gt;Node3</title>
<path fill="none" stroke="midnightblue" d="M930.941,-55.6904C797.523,-45.5144 585.591,-29.3502 456.499,-19.5042"/>
<polygon fill="midnightblue" stroke="midnightblue" points="930.969,-59.2026 941.206,-56.4733 931.501,-52.2229 930.969,-59.2026"/>
</g>
<!-- Node4 -->
<g id="node7" class="node"><title>Node4</title>
<a xlink:href="_b_a_t_c_hgd_output_neuron_train_behavior_8h.html" target="_top" xlink:title="/Users/mcasl/pc&#45;ule/Trabajo/investigacion/AMORE/AMORE&#45;WC/AMORE&#45;WC/pkg/AMORE/src/classHeaders/BATCHgdOutputNeuronTrainBehavior.h">
<polygon fill="white" stroke="black" points="708.5,-0.5 708.5,-19.5 1397.5,-19.5 1397.5,-0.5 708.5,-0.5"/>
<text text-anchor="middle" x="1053" y="-7.5" font-family="Helvetica,sans-Serif" font-size="10.00">/Users/mcasl/pc&#45;ule/Trabajo/investigacion/AMORE/AMORE&#45;WC/AMORE&#45;WC/pkg/AMORE/src/classHeaders/BATCHgdOutputNeuronTrainBehavior.h</text>
</a>
</g>
<!-- Node2&#45;&gt;Node4 -->
<g id="edge6" class="edge"><title>Node2&#45;&gt;Node4</title>
<path fill="none" stroke="midnightblue" d="M1053,-45.8045C1053,-36.9102 1053,-26.7798 1053,-19.7511"/>
<polygon fill="midnightblue" stroke="midnightblue" points="1049.5,-46.083 1053,-56.083 1056.5,-46.083 1049.5,-46.083"/>
</g>
<!-- Node6 -->
<g id="node11" class="node"><title>Node6</title>
<a xlink:href="_b_a_t_c_hgdwm_hidden_neuron_train_behavior_8h.html" target="_top" xlink:title="/Users/mcasl/pc&#45;ule/Trabajo/investigacion/AMORE/AMORE&#45;WC/AMORE&#45;WC/pkg/AMORE/src/classHeaders/BATCHgdwmHiddenNeuronTrainBehavior.h">
<polygon fill="white" stroke="black" points="1415.5,-0.5 1415.5,-19.5 2122.5,-19.5 2122.5,-0.5 1415.5,-0.5"/>
<text text-anchor="middle" x="1769" y="-7.5" font-family="Helvetica,sans-Serif" font-size="10.00">/Users/mcasl/pc&#45;ule/Trabajo/investigacion/AMORE/AMORE&#45;WC/AMORE&#45;WC/pkg/AMORE/src/classHeaders/BATCHgdwmHiddenNeuronTrainBehavior.h</text>
</a>
</g>
<!-- Node5&#45;&gt;Node6 -->
<g id="edge10" class="edge"><title>Node5&#45;&gt;Node6</title>
<path fill="none" stroke="midnightblue" d="M1769,-45.8045C1769,-36.9102 1769,-26.7798 1769,-19.7511"/>
<polygon fill="midnightblue" stroke="midnightblue" points="1765.5,-46.083 1769,-56.083 1772.5,-46.083 1765.5,-46.083"/>
</g>
<!-- Node7 -->
<g id="node13" class="node"><title>Node7</title>
<a xlink:href="_b_a_t_c_hgdwm_output_neuron_train_behavior_8h.html" target="_top" xlink:title="/Users/mcasl/pc&#45;ule/Trabajo/investigacion/AMORE/AMORE&#45;WC/AMORE&#45;WC/pkg/AMORE/src/classHeaders/BATCHgdwmOutputNeuronTrainBehavior.h">
<polygon fill="white" stroke="black" points="2141,-0.5 2141,-19.5 2847,-19.5 2847,-0.5 2141,-0.5"/>
<text text-anchor="middle" x="2494" y="-7.5" font-family="Helvetica,sans-Serif" font-size="10.00">/Users/mcasl/pc&#45;ule/Trabajo/investigacion/AMORE/AMORE&#45;WC/AMORE&#45;WC/pkg/AMORE/src/classHeaders/BATCHgdwmOutputNeuronTrainBehavior.h</text>
</a>
</g>
<!-- Node5&#45;&gt;Node7 -->
<g id="edge12" class="edge"><title>Node5&#45;&gt;Node7</title>
<path fill="none" stroke="midnightblue" d="M1893.58,-55.721C2030.18,-45.5468 2247.5,-29.36 2379.82,-19.5042"/>
<polygon fill="midnightblue" stroke="midnightblue" points="1893.19,-52.2401 1883.48,-56.4733 1893.71,-59.2208 1893.19,-52.2401"/>
</g>
</g>
</svg>
