<?xml version="1.0" encoding="UTF-8" standalone="no"?>
<!DOCTYPE svg PUBLIC "-//W3C//DTD SVG 1.1//EN"
 "http://www.w3.org/Graphics/SVG/1.1/DTD/svg11.dtd">
<!-- Generated by graphviz version 2.28.0 (20110610.2051)
 -->
<!-- Title: G Pages: 1 -->
<svg width="367pt" height="84pt"
 viewBox="0.00 0.00 367.00 84.00" xmlns="http://www.w3.org/2000/svg" xmlns:xlink="http://www.w3.org/1999/xlink">
<g id="graph1" class="graph" transform="scale(1 1) rotate(0) translate(4 80)">
<title>G</title>
<polygon fill="white" stroke="white" points="-4,5 -4,-80 364,-80 364,5 -4,5"/>
<!-- Node1 -->
<g id="node1" class="node"><title>Node1</title>
<polygon fill="#bfbfbf" stroke="black" points="84,-56.5 84,-75.5 266,-75.5 266,-56.5 84,-56.5"/>
<text text-anchor="middle" x="175" y="-63.5" font-family="Helvetica,sans-Serif" font-size="10.00">pkg/AMORE/src/dia/BatchBehavior.h</text>
</g>
<!-- Node2 -->
<g id="node3" class="node"><title>Node2</title>
<a xlink:href="_b_a_t_c_hgd_8h.html" target="_top" xlink:title="pkg/AMORE/src/dia/BATCHgd.h">
<polygon fill="white" stroke="black" points="0,-0.5 0,-19.5 162,-19.5 162,-0.5 0,-0.5"/>
<text text-anchor="middle" x="81" y="-7.5" font-family="Helvetica,sans-Serif" font-size="10.00">pkg/AMORE/src/dia/BATCHgd.h</text>
</a>
</g>
<!-- Node1&#45;&gt;Node2 -->
<g id="edge2" class="edge"><title>Node1&#45;&gt;Node2</title>
<path fill="none" stroke="midnightblue" d="M150.938,-51.1774C133.641,-41.2407 110.852,-28.1492 96.0652,-19.6545"/>
<polygon fill="midnightblue" stroke="midnightblue" points="149.483,-54.3775 159.897,-56.324 152.97,-48.3078 149.483,-54.3775"/>
</g>
<!-- Node3 -->
<g id="node5" class="node"><title>Node3</title>
<a xlink:href="_b_a_t_c_hgdwm_8h.html" target="_top" xlink:title="pkg/AMORE/src/dia/BATCHgdwm.h">
<polygon fill="white" stroke="black" points="180.5,-0.5 180.5,-19.5 359.5,-19.5 359.5,-0.5 180.5,-0.5"/>
<text text-anchor="middle" x="270" y="-7.5" font-family="Helvetica,sans-Serif" font-size="10.00">pkg/AMORE/src/dia/BATCHgdwm.h</text>
</a>
</g>
<!-- Node1&#45;&gt;Node3 -->
<g id="edge4" class="edge"><title>Node1&#45;&gt;Node3</title>
<path fill="none" stroke="midnightblue" d="M199.318,-51.1774C216.799,-41.2407 239.83,-28.1492 254.774,-19.6545"/>
<polygon fill="midnightblue" stroke="midnightblue" points="197.227,-48.3395 190.263,-56.324 200.687,-54.425 197.227,-48.3395"/>
</g>
</g>
</svg>
