<?xml version="1.0" encoding="UTF-8" standalone="no"?>
<!DOCTYPE svg PUBLIC "-//W3C//DTD SVG 1.1//EN"
 "http://www.w3.org/Graphics/SVG/1.1/DTD/svg11.dtd">
<!-- Generated by graphviz version 2.28.0 (20110610.2051)
 -->
<!-- Title: G Pages: 1 -->
<svg width="162pt" height="140pt"
 viewBox="0.00 0.00 162.00 140.00" xmlns="http://www.w3.org/2000/svg" xmlns:xlink="http://www.w3.org/1999/xlink">
<g id="graph1" class="graph" transform="scale(1 1) rotate(0) translate(4 136)">
<title>G</title>
<polygon fill="white" stroke="white" points="-4,5 -4,-136 159,-136 159,5 -4,5"/>
<!-- Node1 -->
<g id="node1" class="node"><title>Node1</title>
<polygon fill="#bfbfbf" stroke="black" points="-0.5,-112.5 -0.5,-131.5 154.5,-131.5 154.5,-112.5 -0.5,-112.5"/>
<text text-anchor="middle" x="77" y="-119.5" font-family="Helvetica,sans-Serif" font-size="10.00">pkg/AMORE/src/Container.cpp</text>
</g>
<!-- Node2 -->
<g id="node3" class="node"><title>Node2</title>
<a xlink:href="dia_2_container_8h.html" target="_top" xlink:title="dia/Container.h">
<polygon fill="white" stroke="black" points="34.5,-56.5 34.5,-75.5 119.5,-75.5 119.5,-56.5 34.5,-56.5"/>
<text text-anchor="middle" x="77" y="-63.5" font-family="Helvetica,sans-Serif" font-size="10.00">dia/Container.h</text>
</a>
</g>
<!-- Node1&#45;&gt;Node2 -->
<g id="edge2" class="edge"><title>Node1&#45;&gt;Node2</title>
<path fill="none" stroke="midnightblue" d="M77,-112.083C77,-105.006 77,-94.8611 77,-85.9865"/>
<polygon fill="midnightblue" stroke="midnightblue" points="80.5001,-85.751 77,-75.7511 73.5001,-85.7511 80.5001,-85.751"/>
</g>
<!-- Node3 -->
<g id="node5" class="node"><title>Node3</title>
<a xlink:href="_container_interface_8h.html" target="_top" xlink:title="ContainerInterface.h">
<polygon fill="white" stroke="black" points="22,-0.5 22,-19.5 132,-19.5 132,-0.5 22,-0.5"/>
<text text-anchor="middle" x="77" y="-7.5" font-family="Helvetica,sans-Serif" font-size="10.00">ContainerInterface.h</text>
</a>
</g>
<!-- Node2&#45;&gt;Node3 -->
<g id="edge4" class="edge"><title>Node2&#45;&gt;Node3</title>
<path fill="none" stroke="midnightblue" d="M77,-56.083C77,-49.0059 77,-38.8611 77,-29.9865"/>
<polygon fill="midnightblue" stroke="midnightblue" points="80.5001,-29.751 77,-19.7511 73.5001,-29.7511 80.5001,-29.751"/>
</g>
</g>
</svg>
