<?xml version="1.0" encoding="UTF-8" standalone="no"?>
<!DOCTYPE svg PUBLIC "-//W3C//DTD SVG 1.1//EN"
 "http://www.w3.org/Graphics/SVG/1.1/DTD/svg11.dtd">
<!-- Generated by graphviz version 2.28.0 (20110610.2051)
 -->
<!-- Title: G Pages: 1 -->
<svg width="419pt" height="196pt"
 viewBox="0.00 0.00 419.00 196.00" xmlns="http://www.w3.org/2000/svg" xmlns:xlink="http://www.w3.org/1999/xlink">
<g id="graph1" class="graph" transform="scale(1 1) rotate(0) translate(4 192)">
<title>G</title>
<polygon fill="white" stroke="white" points="-4,5 -4,-192 416,-192 416,5 -4,5"/>
<!-- Node1 -->
<g id="node1" class="node"><title>Node1</title>
<polygon fill="#bfbfbf" stroke="black" points="3,-168.5 3,-187.5 203,-187.5 203,-168.5 3,-168.5"/>
<text text-anchor="middle" x="103" y="-175.5" font-family="Helvetica,sans-Serif" font-size="10.00">pkg/AMORE/src/dia/ContainerInterface.h</text>
</g>
<!-- Node2 -->
<g id="node3" class="node"><title>Node2</title>
<a xlink:href="_a_m_o_r_e_8h.html" target="_top" xlink:title="pkg/AMORE/src/AMORE.h">
<polygon fill="white" stroke="black" points="-0.5,-0.5 -0.5,-19.5 136.5,-19.5 136.5,-0.5 -0.5,-0.5"/>
<text text-anchor="middle" x="68" y="-7.5" font-family="Helvetica,sans-Serif" font-size="10.00">pkg/AMORE/src/AMORE.h</text>
</a>
</g>
<!-- Node1&#45;&gt;Node2 -->
<g id="edge2" class="edge"><title>Node1&#45;&gt;Node2</title>
<path fill="none" stroke="midnightblue" d="M56.728,-164.728C40.3108,-157.904 23.5528,-147.535 14,-132 3.79077,-115.398 16.9974,-75.0496 27,-56 34.6649,-41.4025 48.213,-27.8855 57.628,-19.5527"/>
<polygon fill="midnightblue" stroke="midnightblue" points="55.7063,-168.084 66.2978,-168.349 58.1835,-161.537 55.7063,-168.084"/>
</g>
<!-- Node3 -->
<g id="node5" class="node"><title>Node3</title>
<a xlink:href="dia_2_container_8h.html" target="_top" xlink:title="pkg/AMORE/src/dia/Container.h">
<polygon fill="white" stroke="black" points="23.5,-112.5 23.5,-131.5 182.5,-131.5 182.5,-112.5 23.5,-112.5"/>
<text text-anchor="middle" x="103" y="-119.5" font-family="Helvetica,sans-Serif" font-size="10.00">pkg/AMORE/src/dia/Container.h</text>
</a>
</g>
<!-- Node1&#45;&gt;Node3 -->
<g id="edge4" class="edge"><title>Node1&#45;&gt;Node3</title>
<path fill="none" stroke="midnightblue" d="M103,-157.805C103,-148.91 103,-138.78 103,-131.751"/>
<polygon fill="midnightblue" stroke="midnightblue" points="99.5001,-158.083 103,-168.083 106.5,-158.083 99.5001,-158.083"/>
</g>
<!-- Node5 -->
<g id="node11" class="node"><title>Node5</title>
<a xlink:href="container_interface_8cpp.html" target="_top" xlink:title="pkg/AMORE/src/containerInterface.cpp">
<polygon fill="white" stroke="black" points="217,-56.5 217,-75.5 411,-75.5 411,-56.5 217,-56.5"/>
<text text-anchor="middle" x="314" y="-63.5" font-family="Helvetica,sans-Serif" font-size="10.00">pkg/AMORE/src/containerInterface.cpp</text>
</a>
</g>
<!-- Node1&#45;&gt;Node5 -->
<g id="edge12" class="edge"><title>Node1&#45;&gt;Node5</title>
<path fill="none" stroke="midnightblue" d="M128.966,-163.837C146.514,-154.914 170.189,-142.819 191,-132 229.359,-112.058 274.211,-88.2247 297.722,-75.6916"/>
<polygon fill="midnightblue" stroke="midnightblue" points="127.235,-160.791 119.905,-168.44 130.406,-167.032 127.235,-160.791"/>
</g>
<!-- Node3&#45;&gt;Node2 -->
<g id="edge6" class="edge"><title>Node3&#45;&gt;Node2</title>
<path fill="none" stroke="midnightblue" d="M69.94,-108.008C56.2342,-100.781 41.7486,-90.3042 34,-76 23.2027,-56.0677 43.858,-32.4289 57.4472,-19.8744"/>
<polygon fill="midnightblue" stroke="midnightblue" points="68.686,-111.29 79.2116,-112.499 71.7376,-104.99 68.686,-111.29"/>
</g>
<!-- Node4 -->
<g id="node8" class="node"><title>Node4</title>
<a xlink:href="_container_8cpp.html" target="_top" xlink:title="pkg/AMORE/src/Container.cpp">
<polygon fill="white" stroke="black" points="43.5,-56.5 43.5,-75.5 198.5,-75.5 198.5,-56.5 43.5,-56.5"/>
<text text-anchor="middle" x="121" y="-63.5" font-family="Helvetica,sans-Serif" font-size="10.00">pkg/AMORE/src/Container.cpp</text>
</a>
</g>
<!-- Node3&#45;&gt;Node4 -->
<g id="edge8" class="edge"><title>Node3&#45;&gt;Node4</title>
<path fill="none" stroke="midnightblue" d="M109.201,-102.396C112.213,-93.362 115.688,-82.936 118.083,-75.7511"/>
<polygon fill="midnightblue" stroke="midnightblue" points="105.814,-101.489 105.972,-112.083 112.455,-103.703 105.814,-101.489"/>
</g>
<!-- Node4&#45;&gt;Node2 -->
<g id="edge10" class="edge"><title>Node4&#45;&gt;Node2</title>
<path fill="none" stroke="midnightblue" d="M105.019,-48.7175C95.6775,-39.1997 84.2541,-27.5608 76.589,-19.7511"/>
<polygon fill="midnightblue" stroke="midnightblue" points="102.746,-51.3978 112.248,-56.083 107.741,-46.4945 102.746,-51.3978"/>
</g>
<!-- Node5&#45;&gt;Node2 -->
<g id="edge14" class="edge"><title>Node5&#45;&gt;Node2</title>
<path fill="none" stroke="midnightblue" d="M265.171,-54.2815C218.684,-44.0769 149.637,-28.9203 106.797,-19.5164"/>
<polygon fill="midnightblue" stroke="midnightblue" points="264.503,-57.718 275.021,-56.4435 266.004,-50.8808 264.503,-57.718"/>
</g>
</g>
</svg>
