<?xml version="1.0" encoding="UTF-8" standalone="no"?>
<!DOCTYPE svg PUBLIC "-//W3C//DTD SVG 1.1//EN"
 "http://www.w3.org/Graphics/SVG/1.1/DTD/svg11.dtd">
<!-- Generated by graphviz version 2.28.0 (20110610.2051)
 -->
<!-- Title: G Pages: 1 -->
<svg width="260pt" height="140pt"
 viewBox="0.00 0.00 260.00 140.00" xmlns="http://www.w3.org/2000/svg" xmlns:xlink="http://www.w3.org/1999/xlink">
<g id="graph1" class="graph" transform="scale(1 1) rotate(0) translate(4 136)">
<title>G</title>
<polygon fill="white" stroke="white" points="-4,5 -4,-136 257,-136 257,5 -4,5"/>
<!-- Node1 -->
<g id="node1" class="node"><title>Node1</title>
<polygon fill="#bfbfbf" stroke="black" points="-0.5,-112.5 -0.5,-131.5 192.5,-131.5 192.5,-112.5 -0.5,-112.5"/>
<text text-anchor="middle" x="96" y="-119.5" font-family="Helvetica,sans-Serif" font-size="10.00">pkg/AMORE/src/dia/ContainerIterator.h</text>
</g>
<!-- Node2 -->
<g id="node3" class="node"><title>Node2</title>
<a xlink:href="_a_m_o_r_e_8h.html" target="_top" xlink:title="pkg/AMORE/src/AMORE.h">
<polygon fill="white" stroke="black" points="27.5,-0.5 27.5,-19.5 164.5,-19.5 164.5,-0.5 27.5,-0.5"/>
<text text-anchor="middle" x="96" y="-7.5" font-family="Helvetica,sans-Serif" font-size="10.00">pkg/AMORE/src/AMORE.h</text>
</a>
</g>
<!-- Node1&#45;&gt;Node2 -->
<g id="edge2" class="edge"><title>Node1&#45;&gt;Node2</title>
<path fill="none" stroke="midnightblue" d="M75.9546,-105.528C67.469,-97.709 58.514,-87.4521 54,-76 45.3287,-54.0008 68.432,-31.5278 83.7184,-19.6306"/>
<polygon fill="midnightblue" stroke="midnightblue" points="73.9147,-108.389 83.7863,-112.236 78.4686,-103.073 73.9147,-108.389"/>
</g>
<!-- Node3 -->
<g id="node5" class="node"><title>Node3</title>
<a xlink:href="_container_iterator_8cpp.html" target="_top" xlink:title="pkg/AMORE/src/ContainerIterator.cpp">
<polygon fill="white" stroke="black" points="63.5,-56.5 63.5,-75.5 252.5,-75.5 252.5,-56.5 63.5,-56.5"/>
<text text-anchor="middle" x="158" y="-63.5" font-family="Helvetica,sans-Serif" font-size="10.00">pkg/AMORE/src/ContainerIterator.cpp</text>
</a>
</g>
<!-- Node1&#45;&gt;Node3 -->
<g id="edge4" class="edge"><title>Node1&#45;&gt;Node3</title>
<path fill="none" stroke="midnightblue" d="M113.754,-105.537C124.808,-95.9087 138.631,-83.8694 147.857,-75.8339"/>
<polygon fill="midnightblue" stroke="midnightblue" points="111.203,-103.117 105.961,-112.324 115.801,-108.395 111.203,-103.117"/>
</g>
<!-- Node3&#45;&gt;Node2 -->
<g id="edge6" class="edge"><title>Node3&#45;&gt;Node2</title>
<path fill="none" stroke="midnightblue" d="M140.246,-49.5372C129.192,-39.9087 115.369,-27.8694 106.143,-19.8339"/>
<polygon fill="midnightblue" stroke="midnightblue" points="138.199,-52.3954 148.039,-56.324 142.797,-47.1168 138.199,-52.3954"/>
</g>
</g>
</svg>
