<?xml version="1.0" encoding="UTF-8" standalone="no"?>
<!DOCTYPE svg PUBLIC "-//W3C//DTD SVG 1.1//EN"
 "http://www.w3.org/Graphics/SVG/1.1/DTD/svg11.dtd">
<!-- Generated by graphviz version 2.25.20091207.0545 (20091207.0545)
 -->
<!-- Title: G Pages: 1 -->
<svg width="619pt" height="140pt"
 viewBox="0.00 0.00 619.00 140.00" xmlns="http://www.w3.org/2000/svg" xmlns:xlink="http://www.w3.org/1999/xlink">
<g id="graph1" class="graph" transform="scale(1 1) rotate(0) translate(4 136)">
<title>G</title>
<polygon fill="white" stroke="white" points="-4,5 -4,-136 616,-136 616,5 -4,5"/>
<!-- Node1 -->
<g id="node1" class="node"><title>Node1</title>
<polygon fill="#bfbfbf" stroke="black" points="9.5,-112.5 9.5,-131.5 472.5,-131.5 472.5,-112.5 9.5,-112.5"/>
<text text-anchor="middle" x="241" y="-118.5" font-family="Helvetica,sans-Serif" font-size="10.00">/Users/mcasl/pc&#45;ule/Trabajo/investigacion/AMORE/AMORE&#45;WC/AMORE&#45;WC/pkg/AMORE/src/Con.h</text>
</g>
<!-- Node2 -->
<g id="node3" class="node"><title>Node2</title>
<a xlink:href="_a_m_o_r_e_8h.html" target="_top" xlink:title="/Users/mcasl/pc&#45;ule/Trabajo/investigacion/AMORE/AMORE&#45;WC/AMORE&#45;WC/pkg/AMORE/src/AMORE.h">
<polygon fill="white" stroke="black" points="0,-0.5 0,-19.5 482,-19.5 482,-0.5 0,-0.5"/>
<text text-anchor="middle" x="241" y="-6.5" font-family="Helvetica,sans-Serif" font-size="10.00">/Users/mcasl/pc&#45;ule/Trabajo/investigacion/AMORE/AMORE&#45;WC/AMORE&#45;WC/pkg/AMORE/src/AMORE.h</text>
</a>
</g>
<!-- Node1&#45;&gt;Node2 -->
<g id="edge2" class="edge"><title>Node1&#45;&gt;Node2</title>
<path fill="none" stroke="midnightblue" d="M173.416,-108.98C155.711,-102.167 138.623,-91.7933 128,-76 108.663,-47.2512 152.464,-29.333 191.042,-19.5436"/>
<polygon fill="midnightblue" stroke="midnightblue" points="172.684,-112.431 183.279,-112.41 174.984,-105.819 172.684,-112.431"/>
</g>
<!-- Node3 -->
<g id="node5" class="node"><title>Node3</title>
<a xlink:href="_con_8cpp.html" target="_top" xlink:title="/Users/mcasl/pc&#45;ule/Trabajo/investigacion/AMORE/AMORE&#45;WC/AMORE&#45;WC/pkg/AMORE/src/Con.cpp">
<polygon fill="white" stroke="black" points="137,-56.5 137,-75.5 611,-75.5 611,-56.5 137,-56.5"/>
<text text-anchor="middle" x="374" y="-62.5" font-family="Helvetica,sans-Serif" font-size="10.00">/Users/mcasl/pc&#45;ule/Trabajo/investigacion/AMORE/AMORE&#45;WC/AMORE&#45;WC/pkg/AMORE/src/Con.cpp</text>
</a>
</g>
<!-- Node1&#45;&gt;Node3 -->
<g id="edge4" class="edge"><title>Node1&#45;&gt;Node3</title>
<path fill="none" stroke="midnightblue" d="M273.34,-108.383C297.529,-98.1985 329.995,-84.5284 351.435,-75.5011"/>
<polygon fill="midnightblue" stroke="midnightblue" points="271.722,-105.267 263.864,-112.373 274.438,-111.718 271.722,-105.267"/>
</g>
<!-- Node3&#45;&gt;Node2 -->
<g id="edge6" class="edge"><title>Node3&#45;&gt;Node2</title>
<path fill="none" stroke="midnightblue" d="M341.66,-52.3833C317.471,-42.1985 285.005,-28.5284 263.565,-19.5011"/>
<polygon fill="midnightblue" stroke="midnightblue" points="340.562,-55.7184 351.136,-56.3733 343.278,-49.2669 340.562,-55.7184"/>
</g>
</g>
</svg>
