<?xml version="1.0" encoding="UTF-8" standalone="no"?>
<!DOCTYPE svg PUBLIC "-//W3C//DTD SVG 1.1//EN"
 "http://www.w3.org/Graphics/SVG/1.1/DTD/svg11.dtd">
<!-- Generated by graphviz version 2.28.0 (20110610.2051)
 -->
<!-- Title: G Pages: 1 -->
<svg width="1609pt" height="140pt"
 viewBox="0.00 0.00 1609.45 140.00" xmlns="http://www.w3.org/2000/svg" xmlns:xlink="http://www.w3.org/1999/xlink">
<g id="graph1" class="graph" transform="scale(1 1) rotate(0) translate(4 136)">
<title>G</title>
<polygon fill="white" stroke="white" points="-4,5 -4,-136 1606.45,-136 1606.45,5 -4,5"/>
<!-- Node1 -->
<g id="node1" class="node"><title>Node1</title>
<polygon fill="#bfbfbf" stroke="black" points="258.945,-112.5 258.945,-131.5 825.945,-131.5 825.945,-112.5 258.945,-112.5"/>
<text text-anchor="middle" x="542.445" y="-119.5" font-family="Helvetica,sans-Serif" font-size="10.00">/Users/mcasl/pc&#45;ule/Trabajo/investigacion/AMORE/AMORE&#45;WC/AMORE&#45;WC/pkg/AMORE/src/classHeaders/Connection.h</text>
</g>
<!-- Node2 -->
<g id="node3" class="node"><title>Node2</title>
<a xlink:href="_a_m_o_r_e_8h.html" target="_top" xlink:title="/Users/mcasl/pc&#45;ule/Trabajo/investigacion/AMORE/AMORE&#45;WC/AMORE&#45;WC/pkg/AMORE/src/AMORE.h">
<polygon fill="white" stroke="black" points="30.4453,-0.5 30.4453,-19.5 518.445,-19.5 518.445,-0.5 30.4453,-0.5"/>
<text text-anchor="middle" x="274.445" y="-7.5" font-family="Helvetica,sans-Serif" font-size="10.00">/Users/mcasl/pc&#45;ule/Trabajo/investigacion/AMORE/AMORE&#45;WC/AMORE&#45;WC/pkg/AMORE/src/AMORE.h</text>
</a>
</g>
<!-- Node1&#45;&gt;Node2 -->
<g id="edge2" class="edge"><title>Node1&#45;&gt;Node2</title>
<path fill="none" stroke="midnightblue" d="M248.541,-113.098C132.685,-106.885 22.6534,-95.7947 4.44526,-76 -1.57248,-69.4579 -1.30029,-62.7824 4.44526,-56 20.6484,-36.8729 69.3518,-25.8682 121.016,-19.5396"/>
<polygon fill="midnightblue" stroke="midnightblue" points="248.515,-116.601 258.684,-113.629 248.881,-109.611 248.515,-116.601"/>
</g>
<!-- Node3 -->
<g id="node5" class="node"><title>Node3</title>
<a xlink:href="_m_l_pbehavior_8cpp.html" target="_top" xlink:title="/Users/mcasl/pc&#45;ule/Trabajo/investigacion/AMORE/AMORE&#45;WC/AMORE&#45;WC/pkg/AMORE/src/MLPbehavior.cpp">
<polygon fill="white" stroke="black" points="13.4453,-56.5 13.4453,-75.5 535.445,-75.5 535.445,-56.5 13.4453,-56.5"/>
<text text-anchor="middle" x="274.445" y="-63.5" font-family="Helvetica,sans-Serif" font-size="10.00">/Users/mcasl/pc&#45;ule/Trabajo/investigacion/AMORE/AMORE&#45;WC/AMORE&#45;WC/pkg/AMORE/src/MLPbehavior.cpp</text>
</a>
</g>
<!-- Node1&#45;&gt;Node3 -->
<g id="edge4" class="edge"><title>Node1&#45;&gt;Node3</title>
<path fill="none" stroke="midnightblue" d="M489.885,-110.41C439.236,-100.204 363.579,-84.9597 316.712,-75.5164"/>
<polygon fill="midnightblue" stroke="midnightblue" points="489.486,-113.899 499.98,-112.444 490.868,-107.037 489.486,-113.899"/>
</g>
<!-- Node4 -->
<g id="node8" class="node"><title>Node4</title>
<a xlink:href="_m_l_pfactory_8cpp.html" target="_top" xlink:title="/Users/mcasl/pc&#45;ule/Trabajo/investigacion/AMORE/AMORE&#45;WC/AMORE&#45;WC/pkg/AMORE/src/MLPfactory.cpp">
<polygon fill="white" stroke="black" points="553.945,-56.5 553.945,-75.5 1068.95,-75.5 1068.95,-56.5 553.945,-56.5"/>
<text text-anchor="middle" x="811.445" y="-63.5" font-family="Helvetica,sans-Serif" font-size="10.00">/Users/mcasl/pc&#45;ule/Trabajo/investigacion/AMORE/AMORE&#45;WC/AMORE&#45;WC/pkg/AMORE/src/MLPfactory.cpp</text>
</a>
</g>
<!-- Node1&#45;&gt;Node4 -->
<g id="edge8" class="edge"><title>Node1&#45;&gt;Node4</title>
<path fill="none" stroke="midnightblue" d="M594.883,-110.473C645.722,-100.268 721.881,-84.9794 769.021,-75.5164"/>
<polygon fill="midnightblue" stroke="midnightblue" points="594.185,-107.044 585.069,-112.444 595.562,-113.907 594.185,-107.044"/>
</g>
<!-- Node5 -->
<g id="node11" class="node"><title>Node5</title>
<a xlink:href="_connection_8cpp.html" target="_top" xlink:title="/Users/mcasl/pc&#45;ule/Trabajo/investigacion/AMORE/AMORE&#45;WC/AMORE&#45;WC/pkg/AMORE/src/Connection.cpp">
<polygon fill="white" stroke="black" points="1086.95,-56.5 1086.95,-75.5 1601.95,-75.5 1601.95,-56.5 1086.95,-56.5"/>
<text text-anchor="middle" x="1344.45" y="-63.5" font-family="Helvetica,sans-Serif" font-size="10.00">/Users/mcasl/pc&#45;ule/Trabajo/investigacion/AMORE/AMORE&#45;WC/AMORE&#45;WC/pkg/AMORE/src/Connection.cpp</text>
</a>
</g>
<!-- Node1&#45;&gt;Node5 -->
<g id="edge12" class="edge"><title>Node1&#45;&gt;Node5</title>
<path fill="none" stroke="midnightblue" d="M679.349,-111.782C830.398,-101.612 1071.47,-85.3798 1218.14,-75.5042"/>
<polygon fill="midnightblue" stroke="midnightblue" points="678.824,-108.309 669.082,-112.473 679.295,-115.294 678.824,-108.309"/>
</g>
<!-- Node3&#45;&gt;Node2 -->
<g id="edge6" class="edge"><title>Node3&#45;&gt;Node2</title>
<path fill="none" stroke="midnightblue" d="M274.445,-45.8045C274.445,-36.9102 274.445,-26.7798 274.445,-19.7511"/>
<polygon fill="midnightblue" stroke="midnightblue" points="270.945,-46.083 274.445,-56.083 277.945,-46.083 270.945,-46.083"/>
</g>
<!-- Node4&#45;&gt;Node2 -->
<g id="edge10" class="edge"><title>Node4&#45;&gt;Node2</title>
<path fill="none" stroke="midnightblue" d="M716.429,-55.4453C615.184,-45.2642 456.387,-29.2958 359.236,-19.5264"/>
<polygon fill="midnightblue" stroke="midnightblue" points="716.352,-58.9551 726.652,-56.4733 717.053,-51.9903 716.352,-58.9551"/>
</g>
</g>
</svg>
