<?xml version="1.0" encoding="UTF-8" standalone="no"?>
<!DOCTYPE svg PUBLIC "-//W3C//DTD SVG 1.1//EN"
 "http://www.w3.org/Graphics/SVG/1.1/DTD/svg11.dtd">
<!-- Generated by graphviz version 2.25.20091207.0545 (20091207.0545)
 -->
<!-- Title: G Pages: 1 -->
<svg width="186pt" height="140pt"
 viewBox="0.00 0.00 186.00 140.00" xmlns="http://www.w3.org/2000/svg" xmlns:xlink="http://www.w3.org/1999/xlink">
<g id="graph1" class="graph" transform="scale(1 1) rotate(0) translate(4 136)">
<title>G</title>
<polygon fill="white" stroke="white" points="-4,5 -4,-136 183,-136 183,5 -4,5"/>
<!-- Node1 -->
<g id="node1" class="node"><title>Node1</title>
<polygon fill="#bfbfbf" stroke="black" points="9.5,-112.5 9.5,-131.5 126.5,-131.5 126.5,-112.5 9.5,-112.5"/>
<text text-anchor="middle" x="68" y="-118.5" font-family="Helvetica,sans-Serif" font-size="10.00">pkg/AMORE/src/Con.h</text>
</g>
<!-- Node2 -->
<g id="node3" class="node"><title>Node2</title>
<a xlink:href="_a_m_o_r_e_8h.html" target="_top" xlink:title="pkg/AMORE/src/AMORE.h">
<polygon fill="white" stroke="black" points="0,-0.5 0,-19.5 136,-19.5 136,-0.5 0,-0.5"/>
<text text-anchor="middle" x="68" y="-6.5" font-family="Helvetica,sans-Serif" font-size="10.00">pkg/AMORE/src/AMORE.h</text>
</a>
</g>
<!-- Node1&#45;&gt;Node2 -->
<g id="edge2" class="edge"><title>Node1&#45;&gt;Node2</title>
<path fill="none" stroke="midnightblue" d="M54.5484,-104.186C49.2175,-96.0444 43.7176,-85.9985 41,-76 35.3501,-55.2128 49.8539,-32.1929 59.725,-19.5785"/>
<polygon fill="midnightblue" stroke="midnightblue" points="51.739,-106.276 60.3381,-112.465 57.4755,-102.265 51.739,-106.276"/>
</g>
<!-- Node3 -->
<g id="node5" class="node"><title>Node3</title>
<a xlink:href="_con_8cpp.html" target="_top" xlink:title="pkg/AMORE/src/Con.cpp">
<polygon fill="white" stroke="black" points="50,-56.5 50,-75.5 178,-75.5 178,-56.5 50,-56.5"/>
<text text-anchor="middle" x="114" y="-62.5" font-family="Helvetica,sans-Serif" font-size="10.00">pkg/AMORE/src/Con.cpp</text>
</a>
</g>
<!-- Node1&#45;&gt;Node3 -->
<g id="edge4" class="edge"><title>Node1&#45;&gt;Node3</title>
<path fill="none" stroke="midnightblue" d="M82.3747,-104.5C90.1971,-94.9775 99.576,-83.5596 106.079,-75.6427"/>
<polygon fill="midnightblue" stroke="midnightblue" points="79.6555,-102.297 76.0126,-112.246 85.0646,-106.74 79.6555,-102.297"/>
</g>
<!-- Node3&#45;&gt;Node2 -->
<g id="edge6" class="edge"><title>Node3&#45;&gt;Node2</title>
<path fill="none" stroke="midnightblue" d="M99.6253,-48.5004C91.8029,-38.9775 82.424,-27.5596 75.9208,-19.6427"/>
<polygon fill="midnightblue" stroke="midnightblue" points="96.9354,-50.7399 105.987,-56.2455 102.345,-46.2967 96.9354,-50.7399"/>
</g>
</g>
</svg>
