<?xml version="1.0" encoding="UTF-8" standalone="no"?>
<!DOCTYPE svg PUBLIC "-//W3C//DTD SVG 1.1//EN"
 "http://www.w3.org/Graphics/SVG/1.1/DTD/svg11.dtd">
<!-- Generated by graphviz version 2.28.0 (20110610.2051)
 -->
<!-- Title: G Pages: 1 -->
<svg width="597pt" height="140pt"
 viewBox="0.00 0.00 597.14 140.00" xmlns="http://www.w3.org/2000/svg" xmlns:xlink="http://www.w3.org/1999/xlink">
<g id="graph1" class="graph" transform="scale(1 1) rotate(0) translate(4 136)">
<title>G</title>
<polygon fill="white" stroke="white" points="-4,5 -4,-136 594.136,-136 594.136,5 -4,5"/>
<!-- Node1 -->
<g id="node1" class="node"><title>Node1</title>
<polygon fill="#bfbfbf" stroke="black" points="129.636,-112.5 129.636,-131.5 288.636,-131.5 288.636,-112.5 129.636,-112.5"/>
<text text-anchor="middle" x="209.136" y="-119.5" font-family="Helvetica,sans-Serif" font-size="10.00">pkg/AMORE/src/dia/Container.h</text>
</g>
<!-- Node2 -->
<g id="node3" class="node"><title>Node2</title>
<a xlink:href="_a_m_o_r_e_8h.html" target="_top" xlink:title="pkg/AMORE/src/AMORE.h">
<polygon fill="white" stroke="black" points="140.636,-0.5 140.636,-19.5 277.636,-19.5 277.636,-0.5 140.636,-0.5"/>
<text text-anchor="middle" x="209.136" y="-7.5" font-family="Helvetica,sans-Serif" font-size="10.00">pkg/AMORE/src/AMORE.h</text>
</a>
</g>
<!-- Node1&#45;&gt;Node2 -->
<g id="edge2" class="edge"><title>Node1&#45;&gt;Node2</title>
<path fill="none" stroke="midnightblue" d="M119.41,-111.781C73.0797,-104.972 23.3242,-93.7357 9.13562,-76 -29.1241,-28.1753 68.634,-15.1172 140.58,-11.7976"/>
<polygon fill="midnightblue" stroke="midnightblue" points="119.147,-115.279 129.538,-113.21 120.124,-108.348 119.147,-115.279"/>
</g>
<!-- Node3 -->
<g id="node5" class="node"><title>Node3</title>
<a xlink:href="_simple_container_8h.html" target="_top" xlink:title="pkg/AMORE/src/dia/SimpleContainer.h">
<polygon fill="white" stroke="black" points="18.6356,-56.5 18.6356,-75.5 209.636,-75.5 209.636,-56.5 18.6356,-56.5"/>
<text text-anchor="middle" x="114.136" y="-63.5" font-family="Helvetica,sans-Serif" font-size="10.00">pkg/AMORE/src/dia/SimpleContainer.h</text>
</a>
</g>
<!-- Node1&#45;&gt;Node3 -->
<g id="edge4" class="edge"><title>Node1&#45;&gt;Node3</title>
<path fill="none" stroke="midnightblue" d="M184.818,-107.177C167.337,-97.2407 144.306,-84.1492 129.361,-75.6545"/>
<polygon fill="midnightblue" stroke="midnightblue" points="183.449,-110.425 193.872,-112.324 186.908,-104.339 183.449,-110.425"/>
</g>
<!-- Node4 -->
<g id="node8" class="node"><title>Node4</title>
<a xlink:href="_container_8cpp.html" target="_top" xlink:title="pkg/AMORE/src/Container.cpp">
<polygon fill="white" stroke="black" points="227.636,-56.5 227.636,-75.5 382.636,-75.5 382.636,-56.5 227.636,-56.5"/>
<text text-anchor="middle" x="305.136" y="-63.5" font-family="Helvetica,sans-Serif" font-size="10.00">pkg/AMORE/src/Container.cpp</text>
</a>
</g>
<!-- Node1&#45;&gt;Node4 -->
<g id="edge8" class="edge"><title>Node1&#45;&gt;Node4</title>
<path fill="none" stroke="midnightblue" d="M233.709,-107.177C251.374,-97.2407 274.648,-84.1492 289.75,-75.6545"/>
<polygon fill="midnightblue" stroke="midnightblue" points="231.56,-104.371 224.56,-112.324 234.991,-110.472 231.56,-104.371"/>
</g>
<!-- Node5 -->
<g id="node11" class="node"><title>Node5</title>
<a xlink:href="_simple_container_8cpp.html" target="_top" xlink:title="pkg/AMORE/src/SimpleContainer.cpp">
<polygon fill="white" stroke="black" points="401.136,-56.5 401.136,-75.5 589.136,-75.5 589.136,-56.5 401.136,-56.5"/>
<text text-anchor="middle" x="495.136" y="-63.5" font-family="Helvetica,sans-Serif" font-size="10.00">pkg/AMORE/src/SimpleContainer.cpp</text>
</a>
</g>
<!-- Node1&#45;&gt;Node5 -->
<g id="edge12" class="edge"><title>Node1&#45;&gt;Node5</title>
<path fill="none" stroke="midnightblue" d="M264.55,-110.537C318.602,-100.332 399.807,-84.9992 450.03,-75.5164"/>
<polygon fill="midnightblue" stroke="midnightblue" points="263.63,-107.149 254.453,-112.444 264.929,-114.027 263.63,-107.149"/>
</g>
<!-- Node3&#45;&gt;Node2 -->
<g id="edge6" class="edge"><title>Node3&#45;&gt;Node2</title>
<path fill="none" stroke="midnightblue" d="M138.453,-51.1774C155.934,-41.2407 178.966,-28.1492 193.91,-19.6545"/>
<polygon fill="midnightblue" stroke="midnightblue" points="136.363,-48.3395 129.399,-56.324 139.822,-54.425 136.363,-48.3395"/>
</g>
<!-- Node4&#45;&gt;Node2 -->
<g id="edge10" class="edge"><title>Node4&#45;&gt;Node2</title>
<path fill="none" stroke="midnightblue" d="M280.562,-51.1774C262.897,-41.2407 239.623,-28.1492 224.521,-19.6545"/>
<polygon fill="midnightblue" stroke="midnightblue" points="279.28,-54.4718 289.712,-56.324 282.712,-48.3708 279.28,-54.4718"/>
</g>
<!-- Node5&#45;&gt;Node2 -->
<g id="edge14" class="edge"><title>Node5&#45;&gt;Node2</title>
<path fill="none" stroke="midnightblue" d="M439.721,-54.5371C385.669,-44.3316 304.465,-28.9992 254.241,-19.5164"/>
<polygon fill="midnightblue" stroke="midnightblue" points="439.342,-58.0274 449.818,-56.4435 440.641,-51.1489 439.342,-58.0274"/>
</g>
</g>
</svg>
