<?xml version="1.0" encoding="UTF-8" standalone="no"?>
<!DOCTYPE svg PUBLIC "-//W3C//DTD SVG 1.1//EN"
 "http://www.w3.org/Graphics/SVG/1.1/DTD/svg11.dtd">
<!-- Generated by graphviz version 2.28.0 (20110610.2051)
 -->
<!-- Title: G Pages: 1 -->
<svg width="1265pt" height="196pt"
 viewBox="0.00 0.00 1265.00 196.00" xmlns="http://www.w3.org/2000/svg" xmlns:xlink="http://www.w3.org/1999/xlink">
<g id="graph1" class="graph" transform="scale(1 1) rotate(0) translate(4 192)">
<title>G</title>
<polygon fill="white" stroke="white" points="-4,5 -4,-192 1262,-192 1262,5 -4,5"/>
<!-- Node1 -->
<g id="node1" class="node"><title>Node1</title>
<polygon fill="#bfbfbf" stroke="black" points="725,-168.5 725,-187.5 1257,-187.5 1257,-168.5 725,-168.5"/>
<text text-anchor="middle" x="991" y="-175.5" font-family="Helvetica,sans-Serif" font-size="10.00">/Users/mcasl/pc&#45;ule/Trabajo/investigacion/AMORE/AMORE&#45;WC/AMORE&#45;WC/pkg/AMORE/src/IdentityFactory.cpp</text>
</g>
<!-- Node2 -->
<g id="node3" class="node"><title>Node2</title>
<a xlink:href="package_8h.html" target="_top" xlink:title="package.h">
<polygon fill="white" stroke="black" points="381.5,-112.5 381.5,-131.5 444.5,-131.5 444.5,-112.5 381.5,-112.5"/>
<text text-anchor="middle" x="413" y="-119.5" font-family="Helvetica,sans-Serif" font-size="10.00">package.h</text>
</a>
</g>
<!-- Node1&#45;&gt;Node2 -->
<g id="edge2" class="edge"><title>Node1&#45;&gt;Node2</title>
<path fill="none" stroke="midnightblue" d="M899.733,-168.473C772.613,-156.597 547.435,-135.56 454.694,-126.895"/>
<polygon fill="midnightblue" stroke="midnightblue" points="454.857,-123.395 444.575,-125.95 454.206,-130.365 454.857,-123.395"/>
</g>
<!-- Node13 -->
<g id="node25" class="node"><title>Node13</title>
<a xlink:href="_identity_8h.html" target="_top" xlink:title="classHeaders/Identity.h">
<polygon fill="white" stroke="black" points="837.5,-112.5 837.5,-131.5 962.5,-131.5 962.5,-112.5 837.5,-112.5"/>
<text text-anchor="middle" x="900" y="-119.5" font-family="Helvetica,sans-Serif" font-size="10.00">classHeaders/Identity.h</text>
</a>
</g>
<!-- Node1&#45;&gt;Node13 -->
<g id="edge24" class="edge"><title>Node1&#45;&gt;Node13</title>
<path fill="none" stroke="midnightblue" d="M976.379,-168.324C962.051,-159.822 939.987,-146.729 923.251,-136.797"/>
<polygon fill="midnightblue" stroke="midnightblue" points="924.97,-133.748 914.584,-131.655 921.398,-139.768 924.97,-133.748"/>
</g>
<!-- Node15 -->
<g id="node29" class="node"><title>Node15</title>
<a xlink:href="_neural_factory_8h.html" target="_top" xlink:title="classHeaders/NeuralFactory.h">
<polygon fill="white" stroke="black" points="963.5,-0.5 963.5,-19.5 1116.5,-19.5 1116.5,-0.5 963.5,-0.5"/>
<text text-anchor="middle" x="1040" y="-7.5" font-family="Helvetica,sans-Serif" font-size="10.00">classHeaders/NeuralFactory.h</text>
</a>
</g>
<!-- Node1&#45;&gt;Node15 -->
<g id="edge28" class="edge"><title>Node1&#45;&gt;Node15</title>
<path fill="none" stroke="midnightblue" d="M991.096,-168.462C991.586,-148.22 994.392,-96.0179 1010,-56 1013.92,-45.958 1020.35,-35.8733 1026.26,-27.8035"/>
<polygon fill="midnightblue" stroke="midnightblue" points="1029.21,-29.7137 1032.55,-19.6583 1023.67,-25.4375 1029.21,-29.7137"/>
</g>
<!-- Node16 -->
<g id="node31" class="node"><title>Node16</title>
<a xlink:href="_m_l_pfactory_8h.html" target="_top" xlink:title="classHeaders/MLPfactory.h">
<polygon fill="white" stroke="black" points="1019,-56.5 1019,-75.5 1161,-75.5 1161,-56.5 1019,-56.5"/>
<text text-anchor="middle" x="1090" y="-63.5" font-family="Helvetica,sans-Serif" font-size="10.00">classHeaders/MLPfactory.h</text>
</a>
</g>
<!-- Node1&#45;&gt;Node16 -->
<g id="edge30" class="edge"><title>Node1&#45;&gt;Node16</title>
<path fill="none" stroke="midnightblue" d="M998.658,-168.092C1009.52,-155.497 1030.08,-131.811 1048,-112 1056.8,-102.271 1066.82,-91.5247 1074.86,-82.9739"/>
<polygon fill="midnightblue" stroke="midnightblue" points="1077.55,-85.2282 1081.87,-75.5533 1072.46,-80.4236 1077.55,-85.2282"/>
</g>
<!-- Node17 -->
<g id="node34" class="node"><title>Node17</title>
<a xlink:href="_identity_factory_8h.html" target="_top" xlink:title="classHeaders/IdentityFactory.h">
<polygon fill="white" stroke="black" points="1057.5,-112.5 1057.5,-131.5 1216.5,-131.5 1216.5,-112.5 1057.5,-112.5"/>
<text text-anchor="middle" x="1137" y="-119.5" font-family="Helvetica,sans-Serif" font-size="10.00">classHeaders/IdentityFactory.h</text>
</a>
</g>
<!-- Node1&#45;&gt;Node17 -->
<g id="edge34" class="edge"><title>Node1&#45;&gt;Node17</title>
<path fill="none" stroke="midnightblue" d="M1014.13,-168.444C1038.48,-159.438 1077.01,-145.189 1104.42,-135.049"/>
<polygon fill="midnightblue" stroke="midnightblue" points="1105.81,-138.268 1113.97,-131.516 1103.38,-131.703 1105.81,-138.268"/>
</g>
<!-- Node3 -->
<g id="node5" class="node"><title>Node3</title>
<polygon fill="white" stroke="#bfbfbf" points="0,-56.5 0,-75.5 56,-75.5 56,-56.5 0,-56.5"/>
<text text-anchor="middle" x="28" y="-63.5" font-family="Helvetica,sans-Serif" font-size="10.00">iostream</text>
</g>
<!-- Node2&#45;&gt;Node3 -->
<g id="edge4" class="edge"><title>Node2&#45;&gt;Node3</title>
<path fill="none" stroke="midnightblue" d="M381.149,-118.066C321.311,-112.298 187.88,-98.2339 66.0809,-76.0235"/>
<polygon fill="midnightblue" stroke="midnightblue" points="66.6821,-72.5755 56.2128,-74.2012 65.4109,-79.4591 66.6821,-72.5755"/>
</g>
<!-- Node4 -->
<g id="node7" class="node"><title>Node4</title>
<polygon fill="white" stroke="#bfbfbf" points="74.5,-56.5 74.5,-75.5 127.5,-75.5 127.5,-56.5 74.5,-56.5"/>
<text text-anchor="middle" x="101" y="-63.5" font-family="Helvetica,sans-Serif" font-size="10.00">sstream</text>
</g>
<!-- Node2&#45;&gt;Node4 -->
<g id="edge6" class="edge"><title>Node2&#45;&gt;Node4</title>
<path fill="none" stroke="midnightblue" d="M381.256,-116.798C331.359,-109.986 231.361,-95.5036 137.621,-76.1977"/>
<polygon fill="midnightblue" stroke="midnightblue" points="138.198,-72.7429 127.695,-74.13 136.771,-79.5958 138.198,-72.7429"/>
</g>
<!-- Node5 -->
<g id="node9" class="node"><title>Node5</title>
<polygon fill="white" stroke="#bfbfbf" points="145.5,-56.5 145.5,-75.5 204.5,-75.5 204.5,-56.5 145.5,-56.5"/>
<text text-anchor="middle" x="175" y="-63.5" font-family="Helvetica,sans-Serif" font-size="10.00">algorithm</text>
</g>
<!-- Node2&#45;&gt;Node5 -->
<g id="edge8" class="edge"><title>Node2&#45;&gt;Node5</title>
<path fill="none" stroke="midnightblue" d="M381.282,-113.873C343.92,-105.468 279.712,-90.9918 214.805,-76.1764"/>
<polygon fill="midnightblue" stroke="midnightblue" points="215.336,-72.7075 204.807,-73.8929 213.777,-79.5318 215.336,-72.7075"/>
</g>
<!-- Node6 -->
<g id="node11" class="node"><title>Node6</title>
<polygon fill="white" stroke="#bfbfbf" points="223,-56.5 223,-75.5 269,-75.5 269,-56.5 223,-56.5"/>
<text text-anchor="middle" x="246" y="-63.5" font-family="Helvetica,sans-Serif" font-size="10.00">vector</text>
</g>
<!-- Node2&#45;&gt;Node6 -->
<g id="edge10" class="edge"><title>Node2&#45;&gt;Node6</title>
<path fill="none" stroke="midnightblue" d="M386.538,-112.444C357.326,-102.998 310.272,-87.7826 278.755,-77.5916"/>
<polygon fill="midnightblue" stroke="midnightblue" points="279.703,-74.2195 269.111,-74.473 277.549,-80.88 279.703,-74.2195"/>
</g>
<!-- Node7 -->
<g id="node13" class="node"><title>Node7</title>
<polygon fill="white" stroke="#bfbfbf" points="287,-56.5 287,-75.5 337,-75.5 337,-56.5 287,-56.5"/>
<text text-anchor="middle" x="312" y="-63.5" font-family="Helvetica,sans-Serif" font-size="10.00">iterator</text>
</g>
<!-- Node2&#45;&gt;Node7 -->
<g id="edge12" class="edge"><title>Node2&#45;&gt;Node7</title>
<path fill="none" stroke="midnightblue" d="M396.773,-112.324C380.649,-103.703 355.7,-90.3643 337.036,-80.3855"/>
<polygon fill="midnightblue" stroke="midnightblue" points="338.656,-77.283 328.187,-75.6545 335.356,-83.456 338.656,-77.283"/>
</g>
<!-- Node8 -->
<g id="node15" class="node"><title>Node8</title>
<polygon fill="white" stroke="#bfbfbf" points="355.5,-56.5 355.5,-75.5 470.5,-75.5 470.5,-56.5 355.5,-56.5"/>
<text text-anchor="middle" x="413" y="-63.5" font-family="Helvetica,sans-Serif" font-size="10.00">boost/shared_ptr.hpp</text>
</g>
<!-- Node2&#45;&gt;Node8 -->
<g id="edge14" class="edge"><title>Node2&#45;&gt;Node8</title>
<path fill="none" stroke="midnightblue" d="M413,-112.083C413,-105.006 413,-94.8611 413,-85.9865"/>
<polygon fill="midnightblue" stroke="midnightblue" points="416.5,-85.751 413,-75.7511 409.5,-85.7511 416.5,-85.751"/>
</g>
<!-- Node9 -->
<g id="node17" class="node"><title>Node9</title>
<polygon fill="white" stroke="#bfbfbf" points="489,-56.5 489,-75.5 597,-75.5 597,-56.5 489,-56.5"/>
<text text-anchor="middle" x="543" y="-63.5" font-family="Helvetica,sans-Serif" font-size="10.00">boost/weak_ptr.hpp</text>
</g>
<!-- Node2&#45;&gt;Node9 -->
<g id="edge16" class="edge"><title>Node2&#45;&gt;Node9</title>
<path fill="none" stroke="midnightblue" d="M433.599,-112.444C454.993,-103.557 488.681,-89.5632 513.024,-79.4514"/>
<polygon fill="midnightblue" stroke="midnightblue" points="514.605,-82.5848 522.497,-75.5164 511.92,-76.1203 514.605,-82.5848"/>
</g>
<!-- Node10 -->
<g id="node19" class="node"><title>Node10</title>
<polygon fill="white" stroke="#bfbfbf" points="615,-56.5 615,-75.5 693,-75.5 693,-56.5 615,-56.5"/>
<text text-anchor="middle" x="654" y="-63.5" font-family="Helvetica,sans-Serif" font-size="10.00">boost/ref.hpp</text>
</g>
<!-- Node2&#45;&gt;Node10 -->
<g id="edge18" class="edge"><title>Node2&#45;&gt;Node10</title>
<path fill="none" stroke="midnightblue" d="M444.507,-113.94C485.602,-104.732 557.898,-88.5332 605.877,-77.7829"/>
<polygon fill="midnightblue" stroke="midnightblue" points="606.733,-81.1779 615.725,-75.576 605.202,-74.3472 606.733,-81.1779"/>
</g>
<!-- Node11 -->
<g id="node21" class="node"><title>Node11</title>
<polygon fill="white" stroke="#bfbfbf" points="711.5,-56.5 711.5,-75.5 762.5,-75.5 762.5,-56.5 711.5,-56.5"/>
<text text-anchor="middle" x="737" y="-63.5" font-family="Helvetica,sans-Serif" font-size="10.00">valarray</text>
</g>
<!-- Node2&#45;&gt;Node11 -->
<g id="edge20" class="edge"><title>Node2&#45;&gt;Node11</title>
<path fill="none" stroke="midnightblue" d="M444.826,-117.074C496.533,-110.474 602.151,-96.068 701.546,-75.9081"/>
<polygon fill="midnightblue" stroke="midnightblue" points="702.36,-79.314 711.453,-73.8751 700.953,-72.4569 702.36,-79.314"/>
</g>
<!-- Node12 -->
<g id="node23" class="node"><title>Node12</title>
<polygon fill="white" stroke="#bfbfbf" points="781,-56.5 781,-75.5 831,-75.5 831,-56.5 781,-56.5"/>
<text text-anchor="middle" x="806" y="-63.5" font-family="Helvetica,sans-Serif" font-size="10.00">Rcpp.h</text>
</g>
<!-- Node2&#45;&gt;Node12 -->
<g id="edge22" class="edge"><title>Node2&#45;&gt;Node12</title>
<path fill="none" stroke="midnightblue" d="M444.818,-118.364C507.585,-112.865 651.624,-98.7561 771,-76 771.1,-75.9809 771.2,-75.9617 771.301,-75.9424"/>
<polygon fill="midnightblue" stroke="midnightblue" points="771.819,-79.4114 780.851,-73.873 770.336,-72.5702 771.819,-79.4114"/>
</g>
<!-- Node14 -->
<g id="node27" class="node"><title>Node14</title>
<a xlink:href="_activation_function_8h.html" target="_top" xlink:title="ActivationFunction.h">
<polygon fill="white" stroke="black" points="849,-56.5 849,-75.5 959,-75.5 959,-56.5 849,-56.5"/>
<text text-anchor="middle" x="904" y="-63.5" font-family="Helvetica,sans-Serif" font-size="10.00">ActivationFunction.h</text>
</a>
</g>
<!-- Node13&#45;&gt;Node14 -->
<g id="edge26" class="edge"><title>Node13&#45;&gt;Node14</title>
<path fill="none" stroke="midnightblue" d="M900.661,-112.083C901.185,-105.006 901.936,-94.8611 902.594,-85.9865"/>
<polygon fill="midnightblue" stroke="midnightblue" points="906.103,-85.9823 903.352,-75.7511 899.123,-85.4652 906.103,-85.9823"/>
</g>
<!-- Node16&#45;&gt;Node15 -->
<g id="edge32" class="edge"><title>Node16&#45;&gt;Node15</title>
<path fill="none" stroke="midnightblue" d="M1081.74,-56.083C1074.54,-48.2982 1063.89,-36.8015 1055.15,-27.3665"/>
<polygon fill="midnightblue" stroke="midnightblue" points="1057.47,-24.7108 1048.1,-19.7511 1052.33,-29.4666 1057.47,-24.7108"/>
</g>
<!-- Node17&#45;&gt;Node16 -->
<g id="edge36" class="edge"><title>Node17&#45;&gt;Node16</title>
<path fill="none" stroke="midnightblue" d="M1129.24,-112.083C1122.46,-104.298 1112.46,-92.8015 1104.24,-83.3665"/>
<polygon fill="midnightblue" stroke="midnightblue" points="1106.82,-80.9963 1097.62,-75.7511 1101.54,-85.592 1106.82,-80.9963"/>
</g>
</g>
</svg>
