<?xml version="1.0" encoding="UTF-8" standalone="no"?>
<!DOCTYPE svg PUBLIC "-//W3C//DTD SVG 1.1//EN"
 "http://www.w3.org/Graphics/SVG/1.1/DTD/svg11.dtd">
<!-- Generated by graphviz version 2.28.0 (20110610.2051)
 -->
<!-- Title: G Pages: 1 -->
<svg width="154pt" height="140pt"
 viewBox="0.00 0.00 154.00 140.00" xmlns="http://www.w3.org/2000/svg" xmlns:xlink="http://www.w3.org/1999/xlink">
<g id="graph1" class="graph" transform="scale(1 1) rotate(0) translate(4 136)">
<title>G</title>
<polygon fill="white" stroke="white" points="-4,5 -4,-136 151,-136 151,5 -4,5"/>
<!-- Node1 -->
<g id="node1" class="node"><title>Node1</title>
<polygon fill="#bfbfbf" stroke="black" points="0,-112.5 0,-131.5 146,-131.5 146,-112.5 0,-112.5"/>
<text text-anchor="middle" x="73" y="-119.5" font-family="Helvetica,sans-Serif" font-size="10.00">pkg/AMORE/src/Identity.cpp</text>
</g>
<!-- Node2 -->
<g id="node3" class="node"><title>Node2</title>
<a xlink:href="_activation_function_8h.html" target="_top" xlink:title="dia/ActivationFunction.h">
<polygon fill="white" stroke="black" points="10.5,-0.5 10.5,-19.5 135.5,-19.5 135.5,-0.5 10.5,-0.5"/>
<text text-anchor="middle" x="73" y="-7.5" font-family="Helvetica,sans-Serif" font-size="10.00">dia/ActivationFunction.h</text>
</a>
</g>
<!-- Node1&#45;&gt;Node2 -->
<g id="edge2" class="edge"><title>Node1&#45;&gt;Node2</title>
<path fill="none" stroke="midnightblue" d="M69.0332,-112.232C63.8873,-99.8038 55.913,-76.3142 59,-56 60.3675,-47.001 63.1904,-37.3251 65.9455,-29.2601"/>
<polygon fill="midnightblue" stroke="midnightblue" points="69.2653,-30.3722 69.4,-19.7782 62.6882,-27.9759 69.2653,-30.3722"/>
</g>
<!-- Node3 -->
<g id="node5" class="node"><title>Node3</title>
<a xlink:href="_identity_8h.html" target="_top" xlink:title="dia/Identity.h">
<polygon fill="white" stroke="black" points="68,-56.5 68,-75.5 144,-75.5 144,-56.5 68,-56.5"/>
<text text-anchor="middle" x="106" y="-63.5" font-family="Helvetica,sans-Serif" font-size="10.00">dia/Identity.h</text>
</a>
</g>
<!-- Node1&#45;&gt;Node3 -->
<g id="edge4" class="edge"><title>Node1&#45;&gt;Node3</title>
<path fill="none" stroke="midnightblue" d="M78.4493,-112.083C83.0145,-104.613 89.6684,-93.7244 95.2934,-84.5199"/>
<polygon fill="midnightblue" stroke="midnightblue" points="98.4241,-86.109 100.652,-75.7511 92.4511,-82.4588 98.4241,-86.109"/>
</g>
<!-- Node3&#45;&gt;Node2 -->
<g id="edge6" class="edge"><title>Node3&#45;&gt;Node2</title>
<path fill="none" stroke="midnightblue" d="M100.551,-56.083C95.9855,-48.6127 89.3316,-37.7244 83.7066,-28.5199"/>
<polygon fill="midnightblue" stroke="midnightblue" points="86.5489,-26.4588 78.3479,-19.7511 80.5759,-30.109 86.5489,-26.4588"/>
</g>
</g>
</svg>
