<?xml version="1.0" encoding="UTF-8" standalone="no"?>
<!DOCTYPE svg PUBLIC "-//W3C//DTD SVG 1.1//EN"
 "http://www.w3.org/Graphics/SVG/1.1/DTD/svg11.dtd">
<!-- Generated by graphviz version 2.28.0 (20110610.2051)
 -->
<!-- Title: G Pages: 1 -->
<svg width="250pt" height="140pt"
 viewBox="0.00 0.00 250.00 140.00" xmlns="http://www.w3.org/2000/svg" xmlns:xlink="http://www.w3.org/1999/xlink">
<g id="graph1" class="graph" transform="scale(1 1) rotate(0) translate(4 136)">
<title>G</title>
<polygon fill="white" stroke="white" points="-4,5 -4,-136 247,-136 247,5 -4,5"/>
<!-- Node1 -->
<g id="node1" class="node"><title>Node1</title>
<polygon fill="#bfbfbf" stroke="black" points="-0.5,-112.5 -0.5,-131.5 184.5,-131.5 184.5,-112.5 -0.5,-112.5"/>
<text text-anchor="middle" x="92" y="-119.5" font-family="Helvetica,sans-Serif" font-size="10.00">pkg/AMORE/src/dia/IdentityFactory.h</text>
</g>
<!-- Node2 -->
<g id="node3" class="node"><title>Node2</title>
<a xlink:href="_a_m_o_r_e_8h.html" target="_top" xlink:title="pkg/AMORE/src/AMORE.h">
<polygon fill="white" stroke="black" points="23.5,-0.5 23.5,-19.5 160.5,-19.5 160.5,-0.5 23.5,-0.5"/>
<text text-anchor="middle" x="92" y="-7.5" font-family="Helvetica,sans-Serif" font-size="10.00">pkg/AMORE/src/AMORE.h</text>
</a>
</g>
<!-- Node1&#45;&gt;Node2 -->
<g id="edge2" class="edge"><title>Node1&#45;&gt;Node2</title>
<path fill="none" stroke="midnightblue" d="M73.2098,-105.657C65.0306,-97.7606 56.3352,-87.4024 52,-76 43.7123,-54.2018 65.7265,-31.6535 80.2946,-19.6895"/>
<polygon fill="midnightblue" stroke="midnightblue" points="70.9595,-108.34 80.7344,-112.427 75.6415,-103.137 70.9595,-108.34"/>
</g>
<!-- Node3 -->
<g id="node5" class="node"><title>Node3</title>
<a xlink:href="_identity_factory_8cpp.html" target="_top" xlink:title="pkg/AMORE/src/IdentityFactory.cpp">
<polygon fill="white" stroke="black" points="61.5,-56.5 61.5,-75.5 242.5,-75.5 242.5,-56.5 61.5,-56.5"/>
<text text-anchor="middle" x="152" y="-63.5" font-family="Helvetica,sans-Serif" font-size="10.00">pkg/AMORE/src/IdentityFactory.cpp</text>
</a>
</g>
<!-- Node1&#45;&gt;Node3 -->
<g id="edge4" class="edge"><title>Node1&#45;&gt;Node3</title>
<path fill="none" stroke="midnightblue" d="M109.181,-105.537C119.879,-95.9087 133.256,-83.8694 142.185,-75.8339"/>
<polygon fill="midnightblue" stroke="midnightblue" points="106.732,-103.033 101.64,-112.324 111.414,-108.236 106.732,-103.033"/>
</g>
<!-- Node3&#45;&gt;Node2 -->
<g id="edge6" class="edge"><title>Node3&#45;&gt;Node2</title>
<path fill="none" stroke="midnightblue" d="M134.819,-49.5372C124.121,-39.9087 110.744,-27.8694 101.815,-19.8339"/>
<polygon fill="midnightblue" stroke="midnightblue" points="132.586,-52.2358 142.36,-56.324 137.268,-47.0327 132.586,-52.2358"/>
</g>
</g>
</svg>
