<?xml version="1.0" encoding="UTF-8" standalone="no"?>
<!DOCTYPE svg PUBLIC "-//W3C//DTD SVG 1.1//EN"
 "http://www.w3.org/Graphics/SVG/1.1/DTD/svg11.dtd">
<!-- Generated by graphviz version 2.28.0 (20110610.2051)
 -->
<!-- Title: G Pages: 1 -->
<svg width="1132pt" height="140pt"
 viewBox="0.00 0.00 1132.00 140.00" xmlns="http://www.w3.org/2000/svg" xmlns:xlink="http://www.w3.org/1999/xlink">
<g id="graph1" class="graph" transform="scale(1 1) rotate(0) translate(4 136)">
<title>G</title>
<polygon fill="white" stroke="white" points="-4,5 -4,-136 1129,-136 1129,5 -4,5"/>
<!-- Node1 -->
<g id="node1" class="node"><title>Node1</title>
<polygon fill="#bfbfbf" stroke="black" points="0,-112.5 0,-131.5 584,-131.5 584,-112.5 0,-112.5"/>
<text text-anchor="middle" x="292" y="-119.5" font-family="Helvetica,sans-Serif" font-size="10.00">/Users/mcasl/pc&#45;ule/Trabajo/investigacion/AMORE/AMORE&#45;WC/AMORE&#45;WC/pkg/AMORE/src/classHeaders/IdentityFactory.h</text>
</g>
<!-- Node2 -->
<g id="node3" class="node"><title>Node2</title>
<a xlink:href="_a_m_o_r_e_8h.html" target="_top" xlink:title="/Users/mcasl/pc&#45;ule/Trabajo/investigacion/AMORE/AMORE&#45;WC/AMORE&#45;WC/pkg/AMORE/src/AMORE.h">
<polygon fill="white" stroke="black" points="48,-0.5 48,-19.5 536,-19.5 536,-0.5 48,-0.5"/>
<text text-anchor="middle" x="292" y="-7.5" font-family="Helvetica,sans-Serif" font-size="10.00">/Users/mcasl/pc&#45;ule/Trabajo/investigacion/AMORE/AMORE&#45;WC/AMORE&#45;WC/pkg/AMORE/src/AMORE.h</text>
</a>
</g>
<!-- Node1&#45;&gt;Node2 -->
<g id="edge2" class="edge"><title>Node1&#45;&gt;Node2</title>
<path fill="none" stroke="midnightblue" d="M123.2,-111.191C75.4097,-104.686 32.2024,-93.8922 17,-76 11.2444,-69.2261 11.2444,-62.7739 17,-56 33.2497,-36.8751 81.4961,-25.8608 133.135,-19.5241"/>
<polygon fill="midnightblue" stroke="midnightblue" points="122.769,-114.665 133.135,-112.476 123.667,-107.722 122.769,-114.665"/>
</g>
<!-- Node3 -->
<g id="node5" class="node"><title>Node3</title>
<a xlink:href="_identity_factory_8cpp.html" target="_top" xlink:title="/Users/mcasl/pc&#45;ule/Trabajo/investigacion/AMORE/AMORE&#45;WC/AMORE&#45;WC/pkg/AMORE/src/IdentityFactory.cpp">
<polygon fill="white" stroke="black" points="26,-56.5 26,-75.5 558,-75.5 558,-56.5 26,-56.5"/>
<text text-anchor="middle" x="292" y="-63.5" font-family="Helvetica,sans-Serif" font-size="10.00">/Users/mcasl/pc&#45;ule/Trabajo/investigacion/AMORE/AMORE&#45;WC/AMORE&#45;WC/pkg/AMORE/src/IdentityFactory.cpp</text>
</a>
</g>
<!-- Node1&#45;&gt;Node3 -->
<g id="edge4" class="edge"><title>Node1&#45;&gt;Node3</title>
<path fill="none" stroke="midnightblue" d="M292,-101.805C292,-92.9102 292,-82.7798 292,-75.7511"/>
<polygon fill="midnightblue" stroke="midnightblue" points="288.5,-102.083 292,-112.083 295.5,-102.083 288.5,-102.083"/>
</g>
<!-- Node4 -->
<g id="node8" class="node"><title>Node4</title>
<a xlink:href="_network_rinterface_8cpp.html" target="_top" xlink:title="/Users/mcasl/pc&#45;ule/Trabajo/investigacion/AMORE/AMORE&#45;WC/AMORE&#45;WC/pkg/AMORE/src/NetworkRinterface.cpp">
<polygon fill="white" stroke="black" points="576,-56.5 576,-75.5 1124,-75.5 1124,-56.5 576,-56.5"/>
<text text-anchor="middle" x="850" y="-63.5" font-family="Helvetica,sans-Serif" font-size="10.00">/Users/mcasl/pc&#45;ule/Trabajo/investigacion/AMORE/AMORE&#45;WC/AMORE&#45;WC/pkg/AMORE/src/NetworkRinterface.cpp</text>
</a>
</g>
<!-- Node1&#45;&gt;Node4 -->
<g id="edge8" class="edge"><title>Node1&#45;&gt;Node4</title>
<path fill="none" stroke="midnightblue" d="M390.095,-111.507C495.269,-101.329 660.74,-85.3155 761.894,-75.5264"/>
<polygon fill="midnightblue" stroke="midnightblue" points="389.725,-108.026 380.109,-112.473 390.4,-114.994 389.725,-108.026"/>
</g>
<!-- Node3&#45;&gt;Node2 -->
<g id="edge6" class="edge"><title>Node3&#45;&gt;Node2</title>
<path fill="none" stroke="midnightblue" d="M292,-45.8045C292,-36.9102 292,-26.7798 292,-19.7511"/>
<polygon fill="midnightblue" stroke="midnightblue" points="288.5,-46.083 292,-56.083 295.5,-46.083 288.5,-46.083"/>
</g>
<!-- Node4&#45;&gt;Node2 -->
<g id="edge10" class="edge"><title>Node4&#45;&gt;Node2</title>
<path fill="none" stroke="midnightblue" d="M751.905,-55.507C646.731,-45.3288 481.26,-29.3155 380.106,-19.5264"/>
<polygon fill="midnightblue" stroke="midnightblue" points="751.6,-58.9937 761.891,-56.4733 752.275,-52.0263 751.6,-58.9937"/>
</g>
</g>
</svg>
