<?xml version="1.0" encoding="UTF-8" standalone="no"?>
<!DOCTYPE svg PUBLIC "-//W3C//DTD SVG 1.1//EN"
 "http://www.w3.org/Graphics/SVG/1.1/DTD/svg11.dtd">
<!-- Generated by graphviz version 2.28.0 (20110610.2051)
 -->
<!-- Title: G Pages: 1 -->
<svg width="207pt" height="140pt"
 viewBox="0.00 0.00 207.00 140.00" xmlns="http://www.w3.org/2000/svg" xmlns:xlink="http://www.w3.org/1999/xlink">
<g id="graph1" class="graph" transform="scale(1 1) rotate(0) translate(4 136)">
<title>G</title>
<polygon fill="white" stroke="white" points="-4,5 -4,-136 204,-136 204,5 -4,5"/>
<!-- Node1 -->
<g id="node1" class="node"><title>Node1</title>
<polygon fill="#bfbfbf" stroke="black" points="0,-112.5 0,-131.5 150,-131.5 150,-112.5 0,-112.5"/>
<text text-anchor="middle" x="75" y="-119.5" font-family="Helvetica,sans-Serif" font-size="10.00">pkg/AMORE/src/dia/Identity.h</text>
</g>
<!-- Node2 -->
<g id="node3" class="node"><title>Node2</title>
<a xlink:href="_a_m_o_r_e_8h.html" target="_top" xlink:title="pkg/AMORE/src/AMORE.h">
<polygon fill="white" stroke="black" points="6.5,-0.5 6.5,-19.5 143.5,-19.5 143.5,-0.5 6.5,-0.5"/>
<text text-anchor="middle" x="75" y="-7.5" font-family="Helvetica,sans-Serif" font-size="10.00">pkg/AMORE/src/AMORE.h</text>
</a>
</g>
<!-- Node1&#45;&gt;Node2 -->
<g id="edge2" class="edge"><title>Node1&#45;&gt;Node2</title>
<path fill="none" stroke="midnightblue" d="M60.0247,-104.473C53.7757,-96.4791 47.2286,-86.3778 44,-76 37.3891,-54.7503 54.9587,-31.6261 66.2789,-19.5075"/>
<polygon fill="midnightblue" stroke="midnightblue" points="57.4162,-106.81 66.5173,-112.234 62.7851,-102.318 57.4162,-106.81"/>
</g>
<!-- Node3 -->
<g id="node5" class="node"><title>Node3</title>
<a xlink:href="_identity_8cpp.html" target="_top" xlink:title="pkg/AMORE/src/Identity.cpp">
<polygon fill="white" stroke="black" points="53,-56.5 53,-75.5 199,-75.5 199,-56.5 53,-56.5"/>
<text text-anchor="middle" x="126" y="-63.5" font-family="Helvetica,sans-Serif" font-size="10.00">pkg/AMORE/src/Identity.cpp</text>
</a>
</g>
<!-- Node1&#45;&gt;Node3 -->
<g id="edge4" class="edge"><title>Node1&#45;&gt;Node3</title>
<path fill="none" stroke="midnightblue" d="M90.3779,-104.718C99.3669,-95.1997 110.359,-83.5608 117.735,-75.7511"/>
<polygon fill="midnightblue" stroke="midnightblue" points="87.7433,-102.41 83.4216,-112.083 92.8324,-107.216 87.7433,-102.41"/>
</g>
<!-- Node3&#45;&gt;Node2 -->
<g id="edge6" class="edge"><title>Node3&#45;&gt;Node2</title>
<path fill="none" stroke="midnightblue" d="M110.622,-48.7175C101.633,-39.1997 90.6408,-27.5608 83.2649,-19.7511"/>
<polygon fill="midnightblue" stroke="midnightblue" points="108.168,-51.216 117.578,-56.083 113.257,-46.4096 108.168,-51.216"/>
</g>
</g>
</svg>
