<?xml version="1.0" encoding="UTF-8" standalone="no"?>
<!DOCTYPE svg PUBLIC "-//W3C//DTD SVG 1.1//EN"
 "http://www.w3.org/Graphics/SVG/1.1/DTD/svg11.dtd">
<!-- Generated by graphviz version 2.28.0 (20110610.2051)
 -->
<!-- Title: G Pages: 1 -->
<svg width="236pt" height="196pt"
 viewBox="0.00 0.00 236.00 196.00" xmlns="http://www.w3.org/2000/svg" xmlns:xlink="http://www.w3.org/1999/xlink">
<g id="graph1" class="graph" transform="scale(1 1) rotate(0) translate(4 192)">
<title>G</title>
<polygon fill="white" stroke="white" points="-4,5 -4,-192 233,-192 233,5 -4,5"/>
<!-- Node1 -->
<g id="node1" class="node"><title>Node1</title>
<polygon fill="#bfbfbf" stroke="black" points="-0.5,-168.5 -0.5,-187.5 180.5,-187.5 180.5,-168.5 -0.5,-168.5"/>
<text text-anchor="middle" x="90" y="-175.5" font-family="Helvetica,sans-Serif" font-size="10.00">pkg/AMORE/src/IdentityFactory.cpp</text>
</g>
<!-- Node2 -->
<g id="node3" class="node"><title>Node2</title>
<a xlink:href="_neural_factory_8h.html" target="_top" xlink:title="dia/NeuralFactory.h">
<polygon fill="white" stroke="black" points="37,-0.5 37,-19.5 141,-19.5 141,-0.5 37,-0.5"/>
<text text-anchor="middle" x="89" y="-7.5" font-family="Helvetica,sans-Serif" font-size="10.00">dia/NeuralFactory.h</text>
</a>
</g>
<!-- Node1&#45;&gt;Node2 -->
<g id="edge2" class="edge"><title>Node1&#45;&gt;Node2</title>
<path fill="none" stroke="midnightblue" d="M86.6266,-168.456C79.2399,-148.627 62.9173,-97.9701 71,-56 72.7901,-46.7047 76.483,-36.8887 80.0607,-28.8048"/>
<polygon fill="midnightblue" stroke="midnightblue" points="83.2733,-30.1981 84.3788,-19.6611 76.9436,-27.2089 83.2733,-30.1981"/>
</g>
<!-- Node3 -->
<g id="node5" class="node"><title>Node3</title>
<a xlink:href="_m_l_pfactory_8h.html" target="_top" xlink:title="dia/MLPfactory.h">
<polygon fill="white" stroke="black" points="80.5,-56.5 80.5,-75.5 173.5,-75.5 173.5,-56.5 80.5,-56.5"/>
<text text-anchor="middle" x="127" y="-63.5" font-family="Helvetica,sans-Serif" font-size="10.00">dia/MLPfactory.h</text>
</a>
</g>
<!-- Node1&#45;&gt;Node3 -->
<g id="edge4" class="edge"><title>Node1&#45;&gt;Node3</title>
<path fill="none" stroke="midnightblue" d="M92.3146,-168.084C95.6524,-155.479 102.17,-131.782 109,-112 112.128,-102.94 116.036,-93.0338 119.411,-84.8277"/>
<polygon fill="midnightblue" stroke="midnightblue" points="122.668,-86.1102 123.301,-75.5343 116.211,-83.4071 122.668,-86.1102"/>
</g>
<!-- Node4 -->
<g id="node8" class="node"><title>Node4</title>
<a xlink:href="_identity_factory_8h.html" target="_top" xlink:title="dia/IdentityFactory.h">
<polygon fill="white" stroke="black" points="118,-112.5 118,-131.5 228,-131.5 228,-112.5 118,-112.5"/>
<text text-anchor="middle" x="173" y="-119.5" font-family="Helvetica,sans-Serif" font-size="10.00">dia/IdentityFactory.h</text>
</a>
</g>
<!-- Node1&#45;&gt;Node4 -->
<g id="edge8" class="edge"><title>Node1&#45;&gt;Node4</title>
<path fill="none" stroke="midnightblue" d="M103.335,-168.324C116.162,-159.979 135.785,-147.212 150.94,-137.352"/>
<polygon fill="midnightblue" stroke="midnightblue" points="153.224,-140.042 159.698,-131.655 149.407,-134.174 153.224,-140.042"/>
</g>
<!-- Node3&#45;&gt;Node2 -->
<g id="edge6" class="edge"><title>Node3&#45;&gt;Node2</title>
<path fill="none" stroke="midnightblue" d="M120.725,-56.083C115.358,-48.4554 107.482,-37.2645 100.921,-27.9408"/>
<polygon fill="midnightblue" stroke="midnightblue" points="103.775,-25.9149 95.1582,-19.7511 98.0508,-29.9434 103.775,-25.9149"/>
</g>
<!-- Node4&#45;&gt;Node3 -->
<g id="edge10" class="edge"><title>Node4&#45;&gt;Node3</title>
<path fill="none" stroke="midnightblue" d="M165.404,-112.083C158.773,-104.298 148.979,-92.8015 140.942,-83.3665"/>
<polygon fill="midnightblue" stroke="midnightblue" points="143.604,-81.0939 134.455,-75.7511 138.275,-85.6332 143.604,-81.0939"/>
</g>
</g>
</svg>
