<?xml version="1.0" encoding="UTF-8" standalone="no"?>
<!DOCTYPE svg PUBLIC "-//W3C//DTD SVG 1.1//EN"
 "http://www.w3.org/Graphics/SVG/1.1/DTD/svg11.dtd">
<!-- Generated by graphviz version 2.28.0 (20110610.2051)
 -->
<!-- Title: G Pages: 1 -->
<svg width="192pt" height="140pt"
 viewBox="0.00 0.00 192.00 140.00" xmlns="http://www.w3.org/2000/svg" xmlns:xlink="http://www.w3.org/1999/xlink">
<g id="graph1" class="graph" transform="scale(1 1) rotate(0) translate(4 136)">
<title>G</title>
<polygon fill="white" stroke="white" points="-4,5 -4,-136 189,-136 189,5 -4,5"/>
<!-- Node1 -->
<g id="node1" class="node"><title>Node1</title>
<polygon fill="#bfbfbf" stroke="black" points="-0.5,-112.5 -0.5,-131.5 184.5,-131.5 184.5,-112.5 -0.5,-112.5"/>
<text text-anchor="middle" x="92" y="-119.5" font-family="Helvetica,sans-Serif" font-size="10.00">pkg/AMORE/src/dia/IdentityFactory.h</text>
</g>
<!-- Node2 -->
<g id="node3" class="node"><title>Node2</title>
<a xlink:href="_m_l_pfactory_8h.html" target="_top" xlink:title="MLPfactory.h">
<polygon fill="white" stroke="black" points="53.5,-56.5 53.5,-75.5 130.5,-75.5 130.5,-56.5 53.5,-56.5"/>
<text text-anchor="middle" x="92" y="-63.5" font-family="Helvetica,sans-Serif" font-size="10.00">MLPfactory.h</text>
</a>
</g>
<!-- Node1&#45;&gt;Node2 -->
<g id="edge2" class="edge"><title>Node1&#45;&gt;Node2</title>
<path fill="none" stroke="midnightblue" d="M92,-112.083C92,-105.006 92,-94.8611 92,-85.9865"/>
<polygon fill="midnightblue" stroke="midnightblue" points="95.5001,-85.751 92,-75.7511 88.5001,-85.7511 95.5001,-85.751"/>
</g>
<!-- Node3 -->
<g id="node5" class="node"><title>Node3</title>
<a xlink:href="_neural_factory_8h.html" target="_top" xlink:title="NeuralFactory.h">
<polygon fill="white" stroke="black" points="47.5,-0.5 47.5,-19.5 136.5,-19.5 136.5,-0.5 47.5,-0.5"/>
<text text-anchor="middle" x="92" y="-7.5" font-family="Helvetica,sans-Serif" font-size="10.00">NeuralFactory.h</text>
</a>
</g>
<!-- Node2&#45;&gt;Node3 -->
<g id="edge4" class="edge"><title>Node2&#45;&gt;Node3</title>
<path fill="none" stroke="midnightblue" d="M92,-56.083C92,-49.0059 92,-38.8611 92,-29.9865"/>
<polygon fill="midnightblue" stroke="midnightblue" points="95.5001,-29.751 92,-19.7511 88.5001,-29.7511 95.5001,-29.751"/>
</g>
</g>
</svg>
