<?xml version="1.0" encoding="UTF-8" standalone="no"?>
<!DOCTYPE svg PUBLIC "-//W3C//DTD SVG 1.1//EN"
 "http://www.w3.org/Graphics/SVG/1.1/DTD/svg11.dtd">
<!-- Generated by graphviz version 2.28.0 (20110610.2051)
 -->
<!-- Title: G Pages: 1 -->
<svg width="426pt" height="196pt"
 viewBox="0.00 0.00 425.85 196.00" xmlns="http://www.w3.org/2000/svg" xmlns:xlink="http://www.w3.org/1999/xlink">
<g id="graph1" class="graph" transform="scale(1 1) rotate(0) translate(4 192)">
<title>G</title>
<polygon fill="white" stroke="white" points="-4,5 -4,-192 422.852,-192 422.852,5 -4,5"/>
<!-- Node1 -->
<g id="node1" class="node"><title>Node1</title>
<polygon fill="#bfbfbf" stroke="black" points="52.3523,-168.5 52.3523,-187.5 201.352,-187.5 201.352,-168.5 52.3523,-168.5"/>
<text text-anchor="middle" x="126.852" y="-175.5" font-family="Helvetica,sans-Serif" font-size="10.00">pkg/AMORE/src/dia/Iterator.h</text>
</g>
<!-- Node2 -->
<g id="node3" class="node"><title>Node2</title>
<a xlink:href="_a_m_o_r_e_8h.html" target="_top" xlink:title="pkg/AMORE/src/AMORE.h">
<polygon fill="white" stroke="black" points="6.35227,-0.5 6.35227,-19.5 143.352,-19.5 143.352,-0.5 6.35227,-0.5"/>
<text text-anchor="middle" x="74.8523" y="-7.5" font-family="Helvetica,sans-Serif" font-size="10.00">pkg/AMORE/src/AMORE.h</text>
</a>
</g>
<!-- Node1&#45;&gt;Node2 -->
<g id="edge2" class="edge"><title>Node1&#45;&gt;Node2</title>
<path fill="none" stroke="midnightblue" d="M52.682,-165.288C34.0601,-158.64 16.1748,-148.245 4.85227,-132 -6.38528,-115.877 4.89379,-76.4275 17.8523,-56 27.983,-40.0302 45.8111,-27.3255 58.8382,-19.5424"/>
<polygon fill="midnightblue" stroke="midnightblue" points="51.8649,-168.702 62.4563,-168.434 54.0095,-162.038 51.8649,-168.702"/>
</g>
<!-- Node3 -->
<g id="node5" class="node"><title>Node3</title>
<a xlink:href="_simple_container_iterator_8h.html" target="_top" xlink:title="pkg/AMORE/src/dia/SimpleContainerIterator.h">
<polygon fill="white" stroke="black" points="14.3523,-112.5 14.3523,-131.5 239.352,-131.5 239.352,-112.5 14.3523,-112.5"/>
<text text-anchor="middle" x="126.852" y="-119.5" font-family="Helvetica,sans-Serif" font-size="10.00">pkg/AMORE/src/dia/SimpleContainerIterator.h</text>
</a>
</g>
<!-- Node1&#45;&gt;Node3 -->
<g id="edge4" class="edge"><title>Node1&#45;&gt;Node3</title>
<path fill="none" stroke="midnightblue" d="M126.852,-157.805C126.852,-148.91 126.852,-138.78 126.852,-131.751"/>
<polygon fill="midnightblue" stroke="midnightblue" points="123.352,-158.083 126.852,-168.083 130.352,-158.083 123.352,-158.083"/>
</g>
<!-- Node5 -->
<g id="node11" class="node"><title>Node5</title>
<a xlink:href="_iterator_8cpp.html" target="_top" xlink:title="pkg/AMORE/src/Iterator.cpp">
<polygon fill="white" stroke="black" points="273.352,-56.5 273.352,-75.5 418.352,-75.5 418.352,-56.5 273.352,-56.5"/>
<text text-anchor="middle" x="345.852" y="-63.5" font-family="Helvetica,sans-Serif" font-size="10.00">pkg/AMORE/src/Iterator.cpp</text>
</a>
</g>
<!-- Node1&#45;&gt;Node5 -->
<g id="edge12" class="edge"><title>Node1&#45;&gt;Node5</title>
<path fill="none" stroke="midnightblue" d="M165.087,-165.29C189.383,-157.244 221.169,-145.583 247.852,-132 281.148,-115.051 316.92,-89.1188 334.613,-75.7074"/>
<polygon fill="midnightblue" stroke="midnightblue" points="163.932,-161.985 155.504,-168.406 166.096,-168.642 163.932,-161.985"/>
</g>
<!-- Node3&#45;&gt;Node2 -->
<g id="edge6" class="edge"><title>Node3&#45;&gt;Node2</title>
<path fill="none" stroke="midnightblue" d="M70.6984,-109.126C52.9905,-102.449 35.3305,-92.0753 24.8523,-76 11.014,-54.7697 40.5925,-31.6379 59.9016,-19.5129"/>
<polygon fill="midnightblue" stroke="midnightblue" points="69.9011,-112.552 80.4957,-112.467 72.161,-105.926 69.9011,-112.552"/>
</g>
<!-- Node4 -->
<g id="node8" class="node"><title>Node4</title>
<a xlink:href="_simple_container_iterator_8cpp.html" target="_top" xlink:title="pkg/AMORE/src/SimpleContainerIterator.cpp">
<polygon fill="white" stroke="black" points="34.3523,-56.5 34.3523,-75.5 255.352,-75.5 255.352,-56.5 34.3523,-56.5"/>
<text text-anchor="middle" x="144.852" y="-63.5" font-family="Helvetica,sans-Serif" font-size="10.00">pkg/AMORE/src/SimpleContainerIterator.cpp</text>
</a>
</g>
<!-- Node3&#45;&gt;Node4 -->
<g id="edge8" class="edge"><title>Node3&#45;&gt;Node4</title>
<path fill="none" stroke="midnightblue" d="M133.054,-102.396C136.065,-93.362 139.54,-82.936 141.935,-75.7511"/>
<polygon fill="midnightblue" stroke="midnightblue" points="129.667,-101.489 129.825,-112.083 136.307,-103.703 129.667,-101.489"/>
</g>
<!-- Node4&#45;&gt;Node2 -->
<g id="edge10" class="edge"><title>Node4&#45;&gt;Node2</title>
<path fill="none" stroke="midnightblue" d="M125.538,-50.1008C112.941,-40.3824 96.9242,-28.0269 86.3036,-19.8339"/>
<polygon fill="midnightblue" stroke="midnightblue" points="123.55,-52.9871 133.606,-56.324 127.826,-47.4446 123.55,-52.9871"/>
</g>
<!-- Node5&#45;&gt;Node2 -->
<g id="edge14" class="edge"><title>Node5&#45;&gt;Node2</title>
<path fill="none" stroke="midnightblue" d="M293.024,-54.4734C241.807,-44.2678 165.082,-28.9794 117.592,-19.5164"/>
<polygon fill="midnightblue" stroke="midnightblue" points="292.42,-57.9218 302.912,-56.4435 293.788,-51.0567 292.42,-57.9218"/>
</g>
</g>
</svg>
