<?xml version="1.0" encoding="UTF-8" standalone="no"?>
<!DOCTYPE svg PUBLIC "-//W3C//DTD SVG 1.1//EN"
 "http://www.w3.org/Graphics/SVG/1.1/DTD/svg11.dtd">
<!-- Generated by graphviz version 2.28.0 (20110610.2051)
 -->
<!-- Title: G Pages: 1 -->
<svg width="3522pt" height="140pt"
 viewBox="0.00 0.00 3522.00 140.00" xmlns="http://www.w3.org/2000/svg" xmlns:xlink="http://www.w3.org/1999/xlink">
<g id="graph1" class="graph" transform="scale(1 1) rotate(0) translate(4 136)">
<title>G</title>
<polygon fill="white" stroke="white" points="-4,5 -4,-136 3519,-136 3519,5 -4,5"/>
<!-- Node1 -->
<g id="node1" class="node"><title>Node1</title>
<polygon fill="#bfbfbf" stroke="black" points="1350,-112.5 1350,-131.5 1898,-131.5 1898,-112.5 1350,-112.5"/>
<text text-anchor="middle" x="1624" y="-119.5" font-family="Helvetica,sans-Serif" font-size="10.00">/Users/mcasl/pc&#45;ule/Trabajo/investigacion/AMORE/AMORE&#45;WC/AMORE&#45;WC/pkg/AMORE/src/classHeaders/Iterator.h</text>
</g>
<!-- Node2 -->
<g id="node3" class="node"><title>Node2</title>
<a xlink:href="_simple_container_iterator_8h.html" target="_top" xlink:title="/Users/mcasl/pc&#45;ule/Trabajo/investigacion/AMORE/AMORE&#45;WC/AMORE&#45;WC/pkg/AMORE/src/classHeaders/SimpleContainerIterator.h">
<polygon fill="white" stroke="black" points="-0.5,-56.5 -0.5,-75.5 624.5,-75.5 624.5,-56.5 -0.5,-56.5"/>
<text text-anchor="middle" x="312" y="-63.5" font-family="Helvetica,sans-Serif" font-size="10.00">/Users/mcasl/pc&#45;ule/Trabajo/investigacion/AMORE/AMORE&#45;WC/AMORE&#45;WC/pkg/AMORE/src/classHeaders/SimpleContainerIterator.h</text>
</a>
</g>
<!-- Node1&#45;&gt;Node2 -->
<g id="edge2" class="edge"><title>Node1&#45;&gt;Node2</title>
<path fill="none" stroke="midnightblue" d="M1407.03,-112.07C1160.47,-101.922 760.97,-85.4789 518.741,-75.5091"/>
<polygon fill="midnightblue" stroke="midnightblue" points="1407.06,-115.574 1417.2,-112.488 1407.35,-108.58 1407.06,-115.574"/>
</g>
<!-- Node3 -->
<g id="node5" class="node"><title>Node3</title>
<a xlink:href="_a_m_o_r_e_8h.html" target="_top" xlink:title="/Users/mcasl/pc&#45;ule/Trabajo/investigacion/AMORE/AMORE&#45;WC/AMORE&#45;WC/pkg/AMORE/src/AMORE.h">
<polygon fill="white" stroke="black" points="1380,-0.5 1380,-19.5 1868,-19.5 1868,-0.5 1380,-0.5"/>
<text text-anchor="middle" x="1624" y="-7.5" font-family="Helvetica,sans-Serif" font-size="10.00">/Users/mcasl/pc&#45;ule/Trabajo/investigacion/AMORE/AMORE&#45;WC/AMORE&#45;WC/pkg/AMORE/src/AMORE.h</text>
</a>
</g>
<!-- Node1&#45;&gt;Node3 -->
<g id="edge6" class="edge"><title>Node1&#45;&gt;Node3</title>
<path fill="none" stroke="midnightblue" d="M1339.73,-117.006C1067.64,-111.746 695.047,-100.162 672,-76 665.865,-69.5679 665.865,-62.4321 672,-56 696.206,-30.6229 1106,-19.121 1379.97,-14.2469"/>
<polygon fill="midnightblue" stroke="midnightblue" points="1339.71,-120.507 1349.77,-117.199 1339.84,-113.508 1339.71,-120.507"/>
</g>
<!-- Node4 -->
<g id="node8" class="node"><title>Node4</title>
<a xlink:href="_simple_container_reverse_iterator_8h.html" target="_top" xlink:title="/Users/mcasl/pc&#45;ule/Trabajo/investigacion/AMORE/AMORE&#45;WC/AMORE&#45;WC/pkg/AMORE/src/classHeaders/SimpleContainerReverseIterator.h">
<polygon fill="white" stroke="black" points="681,-56.5 681,-75.5 1345,-75.5 1345,-56.5 681,-56.5"/>
<text text-anchor="middle" x="1013" y="-63.5" font-family="Helvetica,sans-Serif" font-size="10.00">/Users/mcasl/pc&#45;ule/Trabajo/investigacion/AMORE/AMORE&#45;WC/AMORE&#45;WC/pkg/AMORE/src/classHeaders/SimpleContainerReverseIterator.h</text>
</a>
</g>
<!-- Node1&#45;&gt;Node4 -->
<g id="edge8" class="edge"><title>Node1&#45;&gt;Node4</title>
<path fill="none" stroke="midnightblue" d="M1517.28,-111.568C1402.06,-101.385 1220.18,-85.3107 1109.22,-75.5042"/>
<polygon fill="midnightblue" stroke="midnightblue" points="1517.25,-115.079 1527.52,-112.473 1517.87,-108.106 1517.25,-115.079"/>
</g>
<!-- Node5 -->
<g id="node11" class="node"><title>Node5</title>
<a xlink:href="_m_l_pbehavior_8cpp.html" target="_top" xlink:title="/Users/mcasl/pc&#45;ule/Trabajo/investigacion/AMORE/AMORE&#45;WC/AMORE&#45;WC/pkg/AMORE/src/MLPbehavior.cpp">
<polygon fill="white" stroke="black" points="1363,-56.5 1363,-75.5 1885,-75.5 1885,-56.5 1363,-56.5"/>
<text text-anchor="middle" x="1624" y="-63.5" font-family="Helvetica,sans-Serif" font-size="10.00">/Users/mcasl/pc&#45;ule/Trabajo/investigacion/AMORE/AMORE&#45;WC/AMORE&#45;WC/pkg/AMORE/src/MLPbehavior.cpp</text>
</a>
</g>
<!-- Node1&#45;&gt;Node5 -->
<g id="edge12" class="edge"><title>Node1&#45;&gt;Node5</title>
<path fill="none" stroke="midnightblue" d="M1624,-101.805C1624,-92.9102 1624,-82.7798 1624,-75.7511"/>
<polygon fill="midnightblue" stroke="midnightblue" points="1620.5,-102.083 1624,-112.083 1627.5,-102.083 1620.5,-102.083"/>
</g>
<!-- Node6 -->
<g id="node14" class="node"><title>Node6</title>
<a xlink:href="_simple_neuron_8cpp.html" target="_top" xlink:title="/Users/mcasl/pc&#45;ule/Trabajo/investigacion/AMORE/AMORE&#45;WC/AMORE&#45;WC/pkg/AMORE/src/SimpleNeuron.cpp">
<polygon fill="white" stroke="black" points="1903.5,-56.5 1903.5,-75.5 2430.5,-75.5 2430.5,-56.5 1903.5,-56.5"/>
<text text-anchor="middle" x="2167" y="-63.5" font-family="Helvetica,sans-Serif" font-size="10.00">/Users/mcasl/pc&#45;ule/Trabajo/investigacion/AMORE/AMORE&#45;WC/AMORE&#45;WC/pkg/AMORE/src/SimpleNeuron.cpp</text>
</a>
</g>
<!-- Node1&#45;&gt;Node6 -->
<g id="edge16" class="edge"><title>Node1&#45;&gt;Node6</title>
<path fill="none" stroke="midnightblue" d="M1719.77,-111.476C1822.13,-101.297 1982.93,-85.3056 2081.26,-75.5264"/>
<polygon fill="midnightblue" stroke="midnightblue" points="1719.34,-108.001 1709.74,-112.473 1720.04,-114.966 1719.34,-108.001"/>
</g>
<!-- Node7 -->
<g id="node17" class="node"><title>Node7</title>
<a xlink:href="_m_l_pfactory_8cpp.html" target="_top" xlink:title="/Users/mcasl/pc&#45;ule/Trabajo/investigacion/AMORE/AMORE&#45;WC/AMORE&#45;WC/pkg/AMORE/src/MLPfactory.cpp">
<polygon fill="white" stroke="black" points="2448.5,-56.5 2448.5,-75.5 2963.5,-75.5 2963.5,-56.5 2448.5,-56.5"/>
<text text-anchor="middle" x="2706" y="-63.5" font-family="Helvetica,sans-Serif" font-size="10.00">/Users/mcasl/pc&#45;ule/Trabajo/investigacion/AMORE/AMORE&#45;WC/AMORE&#45;WC/pkg/AMORE/src/MLPfactory.cpp</text>
</a>
</g>
<!-- Node1&#45;&gt;Node7 -->
<g id="edge20" class="edge"><title>Node1&#45;&gt;Node7</title>
<path fill="none" stroke="midnightblue" d="M1804.75,-111.979C2008.22,-101.824 2336.33,-85.4493 2535.5,-75.5091"/>
<polygon fill="midnightblue" stroke="midnightblue" points="1804.36,-108.494 1794.55,-112.488 1804.71,-115.485 1804.36,-108.494"/>
</g>
<!-- Node8 -->
<g id="node20" class="node"><title>Node8</title>
<a xlink:href="_simple_network_8cpp.html" target="_top" xlink:title="/Users/mcasl/pc&#45;ule/Trabajo/investigacion/AMORE/AMORE&#45;WC/AMORE&#45;WC/pkg/AMORE/src/SimpleNetwork.cpp">
<polygon fill="white" stroke="black" points="2981.5,-56.5 2981.5,-75.5 3514.5,-75.5 3514.5,-56.5 2981.5,-56.5"/>
<text text-anchor="middle" x="3248" y="-63.5" font-family="Helvetica,sans-Serif" font-size="10.00">/Users/mcasl/pc&#45;ule/Trabajo/investigacion/AMORE/AMORE&#45;WC/AMORE&#45;WC/pkg/AMORE/src/SimpleNetwork.cpp</text>
</a>
</g>
<!-- Node1&#45;&gt;Node8 -->
<g id="edge24" class="edge"><title>Node1&#45;&gt;Node8</title>
<path fill="none" stroke="midnightblue" d="M1890.3,-112.145C2195.3,-102.003 2691.52,-85.5036 2992.1,-75.5091"/>
<polygon fill="midnightblue" stroke="midnightblue" points="1889.86,-108.658 1879.98,-112.488 1890.09,-115.654 1889.86,-108.658"/>
</g>
<!-- Node2&#45;&gt;Node3 -->
<g id="edge4" class="edge"><title>Node2&#45;&gt;Node3</title>
<path fill="none" stroke="midnightblue" d="M528.969,-56.0699C775.525,-45.922 1175.03,-29.4789 1417.26,-19.5091"/>
<polygon fill="midnightblue" stroke="midnightblue" points="528.652,-52.5799 518.805,-56.4882 528.94,-59.5739 528.652,-52.5799"/>
</g>
<!-- Node4&#45;&gt;Node3 -->
<g id="edge10" class="edge"><title>Node4&#45;&gt;Node3</title>
<path fill="none" stroke="midnightblue" d="M1119.72,-55.5678C1234.94,-45.385 1416.82,-29.3107 1527.78,-19.5042"/>
<polygon fill="midnightblue" stroke="midnightblue" points="1119.13,-52.1065 1109.48,-56.4733 1119.75,-59.0793 1119.13,-52.1065"/>
</g>
<!-- Node5&#45;&gt;Node3 -->
<g id="edge14" class="edge"><title>Node5&#45;&gt;Node3</title>
<path fill="none" stroke="midnightblue" d="M1624,-45.8045C1624,-36.9102 1624,-26.7798 1624,-19.7511"/>
<polygon fill="midnightblue" stroke="midnightblue" points="1620.5,-46.083 1624,-56.083 1627.5,-46.083 1620.5,-46.083"/>
</g>
<!-- Node6&#45;&gt;Node3 -->
<g id="edge18" class="edge"><title>Node6&#45;&gt;Node3</title>
<path fill="none" stroke="midnightblue" d="M2071.23,-55.4762C1968.87,-45.2965 1808.07,-29.3056 1709.74,-19.5264"/>
<polygon fill="midnightblue" stroke="midnightblue" points="2070.96,-58.9665 2081.26,-56.4733 2071.66,-52.0008 2070.96,-58.9665"/>
</g>
<!-- Node7&#45;&gt;Node3 -->
<g id="edge22" class="edge"><title>Node7&#45;&gt;Node3</title>
<path fill="none" stroke="midnightblue" d="M2525.25,-55.9793C2321.78,-45.8243 1993.67,-29.4493 1794.5,-19.5091"/>
<polygon fill="midnightblue" stroke="midnightblue" points="2525.29,-59.4853 2535.45,-56.4882 2525.64,-52.494 2525.29,-59.4853"/>
</g>
<!-- Node8&#45;&gt;Node3 -->
<g id="edge26" class="edge"><title>Node8&#45;&gt;Node3</title>
<path fill="none" stroke="midnightblue" d="M2981.56,-56.1407C2672.58,-45.8667 2167.5,-29.072 1868.28,-19.1226"/>
<polygon fill="midnightblue" stroke="midnightblue" points="2981.91,-59.6539 2992.02,-56.4882 2982.14,-52.6577 2981.91,-59.6539"/>
</g>
</g>
</svg>
