<?xml version="1.0" encoding="UTF-8" standalone="no"?>
<!DOCTYPE svg PUBLIC "-//W3C//DTD SVG 1.1//EN"
 "http://www.w3.org/Graphics/SVG/1.1/DTD/svg11.dtd">
<!-- Generated by graphviz version 2.28.0 (20110610.2051)
 -->
<!-- Title: G Pages: 1 -->
<svg width="2840pt" height="140pt"
 viewBox="0.00 0.00 2840.00 140.00" xmlns="http://www.w3.org/2000/svg" xmlns:xlink="http://www.w3.org/1999/xlink">
<g id="graph1" class="graph" transform="scale(1 1) rotate(0) translate(4 136)">
<title>G</title>
<polygon fill="white" stroke="white" points="-4,5 -4,-136 2837,-136 2837,5 -4,5"/>
<!-- Node1 -->
<g id="node1" class="node"><title>Node1</title>
<polygon fill="#bfbfbf" stroke="black" points="939,-112.5 939,-131.5 1487,-131.5 1487,-112.5 939,-112.5"/>
<text text-anchor="middle" x="1213" y="-119.5" font-family="Helvetica,sans-Serif" font-size="10.00">/Users/mcasl/pc&#45;ule/Trabajo/investigacion/AMORE/AMORE&#45;WC/AMORE&#45;WC/pkg/AMORE/src/classHeaders/Iterator.h</text>
</g>
<!-- Node2 -->
<g id="node3" class="node"><title>Node2</title>
<a xlink:href="_simple_container_iterator_8h.html" target="_top" xlink:title="/Users/mcasl/pc&#45;ule/Trabajo/investigacion/AMORE/AMORE&#45;WC/AMORE&#45;WC/pkg/AMORE/src/classHeaders/SimpleContainerIterator.h">
<polygon fill="white" stroke="black" points="-0.5,-56.5 -0.5,-75.5 624.5,-75.5 624.5,-56.5 -0.5,-56.5"/>
<text text-anchor="middle" x="312" y="-63.5" font-family="Helvetica,sans-Serif" font-size="10.00">/Users/mcasl/pc&#45;ule/Trabajo/investigacion/AMORE/AMORE&#45;WC/AMORE&#45;WC/pkg/AMORE/src/classHeaders/SimpleContainerIterator.h</text>
</a>
</g>
<!-- Node1&#45;&gt;Node2 -->
<g id="edge2" class="edge"><title>Node1&#45;&gt;Node2</title>
<path fill="none" stroke="midnightblue" d="M1060.72,-111.873C891.127,-101.709 619.163,-85.4094 453.893,-75.5042"/>
<polygon fill="midnightblue" stroke="midnightblue" points="1060.54,-115.369 1070.73,-112.473 1060.96,-108.381 1060.54,-115.369"/>
</g>
<!-- Node3 -->
<g id="node5" class="node"><title>Node3</title>
<a xlink:href="_a_m_o_r_e_8h.html" target="_top" xlink:title="/Users/mcasl/pc&#45;ule/Trabajo/investigacion/AMORE/AMORE&#45;WC/AMORE&#45;WC/pkg/AMORE/src/AMORE.h">
<polygon fill="white" stroke="black" points="969,-0.5 969,-19.5 1457,-19.5 1457,-0.5 969,-0.5"/>
<text text-anchor="middle" x="1213" y="-7.5" font-family="Helvetica,sans-Serif" font-size="10.00">/Users/mcasl/pc&#45;ule/Trabajo/investigacion/AMORE/AMORE&#45;WC/AMORE&#45;WC/pkg/AMORE/src/AMORE.h</text>
</a>
</g>
<!-- Node1&#45;&gt;Node3 -->
<g id="edge6" class="edge"><title>Node1&#45;&gt;Node3</title>
<path fill="none" stroke="midnightblue" d="M928.563,-113.769C808.073,-107.697 690.894,-96.5314 672,-76 665.981,-69.4593 665.981,-62.5407 672,-56 693.001,-33.1793 835.426,-21.9294 968.859,-16.3847"/>
<polygon fill="midnightblue" stroke="midnightblue" points="928.571,-117.273 938.73,-114.269 928.915,-110.281 928.571,-117.273"/>
</g>
<!-- Node4 -->
<g id="node8" class="node"><title>Node4</title>
<a xlink:href="_m_l_pbehavior_8cpp.html" target="_top" xlink:title="/Users/mcasl/pc&#45;ule/Trabajo/investigacion/AMORE/AMORE&#45;WC/AMORE&#45;WC/pkg/AMORE/src/MLPbehavior.cpp">
<polygon fill="white" stroke="black" points="681,-56.5 681,-75.5 1203,-75.5 1203,-56.5 681,-56.5"/>
<text text-anchor="middle" x="942" y="-63.5" font-family="Helvetica,sans-Serif" font-size="10.00">/Users/mcasl/pc&#45;ule/Trabajo/investigacion/AMORE/AMORE&#45;WC/AMORE&#45;WC/pkg/AMORE/src/MLPbehavior.cpp</text>
</a>
</g>
<!-- Node1&#45;&gt;Node4 -->
<g id="edge8" class="edge"><title>Node1&#45;&gt;Node4</title>
<path fill="none" stroke="midnightblue" d="M1160.17,-110.473C1108.96,-100.268 1032.23,-84.9794 984.74,-75.5164"/>
<polygon fill="midnightblue" stroke="midnightblue" points="1159.57,-113.922 1170.06,-112.444 1160.94,-107.057 1159.57,-113.922"/>
</g>
<!-- Node5 -->
<g id="node11" class="node"><title>Node5</title>
<a xlink:href="_simple_neuron_8cpp.html" target="_top" xlink:title="/Users/mcasl/pc&#45;ule/Trabajo/investigacion/AMORE/AMORE&#45;WC/AMORE&#45;WC/pkg/AMORE/src/SimpleNeuron.cpp">
<polygon fill="white" stroke="black" points="1221.5,-56.5 1221.5,-75.5 1748.5,-75.5 1748.5,-56.5 1221.5,-56.5"/>
<text text-anchor="middle" x="1485" y="-63.5" font-family="Helvetica,sans-Serif" font-size="10.00">/Users/mcasl/pc&#45;ule/Trabajo/investigacion/AMORE/AMORE&#45;WC/AMORE&#45;WC/pkg/AMORE/src/SimpleNeuron.cpp</text>
</a>
</g>
<!-- Node1&#45;&gt;Node5 -->
<g id="edge12" class="edge"><title>Node1&#45;&gt;Node5</title>
<path fill="none" stroke="midnightblue" d="M1266.02,-110.473C1317.43,-100.268 1394.44,-84.9794 1442.1,-75.5164"/>
<polygon fill="midnightblue" stroke="midnightblue" points="1265.23,-107.063 1256.1,-112.444 1266.59,-113.929 1265.23,-107.063"/>
</g>
<!-- Node6 -->
<g id="node14" class="node"><title>Node6</title>
<a xlink:href="_m_l_pfactory_8cpp.html" target="_top" xlink:title="/Users/mcasl/pc&#45;ule/Trabajo/investigacion/AMORE/AMORE&#45;WC/AMORE&#45;WC/pkg/AMORE/src/MLPfactory.cpp">
<polygon fill="white" stroke="black" points="1766.5,-56.5 1766.5,-75.5 2281.5,-75.5 2281.5,-56.5 1766.5,-56.5"/>
<text text-anchor="middle" x="2024" y="-63.5" font-family="Helvetica,sans-Serif" font-size="10.00">/Users/mcasl/pc&#45;ule/Trabajo/investigacion/AMORE/AMORE&#45;WC/AMORE&#45;WC/pkg/AMORE/src/MLPfactory.cpp</text>
</a>
</g>
<!-- Node1&#45;&gt;Node6 -->
<g id="edge16" class="edge"><title>Node1&#45;&gt;Node6</title>
<path fill="none" stroke="midnightblue" d="M1351.44,-111.782C1504.18,-101.612 1747.96,-85.3798 1896.28,-75.5042"/>
<polygon fill="midnightblue" stroke="midnightblue" points="1350.8,-108.317 1341.06,-112.473 1351.27,-115.301 1350.8,-108.317"/>
</g>
<!-- Node7 -->
<g id="node17" class="node"><title>Node7</title>
<a xlink:href="_simple_network_8cpp.html" target="_top" xlink:title="/Users/mcasl/pc&#45;ule/Trabajo/investigacion/AMORE/AMORE&#45;WC/AMORE&#45;WC/pkg/AMORE/src/SimpleNetwork.cpp">
<polygon fill="white" stroke="black" points="2299.5,-56.5 2299.5,-75.5 2832.5,-75.5 2832.5,-56.5 2299.5,-56.5"/>
<text text-anchor="middle" x="2566" y="-63.5" font-family="Helvetica,sans-Serif" font-size="10.00">/Users/mcasl/pc&#45;ule/Trabajo/investigacion/AMORE/AMORE&#45;WC/AMORE&#45;WC/pkg/AMORE/src/SimpleNetwork.cpp</text>
</a>
</g>
<!-- Node1&#45;&gt;Node7 -->
<g id="edge20" class="edge"><title>Node1&#45;&gt;Node7</title>
<path fill="none" stroke="midnightblue" d="M1436.37,-112.085C1690.6,-101.938 2102.88,-85.4839 2352.8,-75.5091"/>
<polygon fill="midnightblue" stroke="midnightblue" points="1436.12,-108.592 1426.27,-112.488 1436.4,-115.587 1436.12,-108.592"/>
</g>
<!-- Node2&#45;&gt;Node3 -->
<g id="edge4" class="edge"><title>Node2&#45;&gt;Node3</title>
<path fill="none" stroke="midnightblue" d="M464.28,-55.8733C633.873,-45.709 905.837,-29.4094 1071.11,-19.5042"/>
<polygon fill="midnightblue" stroke="midnightblue" points="464.042,-52.3813 454.269,-56.4733 464.46,-59.3687 464.042,-52.3813"/>
</g>
<!-- Node4&#45;&gt;Node3 -->
<g id="edge10" class="edge"><title>Node4&#45;&gt;Node3</title>
<path fill="none" stroke="midnightblue" d="M994.828,-54.4734C1046.04,-44.2678 1122.77,-28.9794 1170.26,-19.5164"/>
<polygon fill="midnightblue" stroke="midnightblue" points="994.064,-51.0567 984.941,-56.4435 995.432,-57.9218 994.064,-51.0567"/>
</g>
<!-- Node5&#45;&gt;Node3 -->
<g id="edge14" class="edge"><title>Node5&#45;&gt;Node3</title>
<path fill="none" stroke="midnightblue" d="M1431.98,-54.4734C1380.57,-44.2678 1303.56,-28.9794 1255.9,-19.5164"/>
<polygon fill="midnightblue" stroke="midnightblue" points="1431.41,-57.9292 1441.9,-56.4435 1432.77,-51.0632 1431.41,-57.9292"/>
</g>
<!-- Node6&#45;&gt;Node3 -->
<g id="edge18" class="edge"><title>Node6&#45;&gt;Node3</title>
<path fill="none" stroke="midnightblue" d="M1885.56,-55.782C1732.82,-45.6117 1489.04,-29.3798 1340.72,-19.5042"/>
<polygon fill="midnightblue" stroke="midnightblue" points="1885.73,-59.3011 1895.94,-56.4733 1886.2,-52.3166 1885.73,-59.3011"/>
</g>
<!-- Node7&#45;&gt;Node3 -->
<g id="edge22" class="edge"><title>Node7&#45;&gt;Node3</title>
<path fill="none" stroke="midnightblue" d="M2342.63,-56.085C2088.4,-45.9383 1676.12,-29.4839 1426.2,-19.5091"/>
<polygon fill="midnightblue" stroke="midnightblue" points="2342.6,-59.5865 2352.73,-56.4882 2342.88,-52.5921 2342.6,-59.5865"/>
</g>
</g>
</svg>
