<?xml version="1.0" encoding="UTF-8" standalone="no"?>
<!DOCTYPE svg PUBLIC "-//W3C//DTD SVG 1.1//EN"
 "http://www.w3.org/Graphics/SVG/1.1/DTD/svg11.dtd">
<!-- Generated by graphviz version 2.28.0 (20110610.2051)
 -->
<!-- Title: G Pages: 1 -->
<svg width="1237pt" height="140pt"
 viewBox="0.00 0.00 1237.00 140.00" xmlns="http://www.w3.org/2000/svg" xmlns:xlink="http://www.w3.org/1999/xlink">
<g id="graph1" class="graph" transform="scale(1 1) rotate(0) translate(4 136)">
<title>G</title>
<polygon fill="white" stroke="white" points="-4,5 -4,-136 1234,-136 1234,5 -4,5"/>
<!-- Node1 -->
<g id="node1" class="node"><title>Node1</title>
<polygon fill="#bfbfbf" stroke="black" points="631,-112.5 631,-131.5 1153,-131.5 1153,-112.5 631,-112.5"/>
<text text-anchor="middle" x="892" y="-119.5" font-family="Helvetica,sans-Serif" font-size="10.00">/Users/mcasl/pc&#45;ule/Trabajo/investigacion/AMORE/AMORE&#45;WC/AMORE&#45;WC/pkg/AMORE/src/MLPbehavior.cpp</text>
</g>
<!-- Node2 -->
<g id="node3" class="node"><title>Node2</title>
<a xlink:href="package_8h.html" target="_top" xlink:title="package.h">
<polygon fill="white" stroke="black" points="381.5,-56.5 381.5,-75.5 444.5,-75.5 444.5,-56.5 381.5,-56.5"/>
<text text-anchor="middle" x="413" y="-63.5" font-family="Helvetica,sans-Serif" font-size="10.00">package.h</text>
</a>
</g>
<!-- Node1&#45;&gt;Node2 -->
<g id="edge2" class="edge"><title>Node1&#45;&gt;Node2</title>
<path fill="none" stroke="midnightblue" d="M816.365,-112.473C714.309,-100.968 535.986,-80.8649 455.07,-71.7427"/>
<polygon fill="midnightblue" stroke="midnightblue" points="455.105,-68.2246 444.775,-70.5822 454.32,-75.1805 455.105,-68.2246"/>
</g>
<!-- Node13 -->
<g id="node25" class="node"><title>Node13</title>
<a xlink:href="_connection_8h.html" target="_top" xlink:title="classHeaders/Connection.h">
<polygon fill="white" stroke="black" points="600,-56.5 600,-75.5 742,-75.5 742,-56.5 600,-56.5"/>
<text text-anchor="middle" x="671" y="-63.5" font-family="Helvetica,sans-Serif" font-size="10.00">classHeaders/Connection.h</text>
</a>
</g>
<!-- Node1&#45;&gt;Node13 -->
<g id="edge24" class="edge"><title>Node1&#45;&gt;Node13</title>
<path fill="none" stroke="midnightblue" d="M856.982,-112.444C818.752,-103.102 757.433,-88.1194 715.743,-77.9326"/>
<polygon fill="midnightblue" stroke="midnightblue" points="716.399,-74.4901 705.854,-75.5164 714.738,-81.2901 716.399,-74.4901"/>
</g>
<!-- Node14 -->
<g id="node27" class="node"><title>Node14</title>
<a xlink:href="_iterator_8h.html" target="_top" xlink:title="classHeaders/Iterator.h">
<polygon fill="white" stroke="black" points="760.5,-56.5 760.5,-75.5 883.5,-75.5 883.5,-56.5 760.5,-56.5"/>
<text text-anchor="middle" x="822" y="-63.5" font-family="Helvetica,sans-Serif" font-size="10.00">classHeaders/Iterator.h</text>
</a>
</g>
<!-- Node1&#45;&gt;Node14 -->
<g id="edge26" class="edge"><title>Node1&#45;&gt;Node14</title>
<path fill="none" stroke="midnightblue" d="M880.753,-112.324C870.203,-104.185 854.199,-91.8395 841.558,-82.0874"/>
<polygon fill="midnightblue" stroke="midnightblue" points="843.507,-79.1707 833.451,-75.8339 839.231,-84.7132 843.507,-79.1707"/>
</g>
<!-- Node16 -->
<g id="node31" class="node"><title>Node16</title>
<a xlink:href="_neuron_8h.html" target="_top" xlink:title="classHeaders/Neuron.h">
<polygon fill="white" stroke="black" points="902,-56.5 902,-75.5 1024,-75.5 1024,-56.5 902,-56.5"/>
<text text-anchor="middle" x="963" y="-63.5" font-family="Helvetica,sans-Serif" font-size="10.00">classHeaders/Neuron.h</text>
</a>
</g>
<!-- Node1&#45;&gt;Node16 -->
<g id="edge30" class="edge"><title>Node1&#45;&gt;Node16</title>
<path fill="none" stroke="midnightblue" d="M903.407,-112.324C914.109,-104.185 930.341,-91.8395 943.163,-82.0874"/>
<polygon fill="midnightblue" stroke="midnightblue" points="945.544,-84.6734 951.385,-75.8339 941.307,-79.1018 945.544,-84.6734"/>
</g>
<!-- Node17 -->
<g id="node33" class="node"><title>Node17</title>
<a xlink:href="_predict_behavior_8h.html" target="_top" xlink:title="classHeaders/PredictBehavior.h">
<polygon fill="white" stroke="black" points="1022.5,-0.5 1022.5,-19.5 1185.5,-19.5 1185.5,-0.5 1022.5,-0.5"/>
<text text-anchor="middle" x="1104" y="-7.5" font-family="Helvetica,sans-Serif" font-size="10.00">classHeaders/PredictBehavior.h</text>
</a>
</g>
<!-- Node1&#45;&gt;Node17 -->
<g id="edge32" class="edge"><title>Node1&#45;&gt;Node17</title>
<path fill="none" stroke="midnightblue" d="M934.699,-112.462C963.742,-105.464 1002.32,-93.7767 1033,-76 1055.24,-63.1137 1076.39,-42.2476 1089.72,-27.6426"/>
<polygon fill="midnightblue" stroke="midnightblue" points="1092.6,-29.6754 1096.62,-19.8745 1087.37,-25.0267 1092.6,-29.6754"/>
</g>
<!-- Node18 -->
<g id="node35" class="node"><title>Node18</title>
<a xlink:href="_m_l_pbehavior_8h.html" target="_top" xlink:title="classHeaders/MLPbehavior.h">
<polygon fill="white" stroke="black" points="1080.5,-56.5 1080.5,-75.5 1229.5,-75.5 1229.5,-56.5 1080.5,-56.5"/>
<text text-anchor="middle" x="1155" y="-63.5" font-family="Helvetica,sans-Serif" font-size="10.00">classHeaders/MLPbehavior.h</text>
</a>
</g>
<!-- Node1&#45;&gt;Node18 -->
<g id="edge34" class="edge"><title>Node1&#45;&gt;Node18</title>
<path fill="none" stroke="midnightblue" d="M933.673,-112.444C979.745,-102.984 1054,-87.7384 1103.63,-77.5472"/>
<polygon fill="midnightblue" stroke="midnightblue" points="1104.43,-80.9563 1113.52,-75.5164 1103.02,-74.0993 1104.43,-80.9563"/>
</g>
<!-- Node3 -->
<g id="node5" class="node"><title>Node3</title>
<polygon fill="white" stroke="#bfbfbf" points="0,-0.5 0,-19.5 56,-19.5 56,-0.5 0,-0.5"/>
<text text-anchor="middle" x="28" y="-7.5" font-family="Helvetica,sans-Serif" font-size="10.00">iostream</text>
</g>
<!-- Node2&#45;&gt;Node3 -->
<g id="edge4" class="edge"><title>Node2&#45;&gt;Node3</title>
<path fill="none" stroke="midnightblue" d="M381.149,-62.0656C321.311,-56.2984 187.88,-42.2339 66.0809,-20.0235"/>
<polygon fill="midnightblue" stroke="midnightblue" points="66.6821,-16.5755 56.2128,-18.2012 65.4109,-23.4591 66.6821,-16.5755"/>
</g>
<!-- Node4 -->
<g id="node7" class="node"><title>Node4</title>
<polygon fill="white" stroke="#bfbfbf" points="74.5,-0.5 74.5,-19.5 127.5,-19.5 127.5,-0.5 74.5,-0.5"/>
<text text-anchor="middle" x="101" y="-7.5" font-family="Helvetica,sans-Serif" font-size="10.00">sstream</text>
</g>
<!-- Node2&#45;&gt;Node4 -->
<g id="edge6" class="edge"><title>Node2&#45;&gt;Node4</title>
<path fill="none" stroke="midnightblue" d="M381.256,-60.7977C331.359,-53.986 231.361,-39.5036 137.621,-20.1977"/>
<polygon fill="midnightblue" stroke="midnightblue" points="138.198,-16.7429 127.695,-18.13 136.771,-23.5958 138.198,-16.7429"/>
</g>
<!-- Node5 -->
<g id="node9" class="node"><title>Node5</title>
<polygon fill="white" stroke="#bfbfbf" points="145.5,-0.5 145.5,-19.5 204.5,-19.5 204.5,-0.5 145.5,-0.5"/>
<text text-anchor="middle" x="175" y="-7.5" font-family="Helvetica,sans-Serif" font-size="10.00">algorithm</text>
</g>
<!-- Node2&#45;&gt;Node5 -->
<g id="edge8" class="edge"><title>Node2&#45;&gt;Node5</title>
<path fill="none" stroke="midnightblue" d="M381.282,-57.8728C343.92,-49.4676 279.712,-34.9918 214.805,-20.1764"/>
<polygon fill="midnightblue" stroke="midnightblue" points="215.336,-16.7075 204.807,-17.8929 213.777,-23.5318 215.336,-16.7075"/>
</g>
<!-- Node6 -->
<g id="node11" class="node"><title>Node6</title>
<polygon fill="white" stroke="#bfbfbf" points="223,-0.5 223,-19.5 269,-19.5 269,-0.5 223,-0.5"/>
<text text-anchor="middle" x="246" y="-7.5" font-family="Helvetica,sans-Serif" font-size="10.00">vector</text>
</g>
<!-- Node2&#45;&gt;Node6 -->
<g id="edge10" class="edge"><title>Node2&#45;&gt;Node6</title>
<path fill="none" stroke="midnightblue" d="M386.538,-56.4435C357.326,-46.9976 310.272,-31.7826 278.755,-21.5916"/>
<polygon fill="midnightblue" stroke="midnightblue" points="279.703,-18.2195 269.111,-18.473 277.549,-24.88 279.703,-18.2195"/>
</g>
<!-- Node7 -->
<g id="node13" class="node"><title>Node7</title>
<polygon fill="white" stroke="#bfbfbf" points="287,-0.5 287,-19.5 337,-19.5 337,-0.5 287,-0.5"/>
<text text-anchor="middle" x="312" y="-7.5" font-family="Helvetica,sans-Serif" font-size="10.00">iterator</text>
</g>
<!-- Node2&#45;&gt;Node7 -->
<g id="edge12" class="edge"><title>Node2&#45;&gt;Node7</title>
<path fill="none" stroke="midnightblue" d="M396.773,-56.324C380.649,-47.7034 355.7,-34.3643 337.036,-24.3855"/>
<polygon fill="midnightblue" stroke="midnightblue" points="338.656,-21.283 328.187,-19.6545 335.356,-27.456 338.656,-21.283"/>
</g>
<!-- Node8 -->
<g id="node15" class="node"><title>Node8</title>
<polygon fill="white" stroke="#bfbfbf" points="355.5,-0.5 355.5,-19.5 470.5,-19.5 470.5,-0.5 355.5,-0.5"/>
<text text-anchor="middle" x="413" y="-7.5" font-family="Helvetica,sans-Serif" font-size="10.00">boost/shared_ptr.hpp</text>
</g>
<!-- Node2&#45;&gt;Node8 -->
<g id="edge14" class="edge"><title>Node2&#45;&gt;Node8</title>
<path fill="none" stroke="midnightblue" d="M413,-56.083C413,-49.0059 413,-38.8611 413,-29.9865"/>
<polygon fill="midnightblue" stroke="midnightblue" points="416.5,-29.751 413,-19.7511 409.5,-29.7511 416.5,-29.751"/>
</g>
<!-- Node9 -->
<g id="node17" class="node"><title>Node9</title>
<polygon fill="white" stroke="#bfbfbf" points="489,-0.5 489,-19.5 597,-19.5 597,-0.5 489,-0.5"/>
<text text-anchor="middle" x="543" y="-7.5" font-family="Helvetica,sans-Serif" font-size="10.00">boost/weak_ptr.hpp</text>
</g>
<!-- Node2&#45;&gt;Node9 -->
<g id="edge16" class="edge"><title>Node2&#45;&gt;Node9</title>
<path fill="none" stroke="midnightblue" d="M433.599,-56.4435C454.993,-47.5566 488.681,-33.5632 513.024,-23.4514"/>
<polygon fill="midnightblue" stroke="midnightblue" points="514.605,-26.5848 522.497,-19.5164 511.92,-20.1203 514.605,-26.5848"/>
</g>
<!-- Node10 -->
<g id="node19" class="node"><title>Node10</title>
<polygon fill="white" stroke="#bfbfbf" points="615,-0.5 615,-19.5 693,-19.5 693,-0.5 615,-0.5"/>
<text text-anchor="middle" x="654" y="-7.5" font-family="Helvetica,sans-Serif" font-size="10.00">boost/ref.hpp</text>
</g>
<!-- Node2&#45;&gt;Node10 -->
<g id="edge18" class="edge"><title>Node2&#45;&gt;Node10</title>
<path fill="none" stroke="midnightblue" d="M444.507,-57.9404C485.602,-48.7324 557.898,-32.5332 605.877,-21.7829"/>
<polygon fill="midnightblue" stroke="midnightblue" points="606.733,-25.1779 615.725,-19.576 605.202,-18.3472 606.733,-25.1779"/>
</g>
<!-- Node11 -->
<g id="node21" class="node"><title>Node11</title>
<polygon fill="white" stroke="#bfbfbf" points="711.5,-0.5 711.5,-19.5 762.5,-19.5 762.5,-0.5 711.5,-0.5"/>
<text text-anchor="middle" x="737" y="-7.5" font-family="Helvetica,sans-Serif" font-size="10.00">valarray</text>
</g>
<!-- Node2&#45;&gt;Node11 -->
<g id="edge20" class="edge"><title>Node2&#45;&gt;Node11</title>
<path fill="none" stroke="midnightblue" d="M444.826,-61.0741C496.533,-54.4736 602.151,-40.068 701.546,-19.9081"/>
<polygon fill="midnightblue" stroke="midnightblue" points="702.36,-23.314 711.453,-17.8751 700.953,-16.4569 702.36,-23.314"/>
</g>
<!-- Node12 -->
<g id="node23" class="node"><title>Node12</title>
<polygon fill="white" stroke="#bfbfbf" points="781,-0.5 781,-19.5 831,-19.5 831,-0.5 781,-0.5"/>
<text text-anchor="middle" x="806" y="-7.5" font-family="Helvetica,sans-Serif" font-size="10.00">Rcpp.h</text>
</g>
<!-- Node2&#45;&gt;Node12 -->
<g id="edge22" class="edge"><title>Node2&#45;&gt;Node12</title>
<path fill="none" stroke="midnightblue" d="M444.818,-62.3644C507.585,-56.8651 651.624,-42.7561 771,-20 771.1,-19.9809 771.2,-19.9617 771.301,-19.9424"/>
<polygon fill="midnightblue" stroke="midnightblue" points="771.819,-23.4114 780.851,-17.873 770.336,-16.5702 771.819,-23.4114"/>
</g>
<!-- Node15 -->
<g id="node29" class="node"><title>Node15</title>
<polygon fill="white" stroke="#bfbfbf" points="849.5,-0.5 849.5,-19.5 934.5,-19.5 934.5,-0.5 849.5,-0.5"/>
<text text-anchor="middle" x="892" y="-7.5" font-family="Helvetica,sans-Serif" font-size="10.00">../Iterator.code</text>
</g>
<!-- Node14&#45;&gt;Node15 -->
<g id="edge28" class="edge"><title>Node14&#45;&gt;Node15</title>
<path fill="none" stroke="midnightblue" d="M833.247,-56.324C843.797,-48.1849 859.801,-35.8395 872.442,-26.0874"/>
<polygon fill="midnightblue" stroke="midnightblue" points="874.769,-28.7132 880.549,-19.8339 870.493,-23.1707 874.769,-28.7132"/>
</g>
<!-- Node18&#45;&gt;Node17 -->
<g id="edge36" class="edge"><title>Node18&#45;&gt;Node17</title>
<path fill="none" stroke="midnightblue" d="M1146.58,-56.083C1139.15,-48.2195 1128.15,-36.5688 1119.19,-27.0813"/>
<polygon fill="midnightblue" stroke="midnightblue" points="1121.68,-24.618 1112.26,-19.7511 1116.59,-29.4244 1121.68,-24.618"/>
</g>
</g>
</svg>
