<?xml version="1.0" encoding="UTF-8" standalone="no"?>
<!DOCTYPE svg PUBLIC "-//W3C//DTD SVG 1.1//EN"
 "http://www.w3.org/Graphics/SVG/1.1/DTD/svg11.dtd">
<!-- Generated by graphviz version 2.28.0 (20110610.2051)
 -->
<!-- Title: G Pages: 1 -->
<svg width="237pt" height="140pt"
 viewBox="0.00 0.00 237.00 140.00" xmlns="http://www.w3.org/2000/svg" xmlns:xlink="http://www.w3.org/1999/xlink">
<g id="graph1" class="graph" transform="scale(1 1) rotate(0) translate(4 136)">
<title>G</title>
<polygon fill="white" stroke="white" points="-4,5 -4,-136 234,-136 234,5 -4,5"/>
<!-- Node1 -->
<g id="node1" class="node"><title>Node1</title>
<polygon fill="#bfbfbf" stroke="black" points="-0.5,-112.5 -0.5,-131.5 174.5,-131.5 174.5,-112.5 -0.5,-112.5"/>
<text text-anchor="middle" x="87" y="-119.5" font-family="Helvetica,sans-Serif" font-size="10.00">pkg/AMORE/src/dia/MLPbehavior.h</text>
</g>
<!-- Node2 -->
<g id="node3" class="node"><title>Node2</title>
<a xlink:href="_a_m_o_r_e_8h.html" target="_top" xlink:title="pkg/AMORE/src/AMORE.h">
<polygon fill="white" stroke="black" points="18.5,-0.5 18.5,-19.5 155.5,-19.5 155.5,-0.5 18.5,-0.5"/>
<text text-anchor="middle" x="87" y="-7.5" font-family="Helvetica,sans-Serif" font-size="10.00">pkg/AMORE/src/AMORE.h</text>
</a>
</g>
<!-- Node1&#45;&gt;Node2 -->
<g id="edge2" class="edge"><title>Node1&#45;&gt;Node2</title>
<path fill="none" stroke="midnightblue" d="M68.2856,-105.173C55.6808,-92.4809 42.4559,-73.8928 49,-56 54.409,-41.211 67.0616,-27.9305 76.2855,-19.6955"/>
<polygon fill="midnightblue" stroke="midnightblue" points="66.1731,-107.989 75.8714,-112.254 70.9499,-102.872 66.1731,-107.989"/>
</g>
<!-- Node3 -->
<g id="node5" class="node"><title>Node3</title>
<a xlink:href="_m_l_pbehavior_8cpp.html" target="_top" xlink:title="pkg/AMORE/src/MLPbehavior.cpp">
<polygon fill="white" stroke="black" points="58.5,-56.5 58.5,-75.5 229.5,-75.5 229.5,-56.5 58.5,-56.5"/>
<text text-anchor="middle" x="144" y="-63.5" font-family="Helvetica,sans-Serif" font-size="10.00">pkg/AMORE/src/MLPbehavior.cpp</text>
</a>
</g>
<!-- Node1&#45;&gt;Node3 -->
<g id="edge4" class="edge"><title>Node1&#45;&gt;Node3</title>
<path fill="none" stroke="midnightblue" d="M103.621,-105.253C113.734,-95.6731 126.277,-83.7906 134.675,-75.8339"/>
<polygon fill="midnightblue" stroke="midnightblue" points="101.01,-102.906 96.158,-112.324 105.825,-107.987 101.01,-102.906"/>
</g>
<!-- Node3&#45;&gt;Node2 -->
<g id="edge6" class="edge"><title>Node3&#45;&gt;Node2</title>
<path fill="none" stroke="midnightblue" d="M127.379,-49.2533C117.266,-39.6731 104.723,-27.7906 96.3247,-19.8339"/>
<polygon fill="midnightblue" stroke="midnightblue" points="125.175,-51.9873 134.842,-56.324 129.99,-46.9056 125.175,-51.9873"/>
</g>
</g>
</svg>
