<?xml version="1.0" encoding="UTF-8" standalone="no"?>
<!DOCTYPE svg PUBLIC "-//W3C//DTD SVG 1.1//EN"
 "http://www.w3.org/Graphics/SVG/1.1/DTD/svg11.dtd">
<!-- Generated by graphviz version 2.28.0 (20110610.2051)
 -->
<!-- Title: G Pages: 1 -->
<svg width="2257pt" height="196pt"
 viewBox="0.00 0.00 2257.00 196.00" xmlns="http://www.w3.org/2000/svg" xmlns:xlink="http://www.w3.org/1999/xlink">
<g id="graph1" class="graph" transform="scale(1 1) rotate(0) translate(4 192)">
<title>G</title>
<polygon fill="white" stroke="white" points="-4,5 -4,-192 2254,-192 2254,5 -4,5"/>
<!-- Node1 -->
<g id="node1" class="node"><title>Node1</title>
<polygon fill="#bfbfbf" stroke="black" points="1123.5,-168.5 1123.5,-187.5 1638.5,-187.5 1638.5,-168.5 1123.5,-168.5"/>
<text text-anchor="middle" x="1381" y="-175.5" font-family="Helvetica,sans-Serif" font-size="10.00">/Users/mcasl/pc&#45;ule/Trabajo/investigacion/AMORE/AMORE&#45;WC/AMORE&#45;WC/pkg/AMORE/src/MLPfactory.cpp</text>
</g>
<!-- Node2 -->
<g id="node3" class="node"><title>Node2</title>
<a xlink:href="package_8h.html" target="_top" xlink:title="package.h">
<polygon fill="white" stroke="black" points="381.5,-112.5 381.5,-131.5 444.5,-131.5 444.5,-112.5 381.5,-112.5"/>
<text text-anchor="middle" x="413" y="-119.5" font-family="Helvetica,sans-Serif" font-size="10.00">package.h</text>
</a>
</g>
<!-- Node1&#45;&gt;Node2 -->
<g id="edge2" class="edge"><title>Node1&#45;&gt;Node2</title>
<path fill="none" stroke="midnightblue" d="M1228.42,-168.488C1001.29,-155.818 586.827,-132.697 454.665,-125.324"/>
<polygon fill="midnightblue" stroke="midnightblue" points="454.737,-121.823 444.558,-124.76 454.347,-128.812 454.737,-121.823"/>
</g>
<!-- Node13 -->
<g id="node25" class="node"><title>Node13</title>
<a xlink:href="_connection_8h.html" target="_top" xlink:title="classHeaders/Connection.h">
<polygon fill="white" stroke="black" points="668,-112.5 668,-131.5 810,-131.5 810,-112.5 668,-112.5"/>
<text text-anchor="middle" x="739" y="-119.5" font-family="Helvetica,sans-Serif" font-size="10.00">classHeaders/Connection.h</text>
</a>
</g>
<!-- Node1&#45;&gt;Node13 -->
<g id="edge24" class="edge"><title>Node1&#45;&gt;Node13</title>
<path fill="none" stroke="midnightblue" d="M1265.18,-168.487C1152.47,-160.003 976.381,-146.22 824,-132 822.892,-131.897 821.776,-131.792 820.653,-131.685"/>
<polygon fill="midnightblue" stroke="midnightblue" points="820.699,-128.173 810.408,-130.691 820.023,-135.14 820.699,-128.173"/>
</g>
<!-- Node14 -->
<g id="node27" class="node"><title>Node14</title>
<a xlink:href="_neuron_8h.html" target="_top" xlink:title="classHeaders/Neuron.h">
<polygon fill="white" stroke="black" points="849,-56.5 849,-75.5 971,-75.5 971,-56.5 849,-56.5"/>
<text text-anchor="middle" x="910" y="-63.5" font-family="Helvetica,sans-Serif" font-size="10.00">classHeaders/Neuron.h</text>
</a>
</g>
<!-- Node1&#45;&gt;Node14 -->
<g id="edge26" class="edge"><title>Node1&#45;&gt;Node14</title>
<path fill="none" stroke="midnightblue" d="M1123.47,-170.151C1000.68,-164.153 876.217,-152.938 857,-132 841.562,-115.18 864.918,-94.5798 885.337,-81.1401"/>
<polygon fill="midnightblue" stroke="midnightblue" points="887.449,-83.9475 894.074,-75.6794 883.739,-78.0115 887.449,-83.9475"/>
</g>
<!-- Node15 -->
<g id="node29" class="node"><title>Node15</title>
<a xlink:href="_simple_neuron_8h.html" target="_top" xlink:title="classHeaders/SimpleNeuron.h">
<polygon fill="white" stroke="black" points="866.5,-112.5 866.5,-131.5 1021.5,-131.5 1021.5,-112.5 866.5,-112.5"/>
<text text-anchor="middle" x="944" y="-119.5" font-family="Helvetica,sans-Serif" font-size="10.00">classHeaders/SimpleNeuron.h</text>
</a>
</g>
<!-- Node1&#45;&gt;Node15 -->
<g id="edge28" class="edge"><title>Node1&#45;&gt;Node15</title>
<path fill="none" stroke="midnightblue" d="M1311.76,-168.444C1233.21,-158.737 1105.36,-142.939 1022.98,-132.76"/>
<polygon fill="midnightblue" stroke="midnightblue" points="1023.27,-129.269 1012.92,-131.516 1022.42,-136.216 1023.27,-129.269"/>
</g>
<!-- Node16 -->
<g id="node32" class="node"><title>Node16</title>
<a xlink:href="_container_8h.html" target="_top" xlink:title="classHeaders/Container.h">
<polygon fill="white" stroke="black" points="989,-56.5 989,-75.5 1123,-75.5 1123,-56.5 989,-56.5"/>
<text text-anchor="middle" x="1056" y="-63.5" font-family="Helvetica,sans-Serif" font-size="10.00">classHeaders/Container.h</text>
</a>
</g>
<!-- Node1&#45;&gt;Node16 -->
<g id="edge32" class="edge"><title>Node1&#45;&gt;Node16</title>
<path fill="none" stroke="midnightblue" d="M1199.28,-168.483C1142.38,-162.129 1089.16,-151.1 1069,-132 1056.62,-120.27 1054.21,-100.333 1054.39,-85.6256"/>
<polygon fill="midnightblue" stroke="midnightblue" points="1057.88,-85.7857 1054.9,-75.6201 1050.89,-85.4285 1057.88,-85.7857"/>
</g>
<!-- Node18 -->
<g id="node36" class="node"><title>Node18</title>
<a xlink:href="_simple_container_8h.html" target="_top" xlink:title="classHeaders/SimpleContainer.h">
<polygon fill="white" stroke="black" points="1078,-112.5 1078,-131.5 1244,-131.5 1244,-112.5 1078,-112.5"/>
<text text-anchor="middle" x="1161" y="-119.5" font-family="Helvetica,sans-Serif" font-size="10.00">classHeaders/SimpleContainer.h</text>
</a>
</g>
<!-- Node1&#45;&gt;Node18 -->
<g id="edge36" class="edge"><title>Node1&#45;&gt;Node18</title>
<path fill="none" stroke="midnightblue" d="M1346.14,-168.444C1308.08,-159.102 1247.04,-144.119 1205.54,-133.933"/>
<polygon fill="midnightblue" stroke="midnightblue" points="1206.24,-130.501 1195.7,-131.516 1204.57,-137.299 1206.24,-130.501"/>
</g>
<!-- Node20 -->
<g id="node41" class="node"><title>Node20</title>
<a xlink:href="_neural_network_8h.html" target="_top" xlink:title="classHeaders/NeuralNetwork.h">
<polygon fill="white" stroke="black" points="1297,-56.5 1297,-75.5 1455,-75.5 1455,-56.5 1297,-56.5"/>
<text text-anchor="middle" x="1376" y="-63.5" font-family="Helvetica,sans-Serif" font-size="10.00">classHeaders/NeuralNetwork.h</text>
</a>
</g>
<!-- Node1&#45;&gt;Node20 -->
<g id="edge42" class="edge"><title>Node1&#45;&gt;Node20</title>
<path fill="none" stroke="midnightblue" d="M1343.9,-168.458C1324.56,-161.918 1302.57,-150.724 1291,-132 1276.35,-108.29 1308.07,-90.0446 1336.84,-79.0029"/>
<polygon fill="midnightblue" stroke="midnightblue" points="1338.2,-82.2325 1346.41,-75.5371 1335.81,-75.6507 1338.2,-82.2325"/>
</g>
<!-- Node21 -->
<g id="node43" class="node"><title>Node21</title>
<a xlink:href="_simple_network_8h.html" target="_top" xlink:title="classHeaders/SimpleNetwork.h">
<polygon fill="white" stroke="black" points="1300.5,-112.5 1300.5,-131.5 1461.5,-131.5 1461.5,-112.5 1300.5,-112.5"/>
<text text-anchor="middle" x="1381" y="-119.5" font-family="Helvetica,sans-Serif" font-size="10.00">classHeaders/SimpleNetwork.h</text>
</a>
</g>
<!-- Node1&#45;&gt;Node21 -->
<g id="edge44" class="edge"><title>Node1&#45;&gt;Node21</title>
<path fill="none" stroke="midnightblue" d="M1381,-168.083C1381,-161.006 1381,-150.861 1381,-141.986"/>
<polygon fill="midnightblue" stroke="midnightblue" points="1384.5,-141.751 1381,-131.751 1377.5,-141.751 1384.5,-141.751"/>
</g>
<!-- Node22 -->
<g id="node46" class="node"><title>Node22</title>
<a xlink:href="_neural_creator_8h.html" target="_top" xlink:title="classHeaders/NeuralCreator.h">
<polygon fill="white" stroke="black" points="1504.5,-56.5 1504.5,-75.5 1657.5,-75.5 1657.5,-56.5 1504.5,-56.5"/>
<text text-anchor="middle" x="1581" y="-63.5" font-family="Helvetica,sans-Serif" font-size="10.00">classHeaders/NeuralCreator.h</text>
</a>
</g>
<!-- Node1&#45;&gt;Node22 -->
<g id="edge48" class="edge"><title>Node1&#45;&gt;Node22</title>
<path fill="none" stroke="midnightblue" d="M1398.9,-168.354C1416.99,-159.52 1445.67,-145.256 1470,-132 1500.88,-115.17 1535.78,-94.4454 1558.06,-80.9888"/>
<polygon fill="midnightblue" stroke="midnightblue" points="1560.05,-83.8752 1566.79,-75.6992 1556.43,-77.8887 1560.05,-83.8752"/>
</g>
<!-- Node23 -->
<g id="node48" class="node"><title>Node23</title>
<a xlink:href="_simple_neural_creator_8h.html" target="_top" xlink:title="classHeaders/SimpleNeuralCreator.h">
<polygon fill="white" stroke="black" points="1518.5,-112.5 1518.5,-131.5 1703.5,-131.5 1703.5,-112.5 1518.5,-112.5"/>
<text text-anchor="middle" x="1611" y="-119.5" font-family="Helvetica,sans-Serif" font-size="10.00">classHeaders/SimpleNeuralCreator.h</text>
</a>
</g>
<!-- Node1&#45;&gt;Node23 -->
<g id="edge50" class="edge"><title>Node1&#45;&gt;Node23</title>
<path fill="none" stroke="midnightblue" d="M1417.44,-168.444C1457.4,-159.063 1521.59,-143.993 1564.98,-133.804"/>
<polygon fill="midnightblue" stroke="midnightblue" points="1565.79,-137.21 1574.73,-131.516 1564.19,-130.395 1565.79,-137.21"/>
</g>
<!-- Node24 -->
<g id="node51" class="node"><title>Node24</title>
<a xlink:href="_predict_behavior_8h.html" target="_top" xlink:title="classHeaders/predictBehavior.h">
<polygon fill="white" stroke="black" points="1715,-56.5 1715,-75.5 1877,-75.5 1877,-56.5 1715,-56.5"/>
<text text-anchor="middle" x="1796" y="-63.5" font-family="Helvetica,sans-Serif" font-size="10.00">classHeaders/predictBehavior.h</text>
</a>
</g>
<!-- Node1&#45;&gt;Node24 -->
<g id="edge54" class="edge"><title>Node1&#45;&gt;Node24</title>
<path fill="none" stroke="midnightblue" d="M1488.13,-168.472C1569.03,-160.91 1672.62,-148.503 1712,-132 1738.94,-120.711 1764.7,-98.5092 1780.42,-83.2195"/>
<polygon fill="midnightblue" stroke="midnightblue" points="1783.1,-85.4969 1787.69,-75.9485 1778.14,-80.5498 1783.1,-85.4969"/>
</g>
<!-- Node25 -->
<g id="node53" class="node"><title>Node25</title>
<a xlink:href="_m_l_pbehavior_8h.html" target="_top" xlink:title="classHeaders/MLPbehavior.h">
<polygon fill="white" stroke="black" points="1760.5,-112.5 1760.5,-131.5 1909.5,-131.5 1909.5,-112.5 1760.5,-112.5"/>
<text text-anchor="middle" x="1835" y="-119.5" font-family="Helvetica,sans-Serif" font-size="10.00">classHeaders/MLPbehavior.h</text>
</a>
</g>
<!-- Node1&#45;&gt;Node25 -->
<g id="edge56" class="edge"><title>Node1&#45;&gt;Node25</title>
<path fill="none" stroke="midnightblue" d="M1452.69,-168.473C1534.41,-158.753 1667.72,-142.897 1753.37,-132.709"/>
<polygon fill="midnightblue" stroke="midnightblue" points="1753.8,-136.183 1763.31,-131.526 1752.97,-129.232 1753.8,-136.183"/>
</g>
<!-- Node26 -->
<g id="node56" class="node"><title>Node26</title>
<a xlink:href="_iterator_8h.html" target="_top" xlink:title="classHeaders/Iterator.h">
<polygon fill="white" stroke="black" points="1927.5,-112.5 1927.5,-131.5 2050.5,-131.5 2050.5,-112.5 1927.5,-112.5"/>
<text text-anchor="middle" x="1989" y="-119.5" font-family="Helvetica,sans-Serif" font-size="10.00">classHeaders/Iterator.h</text>
</a>
</g>
<!-- Node1&#45;&gt;Node26 -->
<g id="edge60" class="edge"><title>Node1&#45;&gt;Node26</title>
<path fill="none" stroke="midnightblue" d="M1500.05,-168.482C1606.51,-160.526 1767.08,-147.695 1917.12,-132.048"/>
<polygon fill="midnightblue" stroke="midnightblue" points="1917.86,-135.489 1927.44,-130.965 1917.13,-128.528 1917.86,-135.489"/>
</g>
<!-- Node28 -->
<g id="node60" class="node"><title>Node28</title>
<a xlink:href="_neural_factory_8h.html" target="_top" xlink:title="classHeaders/NeuralFactory.h">
<polygon fill="white" stroke="black" points="2075.5,-56.5 2075.5,-75.5 2228.5,-75.5 2228.5,-56.5 2075.5,-56.5"/>
<text text-anchor="middle" x="2152" y="-63.5" font-family="Helvetica,sans-Serif" font-size="10.00">classHeaders/NeuralFactory.h</text>
</a>
</g>
<!-- Node1&#45;&gt;Node28 -->
<g id="edge64" class="edge"><title>Node1&#45;&gt;Node28</title>
<path fill="none" stroke="midnightblue" d="M1638.81,-174.136C1797.05,-169.628 1983.39,-158.586 2059,-132 2089.02,-121.442 2118.19,-98.3218 2135.63,-82.7002"/>
<polygon fill="midnightblue" stroke="midnightblue" points="2138.22,-85.0736 2143.2,-75.7217 2133.47,-79.9272 2138.22,-85.0736"/>
</g>
<!-- Node29 -->
<g id="node62" class="node"><title>Node29</title>
<a xlink:href="_m_l_pfactory_8h.html" target="_top" xlink:title="classHeaders/MLPfactory.h">
<polygon fill="white" stroke="black" points="2107,-112.5 2107,-131.5 2249,-131.5 2249,-112.5 2107,-112.5"/>
<text text-anchor="middle" x="2178" y="-119.5" font-family="Helvetica,sans-Serif" font-size="10.00">classHeaders/MLPfactory.h</text>
</a>
</g>
<!-- Node1&#45;&gt;Node29 -->
<g id="edge66" class="edge"><title>Node1&#45;&gt;Node29</title>
<path fill="none" stroke="midnightblue" d="M1547.31,-168.486C1691.7,-160.617 1906.33,-147.774 2093,-132 2094.11,-131.906 2095.23,-131.81 2096.35,-131.712"/>
<polygon fill="midnightblue" stroke="midnightblue" points="2096.96,-135.172 2106.6,-130.782 2096.32,-128.2 2096.96,-135.172"/>
</g>
<!-- Node3 -->
<g id="node5" class="node"><title>Node3</title>
<polygon fill="white" stroke="#bfbfbf" points="0,-56.5 0,-75.5 56,-75.5 56,-56.5 0,-56.5"/>
<text text-anchor="middle" x="28" y="-63.5" font-family="Helvetica,sans-Serif" font-size="10.00">iostream</text>
</g>
<!-- Node2&#45;&gt;Node3 -->
<g id="edge4" class="edge"><title>Node2&#45;&gt;Node3</title>
<path fill="none" stroke="midnightblue" d="M381.149,-118.066C321.311,-112.298 187.88,-98.2339 66.0809,-76.0235"/>
<polygon fill="midnightblue" stroke="midnightblue" points="66.6821,-72.5755 56.2128,-74.2012 65.4109,-79.4591 66.6821,-72.5755"/>
</g>
<!-- Node4 -->
<g id="node7" class="node"><title>Node4</title>
<polygon fill="white" stroke="#bfbfbf" points="74.5,-56.5 74.5,-75.5 127.5,-75.5 127.5,-56.5 74.5,-56.5"/>
<text text-anchor="middle" x="101" y="-63.5" font-family="Helvetica,sans-Serif" font-size="10.00">sstream</text>
</g>
<!-- Node2&#45;&gt;Node4 -->
<g id="edge6" class="edge"><title>Node2&#45;&gt;Node4</title>
<path fill="none" stroke="midnightblue" d="M381.256,-116.798C331.359,-109.986 231.361,-95.5036 137.621,-76.1977"/>
<polygon fill="midnightblue" stroke="midnightblue" points="138.198,-72.7429 127.695,-74.13 136.771,-79.5958 138.198,-72.7429"/>
</g>
<!-- Node5 -->
<g id="node9" class="node"><title>Node5</title>
<polygon fill="white" stroke="#bfbfbf" points="145.5,-56.5 145.5,-75.5 204.5,-75.5 204.5,-56.5 145.5,-56.5"/>
<text text-anchor="middle" x="175" y="-63.5" font-family="Helvetica,sans-Serif" font-size="10.00">algorithm</text>
</g>
<!-- Node2&#45;&gt;Node5 -->
<g id="edge8" class="edge"><title>Node2&#45;&gt;Node5</title>
<path fill="none" stroke="midnightblue" d="M381.282,-113.873C343.92,-105.468 279.712,-90.9918 214.805,-76.1764"/>
<polygon fill="midnightblue" stroke="midnightblue" points="215.336,-72.7075 204.807,-73.8929 213.777,-79.5318 215.336,-72.7075"/>
</g>
<!-- Node6 -->
<g id="node11" class="node"><title>Node6</title>
<polygon fill="white" stroke="#bfbfbf" points="223,-56.5 223,-75.5 269,-75.5 269,-56.5 223,-56.5"/>
<text text-anchor="middle" x="246" y="-63.5" font-family="Helvetica,sans-Serif" font-size="10.00">vector</text>
</g>
<!-- Node2&#45;&gt;Node6 -->
<g id="edge10" class="edge"><title>Node2&#45;&gt;Node6</title>
<path fill="none" stroke="midnightblue" d="M386.538,-112.444C357.326,-102.998 310.272,-87.7826 278.755,-77.5916"/>
<polygon fill="midnightblue" stroke="midnightblue" points="279.703,-74.2195 269.111,-74.473 277.549,-80.88 279.703,-74.2195"/>
</g>
<!-- Node7 -->
<g id="node13" class="node"><title>Node7</title>
<polygon fill="white" stroke="#bfbfbf" points="287,-56.5 287,-75.5 337,-75.5 337,-56.5 287,-56.5"/>
<text text-anchor="middle" x="312" y="-63.5" font-family="Helvetica,sans-Serif" font-size="10.00">iterator</text>
</g>
<!-- Node2&#45;&gt;Node7 -->
<g id="edge12" class="edge"><title>Node2&#45;&gt;Node7</title>
<path fill="none" stroke="midnightblue" d="M396.773,-112.324C380.649,-103.703 355.7,-90.3643 337.036,-80.3855"/>
<polygon fill="midnightblue" stroke="midnightblue" points="338.656,-77.283 328.187,-75.6545 335.356,-83.456 338.656,-77.283"/>
</g>
<!-- Node8 -->
<g id="node15" class="node"><title>Node8</title>
<polygon fill="white" stroke="#bfbfbf" points="355.5,-56.5 355.5,-75.5 470.5,-75.5 470.5,-56.5 355.5,-56.5"/>
<text text-anchor="middle" x="413" y="-63.5" font-family="Helvetica,sans-Serif" font-size="10.00">boost/shared_ptr.hpp</text>
</g>
<!-- Node2&#45;&gt;Node8 -->
<g id="edge14" class="edge"><title>Node2&#45;&gt;Node8</title>
<path fill="none" stroke="midnightblue" d="M413,-112.083C413,-105.006 413,-94.8611 413,-85.9865"/>
<polygon fill="midnightblue" stroke="midnightblue" points="416.5,-85.751 413,-75.7511 409.5,-85.7511 416.5,-85.751"/>
</g>
<!-- Node9 -->
<g id="node17" class="node"><title>Node9</title>
<polygon fill="white" stroke="#bfbfbf" points="489,-56.5 489,-75.5 597,-75.5 597,-56.5 489,-56.5"/>
<text text-anchor="middle" x="543" y="-63.5" font-family="Helvetica,sans-Serif" font-size="10.00">boost/weak_ptr.hpp</text>
</g>
<!-- Node2&#45;&gt;Node9 -->
<g id="edge16" class="edge"><title>Node2&#45;&gt;Node9</title>
<path fill="none" stroke="midnightblue" d="M433.599,-112.444C454.993,-103.557 488.681,-89.5632 513.024,-79.4514"/>
<polygon fill="midnightblue" stroke="midnightblue" points="514.605,-82.5848 522.497,-75.5164 511.92,-76.1203 514.605,-82.5848"/>
</g>
<!-- Node10 -->
<g id="node19" class="node"><title>Node10</title>
<polygon fill="white" stroke="#bfbfbf" points="615,-56.5 615,-75.5 693,-75.5 693,-56.5 615,-56.5"/>
<text text-anchor="middle" x="654" y="-63.5" font-family="Helvetica,sans-Serif" font-size="10.00">boost/ref.hpp</text>
</g>
<!-- Node2&#45;&gt;Node10 -->
<g id="edge18" class="edge"><title>Node2&#45;&gt;Node10</title>
<path fill="none" stroke="midnightblue" d="M444.507,-113.94C485.602,-104.732 557.898,-88.5332 605.877,-77.7829"/>
<polygon fill="midnightblue" stroke="midnightblue" points="606.733,-81.1779 615.725,-75.576 605.202,-74.3472 606.733,-81.1779"/>
</g>
<!-- Node11 -->
<g id="node21" class="node"><title>Node11</title>
<polygon fill="white" stroke="#bfbfbf" points="711.5,-56.5 711.5,-75.5 762.5,-75.5 762.5,-56.5 711.5,-56.5"/>
<text text-anchor="middle" x="737" y="-63.5" font-family="Helvetica,sans-Serif" font-size="10.00">valarray</text>
</g>
<!-- Node2&#45;&gt;Node11 -->
<g id="edge20" class="edge"><title>Node2&#45;&gt;Node11</title>
<path fill="none" stroke="midnightblue" d="M444.826,-117.074C496.533,-110.474 602.151,-96.068 701.546,-75.9081"/>
<polygon fill="midnightblue" stroke="midnightblue" points="702.36,-79.314 711.453,-73.8751 700.953,-72.4569 702.36,-79.314"/>
</g>
<!-- Node12 -->
<g id="node23" class="node"><title>Node12</title>
<polygon fill="white" stroke="#bfbfbf" points="781,-56.5 781,-75.5 831,-75.5 831,-56.5 781,-56.5"/>
<text text-anchor="middle" x="806" y="-63.5" font-family="Helvetica,sans-Serif" font-size="10.00">Rcpp.h</text>
</g>
<!-- Node2&#45;&gt;Node12 -->
<g id="edge22" class="edge"><title>Node2&#45;&gt;Node12</title>
<path fill="none" stroke="midnightblue" d="M444.818,-118.364C507.585,-112.865 651.624,-98.7561 771,-76 771.1,-75.9809 771.2,-75.9617 771.301,-75.9424"/>
<polygon fill="midnightblue" stroke="midnightblue" points="771.819,-79.4114 780.851,-73.873 770.336,-72.5702 771.819,-79.4114"/>
</g>
<!-- Node15&#45;&gt;Node14 -->
<g id="edge30" class="edge"><title>Node15&#45;&gt;Node14</title>
<path fill="none" stroke="midnightblue" d="M938.386,-112.083C933.633,-104.534 926.682,-93.4948 920.848,-84.2298"/>
<polygon fill="midnightblue" stroke="midnightblue" points="923.8,-82.3486 915.51,-75.7511 917.876,-86.0783 923.8,-82.3486"/>
</g>
<!-- Node17 -->
<g id="node34" class="node"><title>Node17</title>
<polygon fill="white" stroke="#bfbfbf" points="1008.5,-0.5 1008.5,-19.5 1103.5,-19.5 1103.5,-0.5 1008.5,-0.5"/>
<text text-anchor="middle" x="1056" y="-7.5" font-family="Helvetica,sans-Serif" font-size="10.00">../Container.code</text>
</g>
<!-- Node16&#45;&gt;Node17 -->
<g id="edge34" class="edge"><title>Node16&#45;&gt;Node17</title>
<path fill="none" stroke="midnightblue" d="M1056,-56.083C1056,-49.0059 1056,-38.8611 1056,-29.9865"/>
<polygon fill="midnightblue" stroke="midnightblue" points="1059.5,-29.751 1056,-19.7511 1052.5,-29.7511 1059.5,-29.751"/>
</g>
<!-- Node18&#45;&gt;Node16 -->
<g id="edge38" class="edge"><title>Node18&#45;&gt;Node16</title>
<path fill="none" stroke="midnightblue" d="M1144.13,-112.324C1127.29,-103.664 1101.19,-90.2424 1081.76,-80.249"/>
<polygon fill="midnightblue" stroke="midnightblue" points="1083.32,-77.1155 1072.83,-75.6545 1080.12,-83.3405 1083.32,-77.1155"/>
</g>
<!-- Node19 -->
<g id="node39" class="node"><title>Node19</title>
<polygon fill="white" stroke="#bfbfbf" points="1141,-56.5 1141,-75.5 1269,-75.5 1269,-56.5 1141,-56.5"/>
<text text-anchor="middle" x="1205" y="-63.5" font-family="Helvetica,sans-Serif" font-size="10.00">../SimpleContainer.code</text>
</g>
<!-- Node18&#45;&gt;Node19 -->
<g id="edge40" class="edge"><title>Node18&#45;&gt;Node19</title>
<path fill="none" stroke="midnightblue" d="M1168.27,-112.083C1174.54,-104.377 1183.79,-93.0333 1191.43,-83.6531"/>
<polygon fill="midnightblue" stroke="midnightblue" points="1194.27,-85.7143 1197.87,-75.7511 1188.84,-81.2926 1194.27,-85.7143"/>
</g>
<!-- Node21&#45;&gt;Node20 -->
<g id="edge46" class="edge"><title>Node21&#45;&gt;Node20</title>
<path fill="none" stroke="midnightblue" d="M1380.17,-112.083C1379.52,-105.006 1378.58,-94.8611 1377.76,-85.9865"/>
<polygon fill="midnightblue" stroke="midnightblue" points="1381.22,-85.3858 1376.81,-75.7511 1374.25,-86.0312 1381.22,-85.3858"/>
</g>
<!-- Node23&#45;&gt;Node22 -->
<g id="edge52" class="edge"><title>Node23&#45;&gt;Node22</title>
<path fill="none" stroke="midnightblue" d="M1606.05,-112.083C1601.9,-104.613 1595.85,-93.7244 1590.73,-84.5199"/>
<polygon fill="midnightblue" stroke="midnightblue" points="1593.78,-82.7929 1585.86,-75.7511 1587.66,-86.1924 1593.78,-82.7929"/>
</g>
<!-- Node25&#45;&gt;Node24 -->
<g id="edge58" class="edge"><title>Node25&#45;&gt;Node24</title>
<path fill="none" stroke="midnightblue" d="M1828.56,-112.083C1823.05,-104.455 1814.97,-93.2645 1808.24,-83.9408"/>
<polygon fill="midnightblue" stroke="midnightblue" points="1811.01,-81.8087 1802.32,-75.7511 1805.34,-85.9071 1811.01,-81.8087"/>
</g>
<!-- Node27 -->
<g id="node58" class="node"><title>Node27</title>
<polygon fill="white" stroke="#bfbfbf" points="1946.5,-56.5 1946.5,-75.5 2031.5,-75.5 2031.5,-56.5 1946.5,-56.5"/>
<text text-anchor="middle" x="1989" y="-63.5" font-family="Helvetica,sans-Serif" font-size="10.00">../Iterator.code</text>
</g>
<!-- Node26&#45;&gt;Node27 -->
<g id="edge62" class="edge"><title>Node26&#45;&gt;Node27</title>
<path fill="none" stroke="midnightblue" d="M1989,-112.083C1989,-105.006 1989,-94.8611 1989,-85.9865"/>
<polygon fill="midnightblue" stroke="midnightblue" points="1992.5,-85.751 1989,-75.7511 1985.5,-85.7511 1992.5,-85.751"/>
</g>
<!-- Node29&#45;&gt;Node28 -->
<g id="edge68" class="edge"><title>Node29&#45;&gt;Node28</title>
<path fill="none" stroke="midnightblue" d="M2173.71,-112.083C2170.15,-104.691 2164.98,-93.9533 2160.58,-84.8111"/>
<polygon fill="midnightblue" stroke="midnightblue" points="2163.71,-83.2427 2156.21,-75.7511 2157.4,-86.2795 2163.71,-83.2427"/>
</g>
</g>
</svg>
