<?xml version="1.0" encoding="UTF-8" standalone="no"?>
<!DOCTYPE svg PUBLIC "-//W3C//DTD SVG 1.1//EN"
 "http://www.w3.org/Graphics/SVG/1.1/DTD/svg11.dtd">
<!-- Generated by graphviz version 2.28.0 (20110610.2051)
 -->
<!-- Title: G Pages: 1 -->
<svg width="174pt" height="140pt"
 viewBox="0.00 0.00 174.00 140.00" xmlns="http://www.w3.org/2000/svg" xmlns:xlink="http://www.w3.org/1999/xlink">
<g id="graph1" class="graph" transform="scale(1 1) rotate(0) translate(4 136)">
<title>G</title>
<polygon fill="white" stroke="white" points="-4,5 -4,-136 171,-136 171,5 -4,5"/>
<!-- Node1 -->
<g id="node1" class="node"><title>Node1</title>
<polygon fill="#bfbfbf" stroke="black" points="0,-112.5 0,-131.5 164,-131.5 164,-112.5 0,-112.5"/>
<text text-anchor="middle" x="82" y="-119.5" font-family="Helvetica,sans-Serif" font-size="10.00">pkg/AMORE/src/MLPfactory.cpp</text>
</g>
<!-- Node2 -->
<g id="node3" class="node"><title>Node2</title>
<a xlink:href="_neural_factory_8h.html" target="_top" xlink:title="dia/NeuralFactory.h">
<polygon fill="white" stroke="black" points="30,-0.5 30,-19.5 134,-19.5 134,-0.5 30,-0.5"/>
<text text-anchor="middle" x="82" y="-7.5" font-family="Helvetica,sans-Serif" font-size="10.00">dia/NeuralFactory.h</text>
</a>
</g>
<!-- Node1&#45;&gt;Node2 -->
<g id="edge2" class="edge"><title>Node1&#45;&gt;Node2</title>
<path fill="none" stroke="midnightblue" d="M77.3788,-112.339C72.9407,-103.493 66.5459,-89.22 64,-76 60.8899,-59.8505 66.6107,-41.8559 72.4085,-28.9021"/>
<polygon fill="midnightblue" stroke="midnightblue" points="75.6479,-30.2453 76.9075,-19.7256 69.3627,-27.1637 75.6479,-30.2453"/>
</g>
<!-- Node3 -->
<g id="node5" class="node"><title>Node3</title>
<a xlink:href="_m_l_pfactory_8h.html" target="_top" xlink:title="dia/MLPfactory.h">
<polygon fill="white" stroke="black" points="73.5,-56.5 73.5,-75.5 166.5,-75.5 166.5,-56.5 73.5,-56.5"/>
<text text-anchor="middle" x="120" y="-63.5" font-family="Helvetica,sans-Serif" font-size="10.00">dia/MLPfactory.h</text>
</a>
</g>
<!-- Node1&#45;&gt;Node3 -->
<g id="edge4" class="edge"><title>Node1&#45;&gt;Node3</title>
<path fill="none" stroke="midnightblue" d="M88.2749,-112.083C93.6425,-104.455 101.518,-93.2645 108.079,-83.9408"/>
<polygon fill="midnightblue" stroke="midnightblue" points="110.949,-85.9434 113.842,-75.7511 105.225,-81.9149 110.949,-85.9434"/>
</g>
<!-- Node3&#45;&gt;Node2 -->
<g id="edge6" class="edge"><title>Node3&#45;&gt;Node2</title>
<path fill="none" stroke="midnightblue" d="M113.725,-56.083C108.358,-48.4554 100.482,-37.2645 93.9213,-27.9408"/>
<polygon fill="midnightblue" stroke="midnightblue" points="96.7755,-25.9149 88.1582,-19.7511 91.0508,-29.9434 96.7755,-25.9149"/>
</g>
</g>
</svg>
