<?xml version="1.0" encoding="UTF-8" standalone="no"?>
<!DOCTYPE svg PUBLIC "-//W3C//DTD SVG 1.1//EN"
 "http://www.w3.org/Graphics/SVG/1.1/DTD/svg11.dtd">
<!-- Generated by graphviz version 2.28.0 (20110610.2051)
 -->
<!-- Title: G Pages: 1 -->
<svg width="2552pt" height="196pt"
 viewBox="0.00 0.00 2552.07 196.00" xmlns="http://www.w3.org/2000/svg" xmlns:xlink="http://www.w3.org/1999/xlink">
<g id="graph1" class="graph" transform="scale(1 1) rotate(0) translate(4 192)">
<title>G</title>
<polygon fill="white" stroke="white" points="-4,5 -4,-192 2549.07,-192 2549.07,5 -4,5"/>
<!-- Node1 -->
<g id="node1" class="node"><title>Node1</title>
<polygon fill="#bfbfbf" stroke="black" points="835.572,-168.5 835.572,-187.5 1002.57,-187.5 1002.57,-168.5 835.572,-168.5"/>
<text text-anchor="middle" x="919.072" y="-175.5" font-family="Helvetica,sans-Serif" font-size="10.00">pkg/AMORE/src/dia/MLPfactory.h</text>
</g>
<!-- Node2 -->
<g id="node3" class="node"><title>Node2</title>
<a xlink:href="_a_m_o_r_e_8h.html" target="_top" xlink:title="pkg/AMORE/src/AMORE.h">
<polygon fill="white" stroke="black" points="169.572,-0.5 169.572,-19.5 306.572,-19.5 306.572,-0.5 169.572,-0.5"/>
<text text-anchor="middle" x="238.072" y="-7.5" font-family="Helvetica,sans-Serif" font-size="10.00">pkg/AMORE/src/AMORE.h</text>
</a>
</g>
<!-- Node1&#45;&gt;Node2 -->
<g id="edge2" class="edge"><title>Node1&#45;&gt;Node2</title>
<path fill="none" stroke="midnightblue" d="M825.097,-175.779C598.907,-172.379 40.7368,-161.073 13.0716,-132 -44.1024,-71.9157 102.308,-35.0471 185.386,-19.5375"/>
<polygon fill="midnightblue" stroke="midnightblue" points="825.237,-179.281 835.288,-175.93 825.341,-172.282 825.237,-179.281"/>
</g>
<!-- Node3 -->
<g id="node5" class="node"><title>Node3</title>
<a xlink:href="_tanh_factory_8h.html" target="_top" xlink:title="pkg/AMORE/src/dia/TanhFactory.h">
<polygon fill="white" stroke="black" points="22.5716,-112.5 22.5716,-131.5 193.572,-131.5 193.572,-112.5 22.5716,-112.5"/>
<text text-anchor="middle" x="108.072" y="-119.5" font-family="Helvetica,sans-Serif" font-size="10.00">pkg/AMORE/src/dia/TanhFactory.h</text>
</a>
</g>
<!-- Node1&#45;&gt;Node3 -->
<g id="edge4" class="edge"><title>Node1&#45;&gt;Node3</title>
<path fill="none" stroke="midnightblue" d="M825.179,-171.853C689.077,-164.212 429.074,-148.936 208.072,-132 203.379,-131.64 198.564,-131.257 193.704,-130.858"/>
<polygon fill="midnightblue" stroke="midnightblue" points="825.38,-175.37 835.561,-172.435 825.772,-168.381 825.38,-175.37"/>
</g>
<!-- Node4 -->
<g id="node8" class="node"><title>Node4</title>
<a xlink:href="_tanh_factory_8cpp.html" target="_top" xlink:title="pkg/AMORE/src/TanhFactory.cpp">
<polygon fill="white" stroke="black" points="98.5716,-56.5 98.5716,-75.5 265.572,-75.5 265.572,-56.5 98.5716,-56.5"/>
<text text-anchor="middle" x="182.072" y="-63.5" font-family="Helvetica,sans-Serif" font-size="10.00">pkg/AMORE/src/TanhFactory.cpp</text>
</a>
</g>
<!-- Node1&#45;&gt;Node4 -->
<g id="edge24" class="edge"><title>Node1&#45;&gt;Node4</title>
<path fill="none" stroke="midnightblue" d="M825.159,-174.657C651.31,-169.75 292.299,-156.747 241.072,-132 215.272,-119.537 195.547,-90.3242 186.888,-75.6841"/>
<polygon fill="midnightblue" stroke="midnightblue" points="825.231,-178.16 835.324,-174.94 825.426,-171.163 825.231,-178.16"/>
</g>
<!-- Node5 -->
<g id="node11" class="node"><title>Node5</title>
<a xlink:href="_identity_factory_8h.html" target="_top" xlink:title="pkg/AMORE/src/dia/IdentityFactory.h">
<polygon fill="white" stroke="black" points="250.572,-112.5 250.572,-131.5 435.572,-131.5 435.572,-112.5 250.572,-112.5"/>
<text text-anchor="middle" x="343.072" y="-119.5" font-family="Helvetica,sans-Serif" font-size="10.00">pkg/AMORE/src/dia/IdentityFactory.h</text>
</a>
</g>
<!-- Node1&#45;&gt;Node5 -->
<g id="edge12" class="edge"><title>Node1&#45;&gt;Node5</title>
<path fill="none" stroke="midnightblue" d="M825.076,-168.188C717.013,-158.057 540.842,-141.541 434.061,-131.53"/>
<polygon fill="midnightblue" stroke="midnightblue" points="825.033,-171.699 835.316,-169.148 825.687,-164.73 825.033,-171.699"/>
</g>
<!-- Node6 -->
<g id="node14" class="node"><title>Node6</title>
<a xlink:href="_identity_factory_8cpp.html" target="_top" xlink:title="pkg/AMORE/src/IdentityFactory.cpp">
<polygon fill="white" stroke="black" points="322.572,-56.5 322.572,-75.5 503.572,-75.5 503.572,-56.5 322.572,-56.5"/>
<text text-anchor="middle" x="413.072" y="-63.5" font-family="Helvetica,sans-Serif" font-size="10.00">pkg/AMORE/src/IdentityFactory.cpp</text>
</a>
</g>
<!-- Node1&#45;&gt;Node6 -->
<g id="edge26" class="edge"><title>Node1&#45;&gt;Node6</title>
<path fill="none" stroke="midnightblue" d="M825.4,-171.719C723.543,-165.083 567.823,-152.07 512.072,-132 475.702,-118.907 439.359,-89.9895 422.618,-75.5508"/>
<polygon fill="midnightblue" stroke="midnightblue" points="825.186,-175.213 835.39,-172.361 825.635,-168.227 825.186,-175.213"/>
</g>
<!-- Node7 -->
<g id="node17" class="node"><title>Node7</title>
<a xlink:href="_m_l_pfactory_8cpp.html" target="_top" xlink:title="pkg/AMORE/src/MLPfactory.cpp">
<polygon fill="white" stroke="black" points="522.072,-56.5 522.072,-75.5 686.072,-75.5 686.072,-56.5 522.072,-56.5"/>
<text text-anchor="middle" x="604.072" y="-63.5" font-family="Helvetica,sans-Serif" font-size="10.00">pkg/AMORE/src/MLPfactory.cpp</text>
</a>
</g>
<!-- Node1&#45;&gt;Node7 -->
<g id="edge20" class="edge"><title>Node1&#45;&gt;Node7</title>
<path fill="none" stroke="midnightblue" d="M825.084,-172.818C714.09,-166.896 541.926,-154.232 522.072,-132 501.077,-108.492 546.205,-86.992 577.471,-75.5764"/>
<polygon fill="midnightblue" stroke="midnightblue" points="825.125,-176.325 835.294,-173.353 825.491,-169.335 825.125,-176.325"/>
</g>
<!-- Node8 -->
<g id="node22" class="node"><title>Node8</title>
<a xlink:href="_arc_tan_factory_8h.html" target="_top" xlink:title="pkg/AMORE/src/dia/ArcTanFactory.h">
<polygon fill="white" stroke="black" points="530.572,-112.5 530.572,-131.5 711.572,-131.5 711.572,-112.5 530.572,-112.5"/>
<text text-anchor="middle" x="621.072" y="-119.5" font-family="Helvetica,sans-Serif" font-size="10.00">pkg/AMORE/src/dia/ArcTanFactory.h</text>
</a>
</g>
<!-- Node1&#45;&gt;Node8 -->
<g id="edge28" class="edge"><title>Node1&#45;&gt;Node8</title>
<path fill="none" stroke="midnightblue" d="M861.683,-166.601C805.364,-156.395 720.509,-141.019 668.07,-131.516"/>
<polygon fill="midnightblue" stroke="midnightblue" points="861.389,-170.104 871.853,-168.444 862.637,-163.217 861.389,-170.104"/>
</g>
<!-- Node9 -->
<g id="node24" class="node"><title>Node9</title>
<a xlink:href="_cosine_factory_8h.html" target="_top" xlink:title="pkg/AMORE/src/dia/CosineFactory.h">
<polygon fill="white" stroke="black" points="730.072,-112.5 730.072,-131.5 912.072,-131.5 912.072,-112.5 730.072,-112.5"/>
<text text-anchor="middle" x="821.072" y="-119.5" font-family="Helvetica,sans-Serif" font-size="10.00">pkg/AMORE/src/dia/CosineFactory.h</text>
</a>
</g>
<!-- Node1&#45;&gt;Node9 -->
<g id="edge30" class="edge"><title>Node1&#45;&gt;Node9</title>
<path fill="none" stroke="midnightblue" d="M894.486,-163.453C876.393,-153.483 852.337,-140.228 836.778,-131.655"/>
<polygon fill="midnightblue" stroke="midnightblue" points="892.879,-166.563 903.326,-168.324 896.257,-160.432 892.879,-166.563"/>
</g>
<!-- Node10 -->
<g id="node26" class="node"><title>Node10</title>
<a xlink:href="_elliot_factory_8h.html" target="_top" xlink:title="pkg/AMORE/src/dia/ElliotFactory.h">
<polygon fill="white" stroke="black" points="930.572,-112.5 930.572,-131.5 1103.57,-131.5 1103.57,-112.5 930.572,-112.5"/>
<text text-anchor="middle" x="1017.07" y="-119.5" font-family="Helvetica,sans-Serif" font-size="10.00">pkg/AMORE/src/dia/ElliotFactory.h</text>
</a>
</g>
<!-- Node1&#45;&gt;Node10 -->
<g id="edge32" class="edge"><title>Node1&#45;&gt;Node10</title>
<path fill="none" stroke="midnightblue" d="M943.658,-163.453C961.75,-153.483 985.806,-140.228 1001.37,-131.655"/>
<polygon fill="midnightblue" stroke="midnightblue" points="941.886,-160.432 934.817,-168.324 945.265,-166.563 941.886,-160.432"/>
</g>
<!-- Node11 -->
<g id="node28" class="node"><title>Node11</title>
<a xlink:href="_exponential_factory_8h.html" target="_top" xlink:title="pkg/AMORE/src/dia/ExponentialFactory.h">
<polygon fill="white" stroke="black" points="1122.07,-112.5 1122.07,-131.5 1326.07,-131.5 1326.07,-112.5 1122.07,-112.5"/>
<text text-anchor="middle" x="1224.07" y="-119.5" font-family="Helvetica,sans-Serif" font-size="10.00">pkg/AMORE/src/dia/ExponentialFactory.h</text>
</a>
</g>
<!-- Node1&#45;&gt;Node11 -->
<g id="edge34" class="edge"><title>Node1&#45;&gt;Node11</title>
<path fill="none" stroke="midnightblue" d="M977.45,-166.664C1035.09,-156.459 1122.19,-141.039 1175.97,-131.516"/>
<polygon fill="midnightblue" stroke="midnightblue" points="976.636,-163.254 967.4,-168.444 977.857,-170.146 976.636,-163.254"/>
</g>
<!-- Node12 -->
<g id="node30" class="node"><title>Node12</title>
<a xlink:href="_gauss_factory_8h.html" target="_top" xlink:title="pkg/AMORE/src/dia/GaussFactory.h">
<polygon fill="white" stroke="black" points="1344.57,-112.5 1344.57,-131.5 1523.57,-131.5 1523.57,-112.5 1344.57,-112.5"/>
<text text-anchor="middle" x="1434.07" y="-119.5" font-family="Helvetica,sans-Serif" font-size="10.00">pkg/AMORE/src/dia/GaussFactory.h</text>
</a>
</g>
<!-- Node1&#45;&gt;Node12 -->
<g id="edge36" class="edge"><title>Node1&#45;&gt;Node12</title>
<path fill="none" stroke="midnightblue" d="M1010.49,-167.414C1107.6,-157.232 1259.68,-141.286 1352.75,-131.526"/>
<polygon fill="midnightblue" stroke="midnightblue" points="1009.97,-163.95 1000.39,-168.473 1010.7,-170.911 1009.97,-163.95"/>
</g>
<!-- Node13 -->
<g id="node32" class="node"><title>Node13</title>
<a xlink:href="_logistic_factory_8h.html" target="_top" xlink:title="pkg/AMORE/src/dia/LogisticFactory.h">
<polygon fill="white" stroke="black" points="1542.07,-112.5 1542.07,-131.5 1728.07,-131.5 1728.07,-112.5 1542.07,-112.5"/>
<text text-anchor="middle" x="1635.07" y="-119.5" font-family="Helvetica,sans-Serif" font-size="10.00">pkg/AMORE/src/dia/LogisticFactory.h</text>
</a>
</g>
<!-- Node1&#45;&gt;Node13 -->
<g id="edge38" class="edge"><title>Node1&#45;&gt;Node13</title>
<path fill="none" stroke="midnightblue" d="M1013.16,-170.5C1133.51,-162.093 1348.36,-146.769 1532.07,-132 1535.29,-131.741 1538.57,-131.474 1541.88,-131.201"/>
<polygon fill="midnightblue" stroke="midnightblue" points="1012.62,-167.03 1002.88,-171.217 1013.1,-174.013 1012.62,-167.03"/>
</g>
<!-- Node14 -->
<g id="node34" class="node"><title>Node14</title>
<a xlink:href="_reciprocal_factory_8h.html" target="_top" xlink:title="pkg/AMORE/src/dia/ReciprocalFactory.h">
<polygon fill="white" stroke="black" points="1746.07,-112.5 1746.07,-131.5 1944.07,-131.5 1944.07,-112.5 1746.07,-112.5"/>
<text text-anchor="middle" x="1845.07" y="-119.5" font-family="Helvetica,sans-Serif" font-size="10.00">pkg/AMORE/src/dia/ReciprocalFactory.h</text>
</a>
</g>
<!-- Node1&#45;&gt;Node14 -->
<g id="edge40" class="edge"><title>Node1&#45;&gt;Node14</title>
<path fill="none" stroke="midnightblue" d="M1012.96,-172.697C1165.1,-165.529 1474.92,-150.13 1737.07,-132 1739.98,-131.799 1742.93,-131.589 1745.91,-131.372"/>
<polygon fill="midnightblue" stroke="midnightblue" points="1012.55,-169.212 1002.73,-173.177 1012.88,-176.204 1012.55,-169.212"/>
</g>
<!-- Node15 -->
<g id="node36" class="node"><title>Node15</title>
<a xlink:href="_sine_factory_8h.html" target="_top" xlink:title="pkg/AMORE/src/dia/SineFactory.h">
<polygon fill="white" stroke="black" points="1962.07,-112.5 1962.07,-131.5 2132.07,-131.5 2132.07,-112.5 1962.07,-112.5"/>
<text text-anchor="middle" x="2047.07" y="-119.5" font-family="Helvetica,sans-Serif" font-size="10.00">pkg/AMORE/src/dia/SineFactory.h</text>
</a>
</g>
<!-- Node1&#45;&gt;Node15 -->
<g id="edge42" class="edge"><title>Node1&#45;&gt;Node15</title>
<path fill="none" stroke="midnightblue" d="M1012.63,-174.557C1194.15,-169.456 1606.72,-156.101 1953.07,-132 1956.02,-131.795 1959.01,-131.575 1962.03,-131.342"/>
<polygon fill="midnightblue" stroke="midnightblue" points="1012.49,-171.06 1002.59,-174.837 1012.68,-178.057 1012.49,-171.06"/>
</g>
<!-- Node16 -->
<g id="node38" class="node"><title>Node16</title>
<a xlink:href="_square_factory_8h.html" target="_top" xlink:title="pkg/AMORE/src/dia/SquareFactory.h">
<polygon fill="white" stroke="black" points="2150.07,-112.5 2150.07,-131.5 2332.07,-131.5 2332.07,-112.5 2150.07,-112.5"/>
<text text-anchor="middle" x="2241.07" y="-119.5" font-family="Helvetica,sans-Serif" font-size="10.00">pkg/AMORE/src/dia/SquareFactory.h</text>
</a>
</g>
<!-- Node1&#45;&gt;Node16 -->
<g id="edge44" class="edge"><title>Node1&#45;&gt;Node16</title>
<path fill="none" stroke="midnightblue" d="M1012.98,-175.236C1217.95,-171.015 1720.72,-158.637 2141.07,-132 2144.03,-131.813 2147.03,-131.61 2150.07,-131.396"/>
<polygon fill="midnightblue" stroke="midnightblue" points="1012.78,-171.74 1002.86,-175.443 1012.93,-178.738 1012.78,-171.74"/>
</g>
<!-- Node17 -->
<g id="node40" class="node"><title>Node17</title>
<a xlink:href="_threshold_factory_8h.html" target="_top" xlink:title="pkg/AMORE/src/dia/ThresholdFactory.h">
<polygon fill="white" stroke="black" points="2350.07,-112.5 2350.07,-131.5 2544.07,-131.5 2544.07,-112.5 2350.07,-112.5"/>
<text text-anchor="middle" x="2447.07" y="-119.5" font-family="Helvetica,sans-Serif" font-size="10.00">pkg/AMORE/src/dia/ThresholdFactory.h</text>
</a>
</g>
<!-- Node1&#45;&gt;Node17 -->
<g id="edge46" class="edge"><title>Node1&#45;&gt;Node17</title>
<path fill="none" stroke="midnightblue" d="M1013.13,-175.748C1241.08,-172.339 1841.11,-161.115 2341.07,-132 2344.02,-131.828 2347.02,-131.643 2350.04,-131.446"/>
<polygon fill="midnightblue" stroke="midnightblue" points="1012.83,-172.252 1002.89,-175.9 1012.94,-179.252 1012.83,-172.252"/>
</g>
<!-- Node3&#45;&gt;Node2 -->
<g id="edge6" class="edge"><title>Node3&#45;&gt;Node2</title>
<path fill="none" stroke="midnightblue" d="M95.2194,-103.479C86.6556,-89.4788 78.7065,-69.9579 89.0716,-56 107.679,-30.9429 139.826,-19.3359 169.508,-14.1429"/>
<polygon fill="midnightblue" stroke="midnightblue" points="92.556,-105.792 101.029,-112.153 98.372,-101.896 92.556,-105.792"/>
</g>
<!-- Node3&#45;&gt;Node4 -->
<g id="edge8" class="edge"><title>Node3&#45;&gt;Node4</title>
<path fill="none" stroke="midnightblue" d="M128.106,-106.38C141.481,-96.6204 158.63,-84.1057 169.966,-75.8339"/>
<polygon fill="midnightblue" stroke="midnightblue" points="125.976,-103.602 119.961,-112.324 130.102,-109.257 125.976,-103.602"/>
</g>
<!-- Node4&#45;&gt;Node2 -->
<g id="edge10" class="edge"><title>Node4&#45;&gt;Node2</title>
<path fill="none" stroke="midnightblue" d="M198.402,-49.2533C208.337,-39.6731 220.659,-27.7906 228.911,-19.8339"/>
<polygon fill="midnightblue" stroke="midnightblue" points="195.838,-46.8631 191.069,-56.324 200.697,-51.902 195.838,-46.8631"/>
</g>
<!-- Node5&#45;&gt;Node2 -->
<g id="edge14" class="edge"><title>Node5&#45;&gt;Node2</title>
<path fill="none" stroke="midnightblue" d="M327.7,-104.897C305.127,-81.2486 263.796,-37.9493 246.273,-19.5914"/>
<polygon fill="midnightblue" stroke="midnightblue" points="325.396,-107.552 334.832,-112.368 330.459,-102.718 325.396,-107.552"/>
</g>
<!-- Node5&#45;&gt;Node6 -->
<g id="edge16" class="edge"><title>Node5&#45;&gt;Node6</title>
<path fill="none" stroke="midnightblue" d="M362.385,-106.101C374.983,-96.3824 391,-84.0269 401.62,-75.8339"/>
<polygon fill="midnightblue" stroke="midnightblue" points="360.098,-103.445 354.318,-112.324 364.374,-108.987 360.098,-103.445"/>
</g>
<!-- Node6&#45;&gt;Node2 -->
<g id="edge18" class="edge"><title>Node6&#45;&gt;Node2</title>
<path fill="none" stroke="midnightblue" d="M375.597,-53.4363C342.602,-43.2551 295.316,-28.664 265.671,-19.5164"/>
<polygon fill="midnightblue" stroke="midnightblue" points="374.755,-56.8393 385.342,-56.4435 376.819,-50.1505 374.755,-56.8393"/>
</g>
<!-- Node7&#45;&gt;Node2 -->
<g id="edge22" class="edge"><title>Node7&#45;&gt;Node2</title>
<path fill="none" stroke="midnightblue" d="M536.154,-54.9794C467.019,-44.7791 361.001,-29.1372 295.794,-19.5164"/>
<polygon fill="midnightblue" stroke="midnightblue" points="535.674,-58.4464 546.078,-56.4435 536.696,-51.5213 535.674,-58.4464"/>
</g>
</g>
</svg>
