<?xml version="1.0" encoding="UTF-8" standalone="no"?>
<!DOCTYPE svg PUBLIC "-//W3C//DTD SVG 1.1//EN"
 "http://www.w3.org/Graphics/SVG/1.1/DTD/svg11.dtd">
<!-- Generated by graphviz version 2.28.0 (20110610.2051)
 -->
<!-- Title: G Pages: 1 -->
<svg width="183pt" height="140pt"
 viewBox="0.00 0.00 183.00 140.00" xmlns="http://www.w3.org/2000/svg" xmlns:xlink="http://www.w3.org/1999/xlink">
<g id="graph1" class="graph" transform="scale(1 1) rotate(0) translate(4 136)">
<title>G</title>
<polygon fill="white" stroke="white" points="-4,5 -4,-136 180,-136 180,5 -4,5"/>
<!-- Node1 -->
<g id="node1" class="node"><title>Node1</title>
<polygon fill="#bfbfbf" stroke="black" points="-0.5,-112.5 -0.5,-131.5 170.5,-131.5 170.5,-112.5 -0.5,-112.5"/>
<text text-anchor="middle" x="85" y="-119.5" font-family="Helvetica,sans-Serif" font-size="10.00">pkg/AMORE/src/MLPbehavior.cpp</text>
</g>
<!-- Node2 -->
<g id="node3" class="node"><title>Node2</title>
<a xlink:href="_predict_behavior_8h.html" target="_top" xlink:title="dia/PredictBehavior.h">
<polygon fill="white" stroke="black" points="28,-0.5 28,-19.5 142,-19.5 142,-0.5 28,-0.5"/>
<text text-anchor="middle" x="85" y="-7.5" font-family="Helvetica,sans-Serif" font-size="10.00">dia/PredictBehavior.h</text>
</a>
</g>
<!-- Node1&#45;&gt;Node2 -->
<g id="edge2" class="edge"><title>Node1&#45;&gt;Node2</title>
<path fill="none" stroke="midnightblue" d="M79.8698,-112.407C74.9422,-103.614 67.8396,-89.381 65,-76 61.5234,-59.6176 68.0395,-41.4343 74.5421,-28.4752"/>
<polygon fill="midnightblue" stroke="midnightblue" points="77.6141,-30.1523 79.3463,-19.7 71.474,-26.7907 77.6141,-30.1523"/>
</g>
<!-- Node3 -->
<g id="node5" class="node"><title>Node3</title>
<a xlink:href="_m_l_pbehavior_8h.html" target="_top" xlink:title="dia/MLPbehavior.h">
<polygon fill="white" stroke="black" points="74.5,-56.5 74.5,-75.5 175.5,-75.5 175.5,-56.5 74.5,-56.5"/>
<text text-anchor="middle" x="125" y="-63.5" font-family="Helvetica,sans-Serif" font-size="10.00">dia/MLPbehavior.h</text>
</a>
</g>
<!-- Node1&#45;&gt;Node3 -->
<g id="edge4" class="edge"><title>Node1&#45;&gt;Node3</title>
<path fill="none" stroke="midnightblue" d="M91.6052,-112.083C97.2552,-104.455 105.545,-93.2645 112.451,-83.9408"/>
<polygon fill="midnightblue" stroke="midnightblue" points="115.378,-85.87 118.518,-75.7511 109.753,-81.7034 115.378,-85.87"/>
</g>
<!-- Node3&#45;&gt;Node2 -->
<g id="edge6" class="edge"><title>Node3&#45;&gt;Node2</title>
<path fill="none" stroke="midnightblue" d="M118.395,-56.083C112.745,-48.4554 104.455,-37.2645 97.5488,-27.9408"/>
<polygon fill="midnightblue" stroke="midnightblue" points="100.247,-25.7034 91.4823,-19.7511 94.6221,-29.87 100.247,-25.7034"/>
</g>
</g>
</svg>
