<?xml version="1.0" encoding="UTF-8" standalone="no"?>
<!DOCTYPE svg PUBLIC "-//W3C//DTD SVG 1.1//EN"
 "http://www.w3.org/Graphics/SVG/1.1/DTD/svg11.dtd">
<!-- Generated by graphviz version 2.28.0 (20110610.2051)
 -->
<!-- Title: G Pages: 1 -->
<svg width="228pt" height="140pt"
 viewBox="0.00 0.00 228.00 140.00" xmlns="http://www.w3.org/2000/svg" xmlns:xlink="http://www.w3.org/1999/xlink">
<g id="graph1" class="graph" transform="scale(1 1) rotate(0) translate(4 136)">
<title>G</title>
<polygon fill="white" stroke="white" points="-4,5 -4,-136 225,-136 225,5 -4,5"/>
<!-- Node1 -->
<g id="node1" class="node"><title>Node1</title>
<polygon fill="#bfbfbf" stroke="black" points="-0.5,-112.5 -0.5,-131.5 166.5,-131.5 166.5,-112.5 -0.5,-112.5"/>
<text text-anchor="middle" x="83" y="-119.5" font-family="Helvetica,sans-Serif" font-size="10.00">pkg/AMORE/src/dia/MLPfactory.h</text>
</g>
<!-- Node2 -->
<g id="node3" class="node"><title>Node2</title>
<a xlink:href="_a_m_o_r_e_8h.html" target="_top" xlink:title="pkg/AMORE/src/AMORE.h">
<polygon fill="white" stroke="black" points="14.5,-0.5 14.5,-19.5 151.5,-19.5 151.5,-0.5 14.5,-0.5"/>
<text text-anchor="middle" x="83" y="-7.5" font-family="Helvetica,sans-Serif" font-size="10.00">pkg/AMORE/src/AMORE.h</text>
</a>
</g>
<!-- Node1&#45;&gt;Node2 -->
<g id="edge2" class="edge"><title>Node1&#45;&gt;Node2</title>
<path fill="none" stroke="midnightblue" d="M65.5998,-104.819C58.3665,-96.916 50.7852,-86.7906 47,-76 39.4849,-54.576 59.3187,-31.8874 72.4487,-19.7991"/>
<polygon fill="midnightblue" stroke="midnightblue" points="63.3326,-107.506 72.8379,-112.185 68.3256,-102.6 63.3326,-107.506"/>
</g>
<!-- Node3 -->
<g id="node5" class="node"><title>Node3</title>
<a xlink:href="_m_l_pfactory_8cpp.html" target="_top" xlink:title="pkg/AMORE/src/MLPfactory.cpp">
<polygon fill="white" stroke="black" points="56,-56.5 56,-75.5 220,-75.5 220,-56.5 56,-56.5"/>
<text text-anchor="middle" x="138" y="-63.5" font-family="Helvetica,sans-Serif" font-size="10.00">pkg/AMORE/src/MLPfactory.cpp</text>
</a>
</g>
<!-- Node1&#45;&gt;Node3 -->
<g id="edge4" class="edge"><title>Node1&#45;&gt;Node3</title>
<path fill="none" stroke="midnightblue" d="M99.2938,-105.002C109.041,-95.4329 121.053,-83.6389 129.087,-75.7511"/>
<polygon fill="midnightblue" stroke="midnightblue" points="96.7657,-102.58 92.0821,-112.083 101.67,-107.575 96.7657,-102.58"/>
</g>
<!-- Node3&#45;&gt;Node2 -->
<g id="edge6" class="edge"><title>Node3&#45;&gt;Node2</title>
<path fill="none" stroke="midnightblue" d="M121.706,-49.0024C111.959,-39.4329 99.947,-27.6389 91.9131,-19.7511"/>
<polygon fill="midnightblue" stroke="midnightblue" points="119.33,-51.5746 128.918,-56.083 124.234,-46.5796 119.33,-51.5746"/>
</g>
</g>
</svg>
