<?xml version="1.0" encoding="UTF-8" standalone="no"?>
<!DOCTYPE svg PUBLIC "-//W3C//DTD SVG 1.1//EN"
 "http://www.w3.org/Graphics/SVG/1.1/DTD/svg11.dtd">
<!-- Generated by graphviz version 2.28.0 (20110610.2051)
 -->
<!-- Title: G Pages: 1 -->
<svg width="1532pt" height="196pt"
 viewBox="0.00 0.00 1532.00 196.00" xmlns="http://www.w3.org/2000/svg" xmlns:xlink="http://www.w3.org/1999/xlink">
<g id="graph1" class="graph" transform="scale(1 1) rotate(0) translate(4 192)">
<title>G</title>
<polygon fill="white" stroke="white" points="-4,5 -4,-192 1529,-192 1529,5 -4,5"/>
<!-- Node1 -->
<g id="node1" class="node"><title>Node1</title>
<polygon fill="#bfbfbf" stroke="black" points="698,-168.5 698,-187.5 1246,-187.5 1246,-168.5 698,-168.5"/>
<text text-anchor="middle" x="972" y="-175.5" font-family="Helvetica,sans-Serif" font-size="10.00">/Users/mcasl/pc&#45;ule/Trabajo/investigacion/AMORE/AMORE&#45;WC/AMORE&#45;WC/pkg/AMORE/src/NetworkRinterface.cpp</text>
</g>
<!-- Node2 -->
<g id="node3" class="node"><title>Node2</title>
<a xlink:href="package_8h.html" target="_top" xlink:title="package.h">
<polygon fill="white" stroke="black" points="381.5,-112.5 381.5,-131.5 444.5,-131.5 444.5,-112.5 381.5,-112.5"/>
<text text-anchor="middle" x="413" y="-119.5" font-family="Helvetica,sans-Serif" font-size="10.00">package.h</text>
</a>
</g>
<!-- Node1&#45;&gt;Node2 -->
<g id="edge2" class="edge"><title>Node1&#45;&gt;Node2</title>
<path fill="none" stroke="midnightblue" d="M883.733,-168.473C761.508,-156.666 545.552,-135.805 454.905,-127.048"/>
<polygon fill="midnightblue" stroke="midnightblue" points="455.031,-123.544 444.741,-126.066 454.358,-130.512 455.031,-123.544"/>
</g>
<!-- Node13 -->
<g id="node25" class="node"><title>Node13</title>
<a xlink:href="_identity_factory_8h.html" target="_top" xlink:title="classHeaders/IdentityFactory.h">
<polygon fill="white" stroke="black" points="620.5,-112.5 620.5,-131.5 779.5,-131.5 779.5,-112.5 620.5,-112.5"/>
<text text-anchor="middle" x="700" y="-119.5" font-family="Helvetica,sans-Serif" font-size="10.00">classHeaders/IdentityFactory.h</text>
</a>
</g>
<!-- Node1&#45;&gt;Node13 -->
<g id="edge24" class="edge"><title>Node1&#45;&gt;Node13</title>
<path fill="none" stroke="midnightblue" d="M928.901,-168.444C881.153,-158.964 804.139,-143.675 752.806,-133.483"/>
<polygon fill="midnightblue" stroke="midnightblue" points="753.388,-130.031 742.898,-131.516 752.025,-136.897 753.388,-130.031"/>
</g>
<!-- Node15 -->
<g id="node29" class="node"><title>Node15</title>
<a xlink:href="_neural_factory_8h.html" target="_top" xlink:title="NeuralFactory.h">
<polygon fill="white" stroke="black" points="885.5,-0.5 885.5,-19.5 974.5,-19.5 974.5,-0.5 885.5,-0.5"/>
<text text-anchor="middle" x="930" y="-7.5" font-family="Helvetica,sans-Serif" font-size="10.00">NeuralFactory.h</text>
</a>
</g>
<!-- Node1&#45;&gt;Node15 -->
<g id="edge34" class="edge"><title>Node1&#45;&gt;Node15</title>
<path fill="none" stroke="midnightblue" d="M969.742,-168.075C963.131,-141.945 943.716,-65.2106 934.7,-29.577"/>
<polygon fill="midnightblue" stroke="midnightblue" points="938.014,-28.4041 932.168,-19.5681 931.228,-30.1211 938.014,-28.4041"/>
</g>
<!-- Node16 -->
<g id="node31" class="node"><title>Node16</title>
<a xlink:href="_tanh_factory_8h.html" target="_top" xlink:title="classHeaders/TanhFactory.h">
<polygon fill="white" stroke="black" points="798,-112.5 798,-131.5 944,-131.5 944,-112.5 798,-112.5"/>
<text text-anchor="middle" x="871" y="-119.5" font-family="Helvetica,sans-Serif" font-size="10.00">classHeaders/TanhFactory.h</text>
</a>
</g>
<!-- Node1&#45;&gt;Node16 -->
<g id="edge30" class="edge"><title>Node1&#45;&gt;Node16</title>
<path fill="none" stroke="midnightblue" d="M955.773,-168.324C939.649,-159.703 914.7,-146.364 896.036,-136.386"/>
<polygon fill="midnightblue" stroke="midnightblue" points="897.656,-133.283 887.187,-131.655 894.356,-139.456 897.656,-133.283"/>
</g>
<!-- Node17 -->
<g id="node35" class="node"><title>Node17</title>
<a xlink:href="_neural_network_8h.html" target="_top" xlink:title="classHeaders/NeuralNetwork.h">
<polygon fill="white" stroke="black" points="1000,-112.5 1000,-131.5 1158,-131.5 1158,-112.5 1000,-112.5"/>
<text text-anchor="middle" x="1079" y="-119.5" font-family="Helvetica,sans-Serif" font-size="10.00">classHeaders/NeuralNetwork.h</text>
</a>
</g>
<!-- Node1&#45;&gt;Node17 -->
<g id="edge36" class="edge"><title>Node1&#45;&gt;Node17</title>
<path fill="none" stroke="midnightblue" d="M989.191,-168.324C1006.35,-159.664 1032.95,-146.242 1052.75,-136.249"/>
<polygon fill="midnightblue" stroke="midnightblue" points="1054.5,-139.285 1061.85,-131.655 1051.35,-133.035 1054.5,-139.285"/>
</g>
<!-- Node18 -->
<g id="node37" class="node"><title>Node18</title>
<a xlink:href="_neural_creator_8h.html" target="_top" xlink:title="classHeaders/NeuralCreator.h">
<polygon fill="white" stroke="black" points="1176.5,-112.5 1176.5,-131.5 1329.5,-131.5 1329.5,-112.5 1176.5,-112.5"/>
<text text-anchor="middle" x="1253" y="-119.5" font-family="Helvetica,sans-Serif" font-size="10.00">classHeaders/NeuralCreator.h</text>
</a>
</g>
<!-- Node1&#45;&gt;Node18 -->
<g id="edge38" class="edge"><title>Node1&#45;&gt;Node18</title>
<path fill="none" stroke="midnightblue" d="M1016.53,-168.444C1065.96,-158.944 1145.75,-143.611 1198.78,-133.42"/>
<polygon fill="midnightblue" stroke="midnightblue" points="1199.52,-136.841 1208.68,-131.516 1198.2,-129.967 1199.52,-136.841"/>
</g>
<!-- Node19 -->
<g id="node39" class="node"><title>Node19</title>
<a xlink:href="_network_rinterface_8h.html" target="_top" xlink:title="classHeaders/NetworkRinterface.h">
<polygon fill="white" stroke="black" points="1348,-112.5 1348,-131.5 1524,-131.5 1524,-112.5 1348,-112.5"/>
<text text-anchor="middle" x="1436" y="-119.5" font-family="Helvetica,sans-Serif" font-size="10.00">classHeaders/NetworkRinterface.h</text>
</a>
</g>
<!-- Node1&#45;&gt;Node19 -->
<g id="edge40" class="edge"><title>Node1&#45;&gt;Node19</title>
<path fill="none" stroke="midnightblue" d="M1045.27,-168.473C1128.79,-158.753 1265.04,-142.897 1352.57,-132.709"/>
<polygon fill="midnightblue" stroke="midnightblue" points="1353.21,-136.159 1362.74,-131.526 1352.4,-129.206 1353.21,-136.159"/>
</g>
<!-- Node3 -->
<g id="node5" class="node"><title>Node3</title>
<polygon fill="white" stroke="#bfbfbf" points="0,-56.5 0,-75.5 56,-75.5 56,-56.5 0,-56.5"/>
<text text-anchor="middle" x="28" y="-63.5" font-family="Helvetica,sans-Serif" font-size="10.00">iostream</text>
</g>
<!-- Node2&#45;&gt;Node3 -->
<g id="edge4" class="edge"><title>Node2&#45;&gt;Node3</title>
<path fill="none" stroke="midnightblue" d="M381.149,-118.066C321.311,-112.298 187.88,-98.2339 66.0809,-76.0235"/>
<polygon fill="midnightblue" stroke="midnightblue" points="66.6821,-72.5755 56.2128,-74.2012 65.4109,-79.4591 66.6821,-72.5755"/>
</g>
<!-- Node4 -->
<g id="node7" class="node"><title>Node4</title>
<polygon fill="white" stroke="#bfbfbf" points="74.5,-56.5 74.5,-75.5 127.5,-75.5 127.5,-56.5 74.5,-56.5"/>
<text text-anchor="middle" x="101" y="-63.5" font-family="Helvetica,sans-Serif" font-size="10.00">sstream</text>
</g>
<!-- Node2&#45;&gt;Node4 -->
<g id="edge6" class="edge"><title>Node2&#45;&gt;Node4</title>
<path fill="none" stroke="midnightblue" d="M381.256,-116.798C331.359,-109.986 231.361,-95.5036 137.621,-76.1977"/>
<polygon fill="midnightblue" stroke="midnightblue" points="138.198,-72.7429 127.695,-74.13 136.771,-79.5958 138.198,-72.7429"/>
</g>
<!-- Node5 -->
<g id="node9" class="node"><title>Node5</title>
<polygon fill="white" stroke="#bfbfbf" points="145.5,-56.5 145.5,-75.5 204.5,-75.5 204.5,-56.5 145.5,-56.5"/>
<text text-anchor="middle" x="175" y="-63.5" font-family="Helvetica,sans-Serif" font-size="10.00">algorithm</text>
</g>
<!-- Node2&#45;&gt;Node5 -->
<g id="edge8" class="edge"><title>Node2&#45;&gt;Node5</title>
<path fill="none" stroke="midnightblue" d="M381.282,-113.873C343.92,-105.468 279.712,-90.9918 214.805,-76.1764"/>
<polygon fill="midnightblue" stroke="midnightblue" points="215.336,-72.7075 204.807,-73.8929 213.777,-79.5318 215.336,-72.7075"/>
</g>
<!-- Node6 -->
<g id="node11" class="node"><title>Node6</title>
<polygon fill="white" stroke="#bfbfbf" points="223,-56.5 223,-75.5 269,-75.5 269,-56.5 223,-56.5"/>
<text text-anchor="middle" x="246" y="-63.5" font-family="Helvetica,sans-Serif" font-size="10.00">vector</text>
</g>
<!-- Node2&#45;&gt;Node6 -->
<g id="edge10" class="edge"><title>Node2&#45;&gt;Node6</title>
<path fill="none" stroke="midnightblue" d="M386.538,-112.444C357.326,-102.998 310.272,-87.7826 278.755,-77.5916"/>
<polygon fill="midnightblue" stroke="midnightblue" points="279.703,-74.2195 269.111,-74.473 277.549,-80.88 279.703,-74.2195"/>
</g>
<!-- Node7 -->
<g id="node13" class="node"><title>Node7</title>
<polygon fill="white" stroke="#bfbfbf" points="287,-56.5 287,-75.5 337,-75.5 337,-56.5 287,-56.5"/>
<text text-anchor="middle" x="312" y="-63.5" font-family="Helvetica,sans-Serif" font-size="10.00">iterator</text>
</g>
<!-- Node2&#45;&gt;Node7 -->
<g id="edge12" class="edge"><title>Node2&#45;&gt;Node7</title>
<path fill="none" stroke="midnightblue" d="M396.773,-112.324C380.649,-103.703 355.7,-90.3643 337.036,-80.3855"/>
<polygon fill="midnightblue" stroke="midnightblue" points="338.656,-77.283 328.187,-75.6545 335.356,-83.456 338.656,-77.283"/>
</g>
<!-- Node8 -->
<g id="node15" class="node"><title>Node8</title>
<polygon fill="white" stroke="#bfbfbf" points="355.5,-56.5 355.5,-75.5 470.5,-75.5 470.5,-56.5 355.5,-56.5"/>
<text text-anchor="middle" x="413" y="-63.5" font-family="Helvetica,sans-Serif" font-size="10.00">boost/shared_ptr.hpp</text>
</g>
<!-- Node2&#45;&gt;Node8 -->
<g id="edge14" class="edge"><title>Node2&#45;&gt;Node8</title>
<path fill="none" stroke="midnightblue" d="M413,-112.083C413,-105.006 413,-94.8611 413,-85.9865"/>
<polygon fill="midnightblue" stroke="midnightblue" points="416.5,-85.751 413,-75.7511 409.5,-85.7511 416.5,-85.751"/>
</g>
<!-- Node9 -->
<g id="node17" class="node"><title>Node9</title>
<polygon fill="white" stroke="#bfbfbf" points="489,-56.5 489,-75.5 597,-75.5 597,-56.5 489,-56.5"/>
<text text-anchor="middle" x="543" y="-63.5" font-family="Helvetica,sans-Serif" font-size="10.00">boost/weak_ptr.hpp</text>
</g>
<!-- Node2&#45;&gt;Node9 -->
<g id="edge16" class="edge"><title>Node2&#45;&gt;Node9</title>
<path fill="none" stroke="midnightblue" d="M433.599,-112.444C454.993,-103.557 488.681,-89.5632 513.024,-79.4514"/>
<polygon fill="midnightblue" stroke="midnightblue" points="514.605,-82.5848 522.497,-75.5164 511.92,-76.1203 514.605,-82.5848"/>
</g>
<!-- Node10 -->
<g id="node19" class="node"><title>Node10</title>
<polygon fill="white" stroke="#bfbfbf" points="615,-56.5 615,-75.5 693,-75.5 693,-56.5 615,-56.5"/>
<text text-anchor="middle" x="654" y="-63.5" font-family="Helvetica,sans-Serif" font-size="10.00">boost/ref.hpp</text>
</g>
<!-- Node2&#45;&gt;Node10 -->
<g id="edge18" class="edge"><title>Node2&#45;&gt;Node10</title>
<path fill="none" stroke="midnightblue" d="M444.507,-113.94C485.602,-104.732 557.898,-88.5332 605.877,-77.7829"/>
<polygon fill="midnightblue" stroke="midnightblue" points="606.733,-81.1779 615.725,-75.576 605.202,-74.3472 606.733,-81.1779"/>
</g>
<!-- Node11 -->
<g id="node21" class="node"><title>Node11</title>
<polygon fill="white" stroke="#bfbfbf" points="711.5,-56.5 711.5,-75.5 762.5,-75.5 762.5,-56.5 711.5,-56.5"/>
<text text-anchor="middle" x="737" y="-63.5" font-family="Helvetica,sans-Serif" font-size="10.00">valarray</text>
</g>
<!-- Node2&#45;&gt;Node11 -->
<g id="edge20" class="edge"><title>Node2&#45;&gt;Node11</title>
<path fill="none" stroke="midnightblue" d="M444.826,-117.074C496.533,-110.474 602.151,-96.068 701.546,-75.9081"/>
<polygon fill="midnightblue" stroke="midnightblue" points="702.36,-79.314 711.453,-73.8751 700.953,-72.4569 702.36,-79.314"/>
</g>
<!-- Node12 -->
<g id="node23" class="node"><title>Node12</title>
<polygon fill="white" stroke="#bfbfbf" points="781,-56.5 781,-75.5 831,-75.5 831,-56.5 781,-56.5"/>
<text text-anchor="middle" x="806" y="-63.5" font-family="Helvetica,sans-Serif" font-size="10.00">Rcpp.h</text>
</g>
<!-- Node2&#45;&gt;Node12 -->
<g id="edge22" class="edge"><title>Node2&#45;&gt;Node12</title>
<path fill="none" stroke="midnightblue" d="M444.818,-118.364C507.585,-112.865 651.624,-98.7561 771,-76 771.1,-75.9809 771.2,-75.9617 771.301,-75.9424"/>
<polygon fill="midnightblue" stroke="midnightblue" points="771.819,-79.4114 780.851,-73.873 770.336,-72.5702 771.819,-79.4114"/>
</g>
<!-- Node14 -->
<g id="node27" class="node"><title>Node14</title>
<a xlink:href="_m_l_pfactory_8h.html" target="_top" xlink:title="MLPfactory.h">
<polygon fill="white" stroke="black" points="849.5,-56.5 849.5,-75.5 926.5,-75.5 926.5,-56.5 849.5,-56.5"/>
<text text-anchor="middle" x="888" y="-63.5" font-family="Helvetica,sans-Serif" font-size="10.00">MLPfactory.h</text>
</a>
</g>
<!-- Node13&#45;&gt;Node14 -->
<g id="edge26" class="edge"><title>Node13&#45;&gt;Node14</title>
<path fill="none" stroke="midnightblue" d="M729.789,-112.444C761.829,-103.241 812.933,-88.5617 848.353,-78.3879"/>
<polygon fill="midnightblue" stroke="midnightblue" points="849.705,-81.6412 858.35,-75.5164 847.773,-74.9132 849.705,-81.6412"/>
</g>
<!-- Node14&#45;&gt;Node15 -->
<g id="edge28" class="edge"><title>Node14&#45;&gt;Node15</title>
<path fill="none" stroke="midnightblue" d="M894.935,-56.083C900.929,-48.3768 909.752,-37.0333 917.048,-27.6531"/>
<polygon fill="midnightblue" stroke="midnightblue" points="919.817,-29.7934 923.194,-19.7511 914.291,-25.4958 919.817,-29.7934"/>
</g>
<!-- Node16&#45;&gt;Node14 -->
<g id="edge32" class="edge"><title>Node16&#45;&gt;Node14</title>
<path fill="none" stroke="midnightblue" d="M873.807,-112.083C876.085,-104.849 879.371,-94.4087 882.208,-85.3968"/>
<polygon fill="midnightblue" stroke="midnightblue" points="885.581,-86.3406 885.245,-75.7511 878.904,-84.2385 885.581,-86.3406"/>
</g>
</g>
</svg>
