<?xml version="1.0" encoding="UTF-8" standalone="no"?>
<!DOCTYPE svg PUBLIC "-//W3C//DTD SVG 1.1//EN"
 "http://www.w3.org/Graphics/SVG/1.1/DTD/svg11.dtd">
<!-- Generated by graphviz version 2.28.0 (20110610.2051)
 -->
<!-- Title: G Pages: 1 -->
<svg width="2746pt" height="140pt"
 viewBox="0.00 0.00 2746.00 140.00" xmlns="http://www.w3.org/2000/svg" xmlns:xlink="http://www.w3.org/1999/xlink">
<g id="graph1" class="graph" transform="scale(1 1) rotate(0) translate(4 136)">
<title>G</title>
<polygon fill="white" stroke="white" points="-4,5 -4,-136 2743,-136 2743,5 -4,5"/>
<!-- Node1 -->
<g id="node1" class="node"><title>Node1</title>
<polygon fill="#bfbfbf" stroke="black" points="711,-112.5 711,-131.5 1327,-131.5 1327,-112.5 711,-112.5"/>
<text text-anchor="middle" x="1019" y="-119.5" font-family="Helvetica,sans-Serif" font-size="10.00">/Users/mcasl/pc&#45;ule/Trabajo/investigacion/AMORE/AMORE&#45;WC/AMORE&#45;WC/pkg/AMORE/src/classHeaders/NetworkTrainBehavior.h</text>
</g>
<!-- Node2 -->
<g id="node3" class="node"><title>Node2</title>
<a xlink:href="_a_m_o_r_e_8h.html" target="_top" xlink:title="/Users/mcasl/pc&#45;ule/Trabajo/investigacion/AMORE/AMORE&#45;WC/AMORE&#45;WC/pkg/AMORE/src/AMORE.h">
<polygon fill="white" stroke="black" points="191,-56.5 191,-75.5 679,-75.5 679,-56.5 191,-56.5"/>
<text text-anchor="middle" x="435" y="-63.5" font-family="Helvetica,sans-Serif" font-size="10.00">/Users/mcasl/pc&#45;ule/Trabajo/investigacion/AMORE/AMORE&#45;WC/AMORE&#45;WC/pkg/AMORE/src/AMORE.h</text>
</a>
</g>
<!-- Node1&#45;&gt;Node2 -->
<g id="edge2" class="edge"><title>Node1&#45;&gt;Node2</title>
<path fill="none" stroke="midnightblue" d="M916.667,-111.538C806.609,-101.361 633.186,-85.3254 527.212,-75.5264"/>
<polygon fill="midnightblue" stroke="midnightblue" points="916.506,-115.038 926.786,-112.473 917.15,-108.067 916.506,-115.038"/>
</g>
<!-- Node3 -->
<g id="node5" class="node"><title>Node3</title>
<a xlink:href="_adapt_network_train_behavior_8h.html" target="_top" xlink:title="/Users/mcasl/pc&#45;ule/Trabajo/investigacion/AMORE/AMORE&#45;WC/AMORE&#45;WC/pkg/AMORE/src/classHeaders/AdaptNetworkTrainBehavior.h">
<polygon fill="white" stroke="black" points="697,-56.5 697,-75.5 1341,-75.5 1341,-56.5 697,-56.5"/>
<text text-anchor="middle" x="1019" y="-63.5" font-family="Helvetica,sans-Serif" font-size="10.00">/Users/mcasl/pc&#45;ule/Trabajo/investigacion/AMORE/AMORE&#45;WC/AMORE&#45;WC/pkg/AMORE/src/classHeaders/AdaptNetworkTrainBehavior.h</text>
</a>
</g>
<!-- Node1&#45;&gt;Node3 -->
<g id="edge4" class="edge"><title>Node1&#45;&gt;Node3</title>
<path fill="none" stroke="midnightblue" d="M1019,-101.805C1019,-92.9102 1019,-82.7798 1019,-75.7511"/>
<polygon fill="midnightblue" stroke="midnightblue" points="1015.5,-102.083 1019,-112.083 1022.5,-102.083 1015.5,-102.083"/>
</g>
<!-- Node6 -->
<g id="node11" class="node"><title>Node6</title>
<a xlink:href="_batch_network_train_behavior_8h.html" target="_top" xlink:title="/Users/mcasl/pc&#45;ule/Trabajo/investigacion/AMORE/AMORE&#45;WC/AMORE&#45;WC/pkg/AMORE/src/classHeaders/BatchNetworkTrainBehavior.h">
<polygon fill="white" stroke="black" points="1386.5,-56.5 1386.5,-75.5 2029.5,-75.5 2029.5,-56.5 1386.5,-56.5"/>
<text text-anchor="middle" x="1708" y="-63.5" font-family="Helvetica,sans-Serif" font-size="10.00">/Users/mcasl/pc&#45;ule/Trabajo/investigacion/AMORE/AMORE&#45;WC/AMORE&#45;WC/pkg/AMORE/src/classHeaders/BatchNetworkTrainBehavior.h</text>
</a>
</g>
<!-- Node1&#45;&gt;Node6 -->
<g id="edge10" class="edge"><title>Node1&#45;&gt;Node6</title>
<path fill="none" stroke="midnightblue" d="M1137.78,-111.69C1267.62,-101.514 1473.87,-85.3502 1599.49,-75.5042"/>
<polygon fill="midnightblue" stroke="midnightblue" points="1137.49,-108.203 1127.79,-112.473 1138.04,-115.181 1137.49,-108.203"/>
</g>
<!-- Node4 -->
<g id="node7" class="node"><title>Node4</title>
<a xlink:href="_a_d_a_p_tgd_network_train_behavior_8h.html" target="_top" xlink:title="/Users/mcasl/pc&#45;ule/Trabajo/investigacion/AMORE/AMORE&#45;WC/AMORE&#45;WC/pkg/AMORE/src/classHeaders/ADAPTgdNetworkTrainBehavior.h">
<polygon fill="white" stroke="black" points="0,-0.5 0,-19.5 662,-19.5 662,-0.5 0,-0.5"/>
<text text-anchor="middle" x="331" y="-7.5" font-family="Helvetica,sans-Serif" font-size="10.00">/Users/mcasl/pc&#45;ule/Trabajo/investigacion/AMORE/AMORE&#45;WC/AMORE&#45;WC/pkg/AMORE/src/classHeaders/ADAPTgdNetworkTrainBehavior.h</text>
</a>
</g>
<!-- Node3&#45;&gt;Node4 -->
<g id="edge6" class="edge"><title>Node3&#45;&gt;Node4</title>
<path fill="none" stroke="midnightblue" d="M900.389,-55.6904C770.739,-45.5144 564.795,-29.3502 439.349,-19.5042"/>
<polygon fill="midnightblue" stroke="midnightblue" points="900.121,-59.18 910.364,-56.4733 900.669,-52.2015 900.121,-59.18"/>
</g>
<!-- Node5 -->
<g id="node9" class="node"><title>Node5</title>
<a xlink:href="_a_d_a_p_tgdwm_network_train_behavior_8h.html" target="_top" xlink:title="/Users/mcasl/pc&#45;ule/Trabajo/investigacion/AMORE/AMORE&#45;WC/AMORE&#45;WC/pkg/AMORE/src/classHeaders/ADAPTgdwmNetworkTrainBehavior.h">
<polygon fill="white" stroke="black" points="680,-0.5 680,-19.5 1358,-19.5 1358,-0.5 680,-0.5"/>
<text text-anchor="middle" x="1019" y="-7.5" font-family="Helvetica,sans-Serif" font-size="10.00">/Users/mcasl/pc&#45;ule/Trabajo/investigacion/AMORE/AMORE&#45;WC/AMORE&#45;WC/pkg/AMORE/src/classHeaders/ADAPTgdwmNetworkTrainBehavior.h</text>
</a>
</g>
<!-- Node3&#45;&gt;Node5 -->
<g id="edge8" class="edge"><title>Node3&#45;&gt;Node5</title>
<path fill="none" stroke="midnightblue" d="M1019,-45.8045C1019,-36.9102 1019,-26.7798 1019,-19.7511"/>
<polygon fill="midnightblue" stroke="midnightblue" points="1015.5,-46.083 1019,-56.083 1022.5,-46.083 1015.5,-46.083"/>
</g>
<!-- Node7 -->
<g id="node13" class="node"><title>Node7</title>
<a xlink:href="_b_a_t_c_hgd_network_train_behavior_8h.html" target="_top" xlink:title="/Users/mcasl/pc&#45;ule/Trabajo/investigacion/AMORE/AMORE&#45;WC/AMORE&#45;WC/pkg/AMORE/src/classHeaders/BATCHgdNetworkTrainBehavior.h">
<polygon fill="white" stroke="black" points="1376.5,-0.5 1376.5,-19.5 2039.5,-19.5 2039.5,-0.5 1376.5,-0.5"/>
<text text-anchor="middle" x="1708" y="-7.5" font-family="Helvetica,sans-Serif" font-size="10.00">/Users/mcasl/pc&#45;ule/Trabajo/investigacion/AMORE/AMORE&#45;WC/AMORE&#45;WC/pkg/AMORE/src/classHeaders/BATCHgdNetworkTrainBehavior.h</text>
</a>
</g>
<!-- Node6&#45;&gt;Node7 -->
<g id="edge12" class="edge"><title>Node6&#45;&gt;Node7</title>
<path fill="none" stroke="midnightblue" d="M1708,-45.8045C1708,-36.9102 1708,-26.7798 1708,-19.7511"/>
<polygon fill="midnightblue" stroke="midnightblue" points="1704.5,-46.083 1708,-56.083 1711.5,-46.083 1704.5,-46.083"/>
</g>
<!-- Node8 -->
<g id="node15" class="node"><title>Node8</title>
<a xlink:href="_b_a_t_c_hgdwm_network_train_behavior_8h.html" target="_top" xlink:title="/Users/mcasl/pc&#45;ule/Trabajo/investigacion/AMORE/AMORE&#45;WC/AMORE&#45;WC/pkg/AMORE/src/classHeaders/BATCHgdwmNetworkTrainBehavior.h">
<polygon fill="white" stroke="black" points="2058,-0.5 2058,-19.5 2738,-19.5 2738,-0.5 2058,-0.5"/>
<text text-anchor="middle" x="2398" y="-7.5" font-family="Helvetica,sans-Serif" font-size="10.00">/Users/mcasl/pc&#45;ule/Trabajo/investigacion/AMORE/AMORE&#45;WC/AMORE&#45;WC/pkg/AMORE/src/classHeaders/BATCHgdwmNetworkTrainBehavior.h</text>
</a>
</g>
<!-- Node6&#45;&gt;Node8 -->
<g id="edge14" class="edge"><title>Node6&#45;&gt;Node8</title>
<path fill="none" stroke="midnightblue" d="M1826.96,-55.6904C1956.98,-45.5144 2163.53,-29.3502 2289.34,-19.5042"/>
<polygon fill="midnightblue" stroke="midnightblue" points="1826.65,-52.2037 1816.95,-56.4733 1827.19,-59.1824 1826.65,-52.2037"/>
</g>
</g>
</svg>
