<?xml version="1.0" encoding="UTF-8" standalone="no"?>
<!DOCTYPE svg PUBLIC "-//W3C//DTD SVG 1.1//EN"
 "http://www.w3.org/Graphics/SVG/1.1/DTD/svg11.dtd">
<!-- Generated by graphviz version 2.28.0 (20110610.2051)
 -->
<!-- Title: G Pages: 1 -->
<svg width="317pt" height="196pt"
 viewBox="0.00 0.00 317.50 196.00" xmlns="http://www.w3.org/2000/svg" xmlns:xlink="http://www.w3.org/1999/xlink">
<g id="graph1" class="graph" transform="scale(1 1) rotate(0) translate(4 192)">
<title>G</title>
<polygon fill="white" stroke="white" points="-4,5 -4,-192 314.498,-192 314.498,5 -4,5"/>
<!-- Node1 -->
<g id="node1" class="node"><title>Node1</title>
<polygon fill="#bfbfbf" stroke="black" points="32.9984,-168.5 32.9984,-187.5 211.998,-187.5 211.998,-168.5 32.9984,-168.5"/>
<text text-anchor="middle" x="122.498" y="-175.5" font-family="Helvetica,sans-Serif" font-size="10.00">pkg/AMORE/src/dia/NeuralCreator.h</text>
</g>
<!-- Node2 -->
<g id="node3" class="node"><title>Node2</title>
<a xlink:href="_a_m_o_r_e_8h.html" target="_top" xlink:title="pkg/AMORE/src/AMORE.h">
<polygon fill="white" stroke="black" points="5.99841,-0.5 5.99841,-19.5 142.998,-19.5 142.998,-0.5 5.99841,-0.5"/>
<text text-anchor="middle" x="74.4984" y="-7.5" font-family="Helvetica,sans-Serif" font-size="10.00">pkg/AMORE/src/AMORE.h</text>
</a>
</g>
<!-- Node1&#45;&gt;Node2 -->
<g id="edge2" class="edge"><title>Node1&#45;&gt;Node2</title>
<path fill="none" stroke="midnightblue" d="M55.0515,-165.309C36.5851,-158.678 18.6139,-148.286 7.49841,-132 -19.8457,-91.9371 37.6781,-39.7615 63.1627,-19.5325"/>
<polygon fill="midnightblue" stroke="midnightblue" points="54.1276,-168.689 64.7197,-168.445 56.2876,-162.031 54.1276,-168.689"/>
</g>
<!-- Node3 -->
<g id="node5" class="node"><title>Node3</title>
<a xlink:href="_simple_neural_creator_8h.html" target="_top" xlink:title="pkg/AMORE/src/dia/SimpleNeuralCreator.h">
<polygon fill="white" stroke="black" points="16.9984,-112.5 16.9984,-131.5 227.998,-131.5 227.998,-112.5 16.9984,-112.5"/>
<text text-anchor="middle" x="122.498" y="-119.5" font-family="Helvetica,sans-Serif" font-size="10.00">pkg/AMORE/src/dia/SimpleNeuralCreator.h</text>
</a>
</g>
<!-- Node1&#45;&gt;Node3 -->
<g id="edge4" class="edge"><title>Node1&#45;&gt;Node3</title>
<path fill="none" stroke="midnightblue" d="M122.498,-157.805C122.498,-148.91 122.498,-138.78 122.498,-131.751"/>
<polygon fill="midnightblue" stroke="midnightblue" points="118.999,-158.083 122.498,-168.083 125.999,-158.083 118.999,-158.083"/>
</g>
<!-- Node4 -->
<g id="node8" class="node"><title>Node4</title>
<a xlink:href="_simple_neural_creator_8cpp.html" target="_top" xlink:title="pkg/AMORE/src/SimpleNeuralCreator.cpp">
<polygon fill="white" stroke="black" points="102.998,-56.5 102.998,-75.5 309.998,-75.5 309.998,-56.5 102.998,-56.5"/>
<text text-anchor="middle" x="206.498" y="-63.5" font-family="Helvetica,sans-Serif" font-size="10.00">pkg/AMORE/src/SimpleNeuralCreator.cpp</text>
</a>
</g>
<!-- Node1&#45;&gt;Node4 -->
<g id="edge12" class="edge"><title>Node1&#45;&gt;Node4</title>
<path fill="none" stroke="midnightblue" d="M188.864,-165.362C207.349,-158.733 225.389,-148.329 236.498,-132 249.083,-113.503 229.139,-88.8826 216.188,-75.8942"/>
<polygon fill="midnightblue" stroke="midnightblue" points="187.626,-162.083 179.192,-168.495 189.784,-168.743 187.626,-162.083"/>
</g>
<!-- Node3&#45;&gt;Node2 -->
<g id="edge6" class="edge"><title>Node3&#45;&gt;Node2</title>
<path fill="none" stroke="midnightblue" d="M110.02,-104.197C104.379,-96.0097 97.987,-85.8281 93.4984,-76 84.7067,-56.7501 78.885,-32.4354 76.2033,-19.6951"/>
<polygon fill="midnightblue" stroke="midnightblue" points="107.268,-106.366 115.929,-112.468 112.964,-102.297 107.268,-106.366"/>
</g>
<!-- Node3&#45;&gt;Node4 -->
<g id="edge8" class="edge"><title>Node3&#45;&gt;Node4</title>
<path fill="none" stroke="midnightblue" d="M144.431,-106.901C159.834,-96.9986 179.944,-84.0705 193.036,-75.6545"/>
<polygon fill="midnightblue" stroke="midnightblue" points="142.514,-103.972 135.994,-112.324 146.299,-109.86 142.514,-103.972"/>
</g>
<!-- Node4&#45;&gt;Node2 -->
<g id="edge10" class="edge"><title>Node4&#45;&gt;Node2</title>
<path fill="none" stroke="midnightblue" d="M176.28,-52.6377C151.508,-42.504 117.099,-28.4274 95.3163,-19.5164"/>
<polygon fill="midnightblue" stroke="midnightblue" points="175.002,-55.8966 185.583,-56.4435 177.652,-49.4177 175.002,-55.8966"/>
</g>
</g>
</svg>
