<?xml version="1.0" encoding="UTF-8" standalone="no"?>
<!DOCTYPE svg PUBLIC "-//W3C//DTD SVG 1.1//EN"
 "http://www.w3.org/Graphics/SVG/1.1/DTD/svg11.dtd">
<!-- Generated by graphviz version 2.28.0 (20110610.2051)
 -->
<!-- Title: G Pages: 1 -->
<svg width="370pt" height="196pt"
 viewBox="0.00 0.00 370.00 196.00" xmlns="http://www.w3.org/2000/svg" xmlns:xlink="http://www.w3.org/1999/xlink">
<g id="graph1" class="graph" transform="scale(1 1) rotate(0) translate(4 192)">
<title>G</title>
<polygon fill="white" stroke="white" points="-4,5 -4,-192 367,-192 367,5 -4,5"/>
<!-- Node1 -->
<g id="node1" class="node"><title>Node1</title>
<polygon fill="#bfbfbf" stroke="black" points="34,-168.5 34,-187.5 182,-187.5 182,-168.5 34,-168.5"/>
<text text-anchor="middle" x="108" y="-175.5" font-family="Helvetica,sans-Serif" font-size="10.00">pkg/AMORE/src/dia/Neuron.h</text>
</g>
<!-- Node2 -->
<g id="node3" class="node"><title>Node2</title>
<a xlink:href="_a_m_o_r_e_8h.html" target="_top" xlink:title="pkg/AMORE/src/AMORE.h">
<polygon fill="white" stroke="black" points="-0.5,-0.5 -0.5,-19.5 136.5,-19.5 136.5,-0.5 -0.5,-0.5"/>
<text text-anchor="middle" x="68" y="-7.5" font-family="Helvetica,sans-Serif" font-size="10.00">pkg/AMORE/src/AMORE.h</text>
</a>
</g>
<!-- Node1&#45;&gt;Node2 -->
<g id="edge2" class="edge"><title>Node1&#45;&gt;Node2</title>
<path fill="none" stroke="midnightblue" d="M54.3343,-165.084C36.851,-158.383 19.3059,-148.005 9,-132 -1.56517,-115.592 10.9743,-75.608 22,-56 30.4327,-41.0035 45.3662,-27.7651 55.9276,-19.5966"/>
<polygon fill="midnightblue" stroke="midnightblue" points="53.3996,-168.465 63.9944,-168.441 55.6973,-161.853 53.3996,-168.465"/>
</g>
<!-- Node3 -->
<g id="node5" class="node"><title>Node3</title>
<a xlink:href="_simple_neuron_8h.html" target="_top" xlink:title="pkg/AMORE/src/dia/SimpleNeuron.h">
<polygon fill="white" stroke="black" points="18,-112.5 18,-131.5 198,-131.5 198,-112.5 18,-112.5"/>
<text text-anchor="middle" x="108" y="-119.5" font-family="Helvetica,sans-Serif" font-size="10.00">pkg/AMORE/src/dia/SimpleNeuron.h</text>
</a>
</g>
<!-- Node1&#45;&gt;Node3 -->
<g id="edge4" class="edge"><title>Node1&#45;&gt;Node3</title>
<path fill="none" stroke="midnightblue" d="M108,-157.805C108,-148.91 108,-138.78 108,-131.751"/>
<polygon fill="midnightblue" stroke="midnightblue" points="104.5,-158.083 108,-168.083 111.5,-158.083 104.5,-158.083"/>
</g>
<!-- Node5 -->
<g id="node11" class="node"><title>Node5</title>
<a xlink:href="_con_8cpp.html" target="_top" xlink:title="pkg/AMORE/src/Con.cpp">
<polygon fill="white" stroke="black" points="232,-56.5 232,-75.5 362,-75.5 362,-56.5 232,-56.5"/>
<text text-anchor="middle" x="297" y="-63.5" font-family="Helvetica,sans-Serif" font-size="10.00">pkg/AMORE/src/Con.cpp</text>
</a>
</g>
<!-- Node1&#45;&gt;Node5 -->
<g id="edge12" class="edge"><title>Node1&#45;&gt;Node5</title>
<path fill="none" stroke="midnightblue" d="M139.743,-164.474C159.568,-156.191 185.351,-144.57 207,-132 237.502,-114.289 270.386,-88.6843 286.66,-75.5215"/>
<polygon fill="midnightblue" stroke="midnightblue" points="138.171,-161.336 130.253,-168.375 140.832,-167.81 138.171,-161.336"/>
</g>
<!-- Node3&#45;&gt;Node2 -->
<g id="edge6" class="edge"><title>Node3&#45;&gt;Node2</title>
<path fill="none" stroke="midnightblue" d="M68.7948,-108.46C53.5783,-101.457 37.7362,-91.0304 29,-76 17.1624,-55.6337 40.9463,-31.9694 56.3248,-19.5765"/>
<polygon fill="midnightblue" stroke="midnightblue" points="67.5448,-111.731 78.1193,-112.387 70.2623,-105.28 67.5448,-111.731"/>
</g>
<!-- Node4 -->
<g id="node8" class="node"><title>Node4</title>
<a xlink:href="_simple_neuron_8cpp.html" target="_top" xlink:title="pkg/AMORE/src/SimpleNeuron.cpp">
<polygon fill="white" stroke="black" points="38,-56.5 38,-75.5 214,-75.5 214,-56.5 38,-56.5"/>
<text text-anchor="middle" x="126" y="-63.5" font-family="Helvetica,sans-Serif" font-size="10.00">pkg/AMORE/src/SimpleNeuron.cpp</text>
</a>
</g>
<!-- Node3&#45;&gt;Node4 -->
<g id="edge8" class="edge"><title>Node3&#45;&gt;Node4</title>
<path fill="none" stroke="midnightblue" d="M114.201,-102.396C117.213,-93.362 120.688,-82.936 123.083,-75.7511"/>
<polygon fill="midnightblue" stroke="midnightblue" points="110.814,-101.489 110.972,-112.083 117.455,-103.703 110.814,-101.489"/>
</g>
<!-- Node4&#45;&gt;Node2 -->
<g id="edge10" class="edge"><title>Node4&#45;&gt;Node2</title>
<path fill="none" stroke="midnightblue" d="M109.087,-49.2533C98.797,-39.6731 86.0343,-27.7906 77.4883,-19.8339"/>
<polygon fill="midnightblue" stroke="midnightblue" points="106.977,-52.0714 116.681,-56.324 111.747,-46.9481 106.977,-52.0714"/>
</g>
<!-- Node5&#45;&gt;Node2 -->
<g id="edge14" class="edge"><title>Node5&#45;&gt;Node2</title>
<path fill="none" stroke="midnightblue" d="M250.727,-54.0884C207.463,-43.8865 143.745,-28.8612 104.116,-19.5164"/>
<polygon fill="midnightblue" stroke="midnightblue" points="250.178,-57.5549 260.714,-56.4435 251.785,-50.7418 250.178,-57.5549"/>
</g>
</g>
</svg>
