<?xml version="1.0" encoding="UTF-8" standalone="no"?>
<!DOCTYPE svg PUBLIC "-//W3C//DTD SVG 1.1//EN"
 "http://www.w3.org/Graphics/SVG/1.1/DTD/svg11.dtd">
<!-- Generated by graphviz version 2.28.0 (20110610.2051)
 -->
<!-- Title: G Pages: 1 -->
<svg width="3028pt" height="252pt"
 viewBox="0.00 0.00 3028.33 252.00" xmlns="http://www.w3.org/2000/svg" xmlns:xlink="http://www.w3.org/1999/xlink">
<g id="graph1" class="graph" transform="scale(1 1) rotate(0) translate(4 248)">
<title>G</title>
<polygon fill="white" stroke="white" points="-4,5 -4,-248 3025.33,-248 3025.33,5 -4,5"/>
<!-- Node1 -->
<g id="node1" class="node"><title>Node1</title>
<polygon fill="#bfbfbf" stroke="black" points="1847.83,-224.5 1847.83,-243.5 2026.83,-243.5 2026.83,-224.5 1847.83,-224.5"/>
<text text-anchor="middle" x="1937.33" y="-231.5" font-family="Helvetica,sans-Serif" font-size="10.00">pkg/AMORE/src/dia/NeuralFactory.h</text>
</g>
<!-- Node2 -->
<g id="node3" class="node"><title>Node2</title>
<a xlink:href="_a_m_o_r_e_8h.html" target="_top" xlink:title="pkg/AMORE/src/AMORE.h">
<polygon fill="white" stroke="black" points="668.827,-0.5 668.827,-19.5 805.827,-19.5 805.827,-0.5 668.827,-0.5"/>
<text text-anchor="middle" x="737.327" y="-7.5" font-family="Helvetica,sans-Serif" font-size="10.00">pkg/AMORE/src/AMORE.h</text>
</a>
</g>
<!-- Node1&#45;&gt;Node2 -->
<g id="edge2" class="edge"><title>Node1&#45;&gt;Node2</title>
<path fill="none" stroke="midnightblue" d="M1837.69,-231.588C1451.66,-225.635 72.8557,-199.685 10.3267,-132 -81.1649,-32.964 470.691,-14.9842 668.639,-11.7222"/>
<polygon fill="midnightblue" stroke="midnightblue" points="1837.67,-235.088 1847.72,-231.742 1837.78,-228.089 1837.67,-235.088"/>
</g>
<!-- Node3 -->
<g id="node5" class="node"><title>Node3</title>
<a xlink:href="_m_l_pfactory_8h.html" target="_top" xlink:title="pkg/AMORE/src/dia/MLPfactory.h">
<polygon fill="white" stroke="black" points="1282.83,-168.5 1282.83,-187.5 1449.83,-187.5 1449.83,-168.5 1282.83,-168.5"/>
<text text-anchor="middle" x="1366.33" y="-175.5" font-family="Helvetica,sans-Serif" font-size="10.00">pkg/AMORE/src/dia/MLPfactory.h</text>
</a>
</g>
<!-- Node1&#45;&gt;Node3 -->
<g id="edge4" class="edge"><title>Node1&#45;&gt;Node3</title>
<path fill="none" stroke="midnightblue" d="M1837.7,-223.579C1727.91,-213.195 1553.23,-196.676 1450.17,-186.93"/>
<polygon fill="midnightblue" stroke="midnightblue" points="1837.51,-227.076 1847.79,-224.533 1838.17,-220.107 1837.51,-227.076"/>
</g>
<!-- Node5 -->
<g id="node11" class="node"><title>Node5</title>
<a xlink:href="_tanh_factory_8cpp.html" target="_top" xlink:title="pkg/AMORE/src/TanhFactory.cpp">
<polygon fill="white" stroke="black" points="766.827,-56.5 766.827,-75.5 933.827,-75.5 933.827,-56.5 766.827,-56.5"/>
<text text-anchor="middle" x="850.327" y="-63.5" font-family="Helvetica,sans-Serif" font-size="10.00">pkg/AMORE/src/TanhFactory.cpp</text>
</a>
</g>
<!-- Node1&#45;&gt;Node5 -->
<g id="edge54" class="edge"><title>Node1&#45;&gt;Node5</title>
<path fill="none" stroke="midnightblue" d="M2037.02,-226.703C2213.4,-213.75 2556,-179.501 2490.33,-112 2462.94,-83.8499 1264.68,-70.7975 934.049,-67.7278"/>
<polygon fill="midnightblue" stroke="midnightblue" points="2036.66,-223.22 2026.94,-227.433 2037.17,-230.201 2036.66,-223.22"/>
</g>
<!-- Node7 -->
<g id="node17" class="node"><title>Node7</title>
<a xlink:href="_identity_factory_8cpp.html" target="_top" xlink:title="pkg/AMORE/src/IdentityFactory.cpp">
<polygon fill="white" stroke="black" points="2599.83,-56.5 2599.83,-75.5 2780.83,-75.5 2780.83,-56.5 2599.83,-56.5"/>
<text text-anchor="middle" x="2690.33" y="-63.5" font-family="Helvetica,sans-Serif" font-size="10.00">pkg/AMORE/src/IdentityFactory.cpp</text>
</a>
</g>
<!-- Node1&#45;&gt;Node7 -->
<g id="edge56" class="edge"><title>Node1&#45;&gt;Node7</title>
<path fill="none" stroke="midnightblue" d="M2037.36,-228.282C2244.58,-217.428 2705.12,-187.276 2748.33,-132 2764.91,-110.789 2730.39,-87.65 2707.82,-75.5184"/>
<polygon fill="midnightblue" stroke="midnightblue" points="2036.89,-224.802 2027.09,-228.815 2037.26,-231.792 2036.89,-224.802"/>
</g>
<!-- Node8 -->
<g id="node20" class="node"><title>Node8</title>
<a xlink:href="_m_l_pfactory_8cpp.html" target="_top" xlink:title="pkg/AMORE/src/MLPfactory.cpp">
<polygon fill="white" stroke="black" points="19.3267,-112.5 19.3267,-131.5 183.327,-131.5 183.327,-112.5 19.3267,-112.5"/>
<text text-anchor="middle" x="101.327" y="-119.5" font-family="Helvetica,sans-Serif" font-size="10.00">pkg/AMORE/src/MLPfactory.cpp</text>
</a>
</g>
<!-- Node1&#45;&gt;Node8 -->
<g id="edge52" class="edge"><title>Node1&#45;&gt;Node8</title>
<path fill="none" stroke="midnightblue" d="M1837.74,-228.66C1570.92,-216.723 817.71,-181.004 192.327,-132 189.478,-131.777 186.58,-131.54 183.653,-131.294"/>
<polygon fill="midnightblue" stroke="midnightblue" points="1837.65,-232.159 1847.8,-229.109 1837.96,-225.166 1837.65,-232.159"/>
</g>
<!-- Node19 -->
<g id="node48" class="node"><title>Node19</title>
<a xlink:href="_r_b_ffactory_8h.html" target="_top" xlink:title="pkg/AMORE/src/dia/RBFfactory.h">
<polygon fill="white" stroke="black" points="2826.83,-168.5 2826.83,-187.5 2993.83,-187.5 2993.83,-168.5 2826.83,-168.5"/>
<text text-anchor="middle" x="2910.33" y="-175.5" font-family="Helvetica,sans-Serif" font-size="10.00">pkg/AMORE/src/dia/RBFfactory.h</text>
</a>
</g>
<!-- Node1&#45;&gt;Node19 -->
<g id="edge58" class="edge"><title>Node1&#45;&gt;Node19</title>
<path fill="none" stroke="midnightblue" d="M2037.21,-228.849C2198.46,-221.915 2526.09,-206.857 2803.33,-188 2810.95,-187.481 2818.88,-186.898 2826.82,-186.284"/>
<polygon fill="midnightblue" stroke="midnightblue" points="2036.67,-225.369 2026.83,-229.294 2036.97,-232.363 2036.67,-225.369"/>
</g>
<!-- Node3&#45;&gt;Node2 -->
<g id="edge6" class="edge"><title>Node3&#45;&gt;Node2</title>
<path fill="none" stroke="midnightblue" d="M1272.71,-174.551C1081.79,-169.097 663.588,-154.624 642.327,-132 605.38,-92.6861 685.889,-40.0775 721.497,-19.6325"/>
<polygon fill="midnightblue" stroke="midnightblue" points="1272.64,-178.05 1282.74,-174.835 1272.84,-171.053 1272.64,-178.05"/>
</g>
<!-- Node4 -->
<g id="node8" class="node"><title>Node4</title>
<a xlink:href="_tanh_factory_8h.html" target="_top" xlink:title="pkg/AMORE/src/dia/TanhFactory.h">
<polygon fill="white" stroke="black" points="651.827,-112.5 651.827,-131.5 822.827,-131.5 822.827,-112.5 651.827,-112.5"/>
<text text-anchor="middle" x="737.327" y="-119.5" font-family="Helvetica,sans-Serif" font-size="10.00">pkg/AMORE/src/dia/TanhFactory.h</text>
</a>
</g>
<!-- Node3&#45;&gt;Node4 -->
<g id="edge8" class="edge"><title>Node3&#45;&gt;Node4</title>
<path fill="none" stroke="midnightblue" d="M1272.47,-169.156C1166.71,-160.284 989.656,-145.334 837.327,-132 832.638,-131.59 827.826,-131.166 822.969,-130.736"/>
<polygon fill="midnightblue" stroke="midnightblue" points="1272.23,-172.647 1282.48,-169.995 1272.81,-165.672 1272.23,-172.647"/>
</g>
<!-- Node3&#45;&gt;Node5 -->
<g id="edge28" class="edge"><title>Node3&#45;&gt;Node5</title>
<path fill="none" stroke="midnightblue" d="M1272.27,-174.055C1137.12,-168.989 900.782,-156.698 870.327,-132 853.27,-118.168 850.441,-90.1223 850.169,-75.8193"/>
<polygon fill="midnightblue" stroke="midnightblue" points="1272.5,-177.566 1282.63,-174.436 1272.76,-170.571 1272.5,-177.566"/>
</g>
<!-- Node6 -->
<g id="node14" class="node"><title>Node6</title>
<a xlink:href="_identity_factory_8h.html" target="_top" xlink:title="pkg/AMORE/src/dia/IdentityFactory.h">
<polygon fill="white" stroke="black" points="2537.83,-112.5 2537.83,-131.5 2722.83,-131.5 2722.83,-112.5 2537.83,-112.5"/>
<text text-anchor="middle" x="2630.33" y="-119.5" font-family="Helvetica,sans-Serif" font-size="10.00">pkg/AMORE/src/dia/IdentityFactory.h</text>
</a>
</g>
<!-- Node3&#45;&gt;Node6 -->
<g id="edge16" class="edge"><title>Node3&#45;&gt;Node6</title>
<path fill="none" stroke="midnightblue" d="M1460,-174.016C1652.88,-167.702 2108.32,-151.923 2490.33,-132 2505.65,-131.201 2521.91,-130.25 2537.72,-129.27"/>
<polygon fill="midnightblue" stroke="midnightblue" points="1459.78,-170.521 1449.9,-174.346 1460.01,-177.517 1459.78,-170.521"/>
</g>
<!-- Node3&#45;&gt;Node7 -->
<g id="edge30" class="edge"><title>Node3&#45;&gt;Node7</title>
<path fill="none" stroke="midnightblue" d="M1459.86,-177.441C1760.81,-178.404 2687.17,-177.636 2731.33,-132 2748.3,-114.453 2720.06,-88.7777 2702.57,-75.5615"/>
<polygon fill="midnightblue" stroke="midnightblue" points="1459.86,-173.941 1449.85,-177.408 1459.84,-180.941 1459.86,-173.941"/>
</g>
<!-- Node3&#45;&gt;Node8 -->
<g id="edge24" class="edge"><title>Node3&#45;&gt;Node8</title>
<path fill="none" stroke="midnightblue" d="M1272.47,-175.322C1073.28,-171.339 593.605,-159.509 192.327,-132 189.476,-131.805 186.576,-131.592 183.648,-131.366"/>
<polygon fill="midnightblue" stroke="midnightblue" points="1272.54,-178.824 1282.6,-175.523 1272.68,-171.825 1272.54,-178.824"/>
</g>
<!-- Node9 -->
<g id="node25" class="node"><title>Node9</title>
<a xlink:href="_arc_tan_factory_8h.html" target="_top" xlink:title="pkg/AMORE/src/dia/ArcTanFactory.h">
<polygon fill="white" stroke="black" points="879.827,-112.5 879.827,-131.5 1060.83,-131.5 1060.83,-112.5 879.827,-112.5"/>
<text text-anchor="middle" x="970.327" y="-119.5" font-family="Helvetica,sans-Serif" font-size="10.00">pkg/AMORE/src/dia/ArcTanFactory.h</text>
</a>
</g>
<!-- Node3&#45;&gt;Node9 -->
<g id="edge32" class="edge"><title>Node3&#45;&gt;Node9</title>
<path fill="none" stroke="midnightblue" d="M1293.3,-167.042C1218.51,-156.843 1103.48,-141.157 1032.78,-131.516"/>
<polygon fill="midnightblue" stroke="midnightblue" points="1293.2,-170.56 1303.58,-168.444 1294.14,-163.624 1293.2,-170.56"/>
</g>
<!-- Node10 -->
<g id="node27" class="node"><title>Node10</title>
<a xlink:href="_cosine_factory_8h.html" target="_top" xlink:title="pkg/AMORE/src/dia/CosineFactory.h">
<polygon fill="white" stroke="black" points="1079.33,-112.5 1079.33,-131.5 1261.33,-131.5 1261.33,-112.5 1079.33,-112.5"/>
<text text-anchor="middle" x="1170.33" y="-119.5" font-family="Helvetica,sans-Serif" font-size="10.00">pkg/AMORE/src/dia/CosineFactory.h</text>
</a>
</g>
<!-- Node3&#45;&gt;Node10 -->
<g id="edge34" class="edge"><title>Node3&#45;&gt;Node10</title>
<path fill="none" stroke="midnightblue" d="M1325.31,-165.699C1288.32,-155.507 1234.73,-140.743 1201.24,-131.516"/>
<polygon fill="midnightblue" stroke="midnightblue" points="1324.7,-169.162 1335.27,-168.444 1326.56,-162.413 1324.7,-169.162"/>
</g>
<!-- Node11 -->
<g id="node29" class="node"><title>Node11</title>
<a xlink:href="_elliot_factory_8h.html" target="_top" xlink:title="pkg/AMORE/src/dia/ElliotFactory.h">
<polygon fill="white" stroke="black" points="1279.83,-112.5 1279.83,-131.5 1452.83,-131.5 1452.83,-112.5 1279.83,-112.5"/>
<text text-anchor="middle" x="1366.33" y="-119.5" font-family="Helvetica,sans-Serif" font-size="10.00">pkg/AMORE/src/dia/ElliotFactory.h</text>
</a>
</g>
<!-- Node3&#45;&gt;Node11 -->
<g id="edge36" class="edge"><title>Node3&#45;&gt;Node11</title>
<path fill="none" stroke="midnightblue" d="M1366.33,-157.805C1366.33,-148.91 1366.33,-138.78 1366.33,-131.751"/>
<polygon fill="midnightblue" stroke="midnightblue" points="1362.83,-158.083 1366.33,-168.083 1369.83,-158.083 1362.83,-158.083"/>
</g>
<!-- Node12 -->
<g id="node31" class="node"><title>Node12</title>
<a xlink:href="_exponential_factory_8h.html" target="_top" xlink:title="pkg/AMORE/src/dia/ExponentialFactory.h">
<polygon fill="white" stroke="black" points="1471.33,-112.5 1471.33,-131.5 1675.33,-131.5 1675.33,-112.5 1471.33,-112.5"/>
<text text-anchor="middle" x="1573.33" y="-119.5" font-family="Helvetica,sans-Serif" font-size="10.00">pkg/AMORE/src/dia/ExponentialFactory.h</text>
</a>
</g>
<!-- Node3&#45;&gt;Node12 -->
<g id="edge38" class="edge"><title>Node3&#45;&gt;Node12</title>
<path fill="none" stroke="midnightblue" d="M1409.15,-165.829C1448.23,-155.633 1505.16,-140.782 1540.68,-131.516"/>
<polygon fill="midnightblue" stroke="midnightblue" points="1407.92,-162.533 1399.13,-168.444 1409.69,-169.306 1407.92,-162.533"/>
</g>
<!-- Node13 -->
<g id="node33" class="node"><title>Node13</title>
<a xlink:href="_gauss_factory_8h.html" target="_top" xlink:title="pkg/AMORE/src/dia/GaussFactory.h">
<polygon fill="white" stroke="black" points="1693.83,-112.5 1693.83,-131.5 1872.83,-131.5 1872.83,-112.5 1693.83,-112.5"/>
<text text-anchor="middle" x="1783.33" y="-119.5" font-family="Helvetica,sans-Serif" font-size="10.00">pkg/AMORE/src/dia/GaussFactory.h</text>
</a>
</g>
<!-- Node3&#45;&gt;Node13 -->
<g id="edge40" class="edge"><title>Node3&#45;&gt;Node13</title>
<path fill="none" stroke="midnightblue" d="M1442.74,-167.105C1521.49,-156.907 1642.96,-141.177 1717.56,-131.516"/>
<polygon fill="midnightblue" stroke="midnightblue" points="1441.87,-163.688 1432.4,-168.444 1442.77,-170.63 1441.87,-163.688"/>
</g>
<!-- Node14 -->
<g id="node35" class="node"><title>Node14</title>
<a xlink:href="_logistic_factory_8h.html" target="_top" xlink:title="pkg/AMORE/src/dia/LogisticFactory.h">
<polygon fill="white" stroke="black" points="1891.33,-112.5 1891.33,-131.5 2077.33,-131.5 2077.33,-112.5 1891.33,-112.5"/>
<text text-anchor="middle" x="1984.33" y="-119.5" font-family="Helvetica,sans-Serif" font-size="10.00">pkg/AMORE/src/dia/LogisticFactory.h</text>
</a>
</g>
<!-- Node3&#45;&gt;Node14 -->
<g id="edge42" class="edge"><title>Node3&#45;&gt;Node14</title>
<path fill="none" stroke="midnightblue" d="M1459.98,-168.817C1576.61,-158.626 1774.64,-141.322 1891.07,-131.148"/>
<polygon fill="midnightblue" stroke="midnightblue" points="1459.65,-165.332 1449.99,-169.689 1460.26,-172.305 1459.65,-165.332"/>
</g>
<!-- Node15 -->
<g id="node37" class="node"><title>Node15</title>
<a xlink:href="_reciprocal_factory_8h.html" target="_top" xlink:title="pkg/AMORE/src/dia/ReciprocalFactory.h">
<polygon fill="white" stroke="black" points="2095.33,-112.5 2095.33,-131.5 2293.33,-131.5 2293.33,-112.5 2095.33,-112.5"/>
<text text-anchor="middle" x="2194.33" y="-119.5" font-family="Helvetica,sans-Serif" font-size="10.00">pkg/AMORE/src/dia/ReciprocalFactory.h</text>
</a>
</g>
<!-- Node3&#45;&gt;Node15 -->
<g id="edge44" class="edge"><title>Node3&#45;&gt;Node15</title>
<path fill="none" stroke="midnightblue" d="M1460.14,-171.759C1597.6,-163.938 1861.79,-148.37 2086.33,-132 2089.24,-131.788 2092.19,-131.569 2095.17,-131.344"/>
<polygon fill="midnightblue" stroke="midnightblue" points="1459.85,-168.27 1450.06,-172.331 1460.24,-175.258 1459.85,-168.27"/>
</g>
<!-- Node16 -->
<g id="node39" class="node"><title>Node16</title>
<a xlink:href="_sine_factory_8h.html" target="_top" xlink:title="pkg/AMORE/src/dia/SineFactory.h">
<polygon fill="white" stroke="black" points="2311.33,-112.5 2311.33,-131.5 2481.33,-131.5 2481.33,-112.5 2311.33,-112.5"/>
<text text-anchor="middle" x="2396.33" y="-119.5" font-family="Helvetica,sans-Serif" font-size="10.00">pkg/AMORE/src/dia/SineFactory.h</text>
</a>
</g>
<!-- Node3&#45;&gt;Node16 -->
<g id="edge46" class="edge"><title>Node3&#45;&gt;Node16</title>
<path fill="none" stroke="midnightblue" d="M1460.08,-173.965C1628.73,-168.176 1994.42,-154.129 2302.33,-132 2305.27,-131.788 2308.26,-131.562 2311.29,-131.324"/>
<polygon fill="midnightblue" stroke="midnightblue" points="1459.87,-170.47 1449.99,-174.309 1460.11,-177.466 1459.87,-170.47"/>
</g>
<!-- Node17 -->
<g id="node41" class="node"><title>Node17</title>
<a xlink:href="_square_factory_8h.html" target="_top" xlink:title="pkg/AMORE/src/dia/SquareFactory.h">
<polygon fill="white" stroke="black" points="201.327,-112.5 201.327,-131.5 383.327,-131.5 383.327,-112.5 201.327,-112.5"/>
<text text-anchor="middle" x="292.327" y="-119.5" font-family="Helvetica,sans-Serif" font-size="10.00">pkg/AMORE/src/dia/SquareFactory.h</text>
</a>
</g>
<!-- Node3&#45;&gt;Node17 -->
<g id="edge48" class="edge"><title>Node3&#45;&gt;Node17</title>
<path fill="none" stroke="midnightblue" d="M1272.41,-174.023C1098.59,-168.21 715.017,-153.965 392.327,-132 389.37,-131.799 386.365,-131.585 383.332,-131.36"/>
<polygon fill="midnightblue" stroke="midnightblue" points="1272.44,-177.526 1282.55,-174.36 1272.67,-170.529 1272.44,-177.526"/>
</g>
<!-- Node18 -->
<g id="node43" class="node"><title>Node18</title>
<a xlink:href="_threshold_factory_8h.html" target="_top" xlink:title="pkg/AMORE/src/dia/ThresholdFactory.h">
<polygon fill="white" stroke="black" points="401.327,-112.5 401.327,-131.5 595.327,-131.5 595.327,-112.5 401.327,-112.5"/>
<text text-anchor="middle" x="498.327" y="-119.5" font-family="Helvetica,sans-Serif" font-size="10.00">pkg/AMORE/src/dia/ThresholdFactory.h</text>
</a>
</g>
<!-- Node3&#45;&gt;Node18 -->
<g id="edge50" class="edge"><title>Node3&#45;&gt;Node18</title>
<path fill="none" stroke="midnightblue" d="M1272.49,-172.073C1129.39,-164.412 848.039,-148.771 609.327,-132 604.794,-131.682 600.159,-131.346 595.477,-130.998"/>
<polygon fill="midnightblue" stroke="midnightblue" points="1272.38,-175.572 1282.56,-172.611 1272.76,-168.582 1272.38,-175.572"/>
</g>
<!-- Node4&#45;&gt;Node2 -->
<g id="edge10" class="edge"><title>Node4&#45;&gt;Node2</title>
<path fill="none" stroke="midnightblue" d="M737.327,-102.348C737.327,-78.2538 737.327,-37.3079 737.327,-19.5914"/>
<polygon fill="midnightblue" stroke="midnightblue" points="733.827,-102.368 737.327,-112.368 740.827,-102.369 733.827,-102.368"/>
</g>
<!-- Node4&#45;&gt;Node5 -->
<g id="edge12" class="edge"><title>Node4&#45;&gt;Node5</title>
<path fill="none" stroke="midnightblue" d="M764.33,-108.096C785.441,-98.0073 814.188,-84.2697 832.505,-75.5164"/>
<polygon fill="midnightblue" stroke="midnightblue" points="762.745,-104.974 755.232,-112.444 765.764,-111.29 762.745,-104.974"/>
</g>
<!-- Node5&#45;&gt;Node2 -->
<g id="edge14" class="edge"><title>Node5&#45;&gt;Node2</title>
<path fill="none" stroke="midnightblue" d="M823.324,-52.096C802.212,-42.0073 773.465,-28.2697 755.148,-19.5164"/>
<polygon fill="midnightblue" stroke="midnightblue" points="821.89,-55.2897 832.421,-56.4435 824.908,-48.9738 821.89,-55.2897"/>
</g>
<!-- Node6&#45;&gt;Node2 -->
<g id="edge18" class="edge"><title>Node6&#45;&gt;Node2</title>
<path fill="none" stroke="midnightblue" d="M2527.27,-112.281C2525.95,-112.186 2524.63,-112.092 2523.33,-112 1854.55,-64.9725 1043.67,-25.4379 805.912,-14.2"/>
<polygon fill="midnightblue" stroke="midnightblue" points="2527.31,-115.793 2537.54,-113.039 2527.83,-108.812 2527.31,-115.793"/>
</g>
<!-- Node6&#45;&gt;Node7 -->
<g id="edge20" class="edge"><title>Node6&#45;&gt;Node7</title>
<path fill="none" stroke="midnightblue" d="M2647.51,-105.537C2658.21,-95.9087 2671.58,-83.8694 2680.51,-75.8339"/>
<polygon fill="midnightblue" stroke="midnightblue" points="2645.06,-103.033 2639.97,-112.324 2649.74,-108.236 2645.06,-103.033"/>
</g>
<!-- Node7&#45;&gt;Node2 -->
<g id="edge22" class="edge"><title>Node7&#45;&gt;Node2</title>
<path fill="none" stroke="midnightblue" d="M2589.68,-62.2171C2242.25,-52.6107 1098.57,-20.9884 805.985,-12.8984"/>
<polygon fill="midnightblue" stroke="midnightblue" points="2589.63,-65.717 2599.72,-62.4948 2589.82,-58.7197 2589.63,-65.717"/>
</g>
<!-- Node8&#45;&gt;Node2 -->
<g id="edge26" class="edge"><title>Node8&#45;&gt;Node2</title>
<path fill="none" stroke="midnightblue" d="M160.835,-110.708C285.616,-89.1261 572.617,-39.4876 687.981,-19.5345"/>
<polygon fill="midnightblue" stroke="midnightblue" points="159.96,-107.307 150.703,-112.46 161.154,-114.204 159.96,-107.307"/>
</g>
<!-- Node20 -->
<g id="node50" class="node"><title>Node20</title>
<a xlink:href="_radial_basis_factory_8h.html" target="_top" xlink:title="pkg/AMORE/src/dia/RadialBasisFactory.h">
<polygon fill="white" stroke="black" points="2817.83,-112.5 2817.83,-131.5 3020.83,-131.5 3020.83,-112.5 2817.83,-112.5"/>
<text text-anchor="middle" x="2919.33" y="-119.5" font-family="Helvetica,sans-Serif" font-size="10.00">pkg/AMORE/src/dia/RadialBasisFactory.h</text>
</a>
</g>
<!-- Node19&#45;&gt;Node20 -->
<g id="edge60" class="edge"><title>Node19&#45;&gt;Node20</title>
<path fill="none" stroke="midnightblue" d="M2913.48,-158.101C2914.97,-149.136 2916.68,-138.858 2917.87,-131.751"/>
<polygon fill="midnightblue" stroke="midnightblue" points="2910,-157.644 2911.81,-168.083 2916.91,-158.794 2910,-157.644"/>
</g>
</g>
</svg>
