<?xml version="1.0" encoding="UTF-8" standalone="no"?>
<!DOCTYPE svg PUBLIC "-//W3C//DTD SVG 1.1//EN"
 "http://www.w3.org/Graphics/SVG/1.1/DTD/svg11.dtd">
<!-- Generated by graphviz version 2.25.20091207.0545 (20091207.0545)
 -->
<!-- Title: G Pages: 1 -->
<svg width="148pt" height="140pt"
 viewBox="0.00 0.00 148.00 140.00" xmlns="http://www.w3.org/2000/svg" xmlns:xlink="http://www.w3.org/1999/xlink">
<g id="graph1" class="graph" transform="scale(1 1) rotate(0) translate(4 136)">
<title>G</title>
<polygon fill="white" stroke="white" points="-4,5 -4,-136 145,-136 145,5 -4,5"/>
<!-- Node1 -->
<g id="node1" class="node"><title>Node1</title>
<polygon fill="#bfbfbf" stroke="black" points="4.5,-112.5 4.5,-131.5 135.5,-131.5 135.5,-112.5 4.5,-112.5"/>
<text text-anchor="middle" x="70" y="-118.5" font-family="Helvetica,sans-Serif" font-size="10.00">pkg/AMORE/src/Neuron.h</text>
</g>
<!-- Node2 -->
<g id="node3" class="node"><title>Node2</title>
<a xlink:href="_neuron_8cpp.html" target="_top" xlink:title="pkg/AMORE/src/Neuron.cpp">
<polygon fill="white" stroke="black" points="-0.5,-56.5 -0.5,-75.5 140.5,-75.5 140.5,-56.5 -0.5,-56.5"/>
<text text-anchor="middle" x="70" y="-62.5" font-family="Helvetica,sans-Serif" font-size="10.00">pkg/AMORE/src/Neuron.cpp</text>
</a>
</g>
<!-- Node1&#45;&gt;Node2 -->
<g id="edge2" class="edge"><title>Node1&#45;&gt;Node2</title>
<path fill="none" stroke="midnightblue" d="M70,-102.158C70,-93.155 70,-82.9199 70,-75.6427"/>
<polygon fill="midnightblue" stroke="midnightblue" points="66.5001,-102.246 70,-112.246 73.5001,-102.246 66.5001,-102.246"/>
</g>
<!-- Node3 -->
<g id="node5" class="node"><title>Node3</title>
<a xlink:href="_a_m_o_r_e_8h.html" target="_top" xlink:title="pkg/AMORE/src/AMORE.h">
<polygon fill="white" stroke="black" points="2,-0.5 2,-19.5 138,-19.5 138,-0.5 2,-0.5"/>
<text text-anchor="middle" x="70" y="-6.5" font-family="Helvetica,sans-Serif" font-size="10.00">pkg/AMORE/src/AMORE.h</text>
</a>
</g>
<!-- Node2&#45;&gt;Node3 -->
<g id="edge4" class="edge"><title>Node2&#45;&gt;Node3</title>
<path fill="none" stroke="midnightblue" d="M70,-46.1575C70,-37.155 70,-26.9199 70,-19.6427"/>
<polygon fill="midnightblue" stroke="midnightblue" points="66.5001,-46.2455 70,-56.2455 73.5001,-46.2456 66.5001,-46.2455"/>
</g>
</g>
</svg>
