<?xml version="1.0" encoding="UTF-8" standalone="no"?>
<!DOCTYPE svg PUBLIC "-//W3C//DTD SVG 1.1//EN"
 "http://www.w3.org/Graphics/SVG/1.1/DTD/svg11.dtd">
<!-- Generated by graphviz version 2.28.0 (20110610.2051)
 -->
<!-- Title: G Pages: 1 -->
<svg width="1457pt" height="196pt"
 viewBox="0.00 0.00 1456.92 196.00" xmlns="http://www.w3.org/2000/svg" xmlns:xlink="http://www.w3.org/1999/xlink">
<g id="graph1" class="graph" transform="scale(1 1) rotate(0) translate(4 192)">
<title>G</title>
<polygon fill="white" stroke="white" points="-4,5 -4,-192 1453.92,-192 1453.92,5 -4,5"/>
<!-- Node1 -->
<g id="node1" class="node"><title>Node1</title>
<polygon fill="#bfbfbf" stroke="black" points="249.921,-168.5 249.921,-187.5 827.921,-187.5 827.921,-168.5 249.921,-168.5"/>
<text text-anchor="middle" x="538.921" y="-175.5" font-family="Helvetica,sans-Serif" font-size="10.00">/Users/mcasl/pc&#45;ule/Trabajo/investigacion/AMORE/AMORE&#45;WC/AMORE&#45;WC/pkg/AMORE/src/classHeaders/NeuralCreator.h</text>
</g>
<!-- Node2 -->
<g id="node3" class="node"><title>Node2</title>
<a xlink:href="_a_m_o_r_e_8h.html" target="_top" xlink:title="/Users/mcasl/pc&#45;ule/Trabajo/investigacion/AMORE/AMORE&#45;WC/AMORE&#45;WC/pkg/AMORE/src/AMORE.h">
<polygon fill="white" stroke="black" points="316.921,-0.5 316.921,-19.5 804.921,-19.5 804.921,-0.5 316.921,-0.5"/>
<text text-anchor="middle" x="560.921" y="-7.5" font-family="Helvetica,sans-Serif" font-size="10.00">/Users/mcasl/pc&#45;ule/Trabajo/investigacion/AMORE/AMORE&#45;WC/AMORE&#45;WC/pkg/AMORE/src/AMORE.h</text>
</a>
</g>
<!-- Node1&#45;&gt;Node2 -->
<g id="edge2" class="edge"><title>Node1&#45;&gt;Node2</title>
<path fill="none" stroke="midnightblue" d="M408.207,-167.637C233.103,-152.594 -49.4461,-118.225 7.92129,-56 29.6918,-32.386 178.882,-21.1629 316.813,-15.8293"/>
<polygon fill="midnightblue" stroke="midnightblue" points="408.02,-171.134 418.28,-168.491 408.611,-164.159 408.02,-171.134"/>
</g>
<!-- Node3 -->
<g id="node5" class="node"><title>Node3</title>
<a xlink:href="_simple_neural_creator_8h.html" target="_top" xlink:title="/Users/mcasl/pc&#45;ule/Trabajo/investigacion/AMORE/AMORE&#45;WC/AMORE&#45;WC/pkg/AMORE/src/classHeaders/SimpleNeuralCreator.h">
<polygon fill="white" stroke="black" points="233.421,-112.5 233.421,-131.5 844.421,-131.5 844.421,-112.5 233.421,-112.5"/>
<text text-anchor="middle" x="538.921" y="-119.5" font-family="Helvetica,sans-Serif" font-size="10.00">/Users/mcasl/pc&#45;ule/Trabajo/investigacion/AMORE/AMORE&#45;WC/AMORE&#45;WC/pkg/AMORE/src/classHeaders/SimpleNeuralCreator.h</text>
</a>
</g>
<!-- Node1&#45;&gt;Node3 -->
<g id="edge4" class="edge"><title>Node1&#45;&gt;Node3</title>
<path fill="none" stroke="midnightblue" d="M538.921,-157.805C538.921,-148.91 538.921,-138.78 538.921,-131.751"/>
<polygon fill="midnightblue" stroke="midnightblue" points="535.421,-158.083 538.921,-168.083 542.421,-158.083 535.421,-158.083"/>
</g>
<!-- Node4 -->
<g id="node8" class="node"><title>Node4</title>
<a xlink:href="_m_l_pfactory_8cpp.html" target="_top" xlink:title="/Users/mcasl/pc&#45;ule/Trabajo/investigacion/AMORE/AMORE&#45;WC/AMORE&#45;WC/pkg/AMORE/src/MLPfactory.cpp">
<polygon fill="white" stroke="black" points="17.4213,-56.5 17.4213,-75.5 532.421,-75.5 532.421,-56.5 17.4213,-56.5"/>
<text text-anchor="middle" x="274.921" y="-63.5" font-family="Helvetica,sans-Serif" font-size="10.00">/Users/mcasl/pc&#45;ule/Trabajo/investigacion/AMORE/AMORE&#45;WC/AMORE&#45;WC/pkg/AMORE/src/MLPfactory.cpp</text>
</a>
</g>
<!-- Node1&#45;&gt;Node4 -->
<g id="edge16" class="edge"><title>Node1&#45;&gt;Node4</title>
<path fill="none" stroke="midnightblue" d="M323.748,-167.056C278.122,-160.359 239.096,-149.496 223.921,-132 207.005,-112.495 239.091,-88.284 259.633,-75.6277"/>
<polygon fill="midnightblue" stroke="midnightblue" points="323.504,-170.556 333.891,-168.464 324.467,-163.622 323.504,-170.556"/>
</g>
<!-- Node5 -->
<g id="node11" class="node"><title>Node5</title>
<a xlink:href="_simple_neural_creator_8cpp.html" target="_top" xlink:title="/Users/mcasl/pc&#45;ule/Trabajo/investigacion/AMORE/AMORE&#45;WC/AMORE&#45;WC/pkg/AMORE/src/SimpleNeuralCreator.cpp">
<polygon fill="white" stroke="black" points="588.921,-56.5 588.921,-75.5 1146.92,-75.5 1146.92,-56.5 588.921,-56.5"/>
<text text-anchor="middle" x="867.921" y="-63.5" font-family="Helvetica,sans-Serif" font-size="10.00">/Users/mcasl/pc&#45;ule/Trabajo/investigacion/AMORE/AMORE&#45;WC/AMORE&#45;WC/pkg/AMORE/src/SimpleNeuralCreator.cpp</text>
</a>
</g>
<!-- Node1&#45;&gt;Node5 -->
<g id="edge18" class="edge"><title>Node1&#45;&gt;Node5</title>
<path fill="none" stroke="midnightblue" d="M729.931,-167.299C783.929,-160.797 833.357,-149.978 852.921,-132 868.783,-117.425 869.514,-89.7161 868.728,-75.6527"/>
<polygon fill="midnightblue" stroke="midnightblue" points="729.336,-163.844 719.801,-168.463 730.136,-170.798 729.336,-163.844"/>
</g>
<!-- Node6 -->
<g id="node16" class="node"><title>Node6</title>
<a xlink:href="_network_rinterface_8cpp.html" target="_top" xlink:title="/Users/mcasl/pc&#45;ule/Trabajo/investigacion/AMORE/AMORE&#45;WC/AMORE&#45;WC/pkg/AMORE/src/NetworkRinterface.cpp">
<polygon fill="white" stroke="black" points="900.921,-112.5 900.921,-131.5 1448.92,-131.5 1448.92,-112.5 900.921,-112.5"/>
<text text-anchor="middle" x="1174.92" y="-119.5" font-family="Helvetica,sans-Serif" font-size="10.00">/Users/mcasl/pc&#45;ule/Trabajo/investigacion/AMORE/AMORE&#45;WC/AMORE&#45;WC/pkg/AMORE/src/NetworkRinterface.cpp</text>
</a>
</g>
<!-- Node1&#45;&gt;Node6 -->
<g id="edge20" class="edge"><title>Node1&#45;&gt;Node6</title>
<path fill="none" stroke="midnightblue" d="M649.65,-167.599C769.562,-157.417 959.146,-141.321 1074.76,-131.504"/>
<polygon fill="midnightblue" stroke="midnightblue" points="649.014,-164.14 639.346,-168.473 649.607,-171.115 649.014,-164.14"/>
</g>
<!-- Node3&#45;&gt;Node2 -->
<g id="edge6" class="edge"><title>Node3&#45;&gt;Node2</title>
<path fill="none" stroke="midnightblue" d="M542.652,-102.348C547.471,-78.2538 555.66,-37.3079 559.203,-19.5914"/>
<polygon fill="midnightblue" stroke="midnightblue" points="539.177,-101.876 540.648,-112.368 546.041,-103.249 539.177,-101.876"/>
</g>
<!-- Node3&#45;&gt;Node4 -->
<g id="edge8" class="edge"><title>Node3&#45;&gt;Node4</title>
<path fill="none" stroke="midnightblue" d="M487.146,-110.41C437.253,-100.204 362.724,-84.9597 316.557,-75.5164"/>
<polygon fill="midnightblue" stroke="midnightblue" points="486.591,-113.869 497.09,-112.444 487.994,-107.01 486.591,-113.869"/>
</g>
<!-- Node3&#45;&gt;Node5 -->
<g id="edge12" class="edge"><title>Node3&#45;&gt;Node5</title>
<path fill="none" stroke="midnightblue" d="M601.123,-110.791C663.29,-100.587 757.779,-85.078 816.034,-75.5164"/>
<polygon fill="midnightblue" stroke="midnightblue" points="600.353,-107.37 591.052,-112.444 601.487,-114.278 600.353,-107.37"/>
</g>
<!-- Node4&#45;&gt;Node2 -->
<g id="edge10" class="edge"><title>Node4&#45;&gt;Node2</title>
<path fill="none" stroke="midnightblue" d="M330.336,-54.5371C384.388,-44.3316 465.592,-28.9992 515.816,-19.5164"/>
<polygon fill="midnightblue" stroke="midnightblue" points="329.416,-51.1489 320.239,-56.4435 330.715,-58.0274 329.416,-51.1489"/>
</g>
<!-- Node5&#45;&gt;Node2 -->
<g id="edge14" class="edge"><title>Node5&#45;&gt;Node2</title>
<path fill="none" stroke="midnightblue" d="M809.16,-54.6642C751.143,-44.4592 663.474,-29.0386 609.339,-19.5164"/>
<polygon fill="midnightblue" stroke="midnightblue" points="808.821,-58.1582 819.276,-56.4435 810.034,-51.264 808.821,-58.1582"/>
</g>
<!-- Node6&#45;&gt;Node2 -->
<g id="edge22" class="edge"><title>Node6&#45;&gt;Node2</title>
<path fill="none" stroke="midnightblue" d="M1174.85,-101.97C1173.69,-87.0265 1169.46,-66.9702 1155.92,-56 1128.1,-33.4599 956.803,-22.141 805.106,-16.4971"/>
<polygon fill="midnightblue" stroke="midnightblue" points="1171.36,-102.309 1175.25,-112.166 1178.36,-102.038 1171.36,-102.309"/>
</g>
</g>
</svg>
