<?xml version="1.0" encoding="UTF-8" standalone="no"?>
<!DOCTYPE svg PUBLIC "-//W3C//DTD SVG 1.1//EN"
 "http://www.w3.org/Graphics/SVG/1.1/DTD/svg11.dtd">
<!-- Generated by graphviz version 2.28.0 (20110610.2051)
 -->
<!-- Title: G Pages: 1 -->
<svg width="420pt" height="196pt"
 viewBox="0.00 0.00 420.00 196.00" xmlns="http://www.w3.org/2000/svg" xmlns:xlink="http://www.w3.org/1999/xlink">
<g id="graph1" class="graph" transform="scale(1 1) rotate(0) translate(4 192)">
<title>G</title>
<polygon fill="white" stroke="white" points="-4,5 -4,-192 417,-192 417,5 -4,5"/>
<!-- Node1 -->
<g id="node1" class="node"><title>Node1</title>
<polygon fill="#bfbfbf" stroke="black" points="71.5,-168.5 71.5,-187.5 250.5,-187.5 250.5,-168.5 71.5,-168.5"/>
<text text-anchor="middle" x="161" y="-175.5" font-family="Helvetica,sans-Serif" font-size="10.00">pkg/AMORE/src/dia/NeuralFactory.h</text>
</g>
<!-- Node2 -->
<g id="node3" class="node"><title>Node2</title>
<a xlink:href="_a_m_o_r_e_8h.html" target="_top" xlink:title="pkg/AMORE/src/AMORE.h">
<polygon fill="white" stroke="black" points="-0.5,-0.5 -0.5,-19.5 136.5,-19.5 136.5,-0.5 -0.5,-0.5"/>
<text text-anchor="middle" x="68" y="-7.5" font-family="Helvetica,sans-Serif" font-size="10.00">pkg/AMORE/src/AMORE.h</text>
</a>
</g>
<!-- Node1&#45;&gt;Node2 -->
<g id="edge2" class="edge"><title>Node1&#45;&gt;Node2</title>
<path fill="none" stroke="midnightblue" d="M61.8004,-166.012C42.376,-159.167 24.2526,-148.5 12,-132 -16.0148,-94.2746 35.6129,-40.2946 58.1908,-19.5605"/>
<polygon fill="midnightblue" stroke="midnightblue" points="60.83,-169.376 71.4205,-169.074 62.953,-162.706 60.83,-169.376"/>
</g>
<!-- Node3 -->
<g id="node5" class="node"><title>Node3</title>
<a xlink:href="_m_l_pfactory_8h.html" target="_top" xlink:title="pkg/AMORE/src/dia/MLPfactory.h">
<polygon fill="white" stroke="black" points="21.5,-112.5 21.5,-131.5 188.5,-131.5 188.5,-112.5 21.5,-112.5"/>
<text text-anchor="middle" x="105" y="-119.5" font-family="Helvetica,sans-Serif" font-size="10.00">pkg/AMORE/src/dia/MLPfactory.h</text>
</a>
</g>
<!-- Node1&#45;&gt;Node3 -->
<g id="edge4" class="edge"><title>Node1&#45;&gt;Node3</title>
<path fill="none" stroke="midnightblue" d="M144.67,-161.253C134.735,-151.673 122.412,-139.791 114.161,-131.834"/>
<polygon fill="midnightblue" stroke="midnightblue" points="142.375,-163.902 152.003,-168.324 147.234,-158.863 142.375,-163.902"/>
</g>
<!-- Node4 -->
<g id="node8" class="node"><title>Node4</title>
<a xlink:href="_m_l_pfactory_8cpp.html" target="_top" xlink:title="pkg/AMORE/src/MLPfactory.cpp">
<polygon fill="white" stroke="black" points="96,-56.5 96,-75.5 260,-75.5 260,-56.5 96,-56.5"/>
<text text-anchor="middle" x="178" y="-63.5" font-family="Helvetica,sans-Serif" font-size="10.00">pkg/AMORE/src/MLPfactory.cpp</text>
</a>
</g>
<!-- Node1&#45;&gt;Node4 -->
<g id="edge12" class="edge"><title>Node1&#45;&gt;Node4</title>
<path fill="none" stroke="midnightblue" d="M178.4,-160.819C185.633,-152.916 193.215,-142.791 197,-132 204.005,-112.03 191.766,-88.0081 183.882,-75.5048"/>
<polygon fill="midnightblue" stroke="midnightblue" points="175.674,-158.6 171.162,-168.185 180.667,-163.506 175.674,-158.6"/>
</g>
<!-- Node5 -->
<g id="node12" class="node"><title>Node5</title>
<a xlink:href="_r_b_ffactory_8h.html" target="_top" xlink:title="pkg/AMORE/src/dia/RBFfactory.h">
<polygon fill="white" stroke="black" points="245.5,-112.5 245.5,-131.5 412.5,-131.5 412.5,-112.5 245.5,-112.5"/>
<text text-anchor="middle" x="329" y="-119.5" font-family="Helvetica,sans-Serif" font-size="10.00">pkg/AMORE/src/dia/RBFfactory.h</text>
</a>
</g>
<!-- Node1&#45;&gt;Node5 -->
<g id="edge14" class="edge"><title>Node1&#45;&gt;Node5</title>
<path fill="none" stroke="midnightblue" d="M197.386,-165.304C229.042,-155.129 274.168,-140.625 302.504,-131.516"/>
<polygon fill="midnightblue" stroke="midnightblue" points="196.069,-162.051 187.62,-168.444 198.211,-168.715 196.069,-162.051"/>
</g>
<!-- Node3&#45;&gt;Node2 -->
<g id="edge6" class="edge"><title>Node3&#45;&gt;Node2</title>
<path fill="none" stroke="midnightblue" d="M97.4106,-103.172C94.0359,-94.9662 90.1279,-85.0597 87,-76 80.1702,-56.2185 73.6524,-32.5208 70.3146,-19.9164"/>
<polygon fill="midnightblue" stroke="midnightblue" points="94.2109,-104.593 101.301,-112.466 100.668,-101.89 94.2109,-104.593"/>
</g>
<!-- Node3&#45;&gt;Node4 -->
<g id="edge8" class="edge"><title>Node3&#45;&gt;Node4</title>
<path fill="none" stroke="midnightblue" d="M125.142,-106.101C138.279,-96.3824 154.982,-84.0269 166.058,-75.8339"/>
<polygon fill="midnightblue" stroke="midnightblue" points="122.687,-103.563 116.729,-112.324 126.85,-109.191 122.687,-103.563"/>
</g>
<!-- Node4&#45;&gt;Node2 -->
<g id="edge10" class="edge"><title>Node4&#45;&gt;Node2</title>
<path fill="none" stroke="midnightblue" d="M151.238,-51.8622C130.841,-41.8492 103.334,-28.3458 85.6295,-19.6545"/>
<polygon fill="midnightblue" stroke="midnightblue" points="149.808,-55.059 160.327,-56.324 152.892,-48.7753 149.808,-55.059"/>
</g>
</g>
</svg>
