<?xml version="1.0" encoding="UTF-8" standalone="no"?>
<!DOCTYPE svg PUBLIC "-//W3C//DTD SVG 1.1//EN"
 "http://www.w3.org/Graphics/SVG/1.1/DTD/svg11.dtd">
<!-- Generated by graphviz version 2.25.20091207.0545 (20091207.0545)
 -->
<!-- Title: G Pages: 1 -->
<svg width="195pt" height="140pt"
 viewBox="0.00 0.00 195.00 140.00" xmlns="http://www.w3.org/2000/svg" xmlns:xlink="http://www.w3.org/1999/xlink">
<g id="graph1" class="graph" transform="scale(1 1) rotate(0) translate(4 136)">
<title>G</title>
<polygon fill="white" stroke="white" points="-4,5 -4,-136 192,-136 192,5 -4,5"/>
<!-- Node1 -->
<g id="node1" class="node"><title>Node1</title>
<polygon fill="#bfbfbf" stroke="black" points="2.5,-112.5 2.5,-131.5 133.5,-131.5 133.5,-112.5 2.5,-112.5"/>
<text text-anchor="middle" x="68" y="-118.5" font-family="Helvetica,sans-Serif" font-size="10.00">pkg/AMORE/src/Neuron.h</text>
</g>
<!-- Node2 -->
<g id="node3" class="node"><title>Node2</title>
<a xlink:href="_a_m_o_r_e_8h.html" target="_top" xlink:title="pkg/AMORE/src/AMORE.h">
<polygon fill="white" stroke="black" points="0,-0.5 0,-19.5 136,-19.5 136,-0.5 0,-0.5"/>
<text text-anchor="middle" x="68" y="-6.5" font-family="Helvetica,sans-Serif" font-size="10.00">pkg/AMORE/src/AMORE.h</text>
</a>
</g>
<!-- Node1&#45;&gt;Node2 -->
<g id="edge2" class="edge"><title>Node1&#45;&gt;Node2</title>
<path fill="none" stroke="midnightblue" d="M53.0309,-104.345C47.1244,-96.2525 41.0326,-86.2016 38,-76 31.7595,-55.0074 47.8614,-32.0613 58.817,-19.5152"/>
<polygon fill="midnightblue" stroke="midnightblue" points="50.3036,-106.539 59.2139,-112.271 55.823,-102.233 50.3036,-106.539"/>
</g>
<!-- Node3 -->
<g id="node5" class="node"><title>Node3</title>
<a xlink:href="_neuron_8cpp.html" target="_top" xlink:title="pkg/AMORE/src/Neuron.cpp">
<polygon fill="white" stroke="black" points="46.5,-56.5 46.5,-75.5 187.5,-75.5 187.5,-56.5 46.5,-56.5"/>
<text text-anchor="middle" x="117" y="-62.5" font-family="Helvetica,sans-Serif" font-size="10.00">pkg/AMORE/src/Neuron.cpp</text>
</a>
</g>
<!-- Node1&#45;&gt;Node3 -->
<g id="edge4" class="edge"><title>Node1&#45;&gt;Node3</title>
<path fill="none" stroke="midnightblue" d="M83.3122,-104.5C91.6447,-94.9775 101.635,-83.5596 108.563,-75.6427"/>
<polygon fill="midnightblue" stroke="midnightblue" points="80.4862,-102.415 76.5351,-112.246 85.7543,-107.025 80.4862,-102.415"/>
</g>
<!-- Node3&#45;&gt;Node2 -->
<g id="edge6" class="edge"><title>Node3&#45;&gt;Node2</title>
<path fill="none" stroke="midnightblue" d="M101.688,-48.5004C93.3553,-38.9775 83.3647,-27.5596 76.4373,-19.6427"/>
<polygon fill="midnightblue" stroke="midnightblue" points="99.2457,-51.0245 108.465,-56.2455 104.514,-46.415 99.2457,-51.0245"/>
</g>
</g>
</svg>
