<?xml version="1.0" encoding="UTF-8" standalone="no"?>
<!DOCTYPE svg PUBLIC "-//W3C//DTD SVG 1.1//EN"
 "http://www.w3.org/Graphics/SVG/1.1/DTD/svg11.dtd">
<!-- Generated by graphviz version 2.28.0 (20110610.2051)
 -->
<!-- Title: G Pages: 1 -->
<svg width="253pt" height="140pt"
 viewBox="0.00 0.00 253.00 140.00" xmlns="http://www.w3.org/2000/svg" xmlns:xlink="http://www.w3.org/1999/xlink">
<g id="graph1" class="graph" transform="scale(1 1) rotate(0) translate(4 136)">
<title>G</title>
<polygon fill="white" stroke="white" points="-4,5 -4,-136 250,-136 250,5 -4,5"/>
<!-- Node1 -->
<g id="node1" class="node"><title>Node1</title>
<polygon fill="#bfbfbf" stroke="black" points="-0.5,-112.5 -0.5,-131.5 182.5,-131.5 182.5,-112.5 -0.5,-112.5"/>
<text text-anchor="middle" x="91" y="-119.5" font-family="Helvetica,sans-Serif" font-size="10.00">pkg/AMORE/src/dia/NeuralNetwork.h</text>
</g>
<!-- Node2 -->
<g id="node3" class="node"><title>Node2</title>
<a xlink:href="_a_m_o_r_e_8h.html" target="_top" xlink:title="pkg/AMORE/src/AMORE.h">
<polygon fill="white" stroke="black" points="22.5,-0.5 22.5,-19.5 159.5,-19.5 159.5,-0.5 22.5,-0.5"/>
<text text-anchor="middle" x="91" y="-7.5" font-family="Helvetica,sans-Serif" font-size="10.00">pkg/AMORE/src/AMORE.h</text>
</a>
</g>
<!-- Node1&#45;&gt;Node2 -->
<g id="edge2" class="edge"><title>Node1&#45;&gt;Node2</title>
<path fill="none" stroke="midnightblue" d="M71.7494,-105.745C63.3677,-97.8689 54.454,-87.502 50,-76 41.5203,-54.1024 64.0791,-31.5914 79.0064,-19.6604"/>
<polygon fill="midnightblue" stroke="midnightblue" points="69.6283,-108.54 79.4594,-112.49 74.2371,-103.271 69.6283,-108.54"/>
</g>
<!-- Node3 -->
<g id="node5" class="node"><title>Node3</title>
<a xlink:href="_simple_network_8h.html" target="_top" xlink:title="pkg/AMORE/src/dia/SimpleNetwork.h">
<polygon fill="white" stroke="black" points="59,-56.5 59,-75.5 245,-75.5 245,-56.5 59,-56.5"/>
<text text-anchor="middle" x="152" y="-63.5" font-family="Helvetica,sans-Serif" font-size="10.00">pkg/AMORE/src/dia/SimpleNetwork.h</text>
</a>
</g>
<!-- Node1&#45;&gt;Node3 -->
<g id="edge4" class="edge"><title>Node1&#45;&gt;Node3</title>
<path fill="none" stroke="midnightblue" d="M108.467,-105.537C119.344,-95.9087 132.944,-83.8694 142.021,-75.8339"/>
<polygon fill="midnightblue" stroke="midnightblue" points="105.968,-103.075 100.801,-112.324 110.608,-108.316 105.968,-103.075"/>
</g>
<!-- Node3&#45;&gt;Node2 -->
<g id="edge6" class="edge"><title>Node3&#45;&gt;Node2</title>
<path fill="none" stroke="midnightblue" d="M134.533,-49.5372C123.656,-39.9087 110.056,-27.8694 100.979,-19.8339"/>
<polygon fill="midnightblue" stroke="midnightblue" points="132.392,-52.3162 142.199,-56.324 137.032,-47.0749 132.392,-52.3162"/>
</g>
</g>
</svg>
