<?xml version="1.0" encoding="UTF-8" standalone="no"?>
<!DOCTYPE svg PUBLIC "-//W3C//DTD SVG 1.1//EN"
 "http://www.w3.org/Graphics/SVG/1.1/DTD/svg11.dtd">
<!-- Generated by graphviz version 2.28.0 (20110610.2051)
 -->
<!-- Title: G Pages: 1 -->
<svg width="450pt" height="196pt"
 viewBox="0.00 0.00 449.76 196.00" xmlns="http://www.w3.org/2000/svg" xmlns:xlink="http://www.w3.org/1999/xlink">
<g id="graph1" class="graph" transform="scale(1 1) rotate(0) translate(4 192)">
<title>G</title>
<polygon fill="white" stroke="white" points="-4,5 -4,-192 446.765,-192 446.765,5 -4,5"/>
<!-- Node1 -->
<g id="node1" class="node"><title>Node1</title>
<polygon fill="#bfbfbf" stroke="black" points="107.765,-168.5 107.765,-187.5 255.765,-187.5 255.765,-168.5 107.765,-168.5"/>
<text text-anchor="middle" x="181.765" y="-175.5" font-family="Helvetica,sans-Serif" font-size="10.00">pkg/AMORE/src/dia/Neuron.h</text>
</g>
<!-- Node2 -->
<g id="node3" class="node"><title>Node2</title>
<a xlink:href="_a_m_o_r_e_8h.html" target="_top" xlink:title="pkg/AMORE/src/AMORE.h">
<polygon fill="white" stroke="black" points="49.2646,-0.5 49.2646,-19.5 186.265,-19.5 186.265,-0.5 49.2646,-0.5"/>
<text text-anchor="middle" x="117.765" y="-7.5" font-family="Helvetica,sans-Serif" font-size="10.00">pkg/AMORE/src/AMORE.h</text>
</a>
</g>
<!-- Node1&#45;&gt;Node2 -->
<g id="edge2" class="edge"><title>Node1&#45;&gt;Node2</title>
<path fill="none" stroke="midnightblue" d="M116.393,-166.633C76.867,-158.961 31.6851,-147.213 18.7646,-132 -3.16901,-106.174 -5.88762,-84.2868 12.7646,-56 25.3746,-36.8764 47.9794,-25.8489 68.9935,-19.5047"/>
<polygon fill="midnightblue" stroke="midnightblue" points="115.823,-170.087 126.297,-168.495 117.116,-163.207 115.823,-170.087"/>
</g>
<!-- Node3 -->
<g id="node5" class="node"><title>Node3</title>
<a xlink:href="_simple_neuron_8h.html" target="_top" xlink:title="pkg/AMORE/src/dia/SimpleNeuron.h">
<polygon fill="white" stroke="black" points="27.7646,-112.5 27.7646,-131.5 207.765,-131.5 207.765,-112.5 27.7646,-112.5"/>
<text text-anchor="middle" x="117.765" y="-119.5" font-family="Helvetica,sans-Serif" font-size="10.00">pkg/AMORE/src/dia/SimpleNeuron.h</text>
</a>
</g>
<!-- Node1&#45;&gt;Node3 -->
<g id="edge4" class="edge"><title>Node1&#45;&gt;Node3</title>
<path fill="none" stroke="midnightblue" d="M163.773,-161.82C152.307,-152.145 137.851,-139.948 128.234,-131.834"/>
<polygon fill="midnightblue" stroke="midnightblue" points="161.582,-164.55 171.482,-168.324 166.096,-159.2 161.582,-164.55"/>
</g>
<!-- Node5 -->
<g id="node11" class="node"><title>Node5</title>
<a xlink:href="_con_8cpp.html" target="_top" xlink:title="pkg/AMORE/src/Con.cpp">
<polygon fill="white" stroke="black" points="223.765,-56.5 223.765,-75.5 353.765,-75.5 353.765,-56.5 223.765,-56.5"/>
<text text-anchor="middle" x="288.765" y="-63.5" font-family="Helvetica,sans-Serif" font-size="10.00">pkg/AMORE/src/Con.cpp</text>
</a>
</g>
<!-- Node1&#45;&gt;Node5 -->
<g id="edge12" class="edge"><title>Node1&#45;&gt;Node5</title>
<path fill="none" stroke="midnightblue" d="M197.429,-160.897C220.432,-137.249 262.55,-93.9493 280.407,-75.5914"/>
<polygon fill="midnightblue" stroke="midnightblue" points="194.625,-158.76 190.161,-168.368 199.642,-163.641 194.625,-158.76"/>
</g>
<!-- Node6 -->
<g id="node14" class="node"><title>Node6</title>
<a xlink:href="_neuron_8cpp.html" target="_top" xlink:title="pkg/AMORE/src/Neuron.cpp">
<polygon fill="white" stroke="black" points="297.765,-112.5 297.765,-131.5 441.765,-131.5 441.765,-112.5 297.765,-112.5"/>
<text text-anchor="middle" x="369.765" y="-119.5" font-family="Helvetica,sans-Serif" font-size="10.00">pkg/AMORE/src/Neuron.cpp</text>
</a>
</g>
<!-- Node1&#45;&gt;Node6 -->
<g id="edge16" class="edge"><title>Node1&#45;&gt;Node6</title>
<path fill="none" stroke="midnightblue" d="M221.566,-165.568C257.031,-155.381 308.13,-140.703 340.115,-131.516"/>
<polygon fill="midnightblue" stroke="midnightblue" points="220.199,-162.319 211.554,-168.444 222.131,-169.047 220.199,-162.319"/>
</g>
<!-- Node3&#45;&gt;Node2 -->
<g id="edge6" class="edge"><title>Node3&#45;&gt;Node2</title>
<path fill="none" stroke="midnightblue" d="M65.8006,-109.084C48.4552,-102.365 30.9637,-91.9747 20.7646,-76 3.03789,-48.2349 46.8997,-29.5282 81.3041,-19.5673"/>
<polygon fill="midnightblue" stroke="midnightblue" points="64.7798,-112.435 75.3746,-112.451 67.1024,-105.832 64.7798,-112.435"/>
</g>
<!-- Node4 -->
<g id="node8" class="node"><title>Node4</title>
<a xlink:href="_simple_neuron_8cpp.html" target="_top" xlink:title="pkg/AMORE/src/SimpleNeuron.cpp">
<polygon fill="white" stroke="black" points="29.7646,-56.5 29.7646,-75.5 205.765,-75.5 205.765,-56.5 29.7646,-56.5"/>
<text text-anchor="middle" x="117.765" y="-63.5" font-family="Helvetica,sans-Serif" font-size="10.00">pkg/AMORE/src/SimpleNeuron.cpp</text>
</a>
</g>
<!-- Node3&#45;&gt;Node4 -->
<g id="edge8" class="edge"><title>Node3&#45;&gt;Node4</title>
<path fill="none" stroke="midnightblue" d="M117.765,-101.805C117.765,-92.9102 117.765,-82.7798 117.765,-75.7511"/>
<polygon fill="midnightblue" stroke="midnightblue" points="114.265,-102.083 117.765,-112.083 121.265,-102.083 114.265,-102.083"/>
</g>
<!-- Node4&#45;&gt;Node2 -->
<g id="edge10" class="edge"><title>Node4&#45;&gt;Node2</title>
<path fill="none" stroke="midnightblue" d="M117.765,-45.8045C117.765,-36.9102 117.765,-26.7798 117.765,-19.7511"/>
<polygon fill="midnightblue" stroke="midnightblue" points="114.265,-46.083 117.765,-56.083 121.265,-46.083 114.265,-46.083"/>
</g>
<!-- Node5&#45;&gt;Node2 -->
<g id="edge14" class="edge"><title>Node5&#45;&gt;Node2</title>
<path fill="none" stroke="midnightblue" d="M251.729,-53.3044C219.508,-43.1294 173.576,-28.6246 144.733,-19.5164"/>
<polygon fill="midnightblue" stroke="midnightblue" points="251.079,-56.7697 261.669,-56.4435 253.187,-50.0946 251.079,-56.7697"/>
</g>
<!-- Node6&#45;&gt;Node2 -->
<g id="edge18" class="edge"><title>Node6&#45;&gt;Node2</title>
<path fill="none" stroke="midnightblue" d="M373.267,-101.795C374.722,-87.3627 373.976,-68.0774 362.765,-56 339.374,-30.8021 250.529,-19.5457 186.558,-14.633"/>
<polygon fill="midnightblue" stroke="midnightblue" points="369.744,-101.703 371.787,-112.1 376.673,-102.699 369.744,-101.703"/>
</g>
</g>
</svg>
