<?xml version="1.0" encoding="UTF-8" standalone="no"?>
<!DOCTYPE svg PUBLIC "-//W3C//DTD SVG 1.1//EN"
 "http://www.w3.org/Graphics/SVG/1.1/DTD/svg11.dtd">
<!-- Generated by graphviz version 2.28.0 (20110610.2051)
 -->
<!-- Title: G Pages: 1 -->
<svg width="4228pt" height="196pt"
 viewBox="0.00 0.00 4228.00 196.00" xmlns="http://www.w3.org/2000/svg" xmlns:xlink="http://www.w3.org/1999/xlink">
<g id="graph1" class="graph" transform="scale(1 1) rotate(0) translate(4 192)">
<title>G</title>
<polygon fill="white" stroke="white" points="-4,5 -4,-192 4225,-192 4225,5 -4,5"/>
<!-- Node1 -->
<g id="node1" class="node"><title>Node1</title>
<polygon fill="#bfbfbf" stroke="black" points="1724,-168.5 1724,-187.5 2272,-187.5 2272,-168.5 1724,-168.5"/>
<text text-anchor="middle" x="1998" y="-175.5" font-family="Helvetica,sans-Serif" font-size="10.00">/Users/mcasl/pc&#45;ule/Trabajo/investigacion/AMORE/AMORE&#45;WC/AMORE&#45;WC/pkg/AMORE/src/classHeaders/Neuron.h</text>
</g>
<!-- Node2 -->
<g id="node3" class="node"><title>Node2</title>
<a xlink:href="_activation_function_8cpp.html" target="_top" xlink:title="/Users/mcasl/pc&#45;ule/Trabajo/investigacion/AMORE/AMORE&#45;WC/AMORE&#45;WC/pkg/AMORE/src/ActivationFunction.cpp">
<polygon fill="white" stroke="black" points="-0.5,-56.5 -0.5,-75.5 546.5,-75.5 546.5,-56.5 -0.5,-56.5"/>
<text text-anchor="middle" x="273" y="-63.5" font-family="Helvetica,sans-Serif" font-size="10.00">/Users/mcasl/pc&#45;ule/Trabajo/investigacion/AMORE/AMORE&#45;WC/AMORE&#45;WC/pkg/AMORE/src/ActivationFunction.cpp</text>
</a>
</g>
<!-- Node1&#45;&gt;Node2 -->
<g id="edge2" class="edge"><title>Node1&#45;&gt;Node2</title>
<path fill="none" stroke="midnightblue" d="M1713.51,-174.514C1359.62,-170.299 775.819,-159.351 561,-132 464.899,-119.764 353.72,-90.1665 302.107,-75.512"/>
<polygon fill="midnightblue" stroke="midnightblue" points="1713.61,-178.015 1723.65,-174.634 1713.7,-171.016 1713.61,-178.015"/>
</g>
<!-- Node3 -->
<g id="node5" class="node"><title>Node3</title>
<a xlink:href="_a_m_o_r_e_8h.html" target="_top" xlink:title="/Users/mcasl/pc&#45;ule/Trabajo/investigacion/AMORE/AMORE&#45;WC/AMORE&#45;WC/pkg/AMORE/src/AMORE.h">
<polygon fill="white" stroke="black" points="1718,-0.5 1718,-19.5 2206,-19.5 2206,-0.5 1718,-0.5"/>
<text text-anchor="middle" x="1962" y="-7.5" font-family="Helvetica,sans-Serif" font-size="10.00">/Users/mcasl/pc&#45;ule/Trabajo/investigacion/AMORE/AMORE&#45;WC/AMORE&#45;WC/pkg/AMORE/src/AMORE.h</text>
</a>
</g>
<!-- Node1&#45;&gt;Node3 -->
<g id="edge6" class="edge"><title>Node1&#45;&gt;Node3</title>
<path fill="none" stroke="midnightblue" d="M1713.47,-174.559C1364.79,-170.391 808.626,-159.494 716,-132 669.746,-118.271 646.739,-118.004 623,-76 618.627,-68.2614 616.821,-62.3901 623,-56 660.352,-17.3719 1341.63,-11.0641 1717.63,-10.5429"/>
<polygon fill="midnightblue" stroke="midnightblue" points="1713.69,-178.061 1723.73,-174.68 1713.77,-171.062 1713.69,-178.061"/>
</g>
<!-- Node4 -->
<g id="node8" class="node"><title>Node4</title>
<a xlink:href="_simple_neuron_8h.html" target="_top" xlink:title="/Users/mcasl/pc&#45;ule/Trabajo/investigacion/AMORE/AMORE&#45;WC/AMORE&#45;WC/pkg/AMORE/src/classHeaders/SimpleNeuron.h">
<polygon fill="white" stroke="black" points="725,-112.5 725,-131.5 1305,-131.5 1305,-112.5 725,-112.5"/>
<text text-anchor="middle" x="1015" y="-119.5" font-family="Helvetica,sans-Serif" font-size="10.00">/Users/mcasl/pc&#45;ule/Trabajo/investigacion/AMORE/AMORE&#45;WC/AMORE&#45;WC/pkg/AMORE/src/classHeaders/SimpleNeuron.h</text>
</a>
</g>
<!-- Node1&#45;&gt;Node4 -->
<g id="edge8" class="edge"><title>Node1&#45;&gt;Node4</title>
<path fill="none" stroke="midnightblue" d="M1832.96,-167.934C1648.04,-157.776 1350.58,-141.435 1169.9,-131.509"/>
<polygon fill="midnightblue" stroke="midnightblue" points="1832.88,-171.434 1843.05,-168.488 1833.26,-164.445 1832.88,-171.434"/>
</g>
<!-- Node6 -->
<g id="node14" class="node"><title>Node6</title>
<a xlink:href="_m_l_pfactory_8cpp.html" target="_top" xlink:title="/Users/mcasl/pc&#45;ule/Trabajo/investigacion/AMORE/AMORE&#45;WC/AMORE&#45;WC/pkg/AMORE/src/MLPfactory.cpp">
<polygon fill="white" stroke="black" points="1186.5,-56.5 1186.5,-75.5 1701.5,-75.5 1701.5,-56.5 1186.5,-56.5"/>
<text text-anchor="middle" x="1444" y="-63.5" font-family="Helvetica,sans-Serif" font-size="10.00">/Users/mcasl/pc&#45;ule/Trabajo/investigacion/AMORE/AMORE&#45;WC/AMORE&#45;WC/pkg/AMORE/src/MLPfactory.cpp</text>
</a>
</g>
<!-- Node1&#45;&gt;Node6 -->
<g id="edge36" class="edge"><title>Node1&#45;&gt;Node6</title>
<path fill="none" stroke="midnightblue" d="M1945.18,-166.512C1835.97,-144.827 1587.17,-95.4275 1486.98,-75.5345"/>
<polygon fill="midnightblue" stroke="midnightblue" points="1944.5,-169.945 1954.99,-168.46 1945.86,-163.079 1944.5,-169.945"/>
</g>
<!-- Node7 -->
<g id="node17" class="node"><title>Node7</title>
<a xlink:href="_tanh_8cpp.html" target="_top" xlink:title="/Users/mcasl/pc&#45;ule/Trabajo/investigacion/AMORE/AMORE&#45;WC/AMORE&#45;WC/pkg/AMORE/src/Tanh.cpp">
<polygon fill="white" stroke="black" points="1720,-56.5 1720,-75.5 2204,-75.5 2204,-56.5 1720,-56.5"/>
<text text-anchor="middle" x="1962" y="-63.5" font-family="Helvetica,sans-Serif" font-size="10.00">/Users/mcasl/pc&#45;ule/Trabajo/investigacion/AMORE/AMORE&#45;WC/AMORE&#45;WC/pkg/AMORE/src/Tanh.cpp</text>
</a>
</g>
<!-- Node1&#45;&gt;Node7 -->
<g id="edge20" class="edge"><title>Node1&#45;&gt;Node7</title>
<path fill="none" stroke="midnightblue" d="M1992,-158.674C1984.13,-134.625 1970.64,-93.3881 1964.81,-75.5914"/>
<polygon fill="midnightblue" stroke="midnightblue" points="1988.74,-159.953 1995.18,-168.368 1995.39,-157.776 1988.74,-159.953"/>
</g>
<!-- Node8 -->
<g id="node20" class="node"><title>Node8</title>
<a xlink:href="_predict_behavior_8cpp.html" target="_top" xlink:title="/Users/mcasl/pc&#45;ule/Trabajo/investigacion/AMORE/AMORE&#45;WC/AMORE&#45;WC/pkg/AMORE/src/PredictBehavior.cpp">
<polygon fill="white" stroke="black" points="2222,-56.5 2222,-75.5 2758,-75.5 2758,-56.5 2222,-56.5"/>
<text text-anchor="middle" x="2490" y="-63.5" font-family="Helvetica,sans-Serif" font-size="10.00">/Users/mcasl/pc&#45;ule/Trabajo/investigacion/AMORE/AMORE&#45;WC/AMORE&#45;WC/pkg/AMORE/src/PredictBehavior.cpp</text>
</a>
</g>
<!-- Node1&#45;&gt;Node8 -->
<g id="edge24" class="edge"><title>Node1&#45;&gt;Node8</title>
<path fill="none" stroke="midnightblue" d="M1999.67,-157.923C2002.06,-142.952 2007.88,-122.882 2022,-112 2044.73,-94.4859 2183.71,-82.6347 2304.36,-75.5098"/>
<polygon fill="midnightblue" stroke="midnightblue" points="1996.16,-157.792 1998.43,-168.141 2003.11,-158.637 1996.16,-157.792"/>
</g>
<!-- Node9 -->
<g id="node23" class="node"><title>Node9</title>
<a xlink:href="_m_l_pbehavior_8cpp.html" target="_top" xlink:title="/Users/mcasl/pc&#45;ule/Trabajo/investigacion/AMORE/AMORE&#45;WC/AMORE&#45;WC/pkg/AMORE/src/MLPbehavior.cpp">
<polygon fill="white" stroke="black" points="2776,-56.5 2776,-75.5 3298,-75.5 3298,-56.5 2776,-56.5"/>
<text text-anchor="middle" x="3037" y="-63.5" font-family="Helvetica,sans-Serif" font-size="10.00">/Users/mcasl/pc&#45;ule/Trabajo/investigacion/AMORE/AMORE&#45;WC/AMORE&#45;WC/pkg/AMORE/src/MLPbehavior.cpp</text>
</a>
</g>
<!-- Node1&#45;&gt;Node9 -->
<g id="edge28" class="edge"><title>Node1&#45;&gt;Node9</title>
<path fill="none" stroke="midnightblue" d="M2007.7,-159.546C2017.42,-143.978 2033.94,-122.129 2055,-112 2071.68,-103.978 2516.81,-86.16 2801.97,-75.5089"/>
<polygon fill="midnightblue" stroke="midnightblue" points="2004.62,-157.877 2002.55,-168.267 2010.65,-161.437 2004.62,-157.877"/>
</g>
<!-- Node10 -->
<g id="node26" class="node"><title>Node10</title>
<a xlink:href="_neuron_8cpp.html" target="_top" xlink:title="/Users/mcasl/pc&#45;ule/Trabajo/investigacion/AMORE/AMORE&#45;WC/AMORE&#45;WC/pkg/AMORE/src/Neuron.cpp">
<polygon fill="white" stroke="black" points="2064.5,-112.5 2064.5,-131.5 2559.5,-131.5 2559.5,-112.5 2064.5,-112.5"/>
<text text-anchor="middle" x="2312" y="-119.5" font-family="Helvetica,sans-Serif" font-size="10.00">/Users/mcasl/pc&#45;ule/Trabajo/investigacion/AMORE/AMORE&#45;WC/AMORE&#45;WC/pkg/AMORE/src/Neuron.cpp</text>
</a>
</g>
<!-- Node1&#45;&gt;Node10 -->
<g id="edge32" class="edge"><title>Node1&#45;&gt;Node10</title>
<path fill="none" stroke="midnightblue" d="M2057.73,-166.727C2117.07,-156.523 2206.99,-141.058 2262.48,-131.516"/>
<polygon fill="midnightblue" stroke="midnightblue" points="2057.02,-163.299 2047.75,-168.444 2058.2,-170.198 2057.02,-163.299"/>
</g>
<!-- Node11 -->
<g id="node30" class="node"><title>Node11</title>
<a xlink:href="_simple_network_8cpp.html" target="_top" xlink:title="/Users/mcasl/pc&#45;ule/Trabajo/investigacion/AMORE/AMORE&#45;WC/AMORE&#45;WC/pkg/AMORE/src/SimpleNetwork.cpp">
<polygon fill="white" stroke="black" points="2577.5,-112.5 2577.5,-131.5 3110.5,-131.5 3110.5,-112.5 2577.5,-112.5"/>
<text text-anchor="middle" x="2844" y="-119.5" font-family="Helvetica,sans-Serif" font-size="10.00">/Users/mcasl/pc&#45;ule/Trabajo/investigacion/AMORE/AMORE&#45;WC/AMORE&#45;WC/pkg/AMORE/src/SimpleNetwork.cpp</text>
</a>
</g>
<!-- Node1&#45;&gt;Node11 -->
<g id="edge38" class="edge"><title>Node1&#45;&gt;Node11</title>
<path fill="none" stroke="midnightblue" d="M2141.94,-167.812C2301.24,-157.644 2555.9,-141.39 2710.77,-131.504"/>
<polygon fill="midnightblue" stroke="midnightblue" points="2141.34,-164.343 2131.58,-168.473 2141.79,-171.329 2141.34,-164.343"/>
</g>
<!-- Node12 -->
<g id="node33" class="node"><title>Node12</title>
<a xlink:href="_simple_neural_creator_8cpp.html" target="_top" xlink:title="/Users/mcasl/pc&#45;ule/Trabajo/investigacion/AMORE/AMORE&#45;WC/AMORE&#45;WC/pkg/AMORE/src/SimpleNeuralCreator.cpp">
<polygon fill="white" stroke="black" points="3129,-112.5 3129,-131.5 3687,-131.5 3687,-112.5 3129,-112.5"/>
<text text-anchor="middle" x="3408" y="-119.5" font-family="Helvetica,sans-Serif" font-size="10.00">/Users/mcasl/pc&#45;ule/Trabajo/investigacion/AMORE/AMORE&#45;WC/AMORE&#45;WC/pkg/AMORE/src/SimpleNeuralCreator.cpp</text>
</a>
</g>
<!-- Node1&#45;&gt;Node12 -->
<g id="edge42" class="edge"><title>Node1&#45;&gt;Node12</title>
<path fill="none" stroke="midnightblue" d="M2230.39,-168.1C2495.3,-157.955 2925.24,-141.489 3185.82,-131.509"/>
<polygon fill="midnightblue" stroke="midnightblue" points="2230.11,-164.608 2220.25,-168.488 2230.38,-171.603 2230.11,-164.608"/>
</g>
<!-- Node13 -->
<g id="node36" class="node"><title>Node13</title>
<a xlink:href="_connection_8cpp.html" target="_top" xlink:title="/Users/mcasl/pc&#45;ule/Trabajo/investigacion/AMORE/AMORE&#45;WC/AMORE&#45;WC/pkg/AMORE/src/Connection.cpp">
<polygon fill="white" stroke="black" points="3705.5,-112.5 3705.5,-131.5 4220.5,-131.5 4220.5,-112.5 3705.5,-112.5"/>
<text text-anchor="middle" x="3963" y="-119.5" font-family="Helvetica,sans-Serif" font-size="10.00">/Users/mcasl/pc&#45;ule/Trabajo/investigacion/AMORE/AMORE&#45;WC/AMORE&#45;WC/pkg/AMORE/src/Connection.cpp</text>
</a>
</g>
<!-- Node1&#45;&gt;Node13 -->
<g id="edge46" class="edge"><title>Node1&#45;&gt;Node13</title>
<path fill="none" stroke="midnightblue" d="M2282.66,-170.082C2619.97,-161.739 3198.95,-146.963 3696,-132 3701.33,-131.84 3706.72,-131.675 3712.16,-131.508"/>
<polygon fill="midnightblue" stroke="midnightblue" points="2282.17,-166.593 2272.26,-170.339 2282.34,-173.591 2282.17,-166.593"/>
</g>
<!-- Node2&#45;&gt;Node3 -->
<g id="edge4" class="edge"><title>Node2&#45;&gt;Node3</title>
<path fill="none" stroke="midnightblue" d="M549.253,-56.1678C873.939,-45.787 1407.68,-28.7225 1717.8,-18.8074"/>
<polygon fill="midnightblue" stroke="midnightblue" points="549.113,-52.6704 539.23,-56.4882 549.336,-59.6668 549.113,-52.6704"/>
</g>
<!-- Node4&#45;&gt;Node3 -->
<g id="edge10" class="edge"><title>Node4&#45;&gt;Node3</title>
<path fill="none" stroke="midnightblue" d="M799.818,-111.677C697.02,-103.159 602.113,-86.915 632,-56 669.046,-17.6789 1343.96,-11.2234 1717.75,-10.6046"/>
<polygon fill="midnightblue" stroke="midnightblue" points="799.539,-115.166 809.787,-112.478 800.099,-108.189 799.539,-115.166"/>
</g>
<!-- Node5 -->
<g id="node11" class="node"><title>Node5</title>
<a xlink:href="_simple_neuron_8cpp.html" target="_top" xlink:title="/Users/mcasl/pc&#45;ule/Trabajo/investigacion/AMORE/AMORE&#45;WC/AMORE&#45;WC/pkg/AMORE/src/SimpleNeuron.cpp">
<polygon fill="white" stroke="black" points="641.5,-56.5 641.5,-75.5 1168.5,-75.5 1168.5,-56.5 641.5,-56.5"/>
<text text-anchor="middle" x="905" y="-63.5" font-family="Helvetica,sans-Serif" font-size="10.00">/Users/mcasl/pc&#45;ule/Trabajo/investigacion/AMORE/AMORE&#45;WC/AMORE&#45;WC/pkg/AMORE/src/SimpleNeuron.cpp</text>
</a>
</g>
<!-- Node4&#45;&gt;Node5 -->
<g id="edge12" class="edge"><title>Node4&#45;&gt;Node5</title>
<path fill="none" stroke="midnightblue" d="M988.238,-107.862C967.841,-97.8492 940.334,-84.3458 922.63,-75.6545"/>
<polygon fill="midnightblue" stroke="midnightblue" points="986.808,-111.059 997.327,-112.324 989.892,-104.775 986.808,-111.059"/>
</g>
<!-- Node4&#45;&gt;Node6 -->
<g id="edge16" class="edge"><title>Node4&#45;&gt;Node6</title>
<path fill="none" stroke="midnightblue" d="M1093.12,-111.167C1174.11,-100.972 1299.44,-85.1963 1376.34,-75.5164"/>
<polygon fill="midnightblue" stroke="midnightblue" points="1092.46,-107.722 1082.98,-112.444 1093.34,-114.667 1092.46,-107.722"/>
</g>
<!-- Node5&#45;&gt;Node3 -->
<g id="edge14" class="edge"><title>Node5&#45;&gt;Node3</title>
<path fill="none" stroke="midnightblue" d="M1081.87,-55.9642C1280.66,-45.8081 1600.97,-29.4444 1795.44,-19.5091"/>
<polygon fill="midnightblue" stroke="midnightblue" points="1081.42,-52.4825 1071.61,-56.4882 1081.78,-59.4734 1081.42,-52.4825"/>
</g>
<!-- Node6&#45;&gt;Node3 -->
<g id="edge18" class="edge"><title>Node6&#45;&gt;Node3</title>
<path fill="none" stroke="midnightblue" d="M1535.95,-55.4145C1633.63,-45.232 1786.59,-29.2859 1880.21,-19.5264"/>
<polygon fill="midnightblue" stroke="midnightblue" points="1535.38,-51.9553 1525.79,-56.4733 1536.1,-58.9175 1535.38,-51.9553"/>
</g>
<!-- Node7&#45;&gt;Node3 -->
<g id="edge22" class="edge"><title>Node7&#45;&gt;Node3</title>
<path fill="none" stroke="midnightblue" d="M1962,-45.8045C1962,-36.9102 1962,-26.7798 1962,-19.7511"/>
<polygon fill="midnightblue" stroke="midnightblue" points="1958.5,-46.083 1962,-56.083 1965.5,-46.083 1958.5,-46.083"/>
</g>
<!-- Node8&#45;&gt;Node3 -->
<g id="edge26" class="edge"><title>Node8&#45;&gt;Node3</title>
<path fill="none" stroke="midnightblue" d="M2396.58,-55.4453C2297.03,-45.2642 2140.89,-29.2958 2045.37,-19.5264"/>
<polygon fill="midnightblue" stroke="midnightblue" points="2396.32,-58.9377 2406.63,-56.4733 2397.04,-51.974 2396.32,-58.9377"/>
</g>
<!-- Node9&#45;&gt;Node3 -->
<g id="edge30" class="edge"><title>Node9&#45;&gt;Node3</title>
<path fill="none" stroke="midnightblue" d="M2857.42,-55.9793C2655.26,-45.8243 2329.28,-29.4493 2131.39,-19.5091"/>
<polygon fill="midnightblue" stroke="midnightblue" points="2857.39,-59.482 2867.55,-56.4882 2857.74,-52.4908 2857.39,-59.482"/>
</g>
<!-- Node10&#45;&gt;Node3 -->
<g id="edge34" class="edge"><title>Node10&#45;&gt;Node3</title>
<path fill="none" stroke="midnightblue" d="M2553.36,-112.104C2845.77,-101.039 3300.52,-82.7778 3307,-76 3313.14,-69.5742 3313.18,-62.3896 3307,-56 3269.44,-17.1625 2583.76,-10.9569 2206.32,-10.5021"/>
<polygon fill="midnightblue" stroke="midnightblue" points="2552.89,-108.62 2543.03,-112.495 2553.15,-115.615 2552.89,-108.62"/>
</g>
<!-- Node11&#45;&gt;Node3 -->
<g id="edge40" class="edge"><title>Node11&#45;&gt;Node3</title>
<path fill="none" stroke="midnightblue" d="M3095.76,-111.895C3202.92,-105.368 3307.28,-94.3596 3324,-76 3329.98,-69.4278 3330.18,-62.3883 3324,-56 3285.85,-16.5738 2587.86,-10.6571 2206.31,-10.3884"/>
<polygon fill="midnightblue" stroke="midnightblue" points="3095.49,-108.404 3085.72,-112.493 3095.91,-115.392 3095.49,-108.404"/>
</g>
<!-- Node12&#45;&gt;Node3 -->
<g id="edge44" class="edge"><title>Node12&#45;&gt;Node3</title>
<path fill="none" stroke="midnightblue" d="M3396.23,-103.863C3384.35,-88.1811 3364.44,-65.9519 3341,-56 3289.86,-34.29 2588.31,-20.4096 2206.13,-14.4148"/>
<polygon fill="midnightblue" stroke="midnightblue" points="3393.57,-106.149 3402.27,-112.198 3399.24,-102.045 3393.57,-106.149"/>
</g>
</g>
</svg>
