<?xml version="1.0" encoding="UTF-8" standalone="no"?>
<!DOCTYPE svg PUBLIC "-//W3C//DTD SVG 1.1//EN"
 "http://www.w3.org/Graphics/SVG/1.1/DTD/svg11.dtd">
<!-- Generated by graphviz version 2.28.0 (20110610.2051)
 -->
<!-- Title: G Pages: 1 -->
<svg width="375pt" height="84pt"
 viewBox="0.00 0.00 375.00 84.00" xmlns="http://www.w3.org/2000/svg" xmlns:xlink="http://www.w3.org/1999/xlink">
<g id="graph1" class="graph" transform="scale(1 1) rotate(0) translate(4 80)">
<title>G</title>
<polygon fill="white" stroke="white" points="-4,5 -4,-80 372,-80 372,5 -4,5"/>
<!-- Node1 -->
<g id="node1" class="node"><title>Node1</title>
<polygon fill="#bfbfbf" stroke="black" points="89,-56.5 89,-75.5 277,-75.5 277,-56.5 89,-56.5"/>
<text text-anchor="middle" x="183" y="-63.5" font-family="Helvetica,sans-Serif" font-size="10.00">pkg/AMORE/src/dia/PredictBehavior.h</text>
</g>
<!-- Node2 -->
<g id="node3" class="node"><title>Node2</title>
<a xlink:href="_m_l_pbehavior_8h.html" target="_top" xlink:title="pkg/AMORE/src/dia/MLPbehavior.h">
<polygon fill="white" stroke="black" points="-0.5,-0.5 -0.5,-19.5 174.5,-19.5 174.5,-0.5 -0.5,-0.5"/>
<text text-anchor="middle" x="87" y="-7.5" font-family="Helvetica,sans-Serif" font-size="10.00">pkg/AMORE/src/dia/MLPbehavior.h</text>
</a>
</g>
<!-- Node1&#45;&gt;Node2 -->
<g id="edge2" class="edge"><title>Node1&#45;&gt;Node2</title>
<path fill="none" stroke="midnightblue" d="M158.426,-51.1774C140.761,-41.2407 117.487,-28.1492 102.386,-19.6545"/>
<polygon fill="midnightblue" stroke="midnightblue" points="157.144,-54.4718 167.576,-56.324 160.576,-48.3708 157.144,-54.4718"/>
</g>
<!-- Node3 -->
<g id="node5" class="node"><title>Node3</title>
<a xlink:href="_r_b_fbehavior_8h.html" target="_top" xlink:title="pkg/AMORE/src/dia/RBFbehavior.h">
<polygon fill="white" stroke="black" points="192.5,-0.5 192.5,-19.5 367.5,-19.5 367.5,-0.5 192.5,-0.5"/>
<text text-anchor="middle" x="280" y="-7.5" font-family="Helvetica,sans-Serif" font-size="10.00">pkg/AMORE/src/dia/RBFbehavior.h</text>
</a>
</g>
<!-- Node1&#45;&gt;Node3 -->
<g id="edge4" class="edge"><title>Node1&#45;&gt;Node3</title>
<path fill="none" stroke="midnightblue" d="M207.335,-51.4526C225.243,-41.4835 249.054,-28.2279 264.454,-19.6545"/>
<polygon fill="midnightblue" stroke="midnightblue" points="205.62,-48.4018 198.585,-56.324 209.025,-54.5179 205.62,-48.4018"/>
</g>
</g>
</svg>
