<?xml version="1.0" encoding="UTF-8" standalone="no"?>
<!DOCTYPE svg PUBLIC "-//W3C//DTD SVG 1.1//EN"
 "http://www.w3.org/Graphics/SVG/1.1/DTD/svg11.dtd">
<!-- Generated by graphviz version 2.28.0 (20110610.2051)
 -->
<!-- Title: G Pages: 1 -->
<svg width="471pt" height="196pt"
 viewBox="0.00 0.00 470.71 196.00" xmlns="http://www.w3.org/2000/svg" xmlns:xlink="http://www.w3.org/1999/xlink">
<g id="graph1" class="graph" transform="scale(1 1) rotate(0) translate(4 192)">
<title>G</title>
<polygon fill="white" stroke="white" points="-4,5 -4,-192 467.714,-192 467.714,5 -4,5"/>
<!-- Node1 -->
<g id="node1" class="node"><title>Node1</title>
<polygon fill="#bfbfbf" stroke="black" points="127.714,-168.5 127.714,-187.5 315.714,-187.5 315.714,-168.5 127.714,-168.5"/>
<text text-anchor="middle" x="221.714" y="-175.5" font-family="Helvetica,sans-Serif" font-size="10.00">pkg/AMORE/src/dia/PredictBehavior.h</text>
</g>
<!-- Node2 -->
<g id="node3" class="node"><title>Node2</title>
<a xlink:href="_a_m_o_r_e_8h.html" target="_top" xlink:title="pkg/AMORE/src/AMORE.h">
<polygon fill="white" stroke="black" points="16.2138,-0.5 16.2138,-19.5 153.214,-19.5 153.214,-0.5 16.2138,-0.5"/>
<text text-anchor="middle" x="84.7138" y="-7.5" font-family="Helvetica,sans-Serif" font-size="10.00">pkg/AMORE/src/AMORE.h</text>
</a>
</g>
<!-- Node1&#45;&gt;Node2 -->
<g id="edge2" class="edge"><title>Node1&#45;&gt;Node2</title>
<path fill="none" stroke="midnightblue" d="M117.568,-167.341C70.8496,-160.64 23.0198,-149.644 8.71383,-132 -22.8455,-93.0766 42.7188,-40.2422 71.783,-19.6846"/>
<polygon fill="midnightblue" stroke="midnightblue" points="117.125,-170.813 127.508,-168.706 118.078,-163.878 117.125,-170.813"/>
</g>
<!-- Node3 -->
<g id="node5" class="node"><title>Node3</title>
<a xlink:href="_m_l_pbehavior_8h.html" target="_top" xlink:title="pkg/AMORE/src/dia/MLPbehavior.h">
<polygon fill="white" stroke="black" points="18.2138,-112.5 18.2138,-131.5 193.214,-131.5 193.214,-112.5 18.2138,-112.5"/>
<text text-anchor="middle" x="105.714" y="-119.5" font-family="Helvetica,sans-Serif" font-size="10.00">pkg/AMORE/src/dia/MLPbehavior.h</text>
</a>
</g>
<!-- Node1&#45;&gt;Node3 -->
<g id="edge4" class="edge"><title>Node1&#45;&gt;Node3</title>
<path fill="none" stroke="midnightblue" d="M193.994,-164.096C172.322,-154.007 142.812,-140.27 124.008,-131.516"/>
<polygon fill="midnightblue" stroke="midnightblue" points="192.79,-167.396 203.333,-168.444 195.745,-161.05 192.79,-167.396"/>
</g>
<!-- Node4 -->
<g id="node8" class="node"><title>Node4</title>
<a xlink:href="_m_l_pbehavior_8cpp.html" target="_top" xlink:title="pkg/AMORE/src/MLPbehavior.cpp">
<polygon fill="white" stroke="black" points="56.2138,-56.5 56.2138,-75.5 227.214,-75.5 227.214,-56.5 56.2138,-56.5"/>
<text text-anchor="middle" x="141.714" y="-63.5" font-family="Helvetica,sans-Serif" font-size="10.00">pkg/AMORE/src/MLPbehavior.cpp</text>
</a>
</g>
<!-- Node1&#45;&gt;Node4 -->
<g id="edge16" class="edge"><title>Node1&#45;&gt;Node4</title>
<path fill="none" stroke="midnightblue" d="M219.096,-158.024C216.47,-144.262 211.371,-125.732 201.714,-112 190.479,-96.0237 171.81,-83.3201 158.277,-75.5391"/>
<polygon fill="midnightblue" stroke="midnightblue" points="215.7,-158.947 220.765,-168.252 222.609,-157.819 215.7,-158.947"/>
</g>
<!-- Node5 -->
<g id="node11" class="node"><title>Node5</title>
<a xlink:href="_predict_behavior_8cpp.html" target="_top" xlink:title="pkg/AMORE/src/PredictBehavior.cpp">
<polygon fill="white" stroke="black" points="245.214,-56.5 245.214,-75.5 430.214,-75.5 430.214,-56.5 245.214,-56.5"/>
<text text-anchor="middle" x="337.714" y="-63.5" font-family="Helvetica,sans-Serif" font-size="10.00">pkg/AMORE/src/PredictBehavior.cpp</text>
</a>
</g>
<!-- Node1&#45;&gt;Node5 -->
<g id="edge12" class="edge"><title>Node1&#45;&gt;Node5</title>
<path fill="none" stroke="midnightblue" d="M235.315,-160.116C246.601,-146.523 263.39,-127.239 279.714,-112 294.433,-98.2586 313.077,-84.3378 325.194,-75.6935"/>
<polygon fill="midnightblue" stroke="midnightblue" points="232.382,-158.173 228.753,-168.127 237.797,-162.609 232.382,-158.173"/>
</g>
<!-- Node6 -->
<g id="node15" class="node"><title>Node6</title>
<a xlink:href="_r_b_fbehavior_8h.html" target="_top" xlink:title="pkg/AMORE/src/dia/RBFbehavior.h">
<polygon fill="white" stroke="black" points="288.214,-112.5 288.214,-131.5 463.214,-131.5 463.214,-112.5 288.214,-112.5"/>
<text text-anchor="middle" x="375.714" y="-119.5" font-family="Helvetica,sans-Serif" font-size="10.00">pkg/AMORE/src/dia/RBFbehavior.h</text>
</a>
</g>
<!-- Node1&#45;&gt;Node6 -->
<g id="edge18" class="edge"><title>Node1&#45;&gt;Node6</title>
<path fill="none" stroke="midnightblue" d="M255.824,-165.039C284.801,-154.879 325.676,-140.546 351.426,-131.516"/>
<polygon fill="midnightblue" stroke="midnightblue" points="254.394,-161.832 246.116,-168.444 256.71,-168.437 254.394,-161.832"/>
</g>
<!-- Node3&#45;&gt;Node2 -->
<g id="edge6" class="edge"><title>Node3&#45;&gt;Node2</title>
<path fill="none" stroke="midnightblue" d="M77.885,-107.274C65.9788,-99.8059 53.3168,-89.3405 46.7138,-76 36.3925,-55.147 58.7957,-31.8678 73.4059,-19.618"/>
<polygon fill="midnightblue" stroke="midnightblue" points="76.3224,-110.413 86.7297,-112.398 79.8317,-104.357 76.3224,-110.413"/>
</g>
<!-- Node3&#45;&gt;Node4 -->
<g id="edge8" class="edge"><title>Node3&#45;&gt;Node4</title>
<path fill="none" stroke="midnightblue" d="M117.337,-103.566C123.531,-94.2747 130.882,-83.2484 135.88,-75.7511"/>
<polygon fill="midnightblue" stroke="midnightblue" points="114.293,-101.821 111.658,-112.083 120.118,-105.704 114.293,-101.821"/>
</g>
<!-- Node4&#45;&gt;Node2 -->
<g id="edge10" class="edge"><title>Node4&#45;&gt;Node2</title>
<path fill="none" stroke="midnightblue" d="M125.092,-49.2533C114.98,-39.6731 102.437,-27.7906 94.0385,-19.8339"/>
<polygon fill="midnightblue" stroke="midnightblue" points="122.889,-51.9873 132.556,-56.324 127.703,-46.9056 122.889,-51.9873"/>
</g>
<!-- Node5&#45;&gt;Node2 -->
<g id="edge14" class="edge"><title>Node5&#45;&gt;Node2</title>
<path fill="none" stroke="midnightblue" d="M287.796,-54.3456C239.983,-44.1405 168.766,-28.94 124.615,-19.5164"/>
<polygon fill="midnightblue" stroke="midnightblue" points="287.115,-57.779 297.625,-56.4435 288.576,-50.9332 287.115,-57.779"/>
</g>
</g>
</svg>
