<?xml version="1.0" encoding="UTF-8" standalone="no"?>
<!DOCTYPE svg PUBLIC "-//W3C//DTD SVG 1.1//EN"
 "http://www.w3.org/Graphics/SVG/1.1/DTD/svg11.dtd">
<!-- Generated by graphviz version 2.28.0 (20110610.2051)
 -->
<!-- Title: G Pages: 1 -->
<svg width="434pt" height="196pt"
 viewBox="0.00 0.00 434.00 196.00" xmlns="http://www.w3.org/2000/svg" xmlns:xlink="http://www.w3.org/1999/xlink">
<g id="graph1" class="graph" transform="scale(1 1) rotate(0) translate(4 192)">
<title>G</title>
<polygon fill="white" stroke="white" points="-4,5 -4,-192 431,-192 431,5 -4,5"/>
<!-- Node1 -->
<g id="node1" class="node"><title>Node1</title>
<polygon fill="#bfbfbf" stroke="black" points="71,-168.5 71,-187.5 259,-187.5 259,-168.5 71,-168.5"/>
<text text-anchor="middle" x="165" y="-175.5" font-family="Helvetica,sans-Serif" font-size="10.00">pkg/AMORE/src/dia/PredictBehavior.h</text>
</g>
<!-- Node2 -->
<g id="node3" class="node"><title>Node2</title>
<a xlink:href="_a_m_o_r_e_8h.html" target="_top" xlink:title="pkg/AMORE/src/AMORE.h">
<polygon fill="white" stroke="black" points="-0.5,-0.5 -0.5,-19.5 136.5,-19.5 136.5,-0.5 -0.5,-0.5"/>
<text text-anchor="middle" x="68" y="-7.5" font-family="Helvetica,sans-Serif" font-size="10.00">pkg/AMORE/src/AMORE.h</text>
</a>
</g>
<!-- Node1&#45;&gt;Node2 -->
<g id="edge2" class="edge"><title>Node1&#45;&gt;Node2</title>
<path fill="none" stroke="midnightblue" d="M101.414,-166.47C63.804,-158.801 21.3529,-147.118 10,-132 -18.3975,-94.1855 34.712,-40.2577 57.9199,-19.549"/>
<polygon fill="midnightblue" stroke="midnightblue" points="100.867,-169.93 111.355,-168.43 102.221,-163.062 100.867,-169.93"/>
</g>
<!-- Node3 -->
<g id="node5" class="node"><title>Node3</title>
<a xlink:href="_m_l_pbehavior_8h.html" target="_top" xlink:title="pkg/AMORE/src/dia/MLPbehavior.h">
<polygon fill="white" stroke="black" points="19.5,-112.5 19.5,-131.5 194.5,-131.5 194.5,-112.5 19.5,-112.5"/>
<text text-anchor="middle" x="107" y="-119.5" font-family="Helvetica,sans-Serif" font-size="10.00">pkg/AMORE/src/dia/MLPbehavior.h</text>
</a>
</g>
<!-- Node1&#45;&gt;Node3 -->
<g id="edge4" class="edge"><title>Node1&#45;&gt;Node3</title>
<path fill="none" stroke="midnightblue" d="M148.087,-161.253C137.797,-151.673 125.034,-139.791 116.488,-131.834"/>
<polygon fill="midnightblue" stroke="midnightblue" points="145.977,-164.071 155.681,-168.324 150.747,-158.948 145.977,-164.071"/>
</g>
<!-- Node4 -->
<g id="node8" class="node"><title>Node4</title>
<a xlink:href="_m_l_pbehavior_8cpp.html" target="_top" xlink:title="pkg/AMORE/src/MLPbehavior.cpp">
<polygon fill="white" stroke="black" points="96.5,-56.5 96.5,-75.5 267.5,-75.5 267.5,-56.5 96.5,-56.5"/>
<text text-anchor="middle" x="182" y="-63.5" font-family="Helvetica,sans-Serif" font-size="10.00">pkg/AMORE/src/MLPbehavior.cpp</text>
</a>
</g>
<!-- Node1&#45;&gt;Node4 -->
<g id="edge12" class="edge"><title>Node1&#45;&gt;Node4</title>
<path fill="none" stroke="midnightblue" d="M183.109,-161.237C190.812,-153.335 198.943,-143.092 203,-132 210.251,-112.175 197.266,-88.4944 188.68,-75.9043"/>
<polygon fill="midnightblue" stroke="midnightblue" points="180.525,-158.865 175.714,-168.305 185.362,-163.925 180.525,-158.865"/>
</g>
<!-- Node5 -->
<g id="node12" class="node"><title>Node5</title>
<a xlink:href="_r_b_fbehavior_8h.html" target="_top" xlink:title="pkg/AMORE/src/dia/RBFbehavior.h">
<polygon fill="white" stroke="black" points="251.5,-112.5 251.5,-131.5 426.5,-131.5 426.5,-112.5 251.5,-112.5"/>
<text text-anchor="middle" x="339" y="-119.5" font-family="Helvetica,sans-Serif" font-size="10.00">pkg/AMORE/src/dia/RBFbehavior.h</text>
</a>
</g>
<!-- Node1&#45;&gt;Node5 -->
<g id="edge14" class="edge"><title>Node1&#45;&gt;Node5</title>
<path fill="none" stroke="midnightblue" d="M202.261,-165.436C235.067,-155.255 282.083,-140.664 311.558,-131.516"/>
<polygon fill="midnightblue" stroke="midnightblue" points="201.084,-162.137 192.571,-168.444 203.159,-168.822 201.084,-162.137"/>
</g>
<!-- Node3&#45;&gt;Node2 -->
<g id="edge6" class="edge"><title>Node3&#45;&gt;Node2</title>
<path fill="none" stroke="midnightblue" d="M98.3124,-102.946C94.573,-94.8145 90.3098,-85.0306 87,-76 79.7175,-56.13 73.2827,-32.0672 70.1039,-19.5311"/>
<polygon fill="midnightblue" stroke="midnightblue" points="95.233,-104.622 102.658,-112.18 101.567,-101.642 95.233,-104.622"/>
</g>
<!-- Node3&#45;&gt;Node4 -->
<g id="edge8" class="edge"><title>Node3&#45;&gt;Node4</title>
<path fill="none" stroke="midnightblue" d="M127.305,-106.38C140.861,-96.6204 158.242,-84.1057 169.731,-75.8339"/>
<polygon fill="midnightblue" stroke="midnightblue" points="125.12,-103.641 119.05,-112.324 129.21,-109.321 125.12,-103.641"/>
</g>
<!-- Node4&#45;&gt;Node2 -->
<g id="edge10" class="edge"><title>Node4&#45;&gt;Node2</title>
<path fill="none" stroke="midnightblue" d="M154.758,-52.096C133.46,-42.0073 104.458,-28.2697 85.9791,-19.5164"/>
<polygon fill="midnightblue" stroke="midnightblue" points="153.401,-55.3257 163.936,-56.4435 156.397,-48.9995 153.401,-55.3257"/>
</g>
</g>
</svg>
