<?xml version="1.0" encoding="UTF-8" standalone="no"?>
<!DOCTYPE svg PUBLIC "-//W3C//DTD SVG 1.1//EN"
 "http://www.w3.org/Graphics/SVG/1.1/DTD/svg11.dtd">
<!-- Generated by graphviz version 2.28.0 (20110610.2051)
 -->
<!-- Title: G Pages: 1 -->
<svg width="300pt" height="140pt"
 viewBox="0.00 0.00 300.00 140.00" xmlns="http://www.w3.org/2000/svg" xmlns:xlink="http://www.w3.org/1999/xlink">
<g id="graph1" class="graph" transform="scale(1 1) rotate(0) translate(4 136)">
<title>G</title>
<polygon fill="white" stroke="white" points="-4,5 -4,-136 297,-136 297,5 -4,5"/>
<!-- Node1 -->
<g id="node1" class="node"><title>Node1</title>
<polygon fill="#bfbfbf" stroke="black" points="-0.5,-112.5 -0.5,-131.5 224.5,-131.5 224.5,-112.5 -0.5,-112.5"/>
<text text-anchor="middle" x="112" y="-119.5" font-family="Helvetica,sans-Serif" font-size="10.00">pkg/AMORE/src/dia/SimpleContainerIterator.h</text>
</g>
<!-- Node2 -->
<g id="node3" class="node"><title>Node2</title>
<a xlink:href="_a_m_o_r_e_8h.html" target="_top" xlink:title="pkg/AMORE/src/AMORE.h">
<polygon fill="white" stroke="black" points="43.5,-0.5 43.5,-19.5 180.5,-19.5 180.5,-0.5 43.5,-0.5"/>
<text text-anchor="middle" x="112" y="-7.5" font-family="Helvetica,sans-Serif" font-size="10.00">pkg/AMORE/src/AMORE.h</text>
</a>
</g>
<!-- Node1&#45;&gt;Node2 -->
<g id="edge2" class="edge"><title>Node1&#45;&gt;Node2</title>
<path fill="none" stroke="midnightblue" d="M88.751,-106.683C78.5156,-98.9876 67.5679,-88.5019 62,-76 51.8636,-53.2401 78.9506,-31.2227 97.1063,-19.5684"/>
<polygon fill="midnightblue" stroke="midnightblue" points="86.8442,-109.621 97.0475,-112.474 90.8509,-103.881 86.8442,-109.621"/>
</g>
<!-- Node3 -->
<g id="node5" class="node"><title>Node3</title>
<a xlink:href="_simple_container_iterator_8cpp.html" target="_top" xlink:title="pkg/AMORE/src/SimpleContainerIterator.cpp">
<polygon fill="white" stroke="black" points="71.5,-56.5 71.5,-75.5 292.5,-75.5 292.5,-56.5 71.5,-56.5"/>
<text text-anchor="middle" x="182" y="-63.5" font-family="Helvetica,sans-Serif" font-size="10.00">pkg/AMORE/src/SimpleContainerIterator.cpp</text>
</a>
</g>
<!-- Node1&#45;&gt;Node3 -->
<g id="edge4" class="edge"><title>Node1&#45;&gt;Node3</title>
<path fill="none" stroke="midnightblue" d="M131.314,-106.101C143.912,-96.3824 159.928,-84.0269 170.549,-75.8339"/>
<polygon fill="midnightblue" stroke="midnightblue" points="129.027,-103.445 123.247,-112.324 133.302,-108.987 129.027,-103.445"/>
</g>
<!-- Node3&#45;&gt;Node2 -->
<g id="edge6" class="edge"><title>Node3&#45;&gt;Node2</title>
<path fill="none" stroke="midnightblue" d="M162.686,-50.1008C150.088,-40.3824 134.072,-28.0269 123.451,-19.8339"/>
<polygon fill="midnightblue" stroke="midnightblue" points="160.698,-52.9871 170.753,-56.324 164.973,-47.4446 160.698,-52.9871"/>
</g>
</g>
</svg>
