<?xml version="1.0" encoding="UTF-8" standalone="no"?>
<!DOCTYPE svg PUBLIC "-//W3C//DTD SVG 1.1//EN"
 "http://www.w3.org/Graphics/SVG/1.1/DTD/svg11.dtd">
<!-- Generated by graphviz version 2.28.0 (20110610.2051)
 -->
<!-- Title: G Pages: 1 -->
<svg width="228pt" height="140pt"
 viewBox="0.00 0.00 228.00 140.00" xmlns="http://www.w3.org/2000/svg" xmlns:xlink="http://www.w3.org/1999/xlink">
<g id="graph1" class="graph" transform="scale(1 1) rotate(0) translate(4 136)">
<title>G</title>
<polygon fill="white" stroke="white" points="-4,5 -4,-136 225,-136 225,5 -4,5"/>
<!-- Node1 -->
<g id="node1" class="node"><title>Node1</title>
<polygon fill="#bfbfbf" stroke="black" points="-0.5,-112.5 -0.5,-131.5 206.5,-131.5 206.5,-112.5 -0.5,-112.5"/>
<text text-anchor="middle" x="103" y="-119.5" font-family="Helvetica,sans-Serif" font-size="10.00">pkg/AMORE/src/SimpleNeuralCreator.cpp</text>
</g>
<!-- Node2 -->
<g id="node3" class="node"><title>Node2</title>
<a xlink:href="_neural_creator_8h.html" target="_top" xlink:title="dia/NeuralCreator.h">
<polygon fill="white" stroke="black" points="51,-0.5 51,-19.5 155,-19.5 155,-0.5 51,-0.5"/>
<text text-anchor="middle" x="103" y="-7.5" font-family="Helvetica,sans-Serif" font-size="10.00">dia/NeuralCreator.h</text>
</a>
</g>
<!-- Node1&#45;&gt;Node2 -->
<g id="edge2" class="edge"><title>Node1&#45;&gt;Node2</title>
<path fill="none" stroke="midnightblue" d="M94.8344,-112.451C84.236,-100.283 67.7899,-77.1004 74,-56 77.0124,-45.7645 83.1546,-35.6599 89.0139,-27.627"/>
<polygon fill="midnightblue" stroke="midnightblue" points="91.9316,-29.5773 95.3271,-19.5413 86.4142,-25.2694 91.9316,-29.5773"/>
</g>
<!-- Node3 -->
<g id="node5" class="node"><title>Node3</title>
<a xlink:href="_simple_neural_creator_8h.html" target="_top" xlink:title="dia/SimpleNeuralCreator.h">
<polygon fill="white" stroke="black" points="83.5,-56.5 83.5,-75.5 220.5,-75.5 220.5,-56.5 83.5,-56.5"/>
<text text-anchor="middle" x="152" y="-63.5" font-family="Helvetica,sans-Serif" font-size="10.00">dia/SimpleNeuralCreator.h</text>
</a>
</g>
<!-- Node1&#45;&gt;Node3 -->
<g id="edge4" class="edge"><title>Node1&#45;&gt;Node3</title>
<path fill="none" stroke="midnightblue" d="M111.091,-112.083C118.155,-104.298 128.588,-92.8015 137.149,-83.3665"/>
<polygon fill="midnightblue" stroke="midnightblue" points="139.931,-85.5087 144.059,-75.7511 134.747,-80.8047 139.931,-85.5087"/>
</g>
<!-- Node3&#45;&gt;Node2 -->
<g id="edge6" class="edge"><title>Node3&#45;&gt;Node2</title>
<path fill="none" stroke="midnightblue" d="M143.909,-56.083C136.845,-48.2982 126.412,-36.8015 117.851,-27.3665"/>
<polygon fill="midnightblue" stroke="midnightblue" points="120.253,-24.8047 110.941,-19.7511 115.069,-29.5087 120.253,-24.8047"/>
</g>
</g>
</svg>
