<?xml version="1.0" encoding="UTF-8" standalone="no"?>
<!DOCTYPE svg PUBLIC "-//W3C//DTD SVG 1.1//EN"
 "http://www.w3.org/Graphics/SVG/1.1/DTD/svg11.dtd">
<!-- Generated by graphviz version 2.28.0 (20110610.2051)
 -->
<!-- Title: G Pages: 1 -->
<svg width="337pt" height="196pt"
 viewBox="0.00 0.00 337.00 196.00" xmlns="http://www.w3.org/2000/svg" xmlns:xlink="http://www.w3.org/1999/xlink">
<g id="graph1" class="graph" transform="scale(1 1) rotate(0) translate(4 192)">
<title>G</title>
<polygon fill="white" stroke="white" points="-4,5 -4,-192 334,-192 334,5 -4,5"/>
<!-- Node1 -->
<g id="node1" class="node"><title>Node1</title>
<polygon fill="#bfbfbf" stroke="black" points="-0.5,-168.5 -0.5,-187.5 204.5,-187.5 204.5,-168.5 -0.5,-168.5"/>
<text text-anchor="middle" x="102" y="-175.5" font-family="Helvetica,sans-Serif" font-size="10.00">pkg/AMORE/src/dia/SimulationVariables.h</text>
</g>
<!-- Node2 -->
<g id="node3" class="node"><title>Node2</title>
<a xlink:href="dia_2_neuron_8h.html" target="_top" xlink:title="pkg/AMORE/src/dia/Neuron.h">
<polygon fill="white" stroke="black" points="28,-112.5 28,-131.5 176,-131.5 176,-112.5 28,-112.5"/>
<text text-anchor="middle" x="102" y="-119.5" font-family="Helvetica,sans-Serif" font-size="10.00">pkg/AMORE/src/dia/Neuron.h</text>
</a>
</g>
<!-- Node1&#45;&gt;Node2 -->
<g id="edge2" class="edge"><title>Node1&#45;&gt;Node2</title>
<path fill="none" stroke="midnightblue" d="M102,-157.805C102,-148.91 102,-138.78 102,-131.751"/>
<polygon fill="midnightblue" stroke="midnightblue" points="98.5001,-158.083 102,-168.083 105.5,-158.083 98.5001,-158.083"/>
</g>
<!-- Node3 -->
<g id="node5" class="node"><title>Node3</title>
<a xlink:href="_a_m_o_r_e_8h.html" target="_top" xlink:title="pkg/AMORE/src/AMORE.h">
<polygon fill="white" stroke="black" points="33.5,-0.5 33.5,-19.5 170.5,-19.5 170.5,-0.5 33.5,-0.5"/>
<text text-anchor="middle" x="102" y="-7.5" font-family="Helvetica,sans-Serif" font-size="10.00">pkg/AMORE/src/AMORE.h</text>
</a>
</g>
<!-- Node2&#45;&gt;Node3 -->
<g id="edge4" class="edge"><title>Node2&#45;&gt;Node3</title>
<path fill="none" stroke="midnightblue" d="M65.7635,-108.154C51.3309,-101.046 36.2215,-90.6218 28,-76 13.8366,-50.8105 50.623,-30.5516 77.262,-19.6911"/>
<polygon fill="midnightblue" stroke="midnightblue" points="64.5165,-111.431 75.0708,-112.356 67.3973,-105.051 64.5165,-111.431"/>
</g>
<!-- Node4 -->
<g id="node7" class="node"><title>Node4</title>
<a xlink:href="_con_8cpp.html" target="_top" xlink:title="pkg/AMORE/src/Con.cpp">
<polygon fill="white" stroke="black" points="37,-56.5 37,-75.5 167,-75.5 167,-56.5 37,-56.5"/>
<text text-anchor="middle" x="102" y="-63.5" font-family="Helvetica,sans-Serif" font-size="10.00">pkg/AMORE/src/Con.cpp</text>
</a>
</g>
<!-- Node2&#45;&gt;Node4 -->
<g id="edge6" class="edge"><title>Node2&#45;&gt;Node4</title>
<path fill="none" stroke="midnightblue" d="M102,-101.805C102,-92.9102 102,-82.7798 102,-75.7511"/>
<polygon fill="midnightblue" stroke="midnightblue" points="98.5001,-102.083 102,-112.083 105.5,-102.083 98.5001,-102.083"/>
</g>
<!-- Node5 -->
<g id="node10" class="node"><title>Node5</title>
<a xlink:href="_neuron_8cpp.html" target="_top" xlink:title="pkg/AMORE/src/Neuron.cpp">
<polygon fill="white" stroke="black" points="185,-56.5 185,-75.5 329,-75.5 329,-56.5 185,-56.5"/>
<text text-anchor="middle" x="257" y="-63.5" font-family="Helvetica,sans-Serif" font-size="10.00">pkg/AMORE/src/Neuron.cpp</text>
</a>
</g>
<!-- Node2&#45;&gt;Node5 -->
<g id="edge10" class="edge"><title>Node2&#45;&gt;Node5</title>
<path fill="none" stroke="midnightblue" d="M136.332,-109.039C165.497,-98.8786 206.637,-84.5457 232.555,-75.5164"/>
<polygon fill="midnightblue" stroke="midnightblue" points="134.852,-105.848 126.56,-112.444 137.155,-112.459 134.852,-105.848"/>
</g>
<!-- Node4&#45;&gt;Node3 -->
<g id="edge8" class="edge"><title>Node4&#45;&gt;Node3</title>
<path fill="none" stroke="midnightblue" d="M102,-45.8045C102,-36.9102 102,-26.7798 102,-19.7511"/>
<polygon fill="midnightblue" stroke="midnightblue" points="98.5001,-46.083 102,-56.083 105.5,-46.083 98.5001,-46.083"/>
</g>
<!-- Node5&#45;&gt;Node3 -->
<g id="edge12" class="edge"><title>Node5&#45;&gt;Node3</title>
<path fill="none" stroke="midnightblue" d="M222.668,-53.0392C193.503,-42.8786 152.363,-28.5457 126.445,-19.5164"/>
<polygon fill="midnightblue" stroke="midnightblue" points="221.845,-56.4587 232.44,-56.4435 224.148,-49.8484 221.845,-56.4587"/>
</g>
</g>
</svg>
