<?xml version="1.0" encoding="UTF-8" standalone="no"?>
<!DOCTYPE svg PUBLIC "-//W3C//DTD SVG 1.1//EN"
 "http://www.w3.org/Graphics/SVG/1.1/DTD/svg11.dtd">
<!-- Generated by graphviz version 2.28.0 (20110610.2051)
 -->
<!-- Title: G Pages: 1 -->
<svg width="590pt" height="140pt"
 viewBox="0.00 0.00 590.00 140.00" xmlns="http://www.w3.org/2000/svg" xmlns:xlink="http://www.w3.org/1999/xlink">
<g id="graph1" class="graph" transform="scale(1 1) rotate(0) translate(4 136)">
<title>G</title>
<polygon fill="white" stroke="white" points="-4,5 -4,-136 587,-136 587,5 -4,5"/>
<!-- Node1 -->
<g id="node1" class="node"><title>Node1</title>
<polygon fill="#bfbfbf" stroke="black" points="0,-112.5 0,-131.5 582,-131.5 582,-112.5 0,-112.5"/>
<text text-anchor="middle" x="291" y="-119.5" font-family="Helvetica,sans-Serif" font-size="10.00">/Users/mcasl/pc&#45;ule/Trabajo/investigacion/AMORE/AMORE&#45;WC/AMORE&#45;WC/pkg/AMORE/src/classHeaders/SquareFactory.h</text>
</g>
<!-- Node2 -->
<g id="node3" class="node"><title>Node2</title>
<a xlink:href="_m_l_pfactory_8h.html" target="_top" xlink:title="MLPfactory.h">
<polygon fill="white" stroke="black" points="252.5,-56.5 252.5,-75.5 329.5,-75.5 329.5,-56.5 252.5,-56.5"/>
<text text-anchor="middle" x="291" y="-63.5" font-family="Helvetica,sans-Serif" font-size="10.00">MLPfactory.h</text>
</a>
</g>
<!-- Node1&#45;&gt;Node2 -->
<g id="edge2" class="edge"><title>Node1&#45;&gt;Node2</title>
<path fill="none" stroke="midnightblue" d="M291,-112.083C291,-105.006 291,-94.8611 291,-85.9865"/>
<polygon fill="midnightblue" stroke="midnightblue" points="294.5,-85.751 291,-75.7511 287.5,-85.7511 294.5,-85.751"/>
</g>
<!-- Node3 -->
<g id="node5" class="node"><title>Node3</title>
<a xlink:href="_neural_factory_8h.html" target="_top" xlink:title="NeuralFactory.h">
<polygon fill="white" stroke="black" points="246.5,-0.5 246.5,-19.5 335.5,-19.5 335.5,-0.5 246.5,-0.5"/>
<text text-anchor="middle" x="291" y="-7.5" font-family="Helvetica,sans-Serif" font-size="10.00">NeuralFactory.h</text>
</a>
</g>
<!-- Node2&#45;&gt;Node3 -->
<g id="edge4" class="edge"><title>Node2&#45;&gt;Node3</title>
<path fill="none" stroke="midnightblue" d="M291,-56.083C291,-49.0059 291,-38.8611 291,-29.9865"/>
<polygon fill="midnightblue" stroke="midnightblue" points="294.5,-29.751 291,-19.7511 287.5,-29.7511 294.5,-29.751"/>
</g>
</g>
</svg>
