<?xml version="1.0" encoding="UTF-8" standalone="no"?>
<!DOCTYPE svg PUBLIC "-//W3C//DTD SVG 1.1//EN"
 "http://www.w3.org/Graphics/SVG/1.1/DTD/svg11.dtd">
<!-- Generated by graphviz version 2.28.0 (20110610.2051)
 -->
<!-- Title: G Pages: 1 -->
<svg width="140pt" height="140pt"
 viewBox="0.00 0.00 140.00 140.00" xmlns="http://www.w3.org/2000/svg" xmlns:xlink="http://www.w3.org/1999/xlink">
<g id="graph1" class="graph" transform="scale(1 1) rotate(0) translate(4 136)">
<title>G</title>
<polygon fill="white" stroke="white" points="-4,5 -4,-136 137,-136 137,5 -4,5"/>
<!-- Node1 -->
<g id="node1" class="node"><title>Node1</title>
<polygon fill="#bfbfbf" stroke="black" points="-0.5,-112.5 -0.5,-131.5 132.5,-131.5 132.5,-112.5 -0.5,-112.5"/>
<text text-anchor="middle" x="66" y="-119.5" font-family="Helvetica,sans-Serif" font-size="10.00">pkg/AMORE/src/Tanh.cpp</text>
</g>
<!-- Node2 -->
<g id="node3" class="node"><title>Node2</title>
<a xlink:href="_activation_function_8h.html" target="_top" xlink:title="dia/ActivationFunction.h">
<polygon fill="white" stroke="black" points="3.5,-0.5 3.5,-19.5 128.5,-19.5 128.5,-0.5 3.5,-0.5"/>
<text text-anchor="middle" x="66" y="-7.5" font-family="Helvetica,sans-Serif" font-size="10.00">dia/ActivationFunction.h</text>
</a>
</g>
<!-- Node1&#45;&gt;Node2 -->
<g id="edge2" class="edge"><title>Node1&#45;&gt;Node2</title>
<path fill="none" stroke="midnightblue" d="M63.1631,-112.201C59.4832,-99.7353 53.7824,-76.2018 56,-56 56.9726,-47.1398 58.9917,-37.4716 60.9626,-29.3755"/>
<polygon fill="midnightblue" stroke="midnightblue" points="64.3926,-30.0919 63.5176,-19.5332 57.6171,-28.333 64.3926,-30.0919"/>
</g>
<!-- Node3 -->
<g id="node5" class="node"><title>Node3</title>
<a xlink:href="_tanh_8h.html" target="_top" xlink:title="dia/Tanh.h">
<polygon fill="white" stroke="black" points="65,-56.5 65,-75.5 127,-75.5 127,-56.5 65,-56.5"/>
<text text-anchor="middle" x="96" y="-63.5" font-family="Helvetica,sans-Serif" font-size="10.00">dia/Tanh.h</text>
</a>
</g>
<!-- Node1&#45;&gt;Node3 -->
<g id="edge4" class="edge"><title>Node1&#45;&gt;Node3</title>
<path fill="none" stroke="midnightblue" d="M70.9539,-112.083C75.1041,-104.613 81.1531,-93.7244 86.2667,-84.5199"/>
<polygon fill="midnightblue" stroke="midnightblue" points="89.3414,-86.1924 91.1383,-75.7511 83.2223,-82.7929 89.3414,-86.1924"/>
</g>
<!-- Node3&#45;&gt;Node2 -->
<g id="edge6" class="edge"><title>Node3&#45;&gt;Node2</title>
<path fill="none" stroke="midnightblue" d="M91.0461,-56.083C86.8959,-48.6127 80.8469,-37.7244 75.7333,-28.5199"/>
<polygon fill="midnightblue" stroke="midnightblue" points="78.7777,-26.7929 70.8617,-19.7511 72.6586,-30.1924 78.7777,-26.7929"/>
</g>
</g>
</svg>
