<?xml version="1.0" encoding="UTF-8" standalone="no"?>
<!DOCTYPE svg PUBLIC "-//W3C//DTD SVG 1.1//EN"
 "http://www.w3.org/Graphics/SVG/1.1/DTD/svg11.dtd">
<!-- Generated by graphviz version 2.28.0 (20110610.2051)
 -->
<!-- Title: G Pages: 1 -->
<svg width="232pt" height="140pt"
 viewBox="0.00 0.00 232.00 140.00" xmlns="http://www.w3.org/2000/svg" xmlns:xlink="http://www.w3.org/1999/xlink">
<g id="graph1" class="graph" transform="scale(1 1) rotate(0) translate(4 136)">
<title>G</title>
<polygon fill="white" stroke="white" points="-4,5 -4,-136 229,-136 229,5 -4,5"/>
<!-- Node1 -->
<g id="node1" class="node"><title>Node1</title>
<polygon fill="#bfbfbf" stroke="black" points="-0.5,-112.5 -0.5,-131.5 170.5,-131.5 170.5,-112.5 -0.5,-112.5"/>
<text text-anchor="middle" x="85" y="-119.5" font-family="Helvetica,sans-Serif" font-size="10.00">pkg/AMORE/src/dia/TanhFactory.h</text>
</g>
<!-- Node2 -->
<g id="node3" class="node"><title>Node2</title>
<a xlink:href="_a_m_o_r_e_8h.html" target="_top" xlink:title="pkg/AMORE/src/AMORE.h">
<polygon fill="white" stroke="black" points="16.5,-0.5 16.5,-19.5 153.5,-19.5 153.5,-0.5 16.5,-0.5"/>
<text text-anchor="middle" x="85" y="-7.5" font-family="Helvetica,sans-Serif" font-size="10.00">pkg/AMORE/src/AMORE.h</text>
</a>
</g>
<!-- Node1&#45;&gt;Node2 -->
<g id="edge2" class="edge"><title>Node1&#45;&gt;Node2</title>
<path fill="none" stroke="midnightblue" d="M67.3595,-105.152C59.857,-97.2312 51.9406,-86.9973 48,-76 40.291,-54.486 60.6702,-31.8311 74.16,-19.7728"/>
<polygon fill="midnightblue" stroke="midnightblue" points="64.9806,-107.722 74.5615,-112.245 69.8923,-102.734 64.9806,-107.722"/>
</g>
<!-- Node3 -->
<g id="node5" class="node"><title>Node3</title>
<a xlink:href="_tanh_factory_8cpp.html" target="_top" xlink:title="pkg/AMORE/src/TanhFactory.cpp">
<polygon fill="white" stroke="black" points="57.5,-56.5 57.5,-75.5 224.5,-75.5 224.5,-56.5 57.5,-56.5"/>
<text text-anchor="middle" x="141" y="-63.5" font-family="Helvetica,sans-Serif" font-size="10.00">pkg/AMORE/src/TanhFactory.cpp</text>
</a>
</g>
<!-- Node1&#45;&gt;Node3 -->
<g id="edge4" class="edge"><title>Node1&#45;&gt;Node3</title>
<path fill="none" stroke="midnightblue" d="M101.33,-105.253C111.265,-95.6731 123.588,-83.7906 131.839,-75.8339"/>
<polygon fill="midnightblue" stroke="midnightblue" points="98.7664,-102.863 93.9974,-112.324 103.625,-107.902 98.7664,-102.863"/>
</g>
<!-- Node3&#45;&gt;Node2 -->
<g id="edge6" class="edge"><title>Node3&#45;&gt;Node2</title>
<path fill="none" stroke="midnightblue" d="M124.67,-49.2533C114.735,-39.6731 102.412,-27.7906 94.1611,-19.8339"/>
<polygon fill="midnightblue" stroke="midnightblue" points="122.375,-51.902 132.003,-56.324 127.234,-46.8631 122.375,-51.902"/>
</g>
</g>
</svg>
