<?xml version="1.0" encoding="UTF-8" standalone="no"?>
<!DOCTYPE svg PUBLIC "-//W3C//DTD SVG 1.1//EN"
 "http://www.w3.org/Graphics/SVG/1.1/DTD/svg11.dtd">
<!-- Generated by graphviz version 2.28.0 (20110610.2051)
 -->
<!-- Title: G Pages: 1 -->
<svg width="216pt" height="196pt"
 viewBox="0.00 0.00 216.00 196.00" xmlns="http://www.w3.org/2000/svg" xmlns:xlink="http://www.w3.org/1999/xlink">
<g id="graph1" class="graph" transform="scale(1 1) rotate(0) translate(4 192)">
<title>G</title>
<polygon fill="white" stroke="white" points="-4,5 -4,-192 213,-192 213,5 -4,5"/>
<!-- Node1 -->
<g id="node1" class="node"><title>Node1</title>
<polygon fill="#bfbfbf" stroke="black" points="-0.5,-168.5 -0.5,-187.5 166.5,-187.5 166.5,-168.5 -0.5,-168.5"/>
<text text-anchor="middle" x="83" y="-175.5" font-family="Helvetica,sans-Serif" font-size="10.00">pkg/AMORE/src/TanhFactory.cpp</text>
</g>
<!-- Node2 -->
<g id="node3" class="node"><title>Node2</title>
<a xlink:href="_neural_factory_8h.html" target="_top" xlink:title="dia/NeuralFactory.h">
<polygon fill="white" stroke="black" points="30,-0.5 30,-19.5 134,-19.5 134,-0.5 30,-0.5"/>
<text text-anchor="middle" x="82" y="-7.5" font-family="Helvetica,sans-Serif" font-size="10.00">dia/NeuralFactory.h</text>
</a>
</g>
<!-- Node1&#45;&gt;Node2 -->
<g id="edge2" class="edge"><title>Node1&#45;&gt;Node2</title>
<path fill="none" stroke="midnightblue" d="M79.6266,-168.456C72.2399,-148.627 55.9173,-97.9701 64,-56 65.7901,-46.7047 69.483,-36.8887 73.0607,-28.8048"/>
<polygon fill="midnightblue" stroke="midnightblue" points="76.2733,-30.1981 77.3788,-19.6611 69.9436,-27.2089 76.2733,-30.1981"/>
</g>
<!-- Node3 -->
<g id="node5" class="node"><title>Node3</title>
<a xlink:href="_m_l_pfactory_8h.html" target="_top" xlink:title="dia/MLPfactory.h">
<polygon fill="white" stroke="black" points="73.5,-56.5 73.5,-75.5 166.5,-75.5 166.5,-56.5 73.5,-56.5"/>
<text text-anchor="middle" x="120" y="-63.5" font-family="Helvetica,sans-Serif" font-size="10.00">dia/MLPfactory.h</text>
</a>
</g>
<!-- Node1&#45;&gt;Node3 -->
<g id="edge4" class="edge"><title>Node1&#45;&gt;Node3</title>
<path fill="none" stroke="midnightblue" d="M85.3146,-168.084C88.6524,-155.479 95.1702,-131.782 102,-112 105.128,-102.94 109.036,-93.0338 112.411,-84.8277"/>
<polygon fill="midnightblue" stroke="midnightblue" points="115.668,-86.1102 116.301,-75.5343 109.211,-83.4071 115.668,-86.1102"/>
</g>
<!-- Node4 -->
<g id="node8" class="node"><title>Node4</title>
<a xlink:href="_tanh_factory_8h.html" target="_top" xlink:title="dia/TanhFactory.h">
<polygon fill="white" stroke="black" points="111.5,-112.5 111.5,-131.5 208.5,-131.5 208.5,-112.5 111.5,-112.5"/>
<text text-anchor="middle" x="160" y="-119.5" font-family="Helvetica,sans-Serif" font-size="10.00">dia/TanhFactory.h</text>
</a>
</g>
<!-- Node1&#45;&gt;Node4 -->
<g id="edge8" class="edge"><title>Node1&#45;&gt;Node4</title>
<path fill="none" stroke="midnightblue" d="M95.3714,-168.324C107.158,-160.058 125.132,-147.453 139.136,-137.632"/>
<polygon fill="midnightblue" stroke="midnightblue" points="141.482,-140.262 147.659,-131.655 137.462,-134.531 141.482,-140.262"/>
</g>
<!-- Node3&#45;&gt;Node2 -->
<g id="edge6" class="edge"><title>Node3&#45;&gt;Node2</title>
<path fill="none" stroke="midnightblue" d="M113.725,-56.083C108.358,-48.4554 100.482,-37.2645 93.9213,-27.9408"/>
<polygon fill="midnightblue" stroke="midnightblue" points="96.7755,-25.9149 88.1582,-19.7511 91.0508,-29.9434 96.7755,-25.9149"/>
</g>
<!-- Node4&#45;&gt;Node3 -->
<g id="edge10" class="edge"><title>Node4&#45;&gt;Node3</title>
<path fill="none" stroke="midnightblue" d="M153.395,-112.083C147.745,-104.455 139.455,-93.2645 132.549,-83.9408"/>
<polygon fill="midnightblue" stroke="midnightblue" points="135.247,-81.7034 126.482,-75.7511 129.622,-85.87 135.247,-81.7034"/>
</g>
</g>
</svg>
