<?xml version="1.0" encoding="UTF-8" standalone="no"?>
<!DOCTYPE svg PUBLIC "-//W3C//DTD SVG 1.1//EN"
 "http://www.w3.org/Graphics/SVG/1.1/DTD/svg11.dtd">
<!-- Generated by graphviz version 2.28.0 (20110610.2051)
 -->
<!-- Title: G Pages: 1 -->
<svg width="190pt" height="140pt"
 viewBox="0.00 0.00 190.00 140.00" xmlns="http://www.w3.org/2000/svg" xmlns:xlink="http://www.w3.org/1999/xlink">
<g id="graph1" class="graph" transform="scale(1 1) rotate(0) translate(4 136)">
<title>G</title>
<polygon fill="white" stroke="white" points="-4,5 -4,-136 187,-136 187,5 -4,5"/>
<!-- Node1 -->
<g id="node1" class="node"><title>Node1</title>
<polygon fill="#bfbfbf" stroke="black" points="-0.5,-112.5 -0.5,-131.5 136.5,-131.5 136.5,-112.5 -0.5,-112.5"/>
<text text-anchor="middle" x="68" y="-119.5" font-family="Helvetica,sans-Serif" font-size="10.00">pkg/AMORE/src/dia/Tanh.h</text>
</g>
<!-- Node2 -->
<g id="node3" class="node"><title>Node2</title>
<a xlink:href="_a_m_o_r_e_8h.html" target="_top" xlink:title="pkg/AMORE/src/AMORE.h">
<polygon fill="white" stroke="black" points="-0.5,-0.5 -0.5,-19.5 136.5,-19.5 136.5,-0.5 -0.5,-0.5"/>
<text text-anchor="middle" x="68" y="-7.5" font-family="Helvetica,sans-Serif" font-size="10.00">pkg/AMORE/src/AMORE.h</text>
</a>
</g>
<!-- Node1&#45;&gt;Node2 -->
<g id="edge2" class="edge"><title>Node1&#45;&gt;Node2</title>
<path fill="none" stroke="midnightblue" d="M53.9401,-104.498C44.6886,-91.6127 35.1181,-73.0866 40,-56 43.9939,-42.0212 53.7236,-28.156 60.5876,-19.5891"/>
<polygon fill="midnightblue" stroke="midnightblue" points="51.2092,-106.688 60.1125,-112.431 56.7339,-102.39 51.2092,-106.688"/>
</g>
<!-- Node3 -->
<g id="node5" class="node"><title>Node3</title>
<a xlink:href="_tanh_8cpp.html" target="_top" xlink:title="pkg/AMORE/src/Tanh.cpp">
<polygon fill="white" stroke="black" points="49.5,-56.5 49.5,-75.5 182.5,-75.5 182.5,-56.5 49.5,-56.5"/>
<text text-anchor="middle" x="116" y="-63.5" font-family="Helvetica,sans-Serif" font-size="10.00">pkg/AMORE/src/Tanh.cpp</text>
</a>
</g>
<!-- Node1&#45;&gt;Node3 -->
<g id="edge4" class="edge"><title>Node1&#45;&gt;Node3</title>
<path fill="none" stroke="midnightblue" d="M82.7277,-104.431C91.1401,-94.9673 101.349,-83.4827 108.221,-75.7511"/>
<polygon fill="midnightblue" stroke="midnightblue" points="79.954,-102.284 75.9262,-112.083 85.1858,-106.934 79.954,-102.284"/>
</g>
<!-- Node3&#45;&gt;Node2 -->
<g id="edge6" class="edge"><title>Node3&#45;&gt;Node2</title>
<path fill="none" stroke="midnightblue" d="M101.272,-48.4314C92.8599,-38.9673 82.6513,-27.4827 75.7787,-19.7511"/>
<polygon fill="midnightblue" stroke="midnightblue" points="98.8142,-50.9342 108.074,-56.083 104.046,-46.2836 98.8142,-50.9342"/>
</g>
</g>
</svg>
