<?xml version="1.0" encoding="UTF-8" standalone="no"?>
<!DOCTYPE svg PUBLIC "-//W3C//DTD SVG 1.1//EN"
 "http://www.w3.org/Graphics/SVG/1.1/DTD/svg11.dtd">
<!-- Generated by graphviz version 2.28.0 (20110610.2051)
 -->
<!-- Title: G Pages: 1 -->
<svg width="1054pt" height="140pt"
 viewBox="0.00 0.00 1054.00 140.00" xmlns="http://www.w3.org/2000/svg" xmlns:xlink="http://www.w3.org/1999/xlink">
<g id="graph1" class="graph" transform="scale(1 1) rotate(0) translate(4 136)">
<title>G</title>
<polygon fill="white" stroke="white" points="-4,5 -4,-136 1051,-136 1051,5 -4,5"/>
<!-- Node1 -->
<g id="node1" class="node"><title>Node1</title>
<polygon fill="#bfbfbf" stroke="black" points="0,-112.5 0,-131.5 536,-131.5 536,-112.5 0,-112.5"/>
<text text-anchor="middle" x="268" y="-119.5" font-family="Helvetica,sans-Serif" font-size="10.00">/Users/mcasl/pc&#45;ule/Trabajo/investigacion/AMORE/AMORE&#45;WC/AMORE&#45;WC/pkg/AMORE/src/classHeaders/Tanh.h</text>
</g>
<!-- Node2 -->
<g id="node3" class="node"><title>Node2</title>
<a xlink:href="_a_m_o_r_e_8h.html" target="_top" xlink:title="/Users/mcasl/pc&#45;ule/Trabajo/investigacion/AMORE/AMORE&#45;WC/AMORE&#45;WC/pkg/AMORE/src/AMORE.h">
<polygon fill="white" stroke="black" points="24,-0.5 24,-19.5 512,-19.5 512,-0.5 24,-0.5"/>
<text text-anchor="middle" x="268" y="-7.5" font-family="Helvetica,sans-Serif" font-size="10.00">/Users/mcasl/pc&#45;ule/Trabajo/investigacion/AMORE/AMORE&#45;WC/AMORE&#45;WC/pkg/AMORE/src/AMORE.h</text>
</a>
</g>
<!-- Node1&#45;&gt;Node2 -->
<g id="edge2" class="edge"><title>Node1&#45;&gt;Node2</title>
<path fill="none" stroke="midnightblue" d="M125.264,-111.196C77.2333,-104.698 31.983,-93.9081 17,-76 11.2961,-69.1825 11.2961,-62.8175 17,-56 33.0152,-36.8582 83.6118,-25.8486 135.222,-19.521"/>
<polygon fill="midnightblue" stroke="midnightblue" points="124.857,-114.673 135.222,-112.479 125.751,-107.73 124.857,-114.673"/>
</g>
<!-- Node3 -->
<g id="node5" class="node"><title>Node3</title>
<a xlink:href="_tanh_8cpp.html" target="_top" xlink:title="/Users/mcasl/pc&#45;ule/Trabajo/investigacion/AMORE/AMORE&#45;WC/AMORE&#45;WC/pkg/AMORE/src/Tanh.cpp">
<polygon fill="white" stroke="black" points="26,-56.5 26,-75.5 510,-75.5 510,-56.5 26,-56.5"/>
<text text-anchor="middle" x="268" y="-63.5" font-family="Helvetica,sans-Serif" font-size="10.00">/Users/mcasl/pc&#45;ule/Trabajo/investigacion/AMORE/AMORE&#45;WC/AMORE&#45;WC/pkg/AMORE/src/Tanh.cpp</text>
</a>
</g>
<!-- Node1&#45;&gt;Node3 -->
<g id="edge4" class="edge"><title>Node1&#45;&gt;Node3</title>
<path fill="none" stroke="midnightblue" d="M268,-101.805C268,-92.9102 268,-82.7798 268,-75.7511"/>
<polygon fill="midnightblue" stroke="midnightblue" points="264.5,-102.083 268,-112.083 271.5,-102.083 264.5,-102.083"/>
</g>
<!-- Node4 -->
<g id="node8" class="node"><title>Node4</title>
<a xlink:href="_tanh_factory_8cpp.html" target="_top" xlink:title="/Users/mcasl/pc&#45;ule/Trabajo/investigacion/AMORE/AMORE&#45;WC/AMORE&#45;WC/pkg/AMORE/src/TanhFactory.cpp">
<polygon fill="white" stroke="black" points="528,-56.5 528,-75.5 1046,-75.5 1046,-56.5 528,-56.5"/>
<text text-anchor="middle" x="787" y="-63.5" font-family="Helvetica,sans-Serif" font-size="10.00">/Users/mcasl/pc&#45;ule/Trabajo/investigacion/AMORE/AMORE&#45;WC/AMORE&#45;WC/pkg/AMORE/src/TanhFactory.cpp</text>
</a>
</g>
<!-- Node1&#45;&gt;Node4 -->
<g id="edge8" class="edge"><title>Node1&#45;&gt;Node4</title>
<path fill="none" stroke="midnightblue" d="M360.128,-111.414C457.993,-101.232 611.252,-85.2859 705.052,-75.5264"/>
<polygon fill="midnightblue" stroke="midnightblue" points="359.535,-107.957 349.951,-112.473 360.259,-114.92 359.535,-107.957"/>
</g>
<!-- Node3&#45;&gt;Node2 -->
<g id="edge6" class="edge"><title>Node3&#45;&gt;Node2</title>
<path fill="none" stroke="midnightblue" d="M268,-45.8045C268,-36.9102 268,-26.7798 268,-19.7511"/>
<polygon fill="midnightblue" stroke="midnightblue" points="264.5,-46.083 268,-56.083 271.5,-46.083 264.5,-46.083"/>
</g>
<!-- Node4&#45;&gt;Node2 -->
<g id="edge10" class="edge"><title>Node4&#45;&gt;Node2</title>
<path fill="none" stroke="midnightblue" d="M694.872,-55.4145C597.007,-45.232 443.748,-29.2859 349.948,-19.5264"/>
<polygon fill="midnightblue" stroke="midnightblue" points="694.741,-58.9196 705.049,-56.4733 695.465,-51.9572 694.741,-58.9196"/>
</g>
</g>
</svg>
