<?xml version="1.0" encoding="UTF-8" standalone="no"?>
<!DOCTYPE svg PUBLIC "-//W3C//DTD SVG 1.1//EN"
 "http://www.w3.org/Graphics/SVG/1.1/DTD/svg11.dtd">
<!-- Generated by graphviz version 2.28.0 (20110610.2051)
 -->
<!-- Title: G Pages: 1 -->
<svg width="2346pt" height="140pt"
 viewBox="0.00 0.00 2346.00 140.00" xmlns="http://www.w3.org/2000/svg" xmlns:xlink="http://www.w3.org/1999/xlink">
<g id="graph1" class="graph" transform="scale(1 1) rotate(0) translate(4 136)">
<title>G</title>
<polygon fill="white" stroke="white" points="-4,5 -4,-136 2343,-136 2343,5 -4,5"/>
<!-- Node1 -->
<g id="node1" class="node"><title>Node1</title>
<polygon fill="#bfbfbf" stroke="black" points="868,-112.5 868,-131.5 1458,-131.5 1458,-112.5 868,-112.5"/>
<text text-anchor="middle" x="1163" y="-119.5" font-family="Helvetica,sans-Serif" font-size="10.00">/Users/mcasl/pc&#45;ule/Trabajo/investigacion/AMORE/AMORE&#45;WC/AMORE&#45;WC/pkg/AMORE/src/classHeaders/TrainingBehavior.h</text>
</g>
<!-- Node2 -->
<g id="node3" class="node"><title>Node2</title>
<a xlink:href="_adapt_behavior_8h.html" target="_top" xlink:title="/Users/mcasl/pc&#45;ule/Trabajo/investigacion/AMORE/AMORE&#45;WC/AMORE&#45;WC/pkg/AMORE/src/classHeaders/AdaptBehavior.h">
<polygon fill="white" stroke="black" points="571.5,-56.5 571.5,-75.5 1154.5,-75.5 1154.5,-56.5 571.5,-56.5"/>
<text text-anchor="middle" x="863" y="-63.5" font-family="Helvetica,sans-Serif" font-size="10.00">/Users/mcasl/pc&#45;ule/Trabajo/investigacion/AMORE/AMORE&#45;WC/AMORE&#45;WC/pkg/AMORE/src/classHeaders/AdaptBehavior.h</text>
</a>
</g>
<!-- Node1&#45;&gt;Node2 -->
<g id="edge2" class="edge"><title>Node1&#45;&gt;Node2</title>
<path fill="none" stroke="midnightblue" d="M1105.58,-110.664C1048.88,-100.459 963.214,-85.0386 910.313,-75.5164"/>
<polygon fill="midnightblue" stroke="midnightblue" points="1105,-114.117 1115.46,-112.444 1106.24,-107.227 1105,-114.117"/>
</g>
<!-- Node5 -->
<g id="node9" class="node"><title>Node5</title>
<a xlink:href="_batch_behavior_8h.html" target="_top" xlink:title="/Users/mcasl/pc&#45;ule/Trabajo/investigacion/AMORE/AMORE&#45;WC/AMORE&#45;WC/pkg/AMORE/src/classHeaders/BatchBehavior.h">
<polygon fill="white" stroke="black" points="1173,-56.5 1173,-75.5 1755,-75.5 1755,-56.5 1173,-56.5"/>
<text text-anchor="middle" x="1464" y="-63.5" font-family="Helvetica,sans-Serif" font-size="10.00">/Users/mcasl/pc&#45;ule/Trabajo/investigacion/AMORE/AMORE&#45;WC/AMORE&#45;WC/pkg/AMORE/src/classHeaders/BatchBehavior.h</text>
</a>
</g>
<!-- Node1&#45;&gt;Node5 -->
<g id="edge8" class="edge"><title>Node1&#45;&gt;Node5</title>
<path fill="none" stroke="midnightblue" d="M1220.61,-110.664C1277.5,-100.459 1363.45,-85.0386 1416.53,-75.5164"/>
<polygon fill="midnightblue" stroke="midnightblue" points="1219.92,-107.233 1210.69,-112.444 1221.16,-114.123 1219.92,-107.233"/>
</g>
<!-- Node3 -->
<g id="node5" class="node"><title>Node3</title>
<a xlink:href="_a_d_a_p_tgd_8h.html" target="_top" xlink:title="/Users/mcasl/pc&#45;ule/Trabajo/investigacion/AMORE/AMORE&#45;WC/AMORE&#45;WC/pkg/AMORE/src/classHeaders/ADAPTgd.h">
<polygon fill="white" stroke="black" points="0,-0.5 0,-19.5 560,-19.5 560,-0.5 0,-0.5"/>
<text text-anchor="middle" x="280" y="-7.5" font-family="Helvetica,sans-Serif" font-size="10.00">/Users/mcasl/pc&#45;ule/Trabajo/investigacion/AMORE/AMORE&#45;WC/AMORE&#45;WC/pkg/AMORE/src/classHeaders/ADAPTgd.h</text>
</a>
</g>
<!-- Node2&#45;&gt;Node3 -->
<g id="edge4" class="edge"><title>Node2&#45;&gt;Node3</title>
<path fill="none" stroke="midnightblue" d="M760.843,-55.5377C650.972,-45.3611 477.846,-29.3254 372.054,-19.5264"/>
<polygon fill="midnightblue" stroke="midnightblue" points="760.663,-59.036 770.944,-56.4733 761.309,-52.0659 760.663,-59.036"/>
</g>
<!-- Node4 -->
<g id="node7" class="node"><title>Node4</title>
<a xlink:href="_a_d_a_p_tgdwm_8h.html" target="_top" xlink:title="/Users/mcasl/pc&#45;ule/Trabajo/investigacion/AMORE/AMORE&#45;WC/AMORE&#45;WC/pkg/AMORE/src/classHeaders/ADAPTgdwm.h">
<polygon fill="white" stroke="black" points="578.5,-0.5 578.5,-19.5 1155.5,-19.5 1155.5,-0.5 578.5,-0.5"/>
<text text-anchor="middle" x="867" y="-7.5" font-family="Helvetica,sans-Serif" font-size="10.00">/Users/mcasl/pc&#45;ule/Trabajo/investigacion/AMORE/AMORE&#45;WC/AMORE&#45;WC/pkg/AMORE/src/classHeaders/ADAPTgdwm.h</text>
</a>
</g>
<!-- Node2&#45;&gt;Node4 -->
<g id="edge6" class="edge"><title>Node2&#45;&gt;Node4</title>
<path fill="none" stroke="midnightblue" d="M864.4,-46.1005C865.064,-37.1357 865.825,-26.8579 866.352,-19.7511"/>
<polygon fill="midnightblue" stroke="midnightblue" points="860.909,-45.8517 863.661,-56.083 867.89,-46.3689 860.909,-45.8517"/>
</g>
<!-- Node6 -->
<g id="node11" class="node"><title>Node6</title>
<a xlink:href="_b_a_t_c_hgd_8h.html" target="_top" xlink:title="/Users/mcasl/pc&#45;ule/Trabajo/investigacion/AMORE/AMORE&#45;WC/AMORE&#45;WC/pkg/AMORE/src/classHeaders/BATCHgd.h">
<polygon fill="white" stroke="black" points="1180,-0.5 1180,-19.5 1742,-19.5 1742,-0.5 1180,-0.5"/>
<text text-anchor="middle" x="1461" y="-7.5" font-family="Helvetica,sans-Serif" font-size="10.00">/Users/mcasl/pc&#45;ule/Trabajo/investigacion/AMORE/AMORE&#45;WC/AMORE&#45;WC/pkg/AMORE/src/classHeaders/BATCHgd.h</text>
</a>
</g>
<!-- Node5&#45;&gt;Node6 -->
<g id="edge10" class="edge"><title>Node5&#45;&gt;Node6</title>
<path fill="none" stroke="midnightblue" d="M1462.93,-45.8045C1462.44,-36.9102 1461.88,-26.7798 1461.49,-19.7511"/>
<polygon fill="midnightblue" stroke="midnightblue" points="1459.46,-46.2926 1463.5,-56.083 1466.44,-45.9042 1459.46,-46.2926"/>
</g>
<!-- Node7 -->
<g id="node13" class="node"><title>Node7</title>
<a xlink:href="_b_a_t_c_hgdwm_8h.html" target="_top" xlink:title="/Users/mcasl/pc&#45;ule/Trabajo/investigacion/AMORE/AMORE&#45;WC/AMORE&#45;WC/pkg/AMORE/src/classHeaders/BATCHgdwm.h">
<polygon fill="white" stroke="black" points="1760,-0.5 1760,-19.5 2338,-19.5 2338,-0.5 1760,-0.5"/>
<text text-anchor="middle" x="2049" y="-7.5" font-family="Helvetica,sans-Serif" font-size="10.00">/Users/mcasl/pc&#45;ule/Trabajo/investigacion/AMORE/AMORE&#45;WC/AMORE&#45;WC/pkg/AMORE/src/classHeaders/BATCHgdwm.h</text>
</a>
</g>
<!-- Node5&#45;&gt;Node7 -->
<g id="edge12" class="edge"><title>Node5&#45;&gt;Node7</title>
<path fill="none" stroke="midnightblue" d="M1566.51,-55.5377C1676.75,-45.3611 1850.48,-29.3254 1956.63,-19.5264"/>
<polygon fill="midnightblue" stroke="midnightblue" points="1566.01,-52.0689 1556.37,-56.4733 1566.65,-59.0393 1566.01,-52.0689"/>
</g>
</g>
</svg>
