<?xml version="1.0" encoding="UTF-8" standalone="no"?>
<!DOCTYPE svg PUBLIC "-//W3C//DTD SVG 1.1//EN"
 "http://www.w3.org/Graphics/SVG/1.1/DTD/svg11.dtd">
<!-- Generated by graphviz version 2.28.0 (20110610.2051)
 -->
<!-- Title: G Pages: 1 -->
<svg width="1050pt" height="84pt"
 viewBox="0.00 0.00 1050.00 84.00" xmlns="http://www.w3.org/2000/svg" xmlns:xlink="http://www.w3.org/1999/xlink">
<g id="graph1" class="graph" transform="scale(1 1) rotate(0) translate(4 80)">
<title>G</title>
<polygon fill="white" stroke="white" points="-4,5 -4,-80 1047,-80 1047,5 -4,5"/>
<!-- Node1 -->
<g id="node1" class="node"><title>Node1</title>
<polygon fill="#bfbfbf" stroke="black" points="410.5,-56.5 410.5,-75.5 619.5,-75.5 619.5,-56.5 410.5,-56.5"/>
<text text-anchor="middle" x="515" y="-63.5" font-family="Helvetica,sans-Serif" font-size="10.00">pkg/AMORE/src/dia/TrainingVariablesSet.h</text>
</g>
<!-- Node2 -->
<g id="node3" class="node"><title>Node2</title>
<a xlink:href="_a_d_a_p_tgd_training_variables_8h.html" target="_top" xlink:title="pkg/AMORE/src/dia/ADAPTgdTrainingVariables.h">
<polygon fill="white" stroke="black" points="0,-0.5 0,-19.5 238,-19.5 238,-0.5 0,-0.5"/>
<text text-anchor="middle" x="119" y="-7.5" font-family="Helvetica,sans-Serif" font-size="10.00">pkg/AMORE/src/dia/ADAPTgdTrainingVariables.h</text>
</a>
</g>
<!-- Node1&#45;&gt;Node2 -->
<g id="edge2" class="edge"><title>Node1&#45;&gt;Node2</title>
<path fill="none" stroke="midnightblue" d="M441.975,-55.0421C367.183,-44.8432 252.15,-29.1569 181.454,-19.5164"/>
<polygon fill="midnightblue" stroke="midnightblue" points="441.871,-58.5602 452.253,-56.4435 442.817,-51.6244 441.871,-58.5602"/>
</g>
<!-- Node3 -->
<g id="node5" class="node"><title>Node3</title>
<a xlink:href="_a_d_a_p_tgdwm_training_variables_8h.html" target="_top" xlink:title="pkg/AMORE/src/dia/ADAPTgdwmTrainingVariables.h">
<polygon fill="white" stroke="black" points="256,-0.5 256,-19.5 510,-19.5 510,-0.5 256,-0.5"/>
<text text-anchor="middle" x="383" y="-7.5" font-family="Helvetica,sans-Serif" font-size="10.00">pkg/AMORE/src/dia/ADAPTgdwmTrainingVariables.h</text>
</a>
</g>
<!-- Node1&#45;&gt;Node3 -->
<g id="edge4" class="edge"><title>Node1&#45;&gt;Node3</title>
<path fill="none" stroke="midnightblue" d="M484.781,-52.6377C460.01,-42.504 425.6,-28.4274 403.818,-19.5164"/>
<polygon fill="midnightblue" stroke="midnightblue" points="483.503,-55.8966 494.084,-56.4435 486.154,-49.4177 483.503,-55.8966"/>
</g>
<!-- Node4 -->
<g id="node7" class="node"><title>Node4</title>
<a xlink:href="_b_a_t_c_hgd_training_variables_8h.html" target="_top" xlink:title="pkg/AMORE/src/dia/BATCHgdTrainingVariables.h">
<polygon fill="white" stroke="black" points="528.5,-0.5 528.5,-19.5 767.5,-19.5 767.5,-0.5 528.5,-0.5"/>
<text text-anchor="middle" x="648" y="-7.5" font-family="Helvetica,sans-Serif" font-size="10.00">pkg/AMORE/src/dia/BATCHgdTrainingVariables.h</text>
</a>
</g>
<!-- Node1&#45;&gt;Node4 -->
<g id="edge6" class="edge"><title>Node1&#45;&gt;Node4</title>
<path fill="none" stroke="midnightblue" d="M545.448,-52.6377C570.407,-42.504 605.077,-28.4274 627.024,-19.5164"/>
<polygon fill="midnightblue" stroke="midnightblue" points="544.023,-49.4387 536.074,-56.4435 546.656,-55.9245 544.023,-49.4387"/>
</g>
<!-- Node5 -->
<g id="node9" class="node"><title>Node5</title>
<a xlink:href="_b_a_t_c_hgdwm_training_variables_8h.html" target="_top" xlink:title="pkg/AMORE/src/dia/BATCHgdwmTrainingVariables.h">
<polygon fill="white" stroke="black" points="786,-0.5 786,-19.5 1042,-19.5 1042,-0.5 786,-0.5"/>
<text text-anchor="middle" x="914" y="-7.5" font-family="Helvetica,sans-Serif" font-size="10.00">pkg/AMORE/src/dia/BATCHgdwmTrainingVariables.h</text>
</a>
</g>
<!-- Node1&#45;&gt;Node5 -->
<g id="edge8" class="edge"><title>Node1&#45;&gt;Node5</title>
<path fill="none" stroke="midnightblue" d="M588.578,-55.0421C663.936,-44.8432 779.841,-29.1569 851.073,-19.5164"/>
<polygon fill="midnightblue" stroke="midnightblue" points="587.663,-51.6339 578.223,-56.4435 588.602,-58.5707 587.663,-51.6339"/>
</g>
</g>
</svg>
