<?xml version="1.0" encoding="UTF-8" standalone="no"?>
<!DOCTYPE svg PUBLIC "-//W3C//DTD SVG 1.1//EN"
 "http://www.w3.org/Graphics/SVG/1.1/DTD/svg11.dtd">
<!-- Generated by graphviz version 2.28.0 (20110610.2051)
 -->
<!-- Title: G Pages: 1 -->
<svg width="747pt" height="140pt"
 viewBox="0.00 0.00 747.00 140.00" xmlns="http://www.w3.org/2000/svg" xmlns:xlink="http://www.w3.org/1999/xlink">
<g id="graph1" class="graph" transform="scale(1 1) rotate(0) translate(4 136)">
<title>G</title>
<polygon fill="white" stroke="white" points="-4,5 -4,-136 744,-136 744,5 -4,5"/>
<!-- Node1 -->
<g id="node1" class="node"><title>Node1</title>
<polygon fill="#bfbfbf" stroke="black" points="267.5,-112.5 267.5,-131.5 458.5,-131.5 458.5,-112.5 267.5,-112.5"/>
<text text-anchor="middle" x="363" y="-119.5" font-family="Helvetica,sans-Serif" font-size="10.00">pkg/AMORE/src/dia/TrainingBehavior.h</text>
</g>
<!-- Node2 -->
<g id="node3" class="node"><title>Node2</title>
<a xlink:href="_adapt_behavior_8h.html" target="_top" xlink:title="pkg/AMORE/src/dia/AdaptBehavior.h">
<polygon fill="white" stroke="black" points="171.5,-56.5 171.5,-75.5 354.5,-75.5 354.5,-56.5 171.5,-56.5"/>
<text text-anchor="middle" x="263" y="-63.5" font-family="Helvetica,sans-Serif" font-size="10.00">pkg/AMORE/src/dia/AdaptBehavior.h</text>
</a>
</g>
<!-- Node1&#45;&gt;Node2 -->
<g id="edge2" class="edge"><title>Node1&#45;&gt;Node2</title>
<path fill="none" stroke="midnightblue" d="M337.912,-107.453C319.451,-97.4835 294.903,-84.2279 279.027,-75.6545"/>
<polygon fill="midnightblue" stroke="midnightblue" points="336.471,-110.652 346.933,-112.324 339.797,-104.493 336.471,-110.652"/>
</g>
<!-- Node5 -->
<g id="node9" class="node"><title>Node5</title>
<a xlink:href="_batch_behavior_8h.html" target="_top" xlink:title="pkg/AMORE/src/dia/BatchBehavior.h">
<polygon fill="white" stroke="black" points="373,-56.5 373,-75.5 555,-75.5 555,-56.5 373,-56.5"/>
<text text-anchor="middle" x="464" y="-63.5" font-family="Helvetica,sans-Serif" font-size="10.00">pkg/AMORE/src/dia/BatchBehavior.h</text>
</a>
</g>
<!-- Node1&#45;&gt;Node5 -->
<g id="edge8" class="edge"><title>Node1&#45;&gt;Node5</title>
<path fill="none" stroke="midnightblue" d="M388.083,-107.59C406.757,-97.6052 431.704,-84.2672 447.813,-75.6545"/>
<polygon fill="midnightblue" stroke="midnightblue" points="386.396,-104.522 379.227,-112.324 389.696,-110.696 386.396,-104.522"/>
</g>
<!-- Node3 -->
<g id="node5" class="node"><title>Node3</title>
<a xlink:href="_a_d_a_p_tgd_8h.html" target="_top" xlink:title="pkg/AMORE/src/dia/ADAPTgd.h">
<polygon fill="white" stroke="black" points="-0.5,-0.5 -0.5,-19.5 160.5,-19.5 160.5,-0.5 -0.5,-0.5"/>
<text text-anchor="middle" x="80" y="-7.5" font-family="Helvetica,sans-Serif" font-size="10.00">pkg/AMORE/src/dia/ADAPTgd.h</text>
</a>
</g>
<!-- Node2&#45;&gt;Node3 -->
<g id="edge4" class="edge"><title>Node2&#45;&gt;Node3</title>
<path fill="none" stroke="midnightblue" d="M224.257,-53.5677C189.735,-43.381 139.995,-28.7034 108.861,-19.5164"/>
<polygon fill="midnightblue" stroke="midnightblue" points="223.421,-56.9702 234.003,-56.4435 225.403,-50.2564 223.421,-56.9702"/>
</g>
<!-- Node4 -->
<g id="node7" class="node"><title>Node4</title>
<a xlink:href="_a_d_a_p_tgdwm_8h.html" target="_top" xlink:title="pkg/AMORE/src/dia/ADAPTgdwm.h">
<polygon fill="white" stroke="black" points="178.5,-0.5 178.5,-19.5 355.5,-19.5 355.5,-0.5 178.5,-0.5"/>
<text text-anchor="middle" x="267" y="-7.5" font-family="Helvetica,sans-Serif" font-size="10.00">pkg/AMORE/src/dia/ADAPTgdwm.h</text>
</a>
</g>
<!-- Node2&#45;&gt;Node4 -->
<g id="edge6" class="edge"><title>Node2&#45;&gt;Node4</title>
<path fill="none" stroke="midnightblue" d="M264.4,-46.1005C265.064,-37.1357 265.825,-26.8579 266.352,-19.7511"/>
<polygon fill="midnightblue" stroke="midnightblue" points="260.909,-45.8517 263.661,-56.083 267.89,-46.3689 260.909,-45.8517"/>
</g>
<!-- Node6 -->
<g id="node11" class="node"><title>Node6</title>
<a xlink:href="_b_a_t_c_hgd_8h.html" target="_top" xlink:title="pkg/AMORE/src/dia/BATCHgd.h">
<polygon fill="white" stroke="black" points="380,-0.5 380,-19.5 542,-19.5 542,-0.5 380,-0.5"/>
<text text-anchor="middle" x="461" y="-7.5" font-family="Helvetica,sans-Serif" font-size="10.00">pkg/AMORE/src/dia/BATCHgd.h</text>
</a>
</g>
<!-- Node5&#45;&gt;Node6 -->
<g id="edge10" class="edge"><title>Node5&#45;&gt;Node6</title>
<path fill="none" stroke="midnightblue" d="M462.934,-45.8045C462.439,-36.9102 461.877,-26.7798 461.486,-19.7511"/>
<polygon fill="midnightblue" stroke="midnightblue" points="459.455,-46.2926 463.505,-56.083 466.444,-45.9042 459.455,-46.2926"/>
</g>
<!-- Node7 -->
<g id="node13" class="node"><title>Node7</title>
<a xlink:href="_b_a_t_c_hgdwm_8h.html" target="_top" xlink:title="pkg/AMORE/src/dia/BATCHgdwm.h">
<polygon fill="white" stroke="black" points="560.5,-0.5 560.5,-19.5 739.5,-19.5 739.5,-0.5 560.5,-0.5"/>
<text text-anchor="middle" x="650" y="-7.5" font-family="Helvetica,sans-Serif" font-size="10.00">pkg/AMORE/src/dia/BATCHgdwm.h</text>
</a>
</g>
<!-- Node5&#45;&gt;Node7 -->
<g id="edge12" class="edge"><title>Node5&#45;&gt;Node7</title>
<path fill="none" stroke="midnightblue" d="M503.378,-53.5677C538.466,-43.381 589.021,-28.7034 620.666,-19.5164"/>
<polygon fill="midnightblue" stroke="midnightblue" points="502.1,-50.2942 493.472,-56.4435 504.052,-57.0166 502.1,-50.2942"/>
</g>
</g>
</svg>
