<?xml version="1.0" encoding="UTF-8" standalone="no"?>
<!DOCTYPE svg PUBLIC "-//W3C//DTD SVG 1.1//EN"
 "http://www.w3.org/Graphics/SVG/1.1/DTD/svg11.dtd">
<!-- Generated by graphviz version 2.28.0 (20110610.2051)
 -->
<!-- Title: G Pages: 1 -->
<svg width="142pt" height="304pt"
 viewBox="0.00 0.00 142.00 304.00" xmlns="http://www.w3.org/2000/svg" xmlns:xlink="http://www.w3.org/1999/xlink">
<g id="graph1" class="graph" transform="scale(1 1) rotate(0) translate(4 300)">
<title>G</title>
<polygon fill="white" stroke="white" points="-4,5 -4,-300 139,-300 139,5 -4,5"/>
<!-- Node1 -->
<g id="node1" class="node"><title>Node1</title>
<polygon fill="#bfbfbf" stroke="black" points="20,-1 20,-91 114,-91 114,-1 20,-1"/>
<text text-anchor="middle" x="67" y="-79" font-family="Helvetica,sans-Serif" font-size="10.00">RBFbehavior</text>
<polyline fill="none" stroke="black" points="20,-72 114,-72 "/>
<text text-anchor="start" x="28" y="-60" font-family="Helvetica,sans-Serif" font-size="10.00">&#45; d_width</text>
<text text-anchor="start" x="28" y="-49" font-family="Helvetica,sans-Serif" font-size="10.00">&#45; d_altitude</text>
<polyline fill="none" stroke="black" points="20,-42 114,-42 "/>
<text text-anchor="start" x="28" y="-30" font-family="Helvetica,sans-Serif" font-size="10.00">+ RBFbehavior()</text>
<text text-anchor="start" x="28" y="-19" font-family="Helvetica,sans-Serif" font-size="10.00">+ predict()</text>
<text text-anchor="start" x="28" y="-8" font-family="Helvetica,sans-Serif" font-size="10.00">+ show()</text>
</g>
<!-- Node2 -->
<g id="node2" class="node"><title>Node2</title>
<a xlink:href="class_predict_behavior.html" target="_top" xlink:title="class PredictBehavior &#45;">
<polygon fill="white" stroke="black" points="0,-128.5 0,-295.5 134,-295.5 134,-128.5 0,-128.5"/>
<text text-anchor="middle" x="67" y="-283.5" font-family="Helvetica,sans-Serif" font-size="10.00">PredictBehavior</text>
<polyline fill="none" stroke="black" points="0,-276.5 134,-276.5 "/>
<text text-anchor="start" x="8" y="-264.5" font-family="Helvetica,sans-Serif" font-size="10.00"># d_nCons</text>
<text text-anchor="start" x="8" y="-253.5" font-family="Helvetica,sans-Serif" font-size="10.00"># d_inducedLocalField</text>
<text text-anchor="start" x="8" y="-242.5" font-family="Helvetica,sans-Serif" font-size="10.00"># d_activationFunction</text>
<text text-anchor="start" x="8" y="-231.5" font-family="Helvetica,sans-Serif" font-size="10.00"># d_output</text>
<polyline fill="none" stroke="black" points="0,-224.5 134,-224.5 "/>
<text text-anchor="start" x="8" y="-212.5" font-family="Helvetica,sans-Serif" font-size="10.00">+ predict()</text>
<text text-anchor="start" x="8" y="-201.5" font-family="Helvetica,sans-Serif" font-size="10.00">+ show()</text>
<text text-anchor="start" x="8" y="-190.5" font-family="Helvetica,sans-Serif" font-size="10.00">+ getOutput()</text>
<text text-anchor="start" x="8" y="-179.5" font-family="Helvetica,sans-Serif" font-size="10.00">+ setOutput()</text>
<text text-anchor="start" x="8" y="-168.5" font-family="Helvetica,sans-Serif" font-size="10.00">+ setActivationFunction()</text>
<text text-anchor="start" x="8" y="-157.5" font-family="Helvetica,sans-Serif" font-size="10.00">+ getInducedLocalField()</text>
<text text-anchor="start" x="8" y="-146.5" font-family="Helvetica,sans-Serif" font-size="10.00">+ setConnections()</text>
<text text-anchor="start" x="8" y="-135.5" font-family="Helvetica,sans-Serif" font-size="10.00"># PredictBehavior()</text>
</a>
</g>
<!-- Node2&#45;&gt;Node1 -->
<g id="edge2" class="edge"><title>Node2&#45;&gt;Node1</title>
<path fill="none" stroke="midnightblue" d="M67,-117.939C67,-108.679 67,-99.6111 67,-91.2187"/>
<polygon fill="none" stroke="midnightblue" points="63.5001,-118.039 67,-128.039 70.5001,-118.039 63.5001,-118.039"/>
</g>
</g>
</svg>
