<?xml version="1.0" encoding="UTF-8" standalone="no"?>
<!DOCTYPE svg PUBLIC "-//W3C//DTD SVG 1.1//EN"
 "http://www.w3.org/Graphics/SVG/1.1/DTD/svg11.dtd">
<!-- Generated by graphviz version 2.25.20091207.0545 (20091207.0545)
 -->
<!-- Title: G Pages: 1 -->
<svg width="369pt" height="876pt"
 viewBox="0.00 0.00 369.00 876.00" xmlns="http://www.w3.org/2000/svg" xmlns:xlink="http://www.w3.org/1999/xlink">
<g id="graph1" class="graph" transform="scale(1 1) rotate(0) translate(4 872)">
<title>G</title>
<polygon fill="white" stroke="white" points="-4,5 -4,-872 366,-872 366,5 -4,5"/>
<!-- Node1 -->
<g id="node1" class="node"><title>Node1</title>
<polygon fill="#bfbfbf" stroke="black" points="121.5,-0.5 121.5,-57.5 184.5,-57.5 184.5,-0.5 121.5,-0.5"/>
<text text-anchor="middle" x="153" y="-44.5" font-family="Helvetica,sans-Serif" font-size="10.00">vecNeuron</text>
<polyline fill="none" stroke="black" points="121.5,-38.5 184.5,-38.5 "/>
<text text-anchor="middle" x="153" y="-25.5" font-family="Helvetica,sans-Serif" font-size="10.00"> </text>
<polyline fill="none" stroke="black" points="121.5,-19.5 184.5,-19.5 "/>
<text text-anchor="middle" x="153" y="-6.5" font-family="Helvetica,sans-Serif" font-size="10.00"> </text>
</g>
<!-- Node2 -->
<g id="node2" class="node"><title>Node2</title>
<a xlink:href="class_container.html" target="_top" xlink:title="{Container\&lt; Neuron \&gt;\n|# collection\l|+ begin()\l+ end()\l+ load()\l+ store()\l+ size()\l+ push_back()\l+ append()\l+ show()\l+ validate()\l+ reserve()\l+ resize()\l+ operator[]()\l}">
<polygon fill="white" stroke="black" points="99,-97 99,-275 207,-275 207,-97 99,-97"/>
<text text-anchor="middle" x="153" y="-262" font-family="Helvetica,sans-Serif" font-size="10.00">Container&lt; Neuron &gt;</text>
<polyline fill="none" stroke="black" points="99,-256 207,-256 "/>
<text text-anchor="start" x="107" y="-243" font-family="Helvetica,sans-Serif" font-size="10.00"># collection</text>
<polyline fill="none" stroke="black" points="99,-237 207,-237 "/>
<text text-anchor="start" x="107" y="-224" font-family="Helvetica,sans-Serif" font-size="10.00">+ begin()</text>
<text text-anchor="start" x="107" y="-213" font-family="Helvetica,sans-Serif" font-size="10.00">+ end()</text>
<text text-anchor="start" x="107" y="-202" font-family="Helvetica,sans-Serif" font-size="10.00">+ load()</text>
<text text-anchor="start" x="107" y="-191" font-family="Helvetica,sans-Serif" font-size="10.00">+ store()</text>
<text text-anchor="start" x="107" y="-180" font-family="Helvetica,sans-Serif" font-size="10.00">+ size()</text>
<text text-anchor="start" x="107" y="-169" font-family="Helvetica,sans-Serif" font-size="10.00">+ push_back()</text>
<text text-anchor="start" x="107" y="-158" font-family="Helvetica,sans-Serif" font-size="10.00">+ append()</text>
<text text-anchor="start" x="107" y="-147" font-family="Helvetica,sans-Serif" font-size="10.00">+ show()</text>
<text text-anchor="start" x="107" y="-136" font-family="Helvetica,sans-Serif" font-size="10.00">+ validate()</text>
<text text-anchor="start" x="107" y="-125" font-family="Helvetica,sans-Serif" font-size="10.00">+ reserve()</text>
<text text-anchor="start" x="107" y="-114" font-family="Helvetica,sans-Serif" font-size="10.00">+ resize()</text>
<text text-anchor="start" x="107" y="-103" font-family="Helvetica,sans-Serif" font-size="10.00">+ operator[]()</text>
</a>
</g>
<!-- Node2&#45;&gt;Node1 -->
<g id="edge2" class="edge"><title>Node2&#45;&gt;Node1</title>
<path fill="none" stroke="midnightblue" d="M153,-86.7012C153,-76.1562 153,-66.1509 153,-57.524"/>
<polygon fill="none" stroke="midnightblue" points="149.5,-86.9493 153,-96.9494 156.5,-86.9494 149.5,-86.9493"/>
</g>
<!-- Node3 -->
<g id="node4" class="node"><title>Node3</title>
<polygon fill="white" stroke="#bfbfbf" points="0,-522.5 0,-579.5 206,-579.5 206,-522.5 0,-522.5"/>
<text text-anchor="middle" x="103" y="-566.5" font-family="Helvetica,sans-Serif" font-size="10.00">std::vector&lt; boost::shared_ptr&lt; Neuron &gt; &gt;</text>
<polyline fill="none" stroke="#bfbfbf" points="0,-560.5 206,-560.5 "/>
<text text-anchor="start" x="8" y="-547.5" font-family="Helvetica,sans-Serif" font-size="10.00">&#45; elements</text>
<polyline fill="none" stroke="#bfbfbf" points="0,-541.5 206,-541.5 "/>
<text text-anchor="middle" x="103" y="-528.5" font-family="Helvetica,sans-Serif" font-size="10.00"> </text>
</g>
<!-- Node3&#45;&gt;Node2 -->
<g id="edge4" class="edge"><title>Node3&#45;&gt;Node2</title>
<path fill="none" stroke="#9a32cd" stroke-dasharray="5,2" d="M108.322,-512.15C116.003,-456.076 130.414,-350.88 140.795,-275.099"/>
<polygon fill="#9a32cd" stroke="#9a32cd" points="106.923,-522.359 103.822,-511.841 107.602,-517.405 108.281,-512.452 108.281,-512.452 108.281,-512.452 107.602,-517.405 112.739,-513.062 106.923,-522.359 106.923,-522.359"/>
<text text-anchor="middle" x="154.5" y="-410.5" font-family="Helvetica,sans-Serif" font-size="10.00">collection</text>
</g>
<!-- Node4 -->
<g id="node6" class="node"><title>Node4</title>
<a xlink:title="STL class.">
<polygon fill="white" stroke="#bfbfbf" points="132.5,-704.5 132.5,-761.5 219.5,-761.5 219.5,-704.5 132.5,-704.5"/>
<text text-anchor="middle" x="176" y="-748.5" font-family="Helvetica,sans-Serif" font-size="10.00">std::vector&lt; T &gt;</text>
<polyline fill="none" stroke="#bfbfbf" points="132.5,-742.5 219.5,-742.5 "/>
<text text-anchor="start" x="140.5" y="-729.5" font-family="Helvetica,sans-Serif" font-size="10.00">&#45; elements</text>
<polyline fill="none" stroke="#bfbfbf" points="132.5,-723.5 219.5,-723.5 "/>
<text text-anchor="middle" x="176" y="-710.5" font-family="Helvetica,sans-Serif" font-size="10.00"> </text>
</a>
</g>
<!-- Node4&#45;&gt;Node3 -->
<g id="edge6" class="edge"><title>Node4&#45;&gt;Node3</title>
<path fill="none" stroke="orange" stroke-dasharray="5,2" d="M123.256,-715.422C110.116,-708.402 97.6162,-698.842 90,-686 70.6621,-653.394 80.7895,-608.405 90.9689,-579.504"/>
<polygon fill="orange" stroke="orange" points="121.881,-718.645 132.403,-719.885 124.95,-712.354 121.881,-718.645"/>
<text text-anchor="middle" x="161.5" y="-676.5" font-family="Helvetica,sans-Serif" font-size="10.00">&lt; boost::shared_ptr&lt; Neuron &gt; &gt;</text>
</g>
<!-- Node7 -->
<g id="node12" class="node"><title>Node7</title>
<polygon fill="white" stroke="#bfbfbf" points="164,-598.5 164,-655.5 344,-655.5 344,-598.5 164,-598.5"/>
<text text-anchor="middle" x="254" y="-642.5" font-family="Helvetica,sans-Serif" font-size="10.00">std::vector&lt; boost::shared_ptr&lt; T &gt; &gt;</text>
<polyline fill="none" stroke="#bfbfbf" points="164,-636.5 344,-636.5 "/>
<text text-anchor="start" x="172" y="-623.5" font-family="Helvetica,sans-Serif" font-size="10.00">&#45; elements</text>
<polyline fill="none" stroke="#bfbfbf" points="164,-617.5 344,-617.5 "/>
<text text-anchor="middle" x="254" y="-604.5" font-family="Helvetica,sans-Serif" font-size="10.00"> </text>
</g>
<!-- Node4&#45;&gt;Node7 -->
<g id="edge14" class="edge"><title>Node4&#45;&gt;Node7</title>
<path fill="none" stroke="orange" stroke-dasharray="5,2" d="M227.038,-698.053C230.72,-694.271 234.113,-690.244 237,-686 243.116,-677.01 247.057,-665.818 249.586,-655.605"/>
<polygon fill="orange" stroke="orange" points="224.531,-695.605 219.657,-705.012 229.334,-700.698 224.531,-695.605"/>
<text text-anchor="middle" x="302" y="-676.5" font-family="Helvetica,sans-Serif" font-size="10.00">&lt; boost::shared_ptr&lt; T &gt; &gt;</text>
</g>
<!-- Node5 -->
<g id="node8" class="node"><title>Node5</title>
<polygon fill="white" stroke="#bfbfbf" points="161.5,-810.5 161.5,-867.5 190.5,-867.5 190.5,-810.5 161.5,-810.5"/>
<text text-anchor="middle" x="176" y="-854.5" font-family="Helvetica,sans-Serif" font-size="10.00">T</text>
<polyline fill="none" stroke="#bfbfbf" points="161.5,-848.5 190.5,-848.5 "/>
<text text-anchor="middle" x="176" y="-835.5" font-family="Helvetica,sans-Serif" font-size="10.00"> </text>
<polyline fill="none" stroke="#bfbfbf" points="161.5,-829.5 190.5,-829.5 "/>
<text text-anchor="middle" x="176" y="-816.5" font-family="Helvetica,sans-Serif" font-size="10.00"> </text>
</g>
<!-- Node5&#45;&gt;Node4 -->
<g id="edge8" class="edge"><title>Node5&#45;&gt;Node4</title>
<path fill="none" stroke="#9a32cd" stroke-dasharray="5,2" d="M176,-800.005C176,-787.326 176,-773.494 176,-761.708"/>
<polygon fill="#9a32cd" stroke="#9a32cd" points="176,-810.315 171.5,-800.315 176,-805.315 176,-800.315 176,-800.315 176,-800.315 176,-805.315 180.5,-800.315 176,-810.315 176,-810.315"/>
<text text-anchor="middle" x="196" y="-782.5" font-family="Helvetica,sans-Serif" font-size="10.00">elements</text>
</g>
<!-- Node6 -->
<g id="node10" class="node"><title>Node6</title>
<a xlink:href="class_container.html" target="_top" xlink:title="{Container\&lt; T \&gt;\n|# collection\l|+ begin()\l+ end()\l+ load()\l+ store()\l+ size()\l+ push_back()\l+ append()\l+ show()\l+ validate()\l+ reserve()\l+ resize()\l+ operator[]()\l}">
<polygon fill="white" stroke="black" points="185,-325 185,-503 267,-503 267,-325 185,-325"/>
<text text-anchor="middle" x="226" y="-490" font-family="Helvetica,sans-Serif" font-size="10.00">Container&lt; T &gt;</text>
<polyline fill="none" stroke="black" points="185,-484 267,-484 "/>
<text text-anchor="start" x="193" y="-471" font-family="Helvetica,sans-Serif" font-size="10.00"># collection</text>
<polyline fill="none" stroke="black" points="185,-465 267,-465 "/>
<text text-anchor="start" x="193" y="-452" font-family="Helvetica,sans-Serif" font-size="10.00">+ begin()</text>
<text text-anchor="start" x="193" y="-441" font-family="Helvetica,sans-Serif" font-size="10.00">+ end()</text>
<text text-anchor="start" x="193" y="-430" font-family="Helvetica,sans-Serif" font-size="10.00">+ load()</text>
<text text-anchor="start" x="193" y="-419" font-family="Helvetica,sans-Serif" font-size="10.00">+ store()</text>
<text text-anchor="start" x="193" y="-408" font-family="Helvetica,sans-Serif" font-size="10.00">+ size()</text>
<text text-anchor="start" x="193" y="-397" font-family="Helvetica,sans-Serif" font-size="10.00">+ push_back()</text>
<text text-anchor="start" x="193" y="-386" font-family="Helvetica,sans-Serif" font-size="10.00">+ append()</text>
<text text-anchor="start" x="193" y="-375" font-family="Helvetica,sans-Serif" font-size="10.00">+ show()</text>
<text text-anchor="start" x="193" y="-364" font-family="Helvetica,sans-Serif" font-size="10.00">+ validate()</text>
<text text-anchor="start" x="193" y="-353" font-family="Helvetica,sans-Serif" font-size="10.00">+ reserve()</text>
<text text-anchor="start" x="193" y="-342" font-family="Helvetica,sans-Serif" font-size="10.00">+ resize()</text>
<text text-anchor="start" x="193" y="-331" font-family="Helvetica,sans-Serif" font-size="10.00">+ operator[]()</text>
</a>
</g>
<!-- Node6&#45;&gt;Node2 -->
<g id="edge10" class="edge"><title>Node6&#45;&gt;Node2</title>
<path fill="none" stroke="orange" stroke-dasharray="5,2" d="M194.37,-315.211C190.097,-301.864 185.732,-288.233 181.518,-275.068"/>
<polygon fill="orange" stroke="orange" points="191.08,-316.413 197.463,-324.87 197.747,-314.279 191.08,-316.413"/>
<text text-anchor="middle" x="214" y="-296.5" font-family="Helvetica,sans-Serif" font-size="10.00">&lt; Neuron &gt;</text>
</g>
<!-- Node7&#45;&gt;Node6 -->
<g id="edge12" class="edge"><title>Node7&#45;&gt;Node6</title>
<path fill="none" stroke="#9a32cd" stroke-dasharray="5,2" d="M248.908,-588.266C245.786,-564.514 241.652,-533.07 237.757,-503.437"/>
<polygon fill="#9a32cd" stroke="#9a32cd" points="250.224,-598.274 244.459,-588.946 249.572,-593.317 248.92,-588.359 248.92,-588.359 248.92,-588.359 249.572,-593.317 253.382,-587.773 250.224,-598.274 250.224,-598.274"/>
<text text-anchor="middle" x="267.5" y="-547.5" font-family="Helvetica,sans-Serif" font-size="10.00">collection</text>
</g>
</g>
</svg>
