<?xml version="1.0" encoding="UTF-8" standalone="no"?>
<!DOCTYPE svg PUBLIC "-//W3C//DTD SVG 1.1//EN"
 "http://www.w3.org/Graphics/SVG/1.1/DTD/svg11.dtd">
<!-- Generated by graphviz version 2.25.20091207.0545 (20091207.0545)
 -->
<!-- Title: G Pages: 1 -->
<svg width="192pt" height="66pt"
 viewBox="0.00 0.00 192.00 66.00" xmlns="http://www.w3.org/2000/svg" xmlns:xlink="http://www.w3.org/1999/xlink">
<g id="graph1" class="graph" transform="scale(1 1) rotate(0) translate(4 62)">
<title>G</title>
<polygon fill="white" stroke="white" points="-4,5 -4,-62 189,-62 189,5 -4,5"/>
<!-- Node1 -->
<g id="node1" class="node"><title>Node1</title>
<polygon fill="#bfbfbf" stroke="black" points="0.5,-19.5 0.5,-38.5 63.5,-38.5 63.5,-19.5 0.5,-19.5"/>
<text text-anchor="middle" x="32" y="-25.5" font-family="Helvetica,sans-Serif" font-size="10.00">Con::show</text>
</g>
<!-- Node2 -->
<g id="node3" class="node"><title>Node2</title>
<a xlink:href="class_con.html#ad12ce81a557eadb2a00b10d5b5f4adb6" target="_top" xlink:title="A getter of the Id of the Neuron pointed by the from field.">
<polygon fill="white" stroke="black" points="111,-38.5 111,-57.5 173,-57.5 173,-38.5 111,-38.5"/>
<text text-anchor="middle" x="142" y="-44.5" font-family="Helvetica,sans-Serif" font-size="10.00">Con::getId</text>
</a>
</g>
<!-- Node1&#45;&gt;Node2 -->
<g id="edge2" class="edge"><title>Node1&#45;&gt;Node2</title>
<path fill="none" stroke="midnightblue" d="M63.5216,-34.4446C75.1276,-36.4493 88.4507,-38.7506 100.785,-40.8811"/>
<polygon fill="midnightblue" stroke="midnightblue" points="100.404,-44.367 110.854,-42.6203 101.596,-37.4692 100.404,-44.367"/>
</g>
<!-- Node3 -->
<g id="node5" class="node"><title>Node3</title>
<a xlink:href="class_con.html#a385c5bf6eb9e2ffc94c5b427c287ccb2" target="_top" xlink:title="weight field accessor.">
<polygon fill="white" stroke="black" points="100,-0.5 100,-19.5 184,-19.5 184,-0.5 100,-0.5"/>
<text text-anchor="middle" x="142" y="-6.5" font-family="Helvetica,sans-Serif" font-size="10.00">Con::getWeight</text>
</a>
</g>
<!-- Node1&#45;&gt;Node3 -->
<g id="edge4" class="edge"><title>Node1&#45;&gt;Node3</title>
<path fill="none" stroke="midnightblue" d="M63.5216,-23.5554C71.7321,-22.1372 80.802,-20.5706 89.7732,-19.021"/>
<polygon fill="midnightblue" stroke="midnightblue" points="90.5507,-22.4386 99.8091,-17.2875 89.3592,-15.5407 90.5507,-22.4386"/>
</g>
</g>
</svg>
