<?xml version="1.0" encoding="UTF-8" standalone="no"?>
<!DOCTYPE svg PUBLIC "-//W3C//DTD SVG 1.1//EN"
 "http://www.w3.org/Graphics/SVG/1.1/DTD/svg11.dtd">
<!-- Generated by graphviz version 2.28.0 (20110610.2051)
 -->
<!-- Title: G Pages: 1 -->
<svg width="548pt" height="28pt"
 viewBox="0.00 0.00 548.00 28.00" xmlns="http://www.w3.org/2000/svg" xmlns:xlink="http://www.w3.org/1999/xlink">
<g id="graph1" class="graph" transform="scale(1 1) rotate(0) translate(4 24)">
<title>G</title>
<polygon fill="white" stroke="white" points="-4,5 -4,-24 545,-24 545,5 -4,5"/>
<!-- Node1 -->
<g id="node1" class="node"><title>Node1</title>
<polygon fill="#bfbfbf" stroke="black" points="0,-0.5 0,-19.5 132,-19.5 132,-0.5 0,-0.5"/>
<text text-anchor="middle" x="66" y="-7.5" font-family="Helvetica,sans-Serif" font-size="10.00">MLPfactory::makeNeuron</text>
</g>
<!-- Node2 -->
<g id="node3" class="node"><title>Node2</title>
<a xlink:href="class_m_l_pfactory.html#aba55f8dff50e23de43170ccbfffa4f89" target="_top" xlink:title="MLPfactory::makePredictBehavior">
<polygon fill="white" stroke="black" points="168.5,-0.5 168.5,-19.5 341.5,-19.5 341.5,-0.5 168.5,-0.5"/>
<text text-anchor="middle" x="255" y="-7.5" font-family="Helvetica,sans-Serif" font-size="10.00">MLPfactory::makePredictBehavior</text>
</a>
</g>
<!-- Node1&#45;&gt;Node2 -->
<g id="edge2" class="edge"><title>Node1&#45;&gt;Node2</title>
<path fill="none" stroke="midnightblue" d="M132.141,-10C140.642,-10 149.488,-10 158.36,-10"/>
<polygon fill="midnightblue" stroke="midnightblue" points="158.371,-13.5001 168.371,-10 158.371,-6.5001 158.371,-13.5001"/>
</g>
<!-- Node3 -->
<g id="node5" class="node"><title>Node3</title>
<a xlink:href="class_m_l_pfactory.html#a69562b8fd06c60a2d5db66d8b0f10299" target="_top" xlink:title="MLPfactory::makeConContainer">
<polygon fill="white" stroke="black" points="378,-0.5 378,-19.5 540,-19.5 540,-0.5 378,-0.5"/>
<text text-anchor="middle" x="459" y="-7.5" font-family="Helvetica,sans-Serif" font-size="10.00">MLPfactory::makeConContainer</text>
</a>
</g>
<!-- Node2&#45;&gt;Node3 -->
<g id="edge4" class="edge"><title>Node2&#45;&gt;Node3</title>
<path fill="none" stroke="midnightblue" d="M341.666,-10C350.322,-10 359.132,-10 367.834,-10"/>
<polygon fill="midnightblue" stroke="midnightblue" points="367.983,-13.5001 377.983,-10 367.983,-6.5001 367.983,-13.5001"/>
</g>
</g>
</svg>
