<?xml version="1.0" encoding="UTF-8" standalone="no"?>
<!DOCTYPE svg PUBLIC "-//W3C//DTD SVG 1.1//EN"
 "http://www.w3.org/Graphics/SVG/1.1/DTD/svg11.dtd">
<!-- Generated by graphviz version 2.25.20091207.0545 (20091207.0545)
 -->
<!-- Title: G Pages: 1 -->
<svg width="369pt" height="948pt"
 viewBox="0.00 0.00 369.00 948.00" xmlns="http://www.w3.org/2000/svg" xmlns:xlink="http://www.w3.org/1999/xlink">
<g id="graph1" class="graph" transform="scale(1 1) rotate(0) translate(4 944)">
<title>G</title>
<polygon fill="white" stroke="white" points="-4,5 -4,-944 366,-944 366,5 -4,5"/>
<!-- Node1 -->
<g id="node1" class="node"><title>Node1</title>
<polygon fill="#bfbfbf" stroke="black" points="108,-0.5 108,-57.5 210,-57.5 210,-0.5 108,-0.5"/>
<text text-anchor="middle" x="159" y="-44.5" font-family="Helvetica,sans-Serif" font-size="10.00">vecMLPneuron</text>
<polyline fill="none" stroke="black" points="108,-38.5 210,-38.5 "/>
<text text-anchor="middle" x="159" y="-25.5" font-family="Helvetica,sans-Serif" font-size="10.00"> </text>
<polyline fill="none" stroke="black" points="108,-19.5 210,-19.5 "/>
<text text-anchor="start" x="116" y="-6.5" font-family="Helvetica,sans-Serif" font-size="10.00">+ buildAndAppend()</text>
</g>
<!-- Node2 -->
<g id="node2" class="node"><title>Node2</title>
<a xlink:href="classvec_neuron.html" target="_top" xlink:title="A vector of neurons.">
<polygon fill="white" stroke="black" points="127.5,-96.5 127.5,-153.5 190.5,-153.5 190.5,-96.5 127.5,-96.5"/>
<text text-anchor="middle" x="159" y="-140.5" font-family="Helvetica,sans-Serif" font-size="10.00">vecNeuron</text>
<polyline fill="none" stroke="black" points="127.5,-134.5 190.5,-134.5 "/>
<text text-anchor="middle" x="159" y="-121.5" font-family="Helvetica,sans-Serif" font-size="10.00"> </text>
<polyline fill="none" stroke="black" points="127.5,-115.5 190.5,-115.5 "/>
<text text-anchor="middle" x="159" y="-102.5" font-family="Helvetica,sans-Serif" font-size="10.00"> </text>
</a>
</g>
<!-- Node2&#45;&gt;Node1 -->
<g id="edge2" class="edge"><title>Node2&#45;&gt;Node1</title>
<path fill="none" stroke="midnightblue" d="M159,-86.3234C159,-76.7274 159,-66.6143 159,-57.599"/>
<polygon fill="none" stroke="midnightblue" points="155.5,-86.4567 159,-96.4568 162.5,-86.4568 155.5,-86.4567"/>
</g>
<!-- Node3 -->
<g id="node4" class="node"><title>Node3</title>
<a xlink:href="class_container.html" target="_top" xlink:title="{Container\&lt; Neuron \&gt;\n|# collection\l|+ begin()\l+ end()\l+ load()\l+ store()\l+ size()\l+ push_back()\l+ append()\l+ show()\l+ validate()\l+ reserve()\l+ resize()\l}">
<polygon fill="white" stroke="black" points="105,-192.5 105,-359.5 213,-359.5 213,-192.5 105,-192.5"/>
<text text-anchor="middle" x="159" y="-346.5" font-family="Helvetica,sans-Serif" font-size="10.00">Container&lt; Neuron &gt;</text>
<polyline fill="none" stroke="black" points="105,-340.5 213,-340.5 "/>
<text text-anchor="start" x="113" y="-327.5" font-family="Helvetica,sans-Serif" font-size="10.00"># collection</text>
<polyline fill="none" stroke="black" points="105,-321.5 213,-321.5 "/>
<text text-anchor="start" x="113" y="-308.5" font-family="Helvetica,sans-Serif" font-size="10.00">+ begin()</text>
<text text-anchor="start" x="113" y="-297.5" font-family="Helvetica,sans-Serif" font-size="10.00">+ end()</text>
<text text-anchor="start" x="113" y="-286.5" font-family="Helvetica,sans-Serif" font-size="10.00">+ load()</text>
<text text-anchor="start" x="113" y="-275.5" font-family="Helvetica,sans-Serif" font-size="10.00">+ store()</text>
<text text-anchor="start" x="113" y="-264.5" font-family="Helvetica,sans-Serif" font-size="10.00">+ size()</text>
<text text-anchor="start" x="113" y="-253.5" font-family="Helvetica,sans-Serif" font-size="10.00">+ push_back()</text>
<text text-anchor="start" x="113" y="-242.5" font-family="Helvetica,sans-Serif" font-size="10.00">+ append()</text>
<text text-anchor="start" x="113" y="-231.5" font-family="Helvetica,sans-Serif" font-size="10.00">+ show()</text>
<text text-anchor="start" x="113" y="-220.5" font-family="Helvetica,sans-Serif" font-size="10.00">+ validate()</text>
<text text-anchor="start" x="113" y="-209.5" font-family="Helvetica,sans-Serif" font-size="10.00">+ reserve()</text>
<text text-anchor="start" x="113" y="-198.5" font-family="Helvetica,sans-Serif" font-size="10.00">+ resize()</text>
</a>
</g>
<!-- Node3&#45;&gt;Node2 -->
<g id="edge4" class="edge"><title>Node3&#45;&gt;Node2</title>
<path fill="none" stroke="midnightblue" d="M159,-181.825C159,-171.671 159,-161.998 159,-153.604"/>
<polygon fill="none" stroke="midnightblue" points="155.5,-182.11 159,-192.11 162.5,-182.11 155.5,-182.11"/>
</g>
<!-- Node4 -->
<g id="node6" class="node"><title>Node4</title>
<polygon fill="white" stroke="#bfbfbf" points="0,-594.5 0,-651.5 206,-651.5 206,-594.5 0,-594.5"/>
<text text-anchor="middle" x="103" y="-638.5" font-family="Helvetica,sans-Serif" font-size="10.00">std::vector&lt; boost::shared_ptr&lt; Neuron &gt; &gt;</text>
<polyline fill="none" stroke="#bfbfbf" points="0,-632.5 206,-632.5 "/>
<text text-anchor="start" x="8" y="-619.5" font-family="Helvetica,sans-Serif" font-size="10.00">&#45; elements</text>
<polyline fill="none" stroke="#bfbfbf" points="0,-613.5 206,-613.5 "/>
<text text-anchor="middle" x="103" y="-600.5" font-family="Helvetica,sans-Serif" font-size="10.00"> </text>
</g>
<!-- Node4&#45;&gt;Node3 -->
<g id="edge6" class="edge"><title>Node4&#45;&gt;Node3</title>
<path fill="none" stroke="#9a32cd" stroke-dasharray="5,2" d="M109.272,-584.135C117.984,-530.153 133.971,-431.092 145.469,-359.844"/>
<polygon fill="#9a32cd" stroke="#9a32cd" points="107.63,-594.308 104.781,-583.719 108.427,-589.372 109.224,-584.436 109.224,-584.436 109.224,-584.436 108.427,-589.372 113.666,-585.153 107.63,-594.308 107.63,-594.308"/>
<text text-anchor="middle" x="147.5" y="-488.5" font-family="Helvetica,sans-Serif" font-size="10.00">collection</text>
</g>
<!-- Node5 -->
<g id="node8" class="node"><title>Node5</title>
<a xlink:title="STL class.">
<polygon fill="white" stroke="#bfbfbf" points="132.5,-776.5 132.5,-833.5 219.5,-833.5 219.5,-776.5 132.5,-776.5"/>
<text text-anchor="middle" x="176" y="-820.5" font-family="Helvetica,sans-Serif" font-size="10.00">std::vector&lt; T &gt;</text>
<polyline fill="none" stroke="#bfbfbf" points="132.5,-814.5 219.5,-814.5 "/>
<text text-anchor="start" x="140.5" y="-801.5" font-family="Helvetica,sans-Serif" font-size="10.00">&#45; elements</text>
<polyline fill="none" stroke="#bfbfbf" points="132.5,-795.5 219.5,-795.5 "/>
<text text-anchor="middle" x="176" y="-782.5" font-family="Helvetica,sans-Serif" font-size="10.00"> </text>
</a>
</g>
<!-- Node5&#45;&gt;Node4 -->
<g id="edge8" class="edge"><title>Node5&#45;&gt;Node4</title>
<path fill="none" stroke="orange" stroke-dasharray="5,2" d="M123.256,-787.422C110.116,-780.402 97.6162,-770.842 90,-758 70.6621,-725.394 80.7895,-680.405 90.9689,-651.504"/>
<polygon fill="orange" stroke="orange" points="121.881,-790.645 132.403,-791.885 124.95,-784.354 121.881,-790.645"/>
<text text-anchor="middle" x="161.5" y="-748.5" font-family="Helvetica,sans-Serif" font-size="10.00">&lt; boost::shared_ptr&lt; Neuron &gt; &gt;</text>
</g>
<!-- Node8 -->
<g id="node14" class="node"><title>Node8</title>
<polygon fill="white" stroke="#bfbfbf" points="164,-670.5 164,-727.5 344,-727.5 344,-670.5 164,-670.5"/>
<text text-anchor="middle" x="254" y="-714.5" font-family="Helvetica,sans-Serif" font-size="10.00">std::vector&lt; boost::shared_ptr&lt; T &gt; &gt;</text>
<polyline fill="none" stroke="#bfbfbf" points="164,-708.5 344,-708.5 "/>
<text text-anchor="start" x="172" y="-695.5" font-family="Helvetica,sans-Serif" font-size="10.00">&#45; elements</text>
<polyline fill="none" stroke="#bfbfbf" points="164,-689.5 344,-689.5 "/>
<text text-anchor="middle" x="254" y="-676.5" font-family="Helvetica,sans-Serif" font-size="10.00"> </text>
</g>
<!-- Node5&#45;&gt;Node8 -->
<g id="edge16" class="edge"><title>Node5&#45;&gt;Node8</title>
<path fill="none" stroke="orange" stroke-dasharray="5,2" d="M227.038,-770.053C230.72,-766.271 234.113,-762.244 237,-758 243.116,-749.01 247.057,-737.818 249.586,-727.605"/>
<polygon fill="orange" stroke="orange" points="224.531,-767.605 219.657,-777.012 229.334,-772.698 224.531,-767.605"/>
<text text-anchor="middle" x="302" y="-748.5" font-family="Helvetica,sans-Serif" font-size="10.00">&lt; boost::shared_ptr&lt; T &gt; &gt;</text>
</g>
<!-- Node6 -->
<g id="node10" class="node"><title>Node6</title>
<polygon fill="white" stroke="#bfbfbf" points="161.5,-882.5 161.5,-939.5 190.5,-939.5 190.5,-882.5 161.5,-882.5"/>
<text text-anchor="middle" x="176" y="-926.5" font-family="Helvetica,sans-Serif" font-size="10.00">T</text>
<polyline fill="none" stroke="#bfbfbf" points="161.5,-920.5 190.5,-920.5 "/>
<text text-anchor="middle" x="176" y="-907.5" font-family="Helvetica,sans-Serif" font-size="10.00"> </text>
<polyline fill="none" stroke="#bfbfbf" points="161.5,-901.5 190.5,-901.5 "/>
<text text-anchor="middle" x="176" y="-888.5" font-family="Helvetica,sans-Serif" font-size="10.00"> </text>
</g>
<!-- Node6&#45;&gt;Node5 -->
<g id="edge10" class="edge"><title>Node6&#45;&gt;Node5</title>
<path fill="none" stroke="#9a32cd" stroke-dasharray="5,2" d="M176,-872.005C176,-859.326 176,-845.494 176,-833.708"/>
<polygon fill="#9a32cd" stroke="#9a32cd" points="176,-882.315 171.5,-872.315 176,-877.315 176,-872.315 176,-872.315 176,-872.315 176,-877.315 180.5,-872.315 176,-882.315 176,-882.315"/>
<text text-anchor="middle" x="196" y="-854.5" font-family="Helvetica,sans-Serif" font-size="10.00">elements</text>
</g>
<!-- Node7 -->
<g id="node12" class="node"><title>Node7</title>
<a xlink:href="class_container.html" target="_top" xlink:title="{Container\&lt; T \&gt;\n|# collection\l|+ begin()\l+ end()\l+ load()\l+ store()\l+ size()\l+ push_back()\l+ append()\l+ show()\l+ validate()\l+ reserve()\l+ resize()\l}">
<polygon fill="white" stroke="black" points="180,-408.5 180,-575.5 262,-575.5 262,-408.5 180,-408.5"/>
<text text-anchor="middle" x="221" y="-562.5" font-family="Helvetica,sans-Serif" font-size="10.00">Container&lt; T &gt;</text>
<polyline fill="none" stroke="black" points="180,-556.5 262,-556.5 "/>
<text text-anchor="start" x="188" y="-543.5" font-family="Helvetica,sans-Serif" font-size="10.00"># collection</text>
<polyline fill="none" stroke="black" points="180,-537.5 262,-537.5 "/>
<text text-anchor="start" x="188" y="-524.5" font-family="Helvetica,sans-Serif" font-size="10.00">+ begin()</text>
<text text-anchor="start" x="188" y="-513.5" font-family="Helvetica,sans-Serif" font-size="10.00">+ end()</text>
<text text-anchor="start" x="188" y="-502.5" font-family="Helvetica,sans-Serif" font-size="10.00">+ load()</text>
<text text-anchor="start" x="188" y="-491.5" font-family="Helvetica,sans-Serif" font-size="10.00">+ store()</text>
<text text-anchor="start" x="188" y="-480.5" font-family="Helvetica,sans-Serif" font-size="10.00">+ size()</text>
<text text-anchor="start" x="188" y="-469.5" font-family="Helvetica,sans-Serif" font-size="10.00">+ push_back()</text>
<text text-anchor="start" x="188" y="-458.5" font-family="Helvetica,sans-Serif" font-size="10.00">+ append()</text>
<text text-anchor="start" x="188" y="-447.5" font-family="Helvetica,sans-Serif" font-size="10.00">+ show()</text>
<text text-anchor="start" x="188" y="-436.5" font-family="Helvetica,sans-Serif" font-size="10.00">+ validate()</text>
<text text-anchor="start" x="188" y="-425.5" font-family="Helvetica,sans-Serif" font-size="10.00">+ reserve()</text>
<text text-anchor="start" x="188" y="-414.5" font-family="Helvetica,sans-Serif" font-size="10.00">+ resize()</text>
</a>
</g>
<!-- Node7&#45;&gt;Node3 -->
<g id="edge12" class="edge"><title>Node7&#45;&gt;Node3</title>
<path fill="none" stroke="orange" stroke-dasharray="5,2" d="M194.203,-398.641C190.48,-385.674 186.676,-372.42 183.009,-359.645"/>
<polygon fill="orange" stroke="orange" points="190.906,-399.843 197.029,-408.489 197.634,-397.911 190.906,-399.843"/>
<text text-anchor="middle" x="215" y="-380.5" font-family="Helvetica,sans-Serif" font-size="10.00">&lt; Neuron &gt;</text>
</g>
<!-- Node8&#45;&gt;Node7 -->
<g id="edge14" class="edge"><title>Node8&#45;&gt;Node7</title>
<path fill="none" stroke="#9a32cd" stroke-dasharray="5,2" d="M247.815,-660.205C244.029,-636.456 239.033,-605.118 234.381,-575.934"/>
<polygon fill="#9a32cd" stroke="#9a32cd" points="249.411,-670.218 243.393,-661.051 248.624,-665.28 247.837,-660.342 247.837,-660.342 247.837,-660.342 248.624,-665.28 252.281,-659.634 249.411,-670.218 249.411,-670.218"/>
<text text-anchor="middle" x="256.5" y="-619.5" font-family="Helvetica,sans-Serif" font-size="10.00">collection</text>
</g>
</g>
</svg>
