<?xml version="1.0" encoding="UTF-8" standalone="no"?>
<!DOCTYPE svg PUBLIC "-//W3C//DTD SVG 1.1//EN"
 "http://www.w3.org/Graphics/SVG/1.1/DTD/svg11.dtd">
<!-- Generated by graphviz version 2.25.20091207.0545 (20091207.0545)
 -->
<!-- Title: G Pages: 1 -->
<svg width="351pt" height="954pt"
 viewBox="0.00 0.00 351.00 954.00" xmlns="http://www.w3.org/2000/svg" xmlns:xlink="http://www.w3.org/1999/xlink">
<g id="graph1" class="graph" transform="scale(1 1) rotate(0) translate(4 950)">
<title>G</title>
<polygon fill="white" stroke="white" points="-4,5 -4,-950 348,-950 348,5 -4,5"/>
<!-- Node1 -->
<g id="node1" class="node"><title>Node1</title>
<polygon fill="#bfbfbf" stroke="black" points="97,-1 97,-179 199,-179 199,-1 97,-1"/>
<text text-anchor="middle" x="148" y="-166" font-family="Helvetica,sans-Serif" font-size="10.00">VecCon</text>
<polyline fill="none" stroke="black" points="97,-160 199,-160 "/>
<text text-anchor="middle" x="148" y="-147" font-family="Helvetica,sans-Serif" font-size="10.00"> </text>
<polyline fill="none" stroke="black" points="97,-141 199,-141 "/>
<text text-anchor="start" x="105" y="-128" font-family="Helvetica,sans-Serif" font-size="10.00">+ numOfCons()</text>
<text text-anchor="start" x="105" y="-117" font-family="Helvetica,sans-Serif" font-size="10.00">+ getId()</text>
<text text-anchor="start" x="105" y="-106" font-family="Helvetica,sans-Serif" font-size="10.00">+ buildAndAppend()</text>
<text text-anchor="start" x="105" y="-95" font-family="Helvetica,sans-Serif" font-size="10.00">+ getWeight()</text>
<text text-anchor="start" x="105" y="-84" font-family="Helvetica,sans-Serif" font-size="10.00">+ getWeight()</text>
<text text-anchor="start" x="105" y="-73" font-family="Helvetica,sans-Serif" font-size="10.00">+ getFrom()</text>
<text text-anchor="start" x="105" y="-62" font-family="Helvetica,sans-Serif" font-size="10.00">+ setWeight()</text>
<text text-anchor="start" x="105" y="-51" font-family="Helvetica,sans-Serif" font-size="10.00">+ setWeight()</text>
<text text-anchor="start" x="105" y="-40" font-family="Helvetica,sans-Serif" font-size="10.00">+ setFrom()</text>
<text text-anchor="start" x="105" y="-29" font-family="Helvetica,sans-Serif" font-size="10.00">+ erase()</text>
<text text-anchor="start" x="105" y="-18" font-family="Helvetica,sans-Serif" font-size="10.00">+ select()</text>
<text text-anchor="start" x="105" y="-7" font-family="Helvetica,sans-Serif" font-size="10.00">+ validate()</text>
</g>
<!-- Node2 -->
<g id="node2" class="node"><title>Node2</title>
<a xlink:href="class_container.html" target="_top" xlink:title="{Container\&lt; Con \&gt;\n|# ldata\l|+ begin()\l+ end()\l+ getLdata()\l+ setLdata()\l+ size()\l+ push_back()\l+ append()\l+ show()\l+ validate()\l+ reserve()\l}">
<polygon fill="white" stroke="black" points="101,-219 101,-375 195,-375 195,-219 101,-219"/>
<text text-anchor="middle" x="148" y="-362" font-family="Helvetica,sans-Serif" font-size="10.00">Container&lt; Con &gt;</text>
<polyline fill="none" stroke="black" points="101,-356 195,-356 "/>
<text text-anchor="start" x="109" y="-343" font-family="Helvetica,sans-Serif" font-size="10.00"># ldata</text>
<polyline fill="none" stroke="black" points="101,-337 195,-337 "/>
<text text-anchor="start" x="109" y="-324" font-family="Helvetica,sans-Serif" font-size="10.00">+ begin()</text>
<text text-anchor="start" x="109" y="-313" font-family="Helvetica,sans-Serif" font-size="10.00">+ end()</text>
<text text-anchor="start" x="109" y="-302" font-family="Helvetica,sans-Serif" font-size="10.00">+ getLdata()</text>
<text text-anchor="start" x="109" y="-291" font-family="Helvetica,sans-Serif" font-size="10.00">+ setLdata()</text>
<text text-anchor="start" x="109" y="-280" font-family="Helvetica,sans-Serif" font-size="10.00">+ size()</text>
<text text-anchor="start" x="109" y="-269" font-family="Helvetica,sans-Serif" font-size="10.00">+ push_back()</text>
<text text-anchor="start" x="109" y="-258" font-family="Helvetica,sans-Serif" font-size="10.00">+ append()</text>
<text text-anchor="start" x="109" y="-247" font-family="Helvetica,sans-Serif" font-size="10.00">+ show()</text>
<text text-anchor="start" x="109" y="-236" font-family="Helvetica,sans-Serif" font-size="10.00">+ validate()</text>
<text text-anchor="start" x="109" y="-225" font-family="Helvetica,sans-Serif" font-size="10.00">+ reserve()</text>
</a>
</g>
<!-- Node2&#45;&gt;Node1 -->
<g id="edge2" class="edge"><title>Node2&#45;&gt;Node1</title>
<path fill="none" stroke="midnightblue" d="M148,-208.639C148,-198.866 148,-188.909 148,-179.127"/>
<polygon fill="none" stroke="midnightblue" points="144.5,-208.742 148,-218.742 151.5,-208.742 144.5,-208.742"/>
</g>
<!-- Node3 -->
<g id="node4" class="node"><title>Node3</title>
<polygon fill="white" stroke="#bfbfbf" points="0,-600.5 0,-657.5 192,-657.5 192,-600.5 0,-600.5"/>
<text text-anchor="middle" x="96" y="-644.5" font-family="Helvetica,sans-Serif" font-size="10.00">std::vector&lt; boost::shared_ptr&lt; Con &gt; &gt;</text>
<polyline fill="none" stroke="#bfbfbf" points="0,-638.5 192,-638.5 "/>
<text text-anchor="start" x="8" y="-625.5" font-family="Helvetica,sans-Serif" font-size="10.00">&#45; elements</text>
<polyline fill="none" stroke="#bfbfbf" points="0,-619.5 192,-619.5 "/>
<text text-anchor="middle" x="96" y="-606.5" font-family="Helvetica,sans-Serif" font-size="10.00"> </text>
</g>
<!-- Node3&#45;&gt;Node2 -->
<g id="edge4" class="edge"><title>Node3&#45;&gt;Node2</title>
<path fill="none" stroke="#9a32cd" stroke-dasharray="5,2" d="M102.029,-590.506C110.244,-538.055 125.145,-442.92 135.755,-375.183"/>
<polygon fill="#9a32cd" stroke="#9a32cd" points="100.478,-600.407 97.5802,-589.831 101.252,-595.467 102.026,-590.527 102.026,-590.527 102.026,-590.527 101.252,-595.467 106.472,-591.223 100.478,-600.407 100.478,-600.407"/>
<text text-anchor="middle" x="138.5" y="-499.5" font-family="Helvetica,sans-Serif" font-size="10.00">ldata</text>
</g>
<!-- Node4 -->
<g id="node6" class="node"><title>Node4</title>
<a xlink:title="STL class.">
<polygon fill="white" stroke="#bfbfbf" points="120.5,-782.5 120.5,-839.5 207.5,-839.5 207.5,-782.5 120.5,-782.5"/>
<text text-anchor="middle" x="164" y="-826.5" font-family="Helvetica,sans-Serif" font-size="10.00">std::vector&lt; T &gt;</text>
<polyline fill="none" stroke="#bfbfbf" points="120.5,-820.5 207.5,-820.5 "/>
<text text-anchor="start" x="128.5" y="-807.5" font-family="Helvetica,sans-Serif" font-size="10.00">&#45; elements</text>
<polyline fill="none" stroke="#bfbfbf" points="120.5,-801.5 207.5,-801.5 "/>
<text text-anchor="middle" x="164" y="-788.5" font-family="Helvetica,sans-Serif" font-size="10.00"> </text>
</a>
</g>
<!-- Node4&#45;&gt;Node3 -->
<g id="edge6" class="edge"><title>Node4&#45;&gt;Node3</title>
<path fill="none" stroke="orange" stroke-dasharray="5,2" d="M111.191,-789.955C100.727,-783.266 91.1016,-774.73 85,-764 66.3434,-731.192 75.4042,-686.458 84.7607,-657.647"/>
<polygon fill="orange" stroke="orange" points="109.714,-793.145 120.118,-795.147 113.233,-787.094 109.714,-793.145"/>
<text text-anchor="middle" x="150" y="-754.5" font-family="Helvetica,sans-Serif" font-size="10.00">&lt; boost::shared_ptr&lt; Con &gt; &gt;</text>
</g>
<!-- Node7 -->
<g id="node12" class="node"><title>Node7</title>
<polygon fill="white" stroke="#bfbfbf" points="146,-676.5 146,-733.5 326,-733.5 326,-676.5 146,-676.5"/>
<text text-anchor="middle" x="236" y="-720.5" font-family="Helvetica,sans-Serif" font-size="10.00">std::vector&lt; boost::shared_ptr&lt; T &gt; &gt;</text>
<polyline fill="none" stroke="#bfbfbf" points="146,-714.5 326,-714.5 "/>
<text text-anchor="start" x="154" y="-701.5" font-family="Helvetica,sans-Serif" font-size="10.00">&#45; elements</text>
<polyline fill="none" stroke="#bfbfbf" points="146,-695.5 326,-695.5 "/>
<text text-anchor="middle" x="236" y="-682.5" font-family="Helvetica,sans-Serif" font-size="10.00"> </text>
</g>
<!-- Node4&#45;&gt;Node7 -->
<g id="edge14" class="edge"><title>Node4&#45;&gt;Node7</title>
<path fill="none" stroke="orange" stroke-dasharray="5,2" d="M210.511,-775.072C213.638,-771.549 216.523,-767.846 219,-764 224.829,-754.948 228.705,-743.855 231.261,-733.74"/>
<polygon fill="orange" stroke="orange" points="207.779,-772.862 203.342,-782.482 212.81,-777.729 207.779,-772.862"/>
<text text-anchor="middle" x="284" y="-754.5" font-family="Helvetica,sans-Serif" font-size="10.00">&lt; boost::shared_ptr&lt; T &gt; &gt;</text>
</g>
<!-- Node5 -->
<g id="node8" class="node"><title>Node5</title>
<polygon fill="white" stroke="#bfbfbf" points="149.5,-888.5 149.5,-945.5 178.5,-945.5 178.5,-888.5 149.5,-888.5"/>
<text text-anchor="middle" x="164" y="-932.5" font-family="Helvetica,sans-Serif" font-size="10.00">T</text>
<polyline fill="none" stroke="#bfbfbf" points="149.5,-926.5 178.5,-926.5 "/>
<text text-anchor="middle" x="164" y="-913.5" font-family="Helvetica,sans-Serif" font-size="10.00"> </text>
<polyline fill="none" stroke="#bfbfbf" points="149.5,-907.5 178.5,-907.5 "/>
<text text-anchor="middle" x="164" y="-894.5" font-family="Helvetica,sans-Serif" font-size="10.00"> </text>
</g>
<!-- Node5&#45;&gt;Node4 -->
<g id="edge8" class="edge"><title>Node5&#45;&gt;Node4</title>
<path fill="none" stroke="#9a32cd" stroke-dasharray="5,2" d="M164,-878.005C164,-865.326 164,-851.494 164,-839.708"/>
<polygon fill="#9a32cd" stroke="#9a32cd" points="164,-888.315 159.5,-878.315 164,-883.315 164,-878.315 164,-878.315 164,-878.315 164,-883.315 168.5,-878.315 164,-888.315 164,-888.315"/>
<text text-anchor="middle" x="184" y="-860.5" font-family="Helvetica,sans-Serif" font-size="10.00">elements</text>
</g>
<!-- Node6 -->
<g id="node10" class="node"><title>Node6</title>
<a xlink:href="class_container.html" target="_top" xlink:title="{Container\&lt; T \&gt;\n|# ldata\l|+ begin()\l+ end()\l+ getLdata()\l+ setLdata()\l+ size()\l+ push_back()\l+ append()\l+ show()\l+ validate()\l+ reserve()\l}">
<polygon fill="white" stroke="black" points="167,-425 167,-581 249,-581 249,-425 167,-425"/>
<text text-anchor="middle" x="208" y="-568" font-family="Helvetica,sans-Serif" font-size="10.00">Container&lt; T &gt;</text>
<polyline fill="none" stroke="black" points="167,-562 249,-562 "/>
<text text-anchor="start" x="175" y="-549" font-family="Helvetica,sans-Serif" font-size="10.00"># ldata</text>
<polyline fill="none" stroke="black" points="167,-543 249,-543 "/>
<text text-anchor="start" x="175" y="-530" font-family="Helvetica,sans-Serif" font-size="10.00">+ begin()</text>
<text text-anchor="start" x="175" y="-519" font-family="Helvetica,sans-Serif" font-size="10.00">+ end()</text>
<text text-anchor="start" x="175" y="-508" font-family="Helvetica,sans-Serif" font-size="10.00">+ getLdata()</text>
<text text-anchor="start" x="175" y="-497" font-family="Helvetica,sans-Serif" font-size="10.00">+ setLdata()</text>
<text text-anchor="start" x="175" y="-486" font-family="Helvetica,sans-Serif" font-size="10.00">+ size()</text>
<text text-anchor="start" x="175" y="-475" font-family="Helvetica,sans-Serif" font-size="10.00">+ push_back()</text>
<text text-anchor="start" x="175" y="-464" font-family="Helvetica,sans-Serif" font-size="10.00">+ append()</text>
<text text-anchor="start" x="175" y="-453" font-family="Helvetica,sans-Serif" font-size="10.00">+ show()</text>
<text text-anchor="start" x="175" y="-442" font-family="Helvetica,sans-Serif" font-size="10.00">+ validate()</text>
<text text-anchor="start" x="175" y="-431" font-family="Helvetica,sans-Serif" font-size="10.00">+ reserve()</text>
</a>
</g>
<!-- Node6&#45;&gt;Node2 -->
<g id="edge10" class="edge"><title>Node6&#45;&gt;Node2</title>
<path fill="none" stroke="orange" stroke-dasharray="5,2" d="M182.428,-415.202C178.548,-401.882 174.568,-388.216 170.753,-375.12"/>
<polygon fill="orange" stroke="orange" points="179.074,-416.204 185.231,-424.827 185.795,-414.247 179.074,-416.204"/>
<text text-anchor="middle" x="196" y="-396.5" font-family="Helvetica,sans-Serif" font-size="10.00">&lt; Con &gt;</text>
</g>
<!-- Node7&#45;&gt;Node6 -->
<g id="edge12" class="edge"><title>Node7&#45;&gt;Node6</title>
<path fill="none" stroke="#9a32cd" stroke-dasharray="5,2" d="M230.638,-666.318C227.293,-642.182 222.867,-610.252 218.816,-581.031"/>
<polygon fill="#9a32cd" stroke="#9a32cd" points="232.048,-676.487 226.217,-667.199 231.361,-671.534 230.675,-666.581 230.675,-666.581 230.675,-666.581 231.361,-671.534 235.132,-665.964 232.048,-676.487 232.048,-676.487"/>
<text text-anchor="middle" x="239.5" y="-625.5" font-family="Helvetica,sans-Serif" font-size="10.00">ldata</text>
</g>
</g>
</svg>
