<?xml version="1.0" encoding="UTF-8" standalone="no"?>
<!DOCTYPE svg PUBLIC "-//W3C//DTD SVG 1.1//EN"
 "http://www.w3.org/Graphics/SVG/1.1/DTD/svg11.dtd">
<!-- Generated by graphviz version 2.25.20091207.0545 (20091207.0545)
 -->
<!-- Title: G Pages: 1 -->
<svg width="226pt" height="66pt"
 viewBox="0.00 0.00 226.00 66.00" xmlns="http://www.w3.org/2000/svg" xmlns:xlink="http://www.w3.org/1999/xlink">
<g id="graph1" class="graph" transform="scale(1 1) rotate(0) translate(4 62)">
<title>G</title>
<polygon fill="white" stroke="white" points="-4,5 -4,-62 223,-62 223,5 -4,5"/>
<!-- Node1 -->
<g id="node1" class="node"><title>Node1</title>
<polygon fill="#bfbfbf" stroke="black" points="0,-19.5 0,-38.5 82,-38.5 82,-19.5 0,-19.5"/>
<text text-anchor="middle" x="41" y="-25.5" font-family="Helvetica,sans-Serif" font-size="10.00">VecCon::select</text>
</g>
<!-- Node2 -->
<g id="node3" class="node"><title>Node2</title>
<a xlink:href="classvec_con.html#ac3d4b7b11bfff3407afd585c1ae6a658" target="_top" xlink:title="Getter of the weights of the specified elements from the vecCom object.">
<polygon fill="white" stroke="black" points="118,-38.5 118,-57.5 218,-57.5 218,-38.5 118,-38.5"/>
<text text-anchor="middle" x="168" y="-44.5" font-family="Helvetica,sans-Serif" font-size="10.00">VecCon::getWeight</text>
</a>
</g>
<!-- Node1&#45;&gt;Node2 -->
<g id="edge2" class="edge"><title>Node1&#45;&gt;Node2</title>
<path fill="none" stroke="midnightblue" d="M92.2602,-36.6688C100.634,-37.9217 109.303,-39.2186 117.655,-40.4681"/>
<polygon fill="midnightblue" stroke="midnightblue" points="92.6411,-33.187 82.2333,-35.1688 91.6053,-40.1099 92.6411,-33.187"/>
</g>
<!-- Node3 -->
<g id="node5" class="node"><title>Node3</title>
<a xlink:href="classvec_con.html#a89a39247b0188b4fcc473c430ad46d4c" target="_top" xlink:title="Setter of the weights of the specified elements from the VecCon object.">
<polygon fill="white" stroke="black" points="118,-0.5 118,-19.5 218,-19.5 218,-0.5 118,-0.5"/>
<text text-anchor="middle" x="168" y="-6.5" font-family="Helvetica,sans-Serif" font-size="10.00">VecCon::setWeight</text>
</a>
</g>
<!-- Node1&#45;&gt;Node3 -->
<g id="edge4" class="edge"><title>Node1&#45;&gt;Node3</title>
<path fill="none" stroke="midnightblue" d="M92.2602,-21.3312C100.634,-20.0783 109.303,-18.7814 117.655,-17.5319"/>
<polygon fill="midnightblue" stroke="midnightblue" points="91.6053,-17.8901 82.2333,-22.8312 92.6411,-24.813 91.6053,-17.8901"/>
</g>
</g>
</svg>
