<?xml version="1.0" encoding="UTF-8" standalone="no"?>
<!DOCTYPE svg PUBLIC "-//W3C//DTD SVG 1.1//EN"
 "http://www.w3.org/Graphics/SVG/1.1/DTD/svg11.dtd">
<!-- Generated by graphviz version 2.28.0 (20110610.2051)
 -->
<!-- Title: G Pages: 1 -->
<svg width="190pt" height="266pt"
 viewBox="0.00 0.00 190.00 266.00" xmlns="http://www.w3.org/2000/svg" xmlns:xlink="http://www.w3.org/1999/xlink">
<g id="graph1" class="graph" transform="scale(1 1) rotate(0) translate(4 262)">
<title>G</title>
<polygon fill="white" stroke="white" points="-4,5 -4,-262 187,-262 187,5 -4,5"/>
<!-- Node1 -->
<g id="node1" class="node"><title>Node1</title>
<polygon fill="#bfbfbf" stroke="black" points="0,-0.5 0,-57.5 182,-57.5 182,-0.5 0,-0.5"/>
<text text-anchor="middle" x="91" y="-45.5" font-family="Helvetica,sans-Serif" font-size="10.00">BATCHgdwmNetworkTrainBehavior</text>
<polyline fill="none" stroke="black" points="0,-38.5 182,-38.5 "/>
<text text-anchor="middle" x="91" y="-26.5" font-family="Helvetica,sans-Serif" font-size="10.00"> </text>
<polyline fill="none" stroke="black" points="0,-19.5 182,-19.5 "/>
<text text-anchor="start" x="8" y="-7.5" font-family="Helvetica,sans-Serif" font-size="10.00">+ train()</text>
</g>
<!-- Node2 -->
<g id="node2" class="node"><title>Node2</title>
<a xlink:href="class_batch_network_train_behavior.html" target="_top" xlink:title="class BatchNetworkTrainBehavior &#45;">
<polygon fill="white" stroke="black" points="18.5,-94.5 18.5,-151.5 163.5,-151.5 163.5,-94.5 18.5,-94.5"/>
<text text-anchor="middle" x="91" y="-139.5" font-family="Helvetica,sans-Serif" font-size="10.00">BatchNetworkTrainBehavior</text>
<polyline fill="none" stroke="black" points="18.5,-132.5 163.5,-132.5 "/>
<text text-anchor="middle" x="91" y="-120.5" font-family="Helvetica,sans-Serif" font-size="10.00"> </text>
<polyline fill="none" stroke="black" points="18.5,-113.5 163.5,-113.5 "/>
<text text-anchor="start" x="26.5" y="-101.5" font-family="Helvetica,sans-Serif" font-size="10.00">+ train()</text>
</a>
</g>
<!-- Node2&#45;&gt;Node1 -->
<g id="edge2" class="edge"><title>Node2&#45;&gt;Node1</title>
<path fill="none" stroke="midnightblue" d="M91,-84.2092C91,-75.2929 91,-65.9513 91,-57.5836"/>
<polygon fill="none" stroke="midnightblue" points="87.5001,-84.3969 91,-94.397 94.5001,-84.397 87.5001,-84.3969"/>
</g>
<!-- Node3 -->
<g id="node4" class="node"><title>Node3</title>
<a xlink:href="class_network_train_behavior.html" target="_top" xlink:title="class NetworkTrainBehavior &#45;">
<polygon fill="white" stroke="black" points="32,-189 32,-257 150,-257 150,-189 32,-189"/>
<text text-anchor="middle" x="91" y="-245" font-family="Helvetica,sans-Serif" font-size="10.00">NetworkTrainBehavior</text>
<polyline fill="none" stroke="black" points="32,-238 150,-238 "/>
<text text-anchor="start" x="40" y="-226" font-family="Helvetica,sans-Serif" font-size="10.00"># d_neuralNetwork</text>
<text text-anchor="start" x="40" y="-215" font-family="Helvetica,sans-Serif" font-size="10.00"># d_costFunction</text>
<polyline fill="none" stroke="black" points="32,-208 150,-208 "/>
<text text-anchor="start" x="40" y="-196" font-family="Helvetica,sans-Serif" font-size="10.00">+ train()</text>
</a>
</g>
<!-- Node3&#45;&gt;Node2 -->
<g id="edge4" class="edge"><title>Node3&#45;&gt;Node2</title>
<path fill="none" stroke="midnightblue" d="M91,-178.638C91,-169.455 91,-160.005 91,-151.6"/>
<polygon fill="none" stroke="midnightblue" points="87.5001,-178.822 91,-188.822 94.5001,-178.822 87.5001,-178.822"/>
</g>
</g>
</svg>
