<?xml version="1.0" encoding="UTF-8" standalone="no"?>
<!DOCTYPE svg PUBLIC "-//W3C//DTD SVG 1.1//EN"
 "http://www.w3.org/Graphics/SVG/1.1/DTD/svg11.dtd">
<!-- Generated by graphviz version 2.25.20091207.0545 (20091207.0545)
 -->
<!-- Title: G Pages: 1 -->
<svg width="216pt" height="462pt"
 viewBox="0.00 0.00 216.00 462.00" xmlns="http://www.w3.org/2000/svg" xmlns:xlink="http://www.w3.org/1999/xlink">
<g id="graph1" class="graph" transform="scale(1 1) rotate(0) translate(4 458)">
<title>G</title>
<polygon fill="white" stroke="white" points="-4,5 -4,-458 213,-458 213,5 -4,5"/>
<!-- Node1 -->
<g id="node1" class="node"><title>Node1</title>
<polygon fill="#bfbfbf" stroke="black" points="43.5,-1 43.5,-135 136.5,-135 136.5,-1 43.5,-1"/>
<text text-anchor="middle" x="90" y="-122" font-family="Helvetica,sans-Serif" font-size="10.00">Container&lt; T &gt;</text>
<polyline fill="none" stroke="black" points="43.5,-116 136.5,-116 "/>
<text text-anchor="start" x="51.5" y="-103" font-family="Helvetica,sans-Serif" font-size="10.00"># ldata</text>
<polyline fill="none" stroke="black" points="43.5,-97 136.5,-97 "/>
<text text-anchor="start" x="51.5" y="-84" font-family="Helvetica,sans-Serif" font-size="10.00">+ load()</text>
<text text-anchor="start" x="51.5" y="-73" font-family="Helvetica,sans-Serif" font-size="10.00">+ store()</text>
<text text-anchor="start" x="51.5" y="-62" font-family="Helvetica,sans-Serif" font-size="10.00">+ size()</text>
<text text-anchor="start" x="51.5" y="-51" font-family="Helvetica,sans-Serif" font-size="10.00">+ push_back()</text>
<text text-anchor="start" x="51.5" y="-40" font-family="Helvetica,sans-Serif" font-size="10.00">+ append()</text>
<text text-anchor="start" x="51.5" y="-29" font-family="Helvetica,sans-Serif" font-size="10.00">+ show()</text>
<text text-anchor="start" x="51.5" y="-18" font-family="Helvetica,sans-Serif" font-size="10.00">+ validate()</text>
<text text-anchor="start" x="51.5" y="-7" font-family="Helvetica,sans-Serif" font-size="10.00">+ reserve()</text>
</g>
<!-- Node2 -->
<g id="node2" class="node"><title>Node2</title>
<polygon fill="white" stroke="#bfbfbf" points="0,-184.5 0,-241.5 180,-241.5 180,-184.5 0,-184.5"/>
<text text-anchor="middle" x="90" y="-228.5" font-family="Helvetica,sans-Serif" font-size="10.00">std::vector&lt; boost::shared_ptr&lt; T &gt; &gt;</text>
<polyline fill="none" stroke="#bfbfbf" points="0,-222.5 180,-222.5 "/>
<text text-anchor="start" x="8" y="-209.5" font-family="Helvetica,sans-Serif" font-size="10.00">&#45; elements</text>
<polyline fill="none" stroke="#bfbfbf" points="0,-203.5 180,-203.5 "/>
<text text-anchor="middle" x="90" y="-190.5" font-family="Helvetica,sans-Serif" font-size="10.00"> </text>
</g>
<!-- Node2&#45;&gt;Node1 -->
<g id="edge2" class="edge"><title>Node2&#45;&gt;Node1</title>
<path fill="none" stroke="#9a32cd" stroke-dasharray="5,2" d="M90,-174.197C90,-162.118 90,-148.433 90,-135.002"/>
<polygon fill="#9a32cd" stroke="#9a32cd" points="90,-184.353 85.5001,-174.353 90,-179.353 90.0001,-174.353 90.0001,-174.353 90.0001,-174.353 90,-179.353 94.5001,-174.353 90,-184.353 90,-184.353"/>
<text text-anchor="middle" x="100.5" y="-156.5" font-family="Helvetica,sans-Serif" font-size="10.00">ldata</text>
</g>
<!-- Node3 -->
<g id="node4" class="node"><title>Node3</title>
<a xlink:title="STL class.">
<polygon fill="white" stroke="#bfbfbf" points="46.5,-290.5 46.5,-347.5 133.5,-347.5 133.5,-290.5 46.5,-290.5"/>
<text text-anchor="middle" x="90" y="-334.5" font-family="Helvetica,sans-Serif" font-size="10.00">std::vector&lt; T &gt;</text>
<polyline fill="none" stroke="#bfbfbf" points="46.5,-328.5 133.5,-328.5 "/>
<text text-anchor="start" x="54.5" y="-315.5" font-family="Helvetica,sans-Serif" font-size="10.00">&#45; elements</text>
<polyline fill="none" stroke="#bfbfbf" points="46.5,-309.5 133.5,-309.5 "/>
<text text-anchor="middle" x="90" y="-296.5" font-family="Helvetica,sans-Serif" font-size="10.00"> </text>
</a>
</g>
<!-- Node3&#45;&gt;Node2 -->
<g id="edge4" class="edge"><title>Node3&#45;&gt;Node2</title>
<path fill="none" stroke="orange" stroke-dasharray="5,2" d="M90,-280.005C90,-267.326 90,-253.494 90,-241.708"/>
<polygon fill="orange" stroke="orange" points="86.5001,-280.315 90,-290.315 93.5001,-280.315 86.5001,-280.315"/>
<text text-anchor="middle" x="149" y="-262.5" font-family="Helvetica,sans-Serif" font-size="10.00">&lt; boost::shared_ptr&lt; T &gt; &gt;</text>
</g>
<!-- Node4 -->
<g id="node6" class="node"><title>Node4</title>
<polygon fill="white" stroke="#bfbfbf" points="75.5,-396.5 75.5,-453.5 104.5,-453.5 104.5,-396.5 75.5,-396.5"/>
<text text-anchor="middle" x="90" y="-440.5" font-family="Helvetica,sans-Serif" font-size="10.00">T</text>
<polyline fill="none" stroke="#bfbfbf" points="75.5,-434.5 104.5,-434.5 "/>
<text text-anchor="middle" x="90" y="-421.5" font-family="Helvetica,sans-Serif" font-size="10.00"> </text>
<polyline fill="none" stroke="#bfbfbf" points="75.5,-415.5 104.5,-415.5 "/>
<text text-anchor="middle" x="90" y="-402.5" font-family="Helvetica,sans-Serif" font-size="10.00"> </text>
</g>
<!-- Node4&#45;&gt;Node3 -->
<g id="edge6" class="edge"><title>Node4&#45;&gt;Node3</title>
<path fill="none" stroke="#9a32cd" stroke-dasharray="5,2" d="M90,-386.005C90,-373.326 90,-359.494 90,-347.708"/>
<polygon fill="#9a32cd" stroke="#9a32cd" points="90,-396.315 85.5001,-386.315 90,-391.315 90.0001,-386.315 90.0001,-386.315 90.0001,-386.315 90,-391.315 94.5001,-386.315 90,-396.315 90,-396.315"/>
<text text-anchor="middle" x="110" y="-368.5" font-family="Helvetica,sans-Serif" font-size="10.00">elements</text>
</g>
</g>
</svg>
