<?xml version="1.0" encoding="UTF-8" standalone="no"?>
<!DOCTYPE svg PUBLIC "-//W3C//DTD SVG 1.1//EN"
 "http://www.w3.org/Graphics/SVG/1.1/DTD/svg11.dtd">
<!-- Generated by graphviz version 2.25.20091207.0545 (20091207.0545)
 -->
<!-- Title: G Pages: 1 -->
<svg width="351pt" height="876pt"
 viewBox="0.00 0.00 351.00 876.00" xmlns="http://www.w3.org/2000/svg" xmlns:xlink="http://www.w3.org/1999/xlink">
<g id="graph1" class="graph" transform="scale(1 1) rotate(0) translate(4 872)">
<title>G</title>
<polygon fill="white" stroke="white" points="-4,5 -4,-872 348,-872 348,5 -4,5"/>
<!-- Node1 -->
<g id="node1" class="node"><title>Node1</title>
<polygon fill="#bfbfbf" stroke="black" points="95,-0.5 95,-145.5 197,-145.5 197,-0.5 95,-0.5"/>
<text text-anchor="middle" x="146" y="-132.5" font-family="Helvetica,sans-Serif" font-size="10.00">vecCon</text>
<polyline fill="none" stroke="black" points="95,-126.5 197,-126.5 "/>
<text text-anchor="middle" x="146" y="-113.5" font-family="Helvetica,sans-Serif" font-size="10.00"> </text>
<polyline fill="none" stroke="black" points="95,-107.5 197,-107.5 "/>
<text text-anchor="start" x="103" y="-94.5" font-family="Helvetica,sans-Serif" font-size="10.00">+ numOfCons()</text>
<text text-anchor="start" x="103" y="-83.5" font-family="Helvetica,sans-Serif" font-size="10.00">+ getFromId()</text>
<text text-anchor="start" x="103" y="-72.5" font-family="Helvetica,sans-Serif" font-size="10.00">+ buildAndAppend()</text>
<text text-anchor="start" x="103" y="-61.5" font-family="Helvetica,sans-Serif" font-size="10.00">+ getWeight()</text>
<text text-anchor="start" x="103" y="-50.5" font-family="Helvetica,sans-Serif" font-size="10.00">+ getFromNeuron()</text>
<text text-anchor="start" x="103" y="-39.5" font-family="Helvetica,sans-Serif" font-size="10.00">+ setWeight()</text>
<text text-anchor="start" x="103" y="-28.5" font-family="Helvetica,sans-Serif" font-size="10.00">+ setFromNeuron()</text>
<text text-anchor="start" x="103" y="-17.5" font-family="Helvetica,sans-Serif" font-size="10.00">+ erase()</text>
<text text-anchor="start" x="103" y="-6.5" font-family="Helvetica,sans-Serif" font-size="10.00">+ select()</text>
</g>
<!-- Node2 -->
<g id="node2" class="node"><title>Node2</title>
<a xlink:href="classvec_a_m_o_r_e.html" target="_top" xlink:title="{vecAMORE\&lt; Con \&gt;\n|# ldata\l|+ getLdata()\l+ setLdata()\l+ size()\l+ push_back()\l+ append()\l+ show()\l+ validate()\l+ reserve()\l}">
<polygon fill="white" stroke="black" points="93.5,-185 93.5,-319 198.5,-319 198.5,-185 93.5,-185"/>
<text text-anchor="middle" x="146" y="-306" font-family="Helvetica,sans-Serif" font-size="10.00">vecAMORE&lt; Con &gt;</text>
<polyline fill="none" stroke="black" points="93.5,-300 198.5,-300 "/>
<text text-anchor="start" x="101.5" y="-287" font-family="Helvetica,sans-Serif" font-size="10.00"># ldata</text>
<polyline fill="none" stroke="black" points="93.5,-281 198.5,-281 "/>
<text text-anchor="start" x="101.5" y="-268" font-family="Helvetica,sans-Serif" font-size="10.00">+ getLdata()</text>
<text text-anchor="start" x="101.5" y="-257" font-family="Helvetica,sans-Serif" font-size="10.00">+ setLdata()</text>
<text text-anchor="start" x="101.5" y="-246" font-family="Helvetica,sans-Serif" font-size="10.00">+ size()</text>
<text text-anchor="start" x="101.5" y="-235" font-family="Helvetica,sans-Serif" font-size="10.00">+ push_back()</text>
<text text-anchor="start" x="101.5" y="-224" font-family="Helvetica,sans-Serif" font-size="10.00">+ append()</text>
<text text-anchor="start" x="101.5" y="-213" font-family="Helvetica,sans-Serif" font-size="10.00">+ show()</text>
<text text-anchor="start" x="101.5" y="-202" font-family="Helvetica,sans-Serif" font-size="10.00">+ validate()</text>
<text text-anchor="start" x="101.5" y="-191" font-family="Helvetica,sans-Serif" font-size="10.00">+ reserve()</text>
</a>
</g>
<!-- Node2&#45;&gt;Node1 -->
<g id="edge2" class="edge"><title>Node2&#45;&gt;Node1</title>
<path fill="none" stroke="midnightblue" d="M146,-174.83C146,-165.139 146,-155.252 146,-145.634"/>
<polygon fill="none" stroke="midnightblue" points="142.5,-174.838 146,-184.838 149.5,-174.838 142.5,-174.838"/>
</g>
<!-- Node3 -->
<g id="node4" class="node"><title>Node3</title>
<polygon fill="white" stroke="#bfbfbf" points="0,-522.5 0,-579.5 192,-579.5 192,-522.5 0,-522.5"/>
<text text-anchor="middle" x="96" y="-566.5" font-family="Helvetica,sans-Serif" font-size="10.00">std::vector&lt; boost::shared_ptr&lt; Con &gt; &gt;</text>
<polyline fill="none" stroke="#bfbfbf" points="0,-560.5 192,-560.5 "/>
<text text-anchor="start" x="8" y="-547.5" font-family="Helvetica,sans-Serif" font-size="10.00">&#45; elements</text>
<polyline fill="none" stroke="#bfbfbf" points="0,-541.5 192,-541.5 "/>
<text text-anchor="middle" x="96" y="-528.5" font-family="Helvetica,sans-Serif" font-size="10.00"> </text>
</g>
<!-- Node3&#45;&gt;Node2 -->
<g id="edge4" class="edge"><title>Node3&#45;&gt;Node2</title>
<path fill="none" stroke="#9a32cd" stroke-dasharray="5,2" d="M102.493,-512.17C110.671,-463.268 124.853,-378.462 134.796,-319.003"/>
<polygon fill="#9a32cd" stroke="#9a32cd" points="100.794,-522.331 98.0053,-511.725 101.619,-517.399 102.444,-512.468 102.444,-512.468 102.444,-512.468 101.619,-517.399 106.882,-513.21 100.794,-522.331 100.794,-522.331"/>
<text text-anchor="middle" x="137.5" y="-432.5" font-family="Helvetica,sans-Serif" font-size="10.00">ldata</text>
</g>
<!-- Node4 -->
<g id="node6" class="node"><title>Node4</title>
<a xlink:title="STL class.">
<polygon fill="white" stroke="#bfbfbf" points="120.5,-704.5 120.5,-761.5 207.5,-761.5 207.5,-704.5 120.5,-704.5"/>
<text text-anchor="middle" x="164" y="-748.5" font-family="Helvetica,sans-Serif" font-size="10.00">std::vector&lt; T &gt;</text>
<polyline fill="none" stroke="#bfbfbf" points="120.5,-742.5 207.5,-742.5 "/>
<text text-anchor="start" x="128.5" y="-729.5" font-family="Helvetica,sans-Serif" font-size="10.00">&#45; elements</text>
<polyline fill="none" stroke="#bfbfbf" points="120.5,-723.5 207.5,-723.5 "/>
<text text-anchor="middle" x="164" y="-710.5" font-family="Helvetica,sans-Serif" font-size="10.00"> </text>
</a>
</g>
<!-- Node4&#45;&gt;Node3 -->
<g id="edge6" class="edge"><title>Node4&#45;&gt;Node3</title>
<path fill="none" stroke="orange" stroke-dasharray="5,2" d="M111.191,-711.955C100.727,-705.266 91.1016,-696.73 85,-686 66.3434,-653.192 75.4042,-608.458 84.7607,-579.647"/>
<polygon fill="orange" stroke="orange" points="109.714,-715.145 120.118,-717.147 113.233,-709.094 109.714,-715.145"/>
<text text-anchor="middle" x="150" y="-676.5" font-family="Helvetica,sans-Serif" font-size="10.00">&lt; boost::shared_ptr&lt; Con &gt; &gt;</text>
</g>
<!-- Node7 -->
<g id="node12" class="node"><title>Node7</title>
<polygon fill="white" stroke="#bfbfbf" points="146,-598.5 146,-655.5 326,-655.5 326,-598.5 146,-598.5"/>
<text text-anchor="middle" x="236" y="-642.5" font-family="Helvetica,sans-Serif" font-size="10.00">std::vector&lt; boost::shared_ptr&lt; T &gt; &gt;</text>
<polyline fill="none" stroke="#bfbfbf" points="146,-636.5 326,-636.5 "/>
<text text-anchor="start" x="154" y="-623.5" font-family="Helvetica,sans-Serif" font-size="10.00">&#45; elements</text>
<polyline fill="none" stroke="#bfbfbf" points="146,-617.5 326,-617.5 "/>
<text text-anchor="middle" x="236" y="-604.5" font-family="Helvetica,sans-Serif" font-size="10.00"> </text>
</g>
<!-- Node4&#45;&gt;Node7 -->
<g id="edge14" class="edge"><title>Node4&#45;&gt;Node7</title>
<path fill="none" stroke="orange" stroke-dasharray="5,2" d="M210.511,-697.072C213.638,-693.549 216.523,-689.846 219,-686 224.829,-676.948 228.705,-665.855 231.261,-655.74"/>
<polygon fill="orange" stroke="orange" points="207.779,-694.862 203.342,-704.482 212.81,-699.729 207.779,-694.862"/>
<text text-anchor="middle" x="284" y="-676.5" font-family="Helvetica,sans-Serif" font-size="10.00">&lt; boost::shared_ptr&lt; T &gt; &gt;</text>
</g>
<!-- Node5 -->
<g id="node8" class="node"><title>Node5</title>
<polygon fill="white" stroke="#bfbfbf" points="149.5,-810.5 149.5,-867.5 178.5,-867.5 178.5,-810.5 149.5,-810.5"/>
<text text-anchor="middle" x="164" y="-854.5" font-family="Helvetica,sans-Serif" font-size="10.00">T</text>
<polyline fill="none" stroke="#bfbfbf" points="149.5,-848.5 178.5,-848.5 "/>
<text text-anchor="middle" x="164" y="-835.5" font-family="Helvetica,sans-Serif" font-size="10.00"> </text>
<polyline fill="none" stroke="#bfbfbf" points="149.5,-829.5 178.5,-829.5 "/>
<text text-anchor="middle" x="164" y="-816.5" font-family="Helvetica,sans-Serif" font-size="10.00"> </text>
</g>
<!-- Node5&#45;&gt;Node4 -->
<g id="edge8" class="edge"><title>Node5&#45;&gt;Node4</title>
<path fill="none" stroke="#9a32cd" stroke-dasharray="5,2" d="M164,-800.005C164,-787.326 164,-773.494 164,-761.708"/>
<polygon fill="#9a32cd" stroke="#9a32cd" points="164,-810.315 159.5,-800.315 164,-805.315 164,-800.315 164,-800.315 164,-800.315 164,-805.315 168.5,-800.315 164,-810.315 164,-810.315"/>
<text text-anchor="middle" x="184" y="-782.5" font-family="Helvetica,sans-Serif" font-size="10.00">elements</text>
</g>
<!-- Node6 -->
<g id="node10" class="node"><title>Node6</title>
<a xlink:href="classvec_a_m_o_r_e.html" target="_top" xlink:title="{vecAMORE\&lt; T \&gt;\n|# ldata\l|+ getLdata()\l+ setLdata()\l+ size()\l+ push_back()\l+ append()\l+ show()\l+ validate()\l+ reserve()\l}">
<polygon fill="white" stroke="black" points="162.5,-369 162.5,-503 255.5,-503 255.5,-369 162.5,-369"/>
<text text-anchor="middle" x="209" y="-490" font-family="Helvetica,sans-Serif" font-size="10.00">vecAMORE&lt; T &gt;</text>
<polyline fill="none" stroke="black" points="162.5,-484 255.5,-484 "/>
<text text-anchor="start" x="170.5" y="-471" font-family="Helvetica,sans-Serif" font-size="10.00"># ldata</text>
<polyline fill="none" stroke="black" points="162.5,-465 255.5,-465 "/>
<text text-anchor="start" x="170.5" y="-452" font-family="Helvetica,sans-Serif" font-size="10.00">+ getLdata()</text>
<text text-anchor="start" x="170.5" y="-441" font-family="Helvetica,sans-Serif" font-size="10.00">+ setLdata()</text>
<text text-anchor="start" x="170.5" y="-430" font-family="Helvetica,sans-Serif" font-size="10.00">+ size()</text>
<text text-anchor="start" x="170.5" y="-419" font-family="Helvetica,sans-Serif" font-size="10.00">+ push_back()</text>
<text text-anchor="start" x="170.5" y="-408" font-family="Helvetica,sans-Serif" font-size="10.00">+ append()</text>
<text text-anchor="start" x="170.5" y="-397" font-family="Helvetica,sans-Serif" font-size="10.00">+ show()</text>
<text text-anchor="start" x="170.5" y="-386" font-family="Helvetica,sans-Serif" font-size="10.00">+ validate()</text>
<text text-anchor="start" x="170.5" y="-375" font-family="Helvetica,sans-Serif" font-size="10.00">+ reserve()</text>
</a>
</g>
<!-- Node6&#45;&gt;Node2 -->
<g id="edge10" class="edge"><title>Node6&#45;&gt;Node2</title>
<path fill="none" stroke="orange" stroke-dasharray="5,2" d="M182.696,-359.176C178.131,-345.843 173.416,-332.073 168.949,-319.027"/>
<polygon fill="orange" stroke="orange" points="179.437,-360.464 185.988,-368.791 186.06,-358.196 179.437,-360.464"/>
<text text-anchor="middle" x="197" y="-340.5" font-family="Helvetica,sans-Serif" font-size="10.00">&lt; Con &gt;</text>
</g>
<!-- Node7&#45;&gt;Node6 -->
<g id="edge12" class="edge"><title>Node7&#45;&gt;Node6</title>
<path fill="none" stroke="#9a32cd" stroke-dasharray="5,2" d="M230.551,-588.454C227.1,-564.038 222.542,-531.795 218.507,-503.252"/>
<polygon fill="#9a32cd" stroke="#9a32cd" points="231.958,-598.405 226.102,-589.134 231.258,-593.455 230.558,-588.504 230.558,-588.504 230.558,-588.504 231.258,-593.455 235.014,-587.874 231.958,-598.405 231.958,-598.405"/>
<text text-anchor="middle" x="238.5" y="-547.5" font-family="Helvetica,sans-Serif" font-size="10.00">ldata</text>
</g>
</g>
</svg>
