<?xml version="1.0" encoding="UTF-8" standalone="no"?>
<!DOCTYPE svg PUBLIC "-//W3C//DTD SVG 1.1//EN"
 "http://www.w3.org/Graphics/SVG/1.1/DTD/svg11.dtd">
<!-- Generated by graphviz version 2.25.20091207.0545 (20091207.0545)
 -->
<!-- Title: G Pages: 1 -->
<svg width="416pt" height="66pt"
 viewBox="0.00 0.00 416.00 66.00" xmlns="http://www.w3.org/2000/svg" xmlns:xlink="http://www.w3.org/1999/xlink">
<g id="graph1" class="graph" transform="scale(1 1) rotate(0) translate(4 62)">
<title>G</title>
<polygon fill="white" stroke="white" points="-4,5 -4,-62 413,-62 413,5 -4,5"/>
<!-- Node1 -->
<g id="node1" class="node"><title>Node1</title>
<polygon fill="#bfbfbf" stroke="black" points="0.5,-19.5 0.5,-38.5 91.5,-38.5 91.5,-19.5 0.5,-19.5"/>
<text text-anchor="middle" x="46" y="-25.5" font-family="Helvetica,sans-Serif" font-size="10.00">Container::empty</text>
</g>
<!-- Node2 -->
<g id="node3" class="node"><title>Node2</title>
<a xlink:href="class_con_container.html#a7a4303c5597439ae3be57fa9707a6fd4" target="_top" xlink:title="Builds Con objects and appends them to collection.">
<polygon fill="white" stroke="black" points="128.5,-38.5 128.5,-57.5 281.5,-57.5 281.5,-38.5 128.5,-38.5"/>
<text text-anchor="middle" x="205" y="-44.5" font-family="Helvetica,sans-Serif" font-size="10.00">ConContainer::buildAndAppend</text>
</a>
</g>
<!-- Node1&#45;&gt;Node2 -->
<g id="edge2" class="edge"><title>Node1&#45;&gt;Node2</title>
<path fill="none" stroke="midnightblue" d="M101.771,-35.6645C110.329,-36.6871 119.29,-37.7579 128.206,-38.8234"/>
<polygon fill="midnightblue" stroke="midnightblue" points="101.908,-32.156 91.563,-34.4446 101.077,-39.1065 101.908,-32.156"/>
</g>
<!-- Node3 -->
<g id="node5" class="node"><title>Node3</title>
<a xlink:href="class_con_container.html#aa7f1bbd910afe9c4241e8bd4d5fbc497" target="_top" xlink:title="Setter of the from fields of the Con objects related to ConContainer.">
<polygon fill="white" stroke="black" points="146,-0.5 146,-19.5 264,-19.5 264,-0.5 146,-0.5"/>
<text text-anchor="middle" x="205" y="-6.5" font-family="Helvetica,sans-Serif" font-size="10.00">ConContainer::setFrom</text>
</a>
</g>
<!-- Node1&#45;&gt;Node3 -->
<g id="edge4" class="edge"><title>Node1&#45;&gt;Node3</title>
<path fill="none" stroke="midnightblue" d="M101.715,-22.3423C115.97,-20.6389 131.348,-18.8011 145.773,-17.0774"/>
<polygon fill="midnightblue" stroke="midnightblue" points="101.077,-18.8935 91.563,-23.5554 101.908,-25.844 101.077,-18.8935"/>
</g>
<!-- Node4 -->
<g id="node7" class="node"><title>Node4</title>
<a xlink:href="class_neuron.html#ac8129f5de3ec1c143f40d507b6843649" target="_top" xlink:title="Neuron::setFrom">
<polygon fill="white" stroke="black" points="318,-0.5 318,-19.5 408,-19.5 408,-0.5 318,-0.5"/>
<text text-anchor="middle" x="363" y="-6.5" font-family="Helvetica,sans-Serif" font-size="10.00">Neuron::setFrom</text>
</a>
</g>
<!-- Node3&#45;&gt;Node4 -->
<g id="edge6" class="edge"><title>Node3&#45;&gt;Node4</title>
<path fill="none" stroke="midnightblue" d="M274.356,-10C289.046,-10 304.188,-10 317.709,-10"/>
<polygon fill="midnightblue" stroke="midnightblue" points="274.283,-6.5001 264.283,-10 274.283,-13.5001 274.283,-6.5001"/>
</g>
</g>
</svg>
