<?xml version="1.0" encoding="UTF-8" standalone="no"?>
<!DOCTYPE svg PUBLIC "-//W3C//DTD SVG 1.1//EN"
 "http://www.w3.org/Graphics/SVG/1.1/DTD/svg11.dtd">
<!-- Generated by graphviz version 2.28.0 (20110610.2051)
 -->
<!-- Title: G Pages: 1 -->
<svg width="920pt" height="206pt"
 viewBox="0.00 0.00 920.00 206.00" xmlns="http://www.w3.org/2000/svg" xmlns:xlink="http://www.w3.org/1999/xlink">
<g id="graph1" class="graph" transform="scale(1 1) rotate(0) translate(4 202)">
<title>G</title>
<polygon fill="white" stroke="white" points="-4,5 -4,-202 917,-202 917,5 -4,5"/>
<!-- Node1 -->
<g id="node1" class="node"><title>Node1</title>
<polygon fill="#bfbfbf" stroke="black" points="378,-107 378,-197 512,-197 512,-107 378,-107"/>
<text text-anchor="middle" x="445" y="-185" font-family="Helvetica,sans-Serif" font-size="10.00">ActivationFunction</text>
<polyline fill="none" stroke="black" points="378,-178 512,-178 "/>
<text text-anchor="start" x="386" y="-166" font-family="Helvetica,sans-Serif" font-size="10.00"># d_predictBehavior</text>
<polyline fill="none" stroke="black" points="378,-159 512,-159 "/>
<text text-anchor="start" x="386" y="-147" font-family="Helvetica,sans-Serif" font-size="10.00">+ f0()</text>
<text text-anchor="start" x="386" y="-136" font-family="Helvetica,sans-Serif" font-size="10.00">+ f1()</text>
<text text-anchor="start" x="386" y="-125" font-family="Helvetica,sans-Serif" font-size="10.00">+ getInducedLocalField()</text>
<text text-anchor="start" x="386" y="-114" font-family="Helvetica,sans-Serif" font-size="10.00">+ setPredictBehavior()</text>
</g>
<!-- Node2 -->
<g id="node3" class="node"><title>Node2</title>
<a xlink:href="class_arc_tan.html" target="_top" xlink:title="class ArcTan &#45;">
<polygon fill="white" stroke="black" points="0,-1 0,-69 48,-69 48,-1 0,-1"/>
<text text-anchor="middle" x="24" y="-57" font-family="Helvetica,sans-Serif" font-size="10.00">ArcTan</text>
<polyline fill="none" stroke="black" points="0,-50 48,-50 "/>
<text text-anchor="middle" x="24" y="-38" font-family="Helvetica,sans-Serif" font-size="10.00"> </text>
<polyline fill="none" stroke="black" points="0,-31 48,-31 "/>
<text text-anchor="start" x="8" y="-19" font-family="Helvetica,sans-Serif" font-size="10.00">+ f0()</text>
<text text-anchor="start" x="8" y="-8" font-family="Helvetica,sans-Serif" font-size="10.00">+ f1()</text>
</a>
</g>
<!-- Node1&#45;&gt;Node2 -->
<g id="edge2" class="edge"><title>Node1&#45;&gt;Node2</title>
<path fill="none" stroke="midnightblue" d="M367.535,-148.11C285.742,-142.134 155.286,-124.086 57,-70 53.9731,-68.3344 51.0512,-66.3001 48.2813,-64.063"/>
<polygon fill="none" stroke="midnightblue" points="367.54,-151.619 377.757,-148.813 368.02,-144.635 367.54,-151.619"/>
</g>
<!-- Node3 -->
<g id="node5" class="node"><title>Node3</title>
<a xlink:href="class_cosine.html" target="_top" xlink:title="class Cosine &#45;">
<polygon fill="white" stroke="black" points="66.5,-1 66.5,-69 115.5,-69 115.5,-1 66.5,-1"/>
<text text-anchor="middle" x="91" y="-57" font-family="Helvetica,sans-Serif" font-size="10.00">Cosine</text>
<polyline fill="none" stroke="black" points="66.5,-50 115.5,-50 "/>
<text text-anchor="middle" x="91" y="-38" font-family="Helvetica,sans-Serif" font-size="10.00"> </text>
<polyline fill="none" stroke="black" points="66.5,-31 115.5,-31 "/>
<text text-anchor="start" x="74.5" y="-19" font-family="Helvetica,sans-Serif" font-size="10.00">+ f0()</text>
<text text-anchor="start" x="74.5" y="-8" font-family="Helvetica,sans-Serif" font-size="10.00">+ f1()</text>
</a>
</g>
<!-- Node1&#45;&gt;Node3 -->
<g id="edge4" class="edge"><title>Node1&#45;&gt;Node3</title>
<path fill="none" stroke="midnightblue" d="M367.539,-143.142C299.902,-133.631 200.95,-113.15 125,-70 121.806,-68.1856 118.706,-65.9905 115.762,-63.5992"/>
<polygon fill="none" stroke="midnightblue" points="367.32,-146.644 377.7,-144.521 368.262,-139.707 367.32,-146.644"/>
</g>
<!-- Node4 -->
<g id="node7" class="node"><title>Node4</title>
<a xlink:href="class_elliot.html" target="_top" xlink:title="class Elliot &#45;">
<polygon fill="white" stroke="black" points="134,-1 134,-69 176,-69 176,-1 134,-1"/>
<text text-anchor="middle" x="155" y="-57" font-family="Helvetica,sans-Serif" font-size="10.00">Elliot</text>
<polyline fill="none" stroke="black" points="134,-50 176,-50 "/>
<text text-anchor="middle" x="155" y="-38" font-family="Helvetica,sans-Serif" font-size="10.00"> </text>
<polyline fill="none" stroke="black" points="134,-31 176,-31 "/>
<text text-anchor="start" x="142" y="-19" font-family="Helvetica,sans-Serif" font-size="10.00">+ f0()</text>
<text text-anchor="start" x="142" y="-8" font-family="Helvetica,sans-Serif" font-size="10.00">+ f1()</text>
</a>
</g>
<!-- Node1&#45;&gt;Node4 -->
<g id="edge6" class="edge"><title>Node1&#45;&gt;Node4</title>
<path fill="none" stroke="midnightblue" d="M368.032,-138.472C313.624,-126.992 240.75,-106.121 185,-70 181.961,-68.031 179.045,-65.6718 176.307,-63.1262"/>
<polygon fill="none" stroke="midnightblue" points="367.468,-141.93 377.967,-140.508 368.873,-135.072 367.468,-141.93"/>
</g>
<!-- Node5 -->
<g id="node9" class="node"><title>Node5</title>
<a xlink:href="class_exponential.html" target="_top" xlink:title="class Exponential &#45;">
<polygon fill="white" stroke="black" points="194.5,-1 194.5,-69 265.5,-69 265.5,-1 194.5,-1"/>
<text text-anchor="middle" x="230" y="-57" font-family="Helvetica,sans-Serif" font-size="10.00">Exponential</text>
<polyline fill="none" stroke="black" points="194.5,-50 265.5,-50 "/>
<text text-anchor="middle" x="230" y="-38" font-family="Helvetica,sans-Serif" font-size="10.00"> </text>
<polyline fill="none" stroke="black" points="194.5,-31 265.5,-31 "/>
<text text-anchor="start" x="202.5" y="-19" font-family="Helvetica,sans-Serif" font-size="10.00">+ f0()</text>
<text text-anchor="start" x="202.5" y="-8" font-family="Helvetica,sans-Serif" font-size="10.00">+ f1()</text>
</a>
</g>
<!-- Node1&#45;&gt;Node5 -->
<g id="edge8" class="edge"><title>Node1&#45;&gt;Node5</title>
<path fill="none" stroke="midnightblue" d="M368.835,-118.703C338.876,-104.98 304.627,-87.9959 275,-70 271.904,-68.1192 268.762,-66.0718 265.653,-63.9453"/>
<polygon fill="none" stroke="midnightblue" points="367.432,-121.91 377.985,-122.855 370.324,-115.536 367.432,-121.91"/>
</g>
<!-- Node6 -->
<g id="node11" class="node"><title>Node6</title>
<a xlink:href="class_gauss.html" target="_top" xlink:title="class Gauss &#45;">
<polygon fill="white" stroke="black" points="284,-1 284,-69 330,-69 330,-1 284,-1"/>
<text text-anchor="middle" x="307" y="-57" font-family="Helvetica,sans-Serif" font-size="10.00">Gauss</text>
<polyline fill="none" stroke="black" points="284,-50 330,-50 "/>
<text text-anchor="middle" x="307" y="-38" font-family="Helvetica,sans-Serif" font-size="10.00"> </text>
<polyline fill="none" stroke="black" points="284,-31 330,-31 "/>
<text text-anchor="start" x="292" y="-19" font-family="Helvetica,sans-Serif" font-size="10.00">+ f0()</text>
<text text-anchor="start" x="292" y="-8" font-family="Helvetica,sans-Serif" font-size="10.00">+ f1()</text>
</a>
</g>
<!-- Node1&#45;&gt;Node6 -->
<g id="edge10" class="edge"><title>Node1&#45;&gt;Node6</title>
<path fill="none" stroke="midnightblue" d="M375.508,-100.494C363.061,-90.7239 350.426,-80.3094 339,-70 336.111,-67.3934 333.181,-64.569 330.326,-61.7001"/>
<polygon fill="none" stroke="midnightblue" points="373.602,-103.445 383.647,-106.815 377.895,-97.9166 373.602,-103.445"/>
</g>
<!-- Node7 -->
<g id="node13" class="node"><title>Node7</title>
<a xlink:href="class_identity.html" target="_top" xlink:title="class Identity &#45;">
<polygon fill="white" stroke="black" points="348,-1 348,-69 400,-69 400,-1 348,-1"/>
<text text-anchor="middle" x="374" y="-57" font-family="Helvetica,sans-Serif" font-size="10.00">Identity</text>
<polyline fill="none" stroke="black" points="348,-50 400,-50 "/>
<text text-anchor="middle" x="374" y="-38" font-family="Helvetica,sans-Serif" font-size="10.00"> </text>
<polyline fill="none" stroke="black" points="348,-31 400,-31 "/>
<text text-anchor="start" x="356" y="-19" font-family="Helvetica,sans-Serif" font-size="10.00">+ f0()</text>
<text text-anchor="start" x="356" y="-8" font-family="Helvetica,sans-Serif" font-size="10.00">+ f1()</text>
</a>
</g>
<!-- Node1&#45;&gt;Node7 -->
<g id="edge12" class="edge"><title>Node1&#45;&gt;Node7</title>
<path fill="none" stroke="midnightblue" d="M412.423,-98.2342C406.303,-88.3213 400.066,-78.2196 394.447,-69.1181"/>
<polygon fill="none" stroke="midnightblue" points="409.521,-100.197 417.753,-106.867 415.477,-96.5192 409.521,-100.197"/>
</g>
<!-- Node8 -->
<g id="node15" class="node"><title>Node8</title>
<a xlink:href="class_logistic.html" target="_top" xlink:title="class Logistic &#45;">
<polygon fill="white" stroke="black" points="418.5,-1 418.5,-69 471.5,-69 471.5,-1 418.5,-1"/>
<text text-anchor="middle" x="445" y="-57" font-family="Helvetica,sans-Serif" font-size="10.00">Logistic</text>
<polyline fill="none" stroke="black" points="418.5,-50 471.5,-50 "/>
<text text-anchor="middle" x="445" y="-38" font-family="Helvetica,sans-Serif" font-size="10.00"> </text>
<polyline fill="none" stroke="black" points="418.5,-31 471.5,-31 "/>
<text text-anchor="start" x="426.5" y="-19" font-family="Helvetica,sans-Serif" font-size="10.00">+ f0()</text>
<text text-anchor="start" x="426.5" y="-8" font-family="Helvetica,sans-Serif" font-size="10.00">+ f1()</text>
</a>
</g>
<!-- Node1&#45;&gt;Node8 -->
<g id="edge14" class="edge"><title>Node1&#45;&gt;Node8</title>
<path fill="none" stroke="midnightblue" d="M445,-96.7309C445,-87.3035 445,-77.7599 445,-69.1181"/>
<polygon fill="none" stroke="midnightblue" points="441.5,-96.8669 445,-106.867 448.5,-96.8669 441.5,-96.8669"/>
</g>
<!-- Node9 -->
<g id="node17" class="node"><title>Node9</title>
<a xlink:href="class_radial_basis.html" target="_top" xlink:title="class RadialBasis &#45;">
<polygon fill="white" stroke="black" points="489.5,-1 489.5,-69 560.5,-69 560.5,-1 489.5,-1"/>
<text text-anchor="middle" x="525" y="-57" font-family="Helvetica,sans-Serif" font-size="10.00">RadialBasis</text>
<polyline fill="none" stroke="black" points="489.5,-50 560.5,-50 "/>
<text text-anchor="middle" x="525" y="-38" font-family="Helvetica,sans-Serif" font-size="10.00"> </text>
<polyline fill="none" stroke="black" points="489.5,-31 560.5,-31 "/>
<text text-anchor="start" x="497.5" y="-19" font-family="Helvetica,sans-Serif" font-size="10.00">+ f0()</text>
<text text-anchor="start" x="497.5" y="-8" font-family="Helvetica,sans-Serif" font-size="10.00">+ f1()</text>
</a>
</g>
<!-- Node1&#45;&gt;Node9 -->
<g id="edge16" class="edge"><title>Node1&#45;&gt;Node9</title>
<path fill="none" stroke="midnightblue" d="M481.498,-98.5345C488.461,-88.5255 495.566,-78.3115 501.961,-69.1181"/>
<polygon fill="none" stroke="midnightblue" points="478.539,-96.6591 475.701,-106.867 484.285,-100.657 478.539,-96.6591"/>
</g>
<!-- Node10 -->
<g id="node19" class="node"><title>Node10</title>
<a xlink:href="class_reciprocal.html" target="_top" xlink:title="class Reciprocal &#45;">
<polygon fill="white" stroke="black" points="578.5,-1 578.5,-69 643.5,-69 643.5,-1 578.5,-1"/>
<text text-anchor="middle" x="611" y="-57" font-family="Helvetica,sans-Serif" font-size="10.00">Reciprocal</text>
<polyline fill="none" stroke="black" points="578.5,-50 643.5,-50 "/>
<text text-anchor="middle" x="611" y="-38" font-family="Helvetica,sans-Serif" font-size="10.00"> </text>
<polyline fill="none" stroke="black" points="578.5,-31 643.5,-31 "/>
<text text-anchor="start" x="586.5" y="-19" font-family="Helvetica,sans-Serif" font-size="10.00">+ f0()</text>
<text text-anchor="start" x="586.5" y="-8" font-family="Helvetica,sans-Serif" font-size="10.00">+ f1()</text>
</a>
</g>
<!-- Node1&#45;&gt;Node10 -->
<g id="edge18" class="edge"><title>Node1&#45;&gt;Node10</title>
<path fill="none" stroke="midnightblue" d="M520.53,-103.417C536.731,-92.7254 553.602,-81.2169 569,-70 572.033,-67.7905 575.144,-65.4413 578.234,-63.0502"/>
<polygon fill="none" stroke="midnightblue" points="518.571,-100.516 512.13,-108.928 522.411,-106.369 518.571,-100.516"/>
</g>
<!-- Node11 -->
<g id="node21" class="node"><title>Node11</title>
<a xlink:href="class_sine.html" target="_top" xlink:title="class Sine &#45;">
<polygon fill="white" stroke="black" points="662,-1 662,-69 704,-69 704,-1 662,-1"/>
<text text-anchor="middle" x="683" y="-57" font-family="Helvetica,sans-Serif" font-size="10.00">Sine</text>
<polyline fill="none" stroke="black" points="662,-50 704,-50 "/>
<text text-anchor="middle" x="683" y="-38" font-family="Helvetica,sans-Serif" font-size="10.00"> </text>
<polyline fill="none" stroke="black" points="662,-31 704,-31 "/>
<text text-anchor="start" x="670" y="-19" font-family="Helvetica,sans-Serif" font-size="10.00">+ f0()</text>
<text text-anchor="start" x="670" y="-8" font-family="Helvetica,sans-Serif" font-size="10.00">+ f1()</text>
</a>
</g>
<!-- Node1&#45;&gt;Node11 -->
<g id="edge20" class="edge"><title>Node1&#45;&gt;Node11</title>
<path fill="none" stroke="midnightblue" d="M521.843,-130.242C562.724,-116.977 612.549,-97.1206 652,-70 655.423,-67.6469 658.734,-64.8469 661.838,-61.8787"/>
<polygon fill="none" stroke="midnightblue" points="520.666,-126.943 512.194,-133.305 522.784,-133.615 520.666,-126.943"/>
</g>
<!-- Node12 -->
<g id="node23" class="node"><title>Node12</title>
<a xlink:href="class_square.html" target="_top" xlink:title="class Square &#45;">
<polygon fill="white" stroke="black" points="722,-1 722,-69 772,-69 772,-1 722,-1"/>
<text text-anchor="middle" x="747" y="-57" font-family="Helvetica,sans-Serif" font-size="10.00">Square</text>
<polyline fill="none" stroke="black" points="722,-50 772,-50 "/>
<text text-anchor="middle" x="747" y="-38" font-family="Helvetica,sans-Serif" font-size="10.00"> </text>
<polyline fill="none" stroke="black" points="722,-31 772,-31 "/>
<text text-anchor="start" x="730" y="-19" font-family="Helvetica,sans-Serif" font-size="10.00">+ f0()</text>
<text text-anchor="start" x="730" y="-8" font-family="Helvetica,sans-Serif" font-size="10.00">+ f1()</text>
</a>
</g>
<!-- Node1&#45;&gt;Node12 -->
<g id="edge22" class="edge"><title>Node1&#45;&gt;Node12</title>
<path fill="none" stroke="midnightblue" d="M521.902,-138.204C577.826,-126.491 653.791,-105.448 713,-70 716.008,-68.199 718.944,-66.0739 721.751,-63.7793"/>
<polygon fill="none" stroke="midnightblue" points="521.151,-134.785 512.053,-140.214 522.551,-141.643 521.151,-134.785"/>
</g>
<!-- Node13 -->
<g id="node25" class="node"><title>Node13</title>
<a xlink:href="class_tanh.html" target="_top" xlink:title="class Tanh &#45;">
<polygon fill="white" stroke="black" points="790,-1 790,-69 832,-69 832,-1 790,-1"/>
<text text-anchor="middle" x="811" y="-57" font-family="Helvetica,sans-Serif" font-size="10.00">Tanh</text>
<polyline fill="none" stroke="black" points="790,-50 832,-50 "/>
<text text-anchor="middle" x="811" y="-38" font-family="Helvetica,sans-Serif" font-size="10.00"> </text>
<polyline fill="none" stroke="black" points="790,-31 832,-31 "/>
<text text-anchor="start" x="798" y="-19" font-family="Helvetica,sans-Serif" font-size="10.00">+ f0()</text>
<text text-anchor="start" x="798" y="-8" font-family="Helvetica,sans-Serif" font-size="10.00">+ f1()</text>
</a>
</g>
<!-- Node1&#45;&gt;Node13 -->
<g id="edge24" class="edge"><title>Node1&#45;&gt;Node13</title>
<path fill="none" stroke="midnightblue" d="M522.604,-145.627C594.141,-137.714 701.025,-118.178 781,-70 784.102,-68.1314 787.058,-65.8366 789.82,-63.3291"/>
<polygon fill="none" stroke="midnightblue" points="521.891,-142.183 512.313,-146.712 522.625,-149.144 521.891,-142.183"/>
</g>
<!-- Node14 -->
<g id="node27" class="node"><title>Node14</title>
<a xlink:href="class_threshold.html" target="_top" xlink:title="class Threshold &#45;">
<polygon fill="white" stroke="black" points="850,-1 850,-69 912,-69 912,-1 850,-1"/>
<text text-anchor="middle" x="881" y="-57" font-family="Helvetica,sans-Serif" font-size="10.00">Threshold</text>
<polyline fill="none" stroke="black" points="850,-50 912,-50 "/>
<text text-anchor="middle" x="881" y="-38" font-family="Helvetica,sans-Serif" font-size="10.00"> </text>
<polyline fill="none" stroke="black" points="850,-31 912,-31 "/>
<text text-anchor="start" x="858" y="-19" font-family="Helvetica,sans-Serif" font-size="10.00">+ f0()</text>
<text text-anchor="start" x="858" y="-8" font-family="Helvetica,sans-Serif" font-size="10.00">+ f1()</text>
</a>
</g>
<!-- Node1&#45;&gt;Node14 -->
<g id="edge26" class="edge"><title>Node1&#45;&gt;Node14</title>
<path fill="none" stroke="midnightblue" d="M522.075,-146.613C604.643,-139.378 737.736,-120.281 841,-70 843.95,-68.5636 846.861,-66.8588 849.686,-64.9896"/>
<polygon fill="none" stroke="midnightblue" points="521.685,-143.133 512.013,-147.457 522.271,-150.108 521.685,-143.133"/>
</g>
</g>
</svg>
