<?xml version="1.0" encoding="UTF-8" standalone="no"?>
<!DOCTYPE svg PUBLIC "-//W3C//DTD SVG 1.1//EN"
 "http://www.w3.org/Graphics/SVG/1.1/DTD/svg11.dtd">
<!-- Generated by graphviz version 2.25.20091207.0545 (20091207.0545)
 -->
<!-- Title: G Pages: 1 -->
<svg width="276pt" height="104pt"
 viewBox="0.00 0.00 276.00 104.00" xmlns="http://www.w3.org/2000/svg" xmlns:xlink="http://www.w3.org/1999/xlink">
<g id="graph1" class="graph" transform="scale(1 1) rotate(0) translate(4 100)">
<title>G</title>
<polygon fill="white" stroke="white" points="-4,5 -4,-100 273,-100 273,5 -4,5"/>
<!-- Node1 -->
<g id="node1" class="node"><title>Node1</title>
<polygon fill="#bfbfbf" stroke="black" points="0,-38.5 0,-57.5 108,-57.5 108,-38.5 0,-38.5"/>
<text text-anchor="middle" x="54" y="-44.5" font-family="Helvetica,sans-Serif" font-size="10.00">ConContainer::select</text>
</g>
<!-- Node2 -->
<g id="node3" class="node"><title>Node2</title>
<a xlink:href="class_container.html#ac5e2a75311f6e6a690ca67603490ddb1" target="_top" xlink:title="Container\&lt; Con \&gt;::begin">
<polygon fill="white" stroke="black" points="144.5,-76.5 144.5,-95.5 267.5,-95.5 267.5,-76.5 144.5,-76.5"/>
<text text-anchor="middle" x="206" y="-82.5" font-family="Helvetica,sans-Serif" font-size="10.00">Container&lt; Con &gt;::begin</text>
</a>
</g>
<!-- Node1&#45;&gt;Node2 -->
<g id="edge2" class="edge"><title>Node1&#45;&gt;Node2</title>
<path fill="none" stroke="midnightblue" d="M92.356,-57.589C112.324,-62.5809 136.93,-68.7324 158.133,-74.0334"/>
<polygon fill="midnightblue" stroke="midnightblue" points="157.369,-77.45 167.92,-76.4799 159.067,-70.659 157.369,-77.45"/>
</g>
<!-- Node3 -->
<g id="node5" class="node"><title>Node3</title>
<a xlink:href="class_container.html#a266eabe62963d6909d3aca7f105e203e" target="_top" xlink:title="Container\&lt; Con \&gt;::end">
<polygon fill="white" stroke="black" points="148,-38.5 148,-57.5 264,-57.5 264,-38.5 148,-38.5"/>
<text text-anchor="middle" x="206" y="-44.5" font-family="Helvetica,sans-Serif" font-size="10.00">Container&lt; Con &gt;::end</text>
</a>
</g>
<!-- Node1&#45;&gt;Node3 -->
<g id="edge4" class="edge"><title>Node1&#45;&gt;Node3</title>
<path fill="none" stroke="midnightblue" d="M108.017,-48C117.581,-48 127.652,-48 137.55,-48"/>
<polygon fill="midnightblue" stroke="midnightblue" points="137.774,-51.5001 147.774,-48 137.774,-44.5001 137.774,-51.5001"/>
</g>
<!-- Node4 -->
<g id="node7" class="node"><title>Node4</title>
<a xlink:href="class_container.html#a842c3d9eca81b78b59112fde9707b091" target="_top" xlink:title="Container\&lt; Con \&gt;::size">
<polygon fill="white" stroke="black" points="147,-0.5 147,-19.5 265,-19.5 265,-0.5 147,-0.5"/>
<text text-anchor="middle" x="206" y="-6.5" font-family="Helvetica,sans-Serif" font-size="10.00">Container&lt; Con &gt;::size</text>
</a>
</g>
<!-- Node1&#45;&gt;Node4 -->
<g id="edge6" class="edge"><title>Node1&#45;&gt;Node4</title>
<path fill="none" stroke="midnightblue" d="M92.356,-38.411C112.324,-33.4191 136.93,-27.2676 158.133,-21.9666"/>
<polygon fill="midnightblue" stroke="midnightblue" points="159.067,-25.341 167.92,-19.5201 157.369,-18.55 159.067,-25.341"/>
</g>
</g>
</svg>
