<?xml version="1.0" encoding="UTF-8" standalone="no"?>
<!DOCTYPE svg PUBLIC "-//W3C//DTD SVG 1.1//EN"
 "http://www.w3.org/Graphics/SVG/1.1/DTD/svg11.dtd">
<!-- Generated by graphviz version 2.25.20091207.0545 (20091207.0545)
 -->
<!-- Title: G Pages: 1 -->
<svg width="363pt" height="926pt"
 viewBox="0.00 0.00 363.00 926.00" xmlns="http://www.w3.org/2000/svg" xmlns:xlink="http://www.w3.org/1999/xlink">
<g id="graph1" class="graph" transform="scale(1 1) rotate(0) translate(4 922)">
<title>G</title>
<polygon fill="white" stroke="white" points="-4,5 -4,-922 360,-922 360,5 -4,5"/>
<!-- Node1 -->
<g id="node1" class="node"><title>Node1</title>
<polygon fill="#bfbfbf" stroke="black" points="140,-695 140,-917 222,-917 222,-695 140,-695"/>
<text text-anchor="middle" x="181" y="-904" font-family="Helvetica,sans-Serif" font-size="10.00">Container&lt; T &gt;</text>
<polyline fill="none" stroke="black" points="140,-898 222,-898 "/>
<text text-anchor="start" x="148" y="-885" font-family="Helvetica,sans-Serif" font-size="10.00"># collection</text>
<polyline fill="none" stroke="black" points="140,-879 222,-879 "/>
<text text-anchor="start" x="148" y="-866" font-family="Helvetica,sans-Serif" font-size="10.00">+ Container()</text>
<text text-anchor="start" x="148" y="-855" font-family="Helvetica,sans-Serif" font-size="10.00">+ Container()</text>
<text text-anchor="start" x="148" y="-844" font-family="Helvetica,sans-Serif" font-size="10.00">+ begin()</text>
<text text-anchor="start" x="148" y="-833" font-family="Helvetica,sans-Serif" font-size="10.00">+ end()</text>
<text text-anchor="start" x="148" y="-822" font-family="Helvetica,sans-Serif" font-size="10.00">+ load()</text>
<text text-anchor="start" x="148" y="-811" font-family="Helvetica,sans-Serif" font-size="10.00">+ store()</text>
<text text-anchor="start" x="148" y="-800" font-family="Helvetica,sans-Serif" font-size="10.00">+ size()</text>
<text text-anchor="start" x="148" y="-789" font-family="Helvetica,sans-Serif" font-size="10.00">+ push_back()</text>
<text text-anchor="start" x="148" y="-778" font-family="Helvetica,sans-Serif" font-size="10.00">+ append()</text>
<text text-anchor="start" x="148" y="-767" font-family="Helvetica,sans-Serif" font-size="10.00">+ show()</text>
<text text-anchor="start" x="148" y="-756" font-family="Helvetica,sans-Serif" font-size="10.00">+ validate()</text>
<text text-anchor="start" x="148" y="-745" font-family="Helvetica,sans-Serif" font-size="10.00">+ reserve()</text>
<text text-anchor="start" x="148" y="-734" font-family="Helvetica,sans-Serif" font-size="10.00">+ resize()</text>
<text text-anchor="start" x="148" y="-723" font-family="Helvetica,sans-Serif" font-size="10.00">+ empty()</text>
<text text-anchor="start" x="148" y="-712" font-family="Helvetica,sans-Serif" font-size="10.00">+ clear()</text>
<text text-anchor="start" x="148" y="-701" font-family="Helvetica,sans-Serif" font-size="10.00">+ operator[]()</text>
</g>
<!-- Node2 -->
<g id="node3" class="node"><title>Node2</title>
<a xlink:href="class_container.html" target="_top" xlink:title="{Container\&lt; MLPlayer \&gt;\n|# collection\l|+ Container()\l+ Container()\l+ begin()\l+ end()\l+ load()\l+ store()\l+ size()\l+ push_back()\l+ append()\l+ show()\l+ validate()\l+ reserve()\l+ resize()\l+ empty()\l+ clear()\l+ operator[]()\l}">
<polygon fill="white" stroke="black" points="-0.5,-423 -0.5,-645 116.5,-645 116.5,-423 -0.5,-423"/>
<text text-anchor="middle" x="58" y="-632" font-family="Helvetica,sans-Serif" font-size="10.00">Container&lt; MLPlayer &gt;</text>
<polyline fill="none" stroke="black" points="-0.5,-626 116.5,-626 "/>
<text text-anchor="start" x="7.5" y="-613" font-family="Helvetica,sans-Serif" font-size="10.00"># collection</text>
<polyline fill="none" stroke="black" points="-0.5,-607 116.5,-607 "/>
<text text-anchor="start" x="7.5" y="-594" font-family="Helvetica,sans-Serif" font-size="10.00">+ Container()</text>
<text text-anchor="start" x="7.5" y="-583" font-family="Helvetica,sans-Serif" font-size="10.00">+ Container()</text>
<text text-anchor="start" x="7.5" y="-572" font-family="Helvetica,sans-Serif" font-size="10.00">+ begin()</text>
<text text-anchor="start" x="7.5" y="-561" font-family="Helvetica,sans-Serif" font-size="10.00">+ end()</text>
<text text-anchor="start" x="7.5" y="-550" font-family="Helvetica,sans-Serif" font-size="10.00">+ load()</text>
<text text-anchor="start" x="7.5" y="-539" font-family="Helvetica,sans-Serif" font-size="10.00">+ store()</text>
<text text-anchor="start" x="7.5" y="-528" font-family="Helvetica,sans-Serif" font-size="10.00">+ size()</text>
<text text-anchor="start" x="7.5" y="-517" font-family="Helvetica,sans-Serif" font-size="10.00">+ push_back()</text>
<text text-anchor="start" x="7.5" y="-506" font-family="Helvetica,sans-Serif" font-size="10.00">+ append()</text>
<text text-anchor="start" x="7.5" y="-495" font-family="Helvetica,sans-Serif" font-size="10.00">+ show()</text>
<text text-anchor="start" x="7.5" y="-484" font-family="Helvetica,sans-Serif" font-size="10.00">+ validate()</text>
<text text-anchor="start" x="7.5" y="-473" font-family="Helvetica,sans-Serif" font-size="10.00">+ reserve()</text>
<text text-anchor="start" x="7.5" y="-462" font-family="Helvetica,sans-Serif" font-size="10.00">+ resize()</text>
<text text-anchor="start" x="7.5" y="-451" font-family="Helvetica,sans-Serif" font-size="10.00">+ empty()</text>
<text text-anchor="start" x="7.5" y="-440" font-family="Helvetica,sans-Serif" font-size="10.00">+ clear()</text>
<text text-anchor="start" x="7.5" y="-429" font-family="Helvetica,sans-Serif" font-size="10.00">+ operator[]()</text>
</a>
</g>
<!-- Node1&#45;&gt;Node2 -->
<g id="edge2" class="edge"><title>Node1&#45;&gt;Node2</title>
<path fill="none" stroke="orange" stroke-dasharray="5,2" d="M135.505,-713.609C129.517,-701.018 123.54,-688.224 118,-676 113.47,-666.006 108.853,-655.57 104.291,-645.092"/>
<polygon fill="orange" stroke="orange" points="132.394,-715.215 139.862,-722.731 138.71,-712.198 132.394,-715.215"/>
<text text-anchor="middle" x="147.5" y="-666.5" font-family="Helvetica,sans-Serif" font-size="10.00">&lt; MLPlayer &gt;</text>
</g>
<!-- Node4 -->
<g id="node7" class="node"><title>Node4</title>
<a xlink:href="class_container.html" target="_top" xlink:title="{Container\&lt; Con \&gt;\n|# collection\l|+ Container()\l+ Container()\l+ begin()\l+ end()\l+ load()\l+ store()\l+ size()\l+ push_back()\l+ append()\l+ show()\l+ validate()\l+ reserve()\l+ resize()\l+ empty()\l+ clear()\l+ operator[]()\l}">
<polygon fill="white" stroke="black" points="134,-423 134,-645 228,-645 228,-423 134,-423"/>
<text text-anchor="middle" x="181" y="-632" font-family="Helvetica,sans-Serif" font-size="10.00">Container&lt; Con &gt;</text>
<polyline fill="none" stroke="black" points="134,-626 228,-626 "/>
<text text-anchor="start" x="142" y="-613" font-family="Helvetica,sans-Serif" font-size="10.00"># collection</text>
<polyline fill="none" stroke="black" points="134,-607 228,-607 "/>
<text text-anchor="start" x="142" y="-594" font-family="Helvetica,sans-Serif" font-size="10.00">+ Container()</text>
<text text-anchor="start" x="142" y="-583" font-family="Helvetica,sans-Serif" font-size="10.00">+ Container()</text>
<text text-anchor="start" x="142" y="-572" font-family="Helvetica,sans-Serif" font-size="10.00">+ begin()</text>
<text text-anchor="start" x="142" y="-561" font-family="Helvetica,sans-Serif" font-size="10.00">+ end()</text>
<text text-anchor="start" x="142" y="-550" font-family="Helvetica,sans-Serif" font-size="10.00">+ load()</text>
<text text-anchor="start" x="142" y="-539" font-family="Helvetica,sans-Serif" font-size="10.00">+ store()</text>
<text text-anchor="start" x="142" y="-528" font-family="Helvetica,sans-Serif" font-size="10.00">+ size()</text>
<text text-anchor="start" x="142" y="-517" font-family="Helvetica,sans-Serif" font-size="10.00">+ push_back()</text>
<text text-anchor="start" x="142" y="-506" font-family="Helvetica,sans-Serif" font-size="10.00">+ append()</text>
<text text-anchor="start" x="142" y="-495" font-family="Helvetica,sans-Serif" font-size="10.00">+ show()</text>
<text text-anchor="start" x="142" y="-484" font-family="Helvetica,sans-Serif" font-size="10.00">+ validate()</text>
<text text-anchor="start" x="142" y="-473" font-family="Helvetica,sans-Serif" font-size="10.00">+ reserve()</text>
<text text-anchor="start" x="142" y="-462" font-family="Helvetica,sans-Serif" font-size="10.00">+ resize()</text>
<text text-anchor="start" x="142" y="-451" font-family="Helvetica,sans-Serif" font-size="10.00">+ empty()</text>
<text text-anchor="start" x="142" y="-440" font-family="Helvetica,sans-Serif" font-size="10.00">+ clear()</text>
<text text-anchor="start" x="142" y="-429" font-family="Helvetica,sans-Serif" font-size="10.00">+ operator[]()</text>
</a>
</g>
<!-- Node1&#45;&gt;Node4 -->
<g id="edge6" class="edge"><title>Node1&#45;&gt;Node4</title>
<path fill="none" stroke="orange" stroke-dasharray="5,2" d="M181,-684.895C181,-671.654 181,-658.223 181,-645.111"/>
<polygon fill="orange" stroke="orange" points="177.5,-684.975 181,-694.975 184.5,-684.975 177.5,-684.975"/>
<text text-anchor="middle" x="199" y="-666.5" font-family="Helvetica,sans-Serif" font-size="10.00">&lt; Con &gt;</text>
</g>
<!-- Node6 -->
<g id="node11" class="node"><title>Node6</title>
<a xlink:href="class_container.html" target="_top" xlink:title="{Container\&lt; Neuron \&gt;\n|# collection\l|+ Container()\l+ Container()\l+ begin()\l+ end()\l+ load()\l+ store()\l+ size()\l+ push_back()\l+ append()\l+ show()\l+ validate()\l+ reserve()\l+ resize()\l+ empty()\l+ clear()\l+ operator[]()\l}">
<polygon fill="white" stroke="black" points="246,-423 246,-645 354,-645 354,-423 246,-423"/>
<text text-anchor="middle" x="300" y="-632" font-family="Helvetica,sans-Serif" font-size="10.00">Container&lt; Neuron &gt;</text>
<polyline fill="none" stroke="black" points="246,-626 354,-626 "/>
<text text-anchor="start" x="254" y="-613" font-family="Helvetica,sans-Serif" font-size="10.00"># collection</text>
<polyline fill="none" stroke="black" points="246,-607 354,-607 "/>
<text text-anchor="start" x="254" y="-594" font-family="Helvetica,sans-Serif" font-size="10.00">+ Container()</text>
<text text-anchor="start" x="254" y="-583" font-family="Helvetica,sans-Serif" font-size="10.00">+ Container()</text>
<text text-anchor="start" x="254" y="-572" font-family="Helvetica,sans-Serif" font-size="10.00">+ begin()</text>
<text text-anchor="start" x="254" y="-561" font-family="Helvetica,sans-Serif" font-size="10.00">+ end()</text>
<text text-anchor="start" x="254" y="-550" font-family="Helvetica,sans-Serif" font-size="10.00">+ load()</text>
<text text-anchor="start" x="254" y="-539" font-family="Helvetica,sans-Serif" font-size="10.00">+ store()</text>
<text text-anchor="start" x="254" y="-528" font-family="Helvetica,sans-Serif" font-size="10.00">+ size()</text>
<text text-anchor="start" x="254" y="-517" font-family="Helvetica,sans-Serif" font-size="10.00">+ push_back()</text>
<text text-anchor="start" x="254" y="-506" font-family="Helvetica,sans-Serif" font-size="10.00">+ append()</text>
<text text-anchor="start" x="254" y="-495" font-family="Helvetica,sans-Serif" font-size="10.00">+ show()</text>
<text text-anchor="start" x="254" y="-484" font-family="Helvetica,sans-Serif" font-size="10.00">+ validate()</text>
<text text-anchor="start" x="254" y="-473" font-family="Helvetica,sans-Serif" font-size="10.00">+ reserve()</text>
<text text-anchor="start" x="254" y="-462" font-family="Helvetica,sans-Serif" font-size="10.00">+ resize()</text>
<text text-anchor="start" x="254" y="-451" font-family="Helvetica,sans-Serif" font-size="10.00">+ empty()</text>
<text text-anchor="start" x="254" y="-440" font-family="Helvetica,sans-Serif" font-size="10.00">+ clear()</text>
<text text-anchor="start" x="254" y="-429" font-family="Helvetica,sans-Serif" font-size="10.00">+ operator[]()</text>
</a>
</g>
<!-- Node1&#45;&gt;Node6 -->
<g id="edge10" class="edge"><title>Node1&#45;&gt;Node6</title>
<path fill="none" stroke="orange" stroke-dasharray="5,2" d="M226.237,-702.601C234.432,-683.87 243.01,-664.263 251.299,-645.316"/>
<polygon fill="orange" stroke="orange" points="222.921,-701.448 222.12,-712.012 229.334,-704.253 222.921,-701.448"/>
<text text-anchor="middle" x="265" y="-666.5" font-family="Helvetica,sans-Serif" font-size="10.00">&lt; Neuron &gt;</text>
</g>
<!-- Node3 -->
<g id="node5" class="node"><title>Node3</title>
<a xlink:href="class_m_l_player_container.html" target="_top" xlink:title="{MLPlayerContainer\n||}">
<polygon fill="white" stroke="black" points="8.5,-265.5 8.5,-322.5 107.5,-322.5 107.5,-265.5 8.5,-265.5"/>
<text text-anchor="middle" x="58" y="-309.5" font-family="Helvetica,sans-Serif" font-size="10.00">MLPlayerContainer</text>
<polyline fill="none" stroke="black" points="8.5,-303.5 107.5,-303.5 "/>
<text text-anchor="middle" x="58" y="-290.5" font-family="Helvetica,sans-Serif" font-size="10.00"> </text>
<polyline fill="none" stroke="black" points="8.5,-284.5 107.5,-284.5 "/>
<text text-anchor="middle" x="58" y="-271.5" font-family="Helvetica,sans-Serif" font-size="10.00"> </text>
</a>
</g>
<!-- Node2&#45;&gt;Node3 -->
<g id="edge4" class="edge"><title>Node2&#45;&gt;Node3</title>
<path fill="none" stroke="midnightblue" d="M58,-412.349C58,-378.714 58,-345.25 58,-322.534"/>
<polygon fill="none" stroke="midnightblue" points="54.5001,-412.782 58,-422.782 61.5001,-412.782 54.5001,-412.782"/>
</g>
<!-- Node5 -->
<g id="node9" class="node"><title>Node5</title>
<a xlink:href="class_con_container.html" target="_top" xlink:title="A vector of connections.">
<polygon fill="white" stroke="black" points="135.5,-216 135.5,-372 226.5,-372 226.5,-216 135.5,-216"/>
<text text-anchor="middle" x="181" y="-359" font-family="Helvetica,sans-Serif" font-size="10.00">ConContainer</text>
<polyline fill="none" stroke="black" points="135.5,-353 226.5,-353 "/>
<text text-anchor="middle" x="181" y="-340" font-family="Helvetica,sans-Serif" font-size="10.00"> </text>
<polyline fill="none" stroke="black" points="135.5,-334 226.5,-334 "/>
<text text-anchor="start" x="143.5" y="-321" font-family="Helvetica,sans-Serif" font-size="10.00">+ ConContainer()</text>
<text text-anchor="start" x="143.5" y="-310" font-family="Helvetica,sans-Serif" font-size="10.00">+ ConContainer()</text>
<text text-anchor="start" x="143.5" y="-299" font-family="Helvetica,sans-Serif" font-size="10.00">+ numOfCons()</text>
<text text-anchor="start" x="143.5" y="-288" font-family="Helvetica,sans-Serif" font-size="10.00">+ getId()</text>
<text text-anchor="start" x="143.5" y="-277" font-family="Helvetica,sans-Serif" font-size="10.00">+ setWeight()</text>
<text text-anchor="start" x="143.5" y="-266" font-family="Helvetica,sans-Serif" font-size="10.00">+ setWeight()</text>
<text text-anchor="start" x="143.5" y="-255" font-family="Helvetica,sans-Serif" font-size="10.00">+ setFrom()</text>
<text text-anchor="start" x="143.5" y="-244" font-family="Helvetica,sans-Serif" font-size="10.00">+ erase()</text>
<text text-anchor="start" x="143.5" y="-233" font-family="Helvetica,sans-Serif" font-size="10.00">+ select()</text>
<text text-anchor="start" x="143.5" y="-222" font-family="Helvetica,sans-Serif" font-size="10.00">+ validate()</text>
</a>
</g>
<!-- Node4&#45;&gt;Node5 -->
<g id="edge8" class="edge"><title>Node4&#45;&gt;Node5</title>
<path fill="none" stroke="midnightblue" d="M181,-412.779C181,-399.032 181,-385.306 181,-372.324"/>
<polygon fill="none" stroke="midnightblue" points="177.5,-412.782 181,-422.782 184.5,-412.782 177.5,-412.782"/>
</g>
<!-- Node7 -->
<g id="node13" class="node"><title>Node7</title>
<a xlink:href="class_neuron_container.html" target="_top" xlink:title="A vector of neurons.">
<polygon fill="white" stroke="black" points="244.5,-205 244.5,-383 355.5,-383 355.5,-205 244.5,-205"/>
<text text-anchor="middle" x="300" y="-370" font-family="Helvetica,sans-Serif" font-size="10.00">NeuronContainer</text>
<polyline fill="none" stroke="black" points="244.5,-364 355.5,-364 "/>
<text text-anchor="middle" x="300" y="-351" font-family="Helvetica,sans-Serif" font-size="10.00"> </text>
<polyline fill="none" stroke="black" points="244.5,-345 355.5,-345 "/>
<text text-anchor="start" x="252.5" y="-332" font-family="Helvetica,sans-Serif" font-size="10.00">+ NeuronContainer()</text>
<text text-anchor="start" x="252.5" y="-321" font-family="Helvetica,sans-Serif" font-size="10.00">+ NeuronContainer()</text>
<text text-anchor="start" x="252.5" y="-310" font-family="Helvetica,sans-Serif" font-size="10.00">+ ~NeuronContainer()</text>
<text text-anchor="start" x="252.5" y="-299" font-family="Helvetica,sans-Serif" font-size="10.00">+ numOfNeurons()</text>
<text text-anchor="start" x="252.5" y="-288" font-family="Helvetica,sans-Serif" font-size="10.00">+ numOfCons()</text>
<text text-anchor="start" x="252.5" y="-277" font-family="Helvetica,sans-Serif" font-size="10.00">+ getId()</text>
<text text-anchor="start" x="252.5" y="-266" font-family="Helvetica,sans-Serif" font-size="10.00">+ setId()</text>
<text text-anchor="start" x="252.5" y="-255" font-family="Helvetica,sans-Serif" font-size="10.00">+ getConId()</text>
<text text-anchor="start" x="252.5" y="-244" font-family="Helvetica,sans-Serif" font-size="10.00">+ getWeight()</text>
<text text-anchor="start" x="252.5" y="-233" font-family="Helvetica,sans-Serif" font-size="10.00">+ getFrom()</text>
<text text-anchor="start" x="252.5" y="-222" font-family="Helvetica,sans-Serif" font-size="10.00">+ setFrom()</text>
<text text-anchor="start" x="252.5" y="-211" font-family="Helvetica,sans-Serif" font-size="10.00">+ setWeight()</text>
</a>
</g>
<!-- Node6&#45;&gt;Node7 -->
<g id="edge12" class="edge"><title>Node6&#45;&gt;Node7</title>
<path fill="none" stroke="midnightblue" d="M300,-412.522C300,-402.671 300,-392.833 300,-383.274"/>
<polygon fill="none" stroke="midnightblue" points="296.5,-412.782 300,-422.782 303.5,-412.782 296.5,-412.782"/>
</g>
<!-- Node8 -->
<g id="node15" class="node"><title>Node8</title>
<a xlink:href="class_m_l_pneuron_container.html" target="_top" xlink:title="A vector of connections.">
<polygon fill="white" stroke="black" points="246,-97 246,-165 354,-165 354,-97 246,-97"/>
<text text-anchor="middle" x="300" y="-152" font-family="Helvetica,sans-Serif" font-size="10.00">MLPneuronContainer</text>
<polyline fill="none" stroke="black" points="246,-146 354,-146 "/>
<text text-anchor="middle" x="300" y="-133" font-family="Helvetica,sans-Serif" font-size="10.00"> </text>
<polyline fill="none" stroke="black" points="246,-127 354,-127 "/>
<text text-anchor="start" x="254" y="-114" font-family="Helvetica,sans-Serif" font-size="10.00">+ getId()</text>
<text text-anchor="start" x="254" y="-103" font-family="Helvetica,sans-Serif" font-size="10.00">+ buildAndAppend()</text>
</a>
</g>
<!-- Node7&#45;&gt;Node8 -->
<g id="edge14" class="edge"><title>Node7&#45;&gt;Node8</title>
<path fill="none" stroke="midnightblue" d="M300,-194.688C300,-184.176 300,-174.079 300,-165.145"/>
<polygon fill="none" stroke="midnightblue" points="296.5,-194.869 300,-204.869 303.5,-194.869 296.5,-194.869"/>
</g>
<!-- Node9 -->
<g id="node17" class="node"><title>Node9</title>
<a xlink:href="class_m_l_player.html" target="_top" xlink:title="{MLPlayer\n||}">
<polygon fill="white" stroke="black" points="271.5,-0.5 271.5,-57.5 328.5,-57.5 328.5,-0.5 271.5,-0.5"/>
<text text-anchor="middle" x="300" y="-44.5" font-family="Helvetica,sans-Serif" font-size="10.00">MLPlayer</text>
<polyline fill="none" stroke="black" points="271.5,-38.5 328.5,-38.5 "/>
<text text-anchor="middle" x="300" y="-25.5" font-family="Helvetica,sans-Serif" font-size="10.00"> </text>
<polyline fill="none" stroke="black" points="271.5,-19.5 328.5,-19.5 "/>
<text text-anchor="middle" x="300" y="-6.5" font-family="Helvetica,sans-Serif" font-size="10.00"> </text>
</a>
</g>
<!-- Node8&#45;&gt;Node9 -->
<g id="edge16" class="edge"><title>Node8&#45;&gt;Node9</title>
<path fill="none" stroke="midnightblue" d="M300,-86.6548C300,-76.7876 300,-66.5822 300,-57.5504"/>
<polygon fill="none" stroke="midnightblue" points="296.5,-86.7517 300,-96.7517 303.5,-86.7518 296.5,-86.7517"/>
</g>
</g>
</svg>
