<?xml version="1.0" encoding="UTF-8" standalone="no"?>
<!DOCTYPE svg PUBLIC "-//W3C//DTD SVG 1.1//EN"
 "http://www.w3.org/Graphics/SVG/1.1/DTD/svg11.dtd">
<!-- Generated by graphviz version 2.28.0 (20110610.2051)
 -->
<!-- Title: G Pages: 1 -->
<svg width="548pt" height="66pt"
 viewBox="0.00 0.00 548.00 66.00" xmlns="http://www.w3.org/2000/svg" xmlns:xlink="http://www.w3.org/1999/xlink">
<g id="graph1" class="graph" transform="scale(1 1) rotate(0) translate(4 62)">
<title>G</title>
<polygon fill="white" stroke="white" points="-4,5 -4,-62 545,-62 545,5 -4,5"/>
<!-- Node1 -->
<g id="node1" class="node"><title>Node1</title>
<polygon fill="#bfbfbf" stroke="black" points="0,-19.5 0,-38.5 132,-38.5 132,-19.5 0,-19.5"/>
<text text-anchor="middle" x="66" y="-26.5" font-family="Helvetica,sans-Serif" font-size="10.00">MLPfactory::makeNeuron</text>
</g>
<!-- Node2 -->
<g id="node3" class="node"><title>Node2</title>
<a xlink:href="class_m_l_pfactory.html#a2734e70d1b260ec88975474d77abf881" target="_top" xlink:title="MLPfactory::makePredictBehavior">
<polygon fill="white" stroke="black" points="168.5,-38.5 168.5,-57.5 341.5,-57.5 341.5,-38.5 168.5,-38.5"/>
<text text-anchor="middle" x="255" y="-45.5" font-family="Helvetica,sans-Serif" font-size="10.00">MLPfactory::makePredictBehavior</text>
</a>
</g>
<!-- Node1&#45;&gt;Node2 -->
<g id="edge2" class="edge"><title>Node1&#45;&gt;Node2</title>
<path fill="none" stroke="midnightblue" d="M132.141,-35.6186C140.642,-36.4823 149.488,-37.3812 158.36,-38.2826"/>
<polygon fill="midnightblue" stroke="midnightblue" points="158.068,-41.7709 168.371,-39.2997 158.776,-34.8067 158.068,-41.7709"/>
</g>
<!-- Node4 -->
<g id="node7" class="node"><title>Node4</title>
<a xlink:href="class_neuron.html#a31eac774003a5f4fdca375d021b712fa" target="_top" xlink:title="Neuron::setPredictBehavior">
<polygon fill="white" stroke="black" points="183,-0.5 183,-19.5 327,-19.5 327,-0.5 183,-0.5"/>
<text text-anchor="middle" x="255" y="-7.5" font-family="Helvetica,sans-Serif" font-size="10.00">Neuron::setPredictBehavior</text>
</a>
</g>
<!-- Node1&#45;&gt;Node4 -->
<g id="edge6" class="edge"><title>Node1&#45;&gt;Node4</title>
<path fill="none" stroke="midnightblue" d="M132.141,-22.3814C145.16,-21.0586 158.99,-19.6534 172.481,-18.2827"/>
<polygon fill="midnightblue" stroke="midnightblue" points="173.118,-21.7361 182.713,-17.2431 172.41,-14.7719 173.118,-21.7361"/>
</g>
<!-- Node3 -->
<g id="node5" class="node"><title>Node3</title>
<a xlink:href="class_m_l_pfactory.html#a62ea35a5b7ce5f139f91b2c3edd4ad61" target="_top" xlink:title="MLPfactory::makeConContainer">
<polygon fill="white" stroke="black" points="378,-38.5 378,-57.5 540,-57.5 540,-38.5 378,-38.5"/>
<text text-anchor="middle" x="459" y="-45.5" font-family="Helvetica,sans-Serif" font-size="10.00">MLPfactory::makeConContainer</text>
</a>
</g>
<!-- Node2&#45;&gt;Node3 -->
<g id="edge4" class="edge"><title>Node2&#45;&gt;Node3</title>
<path fill="none" stroke="midnightblue" d="M341.666,-48C350.322,-48 359.132,-48 367.834,-48"/>
<polygon fill="midnightblue" stroke="midnightblue" points="367.983,-51.5001 377.983,-48 367.983,-44.5001 367.983,-51.5001"/>
</g>
</g>
</svg>
