<?xml version="1.0" encoding="UTF-8" standalone="no"?>
<!DOCTYPE svg PUBLIC "-//W3C//DTD SVG 1.1//EN"
 "http://www.w3.org/Graphics/SVG/1.1/DTD/svg11.dtd">
<!-- Generated by graphviz version 2.25.20091207.0545 (20091207.0545)
 -->
<!-- Title: G Pages: 1 -->
<svg width="118pt" height="926pt"
 viewBox="0.00 0.00 118.00 926.00" xmlns="http://www.w3.org/2000/svg" xmlns:xlink="http://www.w3.org/1999/xlink">
<g id="graph1" class="graph" transform="scale(1 1) rotate(0) translate(4 922)">
<title>G</title>
<polygon fill="white" stroke="white" points="-4,5 -4,-922 115,-922 115,5 -4,5"/>
<!-- Node1 -->
<g id="node1" class="node"><title>Node1</title>
<polygon fill="#bfbfbf" stroke="black" points="1,-97 1,-165 109,-165 109,-97 1,-97"/>
<text text-anchor="middle" x="55" y="-152" font-family="Helvetica,sans-Serif" font-size="10.00">MLPneuronContainer</text>
<polyline fill="none" stroke="black" points="1,-146 109,-146 "/>
<text text-anchor="middle" x="55" y="-133" font-family="Helvetica,sans-Serif" font-size="10.00"> </text>
<polyline fill="none" stroke="black" points="1,-127 109,-127 "/>
<text text-anchor="start" x="9" y="-114" font-family="Helvetica,sans-Serif" font-size="10.00">+ getId()</text>
<text text-anchor="start" x="9" y="-103" font-family="Helvetica,sans-Serif" font-size="10.00">+ buildAndAppend()</text>
</g>
<!-- Node5 -->
<g id="node9" class="node"><title>Node5</title>
<a xlink:href="class_m_l_player.html" target="_top" xlink:title="{MLPlayer\n||}">
<polygon fill="white" stroke="black" points="26.5,-0.5 26.5,-57.5 83.5,-57.5 83.5,-0.5 26.5,-0.5"/>
<text text-anchor="middle" x="55" y="-44.5" font-family="Helvetica,sans-Serif" font-size="10.00">MLPlayer</text>
<polyline fill="none" stroke="black" points="26.5,-38.5 83.5,-38.5 "/>
<text text-anchor="middle" x="55" y="-25.5" font-family="Helvetica,sans-Serif" font-size="10.00"> </text>
<polyline fill="none" stroke="black" points="26.5,-19.5 83.5,-19.5 "/>
<text text-anchor="middle" x="55" y="-6.5" font-family="Helvetica,sans-Serif" font-size="10.00"> </text>
</a>
</g>
<!-- Node1&#45;&gt;Node5 -->
<g id="edge8" class="edge"><title>Node1&#45;&gt;Node5</title>
<path fill="none" stroke="midnightblue" d="M55,-86.6548C55,-76.7876 55,-66.5822 55,-57.5504"/>
<polygon fill="none" stroke="midnightblue" points="51.5001,-86.7517 55,-96.7517 58.5001,-86.7518 51.5001,-86.7517"/>
</g>
<!-- Node2 -->
<g id="node2" class="node"><title>Node2</title>
<a xlink:href="class_neuron_container.html" target="_top" xlink:title="A vector of neurons.">
<polygon fill="white" stroke="black" points="-0.5,-205 -0.5,-383 110.5,-383 110.5,-205 -0.5,-205"/>
<text text-anchor="middle" x="55" y="-370" font-family="Helvetica,sans-Serif" font-size="10.00">NeuronContainer</text>
<polyline fill="none" stroke="black" points="-0.5,-364 110.5,-364 "/>
<text text-anchor="middle" x="55" y="-351" font-family="Helvetica,sans-Serif" font-size="10.00"> </text>
<polyline fill="none" stroke="black" points="-0.5,-345 110.5,-345 "/>
<text text-anchor="start" x="7.5" y="-332" font-family="Helvetica,sans-Serif" font-size="10.00">+ NeuronContainer()</text>
<text text-anchor="start" x="7.5" y="-321" font-family="Helvetica,sans-Serif" font-size="10.00">+ NeuronContainer()</text>
<text text-anchor="start" x="7.5" y="-310" font-family="Helvetica,sans-Serif" font-size="10.00">+ ~NeuronContainer()</text>
<text text-anchor="start" x="7.5" y="-299" font-family="Helvetica,sans-Serif" font-size="10.00">+ numOfNeurons()</text>
<text text-anchor="start" x="7.5" y="-288" font-family="Helvetica,sans-Serif" font-size="10.00">+ numOfCons()</text>
<text text-anchor="start" x="7.5" y="-277" font-family="Helvetica,sans-Serif" font-size="10.00">+ getId()</text>
<text text-anchor="start" x="7.5" y="-266" font-family="Helvetica,sans-Serif" font-size="10.00">+ setId()</text>
<text text-anchor="start" x="7.5" y="-255" font-family="Helvetica,sans-Serif" font-size="10.00">+ getConId()</text>
<text text-anchor="start" x="7.5" y="-244" font-family="Helvetica,sans-Serif" font-size="10.00">+ getWeight()</text>
<text text-anchor="start" x="7.5" y="-233" font-family="Helvetica,sans-Serif" font-size="10.00">+ getFrom()</text>
<text text-anchor="start" x="7.5" y="-222" font-family="Helvetica,sans-Serif" font-size="10.00">+ setFrom()</text>
<text text-anchor="start" x="7.5" y="-211" font-family="Helvetica,sans-Serif" font-size="10.00">+ setWeight()</text>
</a>
</g>
<!-- Node2&#45;&gt;Node1 -->
<g id="edge2" class="edge"><title>Node2&#45;&gt;Node1</title>
<path fill="none" stroke="midnightblue" d="M55,-194.688C55,-184.176 55,-174.079 55,-165.145"/>
<polygon fill="none" stroke="midnightblue" points="51.5001,-194.869 55,-204.869 58.5001,-194.869 51.5001,-194.869"/>
</g>
<!-- Node3 -->
<g id="node4" class="node"><title>Node3</title>
<a xlink:href="class_container.html" target="_top" xlink:title="{Container\&lt; Neuron \&gt;\n|# collection\l|+ Container()\l+ Container()\l+ begin()\l+ end()\l+ load()\l+ store()\l+ size()\l+ push_back()\l+ append()\l+ show()\l+ validate()\l+ reserve()\l+ resize()\l+ empty()\l+ clear()\l+ operator[]()\l}">
<polygon fill="white" stroke="black" points="1,-423 1,-645 109,-645 109,-423 1,-423"/>
<text text-anchor="middle" x="55" y="-632" font-family="Helvetica,sans-Serif" font-size="10.00">Container&lt; Neuron &gt;</text>
<polyline fill="none" stroke="black" points="1,-626 109,-626 "/>
<text text-anchor="start" x="9" y="-613" font-family="Helvetica,sans-Serif" font-size="10.00"># collection</text>
<polyline fill="none" stroke="black" points="1,-607 109,-607 "/>
<text text-anchor="start" x="9" y="-594" font-family="Helvetica,sans-Serif" font-size="10.00">+ Container()</text>
<text text-anchor="start" x="9" y="-583" font-family="Helvetica,sans-Serif" font-size="10.00">+ Container()</text>
<text text-anchor="start" x="9" y="-572" font-family="Helvetica,sans-Serif" font-size="10.00">+ begin()</text>
<text text-anchor="start" x="9" y="-561" font-family="Helvetica,sans-Serif" font-size="10.00">+ end()</text>
<text text-anchor="start" x="9" y="-550" font-family="Helvetica,sans-Serif" font-size="10.00">+ load()</text>
<text text-anchor="start" x="9" y="-539" font-family="Helvetica,sans-Serif" font-size="10.00">+ store()</text>
<text text-anchor="start" x="9" y="-528" font-family="Helvetica,sans-Serif" font-size="10.00">+ size()</text>
<text text-anchor="start" x="9" y="-517" font-family="Helvetica,sans-Serif" font-size="10.00">+ push_back()</text>
<text text-anchor="start" x="9" y="-506" font-family="Helvetica,sans-Serif" font-size="10.00">+ append()</text>
<text text-anchor="start" x="9" y="-495" font-family="Helvetica,sans-Serif" font-size="10.00">+ show()</text>
<text text-anchor="start" x="9" y="-484" font-family="Helvetica,sans-Serif" font-size="10.00">+ validate()</text>
<text text-anchor="start" x="9" y="-473" font-family="Helvetica,sans-Serif" font-size="10.00">+ reserve()</text>
<text text-anchor="start" x="9" y="-462" font-family="Helvetica,sans-Serif" font-size="10.00">+ resize()</text>
<text text-anchor="start" x="9" y="-451" font-family="Helvetica,sans-Serif" font-size="10.00">+ empty()</text>
<text text-anchor="start" x="9" y="-440" font-family="Helvetica,sans-Serif" font-size="10.00">+ clear()</text>
<text text-anchor="start" x="9" y="-429" font-family="Helvetica,sans-Serif" font-size="10.00">+ operator[]()</text>
</a>
</g>
<!-- Node3&#45;&gt;Node2 -->
<g id="edge4" class="edge"><title>Node3&#45;&gt;Node2</title>
<path fill="none" stroke="midnightblue" d="M55,-412.522C55,-402.671 55,-392.833 55,-383.274"/>
<polygon fill="none" stroke="midnightblue" points="51.5001,-412.782 55,-422.782 58.5001,-412.782 51.5001,-412.782"/>
</g>
<!-- Node4 -->
<g id="node6" class="node"><title>Node4</title>
<a xlink:href="class_container.html" target="_top" xlink:title="{Container\&lt; T \&gt;\n|# collection\l|+ Container()\l+ Container()\l+ begin()\l+ end()\l+ load()\l+ store()\l+ size()\l+ push_back()\l+ append()\l+ show()\l+ validate()\l+ reserve()\l+ resize()\l+ empty()\l+ clear()\l+ operator[]()\l}">
<polygon fill="white" stroke="black" points="14,-695 14,-917 96,-917 96,-695 14,-695"/>
<text text-anchor="middle" x="55" y="-904" font-family="Helvetica,sans-Serif" font-size="10.00">Container&lt; T &gt;</text>
<polyline fill="none" stroke="black" points="14,-898 96,-898 "/>
<text text-anchor="start" x="22" y="-885" font-family="Helvetica,sans-Serif" font-size="10.00"># collection</text>
<polyline fill="none" stroke="black" points="14,-879 96,-879 "/>
<text text-anchor="start" x="22" y="-866" font-family="Helvetica,sans-Serif" font-size="10.00">+ Container()</text>
<text text-anchor="start" x="22" y="-855" font-family="Helvetica,sans-Serif" font-size="10.00">+ Container()</text>
<text text-anchor="start" x="22" y="-844" font-family="Helvetica,sans-Serif" font-size="10.00">+ begin()</text>
<text text-anchor="start" x="22" y="-833" font-family="Helvetica,sans-Serif" font-size="10.00">+ end()</text>
<text text-anchor="start" x="22" y="-822" font-family="Helvetica,sans-Serif" font-size="10.00">+ load()</text>
<text text-anchor="start" x="22" y="-811" font-family="Helvetica,sans-Serif" font-size="10.00">+ store()</text>
<text text-anchor="start" x="22" y="-800" font-family="Helvetica,sans-Serif" font-size="10.00">+ size()</text>
<text text-anchor="start" x="22" y="-789" font-family="Helvetica,sans-Serif" font-size="10.00">+ push_back()</text>
<text text-anchor="start" x="22" y="-778" font-family="Helvetica,sans-Serif" font-size="10.00">+ append()</text>
<text text-anchor="start" x="22" y="-767" font-family="Helvetica,sans-Serif" font-size="10.00">+ show()</text>
<text text-anchor="start" x="22" y="-756" font-family="Helvetica,sans-Serif" font-size="10.00">+ validate()</text>
<text text-anchor="start" x="22" y="-745" font-family="Helvetica,sans-Serif" font-size="10.00">+ reserve()</text>
<text text-anchor="start" x="22" y="-734" font-family="Helvetica,sans-Serif" font-size="10.00">+ resize()</text>
<text text-anchor="start" x="22" y="-723" font-family="Helvetica,sans-Serif" font-size="10.00">+ empty()</text>
<text text-anchor="start" x="22" y="-712" font-family="Helvetica,sans-Serif" font-size="10.00">+ clear()</text>
<text text-anchor="start" x="22" y="-701" font-family="Helvetica,sans-Serif" font-size="10.00">+ operator[]()</text>
</a>
</g>
<!-- Node4&#45;&gt;Node3 -->
<g id="edge6" class="edge"><title>Node4&#45;&gt;Node3</title>
<path fill="none" stroke="orange" stroke-dasharray="5,2" d="M55,-684.895C55,-671.654 55,-658.223 55,-645.111"/>
<polygon fill="orange" stroke="orange" points="51.5001,-684.975 55,-694.975 58.5001,-684.975 51.5001,-684.975"/>
<text text-anchor="middle" x="80" y="-666.5" font-family="Helvetica,sans-Serif" font-size="10.00">&lt; Neuron &gt;</text>
</g>
</g>
</svg>
