<?xml version="1.0" encoding="UTF-8" standalone="no"?>
<!DOCTYPE svg PUBLIC "-//W3C//DTD SVG 1.1//EN"
 "http://www.w3.org/Graphics/SVG/1.1/DTD/svg11.dtd">
<!-- Generated by graphviz version 2.25.20091207.0545 (20091207.0545)
 -->
<!-- Title: G Pages: 1 -->
<svg width="369pt" height="984pt"
 viewBox="0.00 0.00 369.00 984.00" xmlns="http://www.w3.org/2000/svg" xmlns:xlink="http://www.w3.org/1999/xlink">
<g id="graph1" class="graph" transform="scale(1 1) rotate(0) translate(4 980)">
<title>G</title>
<polygon fill="white" stroke="white" points="-4,5 -4,-980 366,-980 366,5 -4,5"/>
<!-- Node1 -->
<g id="node1" class="node"><title>Node1</title>
<polygon fill="#bfbfbf" stroke="black" points="104.5,-0.5 104.5,-101.5 201.5,-101.5 201.5,-0.5 104.5,-0.5"/>
<text text-anchor="middle" x="153" y="-88.5" font-family="Helvetica,sans-Serif" font-size="10.00">VecNeuron</text>
<polyline fill="none" stroke="black" points="104.5,-82.5 201.5,-82.5 "/>
<text text-anchor="middle" x="153" y="-69.5" font-family="Helvetica,sans-Serif" font-size="10.00"> </text>
<polyline fill="none" stroke="black" points="104.5,-63.5 201.5,-63.5 "/>
<text text-anchor="start" x="112.5" y="-50.5" font-family="Helvetica,sans-Serif" font-size="10.00">+ VecNeuron()</text>
<text text-anchor="start" x="112.5" y="-39.5" font-family="Helvetica,sans-Serif" font-size="10.00">+ VecNeuron()</text>
<text text-anchor="start" x="112.5" y="-28.5" font-family="Helvetica,sans-Serif" font-size="10.00">+ ~VecNeuron()</text>
<text text-anchor="start" x="112.5" y="-17.5" font-family="Helvetica,sans-Serif" font-size="10.00">+ numOfNeurons()</text>
<text text-anchor="start" x="112.5" y="-6.5" font-family="Helvetica,sans-Serif" font-size="10.00">+ getId()</text>
</g>
<!-- Node2 -->
<g id="node2" class="node"><title>Node2</title>
<a xlink:href="class_container.html" target="_top" xlink:title="{Container\&lt; Neuron \&gt;\n|# collection\l|+ Container()\l+ Container()\l+ begin()\l+ end()\l+ load()\l+ store()\l+ size()\l+ push_back()\l+ append()\l+ show()\l+ validate()\l+ reserve()\l+ resize()\l+ empty()\l+ operator[]()\l}">
<polygon fill="white" stroke="black" points="99,-140.5 99,-351.5 207,-351.5 207,-140.5 99,-140.5"/>
<text text-anchor="middle" x="153" y="-338.5" font-family="Helvetica,sans-Serif" font-size="10.00">Container&lt; Neuron &gt;</text>
<polyline fill="none" stroke="black" points="99,-332.5 207,-332.5 "/>
<text text-anchor="start" x="107" y="-319.5" font-family="Helvetica,sans-Serif" font-size="10.00"># collection</text>
<polyline fill="none" stroke="black" points="99,-313.5 207,-313.5 "/>
<text text-anchor="start" x="107" y="-300.5" font-family="Helvetica,sans-Serif" font-size="10.00">+ Container()</text>
<text text-anchor="start" x="107" y="-289.5" font-family="Helvetica,sans-Serif" font-size="10.00">+ Container()</text>
<text text-anchor="start" x="107" y="-278.5" font-family="Helvetica,sans-Serif" font-size="10.00">+ begin()</text>
<text text-anchor="start" x="107" y="-267.5" font-family="Helvetica,sans-Serif" font-size="10.00">+ end()</text>
<text text-anchor="start" x="107" y="-256.5" font-family="Helvetica,sans-Serif" font-size="10.00">+ load()</text>
<text text-anchor="start" x="107" y="-245.5" font-family="Helvetica,sans-Serif" font-size="10.00">+ store()</text>
<text text-anchor="start" x="107" y="-234.5" font-family="Helvetica,sans-Serif" font-size="10.00">+ size()</text>
<text text-anchor="start" x="107" y="-223.5" font-family="Helvetica,sans-Serif" font-size="10.00">+ push_back()</text>
<text text-anchor="start" x="107" y="-212.5" font-family="Helvetica,sans-Serif" font-size="10.00">+ append()</text>
<text text-anchor="start" x="107" y="-201.5" font-family="Helvetica,sans-Serif" font-size="10.00">+ show()</text>
<text text-anchor="start" x="107" y="-190.5" font-family="Helvetica,sans-Serif" font-size="10.00">+ validate()</text>
<text text-anchor="start" x="107" y="-179.5" font-family="Helvetica,sans-Serif" font-size="10.00">+ reserve()</text>
<text text-anchor="start" x="107" y="-168.5" font-family="Helvetica,sans-Serif" font-size="10.00">+ resize()</text>
<text text-anchor="start" x="107" y="-157.5" font-family="Helvetica,sans-Serif" font-size="10.00">+ empty()</text>
<text text-anchor="start" x="107" y="-146.5" font-family="Helvetica,sans-Serif" font-size="10.00">+ operator[]()</text>
</a>
</g>
<!-- Node2&#45;&gt;Node1 -->
<g id="edge2" class="edge"><title>Node2&#45;&gt;Node1</title>
<path fill="none" stroke="midnightblue" d="M153,-130.208C153,-120.263 153,-110.581 153,-101.597"/>
<polygon fill="none" stroke="midnightblue" points="149.5,-130.225 153,-140.225 156.5,-130.225 149.5,-130.225"/>
</g>
<!-- Node3 -->
<g id="node4" class="node"><title>Node3</title>
<polygon fill="white" stroke="#bfbfbf" points="0,-630.5 0,-687.5 206,-687.5 206,-630.5 0,-630.5"/>
<text text-anchor="middle" x="103" y="-674.5" font-family="Helvetica,sans-Serif" font-size="10.00">std::vector&lt; boost::shared_ptr&lt; Neuron &gt; &gt;</text>
<polyline fill="none" stroke="#bfbfbf" points="0,-668.5 206,-668.5 "/>
<text text-anchor="start" x="8" y="-655.5" font-family="Helvetica,sans-Serif" font-size="10.00">&#45; elements</text>
<polyline fill="none" stroke="#bfbfbf" points="0,-649.5 206,-649.5 "/>
<text text-anchor="middle" x="103" y="-636.5" font-family="Helvetica,sans-Serif" font-size="10.00"> </text>
</g>
<!-- Node3&#45;&gt;Node2 -->
<g id="edge4" class="edge"><title>Node3&#45;&gt;Node2</title>
<path fill="none" stroke="#9a32cd" stroke-dasharray="5,2" d="M107.679,-620.353C115.036,-559.586 129.564,-439.584 140.195,-351.769"/>
<polygon fill="#9a32cd" stroke="#9a32cd" points="106.476,-630.287 103.211,-619.818 107.077,-625.323 107.678,-620.359 107.678,-620.359 107.678,-620.359 107.077,-625.323 112.146,-620.9 106.476,-630.287 106.476,-630.287"/>
<text text-anchor="middle" x="154.5" y="-502.5" font-family="Helvetica,sans-Serif" font-size="10.00">collection</text>
</g>
<!-- Node4 -->
<g id="node6" class="node"><title>Node4</title>
<a xlink:title="STL class.">
<polygon fill="white" stroke="#bfbfbf" points="132.5,-812.5 132.5,-869.5 219.5,-869.5 219.5,-812.5 132.5,-812.5"/>
<text text-anchor="middle" x="176" y="-856.5" font-family="Helvetica,sans-Serif" font-size="10.00">std::vector&lt; T &gt;</text>
<polyline fill="none" stroke="#bfbfbf" points="132.5,-850.5 219.5,-850.5 "/>
<text text-anchor="start" x="140.5" y="-837.5" font-family="Helvetica,sans-Serif" font-size="10.00">&#45; elements</text>
<polyline fill="none" stroke="#bfbfbf" points="132.5,-831.5 219.5,-831.5 "/>
<text text-anchor="middle" x="176" y="-818.5" font-family="Helvetica,sans-Serif" font-size="10.00"> </text>
</a>
</g>
<!-- Node4&#45;&gt;Node3 -->
<g id="edge6" class="edge"><title>Node4&#45;&gt;Node3</title>
<path fill="none" stroke="orange" stroke-dasharray="5,2" d="M123.256,-823.422C110.116,-816.402 97.6162,-806.842 90,-794 70.6621,-761.394 80.7895,-716.405 90.9689,-687.504"/>
<polygon fill="orange" stroke="orange" points="121.881,-826.645 132.403,-827.885 124.95,-820.354 121.881,-826.645"/>
<text text-anchor="middle" x="161.5" y="-784.5" font-family="Helvetica,sans-Serif" font-size="10.00">&lt; boost::shared_ptr&lt; Neuron &gt; &gt;</text>
</g>
<!-- Node7 -->
<g id="node12" class="node"><title>Node7</title>
<polygon fill="white" stroke="#bfbfbf" points="164,-706.5 164,-763.5 344,-763.5 344,-706.5 164,-706.5"/>
<text text-anchor="middle" x="254" y="-750.5" font-family="Helvetica,sans-Serif" font-size="10.00">std::vector&lt; boost::shared_ptr&lt; T &gt; &gt;</text>
<polyline fill="none" stroke="#bfbfbf" points="164,-744.5 344,-744.5 "/>
<text text-anchor="start" x="172" y="-731.5" font-family="Helvetica,sans-Serif" font-size="10.00">&#45; elements</text>
<polyline fill="none" stroke="#bfbfbf" points="164,-725.5 344,-725.5 "/>
<text text-anchor="middle" x="254" y="-712.5" font-family="Helvetica,sans-Serif" font-size="10.00"> </text>
</g>
<!-- Node4&#45;&gt;Node7 -->
<g id="edge14" class="edge"><title>Node4&#45;&gt;Node7</title>
<path fill="none" stroke="orange" stroke-dasharray="5,2" d="M227.038,-806.053C230.72,-802.271 234.113,-798.244 237,-794 243.116,-785.01 247.057,-773.818 249.586,-763.605"/>
<polygon fill="orange" stroke="orange" points="224.531,-803.605 219.657,-813.012 229.334,-808.698 224.531,-803.605"/>
<text text-anchor="middle" x="302" y="-784.5" font-family="Helvetica,sans-Serif" font-size="10.00">&lt; boost::shared_ptr&lt; T &gt; &gt;</text>
</g>
<!-- Node5 -->
<g id="node8" class="node"><title>Node5</title>
<polygon fill="white" stroke="#bfbfbf" points="161.5,-918.5 161.5,-975.5 190.5,-975.5 190.5,-918.5 161.5,-918.5"/>
<text text-anchor="middle" x="176" y="-962.5" font-family="Helvetica,sans-Serif" font-size="10.00">T</text>
<polyline fill="none" stroke="#bfbfbf" points="161.5,-956.5 190.5,-956.5 "/>
<text text-anchor="middle" x="176" y="-943.5" font-family="Helvetica,sans-Serif" font-size="10.00"> </text>
<polyline fill="none" stroke="#bfbfbf" points="161.5,-937.5 190.5,-937.5 "/>
<text text-anchor="middle" x="176" y="-924.5" font-family="Helvetica,sans-Serif" font-size="10.00"> </text>
</g>
<!-- Node5&#45;&gt;Node4 -->
<g id="edge8" class="edge"><title>Node5&#45;&gt;Node4</title>
<path fill="none" stroke="#9a32cd" stroke-dasharray="5,2" d="M176,-908.005C176,-895.326 176,-881.494 176,-869.708"/>
<polygon fill="#9a32cd" stroke="#9a32cd" points="176,-918.315 171.5,-908.315 176,-913.315 176,-908.315 176,-908.315 176,-908.315 176,-913.315 180.5,-908.315 176,-918.315 176,-918.315"/>
<text text-anchor="middle" x="196" y="-890.5" font-family="Helvetica,sans-Serif" font-size="10.00">elements</text>
</g>
<!-- Node6 -->
<g id="node10" class="node"><title>Node6</title>
<a xlink:href="class_container.html" target="_top" xlink:title="{Container\&lt; T \&gt;\n|# collection\l|+ Container()\l+ Container()\l+ begin()\l+ end()\l+ load()\l+ store()\l+ size()\l+ push_back()\l+ append()\l+ show()\l+ validate()\l+ reserve()\l+ resize()\l+ empty()\l+ operator[]()\l}">
<polygon fill="white" stroke="black" points="185,-400.5 185,-611.5 267,-611.5 267,-400.5 185,-400.5"/>
<text text-anchor="middle" x="226" y="-598.5" font-family="Helvetica,sans-Serif" font-size="10.00">Container&lt; T &gt;</text>
<polyline fill="none" stroke="black" points="185,-592.5 267,-592.5 "/>
<text text-anchor="start" x="193" y="-579.5" font-family="Helvetica,sans-Serif" font-size="10.00"># collection</text>
<polyline fill="none" stroke="black" points="185,-573.5 267,-573.5 "/>
<text text-anchor="start" x="193" y="-560.5" font-family="Helvetica,sans-Serif" font-size="10.00">+ Container()</text>
<text text-anchor="start" x="193" y="-549.5" font-family="Helvetica,sans-Serif" font-size="10.00">+ Container()</text>
<text text-anchor="start" x="193" y="-538.5" font-family="Helvetica,sans-Serif" font-size="10.00">+ begin()</text>
<text text-anchor="start" x="193" y="-527.5" font-family="Helvetica,sans-Serif" font-size="10.00">+ end()</text>
<text text-anchor="start" x="193" y="-516.5" font-family="Helvetica,sans-Serif" font-size="10.00">+ load()</text>
<text text-anchor="start" x="193" y="-505.5" font-family="Helvetica,sans-Serif" font-size="10.00">+ store()</text>
<text text-anchor="start" x="193" y="-494.5" font-family="Helvetica,sans-Serif" font-size="10.00">+ size()</text>
<text text-anchor="start" x="193" y="-483.5" font-family="Helvetica,sans-Serif" font-size="10.00">+ push_back()</text>
<text text-anchor="start" x="193" y="-472.5" font-family="Helvetica,sans-Serif" font-size="10.00">+ append()</text>
<text text-anchor="start" x="193" y="-461.5" font-family="Helvetica,sans-Serif" font-size="10.00">+ show()</text>
<text text-anchor="start" x="193" y="-450.5" font-family="Helvetica,sans-Serif" font-size="10.00">+ validate()</text>
<text text-anchor="start" x="193" y="-439.5" font-family="Helvetica,sans-Serif" font-size="10.00">+ reserve()</text>
<text text-anchor="start" x="193" y="-428.5" font-family="Helvetica,sans-Serif" font-size="10.00">+ resize()</text>
<text text-anchor="start" x="193" y="-417.5" font-family="Helvetica,sans-Serif" font-size="10.00">+ empty()</text>
<text text-anchor="start" x="193" y="-406.5" font-family="Helvetica,sans-Serif" font-size="10.00">+ operator[]()</text>
</a>
</g>
<!-- Node6&#45;&gt;Node2 -->
<g id="edge10" class="edge"><title>Node6&#45;&gt;Node2</title>
<path fill="none" stroke="orange" stroke-dasharray="5,2" d="M193.551,-390.427C189.928,-377.524 186.251,-364.428 182.666,-351.658"/>
<polygon fill="orange" stroke="orange" points="190.235,-391.566 196.308,-400.248 196.975,-389.674 190.235,-391.566"/>
<text text-anchor="middle" x="214" y="-372.5" font-family="Helvetica,sans-Serif" font-size="10.00">&lt; Neuron &gt;</text>
</g>
<!-- Node7&#45;&gt;Node6 -->
<g id="edge12" class="edge"><title>Node7&#45;&gt;Node6</title>
<path fill="none" stroke="#9a32cd" stroke-dasharray="5,2" d="M249.266,-696.282C246.406,-672.89 242.609,-641.84 238.914,-611.619"/>
<polygon fill="#9a32cd" stroke="#9a32cd" points="250.51,-706.46 244.83,-697.08 249.904,-701.497 249.297,-696.534 249.297,-696.534 249.297,-696.534 249.904,-701.497 253.763,-695.988 250.51,-706.46 250.51,-706.46"/>
<text text-anchor="middle" x="267.5" y="-655.5" font-family="Helvetica,sans-Serif" font-size="10.00">collection</text>
</g>
</g>
</svg>
