<?xml version="1.0" encoding="UTF-8" standalone="no"?>
<!DOCTYPE svg PUBLIC "-//W3C//DTD SVG 1.1//EN"
 "http://www.w3.org/Graphics/SVG/1.1/DTD/svg11.dtd">
<!-- Generated by graphviz version 2.25.20091207.0545 (20091207.0545)
 -->
<!-- Title: G Pages: 1 -->
<svg width="398pt" height="28pt"
 viewBox="0.00 0.00 398.00 28.00" xmlns="http://www.w3.org/2000/svg" xmlns:xlink="http://www.w3.org/1999/xlink">
<g id="graph1" class="graph" transform="scale(1 1) rotate(0) translate(4 24)">
<title>G</title>
<polygon fill="white" stroke="white" points="-4,5 -4,-24 395,-24 395,5 -4,5"/>
<!-- Node1 -->
<g id="node1" class="node"><title>Node1</title>
<polygon fill="#bfbfbf" stroke="black" points="0,-0.5 0,-19.5 98,-19.5 98,-0.5 0,-0.5"/>
<text text-anchor="middle" x="49" y="-6.5" font-family="Helvetica,sans-Serif" font-size="10.00">Neuron::setWeight</text>
</g>
<!-- Node2 -->
<g id="node3" class="node"><title>Node2</title>
<a xlink:href="class_vec_con.html#a5ccf0a3d9ccd6b744d22ab0e508f8010" target="_top" xlink:title="Setter of the weight field of the Con objects related to VecCon.">
<polygon fill="white" stroke="black" points="134,-0.5 134,-19.5 236,-19.5 236,-0.5 134,-0.5"/>
<text text-anchor="middle" x="185" y="-6.5" font-family="Helvetica,sans-Serif" font-size="10.00">VecCon::setWeight</text>
</a>
</g>
<!-- Node1&#45;&gt;Node2 -->
<g id="edge2" class="edge"><title>Node1&#45;&gt;Node2</title>
<path fill="none" stroke="midnightblue" d="M98.0991,-10C106.321,-10 114.943,-10 123.431,-10"/>
<polygon fill="midnightblue" stroke="midnightblue" points="123.681,-13.5001 133.681,-10 123.681,-6.5001 123.681,-13.5001"/>
</g>
<!-- Node3 -->
<g id="node5" class="node"><title>Node3</title>
<a xlink:href="class_container.html#aef8dda28fbfe205ce25ae824d84bb1c9" target="_top" xlink:title="Container\&lt; Con \&gt;::size">
<polygon fill="white" stroke="black" points="272,-0.5 272,-19.5 390,-19.5 390,-0.5 272,-0.5"/>
<text text-anchor="middle" x="331" y="-6.5" font-family="Helvetica,sans-Serif" font-size="10.00">Container&lt; Con &gt;::size</text>
</a>
</g>
<!-- Node2&#45;&gt;Node3 -->
<g id="edge4" class="edge"><title>Node2&#45;&gt;Node3</title>
<path fill="none" stroke="midnightblue" d="M236.064,-10C244.397,-10 253.151,-10 261.833,-10"/>
<polygon fill="midnightblue" stroke="midnightblue" points="261.961,-13.5001 271.961,-10 261.961,-6.5001 261.961,-13.5001"/>
</g>
</g>
</svg>
