<?xml version="1.0" encoding="UTF-8" standalone="no"?>
<!DOCTYPE svg PUBLIC "-//W3C//DTD SVG 1.1//EN"
 "http://www.w3.org/Graphics/SVG/1.1/DTD/svg11.dtd">
<!-- Generated by graphviz version 2.25.20091207.0545 (20091207.0545)
 -->
<!-- Title: G Pages: 1 -->
<svg width="216pt" height="484pt"
 viewBox="0.00 0.00 216.00 484.00" xmlns="http://www.w3.org/2000/svg" xmlns:xlink="http://www.w3.org/1999/xlink">
<g id="graph1" class="graph" transform="scale(1 1) rotate(0) translate(4 480)">
<title>G</title>
<polygon fill="white" stroke="white" points="-4,5 -4,-480 213,-480 213,5 -4,5"/>
<!-- Node1 -->
<g id="node1" class="node"><title>Node1</title>
<polygon fill="#bfbfbf" stroke="black" points="49,-1 49,-157 131,-157 131,-1 49,-1"/>
<text text-anchor="middle" x="90" y="-144" font-family="Helvetica,sans-Serif" font-size="10.00">Container&lt; T &gt;</text>
<polyline fill="none" stroke="black" points="49,-138 131,-138 "/>
<text text-anchor="start" x="57" y="-125" font-family="Helvetica,sans-Serif" font-size="10.00"># ldata</text>
<polyline fill="none" stroke="black" points="49,-119 131,-119 "/>
<text text-anchor="start" x="57" y="-106" font-family="Helvetica,sans-Serif" font-size="10.00">+ begin()</text>
<text text-anchor="start" x="57" y="-95" font-family="Helvetica,sans-Serif" font-size="10.00">+ end()</text>
<text text-anchor="start" x="57" y="-84" font-family="Helvetica,sans-Serif" font-size="10.00">+ getLdata()</text>
<text text-anchor="start" x="57" y="-73" font-family="Helvetica,sans-Serif" font-size="10.00">+ setLdata()</text>
<text text-anchor="start" x="57" y="-62" font-family="Helvetica,sans-Serif" font-size="10.00">+ size()</text>
<text text-anchor="start" x="57" y="-51" font-family="Helvetica,sans-Serif" font-size="10.00">+ push_back()</text>
<text text-anchor="start" x="57" y="-40" font-family="Helvetica,sans-Serif" font-size="10.00">+ append()</text>
<text text-anchor="start" x="57" y="-29" font-family="Helvetica,sans-Serif" font-size="10.00">+ show()</text>
<text text-anchor="start" x="57" y="-18" font-family="Helvetica,sans-Serif" font-size="10.00">+ validate()</text>
<text text-anchor="start" x="57" y="-7" font-family="Helvetica,sans-Serif" font-size="10.00">+ reserve()</text>
</g>
<!-- Node2 -->
<g id="node2" class="node"><title>Node2</title>
<polygon fill="white" stroke="#bfbfbf" points="0,-206.5 0,-263.5 180,-263.5 180,-206.5 0,-206.5"/>
<text text-anchor="middle" x="90" y="-250.5" font-family="Helvetica,sans-Serif" font-size="10.00">std::vector&lt; boost::shared_ptr&lt; T &gt; &gt;</text>
<polyline fill="none" stroke="#bfbfbf" points="0,-244.5 180,-244.5 "/>
<text text-anchor="start" x="8" y="-231.5" font-family="Helvetica,sans-Serif" font-size="10.00">&#45; elements</text>
<polyline fill="none" stroke="#bfbfbf" points="0,-225.5 180,-225.5 "/>
<text text-anchor="middle" x="90" y="-212.5" font-family="Helvetica,sans-Serif" font-size="10.00"> </text>
</g>
<!-- Node2&#45;&gt;Node1 -->
<g id="edge2" class="edge"><title>Node2&#45;&gt;Node1</title>
<path fill="none" stroke="#9a32cd" stroke-dasharray="5,2" d="M90,-196.369C90,-184.433 90,-170.83 90,-157.218"/>
<polygon fill="#9a32cd" stroke="#9a32cd" points="90,-206.387 85.5001,-196.387 90,-201.387 90.0001,-196.387 90.0001,-196.387 90.0001,-196.387 90,-201.387 94.5001,-196.387 90,-206.387 90,-206.387"/>
<text text-anchor="middle" x="100.5" y="-178.5" font-family="Helvetica,sans-Serif" font-size="10.00">ldata</text>
</g>
<!-- Node3 -->
<g id="node4" class="node"><title>Node3</title>
<a xlink:title="STL class.">
<polygon fill="white" stroke="#bfbfbf" points="46.5,-312.5 46.5,-369.5 133.5,-369.5 133.5,-312.5 46.5,-312.5"/>
<text text-anchor="middle" x="90" y="-356.5" font-family="Helvetica,sans-Serif" font-size="10.00">std::vector&lt; T &gt;</text>
<polyline fill="none" stroke="#bfbfbf" points="46.5,-350.5 133.5,-350.5 "/>
<text text-anchor="start" x="54.5" y="-337.5" font-family="Helvetica,sans-Serif" font-size="10.00">&#45; elements</text>
<polyline fill="none" stroke="#bfbfbf" points="46.5,-331.5 133.5,-331.5 "/>
<text text-anchor="middle" x="90" y="-318.5" font-family="Helvetica,sans-Serif" font-size="10.00"> </text>
</a>
</g>
<!-- Node3&#45;&gt;Node2 -->
<g id="edge4" class="edge"><title>Node3&#45;&gt;Node2</title>
<path fill="none" stroke="orange" stroke-dasharray="5,2" d="M90,-302.005C90,-289.326 90,-275.494 90,-263.708"/>
<polygon fill="orange" stroke="orange" points="86.5001,-302.315 90,-312.315 93.5001,-302.315 86.5001,-302.315"/>
<text text-anchor="middle" x="149" y="-284.5" font-family="Helvetica,sans-Serif" font-size="10.00">&lt; boost::shared_ptr&lt; T &gt; &gt;</text>
</g>
<!-- Node4 -->
<g id="node6" class="node"><title>Node4</title>
<polygon fill="white" stroke="#bfbfbf" points="75.5,-418.5 75.5,-475.5 104.5,-475.5 104.5,-418.5 75.5,-418.5"/>
<text text-anchor="middle" x="90" y="-462.5" font-family="Helvetica,sans-Serif" font-size="10.00">T</text>
<polyline fill="none" stroke="#bfbfbf" points="75.5,-456.5 104.5,-456.5 "/>
<text text-anchor="middle" x="90" y="-443.5" font-family="Helvetica,sans-Serif" font-size="10.00"> </text>
<polyline fill="none" stroke="#bfbfbf" points="75.5,-437.5 104.5,-437.5 "/>
<text text-anchor="middle" x="90" y="-424.5" font-family="Helvetica,sans-Serif" font-size="10.00"> </text>
</g>
<!-- Node4&#45;&gt;Node3 -->
<g id="edge6" class="edge"><title>Node4&#45;&gt;Node3</title>
<path fill="none" stroke="#9a32cd" stroke-dasharray="5,2" d="M90,-408.005C90,-395.326 90,-381.494 90,-369.708"/>
<polygon fill="#9a32cd" stroke="#9a32cd" points="90,-418.315 85.5001,-408.315 90,-413.315 90.0001,-408.315 90.0001,-408.315 90.0001,-408.315 90,-413.315 94.5001,-408.315 90,-418.315 90,-418.315"/>
<text text-anchor="middle" x="110" y="-390.5" font-family="Helvetica,sans-Serif" font-size="10.00">elements</text>
</g>
</g>
</svg>
