<?xml version="1.0" encoding="UTF-8" standalone="no"?>
<!DOCTYPE svg PUBLIC "-//W3C//DTD SVG 1.1//EN"
 "http://www.w3.org/Graphics/SVG/1.1/DTD/svg11.dtd">
<!-- Generated by graphviz version 2.25.20091207.0545 (20091207.0545)
 -->
<!-- Title: G Pages: 1 -->
<svg width="370pt" height="66pt"
 viewBox="0.00 0.00 370.00 66.00" xmlns="http://www.w3.org/2000/svg" xmlns:xlink="http://www.w3.org/1999/xlink">
<g id="graph1" class="graph" transform="scale(1 1) rotate(0) translate(4 62)">
<title>G</title>
<polygon fill="white" stroke="white" points="-4,5 -4,-62 367,-62 367,5 -4,5"/>
<!-- Node1 -->
<g id="node1" class="node"><title>Node1</title>
<polygon fill="#bfbfbf" stroke="black" points="0,-19.5 0,-38.5 82,-38.5 82,-19.5 0,-19.5"/>
<text text-anchor="middle" x="41" y="-25.5" font-family="Helvetica,sans-Serif" font-size="10.00">Container::size</text>
</g>
<!-- Node2 -->
<g id="node3" class="node"><title>Node2</title>
<a xlink:href="class_container.html#a86d42cf807e073724bd2f8e08dcdfefa" target="_top" xlink:title="Appends a Container&lt;T&gt; object.">
<polygon fill="white" stroke="black" points="129,-38.5 129,-57.5 225,-57.5 225,-38.5 129,-38.5"/>
<text text-anchor="middle" x="177" y="-44.5" font-family="Helvetica,sans-Serif" font-size="10.00">Container::append</text>
</a>
</g>
<!-- Node1&#45;&gt;Node2 -->
<g id="edge2" class="edge"><title>Node1&#45;&gt;Node2</title>
<path fill="none" stroke="midnightblue" d="M92.4301,-36.1851C104.359,-37.8517 117.013,-39.6194 128.797,-41.2658"/>
<polygon fill="midnightblue" stroke="midnightblue" points="92.5617,-32.6696 82.1736,-34.7522 91.5931,-39.6022 92.5617,-32.6696"/>
</g>
<!-- Node3 -->
<g id="node5" class="node"><title>Node3</title>
<a xlink:href="class_con_container.html#aa7f1bbd910afe9c4241e8bd4d5fbc497" target="_top" xlink:title="Setter of the from fields of the Con objects related to ConContainer.">
<polygon fill="white" stroke="black" points="118,-0.5 118,-19.5 236,-19.5 236,-0.5 118,-0.5"/>
<text text-anchor="middle" x="177" y="-6.5" font-family="Helvetica,sans-Serif" font-size="10.00">ConContainer::setFrom</text>
</a>
</g>
<!-- Node1&#45;&gt;Node3 -->
<g id="edge4" class="edge"><title>Node1&#45;&gt;Node3</title>
<path fill="none" stroke="midnightblue" d="M92.1918,-21.8482C100.584,-20.6758 109.34,-19.4525 117.905,-18.256"/>
<polygon fill="midnightblue" stroke="midnightblue" points="91.5931,-18.3978 82.1736,-23.2478 92.5617,-25.3304 91.5931,-18.3978"/>
</g>
<!-- Node4 -->
<g id="node7" class="node"><title>Node4</title>
<a xlink:href="class_neuron.html#ac8129f5de3ec1c143f40d507b6843649" target="_top" xlink:title="Neuron::setFrom">
<polygon fill="white" stroke="black" points="272,-0.5 272,-19.5 362,-19.5 362,-0.5 272,-0.5"/>
<text text-anchor="middle" x="317" y="-6.5" font-family="Helvetica,sans-Serif" font-size="10.00">Neuron::setFrom</text>
</a>
</g>
<!-- Node3&#45;&gt;Node4 -->
<g id="edge6" class="edge"><title>Node3&#45;&gt;Node4</title>
<path fill="none" stroke="midnightblue" d="M246.502,-10C255.161,-10 263.831,-10 271.981,-10"/>
<polygon fill="midnightblue" stroke="midnightblue" points="246.373,-6.5001 236.373,-10 246.373,-13.5001 246.373,-6.5001"/>
</g>
</g>
</svg>
