<?xml version="1.0" encoding="UTF-8" standalone="no"?>
<!DOCTYPE svg PUBLIC "-//W3C//DTD SVG 1.1//EN"
 "http://www.w3.org/Graphics/SVG/1.1/DTD/svg11.dtd">
<!-- Generated by graphviz version 2.25.20091207.0545 (20091207.0545)
 -->
<!-- Title: G Pages: 1 -->
<svg width="369pt" height="1290pt"
 viewBox="0.00 0.00 369.00 1290.00" xmlns="http://www.w3.org/2000/svg" xmlns:xlink="http://www.w3.org/1999/xlink">
<g id="graph1" class="graph" transform="scale(1 1) rotate(0) translate(4 1286)">
<title>G</title>
<polygon fill="white" stroke="white" points="-4,5 -4,-1286 366,-1286 366,5 -4,5"/>
<!-- Node1 -->
<g id="node1" class="node"><title>Node1</title>
<polygon fill="#bfbfbf" stroke="black" points="124.5,-0.5 124.5,-57.5 181.5,-57.5 181.5,-0.5 124.5,-0.5"/>
<text text-anchor="middle" x="153" y="-44.5" font-family="Helvetica,sans-Serif" font-size="10.00">MLPlayer</text>
<polyline fill="none" stroke="black" points="124.5,-38.5 181.5,-38.5 "/>
<text text-anchor="middle" x="153" y="-25.5" font-family="Helvetica,sans-Serif" font-size="10.00"> </text>
<polyline fill="none" stroke="black" points="124.5,-19.5 181.5,-19.5 "/>
<text text-anchor="middle" x="153" y="-6.5" font-family="Helvetica,sans-Serif" font-size="10.00"> </text>
</g>
<!-- Node2 -->
<g id="node2" class="node"><title>Node2</title>
<a xlink:href="class_m_l_pneuron_container.html" target="_top" xlink:title="A vector of connections.">
<polygon fill="white" stroke="black" points="99,-97 99,-165 207,-165 207,-97 99,-97"/>
<text text-anchor="middle" x="153" y="-152" font-family="Helvetica,sans-Serif" font-size="10.00">MLPneuronContainer</text>
<polyline fill="none" stroke="black" points="99,-146 207,-146 "/>
<text text-anchor="middle" x="153" y="-133" font-family="Helvetica,sans-Serif" font-size="10.00"> </text>
<polyline fill="none" stroke="black" points="99,-127 207,-127 "/>
<text text-anchor="start" x="107" y="-114" font-family="Helvetica,sans-Serif" font-size="10.00">+ getId()</text>
<text text-anchor="start" x="107" y="-103" font-family="Helvetica,sans-Serif" font-size="10.00">+ buildAndAppend()</text>
</a>
</g>
<!-- Node2&#45;&gt;Node1 -->
<g id="edge2" class="edge"><title>Node2&#45;&gt;Node1</title>
<path fill="none" stroke="midnightblue" d="M153,-86.6548C153,-76.7876 153,-66.5822 153,-57.5504"/>
<polygon fill="none" stroke="midnightblue" points="149.5,-86.7517 153,-96.7517 156.5,-86.7518 149.5,-86.7517"/>
</g>
<!-- Node3 -->
<g id="node4" class="node"><title>Node3</title>
<a xlink:href="class_neuron_container.html" target="_top" xlink:title="A vector of neurons.">
<polygon fill="white" stroke="black" points="97.5,-205 97.5,-383 208.5,-383 208.5,-205 97.5,-205"/>
<text text-anchor="middle" x="153" y="-370" font-family="Helvetica,sans-Serif" font-size="10.00">NeuronContainer</text>
<polyline fill="none" stroke="black" points="97.5,-364 208.5,-364 "/>
<text text-anchor="middle" x="153" y="-351" font-family="Helvetica,sans-Serif" font-size="10.00"> </text>
<polyline fill="none" stroke="black" points="97.5,-345 208.5,-345 "/>
<text text-anchor="start" x="105.5" y="-332" font-family="Helvetica,sans-Serif" font-size="10.00">+ NeuronContainer()</text>
<text text-anchor="start" x="105.5" y="-321" font-family="Helvetica,sans-Serif" font-size="10.00">+ NeuronContainer()</text>
<text text-anchor="start" x="105.5" y="-310" font-family="Helvetica,sans-Serif" font-size="10.00">+ ~NeuronContainer()</text>
<text text-anchor="start" x="105.5" y="-299" font-family="Helvetica,sans-Serif" font-size="10.00">+ numOfNeurons()</text>
<text text-anchor="start" x="105.5" y="-288" font-family="Helvetica,sans-Serif" font-size="10.00">+ numOfCons()</text>
<text text-anchor="start" x="105.5" y="-277" font-family="Helvetica,sans-Serif" font-size="10.00">+ getId()</text>
<text text-anchor="start" x="105.5" y="-266" font-family="Helvetica,sans-Serif" font-size="10.00">+ setId()</text>
<text text-anchor="start" x="105.5" y="-255" font-family="Helvetica,sans-Serif" font-size="10.00">+ getConId()</text>
<text text-anchor="start" x="105.5" y="-244" font-family="Helvetica,sans-Serif" font-size="10.00">+ getWeight()</text>
<text text-anchor="start" x="105.5" y="-233" font-family="Helvetica,sans-Serif" font-size="10.00">+ getFrom()</text>
<text text-anchor="start" x="105.5" y="-222" font-family="Helvetica,sans-Serif" font-size="10.00">+ setFrom()</text>
<text text-anchor="start" x="105.5" y="-211" font-family="Helvetica,sans-Serif" font-size="10.00">+ setWeight()</text>
</a>
</g>
<!-- Node3&#45;&gt;Node2 -->
<g id="edge4" class="edge"><title>Node3&#45;&gt;Node2</title>
<path fill="none" stroke="midnightblue" d="M153,-194.688C153,-184.176 153,-174.079 153,-165.145"/>
<polygon fill="none" stroke="midnightblue" points="149.5,-194.869 153,-204.869 156.5,-194.869 149.5,-194.869"/>
</g>
<!-- Node4 -->
<g id="node6" class="node"><title>Node4</title>
<a xlink:href="class_container.html" target="_top" xlink:title="{Container\&lt; Neuron \&gt;\n|# collection\l|+ Container()\l+ Container()\l+ begin()\l+ end()\l+ load()\l+ store()\l+ size()\l+ push_back()\l+ append()\l+ show()\l+ validate()\l+ reserve()\l+ resize()\l+ empty()\l+ clear()\l+ operator[]()\l}">
<polygon fill="white" stroke="black" points="99,-423 99,-645 207,-645 207,-423 99,-423"/>
<text text-anchor="middle" x="153" y="-632" font-family="Helvetica,sans-Serif" font-size="10.00">Container&lt; Neuron &gt;</text>
<polyline fill="none" stroke="black" points="99,-626 207,-626 "/>
<text text-anchor="start" x="107" y="-613" font-family="Helvetica,sans-Serif" font-size="10.00"># collection</text>
<polyline fill="none" stroke="black" points="99,-607 207,-607 "/>
<text text-anchor="start" x="107" y="-594" font-family="Helvetica,sans-Serif" font-size="10.00">+ Container()</text>
<text text-anchor="start" x="107" y="-583" font-family="Helvetica,sans-Serif" font-size="10.00">+ Container()</text>
<text text-anchor="start" x="107" y="-572" font-family="Helvetica,sans-Serif" font-size="10.00">+ begin()</text>
<text text-anchor="start" x="107" y="-561" font-family="Helvetica,sans-Serif" font-size="10.00">+ end()</text>
<text text-anchor="start" x="107" y="-550" font-family="Helvetica,sans-Serif" font-size="10.00">+ load()</text>
<text text-anchor="start" x="107" y="-539" font-family="Helvetica,sans-Serif" font-size="10.00">+ store()</text>
<text text-anchor="start" x="107" y="-528" font-family="Helvetica,sans-Serif" font-size="10.00">+ size()</text>
<text text-anchor="start" x="107" y="-517" font-family="Helvetica,sans-Serif" font-size="10.00">+ push_back()</text>
<text text-anchor="start" x="107" y="-506" font-family="Helvetica,sans-Serif" font-size="10.00">+ append()</text>
<text text-anchor="start" x="107" y="-495" font-family="Helvetica,sans-Serif" font-size="10.00">+ show()</text>
<text text-anchor="start" x="107" y="-484" font-family="Helvetica,sans-Serif" font-size="10.00">+ validate()</text>
<text text-anchor="start" x="107" y="-473" font-family="Helvetica,sans-Serif" font-size="10.00">+ reserve()</text>
<text text-anchor="start" x="107" y="-462" font-family="Helvetica,sans-Serif" font-size="10.00">+ resize()</text>
<text text-anchor="start" x="107" y="-451" font-family="Helvetica,sans-Serif" font-size="10.00">+ empty()</text>
<text text-anchor="start" x="107" y="-440" font-family="Helvetica,sans-Serif" font-size="10.00">+ clear()</text>
<text text-anchor="start" x="107" y="-429" font-family="Helvetica,sans-Serif" font-size="10.00">+ operator[]()</text>
</a>
</g>
<!-- Node4&#45;&gt;Node3 -->
<g id="edge6" class="edge"><title>Node4&#45;&gt;Node3</title>
<path fill="none" stroke="midnightblue" d="M153,-412.522C153,-402.671 153,-392.833 153,-383.274"/>
<polygon fill="none" stroke="midnightblue" points="149.5,-412.782 153,-422.782 156.5,-412.782 149.5,-412.782"/>
</g>
<!-- Node5 -->
<g id="node8" class="node"><title>Node5</title>
<polygon fill="white" stroke="#bfbfbf" points="0,-936.5 0,-993.5 206,-993.5 206,-936.5 0,-936.5"/>
<text text-anchor="middle" x="103" y="-980.5" font-family="Helvetica,sans-Serif" font-size="10.00">std::vector&lt; boost::shared_ptr&lt; Neuron &gt; &gt;</text>
<polyline fill="none" stroke="#bfbfbf" points="0,-974.5 206,-974.5 "/>
<text text-anchor="start" x="8" y="-961.5" font-family="Helvetica,sans-Serif" font-size="10.00">&#45; elements</text>
<polyline fill="none" stroke="#bfbfbf" points="0,-955.5 206,-955.5 "/>
<text text-anchor="middle" x="103" y="-942.5" font-family="Helvetica,sans-Serif" font-size="10.00"> </text>
</g>
<!-- Node5&#45;&gt;Node4 -->
<g id="edge8" class="edge"><title>Node5&#45;&gt;Node4</title>
<path fill="none" stroke="#9a32cd" stroke-dasharray="5,2" d="M107.507,-926.153C114.783,-863.426 129.387,-737.547 140.093,-645.262"/>
<polygon fill="#9a32cd" stroke="#9a32cd" points="106.319,-936.387 103.002,-925.935 106.896,-931.42 107.472,-926.454 107.472,-926.454 107.472,-926.454 106.896,-931.42 111.942,-926.972 106.319,-936.387 106.319,-936.387"/>
<text text-anchor="middle" x="155.5" y="-802.5" font-family="Helvetica,sans-Serif" font-size="10.00">collection</text>
</g>
<!-- Node6 -->
<g id="node10" class="node"><title>Node6</title>
<a xlink:title="STL class.">
<polygon fill="white" stroke="#bfbfbf" points="132.5,-1118.5 132.5,-1175.5 219.5,-1175.5 219.5,-1118.5 132.5,-1118.5"/>
<text text-anchor="middle" x="176" y="-1162.5" font-family="Helvetica,sans-Serif" font-size="10.00">std::vector&lt; T &gt;</text>
<polyline fill="none" stroke="#bfbfbf" points="132.5,-1156.5 219.5,-1156.5 "/>
<text text-anchor="start" x="140.5" y="-1143.5" font-family="Helvetica,sans-Serif" font-size="10.00">&#45; elements</text>
<polyline fill="none" stroke="#bfbfbf" points="132.5,-1137.5 219.5,-1137.5 "/>
<text text-anchor="middle" x="176" y="-1124.5" font-family="Helvetica,sans-Serif" font-size="10.00"> </text>
</a>
</g>
<!-- Node6&#45;&gt;Node5 -->
<g id="edge10" class="edge"><title>Node6&#45;&gt;Node5</title>
<path fill="none" stroke="orange" stroke-dasharray="5,2" d="M123.256,-1129.42C110.116,-1122.4 97.6162,-1112.84 90,-1100 70.6621,-1067.39 80.7895,-1022.4 90.9689,-993.504"/>
<polygon fill="orange" stroke="orange" points="121.881,-1132.65 132.403,-1133.88 124.95,-1126.35 121.881,-1132.65"/>
<text text-anchor="middle" x="161.5" y="-1090.5" font-family="Helvetica,sans-Serif" font-size="10.00">&lt; boost::shared_ptr&lt; Neuron &gt; &gt;</text>
</g>
<!-- Node9 -->
<g id="node16" class="node"><title>Node9</title>
<polygon fill="white" stroke="#bfbfbf" points="164,-1012.5 164,-1069.5 344,-1069.5 344,-1012.5 164,-1012.5"/>
<text text-anchor="middle" x="254" y="-1056.5" font-family="Helvetica,sans-Serif" font-size="10.00">std::vector&lt; boost::shared_ptr&lt; T &gt; &gt;</text>
<polyline fill="none" stroke="#bfbfbf" points="164,-1050.5 344,-1050.5 "/>
<text text-anchor="start" x="172" y="-1037.5" font-family="Helvetica,sans-Serif" font-size="10.00">&#45; elements</text>
<polyline fill="none" stroke="#bfbfbf" points="164,-1031.5 344,-1031.5 "/>
<text text-anchor="middle" x="254" y="-1018.5" font-family="Helvetica,sans-Serif" font-size="10.00"> </text>
</g>
<!-- Node6&#45;&gt;Node9 -->
<g id="edge18" class="edge"><title>Node6&#45;&gt;Node9</title>
<path fill="none" stroke="orange" stroke-dasharray="5,2" d="M227.038,-1112.05C230.72,-1108.27 234.113,-1104.24 237,-1100 243.116,-1091.01 247.057,-1079.82 249.586,-1069.61"/>
<polygon fill="orange" stroke="orange" points="224.531,-1109.61 219.657,-1119.01 229.334,-1114.7 224.531,-1109.61"/>
<text text-anchor="middle" x="302" y="-1090.5" font-family="Helvetica,sans-Serif" font-size="10.00">&lt; boost::shared_ptr&lt; T &gt; &gt;</text>
</g>
<!-- Node7 -->
<g id="node12" class="node"><title>Node7</title>
<polygon fill="white" stroke="#bfbfbf" points="161.5,-1224.5 161.5,-1281.5 190.5,-1281.5 190.5,-1224.5 161.5,-1224.5"/>
<text text-anchor="middle" x="176" y="-1268.5" font-family="Helvetica,sans-Serif" font-size="10.00">T</text>
<polyline fill="none" stroke="#bfbfbf" points="161.5,-1262.5 190.5,-1262.5 "/>
<text text-anchor="middle" x="176" y="-1249.5" font-family="Helvetica,sans-Serif" font-size="10.00"> </text>
<polyline fill="none" stroke="#bfbfbf" points="161.5,-1243.5 190.5,-1243.5 "/>
<text text-anchor="middle" x="176" y="-1230.5" font-family="Helvetica,sans-Serif" font-size="10.00"> </text>
</g>
<!-- Node7&#45;&gt;Node6 -->
<g id="edge12" class="edge"><title>Node7&#45;&gt;Node6</title>
<path fill="none" stroke="#9a32cd" stroke-dasharray="5,2" d="M176,-1214.01C176,-1201.33 176,-1187.49 176,-1175.71"/>
<polygon fill="#9a32cd" stroke="#9a32cd" points="176,-1224.31 171.5,-1214.31 176,-1219.31 176,-1214.31 176,-1214.31 176,-1214.31 176,-1219.31 180.5,-1214.31 176,-1224.31 176,-1224.31"/>
<text text-anchor="middle" x="196" y="-1196.5" font-family="Helvetica,sans-Serif" font-size="10.00">elements</text>
</g>
<!-- Node8 -->
<g id="node14" class="node"><title>Node8</title>
<a xlink:href="class_container.html" target="_top" xlink:title="{Container\&lt; T \&gt;\n|# collection\l|+ Container()\l+ Container()\l+ begin()\l+ end()\l+ load()\l+ store()\l+ size()\l+ push_back()\l+ append()\l+ show()\l+ validate()\l+ reserve()\l+ resize()\l+ empty()\l+ clear()\l+ operator[]()\l}">
<polygon fill="white" stroke="black" points="185,-695 185,-917 267,-917 267,-695 185,-695"/>
<text text-anchor="middle" x="226" y="-904" font-family="Helvetica,sans-Serif" font-size="10.00">Container&lt; T &gt;</text>
<polyline fill="none" stroke="black" points="185,-898 267,-898 "/>
<text text-anchor="start" x="193" y="-885" font-family="Helvetica,sans-Serif" font-size="10.00"># collection</text>
<polyline fill="none" stroke="black" points="185,-879 267,-879 "/>
<text text-anchor="start" x="193" y="-866" font-family="Helvetica,sans-Serif" font-size="10.00">+ Container()</text>
<text text-anchor="start" x="193" y="-855" font-family="Helvetica,sans-Serif" font-size="10.00">+ Container()</text>
<text text-anchor="start" x="193" y="-844" font-family="Helvetica,sans-Serif" font-size="10.00">+ begin()</text>
<text text-anchor="start" x="193" y="-833" font-family="Helvetica,sans-Serif" font-size="10.00">+ end()</text>
<text text-anchor="start" x="193" y="-822" font-family="Helvetica,sans-Serif" font-size="10.00">+ load()</text>
<text text-anchor="start" x="193" y="-811" font-family="Helvetica,sans-Serif" font-size="10.00">+ store()</text>
<text text-anchor="start" x="193" y="-800" font-family="Helvetica,sans-Serif" font-size="10.00">+ size()</text>
<text text-anchor="start" x="193" y="-789" font-family="Helvetica,sans-Serif" font-size="10.00">+ push_back()</text>
<text text-anchor="start" x="193" y="-778" font-family="Helvetica,sans-Serif" font-size="10.00">+ append()</text>
<text text-anchor="start" x="193" y="-767" font-family="Helvetica,sans-Serif" font-size="10.00">+ show()</text>
<text text-anchor="start" x="193" y="-756" font-family="Helvetica,sans-Serif" font-size="10.00">+ validate()</text>
<text text-anchor="start" x="193" y="-745" font-family="Helvetica,sans-Serif" font-size="10.00">+ reserve()</text>
<text text-anchor="start" x="193" y="-734" font-family="Helvetica,sans-Serif" font-size="10.00">+ resize()</text>
<text text-anchor="start" x="193" y="-723" font-family="Helvetica,sans-Serif" font-size="10.00">+ empty()</text>
<text text-anchor="start" x="193" y="-712" font-family="Helvetica,sans-Serif" font-size="10.00">+ clear()</text>
<text text-anchor="start" x="193" y="-701" font-family="Helvetica,sans-Serif" font-size="10.00">+ operator[]()</text>
</a>
</g>
<!-- Node8&#45;&gt;Node4 -->
<g id="edge14" class="edge"><title>Node8&#45;&gt;Node4</title>
<path fill="none" stroke="orange" stroke-dasharray="5,2" d="M193.602,-685.285C190.015,-671.918 186.374,-658.351 182.82,-645.111"/>
<polygon fill="orange" stroke="orange" points="190.23,-686.224 196.203,-694.975 196.991,-684.409 190.23,-686.224"/>
<text text-anchor="middle" x="214" y="-666.5" font-family="Helvetica,sans-Serif" font-size="10.00">&lt; Neuron &gt;</text>
</g>
<!-- Node9&#45;&gt;Node8 -->
<g id="edge16" class="edge"><title>Node9&#45;&gt;Node8</title>
<path fill="none" stroke="#9a32cd" stroke-dasharray="5,2" d="M249.355,-1002.02C246.572,-978.654 242.878,-947.655 239.252,-917.22"/>
<polygon fill="#9a32cd" stroke="#9a32cd" points="250.567,-1012.18 244.915,-1002.79 249.975,-1007.22 249.383,-1002.25 249.383,-1002.25 249.383,-1002.25 249.975,-1007.22 253.852,-1001.72 250.567,-1012.18 250.567,-1012.18"/>
<text text-anchor="middle" x="267.5" y="-961.5" font-family="Helvetica,sans-Serif" font-size="10.00">collection</text>
</g>
</g>
</svg>
