<?xml version="1.0" encoding="UTF-8" standalone="no"?>
<!DOCTYPE svg PUBLIC "-//W3C//DTD SVG 1.1//EN"
 "http://www.w3.org/Graphics/SVG/1.1/DTD/svg11.dtd">
<!-- Generated by graphviz version 2.25.20091207.0545 (20091207.0545)
 -->
<!-- Title: G Pages: 1 -->
<svg width="351pt" height="776pt"
 viewBox="0.00 0.00 351.00 776.00" xmlns="http://www.w3.org/2000/svg" xmlns:xlink="http://www.w3.org/1999/xlink">
<g id="graph1" class="graph" transform="scale(1 1) rotate(0) translate(4 772)">
<title>G</title>
<polygon fill="white" stroke="white" points="-4,5 -4,-772 348,-772 348,5 -4,5"/>
<!-- Node1 -->
<g id="node1" class="node"><title>Node1</title>
<polygon fill="#bfbfbf" stroke="black" points="104,-1 104,-69 188,-69 188,-1 104,-1"/>
<text text-anchor="middle" x="146" y="-56" font-family="Helvetica,sans-Serif" font-size="10.00">vecCon</text>
<polyline fill="none" stroke="black" points="104,-50 188,-50 "/>
<text text-anchor="middle" x="146" y="-37" font-family="Helvetica,sans-Serif" font-size="10.00"> </text>
<polyline fill="none" stroke="black" points="104,-31 188,-31 "/>
<text text-anchor="start" x="112" y="-18" font-family="Helvetica,sans-Serif" font-size="10.00">+ numOfCons()</text>
<text text-anchor="start" x="112" y="-7" font-family="Helvetica,sans-Serif" font-size="10.00">+ getFromId()</text>
</g>
<!-- Node2 -->
<g id="node2" class="node"><title>Node2</title>
<a xlink:href="classvec_a_m_o_r_e.html" target="_top" xlink:title="{vecAMORE\&lt; Con \&gt;\n|# ldata\l|+ getLdata()\l+ setLdata()\l+ size()\l+ push_back()\l+ append()\l+ show()\l+ validate()\l}">
<polygon fill="white" stroke="black" points="93.5,-108.5 93.5,-231.5 198.5,-231.5 198.5,-108.5 93.5,-108.5"/>
<text text-anchor="middle" x="146" y="-218.5" font-family="Helvetica,sans-Serif" font-size="10.00">vecAMORE&lt; Con &gt;</text>
<polyline fill="none" stroke="black" points="93.5,-212.5 198.5,-212.5 "/>
<text text-anchor="start" x="101.5" y="-199.5" font-family="Helvetica,sans-Serif" font-size="10.00"># ldata</text>
<polyline fill="none" stroke="black" points="93.5,-193.5 198.5,-193.5 "/>
<text text-anchor="start" x="101.5" y="-180.5" font-family="Helvetica,sans-Serif" font-size="10.00">+ getLdata()</text>
<text text-anchor="start" x="101.5" y="-169.5" font-family="Helvetica,sans-Serif" font-size="10.00">+ setLdata()</text>
<text text-anchor="start" x="101.5" y="-158.5" font-family="Helvetica,sans-Serif" font-size="10.00">+ size()</text>
<text text-anchor="start" x="101.5" y="-147.5" font-family="Helvetica,sans-Serif" font-size="10.00">+ push_back()</text>
<text text-anchor="start" x="101.5" y="-136.5" font-family="Helvetica,sans-Serif" font-size="10.00">+ append()</text>
<text text-anchor="start" x="101.5" y="-125.5" font-family="Helvetica,sans-Serif" font-size="10.00">+ show()</text>
<text text-anchor="start" x="101.5" y="-114.5" font-family="Helvetica,sans-Serif" font-size="10.00">+ validate()</text>
</a>
</g>
<!-- Node2&#45;&gt;Node1 -->
<g id="edge2" class="edge"><title>Node2&#45;&gt;Node1</title>
<path fill="none" stroke="midnightblue" d="M146,-98.282C146,-88.1466 146,-78.1385 146,-69.1766"/>
<polygon fill="none" stroke="midnightblue" points="142.5,-98.4258 146,-108.426 149.5,-98.4259 142.5,-98.4258"/>
</g>
<!-- Node3 -->
<g id="node4" class="node"><title>Node3</title>
<polygon fill="white" stroke="#bfbfbf" points="0,-422.5 0,-479.5 192,-479.5 192,-422.5 0,-422.5"/>
<text text-anchor="middle" x="96" y="-466.5" font-family="Helvetica,sans-Serif" font-size="10.00">std::vector&lt; boost::shared_ptr&lt; Con &gt; &gt;</text>
<polyline fill="none" stroke="#bfbfbf" points="0,-460.5 192,-460.5 "/>
<text text-anchor="start" x="8" y="-447.5" font-family="Helvetica,sans-Serif" font-size="10.00">&#45; elements</text>
<polyline fill="none" stroke="#bfbfbf" points="0,-441.5 192,-441.5 "/>
<text text-anchor="middle" x="96" y="-428.5" font-family="Helvetica,sans-Serif" font-size="10.00"> </text>
</g>
<!-- Node3&#45;&gt;Node2 -->
<g id="edge4" class="edge"><title>Node3&#45;&gt;Node2</title>
<path fill="none" stroke="#9a32cd" stroke-dasharray="5,2" d="M102.895,-412.25C111.189,-365.636 125.217,-286.799 135.01,-231.764"/>
<polygon fill="#9a32cd" stroke="#9a32cd" points="101.116,-422.249 98.4374,-411.615 101.992,-417.326 102.868,-412.403 102.868,-412.403 102.868,-412.403 101.992,-417.326 107.298,-413.192 101.116,-422.249 101.116,-422.249"/>
<text text-anchor="middle" x="137.5" y="-338.5" font-family="Helvetica,sans-Serif" font-size="10.00">ldata</text>
</g>
<!-- Node4 -->
<g id="node6" class="node"><title>Node4</title>
<a xlink:title="STL class.">
<polygon fill="white" stroke="#bfbfbf" points="120.5,-604.5 120.5,-661.5 207.5,-661.5 207.5,-604.5 120.5,-604.5"/>
<text text-anchor="middle" x="164" y="-648.5" font-family="Helvetica,sans-Serif" font-size="10.00">std::vector&lt; T &gt;</text>
<polyline fill="none" stroke="#bfbfbf" points="120.5,-642.5 207.5,-642.5 "/>
<text text-anchor="start" x="128.5" y="-629.5" font-family="Helvetica,sans-Serif" font-size="10.00">&#45; elements</text>
<polyline fill="none" stroke="#bfbfbf" points="120.5,-623.5 207.5,-623.5 "/>
<text text-anchor="middle" x="164" y="-610.5" font-family="Helvetica,sans-Serif" font-size="10.00"> </text>
</a>
</g>
<!-- Node4&#45;&gt;Node3 -->
<g id="edge6" class="edge"><title>Node4&#45;&gt;Node3</title>
<path fill="none" stroke="orange" stroke-dasharray="5,2" d="M111.191,-611.955C100.727,-605.266 91.1016,-596.73 85,-586 66.3434,-553.192 75.4042,-508.458 84.7607,-479.647"/>
<polygon fill="orange" stroke="orange" points="109.714,-615.145 120.118,-617.147 113.233,-609.094 109.714,-615.145"/>
<text text-anchor="middle" x="150" y="-576.5" font-family="Helvetica,sans-Serif" font-size="10.00">&lt; boost::shared_ptr&lt; Con &gt; &gt;</text>
</g>
<!-- Node7 -->
<g id="node12" class="node"><title>Node7</title>
<polygon fill="white" stroke="#bfbfbf" points="146,-498.5 146,-555.5 326,-555.5 326,-498.5 146,-498.5"/>
<text text-anchor="middle" x="236" y="-542.5" font-family="Helvetica,sans-Serif" font-size="10.00">std::vector&lt; boost::shared_ptr&lt; T &gt; &gt;</text>
<polyline fill="none" stroke="#bfbfbf" points="146,-536.5 326,-536.5 "/>
<text text-anchor="start" x="154" y="-523.5" font-family="Helvetica,sans-Serif" font-size="10.00">&#45; elements</text>
<polyline fill="none" stroke="#bfbfbf" points="146,-517.5 326,-517.5 "/>
<text text-anchor="middle" x="236" y="-504.5" font-family="Helvetica,sans-Serif" font-size="10.00"> </text>
</g>
<!-- Node4&#45;&gt;Node7 -->
<g id="edge14" class="edge"><title>Node4&#45;&gt;Node7</title>
<path fill="none" stroke="orange" stroke-dasharray="5,2" d="M210.511,-597.072C213.638,-593.549 216.523,-589.846 219,-586 224.829,-576.948 228.705,-565.855 231.261,-555.74"/>
<polygon fill="orange" stroke="orange" points="207.779,-594.862 203.342,-604.482 212.81,-599.729 207.779,-594.862"/>
<text text-anchor="middle" x="284" y="-576.5" font-family="Helvetica,sans-Serif" font-size="10.00">&lt; boost::shared_ptr&lt; T &gt; &gt;</text>
</g>
<!-- Node5 -->
<g id="node8" class="node"><title>Node5</title>
<polygon fill="white" stroke="#bfbfbf" points="149.5,-710.5 149.5,-767.5 178.5,-767.5 178.5,-710.5 149.5,-710.5"/>
<text text-anchor="middle" x="164" y="-754.5" font-family="Helvetica,sans-Serif" font-size="10.00">T</text>
<polyline fill="none" stroke="#bfbfbf" points="149.5,-748.5 178.5,-748.5 "/>
<text text-anchor="middle" x="164" y="-735.5" font-family="Helvetica,sans-Serif" font-size="10.00"> </text>
<polyline fill="none" stroke="#bfbfbf" points="149.5,-729.5 178.5,-729.5 "/>
<text text-anchor="middle" x="164" y="-716.5" font-family="Helvetica,sans-Serif" font-size="10.00"> </text>
</g>
<!-- Node5&#45;&gt;Node4 -->
<g id="edge8" class="edge"><title>Node5&#45;&gt;Node4</title>
<path fill="none" stroke="#9a32cd" stroke-dasharray="5,2" d="M164,-700.005C164,-687.326 164,-673.494 164,-661.708"/>
<polygon fill="#9a32cd" stroke="#9a32cd" points="164,-710.315 159.5,-700.315 164,-705.315 164,-700.315 164,-700.315 164,-700.315 164,-705.315 168.5,-700.315 164,-710.315 164,-710.315"/>
<text text-anchor="middle" x="184" y="-682.5" font-family="Helvetica,sans-Serif" font-size="10.00">elements</text>
</g>
<!-- Node6 -->
<g id="node10" class="node"><title>Node6</title>
<a xlink:href="classvec_a_m_o_r_e.html" target="_top" xlink:title="{vecAMORE\&lt; T \&gt;\n|# ldata\l|+ getLdata()\l+ setLdata()\l+ size()\l+ push_back()\l+ append()\l+ show()\l+ validate()\l}">
<polygon fill="white" stroke="black" points="162.5,-280.5 162.5,-403.5 255.5,-403.5 255.5,-280.5 162.5,-280.5"/>
<text text-anchor="middle" x="209" y="-390.5" font-family="Helvetica,sans-Serif" font-size="10.00">vecAMORE&lt; T &gt;</text>
<polyline fill="none" stroke="black" points="162.5,-384.5 255.5,-384.5 "/>
<text text-anchor="start" x="170.5" y="-371.5" font-family="Helvetica,sans-Serif" font-size="10.00"># ldata</text>
<polyline fill="none" stroke="black" points="162.5,-365.5 255.5,-365.5 "/>
<text text-anchor="start" x="170.5" y="-352.5" font-family="Helvetica,sans-Serif" font-size="10.00">+ getLdata()</text>
<text text-anchor="start" x="170.5" y="-341.5" font-family="Helvetica,sans-Serif" font-size="10.00">+ setLdata()</text>
<text text-anchor="start" x="170.5" y="-330.5" font-family="Helvetica,sans-Serif" font-size="10.00">+ size()</text>
<text text-anchor="start" x="170.5" y="-319.5" font-family="Helvetica,sans-Serif" font-size="10.00">+ push_back()</text>
<text text-anchor="start" x="170.5" y="-308.5" font-family="Helvetica,sans-Serif" font-size="10.00">+ append()</text>
<text text-anchor="start" x="170.5" y="-297.5" font-family="Helvetica,sans-Serif" font-size="10.00">+ show()</text>
<text text-anchor="start" x="170.5" y="-286.5" font-family="Helvetica,sans-Serif" font-size="10.00">+ validate()</text>
</a>
</g>
<!-- Node6&#45;&gt;Node2 -->
<g id="edge10" class="edge"><title>Node6&#45;&gt;Node2</title>
<path fill="none" stroke="orange" stroke-dasharray="5,2" d="M182.858,-270.628C178.13,-257.721 173.237,-244.361 168.621,-231.758"/>
<polygon fill="orange" stroke="orange" points="179.708,-272.204 186.433,-280.39 186.281,-269.796 179.708,-272.204"/>
<text text-anchor="middle" x="197" y="-252.5" font-family="Helvetica,sans-Serif" font-size="10.00">&lt; Con &gt;</text>
</g>
<!-- Node7&#45;&gt;Node6 -->
<g id="edge12" class="edge"><title>Node7&#45;&gt;Node6</title>
<path fill="none" stroke="#9a32cd" stroke-dasharray="5,2" d="M230.385,-488.528C226.816,-464.073 222.115,-431.861 218.029,-403.868"/>
<polygon fill="#9a32cd" stroke="#9a32cd" points="231.84,-498.499 225.943,-489.254 231.118,-493.552 230.396,-488.604 230.396,-488.604 230.396,-488.604 231.118,-493.552 234.849,-487.954 231.84,-498.499 231.84,-498.499"/>
<text text-anchor="middle" x="238.5" y="-447.5" font-family="Helvetica,sans-Serif" font-size="10.00">ldata</text>
</g>
</g>
</svg>
