<?xml version="1.0" encoding="UTF-8" standalone="no"?>
<!DOCTYPE svg PUBLIC "-//W3C//DTD SVG 1.1//EN"
 "http://www.w3.org/Graphics/SVG/1.1/DTD/svg11.dtd">
<!-- Generated by graphviz version 2.25.20091207.0545 (20091207.0545)
 -->
<!-- Title: G Pages: 1 -->
<svg width="376pt" height="28pt"
 viewBox="0.00 0.00 376.00 28.00" xmlns="http://www.w3.org/2000/svg" xmlns:xlink="http://www.w3.org/1999/xlink">
<g id="graph1" class="graph" transform="scale(1 1) rotate(0) translate(4 24)">
<title>G</title>
<polygon fill="white" stroke="white" points="-4,5 -4,-24 373,-24 373,5 -4,5"/>
<!-- Node1 -->
<g id="node1" class="node"><title>Node1</title>
<polygon fill="#bfbfbf" stroke="black" points="0.5,-0.5 0.5,-19.5 111.5,-19.5 111.5,-0.5 0.5,-0.5"/>
<text text-anchor="middle" x="56" y="-6.5" font-family="Helvetica,sans-Serif" font-size="10.00">Container::push_back</text>
</g>
<!-- Node2 -->
<g id="node3" class="node"><title>Node2</title>
<a xlink:href="class_vec_con.html#ad9dc02872d29a1a58f5079457c3f8001" target="_top" xlink:title="Getter of the from field of the Con objects related to VecCon.">
<polygon fill="white" stroke="black" points="148.5,-0.5 148.5,-19.5 241.5,-19.5 241.5,-0.5 148.5,-0.5"/>
<text text-anchor="middle" x="195" y="-6.5" font-family="Helvetica,sans-Serif" font-size="10.00">VecCon::getFrom</text>
</a>
</g>
<!-- Node1&#45;&gt;Node2 -->
<g id="edge2" class="edge"><title>Node1&#45;&gt;Node2</title>
<path fill="none" stroke="midnightblue" d="M121.747,-10C130.673,-10 139.683,-10 148.183,-10"/>
<polygon fill="midnightblue" stroke="midnightblue" points="121.736,-6.5001 111.736,-10 121.736,-13.5001 121.736,-6.5001"/>
</g>
<!-- Node3 -->
<g id="node5" class="node"><title>Node3</title>
<a xlink:href="class_neuron.html#a49a8d313aacc9b2f737343e1c3be75dc" target="_top" xlink:title="Neuron::getFrom">
<polygon fill="white" stroke="black" points="278,-0.5 278,-19.5 368,-19.5 368,-0.5 278,-0.5"/>
<text text-anchor="middle" x="323" y="-6.5" font-family="Helvetica,sans-Serif" font-size="10.00">Neuron::getFrom</text>
</a>
</g>
<!-- Node2&#45;&gt;Node3 -->
<g id="edge4" class="edge"><title>Node2&#45;&gt;Node3</title>
<path fill="none" stroke="midnightblue" d="M251.75,-10C260.525,-10 269.485,-10 277.958,-10"/>
<polygon fill="midnightblue" stroke="midnightblue" points="251.573,-6.5001 241.573,-10 251.573,-13.5001 251.573,-6.5001"/>
</g>
</g>
</svg>
