<?xml version="1.0" encoding="UTF-8" standalone="no"?>
<!DOCTYPE svg PUBLIC "-//W3C//DTD SVG 1.1//EN"
 "http://www.w3.org/Graphics/SVG/1.1/DTD/svg11.dtd">
<!-- Generated by graphviz version 2.28.0 (20110610.2051)
 -->
<!-- Title: G Pages: 1 -->
<svg width="2044pt" height="376pt"
 viewBox="0.00 0.00 2044.00 376.00" xmlns="http://www.w3.org/2000/svg" xmlns:xlink="http://www.w3.org/1999/xlink">
<g id="graph1" class="graph" transform="scale(1 1) rotate(0) translate(4 372)">
<title>G</title>
<polygon fill="white" stroke="white" points="-4,5 -4,-372 2041,-372 2041,5 -4,5"/>
<!-- Node1 -->
<g id="node1" class="node"><title>Node1</title>
<polygon fill="#bfbfbf" stroke="black" points="1222.5,-255 1222.5,-367 1365.5,-367 1365.5,-255 1222.5,-255"/>
<text text-anchor="middle" x="1294" y="-355" font-family="Helvetica,sans-Serif" font-size="10.00">NeuralFactory</text>
<polyline fill="none" stroke="black" points="1222.5,-348 1365.5,-348 "/>
<text text-anchor="middle" x="1294" y="-336" font-family="Helvetica,sans-Serif" font-size="10.00"> </text>
<polyline fill="none" stroke="black" points="1222.5,-329 1365.5,-329 "/>
<text text-anchor="start" x="1230.5" y="-317" font-family="Helvetica,sans-Serif" font-size="10.00">+ makeCon()</text>
<text text-anchor="start" x="1230.5" y="-306" font-family="Helvetica,sans-Serif" font-size="10.00">+ makeConContainer()</text>
<text text-anchor="start" x="1230.5" y="-295" font-family="Helvetica,sans-Serif" font-size="10.00">+ makeActivationFunction()</text>
<text text-anchor="start" x="1230.5" y="-284" font-family="Helvetica,sans-Serif" font-size="10.00">+ makePredictBehavior()</text>
<text text-anchor="start" x="1230.5" y="-273" font-family="Helvetica,sans-Serif" font-size="10.00">+ makeNeuron()</text>
<text text-anchor="start" x="1230.5" y="-262" font-family="Helvetica,sans-Serif" font-size="10.00">+ makeNeuronContainer()</text>
</g>
<!-- Node2 -->
<g id="node3" class="node"><title>Node2</title>
<a xlink:href="class_m_l_pfactory.html" target="_top" xlink:title="class MLPfactory &#45;">
<polygon fill="white" stroke="black" points="947.5,-94.5 947.5,-217.5 1088.5,-217.5 1088.5,-94.5 947.5,-94.5"/>
<text text-anchor="middle" x="1018" y="-205.5" font-family="Helvetica,sans-Serif" font-size="10.00">MLPfactory</text>
<polyline fill="none" stroke="black" points="947.5,-198.5 1088.5,-198.5 "/>
<text text-anchor="middle" x="1018" y="-186.5" font-family="Helvetica,sans-Serif" font-size="10.00"> </text>
<polyline fill="none" stroke="black" points="947.5,-179.5 1088.5,-179.5 "/>
<text text-anchor="start" x="955.5" y="-167.5" font-family="Helvetica,sans-Serif" font-size="10.00">+ MLPfactory()</text>
<text text-anchor="start" x="955.5" y="-156.5" font-family="Helvetica,sans-Serif" font-size="10.00"># makeCon()</text>
<text text-anchor="start" x="955.5" y="-145.5" font-family="Helvetica,sans-Serif" font-size="10.00"># makeActivationFunction()</text>
<text text-anchor="start" x="955.5" y="-134.5" font-family="Helvetica,sans-Serif" font-size="10.00"># makePredictBehavior()</text>
<text text-anchor="start" x="955.5" y="-123.5" font-family="Helvetica,sans-Serif" font-size="10.00"># makeConContainer()</text>
<text text-anchor="start" x="955.5" y="-112.5" font-family="Helvetica,sans-Serif" font-size="10.00"># makeNeuron()</text>
<text text-anchor="start" x="955.5" y="-101.5" font-family="Helvetica,sans-Serif" font-size="10.00"># makeNeuronContainer()</text>
</a>
</g>
<!-- Node1&#45;&gt;Node2 -->
<g id="edge2" class="edge"><title>Node1&#45;&gt;Node2</title>
<path fill="none" stroke="midnightblue" d="M1213.4,-265.32C1173.99,-243.475 1126.99,-217.418 1088.96,-196.335"/>
<polygon fill="none" stroke="midnightblue" points="1211.76,-268.413 1222.2,-270.2 1215.16,-262.291 1211.76,-268.413"/>
</g>
<!-- Node15 -->
<g id="node29" class="node"><title>Node15</title>
<a xlink:href="class_r_b_ffactory.html" target="_top" xlink:title="class RBFfactory &#45;">
<polygon fill="white" stroke="black" points="1500.5,-94.5 1500.5,-217.5 1641.5,-217.5 1641.5,-94.5 1500.5,-94.5"/>
<text text-anchor="middle" x="1571" y="-205.5" font-family="Helvetica,sans-Serif" font-size="10.00">RBFfactory</text>
<polyline fill="none" stroke="black" points="1500.5,-198.5 1641.5,-198.5 "/>
<text text-anchor="middle" x="1571" y="-186.5" font-family="Helvetica,sans-Serif" font-size="10.00"> </text>
<polyline fill="none" stroke="black" points="1500.5,-179.5 1641.5,-179.5 "/>
<text text-anchor="start" x="1508.5" y="-167.5" font-family="Helvetica,sans-Serif" font-size="10.00">+ RBFfactory()</text>
<text text-anchor="start" x="1508.5" y="-156.5" font-family="Helvetica,sans-Serif" font-size="10.00"># makeCon()</text>
<text text-anchor="start" x="1508.5" y="-145.5" font-family="Helvetica,sans-Serif" font-size="10.00"># makeConContainer()</text>
<text text-anchor="start" x="1508.5" y="-134.5" font-family="Helvetica,sans-Serif" font-size="10.00"># makeActivationFunction()</text>
<text text-anchor="start" x="1508.5" y="-123.5" font-family="Helvetica,sans-Serif" font-size="10.00"># makePredictBehavior()</text>
<text text-anchor="start" x="1508.5" y="-112.5" font-family="Helvetica,sans-Serif" font-size="10.00"># makeNeuron()</text>
<text text-anchor="start" x="1508.5" y="-101.5" font-family="Helvetica,sans-Serif" font-size="10.00"># makeNeuronContainer()</text>
</a>
</g>
<!-- Node1&#45;&gt;Node15 -->
<g id="edge28" class="edge"><title>Node1&#45;&gt;Node15</title>
<path fill="none" stroke="midnightblue" d="M1374.57,-265.5C1414.29,-243.561 1461.76,-217.339 1500.09,-196.169"/>
<polygon fill="none" stroke="midnightblue" points="1372.76,-262.501 1365.69,-270.4 1376.14,-268.628 1372.76,-262.501"/>
</g>
<!-- Node3 -->
<g id="node5" class="node"><title>Node3</title>
<a xlink:href="class_arc_tan_factory.html" target="_top" xlink:title="class ArcTanFactory &#45;">
<polygon fill="white" stroke="black" points="0,-0.5 0,-57.5 140,-57.5 140,-0.5 0,-0.5"/>
<text text-anchor="middle" x="70" y="-45.5" font-family="Helvetica,sans-Serif" font-size="10.00">ArcTanFactory</text>
<polyline fill="none" stroke="black" points="0,-38.5 140,-38.5 "/>
<text text-anchor="middle" x="70" y="-26.5" font-family="Helvetica,sans-Serif" font-size="10.00"> </text>
<polyline fill="none" stroke="black" points="0,-19.5 140,-19.5 "/>
<text text-anchor="start" x="8" y="-7.5" font-family="Helvetica,sans-Serif" font-size="10.00">&#45; makeActivationFunction()</text>
</a>
</g>
<!-- Node2&#45;&gt;Node3 -->
<g id="edge4" class="edge"><title>Node2&#45;&gt;Node3</title>
<path fill="none" stroke="midnightblue" d="M936.874,-152.145C781.921,-145.334 433.912,-123.476 149,-58 146.164,-57.3482 143.288,-56.6273 140.397,-55.8522"/>
<polygon fill="none" stroke="midnightblue" points="937.105,-155.658 947.246,-152.591 937.406,-148.665 937.105,-155.658"/>
</g>
<!-- Node4 -->
<g id="node7" class="node"><title>Node4</title>
<a xlink:href="class_cosine_factory.html" target="_top" xlink:title="class CosineFactory &#45;">
<polygon fill="white" stroke="black" points="158,-0.5 158,-57.5 298,-57.5 298,-0.5 158,-0.5"/>
<text text-anchor="middle" x="228" y="-45.5" font-family="Helvetica,sans-Serif" font-size="10.00">CosineFactory</text>
<polyline fill="none" stroke="black" points="158,-38.5 298,-38.5 "/>
<text text-anchor="middle" x="228" y="-26.5" font-family="Helvetica,sans-Serif" font-size="10.00"> </text>
<polyline fill="none" stroke="black" points="158,-19.5 298,-19.5 "/>
<text text-anchor="start" x="166" y="-7.5" font-family="Helvetica,sans-Serif" font-size="10.00">&#45; makeActivationFunction()</text>
</a>
</g>
<!-- Node2&#45;&gt;Node4 -->
<g id="edge6" class="edge"><title>Node2&#45;&gt;Node4</title>
<path fill="none" stroke="midnightblue" d="M937.379,-149.411C804.489,-138.998 531.775,-112.555 307,-58 304.172,-57.3136 301.303,-56.5635 298.418,-55.764"/>
<polygon fill="none" stroke="midnightblue" points="937.237,-152.911 947.477,-150.193 937.777,-145.931 937.237,-152.911"/>
</g>
<!-- Node5 -->
<g id="node9" class="node"><title>Node5</title>
<a xlink:href="class_elliot_factory.html" target="_top" xlink:title="class ElliotFactory &#45;">
<polygon fill="white" stroke="black" points="316,-0.5 316,-57.5 456,-57.5 456,-0.5 316,-0.5"/>
<text text-anchor="middle" x="386" y="-45.5" font-family="Helvetica,sans-Serif" font-size="10.00">ElliotFactory</text>
<polyline fill="none" stroke="black" points="316,-38.5 456,-38.5 "/>
<text text-anchor="middle" x="386" y="-26.5" font-family="Helvetica,sans-Serif" font-size="10.00"> </text>
<polyline fill="none" stroke="black" points="316,-19.5 456,-19.5 "/>
<text text-anchor="start" x="324" y="-7.5" font-family="Helvetica,sans-Serif" font-size="10.00">&#45; makeActivationFunction()</text>
</a>
</g>
<!-- Node2&#45;&gt;Node5 -->
<g id="edge8" class="edge"><title>Node2&#45;&gt;Node5</title>
<path fill="none" stroke="midnightblue" d="M937.133,-145.124C828.589,-130.894 630.293,-101.464 465,-58 462.045,-57.2229 459.043,-56.3849 456.021,-55.5012"/>
<polygon fill="none" stroke="midnightblue" points="936.985,-148.635 947.353,-146.454 937.888,-141.693 936.985,-148.635"/>
</g>
<!-- Node6 -->
<g id="node11" class="node"><title>Node6</title>
<a xlink:href="class_exponential_factory.html" target="_top" xlink:title="class ExponentialFactory &#45;">
<polygon fill="white" stroke="black" points="474,-0.5 474,-57.5 614,-57.5 614,-0.5 474,-0.5"/>
<text text-anchor="middle" x="544" y="-45.5" font-family="Helvetica,sans-Serif" font-size="10.00">ExponentialFactory</text>
<polyline fill="none" stroke="black" points="474,-38.5 614,-38.5 "/>
<text text-anchor="middle" x="544" y="-26.5" font-family="Helvetica,sans-Serif" font-size="10.00"> </text>
<polyline fill="none" stroke="black" points="474,-19.5 614,-19.5 "/>
<text text-anchor="start" x="482" y="-7.5" font-family="Helvetica,sans-Serif" font-size="10.00">&#45; makeActivationFunction()</text>
</a>
</g>
<!-- Node2&#45;&gt;Node6 -->
<g id="edge10" class="edge"><title>Node2&#45;&gt;Node6</title>
<path fill="none" stroke="midnightblue" d="M937.101,-137.619C856.811,-119.788 730.532,-90.1722 623,-58 620.072,-57.1241 617.094,-56.2035 614.092,-55.2514"/>
<polygon fill="none" stroke="midnightblue" points="936.626,-141.099 947.146,-139.842 938.138,-134.264 936.626,-141.099"/>
</g>
<!-- Node7 -->
<g id="node13" class="node"><title>Node7</title>
<a xlink:href="class_gauss_factory.html" target="_top" xlink:title="class GaussFactory &#45;">
<polygon fill="white" stroke="black" points="632,-0.5 632,-57.5 772,-57.5 772,-0.5 632,-0.5"/>
<text text-anchor="middle" x="702" y="-45.5" font-family="Helvetica,sans-Serif" font-size="10.00">GaussFactory</text>
<polyline fill="none" stroke="black" points="632,-38.5 772,-38.5 "/>
<text text-anchor="middle" x="702" y="-26.5" font-family="Helvetica,sans-Serif" font-size="10.00"> </text>
<polyline fill="none" stroke="black" points="632,-19.5 772,-19.5 "/>
<text text-anchor="start" x="640" y="-7.5" font-family="Helvetica,sans-Serif" font-size="10.00">&#45; makeActivationFunction()</text>
</a>
</g>
<!-- Node2&#45;&gt;Node7 -->
<g id="edge12" class="edge"><title>Node2&#45;&gt;Node7</title>
<path fill="none" stroke="midnightblue" d="M938.083,-123.387C886.82,-103.109 820.909,-77.0368 771.763,-57.5962"/>
<polygon fill="none" stroke="midnightblue" points="936.89,-126.679 947.477,-127.103 939.465,-120.17 936.89,-126.679"/>
</g>
<!-- Node8 -->
<g id="node15" class="node"><title>Node8</title>
<a xlink:href="class_identity_factory.html" target="_top" xlink:title="class IdentityFactory &#45;">
<polygon fill="white" stroke="black" points="790,-0.5 790,-57.5 930,-57.5 930,-0.5 790,-0.5"/>
<text text-anchor="middle" x="860" y="-45.5" font-family="Helvetica,sans-Serif" font-size="10.00">IdentityFactory</text>
<polyline fill="none" stroke="black" points="790,-38.5 930,-38.5 "/>
<text text-anchor="middle" x="860" y="-26.5" font-family="Helvetica,sans-Serif" font-size="10.00"> </text>
<polyline fill="none" stroke="black" points="790,-19.5 930,-19.5 "/>
<text text-anchor="start" x="798" y="-7.5" font-family="Helvetica,sans-Serif" font-size="10.00">&#45; makeActivationFunction()</text>
</a>
</g>
<!-- Node2&#45;&gt;Node8 -->
<g id="edge14" class="edge"><title>Node2&#45;&gt;Node8</title>
<path fill="none" stroke="midnightblue" d="M939.242,-92.6918C923.773,-80.4533 908.291,-68.205 895.17,-57.824"/>
<polygon fill="none" stroke="midnightblue" points="937.304,-95.6213 947.318,-99.0809 941.647,-90.1315 937.304,-95.6213"/>
</g>
<!-- Node9 -->
<g id="node17" class="node"><title>Node9</title>
<a xlink:href="class_logistic_factory.html" target="_top" xlink:title="class LogisticFactory &#45;">
<polygon fill="white" stroke="black" points="948,-0.5 948,-57.5 1088,-57.5 1088,-0.5 948,-0.5"/>
<text text-anchor="middle" x="1018" y="-45.5" font-family="Helvetica,sans-Serif" font-size="10.00">LogisticFactory</text>
<polyline fill="none" stroke="black" points="948,-38.5 1088,-38.5 "/>
<text text-anchor="middle" x="1018" y="-26.5" font-family="Helvetica,sans-Serif" font-size="10.00"> </text>
<polyline fill="none" stroke="black" points="948,-19.5 1088,-19.5 "/>
<text text-anchor="start" x="956" y="-7.5" font-family="Helvetica,sans-Serif" font-size="10.00">&#45; makeActivationFunction()</text>
</a>
</g>
<!-- Node2&#45;&gt;Node9 -->
<g id="edge16" class="edge"><title>Node2&#45;&gt;Node9</title>
<path fill="none" stroke="midnightblue" d="M1018,-84.1384C1018,-74.7999 1018,-65.715 1018,-57.7379"/>
<polygon fill="none" stroke="midnightblue" points="1014.5,-84.3308 1018,-94.3308 1021.5,-84.3309 1014.5,-84.3308"/>
</g>
<!-- Node10 -->
<g id="node19" class="node"><title>Node10</title>
<a xlink:href="class_reciprocal_factory.html" target="_top" xlink:title="class ReciprocalFactory &#45;">
<polygon fill="white" stroke="black" points="1106,-0.5 1106,-57.5 1246,-57.5 1246,-0.5 1106,-0.5"/>
<text text-anchor="middle" x="1176" y="-45.5" font-family="Helvetica,sans-Serif" font-size="10.00">ReciprocalFactory</text>
<polyline fill="none" stroke="black" points="1106,-38.5 1246,-38.5 "/>
<text text-anchor="middle" x="1176" y="-26.5" font-family="Helvetica,sans-Serif" font-size="10.00"> </text>
<polyline fill="none" stroke="black" points="1106,-19.5 1246,-19.5 "/>
<text text-anchor="start" x="1114" y="-7.5" font-family="Helvetica,sans-Serif" font-size="10.00">&#45; makeActivationFunction()</text>
</a>
</g>
<!-- Node2&#45;&gt;Node10 -->
<g id="edge18" class="edge"><title>Node2&#45;&gt;Node10</title>
<path fill="none" stroke="midnightblue" d="M1096.76,-92.6918C1112.23,-80.4533 1127.71,-68.205 1140.83,-57.824"/>
<polygon fill="none" stroke="midnightblue" points="1094.35,-90.1315 1088.68,-99.0809 1098.7,-95.6213 1094.35,-90.1315"/>
</g>
<!-- Node11 -->
<g id="node21" class="node"><title>Node11</title>
<a xlink:href="class_sine_factory.html" target="_top" xlink:title="class SineFactory &#45;">
<polygon fill="white" stroke="black" points="1264,-0.5 1264,-57.5 1404,-57.5 1404,-0.5 1264,-0.5"/>
<text text-anchor="middle" x="1334" y="-45.5" font-family="Helvetica,sans-Serif" font-size="10.00">SineFactory</text>
<polyline fill="none" stroke="black" points="1264,-38.5 1404,-38.5 "/>
<text text-anchor="middle" x="1334" y="-26.5" font-family="Helvetica,sans-Serif" font-size="10.00"> </text>
<polyline fill="none" stroke="black" points="1264,-19.5 1404,-19.5 "/>
<text text-anchor="start" x="1272" y="-7.5" font-family="Helvetica,sans-Serif" font-size="10.00">&#45; makeActivationFunction()</text>
</a>
</g>
<!-- Node2&#45;&gt;Node11 -->
<g id="edge20" class="edge"><title>Node2&#45;&gt;Node11</title>
<path fill="none" stroke="midnightblue" d="M1097.92,-123.387C1149.18,-103.109 1215.09,-77.0368 1264.24,-57.5962"/>
<polygon fill="none" stroke="midnightblue" points="1096.53,-120.17 1088.52,-127.103 1099.11,-126.679 1096.53,-120.17"/>
</g>
<!-- Node12 -->
<g id="node23" class="node"><title>Node12</title>
<a xlink:href="class_square_factory.html" target="_top" xlink:title="class SquareFactory &#45;">
<polygon fill="white" stroke="black" points="1422,-0.5 1422,-57.5 1562,-57.5 1562,-0.5 1422,-0.5"/>
<text text-anchor="middle" x="1492" y="-45.5" font-family="Helvetica,sans-Serif" font-size="10.00">SquareFactory</text>
<polyline fill="none" stroke="black" points="1422,-38.5 1562,-38.5 "/>
<text text-anchor="middle" x="1492" y="-26.5" font-family="Helvetica,sans-Serif" font-size="10.00"> </text>
<polyline fill="none" stroke="black" points="1422,-19.5 1562,-19.5 "/>
<text text-anchor="start" x="1430" y="-7.5" font-family="Helvetica,sans-Serif" font-size="10.00">&#45; makeActivationFunction()</text>
</a>
</g>
<!-- Node2&#45;&gt;Node12 -->
<g id="edge22" class="edge"><title>Node2&#45;&gt;Node12</title>
<path fill="none" stroke="midnightblue" d="M1098.9,-137.619C1179.19,-119.788 1305.47,-90.1722 1413,-58 1415.93,-57.1241 1418.91,-56.2035 1421.91,-55.2514"/>
<polygon fill="none" stroke="midnightblue" points="1097.86,-134.264 1088.85,-139.842 1099.37,-141.099 1097.86,-134.264"/>
</g>
<!-- Node13 -->
<g id="node25" class="node"><title>Node13</title>
<a xlink:href="class_tanh_factory.html" target="_top" xlink:title="class TanhFactory &#45;">
<polygon fill="white" stroke="black" points="1580,-0.5 1580,-57.5 1720,-57.5 1720,-0.5 1580,-0.5"/>
<text text-anchor="middle" x="1650" y="-45.5" font-family="Helvetica,sans-Serif" font-size="10.00">TanhFactory</text>
<polyline fill="none" stroke="black" points="1580,-38.5 1720,-38.5 "/>
<text text-anchor="middle" x="1650" y="-26.5" font-family="Helvetica,sans-Serif" font-size="10.00"> </text>
<polyline fill="none" stroke="black" points="1580,-19.5 1720,-19.5 "/>
<text text-anchor="start" x="1588" y="-7.5" font-family="Helvetica,sans-Serif" font-size="10.00">&#45; makeActivationFunction()</text>
</a>
</g>
<!-- Node2&#45;&gt;Node13 -->
<g id="edge24" class="edge"><title>Node2&#45;&gt;Node13</title>
<path fill="none" stroke="midnightblue" d="M1098.87,-145.124C1207.41,-130.894 1405.71,-101.464 1571,-58 1573.96,-57.2229 1576.96,-56.3849 1579.98,-55.5012"/>
<polygon fill="none" stroke="midnightblue" points="1098.11,-141.693 1088.65,-146.454 1099.02,-148.635 1098.11,-141.693"/>
</g>
<!-- Node14 -->
<g id="node27" class="node"><title>Node14</title>
<a xlink:href="class_threshold_factory.html" target="_top" xlink:title="class ThresholdFactory &#45;">
<polygon fill="white" stroke="black" points="1738,-0.5 1738,-57.5 1878,-57.5 1878,-0.5 1738,-0.5"/>
<text text-anchor="middle" x="1808" y="-45.5" font-family="Helvetica,sans-Serif" font-size="10.00">ThresholdFactory</text>
<polyline fill="none" stroke="black" points="1738,-38.5 1878,-38.5 "/>
<text text-anchor="middle" x="1808" y="-26.5" font-family="Helvetica,sans-Serif" font-size="10.00"> </text>
<polyline fill="none" stroke="black" points="1738,-19.5 1878,-19.5 "/>
<text text-anchor="start" x="1746" y="-7.5" font-family="Helvetica,sans-Serif" font-size="10.00">&#45; makeActivationFunction()</text>
</a>
</g>
<!-- Node2&#45;&gt;Node14 -->
<g id="edge26" class="edge"><title>Node2&#45;&gt;Node14</title>
<path fill="none" stroke="midnightblue" d="M1098.68,-144.941C1271.92,-123.203 1668.72,-72.63 1729,-58 1731.83,-57.3136 1734.7,-56.5635 1737.58,-55.764"/>
<polygon fill="none" stroke="midnightblue" points="1098.08,-141.488 1088.6,-146.205 1098.95,-148.434 1098.08,-141.488"/>
</g>
<!-- Node16 -->
<g id="node31" class="node"><title>Node16</title>
<a xlink:href="class_radial_basis_factory.html" target="_top" xlink:title="class RadialBasisFactory &#45;">
<polygon fill="white" stroke="black" points="1896,-0.5 1896,-57.5 2036,-57.5 2036,-0.5 1896,-0.5"/>
<text text-anchor="middle" x="1966" y="-45.5" font-family="Helvetica,sans-Serif" font-size="10.00">RadialBasisFactory</text>
<polyline fill="none" stroke="black" points="1896,-38.5 2036,-38.5 "/>
<text text-anchor="middle" x="1966" y="-26.5" font-family="Helvetica,sans-Serif" font-size="10.00"> </text>
<polyline fill="none" stroke="black" points="1896,-19.5 2036,-19.5 "/>
<text text-anchor="start" x="1904" y="-7.5" font-family="Helvetica,sans-Serif" font-size="10.00">&#45; makeActivationFunction()</text>
</a>
</g>
<!-- Node15&#45;&gt;Node16 -->
<g id="edge30" class="edge"><title>Node15&#45;&gt;Node16</title>
<path fill="none" stroke="midnightblue" d="M1651.2,-131.415C1715.25,-112.33 1807.19,-84.381 1887,-58 1889.9,-57.041 1892.86,-56.0509 1895.84,-55.0413"/>
<polygon fill="none" stroke="midnightblue" points="1650.14,-128.077 1641.56,-134.283 1652.14,-134.786 1650.14,-128.077"/>
</g>
</g>
</svg>
