<?xml version="1.0" encoding="UTF-8" standalone="no"?>
<!DOCTYPE svg PUBLIC "-//W3C//DTD SVG 1.1//EN"
 "http://www.w3.org/Graphics/SVG/1.1/DTD/svg11.dtd">
<!-- Generated by graphviz version 2.28.0 (20110610.2051)
 -->
<!-- Title: G Pages: 1 -->
<svg width="309pt" height="560pt"
 viewBox="0.00 0.00 309.00 560.00" xmlns="http://www.w3.org/2000/svg" xmlns:xlink="http://www.w3.org/1999/xlink">
<g id="graph1" class="graph" transform="scale(1 1) rotate(0) translate(4 556)">
<title>G</title>
<polygon fill="white" stroke="white" points="-4,5 -4,-556 306,-556 306,5 -4,5"/>
<!-- Node1 -->
<g id="node1" class="node"><title>Node1</title>
<polygon fill="#bfbfbf" stroke="black" points="83.5,-1 83.5,-69 274.5,-69 274.5,-1 83.5,-1"/>
<text text-anchor="middle" x="179" y="-57" font-family="Helvetica,sans-Serif" font-size="10.00">BATCHgdOutputNeuronTrainBehavior</text>
<polyline fill="none" stroke="black" points="83.5,-50 274.5,-50 "/>
<text text-anchor="start" x="91.5" y="-38" font-family="Helvetica,sans-Serif" font-size="10.00"># d_costFunction</text>
<polyline fill="none" stroke="black" points="83.5,-31 274.5,-31 "/>
<text text-anchor="start" x="91.5" y="-19" font-family="Helvetica,sans-Serif" font-size="10.00">&#45; singlePatternBackwardAction()</text>
<text text-anchor="start" x="91.5" y="-8" font-family="Helvetica,sans-Serif" font-size="10.00">&#45; endOfEpochAction()</text>
</g>
<!-- Node2 -->
<g id="node2" class="node"><title>Node2</title>
<a xlink:href="class_b_a_t_c_hgd_neuron_train_behavior.html" target="_top" xlink:title="class BATCHgdNeuronTrainBehavior &#45;">
<polygon fill="white" stroke="black" points="94.5,-108.5 94.5,-209.5 263.5,-209.5 263.5,-108.5 94.5,-108.5"/>
<text text-anchor="middle" x="179" y="-197.5" font-family="Helvetica,sans-Serif" font-size="10.00">BATCHgdNeuronTrainBehavior</text>
<polyline fill="none" stroke="black" points="94.5,-190.5 263.5,-190.5 "/>
<text text-anchor="start" x="102.5" y="-178.5" font-family="Helvetica,sans-Serif" font-size="10.00"># d_delta</text>
<text text-anchor="start" x="102.5" y="-167.5" font-family="Helvetica,sans-Serif" font-size="10.00"># d_learningRate</text>
<text text-anchor="start" x="102.5" y="-156.5" font-family="Helvetica,sans-Serif" font-size="10.00"># d_sum_delta_x</text>
<text text-anchor="start" x="102.5" y="-145.5" font-family="Helvetica,sans-Serif" font-size="10.00"># d_sum_delta_bias</text>
<polyline fill="none" stroke="black" points="94.5,-138.5 263.5,-138.5 "/>
<text text-anchor="start" x="102.5" y="-126.5" font-family="Helvetica,sans-Serif" font-size="10.00">+ singlePatternBackwardAction()</text>
<text text-anchor="start" x="102.5" y="-115.5" font-family="Helvetica,sans-Serif" font-size="10.00">+ endOfEpochAction()</text>
</a>
</g>
<!-- Node2&#45;&gt;Node1 -->
<g id="edge2" class="edge"><title>Node2&#45;&gt;Node1</title>
<path fill="none" stroke="midnightblue" d="M179,-98.0708C179,-88.1244 179,-78.14 179,-69.1759"/>
<polygon fill="none" stroke="midnightblue" points="175.5,-98.3779 179,-108.378 182.5,-98.378 175.5,-98.3779"/>
</g>
<!-- Node3 -->
<g id="node4" class="node"><title>Node3</title>
<a xlink:href="class_batch_neuron_train_behavior.html" target="_top" xlink:title="class BatchNeuronTrainBehavior &#45;">
<polygon fill="white" stroke="black" points="-0.5,-259 -0.5,-327 168.5,-327 168.5,-259 -0.5,-259"/>
<text text-anchor="middle" x="84" y="-315" font-family="Helvetica,sans-Serif" font-size="10.00">BatchNeuronTrainBehavior</text>
<polyline fill="none" stroke="black" points="-0.5,-308 168.5,-308 "/>
<text text-anchor="middle" x="84" y="-296" font-family="Helvetica,sans-Serif" font-size="10.00"> </text>
<polyline fill="none" stroke="black" points="-0.5,-289 168.5,-289 "/>
<text text-anchor="start" x="7.5" y="-277" font-family="Helvetica,sans-Serif" font-size="10.00">+ singlePatternBackwardAction()</text>
<text text-anchor="start" x="7.5" y="-266" font-family="Helvetica,sans-Serif" font-size="10.00">+ endOfEpochAction()</text>
</a>
</g>
<!-- Node3&#45;&gt;Node2 -->
<g id="edge4" class="edge"><title>Node3&#45;&gt;Node2</title>
<path fill="none" stroke="midnightblue" d="M113.939,-250.4C123.278,-237.425 133.67,-222.984 143.359,-209.522"/>
<polygon fill="none" stroke="midnightblue" points="110.973,-248.53 107.973,-258.691 116.655,-252.619 110.973,-248.53"/>
</g>
<!-- Node4 -->
<g id="node6" class="node"><title>Node4</title>
<a xlink:href="class_neuron_train_behavior.html" target="_top" xlink:title="class NeuronTrainBehavior &#45;">
<polygon fill="white" stroke="black" points="-0.5,-377 -0.5,-445 168.5,-445 168.5,-377 -0.5,-377"/>
<text text-anchor="middle" x="84" y="-433" font-family="Helvetica,sans-Serif" font-size="10.00">NeuronTrainBehavior</text>
<polyline fill="none" stroke="black" points="-0.5,-426 168.5,-426 "/>
<text text-anchor="start" x="7.5" y="-414" font-family="Helvetica,sans-Serif" font-size="10.00"># d_neuron</text>
<polyline fill="none" stroke="black" points="-0.5,-407 168.5,-407 "/>
<text text-anchor="start" x="7.5" y="-395" font-family="Helvetica,sans-Serif" font-size="10.00">+ singlePatternBackwardAction()</text>
<text text-anchor="start" x="7.5" y="-384" font-family="Helvetica,sans-Serif" font-size="10.00">+ endOfEpochAction()</text>
</a>
</g>
<!-- Node4&#45;&gt;Node3 -->
<g id="edge6" class="edge"><title>Node4&#45;&gt;Node3</title>
<path fill="none" stroke="midnightblue" d="M84,-366.596C84,-353.574 84,-339.502 84,-327.246"/>
<polygon fill="none" stroke="midnightblue" points="80.5001,-366.759 84,-376.759 87.5001,-366.759 80.5001,-366.759"/>
</g>
<!-- Node5 -->
<g id="node8" class="node"><title>Node5</title>
<polygon fill="white" stroke="#bfbfbf" points="186.5,-264.5 186.5,-321.5 301.5,-321.5 301.5,-264.5 186.5,-264.5"/>
<text text-anchor="middle" x="244" y="-309.5" font-family="Helvetica,sans-Serif" font-size="10.00">std::vector&lt; double &gt;</text>
<polyline fill="none" stroke="#bfbfbf" points="186.5,-302.5 301.5,-302.5 "/>
<text text-anchor="start" x="194.5" y="-290.5" font-family="Helvetica,sans-Serif" font-size="10.00">&#45; elements</text>
<polyline fill="none" stroke="#bfbfbf" points="186.5,-283.5 301.5,-283.5 "/>
<text text-anchor="middle" x="244" y="-271.5" font-family="Helvetica,sans-Serif" font-size="10.00"> </text>
</g>
<!-- Node5&#45;&gt;Node2 -->
<g id="edge8" class="edge"><title>Node5&#45;&gt;Node2</title>
<path fill="none" stroke="#9a32cd" stroke-dasharray="5,2" d="M225.762,-254.963C218.821,-240.867 210.797,-224.572 203.376,-209.503"/>
<polygon fill="#9a32cd" stroke="#9a32cd" points="230.374,-264.328 221.919,-257.345 228.165,-259.843 225.956,-255.357 225.956,-255.357 225.956,-255.357 228.165,-259.843 229.993,-253.369 230.374,-264.328 230.374,-264.328"/>
<text text-anchor="middle" x="252" y="-231.5" font-family="Helvetica,sans-Serif" font-size="10.00">d_sum_delta_x</text>
</g>
<!-- Node6 -->
<g id="node10" class="node"><title>Node6</title>
<a xlink:title="STL class.">
<polygon fill="white" stroke="#bfbfbf" points="199.5,-382.5 199.5,-439.5 288.5,-439.5 288.5,-382.5 199.5,-382.5"/>
<text text-anchor="middle" x="244" y="-427.5" font-family="Helvetica,sans-Serif" font-size="10.00">std::vector&lt; T &gt;</text>
<polyline fill="none" stroke="#bfbfbf" points="199.5,-420.5 288.5,-420.5 "/>
<text text-anchor="start" x="207.5" y="-408.5" font-family="Helvetica,sans-Serif" font-size="10.00">&#45; elements</text>
<polyline fill="none" stroke="#bfbfbf" points="199.5,-401.5 288.5,-401.5 "/>
<text text-anchor="middle" x="244" y="-389.5" font-family="Helvetica,sans-Serif" font-size="10.00"> </text>
</a>
</g>
<!-- Node6&#45;&gt;Node5 -->
<g id="edge10" class="edge"><title>Node6&#45;&gt;Node5</title>
<path fill="none" stroke="orange" stroke-dasharray="5,2" d="M244,-371.837C244,-355.417 244,-336.585 244,-321.558"/>
<polygon fill="orange" stroke="orange" points="240.5,-372.215 244,-382.215 247.5,-372.215 240.5,-372.215"/>
<text text-anchor="middle" x="268.5" y="-349.5" font-family="Helvetica,sans-Serif" font-size="10.00">&lt; double &gt;</text>
</g>
<!-- Node7 -->
<g id="node12" class="node"><title>Node7</title>
<polygon fill="white" stroke="#bfbfbf" points="229.5,-494.5 229.5,-551.5 258.5,-551.5 258.5,-494.5 229.5,-494.5"/>
<text text-anchor="middle" x="244" y="-539.5" font-family="Helvetica,sans-Serif" font-size="10.00">T</text>
<polyline fill="none" stroke="#bfbfbf" points="229.5,-532.5 258.5,-532.5 "/>
<text text-anchor="middle" x="244" y="-520.5" font-family="Helvetica,sans-Serif" font-size="10.00"> </text>
<polyline fill="none" stroke="#bfbfbf" points="229.5,-513.5 258.5,-513.5 "/>
<text text-anchor="middle" x="244" y="-501.5" font-family="Helvetica,sans-Serif" font-size="10.00"> </text>
</g>
<!-- Node7&#45;&gt;Node6 -->
<g id="edge12" class="edge"><title>Node7&#45;&gt;Node6</title>
<path fill="none" stroke="#9a32cd" stroke-dasharray="5,2" d="M244,-484.027C244,-469.478 244,-453.166 244,-439.749"/>
<polygon fill="#9a32cd" stroke="#9a32cd" points="244,-494.242 239.5,-484.242 244,-489.242 244,-484.242 244,-484.242 244,-484.242 244,-489.242 248.5,-484.242 244,-494.242 244,-494.242"/>
<text text-anchor="middle" x="265.5" y="-467.5" font-family="Helvetica,sans-Serif" font-size="10.00">elements</text>
</g>
</g>
</svg>
