<?xml version="1.0" encoding="UTF-8" standalone="no"?>
<!DOCTYPE svg PUBLIC "-//W3C//DTD SVG 1.1//EN"
 "http://www.w3.org/Graphics/SVG/1.1/DTD/svg11.dtd">
<!-- Generated by graphviz version 2.25.20091207.0545 (20091207.0545)
 -->
<!-- Title: G Pages: 1 -->
<svg width="640pt" height="66pt"
 viewBox="0.00 0.00 640.00 66.00" xmlns="http://www.w3.org/2000/svg" xmlns:xlink="http://www.w3.org/1999/xlink">
<g id="graph1" class="graph" transform="scale(1 1) rotate(0) translate(4 62)">
<title>G</title>
<polygon fill="white" stroke="white" points="-4,5 -4,-62 637,-62 637,5 -4,5"/>
<!-- Node1 -->
<g id="node1" class="node"><title>Node1</title>
<polygon fill="#bfbfbf" stroke="black" points="0.5,-19.5 0.5,-38.5 87.5,-38.5 87.5,-19.5 0.5,-19.5"/>
<text text-anchor="middle" x="44" y="-25.5" font-family="Helvetica,sans-Serif" font-size="10.00">Neuron::validate</text>
</g>
<!-- Node2 -->
<g id="node3" class="node"><title>Node2</title>
<a xlink:href="class_neuron.html#ad9211d55ea50ad6dfbd2676b9e2335e4" target="_top" xlink:title="Neuron::getId">
<polygon fill="white" stroke="black" points="132.5,-38.5 132.5,-57.5 207.5,-57.5 207.5,-38.5 132.5,-38.5"/>
<text text-anchor="middle" x="170" y="-44.5" font-family="Helvetica,sans-Serif" font-size="10.00">Neuron::getId</text>
</a>
</g>
<!-- Node1&#45;&gt;Node2 -->
<g id="edge2" class="edge"><title>Node1&#45;&gt;Node2</title>
<path fill="none" stroke="midnightblue" d="M87.7151,-35.592C98.8165,-37.266 110.802,-39.0733 122.099,-40.7769"/>
<polygon fill="midnightblue" stroke="midnightblue" points="121.826,-44.2751 132.236,-42.3054 122.87,-37.3534 121.826,-44.2751"/>
</g>
<!-- Node3 -->
<g id="node5" class="node"><title>Node3</title>
<a xlink:href="class_vec_con.html#af008396d3982fb7ccf1af9618b89937c" target="_top" xlink:title="Object validator.">
<polygon fill="white" stroke="black" points="124.5,-0.5 124.5,-19.5 215.5,-19.5 215.5,-0.5 124.5,-0.5"/>
<text text-anchor="middle" x="170" y="-6.5" font-family="Helvetica,sans-Serif" font-size="10.00">VecCon::validate</text>
</a>
</g>
<!-- Node1&#45;&gt;Node3 -->
<g id="edge4" class="edge"><title>Node1&#45;&gt;Node3</title>
<path fill="none" stroke="midnightblue" d="M87.7151,-22.408C96.2877,-21.1153 105.388,-19.7431 114.291,-18.4006"/>
<polygon fill="midnightblue" stroke="midnightblue" points="114.854,-21.8553 124.22,-16.9033 113.81,-14.9336 114.854,-21.8553"/>
</g>
<!-- Node4 -->
<g id="node7" class="node"><title>Node4</title>
<a xlink:href="class_vec_con.html#a03d5dde143e166e68b01c9596573eb5f" target="_top" xlink:title="Getter of the Id values of the vector of Cons.">
<polygon fill="white" stroke="black" points="252.5,-0.5 252.5,-19.5 331.5,-19.5 331.5,-0.5 252.5,-0.5"/>
<text text-anchor="middle" x="292" y="-6.5" font-family="Helvetica,sans-Serif" font-size="10.00">VecCon::getId</text>
</a>
</g>
<!-- Node3&#45;&gt;Node4 -->
<g id="edge6" class="edge"><title>Node3&#45;&gt;Node4</title>
<path fill="none" stroke="midnightblue" d="M215.775,-10C224.426,-10 233.512,-10 242.277,-10"/>
<polygon fill="midnightblue" stroke="midnightblue" points="242.373,-13.5001 252.373,-10 242.373,-6.5001 242.373,-13.5001"/>
</g>
<!-- Node5 -->
<g id="node9" class="node"><title>Node5</title>
<a xlink:href="class_vec_con.html#aa9a397520b07fbeead0b6d252c1ea882" target="_top" xlink:title="Size of the VecCon object.">
<polygon fill="white" stroke="black" points="368,-0.5 368,-19.5 478,-19.5 478,-0.5 368,-0.5"/>
<text text-anchor="middle" x="423" y="-6.5" font-family="Helvetica,sans-Serif" font-size="10.00">VecCon::numOfCons</text>
</a>
</g>
<!-- Node4&#45;&gt;Node5 -->
<g id="edge8" class="edge"><title>Node4&#45;&gt;Node5</title>
<path fill="none" stroke="midnightblue" d="M331.66,-10C339.779,-10 348.529,-10 357.283,-10"/>
<polygon fill="midnightblue" stroke="midnightblue" points="357.526,-13.5001 367.526,-10 357.526,-6.5001 357.526,-13.5001"/>
</g>
<!-- Node6 -->
<g id="node11" class="node"><title>Node6</title>
<a xlink:href="class_container.html#a842c3d9eca81b78b59112fde9707b091" target="_top" xlink:title="Container\&lt; Con \&gt;::size">
<polygon fill="white" stroke="black" points="514,-0.5 514,-19.5 632,-19.5 632,-0.5 514,-0.5"/>
<text text-anchor="middle" x="573" y="-6.5" font-family="Helvetica,sans-Serif" font-size="10.00">Container&lt; Con &gt;::size</text>
</a>
</g>
<!-- Node5&#45;&gt;Node6 -->
<g id="edge10" class="edge"><title>Node5&#45;&gt;Node6</title>
<path fill="none" stroke="midnightblue" d="M478.003,-10C486.416,-10 495.192,-10 503.863,-10"/>
<polygon fill="midnightblue" stroke="midnightblue" points="503.965,-13.5001 513.965,-10 503.965,-6.5001 503.965,-13.5001"/>
</g>
</g>
</svg>
