<?xml version="1.0" encoding="UTF-8" standalone="no"?>
<!DOCTYPE svg PUBLIC "-//W3C//DTD SVG 1.1//EN"
 "http://www.w3.org/Graphics/SVG/1.1/DTD/svg11.dtd">
<!-- Generated by graphviz version 2.28.0 (20110610.2051)
 -->
<!-- Title: G Pages: 1 -->
<svg width="2044pt" height="466pt"
 viewBox="0.00 0.00 2044.00 466.00" xmlns="http://www.w3.org/2000/svg" xmlns:xlink="http://www.w3.org/1999/xlink">
<g id="graph1" class="graph" transform="scale(1 1) rotate(0) translate(4 462)">
<title>G</title>
<polygon fill="white" stroke="white" points="-4,5 -4,-462 2041,-462 2041,5 -4,5"/>
<!-- Node1 -->
<g id="node1" class="node"><title>Node1</title>
<polygon fill="#bfbfbf" stroke="black" points="1222.5,-301 1222.5,-457 1365.5,-457 1365.5,-301 1222.5,-301"/>
<text text-anchor="middle" x="1294" y="-445" font-family="Helvetica,sans-Serif" font-size="10.00">NeuralFactory</text>
<polyline fill="none" stroke="black" points="1222.5,-438 1365.5,-438 "/>
<text text-anchor="middle" x="1294" y="-426" font-family="Helvetica,sans-Serif" font-size="10.00"> </text>
<polyline fill="none" stroke="black" points="1222.5,-419 1365.5,-419 "/>
<text text-anchor="start" x="1230.5" y="-407" font-family="Helvetica,sans-Serif" font-size="10.00">+ makeCon()</text>
<text text-anchor="start" x="1230.5" y="-396" font-family="Helvetica,sans-Serif" font-size="10.00">+ makeConContainer()</text>
<text text-anchor="start" x="1230.5" y="-385" font-family="Helvetica,sans-Serif" font-size="10.00">+ makeActivationFunction()</text>
<text text-anchor="start" x="1230.5" y="-374" font-family="Helvetica,sans-Serif" font-size="10.00">+ makePredictBehavior()</text>
<text text-anchor="start" x="1230.5" y="-363" font-family="Helvetica,sans-Serif" font-size="10.00">+ makeNeuron()</text>
<text text-anchor="start" x="1230.5" y="-352" font-family="Helvetica,sans-Serif" font-size="10.00">+ makeNeuron()</text>
<text text-anchor="start" x="1230.5" y="-341" font-family="Helvetica,sans-Serif" font-size="10.00">+ makeLayer()</text>
<text text-anchor="start" x="1230.5" y="-330" font-family="Helvetica,sans-Serif" font-size="10.00">+ makeLayerContainer()</text>
<text text-anchor="start" x="1230.5" y="-319" font-family="Helvetica,sans-Serif" font-size="10.00">+ makeNeuralNetwork()</text>
<text text-anchor="start" x="1230.5" y="-308" font-family="Helvetica,sans-Serif" font-size="10.00">+ makeNeuralCreator()</text>
</g>
<!-- Node2 -->
<g id="node3" class="node"><title>Node2</title>
<a xlink:href="class_m_l_pfactory.html" target="_top" xlink:title="class MLPfactory &#45;">
<polygon fill="white" stroke="black" points="947.5,-107 947.5,-263 1088.5,-263 1088.5,-107 947.5,-107"/>
<text text-anchor="middle" x="1018" y="-251" font-family="Helvetica,sans-Serif" font-size="10.00">MLPfactory</text>
<polyline fill="none" stroke="black" points="947.5,-244 1088.5,-244 "/>
<text text-anchor="middle" x="1018" y="-232" font-family="Helvetica,sans-Serif" font-size="10.00"> </text>
<polyline fill="none" stroke="black" points="947.5,-225 1088.5,-225 "/>
<text text-anchor="start" x="955.5" y="-213" font-family="Helvetica,sans-Serif" font-size="10.00"># makeCon()</text>
<text text-anchor="start" x="955.5" y="-202" font-family="Helvetica,sans-Serif" font-size="10.00"># makeConContainer()</text>
<text text-anchor="start" x="955.5" y="-191" font-family="Helvetica,sans-Serif" font-size="10.00"># makeActivationFunction()</text>
<text text-anchor="start" x="955.5" y="-180" font-family="Helvetica,sans-Serif" font-size="10.00"># makePredictBehavior()</text>
<text text-anchor="start" x="955.5" y="-169" font-family="Helvetica,sans-Serif" font-size="10.00"># makeNeuron()</text>
<text text-anchor="start" x="955.5" y="-158" font-family="Helvetica,sans-Serif" font-size="10.00"># makeNeuron()</text>
<text text-anchor="start" x="955.5" y="-147" font-family="Helvetica,sans-Serif" font-size="10.00"># makeLayer()</text>
<text text-anchor="start" x="955.5" y="-136" font-family="Helvetica,sans-Serif" font-size="10.00"># makeLayerContainer()</text>
<text text-anchor="start" x="955.5" y="-125" font-family="Helvetica,sans-Serif" font-size="10.00"># makeNeuralNetwork()</text>
<text text-anchor="start" x="955.5" y="-114" font-family="Helvetica,sans-Serif" font-size="10.00"># makeNeuralCreator()</text>
</a>
</g>
<!-- Node1&#45;&gt;Node2 -->
<g id="edge2" class="edge"><title>Node1&#45;&gt;Node2</title>
<path fill="none" stroke="midnightblue" d="M1213.9,-322.277C1174.39,-294.793 1127.15,-261.93 1088.96,-235.362"/>
<polygon fill="none" stroke="midnightblue" points="1212,-325.218 1222.2,-328.055 1215.99,-319.472 1212,-325.218"/>
</g>
<!-- Node15 -->
<g id="node29" class="node"><title>Node15</title>
<a xlink:href="class_r_b_ffactory.html" target="_top" xlink:title="class RBFfactory &#45;">
<polygon fill="white" stroke="black" points="1500.5,-107 1500.5,-263 1641.5,-263 1641.5,-107 1500.5,-107"/>
<text text-anchor="middle" x="1571" y="-251" font-family="Helvetica,sans-Serif" font-size="10.00">RBFfactory</text>
<polyline fill="none" stroke="black" points="1500.5,-244 1641.5,-244 "/>
<text text-anchor="middle" x="1571" y="-232" font-family="Helvetica,sans-Serif" font-size="10.00"> </text>
<polyline fill="none" stroke="black" points="1500.5,-225 1641.5,-225 "/>
<text text-anchor="start" x="1508.5" y="-213" font-family="Helvetica,sans-Serif" font-size="10.00"># makeCon()</text>
<text text-anchor="start" x="1508.5" y="-202" font-family="Helvetica,sans-Serif" font-size="10.00"># makeConContainer()</text>
<text text-anchor="start" x="1508.5" y="-191" font-family="Helvetica,sans-Serif" font-size="10.00"># makeActivationFunction()</text>
<text text-anchor="start" x="1508.5" y="-180" font-family="Helvetica,sans-Serif" font-size="10.00"># makePredictBehavior()</text>
<text text-anchor="start" x="1508.5" y="-169" font-family="Helvetica,sans-Serif" font-size="10.00"># makeNeuron()</text>
<text text-anchor="start" x="1508.5" y="-158" font-family="Helvetica,sans-Serif" font-size="10.00"># makeNeuron()</text>
<text text-anchor="start" x="1508.5" y="-147" font-family="Helvetica,sans-Serif" font-size="10.00"># makeLayer()</text>
<text text-anchor="start" x="1508.5" y="-136" font-family="Helvetica,sans-Serif" font-size="10.00"># makeLayerContainer()</text>
<text text-anchor="start" x="1508.5" y="-125" font-family="Helvetica,sans-Serif" font-size="10.00"># makeNeuralNetwork()</text>
<text text-anchor="start" x="1508.5" y="-114" font-family="Helvetica,sans-Serif" font-size="10.00"># makeNeuralCreator()</text>
</a>
</g>
<!-- Node1&#45;&gt;Node15 -->
<g id="edge28" class="edge"><title>Node1&#45;&gt;Node15</title>
<path fill="none" stroke="midnightblue" d="M1374.07,-322.503C1413.89,-294.902 1461.6,-261.831 1500.09,-235.154"/>
<polygon fill="none" stroke="midnightblue" points="1371.92,-319.732 1365.69,-328.306 1375.91,-325.485 1371.92,-319.732"/>
</g>
<!-- Node3 -->
<g id="node5" class="node"><title>Node3</title>
<a xlink:href="class_arc_tan_factory.html" target="_top" xlink:title="class ArcTanFactory &#45;">
<polygon fill="white" stroke="black" points="0,-1 0,-69 140,-69 140,-1 0,-1"/>
<text text-anchor="middle" x="70" y="-57" font-family="Helvetica,sans-Serif" font-size="10.00">ArcTanFactory</text>
<polyline fill="none" stroke="black" points="0,-50 140,-50 "/>
<text text-anchor="middle" x="70" y="-38" font-family="Helvetica,sans-Serif" font-size="10.00"> </text>
<polyline fill="none" stroke="black" points="0,-31 140,-31 "/>
<text text-anchor="start" x="8" y="-19" font-family="Helvetica,sans-Serif" font-size="10.00">+ ArcTanFactory()</text>
<text text-anchor="start" x="8" y="-8" font-family="Helvetica,sans-Serif" font-size="10.00">&#45; makeActivationFunction()</text>
</a>
</g>
<!-- Node2&#45;&gt;Node3 -->
<g id="edge4" class="edge"><title>Node2&#45;&gt;Node3</title>
<path fill="none" stroke="midnightblue" d="M937.027,-180.815C781.628,-173.082 431.889,-147.814 149,-70 146.121,-69.208 143.209,-68.3322 140.288,-67.3906"/>
<polygon fill="none" stroke="midnightblue" points="937.27,-184.331 947.428,-181.321 937.61,-177.339 937.27,-184.331"/>
</g>
<!-- Node4 -->
<g id="node7" class="node"><title>Node4</title>
<a xlink:href="class_cosine_factory.html" target="_top" xlink:title="class CosineFactory &#45;">
<polygon fill="white" stroke="black" points="158,-1 158,-69 298,-69 298,-1 158,-1"/>
<text text-anchor="middle" x="228" y="-57" font-family="Helvetica,sans-Serif" font-size="10.00">CosineFactory</text>
<polyline fill="none" stroke="black" points="158,-50 298,-50 "/>
<text text-anchor="middle" x="228" y="-38" font-family="Helvetica,sans-Serif" font-size="10.00"> </text>
<polyline fill="none" stroke="black" points="158,-31 298,-31 "/>
<text text-anchor="start" x="166" y="-19" font-family="Helvetica,sans-Serif" font-size="10.00">+ CosineFactory()</text>
<text text-anchor="start" x="166" y="-8" font-family="Helvetica,sans-Serif" font-size="10.00">&#45; makeActivationFunction()</text>
</a>
</g>
<!-- Node2&#45;&gt;Node4 -->
<g id="edge6" class="edge"><title>Node2&#45;&gt;Node4</title>
<path fill="none" stroke="midnightblue" d="M937.215,-177.598C803.813,-165.581 530.038,-134.788 307,-70 304.132,-69.167 301.23,-68.2566 298.317,-67.286"/>
<polygon fill="none" stroke="midnightblue" points="937.081,-181.1 947.352,-178.499 937.701,-174.127 937.081,-181.1"/>
</g>
<!-- Node5 -->
<g id="node9" class="node"><title>Node5</title>
<a xlink:href="class_elliot_factory.html" target="_top" xlink:title="class ElliotFactory &#45;">
<polygon fill="white" stroke="black" points="316,-1 316,-69 456,-69 456,-1 316,-1"/>
<text text-anchor="middle" x="386" y="-57" font-family="Helvetica,sans-Serif" font-size="10.00">ElliotFactory</text>
<polyline fill="none" stroke="black" points="316,-50 456,-50 "/>
<text text-anchor="middle" x="386" y="-38" font-family="Helvetica,sans-Serif" font-size="10.00"> </text>
<polyline fill="none" stroke="black" points="316,-31 456,-31 "/>
<text text-anchor="start" x="324" y="-19" font-family="Helvetica,sans-Serif" font-size="10.00">+ ElliotFactory()</text>
<text text-anchor="start" x="324" y="-8" font-family="Helvetica,sans-Serif" font-size="10.00">&#45; makeActivationFunction()</text>
</a>
</g>
<!-- Node2&#45;&gt;Node5 -->
<g id="edge8" class="edge"><title>Node2&#45;&gt;Node5</title>
<path fill="none" stroke="midnightblue" d="M937.515,-172.664C828.697,-156.156 629.348,-121.715 465,-70 462.151,-69.1036 459.266,-68.1398 456.366,-67.1245"/>
<polygon fill="none" stroke="midnightblue" points="937.028,-176.13 947.438,-174.158 938.07,-169.208 937.028,-176.13"/>
</g>
<!-- Node6 -->
<g id="node11" class="node"><title>Node6</title>
<a xlink:href="class_exponential_factory.html" target="_top" xlink:title="class ExponentialFactory &#45;">
<polygon fill="white" stroke="black" points="474,-1 474,-69 614,-69 614,-1 474,-1"/>
<text text-anchor="middle" x="544" y="-57" font-family="Helvetica,sans-Serif" font-size="10.00">ExponentialFactory</text>
<polyline fill="none" stroke="black" points="474,-50 614,-50 "/>
<text text-anchor="middle" x="544" y="-38" font-family="Helvetica,sans-Serif" font-size="10.00"> </text>
<polyline fill="none" stroke="black" points="474,-31 614,-31 "/>
<text text-anchor="start" x="482" y="-19" font-family="Helvetica,sans-Serif" font-size="10.00">+ ExponentialFactory()</text>
<text text-anchor="start" x="482" y="-8" font-family="Helvetica,sans-Serif" font-size="10.00">&#45; makeActivationFunction()</text>
</a>
</g>
<!-- Node2&#45;&gt;Node6 -->
<g id="edge10" class="edge"><title>Node2&#45;&gt;Node6</title>
<path fill="none" stroke="midnightblue" d="M937.157,-163.848C856.651,-143.04 729.978,-108.288 623,-70 620.048,-68.9434 617.048,-67.8313 614.029,-66.6801"/>
<polygon fill="none" stroke="midnightblue" points="936.671,-167.337 947.228,-166.441 938.417,-160.558 936.671,-167.337"/>
</g>
<!-- Node7 -->
<g id="node13" class="node"><title>Node7</title>
<a xlink:href="class_gauss_factory.html" target="_top" xlink:title="class GaussFactory &#45;">
<polygon fill="white" stroke="black" points="632,-1 632,-69 772,-69 772,-1 632,-1"/>
<text text-anchor="middle" x="702" y="-57" font-family="Helvetica,sans-Serif" font-size="10.00">GaussFactory</text>
<polyline fill="none" stroke="black" points="632,-50 772,-50 "/>
<text text-anchor="middle" x="702" y="-38" font-family="Helvetica,sans-Serif" font-size="10.00"> </text>
<polyline fill="none" stroke="black" points="632,-31 772,-31 "/>
<text text-anchor="start" x="640" y="-19" font-family="Helvetica,sans-Serif" font-size="10.00">+ GaussFactory()</text>
<text text-anchor="start" x="640" y="-8" font-family="Helvetica,sans-Serif" font-size="10.00">&#45; makeActivationFunction()</text>
</a>
</g>
<!-- Node2&#45;&gt;Node7 -->
<g id="edge12" class="edge"><title>Node2&#45;&gt;Node7</title>
<path fill="none" stroke="midnightblue" d="M938.418,-146.727C887.202,-122.74 821.259,-91.8556 772.035,-68.8013"/>
<polygon fill="none" stroke="midnightblue" points="936.936,-149.898 947.477,-150.97 939.905,-143.559 936.936,-149.898"/>
</g>
<!-- Node8 -->
<g id="node15" class="node"><title>Node8</title>
<a xlink:href="class_identity_factory.html" target="_top" xlink:title="class IdentityFactory &#45;">
<polygon fill="white" stroke="black" points="790,-1 790,-69 930,-69 930,-1 790,-1"/>
<text text-anchor="middle" x="860" y="-57" font-family="Helvetica,sans-Serif" font-size="10.00">IdentityFactory</text>
<polyline fill="none" stroke="black" points="790,-50 930,-50 "/>
<text text-anchor="middle" x="860" y="-38" font-family="Helvetica,sans-Serif" font-size="10.00"> </text>
<polyline fill="none" stroke="black" points="790,-31 930,-31 "/>
<text text-anchor="start" x="798" y="-19" font-family="Helvetica,sans-Serif" font-size="10.00">+ IdentityFactory()</text>
<text text-anchor="start" x="798" y="-8" font-family="Helvetica,sans-Serif" font-size="10.00">&#45; makeActivationFunction()</text>
</a>
</g>
<!-- Node2&#45;&gt;Node8 -->
<g id="edge14" class="edge"><title>Node2&#45;&gt;Node8</title>
<path fill="none" stroke="midnightblue" d="M939.738,-110.691C924.269,-96.2013 908.762,-81.6761 895.591,-69.338"/>
<polygon fill="none" stroke="midnightblue" points="937.627,-113.51 947.318,-117.792 942.413,-108.401 937.627,-113.51"/>
</g>
<!-- Node9 -->
<g id="node17" class="node"><title>Node9</title>
<a xlink:href="class_logistic_factory.html" target="_top" xlink:title="class LogisticFactory &#45;">
<polygon fill="white" stroke="black" points="948,-1 948,-69 1088,-69 1088,-1 948,-1"/>
<text text-anchor="middle" x="1018" y="-57" font-family="Helvetica,sans-Serif" font-size="10.00">LogisticFactory</text>
<polyline fill="none" stroke="black" points="948,-50 1088,-50 "/>
<text text-anchor="middle" x="1018" y="-38" font-family="Helvetica,sans-Serif" font-size="10.00"> </text>
<polyline fill="none" stroke="black" points="948,-31 1088,-31 "/>
<text text-anchor="start" x="956" y="-19" font-family="Helvetica,sans-Serif" font-size="10.00">+ LogisticFactory()</text>
<text text-anchor="start" x="956" y="-8" font-family="Helvetica,sans-Serif" font-size="10.00">&#45; makeActivationFunction()</text>
</a>
</g>
<!-- Node2&#45;&gt;Node9 -->
<g id="edge16" class="edge"><title>Node2&#45;&gt;Node9</title>
<path fill="none" stroke="midnightblue" d="M1018,-96.7001C1018,-86.9319 1018,-77.4833 1018,-69.0658"/>
<polygon fill="none" stroke="midnightblue" points="1014.5,-96.9656 1018,-106.966 1021.5,-96.9656 1014.5,-96.9656"/>
</g>
<!-- Node10 -->
<g id="node19" class="node"><title>Node10</title>
<a xlink:href="class_reciprocal_factory.html" target="_top" xlink:title="class ReciprocalFactory &#45;">
<polygon fill="white" stroke="black" points="1106,-1 1106,-69 1246,-69 1246,-1 1106,-1"/>
<text text-anchor="middle" x="1176" y="-57" font-family="Helvetica,sans-Serif" font-size="10.00">ReciprocalFactory</text>
<polyline fill="none" stroke="black" points="1106,-50 1246,-50 "/>
<text text-anchor="middle" x="1176" y="-38" font-family="Helvetica,sans-Serif" font-size="10.00"> </text>
<polyline fill="none" stroke="black" points="1106,-31 1246,-31 "/>
<text text-anchor="start" x="1114" y="-19" font-family="Helvetica,sans-Serif" font-size="10.00">+ ReciprocalFactory()</text>
<text text-anchor="start" x="1114" y="-8" font-family="Helvetica,sans-Serif" font-size="10.00">&#45; makeActivationFunction()</text>
</a>
</g>
<!-- Node2&#45;&gt;Node10 -->
<g id="edge18" class="edge"><title>Node2&#45;&gt;Node10</title>
<path fill="none" stroke="midnightblue" d="M1096.26,-110.691C1111.73,-96.2013 1127.24,-81.6761 1140.41,-69.338"/>
<polygon fill="none" stroke="midnightblue" points="1093.59,-108.401 1088.68,-117.792 1098.37,-113.51 1093.59,-108.401"/>
</g>
<!-- Node11 -->
<g id="node21" class="node"><title>Node11</title>
<a xlink:href="class_sine_factory.html" target="_top" xlink:title="class SineFactory &#45;">
<polygon fill="white" stroke="black" points="1264,-1 1264,-69 1404,-69 1404,-1 1264,-1"/>
<text text-anchor="middle" x="1334" y="-57" font-family="Helvetica,sans-Serif" font-size="10.00">SineFactory</text>
<polyline fill="none" stroke="black" points="1264,-50 1404,-50 "/>
<text text-anchor="middle" x="1334" y="-38" font-family="Helvetica,sans-Serif" font-size="10.00"> </text>
<polyline fill="none" stroke="black" points="1264,-31 1404,-31 "/>
<text text-anchor="start" x="1272" y="-19" font-family="Helvetica,sans-Serif" font-size="10.00">+ SineFactory()</text>
<text text-anchor="start" x="1272" y="-8" font-family="Helvetica,sans-Serif" font-size="10.00">&#45; makeActivationFunction()</text>
</a>
</g>
<!-- Node2&#45;&gt;Node11 -->
<g id="edge20" class="edge"><title>Node2&#45;&gt;Node11</title>
<path fill="none" stroke="midnightblue" d="M1097.58,-146.727C1148.8,-122.74 1214.74,-91.8556 1263.96,-68.8013"/>
<polygon fill="none" stroke="midnightblue" points="1096.09,-143.559 1088.52,-150.97 1099.06,-149.898 1096.09,-143.559"/>
</g>
<!-- Node12 -->
<g id="node23" class="node"><title>Node12</title>
<a xlink:href="class_square_factory.html" target="_top" xlink:title="class SquareFactory &#45;">
<polygon fill="white" stroke="black" points="1422,-1 1422,-69 1562,-69 1562,-1 1422,-1"/>
<text text-anchor="middle" x="1492" y="-57" font-family="Helvetica,sans-Serif" font-size="10.00">SquareFactory</text>
<polyline fill="none" stroke="black" points="1422,-50 1562,-50 "/>
<text text-anchor="middle" x="1492" y="-38" font-family="Helvetica,sans-Serif" font-size="10.00"> </text>
<polyline fill="none" stroke="black" points="1422,-31 1562,-31 "/>
<text text-anchor="start" x="1430" y="-19" font-family="Helvetica,sans-Serif" font-size="10.00">+ SquareFactory()</text>
<text text-anchor="start" x="1430" y="-8" font-family="Helvetica,sans-Serif" font-size="10.00">&#45; makeActivationFunction()</text>
</a>
</g>
<!-- Node2&#45;&gt;Node12 -->
<g id="edge22" class="edge"><title>Node2&#45;&gt;Node12</title>
<path fill="none" stroke="midnightblue" d="M1098.84,-163.848C1179.35,-143.04 1306.02,-108.288 1413,-70 1415.95,-68.9434 1418.95,-67.8313 1421.97,-66.6801"/>
<polygon fill="none" stroke="midnightblue" points="1097.58,-160.558 1088.77,-166.441 1099.33,-167.337 1097.58,-160.558"/>
</g>
<!-- Node13 -->
<g id="node25" class="node"><title>Node13</title>
<a xlink:href="class_tanh_factory.html" target="_top" xlink:title="class TanhFactory &#45;">
<polygon fill="white" stroke="black" points="1580,-1 1580,-69 1720,-69 1720,-1 1580,-1"/>
<text text-anchor="middle" x="1650" y="-57" font-family="Helvetica,sans-Serif" font-size="10.00">TanhFactory</text>
<polyline fill="none" stroke="black" points="1580,-50 1720,-50 "/>
<text text-anchor="middle" x="1650" y="-38" font-family="Helvetica,sans-Serif" font-size="10.00"> </text>
<polyline fill="none" stroke="black" points="1580,-31 1720,-31 "/>
<text text-anchor="start" x="1588" y="-19" font-family="Helvetica,sans-Serif" font-size="10.00">+ TanhFactory()</text>
<text text-anchor="start" x="1588" y="-8" font-family="Helvetica,sans-Serif" font-size="10.00">&#45; makeActivationFunction()</text>
</a>
</g>
<!-- Node2&#45;&gt;Node13 -->
<g id="edge24" class="edge"><title>Node2&#45;&gt;Node13</title>
<path fill="none" stroke="midnightblue" d="M1098.49,-172.664C1207.3,-156.156 1406.65,-121.715 1571,-70 1573.85,-69.1036 1576.73,-68.1398 1579.63,-67.1245"/>
<polygon fill="none" stroke="midnightblue" points="1097.93,-169.208 1088.56,-174.158 1098.97,-176.13 1097.93,-169.208"/>
</g>
<!-- Node14 -->
<g id="node27" class="node"><title>Node14</title>
<a xlink:href="class_threshold_factory.html" target="_top" xlink:title="class ThresholdFactory &#45;">
<polygon fill="white" stroke="black" points="1738,-1 1738,-69 1878,-69 1878,-1 1738,-1"/>
<text text-anchor="middle" x="1808" y="-57" font-family="Helvetica,sans-Serif" font-size="10.00">ThresholdFactory</text>
<polyline fill="none" stroke="black" points="1738,-50 1878,-50 "/>
<text text-anchor="middle" x="1808" y="-38" font-family="Helvetica,sans-Serif" font-size="10.00"> </text>
<polyline fill="none" stroke="black" points="1738,-31 1878,-31 "/>
<text text-anchor="start" x="1746" y="-19" font-family="Helvetica,sans-Serif" font-size="10.00">+ ThresholdFactory()</text>
<text text-anchor="start" x="1746" y="-8" font-family="Helvetica,sans-Serif" font-size="10.00">&#45; makeActivationFunction()</text>
</a>
</g>
<!-- Node2&#45;&gt;Node14 -->
<g id="edge26" class="edge"><title>Node2&#45;&gt;Node14</title>
<path fill="none" stroke="midnightblue" d="M1098.66,-170.415C1192.95,-154.608 1353.71,-127.881 1492,-106 1597.23,-89.3499 1626.57,-99.2982 1729,-70 1731.87,-69.1788 1734.78,-68.2784 1737.69,-67.3161"/>
<polygon fill="none" stroke="midnightblue" points="1097.91,-166.993 1088.63,-172.099 1099.07,-173.896 1097.91,-166.993"/>
</g>
<!-- Node16 -->
<g id="node31" class="node"><title>Node16</title>
<a xlink:href="class_radial_basis_factory.html" target="_top" xlink:title="class RadialBasisFactory &#45;">
<polygon fill="white" stroke="black" points="1896,-1 1896,-69 2036,-69 2036,-1 1896,-1"/>
<text text-anchor="middle" x="1966" y="-57" font-family="Helvetica,sans-Serif" font-size="10.00">RadialBasisFactory</text>
<polyline fill="none" stroke="black" points="1896,-50 2036,-50 "/>
<text text-anchor="middle" x="1966" y="-38" font-family="Helvetica,sans-Serif" font-size="10.00"> </text>
<polyline fill="none" stroke="black" points="1896,-31 2036,-31 "/>
<text text-anchor="start" x="1904" y="-19" font-family="Helvetica,sans-Serif" font-size="10.00">+ RadialBasisFactory()</text>
<text text-anchor="start" x="1904" y="-8" font-family="Helvetica,sans-Serif" font-size="10.00">&#45; makeActivationFunction()</text>
</a>
</g>
<!-- Node15&#45;&gt;Node16 -->
<g id="edge30" class="edge"><title>Node15&#45;&gt;Node16</title>
<path fill="none" stroke="midnightblue" d="M1651.4,-156.497C1715.56,-134.187 1807.55,-101.396 1887,-70 1889.92,-68.8476 1892.89,-67.6556 1895.88,-66.438"/>
<polygon fill="none" stroke="midnightblue" points="1650.04,-153.263 1641.74,-159.848 1652.33,-159.876 1650.04,-153.263"/>
</g>
</g>
</svg>
