<?xml version="1.0" encoding="UTF-8" standalone="no"?>
<!DOCTYPE svg PUBLIC "-//W3C//DTD SVG 1.1//EN"
 "http://www.w3.org/Graphics/SVG/1.1/DTD/svg11.dtd">
<!-- Generated by graphviz version 2.25.20091207.0545 (20091207.0545)
 -->
<!-- Title: G Pages: 1 -->
<svg width="369pt" height="860pt"
 viewBox="0.00 0.00 369.00 860.00" xmlns="http://www.w3.org/2000/svg" xmlns:xlink="http://www.w3.org/1999/xlink">
<g id="graph1" class="graph" transform="scale(1 1) rotate(0) translate(4 856)">
<title>G</title>
<polygon fill="white" stroke="white" points="-4,5 -4,-856 366,-856 366,5 -4,5"/>
<!-- Node1 -->
<g id="node1" class="node"><title>Node1</title>
<polygon fill="#bfbfbf" stroke="black" points="107,-0.5 107,-57.5 209,-57.5 209,-0.5 107,-0.5"/>
<text text-anchor="middle" x="158" y="-44.5" font-family="Helvetica,sans-Serif" font-size="10.00">vecMLPneuron</text>
<polyline fill="none" stroke="black" points="107,-38.5 209,-38.5 "/>
<text text-anchor="middle" x="158" y="-25.5" font-family="Helvetica,sans-Serif" font-size="10.00"> </text>
<polyline fill="none" stroke="black" points="107,-19.5 209,-19.5 "/>
<text text-anchor="start" x="115" y="-6.5" font-family="Helvetica,sans-Serif" font-size="10.00">+ buildAndAppend()</text>
</g>
<!-- Node2 -->
<g id="node2" class="node"><title>Node2</title>
<a xlink:href="classvec_neuron.html" target="_top" xlink:title="A vector of neurons.">
<polygon fill="white" stroke="black" points="126.5,-96.5 126.5,-153.5 189.5,-153.5 189.5,-96.5 126.5,-96.5"/>
<text text-anchor="middle" x="158" y="-140.5" font-family="Helvetica,sans-Serif" font-size="10.00">vecNeuron</text>
<polyline fill="none" stroke="black" points="126.5,-134.5 189.5,-134.5 "/>
<text text-anchor="middle" x="158" y="-121.5" font-family="Helvetica,sans-Serif" font-size="10.00"> </text>
<polyline fill="none" stroke="black" points="126.5,-115.5 189.5,-115.5 "/>
<text text-anchor="middle" x="158" y="-102.5" font-family="Helvetica,sans-Serif" font-size="10.00"> </text>
</a>
</g>
<!-- Node2&#45;&gt;Node1 -->
<g id="edge2" class="edge"><title>Node2&#45;&gt;Node1</title>
<path fill="none" stroke="midnightblue" d="M158,-86.3234C158,-76.7274 158,-66.6143 158,-57.599"/>
<polygon fill="none" stroke="midnightblue" points="154.5,-86.4567 158,-96.4568 161.5,-86.4568 154.5,-86.4567"/>
</g>
<!-- Node3 -->
<g id="node4" class="node"><title>Node3</title>
<a xlink:href="classvec_a_m_o_r_e.html" target="_top" xlink:title="{vecAMORE\&lt; Neuron \&gt;\n|# ldata\l|+ getLdata()\l+ setLdata()\l+ size()\l+ push_back()\l+ append()\l+ show()\l+ validate()\l}">
<polygon fill="white" stroke="black" points="99,-192.5 99,-315.5 217,-315.5 217,-192.5 99,-192.5"/>
<text text-anchor="middle" x="158" y="-302.5" font-family="Helvetica,sans-Serif" font-size="10.00">vecAMORE&lt; Neuron &gt;</text>
<polyline fill="none" stroke="black" points="99,-296.5 217,-296.5 "/>
<text text-anchor="start" x="107" y="-283.5" font-family="Helvetica,sans-Serif" font-size="10.00"># ldata</text>
<polyline fill="none" stroke="black" points="99,-277.5 217,-277.5 "/>
<text text-anchor="start" x="107" y="-264.5" font-family="Helvetica,sans-Serif" font-size="10.00">+ getLdata()</text>
<text text-anchor="start" x="107" y="-253.5" font-family="Helvetica,sans-Serif" font-size="10.00">+ setLdata()</text>
<text text-anchor="start" x="107" y="-242.5" font-family="Helvetica,sans-Serif" font-size="10.00">+ size()</text>
<text text-anchor="start" x="107" y="-231.5" font-family="Helvetica,sans-Serif" font-size="10.00">+ push_back()</text>
<text text-anchor="start" x="107" y="-220.5" font-family="Helvetica,sans-Serif" font-size="10.00">+ append()</text>
<text text-anchor="start" x="107" y="-209.5" font-family="Helvetica,sans-Serif" font-size="10.00">+ show()</text>
<text text-anchor="start" x="107" y="-198.5" font-family="Helvetica,sans-Serif" font-size="10.00">+ validate()</text>
</a>
</g>
<!-- Node3&#45;&gt;Node2 -->
<g id="edge4" class="edge"><title>Node3&#45;&gt;Node2</title>
<path fill="none" stroke="midnightblue" d="M158,-182.065C158,-172.03 158,-162.239 158,-153.679"/>
<polygon fill="none" stroke="midnightblue" points="154.5,-182.145 158,-192.145 161.5,-182.145 154.5,-182.145"/>
</g>
<!-- Node4 -->
<g id="node6" class="node"><title>Node4</title>
<polygon fill="white" stroke="#bfbfbf" points="0,-506.5 0,-563.5 206,-563.5 206,-506.5 0,-506.5"/>
<text text-anchor="middle" x="103" y="-550.5" font-family="Helvetica,sans-Serif" font-size="10.00">std::vector&lt; boost::shared_ptr&lt; Neuron &gt; &gt;</text>
<polyline fill="none" stroke="#bfbfbf" points="0,-544.5 206,-544.5 "/>
<text text-anchor="start" x="8" y="-531.5" font-family="Helvetica,sans-Serif" font-size="10.00">&#45; elements</text>
<polyline fill="none" stroke="#bfbfbf" points="0,-525.5 206,-525.5 "/>
<text text-anchor="middle" x="103" y="-512.5" font-family="Helvetica,sans-Serif" font-size="10.00"> </text>
</g>
<!-- Node4&#45;&gt;Node3 -->
<g id="edge6" class="edge"><title>Node4&#45;&gt;Node3</title>
<path fill="none" stroke="#9a32cd" stroke-dasharray="5,2" d="M110.585,-496.25C119.708,-449.636 135.139,-370.799 145.911,-315.764"/>
<polygon fill="#9a32cd" stroke="#9a32cd" points="108.627,-506.249 106.132,-495.57 109.588,-501.342 110.548,-496.435 110.548,-496.435 110.548,-496.435 109.588,-501.342 114.965,-497.299 108.627,-506.249 108.627,-506.249"/>
<text text-anchor="middle" x="147.5" y="-422.5" font-family="Helvetica,sans-Serif" font-size="10.00">ldata</text>
</g>
<!-- Node5 -->
<g id="node8" class="node"><title>Node5</title>
<a xlink:title="STL class.">
<polygon fill="white" stroke="#bfbfbf" points="132.5,-688.5 132.5,-745.5 219.5,-745.5 219.5,-688.5 132.5,-688.5"/>
<text text-anchor="middle" x="176" y="-732.5" font-family="Helvetica,sans-Serif" font-size="10.00">std::vector&lt; T &gt;</text>
<polyline fill="none" stroke="#bfbfbf" points="132.5,-726.5 219.5,-726.5 "/>
<text text-anchor="start" x="140.5" y="-713.5" font-family="Helvetica,sans-Serif" font-size="10.00">&#45; elements</text>
<polyline fill="none" stroke="#bfbfbf" points="132.5,-707.5 219.5,-707.5 "/>
<text text-anchor="middle" x="176" y="-694.5" font-family="Helvetica,sans-Serif" font-size="10.00"> </text>
</a>
</g>
<!-- Node5&#45;&gt;Node4 -->
<g id="edge8" class="edge"><title>Node5&#45;&gt;Node4</title>
<path fill="none" stroke="orange" stroke-dasharray="5,2" d="M123.256,-699.422C110.116,-692.402 97.6162,-682.842 90,-670 70.6621,-637.394 80.7895,-592.405 90.9689,-563.504"/>
<polygon fill="orange" stroke="orange" points="121.881,-702.645 132.403,-703.885 124.95,-696.354 121.881,-702.645"/>
<text text-anchor="middle" x="161.5" y="-660.5" font-family="Helvetica,sans-Serif" font-size="10.00">&lt; boost::shared_ptr&lt; Neuron &gt; &gt;</text>
</g>
<!-- Node8 -->
<g id="node14" class="node"><title>Node8</title>
<polygon fill="white" stroke="#bfbfbf" points="164,-582.5 164,-639.5 344,-639.5 344,-582.5 164,-582.5"/>
<text text-anchor="middle" x="254" y="-626.5" font-family="Helvetica,sans-Serif" font-size="10.00">std::vector&lt; boost::shared_ptr&lt; T &gt; &gt;</text>
<polyline fill="none" stroke="#bfbfbf" points="164,-620.5 344,-620.5 "/>
<text text-anchor="start" x="172" y="-607.5" font-family="Helvetica,sans-Serif" font-size="10.00">&#45; elements</text>
<polyline fill="none" stroke="#bfbfbf" points="164,-601.5 344,-601.5 "/>
<text text-anchor="middle" x="254" y="-588.5" font-family="Helvetica,sans-Serif" font-size="10.00"> </text>
</g>
<!-- Node5&#45;&gt;Node8 -->
<g id="edge16" class="edge"><title>Node5&#45;&gt;Node8</title>
<path fill="none" stroke="orange" stroke-dasharray="5,2" d="M227.038,-682.053C230.72,-678.271 234.113,-674.244 237,-670 243.116,-661.01 247.057,-649.818 249.586,-639.605"/>
<polygon fill="orange" stroke="orange" points="224.531,-679.605 219.657,-689.012 229.334,-684.698 224.531,-679.605"/>
<text text-anchor="middle" x="302" y="-660.5" font-family="Helvetica,sans-Serif" font-size="10.00">&lt; boost::shared_ptr&lt; T &gt; &gt;</text>
</g>
<!-- Node6 -->
<g id="node10" class="node"><title>Node6</title>
<polygon fill="white" stroke="#bfbfbf" points="161.5,-794.5 161.5,-851.5 190.5,-851.5 190.5,-794.5 161.5,-794.5"/>
<text text-anchor="middle" x="176" y="-838.5" font-family="Helvetica,sans-Serif" font-size="10.00">T</text>
<polyline fill="none" stroke="#bfbfbf" points="161.5,-832.5 190.5,-832.5 "/>
<text text-anchor="middle" x="176" y="-819.5" font-family="Helvetica,sans-Serif" font-size="10.00"> </text>
<polyline fill="none" stroke="#bfbfbf" points="161.5,-813.5 190.5,-813.5 "/>
<text text-anchor="middle" x="176" y="-800.5" font-family="Helvetica,sans-Serif" font-size="10.00"> </text>
</g>
<!-- Node6&#45;&gt;Node5 -->
<g id="edge10" class="edge"><title>Node6&#45;&gt;Node5</title>
<path fill="none" stroke="#9a32cd" stroke-dasharray="5,2" d="M176,-784.005C176,-771.326 176,-757.494 176,-745.708"/>
<polygon fill="#9a32cd" stroke="#9a32cd" points="176,-794.315 171.5,-784.315 176,-789.315 176,-784.315 176,-784.315 176,-784.315 176,-789.315 180.5,-784.315 176,-794.315 176,-794.315"/>
<text text-anchor="middle" x="196" y="-766.5" font-family="Helvetica,sans-Serif" font-size="10.00">elements</text>
</g>
<!-- Node7 -->
<g id="node12" class="node"><title>Node7</title>
<a xlink:href="classvec_a_m_o_r_e.html" target="_top" xlink:title="{vecAMORE\&lt; T \&gt;\n|# ldata\l|+ getLdata()\l+ setLdata()\l+ size()\l+ push_back()\l+ append()\l+ show()\l+ validate()\l}">
<polygon fill="white" stroke="black" points="175.5,-364.5 175.5,-487.5 268.5,-487.5 268.5,-364.5 175.5,-364.5"/>
<text text-anchor="middle" x="222" y="-474.5" font-family="Helvetica,sans-Serif" font-size="10.00">vecAMORE&lt; T &gt;</text>
<polyline fill="none" stroke="black" points="175.5,-468.5 268.5,-468.5 "/>
<text text-anchor="start" x="183.5" y="-455.5" font-family="Helvetica,sans-Serif" font-size="10.00"># ldata</text>
<polyline fill="none" stroke="black" points="175.5,-449.5 268.5,-449.5 "/>
<text text-anchor="start" x="183.5" y="-436.5" font-family="Helvetica,sans-Serif" font-size="10.00">+ getLdata()</text>
<text text-anchor="start" x="183.5" y="-425.5" font-family="Helvetica,sans-Serif" font-size="10.00">+ setLdata()</text>
<text text-anchor="start" x="183.5" y="-414.5" font-family="Helvetica,sans-Serif" font-size="10.00">+ size()</text>
<text text-anchor="start" x="183.5" y="-403.5" font-family="Helvetica,sans-Serif" font-size="10.00">+ push_back()</text>
<text text-anchor="start" x="183.5" y="-392.5" font-family="Helvetica,sans-Serif" font-size="10.00">+ append()</text>
<text text-anchor="start" x="183.5" y="-381.5" font-family="Helvetica,sans-Serif" font-size="10.00">+ show()</text>
<text text-anchor="start" x="183.5" y="-370.5" font-family="Helvetica,sans-Serif" font-size="10.00">+ validate()</text>
</a>
</g>
<!-- Node7&#45;&gt;Node3 -->
<g id="edge12" class="edge"><title>Node7&#45;&gt;Node3</title>
<path fill="none" stroke="orange" stroke-dasharray="5,2" d="M195.584,-355.008C190.738,-341.983 185.715,-328.485 180.98,-315.758"/>
<polygon fill="orange" stroke="orange" points="192.308,-356.238 199.075,-364.39 198.868,-353.797 192.308,-356.238"/>
<text text-anchor="middle" x="216" y="-336.5" font-family="Helvetica,sans-Serif" font-size="10.00">&lt; Neuron &gt;</text>
</g>
<!-- Node8&#45;&gt;Node7 -->
<g id="edge14" class="edge"><title>Node8&#45;&gt;Node7</title>
<path fill="none" stroke="#9a32cd" stroke-dasharray="5,2" d="M247.345,-572.528C243.115,-548.073 237.543,-515.861 232.701,-487.868"/>
<polygon fill="#9a32cd" stroke="#9a32cd" points="249.07,-582.499 242.931,-573.413 248.218,-577.572 247.366,-572.646 247.366,-572.646 247.366,-572.646 248.218,-577.572 251.8,-571.878 249.07,-582.499 249.07,-582.499"/>
<text text-anchor="middle" x="255.5" y="-531.5" font-family="Helvetica,sans-Serif" font-size="10.00">ldata</text>
</g>
</g>
</svg>
