<?xml version="1.0" encoding="UTF-8" standalone="no"?>
<!DOCTYPE svg PUBLIC "-//W3C//DTD SVG 1.1//EN"
 "http://www.w3.org/Graphics/SVG/1.1/DTD/svg11.dtd">
<!-- Generated by graphviz version 2.25.20091207.0545 (20091207.0545)
 -->
<!-- Title: G Pages: 1 -->
<svg width="351pt" height="786pt"
 viewBox="0.00 0.00 351.00 786.00" xmlns="http://www.w3.org/2000/svg" xmlns:xlink="http://www.w3.org/1999/xlink">
<g id="graph1" class="graph" transform="scale(1 1) rotate(0) translate(4 782)">
<title>G</title>
<polygon fill="white" stroke="white" points="-4,5 -4,-782 348,-782 348,5 -4,5"/>
<!-- Node1 -->
<g id="node1" class="node"><title>Node1</title>
<polygon fill="#bfbfbf" stroke="black" points="104,-0.5 104,-79.5 188,-79.5 188,-0.5 104,-0.5"/>
<text text-anchor="middle" x="146" y="-66.5" font-family="Helvetica,sans-Serif" font-size="10.00">vecCon</text>
<polyline fill="none" stroke="black" points="104,-60.5 188,-60.5 "/>
<text text-anchor="middle" x="146" y="-47.5" font-family="Helvetica,sans-Serif" font-size="10.00"> </text>
<polyline fill="none" stroke="black" points="104,-41.5 188,-41.5 "/>
<text text-anchor="start" x="112" y="-28.5" font-family="Helvetica,sans-Serif" font-size="10.00">+ numOfCons()</text>
<text text-anchor="start" x="112" y="-17.5" font-family="Helvetica,sans-Serif" font-size="10.00">+ getFromId()</text>
<text text-anchor="start" x="112" y="-6.5" font-family="Helvetica,sans-Serif" font-size="10.00">+ populate()</text>
</g>
<!-- Node2 -->
<g id="node2" class="node"><title>Node2</title>
<a xlink:href="classvec_a_m_o_r_e.html" target="_top" xlink:title="{vecAMORE\&lt; Con \&gt;\n|# ldata\l|+ getLdata()\l+ setLdata()\l+ size()\l+ push_back()\l+ append()\l+ show()\l+ validate()\l}">
<polygon fill="white" stroke="black" points="93.5,-118.5 93.5,-241.5 198.5,-241.5 198.5,-118.5 93.5,-118.5"/>
<text text-anchor="middle" x="146" y="-228.5" font-family="Helvetica,sans-Serif" font-size="10.00">vecAMORE&lt; Con &gt;</text>
<polyline fill="none" stroke="black" points="93.5,-222.5 198.5,-222.5 "/>
<text text-anchor="start" x="101.5" y="-209.5" font-family="Helvetica,sans-Serif" font-size="10.00"># ldata</text>
<polyline fill="none" stroke="black" points="93.5,-203.5 198.5,-203.5 "/>
<text text-anchor="start" x="101.5" y="-190.5" font-family="Helvetica,sans-Serif" font-size="10.00">+ getLdata()</text>
<text text-anchor="start" x="101.5" y="-179.5" font-family="Helvetica,sans-Serif" font-size="10.00">+ setLdata()</text>
<text text-anchor="start" x="101.5" y="-168.5" font-family="Helvetica,sans-Serif" font-size="10.00">+ size()</text>
<text text-anchor="start" x="101.5" y="-157.5" font-family="Helvetica,sans-Serif" font-size="10.00">+ push_back()</text>
<text text-anchor="start" x="101.5" y="-146.5" font-family="Helvetica,sans-Serif" font-size="10.00">+ append()</text>
<text text-anchor="start" x="101.5" y="-135.5" font-family="Helvetica,sans-Serif" font-size="10.00">+ show()</text>
<text text-anchor="start" x="101.5" y="-124.5" font-family="Helvetica,sans-Serif" font-size="10.00">+ validate()</text>
</a>
</g>
<!-- Node2&#45;&gt;Node1 -->
<g id="edge2" class="edge"><title>Node2&#45;&gt;Node1</title>
<path fill="none" stroke="midnightblue" d="M146,-108.057C146,-98.3238 146,-88.6408 146,-79.7614"/>
<polygon fill="none" stroke="midnightblue" points="142.5,-108.186 146,-118.186 149.5,-108.186 142.5,-108.186"/>
</g>
<!-- Node3 -->
<g id="node4" class="node"><title>Node3</title>
<polygon fill="white" stroke="#bfbfbf" points="0,-432.5 0,-489.5 192,-489.5 192,-432.5 0,-432.5"/>
<text text-anchor="middle" x="96" y="-476.5" font-family="Helvetica,sans-Serif" font-size="10.00">std::vector&lt; boost::shared_ptr&lt; Con &gt; &gt;</text>
<polyline fill="none" stroke="#bfbfbf" points="0,-470.5 192,-470.5 "/>
<text text-anchor="start" x="8" y="-457.5" font-family="Helvetica,sans-Serif" font-size="10.00">&#45; elements</text>
<polyline fill="none" stroke="#bfbfbf" points="0,-451.5 192,-451.5 "/>
<text text-anchor="middle" x="96" y="-438.5" font-family="Helvetica,sans-Serif" font-size="10.00"> </text>
</g>
<!-- Node3&#45;&gt;Node2 -->
<g id="edge4" class="edge"><title>Node3&#45;&gt;Node2</title>
<path fill="none" stroke="#9a32cd" stroke-dasharray="5,2" d="M102.895,-422.25C111.189,-375.636 125.217,-296.799 135.01,-241.764"/>
<polygon fill="#9a32cd" stroke="#9a32cd" points="101.116,-432.249 98.4374,-421.615 101.992,-427.326 102.868,-422.403 102.868,-422.403 102.868,-422.403 101.992,-427.326 107.298,-423.192 101.116,-432.249 101.116,-432.249"/>
<text text-anchor="middle" x="137.5" y="-348.5" font-family="Helvetica,sans-Serif" font-size="10.00">ldata</text>
</g>
<!-- Node4 -->
<g id="node6" class="node"><title>Node4</title>
<a xlink:title="STL class.">
<polygon fill="white" stroke="#bfbfbf" points="120.5,-614.5 120.5,-671.5 207.5,-671.5 207.5,-614.5 120.5,-614.5"/>
<text text-anchor="middle" x="164" y="-658.5" font-family="Helvetica,sans-Serif" font-size="10.00">std::vector&lt; T &gt;</text>
<polyline fill="none" stroke="#bfbfbf" points="120.5,-652.5 207.5,-652.5 "/>
<text text-anchor="start" x="128.5" y="-639.5" font-family="Helvetica,sans-Serif" font-size="10.00">&#45; elements</text>
<polyline fill="none" stroke="#bfbfbf" points="120.5,-633.5 207.5,-633.5 "/>
<text text-anchor="middle" x="164" y="-620.5" font-family="Helvetica,sans-Serif" font-size="10.00"> </text>
</a>
</g>
<!-- Node4&#45;&gt;Node3 -->
<g id="edge6" class="edge"><title>Node4&#45;&gt;Node3</title>
<path fill="none" stroke="orange" stroke-dasharray="5,2" d="M111.191,-621.955C100.727,-615.266 91.1016,-606.73 85,-596 66.3434,-563.192 75.4042,-518.458 84.7607,-489.647"/>
<polygon fill="orange" stroke="orange" points="109.714,-625.145 120.118,-627.147 113.233,-619.094 109.714,-625.145"/>
<text text-anchor="middle" x="150" y="-586.5" font-family="Helvetica,sans-Serif" font-size="10.00">&lt; boost::shared_ptr&lt; Con &gt; &gt;</text>
</g>
<!-- Node7 -->
<g id="node12" class="node"><title>Node7</title>
<polygon fill="white" stroke="#bfbfbf" points="146,-508.5 146,-565.5 326,-565.5 326,-508.5 146,-508.5"/>
<text text-anchor="middle" x="236" y="-552.5" font-family="Helvetica,sans-Serif" font-size="10.00">std::vector&lt; boost::shared_ptr&lt; T &gt; &gt;</text>
<polyline fill="none" stroke="#bfbfbf" points="146,-546.5 326,-546.5 "/>
<text text-anchor="start" x="154" y="-533.5" font-family="Helvetica,sans-Serif" font-size="10.00">&#45; elements</text>
<polyline fill="none" stroke="#bfbfbf" points="146,-527.5 326,-527.5 "/>
<text text-anchor="middle" x="236" y="-514.5" font-family="Helvetica,sans-Serif" font-size="10.00"> </text>
</g>
<!-- Node4&#45;&gt;Node7 -->
<g id="edge14" class="edge"><title>Node4&#45;&gt;Node7</title>
<path fill="none" stroke="orange" stroke-dasharray="5,2" d="M210.511,-607.072C213.638,-603.549 216.523,-599.846 219,-596 224.829,-586.948 228.705,-575.855 231.261,-565.74"/>
<polygon fill="orange" stroke="orange" points="207.779,-604.862 203.342,-614.482 212.81,-609.729 207.779,-604.862"/>
<text text-anchor="middle" x="284" y="-586.5" font-family="Helvetica,sans-Serif" font-size="10.00">&lt; boost::shared_ptr&lt; T &gt; &gt;</text>
</g>
<!-- Node5 -->
<g id="node8" class="node"><title>Node5</title>
<polygon fill="white" stroke="#bfbfbf" points="149.5,-720.5 149.5,-777.5 178.5,-777.5 178.5,-720.5 149.5,-720.5"/>
<text text-anchor="middle" x="164" y="-764.5" font-family="Helvetica,sans-Serif" font-size="10.00">T</text>
<polyline fill="none" stroke="#bfbfbf" points="149.5,-758.5 178.5,-758.5 "/>
<text text-anchor="middle" x="164" y="-745.5" font-family="Helvetica,sans-Serif" font-size="10.00"> </text>
<polyline fill="none" stroke="#bfbfbf" points="149.5,-739.5 178.5,-739.5 "/>
<text text-anchor="middle" x="164" y="-726.5" font-family="Helvetica,sans-Serif" font-size="10.00"> </text>
</g>
<!-- Node5&#45;&gt;Node4 -->
<g id="edge8" class="edge"><title>Node5&#45;&gt;Node4</title>
<path fill="none" stroke="#9a32cd" stroke-dasharray="5,2" d="M164,-710.005C164,-697.326 164,-683.494 164,-671.708"/>
<polygon fill="#9a32cd" stroke="#9a32cd" points="164,-720.315 159.5,-710.315 164,-715.315 164,-710.315 164,-710.315 164,-710.315 164,-715.315 168.5,-710.315 164,-720.315 164,-720.315"/>
<text text-anchor="middle" x="184" y="-692.5" font-family="Helvetica,sans-Serif" font-size="10.00">elements</text>
</g>
<!-- Node6 -->
<g id="node10" class="node"><title>Node6</title>
<a xlink:href="classvec_a_m_o_r_e.html" target="_top" xlink:title="{vecAMORE\&lt; T \&gt;\n|# ldata\l|+ getLdata()\l+ setLdata()\l+ size()\l+ push_back()\l+ append()\l+ show()\l+ validate()\l}">
<polygon fill="white" stroke="black" points="162.5,-290.5 162.5,-413.5 255.5,-413.5 255.5,-290.5 162.5,-290.5"/>
<text text-anchor="middle" x="209" y="-400.5" font-family="Helvetica,sans-Serif" font-size="10.00">vecAMORE&lt; T &gt;</text>
<polyline fill="none" stroke="black" points="162.5,-394.5 255.5,-394.5 "/>
<text text-anchor="start" x="170.5" y="-381.5" font-family="Helvetica,sans-Serif" font-size="10.00"># ldata</text>
<polyline fill="none" stroke="black" points="162.5,-375.5 255.5,-375.5 "/>
<text text-anchor="start" x="170.5" y="-362.5" font-family="Helvetica,sans-Serif" font-size="10.00">+ getLdata()</text>
<text text-anchor="start" x="170.5" y="-351.5" font-family="Helvetica,sans-Serif" font-size="10.00">+ setLdata()</text>
<text text-anchor="start" x="170.5" y="-340.5" font-family="Helvetica,sans-Serif" font-size="10.00">+ size()</text>
<text text-anchor="start" x="170.5" y="-329.5" font-family="Helvetica,sans-Serif" font-size="10.00">+ push_back()</text>
<text text-anchor="start" x="170.5" y="-318.5" font-family="Helvetica,sans-Serif" font-size="10.00">+ append()</text>
<text text-anchor="start" x="170.5" y="-307.5" font-family="Helvetica,sans-Serif" font-size="10.00">+ show()</text>
<text text-anchor="start" x="170.5" y="-296.5" font-family="Helvetica,sans-Serif" font-size="10.00">+ validate()</text>
</a>
</g>
<!-- Node6&#45;&gt;Node2 -->
<g id="edge10" class="edge"><title>Node6&#45;&gt;Node2</title>
<path fill="none" stroke="orange" stroke-dasharray="5,2" d="M182.858,-280.628C178.13,-267.721 173.237,-254.361 168.621,-241.758"/>
<polygon fill="orange" stroke="orange" points="179.708,-282.204 186.433,-290.39 186.281,-279.796 179.708,-282.204"/>
<text text-anchor="middle" x="197" y="-262.5" font-family="Helvetica,sans-Serif" font-size="10.00">&lt; Con &gt;</text>
</g>
<!-- Node7&#45;&gt;Node6 -->
<g id="edge12" class="edge"><title>Node7&#45;&gt;Node6</title>
<path fill="none" stroke="#9a32cd" stroke-dasharray="5,2" d="M230.385,-498.528C226.816,-474.073 222.115,-441.861 218.029,-413.868"/>
<polygon fill="#9a32cd" stroke="#9a32cd" points="231.84,-508.499 225.943,-499.254 231.118,-503.552 230.396,-498.604 230.396,-498.604 230.396,-498.604 231.118,-503.552 234.849,-497.954 231.84,-508.499 231.84,-508.499"/>
<text text-anchor="middle" x="238.5" y="-457.5" font-family="Helvetica,sans-Serif" font-size="10.00">ldata</text>
</g>
</g>
</svg>
