<?xml version="1.0" encoding="UTF-8" standalone="no"?>
<!DOCTYPE svg PUBLIC "-//W3C//DTD SVG 1.1//EN"
 "http://www.w3.org/Graphics/SVG/1.1/DTD/svg11.dtd">
<!-- Generated by graphviz version 2.28.0 (20110610.2051)
 -->
<!-- Title: G Pages: 1 -->
<svg width="150pt" height="398pt"
 viewBox="0.00 0.00 150.00 398.00" xmlns="http://www.w3.org/2000/svg" xmlns:xlink="http://www.w3.org/1999/xlink">
<g id="graph1" class="graph" transform="scale(1 1) rotate(0) translate(4 394)">
<title>G</title>
<polygon fill="white" stroke="white" points="-4,5 -4,-394 147,-394 147,5 -4,5"/>
<!-- Node1 -->
<g id="node1" class="node"><title>Node1</title>
<polygon fill="#bfbfbf" stroke="black" points="1,-0.5 1,-57.5 141,-57.5 141,-0.5 1,-0.5"/>
<text text-anchor="middle" x="71" y="-45.5" font-family="Helvetica,sans-Serif" font-size="10.00">IdentityFactory</text>
<polyline fill="none" stroke="black" points="1,-38.5 141,-38.5 "/>
<text text-anchor="middle" x="71" y="-26.5" font-family="Helvetica,sans-Serif" font-size="10.00"> </text>
<polyline fill="none" stroke="black" points="1,-19.5 141,-19.5 "/>
<text text-anchor="start" x="9" y="-7.5" font-family="Helvetica,sans-Serif" font-size="10.00">&#45; makeActivationFunction()</text>
</g>
<!-- Node2 -->
<g id="node2" class="node"><title>Node2</title>
<a xlink:href="class_m_l_pfactory.html" target="_top" xlink:title="class MLPfactory &#45;">
<polygon fill="white" stroke="black" points="0.5,-95 0.5,-229 141.5,-229 141.5,-95 0.5,-95"/>
<text text-anchor="middle" x="71" y="-217" font-family="Helvetica,sans-Serif" font-size="10.00">MLPfactory</text>
<polyline fill="none" stroke="black" points="0.5,-210 141.5,-210 "/>
<text text-anchor="middle" x="71" y="-198" font-family="Helvetica,sans-Serif" font-size="10.00"> </text>
<polyline fill="none" stroke="black" points="0.5,-191 141.5,-191 "/>
<text text-anchor="start" x="8.5" y="-179" font-family="Helvetica,sans-Serif" font-size="10.00">+ MLPfactory()</text>
<text text-anchor="start" x="8.5" y="-168" font-family="Helvetica,sans-Serif" font-size="10.00"># makeCon()</text>
<text text-anchor="start" x="8.5" y="-157" font-family="Helvetica,sans-Serif" font-size="10.00"># makeConContainer()</text>
<text text-anchor="start" x="8.5" y="-146" font-family="Helvetica,sans-Serif" font-size="10.00"># makeActivationFunction()</text>
<text text-anchor="start" x="8.5" y="-135" font-family="Helvetica,sans-Serif" font-size="10.00"># makePredictBehavior()</text>
<text text-anchor="start" x="8.5" y="-124" font-family="Helvetica,sans-Serif" font-size="10.00"># makeNeuron()</text>
<text text-anchor="start" x="8.5" y="-113" font-family="Helvetica,sans-Serif" font-size="10.00"># makeNeuron()</text>
<text text-anchor="start" x="8.5" y="-102" font-family="Helvetica,sans-Serif" font-size="10.00"># makeNeuronContainer()</text>
</a>
</g>
<!-- Node2&#45;&gt;Node1 -->
<g id="edge2" class="edge"><title>Node2&#45;&gt;Node1</title>
<path fill="none" stroke="midnightblue" d="M71,-84.6651C71,-75.0809 71,-65.815 71,-57.7192"/>
<polygon fill="none" stroke="midnightblue" points="67.5001,-84.7324 71,-94.7324 74.5001,-84.7325 67.5001,-84.7324"/>
</g>
<!-- Node3 -->
<g id="node4" class="node"><title>Node3</title>
<a xlink:href="class_neural_factory.html" target="_top" xlink:title="class NeuralFactory &#45;">
<polygon fill="white" stroke="black" points="-0.5,-266.5 -0.5,-389.5 142.5,-389.5 142.5,-266.5 -0.5,-266.5"/>
<text text-anchor="middle" x="71" y="-377.5" font-family="Helvetica,sans-Serif" font-size="10.00">NeuralFactory</text>
<polyline fill="none" stroke="black" points="-0.5,-370.5 142.5,-370.5 "/>
<text text-anchor="middle" x="71" y="-358.5" font-family="Helvetica,sans-Serif" font-size="10.00"> </text>
<polyline fill="none" stroke="black" points="-0.5,-351.5 142.5,-351.5 "/>
<text text-anchor="start" x="7.5" y="-339.5" font-family="Helvetica,sans-Serif" font-size="10.00">+ makeCon()</text>
<text text-anchor="start" x="7.5" y="-328.5" font-family="Helvetica,sans-Serif" font-size="10.00">+ makeConContainer()</text>
<text text-anchor="start" x="7.5" y="-317.5" font-family="Helvetica,sans-Serif" font-size="10.00">+ makeActivationFunction()</text>
<text text-anchor="start" x="7.5" y="-306.5" font-family="Helvetica,sans-Serif" font-size="10.00">+ makePredictBehavior()</text>
<text text-anchor="start" x="7.5" y="-295.5" font-family="Helvetica,sans-Serif" font-size="10.00">+ makeNeuron()</text>
<text text-anchor="start" x="7.5" y="-284.5" font-family="Helvetica,sans-Serif" font-size="10.00">+ makeNeuron()</text>
<text text-anchor="start" x="7.5" y="-273.5" font-family="Helvetica,sans-Serif" font-size="10.00">+ makeNeuronContainer()</text>
</a>
</g>
<!-- Node3&#45;&gt;Node2 -->
<g id="edge4" class="edge"><title>Node3&#45;&gt;Node2</title>
<path fill="none" stroke="midnightblue" d="M71,-256.317C71,-247.296 71,-238.088 71,-229.143"/>
<polygon fill="none" stroke="midnightblue" points="67.5001,-256.398 71,-266.398 74.5001,-256.398 67.5001,-256.398"/>
</g>
</g>
</svg>
