<?xml version="1.0" encoding="UTF-8" standalone="no"?>
<!DOCTYPE svg PUBLIC "-//W3C//DTD SVG 1.1//EN"
 "http://www.w3.org/Graphics/SVG/1.1/DTD/svg11.dtd">
<!-- Generated by graphviz version 2.28.0 (20110610.2051)
 -->
<!-- Title: G Pages: 1 -->
<svg width="176pt" height="300pt"
 viewBox="0.00 0.00 176.00 300.00" xmlns="http://www.w3.org/2000/svg" xmlns:xlink="http://www.w3.org/1999/xlink">
<g id="graph1" class="graph" transform="scale(1 1) rotate(0) translate(4 296)">
<title>G</title>
<polygon fill="white" stroke="white" points="-4,5 -4,-296 173,-296 173,5 -4,5"/>
<!-- Node1 -->
<g id="node1" class="node"><title>Node1</title>
<polygon fill="#bfbfbf" stroke="black" points="-0.5,-0.5 -0.5,-79.5 168.5,-79.5 168.5,-0.5 -0.5,-0.5"/>
<text text-anchor="middle" x="84" y="-67.5" font-family="Helvetica,sans-Serif" font-size="10.00">ADAPTgdNeuronTrainBehavior</text>
<polyline fill="none" stroke="black" points="-0.5,-60.5 168.5,-60.5 "/>
<text text-anchor="start" x="7.5" y="-48.5" font-family="Helvetica,sans-Serif" font-size="10.00"># d_delta</text>
<text text-anchor="start" x="7.5" y="-37.5" font-family="Helvetica,sans-Serif" font-size="10.00"># d_learningRate</text>
<polyline fill="none" stroke="black" points="-0.5,-30.5 168.5,-30.5 "/>
<text text-anchor="start" x="7.5" y="-18.5" font-family="Helvetica,sans-Serif" font-size="10.00">+ singlePatternBackwardAction()</text>
<text text-anchor="start" x="7.5" y="-7.5" font-family="Helvetica,sans-Serif" font-size="10.00">+ endOfEpochAction()</text>
</g>
<!-- Node2 -->
<g id="node2" class="node"><title>Node2</title>
<a xlink:href="class_adapt_neuron_train_behavior.html" target="_top" xlink:title="class AdaptNeuronTrainBehavior &#45;">
<polygon fill="white" stroke="black" points="-0.5,-117 -0.5,-185 168.5,-185 168.5,-117 -0.5,-117"/>
<text text-anchor="middle" x="84" y="-173" font-family="Helvetica,sans-Serif" font-size="10.00">AdaptNeuronTrainBehavior</text>
<polyline fill="none" stroke="black" points="-0.5,-166 168.5,-166 "/>
<text text-anchor="middle" x="84" y="-154" font-family="Helvetica,sans-Serif" font-size="10.00"> </text>
<polyline fill="none" stroke="black" points="-0.5,-147 168.5,-147 "/>
<text text-anchor="start" x="7.5" y="-135" font-family="Helvetica,sans-Serif" font-size="10.00">+ singlePatternBackwardAction()</text>
<text text-anchor="start" x="7.5" y="-124" font-family="Helvetica,sans-Serif" font-size="10.00">+ endOfEpochAction()</text>
</a>
</g>
<!-- Node2&#45;&gt;Node1 -->
<g id="edge2" class="edge"><title>Node2&#45;&gt;Node1</title>
<path fill="none" stroke="midnightblue" d="M84,-106.575C84,-97.7367 84,-88.4932 84,-79.8274"/>
<polygon fill="none" stroke="midnightblue" points="80.5001,-106.704 84,-116.704 87.5001,-106.704 80.5001,-106.704"/>
</g>
<!-- Node3 -->
<g id="node4" class="node"><title>Node3</title>
<a xlink:href="class_neuron_train_behavior.html" target="_top" xlink:title="class NeuronTrainBehavior &#45;">
<polygon fill="white" stroke="black" points="-0.5,-223 -0.5,-291 168.5,-291 168.5,-223 -0.5,-223"/>
<text text-anchor="middle" x="84" y="-279" font-family="Helvetica,sans-Serif" font-size="10.00">NeuronTrainBehavior</text>
<polyline fill="none" stroke="black" points="-0.5,-272 168.5,-272 "/>
<text text-anchor="start" x="7.5" y="-260" font-family="Helvetica,sans-Serif" font-size="10.00"># d_neuron</text>
<polyline fill="none" stroke="black" points="-0.5,-253 168.5,-253 "/>
<text text-anchor="start" x="7.5" y="-241" font-family="Helvetica,sans-Serif" font-size="10.00">+ singlePatternBackwardAction()</text>
<text text-anchor="start" x="7.5" y="-230" font-family="Helvetica,sans-Serif" font-size="10.00">+ endOfEpochAction()</text>
</a>
</g>
<!-- Node3&#45;&gt;Node2 -->
<g id="edge4" class="edge"><title>Node3&#45;&gt;Node2</title>
<path fill="none" stroke="midnightblue" d="M84,-212.674C84,-203.502 84,-193.961 84,-185.234"/>
<polygon fill="none" stroke="midnightblue" points="80.5001,-212.808 84,-222.808 87.5001,-212.808 80.5001,-212.808"/>
</g>
</g>
</svg>
