<?xml version="1.0" encoding="UTF-8" standalone="no"?>
<!DOCTYPE svg PUBLIC "-//W3C//DTD SVG 1.1//EN"
 "http://www.w3.org/Graphics/SVG/1.1/DTD/svg11.dtd">
<!-- Generated by graphviz version 2.25.20091207.0545 (20091207.0545)
 -->
<!-- Title: G Pages: 1 -->
<svg width="383pt" height="964pt"
 viewBox="0.00 0.00 383.00 964.00" xmlns="http://www.w3.org/2000/svg" xmlns:xlink="http://www.w3.org/1999/xlink">
<g id="graph1" class="graph" transform="scale(1 1) rotate(0) translate(4 960)">
<title>G</title>
<polygon fill="white" stroke="white" points="-4,5 -4,-960 380,-960 380,5 -4,5"/>
<!-- Node1 -->
<g id="node1" class="node"><title>Node1</title>
<polygon fill="#bfbfbf" stroke="black" points="111.5,-0.5 111.5,-57.5 210.5,-57.5 210.5,-0.5 111.5,-0.5"/>
<text text-anchor="middle" x="161" y="-44.5" font-family="Helvetica,sans-Serif" font-size="10.00">MLPlayerContainer</text>
<polyline fill="none" stroke="black" points="111.5,-38.5 210.5,-38.5 "/>
<text text-anchor="middle" x="161" y="-25.5" font-family="Helvetica,sans-Serif" font-size="10.00"> </text>
<polyline fill="none" stroke="black" points="111.5,-19.5 210.5,-19.5 "/>
<text text-anchor="middle" x="161" y="-6.5" font-family="Helvetica,sans-Serif" font-size="10.00"> </text>
</g>
<!-- Node2 -->
<g id="node2" class="node"><title>Node2</title>
<a xlink:href="class_container.html" target="_top" xlink:title="{Container\&lt; MLPlayer \&gt;\n|# collection\l|+ Container()\l+ Container()\l+ begin()\l+ end()\l+ load()\l+ store()\l+ size()\l+ push_back()\l+ append()\l+ show()\l+ validate()\l+ reserve()\l+ resize()\l+ empty()\l+ clear()\l+ operator[]()\l}">
<polygon fill="white" stroke="black" points="102.5,-97 102.5,-319 219.5,-319 219.5,-97 102.5,-97"/>
<text text-anchor="middle" x="161" y="-306" font-family="Helvetica,sans-Serif" font-size="10.00">Container&lt; MLPlayer &gt;</text>
<polyline fill="none" stroke="black" points="102.5,-300 219.5,-300 "/>
<text text-anchor="start" x="110.5" y="-287" font-family="Helvetica,sans-Serif" font-size="10.00"># collection</text>
<polyline fill="none" stroke="black" points="102.5,-281 219.5,-281 "/>
<text text-anchor="start" x="110.5" y="-268" font-family="Helvetica,sans-Serif" font-size="10.00">+ Container()</text>
<text text-anchor="start" x="110.5" y="-257" font-family="Helvetica,sans-Serif" font-size="10.00">+ Container()</text>
<text text-anchor="start" x="110.5" y="-246" font-family="Helvetica,sans-Serif" font-size="10.00">+ begin()</text>
<text text-anchor="start" x="110.5" y="-235" font-family="Helvetica,sans-Serif" font-size="10.00">+ end()</text>
<text text-anchor="start" x="110.5" y="-224" font-family="Helvetica,sans-Serif" font-size="10.00">+ load()</text>
<text text-anchor="start" x="110.5" y="-213" font-family="Helvetica,sans-Serif" font-size="10.00">+ store()</text>
<text text-anchor="start" x="110.5" y="-202" font-family="Helvetica,sans-Serif" font-size="10.00">+ size()</text>
<text text-anchor="start" x="110.5" y="-191" font-family="Helvetica,sans-Serif" font-size="10.00">+ push_back()</text>
<text text-anchor="start" x="110.5" y="-180" font-family="Helvetica,sans-Serif" font-size="10.00">+ append()</text>
<text text-anchor="start" x="110.5" y="-169" font-family="Helvetica,sans-Serif" font-size="10.00">+ show()</text>
<text text-anchor="start" x="110.5" y="-158" font-family="Helvetica,sans-Serif" font-size="10.00">+ validate()</text>
<text text-anchor="start" x="110.5" y="-147" font-family="Helvetica,sans-Serif" font-size="10.00">+ reserve()</text>
<text text-anchor="start" x="110.5" y="-136" font-family="Helvetica,sans-Serif" font-size="10.00">+ resize()</text>
<text text-anchor="start" x="110.5" y="-125" font-family="Helvetica,sans-Serif" font-size="10.00">+ empty()</text>
<text text-anchor="start" x="110.5" y="-114" font-family="Helvetica,sans-Serif" font-size="10.00">+ clear()</text>
<text text-anchor="start" x="110.5" y="-103" font-family="Helvetica,sans-Serif" font-size="10.00">+ operator[]()</text>
</a>
</g>
<!-- Node2&#45;&gt;Node1 -->
<g id="edge2" class="edge"><title>Node2&#45;&gt;Node1</title>
<path fill="none" stroke="midnightblue" d="M161,-86.6242C161,-76.0712 161,-66.1983 161,-57.709"/>
<polygon fill="none" stroke="midnightblue" points="157.5,-86.9274 161,-96.9275 164.5,-86.9275 157.5,-86.9274"/>
</g>
<!-- Node3 -->
<g id="node4" class="node"><title>Node3</title>
<polygon fill="white" stroke="#bfbfbf" points="0,-610.5 0,-667.5 216,-667.5 216,-610.5 0,-610.5"/>
<text text-anchor="middle" x="108" y="-654.5" font-family="Helvetica,sans-Serif" font-size="10.00">std::vector&lt; boost::shared_ptr&lt; MLPlayer &gt; &gt;</text>
<polyline fill="none" stroke="#bfbfbf" points="0,-648.5 216,-648.5 "/>
<text text-anchor="start" x="8" y="-635.5" font-family="Helvetica,sans-Serif" font-size="10.00">&#45; elements</text>
<polyline fill="none" stroke="#bfbfbf" points="0,-629.5 216,-629.5 "/>
<text text-anchor="middle" x="108" y="-616.5" font-family="Helvetica,sans-Serif" font-size="10.00"> </text>
</g>
<!-- Node3&#45;&gt;Node2 -->
<g id="edge4" class="edge"><title>Node3&#45;&gt;Node2</title>
<path fill="none" stroke="#9a32cd" stroke-dasharray="5,2" d="M112.777,-600.153C120.49,-537.426 135.97,-411.547 147.318,-319.262"/>
<polygon fill="#9a32cd" stroke="#9a32cd" points="111.519,-610.387 108.273,-599.913 112.129,-605.424 112.739,-600.462 112.739,-600.462 112.739,-600.462 112.129,-605.424 117.205,-601.011 111.519,-610.387 111.519,-610.387"/>
<text text-anchor="middle" x="162.5" y="-476.5" font-family="Helvetica,sans-Serif" font-size="10.00">collection</text>
</g>
<!-- Node4 -->
<g id="node6" class="node"><title>Node4</title>
<a xlink:title="STL class.">
<polygon fill="white" stroke="#bfbfbf" points="141.5,-792.5 141.5,-849.5 228.5,-849.5 228.5,-792.5 141.5,-792.5"/>
<text text-anchor="middle" x="185" y="-836.5" font-family="Helvetica,sans-Serif" font-size="10.00">std::vector&lt; T &gt;</text>
<polyline fill="none" stroke="#bfbfbf" points="141.5,-830.5 228.5,-830.5 "/>
<text text-anchor="start" x="149.5" y="-817.5" font-family="Helvetica,sans-Serif" font-size="10.00">&#45; elements</text>
<polyline fill="none" stroke="#bfbfbf" points="141.5,-811.5 228.5,-811.5 "/>
<text text-anchor="middle" x="185" y="-798.5" font-family="Helvetica,sans-Serif" font-size="10.00"> </text>
</a>
</g>
<!-- Node4&#45;&gt;Node3 -->
<g id="edge6" class="edge"><title>Node4&#45;&gt;Node3</title>
<path fill="none" stroke="orange" stroke-dasharray="5,2" d="M132.041,-805.411C117.142,-798.313 102.655,-788.211 94,-774 74.2673,-741.599 84.8919,-696.557 95.4948,-667.589"/>
<polygon fill="orange" stroke="orange" points="130.756,-808.669 141.322,-809.452 133.55,-802.251 130.756,-808.669"/>
<text text-anchor="middle" x="170.5" y="-764.5" font-family="Helvetica,sans-Serif" font-size="10.00">&lt; boost::shared_ptr&lt; MLPlayer &gt; &gt;</text>
</g>
<!-- Node7 -->
<g id="node12" class="node"><title>Node7</title>
<polygon fill="white" stroke="#bfbfbf" points="177,-686.5 177,-743.5 357,-743.5 357,-686.5 177,-686.5"/>
<text text-anchor="middle" x="267" y="-730.5" font-family="Helvetica,sans-Serif" font-size="10.00">std::vector&lt; boost::shared_ptr&lt; T &gt; &gt;</text>
<polyline fill="none" stroke="#bfbfbf" points="177,-724.5 357,-724.5 "/>
<text text-anchor="start" x="185" y="-711.5" font-family="Helvetica,sans-Serif" font-size="10.00">&#45; elements</text>
<polyline fill="none" stroke="#bfbfbf" points="177,-705.5 357,-705.5 "/>
<text text-anchor="middle" x="267" y="-692.5" font-family="Helvetica,sans-Serif" font-size="10.00"> </text>
</g>
<!-- Node4&#45;&gt;Node7 -->
<g id="edge14" class="edge"><title>Node4&#45;&gt;Node7</title>
<path fill="none" stroke="orange" stroke-dasharray="5,2" d="M236.712,-789.808C242.069,-785.021 247.003,-779.739 251,-774 257.187,-765.117 260.984,-753.946 263.313,-743.721"/>
<polygon fill="orange" stroke="orange" points="234.122,-787.407 228.623,-796.463 238.569,-792.813 234.122,-787.407"/>
<text text-anchor="middle" x="316" y="-764.5" font-family="Helvetica,sans-Serif" font-size="10.00">&lt; boost::shared_ptr&lt; T &gt; &gt;</text>
</g>
<!-- Node5 -->
<g id="node8" class="node"><title>Node5</title>
<polygon fill="white" stroke="#bfbfbf" points="170.5,-898.5 170.5,-955.5 199.5,-955.5 199.5,-898.5 170.5,-898.5"/>
<text text-anchor="middle" x="185" y="-942.5" font-family="Helvetica,sans-Serif" font-size="10.00">T</text>
<polyline fill="none" stroke="#bfbfbf" points="170.5,-936.5 199.5,-936.5 "/>
<text text-anchor="middle" x="185" y="-923.5" font-family="Helvetica,sans-Serif" font-size="10.00"> </text>
<polyline fill="none" stroke="#bfbfbf" points="170.5,-917.5 199.5,-917.5 "/>
<text text-anchor="middle" x="185" y="-904.5" font-family="Helvetica,sans-Serif" font-size="10.00"> </text>
</g>
<!-- Node5&#45;&gt;Node4 -->
<g id="edge8" class="edge"><title>Node5&#45;&gt;Node4</title>
<path fill="none" stroke="#9a32cd" stroke-dasharray="5,2" d="M185,-888.005C185,-875.326 185,-861.494 185,-849.708"/>
<polygon fill="#9a32cd" stroke="#9a32cd" points="185,-898.315 180.5,-888.315 185,-893.315 185,-888.315 185,-888.315 185,-888.315 185,-893.315 189.5,-888.315 185,-898.315 185,-898.315"/>
<text text-anchor="middle" x="205" y="-870.5" font-family="Helvetica,sans-Serif" font-size="10.00">elements</text>
</g>
<!-- Node6 -->
<g id="node10" class="node"><title>Node6</title>
<a xlink:href="class_container.html" target="_top" xlink:title="{Container\&lt; T \&gt;\n|# collection\l|+ Container()\l+ Container()\l+ begin()\l+ end()\l+ load()\l+ store()\l+ size()\l+ push_back()\l+ append()\l+ show()\l+ validate()\l+ reserve()\l+ resize()\l+ empty()\l+ clear()\l+ operator[]()\l}">
<polygon fill="white" stroke="black" points="194,-369 194,-591 276,-591 276,-369 194,-369"/>
<text text-anchor="middle" x="235" y="-578" font-family="Helvetica,sans-Serif" font-size="10.00">Container&lt; T &gt;</text>
<polyline fill="none" stroke="black" points="194,-572 276,-572 "/>
<text text-anchor="start" x="202" y="-559" font-family="Helvetica,sans-Serif" font-size="10.00"># collection</text>
<polyline fill="none" stroke="black" points="194,-553 276,-553 "/>
<text text-anchor="start" x="202" y="-540" font-family="Helvetica,sans-Serif" font-size="10.00">+ Container()</text>
<text text-anchor="start" x="202" y="-529" font-family="Helvetica,sans-Serif" font-size="10.00">+ Container()</text>
<text text-anchor="start" x="202" y="-518" font-family="Helvetica,sans-Serif" font-size="10.00">+ begin()</text>
<text text-anchor="start" x="202" y="-507" font-family="Helvetica,sans-Serif" font-size="10.00">+ end()</text>
<text text-anchor="start" x="202" y="-496" font-family="Helvetica,sans-Serif" font-size="10.00">+ load()</text>
<text text-anchor="start" x="202" y="-485" font-family="Helvetica,sans-Serif" font-size="10.00">+ store()</text>
<text text-anchor="start" x="202" y="-474" font-family="Helvetica,sans-Serif" font-size="10.00">+ size()</text>
<text text-anchor="start" x="202" y="-463" font-family="Helvetica,sans-Serif" font-size="10.00">+ push_back()</text>
<text text-anchor="start" x="202" y="-452" font-family="Helvetica,sans-Serif" font-size="10.00">+ append()</text>
<text text-anchor="start" x="202" y="-441" font-family="Helvetica,sans-Serif" font-size="10.00">+ show()</text>
<text text-anchor="start" x="202" y="-430" font-family="Helvetica,sans-Serif" font-size="10.00">+ validate()</text>
<text text-anchor="start" x="202" y="-419" font-family="Helvetica,sans-Serif" font-size="10.00">+ reserve()</text>
<text text-anchor="start" x="202" y="-408" font-family="Helvetica,sans-Serif" font-size="10.00">+ resize()</text>
<text text-anchor="start" x="202" y="-397" font-family="Helvetica,sans-Serif" font-size="10.00">+ empty()</text>
<text text-anchor="start" x="202" y="-386" font-family="Helvetica,sans-Serif" font-size="10.00">+ clear()</text>
<text text-anchor="start" x="202" y="-375" font-family="Helvetica,sans-Serif" font-size="10.00">+ operator[]()</text>
</a>
</g>
<!-- Node6&#45;&gt;Node2 -->
<g id="edge10" class="edge"><title>Node6&#45;&gt;Node2</title>
<path fill="none" stroke="orange" stroke-dasharray="5,2" d="M202.158,-359.285C198.522,-345.918 194.831,-332.351 191.229,-319.111"/>
<polygon fill="orange" stroke="orange" points="198.792,-360.244 204.795,-368.975 205.547,-358.407 198.792,-360.244"/>
<text text-anchor="middle" x="227.5" y="-340.5" font-family="Helvetica,sans-Serif" font-size="10.00">&lt; MLPlayer &gt;</text>
</g>
<!-- Node7&#45;&gt;Node6 -->
<g id="edge12" class="edge"><title>Node7&#45;&gt;Node6</title>
<path fill="none" stroke="#9a32cd" stroke-dasharray="5,2" d="M261.692,-676.017C258.51,-652.654 254.289,-621.655 250.145,-591.22"/>
<polygon fill="#9a32cd" stroke="#9a32cd" points="263.076,-686.184 257.268,-676.883 262.402,-681.23 261.727,-676.276 261.727,-676.276 261.727,-676.276 262.402,-681.23 266.186,-675.669 263.076,-686.184 263.076,-686.184"/>
<text text-anchor="middle" x="280.5" y="-635.5" font-family="Helvetica,sans-Serif" font-size="10.00">collection</text>
</g>
</g>
</svg>
