<?xml version="1.0" encoding="UTF-8" standalone="no"?>
<!DOCTYPE svg PUBLIC "-//W3C//DTD SVG 1.1//EN"
 "http://www.w3.org/Graphics/SVG/1.1/DTD/svg11.dtd">
<!-- Generated by graphviz version 2.25.20091207.0545 (20091207.0545)
 -->
<!-- Title: G Pages: 1 -->
<svg width="360pt" height="28pt"
 viewBox="0.00 0.00 360.00 28.00" xmlns="http://www.w3.org/2000/svg" xmlns:xlink="http://www.w3.org/1999/xlink">
<g id="graph1" class="graph" transform="scale(1 1) rotate(0) translate(4 24)">
<title>G</title>
<polygon fill="white" stroke="white" points="-4,5 -4,-24 357,-24 357,5 -4,5"/>
<!-- Node1 -->
<g id="node1" class="node"><title>Node1</title>
<polygon fill="#bfbfbf" stroke="black" points="0,-0.5 0,-19.5 96,-19.5 96,-0.5 0,-0.5"/>
<text text-anchor="middle" x="48" y="-6.5" font-family="Helvetica,sans-Serif" font-size="10.00">Container::reserve</text>
</g>
<!-- Node2 -->
<g id="node3" class="node"><title>Node2</title>
<a xlink:href="class_vec_con.html#ad9dc02872d29a1a58f5079457c3f8001" target="_top" xlink:title="Getter of the from field of the Con objects related to VecCon.">
<polygon fill="white" stroke="black" points="132.5,-0.5 132.5,-19.5 225.5,-19.5 225.5,-0.5 132.5,-0.5"/>
<text text-anchor="middle" x="179" y="-6.5" font-family="Helvetica,sans-Serif" font-size="10.00">VecCon::getFrom</text>
</a>
</g>
<!-- Node1&#45;&gt;Node2 -->
<g id="edge2" class="edge"><title>Node1&#45;&gt;Node2</title>
<path fill="none" stroke="midnightblue" d="M106.174,-10C114.911,-10 123.824,-10 132.281,-10"/>
<polygon fill="midnightblue" stroke="midnightblue" points="106.036,-6.5001 96.0357,-10 106.036,-13.5001 106.036,-6.5001"/>
</g>
<!-- Node3 -->
<g id="node5" class="node"><title>Node3</title>
<a xlink:href="class_neuron.html#a49a8d313aacc9b2f737343e1c3be75dc" target="_top" xlink:title="Neuron::getFrom">
<polygon fill="white" stroke="black" points="262,-0.5 262,-19.5 352,-19.5 352,-0.5 262,-0.5"/>
<text text-anchor="middle" x="307" y="-6.5" font-family="Helvetica,sans-Serif" font-size="10.00">Neuron::getFrom</text>
</a>
</g>
<!-- Node2&#45;&gt;Node3 -->
<g id="edge4" class="edge"><title>Node2&#45;&gt;Node3</title>
<path fill="none" stroke="midnightblue" d="M235.75,-10C244.525,-10 253.485,-10 261.958,-10"/>
<polygon fill="midnightblue" stroke="midnightblue" points="235.573,-6.5001 225.573,-10 235.573,-13.5001 235.573,-6.5001"/>
</g>
</g>
</svg>
