<?xml version="1.0" encoding="UTF-8" standalone="no"?>
<!DOCTYPE svg PUBLIC "-//W3C//DTD SVG 1.1//EN"
 "http://www.w3.org/Graphics/SVG/1.1/DTD/svg11.dtd">
<!-- Generated by graphviz version 2.28.0 (20110610.2051)
 -->
<!-- Title: G Pages: 1 -->
<svg width="362pt" height="1392pt"
 viewBox="0.00 0.00 362.00 1392.00" xmlns="http://www.w3.org/2000/svg" xmlns:xlink="http://www.w3.org/1999/xlink">
<g id="graph1" class="graph" transform="scale(1 1) rotate(0) translate(4 1388)">
<title>G</title>
<polygon fill="white" stroke="white" points="-4,5 -4,-1388 359,-1388 359,5 -4,5"/>
<!-- Node1 -->
<g id="node1" class="node"><title>Node1</title>
<polygon fill="#bfbfbf" stroke="black" points="93.5,-1 93.5,-157 190.5,-157 190.5,-1 93.5,-1"/>
<text text-anchor="middle" x="142" y="-145" font-family="Helvetica,sans-Serif" font-size="10.00">ConContainer</text>
<polyline fill="none" stroke="black" points="93.5,-138 190.5,-138 "/>
<text text-anchor="middle" x="142" y="-126" font-family="Helvetica,sans-Serif" font-size="10.00"> </text>
<polyline fill="none" stroke="black" points="93.5,-119 190.5,-119 "/>
<text text-anchor="start" x="101.5" y="-107" font-family="Helvetica,sans-Serif" font-size="10.00">+ ConContainer()</text>
<text text-anchor="start" x="101.5" y="-96" font-family="Helvetica,sans-Serif" font-size="10.00">+ ConContainer()</text>
<text text-anchor="start" x="101.5" y="-85" font-family="Helvetica,sans-Serif" font-size="10.00">+ numOfCons()</text>
<text text-anchor="start" x="101.5" y="-74" font-family="Helvetica,sans-Serif" font-size="10.00">+ getId()</text>
<text text-anchor="start" x="101.5" y="-63" font-family="Helvetica,sans-Serif" font-size="10.00">+ setWeight()</text>
<text text-anchor="start" x="101.5" y="-52" font-family="Helvetica,sans-Serif" font-size="10.00">+ setWeight()</text>
<text text-anchor="start" x="101.5" y="-41" font-family="Helvetica,sans-Serif" font-size="10.00">+ setFrom()</text>
<text text-anchor="start" x="101.5" y="-30" font-family="Helvetica,sans-Serif" font-size="10.00">+ erase()</text>
<text text-anchor="start" x="101.5" y="-19" font-family="Helvetica,sans-Serif" font-size="10.00">+ select()</text>
<text text-anchor="start" x="101.5" y="-8" font-family="Helvetica,sans-Serif" font-size="10.00">+ validate()</text>
</g>
<!-- Node2 -->
<g id="node2" class="node"><title>Node2</title>
<a xlink:href="class_container.html" target="_top" xlink:title="{Container\&lt; Con \&gt;\n|# collection\l|+ Container()\l+ Container()\l+ Container()\l+ Container()\l+ buildAndAppend()\l+ push_back()\l+ push_back()\l+ erase()\l+ begin()\l+ begin()\l+ end()\l+ end()\l+ reserve()\l+ reserve()\l+ resize()\l+ resize()\l+ empty()\l+ empty()\l+ size()\l+ size()\l+ clear()\l+ clear()\l+ insert()\l+ show()\l+ show()\l+ validate()\l+ validate()\l+ load()\l+ store()\l+ append()\l+ operator[]()\l}">
<polygon fill="white" stroke="black" points="87,-196.5 87,-583.5 197,-583.5 197,-196.5 87,-196.5"/>
<text text-anchor="middle" x="142" y="-571.5" font-family="Helvetica,sans-Serif" font-size="10.00">Container&lt; Con &gt;</text>
<polyline fill="none" stroke="black" points="87,-564.5 197,-564.5 "/>
<text text-anchor="start" x="95" y="-552.5" font-family="Helvetica,sans-Serif" font-size="10.00"># collection</text>
<polyline fill="none" stroke="black" points="87,-545.5 197,-545.5 "/>
<text text-anchor="start" x="95" y="-533.5" font-family="Helvetica,sans-Serif" font-size="10.00">+ Container()</text>
<text text-anchor="start" x="95" y="-522.5" font-family="Helvetica,sans-Serif" font-size="10.00">+ Container()</text>
<text text-anchor="start" x="95" y="-511.5" font-family="Helvetica,sans-Serif" font-size="10.00">+ Container()</text>
<text text-anchor="start" x="95" y="-500.5" font-family="Helvetica,sans-Serif" font-size="10.00">+ Container()</text>
<text text-anchor="start" x="95" y="-489.5" font-family="Helvetica,sans-Serif" font-size="10.00">+ buildAndAppend()</text>
<text text-anchor="start" x="95" y="-478.5" font-family="Helvetica,sans-Serif" font-size="10.00">+ push_back()</text>
<text text-anchor="start" x="95" y="-467.5" font-family="Helvetica,sans-Serif" font-size="10.00">+ push_back()</text>
<text text-anchor="start" x="95" y="-456.5" font-family="Helvetica,sans-Serif" font-size="10.00">+ erase()</text>
<text text-anchor="start" x="95" y="-445.5" font-family="Helvetica,sans-Serif" font-size="10.00">+ begin()</text>
<text text-anchor="start" x="95" y="-434.5" font-family="Helvetica,sans-Serif" font-size="10.00">+ begin()</text>
<text text-anchor="start" x="95" y="-423.5" font-family="Helvetica,sans-Serif" font-size="10.00">+ end()</text>
<text text-anchor="start" x="95" y="-412.5" font-family="Helvetica,sans-Serif" font-size="10.00">+ end()</text>
<text text-anchor="start" x="95" y="-401.5" font-family="Helvetica,sans-Serif" font-size="10.00">+ reserve()</text>
<text text-anchor="start" x="95" y="-390.5" font-family="Helvetica,sans-Serif" font-size="10.00">+ reserve()</text>
<text text-anchor="start" x="95" y="-379.5" font-family="Helvetica,sans-Serif" font-size="10.00">+ resize()</text>
<text text-anchor="start" x="95" y="-368.5" font-family="Helvetica,sans-Serif" font-size="10.00">+ resize()</text>
<text text-anchor="start" x="95" y="-357.5" font-family="Helvetica,sans-Serif" font-size="10.00">+ empty()</text>
<text text-anchor="start" x="95" y="-346.5" font-family="Helvetica,sans-Serif" font-size="10.00">+ empty()</text>
<text text-anchor="start" x="95" y="-335.5" font-family="Helvetica,sans-Serif" font-size="10.00">+ size()</text>
<text text-anchor="start" x="95" y="-324.5" font-family="Helvetica,sans-Serif" font-size="10.00">+ size()</text>
<text text-anchor="start" x="95" y="-313.5" font-family="Helvetica,sans-Serif" font-size="10.00">+ clear()</text>
<text text-anchor="start" x="95" y="-302.5" font-family="Helvetica,sans-Serif" font-size="10.00">+ clear()</text>
<text text-anchor="start" x="95" y="-291.5" font-family="Helvetica,sans-Serif" font-size="10.00">+ insert()</text>
<text text-anchor="start" x="95" y="-280.5" font-family="Helvetica,sans-Serif" font-size="10.00">+ show()</text>
<text text-anchor="start" x="95" y="-269.5" font-family="Helvetica,sans-Serif" font-size="10.00">+ show()</text>
<text text-anchor="start" x="95" y="-258.5" font-family="Helvetica,sans-Serif" font-size="10.00">+ validate()</text>
<text text-anchor="start" x="95" y="-247.5" font-family="Helvetica,sans-Serif" font-size="10.00">+ validate()</text>
<text text-anchor="start" x="95" y="-236.5" font-family="Helvetica,sans-Serif" font-size="10.00">+ load()</text>
<text text-anchor="start" x="95" y="-225.5" font-family="Helvetica,sans-Serif" font-size="10.00">+ store()</text>
<text text-anchor="start" x="95" y="-214.5" font-family="Helvetica,sans-Serif" font-size="10.00">+ append()</text>
<text text-anchor="start" x="95" y="-203.5" font-family="Helvetica,sans-Serif" font-size="10.00">+ operator[]()</text>
</a>
</g>
<!-- Node2&#45;&gt;Node1 -->
<g id="edge2" class="edge"><title>Node2&#45;&gt;Node1</title>
<path fill="none" stroke="midnightblue" d="M142,-186.188C142,-176.092 142,-166.301 142,-157.015"/>
<polygon fill="none" stroke="midnightblue" points="138.5,-186.379 142,-196.379 145.5,-186.379 138.5,-186.379"/>
</g>
<!-- Node3 -->
<g id="node4" class="node"><title>Node3</title>
<polygon fill="white" stroke="#bfbfbf" points="0,-1038.5 0,-1095.5 200,-1095.5 200,-1038.5 0,-1038.5"/>
<text text-anchor="middle" x="100" y="-1083.5" font-family="Helvetica,sans-Serif" font-size="10.00">std::vector&lt; boost::shared_ptr&lt; Con &gt; &gt;</text>
<polyline fill="none" stroke="#bfbfbf" points="0,-1076.5 200,-1076.5 "/>
<text text-anchor="start" x="8" y="-1064.5" font-family="Helvetica,sans-Serif" font-size="10.00">&#45; elements</text>
<polyline fill="none" stroke="#bfbfbf" points="0,-1057.5 200,-1057.5 "/>
<text text-anchor="middle" x="100" y="-1045.5" font-family="Helvetica,sans-Serif" font-size="10.00"> </text>
</g>
<!-- Node3&#45;&gt;Node2 -->
<g id="edge4" class="edge"><title>Node3&#45;&gt;Node2</title>
<path fill="none" stroke="#9a32cd" stroke-dasharray="5,2" d="M100.332,-1027.86C101.208,-952.251 104.313,-778.021 115,-632 116.152,-616.254 117.547,-599.95 119.087,-583.588"/>
<polygon fill="#9a32cd" stroke="#9a32cd" points="100.218,-1038.29 95.8277,-1028.24 100.273,-1033.29 100.327,-1028.29 100.327,-1028.29 100.327,-1028.29 100.273,-1033.29 104.827,-1028.34 100.218,-1038.29 100.218,-1038.29"/>
<text text-anchor="middle" x="137.5" y="-823.5" font-family="Helvetica,sans-Serif" font-size="10.00">collection</text>
</g>
<!-- Node4 -->
<g id="node6" class="node"><title>Node4</title>
<a xlink:title="STL class.">
<polygon fill="white" stroke="#bfbfbf" points="125.5,-1220.5 125.5,-1277.5 214.5,-1277.5 214.5,-1220.5 125.5,-1220.5"/>
<text text-anchor="middle" x="170" y="-1265.5" font-family="Helvetica,sans-Serif" font-size="10.00">std::vector&lt; T &gt;</text>
<polyline fill="none" stroke="#bfbfbf" points="125.5,-1258.5 214.5,-1258.5 "/>
<text text-anchor="start" x="133.5" y="-1246.5" font-family="Helvetica,sans-Serif" font-size="10.00">&#45; elements</text>
<polyline fill="none" stroke="#bfbfbf" points="125.5,-1239.5 214.5,-1239.5 "/>
<text text-anchor="middle" x="170" y="-1227.5" font-family="Helvetica,sans-Serif" font-size="10.00"> </text>
</a>
</g>
<!-- Node4&#45;&gt;Node3 -->
<g id="edge6" class="edge"><title>Node4&#45;&gt;Node3</title>
<path fill="none" stroke="orange" stroke-dasharray="5,2" d="M116.558,-1228.25C105.577,-1221.63 95.4196,-1213.03 89,-1202 69.9765,-1169.32 79.4346,-1124.34 88.9452,-1095.71"/>
<polygon fill="orange" stroke="orange" points="115.035,-1231.41 125.486,-1233.14 118.4,-1225.27 115.035,-1231.41"/>
<text text-anchor="middle" x="156" y="-1193.5" font-family="Helvetica,sans-Serif" font-size="10.00">&lt; boost::shared_ptr&lt; Con &gt; &gt;</text>
</g>
<!-- Node7 -->
<g id="node12" class="node"><title>Node7</title>
<polygon fill="white" stroke="#bfbfbf" points="150,-1114.5 150,-1171.5 338,-1171.5 338,-1114.5 150,-1114.5"/>
<text text-anchor="middle" x="244" y="-1159.5" font-family="Helvetica,sans-Serif" font-size="10.00">std::vector&lt; boost::shared_ptr&lt; T &gt; &gt;</text>
<polyline fill="none" stroke="#bfbfbf" points="150,-1152.5 338,-1152.5 "/>
<text text-anchor="start" x="158" y="-1140.5" font-family="Helvetica,sans-Serif" font-size="10.00">&#45; elements</text>
<polyline fill="none" stroke="#bfbfbf" points="150,-1133.5 338,-1133.5 "/>
<text text-anchor="middle" x="244" y="-1121.5" font-family="Helvetica,sans-Serif" font-size="10.00"> </text>
</g>
<!-- Node4&#45;&gt;Node7 -->
<g id="edge14" class="edge"><title>Node4&#45;&gt;Node7</title>
<path fill="none" stroke="orange" stroke-dasharray="5,2" d="M217.929,-1213.31C221.274,-1209.74 224.36,-1205.96 227,-1202 232.999,-1193.01 236.923,-1181.87 239.47,-1171.75"/>
<polygon fill="orange" stroke="orange" points="215.446,-1210.85 210.76,-1220.35 220.349,-1215.84 215.446,-1210.85"/>
<text text-anchor="middle" x="293.5" y="-1193.5" font-family="Helvetica,sans-Serif" font-size="10.00">&lt; boost::shared_ptr&lt; T &gt; &gt;</text>
</g>
<!-- Node5 -->
<g id="node8" class="node"><title>Node5</title>
<polygon fill="white" stroke="#bfbfbf" points="155.5,-1326.5 155.5,-1383.5 184.5,-1383.5 184.5,-1326.5 155.5,-1326.5"/>
<text text-anchor="middle" x="170" y="-1371.5" font-family="Helvetica,sans-Serif" font-size="10.00">T</text>
<polyline fill="none" stroke="#bfbfbf" points="155.5,-1364.5 184.5,-1364.5 "/>
<text text-anchor="middle" x="170" y="-1352.5" font-family="Helvetica,sans-Serif" font-size="10.00"> </text>
<polyline fill="none" stroke="#bfbfbf" points="155.5,-1345.5 184.5,-1345.5 "/>
<text text-anchor="middle" x="170" y="-1333.5" font-family="Helvetica,sans-Serif" font-size="10.00"> </text>
</g>
<!-- Node5&#45;&gt;Node4 -->
<g id="edge8" class="edge"><title>Node5&#45;&gt;Node4</title>
<path fill="none" stroke="#9a32cd" stroke-dasharray="5,2" d="M170,-1316.1C170,-1303.4 170,-1289.49 170,-1277.73"/>
<polygon fill="#9a32cd" stroke="#9a32cd" points="170,-1326.4 165.5,-1316.4 170,-1321.4 170,-1316.4 170,-1316.4 170,-1316.4 170,-1321.4 174.5,-1316.4 170,-1326.4 170,-1326.4"/>
<text text-anchor="middle" x="191.5" y="-1299.5" font-family="Helvetica,sans-Serif" font-size="10.00">elements</text>
</g>
<!-- Node6 -->
<g id="node10" class="node"><title>Node6</title>
<a xlink:href="class_container.html" target="_top" xlink:title="class Container &#45;">
<polygon fill="white" stroke="black" points="169,-632.5 169,-1019.5 279,-1019.5 279,-632.5 169,-632.5"/>
<text text-anchor="middle" x="224" y="-1007.5" font-family="Helvetica,sans-Serif" font-size="10.00">Container&lt; T &gt;</text>
<polyline fill="none" stroke="black" points="169,-1000.5 279,-1000.5 "/>
<text text-anchor="start" x="177" y="-988.5" font-family="Helvetica,sans-Serif" font-size="10.00"># collection</text>
<polyline fill="none" stroke="black" points="169,-981.5 279,-981.5 "/>
<text text-anchor="start" x="177" y="-969.5" font-family="Helvetica,sans-Serif" font-size="10.00">+ Container()</text>
<text text-anchor="start" x="177" y="-958.5" font-family="Helvetica,sans-Serif" font-size="10.00">+ Container()</text>
<text text-anchor="start" x="177" y="-947.5" font-family="Helvetica,sans-Serif" font-size="10.00">+ buildAndAppend()</text>
<text text-anchor="start" x="177" y="-936.5" font-family="Helvetica,sans-Serif" font-size="10.00">+ push_back()</text>
<text text-anchor="start" x="177" y="-925.5" font-family="Helvetica,sans-Serif" font-size="10.00">+ erase()</text>
<text text-anchor="start" x="177" y="-914.5" font-family="Helvetica,sans-Serif" font-size="10.00">+ begin()</text>
<text text-anchor="start" x="177" y="-903.5" font-family="Helvetica,sans-Serif" font-size="10.00">+ end()</text>
<text text-anchor="start" x="177" y="-892.5" font-family="Helvetica,sans-Serif" font-size="10.00">+ reserve()</text>
<text text-anchor="start" x="177" y="-881.5" font-family="Helvetica,sans-Serif" font-size="10.00">+ resize()</text>
<text text-anchor="start" x="177" y="-870.5" font-family="Helvetica,sans-Serif" font-size="10.00">+ empty()</text>
<text text-anchor="start" x="177" y="-859.5" font-family="Helvetica,sans-Serif" font-size="10.00">+ size()</text>
<text text-anchor="start" x="177" y="-848.5" font-family="Helvetica,sans-Serif" font-size="10.00">+ clear()</text>
<text text-anchor="start" x="177" y="-837.5" font-family="Helvetica,sans-Serif" font-size="10.00">+ insert()</text>
<text text-anchor="start" x="177" y="-826.5" font-family="Helvetica,sans-Serif" font-size="10.00">+ show()</text>
<text text-anchor="start" x="177" y="-815.5" font-family="Helvetica,sans-Serif" font-size="10.00">+ validate()</text>
<text text-anchor="start" x="177" y="-804.5" font-family="Helvetica,sans-Serif" font-size="10.00">+ Container()</text>
<text text-anchor="start" x="177" y="-793.5" font-family="Helvetica,sans-Serif" font-size="10.00">+ Container()</text>
<text text-anchor="start" x="177" y="-782.5" font-family="Helvetica,sans-Serif" font-size="10.00">+ begin()</text>
<text text-anchor="start" x="177" y="-771.5" font-family="Helvetica,sans-Serif" font-size="10.00">+ end()</text>
<text text-anchor="start" x="177" y="-760.5" font-family="Helvetica,sans-Serif" font-size="10.00">+ load()</text>
<text text-anchor="start" x="177" y="-749.5" font-family="Helvetica,sans-Serif" font-size="10.00">+ store()</text>
<text text-anchor="start" x="177" y="-738.5" font-family="Helvetica,sans-Serif" font-size="10.00">+ size()</text>
<text text-anchor="start" x="177" y="-727.5" font-family="Helvetica,sans-Serif" font-size="10.00">+ push_back()</text>
<text text-anchor="start" x="177" y="-716.5" font-family="Helvetica,sans-Serif" font-size="10.00">+ append()</text>
<text text-anchor="start" x="177" y="-705.5" font-family="Helvetica,sans-Serif" font-size="10.00">+ show()</text>
<text text-anchor="start" x="177" y="-694.5" font-family="Helvetica,sans-Serif" font-size="10.00">+ validate()</text>
<text text-anchor="start" x="177" y="-683.5" font-family="Helvetica,sans-Serif" font-size="10.00">+ reserve()</text>
<text text-anchor="start" x="177" y="-672.5" font-family="Helvetica,sans-Serif" font-size="10.00">+ resize()</text>
<text text-anchor="start" x="177" y="-661.5" font-family="Helvetica,sans-Serif" font-size="10.00">+ empty()</text>
<text text-anchor="start" x="177" y="-650.5" font-family="Helvetica,sans-Serif" font-size="10.00">+ clear()</text>
<text text-anchor="start" x="177" y="-639.5" font-family="Helvetica,sans-Serif" font-size="10.00">+ operator[]()</text>
</a>
</g>
<!-- Node6&#45;&gt;Node2 -->
<g id="edge10" class="edge"><title>Node6&#45;&gt;Node2</title>
<path fill="none" stroke="orange" stroke-dasharray="5,2" d="M185.747,-622.539C183.299,-609.583 180.838,-596.557 178.399,-583.648"/>
<polygon fill="orange" stroke="orange" points="182.32,-623.254 187.616,-632.43 189.198,-621.954 182.32,-623.254"/>
<text text-anchor="middle" x="201" y="-605.5" font-family="Helvetica,sans-Serif" font-size="10.00">&lt; Con &gt;</text>
</g>
<!-- Node7&#45;&gt;Node6 -->
<g id="edge12" class="edge"><title>Node7&#45;&gt;Node6</title>
<path fill="none" stroke="#9a32cd" stroke-dasharray="5,2" d="M241.608,-1104.33C240.19,-1081.99 238.273,-1051.8 236.225,-1019.54"/>
<polygon fill="#9a32cd" stroke="#9a32cd" points="242.243,-1114.32 237.118,-1104.63 241.926,-1109.33 241.609,-1104.34 241.609,-1104.34 241.609,-1104.34 241.926,-1109.33 246.1,-1104.06 242.243,-1114.32 242.243,-1114.32"/>
<text text-anchor="middle" x="262.5" y="-1064.5" font-family="Helvetica,sans-Serif" font-size="10.00">collection</text>
</g>
</g>
</svg>
