<?xml version="1.0" encoding="UTF-8" standalone="no"?>
<!DOCTYPE svg PUBLIC "-//W3C//DTD SVG 1.1//EN"
 "http://www.w3.org/Graphics/SVG/1.1/DTD/svg11.dtd">
<!-- Generated by graphviz version 2.25.20091207.0545 (20091207.0545)
 -->
<!-- Title: G Pages: 1 -->
<svg width="252pt" height="104pt"
 viewBox="0.00 0.00 252.00 104.00" xmlns="http://www.w3.org/2000/svg" xmlns:xlink="http://www.w3.org/1999/xlink">
<g id="graph1" class="graph" transform="scale(1 1) rotate(0) translate(4 100)">
<title>G</title>
<polygon fill="white" stroke="white" points="-4,5 -4,-100 249,-100 249,5 -4,5"/>
<!-- Node1 -->
<g id="node1" class="node"><title>Node1</title>
<polygon fill="#bfbfbf" stroke="black" points="0,-38.5 0,-57.5 84,-57.5 84,-38.5 0,-38.5"/>
<text text-anchor="middle" x="42" y="-44.5" font-family="Helvetica,sans-Serif" font-size="10.00">VecCon::select</text>
</g>
<!-- Node2 -->
<g id="node3" class="node"><title>Node2</title>
<a xlink:href="class_container.html#a9ad6802d12bf5f48400bc346de37ad0f" target="_top" xlink:title="Container\&lt; Con \&gt;::begin">
<polygon fill="white" stroke="black" points="120.5,-76.5 120.5,-95.5 243.5,-95.5 243.5,-76.5 120.5,-76.5"/>
<text text-anchor="middle" x="182" y="-82.5" font-family="Helvetica,sans-Serif" font-size="10.00">Container&lt; Con &gt;::begin</text>
</a>
</g>
<!-- Node1&#45;&gt;Node2 -->
<g id="edge2" class="edge"><title>Node1&#45;&gt;Node2</title>
<path fill="none" stroke="midnightblue" d="M77.3279,-57.589C95.4006,-62.4944 117.598,-68.5196 136.895,-73.7571"/>
<polygon fill="midnightblue" stroke="midnightblue" points="136.116,-77.1723 146.683,-76.4141 137.949,-70.4167 136.116,-77.1723"/>
</g>
<!-- Node3 -->
<g id="node5" class="node"><title>Node3</title>
<a xlink:href="class_container.html#a769250b7546b782007f1adaba8a07336" target="_top" xlink:title="Container\&lt; Con \&gt;::end">
<polygon fill="white" stroke="black" points="124,-38.5 124,-57.5 240,-57.5 240,-38.5 124,-38.5"/>
<text text-anchor="middle" x="182" y="-44.5" font-family="Helvetica,sans-Serif" font-size="10.00">Container&lt; Con &gt;::end</text>
</a>
</g>
<!-- Node1&#45;&gt;Node3 -->
<g id="edge4" class="edge"><title>Node1&#45;&gt;Node3</title>
<path fill="none" stroke="midnightblue" d="M84.0046,-48C93.4281,-48 103.662,-48 113.844,-48"/>
<polygon fill="midnightblue" stroke="midnightblue" points="113.977,-51.5001 123.976,-48 113.976,-44.5001 113.977,-51.5001"/>
</g>
<!-- Node4 -->
<g id="node7" class="node"><title>Node4</title>
<a xlink:href="class_container.html#aef8dda28fbfe205ce25ae824d84bb1c9" target="_top" xlink:title="Container\&lt; Con \&gt;::size">
<polygon fill="white" stroke="black" points="123,-0.5 123,-19.5 241,-19.5 241,-0.5 123,-0.5"/>
<text text-anchor="middle" x="182" y="-6.5" font-family="Helvetica,sans-Serif" font-size="10.00">Container&lt; Con &gt;::size</text>
</a>
</g>
<!-- Node1&#45;&gt;Node4 -->
<g id="edge6" class="edge"><title>Node1&#45;&gt;Node4</title>
<path fill="none" stroke="midnightblue" d="M77.3279,-38.411C95.4006,-33.5056 117.598,-27.4804 136.895,-22.2429"/>
<polygon fill="midnightblue" stroke="midnightblue" points="137.949,-25.5833 146.683,-19.5859 136.116,-18.8277 137.949,-25.5833"/>
</g>
</g>
</svg>
