<?xml version="1.0" encoding="UTF-8" standalone="no"?>
<!DOCTYPE svg PUBLIC "-//W3C//DTD SVG 1.1//EN"
 "http://www.w3.org/Graphics/SVG/1.1/DTD/svg11.dtd">
<!-- Generated by graphviz version 2.28.0 (20110610.2051)
 -->
<!-- Title: G Pages: 1 -->
<svg width="1886pt" height="376pt"
 viewBox="0.00 0.00 1886.00 376.00" xmlns="http://www.w3.org/2000/svg" xmlns:xlink="http://www.w3.org/1999/xlink">
<g id="graph1" class="graph" transform="scale(1 1) rotate(0) translate(4 372)">
<title>G</title>
<polygon fill="white" stroke="white" points="-4,5 -4,-372 1883,-372 1883,5 -4,5"/>
<!-- Node1 -->
<g id="node1" class="node"><title>Node1</title>
<polygon fill="#bfbfbf" stroke="black" points="868.5,-94.5 868.5,-217.5 1009.5,-217.5 1009.5,-94.5 868.5,-94.5"/>
<text text-anchor="middle" x="939" y="-205.5" font-family="Helvetica,sans-Serif" font-size="10.00">MLPfactory</text>
<polyline fill="none" stroke="black" points="868.5,-198.5 1009.5,-198.5 "/>
<text text-anchor="middle" x="939" y="-186.5" font-family="Helvetica,sans-Serif" font-size="10.00"> </text>
<polyline fill="none" stroke="black" points="868.5,-179.5 1009.5,-179.5 "/>
<text text-anchor="start" x="876.5" y="-167.5" font-family="Helvetica,sans-Serif" font-size="10.00">+ MLPfactory()</text>
<text text-anchor="start" x="876.5" y="-156.5" font-family="Helvetica,sans-Serif" font-size="10.00"># makeCon()</text>
<text text-anchor="start" x="876.5" y="-145.5" font-family="Helvetica,sans-Serif" font-size="10.00"># makeActivationFunction()</text>
<text text-anchor="start" x="876.5" y="-134.5" font-family="Helvetica,sans-Serif" font-size="10.00"># makePredictBehavior()</text>
<text text-anchor="start" x="876.5" y="-123.5" font-family="Helvetica,sans-Serif" font-size="10.00"># makeConContainer()</text>
<text text-anchor="start" x="876.5" y="-112.5" font-family="Helvetica,sans-Serif" font-size="10.00"># makeNeuron()</text>
<text text-anchor="start" x="876.5" y="-101.5" font-family="Helvetica,sans-Serif" font-size="10.00"># makeNeuronContainer()</text>
</g>
<!-- Node3 -->
<g id="node5" class="node"><title>Node3</title>
<a xlink:href="class_arc_tan_factory.html" target="_top" xlink:title="class ArcTanFactory &#45;">
<polygon fill="white" stroke="black" points="0,-0.5 0,-57.5 140,-57.5 140,-0.5 0,-0.5"/>
<text text-anchor="middle" x="70" y="-45.5" font-family="Helvetica,sans-Serif" font-size="10.00">ArcTanFactory</text>
<polyline fill="none" stroke="black" points="0,-38.5 140,-38.5 "/>
<text text-anchor="middle" x="70" y="-26.5" font-family="Helvetica,sans-Serif" font-size="10.00"> </text>
<polyline fill="none" stroke="black" points="0,-19.5 140,-19.5 "/>
<text text-anchor="start" x="8" y="-7.5" font-family="Helvetica,sans-Serif" font-size="10.00">&#45; makeActivationFunction()</text>
</a>
</g>
<!-- Node1&#45;&gt;Node3 -->
<g id="edge4" class="edge"><title>Node1&#45;&gt;Node3</title>
<path fill="none" stroke="midnightblue" d="M858.261,-150.915C714.141,-142.338 403.814,-118.038 149,-58 146.167,-57.3326 143.295,-56.5985 140.407,-55.8124"/>
<polygon fill="none" stroke="midnightblue" points="858.16,-154.415 868.347,-151.505 858.569,-147.427 858.16,-154.415"/>
</g>
<!-- Node4 -->
<g id="node7" class="node"><title>Node4</title>
<a xlink:href="class_cosine_factory.html" target="_top" xlink:title="class CosineFactory &#45;">
<polygon fill="white" stroke="black" points="158,-0.5 158,-57.5 298,-57.5 298,-0.5 158,-0.5"/>
<text text-anchor="middle" x="228" y="-45.5" font-family="Helvetica,sans-Serif" font-size="10.00">CosineFactory</text>
<polyline fill="none" stroke="black" points="158,-38.5 298,-38.5 "/>
<text text-anchor="middle" x="228" y="-26.5" font-family="Helvetica,sans-Serif" font-size="10.00"> </text>
<polyline fill="none" stroke="black" points="158,-19.5 298,-19.5 "/>
<text text-anchor="start" x="166" y="-7.5" font-family="Helvetica,sans-Serif" font-size="10.00">&#45; makeActivationFunction()</text>
</a>
</g>
<!-- Node1&#45;&gt;Node4 -->
<g id="edge6" class="edge"><title>Node1&#45;&gt;Node4</title>
<path fill="none" stroke="midnightblue" d="M858.172,-147.518C737.039,-135.204 501.825,-107.012 307,-58 304.037,-57.2545 301.028,-56.4429 298.001,-55.581"/>
<polygon fill="none" stroke="midnightblue" points="858.169,-151.036 868.469,-148.555 858.87,-144.071 858.169,-151.036"/>
</g>
<!-- Node5 -->
<g id="node9" class="node"><title>Node5</title>
<a xlink:href="class_elliot_factory.html" target="_top" xlink:title="class ElliotFactory &#45;">
<polygon fill="white" stroke="black" points="316,-0.5 316,-57.5 456,-57.5 456,-0.5 316,-0.5"/>
<text text-anchor="middle" x="386" y="-45.5" font-family="Helvetica,sans-Serif" font-size="10.00">ElliotFactory</text>
<polyline fill="none" stroke="black" points="316,-38.5 456,-38.5 "/>
<text text-anchor="middle" x="386" y="-26.5" font-family="Helvetica,sans-Serif" font-size="10.00"> </text>
<polyline fill="none" stroke="black" points="316,-19.5 456,-19.5 "/>
<text text-anchor="start" x="324" y="-7.5" font-family="Helvetica,sans-Serif" font-size="10.00">&#45; makeActivationFunction()</text>
</a>
</g>
<!-- Node1&#45;&gt;Node5 -->
<g id="edge8" class="edge"><title>Node1&#45;&gt;Node5</title>
<path fill="none" stroke="midnightblue" d="M858.292,-142.002C763.308,-125.898 601.252,-95.89 465,-58 462.056,-57.1813 459.063,-56.3085 456.05,-55.396"/>
<polygon fill="none" stroke="midnightblue" points="857.96,-145.495 868.403,-143.707 859.124,-138.593 857.96,-145.495"/>
</g>
<!-- Node6 -->
<g id="node11" class="node"><title>Node6</title>
<a xlink:href="class_exponential_factory.html" target="_top" xlink:title="class ExponentialFactory &#45;">
<polygon fill="white" stroke="black" points="474,-0.5 474,-57.5 614,-57.5 614,-0.5 474,-0.5"/>
<text text-anchor="middle" x="544" y="-45.5" font-family="Helvetica,sans-Serif" font-size="10.00">ExponentialFactory</text>
<polyline fill="none" stroke="black" points="474,-38.5 614,-38.5 "/>
<text text-anchor="middle" x="544" y="-26.5" font-family="Helvetica,sans-Serif" font-size="10.00"> </text>
<polyline fill="none" stroke="black" points="474,-19.5 614,-19.5 "/>
<text text-anchor="start" x="482" y="-7.5" font-family="Helvetica,sans-Serif" font-size="10.00">&#45; makeActivationFunction()</text>
</a>
</g>
<!-- Node1&#45;&gt;Node6 -->
<g id="edge10" class="edge"><title>Node1&#45;&gt;Node6</title>
<path fill="none" stroke="midnightblue" d="M858.804,-131.415C794.75,-112.33 702.815,-84.381 623,-58 620.099,-57.041 617.142,-56.0509 614.158,-55.0413"/>
<polygon fill="none" stroke="midnightblue" points="857.859,-134.786 868.442,-134.283 859.856,-128.077 857.859,-134.786"/>
</g>
<!-- Node7 -->
<g id="node13" class="node"><title>Node7</title>
<a xlink:href="class_gauss_factory.html" target="_top" xlink:title="class GaussFactory &#45;">
<polygon fill="white" stroke="black" points="632,-0.5 632,-57.5 772,-57.5 772,-0.5 632,-0.5"/>
<text text-anchor="middle" x="702" y="-45.5" font-family="Helvetica,sans-Serif" font-size="10.00">GaussFactory</text>
<polyline fill="none" stroke="black" points="632,-38.5 772,-38.5 "/>
<text text-anchor="middle" x="702" y="-26.5" font-family="Helvetica,sans-Serif" font-size="10.00"> </text>
<polyline fill="none" stroke="black" points="632,-19.5 772,-19.5 "/>
<text text-anchor="start" x="640" y="-7.5" font-family="Helvetica,sans-Serif" font-size="10.00">&#45; makeActivationFunction()</text>
</a>
</g>
<!-- Node1&#45;&gt;Node7 -->
<g id="edge12" class="edge"><title>Node1&#45;&gt;Node7</title>
<path fill="none" stroke="midnightblue" d="M859.08,-112.848C824.538,-94.6297 785.086,-73.8218 754.361,-57.6168"/>
<polygon fill="none" stroke="midnightblue" points="857.735,-116.096 868.213,-117.665 861.001,-109.904 857.735,-116.096"/>
</g>
<!-- Node8 -->
<g id="node15" class="node"><title>Node8</title>
<a xlink:href="class_identity_factory.html" target="_top" xlink:title="class IdentityFactory &#45;">
<polygon fill="white" stroke="black" points="790,-0.5 790,-57.5 930,-57.5 930,-0.5 790,-0.5"/>
<text text-anchor="middle" x="860" y="-45.5" font-family="Helvetica,sans-Serif" font-size="10.00">IdentityFactory</text>
<polyline fill="none" stroke="black" points="790,-38.5 930,-38.5 "/>
<text text-anchor="middle" x="860" y="-26.5" font-family="Helvetica,sans-Serif" font-size="10.00"> </text>
<polyline fill="none" stroke="black" points="790,-19.5 930,-19.5 "/>
<text text-anchor="start" x="798" y="-7.5" font-family="Helvetica,sans-Serif" font-size="10.00">&#45; makeActivationFunction()</text>
</a>
</g>
<!-- Node1&#45;&gt;Node8 -->
<g id="edge14" class="edge"><title>Node1&#45;&gt;Node8</title>
<path fill="none" stroke="midnightblue" d="M895.159,-85.6306C888.926,-75.7695 882.84,-66.1393 877.53,-57.7379"/>
<polygon fill="none" stroke="midnightblue" points="892.356,-87.7474 900.657,-94.3308 898.273,-84.0076 892.356,-87.7474"/>
</g>
<!-- Node9 -->
<g id="node17" class="node"><title>Node9</title>
<a xlink:href="class_logistic_factory.html" target="_top" xlink:title="class LogisticFactory &#45;">
<polygon fill="white" stroke="black" points="948,-0.5 948,-57.5 1088,-57.5 1088,-0.5 948,-0.5"/>
<text text-anchor="middle" x="1018" y="-45.5" font-family="Helvetica,sans-Serif" font-size="10.00">LogisticFactory</text>
<polyline fill="none" stroke="black" points="948,-38.5 1088,-38.5 "/>
<text text-anchor="middle" x="1018" y="-26.5" font-family="Helvetica,sans-Serif" font-size="10.00"> </text>
<polyline fill="none" stroke="black" points="948,-19.5 1088,-19.5 "/>
<text text-anchor="start" x="956" y="-7.5" font-family="Helvetica,sans-Serif" font-size="10.00">&#45; makeActivationFunction()</text>
</a>
</g>
<!-- Node1&#45;&gt;Node9 -->
<g id="edge16" class="edge"><title>Node1&#45;&gt;Node9</title>
<path fill="none" stroke="midnightblue" d="M982.841,-85.6306C989.074,-75.7695 995.16,-66.1393 1000.47,-57.7379"/>
<polygon fill="none" stroke="midnightblue" points="979.727,-84.0076 977.343,-94.3308 985.644,-87.7474 979.727,-84.0076"/>
</g>
<!-- Node10 -->
<g id="node19" class="node"><title>Node10</title>
<a xlink:href="class_reciprocal_factory.html" target="_top" xlink:title="class ReciprocalFactory &#45;">
<polygon fill="white" stroke="black" points="1106,-0.5 1106,-57.5 1246,-57.5 1246,-0.5 1106,-0.5"/>
<text text-anchor="middle" x="1176" y="-45.5" font-family="Helvetica,sans-Serif" font-size="10.00">ReciprocalFactory</text>
<polyline fill="none" stroke="black" points="1106,-38.5 1246,-38.5 "/>
<text text-anchor="middle" x="1176" y="-26.5" font-family="Helvetica,sans-Serif" font-size="10.00"> </text>
<polyline fill="none" stroke="black" points="1106,-19.5 1246,-19.5 "/>
<text text-anchor="start" x="1114" y="-7.5" font-family="Helvetica,sans-Serif" font-size="10.00">&#45; makeActivationFunction()</text>
</a>
</g>
<!-- Node1&#45;&gt;Node10 -->
<g id="edge18" class="edge"><title>Node1&#45;&gt;Node10</title>
<path fill="none" stroke="midnightblue" d="M1018.92,-112.848C1053.46,-94.6297 1092.91,-73.8218 1123.64,-57.6168"/>
<polygon fill="none" stroke="midnightblue" points="1017,-109.904 1009.79,-117.665 1020.26,-116.096 1017,-109.904"/>
</g>
<!-- Node11 -->
<g id="node21" class="node"><title>Node11</title>
<a xlink:href="class_sine_factory.html" target="_top" xlink:title="class SineFactory &#45;">
<polygon fill="white" stroke="black" points="1264,-0.5 1264,-57.5 1404,-57.5 1404,-0.5 1264,-0.5"/>
<text text-anchor="middle" x="1334" y="-45.5" font-family="Helvetica,sans-Serif" font-size="10.00">SineFactory</text>
<polyline fill="none" stroke="black" points="1264,-38.5 1404,-38.5 "/>
<text text-anchor="middle" x="1334" y="-26.5" font-family="Helvetica,sans-Serif" font-size="10.00"> </text>
<polyline fill="none" stroke="black" points="1264,-19.5 1404,-19.5 "/>
<text text-anchor="start" x="1272" y="-7.5" font-family="Helvetica,sans-Serif" font-size="10.00">&#45; makeActivationFunction()</text>
</a>
</g>
<!-- Node1&#45;&gt;Node11 -->
<g id="edge20" class="edge"><title>Node1&#45;&gt;Node11</title>
<path fill="none" stroke="midnightblue" d="M1019.2,-131.415C1083.25,-112.33 1175.19,-84.381 1255,-58 1257.9,-57.041 1260.86,-56.0509 1263.84,-55.0413"/>
<polygon fill="none" stroke="midnightblue" points="1018.14,-128.077 1009.56,-134.283 1020.14,-134.786 1018.14,-128.077"/>
</g>
<!-- Node12 -->
<g id="node23" class="node"><title>Node12</title>
<a xlink:href="class_square_factory.html" target="_top" xlink:title="class SquareFactory &#45;">
<polygon fill="white" stroke="black" points="1422,-0.5 1422,-57.5 1562,-57.5 1562,-0.5 1422,-0.5"/>
<text text-anchor="middle" x="1492" y="-45.5" font-family="Helvetica,sans-Serif" font-size="10.00">SquareFactory</text>
<polyline fill="none" stroke="black" points="1422,-38.5 1562,-38.5 "/>
<text text-anchor="middle" x="1492" y="-26.5" font-family="Helvetica,sans-Serif" font-size="10.00"> </text>
<polyline fill="none" stroke="black" points="1422,-19.5 1562,-19.5 "/>
<text text-anchor="start" x="1430" y="-7.5" font-family="Helvetica,sans-Serif" font-size="10.00">&#45; makeActivationFunction()</text>
</a>
</g>
<!-- Node1&#45;&gt;Node12 -->
<g id="edge22" class="edge"><title>Node1&#45;&gt;Node12</title>
<path fill="none" stroke="midnightblue" d="M1019.71,-142.002C1114.69,-125.898 1276.75,-95.89 1413,-58 1415.94,-57.1813 1418.94,-56.3085 1421.95,-55.396"/>
<polygon fill="none" stroke="midnightblue" points="1018.88,-138.593 1009.6,-143.707 1020.04,-145.495 1018.88,-138.593"/>
</g>
<!-- Node13 -->
<g id="node25" class="node"><title>Node13</title>
<a xlink:href="class_tanh_factory.html" target="_top" xlink:title="class TanhFactory &#45;">
<polygon fill="white" stroke="black" points="1580,-0.5 1580,-57.5 1720,-57.5 1720,-0.5 1580,-0.5"/>
<text text-anchor="middle" x="1650" y="-45.5" font-family="Helvetica,sans-Serif" font-size="10.00">TanhFactory</text>
<polyline fill="none" stroke="black" points="1580,-38.5 1720,-38.5 "/>
<text text-anchor="middle" x="1650" y="-26.5" font-family="Helvetica,sans-Serif" font-size="10.00"> </text>
<polyline fill="none" stroke="black" points="1580,-19.5 1720,-19.5 "/>
<text text-anchor="start" x="1588" y="-7.5" font-family="Helvetica,sans-Serif" font-size="10.00">&#45; makeActivationFunction()</text>
</a>
</g>
<!-- Node1&#45;&gt;Node13 -->
<g id="edge24" class="edge"><title>Node1&#45;&gt;Node13</title>
<path fill="none" stroke="midnightblue" d="M1019.83,-147.518C1140.96,-135.204 1376.17,-107.012 1571,-58 1573.96,-57.2545 1576.97,-56.4429 1580,-55.581"/>
<polygon fill="none" stroke="midnightblue" points="1019.13,-144.071 1009.53,-148.555 1019.83,-151.036 1019.13,-144.071"/>
</g>
<!-- Node14 -->
<g id="node27" class="node"><title>Node14</title>
<a xlink:href="class_threshold_factory.html" target="_top" xlink:title="class ThresholdFactory &#45;">
<polygon fill="white" stroke="black" points="1738,-0.5 1738,-57.5 1878,-57.5 1878,-0.5 1738,-0.5"/>
<text text-anchor="middle" x="1808" y="-45.5" font-family="Helvetica,sans-Serif" font-size="10.00">ThresholdFactory</text>
<polyline fill="none" stroke="black" points="1738,-38.5 1878,-38.5 "/>
<text text-anchor="middle" x="1808" y="-26.5" font-family="Helvetica,sans-Serif" font-size="10.00"> </text>
<polyline fill="none" stroke="black" points="1738,-19.5 1878,-19.5 "/>
<text text-anchor="start" x="1746" y="-7.5" font-family="Helvetica,sans-Serif" font-size="10.00">&#45; makeActivationFunction()</text>
</a>
</g>
<!-- Node1&#45;&gt;Node14 -->
<g id="edge26" class="edge"><title>Node1&#45;&gt;Node14</title>
<path fill="none" stroke="midnightblue" d="M1019.74,-150.915C1163.86,-142.338 1474.19,-118.038 1729,-58 1731.83,-57.3326 1734.7,-56.5985 1737.59,-55.8124"/>
<polygon fill="none" stroke="midnightblue" points="1019.43,-147.427 1009.65,-151.505 1019.84,-154.415 1019.43,-147.427"/>
</g>
<!-- Node2 -->
<g id="node2" class="node"><title>Node2</title>
<a xlink:href="class_neural_factory.html" target="_top" xlink:title="class NeuralFactory &#45;">
<polygon fill="white" stroke="black" points="867.5,-255 867.5,-367 1010.5,-367 1010.5,-255 867.5,-255"/>
<text text-anchor="middle" x="939" y="-355" font-family="Helvetica,sans-Serif" font-size="10.00">NeuralFactory</text>
<polyline fill="none" stroke="black" points="867.5,-348 1010.5,-348 "/>
<text text-anchor="middle" x="939" y="-336" font-family="Helvetica,sans-Serif" font-size="10.00"> </text>
<polyline fill="none" stroke="black" points="867.5,-329 1010.5,-329 "/>
<text text-anchor="start" x="875.5" y="-317" font-family="Helvetica,sans-Serif" font-size="10.00">+ makeCon()</text>
<text text-anchor="start" x="875.5" y="-306" font-family="Helvetica,sans-Serif" font-size="10.00">+ makeConContainer()</text>
<text text-anchor="start" x="875.5" y="-295" font-family="Helvetica,sans-Serif" font-size="10.00">+ makeActivationFunction()</text>
<text text-anchor="start" x="875.5" y="-284" font-family="Helvetica,sans-Serif" font-size="10.00">+ makePredictBehavior()</text>
<text text-anchor="start" x="875.5" y="-273" font-family="Helvetica,sans-Serif" font-size="10.00">+ makeNeuron()</text>
<text text-anchor="start" x="875.5" y="-262" font-family="Helvetica,sans-Serif" font-size="10.00">+ makeNeuronContainer()</text>
</a>
</g>
<!-- Node2&#45;&gt;Node1 -->
<g id="edge2" class="edge"><title>Node2&#45;&gt;Node1</title>
<path fill="none" stroke="midnightblue" d="M939,-244.718C939,-235.717 939,-226.505 939,-217.593"/>
<polygon fill="none" stroke="midnightblue" points="935.5,-244.763 939,-254.763 942.5,-244.764 935.5,-244.763"/>
</g>
</g>
</svg>
