<?xml version="1.0" encoding="UTF-8" standalone="no"?>
<!DOCTYPE svg PUBLIC "-//W3C//DTD SVG 1.1//EN"
 "http://www.w3.org/Graphics/SVG/1.1/DTD/svg11.dtd">
<!-- Generated by graphviz version 2.28.0 (20110610.2051)
 -->
<!-- Title: G Pages: 1 -->
<svg width="478pt" height="47pt"
 viewBox="0.00 0.00 478.00 47.00" xmlns="http://www.w3.org/2000/svg" xmlns:xlink="http://www.w3.org/1999/xlink">
<g id="graph1" class="graph" transform="scale(1 1) rotate(0) translate(4 43)">
<title>G</title>
<polygon fill="white" stroke="white" points="-4,5 -4,-43 475,-43 475,5 -4,5"/>
<!-- Node1 -->
<g id="node1" class="node"><title>Node1</title>
<polygon fill="#bfbfbf" stroke="black" points="0.5,-0.5 0.5,-19.5 159.5,-19.5 159.5,-0.5 0.5,-0.5"/>
<text text-anchor="middle" x="80" y="-7.5" font-family="Helvetica,sans-Serif" font-size="10.00">NetworkRinterface::outputSize</text>
</g>
<!-- Node2 -->
<g id="node3" class="node"><title>Node2</title>
<a xlink:href="class_network_rinterface.html#a28c63ea70e49d8771e8242107b65d62c" target="_top" xlink:title="NetworkRinterface::predict">
<polygon fill="white" stroke="black" points="196.5,-19.5 196.5,-38.5 337.5,-38.5 337.5,-19.5 196.5,-19.5"/>
<text text-anchor="middle" x="267" y="-26.5" font-family="Helvetica,sans-Serif" font-size="10.00">NetworkRinterface::predict</text>
</a>
</g>
<!-- Node1&#45;&gt;Node2 -->
<g id="edge2" class="edge"><title>Node1&#45;&gt;Node2</title>
<path fill="none" stroke="midnightblue" d="M169.784,-19.1183C178.726,-20.0368 187.715,-20.96 196.416,-21.8535"/>
<polygon fill="midnightblue" stroke="midnightblue" points="170.03,-15.6253 159.725,-18.0853 169.315,-22.5887 170.03,-15.6253"/>
</g>
<!-- Node3 -->
<g id="node5" class="node"><title>Node3</title>
<a xlink:href="_rcpp_modules_8cpp.html#a94171cf88107253b6fcd1059f004673c" target="_top" xlink:title="RCPP_MODULE">
<polygon fill="white" stroke="black" points="374.5,-0.5 374.5,-19.5 469.5,-19.5 469.5,-0.5 374.5,-0.5"/>
<text text-anchor="middle" x="422" y="-7.5" font-family="Helvetica,sans-Serif" font-size="10.00">RCPP_MODULE</text>
</a>
</g>
<!-- Node1&#45;&gt;Node3 -->
<g id="edge6" class="edge"><title>Node1&#45;&gt;Node3</title>
<path fill="none" stroke="midnightblue" d="M170.185,-10C235.699,-10 322.083,-10 374.482,-10"/>
<polygon fill="midnightblue" stroke="midnightblue" points="169.857,-6.5001 159.857,-10 169.857,-13.5001 169.857,-6.5001"/>
</g>
<!-- Node2&#45;&gt;Node3 -->
<g id="edge4" class="edge"><title>Node2&#45;&gt;Node3</title>
<path fill="none" stroke="midnightblue" d="M347.896,-19.0783C356.852,-17.9661 365.745,-16.8617 374.085,-15.8261"/>
<polygon fill="midnightblue" stroke="midnightblue" points="347.276,-15.6282 337.784,-20.334 348.139,-22.5749 347.276,-15.6282"/>
</g>
</g>
</svg>
