<?xml version="1.0" encoding="UTF-8" standalone="no"?>
<!DOCTYPE svg PUBLIC "-//W3C//DTD SVG 1.1//EN"
 "http://www.w3.org/Graphics/SVG/1.1/DTD/svg11.dtd">
<!-- Generated by graphviz version 2.25.20091207.0545 (20091207.0545)
 -->
<!-- Title: G Pages: 1 -->
<svg width="320pt" height="104pt"
 viewBox="0.00 0.00 320.00 104.00" xmlns="http://www.w3.org/2000/svg" xmlns:xlink="http://www.w3.org/1999/xlink">
<g id="graph1" class="graph" transform="scale(1 1) rotate(0) translate(4 100)">
<title>G</title>
<polygon fill="white" stroke="white" points="-4,5 -4,-100 317,-100 317,5 -4,5"/>
<!-- Node1 -->
<g id="node1" class="node"><title>Node1</title>
<polygon fill="#bfbfbf" stroke="black" points="0,-38.5 0,-57.5 128,-57.5 128,-38.5 0,-38.5"/>
<text text-anchor="middle" x="64" y="-44.5" font-family="Helvetica,sans-Serif" font-size="10.00">VecCon::buildAndAppend</text>
</g>
<!-- Node2 -->
<g id="node3" class="node"><title>Node2</title>
<a xlink:href="class_container.html#afd87c69cb799ed7b434c29090083a285" target="_top" xlink:title="Container\&lt; Con \&gt;::push_back">
<polygon fill="white" stroke="black" points="164.5,-76.5 164.5,-95.5 311.5,-95.5 311.5,-76.5 164.5,-76.5"/>
<text text-anchor="middle" x="238" y="-82.5" font-family="Helvetica,sans-Serif" font-size="10.00">Container&lt; Con &gt;::push_back</text>
</a>
</g>
<!-- Node1&#45;&gt;Node2 -->
<g id="edge2" class="edge"><title>Node1&#45;&gt;Node2</title>
<path fill="none" stroke="midnightblue" d="M107.908,-57.589C131.179,-62.6713 159.954,-68.9554 184.519,-74.3203"/>
<polygon fill="midnightblue" stroke="midnightblue" points="183.892,-77.7657 194.408,-76.4799 185.385,-70.9268 183.892,-77.7657"/>
</g>
<!-- Node3 -->
<g id="node5" class="node"><title>Node3</title>
<a xlink:href="class_container.html#aa3cbae68ebeed649c52eb3805a30fb75" target="_top" xlink:title="Container\&lt; Con \&gt;::reserve">
<polygon fill="white" stroke="black" points="172,-38.5 172,-57.5 304,-57.5 304,-38.5 172,-38.5"/>
<text text-anchor="middle" x="238" y="-44.5" font-family="Helvetica,sans-Serif" font-size="10.00">Container&lt; Con &gt;::reserve</text>
</a>
</g>
<!-- Node1&#45;&gt;Node3 -->
<g id="edge4" class="edge"><title>Node1&#45;&gt;Node3</title>
<path fill="none" stroke="midnightblue" d="M128.297,-48C139.192,-48 150.599,-48 161.765,-48"/>
<polygon fill="midnightblue" stroke="midnightblue" points="161.93,-51.5001 171.93,-48 161.93,-44.5001 161.93,-51.5001"/>
</g>
<!-- Node4 -->
<g id="node7" class="node"><title>Node4</title>
<a xlink:href="class_container.html#aef8dda28fbfe205ce25ae824d84bb1c9" target="_top" xlink:title="Container\&lt; Con \&gt;::size">
<polygon fill="white" stroke="black" points="179,-0.5 179,-19.5 297,-19.5 297,-0.5 179,-0.5"/>
<text text-anchor="middle" x="238" y="-6.5" font-family="Helvetica,sans-Serif" font-size="10.00">Container&lt; Con &gt;::size</text>
</a>
</g>
<!-- Node1&#45;&gt;Node4 -->
<g id="edge6" class="edge"><title>Node1&#45;&gt;Node4</title>
<path fill="none" stroke="midnightblue" d="M107.908,-38.411C131.179,-33.3287 159.954,-27.0446 184.519,-21.6797"/>
<polygon fill="midnightblue" stroke="midnightblue" points="185.385,-25.0732 194.408,-19.5201 183.892,-18.2343 185.385,-25.0732"/>
</g>
</g>
</svg>
