<?xml version="1.0" encoding="UTF-8" standalone="no"?>
<!DOCTYPE svg PUBLIC "-//W3C//DTD SVG 1.1//EN"
 "http://www.w3.org/Graphics/SVG/1.1/DTD/svg11.dtd">
<!-- Generated by graphviz version 2.28.0 (20110610.2051)
 -->
<!-- Title: G Pages: 1 -->
<svg width="214pt" height="260pt"
 viewBox="0.00 0.00 214.00 260.00" xmlns="http://www.w3.org/2000/svg" xmlns:xlink="http://www.w3.org/1999/xlink">
<g id="graph1" class="graph" transform="scale(1 1) rotate(0) translate(4 256)">
<title>G</title>
<polygon fill="white" stroke="white" points="-4,5 -4,-256 211,-256 211,5 -4,5"/>
<!-- Node1 -->
<g id="node1" class="node"><title>Node1</title>
<polygon fill="#bfbfbf" stroke="black" points="32,-128.5 32,-251.5 174,-251.5 174,-128.5 32,-128.5"/>
<text text-anchor="middle" x="103" y="-239.5" font-family="Helvetica,sans-Serif" font-size="10.00">PredictBehavior</text>
<polyline fill="none" stroke="black" points="32,-232.5 174,-232.5 "/>
<text text-anchor="start" x="40" y="-220.5" font-family="Helvetica,sans-Serif" font-size="10.00"># d_neuron</text>
<polyline fill="none" stroke="black" points="32,-213.5 174,-213.5 "/>
<text text-anchor="start" x="40" y="-201.5" font-family="Helvetica,sans-Serif" font-size="10.00">+ predict()</text>
<text text-anchor="start" x="40" y="-190.5" font-family="Helvetica,sans-Serif" font-size="10.00">+ show()</text>
<text text-anchor="start" x="40" y="-179.5" font-family="Helvetica,sans-Serif" font-size="10.00"># PredictBehavior()</text>
<text text-anchor="start" x="40" y="-168.5" font-family="Helvetica,sans-Serif" font-size="10.00"># useActivationFunctionf0()</text>
<text text-anchor="start" x="40" y="-157.5" font-family="Helvetica,sans-Serif" font-size="10.00"># getConIterator()</text>
<text text-anchor="start" x="40" y="-146.5" font-family="Helvetica,sans-Serif" font-size="10.00"># setOutput()</text>
<text text-anchor="start" x="40" y="-135.5" font-family="Helvetica,sans-Serif" font-size="10.00"># setInducedLocalField()</text>
</g>
<!-- Node2 -->
<g id="node3" class="node"><title>Node2</title>
<a xlink:href="class_m_l_pbehavior.html" target="_top" xlink:title="class MLPbehavior &#45;">
<polygon fill="white" stroke="black" points="0,-6.5 0,-85.5 94,-85.5 94,-6.5 0,-6.5"/>
<text text-anchor="middle" x="47" y="-73.5" font-family="Helvetica,sans-Serif" font-size="10.00">MLPbehavior</text>
<polyline fill="none" stroke="black" points="0,-66.5 94,-66.5 "/>
<text text-anchor="start" x="8" y="-54.5" font-family="Helvetica,sans-Serif" font-size="10.00">&#45; d_bias</text>
<polyline fill="none" stroke="black" points="0,-47.5 94,-47.5 "/>
<text text-anchor="start" x="8" y="-35.5" font-family="Helvetica,sans-Serif" font-size="10.00">+ MLPbehavior()</text>
<text text-anchor="start" x="8" y="-24.5" font-family="Helvetica,sans-Serif" font-size="10.00">&#45; predict()</text>
<text text-anchor="start" x="8" y="-13.5" font-family="Helvetica,sans-Serif" font-size="10.00">&#45; show()</text>
</a>
</g>
<!-- Node1&#45;&gt;Node2 -->
<g id="edge2" class="edge"><title>Node1&#45;&gt;Node2</title>
<path fill="none" stroke="midnightblue" d="M75.3198,-118.811C70.8179,-107.395 66.3051,-95.9522 62.2468,-85.6614"/>
<polygon fill="none" stroke="midnightblue" points="72.1638,-120.349 79.0885,-128.367 78.6757,-117.781 72.1638,-120.349"/>
</g>
<!-- Node3 -->
<g id="node5" class="node"><title>Node3</title>
<a xlink:href="class_r_b_fbehavior.html" target="_top" xlink:title="class RBFbehavior &#45;">
<polygon fill="white" stroke="black" points="112,-1 112,-91 206,-91 206,-1 112,-1"/>
<text text-anchor="middle" x="159" y="-79" font-family="Helvetica,sans-Serif" font-size="10.00">RBFbehavior</text>
<polyline fill="none" stroke="black" points="112,-72 206,-72 "/>
<text text-anchor="start" x="120" y="-60" font-family="Helvetica,sans-Serif" font-size="10.00">&#45; d_width</text>
<text text-anchor="start" x="120" y="-49" font-family="Helvetica,sans-Serif" font-size="10.00">&#45; d_altitude</text>
<polyline fill="none" stroke="black" points="112,-42 206,-42 "/>
<text text-anchor="start" x="120" y="-30" font-family="Helvetica,sans-Serif" font-size="10.00">+ RBFbehavior()</text>
<text text-anchor="start" x="120" y="-19" font-family="Helvetica,sans-Serif" font-size="10.00">&#45; predict()</text>
<text text-anchor="start" x="120" y="-8" font-family="Helvetica,sans-Serif" font-size="10.00">&#45; show()</text>
</a>
</g>
<!-- Node1&#45;&gt;Node3 -->
<g id="edge4" class="edge"><title>Node1&#45;&gt;Node3</title>
<path fill="none" stroke="midnightblue" d="M130.635,-118.925C134.372,-109.45 138.117,-99.9539 141.604,-91.1103"/>
<polygon fill="none" stroke="midnightblue" points="127.324,-117.781 126.911,-128.367 133.836,-120.349 127.324,-117.781"/>
</g>
</g>
</svg>
