<?xml version="1.0" encoding="UTF-8" standalone="no"?>
<!DOCTYPE svg PUBLIC "-//W3C//DTD SVG 1.1//EN"
 "http://www.w3.org/Graphics/SVG/1.1/DTD/svg11.dtd">
<!-- Generated by graphviz version 2.28.0 (20110610.2051)
 -->
<!-- Title: G Pages: 1 -->
<svg width="844pt" height="2616pt"
 viewBox="0.00 0.00 844.00 2616.00" xmlns="http://www.w3.org/2000/svg" xmlns:xlink="http://www.w3.org/1999/xlink">
<g id="graph1" class="graph" transform="scale(1 1) rotate(0) translate(4 2612)">
<title>G</title>
<polygon fill="white" stroke="white" points="-4,5 -4,-2612 841,-2612 841,5 -4,5"/>
<!-- Node1 -->
<g id="node1" class="node"><title>Node1</title>
<polygon fill="#bfbfbf" stroke="black" points="401.5,-1 401.5,-179 518.5,-179 518.5,-1 401.5,-1"/>
<text text-anchor="middle" x="460" y="-167" font-family="Helvetica,sans-Serif" font-size="10.00">NeuronContainer</text>
<polyline fill="none" stroke="black" points="401.5,-160 518.5,-160 "/>
<text text-anchor="middle" x="460" y="-148" font-family="Helvetica,sans-Serif" font-size="10.00"> </text>
<polyline fill="none" stroke="black" points="401.5,-141 518.5,-141 "/>
<text text-anchor="start" x="409.5" y="-129" font-family="Helvetica,sans-Serif" font-size="10.00">+ NeuronContainer()</text>
<text text-anchor="start" x="409.5" y="-118" font-family="Helvetica,sans-Serif" font-size="10.00">+ NeuronContainer()</text>
<text text-anchor="start" x="409.5" y="-107" font-family="Helvetica,sans-Serif" font-size="10.00">+ ~NeuronContainer()</text>
<text text-anchor="start" x="409.5" y="-96" font-family="Helvetica,sans-Serif" font-size="10.00">+ numOfNeurons()</text>
<text text-anchor="start" x="409.5" y="-85" font-family="Helvetica,sans-Serif" font-size="10.00">+ numOfCons()</text>
<text text-anchor="start" x="409.5" y="-74" font-family="Helvetica,sans-Serif" font-size="10.00">+ getId()</text>
<text text-anchor="start" x="409.5" y="-63" font-family="Helvetica,sans-Serif" font-size="10.00">+ setId()</text>
<text text-anchor="start" x="409.5" y="-52" font-family="Helvetica,sans-Serif" font-size="10.00">+ getConId()</text>
<text text-anchor="start" x="409.5" y="-41" font-family="Helvetica,sans-Serif" font-size="10.00">+ getWeight()</text>
<text text-anchor="start" x="409.5" y="-30" font-family="Helvetica,sans-Serif" font-size="10.00">+ getFrom()</text>
<text text-anchor="start" x="409.5" y="-19" font-family="Helvetica,sans-Serif" font-size="10.00">+ setFrom()</text>
<text text-anchor="start" x="409.5" y="-8" font-family="Helvetica,sans-Serif" font-size="10.00">+ setWeight()</text>
</g>
<!-- Node2 -->
<g id="node2" class="node"><title>Node2</title>
<a xlink:href="class_container.html" target="_top" xlink:title="{Container\&lt; Neuron \&gt;\n|# collection\l# collection\l|+ Container()\l+ Container()\l+ Container()\l+ ~Container()\l+ createIterator()\l+ push_back()\l+ push_back()\l+ reserve()\l+ reserve()\l+ empty()\l+ empty()\l+ size()\l+ size()\l+ clear()\l+ clear()\l+ show()\l+ show()\l+ validate()\l+ validate()\l+ begin()\l+ end()\l+ load()\l+ store()\l+ append()\l+ resize()\l+ operator[]()\l}">
<polygon fill="white" stroke="black" points="405,-218.5 405,-561.5 515,-561.5 515,-218.5 405,-218.5"/>
<text text-anchor="middle" x="460" y="-549.5" font-family="Helvetica,sans-Serif" font-size="10.00">Container&lt; Neuron &gt;</text>
<polyline fill="none" stroke="black" points="405,-542.5 515,-542.5 "/>
<text text-anchor="start" x="413" y="-530.5" font-family="Helvetica,sans-Serif" font-size="10.00"># collection</text>
<text text-anchor="start" x="413" y="-519.5" font-family="Helvetica,sans-Serif" font-size="10.00"># collection</text>
<polyline fill="none" stroke="black" points="405,-512.5 515,-512.5 "/>
<text text-anchor="start" x="413" y="-500.5" font-family="Helvetica,sans-Serif" font-size="10.00">+ Container()</text>
<text text-anchor="start" x="413" y="-489.5" font-family="Helvetica,sans-Serif" font-size="10.00">+ Container()</text>
<text text-anchor="start" x="413" y="-478.5" font-family="Helvetica,sans-Serif" font-size="10.00">+ Container()</text>
<text text-anchor="start" x="413" y="-467.5" font-family="Helvetica,sans-Serif" font-size="10.00">+ ~Container()</text>
<text text-anchor="start" x="413" y="-456.5" font-family="Helvetica,sans-Serif" font-size="10.00">+ createIterator()</text>
<text text-anchor="start" x="413" y="-445.5" font-family="Helvetica,sans-Serif" font-size="10.00">+ push_back()</text>
<text text-anchor="start" x="413" y="-434.5" font-family="Helvetica,sans-Serif" font-size="10.00">+ push_back()</text>
<text text-anchor="start" x="413" y="-423.5" font-family="Helvetica,sans-Serif" font-size="10.00">+ reserve()</text>
<text text-anchor="start" x="413" y="-412.5" font-family="Helvetica,sans-Serif" font-size="10.00">+ reserve()</text>
<text text-anchor="start" x="413" y="-401.5" font-family="Helvetica,sans-Serif" font-size="10.00">+ empty()</text>
<text text-anchor="start" x="413" y="-390.5" font-family="Helvetica,sans-Serif" font-size="10.00">+ empty()</text>
<text text-anchor="start" x="413" y="-379.5" font-family="Helvetica,sans-Serif" font-size="10.00">+ size()</text>
<text text-anchor="start" x="413" y="-368.5" font-family="Helvetica,sans-Serif" font-size="10.00">+ size()</text>
<text text-anchor="start" x="413" y="-357.5" font-family="Helvetica,sans-Serif" font-size="10.00">+ clear()</text>
<text text-anchor="start" x="413" y="-346.5" font-family="Helvetica,sans-Serif" font-size="10.00">+ clear()</text>
<text text-anchor="start" x="413" y="-335.5" font-family="Helvetica,sans-Serif" font-size="10.00">+ show()</text>
<text text-anchor="start" x="413" y="-324.5" font-family="Helvetica,sans-Serif" font-size="10.00">+ show()</text>
<text text-anchor="start" x="413" y="-313.5" font-family="Helvetica,sans-Serif" font-size="10.00">+ validate()</text>
<text text-anchor="start" x="413" y="-302.5" font-family="Helvetica,sans-Serif" font-size="10.00">+ validate()</text>
<text text-anchor="start" x="413" y="-291.5" font-family="Helvetica,sans-Serif" font-size="10.00">+ begin()</text>
<text text-anchor="start" x="413" y="-280.5" font-family="Helvetica,sans-Serif" font-size="10.00">+ end()</text>
<text text-anchor="start" x="413" y="-269.5" font-family="Helvetica,sans-Serif" font-size="10.00">+ load()</text>
<text text-anchor="start" x="413" y="-258.5" font-family="Helvetica,sans-Serif" font-size="10.00">+ store()</text>
<text text-anchor="start" x="413" y="-247.5" font-family="Helvetica,sans-Serif" font-size="10.00">+ append()</text>
<text text-anchor="start" x="413" y="-236.5" font-family="Helvetica,sans-Serif" font-size="10.00">+ resize()</text>
<text text-anchor="start" x="413" y="-225.5" font-family="Helvetica,sans-Serif" font-size="10.00">+ operator[]()</text>
</a>
</g>
<!-- Node2&#45;&gt;Node1 -->
<g id="edge2" class="edge"><title>Node2&#45;&gt;Node1</title>
<path fill="none" stroke="midnightblue" d="M460,-207.939C460,-198.111 460,-188.479 460,-179.224"/>
<polygon fill="none" stroke="midnightblue" points="456.5,-208.243 460,-218.243 463.5,-208.243 456.5,-208.243"/>
</g>
<!-- Node3 -->
<g id="node4" class="node"><title>Node3</title>
<a xlink:href="class_container_interface.html" target="_top" xlink:title="class ContainerInterface &#45;">
<polygon fill="white" stroke="black" points="181.5,-611 181.5,-767 332.5,-767 332.5,-611 181.5,-611"/>
<text text-anchor="middle" x="257" y="-755" font-family="Helvetica,sans-Serif" font-size="10.00">ContainerInterface&lt; Neuron &gt;</text>
<polyline fill="none" stroke="black" points="181.5,-748 332.5,-748 "/>
<text text-anchor="middle" x="257" y="-736" font-family="Helvetica,sans-Serif" font-size="10.00"> </text>
<polyline fill="none" stroke="black" points="181.5,-729 332.5,-729 "/>
<text text-anchor="start" x="189.5" y="-717" font-family="Helvetica,sans-Serif" font-size="10.00">+ ~ContainerInterface()</text>
<text text-anchor="start" x="189.5" y="-706" font-family="Helvetica,sans-Serif" font-size="10.00">+ createIterator()</text>
<text text-anchor="start" x="189.5" y="-695" font-family="Helvetica,sans-Serif" font-size="10.00">+ push_back()</text>
<text text-anchor="start" x="189.5" y="-684" font-family="Helvetica,sans-Serif" font-size="10.00">+ reserve()</text>
<text text-anchor="start" x="189.5" y="-673" font-family="Helvetica,sans-Serif" font-size="10.00">+ empty()</text>
<text text-anchor="start" x="189.5" y="-662" font-family="Helvetica,sans-Serif" font-size="10.00">+ size()</text>
<text text-anchor="start" x="189.5" y="-651" font-family="Helvetica,sans-Serif" font-size="10.00">+ clear()</text>
<text text-anchor="start" x="189.5" y="-640" font-family="Helvetica,sans-Serif" font-size="10.00">+ show()</text>
<text text-anchor="start" x="189.5" y="-629" font-family="Helvetica,sans-Serif" font-size="10.00">+ validate()</text>
<text text-anchor="start" x="189.5" y="-618" font-family="Helvetica,sans-Serif" font-size="10.00"># ContainerInterface()</text>
</a>
</g>
<!-- Node3&#45;&gt;Node2 -->
<g id="edge4" class="edge"><title>Node3&#45;&gt;Node2</title>
<path fill="none" stroke="midnightblue" d="M315.546,-602.343C343.712,-561.136 377.288,-512.012 404.978,-471.499"/>
<polygon fill="none" stroke="midnightblue" points="312.559,-600.511 309.806,-610.742 318.338,-604.461 312.559,-600.511"/>
</g>
<!-- Node4 -->
<g id="node6" class="node"><title>Node4</title>
<polygon fill="white" stroke="#bfbfbf" points="351,-660.5 351,-717.5 467,-717.5 467,-660.5 351,-660.5"/>
<text text-anchor="middle" x="409" y="-705.5" font-family="Helvetica,sans-Serif" font-size="10.00">std::vector&lt; Neuron &gt;</text>
<polyline fill="none" stroke="#bfbfbf" points="351,-698.5 467,-698.5 "/>
<text text-anchor="start" x="359" y="-686.5" font-family="Helvetica,sans-Serif" font-size="10.00">&#45; elements</text>
<polyline fill="none" stroke="#bfbfbf" points="351,-679.5 467,-679.5 "/>
<text text-anchor="middle" x="409" y="-667.5" font-family="Helvetica,sans-Serif" font-size="10.00"> </text>
</g>
<!-- Node4&#45;&gt;Node2 -->
<g id="edge6" class="edge"><title>Node4&#45;&gt;Node2</title>
<path fill="none" stroke="#9a32cd" stroke-dasharray="5,2" d="M415.489,-650.214C419.5,-626.856 424.963,-595.041 430.688,-561.7"/>
<polygon fill="#9a32cd" stroke="#9a32cd" points="413.752,-660.326 411.01,-649.708 414.598,-655.398 415.445,-650.47 415.445,-650.47 415.445,-650.47 414.598,-655.398 419.88,-651.232 413.752,-660.326 413.752,-660.326"/>
<text text-anchor="middle" x="448.5" y="-583.5" font-family="Helvetica,sans-Serif" font-size="10.00">collection</text>
</g>
<!-- Node5 -->
<g id="node8" class="node"><title>Node5</title>
<a xlink:href="class_neuron.html" target="_top" xlink:title="class Neuron &#45;">
<polygon fill="white" stroke="black" points="360,-816.5 360,-1093.5 448,-1093.5 448,-816.5 360,-816.5"/>
<text text-anchor="middle" x="404" y="-1081.5" font-family="Helvetica,sans-Serif" font-size="10.00">Neuron</text>
<polyline fill="none" stroke="black" points="360,-1074.5 448,-1074.5 "/>
<text text-anchor="start" x="368" y="-1062.5" font-family="Helvetica,sans-Serif" font-size="10.00"># d_Id</text>
<text text-anchor="start" x="368" y="-1051.5" font-family="Helvetica,sans-Serif" font-size="10.00">&#45; Id</text>
<text text-anchor="start" x="368" y="-1040.5" font-family="Helvetica,sans-Serif" font-size="10.00">&#45; con</text>
<text text-anchor="start" x="368" y="-1029.5" font-family="Helvetica,sans-Serif" font-size="10.00">&#45; outputValue</text>
<polyline fill="none" stroke="black" points="360,-1022.5 448,-1022.5 "/>
<text text-anchor="start" x="368" y="-1010.5" font-family="Helvetica,sans-Serif" font-size="10.00">+ Neuron()</text>
<text text-anchor="start" x="368" y="-999.5" font-family="Helvetica,sans-Serif" font-size="10.00">+ Neuron()</text>
<text text-anchor="start" x="368" y="-988.5" font-family="Helvetica,sans-Serif" font-size="10.00">+ Id()</text>
<text text-anchor="start" x="368" y="-977.5" font-family="Helvetica,sans-Serif" font-size="10.00">+ show()</text>
<text text-anchor="start" x="368" y="-966.5" font-family="Helvetica,sans-Serif" font-size="10.00">+ validate()</text>
<text text-anchor="start" x="368" y="-955.5" font-family="Helvetica,sans-Serif" font-size="10.00">+ Neuron()</text>
<text text-anchor="start" x="368" y="-944.5" font-family="Helvetica,sans-Serif" font-size="10.00">+ Neuron()</text>
<text text-anchor="start" x="368" y="-933.5" font-family="Helvetica,sans-Serif" font-size="10.00">+ Neuron()</text>
<text text-anchor="start" x="368" y="-922.5" font-family="Helvetica,sans-Serif" font-size="10.00">+ ~Neuron()</text>
<text text-anchor="start" x="368" y="-911.5" font-family="Helvetica,sans-Serif" font-size="10.00">+ getId()</text>
<text text-anchor="start" x="368" y="-900.5" font-family="Helvetica,sans-Serif" font-size="10.00">+ setId()</text>
<text text-anchor="start" x="368" y="-889.5" font-family="Helvetica,sans-Serif" font-size="10.00">+ getConId()</text>
<text text-anchor="start" x="368" y="-878.5" font-family="Helvetica,sans-Serif" font-size="10.00">+ getWeight()</text>
<text text-anchor="start" x="368" y="-867.5" font-family="Helvetica,sans-Serif" font-size="10.00">+ setFrom()</text>
<text text-anchor="start" x="368" y="-856.5" font-family="Helvetica,sans-Serif" font-size="10.00">+ setWeight()</text>
<text text-anchor="start" x="368" y="-845.5" font-family="Helvetica,sans-Serif" font-size="10.00">+ numOfCons()</text>
<text text-anchor="start" x="368" y="-834.5" font-family="Helvetica,sans-Serif" font-size="10.00">+ show()</text>
<text text-anchor="start" x="368" y="-823.5" font-family="Helvetica,sans-Serif" font-size="10.00">+ validate()</text>
</a>
</g>
<!-- Node5&#45;&gt;Node4 -->
<g id="edge8" class="edge"><title>Node5&#45;&gt;Node4</title>
<path fill="none" stroke="#9a32cd" stroke-dasharray="5,2" d="M406.801,-806.116C407.444,-772.17 408.06,-739.647 408.475,-717.701"/>
<polygon fill="#9a32cd" stroke="#9a32cd" points="406.61,-816.201 402.3,-806.117 406.705,-811.202 406.799,-806.203 406.799,-806.203 406.799,-806.203 406.705,-811.202 411.298,-806.288 406.61,-816.201 406.61,-816.201"/>
<text text-anchor="middle" x="428.5" y="-789.5" font-family="Helvetica,sans-Serif" font-size="10.00">elements</text>
</g>
<!-- Node6 -->
<g id="node10" class="node"><title>Node6</title>
<a xlink:href="class_container.html" target="_top" xlink:title="{Container\&lt; Con \&gt;\n|# collection\l# collection\l|+ Container()\l+ Container()\l+ Container()\l+ ~Container()\l+ createIterator()\l+ push_back()\l+ push_back()\l+ reserve()\l+ reserve()\l+ empty()\l+ empty()\l+ size()\l+ size()\l+ clear()\l+ clear()\l+ show()\l+ show()\l+ validate()\l+ validate()\l+ begin()\l+ end()\l+ load()\l+ store()\l+ append()\l+ resize()\l+ operator[]()\l}">
<polygon fill="white" stroke="black" points="333.5,-1142.5 333.5,-1485.5 430.5,-1485.5 430.5,-1142.5 333.5,-1142.5"/>
<text text-anchor="middle" x="382" y="-1473.5" font-family="Helvetica,sans-Serif" font-size="10.00">Container&lt; Con &gt;</text>
<polyline fill="none" stroke="black" points="333.5,-1466.5 430.5,-1466.5 "/>
<text text-anchor="start" x="341.5" y="-1454.5" font-family="Helvetica,sans-Serif" font-size="10.00"># collection</text>
<text text-anchor="start" x="341.5" y="-1443.5" font-family="Helvetica,sans-Serif" font-size="10.00"># collection</text>
<polyline fill="none" stroke="black" points="333.5,-1436.5 430.5,-1436.5 "/>
<text text-anchor="start" x="341.5" y="-1424.5" font-family="Helvetica,sans-Serif" font-size="10.00">+ Container()</text>
<text text-anchor="start" x="341.5" y="-1413.5" font-family="Helvetica,sans-Serif" font-size="10.00">+ Container()</text>
<text text-anchor="start" x="341.5" y="-1402.5" font-family="Helvetica,sans-Serif" font-size="10.00">+ Container()</text>
<text text-anchor="start" x="341.5" y="-1391.5" font-family="Helvetica,sans-Serif" font-size="10.00">+ ~Container()</text>
<text text-anchor="start" x="341.5" y="-1380.5" font-family="Helvetica,sans-Serif" font-size="10.00">+ createIterator()</text>
<text text-anchor="start" x="341.5" y="-1369.5" font-family="Helvetica,sans-Serif" font-size="10.00">+ push_back()</text>
<text text-anchor="start" x="341.5" y="-1358.5" font-family="Helvetica,sans-Serif" font-size="10.00">+ push_back()</text>
<text text-anchor="start" x="341.5" y="-1347.5" font-family="Helvetica,sans-Serif" font-size="10.00">+ reserve()</text>
<text text-anchor="start" x="341.5" y="-1336.5" font-family="Helvetica,sans-Serif" font-size="10.00">+ reserve()</text>
<text text-anchor="start" x="341.5" y="-1325.5" font-family="Helvetica,sans-Serif" font-size="10.00">+ empty()</text>
<text text-anchor="start" x="341.5" y="-1314.5" font-family="Helvetica,sans-Serif" font-size="10.00">+ empty()</text>
<text text-anchor="start" x="341.5" y="-1303.5" font-family="Helvetica,sans-Serif" font-size="10.00">+ size()</text>
<text text-anchor="start" x="341.5" y="-1292.5" font-family="Helvetica,sans-Serif" font-size="10.00">+ size()</text>
<text text-anchor="start" x="341.5" y="-1281.5" font-family="Helvetica,sans-Serif" font-size="10.00">+ clear()</text>
<text text-anchor="start" x="341.5" y="-1270.5" font-family="Helvetica,sans-Serif" font-size="10.00">+ clear()</text>
<text text-anchor="start" x="341.5" y="-1259.5" font-family="Helvetica,sans-Serif" font-size="10.00">+ show()</text>
<text text-anchor="start" x="341.5" y="-1248.5" font-family="Helvetica,sans-Serif" font-size="10.00">+ show()</text>
<text text-anchor="start" x="341.5" y="-1237.5" font-family="Helvetica,sans-Serif" font-size="10.00">+ validate()</text>
<text text-anchor="start" x="341.5" y="-1226.5" font-family="Helvetica,sans-Serif" font-size="10.00">+ validate()</text>
<text text-anchor="start" x="341.5" y="-1215.5" font-family="Helvetica,sans-Serif" font-size="10.00">+ begin()</text>
<text text-anchor="start" x="341.5" y="-1204.5" font-family="Helvetica,sans-Serif" font-size="10.00">+ end()</text>
<text text-anchor="start" x="341.5" y="-1193.5" font-family="Helvetica,sans-Serif" font-size="10.00">+ load()</text>
<text text-anchor="start" x="341.5" y="-1182.5" font-family="Helvetica,sans-Serif" font-size="10.00">+ store()</text>
<text text-anchor="start" x="341.5" y="-1171.5" font-family="Helvetica,sans-Serif" font-size="10.00">+ append()</text>
<text text-anchor="start" x="341.5" y="-1160.5" font-family="Helvetica,sans-Serif" font-size="10.00">+ resize()</text>
<text text-anchor="start" x="341.5" y="-1149.5" font-family="Helvetica,sans-Serif" font-size="10.00">+ operator[]()</text>
</a>
</g>
<!-- Node6&#45;&gt;Node5 -->
<g id="edge10" class="edge"><title>Node6&#45;&gt;Node5</title>
<path fill="none" stroke="#9a32cd" stroke-dasharray="5,2" d="M393.153,-1132.01C393.947,-1119.13 394.74,-1106.26 395.515,-1093.69"/>
<polygon fill="#9a32cd" stroke="#9a32cd" points="392.517,-1142.34 388.64,-1132.08 392.824,-1137.35 393.132,-1132.36 393.132,-1132.36 393.132,-1132.36 392.824,-1137.35 397.623,-1132.64 392.517,-1142.34 392.517,-1142.34"/>
<text text-anchor="middle" x="402.5" y="-1115.5" font-family="Helvetica,sans-Serif" font-size="10.00">con</text>
</g>
<!-- Node7 -->
<g id="node12" class="node"><title>Node7</title>
<a xlink:href="class_container_interface.html" target="_top" xlink:title="class ContainerInterface &#45;">
<polygon fill="white" stroke="black" points="127.5,-1674 127.5,-1830 264.5,-1830 264.5,-1674 127.5,-1674"/>
<text text-anchor="middle" x="196" y="-1818" font-family="Helvetica,sans-Serif" font-size="10.00">ContainerInterface&lt; Con &gt;</text>
<polyline fill="none" stroke="black" points="127.5,-1811 264.5,-1811 "/>
<text text-anchor="middle" x="196" y="-1799" font-family="Helvetica,sans-Serif" font-size="10.00"> </text>
<polyline fill="none" stroke="black" points="127.5,-1792 264.5,-1792 "/>
<text text-anchor="start" x="135.5" y="-1780" font-family="Helvetica,sans-Serif" font-size="10.00">+ ~ContainerInterface()</text>
<text text-anchor="start" x="135.5" y="-1769" font-family="Helvetica,sans-Serif" font-size="10.00">+ createIterator()</text>
<text text-anchor="start" x="135.5" y="-1758" font-family="Helvetica,sans-Serif" font-size="10.00">+ push_back()</text>
<text text-anchor="start" x="135.5" y="-1747" font-family="Helvetica,sans-Serif" font-size="10.00">+ reserve()</text>
<text text-anchor="start" x="135.5" y="-1736" font-family="Helvetica,sans-Serif" font-size="10.00">+ empty()</text>
<text text-anchor="start" x="135.5" y="-1725" font-family="Helvetica,sans-Serif" font-size="10.00">+ size()</text>
<text text-anchor="start" x="135.5" y="-1714" font-family="Helvetica,sans-Serif" font-size="10.00">+ clear()</text>
<text text-anchor="start" x="135.5" y="-1703" font-family="Helvetica,sans-Serif" font-size="10.00">+ show()</text>
<text text-anchor="start" x="135.5" y="-1692" font-family="Helvetica,sans-Serif" font-size="10.00">+ validate()</text>
<text text-anchor="start" x="135.5" y="-1681" font-family="Helvetica,sans-Serif" font-size="10.00"># ContainerInterface()</text>
</a>
</g>
<!-- Node7&#45;&gt;Node6 -->
<g id="edge12" class="edge"><title>Node7&#45;&gt;Node6</title>
<path fill="none" stroke="midnightblue" d="M225.279,-1664.21C242.07,-1616.42 264.281,-1556.36 287,-1504 300.96,-1471.83 317.725,-1437.36 333.26,-1406.78"/>
<polygon fill="none" stroke="midnightblue" points="221.886,-1663.31 221.888,-1673.9 228.494,-1665.62 221.886,-1663.31"/>
</g>
<!-- Node8 -->
<g id="node14" class="node"><title>Node8</title>
<polygon fill="white" stroke="#bfbfbf" points="279,-1942.5 279,-1999.5 479,-1999.5 479,-1942.5 279,-1942.5"/>
<text text-anchor="middle" x="379" y="-1987.5" font-family="Helvetica,sans-Serif" font-size="10.00">std::vector&lt; boost::shared_ptr&lt; Con &gt; &gt;</text>
<polyline fill="none" stroke="#bfbfbf" points="279,-1980.5 479,-1980.5 "/>
<text text-anchor="start" x="287" y="-1968.5" font-family="Helvetica,sans-Serif" font-size="10.00">&#45; elements</text>
<polyline fill="none" stroke="#bfbfbf" points="279,-1961.5 479,-1961.5 "/>
<text text-anchor="middle" x="379" y="-1949.5" font-family="Helvetica,sans-Serif" font-size="10.00"> </text>
</g>
<!-- Node8&#45;&gt;Node6 -->
<g id="edge14" class="edge"><title>Node8&#45;&gt;Node6</title>
<path fill="none" stroke="#9a32cd" stroke-dasharray="5,2" d="M379.174,-1932.08C379.563,-1847.15 380.524,-1637.25 381.218,-1485.82"/>
<polygon fill="#9a32cd" stroke="#9a32cd" points="379.127,-1942.27 374.673,-1932.25 379.15,-1937.27 379.173,-1932.27 379.173,-1932.27 379.173,-1932.27 379.15,-1937.27 383.673,-1932.29 379.127,-1942.27 379.127,-1942.27"/>
<text text-anchor="middle" x="402.5" y="-1749.5" font-family="Helvetica,sans-Serif" font-size="10.00">collection</text>
</g>
<!-- Node9 -->
<g id="node16" class="node"><title>Node9</title>
<a xlink:title="STL class.">
<polygon fill="white" stroke="#bfbfbf" points="217.5,-2334.5 217.5,-2391.5 306.5,-2391.5 306.5,-2334.5 217.5,-2334.5"/>
<text text-anchor="middle" x="262" y="-2379.5" font-family="Helvetica,sans-Serif" font-size="10.00">std::vector&lt; T &gt;</text>
<polyline fill="none" stroke="#bfbfbf" points="217.5,-2372.5 306.5,-2372.5 "/>
<text text-anchor="start" x="225.5" y="-2360.5" font-family="Helvetica,sans-Serif" font-size="10.00">&#45; elements</text>
<polyline fill="none" stroke="#bfbfbf" points="217.5,-2353.5 306.5,-2353.5 "/>
<text text-anchor="middle" x="262" y="-2341.5" font-family="Helvetica,sans-Serif" font-size="10.00"> </text>
</a>
</g>
<!-- Node9&#45;&gt;Node4 -->
<g id="edge34" class="edge"><title>Node9&#45;&gt;Node4</title>
<path fill="none" stroke="orange" stroke-dasharray="5,2" d="M222.693,-2327.09C174.459,-2280.19 99,-2191.82 99,-2098 99,-2098 99,-2098 99,-954 99,-818.346 242.164,-860.917 341,-768 357.623,-752.372 374.489,-733.054 387.265,-717.552"/>
<polygon fill="orange" stroke="orange" points="220.539,-2329.87 230.185,-2334.25 225.378,-2324.81 220.539,-2329.87"/>
<text text-anchor="middle" x="124" y="-1530.5" font-family="Helvetica,sans-Serif" font-size="10.00">&lt; Neuron &gt;</text>
</g>
<!-- Node9&#45;&gt;Node8 -->
<g id="edge16" class="edge"><title>Node9&#45;&gt;Node8</title>
<path fill="none" stroke="orange" stroke-dasharray="5,2" d="M259.489,-2324.24C255.005,-2245.22 249.096,-2065.82 284,-2018 289.185,-2010.9 295.766,-2004.84 303.037,-1999.68"/>
<polygon fill="orange" stroke="orange" points="255.996,-2324.48 260.08,-2334.25 262.984,-2324.06 255.996,-2324.48"/>
<text text-anchor="middle" x="323" y="-2197.5" font-family="Helvetica,sans-Serif" font-size="10.00">&lt; boost::shared_ptr&lt; Con &gt; &gt;</text>
</g>
<!-- Node11 -->
<g id="node20" class="node"><title>Node11</title>
<polygon fill="white" stroke="#bfbfbf" points="132,-2068.5 132,-2125.5 234,-2125.5 234,-2068.5 132,-2068.5"/>
<text text-anchor="middle" x="183" y="-2113.5" font-family="Helvetica,sans-Serif" font-size="10.00">std::vector&lt; Con &gt;</text>
<polyline fill="none" stroke="#bfbfbf" points="132,-2106.5 234,-2106.5 "/>
<text text-anchor="start" x="140" y="-2094.5" font-family="Helvetica,sans-Serif" font-size="10.00">&#45; elements</text>
<polyline fill="none" stroke="#bfbfbf" points="132,-2087.5 234,-2087.5 "/>
<text text-anchor="middle" x="183" y="-2075.5" font-family="Helvetica,sans-Serif" font-size="10.00"> </text>
</g>
<!-- Node9&#45;&gt;Node11 -->
<g id="edge24" class="edge"><title>Node9&#45;&gt;Node11</title>
<path fill="none" stroke="orange" stroke-dasharray="5,2" d="M246.149,-2324.67C233.359,-2293.42 215.641,-2247.42 204,-2206 196.454,-2179.15 190.685,-2147.8 187.12,-2125.81"/>
<polygon fill="orange" stroke="orange" points="243.063,-2326.37 250.114,-2334.28 249.533,-2323.7 243.063,-2326.37"/>
<text text-anchor="middle" x="222" y="-2197.5" font-family="Helvetica,sans-Serif" font-size="10.00">&lt; Con &gt;</text>
</g>
<!-- Node15 -->
<g id="node29" class="node"><title>Node15</title>
<polygon fill="white" stroke="#bfbfbf" points="293,-2068.5 293,-2125.5 481,-2125.5 481,-2068.5 293,-2068.5"/>
<text text-anchor="middle" x="387" y="-2113.5" font-family="Helvetica,sans-Serif" font-size="10.00">std::vector&lt; boost::shared_ptr&lt; T &gt; &gt;</text>
<polyline fill="none" stroke="#bfbfbf" points="293,-2106.5 481,-2106.5 "/>
<text text-anchor="start" x="301" y="-2094.5" font-family="Helvetica,sans-Serif" font-size="10.00">&#45; elements</text>
<polyline fill="none" stroke="#bfbfbf" points="293,-2087.5 481,-2087.5 "/>
<text text-anchor="middle" x="387" y="-2075.5" font-family="Helvetica,sans-Serif" font-size="10.00"> </text>
</g>
<!-- Node9&#45;&gt;Node15 -->
<g id="edge32" class="edge"><title>Node9&#45;&gt;Node15</title>
<path fill="none" stroke="orange" stroke-dasharray="5,2" d="M305.062,-2327.65C337.245,-2299.01 378.707,-2255.09 397,-2206 406.731,-2179.89 401.868,-2147.87 396.033,-2125.5"/>
<polygon fill="orange" stroke="orange" points="302.749,-2325.02 297.517,-2334.23 307.352,-2330.29 302.749,-2325.02"/>
<text text-anchor="middle" x="460.5" y="-2197.5" font-family="Helvetica,sans-Serif" font-size="10.00">&lt; boost::shared_ptr&lt; T &gt; &gt;</text>
</g>
<!-- Node16 -->
<g id="node33" class="node"><title>Node16</title>
<polygon fill="white" stroke="#bfbfbf" points="518.5,-1504.5 518.5,-1561.5 733.5,-1561.5 733.5,-1504.5 518.5,-1504.5"/>
<text text-anchor="middle" x="626" y="-1549.5" font-family="Helvetica,sans-Serif" font-size="10.00">std::vector&lt; boost::shared_ptr&lt; Neuron &gt; &gt;</text>
<polyline fill="none" stroke="#bfbfbf" points="518.5,-1542.5 733.5,-1542.5 "/>
<text text-anchor="start" x="526.5" y="-1530.5" font-family="Helvetica,sans-Serif" font-size="10.00">&#45; elements</text>
<polyline fill="none" stroke="#bfbfbf" points="518.5,-1523.5 733.5,-1523.5 "/>
<text text-anchor="middle" x="626" y="-1511.5" font-family="Helvetica,sans-Serif" font-size="10.00"> </text>
</g>
<!-- Node9&#45;&gt;Node16 -->
<g id="edge38" class="edge"><title>Node9&#45;&gt;Node16</title>
<path fill="none" stroke="orange" stroke-dasharray="5,2" d="M316.647,-2352.98C401.714,-2335.68 563.264,-2288.97 633,-2176 759.174,-1971.6 667.962,-1656.39 635.944,-1561.77"/>
<polygon fill="orange" stroke="orange" points="315.798,-2349.58 306.663,-2354.95 317.151,-2356.45 315.798,-2349.58"/>
<text text-anchor="middle" x="762" y="-2094.5" font-family="Helvetica,sans-Serif" font-size="10.00">&lt; boost::shared_ptr&lt; Neuron &gt; &gt;</text>
</g>
<!-- Node10 -->
<g id="node18" class="node"><title>Node10</title>
<polygon fill="white" stroke="#bfbfbf" points="247.5,-2550.5 247.5,-2607.5 276.5,-2607.5 276.5,-2550.5 247.5,-2550.5"/>
<text text-anchor="middle" x="262" y="-2595.5" font-family="Helvetica,sans-Serif" font-size="10.00">T</text>
<polyline fill="none" stroke="#bfbfbf" points="247.5,-2588.5 276.5,-2588.5 "/>
<text text-anchor="middle" x="262" y="-2576.5" font-family="Helvetica,sans-Serif" font-size="10.00"> </text>
<polyline fill="none" stroke="#bfbfbf" points="247.5,-2569.5 276.5,-2569.5 "/>
<text text-anchor="middle" x="262" y="-2557.5" font-family="Helvetica,sans-Serif" font-size="10.00"> </text>
</g>
<!-- Node10&#45;&gt;Node9 -->
<g id="edge18" class="edge"><title>Node10&#45;&gt;Node9</title>
<path fill="none" stroke="#9a32cd" stroke-dasharray="5,2" d="M262,-2540.24C262,-2497.73 262,-2429.67 262,-2391.77"/>
<polygon fill="#9a32cd" stroke="#9a32cd" points="262,-2550.46 257.5,-2540.46 262,-2545.46 262,-2540.46 262,-2540.46 262,-2540.46 262,-2545.46 266.5,-2540.46 262,-2550.46 262,-2550.46"/>
<text text-anchor="middle" x="283.5" y="-2523.5" font-family="Helvetica,sans-Serif" font-size="10.00">elements</text>
</g>
<!-- Node11&#45;&gt;Node6 -->
<g id="edge20" class="edge"><title>Node11&#45;&gt;Node6</title>
<path fill="none" stroke="#9a32cd" stroke-dasharray="5,2" d="M206.356,-2059.73C227.04,-2025.92 256.446,-1973.43 273,-1924 322.211,-1777.05 302.41,-1732.5 330,-1580 335.53,-1549.44 341.68,-1516.94 347.759,-1485.57"/>
<polygon fill="#9a32cd" stroke="#9a32cd" points="201.035,-2068.33 202.47,-2057.46 203.666,-2064.07 206.297,-2059.82 206.297,-2059.82 206.297,-2059.82 203.666,-2064.07 210.124,-2062.19 201.035,-2068.33 201.035,-2068.33"/>
<text text-anchor="middle" x="352.5" y="-1749.5" font-family="Helvetica,sans-Serif" font-size="10.00">collection</text>
</g>
<!-- Node12 -->
<g id="node22" class="node"><title>Node12</title>
<a xlink:href="class_con.html" target="_top" xlink:title="class Con &#45;">
<polygon fill="white" stroke="black" points="-0.5,-2224.5 -0.5,-2501.5 82.5,-2501.5 82.5,-2224.5 -0.5,-2224.5"/>
<text text-anchor="middle" x="41" y="-2489.5" font-family="Helvetica,sans-Serif" font-size="10.00">Con</text>
<polyline fill="none" stroke="black" points="-0.5,-2482.5 82.5,-2482.5 "/>
<text text-anchor="start" x="7.5" y="-2470.5" font-family="Helvetica,sans-Serif" font-size="10.00"># d_neuron</text>
<text text-anchor="start" x="7.5" y="-2459.5" font-family="Helvetica,sans-Serif" font-size="10.00"># d_weight</text>
<text text-anchor="start" x="7.5" y="-2448.5" font-family="Helvetica,sans-Serif" font-size="10.00">&#45; from</text>
<text text-anchor="start" x="7.5" y="-2437.5" font-family="Helvetica,sans-Serif" font-size="10.00">&#45; weight</text>
<polyline fill="none" stroke="black" points="-0.5,-2430.5 82.5,-2430.5 "/>
<text text-anchor="start" x="7.5" y="-2418.5" font-family="Helvetica,sans-Serif" font-size="10.00">+ Con()</text>
<text text-anchor="start" x="7.5" y="-2407.5" font-family="Helvetica,sans-Serif" font-size="10.00">+ Con()</text>
<text text-anchor="start" x="7.5" y="-2396.5" font-family="Helvetica,sans-Serif" font-size="10.00">+ neuron()</text>
<text text-anchor="start" x="7.5" y="-2385.5" font-family="Helvetica,sans-Serif" font-size="10.00">+ Id()</text>
<text text-anchor="start" x="7.5" y="-2374.5" font-family="Helvetica,sans-Serif" font-size="10.00">+ weight()</text>
<text text-anchor="start" x="7.5" y="-2363.5" font-family="Helvetica,sans-Serif" font-size="10.00">+ show()</text>
<text text-anchor="start" x="7.5" y="-2352.5" font-family="Helvetica,sans-Serif" font-size="10.00">+ validate()</text>
<text text-anchor="start" x="7.5" y="-2341.5" font-family="Helvetica,sans-Serif" font-size="10.00">+ Con()</text>
<text text-anchor="start" x="7.5" y="-2330.5" font-family="Helvetica,sans-Serif" font-size="10.00">+ Con()</text>
<text text-anchor="start" x="7.5" y="-2319.5" font-family="Helvetica,sans-Serif" font-size="10.00">+ Con()</text>
<text text-anchor="start" x="7.5" y="-2308.5" font-family="Helvetica,sans-Serif" font-size="10.00">+ ~Con()</text>
<text text-anchor="start" x="7.5" y="-2297.5" font-family="Helvetica,sans-Serif" font-size="10.00">+ getFrom()</text>
<text text-anchor="start" x="7.5" y="-2286.5" font-family="Helvetica,sans-Serif" font-size="10.00">+ setFrom()</text>
<text text-anchor="start" x="7.5" y="-2275.5" font-family="Helvetica,sans-Serif" font-size="10.00">+ getId()</text>
<text text-anchor="start" x="7.5" y="-2264.5" font-family="Helvetica,sans-Serif" font-size="10.00">+ getWeight()</text>
<text text-anchor="start" x="7.5" y="-2253.5" font-family="Helvetica,sans-Serif" font-size="10.00">+ setWeight()</text>
<text text-anchor="start" x="7.5" y="-2242.5" font-family="Helvetica,sans-Serif" font-size="10.00">+ show()</text>
<text text-anchor="start" x="7.5" y="-2231.5" font-family="Helvetica,sans-Serif" font-size="10.00">+ validate()</text>
</a>
</g>
<!-- Node12&#45;&gt;Node11 -->
<g id="edge22" class="edge"><title>Node12&#45;&gt;Node11</title>
<path fill="none" stroke="#9a32cd" stroke-dasharray="5,2" d="M87.4375,-2275.67C115.409,-2223.66 149.181,-2160.88 168.164,-2125.58"/>
<polygon fill="#9a32cd" stroke="#9a32cd" points="82.6452,-2284.58 83.4192,-2273.64 85.0138,-2280.17 87.3823,-2275.77 87.3823,-2275.77 87.3823,-2275.77 85.0138,-2280.17 91.3454,-2277.9 82.6452,-2284.58 82.6452,-2284.58"/>
<text text-anchor="middle" x="150.5" y="-2197.5" font-family="Helvetica,sans-Serif" font-size="10.00">elements</text>
</g>
<!-- Node13 -->
<g id="node25" class="node"><title>Node13</title>
<a xlink:href="class_container.html" target="_top" xlink:title="class Container &#45;">
<polygon fill="white" stroke="black" points="449.5,-1580.5 449.5,-1923.5 546.5,-1923.5 546.5,-1580.5 449.5,-1580.5"/>
<text text-anchor="middle" x="498" y="-1911.5" font-family="Helvetica,sans-Serif" font-size="10.00">Container&lt; T &gt;</text>
<polyline fill="none" stroke="black" points="449.5,-1904.5 546.5,-1904.5 "/>
<text text-anchor="start" x="457.5" y="-1892.5" font-family="Helvetica,sans-Serif" font-size="10.00"># collection</text>
<text text-anchor="start" x="457.5" y="-1881.5" font-family="Helvetica,sans-Serif" font-size="10.00"># collection</text>
<polyline fill="none" stroke="black" points="449.5,-1874.5 546.5,-1874.5 "/>
<text text-anchor="start" x="457.5" y="-1862.5" font-family="Helvetica,sans-Serif" font-size="10.00">+ Container()</text>
<text text-anchor="start" x="457.5" y="-1851.5" font-family="Helvetica,sans-Serif" font-size="10.00">+ ~Container()</text>
<text text-anchor="start" x="457.5" y="-1840.5" font-family="Helvetica,sans-Serif" font-size="10.00">+ createIterator()</text>
<text text-anchor="start" x="457.5" y="-1829.5" font-family="Helvetica,sans-Serif" font-size="10.00">+ push_back()</text>
<text text-anchor="start" x="457.5" y="-1818.5" font-family="Helvetica,sans-Serif" font-size="10.00">+ reserve()</text>
<text text-anchor="start" x="457.5" y="-1807.5" font-family="Helvetica,sans-Serif" font-size="10.00">+ empty()</text>
<text text-anchor="start" x="457.5" y="-1796.5" font-family="Helvetica,sans-Serif" font-size="10.00">+ size()</text>
<text text-anchor="start" x="457.5" y="-1785.5" font-family="Helvetica,sans-Serif" font-size="10.00">+ clear()</text>
<text text-anchor="start" x="457.5" y="-1774.5" font-family="Helvetica,sans-Serif" font-size="10.00">+ show()</text>
<text text-anchor="start" x="457.5" y="-1763.5" font-family="Helvetica,sans-Serif" font-size="10.00">+ validate()</text>
<text text-anchor="start" x="457.5" y="-1752.5" font-family="Helvetica,sans-Serif" font-size="10.00">+ Container()</text>
<text text-anchor="start" x="457.5" y="-1741.5" font-family="Helvetica,sans-Serif" font-size="10.00">+ Container()</text>
<text text-anchor="start" x="457.5" y="-1730.5" font-family="Helvetica,sans-Serif" font-size="10.00">+ begin()</text>
<text text-anchor="start" x="457.5" y="-1719.5" font-family="Helvetica,sans-Serif" font-size="10.00">+ end()</text>
<text text-anchor="start" x="457.5" y="-1708.5" font-family="Helvetica,sans-Serif" font-size="10.00">+ load()</text>
<text text-anchor="start" x="457.5" y="-1697.5" font-family="Helvetica,sans-Serif" font-size="10.00">+ store()</text>
<text text-anchor="start" x="457.5" y="-1686.5" font-family="Helvetica,sans-Serif" font-size="10.00">+ size()</text>
<text text-anchor="start" x="457.5" y="-1675.5" font-family="Helvetica,sans-Serif" font-size="10.00">+ push_back()</text>
<text text-anchor="start" x="457.5" y="-1664.5" font-family="Helvetica,sans-Serif" font-size="10.00">+ append()</text>
<text text-anchor="start" x="457.5" y="-1653.5" font-family="Helvetica,sans-Serif" font-size="10.00">+ show()</text>
<text text-anchor="start" x="457.5" y="-1642.5" font-family="Helvetica,sans-Serif" font-size="10.00">+ validate()</text>
<text text-anchor="start" x="457.5" y="-1631.5" font-family="Helvetica,sans-Serif" font-size="10.00">+ reserve()</text>
<text text-anchor="start" x="457.5" y="-1620.5" font-family="Helvetica,sans-Serif" font-size="10.00">+ resize()</text>
<text text-anchor="start" x="457.5" y="-1609.5" font-family="Helvetica,sans-Serif" font-size="10.00">+ empty()</text>
<text text-anchor="start" x="457.5" y="-1598.5" font-family="Helvetica,sans-Serif" font-size="10.00">+ clear()</text>
<text text-anchor="start" x="457.5" y="-1587.5" font-family="Helvetica,sans-Serif" font-size="10.00">+ operator[]()</text>
</a>
</g>
<!-- Node13&#45;&gt;Node2 -->
<g id="edge40" class="edge"><title>Node13&#45;&gt;Node2</title>
<path fill="none" stroke="orange" stroke-dasharray="5,2" d="M497.399,-1569.96C497.187,-1491.57 497,-1398.76 497,-1315 497,-1315 497,-1315 497,-688 497,-646.951 493.476,-602.953 488.604,-561.736"/>
<polygon fill="orange" stroke="orange" points="493.9,-1570.44 497.428,-1580.43 500.9,-1570.42 493.9,-1570.44"/>
<text text-anchor="middle" x="522" y="-952.5" font-family="Helvetica,sans-Serif" font-size="10.00">&lt; Neuron &gt;</text>
</g>
<!-- Node13&#45;&gt;Node6 -->
<g id="edge26" class="edge"><title>Node13&#45;&gt;Node6</title>
<path fill="none" stroke="orange" stroke-dasharray="5,2" d="M449.265,-1570.49C448.504,-1567.64 447.749,-1564.81 447,-1562 440.434,-1537.36 433.539,-1511.33 426.793,-1485.78"/>
<polygon fill="orange" stroke="orange" points="445.91,-1571.49 451.873,-1580.25 452.673,-1569.69 445.91,-1571.49"/>
<text text-anchor="middle" x="465" y="-1530.5" font-family="Helvetica,sans-Serif" font-size="10.00">&lt; Con &gt;</text>
</g>
<!-- Node14 -->
<g id="node27" class="node"><title>Node14</title>
<a xlink:href="class_container_interface.html" target="_top" xlink:title="class ContainerInterface &#45;">
<polygon fill="white" stroke="black" points="499.5,-2019 499.5,-2175 624.5,-2175 624.5,-2019 499.5,-2019"/>
<text text-anchor="middle" x="562" y="-2163" font-family="Helvetica,sans-Serif" font-size="10.00">ContainerInterface&lt; T &gt;</text>
<polyline fill="none" stroke="black" points="499.5,-2156 624.5,-2156 "/>
<text text-anchor="middle" x="562" y="-2144" font-family="Helvetica,sans-Serif" font-size="10.00"> </text>
<polyline fill="none" stroke="black" points="499.5,-2137 624.5,-2137 "/>
<text text-anchor="start" x="507.5" y="-2125" font-family="Helvetica,sans-Serif" font-size="10.00">+ ~ContainerInterface()</text>
<text text-anchor="start" x="507.5" y="-2114" font-family="Helvetica,sans-Serif" font-size="10.00">+ createIterator()</text>
<text text-anchor="start" x="507.5" y="-2103" font-family="Helvetica,sans-Serif" font-size="10.00">+ push_back()</text>
<text text-anchor="start" x="507.5" y="-2092" font-family="Helvetica,sans-Serif" font-size="10.00">+ reserve()</text>
<text text-anchor="start" x="507.5" y="-2081" font-family="Helvetica,sans-Serif" font-size="10.00">+ empty()</text>
<text text-anchor="start" x="507.5" y="-2070" font-family="Helvetica,sans-Serif" font-size="10.00">+ size()</text>
<text text-anchor="start" x="507.5" y="-2059" font-family="Helvetica,sans-Serif" font-size="10.00">+ clear()</text>
<text text-anchor="start" x="507.5" y="-2048" font-family="Helvetica,sans-Serif" font-size="10.00">+ show()</text>
<text text-anchor="start" x="507.5" y="-2037" font-family="Helvetica,sans-Serif" font-size="10.00">+ validate()</text>
<text text-anchor="start" x="507.5" y="-2026" font-family="Helvetica,sans-Serif" font-size="10.00"># ContainerInterface()</text>
</a>
</g>
<!-- Node14&#45;&gt;Node13 -->
<g id="edge28" class="edge"><title>Node14&#45;&gt;Node13</title>
<path fill="none" stroke="midnightblue" d="M556.654,-2008.93C554.603,-1986.99 551.802,-1963.55 548,-1942 546.938,-1935.98 545.779,-1929.88 544.541,-1923.73"/>
<polygon fill="none" stroke="midnightblue" points="553.168,-2009.25 557.544,-2018.9 560.14,-2008.63 553.168,-2009.25"/>
</g>
<!-- Node15&#45;&gt;Node13 -->
<g id="edge30" class="edge"><title>Node15&#45;&gt;Node13</title>
<path fill="none" stroke="#9a32cd" stroke-dasharray="5,2" d="M432.088,-2061.56C450.247,-2045.06 469.376,-2023.72 480,-2000 490.634,-1976.26 497.247,-1949.95 501.146,-1923.6"/>
<polygon fill="#9a32cd" stroke="#9a32cd" points="424.393,-2068.33 428.929,-2058.35 428.148,-2065.03 431.902,-2061.73 431.902,-2061.73 431.902,-2061.73 428.148,-2065.03 434.874,-2065.1 424.393,-2068.33 424.393,-2068.33"/>
<text text-anchor="middle" x="519.5" y="-1968.5" font-family="Helvetica,sans-Serif" font-size="10.00">collection</text>
</g>
<!-- Node16&#45;&gt;Node2 -->
<g id="edge36" class="edge"><title>Node16&#45;&gt;Node2</title>
<path fill="none" stroke="#9a32cd" stroke-dasharray="5,2" d="M623.267,-1494.45C618.232,-1421.93 608,-1257.52 608,-1119 608,-1119 608,-1119 608,-688 608,-601.585 557.188,-514.471 515.11,-457.145"/>
<polygon fill="#9a32cd" stroke="#9a32cd" points="623.97,-1504.47 618.781,-1494.81 623.62,-1499.48 623.27,-1494.49 623.27,-1494.49 623.27,-1494.49 623.62,-1499.48 627.759,-1494.18 623.97,-1504.47 623.97,-1504.47"/>
<text text-anchor="middle" x="630.5" y="-952.5" font-family="Helvetica,sans-Serif" font-size="10.00">collection</text>
</g>
</g>
</svg>
