<?xml version="1.0" encoding="UTF-8" standalone="no"?>
<!DOCTYPE svg PUBLIC "-//W3C//DTD SVG 1.1//EN"
 "http://www.w3.org/Graphics/SVG/1.1/DTD/svg11.dtd">
<!-- Generated by graphviz version 2.25.20091207.0545 (20091207.0545)
 -->
<!-- Title: G Pages: 1 -->
<svg width="112pt" height="422pt"
 viewBox="0.00 0.00 112.00 422.00" xmlns="http://www.w3.org/2000/svg" xmlns:xlink="http://www.w3.org/1999/xlink">
<g id="graph1" class="graph" transform="scale(1 1) rotate(0) translate(4 418)">
<title>G</title>
<polygon fill="white" stroke="white" points="-4,5 -4,-418 109,-418 109,5 -4,5"/>
<!-- Node1 -->
<g id="node1" class="node"><title>Node1</title>
<polygon fill="#bfbfbf" stroke="black" points="5.5,-290.5 5.5,-413.5 98.5,-413.5 98.5,-290.5 5.5,-290.5"/>
<text text-anchor="middle" x="52" y="-400.5" font-family="Helvetica,sans-Serif" font-size="10.00">vecAMORE&lt; T &gt;</text>
<polyline fill="none" stroke="black" points="5.5,-394.5 98.5,-394.5 "/>
<text text-anchor="start" x="13.5" y="-381.5" font-family="Helvetica,sans-Serif" font-size="10.00"># ldata</text>
<polyline fill="none" stroke="black" points="5.5,-375.5 98.5,-375.5 "/>
<text text-anchor="start" x="13.5" y="-362.5" font-family="Helvetica,sans-Serif" font-size="10.00">+ getLdata()</text>
<text text-anchor="start" x="13.5" y="-351.5" font-family="Helvetica,sans-Serif" font-size="10.00">+ setLdata()</text>
<text text-anchor="start" x="13.5" y="-340.5" font-family="Helvetica,sans-Serif" font-size="10.00">+ size()</text>
<text text-anchor="start" x="13.5" y="-329.5" font-family="Helvetica,sans-Serif" font-size="10.00">+ push_back()</text>
<text text-anchor="start" x="13.5" y="-318.5" font-family="Helvetica,sans-Serif" font-size="10.00">+ append()</text>
<text text-anchor="start" x="13.5" y="-307.5" font-family="Helvetica,sans-Serif" font-size="10.00">+ show()</text>
<text text-anchor="start" x="13.5" y="-296.5" font-family="Helvetica,sans-Serif" font-size="10.00">+ validate()</text>
</g>
<!-- Node2 -->
<g id="node3" class="node"><title>Node2</title>
<a xlink:href="classvec_a_m_o_r_e.html" target="_top" xlink:title="{vecAMORE\&lt; Con \&gt;\n|# ldata\l|+ getLdata()\l+ setLdata()\l+ size()\l+ push_back()\l+ append()\l+ show()\l+ validate()\l}">
<polygon fill="white" stroke="black" points="-0.5,-118.5 -0.5,-241.5 104.5,-241.5 104.5,-118.5 -0.5,-118.5"/>
<text text-anchor="middle" x="52" y="-228.5" font-family="Helvetica,sans-Serif" font-size="10.00">vecAMORE&lt; Con &gt;</text>
<polyline fill="none" stroke="black" points="-0.5,-222.5 104.5,-222.5 "/>
<text text-anchor="start" x="7.5" y="-209.5" font-family="Helvetica,sans-Serif" font-size="10.00"># ldata</text>
<polyline fill="none" stroke="black" points="-0.5,-203.5 104.5,-203.5 "/>
<text text-anchor="start" x="7.5" y="-190.5" font-family="Helvetica,sans-Serif" font-size="10.00">+ getLdata()</text>
<text text-anchor="start" x="7.5" y="-179.5" font-family="Helvetica,sans-Serif" font-size="10.00">+ setLdata()</text>
<text text-anchor="start" x="7.5" y="-168.5" font-family="Helvetica,sans-Serif" font-size="10.00">+ size()</text>
<text text-anchor="start" x="7.5" y="-157.5" font-family="Helvetica,sans-Serif" font-size="10.00">+ push_back()</text>
<text text-anchor="start" x="7.5" y="-146.5" font-family="Helvetica,sans-Serif" font-size="10.00">+ append()</text>
<text text-anchor="start" x="7.5" y="-135.5" font-family="Helvetica,sans-Serif" font-size="10.00">+ show()</text>
<text text-anchor="start" x="7.5" y="-124.5" font-family="Helvetica,sans-Serif" font-size="10.00">+ validate()</text>
</a>
</g>
<!-- Node1&#45;&gt;Node2 -->
<g id="edge2" class="edge"><title>Node1&#45;&gt;Node2</title>
<path fill="none" stroke="orange" stroke-dasharray="5,2" d="M52,-280.248C52,-267.459 52,-254.238 52,-241.758"/>
<polygon fill="orange" stroke="orange" points="48.5001,-280.39 52,-290.39 55.5001,-280.39 48.5001,-280.39"/>
<text text-anchor="middle" x="70" y="-262.5" font-family="Helvetica,sans-Serif" font-size="10.00">&lt; Con &gt;</text>
</g>
<!-- Node3 -->
<g id="node5" class="node"><title>Node3</title>
<a xlink:href="classvec_con.html" target="_top" xlink:title="A vector of connections.">
<polygon fill="white" stroke="black" points="10,-0.5 10,-79.5 94,-79.5 94,-0.5 10,-0.5"/>
<text text-anchor="middle" x="52" y="-66.5" font-family="Helvetica,sans-Serif" font-size="10.00">vecCon</text>
<polyline fill="none" stroke="black" points="10,-60.5 94,-60.5 "/>
<text text-anchor="middle" x="52" y="-47.5" font-family="Helvetica,sans-Serif" font-size="10.00"> </text>
<polyline fill="none" stroke="black" points="10,-41.5 94,-41.5 "/>
<text text-anchor="start" x="18" y="-28.5" font-family="Helvetica,sans-Serif" font-size="10.00">+ numOfCons()</text>
<text text-anchor="start" x="18" y="-17.5" font-family="Helvetica,sans-Serif" font-size="10.00">+ getFromId()</text>
<text text-anchor="start" x="18" y="-6.5" font-family="Helvetica,sans-Serif" font-size="10.00">+ populate()</text>
</a>
</g>
<!-- Node2&#45;&gt;Node3 -->
<g id="edge4" class="edge"><title>Node2&#45;&gt;Node3</title>
<path fill="none" stroke="midnightblue" d="M52,-108.057C52,-98.3238 52,-88.6408 52,-79.7614"/>
<polygon fill="none" stroke="midnightblue" points="48.5001,-108.186 52,-118.186 55.5001,-108.186 48.5001,-108.186"/>
</g>
</g>
</svg>
