<?xml version="1.0" encoding="UTF-8" standalone="no"?>
<!DOCTYPE svg PUBLIC "-//W3C//DTD SVG 1.1//EN"
 "http://www.w3.org/Graphics/SVG/1.1/DTD/svg11.dtd">
<!-- Generated by graphviz version 2.28.0 (20110610.2051)
 -->
<!-- Title: G Pages: 1 -->
<svg width="528pt" height="28pt"
 viewBox="0.00 0.00 528.00 28.00" xmlns="http://www.w3.org/2000/svg" xmlns:xlink="http://www.w3.org/1999/xlink">
<g id="graph1" class="graph" transform="scale(1 1) rotate(0) translate(4 24)">
<title>G</title>
<polygon fill="white" stroke="white" points="-4,5 -4,-24 525,-24 525,5 -4,5"/>
<!-- Node1 -->
<g id="node1" class="node"><title>Node1</title>
<polygon fill="#bfbfbf" stroke="black" points="0,-0.5 0,-19.5 184,-19.5 184,-0.5 0,-0.5"/>
<text text-anchor="middle" x="92" y="-7.5" font-family="Helvetica,sans-Serif" font-size="10.00">MLPfactory::makeActivationFunction</text>
</g>
<!-- Node2 -->
<g id="node3" class="node"><title>Node2</title>
<a xlink:href="class_m_l_pfactory.html#a6dd50bc994fa69d7c4de183284efdae2" target="_top" xlink:title="MLPfactory::makeNeuron">
<polygon fill="white" stroke="black" points="220,-0.5 220,-19.5 352,-19.5 352,-0.5 220,-0.5"/>
<text text-anchor="middle" x="286" y="-7.5" font-family="Helvetica,sans-Serif" font-size="10.00">MLPfactory::makeNeuron</text>
</a>
</g>
<!-- Node1&#45;&gt;Node2 -->
<g id="edge2" class="edge"><title>Node1&#45;&gt;Node2</title>
<path fill="none" stroke="midnightblue" d="M194.351,-10C202.972,-10 211.535,-10 219.761,-10"/>
<polygon fill="midnightblue" stroke="midnightblue" points="194.221,-6.5001 184.221,-10 194.22,-13.5001 194.221,-6.5001"/>
</g>
<!-- Node3 -->
<g id="node5" class="node"><title>Node3</title>
<a xlink:href="class_m_l_pfactory.html#a9e3c7140a702a12d7a7fde8ad52b6b04" target="_top" xlink:title="MLPfactory::makeNeuron">
<polygon fill="white" stroke="black" points="388,-0.5 388,-19.5 520,-19.5 520,-0.5 388,-0.5"/>
<text text-anchor="middle" x="454" y="-7.5" font-family="Helvetica,sans-Serif" font-size="10.00">MLPfactory::makeNeuron</text>
</a>
</g>
<!-- Node2&#45;&gt;Node3 -->
<g id="edge4" class="edge"><title>Node2&#45;&gt;Node3</title>
<path fill="none" stroke="midnightblue" d="M362.393,-10C370.869,-10 379.452,-10 387.784,-10"/>
<polygon fill="midnightblue" stroke="midnightblue" points="362.131,-6.5001 352.131,-10 362.131,-13.5001 362.131,-6.5001"/>
</g>
</g>
</svg>
