<?xml version="1.0" encoding="UTF-8" standalone="no"?>
<!DOCTYPE svg PUBLIC "-//W3C//DTD SVG 1.1//EN"
 "http://www.w3.org/Graphics/SVG/1.1/DTD/svg11.dtd">
<!-- Generated by graphviz version 2.25.20091207.0545 (20091207.0545)
 -->
<!-- Title: G Pages: 1 -->
<svg width="230pt" height="66pt"
 viewBox="0.00 0.00 230.00 66.00" xmlns="http://www.w3.org/2000/svg" xmlns:xlink="http://www.w3.org/1999/xlink">
<g id="graph1" class="graph" transform="scale(1 1) rotate(0) translate(4 62)">
<title>G</title>
<polygon fill="white" stroke="white" points="-4,5 -4,-62 227,-62 227,5 -4,5"/>
<!-- Node1 -->
<g id="node1" class="node"><title>Node1</title>
<polygon fill="#bfbfbf" stroke="black" points="0,-19.5 0,-38.5 84,-38.5 84,-19.5 0,-19.5"/>
<text text-anchor="middle" x="42" y="-25.5" font-family="Helvetica,sans-Serif" font-size="10.00">VecCon::select</text>
</g>
<!-- Node2 -->
<g id="node3" class="node"><title>Node2</title>
<a xlink:href="class_vec_con.html#ab9b05c1c3e55cb2994af791bd05dfec0" target="_top" xlink:title="Getter of the weights of the specified elements from the vecCom object.">
<polygon fill="white" stroke="black" points="120,-38.5 120,-57.5 222,-57.5 222,-38.5 120,-38.5"/>
<text text-anchor="middle" x="171" y="-44.5" font-family="Helvetica,sans-Serif" font-size="10.00">VecCon::getWeight</text>
</a>
</g>
<!-- Node1&#45;&gt;Node2 -->
<g id="edge2" class="edge"><title>Node1&#45;&gt;Node2</title>
<path fill="none" stroke="midnightblue" d="M94.2738,-36.6992C102.649,-37.9328 111.31,-39.2084 119.663,-40.4387"/>
<polygon fill="midnightblue" stroke="midnightblue" points="94.6427,-33.2159 84.2394,-35.2213 93.6227,-40.1412 94.6427,-33.2159"/>
</g>
<!-- Node3 -->
<g id="node5" class="node"><title>Node3</title>
<a xlink:href="class_vec_con.html#accb6c8bb2215a7c575191302dc09fdf2" target="_top" xlink:title="Setter of the weights of the specified elements from the VecCon object.">
<polygon fill="white" stroke="black" points="120,-0.5 120,-19.5 222,-19.5 222,-0.5 120,-0.5"/>
<text text-anchor="middle" x="171" y="-6.5" font-family="Helvetica,sans-Serif" font-size="10.00">VecCon::setWeight</text>
</a>
</g>
<!-- Node1&#45;&gt;Node3 -->
<g id="edge4" class="edge"><title>Node1&#45;&gt;Node3</title>
<path fill="none" stroke="midnightblue" d="M94.2738,-21.3008C102.649,-20.0672 111.31,-18.7916 119.663,-17.5613"/>
<polygon fill="midnightblue" stroke="midnightblue" points="93.6227,-17.8588 84.2394,-22.7787 94.6427,-24.7841 93.6227,-17.8588"/>
</g>
</g>
</svg>
