<?xml version="1.0" encoding="UTF-8" standalone="no"?>
<!DOCTYPE svg PUBLIC "-//W3C//DTD SVG 1.1//EN"
 "http://www.w3.org/Graphics/SVG/1.1/DTD/svg11.dtd">
<!-- Generated by graphviz version 2.28.0 (20110610.2051)
 -->
<!-- Title: G Pages: 1 -->
<svg width="1886pt" height="466pt"
 viewBox="0.00 0.00 1886.00 466.00" xmlns="http://www.w3.org/2000/svg" xmlns:xlink="http://www.w3.org/1999/xlink">
<g id="graph1" class="graph" transform="scale(1 1) rotate(0) translate(4 462)">
<title>G</title>
<polygon fill="white" stroke="white" points="-4,5 -4,-462 1883,-462 1883,5 -4,5"/>
<!-- Node1 -->
<g id="node1" class="node"><title>Node1</title>
<polygon fill="#bfbfbf" stroke="black" points="868.5,-107 868.5,-263 1009.5,-263 1009.5,-107 868.5,-107"/>
<text text-anchor="middle" x="939" y="-251" font-family="Helvetica,sans-Serif" font-size="10.00">MLPfactory</text>
<polyline fill="none" stroke="black" points="868.5,-244 1009.5,-244 "/>
<text text-anchor="middle" x="939" y="-232" font-family="Helvetica,sans-Serif" font-size="10.00"> </text>
<polyline fill="none" stroke="black" points="868.5,-225 1009.5,-225 "/>
<text text-anchor="start" x="876.5" y="-213" font-family="Helvetica,sans-Serif" font-size="10.00"># makeCon()</text>
<text text-anchor="start" x="876.5" y="-202" font-family="Helvetica,sans-Serif" font-size="10.00"># makeConContainer()</text>
<text text-anchor="start" x="876.5" y="-191" font-family="Helvetica,sans-Serif" font-size="10.00"># makeActivationFunction()</text>
<text text-anchor="start" x="876.5" y="-180" font-family="Helvetica,sans-Serif" font-size="10.00"># makePredictBehavior()</text>
<text text-anchor="start" x="876.5" y="-169" font-family="Helvetica,sans-Serif" font-size="10.00"># makeNeuron()</text>
<text text-anchor="start" x="876.5" y="-158" font-family="Helvetica,sans-Serif" font-size="10.00"># makeNeuron()</text>
<text text-anchor="start" x="876.5" y="-147" font-family="Helvetica,sans-Serif" font-size="10.00"># makeLayer()</text>
<text text-anchor="start" x="876.5" y="-136" font-family="Helvetica,sans-Serif" font-size="10.00"># makeLayerContainer()</text>
<text text-anchor="start" x="876.5" y="-125" font-family="Helvetica,sans-Serif" font-size="10.00"># makeNeuralNetwork()</text>
<text text-anchor="start" x="876.5" y="-114" font-family="Helvetica,sans-Serif" font-size="10.00"># makeNeuralCreator()</text>
</g>
<!-- Node3 -->
<g id="node5" class="node"><title>Node3</title>
<a xlink:href="class_arc_tan_factory.html" target="_top" xlink:title="class ArcTanFactory &#45;">
<polygon fill="white" stroke="black" points="0,-1 0,-69 140,-69 140,-1 0,-1"/>
<text text-anchor="middle" x="70" y="-57" font-family="Helvetica,sans-Serif" font-size="10.00">ArcTanFactory</text>
<polyline fill="none" stroke="black" points="0,-50 140,-50 "/>
<text text-anchor="middle" x="70" y="-38" font-family="Helvetica,sans-Serif" font-size="10.00"> </text>
<polyline fill="none" stroke="black" points="0,-31 140,-31 "/>
<text text-anchor="start" x="8" y="-19" font-family="Helvetica,sans-Serif" font-size="10.00">+ ArcTanFactory()</text>
<text text-anchor="start" x="8" y="-8" font-family="Helvetica,sans-Serif" font-size="10.00">&#45; makeActivationFunction()</text>
</a>
</g>
<!-- Node1&#45;&gt;Node3 -->
<g id="edge4" class="edge"><title>Node1&#45;&gt;Node3</title>
<path fill="none" stroke="midnightblue" d="M858.107,-179.359C713.431,-169.517 401.839,-141.302 149,-70 146.126,-69.1895 143.218,-68.298 140.301,-67.3433"/>
<polygon fill="none" stroke="midnightblue" points="858.021,-182.861 868.232,-180.036 858.488,-175.876 858.021,-182.861"/>
</g>
<!-- Node4 -->
<g id="node7" class="node"><title>Node4</title>
<a xlink:href="class_cosine_factory.html" target="_top" xlink:title="class CosineFactory &#45;">
<polygon fill="white" stroke="black" points="158,-1 158,-69 298,-69 298,-1 158,-1"/>
<text text-anchor="middle" x="228" y="-57" font-family="Helvetica,sans-Serif" font-size="10.00">CosineFactory</text>
<polyline fill="none" stroke="black" points="158,-50 298,-50 "/>
<text text-anchor="middle" x="228" y="-38" font-family="Helvetica,sans-Serif" font-size="10.00"> </text>
<polyline fill="none" stroke="black" points="158,-31 298,-31 "/>
<text text-anchor="start" x="166" y="-19" font-family="Helvetica,sans-Serif" font-size="10.00">+ CosineFactory()</text>
<text text-anchor="start" x="166" y="-8" font-family="Helvetica,sans-Serif" font-size="10.00">&#45; makeActivationFunction()</text>
</a>
</g>
<!-- Node1&#45;&gt;Node4 -->
<g id="edge6" class="edge"><title>Node1&#45;&gt;Node4</title>
<path fill="none" stroke="midnightblue" d="M858.122,-175.397C736.566,-161.133 500.402,-128.228 307,-70 304.14,-69.1391 301.246,-68.2052 298.338,-67.2149"/>
<polygon fill="none" stroke="midnightblue" points="857.762,-178.878 868.099,-176.555 858.569,-171.925 857.762,-178.878"/>
</g>
<!-- Node5 -->
<g id="node9" class="node"><title>Node5</title>
<a xlink:href="class_elliot_factory.html" target="_top" xlink:title="class ElliotFactory &#45;">
<polygon fill="white" stroke="black" points="316,-1 316,-69 456,-69 456,-1 316,-1"/>
<text text-anchor="middle" x="386" y="-57" font-family="Helvetica,sans-Serif" font-size="10.00">ElliotFactory</text>
<polyline fill="none" stroke="black" points="316,-50 456,-50 "/>
<text text-anchor="middle" x="386" y="-38" font-family="Helvetica,sans-Serif" font-size="10.00"> </text>
<polyline fill="none" stroke="black" points="316,-31 456,-31 "/>
<text text-anchor="start" x="324" y="-19" font-family="Helvetica,sans-Serif" font-size="10.00">+ ElliotFactory()</text>
<text text-anchor="start" x="324" y="-8" font-family="Helvetica,sans-Serif" font-size="10.00">&#45; makeActivationFunction()</text>
</a>
</g>
<!-- Node1&#45;&gt;Node5 -->
<g id="edge8" class="edge"><title>Node1&#45;&gt;Node5</title>
<path fill="none" stroke="midnightblue" d="M858.625,-169.023C763.391,-150.284 600.543,-115.101 465,-70 462.166,-69.0571 459.293,-68.0541 456.404,-67.006"/>
<polygon fill="none" stroke="midnightblue" points="857.992,-172.466 868.478,-170.951 859.336,-165.596 857.992,-172.466"/>
</g>
<!-- Node6 -->
<g id="node11" class="node"><title>Node6</title>
<a xlink:href="class_exponential_factory.html" target="_top" xlink:title="class ExponentialFactory &#45;">
<polygon fill="white" stroke="black" points="474,-1 474,-69 614,-69 614,-1 474,-1"/>
<text text-anchor="middle" x="544" y="-57" font-family="Helvetica,sans-Serif" font-size="10.00">ExponentialFactory</text>
<polyline fill="none" stroke="black" points="474,-50 614,-50 "/>
<text text-anchor="middle" x="544" y="-38" font-family="Helvetica,sans-Serif" font-size="10.00"> </text>
<polyline fill="none" stroke="black" points="474,-31 614,-31 "/>
<text text-anchor="start" x="482" y="-19" font-family="Helvetica,sans-Serif" font-size="10.00">+ ExponentialFactory()</text>
<text text-anchor="start" x="482" y="-8" font-family="Helvetica,sans-Serif" font-size="10.00">&#45; makeActivationFunction()</text>
</a>
</g>
<!-- Node1&#45;&gt;Node6 -->
<g id="edge10" class="edge"><title>Node1&#45;&gt;Node6</title>
<path fill="none" stroke="midnightblue" d="M858.604,-156.497C794.439,-134.187 702.452,-101.396 623,-70 620.084,-68.8476 617.114,-67.6556 614.12,-66.438"/>
<polygon fill="none" stroke="midnightblue" points="857.666,-159.876 868.261,-159.848 859.961,-153.263 857.666,-159.876"/>
</g>
<!-- Node7 -->
<g id="node13" class="node"><title>Node7</title>
<a xlink:href="class_gauss_factory.html" target="_top" xlink:title="class GaussFactory &#45;">
<polygon fill="white" stroke="black" points="632,-1 632,-69 772,-69 772,-1 632,-1"/>
<text text-anchor="middle" x="702" y="-57" font-family="Helvetica,sans-Serif" font-size="10.00">GaussFactory</text>
<polyline fill="none" stroke="black" points="632,-50 772,-50 "/>
<text text-anchor="middle" x="702" y="-38" font-family="Helvetica,sans-Serif" font-size="10.00"> </text>
<polyline fill="none" stroke="black" points="632,-31 772,-31 "/>
<text text-anchor="start" x="640" y="-19" font-family="Helvetica,sans-Serif" font-size="10.00">+ GaussFactory()</text>
<text text-anchor="start" x="640" y="-8" font-family="Helvetica,sans-Serif" font-size="10.00">&#45; makeActivationFunction()</text>
</a>
</g>
<!-- Node1&#45;&gt;Node7 -->
<g id="edge12" class="edge"><title>Node1&#45;&gt;Node7</title>
<path fill="none" stroke="midnightblue" d="M859.587,-134.409C825.204,-112.938 785.878,-88.3796 755.112,-69.1673"/>
<polygon fill="none" stroke="midnightblue" points="857.877,-137.467 868.213,-139.796 861.585,-131.53 857.877,-137.467"/>
</g>
<!-- Node8 -->
<g id="node15" class="node"><title>Node8</title>
<a xlink:href="class_identity_factory.html" target="_top" xlink:title="class IdentityFactory &#45;">
<polygon fill="white" stroke="black" points="790,-1 790,-69 930,-69 930,-1 790,-1"/>
<text text-anchor="middle" x="860" y="-57" font-family="Helvetica,sans-Serif" font-size="10.00">IdentityFactory</text>
<polyline fill="none" stroke="black" points="790,-50 930,-50 "/>
<text text-anchor="middle" x="860" y="-38" font-family="Helvetica,sans-Serif" font-size="10.00"> </text>
<polyline fill="none" stroke="black" points="790,-31 930,-31 "/>
<text text-anchor="start" x="798" y="-19" font-family="Helvetica,sans-Serif" font-size="10.00">+ IdentityFactory()</text>
<text text-anchor="start" x="798" y="-8" font-family="Helvetica,sans-Serif" font-size="10.00">&#45; makeActivationFunction()</text>
</a>
</g>
<!-- Node1&#45;&gt;Node8 -->
<g id="edge14" class="edge"><title>Node1&#45;&gt;Node8</title>
<path fill="none" stroke="midnightblue" d="M893.06,-97.9357C887.612,-87.7294 882.332,-77.8378 877.65,-69.0658"/>
<polygon fill="none" stroke="midnightblue" points="890.084,-99.7919 897.88,-106.966 896.259,-96.4956 890.084,-99.7919"/>
</g>
<!-- Node9 -->
<g id="node17" class="node"><title>Node9</title>
<a xlink:href="class_logistic_factory.html" target="_top" xlink:title="class LogisticFactory &#45;">
<polygon fill="white" stroke="black" points="948,-1 948,-69 1088,-69 1088,-1 948,-1"/>
<text text-anchor="middle" x="1018" y="-57" font-family="Helvetica,sans-Serif" font-size="10.00">LogisticFactory</text>
<polyline fill="none" stroke="black" points="948,-50 1088,-50 "/>
<text text-anchor="middle" x="1018" y="-38" font-family="Helvetica,sans-Serif" font-size="10.00"> </text>
<polyline fill="none" stroke="black" points="948,-31 1088,-31 "/>
<text text-anchor="start" x="956" y="-19" font-family="Helvetica,sans-Serif" font-size="10.00">+ LogisticFactory()</text>
<text text-anchor="start" x="956" y="-8" font-family="Helvetica,sans-Serif" font-size="10.00">&#45; makeActivationFunction()</text>
</a>
</g>
<!-- Node1&#45;&gt;Node9 -->
<g id="edge16" class="edge"><title>Node1&#45;&gt;Node9</title>
<path fill="none" stroke="midnightblue" d="M984.94,-97.9357C990.388,-87.7294 995.668,-77.8378 1000.35,-69.0658"/>
<polygon fill="none" stroke="midnightblue" points="981.741,-96.4956 980.12,-106.966 987.916,-99.7919 981.741,-96.4956"/>
</g>
<!-- Node10 -->
<g id="node19" class="node"><title>Node10</title>
<a xlink:href="class_reciprocal_factory.html" target="_top" xlink:title="class ReciprocalFactory &#45;">
<polygon fill="white" stroke="black" points="1106,-1 1106,-69 1246,-69 1246,-1 1106,-1"/>
<text text-anchor="middle" x="1176" y="-57" font-family="Helvetica,sans-Serif" font-size="10.00">ReciprocalFactory</text>
<polyline fill="none" stroke="black" points="1106,-50 1246,-50 "/>
<text text-anchor="middle" x="1176" y="-38" font-family="Helvetica,sans-Serif" font-size="10.00"> </text>
<polyline fill="none" stroke="black" points="1106,-31 1246,-31 "/>
<text text-anchor="start" x="1114" y="-19" font-family="Helvetica,sans-Serif" font-size="10.00">+ ReciprocalFactory()</text>
<text text-anchor="start" x="1114" y="-8" font-family="Helvetica,sans-Serif" font-size="10.00">&#45; makeActivationFunction()</text>
</a>
</g>
<!-- Node1&#45;&gt;Node10 -->
<g id="edge18" class="edge"><title>Node1&#45;&gt;Node10</title>
<path fill="none" stroke="midnightblue" d="M1018.41,-134.409C1052.8,-112.938 1092.12,-88.3796 1122.89,-69.1673"/>
<polygon fill="none" stroke="midnightblue" points="1016.41,-131.53 1009.79,-139.796 1020.12,-137.467 1016.41,-131.53"/>
</g>
<!-- Node11 -->
<g id="node21" class="node"><title>Node11</title>
<a xlink:href="class_sine_factory.html" target="_top" xlink:title="class SineFactory &#45;">
<polygon fill="white" stroke="black" points="1264,-1 1264,-69 1404,-69 1404,-1 1264,-1"/>
<text text-anchor="middle" x="1334" y="-57" font-family="Helvetica,sans-Serif" font-size="10.00">SineFactory</text>
<polyline fill="none" stroke="black" points="1264,-50 1404,-50 "/>
<text text-anchor="middle" x="1334" y="-38" font-family="Helvetica,sans-Serif" font-size="10.00"> </text>
<polyline fill="none" stroke="black" points="1264,-31 1404,-31 "/>
<text text-anchor="start" x="1272" y="-19" font-family="Helvetica,sans-Serif" font-size="10.00">+ SineFactory()</text>
<text text-anchor="start" x="1272" y="-8" font-family="Helvetica,sans-Serif" font-size="10.00">&#45; makeActivationFunction()</text>
</a>
</g>
<!-- Node1&#45;&gt;Node11 -->
<g id="edge20" class="edge"><title>Node1&#45;&gt;Node11</title>
<path fill="none" stroke="midnightblue" d="M1019.4,-156.497C1083.56,-134.187 1175.55,-101.396 1255,-70 1257.92,-68.8476 1260.89,-67.6556 1263.88,-66.438"/>
<polygon fill="none" stroke="midnightblue" points="1018.04,-153.263 1009.74,-159.848 1020.33,-159.876 1018.04,-153.263"/>
</g>
<!-- Node12 -->
<g id="node23" class="node"><title>Node12</title>
<a xlink:href="class_square_factory.html" target="_top" xlink:title="class SquareFactory &#45;">
<polygon fill="white" stroke="black" points="1422,-1 1422,-69 1562,-69 1562,-1 1422,-1"/>
<text text-anchor="middle" x="1492" y="-57" font-family="Helvetica,sans-Serif" font-size="10.00">SquareFactory</text>
<polyline fill="none" stroke="black" points="1422,-50 1562,-50 "/>
<text text-anchor="middle" x="1492" y="-38" font-family="Helvetica,sans-Serif" font-size="10.00"> </text>
<polyline fill="none" stroke="black" points="1422,-31 1562,-31 "/>
<text text-anchor="start" x="1430" y="-19" font-family="Helvetica,sans-Serif" font-size="10.00">+ SquareFactory()</text>
<text text-anchor="start" x="1430" y="-8" font-family="Helvetica,sans-Serif" font-size="10.00">&#45; makeActivationFunction()</text>
</a>
</g>
<!-- Node1&#45;&gt;Node12 -->
<g id="edge22" class="edge"><title>Node1&#45;&gt;Node12</title>
<path fill="none" stroke="midnightblue" d="M1019.38,-169.023C1114.61,-150.284 1277.46,-115.101 1413,-70 1415.83,-69.0571 1418.71,-68.0541 1421.6,-67.006"/>
<polygon fill="none" stroke="midnightblue" points="1018.66,-165.596 1009.52,-170.951 1020.01,-172.466 1018.66,-165.596"/>
</g>
<!-- Node13 -->
<g id="node25" class="node"><title>Node13</title>
<a xlink:href="class_tanh_factory.html" target="_top" xlink:title="class TanhFactory &#45;">
<polygon fill="white" stroke="black" points="1580,-1 1580,-69 1720,-69 1720,-1 1580,-1"/>
<text text-anchor="middle" x="1650" y="-57" font-family="Helvetica,sans-Serif" font-size="10.00">TanhFactory</text>
<polyline fill="none" stroke="black" points="1580,-50 1720,-50 "/>
<text text-anchor="middle" x="1650" y="-38" font-family="Helvetica,sans-Serif" font-size="10.00"> </text>
<polyline fill="none" stroke="black" points="1580,-31 1720,-31 "/>
<text text-anchor="start" x="1588" y="-19" font-family="Helvetica,sans-Serif" font-size="10.00">+ TanhFactory()</text>
<text text-anchor="start" x="1588" y="-8" font-family="Helvetica,sans-Serif" font-size="10.00">&#45; makeActivationFunction()</text>
</a>
</g>
<!-- Node1&#45;&gt;Node13 -->
<g id="edge24" class="edge"><title>Node1&#45;&gt;Node13</title>
<path fill="none" stroke="midnightblue" d="M1019.88,-175.397C1141.43,-161.133 1377.6,-128.228 1571,-70 1573.86,-69.1391 1576.75,-68.2052 1579.66,-67.2149"/>
<polygon fill="none" stroke="midnightblue" points="1019.43,-171.925 1009.9,-176.555 1020.24,-178.878 1019.43,-171.925"/>
</g>
<!-- Node14 -->
<g id="node27" class="node"><title>Node14</title>
<a xlink:href="class_threshold_factory.html" target="_top" xlink:title="class ThresholdFactory &#45;">
<polygon fill="white" stroke="black" points="1738,-1 1738,-69 1878,-69 1878,-1 1738,-1"/>
<text text-anchor="middle" x="1808" y="-57" font-family="Helvetica,sans-Serif" font-size="10.00">ThresholdFactory</text>
<polyline fill="none" stroke="black" points="1738,-50 1878,-50 "/>
<text text-anchor="middle" x="1808" y="-38" font-family="Helvetica,sans-Serif" font-size="10.00"> </text>
<polyline fill="none" stroke="black" points="1738,-31 1878,-31 "/>
<text text-anchor="start" x="1746" y="-19" font-family="Helvetica,sans-Serif" font-size="10.00">+ ThresholdFactory()</text>
<text text-anchor="start" x="1746" y="-8" font-family="Helvetica,sans-Serif" font-size="10.00">&#45; makeActivationFunction()</text>
</a>
</g>
<!-- Node1&#45;&gt;Node14 -->
<g id="edge26" class="edge"><title>Node1&#45;&gt;Node14</title>
<path fill="none" stroke="midnightblue" d="M1019.89,-179.359C1164.57,-169.517 1476.16,-141.302 1729,-70 1731.87,-69.1895 1734.78,-68.298 1737.7,-67.3433"/>
<polygon fill="none" stroke="midnightblue" points="1019.51,-175.876 1009.77,-180.036 1019.98,-182.861 1019.51,-175.876"/>
</g>
<!-- Node2 -->
<g id="node2" class="node"><title>Node2</title>
<a xlink:href="class_neural_factory.html" target="_top" xlink:title="class NeuralFactory &#45;">
<polygon fill="white" stroke="black" points="867.5,-301 867.5,-457 1010.5,-457 1010.5,-301 867.5,-301"/>
<text text-anchor="middle" x="939" y="-445" font-family="Helvetica,sans-Serif" font-size="10.00">NeuralFactory</text>
<polyline fill="none" stroke="black" points="867.5,-438 1010.5,-438 "/>
<text text-anchor="middle" x="939" y="-426" font-family="Helvetica,sans-Serif" font-size="10.00"> </text>
<polyline fill="none" stroke="black" points="867.5,-419 1010.5,-419 "/>
<text text-anchor="start" x="875.5" y="-407" font-family="Helvetica,sans-Serif" font-size="10.00">+ makeCon()</text>
<text text-anchor="start" x="875.5" y="-396" font-family="Helvetica,sans-Serif" font-size="10.00">+ makeConContainer()</text>
<text text-anchor="start" x="875.5" y="-385" font-family="Helvetica,sans-Serif" font-size="10.00">+ makeActivationFunction()</text>
<text text-anchor="start" x="875.5" y="-374" font-family="Helvetica,sans-Serif" font-size="10.00">+ makePredictBehavior()</text>
<text text-anchor="start" x="875.5" y="-363" font-family="Helvetica,sans-Serif" font-size="10.00">+ makeNeuron()</text>
<text text-anchor="start" x="875.5" y="-352" font-family="Helvetica,sans-Serif" font-size="10.00">+ makeNeuron()</text>
<text text-anchor="start" x="875.5" y="-341" font-family="Helvetica,sans-Serif" font-size="10.00">+ makeLayer()</text>
<text text-anchor="start" x="875.5" y="-330" font-family="Helvetica,sans-Serif" font-size="10.00">+ makeLayerContainer()</text>
<text text-anchor="start" x="875.5" y="-319" font-family="Helvetica,sans-Serif" font-size="10.00">+ makeNeuralNetwork()</text>
<text text-anchor="start" x="875.5" y="-308" font-family="Helvetica,sans-Serif" font-size="10.00">+ makeNeuralCreator()</text>
</a>
</g>
<!-- Node2&#45;&gt;Node1 -->
<g id="edge2" class="edge"><title>Node2&#45;&gt;Node1</title>
<path fill="none" stroke="midnightblue" d="M939,-290.485C939,-281.35 939,-272.112 939,-263.106"/>
<polygon fill="none" stroke="midnightblue" points="935.5,-290.736 939,-300.736 942.5,-290.736 935.5,-290.736"/>
</g>
</g>
</svg>
