<?xml version="1.0" encoding="UTF-8" standalone="no"?>
<!DOCTYPE svg PUBLIC "-//W3C//DTD SVG 1.1//EN"
 "http://www.w3.org/Graphics/SVG/1.1/DTD/svg11.dtd">
<!-- Generated by graphviz version 2.25.20091207.0545 (20091207.0545)
 -->
<!-- Title: G Pages: 1 -->
<svg width="351pt" height="1324pt"
 viewBox="0.00 0.00 351.00 1324.00" xmlns="http://www.w3.org/2000/svg" xmlns:xlink="http://www.w3.org/1999/xlink">
<g id="graph1" class="graph" transform="scale(1 1) rotate(0) translate(4 1320)">
<title>G</title>
<polygon fill="white" stroke="white" points="-4,5 -4,-1320 348,-1320 348,5 -4,5"/>
<!-- Node1 -->
<g id="node1" class="node"><title>Node1</title>
<polygon fill="#bfbfbf" stroke="black" points="99,-0.5 99,-211.5 183,-211.5 183,-0.5 99,-0.5"/>
<text text-anchor="middle" x="141" y="-198.5" font-family="Helvetica,sans-Serif" font-size="10.00">Neuron</text>
<polyline fill="none" stroke="black" points="99,-192.5 183,-192.5 "/>
<text text-anchor="start" x="107" y="-179.5" font-family="Helvetica,sans-Serif" font-size="10.00">&#45; Id</text>
<text text-anchor="start" x="107" y="-168.5" font-family="Helvetica,sans-Serif" font-size="10.00">&#45; con</text>
<text text-anchor="start" x="107" y="-157.5" font-family="Helvetica,sans-Serif" font-size="10.00">&#45; outputValue</text>
<polyline fill="none" stroke="black" points="99,-151.5 183,-151.5 "/>
<text text-anchor="start" x="107" y="-138.5" font-family="Helvetica,sans-Serif" font-size="10.00">+ Neuron()</text>
<text text-anchor="start" x="107" y="-127.5" font-family="Helvetica,sans-Serif" font-size="10.00">+ Neuron()</text>
<text text-anchor="start" x="107" y="-116.5" font-family="Helvetica,sans-Serif" font-size="10.00">+ Neuron()</text>
<text text-anchor="start" x="107" y="-105.5" font-family="Helvetica,sans-Serif" font-size="10.00">+ ~Neuron()</text>
<text text-anchor="start" x="107" y="-94.5" font-family="Helvetica,sans-Serif" font-size="10.00">+ getId()</text>
<text text-anchor="start" x="107" y="-83.5" font-family="Helvetica,sans-Serif" font-size="10.00">+ setId()</text>
<text text-anchor="start" x="107" y="-72.5" font-family="Helvetica,sans-Serif" font-size="10.00">+ getConId()</text>
<text text-anchor="start" x="107" y="-61.5" font-family="Helvetica,sans-Serif" font-size="10.00">+ getWeight()</text>
<text text-anchor="start" x="107" y="-50.5" font-family="Helvetica,sans-Serif" font-size="10.00">+ setFrom()</text>
<text text-anchor="start" x="107" y="-39.5" font-family="Helvetica,sans-Serif" font-size="10.00">+ setWeight()</text>
<text text-anchor="start" x="107" y="-28.5" font-family="Helvetica,sans-Serif" font-size="10.00">+ numOfCons()</text>
<text text-anchor="start" x="107" y="-17.5" font-family="Helvetica,sans-Serif" font-size="10.00">+ show()</text>
<text text-anchor="start" x="107" y="-6.5" font-family="Helvetica,sans-Serif" font-size="10.00">+ validate()</text>
</g>
<!-- Node2 -->
<g id="node2" class="node"><title>Node2</title>
<a xlink:href="class_con_container.html" target="_top" xlink:title="A vector of connections.">
<polygon fill="white" stroke="black" points="95.5,-261 95.5,-417 186.5,-417 186.5,-261 95.5,-261"/>
<text text-anchor="middle" x="141" y="-404" font-family="Helvetica,sans-Serif" font-size="10.00">ConContainer</text>
<polyline fill="none" stroke="black" points="95.5,-398 186.5,-398 "/>
<text text-anchor="middle" x="141" y="-385" font-family="Helvetica,sans-Serif" font-size="10.00"> </text>
<polyline fill="none" stroke="black" points="95.5,-379 186.5,-379 "/>
<text text-anchor="start" x="103.5" y="-366" font-family="Helvetica,sans-Serif" font-size="10.00">+ ConContainer()</text>
<text text-anchor="start" x="103.5" y="-355" font-family="Helvetica,sans-Serif" font-size="10.00">+ ConContainer()</text>
<text text-anchor="start" x="103.5" y="-344" font-family="Helvetica,sans-Serif" font-size="10.00">+ numOfCons()</text>
<text text-anchor="start" x="103.5" y="-333" font-family="Helvetica,sans-Serif" font-size="10.00">+ getId()</text>
<text text-anchor="start" x="103.5" y="-322" font-family="Helvetica,sans-Serif" font-size="10.00">+ setWeight()</text>
<text text-anchor="start" x="103.5" y="-311" font-family="Helvetica,sans-Serif" font-size="10.00">+ setWeight()</text>
<text text-anchor="start" x="103.5" y="-300" font-family="Helvetica,sans-Serif" font-size="10.00">+ setFrom()</text>
<text text-anchor="start" x="103.5" y="-289" font-family="Helvetica,sans-Serif" font-size="10.00">+ erase()</text>
<text text-anchor="start" x="103.5" y="-278" font-family="Helvetica,sans-Serif" font-size="10.00">+ select()</text>
<text text-anchor="start" x="103.5" y="-267" font-family="Helvetica,sans-Serif" font-size="10.00">+ validate()</text>
</a>
</g>
<!-- Node2&#45;&gt;Node1 -->
<g id="edge2" class="edge"><title>Node2&#45;&gt;Node1</title>
<path fill="none" stroke="#9a32cd" stroke-dasharray="5,2" d="M141,-250.683C141,-237.968 141,-224.776 141,-211.764"/>
<polygon fill="#9a32cd" stroke="#9a32cd" points="141,-260.766 136.5,-250.766 141,-255.766 141,-250.766 141,-250.766 141,-250.766 141,-255.766 145.5,-250.766 141,-260.766 141,-260.766"/>
<text text-anchor="middle" x="149" y="-232.5" font-family="Helvetica,sans-Serif" font-size="10.00">con</text>
</g>
<!-- Node3 -->
<g id="node4" class="node"><title>Node3</title>
<a xlink:href="class_container.html" target="_top" xlink:title="{Container\&lt; Con \&gt;\n|# collection\l|+ Container()\l+ Container()\l+ begin()\l+ end()\l+ load()\l+ store()\l+ size()\l+ push_back()\l+ append()\l+ show()\l+ validate()\l+ reserve()\l+ resize()\l+ empty()\l+ clear()\l+ operator[]()\l}">
<polygon fill="white" stroke="black" points="94,-457 94,-679 188,-679 188,-457 94,-457"/>
<text text-anchor="middle" x="141" y="-666" font-family="Helvetica,sans-Serif" font-size="10.00">Container&lt; Con &gt;</text>
<polyline fill="none" stroke="black" points="94,-660 188,-660 "/>
<text text-anchor="start" x="102" y="-647" font-family="Helvetica,sans-Serif" font-size="10.00"># collection</text>
<polyline fill="none" stroke="black" points="94,-641 188,-641 "/>
<text text-anchor="start" x="102" y="-628" font-family="Helvetica,sans-Serif" font-size="10.00">+ Container()</text>
<text text-anchor="start" x="102" y="-617" font-family="Helvetica,sans-Serif" font-size="10.00">+ Container()</text>
<text text-anchor="start" x="102" y="-606" font-family="Helvetica,sans-Serif" font-size="10.00">+ begin()</text>
<text text-anchor="start" x="102" y="-595" font-family="Helvetica,sans-Serif" font-size="10.00">+ end()</text>
<text text-anchor="start" x="102" y="-584" font-family="Helvetica,sans-Serif" font-size="10.00">+ load()</text>
<text text-anchor="start" x="102" y="-573" font-family="Helvetica,sans-Serif" font-size="10.00">+ store()</text>
<text text-anchor="start" x="102" y="-562" font-family="Helvetica,sans-Serif" font-size="10.00">+ size()</text>
<text text-anchor="start" x="102" y="-551" font-family="Helvetica,sans-Serif" font-size="10.00">+ push_back()</text>
<text text-anchor="start" x="102" y="-540" font-family="Helvetica,sans-Serif" font-size="10.00">+ append()</text>
<text text-anchor="start" x="102" y="-529" font-family="Helvetica,sans-Serif" font-size="10.00">+ show()</text>
<text text-anchor="start" x="102" y="-518" font-family="Helvetica,sans-Serif" font-size="10.00">+ validate()</text>
<text text-anchor="start" x="102" y="-507" font-family="Helvetica,sans-Serif" font-size="10.00">+ reserve()</text>
<text text-anchor="start" x="102" y="-496" font-family="Helvetica,sans-Serif" font-size="10.00">+ resize()</text>
<text text-anchor="start" x="102" y="-485" font-family="Helvetica,sans-Serif" font-size="10.00">+ empty()</text>
<text text-anchor="start" x="102" y="-474" font-family="Helvetica,sans-Serif" font-size="10.00">+ clear()</text>
<text text-anchor="start" x="102" y="-463" font-family="Helvetica,sans-Serif" font-size="10.00">+ operator[]()</text>
</a>
</g>
<!-- Node3&#45;&gt;Node2 -->
<g id="edge4" class="edge"><title>Node3&#45;&gt;Node2</title>
<path fill="none" stroke="midnightblue" d="M141,-446.769C141,-436.695 141,-426.692 141,-417.071"/>
<polygon fill="none" stroke="midnightblue" points="137.5,-446.854 141,-456.854 144.5,-446.854 137.5,-446.854"/>
</g>
<!-- Node4 -->
<g id="node6" class="node"><title>Node4</title>
<polygon fill="white" stroke="#bfbfbf" points="0,-970.5 0,-1027.5 192,-1027.5 192,-970.5 0,-970.5"/>
<text text-anchor="middle" x="96" y="-1014.5" font-family="Helvetica,sans-Serif" font-size="10.00">std::vector&lt; boost::shared_ptr&lt; Con &gt; &gt;</text>
<polyline fill="none" stroke="#bfbfbf" points="0,-1008.5 192,-1008.5 "/>
<text text-anchor="start" x="8" y="-995.5" font-family="Helvetica,sans-Serif" font-size="10.00">&#45; elements</text>
<polyline fill="none" stroke="#bfbfbf" points="0,-989.5 192,-989.5 "/>
<text text-anchor="middle" x="96" y="-976.5" font-family="Helvetica,sans-Serif" font-size="10.00"> </text>
</g>
<!-- Node4&#45;&gt;Node3 -->
<g id="edge6" class="edge"><title>Node4&#45;&gt;Node3</title>
<path fill="none" stroke="#9a32cd" stroke-dasharray="5,2" d="M99.4389,-960.273C104.174,-907.655 113.128,-810.656 122,-728 123.687,-712.286 125.554,-695.714 127.441,-679.429"/>
<polygon fill="#9a32cd" stroke="#9a32cd" points="98.5216,-970.496 94.9333,-960.134 98.9685,-965.516 99.4153,-960.536 99.4153,-960.536 99.4153,-960.536 98.9685,-965.516 103.897,-960.939 98.5216,-970.496 98.5216,-970.496"/>
<text text-anchor="middle" x="142.5" y="-836.5" font-family="Helvetica,sans-Serif" font-size="10.00">collection</text>
</g>
<!-- Node5 -->
<g id="node8" class="node"><title>Node5</title>
<a xlink:title="STL class.">
<polygon fill="white" stroke="#bfbfbf" points="120.5,-1152.5 120.5,-1209.5 207.5,-1209.5 207.5,-1152.5 120.5,-1152.5"/>
<text text-anchor="middle" x="164" y="-1196.5" font-family="Helvetica,sans-Serif" font-size="10.00">std::vector&lt; T &gt;</text>
<polyline fill="none" stroke="#bfbfbf" points="120.5,-1190.5 207.5,-1190.5 "/>
<text text-anchor="start" x="128.5" y="-1177.5" font-family="Helvetica,sans-Serif" font-size="10.00">&#45; elements</text>
<polyline fill="none" stroke="#bfbfbf" points="120.5,-1171.5 207.5,-1171.5 "/>
<text text-anchor="middle" x="164" y="-1158.5" font-family="Helvetica,sans-Serif" font-size="10.00"> </text>
</a>
</g>
<!-- Node5&#45;&gt;Node4 -->
<g id="edge8" class="edge"><title>Node5&#45;&gt;Node4</title>
<path fill="none" stroke="orange" stroke-dasharray="5,2" d="M111.191,-1159.96C100.727,-1153.27 91.1016,-1144.73 85,-1134 66.3434,-1101.19 75.4042,-1056.46 84.7607,-1027.65"/>
<polygon fill="orange" stroke="orange" points="109.714,-1163.15 120.118,-1165.15 113.233,-1157.09 109.714,-1163.15"/>
<text text-anchor="middle" x="150" y="-1124.5" font-family="Helvetica,sans-Serif" font-size="10.00">&lt; boost::shared_ptr&lt; Con &gt; &gt;</text>
</g>
<!-- Node8 -->
<g id="node14" class="node"><title>Node8</title>
<polygon fill="white" stroke="#bfbfbf" points="146,-1046.5 146,-1103.5 326,-1103.5 326,-1046.5 146,-1046.5"/>
<text text-anchor="middle" x="236" y="-1090.5" font-family="Helvetica,sans-Serif" font-size="10.00">std::vector&lt; boost::shared_ptr&lt; T &gt; &gt;</text>
<polyline fill="none" stroke="#bfbfbf" points="146,-1084.5 326,-1084.5 "/>
<text text-anchor="start" x="154" y="-1071.5" font-family="Helvetica,sans-Serif" font-size="10.00">&#45; elements</text>
<polyline fill="none" stroke="#bfbfbf" points="146,-1065.5 326,-1065.5 "/>
<text text-anchor="middle" x="236" y="-1052.5" font-family="Helvetica,sans-Serif" font-size="10.00"> </text>
</g>
<!-- Node5&#45;&gt;Node8 -->
<g id="edge16" class="edge"><title>Node5&#45;&gt;Node8</title>
<path fill="none" stroke="orange" stroke-dasharray="5,2" d="M210.511,-1145.07C213.638,-1141.55 216.523,-1137.85 219,-1134 224.829,-1124.95 228.705,-1113.85 231.261,-1103.74"/>
<polygon fill="orange" stroke="orange" points="207.779,-1142.86 203.342,-1152.48 212.81,-1147.73 207.779,-1142.86"/>
<text text-anchor="middle" x="284" y="-1124.5" font-family="Helvetica,sans-Serif" font-size="10.00">&lt; boost::shared_ptr&lt; T &gt; &gt;</text>
</g>
<!-- Node6 -->
<g id="node10" class="node"><title>Node6</title>
<polygon fill="white" stroke="#bfbfbf" points="149.5,-1258.5 149.5,-1315.5 178.5,-1315.5 178.5,-1258.5 149.5,-1258.5"/>
<text text-anchor="middle" x="164" y="-1302.5" font-family="Helvetica,sans-Serif" font-size="10.00">T</text>
<polyline fill="none" stroke="#bfbfbf" points="149.5,-1296.5 178.5,-1296.5 "/>
<text text-anchor="middle" x="164" y="-1283.5" font-family="Helvetica,sans-Serif" font-size="10.00"> </text>
<polyline fill="none" stroke="#bfbfbf" points="149.5,-1277.5 178.5,-1277.5 "/>
<text text-anchor="middle" x="164" y="-1264.5" font-family="Helvetica,sans-Serif" font-size="10.00"> </text>
</g>
<!-- Node6&#45;&gt;Node5 -->
<g id="edge10" class="edge"><title>Node6&#45;&gt;Node5</title>
<path fill="none" stroke="#9a32cd" stroke-dasharray="5,2" d="M164,-1248.01C164,-1235.33 164,-1221.49 164,-1209.71"/>
<polygon fill="#9a32cd" stroke="#9a32cd" points="164,-1258.31 159.5,-1248.31 164,-1253.31 164,-1248.31 164,-1248.31 164,-1248.31 164,-1253.31 168.5,-1248.31 164,-1258.31 164,-1258.31"/>
<text text-anchor="middle" x="184" y="-1230.5" font-family="Helvetica,sans-Serif" font-size="10.00">elements</text>
</g>
<!-- Node7 -->
<g id="node12" class="node"><title>Node7</title>
<a xlink:href="class_container.html" target="_top" xlink:title="{Container\&lt; T \&gt;\n|# collection\l|+ Container()\l+ Container()\l+ begin()\l+ end()\l+ load()\l+ store()\l+ size()\l+ push_back()\l+ append()\l+ show()\l+ validate()\l+ reserve()\l+ resize()\l+ empty()\l+ clear()\l+ operator[]()\l}">
<polygon fill="white" stroke="black" points="172,-729 172,-951 254,-951 254,-729 172,-729"/>
<text text-anchor="middle" x="213" y="-938" font-family="Helvetica,sans-Serif" font-size="10.00">Container&lt; T &gt;</text>
<polyline fill="none" stroke="black" points="172,-932 254,-932 "/>
<text text-anchor="start" x="180" y="-919" font-family="Helvetica,sans-Serif" font-size="10.00"># collection</text>
<polyline fill="none" stroke="black" points="172,-913 254,-913 "/>
<text text-anchor="start" x="180" y="-900" font-family="Helvetica,sans-Serif" font-size="10.00">+ Container()</text>
<text text-anchor="start" x="180" y="-889" font-family="Helvetica,sans-Serif" font-size="10.00">+ Container()</text>
<text text-anchor="start" x="180" y="-878" font-family="Helvetica,sans-Serif" font-size="10.00">+ begin()</text>
<text text-anchor="start" x="180" y="-867" font-family="Helvetica,sans-Serif" font-size="10.00">+ end()</text>
<text text-anchor="start" x="180" y="-856" font-family="Helvetica,sans-Serif" font-size="10.00">+ load()</text>
<text text-anchor="start" x="180" y="-845" font-family="Helvetica,sans-Serif" font-size="10.00">+ store()</text>
<text text-anchor="start" x="180" y="-834" font-family="Helvetica,sans-Serif" font-size="10.00">+ size()</text>
<text text-anchor="start" x="180" y="-823" font-family="Helvetica,sans-Serif" font-size="10.00">+ push_back()</text>
<text text-anchor="start" x="180" y="-812" font-family="Helvetica,sans-Serif" font-size="10.00">+ append()</text>
<text text-anchor="start" x="180" y="-801" font-family="Helvetica,sans-Serif" font-size="10.00">+ show()</text>
<text text-anchor="start" x="180" y="-790" font-family="Helvetica,sans-Serif" font-size="10.00">+ validate()</text>
<text text-anchor="start" x="180" y="-779" font-family="Helvetica,sans-Serif" font-size="10.00">+ reserve()</text>
<text text-anchor="start" x="180" y="-768" font-family="Helvetica,sans-Serif" font-size="10.00">+ resize()</text>
<text text-anchor="start" x="180" y="-757" font-family="Helvetica,sans-Serif" font-size="10.00">+ empty()</text>
<text text-anchor="start" x="180" y="-746" font-family="Helvetica,sans-Serif" font-size="10.00">+ clear()</text>
<text text-anchor="start" x="180" y="-735" font-family="Helvetica,sans-Serif" font-size="10.00">+ operator[]()</text>
</a>
</g>
<!-- Node7&#45;&gt;Node3 -->
<g id="edge12" class="edge"><title>Node7&#45;&gt;Node3</title>
<path fill="none" stroke="orange" stroke-dasharray="5,2" d="M181.046,-719.285C177.508,-705.918 173.917,-692.351 170.412,-679.111"/>
<polygon fill="orange" stroke="orange" points="177.669,-720.203 183.611,-728.975 184.435,-718.412 177.669,-720.203"/>
<text text-anchor="middle" x="195" y="-700.5" font-family="Helvetica,sans-Serif" font-size="10.00">&lt; Con &gt;</text>
</g>
<!-- Node8&#45;&gt;Node7 -->
<g id="edge14" class="edge"><title>Node8&#45;&gt;Node7</title>
<path fill="none" stroke="#9a32cd" stroke-dasharray="5,2" d="M232.185,-1036.02C229.898,-1012.65 226.864,-981.655 223.885,-951.22"/>
<polygon fill="#9a32cd" stroke="#9a32cd" points="233.18,-1046.18 227.727,-1036.67 232.693,-1041.21 232.206,-1036.23 232.206,-1036.23 232.206,-1036.23 232.693,-1041.21 236.684,-1035.79 233.18,-1046.18 233.18,-1046.18"/>
<text text-anchor="middle" x="251.5" y="-995.5" font-family="Helvetica,sans-Serif" font-size="10.00">collection</text>
</g>
</g>
</svg>
