<?xml version="1.0" encoding="UTF-8" standalone="no"?>
<!DOCTYPE svg PUBLIC "-//W3C//DTD SVG 1.1//EN"
 "http://www.w3.org/Graphics/SVG/1.1/DTD/svg11.dtd">
<!-- Generated by graphviz version 2.25.20091207.0545 (20091207.0545)
 -->
<!-- Title: G Pages: 1 -->
<svg width="216pt" height="494pt"
 viewBox="0.00 0.00 216.00 494.00" xmlns="http://www.w3.org/2000/svg" xmlns:xlink="http://www.w3.org/1999/xlink">
<g id="graph1" class="graph" transform="scale(1 1) rotate(0) translate(4 490)">
<title>G</title>
<polygon fill="white" stroke="white" points="-4,5 -4,-490 213,-490 213,5 -4,5"/>
<!-- Node1 -->
<g id="node1" class="node"><title>Node1</title>
<polygon fill="#bfbfbf" stroke="black" points="49,-0.5 49,-167.5 131,-167.5 131,-0.5 49,-0.5"/>
<text text-anchor="middle" x="90" y="-154.5" font-family="Helvetica,sans-Serif" font-size="10.00">Container&lt; T &gt;</text>
<polyline fill="none" stroke="black" points="49,-148.5 131,-148.5 "/>
<text text-anchor="start" x="57" y="-135.5" font-family="Helvetica,sans-Serif" font-size="10.00"># collection</text>
<polyline fill="none" stroke="black" points="49,-129.5 131,-129.5 "/>
<text text-anchor="start" x="57" y="-116.5" font-family="Helvetica,sans-Serif" font-size="10.00">+ begin()</text>
<text text-anchor="start" x="57" y="-105.5" font-family="Helvetica,sans-Serif" font-size="10.00">+ end()</text>
<text text-anchor="start" x="57" y="-94.5" font-family="Helvetica,sans-Serif" font-size="10.00">+ load()</text>
<text text-anchor="start" x="57" y="-83.5" font-family="Helvetica,sans-Serif" font-size="10.00">+ store()</text>
<text text-anchor="start" x="57" y="-72.5" font-family="Helvetica,sans-Serif" font-size="10.00">+ size()</text>
<text text-anchor="start" x="57" y="-61.5" font-family="Helvetica,sans-Serif" font-size="10.00">+ push_back()</text>
<text text-anchor="start" x="57" y="-50.5" font-family="Helvetica,sans-Serif" font-size="10.00">+ append()</text>
<text text-anchor="start" x="57" y="-39.5" font-family="Helvetica,sans-Serif" font-size="10.00">+ show()</text>
<text text-anchor="start" x="57" y="-28.5" font-family="Helvetica,sans-Serif" font-size="10.00">+ validate()</text>
<text text-anchor="start" x="57" y="-17.5" font-family="Helvetica,sans-Serif" font-size="10.00">+ reserve()</text>
<text text-anchor="start" x="57" y="-6.5" font-family="Helvetica,sans-Serif" font-size="10.00">+ resize()</text>
</g>
<!-- Node2 -->
<g id="node2" class="node"><title>Node2</title>
<polygon fill="white" stroke="#bfbfbf" points="0,-216.5 0,-273.5 180,-273.5 180,-216.5 0,-216.5"/>
<text text-anchor="middle" x="90" y="-260.5" font-family="Helvetica,sans-Serif" font-size="10.00">std::vector&lt; boost::shared_ptr&lt; T &gt; &gt;</text>
<polyline fill="none" stroke="#bfbfbf" points="0,-254.5 180,-254.5 "/>
<text text-anchor="start" x="8" y="-241.5" font-family="Helvetica,sans-Serif" font-size="10.00">&#45; elements</text>
<polyline fill="none" stroke="#bfbfbf" points="0,-235.5 180,-235.5 "/>
<text text-anchor="middle" x="90" y="-222.5" font-family="Helvetica,sans-Serif" font-size="10.00"> </text>
</g>
<!-- Node2&#45;&gt;Node1 -->
<g id="edge2" class="edge"><title>Node2&#45;&gt;Node1</title>
<path fill="none" stroke="#9a32cd" stroke-dasharray="5,2" d="M90,-206.017C90,-194.377 90,-181.142 90,-167.786"/>
<polygon fill="#9a32cd" stroke="#9a32cd" points="90,-216.216 85.5001,-206.216 90,-211.216 90.0001,-206.216 90.0001,-206.216 90.0001,-206.216 90,-211.216 94.5001,-206.216 90,-216.216 90,-216.216"/>
<text text-anchor="middle" x="100.5" y="-188.5" font-family="Helvetica,sans-Serif" font-size="10.00">collection</text>
</g>
<!-- Node3 -->
<g id="node4" class="node"><title>Node3</title>
<a xlink:title="STL class.">
<polygon fill="white" stroke="#bfbfbf" points="46.5,-322.5 46.5,-379.5 133.5,-379.5 133.5,-322.5 46.5,-322.5"/>
<text text-anchor="middle" x="90" y="-366.5" font-family="Helvetica,sans-Serif" font-size="10.00">std::vector&lt; T &gt;</text>
<polyline fill="none" stroke="#bfbfbf" points="46.5,-360.5 133.5,-360.5 "/>
<text text-anchor="start" x="54.5" y="-347.5" font-family="Helvetica,sans-Serif" font-size="10.00">&#45; elements</text>
<polyline fill="none" stroke="#bfbfbf" points="46.5,-341.5 133.5,-341.5 "/>
<text text-anchor="middle" x="90" y="-328.5" font-family="Helvetica,sans-Serif" font-size="10.00"> </text>
</a>
</g>
<!-- Node3&#45;&gt;Node2 -->
<g id="edge4" class="edge"><title>Node3&#45;&gt;Node2</title>
<path fill="none" stroke="orange" stroke-dasharray="5,2" d="M90,-312.005C90,-299.326 90,-285.494 90,-273.708"/>
<polygon fill="orange" stroke="orange" points="86.5001,-312.315 90,-322.315 93.5001,-312.315 86.5001,-312.315"/>
<text text-anchor="middle" x="149" y="-294.5" font-family="Helvetica,sans-Serif" font-size="10.00">&lt; boost::shared_ptr&lt; T &gt; &gt;</text>
</g>
<!-- Node4 -->
<g id="node6" class="node"><title>Node4</title>
<polygon fill="white" stroke="#bfbfbf" points="75.5,-428.5 75.5,-485.5 104.5,-485.5 104.5,-428.5 75.5,-428.5"/>
<text text-anchor="middle" x="90" y="-472.5" font-family="Helvetica,sans-Serif" font-size="10.00">T</text>
<polyline fill="none" stroke="#bfbfbf" points="75.5,-466.5 104.5,-466.5 "/>
<text text-anchor="middle" x="90" y="-453.5" font-family="Helvetica,sans-Serif" font-size="10.00"> </text>
<polyline fill="none" stroke="#bfbfbf" points="75.5,-447.5 104.5,-447.5 "/>
<text text-anchor="middle" x="90" y="-434.5" font-family="Helvetica,sans-Serif" font-size="10.00"> </text>
</g>
<!-- Node4&#45;&gt;Node3 -->
<g id="edge6" class="edge"><title>Node4&#45;&gt;Node3</title>
<path fill="none" stroke="#9a32cd" stroke-dasharray="5,2" d="M90,-418.005C90,-405.326 90,-391.494 90,-379.708"/>
<polygon fill="#9a32cd" stroke="#9a32cd" points="90,-428.315 85.5001,-418.315 90,-423.315 90.0001,-418.315 90.0001,-418.315 90.0001,-418.315 90,-423.315 94.5001,-418.315 90,-428.315 90,-428.315"/>
<text text-anchor="middle" x="110" y="-400.5" font-family="Helvetica,sans-Serif" font-size="10.00">elements</text>
</g>
</g>
</svg>
