<?xml version="1.0" encoding="UTF-8" standalone="no"?>
<!DOCTYPE svg PUBLIC "-//W3C//DTD SVG 1.1//EN"
 "http://www.w3.org/Graphics/SVG/1.1/DTD/svg11.dtd">
<!-- Generated by graphviz version 2.25.20091207.0545 (20091207.0545)
 -->
<!-- Title: G Pages: 1 -->
<svg width="714pt" height="66pt"
 viewBox="0.00 0.00 714.00 66.00" xmlns="http://www.w3.org/2000/svg" xmlns:xlink="http://www.w3.org/1999/xlink">
<g id="graph1" class="graph" transform="scale(1 1) rotate(0) translate(4 62)">
<title>G</title>
<polygon fill="white" stroke="white" points="-4,5 -4,-62 711,-62 711,5 -4,5"/>
<!-- Node1 -->
<g id="node1" class="node"><title>Node1</title>
<polygon fill="#bfbfbf" stroke="black" points="0.5,-19.5 0.5,-38.5 87.5,-38.5 87.5,-19.5 0.5,-19.5"/>
<text text-anchor="middle" x="44" y="-25.5" font-family="Helvetica,sans-Serif" font-size="10.00">Neuron::validate</text>
</g>
<!-- Node2 -->
<g id="node3" class="node"><title>Node2</title>
<a xlink:href="class_neuron.html#ad9211d55ea50ad6dfbd2676b9e2335e4" target="_top" xlink:title="Neuron::getId">
<polygon fill="white" stroke="black" points="144.5,-38.5 144.5,-57.5 219.5,-57.5 219.5,-38.5 144.5,-38.5"/>
<text text-anchor="middle" x="182" y="-44.5" font-family="Helvetica,sans-Serif" font-size="10.00">Neuron::getId</text>
</a>
</g>
<!-- Node1&#45;&gt;Node2 -->
<g id="edge2" class="edge"><title>Node1&#45;&gt;Node2</title>
<path fill="none" stroke="midnightblue" d="M87.6641,-35.0117C102.421,-37.0434 118.972,-39.3223 134.043,-41.3972"/>
<polygon fill="midnightblue" stroke="midnightblue" points="133.816,-44.8989 144.2,-42.7956 134.771,-37.9643 133.816,-44.8989"/>
</g>
<!-- Node3 -->
<g id="node5" class="node"><title>Node3</title>
<a xlink:href="class_con_container.html#aac12a3d3604db9ff715503816109470c" target="_top" xlink:title="Object validator.">
<polygon fill="white" stroke="black" points="124,-0.5 124,-19.5 240,-19.5 240,-0.5 124,-0.5"/>
<text text-anchor="middle" x="182" y="-6.5" font-family="Helvetica,sans-Serif" font-size="10.00">ConContainer::validate</text>
</a>
</g>
<!-- Node1&#45;&gt;Node3 -->
<g id="edge4" class="edge"><title>Node1&#45;&gt;Node3</title>
<path fill="none" stroke="midnightblue" d="M87.6641,-22.9883C96.0404,-21.835 104.995,-20.6021 113.929,-19.372"/>
<polygon fill="midnightblue" stroke="midnightblue" points="114.546,-22.8202 123.975,-17.9889 113.592,-15.8856 114.546,-22.8202"/>
</g>
<!-- Node4 -->
<g id="node7" class="node"><title>Node4</title>
<a xlink:href="class_con_container.html#a387ac09ab154d21c5ad597d32b32dbc2" target="_top" xlink:title="Getter of the Id values of the vector of Cons.">
<polygon fill="white" stroke="black" points="276,-0.5 276,-19.5 380,-19.5 380,-0.5 276,-0.5"/>
<text text-anchor="middle" x="328" y="-6.5" font-family="Helvetica,sans-Serif" font-size="10.00">ConContainer::getId</text>
</a>
</g>
<!-- Node3&#45;&gt;Node4 -->
<g id="edge6" class="edge"><title>Node3&#45;&gt;Node4</title>
<path fill="none" stroke="midnightblue" d="M240.123,-10C248.49,-10 257.129,-10 265.576,-10"/>
<polygon fill="midnightblue" stroke="midnightblue" points="265.751,-13.5001 275.751,-10 265.751,-6.5001 265.751,-13.5001"/>
</g>
<!-- Node5 -->
<g id="node9" class="node"><title>Node5</title>
<a xlink:href="class_con_container.html#a8895e2c10e223e9950028f595588b9fe" target="_top" xlink:title="Size of the ConContainer object.">
<polygon fill="white" stroke="black" points="416.5,-0.5 416.5,-19.5 551.5,-19.5 551.5,-0.5 416.5,-0.5"/>
<text text-anchor="middle" x="484" y="-6.5" font-family="Helvetica,sans-Serif" font-size="10.00">ConContainer::numOfCons</text>
</a>
</g>
<!-- Node4&#45;&gt;Node5 -->
<g id="edge8" class="edge"><title>Node4&#45;&gt;Node5</title>
<path fill="none" stroke="midnightblue" d="M380.38,-10C388.65,-10 397.353,-10 406.055,-10"/>
<polygon fill="midnightblue" stroke="midnightblue" points="406.244,-13.5001 416.244,-10 406.244,-6.5001 406.244,-13.5001"/>
</g>
<!-- Node6 -->
<g id="node11" class="node"><title>Node6</title>
<a xlink:href="class_container.html#a842c3d9eca81b78b59112fde9707b091" target="_top" xlink:title="Container\&lt; Con \&gt;::size">
<polygon fill="white" stroke="black" points="588,-0.5 588,-19.5 706,-19.5 706,-0.5 588,-0.5"/>
<text text-anchor="middle" x="647" y="-6.5" font-family="Helvetica,sans-Serif" font-size="10.00">Container&lt; Con &gt;::size</text>
</a>
</g>
<!-- Node5&#45;&gt;Node6 -->
<g id="edge10" class="edge"><title>Node5&#45;&gt;Node6</title>
<path fill="none" stroke="midnightblue" d="M551.711,-10C560.324,-10 569.148,-10 577.784,-10"/>
<polygon fill="midnightblue" stroke="midnightblue" points="577.812,-13.5001 587.812,-10 577.812,-6.5001 577.812,-13.5001"/>
</g>
</g>
</svg>
