<?xml version="1.0" encoding="UTF-8" standalone="no"?>
<!DOCTYPE svg PUBLIC "-//W3C//DTD SVG 1.1//EN"
 "http://www.w3.org/Graphics/SVG/1.1/DTD/svg11.dtd">
<!-- Generated by graphviz version 2.25.20091207.0545 (20091207.0545)
 -->
<!-- Title: G Pages: 1 -->
<svg width="216pt" height="538pt"
 viewBox="0.00 0.00 216.00 538.00" xmlns="http://www.w3.org/2000/svg" xmlns:xlink="http://www.w3.org/1999/xlink">
<g id="graph1" class="graph" transform="scale(1 1) rotate(0) translate(4 534)">
<title>G</title>
<polygon fill="white" stroke="white" points="-4,5 -4,-534 213,-534 213,5 -4,5"/>
<!-- Node1 -->
<g id="node1" class="node"><title>Node1</title>
<polygon fill="#bfbfbf" stroke="black" points="49,-0.5 49,-211.5 131,-211.5 131,-0.5 49,-0.5"/>
<text text-anchor="middle" x="90" y="-198.5" font-family="Helvetica,sans-Serif" font-size="10.00">Container&lt; T &gt;</text>
<polyline fill="none" stroke="black" points="49,-192.5 131,-192.5 "/>
<text text-anchor="start" x="57" y="-179.5" font-family="Helvetica,sans-Serif" font-size="10.00"># collection</text>
<polyline fill="none" stroke="black" points="49,-173.5 131,-173.5 "/>
<text text-anchor="start" x="57" y="-160.5" font-family="Helvetica,sans-Serif" font-size="10.00">+ Container()</text>
<text text-anchor="start" x="57" y="-149.5" font-family="Helvetica,sans-Serif" font-size="10.00">+ Container()</text>
<text text-anchor="start" x="57" y="-138.5" font-family="Helvetica,sans-Serif" font-size="10.00">+ begin()</text>
<text text-anchor="start" x="57" y="-127.5" font-family="Helvetica,sans-Serif" font-size="10.00">+ end()</text>
<text text-anchor="start" x="57" y="-116.5" font-family="Helvetica,sans-Serif" font-size="10.00">+ load()</text>
<text text-anchor="start" x="57" y="-105.5" font-family="Helvetica,sans-Serif" font-size="10.00">+ store()</text>
<text text-anchor="start" x="57" y="-94.5" font-family="Helvetica,sans-Serif" font-size="10.00">+ size()</text>
<text text-anchor="start" x="57" y="-83.5" font-family="Helvetica,sans-Serif" font-size="10.00">+ push_back()</text>
<text text-anchor="start" x="57" y="-72.5" font-family="Helvetica,sans-Serif" font-size="10.00">+ append()</text>
<text text-anchor="start" x="57" y="-61.5" font-family="Helvetica,sans-Serif" font-size="10.00">+ show()</text>
<text text-anchor="start" x="57" y="-50.5" font-family="Helvetica,sans-Serif" font-size="10.00">+ validate()</text>
<text text-anchor="start" x="57" y="-39.5" font-family="Helvetica,sans-Serif" font-size="10.00">+ reserve()</text>
<text text-anchor="start" x="57" y="-28.5" font-family="Helvetica,sans-Serif" font-size="10.00">+ resize()</text>
<text text-anchor="start" x="57" y="-17.5" font-family="Helvetica,sans-Serif" font-size="10.00">+ empty()</text>
<text text-anchor="start" x="57" y="-6.5" font-family="Helvetica,sans-Serif" font-size="10.00">+ operator[]()</text>
</g>
<!-- Node2 -->
<g id="node2" class="node"><title>Node2</title>
<polygon fill="white" stroke="#bfbfbf" points="0,-260.5 0,-317.5 180,-317.5 180,-260.5 0,-260.5"/>
<text text-anchor="middle" x="90" y="-304.5" font-family="Helvetica,sans-Serif" font-size="10.00">std::vector&lt; boost::shared_ptr&lt; T &gt; &gt;</text>
<polyline fill="none" stroke="#bfbfbf" points="0,-298.5 180,-298.5 "/>
<text text-anchor="start" x="8" y="-285.5" font-family="Helvetica,sans-Serif" font-size="10.00">&#45; elements</text>
<polyline fill="none" stroke="#bfbfbf" points="0,-279.5 180,-279.5 "/>
<text text-anchor="middle" x="90" y="-266.5" font-family="Helvetica,sans-Serif" font-size="10.00"> </text>
</g>
<!-- Node2&#45;&gt;Node1 -->
<g id="edge2" class="edge"><title>Node2&#45;&gt;Node1</title>
<path fill="none" stroke="#9a32cd" stroke-dasharray="5,2" d="M90,-250.311C90,-238.756 90,-225.492 90,-211.789"/>
<polygon fill="#9a32cd" stroke="#9a32cd" points="90,-260.406 85.5001,-250.406 90,-255.406 90.0001,-250.406 90.0001,-250.406 90.0001,-250.406 90,-255.406 94.5001,-250.406 90,-260.406 90,-260.406"/>
<text text-anchor="middle" x="110.5" y="-232.5" font-family="Helvetica,sans-Serif" font-size="10.00">collection</text>
</g>
<!-- Node3 -->
<g id="node4" class="node"><title>Node3</title>
<a xlink:title="STL class.">
<polygon fill="white" stroke="#bfbfbf" points="46.5,-366.5 46.5,-423.5 133.5,-423.5 133.5,-366.5 46.5,-366.5"/>
<text text-anchor="middle" x="90" y="-410.5" font-family="Helvetica,sans-Serif" font-size="10.00">std::vector&lt; T &gt;</text>
<polyline fill="none" stroke="#bfbfbf" points="46.5,-404.5 133.5,-404.5 "/>
<text text-anchor="start" x="54.5" y="-391.5" font-family="Helvetica,sans-Serif" font-size="10.00">&#45; elements</text>
<polyline fill="none" stroke="#bfbfbf" points="46.5,-385.5 133.5,-385.5 "/>
<text text-anchor="middle" x="90" y="-372.5" font-family="Helvetica,sans-Serif" font-size="10.00"> </text>
</a>
</g>
<!-- Node3&#45;&gt;Node2 -->
<g id="edge4" class="edge"><title>Node3&#45;&gt;Node2</title>
<path fill="none" stroke="orange" stroke-dasharray="5,2" d="M90,-356.005C90,-343.326 90,-329.494 90,-317.708"/>
<polygon fill="orange" stroke="orange" points="86.5001,-356.315 90,-366.315 93.5001,-356.315 86.5001,-356.315"/>
<text text-anchor="middle" x="149" y="-338.5" font-family="Helvetica,sans-Serif" font-size="10.00">&lt; boost::shared_ptr&lt; T &gt; &gt;</text>
</g>
<!-- Node4 -->
<g id="node6" class="node"><title>Node4</title>
<polygon fill="white" stroke="#bfbfbf" points="75.5,-472.5 75.5,-529.5 104.5,-529.5 104.5,-472.5 75.5,-472.5"/>
<text text-anchor="middle" x="90" y="-516.5" font-family="Helvetica,sans-Serif" font-size="10.00">T</text>
<polyline fill="none" stroke="#bfbfbf" points="75.5,-510.5 104.5,-510.5 "/>
<text text-anchor="middle" x="90" y="-497.5" font-family="Helvetica,sans-Serif" font-size="10.00"> </text>
<polyline fill="none" stroke="#bfbfbf" points="75.5,-491.5 104.5,-491.5 "/>
<text text-anchor="middle" x="90" y="-478.5" font-family="Helvetica,sans-Serif" font-size="10.00"> </text>
</g>
<!-- Node4&#45;&gt;Node3 -->
<g id="edge6" class="edge"><title>Node4&#45;&gt;Node3</title>
<path fill="none" stroke="#9a32cd" stroke-dasharray="5,2" d="M90,-462.005C90,-449.326 90,-435.494 90,-423.708"/>
<polygon fill="#9a32cd" stroke="#9a32cd" points="90,-472.315 85.5001,-462.315 90,-467.315 90.0001,-462.315 90.0001,-462.315 90.0001,-462.315 90,-467.315 94.5001,-462.315 90,-472.315 90,-472.315"/>
<text text-anchor="middle" x="110" y="-444.5" font-family="Helvetica,sans-Serif" font-size="10.00">elements</text>
</g>
</g>
</svg>
