<?xml version="1.0" encoding="UTF-8" standalone="no"?>
<!DOCTYPE svg PUBLIC "-//W3C//DTD SVG 1.1//EN"
 "http://www.w3.org/Graphics/SVG/1.1/DTD/svg11.dtd">
<!-- Generated by graphviz version 2.25.20091207.0545 (20091207.0545)
 -->
<!-- Title: G Pages: 1 -->
<svg width="106pt" height="284pt"
 viewBox="0.00 0.00 106.00 284.00" xmlns="http://www.w3.org/2000/svg" xmlns:xlink="http://www.w3.org/1999/xlink">
<g id="graph1" class="graph" transform="scale(1 1) rotate(0) translate(4 280)">
<title>G</title>
<polygon fill="white" stroke="white" points="-4,5 -4,-280 103,-280 103,5 -4,5"/>
<!-- Node1 -->
<g id="node1" class="node"><title>Node1</title>
<polygon fill="#bfbfbf" stroke="black" points="-0.5,-141 -0.5,-275 98.5,-275 98.5,-141 -0.5,-141"/>
<text text-anchor="middle" x="49" y="-262" font-family="Helvetica,sans-Serif" font-size="10.00">Con</text>
<polyline fill="none" stroke="black" points="-0.5,-256 98.5,-256 "/>
<text text-anchor="start" x="7.5" y="-243" font-family="Helvetica,sans-Serif" font-size="10.00">&#45; from</text>
<text text-anchor="start" x="7.5" y="-232" font-family="Helvetica,sans-Serif" font-size="10.00">&#45; weight</text>
<polyline fill="none" stroke="black" points="-0.5,-226 98.5,-226 "/>
<text text-anchor="start" x="7.5" y="-213" font-family="Helvetica,sans-Serif" font-size="10.00">+ getFromNeuron()</text>
<text text-anchor="start" x="7.5" y="-202" font-family="Helvetica,sans-Serif" font-size="10.00">+ setFromNeuron()</text>
<text text-anchor="start" x="7.5" y="-191" font-family="Helvetica,sans-Serif" font-size="10.00">+ getFromId()</text>
<text text-anchor="start" x="7.5" y="-180" font-family="Helvetica,sans-Serif" font-size="10.00">+ getWeight()</text>
<text text-anchor="start" x="7.5" y="-169" font-family="Helvetica,sans-Serif" font-size="10.00">+ setWeight()</text>
<text text-anchor="start" x="7.5" y="-158" font-family="Helvetica,sans-Serif" font-size="10.00">+ show()</text>
<text text-anchor="start" x="7.5" y="-147" font-family="Helvetica,sans-Serif" font-size="10.00">+ validate()</text>
</g>
<!-- Node2 -->
<g id="node2" class="node"><title>Node2</title>
<a xlink:href="class_neuron.html" target="_top" xlink:title="A class to handle the information contained in a general Neuron.">
<polygon fill="white" stroke="black" points="12,-1 12,-91 86,-91 86,-1 12,-1"/>
<text text-anchor="middle" x="49" y="-78" font-family="Helvetica,sans-Serif" font-size="10.00">Neuron</text>
<polyline fill="none" stroke="black" points="12,-72 86,-72 "/>
<text text-anchor="start" x="20" y="-59" font-family="Helvetica,sans-Serif" font-size="10.00">&#45; Id</text>
<text text-anchor="start" x="20" y="-48" font-family="Helvetica,sans-Serif" font-size="10.00">&#45; vecCon</text>
<text text-anchor="start" x="20" y="-37" font-family="Helvetica,sans-Serif" font-size="10.00">&#45; outputValue</text>
<polyline fill="none" stroke="black" points="12,-31 86,-31 "/>
<text text-anchor="start" x="20" y="-18" font-family="Helvetica,sans-Serif" font-size="10.00">+ getId()</text>
<text text-anchor="start" x="20" y="-7" font-family="Helvetica,sans-Serif" font-size="10.00">+ setId()</text>
</a>
</g>
<!-- Node1&#45;&gt;Node2 -->
<g id="edge4" class="edge"><title>Node1&#45;&gt;Node2</title>
<path fill="none" stroke="#9a32cd" stroke-dasharray="5,2" d="M16.5832,-130.735C16.0816,-123.763 16.4449,-116.778 18,-110 19.4357,-103.743 21.5671,-97.3868 24.0525,-91.2305"/>
<polygon fill="#9a32cd" stroke="#9a32cd" points="17.899,-140.916 12.1542,-131.575 17.258,-135.957 16.6171,-130.998 16.6171,-130.998 16.6171,-130.998 17.258,-135.957 21.08,-130.421 17.899,-140.916 17.899,-140.916"/>
<text text-anchor="middle" x="35" y="-112.5" font-family="Helvetica,sans-Serif" font-size="10.00">vecCon</text>
</g>
<!-- Node2&#45;&gt;Node1 -->
<g id="edge2" class="edge"><title>Node2&#45;&gt;Node1</title>
<path fill="none" stroke="#9a32cd" stroke-dasharray="5,2" d="M55.4207,-101.202C55.6468,-104.176 55.8431,-107.123 56,-110 56.5433,-119.964 56.4727,-130.491 56.0405,-140.804"/>
<polygon fill="#9a32cd" stroke="#9a32cd" points="54.5505,-91.0545 59.8885,-100.633 54.9777,-96.0363 55.405,-101.018 55.405,-101.018 55.405,-101.018 54.9777,-96.0363 50.9214,-101.402 54.5505,-91.0545 54.5505,-91.0545"/>
<text text-anchor="middle" x="66" y="-112.5" font-family="Helvetica,sans-Serif" font-size="10.00">from</text>
</g>
</g>
</svg>
