<?xml version="1.0" encoding="UTF-8" standalone="no"?>
<!DOCTYPE svg PUBLIC "-//W3C//DTD SVG 1.1//EN"
 "http://www.w3.org/Graphics/SVG/1.1/DTD/svg11.dtd">
<!-- Generated by graphviz version 2.25.20091207.0545 (20091207.0545)
 -->
<!-- Title: G Pages: 1 -->
<svg width="106pt" height="304pt"
 viewBox="0.00 0.00 106.00 304.00" xmlns="http://www.w3.org/2000/svg" xmlns:xlink="http://www.w3.org/1999/xlink">
<g id="graph1" class="graph" transform="scale(1 1) rotate(0) translate(4 300)">
<title>G</title>
<polygon fill="white" stroke="white" points="-4,5 -4,-300 103,-300 103,5 -4,5"/>
<!-- Node1 -->
<g id="node1" class="node"><title>Node1</title>
<polygon fill="#bfbfbf" stroke="black" points="-0.5,-0.5 -0.5,-167.5 98.5,-167.5 98.5,-0.5 -0.5,-0.5"/>
<text text-anchor="middle" x="49" y="-154.5" font-family="Helvetica,sans-Serif" font-size="10.00">Con</text>
<polyline fill="none" stroke="black" points="-0.5,-148.5 98.5,-148.5 "/>
<text text-anchor="start" x="7.5" y="-135.5" font-family="Helvetica,sans-Serif" font-size="10.00">&#45; from</text>
<text text-anchor="start" x="7.5" y="-124.5" font-family="Helvetica,sans-Serif" font-size="10.00">&#45; weight</text>
<polyline fill="none" stroke="black" points="-0.5,-118.5 98.5,-118.5 "/>
<text text-anchor="start" x="7.5" y="-105.5" font-family="Helvetica,sans-Serif" font-size="10.00">+ Con()</text>
<text text-anchor="start" x="7.5" y="-94.5" font-family="Helvetica,sans-Serif" font-size="10.00">+ Con()</text>
<text text-anchor="start" x="7.5" y="-83.5" font-family="Helvetica,sans-Serif" font-size="10.00">+ ~Con()</text>
<text text-anchor="start" x="7.5" y="-72.5" font-family="Helvetica,sans-Serif" font-size="10.00">+ getFromNeuron()</text>
<text text-anchor="start" x="7.5" y="-61.5" font-family="Helvetica,sans-Serif" font-size="10.00">+ setFromNeuron()</text>
<text text-anchor="start" x="7.5" y="-50.5" font-family="Helvetica,sans-Serif" font-size="10.00">+ getFromId()</text>
<text text-anchor="start" x="7.5" y="-39.5" font-family="Helvetica,sans-Serif" font-size="10.00">+ getWeight()</text>
<text text-anchor="start" x="7.5" y="-28.5" font-family="Helvetica,sans-Serif" font-size="10.00">+ setWeight()</text>
<text text-anchor="start" x="7.5" y="-17.5" font-family="Helvetica,sans-Serif" font-size="10.00">+ show()</text>
<text text-anchor="start" x="7.5" y="-6.5" font-family="Helvetica,sans-Serif" font-size="10.00">+ validate()</text>
</g>
<!-- Node2 -->
<g id="node2" class="node"><title>Node2</title>
<a xlink:href="class_neuron.html" target="_top" xlink:title="A class to handle the information contained in a general Neuron.">
<polygon fill="white" stroke="black" points="12,-216.5 12,-295.5 86,-295.5 86,-216.5 12,-216.5"/>
<text text-anchor="middle" x="49" y="-282.5" font-family="Helvetica,sans-Serif" font-size="10.00">Neuron</text>
<polyline fill="none" stroke="black" points="12,-276.5 86,-276.5 "/>
<text text-anchor="start" x="20" y="-263.5" font-family="Helvetica,sans-Serif" font-size="10.00">&#45; Id</text>
<text text-anchor="start" x="20" y="-252.5" font-family="Helvetica,sans-Serif" font-size="10.00">&#45; outputValue</text>
<polyline fill="none" stroke="black" points="12,-246.5 86,-246.5 "/>
<text text-anchor="start" x="20" y="-233.5" font-family="Helvetica,sans-Serif" font-size="10.00">+ getId()</text>
<text text-anchor="start" x="20" y="-222.5" font-family="Helvetica,sans-Serif" font-size="10.00">+ setId()</text>
</a>
</g>
<!-- Node2&#45;&gt;Node1 -->
<g id="edge2" class="edge"><title>Node2&#45;&gt;Node1</title>
<path fill="none" stroke="#9a32cd" stroke-dasharray="5,2" d="M49,-205.908C49,-193.936 49,-180.832 49,-167.796"/>
<polygon fill="#9a32cd" stroke="#9a32cd" points="49,-216.107 44.5001,-206.107 49,-211.107 49.0001,-206.107 49.0001,-206.107 49.0001,-206.107 49,-211.107 53.5001,-206.107 49,-216.107 49,-216.107"/>
<text text-anchor="middle" x="59" y="-188.5" font-family="Helvetica,sans-Serif" font-size="10.00">from</text>
</g>
</g>
</svg>
