<?xml version="1.0" encoding="UTF-8" standalone="no"?>
<!DOCTYPE svg PUBLIC "-//W3C//DTD SVG 1.1//EN"
 "http://www.w3.org/Graphics/SVG/1.1/DTD/svg11.dtd">
<!-- Generated by graphviz version 2.25.20091207.0545 (20091207.0545)
 -->
<!-- Title: G Pages: 1 -->
<svg width="232pt" height="686pt"
 viewBox="0.00 0.00 232.00 686.00" xmlns="http://www.w3.org/2000/svg" xmlns:xlink="http://www.w3.org/1999/xlink">
<g id="graph1" class="graph" transform="scale(1 1) rotate(0) translate(4 682)">
<title>G</title>
<polygon fill="white" stroke="white" points="-4,5 -4,-682 229,-682 229,5 -4,5"/>
<!-- Node1 -->
<g id="node1" class="node"><title>Node1</title>
<polygon fill="#bfbfbf" stroke="black" points="77,-521 77,-677 159,-677 159,-521 77,-521"/>
<text text-anchor="middle" x="118" y="-664" font-family="Helvetica,sans-Serif" font-size="10.00">Container&lt; T &gt;</text>
<polyline fill="none" stroke="black" points="77,-658 159,-658 "/>
<text text-anchor="start" x="85" y="-645" font-family="Helvetica,sans-Serif" font-size="10.00"># ldata</text>
<polyline fill="none" stroke="black" points="77,-639 159,-639 "/>
<text text-anchor="start" x="85" y="-626" font-family="Helvetica,sans-Serif" font-size="10.00">+ begin()</text>
<text text-anchor="start" x="85" y="-615" font-family="Helvetica,sans-Serif" font-size="10.00">+ end()</text>
<text text-anchor="start" x="85" y="-604" font-family="Helvetica,sans-Serif" font-size="10.00">+ getLdata()</text>
<text text-anchor="start" x="85" y="-593" font-family="Helvetica,sans-Serif" font-size="10.00">+ setLdata()</text>
<text text-anchor="start" x="85" y="-582" font-family="Helvetica,sans-Serif" font-size="10.00">+ size()</text>
<text text-anchor="start" x="85" y="-571" font-family="Helvetica,sans-Serif" font-size="10.00">+ push_back()</text>
<text text-anchor="start" x="85" y="-560" font-family="Helvetica,sans-Serif" font-size="10.00">+ append()</text>
<text text-anchor="start" x="85" y="-549" font-family="Helvetica,sans-Serif" font-size="10.00">+ show()</text>
<text text-anchor="start" x="85" y="-538" font-family="Helvetica,sans-Serif" font-size="10.00">+ validate()</text>
<text text-anchor="start" x="85" y="-527" font-family="Helvetica,sans-Serif" font-size="10.00">+ reserve()</text>
</g>
<!-- Node2 -->
<g id="node3" class="node"><title>Node2</title>
<a xlink:href="class_container.html" target="_top" xlink:title="{Container\&lt; Con \&gt;\n|# ldata\l|+ begin()\l+ end()\l+ getLdata()\l+ setLdata()\l+ size()\l+ push_back()\l+ append()\l+ show()\l+ validate()\l+ reserve()\l}">
<polygon fill="white" stroke="black" points="4,-315 4,-471 98,-471 98,-315 4,-315"/>
<text text-anchor="middle" x="51" y="-458" font-family="Helvetica,sans-Serif" font-size="10.00">Container&lt; Con &gt;</text>
<polyline fill="none" stroke="black" points="4,-452 98,-452 "/>
<text text-anchor="start" x="12" y="-439" font-family="Helvetica,sans-Serif" font-size="10.00"># ldata</text>
<polyline fill="none" stroke="black" points="4,-433 98,-433 "/>
<text text-anchor="start" x="12" y="-420" font-family="Helvetica,sans-Serif" font-size="10.00">+ begin()</text>
<text text-anchor="start" x="12" y="-409" font-family="Helvetica,sans-Serif" font-size="10.00">+ end()</text>
<text text-anchor="start" x="12" y="-398" font-family="Helvetica,sans-Serif" font-size="10.00">+ getLdata()</text>
<text text-anchor="start" x="12" y="-387" font-family="Helvetica,sans-Serif" font-size="10.00">+ setLdata()</text>
<text text-anchor="start" x="12" y="-376" font-family="Helvetica,sans-Serif" font-size="10.00">+ size()</text>
<text text-anchor="start" x="12" y="-365" font-family="Helvetica,sans-Serif" font-size="10.00">+ push_back()</text>
<text text-anchor="start" x="12" y="-354" font-family="Helvetica,sans-Serif" font-size="10.00">+ append()</text>
<text text-anchor="start" x="12" y="-343" font-family="Helvetica,sans-Serif" font-size="10.00">+ show()</text>
<text text-anchor="start" x="12" y="-332" font-family="Helvetica,sans-Serif" font-size="10.00">+ validate()</text>
<text text-anchor="start" x="12" y="-321" font-family="Helvetica,sans-Serif" font-size="10.00">+ reserve()</text>
</a>
</g>
<!-- Node1&#45;&gt;Node2 -->
<g id="edge2" class="edge"><title>Node1&#45;&gt;Node2</title>
<path fill="none" stroke="orange" stroke-dasharray="5,2" d="M89.4444,-511.202C85.1122,-497.882 80.6673,-484.216 76.408,-471.12"/>
<polygon fill="orange" stroke="orange" points="86.1532,-512.399 92.5746,-520.827 92.81,-510.234 86.1532,-512.399"/>
<text text-anchor="middle" x="102" y="-492.5" font-family="Helvetica,sans-Serif" font-size="10.00">&lt; Con &gt;</text>
</g>
<!-- Node4 -->
<g id="node7" class="node"><title>Node4</title>
<a xlink:href="class_container.html" target="_top" xlink:title="{Container\&lt; Neuron \&gt;\n|# ldata\l|+ begin()\l+ end()\l+ getLdata()\l+ setLdata()\l+ size()\l+ push_back()\l+ append()\l+ show()\l+ validate()\l+ reserve()\l}">
<polygon fill="white" stroke="black" points="116,-315 116,-471 224,-471 224,-315 116,-315"/>
<text text-anchor="middle" x="170" y="-458" font-family="Helvetica,sans-Serif" font-size="10.00">Container&lt; Neuron &gt;</text>
<polyline fill="none" stroke="black" points="116,-452 224,-452 "/>
<text text-anchor="start" x="124" y="-439" font-family="Helvetica,sans-Serif" font-size="10.00"># ldata</text>
<polyline fill="none" stroke="black" points="116,-433 224,-433 "/>
<text text-anchor="start" x="124" y="-420" font-family="Helvetica,sans-Serif" font-size="10.00">+ begin()</text>
<text text-anchor="start" x="124" y="-409" font-family="Helvetica,sans-Serif" font-size="10.00">+ end()</text>
<text text-anchor="start" x="124" y="-398" font-family="Helvetica,sans-Serif" font-size="10.00">+ getLdata()</text>
<text text-anchor="start" x="124" y="-387" font-family="Helvetica,sans-Serif" font-size="10.00">+ setLdata()</text>
<text text-anchor="start" x="124" y="-376" font-family="Helvetica,sans-Serif" font-size="10.00">+ size()</text>
<text text-anchor="start" x="124" y="-365" font-family="Helvetica,sans-Serif" font-size="10.00">+ push_back()</text>
<text text-anchor="start" x="124" y="-354" font-family="Helvetica,sans-Serif" font-size="10.00">+ append()</text>
<text text-anchor="start" x="124" y="-343" font-family="Helvetica,sans-Serif" font-size="10.00">+ show()</text>
<text text-anchor="start" x="124" y="-332" font-family="Helvetica,sans-Serif" font-size="10.00">+ validate()</text>
<text text-anchor="start" x="124" y="-321" font-family="Helvetica,sans-Serif" font-size="10.00">+ reserve()</text>
</a>
</g>
<!-- Node1&#45;&gt;Node4 -->
<g id="edge6" class="edge"><title>Node1&#45;&gt;Node4</title>
<path fill="none" stroke="orange" stroke-dasharray="5,2" d="M140.261,-510.814C143.592,-497.617 147.007,-484.089 150.28,-471.12"/>
<polygon fill="orange" stroke="orange" points="136.787,-510.274 137.733,-520.827 143.574,-511.987 136.787,-510.274"/>
<text text-anchor="middle" x="169" y="-492.5" font-family="Helvetica,sans-Serif" font-size="10.00">&lt; Neuron &gt;</text>
</g>
<!-- Node3 -->
<g id="node5" class="node"><title>Node3</title>
<a xlink:href="class_vec_con.html" target="_top" xlink:title="A vector of connections.">
<polygon fill="white" stroke="black" points="0,-97 0,-275 102,-275 102,-97 0,-97"/>
<text text-anchor="middle" x="51" y="-262" font-family="Helvetica,sans-Serif" font-size="10.00">VecCon</text>
<polyline fill="none" stroke="black" points="0,-256 102,-256 "/>
<text text-anchor="middle" x="51" y="-243" font-family="Helvetica,sans-Serif" font-size="10.00"> </text>
<polyline fill="none" stroke="black" points="0,-237 102,-237 "/>
<text text-anchor="start" x="8" y="-224" font-family="Helvetica,sans-Serif" font-size="10.00">+ numOfCons()</text>
<text text-anchor="start" x="8" y="-213" font-family="Helvetica,sans-Serif" font-size="10.00">+ getId()</text>
<text text-anchor="start" x="8" y="-202" font-family="Helvetica,sans-Serif" font-size="10.00">+ buildAndAppend()</text>
<text text-anchor="start" x="8" y="-191" font-family="Helvetica,sans-Serif" font-size="10.00">+ getWeight()</text>
<text text-anchor="start" x="8" y="-180" font-family="Helvetica,sans-Serif" font-size="10.00">+ getWeight()</text>
<text text-anchor="start" x="8" y="-169" font-family="Helvetica,sans-Serif" font-size="10.00">+ getFrom()</text>
<text text-anchor="start" x="8" y="-158" font-family="Helvetica,sans-Serif" font-size="10.00">+ setWeight()</text>
<text text-anchor="start" x="8" y="-147" font-family="Helvetica,sans-Serif" font-size="10.00">+ setWeight()</text>
<text text-anchor="start" x="8" y="-136" font-family="Helvetica,sans-Serif" font-size="10.00">+ setFrom()</text>
<text text-anchor="start" x="8" y="-125" font-family="Helvetica,sans-Serif" font-size="10.00">+ erase()</text>
<text text-anchor="start" x="8" y="-114" font-family="Helvetica,sans-Serif" font-size="10.00">+ select()</text>
<text text-anchor="start" x="8" y="-103" font-family="Helvetica,sans-Serif" font-size="10.00">+ validate()</text>
</a>
</g>
<!-- Node2&#45;&gt;Node3 -->
<g id="edge4" class="edge"><title>Node2&#45;&gt;Node3</title>
<path fill="none" stroke="midnightblue" d="M51,-304.639C51,-294.866 51,-284.909 51,-275.127"/>
<polygon fill="none" stroke="midnightblue" points="47.5001,-304.742 51,-314.742 54.5001,-304.742 47.5001,-304.742"/>
</g>
<!-- Node5 -->
<g id="node9" class="node"><title>Node5</title>
<a xlink:href="classvec_neuron.html" target="_top" xlink:title="A vector of neurons.">
<polygon fill="white" stroke="black" points="138.5,-157.5 138.5,-214.5 201.5,-214.5 201.5,-157.5 138.5,-157.5"/>
<text text-anchor="middle" x="170" y="-201.5" font-family="Helvetica,sans-Serif" font-size="10.00">vecNeuron</text>
<polyline fill="none" stroke="black" points="138.5,-195.5 201.5,-195.5 "/>
<text text-anchor="middle" x="170" y="-182.5" font-family="Helvetica,sans-Serif" font-size="10.00"> </text>
<polyline fill="none" stroke="black" points="138.5,-176.5 201.5,-176.5 "/>
<text text-anchor="middle" x="170" y="-163.5" font-family="Helvetica,sans-Serif" font-size="10.00"> </text>
</a>
</g>
<!-- Node4&#45;&gt;Node5 -->
<g id="edge8" class="edge"><title>Node4&#45;&gt;Node5</title>
<path fill="none" stroke="midnightblue" d="M170,-304.377C170,-272.19 170,-238.043 170,-214.738"/>
<polygon fill="none" stroke="midnightblue" points="166.5,-304.742 170,-314.742 173.5,-304.742 166.5,-304.742"/>
</g>
<!-- Node6 -->
<g id="node11" class="node"><title>Node6</title>
<a xlink:href="classvec_m_l_pneuron.html" target="_top" xlink:title="A vector of connections.">
<polygon fill="white" stroke="black" points="119,-0.5 119,-57.5 221,-57.5 221,-0.5 119,-0.5"/>
<text text-anchor="middle" x="170" y="-44.5" font-family="Helvetica,sans-Serif" font-size="10.00">vecMLPneuron</text>
<polyline fill="none" stroke="black" points="119,-38.5 221,-38.5 "/>
<text text-anchor="middle" x="170" y="-25.5" font-family="Helvetica,sans-Serif" font-size="10.00"> </text>
<polyline fill="none" stroke="black" points="119,-19.5 221,-19.5 "/>
<text text-anchor="start" x="127" y="-6.5" font-family="Helvetica,sans-Serif" font-size="10.00">+ buildAndAppend()</text>
</a>
</g>
<!-- Node5&#45;&gt;Node6 -->
<g id="edge10" class="edge"><title>Node5&#45;&gt;Node6</title>
<path fill="none" stroke="midnightblue" d="M170,-147.055C170,-119.323 170,-82.6764 170,-57.6137"/>
<polygon fill="none" stroke="midnightblue" points="166.5,-147.204 170,-157.204 173.5,-147.204 166.5,-147.204"/>
</g>
</g>
</svg>
