<?xml version="1.0" encoding="UTF-8" standalone="no"?>
<!DOCTYPE svg PUBLIC "-//W3C//DTD SVG 1.1//EN"
 "http://www.w3.org/Graphics/SVG/1.1/DTD/svg11.dtd">
<!-- Generated by graphviz version 2.28.0 (20110610.2051)
 -->
<!-- Title: G Pages: 1 -->
<svg width="132pt" height="424pt"
 viewBox="0.00 0.00 132.00 424.00" xmlns="http://www.w3.org/2000/svg" xmlns:xlink="http://www.w3.org/1999/xlink">
<g id="graph1" class="graph" transform="scale(1 1) rotate(0) translate(4 420)">
<title>G</title>
<polygon fill="white" stroke="white" points="-4,5 -4,-420 129,-420 129,5 -4,5"/>
<!-- Node1 -->
<g id="node1" class="node"><title>Node1</title>
<polygon fill="#bfbfbf" stroke="black" points="28,-0.5 28,-57.5 96,-57.5 96,-0.5 28,-0.5"/>
<text text-anchor="middle" x="62" y="-45.5" font-family="Helvetica,sans-Serif" font-size="10.00">MLPneuron</text>
<polyline fill="none" stroke="black" points="28,-38.5 96,-38.5 "/>
<text text-anchor="start" x="36" y="-26.5" font-family="Helvetica,sans-Serif" font-size="10.00">&#45; bias</text>
<polyline fill="none" stroke="black" points="28,-19.5 96,-19.5 "/>
<text text-anchor="middle" x="62" y="-7.5" font-family="Helvetica,sans-Serif" font-size="10.00"> </text>
</g>
<!-- Node2 -->
<g id="node2" class="node"><title>Node2</title>
<a xlink:href="class_neuron.html" target="_top" xlink:title="class Neuron &#45;">
<polygon fill="white" stroke="black" points="-0.5,-94.5 -0.5,-415.5 124.5,-415.5 124.5,-94.5 -0.5,-94.5"/>
<text text-anchor="middle" x="62" y="-403.5" font-family="Helvetica,sans-Serif" font-size="10.00">Neuron</text>
<polyline fill="none" stroke="black" points="-0.5,-396.5 124.5,-396.5 "/>
<text text-anchor="start" x="7.5" y="-384.5" font-family="Helvetica,sans-Serif" font-size="10.00">+ d_predictBehavior</text>
<text text-anchor="start" x="7.5" y="-373.5" font-family="Helvetica,sans-Serif" font-size="10.00">+ d_trainingBehavior</text>
<text text-anchor="start" x="7.5" y="-362.5" font-family="Helvetica,sans-Serif" font-size="10.00">&#45; Id</text>
<text text-anchor="start" x="7.5" y="-351.5" font-family="Helvetica,sans-Serif" font-size="10.00">&#45; con</text>
<text text-anchor="start" x="7.5" y="-340.5" font-family="Helvetica,sans-Serif" font-size="10.00">&#45; outputValue</text>
<polyline fill="none" stroke="black" points="-0.5,-333.5 124.5,-333.5 "/>
<text text-anchor="start" x="7.5" y="-321.5" font-family="Helvetica,sans-Serif" font-size="10.00">+ getId()</text>
<text text-anchor="start" x="7.5" y="-310.5" font-family="Helvetica,sans-Serif" font-size="10.00">+ setId()</text>
<text text-anchor="start" x="7.5" y="-299.5" font-family="Helvetica,sans-Serif" font-size="10.00">+ setPredictBehavior()</text>
<text text-anchor="start" x="7.5" y="-288.5" font-family="Helvetica,sans-Serif" font-size="10.00">+ setTrainingBehavior()</text>
<text text-anchor="start" x="7.5" y="-277.5" font-family="Helvetica,sans-Serif" font-size="10.00">+ predict()</text>
<text text-anchor="start" x="7.5" y="-266.5" font-family="Helvetica,sans-Serif" font-size="10.00">+ adjustParameters()</text>
<text text-anchor="start" x="7.5" y="-255.5" font-family="Helvetica,sans-Serif" font-size="10.00">+ show()</text>
<text text-anchor="start" x="7.5" y="-244.5" font-family="Helvetica,sans-Serif" font-size="10.00">+ validate()</text>
<text text-anchor="start" x="7.5" y="-233.5" font-family="Helvetica,sans-Serif" font-size="10.00">+ Neuron()</text>
<text text-anchor="start" x="7.5" y="-222.5" font-family="Helvetica,sans-Serif" font-size="10.00">+ Neuron()</text>
<text text-anchor="start" x="7.5" y="-211.5" font-family="Helvetica,sans-Serif" font-size="10.00">+ Neuron()</text>
<text text-anchor="start" x="7.5" y="-200.5" font-family="Helvetica,sans-Serif" font-size="10.00">+ ~Neuron()</text>
<text text-anchor="start" x="7.5" y="-189.5" font-family="Helvetica,sans-Serif" font-size="10.00">+ getId()</text>
<text text-anchor="start" x="7.5" y="-178.5" font-family="Helvetica,sans-Serif" font-size="10.00">+ setId()</text>
<text text-anchor="start" x="7.5" y="-167.5" font-family="Helvetica,sans-Serif" font-size="10.00">+ getConId()</text>
<text text-anchor="start" x="7.5" y="-156.5" font-family="Helvetica,sans-Serif" font-size="10.00">+ getWeight()</text>
<text text-anchor="start" x="7.5" y="-145.5" font-family="Helvetica,sans-Serif" font-size="10.00">+ setFrom()</text>
<text text-anchor="start" x="7.5" y="-134.5" font-family="Helvetica,sans-Serif" font-size="10.00">+ setWeight()</text>
<text text-anchor="start" x="7.5" y="-123.5" font-family="Helvetica,sans-Serif" font-size="10.00">+ numOfCons()</text>
<text text-anchor="start" x="7.5" y="-112.5" font-family="Helvetica,sans-Serif" font-size="10.00">+ show()</text>
<text text-anchor="start" x="7.5" y="-101.5" font-family="Helvetica,sans-Serif" font-size="10.00">+ validate()</text>
</a>
</g>
<!-- Node2&#45;&gt;Node1 -->
<g id="edge2" class="edge"><title>Node2&#45;&gt;Node1</title>
<path fill="none" stroke="midnightblue" d="M62,-84.3998C62,-74.5644 62,-65.5433 62,-57.7944"/>
<polygon fill="none" stroke="midnightblue" points="58.5001,-84.4895 62,-94.4896 65.5001,-84.4896 58.5001,-84.4895"/>
</g>
</g>
</svg>
