<?xml version="1.0" encoding="UTF-8" standalone="no"?>
<!DOCTYPE svg PUBLIC "-//W3C//DTD SVG 1.1//EN"
 "http://www.w3.org/Graphics/SVG/1.1/DTD/svg11.dtd">
<!-- Generated by graphviz version 2.25.20091207.0545 (20091207.0545)
 -->
<!-- Title: G Pages: 1 -->
<svg width="554pt" height="104pt"
 viewBox="0.00 0.00 554.00 104.00" xmlns="http://www.w3.org/2000/svg" xmlns:xlink="http://www.w3.org/1999/xlink">
<g id="graph1" class="graph" transform="scale(1 1) rotate(0) translate(4 100)">
<title>G</title>
<polygon fill="white" stroke="white" points="-4,5 -4,-100 551,-100 551,5 -4,5"/>
<!-- Node1 -->
<g id="node1" class="node"><title>Node1</title>
<polygon fill="#bfbfbf" stroke="black" points="0.5,-38.5 0.5,-57.5 77.5,-57.5 77.5,-38.5 0.5,-38.5"/>
<text text-anchor="middle" x="39" y="-44.5" font-family="Helvetica,sans-Serif" font-size="10.00">Neuron::show</text>
</g>
<!-- Node2 -->
<g id="node3" class="node"><title>Node2</title>
<a xlink:href="class_neuron.html#ad9211d55ea50ad6dfbd2676b9e2335e4" target="_top" xlink:title="Neuron::getId">
<polygon fill="white" stroke="black" points="129.5,-76.5 129.5,-95.5 204.5,-95.5 204.5,-76.5 129.5,-76.5"/>
<text text-anchor="middle" x="167" y="-82.5" font-family="Helvetica,sans-Serif" font-size="10.00">Neuron::getId</text>
</a>
</g>
<!-- Node1&#45;&gt;Node2 -->
<g id="edge2" class="edge"><title>Node1&#45;&gt;Node2</title>
<path fill="none" stroke="midnightblue" d="M71.2998,-57.589C87.5202,-62.4044 107.375,-68.2988 124.787,-73.468"/>
<polygon fill="midnightblue" stroke="midnightblue" points="124.128,-76.9233 134.711,-76.4141 126.12,-70.2127 124.128,-76.9233"/>
</g>
<!-- Node3 -->
<g id="node5" class="node"><title>Node3</title>
<a xlink:href="class_neuron.html#ae447dce39ed04581609a83d742b585d1" target="_top" xlink:title="Neuron::numOfCons">
<polygon fill="white" stroke="black" points="114,-38.5 114,-57.5 220,-57.5 220,-38.5 114,-38.5"/>
<text text-anchor="middle" x="167" y="-44.5" font-family="Helvetica,sans-Serif" font-size="10.00">Neuron::numOfCons</text>
</a>
</g>
<!-- Node1&#45;&gt;Node3 -->
<g id="edge4" class="edge"><title>Node1&#45;&gt;Node3</title>
<path fill="none" stroke="midnightblue" d="M77.7516,-48C85.8961,-48 94.6904,-48 103.473,-48"/>
<polygon fill="midnightblue" stroke="midnightblue" points="103.737,-51.5001 113.737,-48 103.737,-44.5001 103.737,-51.5001"/>
</g>
<!-- Node6 -->
<g id="node11" class="node"><title>Node6</title>
<a xlink:href="class_container.html#ad72379ee222b073a5eecec7fc1bedfc2" target="_top" xlink:title="Pretty print of the Container&lt;T&gt;">
<polygon fill="white" stroke="black" points="123.5,-0.5 123.5,-19.5 210.5,-19.5 210.5,-0.5 123.5,-0.5"/>
<text text-anchor="middle" x="167" y="-6.5" font-family="Helvetica,sans-Serif" font-size="10.00">Container::show</text>
</a>
</g>
<!-- Node1&#45;&gt;Node6 -->
<g id="edge10" class="edge"><title>Node1&#45;&gt;Node6</title>
<path fill="none" stroke="midnightblue" d="M71.2998,-38.411C87.5202,-33.5956 107.375,-27.7012 124.787,-22.532"/>
<polygon fill="midnightblue" stroke="midnightblue" points="126.12,-25.7873 134.711,-19.5859 124.128,-19.0767 126.12,-25.7873"/>
</g>
<!-- Node4 -->
<g id="node7" class="node"><title>Node4</title>
<a xlink:href="class_con_container.html#a8895e2c10e223e9950028f595588b9fe" target="_top" xlink:title="Size of the ConContainer object.">
<polygon fill="white" stroke="black" points="256.5,-38.5 256.5,-57.5 391.5,-57.5 391.5,-38.5 256.5,-38.5"/>
<text text-anchor="middle" x="324" y="-44.5" font-family="Helvetica,sans-Serif" font-size="10.00">ConContainer::numOfCons</text>
</a>
</g>
<!-- Node3&#45;&gt;Node4 -->
<g id="edge6" class="edge"><title>Node3&#45;&gt;Node4</title>
<path fill="none" stroke="midnightblue" d="M220.153,-48C228.62,-48 237.528,-48 246.42,-48"/>
<polygon fill="midnightblue" stroke="midnightblue" points="246.428,-51.5001 256.428,-48 246.428,-44.5001 246.428,-51.5001"/>
</g>
<!-- Node5 -->
<g id="node9" class="node"><title>Node5</title>
<a xlink:href="class_container.html#a842c3d9eca81b78b59112fde9707b091" target="_top" xlink:title="Container\&lt; Con \&gt;::size">
<polygon fill="white" stroke="black" points="428,-38.5 428,-57.5 546,-57.5 546,-38.5 428,-38.5"/>
<text text-anchor="middle" x="487" y="-44.5" font-family="Helvetica,sans-Serif" font-size="10.00">Container&lt; Con &gt;::size</text>
</a>
</g>
<!-- Node4&#45;&gt;Node5 -->
<g id="edge8" class="edge"><title>Node4&#45;&gt;Node5</title>
<path fill="none" stroke="midnightblue" d="M391.711,-48C400.324,-48 409.148,-48 417.784,-48"/>
<polygon fill="midnightblue" stroke="midnightblue" points="417.812,-51.5001 427.812,-48 417.812,-44.5001 417.812,-51.5001"/>
</g>
</g>
</svg>
