<?xml version="1.0" encoding="UTF-8" standalone="no"?>
<!DOCTYPE svg PUBLIC "-//W3C//DTD SVG 1.1//EN"
 "http://www.w3.org/Graphics/SVG/1.1/DTD/svg11.dtd">
<!-- Generated by graphviz version 2.28.0 (20110610.2051)
 -->
<!-- Title: G Pages: 1 -->
<svg width="844pt" height="2952pt"
 viewBox="0.00 0.00 844.00 2952.00" xmlns="http://www.w3.org/2000/svg" xmlns:xlink="http://www.w3.org/1999/xlink">
<g id="graph1" class="graph" transform="scale(1 1) rotate(0) translate(4 2948)">
<title>G</title>
<polygon fill="white" stroke="white" points="-4,5 -4,-2948 841,-2948 841,5 -4,5"/>
<!-- Node1 -->
<g id="node1" class="node"><title>Node1</title>
<polygon fill="#bfbfbf" stroke="black" points="403.5,-1 403.5,-69 516.5,-69 516.5,-1 403.5,-1"/>
<text text-anchor="middle" x="460" y="-57" font-family="Helvetica,sans-Serif" font-size="10.00">MLPneuronContainer</text>
<polyline fill="none" stroke="black" points="403.5,-50 516.5,-50 "/>
<text text-anchor="middle" x="460" y="-38" font-family="Helvetica,sans-Serif" font-size="10.00"> </text>
<polyline fill="none" stroke="black" points="403.5,-31 516.5,-31 "/>
<text text-anchor="start" x="411.5" y="-19" font-family="Helvetica,sans-Serif" font-size="10.00">+ getId()</text>
<text text-anchor="start" x="411.5" y="-8" font-family="Helvetica,sans-Serif" font-size="10.00">+ buildAndAppend()</text>
</g>
<!-- Node2 -->
<g id="node2" class="node"><title>Node2</title>
<a xlink:href="class_neuron_container.html" target="_top" xlink:title="{NeuronContainer\&lt; MLP \&gt;\n||+ NeuronContainer()\l+ NeuronContainer()\l+ ~NeuronContainer()\l+ numOfNeurons()\l+ numOfCons()\l+ getId()\l+ setId()\l+ getConId()\l+ getWeight()\l+ getFrom()\l+ setFrom()\l+ setWeight()\l}">
<polygon fill="white" stroke="black" points="394.5,-109 394.5,-287 525.5,-287 525.5,-109 394.5,-109"/>
<text text-anchor="middle" x="460" y="-275" font-family="Helvetica,sans-Serif" font-size="10.00">NeuronContainer&lt; MLP &gt;</text>
<polyline fill="none" stroke="black" points="394.5,-268 525.5,-268 "/>
<text text-anchor="middle" x="460" y="-256" font-family="Helvetica,sans-Serif" font-size="10.00"> </text>
<polyline fill="none" stroke="black" points="394.5,-249 525.5,-249 "/>
<text text-anchor="start" x="402.5" y="-237" font-family="Helvetica,sans-Serif" font-size="10.00">+ NeuronContainer()</text>
<text text-anchor="start" x="402.5" y="-226" font-family="Helvetica,sans-Serif" font-size="10.00">+ NeuronContainer()</text>
<text text-anchor="start" x="402.5" y="-215" font-family="Helvetica,sans-Serif" font-size="10.00">+ ~NeuronContainer()</text>
<text text-anchor="start" x="402.5" y="-204" font-family="Helvetica,sans-Serif" font-size="10.00">+ numOfNeurons()</text>
<text text-anchor="start" x="402.5" y="-193" font-family="Helvetica,sans-Serif" font-size="10.00">+ numOfCons()</text>
<text text-anchor="start" x="402.5" y="-182" font-family="Helvetica,sans-Serif" font-size="10.00">+ getId()</text>
<text text-anchor="start" x="402.5" y="-171" font-family="Helvetica,sans-Serif" font-size="10.00">+ setId()</text>
<text text-anchor="start" x="402.5" y="-160" font-family="Helvetica,sans-Serif" font-size="10.00">+ getConId()</text>
<text text-anchor="start" x="402.5" y="-149" font-family="Helvetica,sans-Serif" font-size="10.00">+ getWeight()</text>
<text text-anchor="start" x="402.5" y="-138" font-family="Helvetica,sans-Serif" font-size="10.00">+ getFrom()</text>
<text text-anchor="start" x="402.5" y="-127" font-family="Helvetica,sans-Serif" font-size="10.00">+ setFrom()</text>
<text text-anchor="start" x="402.5" y="-116" font-family="Helvetica,sans-Serif" font-size="10.00">+ setWeight()</text>
</a>
</g>
<!-- Node2&#45;&gt;Node1 -->
<g id="edge2" class="edge"><title>Node2&#45;&gt;Node1</title>
<path fill="none" stroke="midnightblue" d="M460,-98.8015C460,-88.3119 460,-78.2442 460,-69.3593"/>
<polygon fill="none" stroke="midnightblue" points="456.5,-98.9629 460,-108.963 463.5,-98.963 456.5,-98.9629"/>
</g>
<!-- Node3 -->
<g id="node4" class="node"><title>Node3</title>
<a xlink:href="class_neuron_container.html" target="_top" xlink:title="A vector of neurons.">
<polygon fill="white" stroke="black" points="401.5,-337 401.5,-515 518.5,-515 518.5,-337 401.5,-337"/>
<text text-anchor="middle" x="460" y="-503" font-family="Helvetica,sans-Serif" font-size="10.00">NeuronContainer</text>
<polyline fill="none" stroke="black" points="401.5,-496 518.5,-496 "/>
<text text-anchor="middle" x="460" y="-484" font-family="Helvetica,sans-Serif" font-size="10.00"> </text>
<polyline fill="none" stroke="black" points="401.5,-477 518.5,-477 "/>
<text text-anchor="start" x="409.5" y="-465" font-family="Helvetica,sans-Serif" font-size="10.00">+ NeuronContainer()</text>
<text text-anchor="start" x="409.5" y="-454" font-family="Helvetica,sans-Serif" font-size="10.00">+ NeuronContainer()</text>
<text text-anchor="start" x="409.5" y="-443" font-family="Helvetica,sans-Serif" font-size="10.00">+ ~NeuronContainer()</text>
<text text-anchor="start" x="409.5" y="-432" font-family="Helvetica,sans-Serif" font-size="10.00">+ numOfNeurons()</text>
<text text-anchor="start" x="409.5" y="-421" font-family="Helvetica,sans-Serif" font-size="10.00">+ numOfCons()</text>
<text text-anchor="start" x="409.5" y="-410" font-family="Helvetica,sans-Serif" font-size="10.00">+ getId()</text>
<text text-anchor="start" x="409.5" y="-399" font-family="Helvetica,sans-Serif" font-size="10.00">+ setId()</text>
<text text-anchor="start" x="409.5" y="-388" font-family="Helvetica,sans-Serif" font-size="10.00">+ getConId()</text>
<text text-anchor="start" x="409.5" y="-377" font-family="Helvetica,sans-Serif" font-size="10.00">+ getWeight()</text>
<text text-anchor="start" x="409.5" y="-366" font-family="Helvetica,sans-Serif" font-size="10.00">+ getFrom()</text>
<text text-anchor="start" x="409.5" y="-355" font-family="Helvetica,sans-Serif" font-size="10.00">+ setFrom()</text>
<text text-anchor="start" x="409.5" y="-344" font-family="Helvetica,sans-Serif" font-size="10.00">+ setWeight()</text>
</a>
</g>
<!-- Node3&#45;&gt;Node2 -->
<g id="edge4" class="edge"><title>Node3&#45;&gt;Node2</title>
<path fill="none" stroke="orange" stroke-dasharray="5,2" d="M460,-326.927C460,-313.701 460,-300.196 460,-287.156"/>
<polygon fill="orange" stroke="orange" points="456.5,-326.975 460,-336.975 463.5,-326.975 456.5,-326.975"/>
<text text-anchor="middle" x="479" y="-309.5" font-family="Helvetica,sans-Serif" font-size="10.00">&lt; MLP &gt;</text>
</g>
<!-- Node4 -->
<g id="node6" class="node"><title>Node4</title>
<a xlink:href="class_container.html" target="_top" xlink:title="{Container\&lt; Neuron \&gt;\n|# collection\l# collection\l|+ Container()\l+ Container()\l+ Container()\l+ ~Container()\l+ createIterator()\l+ push_back()\l+ push_back()\l+ reserve()\l+ reserve()\l+ empty()\l+ empty()\l+ size()\l+ size()\l+ clear()\l+ clear()\l+ show()\l+ show()\l+ validate()\l+ validate()\l+ begin()\l+ end()\l+ load()\l+ store()\l+ append()\l+ resize()\l+ operator[]()\l}">
<polygon fill="white" stroke="black" points="405,-554.5 405,-897.5 515,-897.5 515,-554.5 405,-554.5"/>
<text text-anchor="middle" x="460" y="-885.5" font-family="Helvetica,sans-Serif" font-size="10.00">Container&lt; Neuron &gt;</text>
<polyline fill="none" stroke="black" points="405,-878.5 515,-878.5 "/>
<text text-anchor="start" x="413" y="-866.5" font-family="Helvetica,sans-Serif" font-size="10.00"># collection</text>
<text text-anchor="start" x="413" y="-855.5" font-family="Helvetica,sans-Serif" font-size="10.00"># collection</text>
<polyline fill="none" stroke="black" points="405,-848.5 515,-848.5 "/>
<text text-anchor="start" x="413" y="-836.5" font-family="Helvetica,sans-Serif" font-size="10.00">+ Container()</text>
<text text-anchor="start" x="413" y="-825.5" font-family="Helvetica,sans-Serif" font-size="10.00">+ Container()</text>
<text text-anchor="start" x="413" y="-814.5" font-family="Helvetica,sans-Serif" font-size="10.00">+ Container()</text>
<text text-anchor="start" x="413" y="-803.5" font-family="Helvetica,sans-Serif" font-size="10.00">+ ~Container()</text>
<text text-anchor="start" x="413" y="-792.5" font-family="Helvetica,sans-Serif" font-size="10.00">+ createIterator()</text>
<text text-anchor="start" x="413" y="-781.5" font-family="Helvetica,sans-Serif" font-size="10.00">+ push_back()</text>
<text text-anchor="start" x="413" y="-770.5" font-family="Helvetica,sans-Serif" font-size="10.00">+ push_back()</text>
<text text-anchor="start" x="413" y="-759.5" font-family="Helvetica,sans-Serif" font-size="10.00">+ reserve()</text>
<text text-anchor="start" x="413" y="-748.5" font-family="Helvetica,sans-Serif" font-size="10.00">+ reserve()</text>
<text text-anchor="start" x="413" y="-737.5" font-family="Helvetica,sans-Serif" font-size="10.00">+ empty()</text>
<text text-anchor="start" x="413" y="-726.5" font-family="Helvetica,sans-Serif" font-size="10.00">+ empty()</text>
<text text-anchor="start" x="413" y="-715.5" font-family="Helvetica,sans-Serif" font-size="10.00">+ size()</text>
<text text-anchor="start" x="413" y="-704.5" font-family="Helvetica,sans-Serif" font-size="10.00">+ size()</text>
<text text-anchor="start" x="413" y="-693.5" font-family="Helvetica,sans-Serif" font-size="10.00">+ clear()</text>
<text text-anchor="start" x="413" y="-682.5" font-family="Helvetica,sans-Serif" font-size="10.00">+ clear()</text>
<text text-anchor="start" x="413" y="-671.5" font-family="Helvetica,sans-Serif" font-size="10.00">+ show()</text>
<text text-anchor="start" x="413" y="-660.5" font-family="Helvetica,sans-Serif" font-size="10.00">+ show()</text>
<text text-anchor="start" x="413" y="-649.5" font-family="Helvetica,sans-Serif" font-size="10.00">+ validate()</text>
<text text-anchor="start" x="413" y="-638.5" font-family="Helvetica,sans-Serif" font-size="10.00">+ validate()</text>
<text text-anchor="start" x="413" y="-627.5" font-family="Helvetica,sans-Serif" font-size="10.00">+ begin()</text>
<text text-anchor="start" x="413" y="-616.5" font-family="Helvetica,sans-Serif" font-size="10.00">+ end()</text>
<text text-anchor="start" x="413" y="-605.5" font-family="Helvetica,sans-Serif" font-size="10.00">+ load()</text>
<text text-anchor="start" x="413" y="-594.5" font-family="Helvetica,sans-Serif" font-size="10.00">+ store()</text>
<text text-anchor="start" x="413" y="-583.5" font-family="Helvetica,sans-Serif" font-size="10.00">+ append()</text>
<text text-anchor="start" x="413" y="-572.5" font-family="Helvetica,sans-Serif" font-size="10.00">+ resize()</text>
<text text-anchor="start" x="413" y="-561.5" font-family="Helvetica,sans-Serif" font-size="10.00">+ operator[]()</text>
</a>
</g>
<!-- Node4&#45;&gt;Node3 -->
<g id="edge6" class="edge"><title>Node4&#45;&gt;Node3</title>
<path fill="none" stroke="midnightblue" d="M460,-543.939C460,-534.111 460,-524.479 460,-515.224"/>
<polygon fill="none" stroke="midnightblue" points="456.5,-544.243 460,-554.243 463.5,-544.243 456.5,-544.243"/>
</g>
<!-- Node5 -->
<g id="node8" class="node"><title>Node5</title>
<a xlink:href="class_container_interface.html" target="_top" xlink:title="class ContainerInterface &#45;">
<polygon fill="white" stroke="black" points="181.5,-947 181.5,-1103 332.5,-1103 332.5,-947 181.5,-947"/>
<text text-anchor="middle" x="257" y="-1091" font-family="Helvetica,sans-Serif" font-size="10.00">ContainerInterface&lt; Neuron &gt;</text>
<polyline fill="none" stroke="black" points="181.5,-1084 332.5,-1084 "/>
<text text-anchor="middle" x="257" y="-1072" font-family="Helvetica,sans-Serif" font-size="10.00"> </text>
<polyline fill="none" stroke="black" points="181.5,-1065 332.5,-1065 "/>
<text text-anchor="start" x="189.5" y="-1053" font-family="Helvetica,sans-Serif" font-size="10.00">+ ~ContainerInterface()</text>
<text text-anchor="start" x="189.5" y="-1042" font-family="Helvetica,sans-Serif" font-size="10.00">+ createIterator()</text>
<text text-anchor="start" x="189.5" y="-1031" font-family="Helvetica,sans-Serif" font-size="10.00">+ push_back()</text>
<text text-anchor="start" x="189.5" y="-1020" font-family="Helvetica,sans-Serif" font-size="10.00">+ reserve()</text>
<text text-anchor="start" x="189.5" y="-1009" font-family="Helvetica,sans-Serif" font-size="10.00">+ empty()</text>
<text text-anchor="start" x="189.5" y="-998" font-family="Helvetica,sans-Serif" font-size="10.00">+ size()</text>
<text text-anchor="start" x="189.5" y="-987" font-family="Helvetica,sans-Serif" font-size="10.00">+ clear()</text>
<text text-anchor="start" x="189.5" y="-976" font-family="Helvetica,sans-Serif" font-size="10.00">+ show()</text>
<text text-anchor="start" x="189.5" y="-965" font-family="Helvetica,sans-Serif" font-size="10.00">+ validate()</text>
<text text-anchor="start" x="189.5" y="-954" font-family="Helvetica,sans-Serif" font-size="10.00"># ContainerInterface()</text>
</a>
</g>
<!-- Node5&#45;&gt;Node4 -->
<g id="edge8" class="edge"><title>Node5&#45;&gt;Node4</title>
<path fill="none" stroke="midnightblue" d="M315.546,-938.343C343.712,-897.136 377.288,-848.012 404.978,-807.499"/>
<polygon fill="none" stroke="midnightblue" points="312.559,-936.511 309.806,-946.742 318.338,-940.461 312.559,-936.511"/>
</g>
<!-- Node6 -->
<g id="node10" class="node"><title>Node6</title>
<polygon fill="white" stroke="#bfbfbf" points="351,-996.5 351,-1053.5 467,-1053.5 467,-996.5 351,-996.5"/>
<text text-anchor="middle" x="409" y="-1041.5" font-family="Helvetica,sans-Serif" font-size="10.00">std::vector&lt; Neuron &gt;</text>
<polyline fill="none" stroke="#bfbfbf" points="351,-1034.5 467,-1034.5 "/>
<text text-anchor="start" x="359" y="-1022.5" font-family="Helvetica,sans-Serif" font-size="10.00">&#45; elements</text>
<polyline fill="none" stroke="#bfbfbf" points="351,-1015.5 467,-1015.5 "/>
<text text-anchor="middle" x="409" y="-1003.5" font-family="Helvetica,sans-Serif" font-size="10.00"> </text>
</g>
<!-- Node6&#45;&gt;Node4 -->
<g id="edge10" class="edge"><title>Node6&#45;&gt;Node4</title>
<path fill="none" stroke="#9a32cd" stroke-dasharray="5,2" d="M415.489,-986.214C419.5,-962.856 424.963,-931.041 430.688,-897.7"/>
<polygon fill="#9a32cd" stroke="#9a32cd" points="413.752,-996.326 411.01,-985.708 414.598,-991.398 415.445,-986.47 415.445,-986.47 415.445,-986.47 414.598,-991.398 419.88,-987.232 413.752,-996.326 413.752,-996.326"/>
<text text-anchor="middle" x="448.5" y="-919.5" font-family="Helvetica,sans-Serif" font-size="10.00">collection</text>
</g>
<!-- Node7 -->
<g id="node12" class="node"><title>Node7</title>
<a xlink:href="class_neuron.html" target="_top" xlink:title="class Neuron &#45;">
<polygon fill="white" stroke="black" points="360,-1152.5 360,-1429.5 448,-1429.5 448,-1152.5 360,-1152.5"/>
<text text-anchor="middle" x="404" y="-1417.5" font-family="Helvetica,sans-Serif" font-size="10.00">Neuron</text>
<polyline fill="none" stroke="black" points="360,-1410.5 448,-1410.5 "/>
<text text-anchor="start" x="368" y="-1398.5" font-family="Helvetica,sans-Serif" font-size="10.00"># d_Id</text>
<text text-anchor="start" x="368" y="-1387.5" font-family="Helvetica,sans-Serif" font-size="10.00">&#45; Id</text>
<text text-anchor="start" x="368" y="-1376.5" font-family="Helvetica,sans-Serif" font-size="10.00">&#45; con</text>
<text text-anchor="start" x="368" y="-1365.5" font-family="Helvetica,sans-Serif" font-size="10.00">&#45; outputValue</text>
<polyline fill="none" stroke="black" points="360,-1358.5 448,-1358.5 "/>
<text text-anchor="start" x="368" y="-1346.5" font-family="Helvetica,sans-Serif" font-size="10.00">+ Neuron()</text>
<text text-anchor="start" x="368" y="-1335.5" font-family="Helvetica,sans-Serif" font-size="10.00">+ Neuron()</text>
<text text-anchor="start" x="368" y="-1324.5" font-family="Helvetica,sans-Serif" font-size="10.00">+ Id()</text>
<text text-anchor="start" x="368" y="-1313.5" font-family="Helvetica,sans-Serif" font-size="10.00">+ show()</text>
<text text-anchor="start" x="368" y="-1302.5" font-family="Helvetica,sans-Serif" font-size="10.00">+ validate()</text>
<text text-anchor="start" x="368" y="-1291.5" font-family="Helvetica,sans-Serif" font-size="10.00">+ Neuron()</text>
<text text-anchor="start" x="368" y="-1280.5" font-family="Helvetica,sans-Serif" font-size="10.00">+ Neuron()</text>
<text text-anchor="start" x="368" y="-1269.5" font-family="Helvetica,sans-Serif" font-size="10.00">+ Neuron()</text>
<text text-anchor="start" x="368" y="-1258.5" font-family="Helvetica,sans-Serif" font-size="10.00">+ ~Neuron()</text>
<text text-anchor="start" x="368" y="-1247.5" font-family="Helvetica,sans-Serif" font-size="10.00">+ getId()</text>
<text text-anchor="start" x="368" y="-1236.5" font-family="Helvetica,sans-Serif" font-size="10.00">+ setId()</text>
<text text-anchor="start" x="368" y="-1225.5" font-family="Helvetica,sans-Serif" font-size="10.00">+ getConId()</text>
<text text-anchor="start" x="368" y="-1214.5" font-family="Helvetica,sans-Serif" font-size="10.00">+ getWeight()</text>
<text text-anchor="start" x="368" y="-1203.5" font-family="Helvetica,sans-Serif" font-size="10.00">+ setFrom()</text>
<text text-anchor="start" x="368" y="-1192.5" font-family="Helvetica,sans-Serif" font-size="10.00">+ setWeight()</text>
<text text-anchor="start" x="368" y="-1181.5" font-family="Helvetica,sans-Serif" font-size="10.00">+ numOfCons()</text>
<text text-anchor="start" x="368" y="-1170.5" font-family="Helvetica,sans-Serif" font-size="10.00">+ show()</text>
<text text-anchor="start" x="368" y="-1159.5" font-family="Helvetica,sans-Serif" font-size="10.00">+ validate()</text>
</a>
</g>
<!-- Node7&#45;&gt;Node6 -->
<g id="edge12" class="edge"><title>Node7&#45;&gt;Node6</title>
<path fill="none" stroke="#9a32cd" stroke-dasharray="5,2" d="M406.801,-1142.12C407.444,-1108.17 408.06,-1075.65 408.475,-1053.7"/>
<polygon fill="#9a32cd" stroke="#9a32cd" points="406.61,-1152.2 402.3,-1142.12 406.705,-1147.2 406.799,-1142.2 406.799,-1142.2 406.799,-1142.2 406.705,-1147.2 411.298,-1142.29 406.61,-1152.2 406.61,-1152.2"/>
<text text-anchor="middle" x="428.5" y="-1125.5" font-family="Helvetica,sans-Serif" font-size="10.00">elements</text>
</g>
<!-- Node8 -->
<g id="node14" class="node"><title>Node8</title>
<a xlink:href="class_container.html" target="_top" xlink:title="{Container\&lt; Con \&gt;\n|# collection\l# collection\l|+ Container()\l+ Container()\l+ Container()\l+ ~Container()\l+ createIterator()\l+ push_back()\l+ push_back()\l+ reserve()\l+ reserve()\l+ empty()\l+ empty()\l+ size()\l+ size()\l+ clear()\l+ clear()\l+ show()\l+ show()\l+ validate()\l+ validate()\l+ begin()\l+ end()\l+ load()\l+ store()\l+ append()\l+ resize()\l+ operator[]()\l}">
<polygon fill="white" stroke="black" points="333.5,-1478.5 333.5,-1821.5 430.5,-1821.5 430.5,-1478.5 333.5,-1478.5"/>
<text text-anchor="middle" x="382" y="-1809.5" font-family="Helvetica,sans-Serif" font-size="10.00">Container&lt; Con &gt;</text>
<polyline fill="none" stroke="black" points="333.5,-1802.5 430.5,-1802.5 "/>
<text text-anchor="start" x="341.5" y="-1790.5" font-family="Helvetica,sans-Serif" font-size="10.00"># collection</text>
<text text-anchor="start" x="341.5" y="-1779.5" font-family="Helvetica,sans-Serif" font-size="10.00"># collection</text>
<polyline fill="none" stroke="black" points="333.5,-1772.5 430.5,-1772.5 "/>
<text text-anchor="start" x="341.5" y="-1760.5" font-family="Helvetica,sans-Serif" font-size="10.00">+ Container()</text>
<text text-anchor="start" x="341.5" y="-1749.5" font-family="Helvetica,sans-Serif" font-size="10.00">+ Container()</text>
<text text-anchor="start" x="341.5" y="-1738.5" font-family="Helvetica,sans-Serif" font-size="10.00">+ Container()</text>
<text text-anchor="start" x="341.5" y="-1727.5" font-family="Helvetica,sans-Serif" font-size="10.00">+ ~Container()</text>
<text text-anchor="start" x="341.5" y="-1716.5" font-family="Helvetica,sans-Serif" font-size="10.00">+ createIterator()</text>
<text text-anchor="start" x="341.5" y="-1705.5" font-family="Helvetica,sans-Serif" font-size="10.00">+ push_back()</text>
<text text-anchor="start" x="341.5" y="-1694.5" font-family="Helvetica,sans-Serif" font-size="10.00">+ push_back()</text>
<text text-anchor="start" x="341.5" y="-1683.5" font-family="Helvetica,sans-Serif" font-size="10.00">+ reserve()</text>
<text text-anchor="start" x="341.5" y="-1672.5" font-family="Helvetica,sans-Serif" font-size="10.00">+ reserve()</text>
<text text-anchor="start" x="341.5" y="-1661.5" font-family="Helvetica,sans-Serif" font-size="10.00">+ empty()</text>
<text text-anchor="start" x="341.5" y="-1650.5" font-family="Helvetica,sans-Serif" font-size="10.00">+ empty()</text>
<text text-anchor="start" x="341.5" y="-1639.5" font-family="Helvetica,sans-Serif" font-size="10.00">+ size()</text>
<text text-anchor="start" x="341.5" y="-1628.5" font-family="Helvetica,sans-Serif" font-size="10.00">+ size()</text>
<text text-anchor="start" x="341.5" y="-1617.5" font-family="Helvetica,sans-Serif" font-size="10.00">+ clear()</text>
<text text-anchor="start" x="341.5" y="-1606.5" font-family="Helvetica,sans-Serif" font-size="10.00">+ clear()</text>
<text text-anchor="start" x="341.5" y="-1595.5" font-family="Helvetica,sans-Serif" font-size="10.00">+ show()</text>
<text text-anchor="start" x="341.5" y="-1584.5" font-family="Helvetica,sans-Serif" font-size="10.00">+ show()</text>
<text text-anchor="start" x="341.5" y="-1573.5" font-family="Helvetica,sans-Serif" font-size="10.00">+ validate()</text>
<text text-anchor="start" x="341.5" y="-1562.5" font-family="Helvetica,sans-Serif" font-size="10.00">+ validate()</text>
<text text-anchor="start" x="341.5" y="-1551.5" font-family="Helvetica,sans-Serif" font-size="10.00">+ begin()</text>
<text text-anchor="start" x="341.5" y="-1540.5" font-family="Helvetica,sans-Serif" font-size="10.00">+ end()</text>
<text text-anchor="start" x="341.5" y="-1529.5" font-family="Helvetica,sans-Serif" font-size="10.00">+ load()</text>
<text text-anchor="start" x="341.5" y="-1518.5" font-family="Helvetica,sans-Serif" font-size="10.00">+ store()</text>
<text text-anchor="start" x="341.5" y="-1507.5" font-family="Helvetica,sans-Serif" font-size="10.00">+ append()</text>
<text text-anchor="start" x="341.5" y="-1496.5" font-family="Helvetica,sans-Serif" font-size="10.00">+ resize()</text>
<text text-anchor="start" x="341.5" y="-1485.5" font-family="Helvetica,sans-Serif" font-size="10.00">+ operator[]()</text>
</a>
</g>
<!-- Node8&#45;&gt;Node7 -->
<g id="edge14" class="edge"><title>Node8&#45;&gt;Node7</title>
<path fill="none" stroke="#9a32cd" stroke-dasharray="5,2" d="M393.153,-1468.01C393.947,-1455.13 394.74,-1442.26 395.515,-1429.69"/>
<polygon fill="#9a32cd" stroke="#9a32cd" points="392.517,-1478.34 388.64,-1468.08 392.824,-1473.35 393.132,-1468.36 393.132,-1468.36 393.132,-1468.36 392.824,-1473.35 397.623,-1468.64 392.517,-1478.34 392.517,-1478.34"/>
<text text-anchor="middle" x="402.5" y="-1451.5" font-family="Helvetica,sans-Serif" font-size="10.00">con</text>
</g>
<!-- Node9 -->
<g id="node16" class="node"><title>Node9</title>
<a xlink:href="class_container_interface.html" target="_top" xlink:title="class ContainerInterface &#45;">
<polygon fill="white" stroke="black" points="127.5,-2010 127.5,-2166 264.5,-2166 264.5,-2010 127.5,-2010"/>
<text text-anchor="middle" x="196" y="-2154" font-family="Helvetica,sans-Serif" font-size="10.00">ContainerInterface&lt; Con &gt;</text>
<polyline fill="none" stroke="black" points="127.5,-2147 264.5,-2147 "/>
<text text-anchor="middle" x="196" y="-2135" font-family="Helvetica,sans-Serif" font-size="10.00"> </text>
<polyline fill="none" stroke="black" points="127.5,-2128 264.5,-2128 "/>
<text text-anchor="start" x="135.5" y="-2116" font-family="Helvetica,sans-Serif" font-size="10.00">+ ~ContainerInterface()</text>
<text text-anchor="start" x="135.5" y="-2105" font-family="Helvetica,sans-Serif" font-size="10.00">+ createIterator()</text>
<text text-anchor="start" x="135.5" y="-2094" font-family="Helvetica,sans-Serif" font-size="10.00">+ push_back()</text>
<text text-anchor="start" x="135.5" y="-2083" font-family="Helvetica,sans-Serif" font-size="10.00">+ reserve()</text>
<text text-anchor="start" x="135.5" y="-2072" font-family="Helvetica,sans-Serif" font-size="10.00">+ empty()</text>
<text text-anchor="start" x="135.5" y="-2061" font-family="Helvetica,sans-Serif" font-size="10.00">+ size()</text>
<text text-anchor="start" x="135.5" y="-2050" font-family="Helvetica,sans-Serif" font-size="10.00">+ clear()</text>
<text text-anchor="start" x="135.5" y="-2039" font-family="Helvetica,sans-Serif" font-size="10.00">+ show()</text>
<text text-anchor="start" x="135.5" y="-2028" font-family="Helvetica,sans-Serif" font-size="10.00">+ validate()</text>
<text text-anchor="start" x="135.5" y="-2017" font-family="Helvetica,sans-Serif" font-size="10.00"># ContainerInterface()</text>
</a>
</g>
<!-- Node9&#45;&gt;Node8 -->
<g id="edge16" class="edge"><title>Node9&#45;&gt;Node8</title>
<path fill="none" stroke="midnightblue" d="M225.279,-2000.21C242.07,-1952.42 264.281,-1892.36 287,-1840 300.96,-1807.83 317.725,-1773.36 333.26,-1742.78"/>
<polygon fill="none" stroke="midnightblue" points="221.886,-1999.31 221.888,-2009.9 228.494,-2001.62 221.886,-1999.31"/>
</g>
<!-- Node10 -->
<g id="node18" class="node"><title>Node10</title>
<polygon fill="white" stroke="#bfbfbf" points="279,-2278.5 279,-2335.5 479,-2335.5 479,-2278.5 279,-2278.5"/>
<text text-anchor="middle" x="379" y="-2323.5" font-family="Helvetica,sans-Serif" font-size="10.00">std::vector&lt; boost::shared_ptr&lt; Con &gt; &gt;</text>
<polyline fill="none" stroke="#bfbfbf" points="279,-2316.5 479,-2316.5 "/>
<text text-anchor="start" x="287" y="-2304.5" font-family="Helvetica,sans-Serif" font-size="10.00">&#45; elements</text>
<polyline fill="none" stroke="#bfbfbf" points="279,-2297.5 479,-2297.5 "/>
<text text-anchor="middle" x="379" y="-2285.5" font-family="Helvetica,sans-Serif" font-size="10.00"> </text>
</g>
<!-- Node10&#45;&gt;Node8 -->
<g id="edge18" class="edge"><title>Node10&#45;&gt;Node8</title>
<path fill="none" stroke="#9a32cd" stroke-dasharray="5,2" d="M379.174,-2268.08C379.563,-2183.15 380.524,-1973.25 381.218,-1821.82"/>
<polygon fill="#9a32cd" stroke="#9a32cd" points="379.127,-2278.27 374.673,-2268.25 379.15,-2273.27 379.173,-2268.27 379.173,-2268.27 379.173,-2268.27 379.15,-2273.27 383.673,-2268.29 379.127,-2278.27 379.127,-2278.27"/>
<text text-anchor="middle" x="402.5" y="-2085.5" font-family="Helvetica,sans-Serif" font-size="10.00">collection</text>
</g>
<!-- Node11 -->
<g id="node20" class="node"><title>Node11</title>
<a xlink:title="STL class.">
<polygon fill="white" stroke="#bfbfbf" points="217.5,-2670.5 217.5,-2727.5 306.5,-2727.5 306.5,-2670.5 217.5,-2670.5"/>
<text text-anchor="middle" x="262" y="-2715.5" font-family="Helvetica,sans-Serif" font-size="10.00">std::vector&lt; T &gt;</text>
<polyline fill="none" stroke="#bfbfbf" points="217.5,-2708.5 306.5,-2708.5 "/>
<text text-anchor="start" x="225.5" y="-2696.5" font-family="Helvetica,sans-Serif" font-size="10.00">&#45; elements</text>
<polyline fill="none" stroke="#bfbfbf" points="217.5,-2689.5 306.5,-2689.5 "/>
<text text-anchor="middle" x="262" y="-2677.5" font-family="Helvetica,sans-Serif" font-size="10.00"> </text>
</a>
</g>
<!-- Node11&#45;&gt;Node6 -->
<g id="edge38" class="edge"><title>Node11&#45;&gt;Node6</title>
<path fill="none" stroke="orange" stroke-dasharray="5,2" d="M222.693,-2663.09C174.459,-2616.19 99,-2527.82 99,-2434 99,-2434 99,-2434 99,-1290 99,-1154.35 242.164,-1196.92 341,-1104 357.623,-1088.37 374.489,-1069.05 387.265,-1053.55"/>
<polygon fill="orange" stroke="orange" points="220.539,-2665.87 230.185,-2670.25 225.378,-2660.81 220.539,-2665.87"/>
<text text-anchor="middle" x="124" y="-1866.5" font-family="Helvetica,sans-Serif" font-size="10.00">&lt; Neuron &gt;</text>
</g>
<!-- Node11&#45;&gt;Node10 -->
<g id="edge20" class="edge"><title>Node11&#45;&gt;Node10</title>
<path fill="none" stroke="orange" stroke-dasharray="5,2" d="M259.489,-2660.24C255.005,-2581.22 249.096,-2401.82 284,-2354 289.185,-2346.9 295.766,-2340.84 303.037,-2335.68"/>
<polygon fill="orange" stroke="orange" points="255.996,-2660.48 260.08,-2670.25 262.984,-2660.06 255.996,-2660.48"/>
<text text-anchor="middle" x="323" y="-2533.5" font-family="Helvetica,sans-Serif" font-size="10.00">&lt; boost::shared_ptr&lt; Con &gt; &gt;</text>
</g>
<!-- Node13 -->
<g id="node24" class="node"><title>Node13</title>
<polygon fill="white" stroke="#bfbfbf" points="132,-2404.5 132,-2461.5 234,-2461.5 234,-2404.5 132,-2404.5"/>
<text text-anchor="middle" x="183" y="-2449.5" font-family="Helvetica,sans-Serif" font-size="10.00">std::vector&lt; Con &gt;</text>
<polyline fill="none" stroke="#bfbfbf" points="132,-2442.5 234,-2442.5 "/>
<text text-anchor="start" x="140" y="-2430.5" font-family="Helvetica,sans-Serif" font-size="10.00">&#45; elements</text>
<polyline fill="none" stroke="#bfbfbf" points="132,-2423.5 234,-2423.5 "/>
<text text-anchor="middle" x="183" y="-2411.5" font-family="Helvetica,sans-Serif" font-size="10.00"> </text>
</g>
<!-- Node11&#45;&gt;Node13 -->
<g id="edge28" class="edge"><title>Node11&#45;&gt;Node13</title>
<path fill="none" stroke="orange" stroke-dasharray="5,2" d="M246.149,-2660.67C233.359,-2629.42 215.641,-2583.42 204,-2542 196.454,-2515.15 190.685,-2483.8 187.12,-2461.81"/>
<polygon fill="orange" stroke="orange" points="243.063,-2662.37 250.114,-2670.28 249.533,-2659.7 243.063,-2662.37"/>
<text text-anchor="middle" x="222" y="-2533.5" font-family="Helvetica,sans-Serif" font-size="10.00">&lt; Con &gt;</text>
</g>
<!-- Node17 -->
<g id="node33" class="node"><title>Node17</title>
<polygon fill="white" stroke="#bfbfbf" points="293,-2404.5 293,-2461.5 481,-2461.5 481,-2404.5 293,-2404.5"/>
<text text-anchor="middle" x="387" y="-2449.5" font-family="Helvetica,sans-Serif" font-size="10.00">std::vector&lt; boost::shared_ptr&lt; T &gt; &gt;</text>
<polyline fill="none" stroke="#bfbfbf" points="293,-2442.5 481,-2442.5 "/>
<text text-anchor="start" x="301" y="-2430.5" font-family="Helvetica,sans-Serif" font-size="10.00">&#45; elements</text>
<polyline fill="none" stroke="#bfbfbf" points="293,-2423.5 481,-2423.5 "/>
<text text-anchor="middle" x="387" y="-2411.5" font-family="Helvetica,sans-Serif" font-size="10.00"> </text>
</g>
<!-- Node11&#45;&gt;Node17 -->
<g id="edge36" class="edge"><title>Node11&#45;&gt;Node17</title>
<path fill="none" stroke="orange" stroke-dasharray="5,2" d="M305.062,-2663.65C337.245,-2635.01 378.707,-2591.09 397,-2542 406.731,-2515.89 401.868,-2483.87 396.033,-2461.5"/>
<polygon fill="orange" stroke="orange" points="302.749,-2661.02 297.517,-2670.23 307.352,-2666.29 302.749,-2661.02"/>
<text text-anchor="middle" x="460.5" y="-2533.5" font-family="Helvetica,sans-Serif" font-size="10.00">&lt; boost::shared_ptr&lt; T &gt; &gt;</text>
</g>
<!-- Node18 -->
<g id="node37" class="node"><title>Node18</title>
<polygon fill="white" stroke="#bfbfbf" points="518.5,-1840.5 518.5,-1897.5 733.5,-1897.5 733.5,-1840.5 518.5,-1840.5"/>
<text text-anchor="middle" x="626" y="-1885.5" font-family="Helvetica,sans-Serif" font-size="10.00">std::vector&lt; boost::shared_ptr&lt; Neuron &gt; &gt;</text>
<polyline fill="none" stroke="#bfbfbf" points="518.5,-1878.5 733.5,-1878.5 "/>
<text text-anchor="start" x="526.5" y="-1866.5" font-family="Helvetica,sans-Serif" font-size="10.00">&#45; elements</text>
<polyline fill="none" stroke="#bfbfbf" points="518.5,-1859.5 733.5,-1859.5 "/>
<text text-anchor="middle" x="626" y="-1847.5" font-family="Helvetica,sans-Serif" font-size="10.00"> </text>
</g>
<!-- Node11&#45;&gt;Node18 -->
<g id="edge42" class="edge"><title>Node11&#45;&gt;Node18</title>
<path fill="none" stroke="orange" stroke-dasharray="5,2" d="M316.647,-2688.98C401.714,-2671.68 563.264,-2624.97 633,-2512 759.174,-2307.6 667.962,-1992.39 635.944,-1897.77"/>
<polygon fill="orange" stroke="orange" points="315.798,-2685.58 306.663,-2690.95 317.151,-2692.45 315.798,-2685.58"/>
<text text-anchor="middle" x="762" y="-2430.5" font-family="Helvetica,sans-Serif" font-size="10.00">&lt; boost::shared_ptr&lt; Neuron &gt; &gt;</text>
</g>
<!-- Node12 -->
<g id="node22" class="node"><title>Node12</title>
<polygon fill="white" stroke="#bfbfbf" points="247.5,-2886.5 247.5,-2943.5 276.5,-2943.5 276.5,-2886.5 247.5,-2886.5"/>
<text text-anchor="middle" x="262" y="-2931.5" font-family="Helvetica,sans-Serif" font-size="10.00">T</text>
<polyline fill="none" stroke="#bfbfbf" points="247.5,-2924.5 276.5,-2924.5 "/>
<text text-anchor="middle" x="262" y="-2912.5" font-family="Helvetica,sans-Serif" font-size="10.00"> </text>
<polyline fill="none" stroke="#bfbfbf" points="247.5,-2905.5 276.5,-2905.5 "/>
<text text-anchor="middle" x="262" y="-2893.5" font-family="Helvetica,sans-Serif" font-size="10.00"> </text>
</g>
<!-- Node12&#45;&gt;Node11 -->
<g id="edge22" class="edge"><title>Node12&#45;&gt;Node11</title>
<path fill="none" stroke="#9a32cd" stroke-dasharray="5,2" d="M262,-2876.24C262,-2833.73 262,-2765.67 262,-2727.77"/>
<polygon fill="#9a32cd" stroke="#9a32cd" points="262,-2886.46 257.5,-2876.46 262,-2881.46 262,-2876.46 262,-2876.46 262,-2876.46 262,-2881.46 266.5,-2876.46 262,-2886.46 262,-2886.46"/>
<text text-anchor="middle" x="283.5" y="-2859.5" font-family="Helvetica,sans-Serif" font-size="10.00">elements</text>
</g>
<!-- Node13&#45;&gt;Node8 -->
<g id="edge24" class="edge"><title>Node13&#45;&gt;Node8</title>
<path fill="none" stroke="#9a32cd" stroke-dasharray="5,2" d="M206.356,-2395.73C227.04,-2361.92 256.446,-2309.43 273,-2260 322.211,-2113.05 302.41,-2068.5 330,-1916 335.53,-1885.44 341.68,-1852.94 347.759,-1821.57"/>
<polygon fill="#9a32cd" stroke="#9a32cd" points="201.035,-2404.33 202.47,-2393.46 203.666,-2400.07 206.297,-2395.82 206.297,-2395.82 206.297,-2395.82 203.666,-2400.07 210.124,-2398.19 201.035,-2404.33 201.035,-2404.33"/>
<text text-anchor="middle" x="352.5" y="-2085.5" font-family="Helvetica,sans-Serif" font-size="10.00">collection</text>
</g>
<!-- Node14 -->
<g id="node26" class="node"><title>Node14</title>
<a xlink:href="class_con.html" target="_top" xlink:title="class Con &#45;">
<polygon fill="white" stroke="black" points="-0.5,-2560.5 -0.5,-2837.5 82.5,-2837.5 82.5,-2560.5 -0.5,-2560.5"/>
<text text-anchor="middle" x="41" y="-2825.5" font-family="Helvetica,sans-Serif" font-size="10.00">Con</text>
<polyline fill="none" stroke="black" points="-0.5,-2818.5 82.5,-2818.5 "/>
<text text-anchor="start" x="7.5" y="-2806.5" font-family="Helvetica,sans-Serif" font-size="10.00"># d_neuron</text>
<text text-anchor="start" x="7.5" y="-2795.5" font-family="Helvetica,sans-Serif" font-size="10.00"># d_weight</text>
<text text-anchor="start" x="7.5" y="-2784.5" font-family="Helvetica,sans-Serif" font-size="10.00">&#45; from</text>
<text text-anchor="start" x="7.5" y="-2773.5" font-family="Helvetica,sans-Serif" font-size="10.00">&#45; weight</text>
<polyline fill="none" stroke="black" points="-0.5,-2766.5 82.5,-2766.5 "/>
<text text-anchor="start" x="7.5" y="-2754.5" font-family="Helvetica,sans-Serif" font-size="10.00">+ Con()</text>
<text text-anchor="start" x="7.5" y="-2743.5" font-family="Helvetica,sans-Serif" font-size="10.00">+ Con()</text>
<text text-anchor="start" x="7.5" y="-2732.5" font-family="Helvetica,sans-Serif" font-size="10.00">+ neuron()</text>
<text text-anchor="start" x="7.5" y="-2721.5" font-family="Helvetica,sans-Serif" font-size="10.00">+ Id()</text>
<text text-anchor="start" x="7.5" y="-2710.5" font-family="Helvetica,sans-Serif" font-size="10.00">+ weight()</text>
<text text-anchor="start" x="7.5" y="-2699.5" font-family="Helvetica,sans-Serif" font-size="10.00">+ show()</text>
<text text-anchor="start" x="7.5" y="-2688.5" font-family="Helvetica,sans-Serif" font-size="10.00">+ validate()</text>
<text text-anchor="start" x="7.5" y="-2677.5" font-family="Helvetica,sans-Serif" font-size="10.00">+ Con()</text>
<text text-anchor="start" x="7.5" y="-2666.5" font-family="Helvetica,sans-Serif" font-size="10.00">+ Con()</text>
<text text-anchor="start" x="7.5" y="-2655.5" font-family="Helvetica,sans-Serif" font-size="10.00">+ Con()</text>
<text text-anchor="start" x="7.5" y="-2644.5" font-family="Helvetica,sans-Serif" font-size="10.00">+ ~Con()</text>
<text text-anchor="start" x="7.5" y="-2633.5" font-family="Helvetica,sans-Serif" font-size="10.00">+ getFrom()</text>
<text text-anchor="start" x="7.5" y="-2622.5" font-family="Helvetica,sans-Serif" font-size="10.00">+ setFrom()</text>
<text text-anchor="start" x="7.5" y="-2611.5" font-family="Helvetica,sans-Serif" font-size="10.00">+ getId()</text>
<text text-anchor="start" x="7.5" y="-2600.5" font-family="Helvetica,sans-Serif" font-size="10.00">+ getWeight()</text>
<text text-anchor="start" x="7.5" y="-2589.5" font-family="Helvetica,sans-Serif" font-size="10.00">+ setWeight()</text>
<text text-anchor="start" x="7.5" y="-2578.5" font-family="Helvetica,sans-Serif" font-size="10.00">+ show()</text>
<text text-anchor="start" x="7.5" y="-2567.5" font-family="Helvetica,sans-Serif" font-size="10.00">+ validate()</text>
</a>
</g>
<!-- Node14&#45;&gt;Node13 -->
<g id="edge26" class="edge"><title>Node14&#45;&gt;Node13</title>
<path fill="none" stroke="#9a32cd" stroke-dasharray="5,2" d="M87.4375,-2611.67C115.409,-2559.66 149.181,-2496.88 168.164,-2461.58"/>
<polygon fill="#9a32cd" stroke="#9a32cd" points="82.6452,-2620.58 83.4192,-2609.64 85.0138,-2616.17 87.3823,-2611.77 87.3823,-2611.77 87.3823,-2611.77 85.0138,-2616.17 91.3454,-2613.9 82.6452,-2620.58 82.6452,-2620.58"/>
<text text-anchor="middle" x="150.5" y="-2533.5" font-family="Helvetica,sans-Serif" font-size="10.00">elements</text>
</g>
<!-- Node15 -->
<g id="node29" class="node"><title>Node15</title>
<a xlink:href="class_container.html" target="_top" xlink:title="class Container &#45;">
<polygon fill="white" stroke="black" points="449.5,-1916.5 449.5,-2259.5 546.5,-2259.5 546.5,-1916.5 449.5,-1916.5"/>
<text text-anchor="middle" x="498" y="-2247.5" font-family="Helvetica,sans-Serif" font-size="10.00">Container&lt; T &gt;</text>
<polyline fill="none" stroke="black" points="449.5,-2240.5 546.5,-2240.5 "/>
<text text-anchor="start" x="457.5" y="-2228.5" font-family="Helvetica,sans-Serif" font-size="10.00"># collection</text>
<text text-anchor="start" x="457.5" y="-2217.5" font-family="Helvetica,sans-Serif" font-size="10.00"># collection</text>
<polyline fill="none" stroke="black" points="449.5,-2210.5 546.5,-2210.5 "/>
<text text-anchor="start" x="457.5" y="-2198.5" font-family="Helvetica,sans-Serif" font-size="10.00">+ Container()</text>
<text text-anchor="start" x="457.5" y="-2187.5" font-family="Helvetica,sans-Serif" font-size="10.00">+ ~Container()</text>
<text text-anchor="start" x="457.5" y="-2176.5" font-family="Helvetica,sans-Serif" font-size="10.00">+ createIterator()</text>
<text text-anchor="start" x="457.5" y="-2165.5" font-family="Helvetica,sans-Serif" font-size="10.00">+ push_back()</text>
<text text-anchor="start" x="457.5" y="-2154.5" font-family="Helvetica,sans-Serif" font-size="10.00">+ reserve()</text>
<text text-anchor="start" x="457.5" y="-2143.5" font-family="Helvetica,sans-Serif" font-size="10.00">+ empty()</text>
<text text-anchor="start" x="457.5" y="-2132.5" font-family="Helvetica,sans-Serif" font-size="10.00">+ size()</text>
<text text-anchor="start" x="457.5" y="-2121.5" font-family="Helvetica,sans-Serif" font-size="10.00">+ clear()</text>
<text text-anchor="start" x="457.5" y="-2110.5" font-family="Helvetica,sans-Serif" font-size="10.00">+ show()</text>
<text text-anchor="start" x="457.5" y="-2099.5" font-family="Helvetica,sans-Serif" font-size="10.00">+ validate()</text>
<text text-anchor="start" x="457.5" y="-2088.5" font-family="Helvetica,sans-Serif" font-size="10.00">+ Container()</text>
<text text-anchor="start" x="457.5" y="-2077.5" font-family="Helvetica,sans-Serif" font-size="10.00">+ Container()</text>
<text text-anchor="start" x="457.5" y="-2066.5" font-family="Helvetica,sans-Serif" font-size="10.00">+ begin()</text>
<text text-anchor="start" x="457.5" y="-2055.5" font-family="Helvetica,sans-Serif" font-size="10.00">+ end()</text>
<text text-anchor="start" x="457.5" y="-2044.5" font-family="Helvetica,sans-Serif" font-size="10.00">+ load()</text>
<text text-anchor="start" x="457.5" y="-2033.5" font-family="Helvetica,sans-Serif" font-size="10.00">+ store()</text>
<text text-anchor="start" x="457.5" y="-2022.5" font-family="Helvetica,sans-Serif" font-size="10.00">+ size()</text>
<text text-anchor="start" x="457.5" y="-2011.5" font-family="Helvetica,sans-Serif" font-size="10.00">+ push_back()</text>
<text text-anchor="start" x="457.5" y="-2000.5" font-family="Helvetica,sans-Serif" font-size="10.00">+ append()</text>
<text text-anchor="start" x="457.5" y="-1989.5" font-family="Helvetica,sans-Serif" font-size="10.00">+ show()</text>
<text text-anchor="start" x="457.5" y="-1978.5" font-family="Helvetica,sans-Serif" font-size="10.00">+ validate()</text>
<text text-anchor="start" x="457.5" y="-1967.5" font-family="Helvetica,sans-Serif" font-size="10.00">+ reserve()</text>
<text text-anchor="start" x="457.5" y="-1956.5" font-family="Helvetica,sans-Serif" font-size="10.00">+ resize()</text>
<text text-anchor="start" x="457.5" y="-1945.5" font-family="Helvetica,sans-Serif" font-size="10.00">+ empty()</text>
<text text-anchor="start" x="457.5" y="-1934.5" font-family="Helvetica,sans-Serif" font-size="10.00">+ clear()</text>
<text text-anchor="start" x="457.5" y="-1923.5" font-family="Helvetica,sans-Serif" font-size="10.00">+ operator[]()</text>
</a>
</g>
<!-- Node15&#45;&gt;Node4 -->
<g id="edge44" class="edge"><title>Node15&#45;&gt;Node4</title>
<path fill="none" stroke="orange" stroke-dasharray="5,2" d="M497.399,-1905.96C497.187,-1827.57 497,-1734.76 497,-1651 497,-1651 497,-1651 497,-1024 497,-982.951 493.476,-938.953 488.604,-897.736"/>
<polygon fill="orange" stroke="orange" points="493.9,-1906.44 497.428,-1916.43 500.9,-1906.42 493.9,-1906.44"/>
<text text-anchor="middle" x="522" y="-1288.5" font-family="Helvetica,sans-Serif" font-size="10.00">&lt; Neuron &gt;</text>
</g>
<!-- Node15&#45;&gt;Node8 -->
<g id="edge30" class="edge"><title>Node15&#45;&gt;Node8</title>
<path fill="none" stroke="orange" stroke-dasharray="5,2" d="M449.265,-1906.49C448.504,-1903.64 447.749,-1900.81 447,-1898 440.434,-1873.36 433.539,-1847.33 426.793,-1821.78"/>
<polygon fill="orange" stroke="orange" points="445.91,-1907.49 451.873,-1916.25 452.673,-1905.69 445.91,-1907.49"/>
<text text-anchor="middle" x="465" y="-1866.5" font-family="Helvetica,sans-Serif" font-size="10.00">&lt; Con &gt;</text>
</g>
<!-- Node16 -->
<g id="node31" class="node"><title>Node16</title>
<a xlink:href="class_container_interface.html" target="_top" xlink:title="class ContainerInterface &#45;">
<polygon fill="white" stroke="black" points="499.5,-2355 499.5,-2511 624.5,-2511 624.5,-2355 499.5,-2355"/>
<text text-anchor="middle" x="562" y="-2499" font-family="Helvetica,sans-Serif" font-size="10.00">ContainerInterface&lt; T &gt;</text>
<polyline fill="none" stroke="black" points="499.5,-2492 624.5,-2492 "/>
<text text-anchor="middle" x="562" y="-2480" font-family="Helvetica,sans-Serif" font-size="10.00"> </text>
<polyline fill="none" stroke="black" points="499.5,-2473 624.5,-2473 "/>
<text text-anchor="start" x="507.5" y="-2461" font-family="Helvetica,sans-Serif" font-size="10.00">+ ~ContainerInterface()</text>
<text text-anchor="start" x="507.5" y="-2450" font-family="Helvetica,sans-Serif" font-size="10.00">+ createIterator()</text>
<text text-anchor="start" x="507.5" y="-2439" font-family="Helvetica,sans-Serif" font-size="10.00">+ push_back()</text>
<text text-anchor="start" x="507.5" y="-2428" font-family="Helvetica,sans-Serif" font-size="10.00">+ reserve()</text>
<text text-anchor="start" x="507.5" y="-2417" font-family="Helvetica,sans-Serif" font-size="10.00">+ empty()</text>
<text text-anchor="start" x="507.5" y="-2406" font-family="Helvetica,sans-Serif" font-size="10.00">+ size()</text>
<text text-anchor="start" x="507.5" y="-2395" font-family="Helvetica,sans-Serif" font-size="10.00">+ clear()</text>
<text text-anchor="start" x="507.5" y="-2384" font-family="Helvetica,sans-Serif" font-size="10.00">+ show()</text>
<text text-anchor="start" x="507.5" y="-2373" font-family="Helvetica,sans-Serif" font-size="10.00">+ validate()</text>
<text text-anchor="start" x="507.5" y="-2362" font-family="Helvetica,sans-Serif" font-size="10.00"># ContainerInterface()</text>
</a>
</g>
<!-- Node16&#45;&gt;Node15 -->
<g id="edge32" class="edge"><title>Node16&#45;&gt;Node15</title>
<path fill="none" stroke="midnightblue" d="M556.654,-2344.93C554.603,-2322.99 551.802,-2299.55 548,-2278 546.938,-2271.98 545.779,-2265.88 544.541,-2259.73"/>
<polygon fill="none" stroke="midnightblue" points="553.168,-2345.25 557.544,-2354.9 560.14,-2344.63 553.168,-2345.25"/>
</g>
<!-- Node17&#45;&gt;Node15 -->
<g id="edge34" class="edge"><title>Node17&#45;&gt;Node15</title>
<path fill="none" stroke="#9a32cd" stroke-dasharray="5,2" d="M432.088,-2397.56C450.247,-2381.06 469.376,-2359.72 480,-2336 490.634,-2312.26 497.247,-2285.95 501.146,-2259.6"/>
<polygon fill="#9a32cd" stroke="#9a32cd" points="424.393,-2404.33 428.929,-2394.35 428.148,-2401.03 431.902,-2397.73 431.902,-2397.73 431.902,-2397.73 428.148,-2401.03 434.874,-2401.1 424.393,-2404.33 424.393,-2404.33"/>
<text text-anchor="middle" x="519.5" y="-2304.5" font-family="Helvetica,sans-Serif" font-size="10.00">collection</text>
</g>
<!-- Node18&#45;&gt;Node4 -->
<g id="edge40" class="edge"><title>Node18&#45;&gt;Node4</title>
<path fill="none" stroke="#9a32cd" stroke-dasharray="5,2" d="M623.267,-1830.45C618.232,-1757.93 608,-1593.52 608,-1455 608,-1455 608,-1455 608,-1024 608,-937.585 557.188,-850.471 515.11,-793.145"/>
<polygon fill="#9a32cd" stroke="#9a32cd" points="623.97,-1840.47 618.781,-1830.81 623.62,-1835.48 623.27,-1830.49 623.27,-1830.49 623.27,-1830.49 623.62,-1835.48 627.759,-1830.18 623.97,-1840.47 623.97,-1840.47"/>
<text text-anchor="middle" x="630.5" y="-1288.5" font-family="Helvetica,sans-Serif" font-size="10.00">collection</text>
</g>
</g>
</svg>
