<?xml version="1.0" encoding="UTF-8" standalone="no"?>
<!DOCTYPE svg PUBLIC "-//W3C//DTD SVG 1.1//EN"
 "http://www.w3.org/Graphics/SVG/1.1/DTD/svg11.dtd">
<!-- Generated by graphviz version 2.28.0 (20110610.2051)
 -->
<!-- Title: G Pages: 1 -->
<svg width="200pt" height="428pt"
 viewBox="0.00 0.00 200.00 428.00" xmlns="http://www.w3.org/2000/svg" xmlns:xlink="http://www.w3.org/1999/xlink">
<g id="graph1" class="graph" transform="scale(1 1) rotate(0) translate(4 424)">
<title>G</title>
<polygon fill="white" stroke="white" points="-4,5 -4,-424 197,-424 197,5 -4,5"/>
<!-- Node1 -->
<g id="node1" class="node"><title>Node1</title>
<polygon fill="#bfbfbf" stroke="black" points="0,-1 0,-69 192,-69 192,-1 0,-1"/>
<text text-anchor="middle" x="96" y="-57" font-family="Helvetica,sans-Serif" font-size="10.00">BATCHgdHiddenNeuronTrainBehavior</text>
<polyline fill="none" stroke="black" points="0,-50 192,-50 "/>
<text text-anchor="middle" x="96" y="-38" font-family="Helvetica,sans-Serif" font-size="10.00"> </text>
<polyline fill="none" stroke="black" points="0,-31 192,-31 "/>
<text text-anchor="start" x="8" y="-19" font-family="Helvetica,sans-Serif" font-size="10.00">&#45; singlePatternBackwardAction()</text>
<text text-anchor="start" x="8" y="-8" font-family="Helvetica,sans-Serif" font-size="10.00">&#45; endOfEpochAction()</text>
</g>
<!-- Node2 -->
<g id="node2" class="node"><title>Node2</title>
<a xlink:href="class_b_a_t_c_hgd_neuron_train_behavior.html" target="_top" xlink:title="class BATCHgdNeuronTrainBehavior &#45;">
<polygon fill="white" stroke="black" points="11.5,-106.5 11.5,-207.5 180.5,-207.5 180.5,-106.5 11.5,-106.5"/>
<text text-anchor="middle" x="96" y="-195.5" font-family="Helvetica,sans-Serif" font-size="10.00">BATCHgdNeuronTrainBehavior</text>
<polyline fill="none" stroke="black" points="11.5,-188.5 180.5,-188.5 "/>
<text text-anchor="start" x="19.5" y="-176.5" font-family="Helvetica,sans-Serif" font-size="10.00"># d_delta</text>
<text text-anchor="start" x="19.5" y="-165.5" font-family="Helvetica,sans-Serif" font-size="10.00"># d_learningRate</text>
<text text-anchor="start" x="19.5" y="-154.5" font-family="Helvetica,sans-Serif" font-size="10.00"># d_sum_delta_x</text>
<text text-anchor="start" x="19.5" y="-143.5" font-family="Helvetica,sans-Serif" font-size="10.00"># d_sum_delta_bias</text>
<polyline fill="none" stroke="black" points="11.5,-136.5 180.5,-136.5 "/>
<text text-anchor="start" x="19.5" y="-124.5" font-family="Helvetica,sans-Serif" font-size="10.00">+ singlePatternBackwardAction()</text>
<text text-anchor="start" x="19.5" y="-113.5" font-family="Helvetica,sans-Serif" font-size="10.00">+ endOfEpochAction()</text>
</a>
</g>
<!-- Node2&#45;&gt;Node1 -->
<g id="edge2" class="edge"><title>Node2&#45;&gt;Node1</title>
<path fill="none" stroke="midnightblue" d="M96,-96.4271C96,-87.1013 96,-77.7617 96,-69.3096"/>
<polygon fill="none" stroke="midnightblue" points="92.5001,-96.4986 96,-106.499 99.5001,-96.4986 92.5001,-96.4986"/>
</g>
<!-- Node3 -->
<g id="node4" class="node"><title>Node3</title>
<a xlink:href="class_batch_neuron_train_behavior.html" target="_top" xlink:title="class BatchNeuronTrainBehavior &#45;">
<polygon fill="white" stroke="black" points="11.5,-245 11.5,-313 180.5,-313 180.5,-245 11.5,-245"/>
<text text-anchor="middle" x="96" y="-301" font-family="Helvetica,sans-Serif" font-size="10.00">BatchNeuronTrainBehavior</text>
<polyline fill="none" stroke="black" points="11.5,-294 180.5,-294 "/>
<text text-anchor="middle" x="96" y="-282" font-family="Helvetica,sans-Serif" font-size="10.00"> </text>
<polyline fill="none" stroke="black" points="11.5,-275 180.5,-275 "/>
<text text-anchor="start" x="19.5" y="-263" font-family="Helvetica,sans-Serif" font-size="10.00">+ singlePatternBackwardAction()</text>
<text text-anchor="start" x="19.5" y="-252" font-family="Helvetica,sans-Serif" font-size="10.00">+ endOfEpochAction()</text>
</a>
</g>
<!-- Node3&#45;&gt;Node2 -->
<g id="edge4" class="edge"><title>Node3&#45;&gt;Node2</title>
<path fill="none" stroke="midnightblue" d="M96,-234.831C96,-226.01 96,-216.661 96,-207.636"/>
<polygon fill="none" stroke="midnightblue" points="92.5001,-234.892 96,-244.892 99.5001,-234.892 92.5001,-234.892"/>
</g>
<!-- Node4 -->
<g id="node6" class="node"><title>Node4</title>
<a xlink:href="class_neuron_train_behavior.html" target="_top" xlink:title="class NeuronTrainBehavior &#45;">
<polygon fill="white" stroke="black" points="11.5,-351 11.5,-419 180.5,-419 180.5,-351 11.5,-351"/>
<text text-anchor="middle" x="96" y="-407" font-family="Helvetica,sans-Serif" font-size="10.00">NeuronTrainBehavior</text>
<polyline fill="none" stroke="black" points="11.5,-400 180.5,-400 "/>
<text text-anchor="start" x="19.5" y="-388" font-family="Helvetica,sans-Serif" font-size="10.00"># d_neuron</text>
<polyline fill="none" stroke="black" points="11.5,-381 180.5,-381 "/>
<text text-anchor="start" x="19.5" y="-369" font-family="Helvetica,sans-Serif" font-size="10.00">+ singlePatternBackwardAction()</text>
<text text-anchor="start" x="19.5" y="-358" font-family="Helvetica,sans-Serif" font-size="10.00">+ endOfEpochAction()</text>
</a>
</g>
<!-- Node4&#45;&gt;Node3 -->
<g id="edge6" class="edge"><title>Node4&#45;&gt;Node3</title>
<path fill="none" stroke="midnightblue" d="M96,-340.674C96,-331.502 96,-321.961 96,-313.234"/>
<polygon fill="none" stroke="midnightblue" points="92.5001,-340.808 96,-350.808 99.5001,-340.808 92.5001,-340.808"/>
</g>
</g>
</svg>
