<?xml version="1.0" encoding="UTF-8" standalone="no"?>
<!DOCTYPE svg PUBLIC "-//W3C//DTD SVG 1.1//EN"
 "http://www.w3.org/Graphics/SVG/1.1/DTD/svg11.dtd">
<!-- Generated by graphviz version 2.28.0 (20110610.2051)
 -->
<!-- Title: G Pages: 1 -->
<svg width="219pt" height="512pt"
 viewBox="0.00 0.00 219.00 512.00" xmlns="http://www.w3.org/2000/svg" xmlns:xlink="http://www.w3.org/1999/xlink">
<g id="graph1" class="graph" transform="scale(1 1) rotate(0) translate(4 508)">
<title>G</title>
<polygon fill="white" stroke="white" points="-4,5 -4,-508 216,-508 216,5 -4,5"/>
<!-- Node1 -->
<g id="node1" class="node"><title>Node1</title>
<polygon fill="#bfbfbf" stroke="black" points="28.5,-182.5 28.5,-503.5 153.5,-503.5 153.5,-182.5 28.5,-182.5"/>
<text text-anchor="middle" x="91" y="-491.5" font-family="Helvetica,sans-Serif" font-size="10.00">Neuron</text>
<polyline fill="none" stroke="black" points="28.5,-484.5 153.5,-484.5 "/>
<text text-anchor="start" x="36.5" y="-472.5" font-family="Helvetica,sans-Serif" font-size="10.00">+ d_predictBehavior</text>
<text text-anchor="start" x="36.5" y="-461.5" font-family="Helvetica,sans-Serif" font-size="10.00">+ d_trainingBehavior</text>
<text text-anchor="start" x="36.5" y="-450.5" font-family="Helvetica,sans-Serif" font-size="10.00">&#45; Id</text>
<text text-anchor="start" x="36.5" y="-439.5" font-family="Helvetica,sans-Serif" font-size="10.00">&#45; con</text>
<text text-anchor="start" x="36.5" y="-428.5" font-family="Helvetica,sans-Serif" font-size="10.00">&#45; outputValue</text>
<polyline fill="none" stroke="black" points="28.5,-421.5 153.5,-421.5 "/>
<text text-anchor="start" x="36.5" y="-409.5" font-family="Helvetica,sans-Serif" font-size="10.00">+ getId()</text>
<text text-anchor="start" x="36.5" y="-398.5" font-family="Helvetica,sans-Serif" font-size="10.00">+ setId()</text>
<text text-anchor="start" x="36.5" y="-387.5" font-family="Helvetica,sans-Serif" font-size="10.00">+ setPredictBehavior()</text>
<text text-anchor="start" x="36.5" y="-376.5" font-family="Helvetica,sans-Serif" font-size="10.00">+ setTrainingBehavior()</text>
<text text-anchor="start" x="36.5" y="-365.5" font-family="Helvetica,sans-Serif" font-size="10.00">+ predict()</text>
<text text-anchor="start" x="36.5" y="-354.5" font-family="Helvetica,sans-Serif" font-size="10.00">+ adjustParameters()</text>
<text text-anchor="start" x="36.5" y="-343.5" font-family="Helvetica,sans-Serif" font-size="10.00">+ show()</text>
<text text-anchor="start" x="36.5" y="-332.5" font-family="Helvetica,sans-Serif" font-size="10.00">+ validate()</text>
<text text-anchor="start" x="36.5" y="-321.5" font-family="Helvetica,sans-Serif" font-size="10.00">+ Neuron()</text>
<text text-anchor="start" x="36.5" y="-310.5" font-family="Helvetica,sans-Serif" font-size="10.00">+ Neuron()</text>
<text text-anchor="start" x="36.5" y="-299.5" font-family="Helvetica,sans-Serif" font-size="10.00">+ Neuron()</text>
<text text-anchor="start" x="36.5" y="-288.5" font-family="Helvetica,sans-Serif" font-size="10.00">+ ~Neuron()</text>
<text text-anchor="start" x="36.5" y="-277.5" font-family="Helvetica,sans-Serif" font-size="10.00">+ getId()</text>
<text text-anchor="start" x="36.5" y="-266.5" font-family="Helvetica,sans-Serif" font-size="10.00">+ setId()</text>
<text text-anchor="start" x="36.5" y="-255.5" font-family="Helvetica,sans-Serif" font-size="10.00">+ getConId()</text>
<text text-anchor="start" x="36.5" y="-244.5" font-family="Helvetica,sans-Serif" font-size="10.00">+ getWeight()</text>
<text text-anchor="start" x="36.5" y="-233.5" font-family="Helvetica,sans-Serif" font-size="10.00">+ setFrom()</text>
<text text-anchor="start" x="36.5" y="-222.5" font-family="Helvetica,sans-Serif" font-size="10.00">+ setWeight()</text>
<text text-anchor="start" x="36.5" y="-211.5" font-family="Helvetica,sans-Serif" font-size="10.00">+ numOfCons()</text>
<text text-anchor="start" x="36.5" y="-200.5" font-family="Helvetica,sans-Serif" font-size="10.00">+ show()</text>
<text text-anchor="start" x="36.5" y="-189.5" font-family="Helvetica,sans-Serif" font-size="10.00">+ validate()</text>
</g>
<!-- Node2 -->
<g id="node3" class="node"><title>Node2</title>
<a xlink:href="class_m_l_pneuron.html" target="_top" xlink:title="{MLPneuron\n|&#45; bias\l|}">
<polygon fill="white" stroke="black" points="0,-44.5 0,-101.5 68,-101.5 68,-44.5 0,-44.5"/>
<text text-anchor="middle" x="34" y="-89.5" font-family="Helvetica,sans-Serif" font-size="10.00">MLPneuron</text>
<polyline fill="none" stroke="black" points="0,-82.5 68,-82.5 "/>
<text text-anchor="start" x="8" y="-70.5" font-family="Helvetica,sans-Serif" font-size="10.00">&#45; bias</text>
<polyline fill="none" stroke="black" points="0,-63.5 68,-63.5 "/>
<text text-anchor="middle" x="34" y="-51.5" font-family="Helvetica,sans-Serif" font-size="10.00"> </text>
</a>
</g>
<!-- Node1&#45;&gt;Node2 -->
<g id="edge2" class="edge"><title>Node1&#45;&gt;Node2</title>
<path fill="none" stroke="midnightblue" d="M54.9381,-172.446C49.1018,-145.005 43.7215,-119.708 39.8766,-101.63"/>
<polygon fill="none" stroke="midnightblue" points="51.5159,-173.18 57.0198,-182.233 58.3628,-171.724 51.5159,-173.18"/>
</g>
<!-- Node3 -->
<g id="node5" class="node"><title>Node3</title>
<a xlink:href="class_simple_neuron.html" target="_top" xlink:title="class SimpleNeuron &#45;">
<polygon fill="white" stroke="black" points="86.5,-0.5 86.5,-145.5 211.5,-145.5 211.5,-0.5 86.5,-0.5"/>
<text text-anchor="middle" x="149" y="-133.5" font-family="Helvetica,sans-Serif" font-size="10.00">SimpleNeuron</text>
<polyline fill="none" stroke="black" points="86.5,-126.5 211.5,-126.5 "/>
<text text-anchor="start" x="94.5" y="-114.5" font-family="Helvetica,sans-Serif" font-size="10.00">&#45; d_Id</text>
<polyline fill="none" stroke="black" points="86.5,-107.5 211.5,-107.5 "/>
<text text-anchor="start" x="94.5" y="-95.5" font-family="Helvetica,sans-Serif" font-size="10.00">+ SimpleNeuron()</text>
<text text-anchor="start" x="94.5" y="-84.5" font-family="Helvetica,sans-Serif" font-size="10.00">+ getId()</text>
<text text-anchor="start" x="94.5" y="-73.5" font-family="Helvetica,sans-Serif" font-size="10.00">+ setId()</text>
<text text-anchor="start" x="94.5" y="-62.5" font-family="Helvetica,sans-Serif" font-size="10.00">+ setPredictBehavior()</text>
<text text-anchor="start" x="94.5" y="-51.5" font-family="Helvetica,sans-Serif" font-size="10.00">+ setTrainingBehavior()</text>
<text text-anchor="start" x="94.5" y="-40.5" font-family="Helvetica,sans-Serif" font-size="10.00">+ predict()</text>
<text text-anchor="start" x="94.5" y="-29.5" font-family="Helvetica,sans-Serif" font-size="10.00">+ adjustParameters()</text>
<text text-anchor="start" x="94.5" y="-18.5" font-family="Helvetica,sans-Serif" font-size="10.00">+ show()</text>
<text text-anchor="start" x="94.5" y="-7.5" font-family="Helvetica,sans-Serif" font-size="10.00">+ validate()</text>
</a>
</g>
<!-- Node1&#45;&gt;Node3 -->
<g id="edge4" class="edge"><title>Node1&#45;&gt;Node3</title>
<path fill="none" stroke="midnightblue" d="M127.744,-172.216C129.725,-163.063 131.654,-154.15 133.49,-145.666"/>
<polygon fill="none" stroke="midnightblue" points="124.271,-171.719 125.576,-182.233 131.112,-173.2 124.271,-171.719"/>
</g>
</g>
</svg>
