<?xml version="1.0" encoding="UTF-8" standalone="no"?>
<!DOCTYPE svg PUBLIC "-//W3C//DTD SVG 1.1//EN"
 "http://www.w3.org/Graphics/SVG/1.1/DTD/svg11.dtd">
<!-- Generated by graphviz version 2.25.20091207.0545 (20091207.0545)
 -->
<!-- Title: G Pages: 1 -->
<svg width="351pt" height="1108pt"
 viewBox="0.00 0.00 351.00 1108.00" xmlns="http://www.w3.org/2000/svg" xmlns:xlink="http://www.w3.org/1999/xlink">
<g id="graph1" class="graph" transform="scale(1 1) rotate(0) translate(4 1104)">
<title>G</title>
<polygon fill="white" stroke="white" points="-4,5 -4,-1104 348,-1104 348,5 -4,5"/>
<!-- Node1 -->
<g id="node1" class="node"><title>Node1</title>
<polygon fill="#bfbfbf" stroke="black" points="90,-1 90,-201 192,-201 192,-1 90,-1"/>
<text text-anchor="middle" x="141" y="-188" font-family="Helvetica,sans-Serif" font-size="10.00">VecCon</text>
<polyline fill="none" stroke="black" points="90,-182 192,-182 "/>
<text text-anchor="middle" x="141" y="-169" font-family="Helvetica,sans-Serif" font-size="10.00"> </text>
<polyline fill="none" stroke="black" points="90,-163 192,-163 "/>
<text text-anchor="start" x="98" y="-150" font-family="Helvetica,sans-Serif" font-size="10.00">+ VecCon()</text>
<text text-anchor="start" x="98" y="-139" font-family="Helvetica,sans-Serif" font-size="10.00">+ VecCon()</text>
<text text-anchor="start" x="98" y="-128" font-family="Helvetica,sans-Serif" font-size="10.00">+ numOfCons()</text>
<text text-anchor="start" x="98" y="-117" font-family="Helvetica,sans-Serif" font-size="10.00">+ getId()</text>
<text text-anchor="start" x="98" y="-106" font-family="Helvetica,sans-Serif" font-size="10.00">+ buildAndAppend()</text>
<text text-anchor="start" x="98" y="-95" font-family="Helvetica,sans-Serif" font-size="10.00">+ getWeight()</text>
<text text-anchor="start" x="98" y="-84" font-family="Helvetica,sans-Serif" font-size="10.00">+ getWeight()</text>
<text text-anchor="start" x="98" y="-73" font-family="Helvetica,sans-Serif" font-size="10.00">+ getFrom()</text>
<text text-anchor="start" x="98" y="-62" font-family="Helvetica,sans-Serif" font-size="10.00">+ setWeight()</text>
<text text-anchor="start" x="98" y="-51" font-family="Helvetica,sans-Serif" font-size="10.00">+ setWeight()</text>
<text text-anchor="start" x="98" y="-40" font-family="Helvetica,sans-Serif" font-size="10.00">+ setFrom()</text>
<text text-anchor="start" x="98" y="-29" font-family="Helvetica,sans-Serif" font-size="10.00">+ erase()</text>
<text text-anchor="start" x="98" y="-18" font-family="Helvetica,sans-Serif" font-size="10.00">+ select()</text>
<text text-anchor="start" x="98" y="-7" font-family="Helvetica,sans-Serif" font-size="10.00">+ validate()</text>
</g>
<!-- Node2 -->
<g id="node2" class="node"><title>Node2</title>
<a xlink:href="class_container.html" target="_top" xlink:title="{Container\&lt; Con \&gt;\n|# collection\l|+ Container()\l+ Container()\l+ begin()\l+ end()\l+ load()\l+ store()\l+ size()\l+ push_back()\l+ append()\l+ show()\l+ validate()\l+ reserve()\l+ resize()\l+ empty()\l+ clear()\l+ operator[]()\l}">
<polygon fill="white" stroke="black" points="94,-241 94,-463 188,-463 188,-241 94,-241"/>
<text text-anchor="middle" x="141" y="-450" font-family="Helvetica,sans-Serif" font-size="10.00">Container&lt; Con &gt;</text>
<polyline fill="none" stroke="black" points="94,-444 188,-444 "/>
<text text-anchor="start" x="102" y="-431" font-family="Helvetica,sans-Serif" font-size="10.00"># collection</text>
<polyline fill="none" stroke="black" points="94,-425 188,-425 "/>
<text text-anchor="start" x="102" y="-412" font-family="Helvetica,sans-Serif" font-size="10.00">+ Container()</text>
<text text-anchor="start" x="102" y="-401" font-family="Helvetica,sans-Serif" font-size="10.00">+ Container()</text>
<text text-anchor="start" x="102" y="-390" font-family="Helvetica,sans-Serif" font-size="10.00">+ begin()</text>
<text text-anchor="start" x="102" y="-379" font-family="Helvetica,sans-Serif" font-size="10.00">+ end()</text>
<text text-anchor="start" x="102" y="-368" font-family="Helvetica,sans-Serif" font-size="10.00">+ load()</text>
<text text-anchor="start" x="102" y="-357" font-family="Helvetica,sans-Serif" font-size="10.00">+ store()</text>
<text text-anchor="start" x="102" y="-346" font-family="Helvetica,sans-Serif" font-size="10.00">+ size()</text>
<text text-anchor="start" x="102" y="-335" font-family="Helvetica,sans-Serif" font-size="10.00">+ push_back()</text>
<text text-anchor="start" x="102" y="-324" font-family="Helvetica,sans-Serif" font-size="10.00">+ append()</text>
<text text-anchor="start" x="102" y="-313" font-family="Helvetica,sans-Serif" font-size="10.00">+ show()</text>
<text text-anchor="start" x="102" y="-302" font-family="Helvetica,sans-Serif" font-size="10.00">+ validate()</text>
<text text-anchor="start" x="102" y="-291" font-family="Helvetica,sans-Serif" font-size="10.00">+ reserve()</text>
<text text-anchor="start" x="102" y="-280" font-family="Helvetica,sans-Serif" font-size="10.00">+ resize()</text>
<text text-anchor="start" x="102" y="-269" font-family="Helvetica,sans-Serif" font-size="10.00">+ empty()</text>
<text text-anchor="start" x="102" y="-258" font-family="Helvetica,sans-Serif" font-size="10.00">+ clear()</text>
<text text-anchor="start" x="102" y="-247" font-family="Helvetica,sans-Serif" font-size="10.00">+ operator[]()</text>
</a>
</g>
<!-- Node2&#45;&gt;Node1 -->
<g id="edge2" class="edge"><title>Node2&#45;&gt;Node1</title>
<path fill="none" stroke="midnightblue" d="M141,-230.536C141,-220.653 141,-210.737 141,-201.034"/>
<polygon fill="none" stroke="midnightblue" points="137.5,-230.812 141,-240.812 144.5,-230.812 137.5,-230.812"/>
</g>
<!-- Node3 -->
<g id="node4" class="node"><title>Node3</title>
<polygon fill="white" stroke="#bfbfbf" points="0,-754.5 0,-811.5 192,-811.5 192,-754.5 0,-754.5"/>
<text text-anchor="middle" x="96" y="-798.5" font-family="Helvetica,sans-Serif" font-size="10.00">std::vector&lt; boost::shared_ptr&lt; Con &gt; &gt;</text>
<polyline fill="none" stroke="#bfbfbf" points="0,-792.5 192,-792.5 "/>
<text text-anchor="start" x="8" y="-779.5" font-family="Helvetica,sans-Serif" font-size="10.00">&#45; elements</text>
<polyline fill="none" stroke="#bfbfbf" points="0,-773.5 192,-773.5 "/>
<text text-anchor="middle" x="96" y="-760.5" font-family="Helvetica,sans-Serif" font-size="10.00"> </text>
</g>
<!-- Node3&#45;&gt;Node2 -->
<g id="edge4" class="edge"><title>Node3&#45;&gt;Node2</title>
<path fill="none" stroke="#9a32cd" stroke-dasharray="5,2" d="M99.4389,-744.273C104.174,-691.655 113.128,-594.656 122,-512 123.687,-496.286 125.554,-479.714 127.441,-463.429"/>
<polygon fill="#9a32cd" stroke="#9a32cd" points="98.5216,-754.496 94.9333,-744.134 98.9685,-749.516 99.4153,-744.536 99.4153,-744.536 99.4153,-744.536 98.9685,-749.516 103.897,-744.939 98.5216,-754.496 98.5216,-754.496"/>
<text text-anchor="middle" x="142.5" y="-620.5" font-family="Helvetica,sans-Serif" font-size="10.00">collection</text>
</g>
<!-- Node4 -->
<g id="node6" class="node"><title>Node4</title>
<a xlink:title="STL class.">
<polygon fill="white" stroke="#bfbfbf" points="120.5,-936.5 120.5,-993.5 207.5,-993.5 207.5,-936.5 120.5,-936.5"/>
<text text-anchor="middle" x="164" y="-980.5" font-family="Helvetica,sans-Serif" font-size="10.00">std::vector&lt; T &gt;</text>
<polyline fill="none" stroke="#bfbfbf" points="120.5,-974.5 207.5,-974.5 "/>
<text text-anchor="start" x="128.5" y="-961.5" font-family="Helvetica,sans-Serif" font-size="10.00">&#45; elements</text>
<polyline fill="none" stroke="#bfbfbf" points="120.5,-955.5 207.5,-955.5 "/>
<text text-anchor="middle" x="164" y="-942.5" font-family="Helvetica,sans-Serif" font-size="10.00"> </text>
</a>
</g>
<!-- Node4&#45;&gt;Node3 -->
<g id="edge6" class="edge"><title>Node4&#45;&gt;Node3</title>
<path fill="none" stroke="orange" stroke-dasharray="5,2" d="M111.191,-943.955C100.727,-937.266 91.1016,-928.73 85,-918 66.3434,-885.192 75.4042,-840.458 84.7607,-811.647"/>
<polygon fill="orange" stroke="orange" points="109.714,-947.145 120.118,-949.147 113.233,-941.094 109.714,-947.145"/>
<text text-anchor="middle" x="150" y="-908.5" font-family="Helvetica,sans-Serif" font-size="10.00">&lt; boost::shared_ptr&lt; Con &gt; &gt;</text>
</g>
<!-- Node7 -->
<g id="node12" class="node"><title>Node7</title>
<polygon fill="white" stroke="#bfbfbf" points="146,-830.5 146,-887.5 326,-887.5 326,-830.5 146,-830.5"/>
<text text-anchor="middle" x="236" y="-874.5" font-family="Helvetica,sans-Serif" font-size="10.00">std::vector&lt; boost::shared_ptr&lt; T &gt; &gt;</text>
<polyline fill="none" stroke="#bfbfbf" points="146,-868.5 326,-868.5 "/>
<text text-anchor="start" x="154" y="-855.5" font-family="Helvetica,sans-Serif" font-size="10.00">&#45; elements</text>
<polyline fill="none" stroke="#bfbfbf" points="146,-849.5 326,-849.5 "/>
<text text-anchor="middle" x="236" y="-836.5" font-family="Helvetica,sans-Serif" font-size="10.00"> </text>
</g>
<!-- Node4&#45;&gt;Node7 -->
<g id="edge14" class="edge"><title>Node4&#45;&gt;Node7</title>
<path fill="none" stroke="orange" stroke-dasharray="5,2" d="M210.511,-929.072C213.638,-925.549 216.523,-921.846 219,-918 224.829,-908.948 228.705,-897.855 231.261,-887.74"/>
<polygon fill="orange" stroke="orange" points="207.779,-926.862 203.342,-936.482 212.81,-931.729 207.779,-926.862"/>
<text text-anchor="middle" x="284" y="-908.5" font-family="Helvetica,sans-Serif" font-size="10.00">&lt; boost::shared_ptr&lt; T &gt; &gt;</text>
</g>
<!-- Node5 -->
<g id="node8" class="node"><title>Node5</title>
<polygon fill="white" stroke="#bfbfbf" points="149.5,-1042.5 149.5,-1099.5 178.5,-1099.5 178.5,-1042.5 149.5,-1042.5"/>
<text text-anchor="middle" x="164" y="-1086.5" font-family="Helvetica,sans-Serif" font-size="10.00">T</text>
<polyline fill="none" stroke="#bfbfbf" points="149.5,-1080.5 178.5,-1080.5 "/>
<text text-anchor="middle" x="164" y="-1067.5" font-family="Helvetica,sans-Serif" font-size="10.00"> </text>
<polyline fill="none" stroke="#bfbfbf" points="149.5,-1061.5 178.5,-1061.5 "/>
<text text-anchor="middle" x="164" y="-1048.5" font-family="Helvetica,sans-Serif" font-size="10.00"> </text>
</g>
<!-- Node5&#45;&gt;Node4 -->
<g id="edge8" class="edge"><title>Node5&#45;&gt;Node4</title>
<path fill="none" stroke="#9a32cd" stroke-dasharray="5,2" d="M164,-1032.01C164,-1019.33 164,-1005.49 164,-993.708"/>
<polygon fill="#9a32cd" stroke="#9a32cd" points="164,-1042.31 159.5,-1032.31 164,-1037.31 164,-1032.31 164,-1032.31 164,-1032.31 164,-1037.31 168.5,-1032.31 164,-1042.31 164,-1042.31"/>
<text text-anchor="middle" x="184" y="-1014.5" font-family="Helvetica,sans-Serif" font-size="10.00">elements</text>
</g>
<!-- Node6 -->
<g id="node10" class="node"><title>Node6</title>
<a xlink:href="class_container.html" target="_top" xlink:title="{Container\&lt; T \&gt;\n|# collection\l|+ Container()\l+ Container()\l+ begin()\l+ end()\l+ load()\l+ store()\l+ size()\l+ push_back()\l+ append()\l+ show()\l+ validate()\l+ reserve()\l+ resize()\l+ empty()\l+ clear()\l+ operator[]()\l}">
<polygon fill="white" stroke="black" points="172,-513 172,-735 254,-735 254,-513 172,-513"/>
<text text-anchor="middle" x="213" y="-722" font-family="Helvetica,sans-Serif" font-size="10.00">Container&lt; T &gt;</text>
<polyline fill="none" stroke="black" points="172,-716 254,-716 "/>
<text text-anchor="start" x="180" y="-703" font-family="Helvetica,sans-Serif" font-size="10.00"># collection</text>
<polyline fill="none" stroke="black" points="172,-697 254,-697 "/>
<text text-anchor="start" x="180" y="-684" font-family="Helvetica,sans-Serif" font-size="10.00">+ Container()</text>
<text text-anchor="start" x="180" y="-673" font-family="Helvetica,sans-Serif" font-size="10.00">+ Container()</text>
<text text-anchor="start" x="180" y="-662" font-family="Helvetica,sans-Serif" font-size="10.00">+ begin()</text>
<text text-anchor="start" x="180" y="-651" font-family="Helvetica,sans-Serif" font-size="10.00">+ end()</text>
<text text-anchor="start" x="180" y="-640" font-family="Helvetica,sans-Serif" font-size="10.00">+ load()</text>
<text text-anchor="start" x="180" y="-629" font-family="Helvetica,sans-Serif" font-size="10.00">+ store()</text>
<text text-anchor="start" x="180" y="-618" font-family="Helvetica,sans-Serif" font-size="10.00">+ size()</text>
<text text-anchor="start" x="180" y="-607" font-family="Helvetica,sans-Serif" font-size="10.00">+ push_back()</text>
<text text-anchor="start" x="180" y="-596" font-family="Helvetica,sans-Serif" font-size="10.00">+ append()</text>
<text text-anchor="start" x="180" y="-585" font-family="Helvetica,sans-Serif" font-size="10.00">+ show()</text>
<text text-anchor="start" x="180" y="-574" font-family="Helvetica,sans-Serif" font-size="10.00">+ validate()</text>
<text text-anchor="start" x="180" y="-563" font-family="Helvetica,sans-Serif" font-size="10.00">+ reserve()</text>
<text text-anchor="start" x="180" y="-552" font-family="Helvetica,sans-Serif" font-size="10.00">+ resize()</text>
<text text-anchor="start" x="180" y="-541" font-family="Helvetica,sans-Serif" font-size="10.00">+ empty()</text>
<text text-anchor="start" x="180" y="-530" font-family="Helvetica,sans-Serif" font-size="10.00">+ clear()</text>
<text text-anchor="start" x="180" y="-519" font-family="Helvetica,sans-Serif" font-size="10.00">+ operator[]()</text>
</a>
</g>
<!-- Node6&#45;&gt;Node2 -->
<g id="edge10" class="edge"><title>Node6&#45;&gt;Node2</title>
<path fill="none" stroke="orange" stroke-dasharray="5,2" d="M181.046,-503.285C177.508,-489.918 173.917,-476.351 170.412,-463.111"/>
<polygon fill="orange" stroke="orange" points="177.669,-504.203 183.611,-512.975 184.435,-502.412 177.669,-504.203"/>
<text text-anchor="middle" x="195" y="-484.5" font-family="Helvetica,sans-Serif" font-size="10.00">&lt; Con &gt;</text>
</g>
<!-- Node7&#45;&gt;Node6 -->
<g id="edge12" class="edge"><title>Node7&#45;&gt;Node6</title>
<path fill="none" stroke="#9a32cd" stroke-dasharray="5,2" d="M232.185,-820.017C229.898,-796.654 226.864,-765.655 223.885,-735.22"/>
<polygon fill="#9a32cd" stroke="#9a32cd" points="233.18,-830.184 227.727,-820.67 232.693,-825.208 232.206,-820.232 232.206,-820.232 232.206,-820.232 232.693,-825.208 236.684,-819.794 233.18,-830.184 233.18,-830.184"/>
<text text-anchor="middle" x="251.5" y="-779.5" font-family="Helvetica,sans-Serif" font-size="10.00">collection</text>
</g>
</g>
</svg>
