<?xml version="1.0" encoding="UTF-8" standalone="no"?>
<!DOCTYPE svg PUBLIC "-//W3C//DTD SVG 1.1//EN"
 "http://www.w3.org/Graphics/SVG/1.1/DTD/svg11.dtd">
<!-- Generated by graphviz version 2.28.0 (20110610.2051)
 -->
<!-- Title: G Pages: 1 -->
<svg width="460pt" height="218pt"
 viewBox="0.00 0.00 460.00 218.00" xmlns="http://www.w3.org/2000/svg" xmlns:xlink="http://www.w3.org/1999/xlink">
<g id="graph1" class="graph" transform="scale(1 1) rotate(0) translate(4 214)">
<title>G</title>
<polygon fill="white" stroke="white" points="-4,5 -4,-214 457,-214 457,5 -4,5"/>
<!-- Node1 -->
<g id="node1" class="node"><title>Node1</title>
<polygon fill="#bfbfbf" stroke="black" points="0,-95.5 0,-114.5 210,-114.5 210,-95.5 0,-95.5"/>
<text text-anchor="middle" x="105" y="-102.5" font-family="Helvetica,sans-Serif" font-size="10.00">MLPbehavior::singlePatternForwardAction</text>
</g>
<!-- Node2 -->
<g id="node3" class="node"><title>Node2</title>
<a xlink:href="class_predict_behavior.html#ae13310624d8ea02168c15e86759758fc" target="_top" xlink:title="PredictBehavior::getConIterator">
<polygon fill="white" stroke="black" points="267,-190.5 267,-209.5 431,-209.5 431,-190.5 267,-190.5"/>
<text text-anchor="middle" x="349" y="-197.5" font-family="Helvetica,sans-Serif" font-size="10.00">PredictBehavior::getConIterator</text>
</a>
</g>
<!-- Node1&#45;&gt;Node2 -->
<g id="edge2" class="edge"><title>Node1&#45;&gt;Node2</title>
<path fill="none" stroke="midnightblue" d="M120.014,-114.56C144.464,-130.782 196.996,-163.624 246,-181 253.81,-183.769 262.106,-186.157 270.462,-188.21"/>
<polygon fill="midnightblue" stroke="midnightblue" points="269.742,-191.636 280.273,-190.47 271.314,-184.815 269.742,-191.636"/>
</g>
<!-- Node3 -->
<g id="node5" class="node"><title>Node3</title>
<a xlink:href="class_predict_behavior.html#ae0c61e493d55b658161b96a8d7b62819" target="_top" xlink:title="PredictBehavior::setInducedLocalField">
<polygon fill="white" stroke="black" points="251.5,-152.5 251.5,-171.5 446.5,-171.5 446.5,-152.5 251.5,-152.5"/>
<text text-anchor="middle" x="349" y="-159.5" font-family="Helvetica,sans-Serif" font-size="10.00">PredictBehavior::setInducedLocalField</text>
</a>
</g>
<!-- Node1&#45;&gt;Node3 -->
<g id="edge4" class="edge"><title>Node1&#45;&gt;Node3</title>
<path fill="none" stroke="midnightblue" d="M138.345,-114.578C166.601,-122.754 208.803,-134.502 246,-143 257.661,-145.664 270.136,-148.225 282.218,-150.556"/>
<polygon fill="midnightblue" stroke="midnightblue" points="281.77,-154.033 292.247,-152.457 283.074,-147.156 281.77,-154.033"/>
</g>
<!-- Node4 -->
<g id="node7" class="node"><title>Node4</title>
<a xlink:href="class_predict_behavior.html#afeabe1f543e46d41909b41816d8210a6" target="_top" xlink:title="PredictBehavior::setOutput">
<polygon fill="white" stroke="black" points="277.5,-114.5 277.5,-133.5 420.5,-133.5 420.5,-114.5 277.5,-114.5"/>
<text text-anchor="middle" x="349" y="-121.5" font-family="Helvetica,sans-Serif" font-size="10.00">PredictBehavior::setOutput</text>
</a>
</g>
<!-- Node1&#45;&gt;Node4 -->
<g id="edge6" class="edge"><title>Node1&#45;&gt;Node4</title>
<path fill="none" stroke="midnightblue" d="M210.034,-113.168C229.166,-114.67 248.875,-116.217 267.197,-117.656"/>
<polygon fill="midnightblue" stroke="midnightblue" points="266.977,-121.149 277.221,-118.443 267.525,-114.171 266.977,-121.149"/>
</g>
<!-- Node5 -->
<g id="node9" class="node"><title>Node5</title>
<a xlink:href="class_predict_behavior.html#a59cb660d082154f8e72f0ce2281f1b0f" target="_top" xlink:title="PredictBehavior::setOutputDerivative">
<polygon fill="white" stroke="black" points="254,-76.5 254,-95.5 444,-95.5 444,-76.5 254,-76.5"/>
<text text-anchor="middle" x="349" y="-83.5" font-family="Helvetica,sans-Serif" font-size="10.00">PredictBehavior::setOutputDerivative</text>
</a>
</g>
<!-- Node1&#45;&gt;Node5 -->
<g id="edge8" class="edge"><title>Node1&#45;&gt;Node5</title>
<path fill="none" stroke="midnightblue" d="M210.034,-96.832C221.215,-95.9542 232.594,-95.0608 243.777,-94.1828"/>
<polygon fill="midnightblue" stroke="midnightblue" points="244.286,-97.6537 253.982,-93.3816 243.739,-90.6751 244.286,-97.6537"/>
</g>
<!-- Node6 -->
<g id="node11" class="node"><title>Node6</title>
<a xlink:href="class_predict_behavior.html#a699f23b6abd42f900ef991ac172a6f64" target="_top" xlink:title="PredictBehavior::useActivationFunctionf0">
<polygon fill="white" stroke="black" points="246,-38.5 246,-57.5 452,-57.5 452,-38.5 246,-38.5"/>
<text text-anchor="middle" x="349" y="-45.5" font-family="Helvetica,sans-Serif" font-size="10.00">PredictBehavior::useActivationFunctionf0</text>
</a>
</g>
<!-- Node1&#45;&gt;Node6 -->
<g id="edge10" class="edge"><title>Node1&#45;&gt;Node6</title>
<path fill="none" stroke="midnightblue" d="M138.345,-95.4217C166.601,-87.2463 208.803,-75.4979 246,-67 257.661,-64.3359 270.136,-61.7754 282.218,-59.4441"/>
<polygon fill="midnightblue" stroke="midnightblue" points="283.074,-62.8442 292.247,-57.5425 281.77,-55.9667 283.074,-62.8442"/>
</g>
<!-- Node7 -->
<g id="node13" class="node"><title>Node7</title>
<a xlink:href="class_predict_behavior.html#a2af882d5e647130684979b885de3082f" target="_top" xlink:title="PredictBehavior::useActivationFunctionf1">
<polygon fill="white" stroke="black" points="246,-0.5 246,-19.5 452,-19.5 452,-0.5 246,-0.5"/>
<text text-anchor="middle" x="349" y="-7.5" font-family="Helvetica,sans-Serif" font-size="10.00">PredictBehavior::useActivationFunctionf1</text>
</a>
</g>
<!-- Node1&#45;&gt;Node7 -->
<g id="edge12" class="edge"><title>Node1&#45;&gt;Node7</title>
<path fill="none" stroke="midnightblue" d="M120.014,-95.4398C144.464,-79.2183 196.996,-46.376 246,-29 253.81,-26.2309 262.106,-23.8434 270.462,-21.7899"/>
<polygon fill="midnightblue" stroke="midnightblue" points="271.314,-25.1854 280.273,-19.5298 269.742,-18.364 271.314,-25.1854"/>
</g>
</g>
</svg>
