<?xml version="1.0" encoding="UTF-8" standalone="no"?>
<!DOCTYPE svg PUBLIC "-//W3C//DTD SVG 1.1//EN"
 "http://www.w3.org/Graphics/SVG/1.1/DTD/svg11.dtd">
<!-- Generated by graphviz version 2.28.0 (20110610.2051)
 -->
<!-- Title: G Pages: 1 -->
<svg width="528pt" height="85pt"
 viewBox="0.00 0.00 528.00 85.00" xmlns="http://www.w3.org/2000/svg" xmlns:xlink="http://www.w3.org/1999/xlink">
<g id="graph1" class="graph" transform="scale(1 1) rotate(0) translate(4 81)">
<title>G</title>
<polygon fill="white" stroke="white" points="-4,5 -4,-81 525,-81 525,5 -4,5"/>
<!-- Node1 -->
<g id="node1" class="node"><title>Node1</title>
<polygon fill="#bfbfbf" stroke="black" points="0,-38.5 0,-57.5 132,-57.5 132,-38.5 0,-38.5"/>
<text text-anchor="middle" x="66" y="-45.5" font-family="Helvetica,sans-Serif" font-size="10.00">MLPfactory::makeNeuron</text>
</g>
<!-- Node2 -->
<g id="node3" class="node"><title>Node2</title>
<a xlink:href="class_m_l_pfactory.html#ac47beb4aced10b9c99414ba7dd7c8b55" target="_top" xlink:title="MLPfactory::makeCon">
<polygon fill="white" stroke="black" points="175,-57.5 175,-76.5 293,-76.5 293,-57.5 175,-57.5"/>
<text text-anchor="middle" x="234" y="-64.5" font-family="Helvetica,sans-Serif" font-size="10.00">MLPfactory::makeCon</text>
</a>
</g>
<!-- Node1&#45;&gt;Node2 -->
<g id="edge2" class="edge"><title>Node1&#45;&gt;Node2</title>
<path fill="none" stroke="midnightblue" d="M132.131,-55.4548C142.8,-56.6759 153.883,-57.9444 164.628,-59.1743"/>
<polygon fill="midnightblue" stroke="midnightblue" points="164.469,-62.6788 174.802,-60.3388 165.265,-55.7242 164.469,-62.6788"/>
</g>
<!-- Node3 -->
<g id="node5" class="node"><title>Node3</title>
<a xlink:href="class_m_l_pfactory.html#a6dd50bc994fa69d7c4de183284efdae2" target="_top" xlink:title="MLPfactory::makeNeuron">
<polygon fill="white" stroke="black" points="168,-19.5 168,-38.5 300,-38.5 300,-19.5 168,-19.5"/>
<text text-anchor="middle" x="234" y="-26.5" font-family="Helvetica,sans-Serif" font-size="10.00">MLPfactory::makeNeuron</text>
</a>
</g>
<!-- Node1&#45;&gt;Node3 -->
<g id="edge4" class="edge"><title>Node1&#45;&gt;Node3</title>
<path fill="none" stroke="midnightblue" d="M132.131,-40.5452C140.553,-39.5813 149.232,-38.5879 157.8,-37.6072"/>
<polygon fill="midnightblue" stroke="midnightblue" points="158.247,-41.079 167.784,-36.4645 157.451,-34.1244 158.247,-41.079"/>
</g>
<!-- Node4 -->
<g id="node7" class="node"><title>Node4</title>
<a xlink:href="class_m_l_pfactory.html#a92109ea285be7dd847d359a1ade9064a" target="_top" xlink:title="MLPfactory::makeActivationFunction">
<polygon fill="white" stroke="black" points="336,-38.5 336,-57.5 520,-57.5 520,-38.5 336,-38.5"/>
<text text-anchor="middle" x="428" y="-45.5" font-family="Helvetica,sans-Serif" font-size="10.00">MLPfactory::makeActivationFunction</text>
</a>
</g>
<!-- Node3&#45;&gt;Node4 -->
<g id="edge6" class="edge"><title>Node3&#45;&gt;Node4</title>
<path fill="none" stroke="midnightblue" d="M300.002,-35.4325C308.291,-36.2527 316.925,-37.1071 325.618,-37.9674"/>
<polygon fill="midnightblue" stroke="midnightblue" points="325.536,-41.4763 335.832,-38.9782 326.225,-34.5103 325.536,-41.4763"/>
</g>
<!-- Node5 -->
<g id="node9" class="node"><title>Node5</title>
<a xlink:href="class_m_l_pfactory.html#a9e9e9bb4390df09c78a24c4ff79cdab6" target="_top" xlink:title="MLPfactory::makePredictBehavior">
<polygon fill="white" stroke="black" points="341.5,-0.5 341.5,-19.5 514.5,-19.5 514.5,-0.5 341.5,-0.5"/>
<text text-anchor="middle" x="428" y="-7.5" font-family="Helvetica,sans-Serif" font-size="10.00">MLPfactory::makePredictBehavior</text>
</a>
</g>
<!-- Node3&#45;&gt;Node5 -->
<g id="edge8" class="edge"><title>Node3&#45;&gt;Node5</title>
<path fill="none" stroke="midnightblue" d="M300.002,-22.5675C310.06,-21.5721 320.627,-20.5265 331.19,-19.4812"/>
<polygon fill="midnightblue" stroke="midnightblue" points="331.694,-22.9485 341.301,-18.4807 331.005,-15.9825 331.694,-22.9485"/>
</g>
</g>
</svg>
