<?xml version="1.0" encoding="UTF-8" standalone="no"?>
<!DOCTYPE svg PUBLIC "-//W3C//DTD SVG 1.1//EN"
 "http://www.w3.org/Graphics/SVG/1.1/DTD/svg11.dtd">
<!-- Generated by graphviz version 2.28.0 (20110610.2051)
 -->
<!-- Title: G Pages: 1 -->
<svg width="238pt" height="104pt"
 viewBox="0.00 0.00 238.00 104.00" xmlns="http://www.w3.org/2000/svg" xmlns:xlink="http://www.w3.org/1999/xlink">
<g id="graph1" class="graph" transform="scale(1 1) rotate(0) translate(4 100)">
<title>G</title>
<polygon fill="white" stroke="white" points="-4,5 -4,-100 235,-100 235,5 -4,5"/>
<!-- Node1 -->
<g id="node1" class="node"><title>Node1</title>
<polygon fill="#bfbfbf" stroke="black" points="0.5,-38.5 0.5,-57.5 101.5,-57.5 101.5,-38.5 0.5,-38.5"/>
<text text-anchor="middle" x="51" y="-45.5" font-family="Helvetica,sans-Serif" font-size="10.00">Container::append</text>
</g>
<!-- Node2 -->
<g id="node3" class="node"><title>Node2</title>
<a xlink:href="class_container.html#ac5e2a75311f6e6a690ca67603490ddb1" target="_top" xlink:title="Container::begin">
<polygon fill="white" stroke="black" points="138,-76.5 138,-95.5 230,-95.5 230,-76.5 138,-76.5"/>
<text text-anchor="middle" x="184" y="-83.5" font-family="Helvetica,sans-Serif" font-size="10.00">Container::begin</text>
</a>
</g>
<!-- Node1&#45;&gt;Node2 -->
<g id="edge2" class="edge"><title>Node1&#45;&gt;Node2</title>
<path fill="none" stroke="midnightblue" d="M85.0568,-57.589C101.813,-62.4494 122.358,-68.4091 140.297,-73.6127"/>
<polygon fill="midnightblue" stroke="midnightblue" points="139.375,-76.9895 149.954,-76.4141 141.325,-70.2666 139.375,-76.9895"/>
</g>
<!-- Node3 -->
<g id="node5" class="node"><title>Node3</title>
<a xlink:href="class_container.html#a266eabe62963d6909d3aca7f105e203e" target="_top" xlink:title="Container::end">
<polygon fill="white" stroke="black" points="142,-38.5 142,-57.5 226,-57.5 226,-38.5 142,-38.5"/>
<text text-anchor="middle" x="184" y="-45.5" font-family="Helvetica,sans-Serif" font-size="10.00">Container::end</text>
</a>
</g>
<!-- Node1&#45;&gt;Node3 -->
<g id="edge4" class="edge"><title>Node1&#45;&gt;Node3</title>
<path fill="none" stroke="midnightblue" d="M101.525,-48C111.42,-48 121.833,-48 131.783,-48"/>
<polygon fill="midnightblue" stroke="midnightblue" points="131.944,-51.5001 141.944,-48 131.944,-44.5001 131.944,-51.5001"/>
</g>
<!-- Node4 -->
<g id="node7" class="node"><title>Node4</title>
<a xlink:href="class_container.html#a842c3d9eca81b78b59112fde9707b091" target="_top" xlink:title="Returns the size or length of the vector.">
<polygon fill="white" stroke="black" points="141.5,-0.5 141.5,-19.5 226.5,-19.5 226.5,-0.5 141.5,-0.5"/>
<text text-anchor="middle" x="184" y="-7.5" font-family="Helvetica,sans-Serif" font-size="10.00">Container::size</text>
</a>
</g>
<!-- Node1&#45;&gt;Node4 -->
<g id="edge6" class="edge"><title>Node1&#45;&gt;Node4</title>
<path fill="none" stroke="midnightblue" d="M85.0568,-38.411C101.813,-33.5506 122.358,-27.5909 140.297,-22.3873"/>
<polygon fill="midnightblue" stroke="midnightblue" points="141.325,-25.7334 149.954,-19.5859 139.375,-19.0105 141.325,-25.7334"/>
</g>
</g>
</svg>
