<?xml version="1.0" encoding="UTF-8" standalone="no"?>
<!DOCTYPE svg PUBLIC "-//W3C//DTD SVG 1.1//EN"
 "http://www.w3.org/Graphics/SVG/1.1/DTD/svg11.dtd">
<!-- Generated by graphviz version 2.25.20091207.0545 (20091207.0545)
 -->
<!-- Title: G Pages: 1 -->
<svg width="208pt" height="66pt"
 viewBox="0.00 0.00 208.00 66.00" xmlns="http://www.w3.org/2000/svg" xmlns:xlink="http://www.w3.org/1999/xlink">
<g id="graph1" class="graph" transform="scale(1 1) rotate(0) translate(4 62)">
<title>G</title>
<polygon fill="white" stroke="white" points="-4,5 -4,-62 205,-62 205,5 -4,5"/>
<!-- Node1 -->
<g id="node1" class="node"><title>Node1</title>
<polygon fill="#bfbfbf" stroke="black" points="0.5,-19.5 0.5,-38.5 75.5,-38.5 75.5,-19.5 0.5,-19.5"/>
<text text-anchor="middle" x="38" y="-25.5" font-family="Helvetica,sans-Serif" font-size="10.00">Neuron::getId</text>
</g>
<!-- Node2 -->
<g id="node3" class="node"><title>Node2</title>
<a xlink:href="class_neuron.html#a255c3597520c730d798218f7174eff1b" target="_top" xlink:title="Neuron::show">
<polygon fill="white" stroke="black" points="117.5,-38.5 117.5,-57.5 194.5,-57.5 194.5,-38.5 117.5,-38.5"/>
<text text-anchor="middle" x="156" y="-44.5" font-family="Helvetica,sans-Serif" font-size="10.00">Neuron::show</text>
</a>
</g>
<!-- Node1&#45;&gt;Node2 -->
<g id="edge2" class="edge"><title>Node1&#45;&gt;Node2</title>
<path fill="none" stroke="midnightblue" d="M85.6132,-36.6665C96.2057,-38.3721 107.307,-40.1596 117.481,-41.7978"/>
<polygon fill="midnightblue" stroke="midnightblue" points="86.0896,-33.1982 75.6604,-35.064 84.9768,-40.1092 86.0896,-33.1982"/>
</g>
<!-- Node3 -->
<g id="node5" class="node"><title>Node3</title>
<a xlink:href="class_neuron.html#a95327aa80a9ec949491f214a0c159b5a" target="_top" xlink:title="Neuron::validate">
<polygon fill="white" stroke="black" points="112.5,-0.5 112.5,-19.5 199.5,-19.5 199.5,-0.5 112.5,-0.5"/>
<text text-anchor="middle" x="156" y="-6.5" font-family="Helvetica,sans-Serif" font-size="10.00">Neuron::validate</text>
</a>
</g>
<!-- Node1&#45;&gt;Node3 -->
<g id="edge4" class="edge"><title>Node1&#45;&gt;Node3</title>
<path fill="none" stroke="midnightblue" d="M85.7025,-21.3191C94.4321,-19.9135 103.505,-18.4527 112.116,-17.066"/>
<polygon fill="midnightblue" stroke="midnightblue" points="84.9768,-17.8908 75.6604,-22.936 86.0896,-24.8018 84.9768,-17.8908"/>
</g>
</g>
</svg>
