<?xml version="1.0" encoding="UTF-8" standalone="no"?>
<!DOCTYPE svg PUBLIC "-//W3C//DTD SVG 1.1//EN"
 "http://www.w3.org/Graphics/SVG/1.1/DTD/svg11.dtd">
<!-- Generated by graphviz version 2.28.0 (20110610.2051)
 -->
<!-- Title: G Pages: 1 -->
<svg width="362pt" height="1576pt"
 viewBox="0.00 0.00 362.00 1576.00" xmlns="http://www.w3.org/2000/svg" xmlns:xlink="http://www.w3.org/1999/xlink">
<g id="graph1" class="graph" transform="scale(1 1) rotate(0) translate(4 1572)">
<title>G</title>
<polygon fill="white" stroke="white" points="-4,5 -4,-1572 359,-1572 359,5 -4,5"/>
<!-- Node1 -->
<g id="node1" class="node"><title>Node1</title>
<polygon fill="#bfbfbf" stroke="black" points="90.5,-0.5 90.5,-321.5 193.5,-321.5 193.5,-0.5 90.5,-0.5"/>
<text text-anchor="middle" x="142" y="-309.5" font-family="Helvetica,sans-Serif" font-size="10.00">Neuron</text>
<polyline fill="none" stroke="black" points="90.5,-302.5 193.5,-302.5 "/>
<text text-anchor="start" x="98.5" y="-290.5" font-family="Helvetica,sans-Serif" font-size="10.00"># Id</text>
<text text-anchor="start" x="98.5" y="-279.5" font-family="Helvetica,sans-Serif" font-size="10.00"># nCons</text>
<text text-anchor="start" x="98.5" y="-268.5" font-family="Helvetica,sans-Serif" font-size="10.00">&#45; con</text>
<text text-anchor="start" x="98.5" y="-257.5" font-family="Helvetica,sans-Serif" font-size="10.00">&#45; outputValue</text>
<polyline fill="none" stroke="black" points="90.5,-250.5 193.5,-250.5 "/>
<text text-anchor="start" x="98.5" y="-238.5" font-family="Helvetica,sans-Serif" font-size="10.00">+ Neuron()</text>
<text text-anchor="start" x="98.5" y="-227.5" font-family="Helvetica,sans-Serif" font-size="10.00">+ Neuron()</text>
<text text-anchor="start" x="98.5" y="-216.5" font-family="Helvetica,sans-Serif" font-size="10.00">+ Neuron()</text>
<text text-anchor="start" x="98.5" y="-205.5" font-family="Helvetica,sans-Serif" font-size="10.00">+ getId()</text>
<text text-anchor="start" x="98.5" y="-194.5" font-family="Helvetica,sans-Serif" font-size="10.00">+ setId()</text>
<text text-anchor="start" x="98.5" y="-183.5" font-family="Helvetica,sans-Serif" font-size="10.00">+ iterators()</text>
<text text-anchor="start" x="98.5" y="-172.5" font-family="Helvetica,sans-Serif" font-size="10.00">+ const_iterators()</text>
<text text-anchor="start" x="98.5" y="-161.5" font-family="Helvetica,sans-Serif" font-size="10.00">+ show()</text>
<text text-anchor="start" x="98.5" y="-150.5" font-family="Helvetica,sans-Serif" font-size="10.00">+ validate()</text>
<text text-anchor="start" x="98.5" y="-139.5" font-family="Helvetica,sans-Serif" font-size="10.00">+ Neuron()</text>
<text text-anchor="start" x="98.5" y="-128.5" font-family="Helvetica,sans-Serif" font-size="10.00">+ Neuron()</text>
<text text-anchor="start" x="98.5" y="-117.5" font-family="Helvetica,sans-Serif" font-size="10.00">+ Neuron()</text>
<text text-anchor="start" x="98.5" y="-106.5" font-family="Helvetica,sans-Serif" font-size="10.00">+ ~Neuron()</text>
<text text-anchor="start" x="98.5" y="-95.5" font-family="Helvetica,sans-Serif" font-size="10.00">+ getId()</text>
<text text-anchor="start" x="98.5" y="-84.5" font-family="Helvetica,sans-Serif" font-size="10.00">+ setId()</text>
<text text-anchor="start" x="98.5" y="-73.5" font-family="Helvetica,sans-Serif" font-size="10.00">+ getConId()</text>
<text text-anchor="start" x="98.5" y="-62.5" font-family="Helvetica,sans-Serif" font-size="10.00">+ getWeight()</text>
<text text-anchor="start" x="98.5" y="-51.5" font-family="Helvetica,sans-Serif" font-size="10.00">+ setFrom()</text>
<text text-anchor="start" x="98.5" y="-40.5" font-family="Helvetica,sans-Serif" font-size="10.00">+ setWeight()</text>
<text text-anchor="start" x="98.5" y="-29.5" font-family="Helvetica,sans-Serif" font-size="10.00">+ numOfCons()</text>
<text text-anchor="start" x="98.5" y="-18.5" font-family="Helvetica,sans-Serif" font-size="10.00">+ show()</text>
<text text-anchor="start" x="98.5" y="-7.5" font-family="Helvetica,sans-Serif" font-size="10.00">+ validate()</text>
</g>
<!-- Node2 -->
<g id="node2" class="node"><title>Node2</title>
<a xlink:href="class_container.html" target="_top" xlink:title="{Container\&lt; Con \&gt;\n|# collection\l|+ Container()\l+ Container()\l+ Container()\l+ Container()\l+ buildAndAppend()\l+ push_back()\l+ push_back()\l+ erase()\l+ begin()\l+ begin()\l+ end()\l+ end()\l+ reserve()\l+ reserve()\l+ resize()\l+ resize()\l+ empty()\l+ empty()\l+ size()\l+ size()\l+ clear()\l+ clear()\l+ insert()\l+ show()\l+ show()\l+ validate()\l+ validate()\l+ load()\l+ store()\l+ append()\l+ operator[]()\l}">
<polygon fill="white" stroke="black" points="87,-380.5 87,-767.5 197,-767.5 197,-380.5 87,-380.5"/>
<text text-anchor="middle" x="142" y="-755.5" font-family="Helvetica,sans-Serif" font-size="10.00">Container&lt; Con &gt;</text>
<polyline fill="none" stroke="black" points="87,-748.5 197,-748.5 "/>
<text text-anchor="start" x="95" y="-736.5" font-family="Helvetica,sans-Serif" font-size="10.00"># collection</text>
<polyline fill="none" stroke="black" points="87,-729.5 197,-729.5 "/>
<text text-anchor="start" x="95" y="-717.5" font-family="Helvetica,sans-Serif" font-size="10.00">+ Container()</text>
<text text-anchor="start" x="95" y="-706.5" font-family="Helvetica,sans-Serif" font-size="10.00">+ Container()</text>
<text text-anchor="start" x="95" y="-695.5" font-family="Helvetica,sans-Serif" font-size="10.00">+ Container()</text>
<text text-anchor="start" x="95" y="-684.5" font-family="Helvetica,sans-Serif" font-size="10.00">+ Container()</text>
<text text-anchor="start" x="95" y="-673.5" font-family="Helvetica,sans-Serif" font-size="10.00">+ buildAndAppend()</text>
<text text-anchor="start" x="95" y="-662.5" font-family="Helvetica,sans-Serif" font-size="10.00">+ push_back()</text>
<text text-anchor="start" x="95" y="-651.5" font-family="Helvetica,sans-Serif" font-size="10.00">+ push_back()</text>
<text text-anchor="start" x="95" y="-640.5" font-family="Helvetica,sans-Serif" font-size="10.00">+ erase()</text>
<text text-anchor="start" x="95" y="-629.5" font-family="Helvetica,sans-Serif" font-size="10.00">+ begin()</text>
<text text-anchor="start" x="95" y="-618.5" font-family="Helvetica,sans-Serif" font-size="10.00">+ begin()</text>
<text text-anchor="start" x="95" y="-607.5" font-family="Helvetica,sans-Serif" font-size="10.00">+ end()</text>
<text text-anchor="start" x="95" y="-596.5" font-family="Helvetica,sans-Serif" font-size="10.00">+ end()</text>
<text text-anchor="start" x="95" y="-585.5" font-family="Helvetica,sans-Serif" font-size="10.00">+ reserve()</text>
<text text-anchor="start" x="95" y="-574.5" font-family="Helvetica,sans-Serif" font-size="10.00">+ reserve()</text>
<text text-anchor="start" x="95" y="-563.5" font-family="Helvetica,sans-Serif" font-size="10.00">+ resize()</text>
<text text-anchor="start" x="95" y="-552.5" font-family="Helvetica,sans-Serif" font-size="10.00">+ resize()</text>
<text text-anchor="start" x="95" y="-541.5" font-family="Helvetica,sans-Serif" font-size="10.00">+ empty()</text>
<text text-anchor="start" x="95" y="-530.5" font-family="Helvetica,sans-Serif" font-size="10.00">+ empty()</text>
<text text-anchor="start" x="95" y="-519.5" font-family="Helvetica,sans-Serif" font-size="10.00">+ size()</text>
<text text-anchor="start" x="95" y="-508.5" font-family="Helvetica,sans-Serif" font-size="10.00">+ size()</text>
<text text-anchor="start" x="95" y="-497.5" font-family="Helvetica,sans-Serif" font-size="10.00">+ clear()</text>
<text text-anchor="start" x="95" y="-486.5" font-family="Helvetica,sans-Serif" font-size="10.00">+ clear()</text>
<text text-anchor="start" x="95" y="-475.5" font-family="Helvetica,sans-Serif" font-size="10.00">+ insert()</text>
<text text-anchor="start" x="95" y="-464.5" font-family="Helvetica,sans-Serif" font-size="10.00">+ show()</text>
<text text-anchor="start" x="95" y="-453.5" font-family="Helvetica,sans-Serif" font-size="10.00">+ show()</text>
<text text-anchor="start" x="95" y="-442.5" font-family="Helvetica,sans-Serif" font-size="10.00">+ validate()</text>
<text text-anchor="start" x="95" y="-431.5" font-family="Helvetica,sans-Serif" font-size="10.00">+ validate()</text>
<text text-anchor="start" x="95" y="-420.5" font-family="Helvetica,sans-Serif" font-size="10.00">+ load()</text>
<text text-anchor="start" x="95" y="-409.5" font-family="Helvetica,sans-Serif" font-size="10.00">+ store()</text>
<text text-anchor="start" x="95" y="-398.5" font-family="Helvetica,sans-Serif" font-size="10.00">+ append()</text>
<text text-anchor="start" x="95" y="-387.5" font-family="Helvetica,sans-Serif" font-size="10.00">+ operator[]()</text>
</a>
</g>
<!-- Node2&#45;&gt;Node1 -->
<g id="edge2" class="edge"><title>Node2&#45;&gt;Node1</title>
<path fill="none" stroke="#9a32cd" stroke-dasharray="5,2" d="M142,-370.255C142,-353.892 142,-337.505 142,-321.51"/>
<polygon fill="#9a32cd" stroke="#9a32cd" points="142,-380.436 137.5,-370.436 142,-375.436 142,-370.436 142,-370.436 142,-370.436 142,-375.436 146.5,-370.437 142,-380.436 142,-380.436"/>
<text text-anchor="middle" x="157" y="-354" font-family="Helvetica,sans-Serif" font-size="10.00">nCons</text>
<text text-anchor="middle" x="157" y="-343" font-family="Helvetica,sans-Serif" font-size="10.00">con</text>
</g>
<!-- Node3 -->
<g id="node4" class="node"><title>Node3</title>
<polygon fill="white" stroke="#bfbfbf" points="0,-1222.5 0,-1279.5 200,-1279.5 200,-1222.5 0,-1222.5"/>
<text text-anchor="middle" x="100" y="-1267.5" font-family="Helvetica,sans-Serif" font-size="10.00">std::vector&lt; boost::shared_ptr&lt; Con &gt; &gt;</text>
<polyline fill="none" stroke="#bfbfbf" points="0,-1260.5 200,-1260.5 "/>
<text text-anchor="start" x="8" y="-1248.5" font-family="Helvetica,sans-Serif" font-size="10.00">&#45; elements</text>
<polyline fill="none" stroke="#bfbfbf" points="0,-1241.5 200,-1241.5 "/>
<text text-anchor="middle" x="100" y="-1229.5" font-family="Helvetica,sans-Serif" font-size="10.00"> </text>
</g>
<!-- Node3&#45;&gt;Node2 -->
<g id="edge4" class="edge"><title>Node3&#45;&gt;Node2</title>
<path fill="none" stroke="#9a32cd" stroke-dasharray="5,2" d="M100.332,-1211.86C101.208,-1136.25 104.313,-962.021 115,-816 116.152,-800.254 117.547,-783.95 119.087,-767.588"/>
<polygon fill="#9a32cd" stroke="#9a32cd" points="100.218,-1222.29 95.8277,-1212.24 100.273,-1217.29 100.327,-1212.29 100.327,-1212.29 100.327,-1212.29 100.273,-1217.29 104.827,-1212.34 100.218,-1222.29 100.218,-1222.29"/>
<text text-anchor="middle" x="137.5" y="-1007.5" font-family="Helvetica,sans-Serif" font-size="10.00">collection</text>
</g>
<!-- Node4 -->
<g id="node6" class="node"><title>Node4</title>
<a xlink:title="STL class.">
<polygon fill="white" stroke="#bfbfbf" points="125.5,-1404.5 125.5,-1461.5 214.5,-1461.5 214.5,-1404.5 125.5,-1404.5"/>
<text text-anchor="middle" x="170" y="-1449.5" font-family="Helvetica,sans-Serif" font-size="10.00">std::vector&lt; T &gt;</text>
<polyline fill="none" stroke="#bfbfbf" points="125.5,-1442.5 214.5,-1442.5 "/>
<text text-anchor="start" x="133.5" y="-1430.5" font-family="Helvetica,sans-Serif" font-size="10.00">&#45; elements</text>
<polyline fill="none" stroke="#bfbfbf" points="125.5,-1423.5 214.5,-1423.5 "/>
<text text-anchor="middle" x="170" y="-1411.5" font-family="Helvetica,sans-Serif" font-size="10.00"> </text>
</a>
</g>
<!-- Node4&#45;&gt;Node3 -->
<g id="edge6" class="edge"><title>Node4&#45;&gt;Node3</title>
<path fill="none" stroke="orange" stroke-dasharray="5,2" d="M116.558,-1412.25C105.577,-1405.63 95.4196,-1397.03 89,-1386 69.9765,-1353.32 79.4346,-1308.34 88.9452,-1279.71"/>
<polygon fill="orange" stroke="orange" points="115.035,-1415.41 125.486,-1417.14 118.4,-1409.27 115.035,-1415.41"/>
<text text-anchor="middle" x="156" y="-1377.5" font-family="Helvetica,sans-Serif" font-size="10.00">&lt; boost::shared_ptr&lt; Con &gt; &gt;</text>
</g>
<!-- Node7 -->
<g id="node12" class="node"><title>Node7</title>
<polygon fill="white" stroke="#bfbfbf" points="150,-1298.5 150,-1355.5 338,-1355.5 338,-1298.5 150,-1298.5"/>
<text text-anchor="middle" x="244" y="-1343.5" font-family="Helvetica,sans-Serif" font-size="10.00">std::vector&lt; boost::shared_ptr&lt; T &gt; &gt;</text>
<polyline fill="none" stroke="#bfbfbf" points="150,-1336.5 338,-1336.5 "/>
<text text-anchor="start" x="158" y="-1324.5" font-family="Helvetica,sans-Serif" font-size="10.00">&#45; elements</text>
<polyline fill="none" stroke="#bfbfbf" points="150,-1317.5 338,-1317.5 "/>
<text text-anchor="middle" x="244" y="-1305.5" font-family="Helvetica,sans-Serif" font-size="10.00"> </text>
</g>
<!-- Node4&#45;&gt;Node7 -->
<g id="edge14" class="edge"><title>Node4&#45;&gt;Node7</title>
<path fill="none" stroke="orange" stroke-dasharray="5,2" d="M217.929,-1397.31C221.274,-1393.74 224.36,-1389.96 227,-1386 232.999,-1377.01 236.923,-1365.87 239.47,-1355.75"/>
<polygon fill="orange" stroke="orange" points="215.446,-1394.85 210.76,-1404.35 220.349,-1399.84 215.446,-1394.85"/>
<text text-anchor="middle" x="293.5" y="-1377.5" font-family="Helvetica,sans-Serif" font-size="10.00">&lt; boost::shared_ptr&lt; T &gt; &gt;</text>
</g>
<!-- Node5 -->
<g id="node8" class="node"><title>Node5</title>
<polygon fill="white" stroke="#bfbfbf" points="155.5,-1510.5 155.5,-1567.5 184.5,-1567.5 184.5,-1510.5 155.5,-1510.5"/>
<text text-anchor="middle" x="170" y="-1555.5" font-family="Helvetica,sans-Serif" font-size="10.00">T</text>
<polyline fill="none" stroke="#bfbfbf" points="155.5,-1548.5 184.5,-1548.5 "/>
<text text-anchor="middle" x="170" y="-1536.5" font-family="Helvetica,sans-Serif" font-size="10.00"> </text>
<polyline fill="none" stroke="#bfbfbf" points="155.5,-1529.5 184.5,-1529.5 "/>
<text text-anchor="middle" x="170" y="-1517.5" font-family="Helvetica,sans-Serif" font-size="10.00"> </text>
</g>
<!-- Node5&#45;&gt;Node4 -->
<g id="edge8" class="edge"><title>Node5&#45;&gt;Node4</title>
<path fill="none" stroke="#9a32cd" stroke-dasharray="5,2" d="M170,-1500.1C170,-1487.4 170,-1473.49 170,-1461.73"/>
<polygon fill="#9a32cd" stroke="#9a32cd" points="170,-1510.4 165.5,-1500.4 170,-1505.4 170,-1500.4 170,-1500.4 170,-1500.4 170,-1505.4 174.5,-1500.4 170,-1510.4 170,-1510.4"/>
<text text-anchor="middle" x="191.5" y="-1483.5" font-family="Helvetica,sans-Serif" font-size="10.00">elements</text>
</g>
<!-- Node6 -->
<g id="node10" class="node"><title>Node6</title>
<a xlink:href="class_container.html" target="_top" xlink:title="class Container &#45;">
<polygon fill="white" stroke="black" points="169,-816.5 169,-1203.5 279,-1203.5 279,-816.5 169,-816.5"/>
<text text-anchor="middle" x="224" y="-1191.5" font-family="Helvetica,sans-Serif" font-size="10.00">Container&lt; T &gt;</text>
<polyline fill="none" stroke="black" points="169,-1184.5 279,-1184.5 "/>
<text text-anchor="start" x="177" y="-1172.5" font-family="Helvetica,sans-Serif" font-size="10.00"># collection</text>
<polyline fill="none" stroke="black" points="169,-1165.5 279,-1165.5 "/>
<text text-anchor="start" x="177" y="-1153.5" font-family="Helvetica,sans-Serif" font-size="10.00">+ Container()</text>
<text text-anchor="start" x="177" y="-1142.5" font-family="Helvetica,sans-Serif" font-size="10.00">+ Container()</text>
<text text-anchor="start" x="177" y="-1131.5" font-family="Helvetica,sans-Serif" font-size="10.00">+ buildAndAppend()</text>
<text text-anchor="start" x="177" y="-1120.5" font-family="Helvetica,sans-Serif" font-size="10.00">+ push_back()</text>
<text text-anchor="start" x="177" y="-1109.5" font-family="Helvetica,sans-Serif" font-size="10.00">+ erase()</text>
<text text-anchor="start" x="177" y="-1098.5" font-family="Helvetica,sans-Serif" font-size="10.00">+ begin()</text>
<text text-anchor="start" x="177" y="-1087.5" font-family="Helvetica,sans-Serif" font-size="10.00">+ end()</text>
<text text-anchor="start" x="177" y="-1076.5" font-family="Helvetica,sans-Serif" font-size="10.00">+ reserve()</text>
<text text-anchor="start" x="177" y="-1065.5" font-family="Helvetica,sans-Serif" font-size="10.00">+ resize()</text>
<text text-anchor="start" x="177" y="-1054.5" font-family="Helvetica,sans-Serif" font-size="10.00">+ empty()</text>
<text text-anchor="start" x="177" y="-1043.5" font-family="Helvetica,sans-Serif" font-size="10.00">+ size()</text>
<text text-anchor="start" x="177" y="-1032.5" font-family="Helvetica,sans-Serif" font-size="10.00">+ clear()</text>
<text text-anchor="start" x="177" y="-1021.5" font-family="Helvetica,sans-Serif" font-size="10.00">+ insert()</text>
<text text-anchor="start" x="177" y="-1010.5" font-family="Helvetica,sans-Serif" font-size="10.00">+ show()</text>
<text text-anchor="start" x="177" y="-999.5" font-family="Helvetica,sans-Serif" font-size="10.00">+ validate()</text>
<text text-anchor="start" x="177" y="-988.5" font-family="Helvetica,sans-Serif" font-size="10.00">+ Container()</text>
<text text-anchor="start" x="177" y="-977.5" font-family="Helvetica,sans-Serif" font-size="10.00">+ Container()</text>
<text text-anchor="start" x="177" y="-966.5" font-family="Helvetica,sans-Serif" font-size="10.00">+ begin()</text>
<text text-anchor="start" x="177" y="-955.5" font-family="Helvetica,sans-Serif" font-size="10.00">+ end()</text>
<text text-anchor="start" x="177" y="-944.5" font-family="Helvetica,sans-Serif" font-size="10.00">+ load()</text>
<text text-anchor="start" x="177" y="-933.5" font-family="Helvetica,sans-Serif" font-size="10.00">+ store()</text>
<text text-anchor="start" x="177" y="-922.5" font-family="Helvetica,sans-Serif" font-size="10.00">+ size()</text>
<text text-anchor="start" x="177" y="-911.5" font-family="Helvetica,sans-Serif" font-size="10.00">+ push_back()</text>
<text text-anchor="start" x="177" y="-900.5" font-family="Helvetica,sans-Serif" font-size="10.00">+ append()</text>
<text text-anchor="start" x="177" y="-889.5" font-family="Helvetica,sans-Serif" font-size="10.00">+ show()</text>
<text text-anchor="start" x="177" y="-878.5" font-family="Helvetica,sans-Serif" font-size="10.00">+ validate()</text>
<text text-anchor="start" x="177" y="-867.5" font-family="Helvetica,sans-Serif" font-size="10.00">+ reserve()</text>
<text text-anchor="start" x="177" y="-856.5" font-family="Helvetica,sans-Serif" font-size="10.00">+ resize()</text>
<text text-anchor="start" x="177" y="-845.5" font-family="Helvetica,sans-Serif" font-size="10.00">+ empty()</text>
<text text-anchor="start" x="177" y="-834.5" font-family="Helvetica,sans-Serif" font-size="10.00">+ clear()</text>
<text text-anchor="start" x="177" y="-823.5" font-family="Helvetica,sans-Serif" font-size="10.00">+ operator[]()</text>
</a>
</g>
<!-- Node6&#45;&gt;Node2 -->
<g id="edge10" class="edge"><title>Node6&#45;&gt;Node2</title>
<path fill="none" stroke="orange" stroke-dasharray="5,2" d="M185.747,-806.539C183.299,-793.583 180.838,-780.557 178.399,-767.648"/>
<polygon fill="orange" stroke="orange" points="182.32,-807.254 187.616,-816.43 189.198,-805.954 182.32,-807.254"/>
<text text-anchor="middle" x="201" y="-789.5" font-family="Helvetica,sans-Serif" font-size="10.00">&lt; Con &gt;</text>
</g>
<!-- Node7&#45;&gt;Node6 -->
<g id="edge12" class="edge"><title>Node7&#45;&gt;Node6</title>
<path fill="none" stroke="#9a32cd" stroke-dasharray="5,2" d="M241.608,-1288.33C240.19,-1265.99 238.273,-1235.8 236.225,-1203.54"/>
<polygon fill="#9a32cd" stroke="#9a32cd" points="242.243,-1298.32 237.118,-1288.63 241.926,-1293.33 241.609,-1288.34 241.609,-1288.34 241.609,-1288.34 241.926,-1293.33 246.1,-1288.06 242.243,-1298.32 242.243,-1298.32"/>
<text text-anchor="middle" x="262.5" y="-1248.5" font-family="Helvetica,sans-Serif" font-size="10.00">collection</text>
</g>
</g>
</svg>
