<?xml version="1.0" encoding="UTF-8" standalone="no"?>
<!DOCTYPE svg PUBLIC "-//W3C//DTD SVG 1.1//EN"
 "http://www.w3.org/Graphics/SVG/1.1/DTD/svg11.dtd">
<!-- Generated by graphviz version 2.28.0 (20110610.2051)
 -->
<!-- Title: G Pages: 1 -->
<svg width="346pt" height="66pt"
 viewBox="0.00 0.00 346.00 66.00" xmlns="http://www.w3.org/2000/svg" xmlns:xlink="http://www.w3.org/1999/xlink">
<g id="graph1" class="graph" transform="scale(1 1) rotate(0) translate(4 62)">
<title>G</title>
<polygon fill="white" stroke="white" points="-4,5 -4,-62 343,-62 343,5 -4,5"/>
<!-- Node1 -->
<g id="node1" class="node"><title>Node1</title>
<polygon fill="#bfbfbf" stroke="black" points="0.5,-19.5 0.5,-38.5 141.5,-38.5 141.5,-19.5 0.5,-19.5"/>
<text text-anchor="middle" x="71" y="-26.5" font-family="Helvetica,sans-Serif" font-size="10.00">NetworkRinterface::predict</text>
</g>
<!-- Node2 -->
<g id="node3" class="node"><title>Node2</title>
<a xlink:href="class_network_rinterface.html#ae82e946eb0ad4fc532803ee2e34d4e08" target="_top" xlink:title="NetworkRinterface::inputSize">
<polygon fill="white" stroke="black" points="182,-38.5 182,-57.5 334,-57.5 334,-38.5 182,-38.5"/>
<text text-anchor="middle" x="258" y="-45.5" font-family="Helvetica,sans-Serif" font-size="10.00">NetworkRinterface::inputSize</text>
</a>
</g>
<!-- Node1&#45;&gt;Node2 -->
<g id="edge2" class="edge"><title>Node1&#45;&gt;Node2</title>
<path fill="none" stroke="midnightblue" d="M141.677,-36.156C151.51,-37.1659 161.71,-38.2134 171.793,-39.249"/>
<polygon fill="midnightblue" stroke="midnightblue" points="171.515,-42.7388 181.82,-40.2788 172.23,-35.7754 171.515,-42.7388"/>
</g>
<!-- Node3 -->
<g id="node5" class="node"><title>Node3</title>
<a xlink:href="class_network_rinterface.html#a4e5243781bd453c3abd2baea0713f7dc" target="_top" xlink:title="NetworkRinterface::outputSize">
<polygon fill="white" stroke="black" points="178.5,-0.5 178.5,-19.5 337.5,-19.5 337.5,-0.5 178.5,-0.5"/>
<text text-anchor="middle" x="258" y="-7.5" font-family="Helvetica,sans-Serif" font-size="10.00">NetworkRinterface::outputSize</text>
</a>
</g>
<!-- Node1&#45;&gt;Node3 -->
<g id="edge4" class="edge"><title>Node1&#45;&gt;Node3</title>
<path fill="none" stroke="midnightblue" d="M141.677,-21.844C150.384,-20.9498 159.379,-20.026 168.326,-19.1071"/>
<polygon fill="midnightblue" stroke="midnightblue" points="168.799,-22.577 178.389,-18.0736 168.084,-15.6136 168.799,-22.577"/>
</g>
</g>
</svg>
