<?xml version="1.0" encoding="UTF-8" standalone="no"?>
<!DOCTYPE svg PUBLIC "-//W3C//DTD SVG 1.1//EN"
 "http://www.w3.org/Graphics/SVG/1.1/DTD/svg11.dtd">
<!-- Generated by graphviz version 2.25.20091207.0545 (20091207.0545)
 -->
<!-- Title: G Pages: 1 -->
<svg width="369pt" height="764pt"
 viewBox="0.00 0.00 369.00 764.00" xmlns="http://www.w3.org/2000/svg" xmlns:xlink="http://www.w3.org/1999/xlink">
<g id="graph1" class="graph" transform="scale(1 1) rotate(0) translate(4 760)">
<title>G</title>
<polygon fill="white" stroke="white" points="-4,5 -4,-760 366,-760 366,5 -4,5"/>
<!-- Node1 -->
<g id="node1" class="node"><title>Node1</title>
<polygon fill="#bfbfbf" stroke="black" points="126.5,-0.5 126.5,-57.5 189.5,-57.5 189.5,-0.5 126.5,-0.5"/>
<text text-anchor="middle" x="158" y="-44.5" font-family="Helvetica,sans-Serif" font-size="10.00">vecNeuron</text>
<polyline fill="none" stroke="black" points="126.5,-38.5 189.5,-38.5 "/>
<text text-anchor="middle" x="158" y="-25.5" font-family="Helvetica,sans-Serif" font-size="10.00"> </text>
<polyline fill="none" stroke="black" points="126.5,-19.5 189.5,-19.5 "/>
<text text-anchor="middle" x="158" y="-6.5" font-family="Helvetica,sans-Serif" font-size="10.00"> </text>
</g>
<!-- Node2 -->
<g id="node2" class="node"><title>Node2</title>
<a xlink:href="classvec_a_m_o_r_e.html" target="_top" xlink:title="{vecAMORE\&lt; Neuron \&gt;\n|# ldata\l|+ getLdata()\l+ setLdata()\l+ size()\l+ push_back()\l+ append()\l+ show()\l+ validate()\l}">
<polygon fill="white" stroke="black" points="99,-96.5 99,-219.5 217,-219.5 217,-96.5 99,-96.5"/>
<text text-anchor="middle" x="158" y="-206.5" font-family="Helvetica,sans-Serif" font-size="10.00">vecAMORE&lt; Neuron &gt;</text>
<polyline fill="none" stroke="black" points="99,-200.5 217,-200.5 "/>
<text text-anchor="start" x="107" y="-187.5" font-family="Helvetica,sans-Serif" font-size="10.00"># ldata</text>
<polyline fill="none" stroke="black" points="99,-181.5 217,-181.5 "/>
<text text-anchor="start" x="107" y="-168.5" font-family="Helvetica,sans-Serif" font-size="10.00">+ getLdata()</text>
<text text-anchor="start" x="107" y="-157.5" font-family="Helvetica,sans-Serif" font-size="10.00">+ setLdata()</text>
<text text-anchor="start" x="107" y="-146.5" font-family="Helvetica,sans-Serif" font-size="10.00">+ size()</text>
<text text-anchor="start" x="107" y="-135.5" font-family="Helvetica,sans-Serif" font-size="10.00">+ push_back()</text>
<text text-anchor="start" x="107" y="-124.5" font-family="Helvetica,sans-Serif" font-size="10.00">+ append()</text>
<text text-anchor="start" x="107" y="-113.5" font-family="Helvetica,sans-Serif" font-size="10.00">+ show()</text>
<text text-anchor="start" x="107" y="-102.5" font-family="Helvetica,sans-Serif" font-size="10.00">+ validate()</text>
</a>
</g>
<!-- Node2&#45;&gt;Node1 -->
<g id="edge2" class="edge"><title>Node2&#45;&gt;Node1</title>
<path fill="none" stroke="midnightblue" d="M158,-86.0654C158,-76.0304 158,-66.2386 158,-57.6793"/>
<polygon fill="none" stroke="midnightblue" points="154.5,-86.1448 158,-96.1448 161.5,-86.1449 154.5,-86.1448"/>
</g>
<!-- Node3 -->
<g id="node4" class="node"><title>Node3</title>
<polygon fill="white" stroke="#bfbfbf" points="0,-410.5 0,-467.5 206,-467.5 206,-410.5 0,-410.5"/>
<text text-anchor="middle" x="103" y="-454.5" font-family="Helvetica,sans-Serif" font-size="10.00">std::vector&lt; boost::shared_ptr&lt; Neuron &gt; &gt;</text>
<polyline fill="none" stroke="#bfbfbf" points="0,-448.5 206,-448.5 "/>
<text text-anchor="start" x="8" y="-435.5" font-family="Helvetica,sans-Serif" font-size="10.00">&#45; elements</text>
<polyline fill="none" stroke="#bfbfbf" points="0,-429.5 206,-429.5 "/>
<text text-anchor="middle" x="103" y="-416.5" font-family="Helvetica,sans-Serif" font-size="10.00"> </text>
</g>
<!-- Node3&#45;&gt;Node2 -->
<g id="edge4" class="edge"><title>Node3&#45;&gt;Node2</title>
<path fill="none" stroke="#9a32cd" stroke-dasharray="5,2" d="M110.585,-400.25C119.708,-353.636 135.139,-274.799 145.911,-219.764"/>
<polygon fill="#9a32cd" stroke="#9a32cd" points="108.627,-410.249 106.132,-399.57 109.588,-405.342 110.548,-400.435 110.548,-400.435 110.548,-400.435 109.588,-405.342 114.965,-401.299 108.627,-410.249 108.627,-410.249"/>
<text text-anchor="middle" x="147.5" y="-326.5" font-family="Helvetica,sans-Serif" font-size="10.00">ldata</text>
</g>
<!-- Node4 -->
<g id="node6" class="node"><title>Node4</title>
<a xlink:title="STL class.">
<polygon fill="white" stroke="#bfbfbf" points="132.5,-592.5 132.5,-649.5 219.5,-649.5 219.5,-592.5 132.5,-592.5"/>
<text text-anchor="middle" x="176" y="-636.5" font-family="Helvetica,sans-Serif" font-size="10.00">std::vector&lt; T &gt;</text>
<polyline fill="none" stroke="#bfbfbf" points="132.5,-630.5 219.5,-630.5 "/>
<text text-anchor="start" x="140.5" y="-617.5" font-family="Helvetica,sans-Serif" font-size="10.00">&#45; elements</text>
<polyline fill="none" stroke="#bfbfbf" points="132.5,-611.5 219.5,-611.5 "/>
<text text-anchor="middle" x="176" y="-598.5" font-family="Helvetica,sans-Serif" font-size="10.00"> </text>
</a>
</g>
<!-- Node4&#45;&gt;Node3 -->
<g id="edge6" class="edge"><title>Node4&#45;&gt;Node3</title>
<path fill="none" stroke="orange" stroke-dasharray="5,2" d="M123.256,-603.422C110.116,-596.402 97.6162,-586.842 90,-574 70.6621,-541.394 80.7895,-496.405 90.9689,-467.504"/>
<polygon fill="orange" stroke="orange" points="121.881,-606.645 132.403,-607.885 124.95,-600.354 121.881,-606.645"/>
<text text-anchor="middle" x="161.5" y="-564.5" font-family="Helvetica,sans-Serif" font-size="10.00">&lt; boost::shared_ptr&lt; Neuron &gt; &gt;</text>
</g>
<!-- Node7 -->
<g id="node12" class="node"><title>Node7</title>
<polygon fill="white" stroke="#bfbfbf" points="164,-486.5 164,-543.5 344,-543.5 344,-486.5 164,-486.5"/>
<text text-anchor="middle" x="254" y="-530.5" font-family="Helvetica,sans-Serif" font-size="10.00">std::vector&lt; boost::shared_ptr&lt; T &gt; &gt;</text>
<polyline fill="none" stroke="#bfbfbf" points="164,-524.5 344,-524.5 "/>
<text text-anchor="start" x="172" y="-511.5" font-family="Helvetica,sans-Serif" font-size="10.00">&#45; elements</text>
<polyline fill="none" stroke="#bfbfbf" points="164,-505.5 344,-505.5 "/>
<text text-anchor="middle" x="254" y="-492.5" font-family="Helvetica,sans-Serif" font-size="10.00"> </text>
</g>
<!-- Node4&#45;&gt;Node7 -->
<g id="edge14" class="edge"><title>Node4&#45;&gt;Node7</title>
<path fill="none" stroke="orange" stroke-dasharray="5,2" d="M227.038,-586.053C230.72,-582.271 234.113,-578.244 237,-574 243.116,-565.01 247.057,-553.818 249.586,-543.605"/>
<polygon fill="orange" stroke="orange" points="224.531,-583.605 219.657,-593.012 229.334,-588.698 224.531,-583.605"/>
<text text-anchor="middle" x="302" y="-564.5" font-family="Helvetica,sans-Serif" font-size="10.00">&lt; boost::shared_ptr&lt; T &gt; &gt;</text>
</g>
<!-- Node5 -->
<g id="node8" class="node"><title>Node5</title>
<polygon fill="white" stroke="#bfbfbf" points="161.5,-698.5 161.5,-755.5 190.5,-755.5 190.5,-698.5 161.5,-698.5"/>
<text text-anchor="middle" x="176" y="-742.5" font-family="Helvetica,sans-Serif" font-size="10.00">T</text>
<polyline fill="none" stroke="#bfbfbf" points="161.5,-736.5 190.5,-736.5 "/>
<text text-anchor="middle" x="176" y="-723.5" font-family="Helvetica,sans-Serif" font-size="10.00"> </text>
<polyline fill="none" stroke="#bfbfbf" points="161.5,-717.5 190.5,-717.5 "/>
<text text-anchor="middle" x="176" y="-704.5" font-family="Helvetica,sans-Serif" font-size="10.00"> </text>
</g>
<!-- Node5&#45;&gt;Node4 -->
<g id="edge8" class="edge"><title>Node5&#45;&gt;Node4</title>
<path fill="none" stroke="#9a32cd" stroke-dasharray="5,2" d="M176,-688.005C176,-675.326 176,-661.494 176,-649.708"/>
<polygon fill="#9a32cd" stroke="#9a32cd" points="176,-698.315 171.5,-688.315 176,-693.315 176,-688.315 176,-688.315 176,-688.315 176,-693.315 180.5,-688.315 176,-698.315 176,-698.315"/>
<text text-anchor="middle" x="196" y="-670.5" font-family="Helvetica,sans-Serif" font-size="10.00">elements</text>
</g>
<!-- Node6 -->
<g id="node10" class="node"><title>Node6</title>
<a xlink:href="classvec_a_m_o_r_e.html" target="_top" xlink:title="{vecAMORE\&lt; T \&gt;\n|# ldata\l|+ getLdata()\l+ setLdata()\l+ size()\l+ push_back()\l+ append()\l+ show()\l+ validate()\l}">
<polygon fill="white" stroke="black" points="175.5,-268.5 175.5,-391.5 268.5,-391.5 268.5,-268.5 175.5,-268.5"/>
<text text-anchor="middle" x="222" y="-378.5" font-family="Helvetica,sans-Serif" font-size="10.00">vecAMORE&lt; T &gt;</text>
<polyline fill="none" stroke="black" points="175.5,-372.5 268.5,-372.5 "/>
<text text-anchor="start" x="183.5" y="-359.5" font-family="Helvetica,sans-Serif" font-size="10.00"># ldata</text>
<polyline fill="none" stroke="black" points="175.5,-353.5 268.5,-353.5 "/>
<text text-anchor="start" x="183.5" y="-340.5" font-family="Helvetica,sans-Serif" font-size="10.00">+ getLdata()</text>
<text text-anchor="start" x="183.5" y="-329.5" font-family="Helvetica,sans-Serif" font-size="10.00">+ setLdata()</text>
<text text-anchor="start" x="183.5" y="-318.5" font-family="Helvetica,sans-Serif" font-size="10.00">+ size()</text>
<text text-anchor="start" x="183.5" y="-307.5" font-family="Helvetica,sans-Serif" font-size="10.00">+ push_back()</text>
<text text-anchor="start" x="183.5" y="-296.5" font-family="Helvetica,sans-Serif" font-size="10.00">+ append()</text>
<text text-anchor="start" x="183.5" y="-285.5" font-family="Helvetica,sans-Serif" font-size="10.00">+ show()</text>
<text text-anchor="start" x="183.5" y="-274.5" font-family="Helvetica,sans-Serif" font-size="10.00">+ validate()</text>
</a>
</g>
<!-- Node6&#45;&gt;Node2 -->
<g id="edge10" class="edge"><title>Node6&#45;&gt;Node2</title>
<path fill="none" stroke="orange" stroke-dasharray="5,2" d="M195.584,-259.008C190.738,-245.983 185.715,-232.485 180.98,-219.758"/>
<polygon fill="orange" stroke="orange" points="192.308,-260.238 199.075,-268.39 198.868,-257.797 192.308,-260.238"/>
<text text-anchor="middle" x="216" y="-240.5" font-family="Helvetica,sans-Serif" font-size="10.00">&lt; Neuron &gt;</text>
</g>
<!-- Node7&#45;&gt;Node6 -->
<g id="edge12" class="edge"><title>Node7&#45;&gt;Node6</title>
<path fill="none" stroke="#9a32cd" stroke-dasharray="5,2" d="M247.345,-476.528C243.115,-452.073 237.543,-419.861 232.701,-391.868"/>
<polygon fill="#9a32cd" stroke="#9a32cd" points="249.07,-486.499 242.931,-477.413 248.218,-481.572 247.366,-476.646 247.366,-476.646 247.366,-476.646 248.218,-481.572 251.8,-475.878 249.07,-486.499 249.07,-486.499"/>
<text text-anchor="middle" x="255.5" y="-435.5" font-family="Helvetica,sans-Serif" font-size="10.00">ldata</text>
</g>
</g>
</svg>
