<?xml version="1.0" encoding="UTF-8" standalone="no"?>
<!DOCTYPE svg PUBLIC "-//W3C//DTD SVG 1.1//EN"
 "http://www.w3.org/Graphics/SVG/1.1/DTD/svg11.dtd">
<!-- Generated by graphviz version 2.25.20091207.0545 (20091207.0545)
 -->
<!-- Title: G Pages: 1 -->
<svg width="351pt" height="830pt"
 viewBox="0.00 0.00 351.00 830.00" xmlns="http://www.w3.org/2000/svg" xmlns:xlink="http://www.w3.org/1999/xlink">
<g id="graph1" class="graph" transform="scale(1 1) rotate(0) translate(4 826)">
<title>G</title>
<polygon fill="white" stroke="white" points="-4,5 -4,-826 348,-826 348,5 -4,5"/>
<!-- Node1 -->
<g id="node1" class="node"><title>Node1</title>
<polygon fill="#bfbfbf" stroke="black" points="95,-0.5 95,-123.5 197,-123.5 197,-0.5 95,-0.5"/>
<text text-anchor="middle" x="146" y="-110.5" font-family="Helvetica,sans-Serif" font-size="10.00">vecCon</text>
<polyline fill="none" stroke="black" points="95,-104.5 197,-104.5 "/>
<text text-anchor="middle" x="146" y="-91.5" font-family="Helvetica,sans-Serif" font-size="10.00"> </text>
<polyline fill="none" stroke="black" points="95,-85.5 197,-85.5 "/>
<text text-anchor="start" x="103" y="-72.5" font-family="Helvetica,sans-Serif" font-size="10.00">+ numOfCons()</text>
<text text-anchor="start" x="103" y="-61.5" font-family="Helvetica,sans-Serif" font-size="10.00">+ getFromId()</text>
<text text-anchor="start" x="103" y="-50.5" font-family="Helvetica,sans-Serif" font-size="10.00">+ buildAndAppend()</text>
<text text-anchor="start" x="103" y="-39.5" font-family="Helvetica,sans-Serif" font-size="10.00">+ getWeight()</text>
<text text-anchor="start" x="103" y="-28.5" font-family="Helvetica,sans-Serif" font-size="10.00">+ getFromNeuron()</text>
<text text-anchor="start" x="103" y="-17.5" font-family="Helvetica,sans-Serif" font-size="10.00">+ setWeight()</text>
<text text-anchor="start" x="103" y="-6.5" font-family="Helvetica,sans-Serif" font-size="10.00">+ setFromNeuron()</text>
</g>
<!-- Node2 -->
<g id="node2" class="node"><title>Node2</title>
<a xlink:href="classvec_a_m_o_r_e.html" target="_top" xlink:title="{vecAMORE\&lt; Con \&gt;\n|# ldata\l|+ getLdata()\l+ setLdata()\l+ size()\l+ push_back()\l+ append()\l+ show()\l+ validate()\l}">
<polygon fill="white" stroke="black" points="93.5,-162.5 93.5,-285.5 198.5,-285.5 198.5,-162.5 93.5,-162.5"/>
<text text-anchor="middle" x="146" y="-272.5" font-family="Helvetica,sans-Serif" font-size="10.00">vecAMORE&lt; Con &gt;</text>
<polyline fill="none" stroke="black" points="93.5,-266.5 198.5,-266.5 "/>
<text text-anchor="start" x="101.5" y="-253.5" font-family="Helvetica,sans-Serif" font-size="10.00"># ldata</text>
<polyline fill="none" stroke="black" points="93.5,-247.5 198.5,-247.5 "/>
<text text-anchor="start" x="101.5" y="-234.5" font-family="Helvetica,sans-Serif" font-size="10.00">+ getLdata()</text>
<text text-anchor="start" x="101.5" y="-223.5" font-family="Helvetica,sans-Serif" font-size="10.00">+ setLdata()</text>
<text text-anchor="start" x="101.5" y="-212.5" font-family="Helvetica,sans-Serif" font-size="10.00">+ size()</text>
<text text-anchor="start" x="101.5" y="-201.5" font-family="Helvetica,sans-Serif" font-size="10.00">+ push_back()</text>
<text text-anchor="start" x="101.5" y="-190.5" font-family="Helvetica,sans-Serif" font-size="10.00">+ append()</text>
<text text-anchor="start" x="101.5" y="-179.5" font-family="Helvetica,sans-Serif" font-size="10.00">+ show()</text>
<text text-anchor="start" x="101.5" y="-168.5" font-family="Helvetica,sans-Serif" font-size="10.00">+ validate()</text>
</a>
</g>
<!-- Node2&#45;&gt;Node1 -->
<g id="edge2" class="edge"><title>Node2&#45;&gt;Node1</title>
<path fill="none" stroke="midnightblue" d="M146,-152.058C146,-142.541 146,-132.856 146,-123.536"/>
<polygon fill="none" stroke="midnightblue" points="142.5,-152.293 146,-162.293 149.5,-152.293 142.5,-152.293"/>
</g>
<!-- Node3 -->
<g id="node4" class="node"><title>Node3</title>
<polygon fill="white" stroke="#bfbfbf" points="0,-476.5 0,-533.5 192,-533.5 192,-476.5 0,-476.5"/>
<text text-anchor="middle" x="96" y="-520.5" font-family="Helvetica,sans-Serif" font-size="10.00">std::vector&lt; boost::shared_ptr&lt; Con &gt; &gt;</text>
<polyline fill="none" stroke="#bfbfbf" points="0,-514.5 192,-514.5 "/>
<text text-anchor="start" x="8" y="-501.5" font-family="Helvetica,sans-Serif" font-size="10.00">&#45; elements</text>
<polyline fill="none" stroke="#bfbfbf" points="0,-495.5 192,-495.5 "/>
<text text-anchor="middle" x="96" y="-482.5" font-family="Helvetica,sans-Serif" font-size="10.00"> </text>
</g>
<!-- Node3&#45;&gt;Node2 -->
<g id="edge4" class="edge"><title>Node3&#45;&gt;Node2</title>
<path fill="none" stroke="#9a32cd" stroke-dasharray="5,2" d="M102.895,-466.25C111.189,-419.636 125.217,-340.799 135.01,-285.764"/>
<polygon fill="#9a32cd" stroke="#9a32cd" points="101.116,-476.249 98.4374,-465.615 101.992,-471.326 102.868,-466.403 102.868,-466.403 102.868,-466.403 101.992,-471.326 107.298,-467.192 101.116,-476.249 101.116,-476.249"/>
<text text-anchor="middle" x="137.5" y="-392.5" font-family="Helvetica,sans-Serif" font-size="10.00">ldata</text>
</g>
<!-- Node4 -->
<g id="node6" class="node"><title>Node4</title>
<a xlink:title="STL class.">
<polygon fill="white" stroke="#bfbfbf" points="120.5,-658.5 120.5,-715.5 207.5,-715.5 207.5,-658.5 120.5,-658.5"/>
<text text-anchor="middle" x="164" y="-702.5" font-family="Helvetica,sans-Serif" font-size="10.00">std::vector&lt; T &gt;</text>
<polyline fill="none" stroke="#bfbfbf" points="120.5,-696.5 207.5,-696.5 "/>
<text text-anchor="start" x="128.5" y="-683.5" font-family="Helvetica,sans-Serif" font-size="10.00">&#45; elements</text>
<polyline fill="none" stroke="#bfbfbf" points="120.5,-677.5 207.5,-677.5 "/>
<text text-anchor="middle" x="164" y="-664.5" font-family="Helvetica,sans-Serif" font-size="10.00"> </text>
</a>
</g>
<!-- Node4&#45;&gt;Node3 -->
<g id="edge6" class="edge"><title>Node4&#45;&gt;Node3</title>
<path fill="none" stroke="orange" stroke-dasharray="5,2" d="M111.191,-665.955C100.727,-659.266 91.1016,-650.73 85,-640 66.3434,-607.192 75.4042,-562.458 84.7607,-533.647"/>
<polygon fill="orange" stroke="orange" points="109.714,-669.145 120.118,-671.147 113.233,-663.094 109.714,-669.145"/>
<text text-anchor="middle" x="150" y="-630.5" font-family="Helvetica,sans-Serif" font-size="10.00">&lt; boost::shared_ptr&lt; Con &gt; &gt;</text>
</g>
<!-- Node7 -->
<g id="node12" class="node"><title>Node7</title>
<polygon fill="white" stroke="#bfbfbf" points="146,-552.5 146,-609.5 326,-609.5 326,-552.5 146,-552.5"/>
<text text-anchor="middle" x="236" y="-596.5" font-family="Helvetica,sans-Serif" font-size="10.00">std::vector&lt; boost::shared_ptr&lt; T &gt; &gt;</text>
<polyline fill="none" stroke="#bfbfbf" points="146,-590.5 326,-590.5 "/>
<text text-anchor="start" x="154" y="-577.5" font-family="Helvetica,sans-Serif" font-size="10.00">&#45; elements</text>
<polyline fill="none" stroke="#bfbfbf" points="146,-571.5 326,-571.5 "/>
<text text-anchor="middle" x="236" y="-558.5" font-family="Helvetica,sans-Serif" font-size="10.00"> </text>
</g>
<!-- Node4&#45;&gt;Node7 -->
<g id="edge14" class="edge"><title>Node4&#45;&gt;Node7</title>
<path fill="none" stroke="orange" stroke-dasharray="5,2" d="M210.511,-651.072C213.638,-647.549 216.523,-643.846 219,-640 224.829,-630.948 228.705,-619.855 231.261,-609.74"/>
<polygon fill="orange" stroke="orange" points="207.779,-648.862 203.342,-658.482 212.81,-653.729 207.779,-648.862"/>
<text text-anchor="middle" x="284" y="-630.5" font-family="Helvetica,sans-Serif" font-size="10.00">&lt; boost::shared_ptr&lt; T &gt; &gt;</text>
</g>
<!-- Node5 -->
<g id="node8" class="node"><title>Node5</title>
<polygon fill="white" stroke="#bfbfbf" points="149.5,-764.5 149.5,-821.5 178.5,-821.5 178.5,-764.5 149.5,-764.5"/>
<text text-anchor="middle" x="164" y="-808.5" font-family="Helvetica,sans-Serif" font-size="10.00">T</text>
<polyline fill="none" stroke="#bfbfbf" points="149.5,-802.5 178.5,-802.5 "/>
<text text-anchor="middle" x="164" y="-789.5" font-family="Helvetica,sans-Serif" font-size="10.00"> </text>
<polyline fill="none" stroke="#bfbfbf" points="149.5,-783.5 178.5,-783.5 "/>
<text text-anchor="middle" x="164" y="-770.5" font-family="Helvetica,sans-Serif" font-size="10.00"> </text>
</g>
<!-- Node5&#45;&gt;Node4 -->
<g id="edge8" class="edge"><title>Node5&#45;&gt;Node4</title>
<path fill="none" stroke="#9a32cd" stroke-dasharray="5,2" d="M164,-754.005C164,-741.326 164,-727.494 164,-715.708"/>
<polygon fill="#9a32cd" stroke="#9a32cd" points="164,-764.315 159.5,-754.315 164,-759.315 164,-754.315 164,-754.315 164,-754.315 164,-759.315 168.5,-754.315 164,-764.315 164,-764.315"/>
<text text-anchor="middle" x="184" y="-736.5" font-family="Helvetica,sans-Serif" font-size="10.00">elements</text>
</g>
<!-- Node6 -->
<g id="node10" class="node"><title>Node6</title>
<a xlink:href="classvec_a_m_o_r_e.html" target="_top" xlink:title="{vecAMORE\&lt; T \&gt;\n|# ldata\l|+ getLdata()\l+ setLdata()\l+ size()\l+ push_back()\l+ append()\l+ show()\l+ validate()\l}">
<polygon fill="white" stroke="black" points="162.5,-334.5 162.5,-457.5 255.5,-457.5 255.5,-334.5 162.5,-334.5"/>
<text text-anchor="middle" x="209" y="-444.5" font-family="Helvetica,sans-Serif" font-size="10.00">vecAMORE&lt; T &gt;</text>
<polyline fill="none" stroke="black" points="162.5,-438.5 255.5,-438.5 "/>
<text text-anchor="start" x="170.5" y="-425.5" font-family="Helvetica,sans-Serif" font-size="10.00"># ldata</text>
<polyline fill="none" stroke="black" points="162.5,-419.5 255.5,-419.5 "/>
<text text-anchor="start" x="170.5" y="-406.5" font-family="Helvetica,sans-Serif" font-size="10.00">+ getLdata()</text>
<text text-anchor="start" x="170.5" y="-395.5" font-family="Helvetica,sans-Serif" font-size="10.00">+ setLdata()</text>
<text text-anchor="start" x="170.5" y="-384.5" font-family="Helvetica,sans-Serif" font-size="10.00">+ size()</text>
<text text-anchor="start" x="170.5" y="-373.5" font-family="Helvetica,sans-Serif" font-size="10.00">+ push_back()</text>
<text text-anchor="start" x="170.5" y="-362.5" font-family="Helvetica,sans-Serif" font-size="10.00">+ append()</text>
<text text-anchor="start" x="170.5" y="-351.5" font-family="Helvetica,sans-Serif" font-size="10.00">+ show()</text>
<text text-anchor="start" x="170.5" y="-340.5" font-family="Helvetica,sans-Serif" font-size="10.00">+ validate()</text>
</a>
</g>
<!-- Node6&#45;&gt;Node2 -->
<g id="edge10" class="edge"><title>Node6&#45;&gt;Node2</title>
<path fill="none" stroke="orange" stroke-dasharray="5,2" d="M182.858,-324.628C178.13,-311.721 173.237,-298.361 168.621,-285.758"/>
<polygon fill="orange" stroke="orange" points="179.708,-326.204 186.433,-334.39 186.281,-323.796 179.708,-326.204"/>
<text text-anchor="middle" x="197" y="-306.5" font-family="Helvetica,sans-Serif" font-size="10.00">&lt; Con &gt;</text>
</g>
<!-- Node7&#45;&gt;Node6 -->
<g id="edge12" class="edge"><title>Node7&#45;&gt;Node6</title>
<path fill="none" stroke="#9a32cd" stroke-dasharray="5,2" d="M230.385,-542.528C226.816,-518.073 222.115,-485.861 218.029,-457.868"/>
<polygon fill="#9a32cd" stroke="#9a32cd" points="231.84,-552.499 225.943,-543.254 231.118,-547.552 230.396,-542.604 230.396,-542.604 230.396,-542.604 231.118,-547.552 234.849,-541.954 231.84,-552.499 231.84,-552.499"/>
<text text-anchor="middle" x="238.5" y="-501.5" font-family="Helvetica,sans-Serif" font-size="10.00">ldata</text>
</g>
</g>
</svg>
