<?xml version="1.0" encoding="UTF-8" standalone="no"?>
<!DOCTYPE svg PUBLIC "-//W3C//DTD SVG 1.1//EN"
 "http://www.w3.org/Graphics/SVG/1.1/DTD/svg11.dtd">
<!-- Generated by graphviz version 2.28.0 (20110610.2051)
 -->
<!-- Title: G Pages: 1 -->
<svg width="382pt" height="1306pt"
 viewBox="0.00 0.00 382.00 1306.00" xmlns="http://www.w3.org/2000/svg" xmlns:xlink="http://www.w3.org/1999/xlink">
<g id="graph1" class="graph" transform="scale(1 1) rotate(0) translate(4 1302)">
<title>G</title>
<polygon fill="white" stroke="white" points="-4,5 -4,-1302 379,-1302 379,5 -4,5"/>
<!-- Node1 -->
<g id="node1" class="node"><title>Node1</title>
<polygon fill="#bfbfbf" stroke="black" points="97.5,-1 97.5,-179 214.5,-179 214.5,-1 97.5,-1"/>
<text text-anchor="middle" x="156" y="-167" font-family="Helvetica,sans-Serif" font-size="10.00">NeuronContainer</text>
<polyline fill="none" stroke="black" points="97.5,-160 214.5,-160 "/>
<text text-anchor="middle" x="156" y="-148" font-family="Helvetica,sans-Serif" font-size="10.00"> </text>
<polyline fill="none" stroke="black" points="97.5,-141 214.5,-141 "/>
<text text-anchor="start" x="105.5" y="-129" font-family="Helvetica,sans-Serif" font-size="10.00">+ NeuronContainer()</text>
<text text-anchor="start" x="105.5" y="-118" font-family="Helvetica,sans-Serif" font-size="10.00">+ NeuronContainer()</text>
<text text-anchor="start" x="105.5" y="-107" font-family="Helvetica,sans-Serif" font-size="10.00">+ ~NeuronContainer()</text>
<text text-anchor="start" x="105.5" y="-96" font-family="Helvetica,sans-Serif" font-size="10.00">+ numOfNeurons()</text>
<text text-anchor="start" x="105.5" y="-85" font-family="Helvetica,sans-Serif" font-size="10.00">+ numOfCons()</text>
<text text-anchor="start" x="105.5" y="-74" font-family="Helvetica,sans-Serif" font-size="10.00">+ getId()</text>
<text text-anchor="start" x="105.5" y="-63" font-family="Helvetica,sans-Serif" font-size="10.00">+ setId()</text>
<text text-anchor="start" x="105.5" y="-52" font-family="Helvetica,sans-Serif" font-size="10.00">+ getConId()</text>
<text text-anchor="start" x="105.5" y="-41" font-family="Helvetica,sans-Serif" font-size="10.00">+ getWeight()</text>
<text text-anchor="start" x="105.5" y="-30" font-family="Helvetica,sans-Serif" font-size="10.00">+ getFrom()</text>
<text text-anchor="start" x="105.5" y="-19" font-family="Helvetica,sans-Serif" font-size="10.00">+ setFrom()</text>
<text text-anchor="start" x="105.5" y="-8" font-family="Helvetica,sans-Serif" font-size="10.00">+ setWeight()</text>
</g>
<!-- Node2 -->
<g id="node2" class="node"><title>Node2</title>
<a xlink:href="class_container.html" target="_top" xlink:title="{Container\&lt; Neuron \&gt;\n|# collection\l|+ ~Container()\l+ createIterator()\l+ push_back()\l+ push_back()\l+ reserve()\l+ reserve()\l+ empty()\l+ empty()\l+ size()\l+ size()\l+ clear()\l+ clear()\l+ show()\l+ show()\l+ validate()\l+ validate()\l+ Container()\l+ Container()\l+ begin()\l+ end()\l+ load()\l+ store()\l+ append()\l+ resize()\l+ operator[]()\l# Container()\l}">
<polygon fill="white" stroke="black" points="101,-219 101,-551 211,-551 211,-219 101,-219"/>
<text text-anchor="middle" x="156" y="-539" font-family="Helvetica,sans-Serif" font-size="10.00">Container&lt; Neuron &gt;</text>
<polyline fill="none" stroke="black" points="101,-532 211,-532 "/>
<text text-anchor="start" x="109" y="-520" font-family="Helvetica,sans-Serif" font-size="10.00"># collection</text>
<polyline fill="none" stroke="black" points="101,-513 211,-513 "/>
<text text-anchor="start" x="109" y="-501" font-family="Helvetica,sans-Serif" font-size="10.00">+ ~Container()</text>
<text text-anchor="start" x="109" y="-490" font-family="Helvetica,sans-Serif" font-size="10.00">+ createIterator()</text>
<text text-anchor="start" x="109" y="-479" font-family="Helvetica,sans-Serif" font-size="10.00">+ push_back()</text>
<text text-anchor="start" x="109" y="-468" font-family="Helvetica,sans-Serif" font-size="10.00">+ push_back()</text>
<text text-anchor="start" x="109" y="-457" font-family="Helvetica,sans-Serif" font-size="10.00">+ reserve()</text>
<text text-anchor="start" x="109" y="-446" font-family="Helvetica,sans-Serif" font-size="10.00">+ reserve()</text>
<text text-anchor="start" x="109" y="-435" font-family="Helvetica,sans-Serif" font-size="10.00">+ empty()</text>
<text text-anchor="start" x="109" y="-424" font-family="Helvetica,sans-Serif" font-size="10.00">+ empty()</text>
<text text-anchor="start" x="109" y="-413" font-family="Helvetica,sans-Serif" font-size="10.00">+ size()</text>
<text text-anchor="start" x="109" y="-402" font-family="Helvetica,sans-Serif" font-size="10.00">+ size()</text>
<text text-anchor="start" x="109" y="-391" font-family="Helvetica,sans-Serif" font-size="10.00">+ clear()</text>
<text text-anchor="start" x="109" y="-380" font-family="Helvetica,sans-Serif" font-size="10.00">+ clear()</text>
<text text-anchor="start" x="109" y="-369" font-family="Helvetica,sans-Serif" font-size="10.00">+ show()</text>
<text text-anchor="start" x="109" y="-358" font-family="Helvetica,sans-Serif" font-size="10.00">+ show()</text>
<text text-anchor="start" x="109" y="-347" font-family="Helvetica,sans-Serif" font-size="10.00">+ validate()</text>
<text text-anchor="start" x="109" y="-336" font-family="Helvetica,sans-Serif" font-size="10.00">+ validate()</text>
<text text-anchor="start" x="109" y="-325" font-family="Helvetica,sans-Serif" font-size="10.00">+ Container()</text>
<text text-anchor="start" x="109" y="-314" font-family="Helvetica,sans-Serif" font-size="10.00">+ Container()</text>
<text text-anchor="start" x="109" y="-303" font-family="Helvetica,sans-Serif" font-size="10.00">+ begin()</text>
<text text-anchor="start" x="109" y="-292" font-family="Helvetica,sans-Serif" font-size="10.00">+ end()</text>
<text text-anchor="start" x="109" y="-281" font-family="Helvetica,sans-Serif" font-size="10.00">+ load()</text>
<text text-anchor="start" x="109" y="-270" font-family="Helvetica,sans-Serif" font-size="10.00">+ store()</text>
<text text-anchor="start" x="109" y="-259" font-family="Helvetica,sans-Serif" font-size="10.00">+ append()</text>
<text text-anchor="start" x="109" y="-248" font-family="Helvetica,sans-Serif" font-size="10.00">+ resize()</text>
<text text-anchor="start" x="109" y="-237" font-family="Helvetica,sans-Serif" font-size="10.00">+ operator[]()</text>
<text text-anchor="start" x="109" y="-226" font-family="Helvetica,sans-Serif" font-size="10.00"># Container()</text>
</a>
</g>
<!-- Node2&#45;&gt;Node1 -->
<g id="edge2" class="edge"><title>Node2&#45;&gt;Node1</title>
<path fill="none" stroke="midnightblue" d="M156,-208.585C156,-198.563 156,-188.73 156,-179.282"/>
<polygon fill="none" stroke="midnightblue" points="152.5,-208.662 156,-218.662 159.5,-208.662 152.5,-208.662"/>
</g>
<!-- Node3 -->
<g id="node4" class="node"><title>Node3</title>
<polygon fill="white" stroke="#bfbfbf" points="-0.5,-952.5 -0.5,-1009.5 214.5,-1009.5 214.5,-952.5 -0.5,-952.5"/>
<text text-anchor="middle" x="107" y="-997.5" font-family="Helvetica,sans-Serif" font-size="10.00">std::vector&lt; boost::shared_ptr&lt; Neuron &gt; &gt;</text>
<polyline fill="none" stroke="#bfbfbf" points="-0.5,-990.5 214.5,-990.5 "/>
<text text-anchor="start" x="7.5" y="-978.5" font-family="Helvetica,sans-Serif" font-size="10.00">&#45; elements</text>
<polyline fill="none" stroke="#bfbfbf" points="-0.5,-971.5 214.5,-971.5 "/>
<text text-anchor="middle" x="107" y="-959.5" font-family="Helvetica,sans-Serif" font-size="10.00"> </text>
</g>
<!-- Node3&#45;&gt;Node2 -->
<g id="edge4" class="edge"><title>Node3&#45;&gt;Node2</title>
<path fill="none" stroke="#9a32cd" stroke-dasharray="5,2" d="M109.299,-942.045C113.533,-873.627 123.129,-725.088 134,-600 135.374,-584.186 136.899,-567.725 138.485,-551.268"/>
<polygon fill="#9a32cd" stroke="#9a32cd" points="108.667,-952.322 104.79,-942.065 108.974,-947.332 109.281,-942.341 109.281,-942.341 109.281,-942.341 108.974,-947.332 113.773,-942.618 108.667,-952.322 108.667,-952.322"/>
<text text-anchor="middle" x="156.5" y="-764.5" font-family="Helvetica,sans-Serif" font-size="10.00">collection</text>
</g>
<!-- Node4 -->
<g id="node6" class="node"><title>Node4</title>
<a xlink:title="STL class.">
<polygon fill="white" stroke="#bfbfbf" points="137.5,-1134.5 137.5,-1191.5 226.5,-1191.5 226.5,-1134.5 137.5,-1134.5"/>
<text text-anchor="middle" x="182" y="-1179.5" font-family="Helvetica,sans-Serif" font-size="10.00">std::vector&lt; T &gt;</text>
<polyline fill="none" stroke="#bfbfbf" points="137.5,-1172.5 226.5,-1172.5 "/>
<text text-anchor="start" x="145.5" y="-1160.5" font-family="Helvetica,sans-Serif" font-size="10.00">&#45; elements</text>
<polyline fill="none" stroke="#bfbfbf" points="137.5,-1153.5 226.5,-1153.5 "/>
<text text-anchor="middle" x="182" y="-1141.5" font-family="Helvetica,sans-Serif" font-size="10.00"> </text>
</a>
</g>
<!-- Node4&#45;&gt;Node3 -->
<g id="edge6" class="edge"><title>Node4&#45;&gt;Node3</title>
<path fill="none" stroke="orange" stroke-dasharray="5,2" d="M128.085,-1145.28C114.64,-1138.41 101.837,-1128.94 94,-1116 74.3239,-1083.51 84.8653,-1038.28 95.1901,-1009.57"/>
<polygon fill="orange" stroke="orange" points="126.899,-1148.58 137.442,-1149.62 129.847,-1142.24 126.899,-1148.58"/>
<text text-anchor="middle" x="168" y="-1107.5" font-family="Helvetica,sans-Serif" font-size="10.00">&lt; boost::shared_ptr&lt; Neuron &gt; &gt;</text>
</g>
<!-- Node7 -->
<g id="node12" class="node"><title>Node7</title>
<polygon fill="white" stroke="#bfbfbf" points="169,-1028.5 169,-1085.5 357,-1085.5 357,-1028.5 169,-1028.5"/>
<text text-anchor="middle" x="263" y="-1073.5" font-family="Helvetica,sans-Serif" font-size="10.00">std::vector&lt; boost::shared_ptr&lt; T &gt; &gt;</text>
<polyline fill="none" stroke="#bfbfbf" points="169,-1066.5 357,-1066.5 "/>
<text text-anchor="start" x="177" y="-1054.5" font-family="Helvetica,sans-Serif" font-size="10.00">&#45; elements</text>
<polyline fill="none" stroke="#bfbfbf" points="169,-1047.5 357,-1047.5 "/>
<text text-anchor="middle" x="263" y="-1035.5" font-family="Helvetica,sans-Serif" font-size="10.00"> </text>
</g>
<!-- Node4&#45;&gt;Node7 -->
<g id="edge14" class="edge"><title>Node4&#45;&gt;Node7</title>
<path fill="none" stroke="orange" stroke-dasharray="5,2" d="M234.662,-1128.92C238.864,-1124.92 242.737,-1120.61 246,-1116 252.308,-1107.1 256.297,-1095.85 258.809,-1085.64"/>
<polygon fill="orange" stroke="orange" points="232.041,-1126.56 226.805,-1135.77 236.642,-1131.84 232.041,-1126.56"/>
<text text-anchor="middle" x="313.5" y="-1107.5" font-family="Helvetica,sans-Serif" font-size="10.00">&lt; boost::shared_ptr&lt; T &gt; &gt;</text>
</g>
<!-- Node5 -->
<g id="node8" class="node"><title>Node5</title>
<polygon fill="white" stroke="#bfbfbf" points="167.5,-1240.5 167.5,-1297.5 196.5,-1297.5 196.5,-1240.5 167.5,-1240.5"/>
<text text-anchor="middle" x="182" y="-1285.5" font-family="Helvetica,sans-Serif" font-size="10.00">T</text>
<polyline fill="none" stroke="#bfbfbf" points="167.5,-1278.5 196.5,-1278.5 "/>
<text text-anchor="middle" x="182" y="-1266.5" font-family="Helvetica,sans-Serif" font-size="10.00"> </text>
<polyline fill="none" stroke="#bfbfbf" points="167.5,-1259.5 196.5,-1259.5 "/>
<text text-anchor="middle" x="182" y="-1247.5" font-family="Helvetica,sans-Serif" font-size="10.00"> </text>
</g>
<!-- Node5&#45;&gt;Node4 -->
<g id="edge8" class="edge"><title>Node5&#45;&gt;Node4</title>
<path fill="none" stroke="#9a32cd" stroke-dasharray="5,2" d="M182,-1230.1C182,-1217.4 182,-1203.49 182,-1191.73"/>
<polygon fill="#9a32cd" stroke="#9a32cd" points="182,-1240.4 177.5,-1230.4 182,-1235.4 182,-1230.4 182,-1230.4 182,-1230.4 182,-1235.4 186.5,-1230.4 182,-1240.4 182,-1240.4"/>
<text text-anchor="middle" x="203.5" y="-1213.5" font-family="Helvetica,sans-Serif" font-size="10.00">elements</text>
</g>
<!-- Node6 -->
<g id="node10" class="node"><title>Node6</title>
<a xlink:href="class_container.html" target="_top" xlink:title="class Container &#45;">
<polygon fill="white" stroke="black" points="188.5,-601 188.5,-933 285.5,-933 285.5,-601 188.5,-601"/>
<text text-anchor="middle" x="237" y="-921" font-family="Helvetica,sans-Serif" font-size="10.00">Container&lt; T &gt;</text>
<polyline fill="none" stroke="black" points="188.5,-914 285.5,-914 "/>
<text text-anchor="start" x="196.5" y="-902" font-family="Helvetica,sans-Serif" font-size="10.00"># collection</text>
<polyline fill="none" stroke="black" points="188.5,-895 285.5,-895 "/>
<text text-anchor="start" x="196.5" y="-883" font-family="Helvetica,sans-Serif" font-size="10.00">+ ~Container()</text>
<text text-anchor="start" x="196.5" y="-872" font-family="Helvetica,sans-Serif" font-size="10.00">+ createIterator()</text>
<text text-anchor="start" x="196.5" y="-861" font-family="Helvetica,sans-Serif" font-size="10.00">+ push_back()</text>
<text text-anchor="start" x="196.5" y="-850" font-family="Helvetica,sans-Serif" font-size="10.00">+ reserve()</text>
<text text-anchor="start" x="196.5" y="-839" font-family="Helvetica,sans-Serif" font-size="10.00">+ empty()</text>
<text text-anchor="start" x="196.5" y="-828" font-family="Helvetica,sans-Serif" font-size="10.00">+ size()</text>
<text text-anchor="start" x="196.5" y="-817" font-family="Helvetica,sans-Serif" font-size="10.00">+ clear()</text>
<text text-anchor="start" x="196.5" y="-806" font-family="Helvetica,sans-Serif" font-size="10.00">+ show()</text>
<text text-anchor="start" x="196.5" y="-795" font-family="Helvetica,sans-Serif" font-size="10.00">+ validate()</text>
<text text-anchor="start" x="196.5" y="-784" font-family="Helvetica,sans-Serif" font-size="10.00">+ Container()</text>
<text text-anchor="start" x="196.5" y="-773" font-family="Helvetica,sans-Serif" font-size="10.00">+ Container()</text>
<text text-anchor="start" x="196.5" y="-762" font-family="Helvetica,sans-Serif" font-size="10.00">+ begin()</text>
<text text-anchor="start" x="196.5" y="-751" font-family="Helvetica,sans-Serif" font-size="10.00">+ end()</text>
<text text-anchor="start" x="196.5" y="-740" font-family="Helvetica,sans-Serif" font-size="10.00">+ load()</text>
<text text-anchor="start" x="196.5" y="-729" font-family="Helvetica,sans-Serif" font-size="10.00">+ store()</text>
<text text-anchor="start" x="196.5" y="-718" font-family="Helvetica,sans-Serif" font-size="10.00">+ size()</text>
<text text-anchor="start" x="196.5" y="-707" font-family="Helvetica,sans-Serif" font-size="10.00">+ push_back()</text>
<text text-anchor="start" x="196.5" y="-696" font-family="Helvetica,sans-Serif" font-size="10.00">+ append()</text>
<text text-anchor="start" x="196.5" y="-685" font-family="Helvetica,sans-Serif" font-size="10.00">+ show()</text>
<text text-anchor="start" x="196.5" y="-674" font-family="Helvetica,sans-Serif" font-size="10.00">+ validate()</text>
<text text-anchor="start" x="196.5" y="-663" font-family="Helvetica,sans-Serif" font-size="10.00">+ reserve()</text>
<text text-anchor="start" x="196.5" y="-652" font-family="Helvetica,sans-Serif" font-size="10.00">+ resize()</text>
<text text-anchor="start" x="196.5" y="-641" font-family="Helvetica,sans-Serif" font-size="10.00">+ empty()</text>
<text text-anchor="start" x="196.5" y="-630" font-family="Helvetica,sans-Serif" font-size="10.00">+ clear()</text>
<text text-anchor="start" x="196.5" y="-619" font-family="Helvetica,sans-Serif" font-size="10.00">+ operator[]()</text>
<text text-anchor="start" x="196.5" y="-608" font-family="Helvetica,sans-Serif" font-size="10.00"># Container()</text>
</a>
</g>
<!-- Node6&#45;&gt;Node2 -->
<g id="edge10" class="edge"><title>Node6&#45;&gt;Node2</title>
<path fill="none" stroke="orange" stroke-dasharray="5,2" d="M199.673,-590.887C196.852,-577.653 194.011,-564.322 191.204,-551.153"/>
<polygon fill="orange" stroke="orange" points="196.318,-591.934 201.826,-600.984 203.164,-590.474 196.318,-591.934"/>
<text text-anchor="middle" x="222" y="-573.5" font-family="Helvetica,sans-Serif" font-size="10.00">&lt; Neuron &gt;</text>
</g>
<!-- Node7&#45;&gt;Node6 -->
<g id="edge12" class="edge"><title>Node7&#45;&gt;Node6</title>
<path fill="none" stroke="#9a32cd" stroke-dasharray="5,2" d="M259.591,-1018.24C257.545,-995.577 254.785,-965.003 251.897,-933.015"/>
<polygon fill="#9a32cd" stroke="#9a32cd" points="260.507,-1028.39 255.126,-1018.83 260.057,-1023.41 259.608,-1018.43 259.608,-1018.43 259.608,-1018.43 260.057,-1023.41 264.09,-1018.02 260.507,-1028.39 260.507,-1028.39"/>
<text text-anchor="middle" x="281.5" y="-978.5" font-family="Helvetica,sans-Serif" font-size="10.00">collection</text>
</g>
</g>
</svg>
