<?xml version="1.0" encoding="UTF-8" standalone="no"?>
<!DOCTYPE svg PUBLIC "-//W3C//DTD SVG 1.1//EN"
 "http://www.w3.org/Graphics/SVG/1.1/DTD/svg11.dtd">
<!-- Generated by graphviz version 2.28.0 (20110610.2051)
 -->
<!-- Title: G Pages: 1 -->
<svg width="288pt" height="104pt"
 viewBox="0.00 0.00 288.00 104.00" xmlns="http://www.w3.org/2000/svg" xmlns:xlink="http://www.w3.org/1999/xlink">
<g id="graph1" class="graph" transform="scale(1 1) rotate(0) translate(4 100)">
<title>G</title>
<polygon fill="white" stroke="white" points="-4,5 -4,-100 285,-100 285,5 -4,5"/>
<!-- Node1 -->
<g id="node1" class="node"><title>Node1</title>
<polygon fill="#bfbfbf" stroke="black" points="0,-19.5 0,-38.5 124,-38.5 124,-19.5 0,-19.5"/>
<text text-anchor="middle" x="62" y="-26.5" font-family="Helvetica,sans-Serif" font-size="10.00">ConContainer::setFrom</text>
</g>
<!-- Node2 -->
<g id="node3" class="node"><title>Node2</title>
<a xlink:href="class_container.html#ac5e2a75311f6e6a690ca67603490ddb1" target="_top" xlink:title="Container::begin">
<polygon fill="white" stroke="black" points="174,-76.5 174,-95.5 266,-95.5 266,-76.5 174,-76.5"/>
<text text-anchor="middle" x="220" y="-83.5" font-family="Helvetica,sans-Serif" font-size="10.00">Container::begin</text>
</a>
</g>
<!-- Node1&#45;&gt;Node2 -->
<g id="edge2" class="edge"><title>Node1&#45;&gt;Node2</title>
<path fill="none" stroke="midnightblue" d="M86.368,-38.6233C105.921,-46.5622 134.616,-57.9504 160,-67 165.987,-69.1343 172.351,-71.2951 178.601,-73.3566"/>
<polygon fill="midnightblue" stroke="midnightblue" points="177.664,-76.7323 188.257,-76.4963 179.829,-70.0754 177.664,-76.7323"/>
</g>
<!-- Node3 -->
<g id="node5" class="node"><title>Node3</title>
<a xlink:href="class_container.html#aeb0ba9c87519ae6b7036d72589948755" target="_top" xlink:title="Container::empty">
<polygon fill="white" stroke="black" points="172,-38.5 172,-57.5 268,-57.5 268,-38.5 172,-38.5"/>
<text text-anchor="middle" x="220" y="-45.5" font-family="Helvetica,sans-Serif" font-size="10.00">Container::empty</text>
</a>
</g>
<!-- Node1&#45;&gt;Node3 -->
<g id="edge4" class="edge"><title>Node1&#45;&gt;Node3</title>
<path fill="none" stroke="midnightblue" d="M124.208,-36.4548C136.611,-37.9655 149.61,-39.5487 161.867,-41.0415"/>
<polygon fill="midnightblue" stroke="midnightblue" points="161.609,-44.5358 171.958,-42.2706 162.455,-37.5872 161.609,-44.5358"/>
</g>
<!-- Node4 -->
<g id="node7" class="node"><title>Node4</title>
<a xlink:href="class_container.html#a359f34bc418575b474184cbe3f33527e" target="_top" xlink:title="Container\&lt; Con \&gt;::size">
<polygon fill="white" stroke="black" points="160,-0.5 160,-19.5 280,-19.5 280,-0.5 160,-0.5"/>
<text text-anchor="middle" x="220" y="-7.5" font-family="Helvetica,sans-Serif" font-size="10.00">Container&lt; Con &gt;::size</text>
</a>
</g>
<!-- Node1&#45;&gt;Node4 -->
<g id="edge6" class="edge"><title>Node1&#45;&gt;Node4</title>
<path fill="none" stroke="midnightblue" d="M95.3233,-19.4705C111.134,-16.6331 130.811,-13.8636 149.785,-11.7183"/>
<polygon fill="midnightblue" stroke="midnightblue" points="150.353,-15.1773 159.921,-10.6253 149.603,-8.21766 150.353,-15.1773"/>
</g>
<!-- Node1&#45;&gt;Node4 -->
<g id="edge8" class="edge"><title>Node1&#45;&gt;Node4</title>
<path fill="none" stroke="midnightblue" d="M124.208,-28.1542C141.713,-26.3203 160.403,-23.8693 176.52,-21.2587"/>
<polygon fill="midnightblue" stroke="midnightblue" points="177.431,-24.654 186.702,-19.525 176.256,-17.7534 177.431,-24.654"/>
</g>
</g>
</svg>
