<?xml version="1.0" encoding="UTF-8" standalone="no"?>
<!DOCTYPE svg PUBLIC "-//W3C//DTD SVG 1.1//EN"
 "http://www.w3.org/Graphics/SVG/1.1/DTD/svg11.dtd">
<!-- Generated by graphviz version 2.28.0 (20110610.2051)
 -->
<!-- Title: G Pages: 1 -->
<svg width="844pt" height="3048pt"
 viewBox="0.00 0.00 844.00 3048.00" xmlns="http://www.w3.org/2000/svg" xmlns:xlink="http://www.w3.org/1999/xlink">
<g id="graph1" class="graph" transform="scale(1 1) rotate(0) translate(4 3044)">
<title>G</title>
<polygon fill="white" stroke="white" points="-4,5 -4,-3044 841,-3044 841,5 -4,5"/>
<!-- Node1 -->
<g id="node1" class="node"><title>Node1</title>
<polygon fill="#bfbfbf" stroke="black" points="430.5,-0.5 430.5,-57.5 489.5,-57.5 489.5,-0.5 430.5,-0.5"/>
<text text-anchor="middle" x="460" y="-45.5" font-family="Helvetica,sans-Serif" font-size="10.00">MLPlayer</text>
<polyline fill="none" stroke="black" points="430.5,-38.5 489.5,-38.5 "/>
<text text-anchor="middle" x="460" y="-26.5" font-family="Helvetica,sans-Serif" font-size="10.00"> </text>
<polyline fill="none" stroke="black" points="430.5,-19.5 489.5,-19.5 "/>
<text text-anchor="middle" x="460" y="-7.5" font-family="Helvetica,sans-Serif" font-size="10.00"> </text>
</g>
<!-- Node2 -->
<g id="node2" class="node"><title>Node2</title>
<a xlink:href="class_m_l_pneuron_container.html" target="_top" xlink:title="A vector of connections.">
<polygon fill="white" stroke="black" points="403.5,-97 403.5,-165 516.5,-165 516.5,-97 403.5,-97"/>
<text text-anchor="middle" x="460" y="-153" font-family="Helvetica,sans-Serif" font-size="10.00">MLPneuronContainer</text>
<polyline fill="none" stroke="black" points="403.5,-146 516.5,-146 "/>
<text text-anchor="middle" x="460" y="-134" font-family="Helvetica,sans-Serif" font-size="10.00"> </text>
<polyline fill="none" stroke="black" points="403.5,-127 516.5,-127 "/>
<text text-anchor="start" x="411.5" y="-115" font-family="Helvetica,sans-Serif" font-size="10.00">+ getId()</text>
<text text-anchor="start" x="411.5" y="-104" font-family="Helvetica,sans-Serif" font-size="10.00">+ buildAndAppend()</text>
</a>
</g>
<!-- Node2&#45;&gt;Node1 -->
<g id="edge2" class="edge"><title>Node2&#45;&gt;Node1</title>
<path fill="none" stroke="midnightblue" d="M460,-86.8568C460,-76.9522 460,-66.6817 460,-57.6399"/>
<polygon fill="none" stroke="midnightblue" points="456.5,-86.9791 460,-96.9791 463.5,-86.9792 456.5,-86.9791"/>
</g>
<!-- Node3 -->
<g id="node4" class="node"><title>Node3</title>
<a xlink:href="class_neuron_container.html" target="_top" xlink:title="{NeuronContainer\&lt; MLP \&gt;\n||+ NeuronContainer()\l+ NeuronContainer()\l+ ~NeuronContainer()\l+ numOfNeurons()\l+ numOfCons()\l+ getId()\l+ setId()\l+ getConId()\l+ getWeight()\l+ getFrom()\l+ setFrom()\l+ setWeight()\l}">
<polygon fill="white" stroke="black" points="394.5,-205 394.5,-383 525.5,-383 525.5,-205 394.5,-205"/>
<text text-anchor="middle" x="460" y="-371" font-family="Helvetica,sans-Serif" font-size="10.00">NeuronContainer&lt; MLP &gt;</text>
<polyline fill="none" stroke="black" points="394.5,-364 525.5,-364 "/>
<text text-anchor="middle" x="460" y="-352" font-family="Helvetica,sans-Serif" font-size="10.00"> </text>
<polyline fill="none" stroke="black" points="394.5,-345 525.5,-345 "/>
<text text-anchor="start" x="402.5" y="-333" font-family="Helvetica,sans-Serif" font-size="10.00">+ NeuronContainer()</text>
<text text-anchor="start" x="402.5" y="-322" font-family="Helvetica,sans-Serif" font-size="10.00">+ NeuronContainer()</text>
<text text-anchor="start" x="402.5" y="-311" font-family="Helvetica,sans-Serif" font-size="10.00">+ ~NeuronContainer()</text>
<text text-anchor="start" x="402.5" y="-300" font-family="Helvetica,sans-Serif" font-size="10.00">+ numOfNeurons()</text>
<text text-anchor="start" x="402.5" y="-289" font-family="Helvetica,sans-Serif" font-size="10.00">+ numOfCons()</text>
<text text-anchor="start" x="402.5" y="-278" font-family="Helvetica,sans-Serif" font-size="10.00">+ getId()</text>
<text text-anchor="start" x="402.5" y="-267" font-family="Helvetica,sans-Serif" font-size="10.00">+ setId()</text>
<text text-anchor="start" x="402.5" y="-256" font-family="Helvetica,sans-Serif" font-size="10.00">+ getConId()</text>
<text text-anchor="start" x="402.5" y="-245" font-family="Helvetica,sans-Serif" font-size="10.00">+ getWeight()</text>
<text text-anchor="start" x="402.5" y="-234" font-family="Helvetica,sans-Serif" font-size="10.00">+ getFrom()</text>
<text text-anchor="start" x="402.5" y="-223" font-family="Helvetica,sans-Serif" font-size="10.00">+ setFrom()</text>
<text text-anchor="start" x="402.5" y="-212" font-family="Helvetica,sans-Serif" font-size="10.00">+ setWeight()</text>
</a>
</g>
<!-- Node3&#45;&gt;Node2 -->
<g id="edge4" class="edge"><title>Node3&#45;&gt;Node2</title>
<path fill="none" stroke="midnightblue" d="M460,-194.802C460,-184.312 460,-174.244 460,-165.359"/>
<polygon fill="none" stroke="midnightblue" points="456.5,-194.963 460,-204.963 463.5,-194.963 456.5,-194.963"/>
</g>
<!-- Node4 -->
<g id="node6" class="node"><title>Node4</title>
<a xlink:href="class_neuron_container.html" target="_top" xlink:title="A vector of neurons.">
<polygon fill="white" stroke="black" points="401.5,-433 401.5,-611 518.5,-611 518.5,-433 401.5,-433"/>
<text text-anchor="middle" x="460" y="-599" font-family="Helvetica,sans-Serif" font-size="10.00">NeuronContainer</text>
<polyline fill="none" stroke="black" points="401.5,-592 518.5,-592 "/>
<text text-anchor="middle" x="460" y="-580" font-family="Helvetica,sans-Serif" font-size="10.00"> </text>
<polyline fill="none" stroke="black" points="401.5,-573 518.5,-573 "/>
<text text-anchor="start" x="409.5" y="-561" font-family="Helvetica,sans-Serif" font-size="10.00">+ NeuronContainer()</text>
<text text-anchor="start" x="409.5" y="-550" font-family="Helvetica,sans-Serif" font-size="10.00">+ NeuronContainer()</text>
<text text-anchor="start" x="409.5" y="-539" font-family="Helvetica,sans-Serif" font-size="10.00">+ ~NeuronContainer()</text>
<text text-anchor="start" x="409.5" y="-528" font-family="Helvetica,sans-Serif" font-size="10.00">+ numOfNeurons()</text>
<text text-anchor="start" x="409.5" y="-517" font-family="Helvetica,sans-Serif" font-size="10.00">+ numOfCons()</text>
<text text-anchor="start" x="409.5" y="-506" font-family="Helvetica,sans-Serif" font-size="10.00">+ getId()</text>
<text text-anchor="start" x="409.5" y="-495" font-family="Helvetica,sans-Serif" font-size="10.00">+ setId()</text>
<text text-anchor="start" x="409.5" y="-484" font-family="Helvetica,sans-Serif" font-size="10.00">+ getConId()</text>
<text text-anchor="start" x="409.5" y="-473" font-family="Helvetica,sans-Serif" font-size="10.00">+ getWeight()</text>
<text text-anchor="start" x="409.5" y="-462" font-family="Helvetica,sans-Serif" font-size="10.00">+ getFrom()</text>
<text text-anchor="start" x="409.5" y="-451" font-family="Helvetica,sans-Serif" font-size="10.00">+ setFrom()</text>
<text text-anchor="start" x="409.5" y="-440" font-family="Helvetica,sans-Serif" font-size="10.00">+ setWeight()</text>
</a>
</g>
<!-- Node4&#45;&gt;Node3 -->
<g id="edge6" class="edge"><title>Node4&#45;&gt;Node3</title>
<path fill="none" stroke="orange" stroke-dasharray="5,2" d="M460,-422.927C460,-409.701 460,-396.196 460,-383.156"/>
<polygon fill="orange" stroke="orange" points="456.5,-422.975 460,-432.975 463.5,-422.975 456.5,-422.975"/>
<text text-anchor="middle" x="479" y="-405.5" font-family="Helvetica,sans-Serif" font-size="10.00">&lt; MLP &gt;</text>
</g>
<!-- Node5 -->
<g id="node8" class="node"><title>Node5</title>
<a xlink:href="class_container.html" target="_top" xlink:title="{Container\&lt; Neuron \&gt;\n|# collection\l# collection\l|+ Container()\l+ Container()\l+ Container()\l+ ~Container()\l+ createIterator()\l+ push_back()\l+ push_back()\l+ reserve()\l+ reserve()\l+ empty()\l+ empty()\l+ size()\l+ size()\l+ clear()\l+ clear()\l+ show()\l+ show()\l+ validate()\l+ validate()\l+ begin()\l+ end()\l+ load()\l+ store()\l+ append()\l+ resize()\l+ operator[]()\l}">
<polygon fill="white" stroke="black" points="405,-650.5 405,-993.5 515,-993.5 515,-650.5 405,-650.5"/>
<text text-anchor="middle" x="460" y="-981.5" font-family="Helvetica,sans-Serif" font-size="10.00">Container&lt; Neuron &gt;</text>
<polyline fill="none" stroke="black" points="405,-974.5 515,-974.5 "/>
<text text-anchor="start" x="413" y="-962.5" font-family="Helvetica,sans-Serif" font-size="10.00"># collection</text>
<text text-anchor="start" x="413" y="-951.5" font-family="Helvetica,sans-Serif" font-size="10.00"># collection</text>
<polyline fill="none" stroke="black" points="405,-944.5 515,-944.5 "/>
<text text-anchor="start" x="413" y="-932.5" font-family="Helvetica,sans-Serif" font-size="10.00">+ Container()</text>
<text text-anchor="start" x="413" y="-921.5" font-family="Helvetica,sans-Serif" font-size="10.00">+ Container()</text>
<text text-anchor="start" x="413" y="-910.5" font-family="Helvetica,sans-Serif" font-size="10.00">+ Container()</text>
<text text-anchor="start" x="413" y="-899.5" font-family="Helvetica,sans-Serif" font-size="10.00">+ ~Container()</text>
<text text-anchor="start" x="413" y="-888.5" font-family="Helvetica,sans-Serif" font-size="10.00">+ createIterator()</text>
<text text-anchor="start" x="413" y="-877.5" font-family="Helvetica,sans-Serif" font-size="10.00">+ push_back()</text>
<text text-anchor="start" x="413" y="-866.5" font-family="Helvetica,sans-Serif" font-size="10.00">+ push_back()</text>
<text text-anchor="start" x="413" y="-855.5" font-family="Helvetica,sans-Serif" font-size="10.00">+ reserve()</text>
<text text-anchor="start" x="413" y="-844.5" font-family="Helvetica,sans-Serif" font-size="10.00">+ reserve()</text>
<text text-anchor="start" x="413" y="-833.5" font-family="Helvetica,sans-Serif" font-size="10.00">+ empty()</text>
<text text-anchor="start" x="413" y="-822.5" font-family="Helvetica,sans-Serif" font-size="10.00">+ empty()</text>
<text text-anchor="start" x="413" y="-811.5" font-family="Helvetica,sans-Serif" font-size="10.00">+ size()</text>
<text text-anchor="start" x="413" y="-800.5" font-family="Helvetica,sans-Serif" font-size="10.00">+ size()</text>
<text text-anchor="start" x="413" y="-789.5" font-family="Helvetica,sans-Serif" font-size="10.00">+ clear()</text>
<text text-anchor="start" x="413" y="-778.5" font-family="Helvetica,sans-Serif" font-size="10.00">+ clear()</text>
<text text-anchor="start" x="413" y="-767.5" font-family="Helvetica,sans-Serif" font-size="10.00">+ show()</text>
<text text-anchor="start" x="413" y="-756.5" font-family="Helvetica,sans-Serif" font-size="10.00">+ show()</text>
<text text-anchor="start" x="413" y="-745.5" font-family="Helvetica,sans-Serif" font-size="10.00">+ validate()</text>
<text text-anchor="start" x="413" y="-734.5" font-family="Helvetica,sans-Serif" font-size="10.00">+ validate()</text>
<text text-anchor="start" x="413" y="-723.5" font-family="Helvetica,sans-Serif" font-size="10.00">+ begin()</text>
<text text-anchor="start" x="413" y="-712.5" font-family="Helvetica,sans-Serif" font-size="10.00">+ end()</text>
<text text-anchor="start" x="413" y="-701.5" font-family="Helvetica,sans-Serif" font-size="10.00">+ load()</text>
<text text-anchor="start" x="413" y="-690.5" font-family="Helvetica,sans-Serif" font-size="10.00">+ store()</text>
<text text-anchor="start" x="413" y="-679.5" font-family="Helvetica,sans-Serif" font-size="10.00">+ append()</text>
<text text-anchor="start" x="413" y="-668.5" font-family="Helvetica,sans-Serif" font-size="10.00">+ resize()</text>
<text text-anchor="start" x="413" y="-657.5" font-family="Helvetica,sans-Serif" font-size="10.00">+ operator[]()</text>
</a>
</g>
<!-- Node5&#45;&gt;Node4 -->
<g id="edge8" class="edge"><title>Node5&#45;&gt;Node4</title>
<path fill="none" stroke="midnightblue" d="M460,-639.939C460,-630.111 460,-620.479 460,-611.224"/>
<polygon fill="none" stroke="midnightblue" points="456.5,-640.243 460,-650.243 463.5,-640.243 456.5,-640.243"/>
</g>
<!-- Node6 -->
<g id="node10" class="node"><title>Node6</title>
<a xlink:href="class_container_interface.html" target="_top" xlink:title="class ContainerInterface &#45;">
<polygon fill="white" stroke="black" points="181.5,-1043 181.5,-1199 332.5,-1199 332.5,-1043 181.5,-1043"/>
<text text-anchor="middle" x="257" y="-1187" font-family="Helvetica,sans-Serif" font-size="10.00">ContainerInterface&lt; Neuron &gt;</text>
<polyline fill="none" stroke="black" points="181.5,-1180 332.5,-1180 "/>
<text text-anchor="middle" x="257" y="-1168" font-family="Helvetica,sans-Serif" font-size="10.00"> </text>
<polyline fill="none" stroke="black" points="181.5,-1161 332.5,-1161 "/>
<text text-anchor="start" x="189.5" y="-1149" font-family="Helvetica,sans-Serif" font-size="10.00">+ ~ContainerInterface()</text>
<text text-anchor="start" x="189.5" y="-1138" font-family="Helvetica,sans-Serif" font-size="10.00">+ createIterator()</text>
<text text-anchor="start" x="189.5" y="-1127" font-family="Helvetica,sans-Serif" font-size="10.00">+ push_back()</text>
<text text-anchor="start" x="189.5" y="-1116" font-family="Helvetica,sans-Serif" font-size="10.00">+ reserve()</text>
<text text-anchor="start" x="189.5" y="-1105" font-family="Helvetica,sans-Serif" font-size="10.00">+ empty()</text>
<text text-anchor="start" x="189.5" y="-1094" font-family="Helvetica,sans-Serif" font-size="10.00">+ size()</text>
<text text-anchor="start" x="189.5" y="-1083" font-family="Helvetica,sans-Serif" font-size="10.00">+ clear()</text>
<text text-anchor="start" x="189.5" y="-1072" font-family="Helvetica,sans-Serif" font-size="10.00">+ show()</text>
<text text-anchor="start" x="189.5" y="-1061" font-family="Helvetica,sans-Serif" font-size="10.00">+ validate()</text>
<text text-anchor="start" x="189.5" y="-1050" font-family="Helvetica,sans-Serif" font-size="10.00"># ContainerInterface()</text>
</a>
</g>
<!-- Node6&#45;&gt;Node5 -->
<g id="edge10" class="edge"><title>Node6&#45;&gt;Node5</title>
<path fill="none" stroke="midnightblue" d="M315.546,-1034.34C343.712,-993.136 377.288,-944.012 404.978,-903.499"/>
<polygon fill="none" stroke="midnightblue" points="312.559,-1032.51 309.806,-1042.74 318.338,-1036.46 312.559,-1032.51"/>
</g>
<!-- Node7 -->
<g id="node12" class="node"><title>Node7</title>
<polygon fill="white" stroke="#bfbfbf" points="351,-1092.5 351,-1149.5 467,-1149.5 467,-1092.5 351,-1092.5"/>
<text text-anchor="middle" x="409" y="-1137.5" font-family="Helvetica,sans-Serif" font-size="10.00">std::vector&lt; Neuron &gt;</text>
<polyline fill="none" stroke="#bfbfbf" points="351,-1130.5 467,-1130.5 "/>
<text text-anchor="start" x="359" y="-1118.5" font-family="Helvetica,sans-Serif" font-size="10.00">&#45; elements</text>
<polyline fill="none" stroke="#bfbfbf" points="351,-1111.5 467,-1111.5 "/>
<text text-anchor="middle" x="409" y="-1099.5" font-family="Helvetica,sans-Serif" font-size="10.00"> </text>
</g>
<!-- Node7&#45;&gt;Node5 -->
<g id="edge12" class="edge"><title>Node7&#45;&gt;Node5</title>
<path fill="none" stroke="#9a32cd" stroke-dasharray="5,2" d="M415.489,-1082.21C419.5,-1058.86 424.963,-1027.04 430.688,-993.7"/>
<polygon fill="#9a32cd" stroke="#9a32cd" points="413.752,-1092.33 411.01,-1081.71 414.598,-1087.4 415.445,-1082.47 415.445,-1082.47 415.445,-1082.47 414.598,-1087.4 419.88,-1083.23 413.752,-1092.33 413.752,-1092.33"/>
<text text-anchor="middle" x="448.5" y="-1015.5" font-family="Helvetica,sans-Serif" font-size="10.00">collection</text>
</g>
<!-- Node8 -->
<g id="node14" class="node"><title>Node8</title>
<a xlink:href="class_neuron.html" target="_top" xlink:title="class Neuron &#45;">
<polygon fill="white" stroke="black" points="360,-1248.5 360,-1525.5 448,-1525.5 448,-1248.5 360,-1248.5"/>
<text text-anchor="middle" x="404" y="-1513.5" font-family="Helvetica,sans-Serif" font-size="10.00">Neuron</text>
<polyline fill="none" stroke="black" points="360,-1506.5 448,-1506.5 "/>
<text text-anchor="start" x="368" y="-1494.5" font-family="Helvetica,sans-Serif" font-size="10.00"># d_Id</text>
<text text-anchor="start" x="368" y="-1483.5" font-family="Helvetica,sans-Serif" font-size="10.00">&#45; Id</text>
<text text-anchor="start" x="368" y="-1472.5" font-family="Helvetica,sans-Serif" font-size="10.00">&#45; con</text>
<text text-anchor="start" x="368" y="-1461.5" font-family="Helvetica,sans-Serif" font-size="10.00">&#45; outputValue</text>
<polyline fill="none" stroke="black" points="360,-1454.5 448,-1454.5 "/>
<text text-anchor="start" x="368" y="-1442.5" font-family="Helvetica,sans-Serif" font-size="10.00">+ Neuron()</text>
<text text-anchor="start" x="368" y="-1431.5" font-family="Helvetica,sans-Serif" font-size="10.00">+ Neuron()</text>
<text text-anchor="start" x="368" y="-1420.5" font-family="Helvetica,sans-Serif" font-size="10.00">+ Id()</text>
<text text-anchor="start" x="368" y="-1409.5" font-family="Helvetica,sans-Serif" font-size="10.00">+ show()</text>
<text text-anchor="start" x="368" y="-1398.5" font-family="Helvetica,sans-Serif" font-size="10.00">+ validate()</text>
<text text-anchor="start" x="368" y="-1387.5" font-family="Helvetica,sans-Serif" font-size="10.00">+ Neuron()</text>
<text text-anchor="start" x="368" y="-1376.5" font-family="Helvetica,sans-Serif" font-size="10.00">+ Neuron()</text>
<text text-anchor="start" x="368" y="-1365.5" font-family="Helvetica,sans-Serif" font-size="10.00">+ Neuron()</text>
<text text-anchor="start" x="368" y="-1354.5" font-family="Helvetica,sans-Serif" font-size="10.00">+ ~Neuron()</text>
<text text-anchor="start" x="368" y="-1343.5" font-family="Helvetica,sans-Serif" font-size="10.00">+ getId()</text>
<text text-anchor="start" x="368" y="-1332.5" font-family="Helvetica,sans-Serif" font-size="10.00">+ setId()</text>
<text text-anchor="start" x="368" y="-1321.5" font-family="Helvetica,sans-Serif" font-size="10.00">+ getConId()</text>
<text text-anchor="start" x="368" y="-1310.5" font-family="Helvetica,sans-Serif" font-size="10.00">+ getWeight()</text>
<text text-anchor="start" x="368" y="-1299.5" font-family="Helvetica,sans-Serif" font-size="10.00">+ setFrom()</text>
<text text-anchor="start" x="368" y="-1288.5" font-family="Helvetica,sans-Serif" font-size="10.00">+ setWeight()</text>
<text text-anchor="start" x="368" y="-1277.5" font-family="Helvetica,sans-Serif" font-size="10.00">+ numOfCons()</text>
<text text-anchor="start" x="368" y="-1266.5" font-family="Helvetica,sans-Serif" font-size="10.00">+ show()</text>
<text text-anchor="start" x="368" y="-1255.5" font-family="Helvetica,sans-Serif" font-size="10.00">+ validate()</text>
</a>
</g>
<!-- Node8&#45;&gt;Node7 -->
<g id="edge14" class="edge"><title>Node8&#45;&gt;Node7</title>
<path fill="none" stroke="#9a32cd" stroke-dasharray="5,2" d="M406.801,-1238.12C407.444,-1204.17 408.06,-1171.65 408.475,-1149.7"/>
<polygon fill="#9a32cd" stroke="#9a32cd" points="406.61,-1248.2 402.3,-1238.12 406.705,-1243.2 406.799,-1238.2 406.799,-1238.2 406.799,-1238.2 406.705,-1243.2 411.298,-1238.29 406.61,-1248.2 406.61,-1248.2"/>
<text text-anchor="middle" x="428.5" y="-1221.5" font-family="Helvetica,sans-Serif" font-size="10.00">elements</text>
</g>
<!-- Node9 -->
<g id="node16" class="node"><title>Node9</title>
<a xlink:href="class_container.html" target="_top" xlink:title="{Container\&lt; Con \&gt;\n|# collection\l# collection\l|+ Container()\l+ Container()\l+ Container()\l+ ~Container()\l+ createIterator()\l+ push_back()\l+ push_back()\l+ reserve()\l+ reserve()\l+ empty()\l+ empty()\l+ size()\l+ size()\l+ clear()\l+ clear()\l+ show()\l+ show()\l+ validate()\l+ validate()\l+ begin()\l+ end()\l+ load()\l+ store()\l+ append()\l+ resize()\l+ operator[]()\l}">
<polygon fill="white" stroke="black" points="333.5,-1574.5 333.5,-1917.5 430.5,-1917.5 430.5,-1574.5 333.5,-1574.5"/>
<text text-anchor="middle" x="382" y="-1905.5" font-family="Helvetica,sans-Serif" font-size="10.00">Container&lt; Con &gt;</text>
<polyline fill="none" stroke="black" points="333.5,-1898.5 430.5,-1898.5 "/>
<text text-anchor="start" x="341.5" y="-1886.5" font-family="Helvetica,sans-Serif" font-size="10.00"># collection</text>
<text text-anchor="start" x="341.5" y="-1875.5" font-family="Helvetica,sans-Serif" font-size="10.00"># collection</text>
<polyline fill="none" stroke="black" points="333.5,-1868.5 430.5,-1868.5 "/>
<text text-anchor="start" x="341.5" y="-1856.5" font-family="Helvetica,sans-Serif" font-size="10.00">+ Container()</text>
<text text-anchor="start" x="341.5" y="-1845.5" font-family="Helvetica,sans-Serif" font-size="10.00">+ Container()</text>
<text text-anchor="start" x="341.5" y="-1834.5" font-family="Helvetica,sans-Serif" font-size="10.00">+ Container()</text>
<text text-anchor="start" x="341.5" y="-1823.5" font-family="Helvetica,sans-Serif" font-size="10.00">+ ~Container()</text>
<text text-anchor="start" x="341.5" y="-1812.5" font-family="Helvetica,sans-Serif" font-size="10.00">+ createIterator()</text>
<text text-anchor="start" x="341.5" y="-1801.5" font-family="Helvetica,sans-Serif" font-size="10.00">+ push_back()</text>
<text text-anchor="start" x="341.5" y="-1790.5" font-family="Helvetica,sans-Serif" font-size="10.00">+ push_back()</text>
<text text-anchor="start" x="341.5" y="-1779.5" font-family="Helvetica,sans-Serif" font-size="10.00">+ reserve()</text>
<text text-anchor="start" x="341.5" y="-1768.5" font-family="Helvetica,sans-Serif" font-size="10.00">+ reserve()</text>
<text text-anchor="start" x="341.5" y="-1757.5" font-family="Helvetica,sans-Serif" font-size="10.00">+ empty()</text>
<text text-anchor="start" x="341.5" y="-1746.5" font-family="Helvetica,sans-Serif" font-size="10.00">+ empty()</text>
<text text-anchor="start" x="341.5" y="-1735.5" font-family="Helvetica,sans-Serif" font-size="10.00">+ size()</text>
<text text-anchor="start" x="341.5" y="-1724.5" font-family="Helvetica,sans-Serif" font-size="10.00">+ size()</text>
<text text-anchor="start" x="341.5" y="-1713.5" font-family="Helvetica,sans-Serif" font-size="10.00">+ clear()</text>
<text text-anchor="start" x="341.5" y="-1702.5" font-family="Helvetica,sans-Serif" font-size="10.00">+ clear()</text>
<text text-anchor="start" x="341.5" y="-1691.5" font-family="Helvetica,sans-Serif" font-size="10.00">+ show()</text>
<text text-anchor="start" x="341.5" y="-1680.5" font-family="Helvetica,sans-Serif" font-size="10.00">+ show()</text>
<text text-anchor="start" x="341.5" y="-1669.5" font-family="Helvetica,sans-Serif" font-size="10.00">+ validate()</text>
<text text-anchor="start" x="341.5" y="-1658.5" font-family="Helvetica,sans-Serif" font-size="10.00">+ validate()</text>
<text text-anchor="start" x="341.5" y="-1647.5" font-family="Helvetica,sans-Serif" font-size="10.00">+ begin()</text>
<text text-anchor="start" x="341.5" y="-1636.5" font-family="Helvetica,sans-Serif" font-size="10.00">+ end()</text>
<text text-anchor="start" x="341.5" y="-1625.5" font-family="Helvetica,sans-Serif" font-size="10.00">+ load()</text>
<text text-anchor="start" x="341.5" y="-1614.5" font-family="Helvetica,sans-Serif" font-size="10.00">+ store()</text>
<text text-anchor="start" x="341.5" y="-1603.5" font-family="Helvetica,sans-Serif" font-size="10.00">+ append()</text>
<text text-anchor="start" x="341.5" y="-1592.5" font-family="Helvetica,sans-Serif" font-size="10.00">+ resize()</text>
<text text-anchor="start" x="341.5" y="-1581.5" font-family="Helvetica,sans-Serif" font-size="10.00">+ operator[]()</text>
</a>
</g>
<!-- Node9&#45;&gt;Node8 -->
<g id="edge16" class="edge"><title>Node9&#45;&gt;Node8</title>
<path fill="none" stroke="#9a32cd" stroke-dasharray="5,2" d="M393.153,-1564.01C393.947,-1551.13 394.74,-1538.26 395.515,-1525.69"/>
<polygon fill="#9a32cd" stroke="#9a32cd" points="392.517,-1574.34 388.64,-1564.08 392.824,-1569.35 393.132,-1564.36 393.132,-1564.36 393.132,-1564.36 392.824,-1569.35 397.623,-1564.64 392.517,-1574.34 392.517,-1574.34"/>
<text text-anchor="middle" x="402.5" y="-1547.5" font-family="Helvetica,sans-Serif" font-size="10.00">con</text>
</g>
<!-- Node10 -->
<g id="node18" class="node"><title>Node10</title>
<a xlink:href="class_container_interface.html" target="_top" xlink:title="class ContainerInterface &#45;">
<polygon fill="white" stroke="black" points="127.5,-2106 127.5,-2262 264.5,-2262 264.5,-2106 127.5,-2106"/>
<text text-anchor="middle" x="196" y="-2250" font-family="Helvetica,sans-Serif" font-size="10.00">ContainerInterface&lt; Con &gt;</text>
<polyline fill="none" stroke="black" points="127.5,-2243 264.5,-2243 "/>
<text text-anchor="middle" x="196" y="-2231" font-family="Helvetica,sans-Serif" font-size="10.00"> </text>
<polyline fill="none" stroke="black" points="127.5,-2224 264.5,-2224 "/>
<text text-anchor="start" x="135.5" y="-2212" font-family="Helvetica,sans-Serif" font-size="10.00">+ ~ContainerInterface()</text>
<text text-anchor="start" x="135.5" y="-2201" font-family="Helvetica,sans-Serif" font-size="10.00">+ createIterator()</text>
<text text-anchor="start" x="135.5" y="-2190" font-family="Helvetica,sans-Serif" font-size="10.00">+ push_back()</text>
<text text-anchor="start" x="135.5" y="-2179" font-family="Helvetica,sans-Serif" font-size="10.00">+ reserve()</text>
<text text-anchor="start" x="135.5" y="-2168" font-family="Helvetica,sans-Serif" font-size="10.00">+ empty()</text>
<text text-anchor="start" x="135.5" y="-2157" font-family="Helvetica,sans-Serif" font-size="10.00">+ size()</text>
<text text-anchor="start" x="135.5" y="-2146" font-family="Helvetica,sans-Serif" font-size="10.00">+ clear()</text>
<text text-anchor="start" x="135.5" y="-2135" font-family="Helvetica,sans-Serif" font-size="10.00">+ show()</text>
<text text-anchor="start" x="135.5" y="-2124" font-family="Helvetica,sans-Serif" font-size="10.00">+ validate()</text>
<text text-anchor="start" x="135.5" y="-2113" font-family="Helvetica,sans-Serif" font-size="10.00"># ContainerInterface()</text>
</a>
</g>
<!-- Node10&#45;&gt;Node9 -->
<g id="edge18" class="edge"><title>Node10&#45;&gt;Node9</title>
<path fill="none" stroke="midnightblue" d="M225.279,-2096.21C242.07,-2048.42 264.281,-1988.36 287,-1936 300.96,-1903.83 317.725,-1869.36 333.26,-1838.78"/>
<polygon fill="none" stroke="midnightblue" points="221.886,-2095.31 221.888,-2105.9 228.494,-2097.62 221.886,-2095.31"/>
</g>
<!-- Node11 -->
<g id="node20" class="node"><title>Node11</title>
<polygon fill="white" stroke="#bfbfbf" points="279,-2374.5 279,-2431.5 479,-2431.5 479,-2374.5 279,-2374.5"/>
<text text-anchor="middle" x="379" y="-2419.5" font-family="Helvetica,sans-Serif" font-size="10.00">std::vector&lt; boost::shared_ptr&lt; Con &gt; &gt;</text>
<polyline fill="none" stroke="#bfbfbf" points="279,-2412.5 479,-2412.5 "/>
<text text-anchor="start" x="287" y="-2400.5" font-family="Helvetica,sans-Serif" font-size="10.00">&#45; elements</text>
<polyline fill="none" stroke="#bfbfbf" points="279,-2393.5 479,-2393.5 "/>
<text text-anchor="middle" x="379" y="-2381.5" font-family="Helvetica,sans-Serif" font-size="10.00"> </text>
</g>
<!-- Node11&#45;&gt;Node9 -->
<g id="edge20" class="edge"><title>Node11&#45;&gt;Node9</title>
<path fill="none" stroke="#9a32cd" stroke-dasharray="5,2" d="M379.174,-2364.08C379.563,-2279.15 380.524,-2069.25 381.218,-1917.82"/>
<polygon fill="#9a32cd" stroke="#9a32cd" points="379.127,-2374.27 374.673,-2364.25 379.15,-2369.27 379.173,-2364.27 379.173,-2364.27 379.173,-2364.27 379.15,-2369.27 383.673,-2364.29 379.127,-2374.27 379.127,-2374.27"/>
<text text-anchor="middle" x="402.5" y="-2181.5" font-family="Helvetica,sans-Serif" font-size="10.00">collection</text>
</g>
<!-- Node12 -->
<g id="node22" class="node"><title>Node12</title>
<a xlink:title="STL class.">
<polygon fill="white" stroke="#bfbfbf" points="217.5,-2766.5 217.5,-2823.5 306.5,-2823.5 306.5,-2766.5 217.5,-2766.5"/>
<text text-anchor="middle" x="262" y="-2811.5" font-family="Helvetica,sans-Serif" font-size="10.00">std::vector&lt; T &gt;</text>
<polyline fill="none" stroke="#bfbfbf" points="217.5,-2804.5 306.5,-2804.5 "/>
<text text-anchor="start" x="225.5" y="-2792.5" font-family="Helvetica,sans-Serif" font-size="10.00">&#45; elements</text>
<polyline fill="none" stroke="#bfbfbf" points="217.5,-2785.5 306.5,-2785.5 "/>
<text text-anchor="middle" x="262" y="-2773.5" font-family="Helvetica,sans-Serif" font-size="10.00"> </text>
</a>
</g>
<!-- Node12&#45;&gt;Node7 -->
<g id="edge40" class="edge"><title>Node12&#45;&gt;Node7</title>
<path fill="none" stroke="orange" stroke-dasharray="5,2" d="M222.693,-2759.09C174.459,-2712.19 99,-2623.82 99,-2530 99,-2530 99,-2530 99,-1386 99,-1250.35 242.164,-1292.92 341,-1200 357.623,-1184.37 374.489,-1165.05 387.265,-1149.55"/>
<polygon fill="orange" stroke="orange" points="220.539,-2761.87 230.185,-2766.25 225.378,-2756.81 220.539,-2761.87"/>
<text text-anchor="middle" x="124" y="-1962.5" font-family="Helvetica,sans-Serif" font-size="10.00">&lt; Neuron &gt;</text>
</g>
<!-- Node12&#45;&gt;Node11 -->
<g id="edge22" class="edge"><title>Node12&#45;&gt;Node11</title>
<path fill="none" stroke="orange" stroke-dasharray="5,2" d="M259.489,-2756.24C255.005,-2677.22 249.096,-2497.82 284,-2450 289.185,-2442.9 295.766,-2436.84 303.037,-2431.68"/>
<polygon fill="orange" stroke="orange" points="255.996,-2756.48 260.08,-2766.25 262.984,-2756.06 255.996,-2756.48"/>
<text text-anchor="middle" x="323" y="-2629.5" font-family="Helvetica,sans-Serif" font-size="10.00">&lt; boost::shared_ptr&lt; Con &gt; &gt;</text>
</g>
<!-- Node14 -->
<g id="node26" class="node"><title>Node14</title>
<polygon fill="white" stroke="#bfbfbf" points="132,-2500.5 132,-2557.5 234,-2557.5 234,-2500.5 132,-2500.5"/>
<text text-anchor="middle" x="183" y="-2545.5" font-family="Helvetica,sans-Serif" font-size="10.00">std::vector&lt; Con &gt;</text>
<polyline fill="none" stroke="#bfbfbf" points="132,-2538.5 234,-2538.5 "/>
<text text-anchor="start" x="140" y="-2526.5" font-family="Helvetica,sans-Serif" font-size="10.00">&#45; elements</text>
<polyline fill="none" stroke="#bfbfbf" points="132,-2519.5 234,-2519.5 "/>
<text text-anchor="middle" x="183" y="-2507.5" font-family="Helvetica,sans-Serif" font-size="10.00"> </text>
</g>
<!-- Node12&#45;&gt;Node14 -->
<g id="edge30" class="edge"><title>Node12&#45;&gt;Node14</title>
<path fill="none" stroke="orange" stroke-dasharray="5,2" d="M246.149,-2756.67C233.359,-2725.42 215.641,-2679.42 204,-2638 196.454,-2611.15 190.685,-2579.8 187.12,-2557.81"/>
<polygon fill="orange" stroke="orange" points="243.063,-2758.37 250.114,-2766.28 249.533,-2755.7 243.063,-2758.37"/>
<text text-anchor="middle" x="222" y="-2629.5" font-family="Helvetica,sans-Serif" font-size="10.00">&lt; Con &gt;</text>
</g>
<!-- Node18 -->
<g id="node35" class="node"><title>Node18</title>
<polygon fill="white" stroke="#bfbfbf" points="293,-2500.5 293,-2557.5 481,-2557.5 481,-2500.5 293,-2500.5"/>
<text text-anchor="middle" x="387" y="-2545.5" font-family="Helvetica,sans-Serif" font-size="10.00">std::vector&lt; boost::shared_ptr&lt; T &gt; &gt;</text>
<polyline fill="none" stroke="#bfbfbf" points="293,-2538.5 481,-2538.5 "/>
<text text-anchor="start" x="301" y="-2526.5" font-family="Helvetica,sans-Serif" font-size="10.00">&#45; elements</text>
<polyline fill="none" stroke="#bfbfbf" points="293,-2519.5 481,-2519.5 "/>
<text text-anchor="middle" x="387" y="-2507.5" font-family="Helvetica,sans-Serif" font-size="10.00"> </text>
</g>
<!-- Node12&#45;&gt;Node18 -->
<g id="edge38" class="edge"><title>Node12&#45;&gt;Node18</title>
<path fill="none" stroke="orange" stroke-dasharray="5,2" d="M305.062,-2759.65C337.245,-2731.01 378.707,-2687.09 397,-2638 406.731,-2611.89 401.868,-2579.87 396.033,-2557.5"/>
<polygon fill="orange" stroke="orange" points="302.749,-2757.02 297.517,-2766.23 307.352,-2762.29 302.749,-2757.02"/>
<text text-anchor="middle" x="460.5" y="-2629.5" font-family="Helvetica,sans-Serif" font-size="10.00">&lt; boost::shared_ptr&lt; T &gt; &gt;</text>
</g>
<!-- Node19 -->
<g id="node39" class="node"><title>Node19</title>
<polygon fill="white" stroke="#bfbfbf" points="518.5,-1936.5 518.5,-1993.5 733.5,-1993.5 733.5,-1936.5 518.5,-1936.5"/>
<text text-anchor="middle" x="626" y="-1981.5" font-family="Helvetica,sans-Serif" font-size="10.00">std::vector&lt; boost::shared_ptr&lt; Neuron &gt; &gt;</text>
<polyline fill="none" stroke="#bfbfbf" points="518.5,-1974.5 733.5,-1974.5 "/>
<text text-anchor="start" x="526.5" y="-1962.5" font-family="Helvetica,sans-Serif" font-size="10.00">&#45; elements</text>
<polyline fill="none" stroke="#bfbfbf" points="518.5,-1955.5 733.5,-1955.5 "/>
<text text-anchor="middle" x="626" y="-1943.5" font-family="Helvetica,sans-Serif" font-size="10.00"> </text>
</g>
<!-- Node12&#45;&gt;Node19 -->
<g id="edge44" class="edge"><title>Node12&#45;&gt;Node19</title>
<path fill="none" stroke="orange" stroke-dasharray="5,2" d="M316.647,-2784.98C401.714,-2767.68 563.264,-2720.97 633,-2608 759.174,-2403.6 667.962,-2088.39 635.944,-1993.77"/>
<polygon fill="orange" stroke="orange" points="315.798,-2781.58 306.663,-2786.95 317.151,-2788.45 315.798,-2781.58"/>
<text text-anchor="middle" x="762" y="-2526.5" font-family="Helvetica,sans-Serif" font-size="10.00">&lt; boost::shared_ptr&lt; Neuron &gt; &gt;</text>
</g>
<!-- Node13 -->
<g id="node24" class="node"><title>Node13</title>
<polygon fill="white" stroke="#bfbfbf" points="247.5,-2982.5 247.5,-3039.5 276.5,-3039.5 276.5,-2982.5 247.5,-2982.5"/>
<text text-anchor="middle" x="262" y="-3027.5" font-family="Helvetica,sans-Serif" font-size="10.00">T</text>
<polyline fill="none" stroke="#bfbfbf" points="247.5,-3020.5 276.5,-3020.5 "/>
<text text-anchor="middle" x="262" y="-3008.5" font-family="Helvetica,sans-Serif" font-size="10.00"> </text>
<polyline fill="none" stroke="#bfbfbf" points="247.5,-3001.5 276.5,-3001.5 "/>
<text text-anchor="middle" x="262" y="-2989.5" font-family="Helvetica,sans-Serif" font-size="10.00"> </text>
</g>
<!-- Node13&#45;&gt;Node12 -->
<g id="edge24" class="edge"><title>Node13&#45;&gt;Node12</title>
<path fill="none" stroke="#9a32cd" stroke-dasharray="5,2" d="M262,-2972.24C262,-2929.73 262,-2861.67 262,-2823.77"/>
<polygon fill="#9a32cd" stroke="#9a32cd" points="262,-2982.46 257.5,-2972.46 262,-2977.46 262,-2972.46 262,-2972.46 262,-2972.46 262,-2977.46 266.5,-2972.46 262,-2982.46 262,-2982.46"/>
<text text-anchor="middle" x="283.5" y="-2955.5" font-family="Helvetica,sans-Serif" font-size="10.00">elements</text>
</g>
<!-- Node14&#45;&gt;Node9 -->
<g id="edge26" class="edge"><title>Node14&#45;&gt;Node9</title>
<path fill="none" stroke="#9a32cd" stroke-dasharray="5,2" d="M206.356,-2491.73C227.04,-2457.92 256.446,-2405.43 273,-2356 322.211,-2209.05 302.41,-2164.5 330,-2012 335.53,-1981.44 341.68,-1948.94 347.759,-1917.57"/>
<polygon fill="#9a32cd" stroke="#9a32cd" points="201.035,-2500.33 202.47,-2489.46 203.666,-2496.07 206.297,-2491.82 206.297,-2491.82 206.297,-2491.82 203.666,-2496.07 210.124,-2494.19 201.035,-2500.33 201.035,-2500.33"/>
<text text-anchor="middle" x="352.5" y="-2181.5" font-family="Helvetica,sans-Serif" font-size="10.00">collection</text>
</g>
<!-- Node15 -->
<g id="node28" class="node"><title>Node15</title>
<a xlink:href="class_con.html" target="_top" xlink:title="class Con &#45;">
<polygon fill="white" stroke="black" points="-0.5,-2656.5 -0.5,-2933.5 82.5,-2933.5 82.5,-2656.5 -0.5,-2656.5"/>
<text text-anchor="middle" x="41" y="-2921.5" font-family="Helvetica,sans-Serif" font-size="10.00">Con</text>
<polyline fill="none" stroke="black" points="-0.5,-2914.5 82.5,-2914.5 "/>
<text text-anchor="start" x="7.5" y="-2902.5" font-family="Helvetica,sans-Serif" font-size="10.00"># d_neuron</text>
<text text-anchor="start" x="7.5" y="-2891.5" font-family="Helvetica,sans-Serif" font-size="10.00"># d_weight</text>
<text text-anchor="start" x="7.5" y="-2880.5" font-family="Helvetica,sans-Serif" font-size="10.00">&#45; from</text>
<text text-anchor="start" x="7.5" y="-2869.5" font-family="Helvetica,sans-Serif" font-size="10.00">&#45; weight</text>
<polyline fill="none" stroke="black" points="-0.5,-2862.5 82.5,-2862.5 "/>
<text text-anchor="start" x="7.5" y="-2850.5" font-family="Helvetica,sans-Serif" font-size="10.00">+ Con()</text>
<text text-anchor="start" x="7.5" y="-2839.5" font-family="Helvetica,sans-Serif" font-size="10.00">+ Con()</text>
<text text-anchor="start" x="7.5" y="-2828.5" font-family="Helvetica,sans-Serif" font-size="10.00">+ neuron()</text>
<text text-anchor="start" x="7.5" y="-2817.5" font-family="Helvetica,sans-Serif" font-size="10.00">+ Id()</text>
<text text-anchor="start" x="7.5" y="-2806.5" font-family="Helvetica,sans-Serif" font-size="10.00">+ weight()</text>
<text text-anchor="start" x="7.5" y="-2795.5" font-family="Helvetica,sans-Serif" font-size="10.00">+ show()</text>
<text text-anchor="start" x="7.5" y="-2784.5" font-family="Helvetica,sans-Serif" font-size="10.00">+ validate()</text>
<text text-anchor="start" x="7.5" y="-2773.5" font-family="Helvetica,sans-Serif" font-size="10.00">+ Con()</text>
<text text-anchor="start" x="7.5" y="-2762.5" font-family="Helvetica,sans-Serif" font-size="10.00">+ Con()</text>
<text text-anchor="start" x="7.5" y="-2751.5" font-family="Helvetica,sans-Serif" font-size="10.00">+ Con()</text>
<text text-anchor="start" x="7.5" y="-2740.5" font-family="Helvetica,sans-Serif" font-size="10.00">+ ~Con()</text>
<text text-anchor="start" x="7.5" y="-2729.5" font-family="Helvetica,sans-Serif" font-size="10.00">+ getFrom()</text>
<text text-anchor="start" x="7.5" y="-2718.5" font-family="Helvetica,sans-Serif" font-size="10.00">+ setFrom()</text>
<text text-anchor="start" x="7.5" y="-2707.5" font-family="Helvetica,sans-Serif" font-size="10.00">+ getId()</text>
<text text-anchor="start" x="7.5" y="-2696.5" font-family="Helvetica,sans-Serif" font-size="10.00">+ getWeight()</text>
<text text-anchor="start" x="7.5" y="-2685.5" font-family="Helvetica,sans-Serif" font-size="10.00">+ setWeight()</text>
<text text-anchor="start" x="7.5" y="-2674.5" font-family="Helvetica,sans-Serif" font-size="10.00">+ show()</text>
<text text-anchor="start" x="7.5" y="-2663.5" font-family="Helvetica,sans-Serif" font-size="10.00">+ validate()</text>
</a>
</g>
<!-- Node15&#45;&gt;Node14 -->
<g id="edge28" class="edge"><title>Node15&#45;&gt;Node14</title>
<path fill="none" stroke="#9a32cd" stroke-dasharray="5,2" d="M87.4375,-2707.67C115.409,-2655.66 149.181,-2592.88 168.164,-2557.58"/>
<polygon fill="#9a32cd" stroke="#9a32cd" points="82.6452,-2716.58 83.4192,-2705.64 85.0138,-2712.17 87.3823,-2707.77 87.3823,-2707.77 87.3823,-2707.77 85.0138,-2712.17 91.3454,-2709.9 82.6452,-2716.58 82.6452,-2716.58"/>
<text text-anchor="middle" x="150.5" y="-2629.5" font-family="Helvetica,sans-Serif" font-size="10.00">elements</text>
</g>
<!-- Node16 -->
<g id="node31" class="node"><title>Node16</title>
<a xlink:href="class_container.html" target="_top" xlink:title="class Container &#45;">
<polygon fill="white" stroke="black" points="449.5,-2012.5 449.5,-2355.5 546.5,-2355.5 546.5,-2012.5 449.5,-2012.5"/>
<text text-anchor="middle" x="498" y="-2343.5" font-family="Helvetica,sans-Serif" font-size="10.00">Container&lt; T &gt;</text>
<polyline fill="none" stroke="black" points="449.5,-2336.5 546.5,-2336.5 "/>
<text text-anchor="start" x="457.5" y="-2324.5" font-family="Helvetica,sans-Serif" font-size="10.00"># collection</text>
<text text-anchor="start" x="457.5" y="-2313.5" font-family="Helvetica,sans-Serif" font-size="10.00"># collection</text>
<polyline fill="none" stroke="black" points="449.5,-2306.5 546.5,-2306.5 "/>
<text text-anchor="start" x="457.5" y="-2294.5" font-family="Helvetica,sans-Serif" font-size="10.00">+ Container()</text>
<text text-anchor="start" x="457.5" y="-2283.5" font-family="Helvetica,sans-Serif" font-size="10.00">+ ~Container()</text>
<text text-anchor="start" x="457.5" y="-2272.5" font-family="Helvetica,sans-Serif" font-size="10.00">+ createIterator()</text>
<text text-anchor="start" x="457.5" y="-2261.5" font-family="Helvetica,sans-Serif" font-size="10.00">+ push_back()</text>
<text text-anchor="start" x="457.5" y="-2250.5" font-family="Helvetica,sans-Serif" font-size="10.00">+ reserve()</text>
<text text-anchor="start" x="457.5" y="-2239.5" font-family="Helvetica,sans-Serif" font-size="10.00">+ empty()</text>
<text text-anchor="start" x="457.5" y="-2228.5" font-family="Helvetica,sans-Serif" font-size="10.00">+ size()</text>
<text text-anchor="start" x="457.5" y="-2217.5" font-family="Helvetica,sans-Serif" font-size="10.00">+ clear()</text>
<text text-anchor="start" x="457.5" y="-2206.5" font-family="Helvetica,sans-Serif" font-size="10.00">+ show()</text>
<text text-anchor="start" x="457.5" y="-2195.5" font-family="Helvetica,sans-Serif" font-size="10.00">+ validate()</text>
<text text-anchor="start" x="457.5" y="-2184.5" font-family="Helvetica,sans-Serif" font-size="10.00">+ Container()</text>
<text text-anchor="start" x="457.5" y="-2173.5" font-family="Helvetica,sans-Serif" font-size="10.00">+ Container()</text>
<text text-anchor="start" x="457.5" y="-2162.5" font-family="Helvetica,sans-Serif" font-size="10.00">+ begin()</text>
<text text-anchor="start" x="457.5" y="-2151.5" font-family="Helvetica,sans-Serif" font-size="10.00">+ end()</text>
<text text-anchor="start" x="457.5" y="-2140.5" font-family="Helvetica,sans-Serif" font-size="10.00">+ load()</text>
<text text-anchor="start" x="457.5" y="-2129.5" font-family="Helvetica,sans-Serif" font-size="10.00">+ store()</text>
<text text-anchor="start" x="457.5" y="-2118.5" font-family="Helvetica,sans-Serif" font-size="10.00">+ size()</text>
<text text-anchor="start" x="457.5" y="-2107.5" font-family="Helvetica,sans-Serif" font-size="10.00">+ push_back()</text>
<text text-anchor="start" x="457.5" y="-2096.5" font-family="Helvetica,sans-Serif" font-size="10.00">+ append()</text>
<text text-anchor="start" x="457.5" y="-2085.5" font-family="Helvetica,sans-Serif" font-size="10.00">+ show()</text>
<text text-anchor="start" x="457.5" y="-2074.5" font-family="Helvetica,sans-Serif" font-size="10.00">+ validate()</text>
<text text-anchor="start" x="457.5" y="-2063.5" font-family="Helvetica,sans-Serif" font-size="10.00">+ reserve()</text>
<text text-anchor="start" x="457.5" y="-2052.5" font-family="Helvetica,sans-Serif" font-size="10.00">+ resize()</text>
<text text-anchor="start" x="457.5" y="-2041.5" font-family="Helvetica,sans-Serif" font-size="10.00">+ empty()</text>
<text text-anchor="start" x="457.5" y="-2030.5" font-family="Helvetica,sans-Serif" font-size="10.00">+ clear()</text>
<text text-anchor="start" x="457.5" y="-2019.5" font-family="Helvetica,sans-Serif" font-size="10.00">+ operator[]()</text>
</a>
</g>
<!-- Node16&#45;&gt;Node5 -->
<g id="edge46" class="edge"><title>Node16&#45;&gt;Node5</title>
<path fill="none" stroke="orange" stroke-dasharray="5,2" d="M497.399,-2001.96C497.187,-1923.57 497,-1830.76 497,-1747 497,-1747 497,-1747 497,-1120 497,-1078.95 493.476,-1034.95 488.604,-993.736"/>
<polygon fill="orange" stroke="orange" points="493.9,-2002.44 497.428,-2012.43 500.9,-2002.42 493.9,-2002.44"/>
<text text-anchor="middle" x="522" y="-1384.5" font-family="Helvetica,sans-Serif" font-size="10.00">&lt; Neuron &gt;</text>
</g>
<!-- Node16&#45;&gt;Node9 -->
<g id="edge32" class="edge"><title>Node16&#45;&gt;Node9</title>
<path fill="none" stroke="orange" stroke-dasharray="5,2" d="M449.265,-2002.49C448.504,-1999.64 447.749,-1996.81 447,-1994 440.434,-1969.36 433.539,-1943.33 426.793,-1917.78"/>
<polygon fill="orange" stroke="orange" points="445.91,-2003.49 451.873,-2012.25 452.673,-2001.69 445.91,-2003.49"/>
<text text-anchor="middle" x="465" y="-1962.5" font-family="Helvetica,sans-Serif" font-size="10.00">&lt; Con &gt;</text>
</g>
<!-- Node17 -->
<g id="node33" class="node"><title>Node17</title>
<a xlink:href="class_container_interface.html" target="_top" xlink:title="class ContainerInterface &#45;">
<polygon fill="white" stroke="black" points="499.5,-2451 499.5,-2607 624.5,-2607 624.5,-2451 499.5,-2451"/>
<text text-anchor="middle" x="562" y="-2595" font-family="Helvetica,sans-Serif" font-size="10.00">ContainerInterface&lt; T &gt;</text>
<polyline fill="none" stroke="black" points="499.5,-2588 624.5,-2588 "/>
<text text-anchor="middle" x="562" y="-2576" font-family="Helvetica,sans-Serif" font-size="10.00"> </text>
<polyline fill="none" stroke="black" points="499.5,-2569 624.5,-2569 "/>
<text text-anchor="start" x="507.5" y="-2557" font-family="Helvetica,sans-Serif" font-size="10.00">+ ~ContainerInterface()</text>
<text text-anchor="start" x="507.5" y="-2546" font-family="Helvetica,sans-Serif" font-size="10.00">+ createIterator()</text>
<text text-anchor="start" x="507.5" y="-2535" font-family="Helvetica,sans-Serif" font-size="10.00">+ push_back()</text>
<text text-anchor="start" x="507.5" y="-2524" font-family="Helvetica,sans-Serif" font-size="10.00">+ reserve()</text>
<text text-anchor="start" x="507.5" y="-2513" font-family="Helvetica,sans-Serif" font-size="10.00">+ empty()</text>
<text text-anchor="start" x="507.5" y="-2502" font-family="Helvetica,sans-Serif" font-size="10.00">+ size()</text>
<text text-anchor="start" x="507.5" y="-2491" font-family="Helvetica,sans-Serif" font-size="10.00">+ clear()</text>
<text text-anchor="start" x="507.5" y="-2480" font-family="Helvetica,sans-Serif" font-size="10.00">+ show()</text>
<text text-anchor="start" x="507.5" y="-2469" font-family="Helvetica,sans-Serif" font-size="10.00">+ validate()</text>
<text text-anchor="start" x="507.5" y="-2458" font-family="Helvetica,sans-Serif" font-size="10.00"># ContainerInterface()</text>
</a>
</g>
<!-- Node17&#45;&gt;Node16 -->
<g id="edge34" class="edge"><title>Node17&#45;&gt;Node16</title>
<path fill="none" stroke="midnightblue" d="M556.654,-2440.93C554.603,-2418.99 551.802,-2395.55 548,-2374 546.938,-2367.98 545.779,-2361.88 544.541,-2355.73"/>
<polygon fill="none" stroke="midnightblue" points="553.168,-2441.25 557.544,-2450.9 560.14,-2440.63 553.168,-2441.25"/>
</g>
<!-- Node18&#45;&gt;Node16 -->
<g id="edge36" class="edge"><title>Node18&#45;&gt;Node16</title>
<path fill="none" stroke="#9a32cd" stroke-dasharray="5,2" d="M432.088,-2493.56C450.247,-2477.06 469.376,-2455.72 480,-2432 490.634,-2408.26 497.247,-2381.95 501.146,-2355.6"/>
<polygon fill="#9a32cd" stroke="#9a32cd" points="424.393,-2500.33 428.929,-2490.35 428.148,-2497.03 431.902,-2493.73 431.902,-2493.73 431.902,-2493.73 428.148,-2497.03 434.874,-2497.1 424.393,-2500.33 424.393,-2500.33"/>
<text text-anchor="middle" x="519.5" y="-2400.5" font-family="Helvetica,sans-Serif" font-size="10.00">collection</text>
</g>
<!-- Node19&#45;&gt;Node5 -->
<g id="edge42" class="edge"><title>Node19&#45;&gt;Node5</title>
<path fill="none" stroke="#9a32cd" stroke-dasharray="5,2" d="M623.267,-1926.45C618.232,-1853.93 608,-1689.52 608,-1551 608,-1551 608,-1551 608,-1120 608,-1033.59 557.188,-946.471 515.11,-889.145"/>
<polygon fill="#9a32cd" stroke="#9a32cd" points="623.97,-1936.47 618.781,-1926.81 623.62,-1931.48 623.27,-1926.49 623.27,-1926.49 623.27,-1926.49 623.62,-1931.48 627.759,-1926.18 623.97,-1936.47 623.97,-1936.47"/>
<text text-anchor="middle" x="630.5" y="-1384.5" font-family="Helvetica,sans-Serif" font-size="10.00">collection</text>
</g>
</g>
</svg>
