<?xml version="1.0" encoding="UTF-8" standalone="no"?>
<!DOCTYPE svg PUBLIC "-//W3C//DTD SVG 1.1//EN"
 "http://www.w3.org/Graphics/SVG/1.1/DTD/svg11.dtd">
<!-- Generated by graphviz version 2.28.0 (20110610.2051)
 -->
<!-- Title: G Pages: 1 -->
<svg width="395pt" height="1070pt"
 viewBox="0.00 0.00 395.00 1070.00" xmlns="http://www.w3.org/2000/svg" xmlns:xlink="http://www.w3.org/1999/xlink">
<g id="graph1" class="graph" transform="scale(1 1) rotate(0) translate(4 1066)">
<title>G</title>
<polygon fill="white" stroke="white" points="-4,5 -4,-1066 392,-1066 392,5 -4,5"/>
<!-- Node1 -->
<g id="node1" class="node"><title>Node1</title>
<polygon fill="#bfbfbf" stroke="black" points="56,-0.5 56,-57.5 138,-57.5 138,-0.5 56,-0.5"/>
<text text-anchor="middle" x="97" y="-45.5" font-family="Helvetica,sans-Serif" font-size="10.00">MLPneuralNet</text>
<polyline fill="none" stroke="black" points="56,-38.5 138,-38.5 "/>
<text text-anchor="start" x="64" y="-26.5" font-family="Helvetica,sans-Serif" font-size="10.00">&#45; nLayers</text>
<polyline fill="none" stroke="black" points="56,-19.5 138,-19.5 "/>
<text text-anchor="middle" x="97" y="-7.5" font-family="Helvetica,sans-Serif" font-size="10.00"> </text>
</g>
<!-- Node2 -->
<g id="node2" class="node"><title>Node2</title>
<a xlink:href="class_neural_net.html" target="_top" xlink:title="{NeuralNet\n||+ train()\l}">
<polygon fill="white" stroke="black" points="32.5,-106.5 32.5,-163.5 95.5,-163.5 95.5,-106.5 32.5,-106.5"/>
<text text-anchor="middle" x="64" y="-151.5" font-family="Helvetica,sans-Serif" font-size="10.00">NeuralNet</text>
<polyline fill="none" stroke="black" points="32.5,-144.5 95.5,-144.5 "/>
<text text-anchor="middle" x="64" y="-132.5" font-family="Helvetica,sans-Serif" font-size="10.00"> </text>
<polyline fill="none" stroke="black" points="32.5,-125.5 95.5,-125.5 "/>
<text text-anchor="start" x="40.5" y="-113.5" font-family="Helvetica,sans-Serif" font-size="10.00">+ train()</text>
</a>
</g>
<!-- Node2&#45;&gt;Node1 -->
<g id="edge2" class="edge"><title>Node2&#45;&gt;Node1</title>
<path fill="none" stroke="midnightblue" d="M75.7854,-96.8581C79.8781,-83.9599 84.3933,-69.7303 88.2023,-57.726"/>
<polygon fill="none" stroke="midnightblue" points="72.4452,-95.8127 72.7568,-106.403 79.1174,-97.9299 72.4452,-95.8127"/>
</g>
<!-- Node3 -->
<g id="node4" class="node"><title>Node3</title>
<a xlink:href="class_m_l_player_container.html" target="_top" xlink:title="{MLPlayerContainer\n||}">
<polygon fill="white" stroke="black" points="114,-106.5 114,-163.5 218,-163.5 218,-106.5 114,-106.5"/>
<text text-anchor="middle" x="166" y="-151.5" font-family="Helvetica,sans-Serif" font-size="10.00">MLPlayerContainer</text>
<polyline fill="none" stroke="black" points="114,-144.5 218,-144.5 "/>
<text text-anchor="middle" x="166" y="-132.5" font-family="Helvetica,sans-Serif" font-size="10.00"> </text>
<polyline fill="none" stroke="black" points="114,-125.5 218,-125.5 "/>
<text text-anchor="middle" x="166" y="-113.5" font-family="Helvetica,sans-Serif" font-size="10.00"> </text>
</a>
</g>
<!-- Node3&#45;&gt;Node1 -->
<g id="edge4" class="edge"><title>Node3&#45;&gt;Node1</title>
<path fill="none" stroke="#9a32cd" stroke-dasharray="5,2" d="M142.11,-97.9926C133.357,-84.7989 123.594,-70.0834 115.395,-57.726"/>
<polygon fill="#9a32cd" stroke="#9a32cd" points="147.69,-106.403 138.412,-100.558 144.926,-102.237 142.162,-98.0701 142.162,-98.0701 142.162,-98.0701 144.926,-102.237 145.912,-95.5823 147.69,-106.403 147.69,-106.403"/>
<text text-anchor="middle" x="151.5" y="-79.5" font-family="Helvetica,sans-Serif" font-size="10.00">nLayers</text>
</g>
<!-- Node4 -->
<g id="node6" class="node"><title>Node4</title>
<a xlink:href="class_container.html" target="_top" xlink:title="{Container\&lt; MLPlayer \&gt;\n|# collection\l|+ Container()\l+ Container()\l+ begin()\l+ end()\l+ load()\l+ store()\l+ size()\l+ push_back()\l+ append()\l+ show()\l+ validate()\l+ reserve()\l+ resize()\l+ empty()\l+ clear()\l+ operator[]()\l}">
<polygon fill="white" stroke="black" points="106,-203 106,-425 226,-425 226,-203 106,-203"/>
<text text-anchor="middle" x="166" y="-413" font-family="Helvetica,sans-Serif" font-size="10.00">Container&lt; MLPlayer &gt;</text>
<polyline fill="none" stroke="black" points="106,-406 226,-406 "/>
<text text-anchor="start" x="114" y="-394" font-family="Helvetica,sans-Serif" font-size="10.00"># collection</text>
<polyline fill="none" stroke="black" points="106,-387 226,-387 "/>
<text text-anchor="start" x="114" y="-375" font-family="Helvetica,sans-Serif" font-size="10.00">+ Container()</text>
<text text-anchor="start" x="114" y="-364" font-family="Helvetica,sans-Serif" font-size="10.00">+ Container()</text>
<text text-anchor="start" x="114" y="-353" font-family="Helvetica,sans-Serif" font-size="10.00">+ begin()</text>
<text text-anchor="start" x="114" y="-342" font-family="Helvetica,sans-Serif" font-size="10.00">+ end()</text>
<text text-anchor="start" x="114" y="-331" font-family="Helvetica,sans-Serif" font-size="10.00">+ load()</text>
<text text-anchor="start" x="114" y="-320" font-family="Helvetica,sans-Serif" font-size="10.00">+ store()</text>
<text text-anchor="start" x="114" y="-309" font-family="Helvetica,sans-Serif" font-size="10.00">+ size()</text>
<text text-anchor="start" x="114" y="-298" font-family="Helvetica,sans-Serif" font-size="10.00">+ push_back()</text>
<text text-anchor="start" x="114" y="-287" font-family="Helvetica,sans-Serif" font-size="10.00">+ append()</text>
<text text-anchor="start" x="114" y="-276" font-family="Helvetica,sans-Serif" font-size="10.00">+ show()</text>
<text text-anchor="start" x="114" y="-265" font-family="Helvetica,sans-Serif" font-size="10.00">+ validate()</text>
<text text-anchor="start" x="114" y="-254" font-family="Helvetica,sans-Serif" font-size="10.00">+ reserve()</text>
<text text-anchor="start" x="114" y="-243" font-family="Helvetica,sans-Serif" font-size="10.00">+ resize()</text>
<text text-anchor="start" x="114" y="-232" font-family="Helvetica,sans-Serif" font-size="10.00">+ empty()</text>
<text text-anchor="start" x="114" y="-221" font-family="Helvetica,sans-Serif" font-size="10.00">+ clear()</text>
<text text-anchor="start" x="114" y="-210" font-family="Helvetica,sans-Serif" font-size="10.00">+ operator[]()</text>
</a>
</g>
<!-- Node4&#45;&gt;Node3 -->
<g id="edge6" class="edge"><title>Node4&#45;&gt;Node3</title>
<path fill="none" stroke="midnightblue" d="M166,-192.89C166,-182.168 166,-172.158 166,-163.617"/>
<polygon fill="none" stroke="midnightblue" points="162.5,-192.916 166,-202.916 169.5,-192.916 162.5,-192.916"/>
</g>
<!-- Node5 -->
<g id="node8" class="node"><title>Node5</title>
<polygon fill="white" stroke="#bfbfbf" points="0,-716.5 0,-773.5 224,-773.5 224,-716.5 0,-716.5"/>
<text text-anchor="middle" x="112" y="-761.5" font-family="Helvetica,sans-Serif" font-size="10.00">std::vector&lt; boost::shared_ptr&lt; MLPlayer &gt; &gt;</text>
<polyline fill="none" stroke="#bfbfbf" points="0,-754.5 224,-754.5 "/>
<text text-anchor="start" x="8" y="-742.5" font-family="Helvetica,sans-Serif" font-size="10.00">&#45; elements</text>
<polyline fill="none" stroke="#bfbfbf" points="0,-735.5 224,-735.5 "/>
<text text-anchor="middle" x="112" y="-723.5" font-family="Helvetica,sans-Serif" font-size="10.00"> </text>
</g>
<!-- Node5&#45;&gt;Node4 -->
<g id="edge8" class="edge"><title>Node5&#45;&gt;Node4</title>
<path fill="none" stroke="#9a32cd" stroke-dasharray="5,2" d="M116.78,-706.029C124.623,-643.719 140.512,-517.487 152.123,-425.244"/>
<polygon fill="#9a32cd" stroke="#9a32cd" points="115.501,-716.183 112.286,-705.699 116.126,-711.222 116.75,-706.261 116.75,-706.261 116.75,-706.261 116.126,-711.222 121.215,-706.823 115.501,-716.183 115.501,-716.183"/>
<text text-anchor="middle" x="167.5" y="-583.5" font-family="Helvetica,sans-Serif" font-size="10.00">collection</text>
</g>
<!-- Node6 -->
<g id="node10" class="node"><title>Node6</title>
<a xlink:title="STL class.">
<polygon fill="white" stroke="#bfbfbf" points="146.5,-898.5 146.5,-955.5 235.5,-955.5 235.5,-898.5 146.5,-898.5"/>
<text text-anchor="middle" x="191" y="-943.5" font-family="Helvetica,sans-Serif" font-size="10.00">std::vector&lt; T &gt;</text>
<polyline fill="none" stroke="#bfbfbf" points="146.5,-936.5 235.5,-936.5 "/>
<text text-anchor="start" x="154.5" y="-924.5" font-family="Helvetica,sans-Serif" font-size="10.00">&#45; elements</text>
<polyline fill="none" stroke="#bfbfbf" points="146.5,-917.5 235.5,-917.5 "/>
<text text-anchor="middle" x="191" y="-905.5" font-family="Helvetica,sans-Serif" font-size="10.00"> </text>
</a>
</g>
<!-- Node6&#45;&gt;Node5 -->
<g id="edge10" class="edge"><title>Node6&#45;&gt;Node5</title>
<path fill="none" stroke="orange" stroke-dasharray="5,2" d="M136.934,-911.238C121.711,-904.317 106.893,-894.32 98,-880 77.9475,-847.71 88.9933,-802.421 99.7368,-773.646"/>
<polygon fill="orange" stroke="orange" points="135.837,-914.572 146.416,-915.162 138.514,-908.104 135.837,-914.572"/>
<text text-anchor="middle" x="177" y="-871.5" font-family="Helvetica,sans-Serif" font-size="10.00">&lt; boost::shared_ptr&lt; MLPlayer &gt; &gt;</text>
</g>
<!-- Node9 -->
<g id="node16" class="node"><title>Node9</title>
<polygon fill="white" stroke="#bfbfbf" points="182,-792.5 182,-849.5 370,-849.5 370,-792.5 182,-792.5"/>
<text text-anchor="middle" x="276" y="-837.5" font-family="Helvetica,sans-Serif" font-size="10.00">std::vector&lt; boost::shared_ptr&lt; T &gt; &gt;</text>
<polyline fill="none" stroke="#bfbfbf" points="182,-830.5 370,-830.5 "/>
<text text-anchor="start" x="190" y="-818.5" font-family="Helvetica,sans-Serif" font-size="10.00">&#45; elements</text>
<polyline fill="none" stroke="#bfbfbf" points="182,-811.5 370,-811.5 "/>
<text text-anchor="middle" x="276" y="-799.5" font-family="Helvetica,sans-Serif" font-size="10.00"> </text>
</g>
<!-- Node6&#45;&gt;Node9 -->
<g id="edge18" class="edge"><title>Node6&#45;&gt;Node9</title>
<path fill="none" stroke="orange" stroke-dasharray="5,2" d="M243.529,-897.084C249.712,-892.019 255.433,-886.317 260,-880 266.365,-871.196 270.199,-859.973 272.508,-849.75"/>
<polygon fill="orange" stroke="orange" points="241.364,-894.333 235.502,-903.158 245.588,-899.915 241.364,-894.333"/>
<text text-anchor="middle" x="326.5" y="-871.5" font-family="Helvetica,sans-Serif" font-size="10.00">&lt; boost::shared_ptr&lt; T &gt; &gt;</text>
</g>
<!-- Node7 -->
<g id="node12" class="node"><title>Node7</title>
<polygon fill="white" stroke="#bfbfbf" points="176.5,-1004.5 176.5,-1061.5 205.5,-1061.5 205.5,-1004.5 176.5,-1004.5"/>
<text text-anchor="middle" x="191" y="-1049.5" font-family="Helvetica,sans-Serif" font-size="10.00">T</text>
<polyline fill="none" stroke="#bfbfbf" points="176.5,-1042.5 205.5,-1042.5 "/>
<text text-anchor="middle" x="191" y="-1030.5" font-family="Helvetica,sans-Serif" font-size="10.00"> </text>
<polyline fill="none" stroke="#bfbfbf" points="176.5,-1023.5 205.5,-1023.5 "/>
<text text-anchor="middle" x="191" y="-1011.5" font-family="Helvetica,sans-Serif" font-size="10.00"> </text>
</g>
<!-- Node7&#45;&gt;Node6 -->
<g id="edge12" class="edge"><title>Node7&#45;&gt;Node6</title>
<path fill="none" stroke="#9a32cd" stroke-dasharray="5,2" d="M191,-994.098C191,-981.403 191,-967.495 191,-955.726"/>
<polygon fill="#9a32cd" stroke="#9a32cd" points="191,-1004.4 186.5,-994.403 191,-999.403 191,-994.403 191,-994.403 191,-994.403 191,-999.403 195.5,-994.403 191,-1004.4 191,-1004.4"/>
<text text-anchor="middle" x="212.5" y="-977.5" font-family="Helvetica,sans-Serif" font-size="10.00">elements</text>
</g>
<!-- Node8 -->
<g id="node14" class="node"><title>Node8</title>
<a xlink:href="class_container.html" target="_top" xlink:title="{Container\&lt; T \&gt;\n|# collection\l|+ Container()\l+ Container()\l+ begin()\l+ end()\l+ load()\l+ store()\l+ size()\l+ push_back()\l+ append()\l+ show()\l+ validate()\l+ reserve()\l+ resize()\l+ empty()\l+ clear()\l+ operator[]()\l}">
<polygon fill="white" stroke="black" points="202.5,-475 202.5,-697 285.5,-697 285.5,-475 202.5,-475"/>
<text text-anchor="middle" x="244" y="-685" font-family="Helvetica,sans-Serif" font-size="10.00">Container&lt; T &gt;</text>
<polyline fill="none" stroke="black" points="202.5,-678 285.5,-678 "/>
<text text-anchor="start" x="210.5" y="-666" font-family="Helvetica,sans-Serif" font-size="10.00"># collection</text>
<polyline fill="none" stroke="black" points="202.5,-659 285.5,-659 "/>
<text text-anchor="start" x="210.5" y="-647" font-family="Helvetica,sans-Serif" font-size="10.00">+ Container()</text>
<text text-anchor="start" x="210.5" y="-636" font-family="Helvetica,sans-Serif" font-size="10.00">+ Container()</text>
<text text-anchor="start" x="210.5" y="-625" font-family="Helvetica,sans-Serif" font-size="10.00">+ begin()</text>
<text text-anchor="start" x="210.5" y="-614" font-family="Helvetica,sans-Serif" font-size="10.00">+ end()</text>
<text text-anchor="start" x="210.5" y="-603" font-family="Helvetica,sans-Serif" font-size="10.00">+ load()</text>
<text text-anchor="start" x="210.5" y="-592" font-family="Helvetica,sans-Serif" font-size="10.00">+ store()</text>
<text text-anchor="start" x="210.5" y="-581" font-family="Helvetica,sans-Serif" font-size="10.00">+ size()</text>
<text text-anchor="start" x="210.5" y="-570" font-family="Helvetica,sans-Serif" font-size="10.00">+ push_back()</text>
<text text-anchor="start" x="210.5" y="-559" font-family="Helvetica,sans-Serif" font-size="10.00">+ append()</text>
<text text-anchor="start" x="210.5" y="-548" font-family="Helvetica,sans-Serif" font-size="10.00">+ show()</text>
<text text-anchor="start" x="210.5" y="-537" font-family="Helvetica,sans-Serif" font-size="10.00">+ validate()</text>
<text text-anchor="start" x="210.5" y="-526" font-family="Helvetica,sans-Serif" font-size="10.00">+ reserve()</text>
<text text-anchor="start" x="210.5" y="-515" font-family="Helvetica,sans-Serif" font-size="10.00">+ resize()</text>
<text text-anchor="start" x="210.5" y="-504" font-family="Helvetica,sans-Serif" font-size="10.00">+ empty()</text>
<text text-anchor="start" x="210.5" y="-493" font-family="Helvetica,sans-Serif" font-size="10.00">+ clear()</text>
<text text-anchor="start" x="210.5" y="-482" font-family="Helvetica,sans-Serif" font-size="10.00">+ operator[]()</text>
</a>
</g>
<!-- Node8&#45;&gt;Node4 -->
<g id="edge14" class="edge"><title>Node8&#45;&gt;Node4</title>
<path fill="none" stroke="orange" stroke-dasharray="5,2" d="M209.383,-465.172C205.55,-451.904 201.66,-438.437 197.863,-425.294"/>
<polygon fill="orange" stroke="orange" points="206.024,-466.156 212.162,-474.791 212.749,-464.213 206.024,-466.156"/>
<text text-anchor="middle" x="235" y="-447.5" font-family="Helvetica,sans-Serif" font-size="10.00">&lt; MLPlayer &gt;</text>
</g>
<!-- Node9&#45;&gt;Node8 -->
<g id="edge16" class="edge"><title>Node9&#45;&gt;Node8</title>
<path fill="none" stroke="#9a32cd" stroke-dasharray="5,2" d="M270.813,-782.229C267.61,-758.909 263.321,-727.678 259.113,-697.045"/>
<polygon fill="#9a32cd" stroke="#9a32cd" points="272.204,-792.357 266.385,-783.062 271.523,-787.403 270.843,-782.45 270.843,-782.45 270.843,-782.45 271.523,-787.403 275.301,-781.838 272.204,-792.357 272.204,-792.357"/>
<text text-anchor="middle" x="291.5" y="-742.5" font-family="Helvetica,sans-Serif" font-size="10.00">collection</text>
</g>
</g>
</svg>
