<?xml version="1.0" encoding="UTF-8" standalone="no"?>
<!DOCTYPE svg PUBLIC "-//W3C//DTD SVG 1.1//EN"
 "http://www.w3.org/Graphics/SVG/1.1/DTD/svg11.dtd">
<!-- Generated by graphviz version 2.25.20091207.0545 (20091207.0545)
 -->
<!-- Title: G Pages: 1 -->
<svg width="369pt" height="852pt"
 viewBox="0.00 0.00 369.00 852.00" xmlns="http://www.w3.org/2000/svg" xmlns:xlink="http://www.w3.org/1999/xlink">
<g id="graph1" class="graph" transform="scale(1 1) rotate(0) translate(4 848)">
<title>G</title>
<polygon fill="white" stroke="white" points="-4,5 -4,-848 366,-848 366,5 -4,5"/>
<!-- Node1 -->
<g id="node1" class="node"><title>Node1</title>
<polygon fill="#bfbfbf" stroke="black" points="127.5,-0.5 127.5,-57.5 190.5,-57.5 190.5,-0.5 127.5,-0.5"/>
<text text-anchor="middle" x="159" y="-44.5" font-family="Helvetica,sans-Serif" font-size="10.00">vecNeuron</text>
<polyline fill="none" stroke="black" points="127.5,-38.5 190.5,-38.5 "/>
<text text-anchor="middle" x="159" y="-25.5" font-family="Helvetica,sans-Serif" font-size="10.00"> </text>
<polyline fill="none" stroke="black" points="127.5,-19.5 190.5,-19.5 "/>
<text text-anchor="middle" x="159" y="-6.5" font-family="Helvetica,sans-Serif" font-size="10.00"> </text>
</g>
<!-- Node2 -->
<g id="node2" class="node"><title>Node2</title>
<a xlink:href="class_container.html" target="_top" xlink:title="{Container\&lt; Neuron \&gt;\n|# ldata\l|+ begin()\l+ end()\l+ load()\l+ store()\l+ size()\l+ push_back()\l+ append()\l+ show()\l+ validate()\l+ reserve()\l+ resize()\l}">
<polygon fill="white" stroke="black" points="105,-96.5 105,-263.5 213,-263.5 213,-96.5 105,-96.5"/>
<text text-anchor="middle" x="159" y="-250.5" font-family="Helvetica,sans-Serif" font-size="10.00">Container&lt; Neuron &gt;</text>
<polyline fill="none" stroke="black" points="105,-244.5 213,-244.5 "/>
<text text-anchor="start" x="113" y="-231.5" font-family="Helvetica,sans-Serif" font-size="10.00"># ldata</text>
<polyline fill="none" stroke="black" points="105,-225.5 213,-225.5 "/>
<text text-anchor="start" x="113" y="-212.5" font-family="Helvetica,sans-Serif" font-size="10.00">+ begin()</text>
<text text-anchor="start" x="113" y="-201.5" font-family="Helvetica,sans-Serif" font-size="10.00">+ end()</text>
<text text-anchor="start" x="113" y="-190.5" font-family="Helvetica,sans-Serif" font-size="10.00">+ load()</text>
<text text-anchor="start" x="113" y="-179.5" font-family="Helvetica,sans-Serif" font-size="10.00">+ store()</text>
<text text-anchor="start" x="113" y="-168.5" font-family="Helvetica,sans-Serif" font-size="10.00">+ size()</text>
<text text-anchor="start" x="113" y="-157.5" font-family="Helvetica,sans-Serif" font-size="10.00">+ push_back()</text>
<text text-anchor="start" x="113" y="-146.5" font-family="Helvetica,sans-Serif" font-size="10.00">+ append()</text>
<text text-anchor="start" x="113" y="-135.5" font-family="Helvetica,sans-Serif" font-size="10.00">+ show()</text>
<text text-anchor="start" x="113" y="-124.5" font-family="Helvetica,sans-Serif" font-size="10.00">+ validate()</text>
<text text-anchor="start" x="113" y="-113.5" font-family="Helvetica,sans-Serif" font-size="10.00">+ reserve()</text>
<text text-anchor="start" x="113" y="-102.5" font-family="Helvetica,sans-Serif" font-size="10.00">+ resize()</text>
</a>
</g>
<!-- Node2&#45;&gt;Node1 -->
<g id="edge2" class="edge"><title>Node2&#45;&gt;Node1</title>
<path fill="none" stroke="midnightblue" d="M159,-85.8253C159,-75.671 159,-65.9977 159,-57.6045"/>
<polygon fill="none" stroke="midnightblue" points="155.5,-86.1101 159,-96.1102 162.5,-86.1102 155.5,-86.1101"/>
</g>
<!-- Node3 -->
<g id="node4" class="node"><title>Node3</title>
<polygon fill="white" stroke="#bfbfbf" points="0,-498.5 0,-555.5 206,-555.5 206,-498.5 0,-498.5"/>
<text text-anchor="middle" x="103" y="-542.5" font-family="Helvetica,sans-Serif" font-size="10.00">std::vector&lt; boost::shared_ptr&lt; Neuron &gt; &gt;</text>
<polyline fill="none" stroke="#bfbfbf" points="0,-536.5 206,-536.5 "/>
<text text-anchor="start" x="8" y="-523.5" font-family="Helvetica,sans-Serif" font-size="10.00">&#45; elements</text>
<polyline fill="none" stroke="#bfbfbf" points="0,-517.5 206,-517.5 "/>
<text text-anchor="middle" x="103" y="-504.5" font-family="Helvetica,sans-Serif" font-size="10.00"> </text>
</g>
<!-- Node3&#45;&gt;Node2 -->
<g id="edge4" class="edge"><title>Node3&#45;&gt;Node2</title>
<path fill="none" stroke="#9a32cd" stroke-dasharray="5,2" d="M109.272,-488.135C117.984,-434.153 133.971,-335.092 145.469,-263.844"/>
<polygon fill="#9a32cd" stroke="#9a32cd" points="107.63,-498.308 104.781,-487.719 108.427,-493.372 109.224,-488.436 109.224,-488.436 109.224,-488.436 108.427,-493.372 113.666,-489.153 107.63,-498.308 107.63,-498.308"/>
<text text-anchor="middle" x="147.5" y="-392.5" font-family="Helvetica,sans-Serif" font-size="10.00">ldata</text>
</g>
<!-- Node4 -->
<g id="node6" class="node"><title>Node4</title>
<a xlink:title="STL class.">
<polygon fill="white" stroke="#bfbfbf" points="132.5,-680.5 132.5,-737.5 219.5,-737.5 219.5,-680.5 132.5,-680.5"/>
<text text-anchor="middle" x="176" y="-724.5" font-family="Helvetica,sans-Serif" font-size="10.00">std::vector&lt; T &gt;</text>
<polyline fill="none" stroke="#bfbfbf" points="132.5,-718.5 219.5,-718.5 "/>
<text text-anchor="start" x="140.5" y="-705.5" font-family="Helvetica,sans-Serif" font-size="10.00">&#45; elements</text>
<polyline fill="none" stroke="#bfbfbf" points="132.5,-699.5 219.5,-699.5 "/>
<text text-anchor="middle" x="176" y="-686.5" font-family="Helvetica,sans-Serif" font-size="10.00"> </text>
</a>
</g>
<!-- Node4&#45;&gt;Node3 -->
<g id="edge6" class="edge"><title>Node4&#45;&gt;Node3</title>
<path fill="none" stroke="orange" stroke-dasharray="5,2" d="M123.256,-691.422C110.116,-684.402 97.6162,-674.842 90,-662 70.6621,-629.394 80.7895,-584.405 90.9689,-555.504"/>
<polygon fill="orange" stroke="orange" points="121.881,-694.645 132.403,-695.885 124.95,-688.354 121.881,-694.645"/>
<text text-anchor="middle" x="161.5" y="-652.5" font-family="Helvetica,sans-Serif" font-size="10.00">&lt; boost::shared_ptr&lt; Neuron &gt; &gt;</text>
</g>
<!-- Node7 -->
<g id="node12" class="node"><title>Node7</title>
<polygon fill="white" stroke="#bfbfbf" points="164,-574.5 164,-631.5 344,-631.5 344,-574.5 164,-574.5"/>
<text text-anchor="middle" x="254" y="-618.5" font-family="Helvetica,sans-Serif" font-size="10.00">std::vector&lt; boost::shared_ptr&lt; T &gt; &gt;</text>
<polyline fill="none" stroke="#bfbfbf" points="164,-612.5 344,-612.5 "/>
<text text-anchor="start" x="172" y="-599.5" font-family="Helvetica,sans-Serif" font-size="10.00">&#45; elements</text>
<polyline fill="none" stroke="#bfbfbf" points="164,-593.5 344,-593.5 "/>
<text text-anchor="middle" x="254" y="-580.5" font-family="Helvetica,sans-Serif" font-size="10.00"> </text>
</g>
<!-- Node4&#45;&gt;Node7 -->
<g id="edge14" class="edge"><title>Node4&#45;&gt;Node7</title>
<path fill="none" stroke="orange" stroke-dasharray="5,2" d="M227.038,-674.053C230.72,-670.271 234.113,-666.244 237,-662 243.116,-653.01 247.057,-641.818 249.586,-631.605"/>
<polygon fill="orange" stroke="orange" points="224.531,-671.605 219.657,-681.012 229.334,-676.698 224.531,-671.605"/>
<text text-anchor="middle" x="302" y="-652.5" font-family="Helvetica,sans-Serif" font-size="10.00">&lt; boost::shared_ptr&lt; T &gt; &gt;</text>
</g>
<!-- Node5 -->
<g id="node8" class="node"><title>Node5</title>
<polygon fill="white" stroke="#bfbfbf" points="161.5,-786.5 161.5,-843.5 190.5,-843.5 190.5,-786.5 161.5,-786.5"/>
<text text-anchor="middle" x="176" y="-830.5" font-family="Helvetica,sans-Serif" font-size="10.00">T</text>
<polyline fill="none" stroke="#bfbfbf" points="161.5,-824.5 190.5,-824.5 "/>
<text text-anchor="middle" x="176" y="-811.5" font-family="Helvetica,sans-Serif" font-size="10.00"> </text>
<polyline fill="none" stroke="#bfbfbf" points="161.5,-805.5 190.5,-805.5 "/>
<text text-anchor="middle" x="176" y="-792.5" font-family="Helvetica,sans-Serif" font-size="10.00"> </text>
</g>
<!-- Node5&#45;&gt;Node4 -->
<g id="edge8" class="edge"><title>Node5&#45;&gt;Node4</title>
<path fill="none" stroke="#9a32cd" stroke-dasharray="5,2" d="M176,-776.005C176,-763.326 176,-749.494 176,-737.708"/>
<polygon fill="#9a32cd" stroke="#9a32cd" points="176,-786.315 171.5,-776.315 176,-781.315 176,-776.315 176,-776.315 176,-776.315 176,-781.315 180.5,-776.315 176,-786.315 176,-786.315"/>
<text text-anchor="middle" x="196" y="-758.5" font-family="Helvetica,sans-Serif" font-size="10.00">elements</text>
</g>
<!-- Node6 -->
<g id="node10" class="node"><title>Node6</title>
<a xlink:href="class_container.html" target="_top" xlink:title="{Container\&lt; T \&gt;\n|# ldata\l|+ begin()\l+ end()\l+ load()\l+ store()\l+ size()\l+ push_back()\l+ append()\l+ show()\l+ validate()\l+ reserve()\l+ resize()\l}">
<polygon fill="white" stroke="black" points="180,-312.5 180,-479.5 262,-479.5 262,-312.5 180,-312.5"/>
<text text-anchor="middle" x="221" y="-466.5" font-family="Helvetica,sans-Serif" font-size="10.00">Container&lt; T &gt;</text>
<polyline fill="none" stroke="black" points="180,-460.5 262,-460.5 "/>
<text text-anchor="start" x="188" y="-447.5" font-family="Helvetica,sans-Serif" font-size="10.00"># ldata</text>
<polyline fill="none" stroke="black" points="180,-441.5 262,-441.5 "/>
<text text-anchor="start" x="188" y="-428.5" font-family="Helvetica,sans-Serif" font-size="10.00">+ begin()</text>
<text text-anchor="start" x="188" y="-417.5" font-family="Helvetica,sans-Serif" font-size="10.00">+ end()</text>
<text text-anchor="start" x="188" y="-406.5" font-family="Helvetica,sans-Serif" font-size="10.00">+ load()</text>
<text text-anchor="start" x="188" y="-395.5" font-family="Helvetica,sans-Serif" font-size="10.00">+ store()</text>
<text text-anchor="start" x="188" y="-384.5" font-family="Helvetica,sans-Serif" font-size="10.00">+ size()</text>
<text text-anchor="start" x="188" y="-373.5" font-family="Helvetica,sans-Serif" font-size="10.00">+ push_back()</text>
<text text-anchor="start" x="188" y="-362.5" font-family="Helvetica,sans-Serif" font-size="10.00">+ append()</text>
<text text-anchor="start" x="188" y="-351.5" font-family="Helvetica,sans-Serif" font-size="10.00">+ show()</text>
<text text-anchor="start" x="188" y="-340.5" font-family="Helvetica,sans-Serif" font-size="10.00">+ validate()</text>
<text text-anchor="start" x="188" y="-329.5" font-family="Helvetica,sans-Serif" font-size="10.00">+ reserve()</text>
<text text-anchor="start" x="188" y="-318.5" font-family="Helvetica,sans-Serif" font-size="10.00">+ resize()</text>
</a>
</g>
<!-- Node6&#45;&gt;Node2 -->
<g id="edge10" class="edge"><title>Node6&#45;&gt;Node2</title>
<path fill="none" stroke="orange" stroke-dasharray="5,2" d="M194.203,-302.641C190.48,-289.674 186.676,-276.42 183.009,-263.645"/>
<polygon fill="orange" stroke="orange" points="190.906,-303.843 197.029,-312.489 197.634,-301.911 190.906,-303.843"/>
<text text-anchor="middle" x="215" y="-284.5" font-family="Helvetica,sans-Serif" font-size="10.00">&lt; Neuron &gt;</text>
</g>
<!-- Node7&#45;&gt;Node6 -->
<g id="edge12" class="edge"><title>Node7&#45;&gt;Node6</title>
<path fill="none" stroke="#9a32cd" stroke-dasharray="5,2" d="M247.815,-564.205C244.029,-540.456 239.033,-509.118 234.381,-479.934"/>
<polygon fill="#9a32cd" stroke="#9a32cd" points="249.411,-574.218 243.393,-565.051 248.624,-569.28 247.837,-564.342 247.837,-564.342 247.837,-564.342 248.624,-569.28 252.281,-563.634 249.411,-574.218 249.411,-574.218"/>
<text text-anchor="middle" x="256.5" y="-523.5" font-family="Helvetica,sans-Serif" font-size="10.00">ldata</text>
</g>
</g>
</svg>
