<?xml version="1.0" encoding="UTF-8" standalone="no"?>
<!DOCTYPE svg PUBLIC "-//W3C//DTD SVG 1.1//EN"
 "http://www.w3.org/Graphics/SVG/1.1/DTD/svg11.dtd">
<!-- Generated by graphviz version 2.28.0 (20110610.2051)
 -->
<!-- Title: G Pages: 1 -->
<svg width="203pt" height="272pt"
 viewBox="0.00 0.00 203.00 272.00" xmlns="http://www.w3.org/2000/svg" xmlns:xlink="http://www.w3.org/1999/xlink">
<g id="graph1" class="graph" transform="scale(1 1) rotate(0) translate(4 268)">
<title>G</title>
<polygon fill="white" stroke="white" points="-4,5 -4,-268 200,-268 200,5 -4,5"/>
<!-- Node1 -->
<g id="node1" class="node"><title>Node1</title>
<polygon fill="#bfbfbf" stroke="black" points="52,-173 52,-263 142,-263 142,-173 52,-173"/>
<text text-anchor="middle" x="97" y="-251" font-family="Helvetica,sans-Serif" font-size="10.00">PredictBehavior</text>
<polyline fill="none" stroke="black" points="52,-244 142,-244 "/>
<text text-anchor="middle" x="97" y="-232" font-family="Helvetica,sans-Serif" font-size="10.00"> </text>
<polyline fill="none" stroke="black" points="52,-225 142,-225 "/>
<text text-anchor="start" x="60" y="-213" font-family="Helvetica,sans-Serif" font-size="10.00">+ predict()</text>
<text text-anchor="start" x="60" y="-202" font-family="Helvetica,sans-Serif" font-size="10.00">+ show()</text>
<text text-anchor="start" x="60" y="-191" font-family="Helvetica,sans-Serif" font-size="10.00">+ getOutput()</text>
<text text-anchor="start" x="60" y="-180" font-family="Helvetica,sans-Serif" font-size="10.00">+ setOutput()</text>
</g>
<!-- Node2 -->
<g id="node3" class="node"><title>Node2</title>
<a xlink:href="class_m_l_pbehavior.html" target="_top" xlink:title="class MLPbehavior &#45;">
<polygon fill="white" stroke="black" points="-0.5,-6.5 -0.5,-129.5 88.5,-129.5 88.5,-6.5 -0.5,-6.5"/>
<text text-anchor="middle" x="44" y="-117.5" font-family="Helvetica,sans-Serif" font-size="10.00">MLPbehavior</text>
<polyline fill="none" stroke="black" points="-0.5,-110.5 88.5,-110.5 "/>
<text text-anchor="start" x="7.5" y="-98.5" font-family="Helvetica,sans-Serif" font-size="10.00">&#45; d_bias</text>
<text text-anchor="start" x="7.5" y="-87.5" font-family="Helvetica,sans-Serif" font-size="10.00">&#45; d_output</text>
<text text-anchor="start" x="7.5" y="-76.5" font-family="Helvetica,sans-Serif" font-size="10.00">&#45; d_nCons</text>
<text text-anchor="start" x="7.5" y="-65.5" font-family="Helvetica,sans-Serif" font-size="10.00">&#45; d_accumulator</text>
<polyline fill="none" stroke="black" points="-0.5,-58.5 88.5,-58.5 "/>
<text text-anchor="start" x="7.5" y="-46.5" font-family="Helvetica,sans-Serif" font-size="10.00">+ predict()</text>
<text text-anchor="start" x="7.5" y="-35.5" font-family="Helvetica,sans-Serif" font-size="10.00">+ show()</text>
<text text-anchor="start" x="7.5" y="-24.5" font-family="Helvetica,sans-Serif" font-size="10.00">+ getOutput()</text>
<text text-anchor="start" x="7.5" y="-13.5" font-family="Helvetica,sans-Serif" font-size="10.00">+ setOutput()</text>
</a>
</g>
<!-- Node1&#45;&gt;Node2 -->
<g id="edge2" class="edge"><title>Node1&#45;&gt;Node2</title>
<path fill="none" stroke="midnightblue" d="M77.843,-163.505C73.8952,-152.481 69.7114,-140.798 65.6814,-129.544"/>
<polygon fill="none" stroke="midnightblue" points="74.5752,-164.761 81.2417,-172.996 81.1654,-162.401 74.5752,-164.761"/>
</g>
<!-- Node3 -->
<g id="node5" class="node"><title>Node3</title>
<a xlink:href="class_r_b_fbehavior.html" target="_top" xlink:title="class RBFbehavior &#45;">
<polygon fill="white" stroke="black" points="106.5,-1 106.5,-135 195.5,-135 195.5,-1 106.5,-1"/>
<text text-anchor="middle" x="151" y="-123" font-family="Helvetica,sans-Serif" font-size="10.00">RBFbehavior</text>
<polyline fill="none" stroke="black" points="106.5,-116 195.5,-116 "/>
<text text-anchor="start" x="114.5" y="-104" font-family="Helvetica,sans-Serif" font-size="10.00">&#45; d_width</text>
<text text-anchor="start" x="114.5" y="-93" font-family="Helvetica,sans-Serif" font-size="10.00">&#45; d_altitude</text>
<text text-anchor="start" x="114.5" y="-82" font-family="Helvetica,sans-Serif" font-size="10.00">&#45; d_output</text>
<text text-anchor="start" x="114.5" y="-71" font-family="Helvetica,sans-Serif" font-size="10.00">&#45; d_nCons</text>
<text text-anchor="start" x="114.5" y="-60" font-family="Helvetica,sans-Serif" font-size="10.00">&#45; d_accumulator</text>
<polyline fill="none" stroke="black" points="106.5,-53 195.5,-53 "/>
<text text-anchor="start" x="114.5" y="-41" font-family="Helvetica,sans-Serif" font-size="10.00">+ predict()</text>
<text text-anchor="start" x="114.5" y="-30" font-family="Helvetica,sans-Serif" font-size="10.00">+ show()</text>
<text text-anchor="start" x="114.5" y="-19" font-family="Helvetica,sans-Serif" font-size="10.00">+ getOutput()</text>
<text text-anchor="start" x="114.5" y="-8" font-family="Helvetica,sans-Serif" font-size="10.00">+ setOutput()</text>
</a>
</g>
<!-- Node1&#45;&gt;Node3 -->
<g id="edge4" class="edge"><title>Node1&#45;&gt;Node3</title>
<path fill="none" stroke="midnightblue" d="M116.503,-163.547C119.88,-154.292 123.427,-144.571 126.908,-135.03"/>
<polygon fill="none" stroke="midnightblue" points="113.195,-162.402 113.056,-172.996 119.771,-164.801 113.195,-162.402"/>
</g>
</g>
</svg>
