<?xml version="1.0" encoding="UTF-8" standalone="no"?>
<!DOCTYPE svg PUBLIC "-//W3C//DTD SVG 1.1//EN"
 "http://www.w3.org/Graphics/SVG/1.1/DTD/svg11.dtd">
<!-- Generated by graphviz version 2.25.20091207.0545 (20091207.0545)
 -->
<!-- Title: G Pages: 1 -->
<svg width="314pt" height="66pt"
 viewBox="0.00 0.00 314.00 66.00" xmlns="http://www.w3.org/2000/svg" xmlns:xlink="http://www.w3.org/1999/xlink">
<g id="graph1" class="graph" transform="scale(1 1) rotate(0) translate(4 62)">
<title>G</title>
<polygon fill="white" stroke="white" points="-4,5 -4,-62 311,-62 311,5 -4,5"/>
<!-- Node1 -->
<g id="node1" class="node"><title>Node1</title>
<polygon fill="#bfbfbf" stroke="black" points="0.5,-19.5 0.5,-38.5 75.5,-38.5 75.5,-19.5 0.5,-19.5"/>
<text text-anchor="middle" x="38" y="-25.5" font-family="Helvetica,sans-Serif" font-size="10.00">Neuron::getId</text>
</g>
<!-- Node2 -->
<g id="node3" class="node"><title>Node2</title>
<a xlink:href="class_con.html#aad72314592bebdcae6c68a67d2b4a505" target="_top" xlink:title="A getter of the Id of the Neuron pointed by the from field.">
<polygon fill="white" stroke="black" points="112,-19.5 112,-38.5 196,-38.5 196,-19.5 112,-19.5"/>
<text text-anchor="middle" x="154" y="-25.5" font-family="Helvetica,sans-Serif" font-size="10.00">Con::getFromId</text>
</a>
</g>
<!-- Node1&#45;&gt;Node2 -->
<g id="edge2" class="edge"><title>Node1&#45;&gt;Node2</title>
<path fill="none" stroke="midnightblue" d="M85.8986,-29C94.4567,-29 103.318,-29 111.705,-29"/>
<polygon fill="midnightblue" stroke="midnightblue" points="85.6619,-25.5001 75.6619,-29 85.6618,-32.5001 85.6619,-25.5001"/>
</g>
<!-- Node3 -->
<g id="node5" class="node"><title>Node3</title>
<a xlink:href="class_con.html#ab85838575b5e01f3b8073136f2102922" target="_top" xlink:title="Pretty print of the Con information.">
<polygon fill="white" stroke="black" points="237.5,-38.5 237.5,-57.5 300.5,-57.5 300.5,-38.5 237.5,-38.5"/>
<text text-anchor="middle" x="269" y="-44.5" font-family="Helvetica,sans-Serif" font-size="10.00">Con::show</text>
</a>
</g>
<!-- Node2&#45;&gt;Node3 -->
<g id="edge4" class="edge"><title>Node2&#45;&gt;Node3</title>
<path fill="none" stroke="midnightblue" d="M206.212,-37.6263C216.814,-39.378 227.658,-41.1696 237.286,-42.7602"/>
<polygon fill="midnightblue" stroke="midnightblue" points="206.606,-34.144 196.169,-35.967 205.464,-41.0504 206.606,-34.144"/>
</g>
<!-- Node4 -->
<g id="node7" class="node"><title>Node4</title>
<a xlink:href="class_con.html#af5f836a7b0988b3d9113589b2959d5e6" target="_top" xlink:title="Object validator.">
<polygon fill="white" stroke="black" points="232,-0.5 232,-19.5 306,-19.5 306,-0.5 232,-0.5"/>
<text text-anchor="middle" x="269" y="-6.5" font-family="Helvetica,sans-Serif" font-size="10.00">Con::validate</text>
</a>
</g>
<!-- Node2&#45;&gt;Node4 -->
<g id="edge6" class="edge"><title>Node2&#45;&gt;Node4</title>
<path fill="none" stroke="midnightblue" d="M206.181,-20.3788C214.813,-18.9526 223.607,-17.4997 231.774,-16.1503"/>
<polygon fill="midnightblue" stroke="midnightblue" points="205.464,-16.9496 196.169,-22.033 206.606,-23.856 205.464,-16.9496"/>
</g>
</g>
</svg>
