<?xml version="1.0" encoding="UTF-8" standalone="no"?>
<!DOCTYPE svg PUBLIC "-//W3C//DTD SVG 1.1//EN"
 "http://www.w3.org/Graphics/SVG/1.1/DTD/svg11.dtd">
<!-- Generated by graphviz version 2.28.0 (20110610.2051)
 -->
<!-- Title: G Pages: 1 -->
<svg width="214pt" height="304pt"
 viewBox="0.00 0.00 214.00 304.00" xmlns="http://www.w3.org/2000/svg" xmlns:xlink="http://www.w3.org/1999/xlink">
<g id="graph1" class="graph" transform="scale(1 1) rotate(0) translate(4 300)">
<title>G</title>
<polygon fill="white" stroke="white" points="-4,5 -4,-300 211,-300 211,5 -4,5"/>
<!-- Node1 -->
<g id="node1" class="node"><title>Node1</title>
<polygon fill="#bfbfbf" stroke="black" points="36,-128.5 36,-295.5 170,-295.5 170,-128.5 36,-128.5"/>
<text text-anchor="middle" x="103" y="-283.5" font-family="Helvetica,sans-Serif" font-size="10.00">PredictBehavior</text>
<polyline fill="none" stroke="black" points="36,-276.5 170,-276.5 "/>
<text text-anchor="start" x="44" y="-264.5" font-family="Helvetica,sans-Serif" font-size="10.00"># d_nCons</text>
<text text-anchor="start" x="44" y="-253.5" font-family="Helvetica,sans-Serif" font-size="10.00"># d_inducedLocalField</text>
<text text-anchor="start" x="44" y="-242.5" font-family="Helvetica,sans-Serif" font-size="10.00"># d_activationFunction</text>
<text text-anchor="start" x="44" y="-231.5" font-family="Helvetica,sans-Serif" font-size="10.00"># d_output</text>
<polyline fill="none" stroke="black" points="36,-224.5 170,-224.5 "/>
<text text-anchor="start" x="44" y="-212.5" font-family="Helvetica,sans-Serif" font-size="10.00">+ predict()</text>
<text text-anchor="start" x="44" y="-201.5" font-family="Helvetica,sans-Serif" font-size="10.00">+ show()</text>
<text text-anchor="start" x="44" y="-190.5" font-family="Helvetica,sans-Serif" font-size="10.00">+ getOutput()</text>
<text text-anchor="start" x="44" y="-179.5" font-family="Helvetica,sans-Serif" font-size="10.00">+ setOutput()</text>
<text text-anchor="start" x="44" y="-168.5" font-family="Helvetica,sans-Serif" font-size="10.00">+ setActivationFunction()</text>
<text text-anchor="start" x="44" y="-157.5" font-family="Helvetica,sans-Serif" font-size="10.00">+ getInducedLocalField()</text>
<text text-anchor="start" x="44" y="-146.5" font-family="Helvetica,sans-Serif" font-size="10.00">+ setConnections()</text>
<text text-anchor="start" x="44" y="-135.5" font-family="Helvetica,sans-Serif" font-size="10.00"># PredictBehavior()</text>
</g>
<!-- Node2 -->
<g id="node3" class="node"><title>Node2</title>
<a xlink:href="class_m_l_pbehavior.html" target="_top" xlink:title="class MLPbehavior &#45;">
<polygon fill="white" stroke="black" points="0,-6.5 0,-85.5 94,-85.5 94,-6.5 0,-6.5"/>
<text text-anchor="middle" x="47" y="-73.5" font-family="Helvetica,sans-Serif" font-size="10.00">MLPbehavior</text>
<polyline fill="none" stroke="black" points="0,-66.5 94,-66.5 "/>
<text text-anchor="start" x="8" y="-54.5" font-family="Helvetica,sans-Serif" font-size="10.00">&#45; d_bias</text>
<polyline fill="none" stroke="black" points="0,-47.5 94,-47.5 "/>
<text text-anchor="start" x="8" y="-35.5" font-family="Helvetica,sans-Serif" font-size="10.00">+ MLPbehavior()</text>
<text text-anchor="start" x="8" y="-24.5" font-family="Helvetica,sans-Serif" font-size="10.00">+ predict()</text>
<text text-anchor="start" x="8" y="-13.5" font-family="Helvetica,sans-Serif" font-size="10.00">+ show()</text>
</a>
</g>
<!-- Node1&#45;&gt;Node2 -->
<g id="edge2" class="edge"><title>Node1&#45;&gt;Node2</title>
<path fill="none" stroke="midnightblue" d="M71.3694,-118.368C67.4567,-106.909 63.6401,-95.7318 60.2324,-85.7521"/>
<polygon fill="none" stroke="midnightblue" points="68.1282,-119.707 74.6719,-128.039 74.7526,-117.445 68.1282,-119.707"/>
</g>
<!-- Node3 -->
<g id="node5" class="node"><title>Node3</title>
<a xlink:href="class_r_b_fbehavior.html" target="_top" xlink:title="class RBFbehavior &#45;">
<polygon fill="white" stroke="black" points="112,-1 112,-91 206,-91 206,-1 112,-1"/>
<text text-anchor="middle" x="159" y="-79" font-family="Helvetica,sans-Serif" font-size="10.00">RBFbehavior</text>
<polyline fill="none" stroke="black" points="112,-72 206,-72 "/>
<text text-anchor="start" x="120" y="-60" font-family="Helvetica,sans-Serif" font-size="10.00">&#45; d_width</text>
<text text-anchor="start" x="120" y="-49" font-family="Helvetica,sans-Serif" font-size="10.00">&#45; d_altitude</text>
<polyline fill="none" stroke="black" points="112,-42 206,-42 "/>
<text text-anchor="start" x="120" y="-30" font-family="Helvetica,sans-Serif" font-size="10.00">+ RBFbehavior()</text>
<text text-anchor="start" x="120" y="-19" font-family="Helvetica,sans-Serif" font-size="10.00">+ predict()</text>
<text text-anchor="start" x="120" y="-8" font-family="Helvetica,sans-Serif" font-size="10.00">+ show()</text>
</a>
</g>
<!-- Node1&#45;&gt;Node3 -->
<g id="edge4" class="edge"><title>Node1&#45;&gt;Node3</title>
<path fill="none" stroke="midnightblue" d="M134.575,-118.53C137.807,-109.065 140.974,-99.7896 143.901,-91.2187"/>
<polygon fill="none" stroke="midnightblue" points="131.247,-117.445 131.328,-128.039 137.872,-119.707 131.247,-117.445"/>
</g>
</g>
</svg>
