<?xml version="1.0" encoding="UTF-8" standalone="no"?>
<!DOCTYPE svg PUBLIC "-//W3C//DTD SVG 1.1//EN"
 "http://www.w3.org/Graphics/SVG/1.1/DTD/svg11.dtd">
<!-- Generated by graphviz version 2.25.20091207.0545 (20091207.0545)
 -->
<!-- Title: G Pages: 1 -->
<svg width="518pt" height="28pt"
 viewBox="0.00 0.00 518.00 28.00" xmlns="http://www.w3.org/2000/svg" xmlns:xlink="http://www.w3.org/1999/xlink">
<g id="graph1" class="graph" transform="scale(1 1) rotate(0) translate(4 24)">
<title>G</title>
<polygon fill="white" stroke="white" points="-4,5 -4,-24 515,-24 515,5 -4,5"/>
<!-- Node1 -->
<g id="node1" class="node"><title>Node1</title>
<polygon fill="#bfbfbf" stroke="black" points="0.5,-0.5 0.5,-19.5 93.5,-19.5 93.5,-0.5 0.5,-0.5"/>
<text text-anchor="middle" x="47" y="-6.5" font-family="Helvetica,sans-Serif" font-size="10.00">Neuron::getConId</text>
</g>
<!-- Node2 -->
<g id="node3" class="node"><title>Node2</title>
<a xlink:href="class_vec_con.html#a03d5dde143e166e68b01c9596573eb5f" target="_top" xlink:title="Getter of the Id values of the vector of Cons.">
<polygon fill="white" stroke="black" points="130.5,-0.5 130.5,-19.5 209.5,-19.5 209.5,-0.5 130.5,-0.5"/>
<text text-anchor="middle" x="170" y="-6.5" font-family="Helvetica,sans-Serif" font-size="10.00">VecCon::getId</text>
</a>
</g>
<!-- Node1&#45;&gt;Node2 -->
<g id="edge2" class="edge"><title>Node1&#45;&gt;Node2</title>
<path fill="none" stroke="midnightblue" d="M93.501,-10C102.205,-10 111.335,-10 120.136,-10"/>
<polygon fill="midnightblue" stroke="midnightblue" points="120.27,-13.5001 130.27,-10 120.27,-6.5001 120.27,-13.5001"/>
</g>
<!-- Node3 -->
<g id="node5" class="node"><title>Node3</title>
<a xlink:href="class_vec_con.html#aa9a397520b07fbeead0b6d252c1ea882" target="_top" xlink:title="Size of the VecCon object.">
<polygon fill="white" stroke="black" points="246,-0.5 246,-19.5 356,-19.5 356,-0.5 246,-0.5"/>
<text text-anchor="middle" x="301" y="-6.5" font-family="Helvetica,sans-Serif" font-size="10.00">VecCon::numOfCons</text>
</a>
</g>
<!-- Node2&#45;&gt;Node3 -->
<g id="edge4" class="edge"><title>Node2&#45;&gt;Node3</title>
<path fill="none" stroke="midnightblue" d="M209.66,-10C217.779,-10 226.529,-10 235.283,-10"/>
<polygon fill="midnightblue" stroke="midnightblue" points="235.526,-13.5001 245.526,-10 235.526,-6.5001 235.526,-13.5001"/>
</g>
<!-- Node4 -->
<g id="node7" class="node"><title>Node4</title>
<a xlink:href="class_container.html#a842c3d9eca81b78b59112fde9707b091" target="_top" xlink:title="Container\&lt; Con \&gt;::size">
<polygon fill="white" stroke="black" points="392,-0.5 392,-19.5 510,-19.5 510,-0.5 392,-0.5"/>
<text text-anchor="middle" x="451" y="-6.5" font-family="Helvetica,sans-Serif" font-size="10.00">Container&lt; Con &gt;::size</text>
</a>
</g>
<!-- Node3&#45;&gt;Node4 -->
<g id="edge6" class="edge"><title>Node3&#45;&gt;Node4</title>
<path fill="none" stroke="midnightblue" d="M356.003,-10C364.416,-10 373.192,-10 381.863,-10"/>
<polygon fill="midnightblue" stroke="midnightblue" points="381.965,-13.5001 391.965,-10 381.965,-6.5001 381.965,-13.5001"/>
</g>
</g>
</svg>
