<?xml version="1.0" encoding="UTF-8" standalone="no"?>
<!DOCTYPE svg PUBLIC "-//W3C//DTD SVG 1.1//EN"
 "http://www.w3.org/Graphics/SVG/1.1/DTD/svg11.dtd">
<!-- Generated by graphviz version 2.25.20091207.0545 (20091207.0545)
 -->
<!-- Title: G Pages: 1 -->
<svg width="351pt" height="1380pt"
 viewBox="0.00 0.00 351.00 1380.00" xmlns="http://www.w3.org/2000/svg" xmlns:xlink="http://www.w3.org/1999/xlink">
<g id="graph1" class="graph" transform="scale(1 1) rotate(0) translate(4 1376)">
<title>G</title>
<polygon fill="white" stroke="white" points="-4,5 -4,-1376 348,-1376 348,5 -4,5"/>
<!-- Node1 -->
<g id="node1" class="node"><title>Node1</title>
<polygon fill="#bfbfbf" stroke="black" points="99,-1 99,-223 183,-223 183,-1 99,-1"/>
<text text-anchor="middle" x="141" y="-210" font-family="Helvetica,sans-Serif" font-size="10.00">Neuron</text>
<polyline fill="none" stroke="black" points="99,-204 183,-204 "/>
<text text-anchor="start" x="107" y="-191" font-family="Helvetica,sans-Serif" font-size="10.00">&#45; Id</text>
<text text-anchor="start" x="107" y="-180" font-family="Helvetica,sans-Serif" font-size="10.00">&#45; con</text>
<text text-anchor="start" x="107" y="-169" font-family="Helvetica,sans-Serif" font-size="10.00">&#45; outputValue</text>
<polyline fill="none" stroke="black" points="99,-163 183,-163 "/>
<text text-anchor="start" x="107" y="-150" font-family="Helvetica,sans-Serif" font-size="10.00">+ Neuron()</text>
<text text-anchor="start" x="107" y="-139" font-family="Helvetica,sans-Serif" font-size="10.00">+ Neuron()</text>
<text text-anchor="start" x="107" y="-128" font-family="Helvetica,sans-Serif" font-size="10.00">+ Neuron()</text>
<text text-anchor="start" x="107" y="-117" font-family="Helvetica,sans-Serif" font-size="10.00">+ ~Neuron()</text>
<text text-anchor="start" x="107" y="-106" font-family="Helvetica,sans-Serif" font-size="10.00">+ getId()</text>
<text text-anchor="start" x="107" y="-95" font-family="Helvetica,sans-Serif" font-size="10.00">+ setId()</text>
<text text-anchor="start" x="107" y="-84" font-family="Helvetica,sans-Serif" font-size="10.00">+ getFrom()</text>
<text text-anchor="start" x="107" y="-73" font-family="Helvetica,sans-Serif" font-size="10.00">+ getConId()</text>
<text text-anchor="start" x="107" y="-62" font-family="Helvetica,sans-Serif" font-size="10.00">+ getWeight()</text>
<text text-anchor="start" x="107" y="-51" font-family="Helvetica,sans-Serif" font-size="10.00">+ setFrom()</text>
<text text-anchor="start" x="107" y="-40" font-family="Helvetica,sans-Serif" font-size="10.00">+ setWeight()</text>
<text text-anchor="start" x="107" y="-29" font-family="Helvetica,sans-Serif" font-size="10.00">+ numOfCons()</text>
<text text-anchor="start" x="107" y="-18" font-family="Helvetica,sans-Serif" font-size="10.00">+ show()</text>
<text text-anchor="start" x="107" y="-7" font-family="Helvetica,sans-Serif" font-size="10.00">+ validate()</text>
</g>
<!-- Node2 -->
<g id="node2" class="node"><title>Node2</title>
<a xlink:href="class_vec_con.html" target="_top" xlink:title="A vector of connections.">
<polygon fill="white" stroke="black" points="90,-273 90,-473 192,-473 192,-273 90,-273"/>
<text text-anchor="middle" x="141" y="-460" font-family="Helvetica,sans-Serif" font-size="10.00">VecCon</text>
<polyline fill="none" stroke="black" points="90,-454 192,-454 "/>
<text text-anchor="middle" x="141" y="-441" font-family="Helvetica,sans-Serif" font-size="10.00"> </text>
<polyline fill="none" stroke="black" points="90,-435 192,-435 "/>
<text text-anchor="start" x="98" y="-422" font-family="Helvetica,sans-Serif" font-size="10.00">+ VecCon()</text>
<text text-anchor="start" x="98" y="-411" font-family="Helvetica,sans-Serif" font-size="10.00">+ VecCon()</text>
<text text-anchor="start" x="98" y="-400" font-family="Helvetica,sans-Serif" font-size="10.00">+ numOfCons()</text>
<text text-anchor="start" x="98" y="-389" font-family="Helvetica,sans-Serif" font-size="10.00">+ getId()</text>
<text text-anchor="start" x="98" y="-378" font-family="Helvetica,sans-Serif" font-size="10.00">+ buildAndAppend()</text>
<text text-anchor="start" x="98" y="-367" font-family="Helvetica,sans-Serif" font-size="10.00">+ getWeight()</text>
<text text-anchor="start" x="98" y="-356" font-family="Helvetica,sans-Serif" font-size="10.00">+ getWeight()</text>
<text text-anchor="start" x="98" y="-345" font-family="Helvetica,sans-Serif" font-size="10.00">+ getFrom()</text>
<text text-anchor="start" x="98" y="-334" font-family="Helvetica,sans-Serif" font-size="10.00">+ setWeight()</text>
<text text-anchor="start" x="98" y="-323" font-family="Helvetica,sans-Serif" font-size="10.00">+ setWeight()</text>
<text text-anchor="start" x="98" y="-312" font-family="Helvetica,sans-Serif" font-size="10.00">+ setFrom()</text>
<text text-anchor="start" x="98" y="-301" font-family="Helvetica,sans-Serif" font-size="10.00">+ erase()</text>
<text text-anchor="start" x="98" y="-290" font-family="Helvetica,sans-Serif" font-size="10.00">+ select()</text>
<text text-anchor="start" x="98" y="-279" font-family="Helvetica,sans-Serif" font-size="10.00">+ validate()</text>
</a>
</g>
<!-- Node2&#45;&gt;Node1 -->
<g id="edge2" class="edge"><title>Node2&#45;&gt;Node1</title>
<path fill="none" stroke="#9a32cd" stroke-dasharray="5,2" d="M141,-262.479C141,-249.478 141,-236.206 141,-223.196"/>
<polygon fill="#9a32cd" stroke="#9a32cd" points="141,-272.837 136.5,-262.837 141,-267.837 141,-262.837 141,-262.837 141,-262.837 141,-267.837 145.5,-262.837 141,-272.837 141,-272.837"/>
<text text-anchor="middle" x="149" y="-244.5" font-family="Helvetica,sans-Serif" font-size="10.00">con</text>
</g>
<!-- Node3 -->
<g id="node4" class="node"><title>Node3</title>
<a xlink:href="class_container.html" target="_top" xlink:title="{Container\&lt; Con \&gt;\n|# collection\l|+ Container()\l+ Container()\l+ begin()\l+ end()\l+ load()\l+ store()\l+ size()\l+ push_back()\l+ append()\l+ show()\l+ validate()\l+ reserve()\l+ resize()\l+ empty()\l+ clear()\l+ operator[]()\l}">
<polygon fill="white" stroke="black" points="94,-513 94,-735 188,-735 188,-513 94,-513"/>
<text text-anchor="middle" x="141" y="-722" font-family="Helvetica,sans-Serif" font-size="10.00">Container&lt; Con &gt;</text>
<polyline fill="none" stroke="black" points="94,-716 188,-716 "/>
<text text-anchor="start" x="102" y="-703" font-family="Helvetica,sans-Serif" font-size="10.00"># collection</text>
<polyline fill="none" stroke="black" points="94,-697 188,-697 "/>
<text text-anchor="start" x="102" y="-684" font-family="Helvetica,sans-Serif" font-size="10.00">+ Container()</text>
<text text-anchor="start" x="102" y="-673" font-family="Helvetica,sans-Serif" font-size="10.00">+ Container()</text>
<text text-anchor="start" x="102" y="-662" font-family="Helvetica,sans-Serif" font-size="10.00">+ begin()</text>
<text text-anchor="start" x="102" y="-651" font-family="Helvetica,sans-Serif" font-size="10.00">+ end()</text>
<text text-anchor="start" x="102" y="-640" font-family="Helvetica,sans-Serif" font-size="10.00">+ load()</text>
<text text-anchor="start" x="102" y="-629" font-family="Helvetica,sans-Serif" font-size="10.00">+ store()</text>
<text text-anchor="start" x="102" y="-618" font-family="Helvetica,sans-Serif" font-size="10.00">+ size()</text>
<text text-anchor="start" x="102" y="-607" font-family="Helvetica,sans-Serif" font-size="10.00">+ push_back()</text>
<text text-anchor="start" x="102" y="-596" font-family="Helvetica,sans-Serif" font-size="10.00">+ append()</text>
<text text-anchor="start" x="102" y="-585" font-family="Helvetica,sans-Serif" font-size="10.00">+ show()</text>
<text text-anchor="start" x="102" y="-574" font-family="Helvetica,sans-Serif" font-size="10.00">+ validate()</text>
<text text-anchor="start" x="102" y="-563" font-family="Helvetica,sans-Serif" font-size="10.00">+ reserve()</text>
<text text-anchor="start" x="102" y="-552" font-family="Helvetica,sans-Serif" font-size="10.00">+ resize()</text>
<text text-anchor="start" x="102" y="-541" font-family="Helvetica,sans-Serif" font-size="10.00">+ empty()</text>
<text text-anchor="start" x="102" y="-530" font-family="Helvetica,sans-Serif" font-size="10.00">+ clear()</text>
<text text-anchor="start" x="102" y="-519" font-family="Helvetica,sans-Serif" font-size="10.00">+ operator[]()</text>
</a>
</g>
<!-- Node3&#45;&gt;Node2 -->
<g id="edge4" class="edge"><title>Node3&#45;&gt;Node2</title>
<path fill="none" stroke="midnightblue" d="M141,-502.536C141,-492.653 141,-482.737 141,-473.034"/>
<polygon fill="none" stroke="midnightblue" points="137.5,-502.812 141,-512.812 144.5,-502.812 137.5,-502.812"/>
</g>
<!-- Node4 -->
<g id="node6" class="node"><title>Node4</title>
<polygon fill="white" stroke="#bfbfbf" points="0,-1026.5 0,-1083.5 192,-1083.5 192,-1026.5 0,-1026.5"/>
<text text-anchor="middle" x="96" y="-1070.5" font-family="Helvetica,sans-Serif" font-size="10.00">std::vector&lt; boost::shared_ptr&lt; Con &gt; &gt;</text>
<polyline fill="none" stroke="#bfbfbf" points="0,-1064.5 192,-1064.5 "/>
<text text-anchor="start" x="8" y="-1051.5" font-family="Helvetica,sans-Serif" font-size="10.00">&#45; elements</text>
<polyline fill="none" stroke="#bfbfbf" points="0,-1045.5 192,-1045.5 "/>
<text text-anchor="middle" x="96" y="-1032.5" font-family="Helvetica,sans-Serif" font-size="10.00"> </text>
</g>
<!-- Node4&#45;&gt;Node3 -->
<g id="edge6" class="edge"><title>Node4&#45;&gt;Node3</title>
<path fill="none" stroke="#9a32cd" stroke-dasharray="5,2" d="M99.4389,-1016.27C104.174,-963.655 113.128,-866.656 122,-784 123.687,-768.286 125.554,-751.714 127.441,-735.429"/>
<polygon fill="#9a32cd" stroke="#9a32cd" points="98.5216,-1026.5 94.9333,-1016.13 98.9685,-1021.52 99.4153,-1016.54 99.4153,-1016.54 99.4153,-1016.54 98.9685,-1021.52 103.897,-1016.94 98.5216,-1026.5 98.5216,-1026.5"/>
<text text-anchor="middle" x="142.5" y="-892.5" font-family="Helvetica,sans-Serif" font-size="10.00">collection</text>
</g>
<!-- Node5 -->
<g id="node8" class="node"><title>Node5</title>
<a xlink:title="STL class.">
<polygon fill="white" stroke="#bfbfbf" points="120.5,-1208.5 120.5,-1265.5 207.5,-1265.5 207.5,-1208.5 120.5,-1208.5"/>
<text text-anchor="middle" x="164" y="-1252.5" font-family="Helvetica,sans-Serif" font-size="10.00">std::vector&lt; T &gt;</text>
<polyline fill="none" stroke="#bfbfbf" points="120.5,-1246.5 207.5,-1246.5 "/>
<text text-anchor="start" x="128.5" y="-1233.5" font-family="Helvetica,sans-Serif" font-size="10.00">&#45; elements</text>
<polyline fill="none" stroke="#bfbfbf" points="120.5,-1227.5 207.5,-1227.5 "/>
<text text-anchor="middle" x="164" y="-1214.5" font-family="Helvetica,sans-Serif" font-size="10.00"> </text>
</a>
</g>
<!-- Node5&#45;&gt;Node4 -->
<g id="edge8" class="edge"><title>Node5&#45;&gt;Node4</title>
<path fill="none" stroke="orange" stroke-dasharray="5,2" d="M111.191,-1215.96C100.727,-1209.27 91.1016,-1200.73 85,-1190 66.3434,-1157.19 75.4042,-1112.46 84.7607,-1083.65"/>
<polygon fill="orange" stroke="orange" points="109.714,-1219.15 120.118,-1221.15 113.233,-1213.09 109.714,-1219.15"/>
<text text-anchor="middle" x="150" y="-1180.5" font-family="Helvetica,sans-Serif" font-size="10.00">&lt; boost::shared_ptr&lt; Con &gt; &gt;</text>
</g>
<!-- Node8 -->
<g id="node14" class="node"><title>Node8</title>
<polygon fill="white" stroke="#bfbfbf" points="146,-1102.5 146,-1159.5 326,-1159.5 326,-1102.5 146,-1102.5"/>
<text text-anchor="middle" x="236" y="-1146.5" font-family="Helvetica,sans-Serif" font-size="10.00">std::vector&lt; boost::shared_ptr&lt; T &gt; &gt;</text>
<polyline fill="none" stroke="#bfbfbf" points="146,-1140.5 326,-1140.5 "/>
<text text-anchor="start" x="154" y="-1127.5" font-family="Helvetica,sans-Serif" font-size="10.00">&#45; elements</text>
<polyline fill="none" stroke="#bfbfbf" points="146,-1121.5 326,-1121.5 "/>
<text text-anchor="middle" x="236" y="-1108.5" font-family="Helvetica,sans-Serif" font-size="10.00"> </text>
</g>
<!-- Node5&#45;&gt;Node8 -->
<g id="edge16" class="edge"><title>Node5&#45;&gt;Node8</title>
<path fill="none" stroke="orange" stroke-dasharray="5,2" d="M210.511,-1201.07C213.638,-1197.55 216.523,-1193.85 219,-1190 224.829,-1180.95 228.705,-1169.85 231.261,-1159.74"/>
<polygon fill="orange" stroke="orange" points="207.779,-1198.86 203.342,-1208.48 212.81,-1203.73 207.779,-1198.86"/>
<text text-anchor="middle" x="284" y="-1180.5" font-family="Helvetica,sans-Serif" font-size="10.00">&lt; boost::shared_ptr&lt; T &gt; &gt;</text>
</g>
<!-- Node6 -->
<g id="node10" class="node"><title>Node6</title>
<polygon fill="white" stroke="#bfbfbf" points="149.5,-1314.5 149.5,-1371.5 178.5,-1371.5 178.5,-1314.5 149.5,-1314.5"/>
<text text-anchor="middle" x="164" y="-1358.5" font-family="Helvetica,sans-Serif" font-size="10.00">T</text>
<polyline fill="none" stroke="#bfbfbf" points="149.5,-1352.5 178.5,-1352.5 "/>
<text text-anchor="middle" x="164" y="-1339.5" font-family="Helvetica,sans-Serif" font-size="10.00"> </text>
<polyline fill="none" stroke="#bfbfbf" points="149.5,-1333.5 178.5,-1333.5 "/>
<text text-anchor="middle" x="164" y="-1320.5" font-family="Helvetica,sans-Serif" font-size="10.00"> </text>
</g>
<!-- Node6&#45;&gt;Node5 -->
<g id="edge10" class="edge"><title>Node6&#45;&gt;Node5</title>
<path fill="none" stroke="#9a32cd" stroke-dasharray="5,2" d="M164,-1304.01C164,-1291.33 164,-1277.49 164,-1265.71"/>
<polygon fill="#9a32cd" stroke="#9a32cd" points="164,-1314.31 159.5,-1304.31 164,-1309.31 164,-1304.31 164,-1304.31 164,-1304.31 164,-1309.31 168.5,-1304.31 164,-1314.31 164,-1314.31"/>
<text text-anchor="middle" x="184" y="-1286.5" font-family="Helvetica,sans-Serif" font-size="10.00">elements</text>
</g>
<!-- Node7 -->
<g id="node12" class="node"><title>Node7</title>
<a xlink:href="class_container.html" target="_top" xlink:title="{Container\&lt; T \&gt;\n|# collection\l|+ Container()\l+ Container()\l+ begin()\l+ end()\l+ load()\l+ store()\l+ size()\l+ push_back()\l+ append()\l+ show()\l+ validate()\l+ reserve()\l+ resize()\l+ empty()\l+ clear()\l+ operator[]()\l}">
<polygon fill="white" stroke="black" points="172,-785 172,-1007 254,-1007 254,-785 172,-785"/>
<text text-anchor="middle" x="213" y="-994" font-family="Helvetica,sans-Serif" font-size="10.00">Container&lt; T &gt;</text>
<polyline fill="none" stroke="black" points="172,-988 254,-988 "/>
<text text-anchor="start" x="180" y="-975" font-family="Helvetica,sans-Serif" font-size="10.00"># collection</text>
<polyline fill="none" stroke="black" points="172,-969 254,-969 "/>
<text text-anchor="start" x="180" y="-956" font-family="Helvetica,sans-Serif" font-size="10.00">+ Container()</text>
<text text-anchor="start" x="180" y="-945" font-family="Helvetica,sans-Serif" font-size="10.00">+ Container()</text>
<text text-anchor="start" x="180" y="-934" font-family="Helvetica,sans-Serif" font-size="10.00">+ begin()</text>
<text text-anchor="start" x="180" y="-923" font-family="Helvetica,sans-Serif" font-size="10.00">+ end()</text>
<text text-anchor="start" x="180" y="-912" font-family="Helvetica,sans-Serif" font-size="10.00">+ load()</text>
<text text-anchor="start" x="180" y="-901" font-family="Helvetica,sans-Serif" font-size="10.00">+ store()</text>
<text text-anchor="start" x="180" y="-890" font-family="Helvetica,sans-Serif" font-size="10.00">+ size()</text>
<text text-anchor="start" x="180" y="-879" font-family="Helvetica,sans-Serif" font-size="10.00">+ push_back()</text>
<text text-anchor="start" x="180" y="-868" font-family="Helvetica,sans-Serif" font-size="10.00">+ append()</text>
<text text-anchor="start" x="180" y="-857" font-family="Helvetica,sans-Serif" font-size="10.00">+ show()</text>
<text text-anchor="start" x="180" y="-846" font-family="Helvetica,sans-Serif" font-size="10.00">+ validate()</text>
<text text-anchor="start" x="180" y="-835" font-family="Helvetica,sans-Serif" font-size="10.00">+ reserve()</text>
<text text-anchor="start" x="180" y="-824" font-family="Helvetica,sans-Serif" font-size="10.00">+ resize()</text>
<text text-anchor="start" x="180" y="-813" font-family="Helvetica,sans-Serif" font-size="10.00">+ empty()</text>
<text text-anchor="start" x="180" y="-802" font-family="Helvetica,sans-Serif" font-size="10.00">+ clear()</text>
<text text-anchor="start" x="180" y="-791" font-family="Helvetica,sans-Serif" font-size="10.00">+ operator[]()</text>
</a>
</g>
<!-- Node7&#45;&gt;Node3 -->
<g id="edge12" class="edge"><title>Node7&#45;&gt;Node3</title>
<path fill="none" stroke="orange" stroke-dasharray="5,2" d="M181.046,-775.285C177.508,-761.918 173.917,-748.351 170.412,-735.111"/>
<polygon fill="orange" stroke="orange" points="177.669,-776.203 183.611,-784.975 184.435,-774.412 177.669,-776.203"/>
<text text-anchor="middle" x="195" y="-756.5" font-family="Helvetica,sans-Serif" font-size="10.00">&lt; Con &gt;</text>
</g>
<!-- Node8&#45;&gt;Node7 -->
<g id="edge14" class="edge"><title>Node8&#45;&gt;Node7</title>
<path fill="none" stroke="#9a32cd" stroke-dasharray="5,2" d="M232.185,-1092.02C229.898,-1068.65 226.864,-1037.66 223.885,-1007.22"/>
<polygon fill="#9a32cd" stroke="#9a32cd" points="233.18,-1102.18 227.727,-1092.67 232.693,-1097.21 232.206,-1092.23 232.206,-1092.23 232.206,-1092.23 232.693,-1097.21 236.684,-1091.79 233.18,-1102.18 233.18,-1102.18"/>
<text text-anchor="middle" x="251.5" y="-1051.5" font-family="Helvetica,sans-Serif" font-size="10.00">collection</text>
</g>
</g>
</svg>
