<?xml version="1.0" encoding="UTF-8" standalone="no"?>
<!DOCTYPE svg PUBLIC "-//W3C//DTD SVG 1.1//EN"
 "http://www.w3.org/Graphics/SVG/1.1/DTD/svg11.dtd">
<!-- Generated by graphviz version 2.28.0 (20110610.2051)
 -->
<!-- Title: G Pages: 1 -->
<svg width="375pt" height="1238pt"
 viewBox="0.00 0.00 375.00 1238.00" xmlns="http://www.w3.org/2000/svg" xmlns:xlink="http://www.w3.org/1999/xlink">
<g id="graph1" class="graph" transform="scale(1 1) rotate(0) translate(4 1234)">
<title>G</title>
<polygon fill="white" stroke="white" points="-4,5 -4,-1234 372,-1234 372,5 -4,5"/>
<!-- Node1 -->
<g id="node1" class="node"><title>Node1</title>
<polygon fill="#bfbfbf" stroke="black" points="36.5,-0.5 36.5,-101.5 125.5,-101.5 125.5,-0.5 36.5,-0.5"/>
<text text-anchor="middle" x="81" y="-89.5" font-family="Helvetica,sans-Serif" font-size="10.00">RBFbehavior</text>
<polyline fill="none" stroke="black" points="36.5,-82.5 125.5,-82.5 "/>
<text text-anchor="start" x="44.5" y="-70.5" font-family="Helvetica,sans-Serif" font-size="10.00">&#45; d_width</text>
<text text-anchor="start" x="44.5" y="-59.5" font-family="Helvetica,sans-Serif" font-size="10.00">&#45; d_altitude</text>
<text text-anchor="start" x="44.5" y="-48.5" font-family="Helvetica,sans-Serif" font-size="10.00">&#45; d_output</text>
<text text-anchor="start" x="44.5" y="-37.5" font-family="Helvetica,sans-Serif" font-size="10.00">&#45; d_nCons</text>
<text text-anchor="start" x="44.5" y="-26.5" font-family="Helvetica,sans-Serif" font-size="10.00">&#45; d_accumulator</text>
<polyline fill="none" stroke="black" points="36.5,-19.5 125.5,-19.5 "/>
<text text-anchor="start" x="44.5" y="-7.5" font-family="Helvetica,sans-Serif" font-size="10.00">+ predict()</text>
</g>
<!-- Node2 -->
<g id="node2" class="node"><title>Node2</title>
<a xlink:href="class_predict_behavior.html" target="_top" xlink:title="class PredictBehavior &#45;">
<polygon fill="white" stroke="black" points="0,-288.5 0,-345.5 90,-345.5 90,-288.5 0,-288.5"/>
<text text-anchor="middle" x="45" y="-333.5" font-family="Helvetica,sans-Serif" font-size="10.00">PredictBehavior</text>
<polyline fill="none" stroke="black" points="0,-326.5 90,-326.5 "/>
<text text-anchor="middle" x="45" y="-314.5" font-family="Helvetica,sans-Serif" font-size="10.00"> </text>
<polyline fill="none" stroke="black" points="0,-307.5 90,-307.5 "/>
<text text-anchor="start" x="8" y="-295.5" font-family="Helvetica,sans-Serif" font-size="10.00">+ predict()</text>
</a>
</g>
<!-- Node2&#45;&gt;Node1 -->
<g id="edge2" class="edge"><title>Node2&#45;&gt;Node1</title>
<path fill="none" stroke="midnightblue" d="M50.1396,-278.31C56.4622,-231.944 67.2155,-153.086 74.2125,-101.775"/>
<polygon fill="none" stroke="midnightblue" points="46.6679,-277.865 48.7846,-288.246 53.6037,-278.811 46.6679,-277.865"/>
</g>
<!-- Node3 -->
<g id="node4" class="node"><title>Node3</title>
<a xlink:href="class_container.html" target="_top" xlink:title="{Container\&lt; Con \&gt;\n|# collection\l|+ ~Container()\l+ createIterator()\l+ push_back()\l+ push_back()\l+ reserve()\l+ reserve()\l+ empty()\l+ empty()\l+ size()\l+ size()\l+ clear()\l+ clear()\l+ show()\l+ show()\l+ validate()\l+ validate()\l+ Container()\l+ Container()\l+ begin()\l+ end()\l+ load()\l+ store()\l+ append()\l+ resize()\l+ operator[]()\l# Container()\l}">
<polygon fill="white" stroke="black" points="108.5,-151 108.5,-483 205.5,-483 205.5,-151 108.5,-151"/>
<text text-anchor="middle" x="157" y="-471" font-family="Helvetica,sans-Serif" font-size="10.00">Container&lt; Con &gt;</text>
<polyline fill="none" stroke="black" points="108.5,-464 205.5,-464 "/>
<text text-anchor="start" x="116.5" y="-452" font-family="Helvetica,sans-Serif" font-size="10.00"># collection</text>
<polyline fill="none" stroke="black" points="108.5,-445 205.5,-445 "/>
<text text-anchor="start" x="116.5" y="-433" font-family="Helvetica,sans-Serif" font-size="10.00">+ ~Container()</text>
<text text-anchor="start" x="116.5" y="-422" font-family="Helvetica,sans-Serif" font-size="10.00">+ createIterator()</text>
<text text-anchor="start" x="116.5" y="-411" font-family="Helvetica,sans-Serif" font-size="10.00">+ push_back()</text>
<text text-anchor="start" x="116.5" y="-400" font-family="Helvetica,sans-Serif" font-size="10.00">+ push_back()</text>
<text text-anchor="start" x="116.5" y="-389" font-family="Helvetica,sans-Serif" font-size="10.00">+ reserve()</text>
<text text-anchor="start" x="116.5" y="-378" font-family="Helvetica,sans-Serif" font-size="10.00">+ reserve()</text>
<text text-anchor="start" x="116.5" y="-367" font-family="Helvetica,sans-Serif" font-size="10.00">+ empty()</text>
<text text-anchor="start" x="116.5" y="-356" font-family="Helvetica,sans-Serif" font-size="10.00">+ empty()</text>
<text text-anchor="start" x="116.5" y="-345" font-family="Helvetica,sans-Serif" font-size="10.00">+ size()</text>
<text text-anchor="start" x="116.5" y="-334" font-family="Helvetica,sans-Serif" font-size="10.00">+ size()</text>
<text text-anchor="start" x="116.5" y="-323" font-family="Helvetica,sans-Serif" font-size="10.00">+ clear()</text>
<text text-anchor="start" x="116.5" y="-312" font-family="Helvetica,sans-Serif" font-size="10.00">+ clear()</text>
<text text-anchor="start" x="116.5" y="-301" font-family="Helvetica,sans-Serif" font-size="10.00">+ show()</text>
<text text-anchor="start" x="116.5" y="-290" font-family="Helvetica,sans-Serif" font-size="10.00">+ show()</text>
<text text-anchor="start" x="116.5" y="-279" font-family="Helvetica,sans-Serif" font-size="10.00">+ validate()</text>
<text text-anchor="start" x="116.5" y="-268" font-family="Helvetica,sans-Serif" font-size="10.00">+ validate()</text>
<text text-anchor="start" x="116.5" y="-257" font-family="Helvetica,sans-Serif" font-size="10.00">+ Container()</text>
<text text-anchor="start" x="116.5" y="-246" font-family="Helvetica,sans-Serif" font-size="10.00">+ Container()</text>
<text text-anchor="start" x="116.5" y="-235" font-family="Helvetica,sans-Serif" font-size="10.00">+ begin()</text>
<text text-anchor="start" x="116.5" y="-224" font-family="Helvetica,sans-Serif" font-size="10.00">+ end()</text>
<text text-anchor="start" x="116.5" y="-213" font-family="Helvetica,sans-Serif" font-size="10.00">+ load()</text>
<text text-anchor="start" x="116.5" y="-202" font-family="Helvetica,sans-Serif" font-size="10.00">+ store()</text>
<text text-anchor="start" x="116.5" y="-191" font-family="Helvetica,sans-Serif" font-size="10.00">+ append()</text>
<text text-anchor="start" x="116.5" y="-180" font-family="Helvetica,sans-Serif" font-size="10.00">+ resize()</text>
<text text-anchor="start" x="116.5" y="-169" font-family="Helvetica,sans-Serif" font-size="10.00">+ operator[]()</text>
<text text-anchor="start" x="116.5" y="-158" font-family="Helvetica,sans-Serif" font-size="10.00"># Container()</text>
</a>
</g>
<!-- Node3&#45;&gt;Node1 -->
<g id="edge4" class="edge"><title>Node3&#45;&gt;Node1</title>
<path fill="none" stroke="#9a32cd" stroke-dasharray="5,2" d="M106.576,-140.842C102.53,-126.788 98.6951,-113.467 95.2849,-101.621"/>
<polygon fill="#9a32cd" stroke="#9a32cd" points="109.408,-150.679 102.317,-142.314 108.024,-145.874 106.641,-141.07 106.641,-141.07 106.641,-141.07 108.024,-145.874 110.966,-139.825 109.408,-150.679 109.408,-150.679"/>
<text text-anchor="middle" x="124.5" y="-123.5" font-family="Helvetica,sans-Serif" font-size="10.00">d_nCons</text>
</g>
<!-- Node4 -->
<g id="node6" class="node"><title>Node4</title>
<polygon fill="white" stroke="#bfbfbf" points="13,-884.5 13,-941.5 213,-941.5 213,-884.5 13,-884.5"/>
<text text-anchor="middle" x="113" y="-929.5" font-family="Helvetica,sans-Serif" font-size="10.00">std::vector&lt; boost::shared_ptr&lt; Con &gt; &gt;</text>
<polyline fill="none" stroke="#bfbfbf" points="13,-922.5 213,-922.5 "/>
<text text-anchor="start" x="21" y="-910.5" font-family="Helvetica,sans-Serif" font-size="10.00">&#45; elements</text>
<polyline fill="none" stroke="#bfbfbf" points="13,-903.5 213,-903.5 "/>
<text text-anchor="middle" x="113" y="-891.5" font-family="Helvetica,sans-Serif" font-size="10.00"> </text>
</g>
<!-- Node4&#45;&gt;Node3 -->
<g id="edge6" class="edge"><title>Node4&#45;&gt;Node3</title>
<path fill="none" stroke="#9a32cd" stroke-dasharray="5,2" d="M114.446,-874.032C117.197,-805.593 123.834,-657.023 134,-532 135.287,-516.171 136.781,-499.7 138.377,-483.236"/>
<polygon fill="#9a32cd" stroke="#9a32cd" points="114.038,-884.312 109.938,-874.142 114.236,-879.316 114.434,-874.32 114.434,-874.32 114.434,-874.32 114.236,-879.316 118.931,-874.499 114.038,-884.312 114.038,-884.312"/>
<text text-anchor="middle" x="156.5" y="-696.5" font-family="Helvetica,sans-Serif" font-size="10.00">collection</text>
</g>
<!-- Node5 -->
<g id="node8" class="node"><title>Node5</title>
<a xlink:title="STL class.">
<polygon fill="white" stroke="#bfbfbf" points="138.5,-1066.5 138.5,-1123.5 227.5,-1123.5 227.5,-1066.5 138.5,-1066.5"/>
<text text-anchor="middle" x="183" y="-1111.5" font-family="Helvetica,sans-Serif" font-size="10.00">std::vector&lt; T &gt;</text>
<polyline fill="none" stroke="#bfbfbf" points="138.5,-1104.5 227.5,-1104.5 "/>
<text text-anchor="start" x="146.5" y="-1092.5" font-family="Helvetica,sans-Serif" font-size="10.00">&#45; elements</text>
<polyline fill="none" stroke="#bfbfbf" points="138.5,-1085.5 227.5,-1085.5 "/>
<text text-anchor="middle" x="183" y="-1073.5" font-family="Helvetica,sans-Serif" font-size="10.00"> </text>
</a>
</g>
<!-- Node5&#45;&gt;Node4 -->
<g id="edge8" class="edge"><title>Node5&#45;&gt;Node4</title>
<path fill="none" stroke="orange" stroke-dasharray="5,2" d="M129.558,-1074.25C118.577,-1067.63 108.42,-1059.03 102,-1048 82.9765,-1015.32 92.4346,-970.34 101.945,-941.714"/>
<polygon fill="orange" stroke="orange" points="128.035,-1077.41 138.486,-1079.14 131.4,-1071.27 128.035,-1077.41"/>
<text text-anchor="middle" x="169" y="-1039.5" font-family="Helvetica,sans-Serif" font-size="10.00">&lt; boost::shared_ptr&lt; Con &gt; &gt;</text>
</g>
<!-- Node8 -->
<g id="node14" class="node"><title>Node8</title>
<polygon fill="white" stroke="#bfbfbf" points="163,-960.5 163,-1017.5 351,-1017.5 351,-960.5 163,-960.5"/>
<text text-anchor="middle" x="257" y="-1005.5" font-family="Helvetica,sans-Serif" font-size="10.00">std::vector&lt; boost::shared_ptr&lt; T &gt; &gt;</text>
<polyline fill="none" stroke="#bfbfbf" points="163,-998.5 351,-998.5 "/>
<text text-anchor="start" x="171" y="-986.5" font-family="Helvetica,sans-Serif" font-size="10.00">&#45; elements</text>
<polyline fill="none" stroke="#bfbfbf" points="163,-979.5 351,-979.5 "/>
<text text-anchor="middle" x="257" y="-967.5" font-family="Helvetica,sans-Serif" font-size="10.00"> </text>
</g>
<!-- Node5&#45;&gt;Node8 -->
<g id="edge16" class="edge"><title>Node5&#45;&gt;Node8</title>
<path fill="none" stroke="orange" stroke-dasharray="5,2" d="M230.929,-1059.31C234.274,-1055.74 237.36,-1051.96 240,-1048 245.999,-1039.01 249.923,-1027.87 252.47,-1017.75"/>
<polygon fill="orange" stroke="orange" points="228.446,-1056.85 223.76,-1066.35 233.349,-1061.84 228.446,-1056.85"/>
<text text-anchor="middle" x="306.5" y="-1039.5" font-family="Helvetica,sans-Serif" font-size="10.00">&lt; boost::shared_ptr&lt; T &gt; &gt;</text>
</g>
<!-- Node6 -->
<g id="node10" class="node"><title>Node6</title>
<polygon fill="white" stroke="#bfbfbf" points="168.5,-1172.5 168.5,-1229.5 197.5,-1229.5 197.5,-1172.5 168.5,-1172.5"/>
<text text-anchor="middle" x="183" y="-1217.5" font-family="Helvetica,sans-Serif" font-size="10.00">T</text>
<polyline fill="none" stroke="#bfbfbf" points="168.5,-1210.5 197.5,-1210.5 "/>
<text text-anchor="middle" x="183" y="-1198.5" font-family="Helvetica,sans-Serif" font-size="10.00"> </text>
<polyline fill="none" stroke="#bfbfbf" points="168.5,-1191.5 197.5,-1191.5 "/>
<text text-anchor="middle" x="183" y="-1179.5" font-family="Helvetica,sans-Serif" font-size="10.00"> </text>
</g>
<!-- Node6&#45;&gt;Node5 -->
<g id="edge10" class="edge"><title>Node6&#45;&gt;Node5</title>
<path fill="none" stroke="#9a32cd" stroke-dasharray="5,2" d="M183,-1162.1C183,-1149.4 183,-1135.49 183,-1123.73"/>
<polygon fill="#9a32cd" stroke="#9a32cd" points="183,-1172.4 178.5,-1162.4 183,-1167.4 183,-1162.4 183,-1162.4 183,-1162.4 183,-1167.4 187.5,-1162.4 183,-1172.4 183,-1172.4"/>
<text text-anchor="middle" x="204.5" y="-1145.5" font-family="Helvetica,sans-Serif" font-size="10.00">elements</text>
</g>
<!-- Node7 -->
<g id="node12" class="node"><title>Node7</title>
<a xlink:href="class_container.html" target="_top" xlink:title="class Container &#45;">
<polygon fill="white" stroke="black" points="187.5,-533 187.5,-865 284.5,-865 284.5,-533 187.5,-533"/>
<text text-anchor="middle" x="236" y="-853" font-family="Helvetica,sans-Serif" font-size="10.00">Container&lt; T &gt;</text>
<polyline fill="none" stroke="black" points="187.5,-846 284.5,-846 "/>
<text text-anchor="start" x="195.5" y="-834" font-family="Helvetica,sans-Serif" font-size="10.00"># collection</text>
<polyline fill="none" stroke="black" points="187.5,-827 284.5,-827 "/>
<text text-anchor="start" x="195.5" y="-815" font-family="Helvetica,sans-Serif" font-size="10.00">+ ~Container()</text>
<text text-anchor="start" x="195.5" y="-804" font-family="Helvetica,sans-Serif" font-size="10.00">+ createIterator()</text>
<text text-anchor="start" x="195.5" y="-793" font-family="Helvetica,sans-Serif" font-size="10.00">+ push_back()</text>
<text text-anchor="start" x="195.5" y="-782" font-family="Helvetica,sans-Serif" font-size="10.00">+ reserve()</text>
<text text-anchor="start" x="195.5" y="-771" font-family="Helvetica,sans-Serif" font-size="10.00">+ empty()</text>
<text text-anchor="start" x="195.5" y="-760" font-family="Helvetica,sans-Serif" font-size="10.00">+ size()</text>
<text text-anchor="start" x="195.5" y="-749" font-family="Helvetica,sans-Serif" font-size="10.00">+ clear()</text>
<text text-anchor="start" x="195.5" y="-738" font-family="Helvetica,sans-Serif" font-size="10.00">+ show()</text>
<text text-anchor="start" x="195.5" y="-727" font-family="Helvetica,sans-Serif" font-size="10.00">+ validate()</text>
<text text-anchor="start" x="195.5" y="-716" font-family="Helvetica,sans-Serif" font-size="10.00">+ Container()</text>
<text text-anchor="start" x="195.5" y="-705" font-family="Helvetica,sans-Serif" font-size="10.00">+ Container()</text>
<text text-anchor="start" x="195.5" y="-694" font-family="Helvetica,sans-Serif" font-size="10.00">+ begin()</text>
<text text-anchor="start" x="195.5" y="-683" font-family="Helvetica,sans-Serif" font-size="10.00">+ end()</text>
<text text-anchor="start" x="195.5" y="-672" font-family="Helvetica,sans-Serif" font-size="10.00">+ load()</text>
<text text-anchor="start" x="195.5" y="-661" font-family="Helvetica,sans-Serif" font-size="10.00">+ store()</text>
<text text-anchor="start" x="195.5" y="-650" font-family="Helvetica,sans-Serif" font-size="10.00">+ size()</text>
<text text-anchor="start" x="195.5" y="-639" font-family="Helvetica,sans-Serif" font-size="10.00">+ push_back()</text>
<text text-anchor="start" x="195.5" y="-628" font-family="Helvetica,sans-Serif" font-size="10.00">+ append()</text>
<text text-anchor="start" x="195.5" y="-617" font-family="Helvetica,sans-Serif" font-size="10.00">+ show()</text>
<text text-anchor="start" x="195.5" y="-606" font-family="Helvetica,sans-Serif" font-size="10.00">+ validate()</text>
<text text-anchor="start" x="195.5" y="-595" font-family="Helvetica,sans-Serif" font-size="10.00">+ reserve()</text>
<text text-anchor="start" x="195.5" y="-584" font-family="Helvetica,sans-Serif" font-size="10.00">+ resize()</text>
<text text-anchor="start" x="195.5" y="-573" font-family="Helvetica,sans-Serif" font-size="10.00">+ empty()</text>
<text text-anchor="start" x="195.5" y="-562" font-family="Helvetica,sans-Serif" font-size="10.00">+ clear()</text>
<text text-anchor="start" x="195.5" y="-551" font-family="Helvetica,sans-Serif" font-size="10.00">+ operator[]()</text>
<text text-anchor="start" x="195.5" y="-540" font-family="Helvetica,sans-Serif" font-size="10.00"># Container()</text>
</a>
</g>
<!-- Node7&#45;&gt;Node3 -->
<g id="edge12" class="edge"><title>Node7&#45;&gt;Node3</title>
<path fill="none" stroke="orange" stroke-dasharray="5,2" d="M199.595,-522.887C196.844,-509.653 194.072,-496.322 191.334,-483.153"/>
<polygon fill="orange" stroke="orange" points="196.232,-523.906 201.694,-532.984 203.085,-522.481 196.232,-523.906"/>
<text text-anchor="middle" x="214" y="-505.5" font-family="Helvetica,sans-Serif" font-size="10.00">&lt; Con &gt;</text>
</g>
<!-- Node8&#45;&gt;Node7 -->
<g id="edge14" class="edge"><title>Node8&#45;&gt;Node7</title>
<path fill="none" stroke="#9a32cd" stroke-dasharray="5,2" d="M254.247,-950.239C252.594,-927.577 250.365,-897.003 248.032,-865.015"/>
<polygon fill="#9a32cd" stroke="#9a32cd" points="254.986,-960.385 249.771,-950.739 254.623,-955.399 254.259,-950.412 254.259,-950.412 254.259,-950.412 254.623,-955.399 258.747,-950.085 254.986,-960.385 254.986,-960.385"/>
<text text-anchor="middle" x="275.5" y="-910.5" font-family="Helvetica,sans-Serif" font-size="10.00">collection</text>
</g>
</g>
</svg>
