<?xml version="1.0" encoding="UTF-8" standalone="no"?>
<!DOCTYPE svg PUBLIC "-//W3C//DTD SVG 1.1//EN"
 "http://www.w3.org/Graphics/SVG/1.1/DTD/svg11.dtd">
<!-- Generated by graphviz version 2.28.0 (20110610.2051)
 -->
<!-- Title: G Pages: 1 -->
<svg width="363pt" height="1532pt"
 viewBox="0.00 0.00 363.00 1532.00" xmlns="http://www.w3.org/2000/svg" xmlns:xlink="http://www.w3.org/1999/xlink">
<g id="graph1" class="graph" transform="scale(1 1) rotate(0) translate(4 1528)">
<title>G</title>
<polygon fill="white" stroke="white" points="-4,5 -4,-1528 360,-1528 360,5 -4,5"/>
<!-- Node1 -->
<g id="node1" class="node"><title>Node1</title>
<polygon fill="#bfbfbf" stroke="black" points="94.5,-0.5 94.5,-101.5 193.5,-101.5 193.5,-0.5 94.5,-0.5"/>
<text text-anchor="middle" x="144" y="-89.5" font-family="Helvetica,sans-Serif" font-size="10.00">SimpleNeuron</text>
<polyline fill="none" stroke="black" points="94.5,-82.5 193.5,-82.5 "/>
<text text-anchor="start" x="102.5" y="-70.5" font-family="Helvetica,sans-Serif" font-size="10.00">&#45; d_Id</text>
<polyline fill="none" stroke="black" points="94.5,-63.5 193.5,-63.5 "/>
<text text-anchor="start" x="102.5" y="-51.5" font-family="Helvetica,sans-Serif" font-size="10.00">+ SimpleNeuron()</text>
<text text-anchor="start" x="102.5" y="-40.5" font-family="Helvetica,sans-Serif" font-size="10.00">+ getId()</text>
<text text-anchor="start" x="102.5" y="-29.5" font-family="Helvetica,sans-Serif" font-size="10.00">+ setId()</text>
<text text-anchor="start" x="102.5" y="-18.5" font-family="Helvetica,sans-Serif" font-size="10.00">+ show()</text>
<text text-anchor="start" x="102.5" y="-7.5" font-family="Helvetica,sans-Serif" font-size="10.00">+ validate()</text>
</g>
<!-- Node2 -->
<g id="node2" class="node"><title>Node2</title>
<a xlink:href="class_neuron.html" target="_top" xlink:title="class Neuron &#45;">
<polygon fill="white" stroke="black" points="100,-140.5 100,-395.5 188,-395.5 188,-140.5 100,-140.5"/>
<text text-anchor="middle" x="144" y="-383.5" font-family="Helvetica,sans-Serif" font-size="10.00">Neuron</text>
<polyline fill="none" stroke="black" points="100,-376.5 188,-376.5 "/>
<text text-anchor="start" x="108" y="-364.5" font-family="Helvetica,sans-Serif" font-size="10.00">&#45; Id</text>
<text text-anchor="start" x="108" y="-353.5" font-family="Helvetica,sans-Serif" font-size="10.00">&#45; con</text>
<text text-anchor="start" x="108" y="-342.5" font-family="Helvetica,sans-Serif" font-size="10.00">&#45; outputValue</text>
<polyline fill="none" stroke="black" points="100,-335.5 188,-335.5 "/>
<text text-anchor="start" x="108" y="-323.5" font-family="Helvetica,sans-Serif" font-size="10.00">+ getId()</text>
<text text-anchor="start" x="108" y="-312.5" font-family="Helvetica,sans-Serif" font-size="10.00">+ setId()</text>
<text text-anchor="start" x="108" y="-301.5" font-family="Helvetica,sans-Serif" font-size="10.00">+ show()</text>
<text text-anchor="start" x="108" y="-290.5" font-family="Helvetica,sans-Serif" font-size="10.00">+ validate()</text>
<text text-anchor="start" x="108" y="-279.5" font-family="Helvetica,sans-Serif" font-size="10.00">+ Neuron()</text>
<text text-anchor="start" x="108" y="-268.5" font-family="Helvetica,sans-Serif" font-size="10.00">+ Neuron()</text>
<text text-anchor="start" x="108" y="-257.5" font-family="Helvetica,sans-Serif" font-size="10.00">+ Neuron()</text>
<text text-anchor="start" x="108" y="-246.5" font-family="Helvetica,sans-Serif" font-size="10.00">+ ~Neuron()</text>
<text text-anchor="start" x="108" y="-235.5" font-family="Helvetica,sans-Serif" font-size="10.00">+ getId()</text>
<text text-anchor="start" x="108" y="-224.5" font-family="Helvetica,sans-Serif" font-size="10.00">+ setId()</text>
<text text-anchor="start" x="108" y="-213.5" font-family="Helvetica,sans-Serif" font-size="10.00">+ getConId()</text>
<text text-anchor="start" x="108" y="-202.5" font-family="Helvetica,sans-Serif" font-size="10.00">+ getWeight()</text>
<text text-anchor="start" x="108" y="-191.5" font-family="Helvetica,sans-Serif" font-size="10.00">+ setFrom()</text>
<text text-anchor="start" x="108" y="-180.5" font-family="Helvetica,sans-Serif" font-size="10.00">+ setWeight()</text>
<text text-anchor="start" x="108" y="-169.5" font-family="Helvetica,sans-Serif" font-size="10.00">+ numOfCons()</text>
<text text-anchor="start" x="108" y="-158.5" font-family="Helvetica,sans-Serif" font-size="10.00">+ show()</text>
<text text-anchor="start" x="108" y="-147.5" font-family="Helvetica,sans-Serif" font-size="10.00">+ validate()</text>
</a>
</g>
<!-- Node2&#45;&gt;Node1 -->
<g id="edge2" class="edge"><title>Node2&#45;&gt;Node1</title>
<path fill="none" stroke="midnightblue" d="M144,-130.218C144,-120.166 144,-110.483 144,-101.56"/>
<polygon fill="none" stroke="midnightblue" points="140.5,-130.379 144,-140.379 147.5,-130.38 140.5,-130.379"/>
</g>
<!-- Node3 -->
<g id="node4" class="node"><title>Node3</title>
<a xlink:href="class_container.html" target="_top" xlink:title="{Container\&lt; Con \&gt;\n|# collection\l|+ ~Container()\l+ createIterator()\l+ push_back()\l+ push_back()\l+ reserve()\l+ reserve()\l+ empty()\l+ empty()\l+ size()\l+ size()\l+ clear()\l+ clear()\l+ show()\l+ show()\l+ validate()\l+ validate()\l+ Container()\l+ Container()\l+ begin()\l+ end()\l+ load()\l+ store()\l+ append()\l+ resize()\l+ operator[]()\l# Container()\l}">
<polygon fill="white" stroke="black" points="95.5,-445 95.5,-777 192.5,-777 192.5,-445 95.5,-445"/>
<text text-anchor="middle" x="144" y="-765" font-family="Helvetica,sans-Serif" font-size="10.00">Container&lt; Con &gt;</text>
<polyline fill="none" stroke="black" points="95.5,-758 192.5,-758 "/>
<text text-anchor="start" x="103.5" y="-746" font-family="Helvetica,sans-Serif" font-size="10.00"># collection</text>
<polyline fill="none" stroke="black" points="95.5,-739 192.5,-739 "/>
<text text-anchor="start" x="103.5" y="-727" font-family="Helvetica,sans-Serif" font-size="10.00">+ ~Container()</text>
<text text-anchor="start" x="103.5" y="-716" font-family="Helvetica,sans-Serif" font-size="10.00">+ createIterator()</text>
<text text-anchor="start" x="103.5" y="-705" font-family="Helvetica,sans-Serif" font-size="10.00">+ push_back()</text>
<text text-anchor="start" x="103.5" y="-694" font-family="Helvetica,sans-Serif" font-size="10.00">+ push_back()</text>
<text text-anchor="start" x="103.5" y="-683" font-family="Helvetica,sans-Serif" font-size="10.00">+ reserve()</text>
<text text-anchor="start" x="103.5" y="-672" font-family="Helvetica,sans-Serif" font-size="10.00">+ reserve()</text>
<text text-anchor="start" x="103.5" y="-661" font-family="Helvetica,sans-Serif" font-size="10.00">+ empty()</text>
<text text-anchor="start" x="103.5" y="-650" font-family="Helvetica,sans-Serif" font-size="10.00">+ empty()</text>
<text text-anchor="start" x="103.5" y="-639" font-family="Helvetica,sans-Serif" font-size="10.00">+ size()</text>
<text text-anchor="start" x="103.5" y="-628" font-family="Helvetica,sans-Serif" font-size="10.00">+ size()</text>
<text text-anchor="start" x="103.5" y="-617" font-family="Helvetica,sans-Serif" font-size="10.00">+ clear()</text>
<text text-anchor="start" x="103.5" y="-606" font-family="Helvetica,sans-Serif" font-size="10.00">+ clear()</text>
<text text-anchor="start" x="103.5" y="-595" font-family="Helvetica,sans-Serif" font-size="10.00">+ show()</text>
<text text-anchor="start" x="103.5" y="-584" font-family="Helvetica,sans-Serif" font-size="10.00">+ show()</text>
<text text-anchor="start" x="103.5" y="-573" font-family="Helvetica,sans-Serif" font-size="10.00">+ validate()</text>
<text text-anchor="start" x="103.5" y="-562" font-family="Helvetica,sans-Serif" font-size="10.00">+ validate()</text>
<text text-anchor="start" x="103.5" y="-551" font-family="Helvetica,sans-Serif" font-size="10.00">+ Container()</text>
<text text-anchor="start" x="103.5" y="-540" font-family="Helvetica,sans-Serif" font-size="10.00">+ Container()</text>
<text text-anchor="start" x="103.5" y="-529" font-family="Helvetica,sans-Serif" font-size="10.00">+ begin()</text>
<text text-anchor="start" x="103.5" y="-518" font-family="Helvetica,sans-Serif" font-size="10.00">+ end()</text>
<text text-anchor="start" x="103.5" y="-507" font-family="Helvetica,sans-Serif" font-size="10.00">+ load()</text>
<text text-anchor="start" x="103.5" y="-496" font-family="Helvetica,sans-Serif" font-size="10.00">+ store()</text>
<text text-anchor="start" x="103.5" y="-485" font-family="Helvetica,sans-Serif" font-size="10.00">+ append()</text>
<text text-anchor="start" x="103.5" y="-474" font-family="Helvetica,sans-Serif" font-size="10.00">+ resize()</text>
<text text-anchor="start" x="103.5" y="-463" font-family="Helvetica,sans-Serif" font-size="10.00">+ operator[]()</text>
<text text-anchor="start" x="103.5" y="-452" font-family="Helvetica,sans-Serif" font-size="10.00"># Container()</text>
</a>
</g>
<!-- Node3&#45;&gt;Node2 -->
<g id="edge4" class="edge"><title>Node3&#45;&gt;Node2</title>
<path fill="none" stroke="#9a32cd" stroke-dasharray="5,2" d="M144,-434.942C144,-421.799 144,-408.693 144,-395.935"/>
<polygon fill="#9a32cd" stroke="#9a32cd" points="144,-444.994 139.5,-434.994 144,-439.994 144,-434.994 144,-434.994 144,-434.994 144,-439.994 148.5,-434.994 144,-444.994 144,-444.994"/>
<text text-anchor="middle" x="152.5" y="-417.5" font-family="Helvetica,sans-Serif" font-size="10.00">con</text>
</g>
<!-- Node4 -->
<g id="node6" class="node"><title>Node4</title>
<polygon fill="white" stroke="#bfbfbf" points="0,-1178.5 0,-1235.5 200,-1235.5 200,-1178.5 0,-1178.5"/>
<text text-anchor="middle" x="100" y="-1223.5" font-family="Helvetica,sans-Serif" font-size="10.00">std::vector&lt; boost::shared_ptr&lt; Con &gt; &gt;</text>
<polyline fill="none" stroke="#bfbfbf" points="0,-1216.5 200,-1216.5 "/>
<text text-anchor="start" x="8" y="-1204.5" font-family="Helvetica,sans-Serif" font-size="10.00">&#45; elements</text>
<polyline fill="none" stroke="#bfbfbf" points="0,-1197.5 200,-1197.5 "/>
<text text-anchor="middle" x="100" y="-1185.5" font-family="Helvetica,sans-Serif" font-size="10.00"> </text>
</g>
<!-- Node4&#45;&gt;Node3 -->
<g id="edge6" class="edge"><title>Node4&#45;&gt;Node3</title>
<path fill="none" stroke="#9a32cd" stroke-dasharray="5,2" d="M101.255,-1168.03C103.683,-1099.58 109.711,-950.995 120,-826 121.304,-810.165 122.836,-793.689 124.485,-777.222"/>
<polygon fill="#9a32cd" stroke="#9a32cd" points="100.896,-1178.31 96.748,-1168.16 101.071,-1173.31 101.245,-1168.31 101.245,-1168.31 101.245,-1168.31 101.071,-1173.31 105.742,-1168.47 100.896,-1178.31 100.896,-1178.31"/>
<text text-anchor="middle" x="142.5" y="-990.5" font-family="Helvetica,sans-Serif" font-size="10.00">collection</text>
</g>
<!-- Node5 -->
<g id="node8" class="node"><title>Node5</title>
<a xlink:title="STL class.">
<polygon fill="white" stroke="#bfbfbf" points="125.5,-1360.5 125.5,-1417.5 214.5,-1417.5 214.5,-1360.5 125.5,-1360.5"/>
<text text-anchor="middle" x="170" y="-1405.5" font-family="Helvetica,sans-Serif" font-size="10.00">std::vector&lt; T &gt;</text>
<polyline fill="none" stroke="#bfbfbf" points="125.5,-1398.5 214.5,-1398.5 "/>
<text text-anchor="start" x="133.5" y="-1386.5" font-family="Helvetica,sans-Serif" font-size="10.00">&#45; elements</text>
<polyline fill="none" stroke="#bfbfbf" points="125.5,-1379.5 214.5,-1379.5 "/>
<text text-anchor="middle" x="170" y="-1367.5" font-family="Helvetica,sans-Serif" font-size="10.00"> </text>
</a>
</g>
<!-- Node5&#45;&gt;Node4 -->
<g id="edge8" class="edge"><title>Node5&#45;&gt;Node4</title>
<path fill="none" stroke="orange" stroke-dasharray="5,2" d="M116.558,-1368.25C105.577,-1361.63 95.4196,-1353.03 89,-1342 69.9765,-1309.32 79.4346,-1264.34 88.9452,-1235.71"/>
<polygon fill="orange" stroke="orange" points="115.035,-1371.41 125.486,-1373.14 118.4,-1365.27 115.035,-1371.41"/>
<text text-anchor="middle" x="156" y="-1333.5" font-family="Helvetica,sans-Serif" font-size="10.00">&lt; boost::shared_ptr&lt; Con &gt; &gt;</text>
</g>
<!-- Node8 -->
<g id="node14" class="node"><title>Node8</title>
<polygon fill="white" stroke="#bfbfbf" points="150,-1254.5 150,-1311.5 338,-1311.5 338,-1254.5 150,-1254.5"/>
<text text-anchor="middle" x="244" y="-1299.5" font-family="Helvetica,sans-Serif" font-size="10.00">std::vector&lt; boost::shared_ptr&lt; T &gt; &gt;</text>
<polyline fill="none" stroke="#bfbfbf" points="150,-1292.5 338,-1292.5 "/>
<text text-anchor="start" x="158" y="-1280.5" font-family="Helvetica,sans-Serif" font-size="10.00">&#45; elements</text>
<polyline fill="none" stroke="#bfbfbf" points="150,-1273.5 338,-1273.5 "/>
<text text-anchor="middle" x="244" y="-1261.5" font-family="Helvetica,sans-Serif" font-size="10.00"> </text>
</g>
<!-- Node5&#45;&gt;Node8 -->
<g id="edge16" class="edge"><title>Node5&#45;&gt;Node8</title>
<path fill="none" stroke="orange" stroke-dasharray="5,2" d="M217.929,-1353.31C221.274,-1349.74 224.36,-1345.96 227,-1342 232.999,-1333.01 236.923,-1321.87 239.47,-1311.75"/>
<polygon fill="orange" stroke="orange" points="215.446,-1350.85 210.76,-1360.35 220.349,-1355.84 215.446,-1350.85"/>
<text text-anchor="middle" x="294.5" y="-1333.5" font-family="Helvetica,sans-Serif" font-size="10.00">&lt; boost::shared_ptr&lt; T &gt; &gt;</text>
</g>
<!-- Node6 -->
<g id="node10" class="node"><title>Node6</title>
<polygon fill="white" stroke="#bfbfbf" points="155.5,-1466.5 155.5,-1523.5 184.5,-1523.5 184.5,-1466.5 155.5,-1466.5"/>
<text text-anchor="middle" x="170" y="-1511.5" font-family="Helvetica,sans-Serif" font-size="10.00">T</text>
<polyline fill="none" stroke="#bfbfbf" points="155.5,-1504.5 184.5,-1504.5 "/>
<text text-anchor="middle" x="170" y="-1492.5" font-family="Helvetica,sans-Serif" font-size="10.00"> </text>
<polyline fill="none" stroke="#bfbfbf" points="155.5,-1485.5 184.5,-1485.5 "/>
<text text-anchor="middle" x="170" y="-1473.5" font-family="Helvetica,sans-Serif" font-size="10.00"> </text>
</g>
<!-- Node6&#45;&gt;Node5 -->
<g id="edge10" class="edge"><title>Node6&#45;&gt;Node5</title>
<path fill="none" stroke="#9a32cd" stroke-dasharray="5,2" d="M170,-1456.1C170,-1443.4 170,-1429.49 170,-1417.73"/>
<polygon fill="#9a32cd" stroke="#9a32cd" points="170,-1466.4 165.5,-1456.4 170,-1461.4 170,-1456.4 170,-1456.4 170,-1456.4 170,-1461.4 174.5,-1456.4 170,-1466.4 170,-1466.4"/>
<text text-anchor="middle" x="191.5" y="-1439.5" font-family="Helvetica,sans-Serif" font-size="10.00">elements</text>
</g>
<!-- Node7 -->
<g id="node12" class="node"><title>Node7</title>
<a xlink:href="class_container.html" target="_top" xlink:title="class Container &#45;">
<polygon fill="white" stroke="black" points="174.5,-827 174.5,-1159 271.5,-1159 271.5,-827 174.5,-827"/>
<text text-anchor="middle" x="223" y="-1147" font-family="Helvetica,sans-Serif" font-size="10.00">Container&lt; T &gt;</text>
<polyline fill="none" stroke="black" points="174.5,-1140 271.5,-1140 "/>
<text text-anchor="start" x="182.5" y="-1128" font-family="Helvetica,sans-Serif" font-size="10.00"># collection</text>
<polyline fill="none" stroke="black" points="174.5,-1121 271.5,-1121 "/>
<text text-anchor="start" x="182.5" y="-1109" font-family="Helvetica,sans-Serif" font-size="10.00">+ ~Container()</text>
<text text-anchor="start" x="182.5" y="-1098" font-family="Helvetica,sans-Serif" font-size="10.00">+ createIterator()</text>
<text text-anchor="start" x="182.5" y="-1087" font-family="Helvetica,sans-Serif" font-size="10.00">+ push_back()</text>
<text text-anchor="start" x="182.5" y="-1076" font-family="Helvetica,sans-Serif" font-size="10.00">+ reserve()</text>
<text text-anchor="start" x="182.5" y="-1065" font-family="Helvetica,sans-Serif" font-size="10.00">+ empty()</text>
<text text-anchor="start" x="182.5" y="-1054" font-family="Helvetica,sans-Serif" font-size="10.00">+ size()</text>
<text text-anchor="start" x="182.5" y="-1043" font-family="Helvetica,sans-Serif" font-size="10.00">+ clear()</text>
<text text-anchor="start" x="182.5" y="-1032" font-family="Helvetica,sans-Serif" font-size="10.00">+ show()</text>
<text text-anchor="start" x="182.5" y="-1021" font-family="Helvetica,sans-Serif" font-size="10.00">+ validate()</text>
<text text-anchor="start" x="182.5" y="-1010" font-family="Helvetica,sans-Serif" font-size="10.00">+ Container()</text>
<text text-anchor="start" x="182.5" y="-999" font-family="Helvetica,sans-Serif" font-size="10.00">+ Container()</text>
<text text-anchor="start" x="182.5" y="-988" font-family="Helvetica,sans-Serif" font-size="10.00">+ begin()</text>
<text text-anchor="start" x="182.5" y="-977" font-family="Helvetica,sans-Serif" font-size="10.00">+ end()</text>
<text text-anchor="start" x="182.5" y="-966" font-family="Helvetica,sans-Serif" font-size="10.00">+ load()</text>
<text text-anchor="start" x="182.5" y="-955" font-family="Helvetica,sans-Serif" font-size="10.00">+ store()</text>
<text text-anchor="start" x="182.5" y="-944" font-family="Helvetica,sans-Serif" font-size="10.00">+ size()</text>
<text text-anchor="start" x="182.5" y="-933" font-family="Helvetica,sans-Serif" font-size="10.00">+ push_back()</text>
<text text-anchor="start" x="182.5" y="-922" font-family="Helvetica,sans-Serif" font-size="10.00">+ append()</text>
<text text-anchor="start" x="182.5" y="-911" font-family="Helvetica,sans-Serif" font-size="10.00">+ show()</text>
<text text-anchor="start" x="182.5" y="-900" font-family="Helvetica,sans-Serif" font-size="10.00">+ validate()</text>
<text text-anchor="start" x="182.5" y="-889" font-family="Helvetica,sans-Serif" font-size="10.00">+ reserve()</text>
<text text-anchor="start" x="182.5" y="-878" font-family="Helvetica,sans-Serif" font-size="10.00">+ resize()</text>
<text text-anchor="start" x="182.5" y="-867" font-family="Helvetica,sans-Serif" font-size="10.00">+ empty()</text>
<text text-anchor="start" x="182.5" y="-856" font-family="Helvetica,sans-Serif" font-size="10.00">+ clear()</text>
<text text-anchor="start" x="182.5" y="-845" font-family="Helvetica,sans-Serif" font-size="10.00">+ operator[]()</text>
<text text-anchor="start" x="182.5" y="-834" font-family="Helvetica,sans-Serif" font-size="10.00"># Container()</text>
</a>
</g>
<!-- Node7&#45;&gt;Node3 -->
<g id="edge12" class="edge"><title>Node7&#45;&gt;Node3</title>
<path fill="none" stroke="orange" stroke-dasharray="5,2" d="M186.595,-816.887C183.844,-803.653 181.072,-790.322 178.334,-777.153"/>
<polygon fill="orange" stroke="orange" points="183.232,-817.906 188.694,-826.984 190.085,-816.481 183.232,-817.906"/>
<text text-anchor="middle" x="202" y="-799.5" font-family="Helvetica,sans-Serif" font-size="10.00">&lt; Con &gt;</text>
</g>
<!-- Node8&#45;&gt;Node7 -->
<g id="edge14" class="edge"><title>Node8&#45;&gt;Node7</title>
<path fill="none" stroke="#9a32cd" stroke-dasharray="5,2" d="M241.247,-1244.24C239.594,-1221.58 237.365,-1191 235.032,-1159.02"/>
<polygon fill="#9a32cd" stroke="#9a32cd" points="241.986,-1254.39 236.771,-1244.74 241.623,-1249.4 241.259,-1244.41 241.259,-1244.41 241.259,-1244.41 241.623,-1249.4 245.747,-1244.08 241.986,-1254.39 241.986,-1254.39"/>
<text text-anchor="middle" x="263.5" y="-1204.5" font-family="Helvetica,sans-Serif" font-size="10.00">collection</text>
</g>
</g>
</svg>
