<?xml version="1.0" encoding="UTF-8" standalone="no"?>
<!DOCTYPE svg PUBLIC "-//W3C//DTD SVG 1.1//EN"
 "http://www.w3.org/Graphics/SVG/1.1/DTD/svg11.dtd">
<!-- Generated by graphviz version 2.28.0 (20110610.2051)
 -->
<!-- Title: G Pages: 1 -->
<svg width="142pt" height="206pt"
 viewBox="0.00 0.00 142.00 206.00" xmlns="http://www.w3.org/2000/svg" xmlns:xlink="http://www.w3.org/1999/xlink">
<g id="graph1" class="graph" transform="scale(1 1) rotate(0) translate(4 202)">
<title>G</title>
<polygon fill="white" stroke="white" points="-4,5 -4,-202 139,-202 139,5 -4,5"/>
<!-- Node1 -->
<g id="node1" class="node"><title>Node1</title>
<polygon fill="#bfbfbf" stroke="black" points="34.5,-1 34.5,-69 99.5,-69 99.5,-1 34.5,-1"/>
<text text-anchor="middle" x="67" y="-57" font-family="Helvetica,sans-Serif" font-size="10.00">Reciprocal</text>
<polyline fill="none" stroke="black" points="34.5,-50 99.5,-50 "/>
<text text-anchor="middle" x="67" y="-38" font-family="Helvetica,sans-Serif" font-size="10.00"> </text>
<polyline fill="none" stroke="black" points="34.5,-31 99.5,-31 "/>
<text text-anchor="start" x="42.5" y="-19" font-family="Helvetica,sans-Serif" font-size="10.00">+ f0()</text>
<text text-anchor="start" x="42.5" y="-8" font-family="Helvetica,sans-Serif" font-size="10.00">+ f1()</text>
</g>
<!-- Node2 -->
<g id="node2" class="node"><title>Node2</title>
<a xlink:href="class_activation_function.html" target="_top" xlink:title="class ActivationFunction &#45;">
<polygon fill="white" stroke="black" points="0,-107 0,-197 134,-197 134,-107 0,-107"/>
<text text-anchor="middle" x="67" y="-185" font-family="Helvetica,sans-Serif" font-size="10.00">ActivationFunction</text>
<polyline fill="none" stroke="black" points="0,-178 134,-178 "/>
<text text-anchor="start" x="8" y="-166" font-family="Helvetica,sans-Serif" font-size="10.00"># d_predictBehavior</text>
<polyline fill="none" stroke="black" points="0,-159 134,-159 "/>
<text text-anchor="start" x="8" y="-147" font-family="Helvetica,sans-Serif" font-size="10.00">+ f0()</text>
<text text-anchor="start" x="8" y="-136" font-family="Helvetica,sans-Serif" font-size="10.00">+ f1()</text>
<text text-anchor="start" x="8" y="-125" font-family="Helvetica,sans-Serif" font-size="10.00">+ getInducedLocalField()</text>
<text text-anchor="start" x="8" y="-114" font-family="Helvetica,sans-Serif" font-size="10.00">+ setPredictBehavior()</text>
</a>
</g>
<!-- Node2&#45;&gt;Node1 -->
<g id="edge2" class="edge"><title>Node2&#45;&gt;Node1</title>
<path fill="none" stroke="midnightblue" d="M67,-96.7309C67,-87.3035 67,-77.7599 67,-69.1181"/>
<polygon fill="none" stroke="midnightblue" points="63.5001,-96.8669 67,-106.867 70.5001,-96.8669 63.5001,-96.8669"/>
</g>
</g>
</svg>
