<?xml version="1.0" encoding="UTF-8" standalone="no"?>
<!DOCTYPE svg PUBLIC "-//W3C//DTD SVG 1.1//EN"
 "http://www.w3.org/Graphics/SVG/1.1/DTD/svg11.dtd">
<!-- Generated by graphviz version 2.25.20091207.0545 (20091207.0545)
 -->
<!-- Title: G Pages: 1 -->
<svg width="216pt" height="550pt"
 viewBox="0.00 0.00 216.00 550.00" xmlns="http://www.w3.org/2000/svg" xmlns:xlink="http://www.w3.org/1999/xlink">
<g id="graph1" class="graph" transform="scale(1 1) rotate(0) translate(4 546)">
<title>G</title>
<polygon fill="white" stroke="white" points="-4,5 -4,-546 213,-546 213,5 -4,5"/>
<!-- Node1 -->
<g id="node1" class="node"><title>Node1</title>
<polygon fill="#bfbfbf" stroke="black" points="49,-1 49,-223 131,-223 131,-1 49,-1"/>
<text text-anchor="middle" x="90" y="-210" font-family="Helvetica,sans-Serif" font-size="10.00">Container&lt; T &gt;</text>
<polyline fill="none" stroke="black" points="49,-204 131,-204 "/>
<text text-anchor="start" x="57" y="-191" font-family="Helvetica,sans-Serif" font-size="10.00"># collection</text>
<polyline fill="none" stroke="black" points="49,-185 131,-185 "/>
<text text-anchor="start" x="57" y="-172" font-family="Helvetica,sans-Serif" font-size="10.00">+ Container()</text>
<text text-anchor="start" x="57" y="-161" font-family="Helvetica,sans-Serif" font-size="10.00">+ Container()</text>
<text text-anchor="start" x="57" y="-150" font-family="Helvetica,sans-Serif" font-size="10.00">+ begin()</text>
<text text-anchor="start" x="57" y="-139" font-family="Helvetica,sans-Serif" font-size="10.00">+ end()</text>
<text text-anchor="start" x="57" y="-128" font-family="Helvetica,sans-Serif" font-size="10.00">+ load()</text>
<text text-anchor="start" x="57" y="-117" font-family="Helvetica,sans-Serif" font-size="10.00">+ store()</text>
<text text-anchor="start" x="57" y="-106" font-family="Helvetica,sans-Serif" font-size="10.00">+ size()</text>
<text text-anchor="start" x="57" y="-95" font-family="Helvetica,sans-Serif" font-size="10.00">+ push_back()</text>
<text text-anchor="start" x="57" y="-84" font-family="Helvetica,sans-Serif" font-size="10.00">+ append()</text>
<text text-anchor="start" x="57" y="-73" font-family="Helvetica,sans-Serif" font-size="10.00">+ show()</text>
<text text-anchor="start" x="57" y="-62" font-family="Helvetica,sans-Serif" font-size="10.00">+ validate()</text>
<text text-anchor="start" x="57" y="-51" font-family="Helvetica,sans-Serif" font-size="10.00">+ reserve()</text>
<text text-anchor="start" x="57" y="-40" font-family="Helvetica,sans-Serif" font-size="10.00">+ resize()</text>
<text text-anchor="start" x="57" y="-29" font-family="Helvetica,sans-Serif" font-size="10.00">+ empty()</text>
<text text-anchor="start" x="57" y="-18" font-family="Helvetica,sans-Serif" font-size="10.00">+ clear()</text>
<text text-anchor="start" x="57" y="-7" font-family="Helvetica,sans-Serif" font-size="10.00">+ operator[]()</text>
</g>
<!-- Node2 -->
<g id="node2" class="node"><title>Node2</title>
<polygon fill="white" stroke="#bfbfbf" points="0,-272.5 0,-329.5 180,-329.5 180,-272.5 0,-272.5"/>
<text text-anchor="middle" x="90" y="-316.5" font-family="Helvetica,sans-Serif" font-size="10.00">std::vector&lt; boost::shared_ptr&lt; T &gt; &gt;</text>
<polyline fill="none" stroke="#bfbfbf" points="0,-310.5 180,-310.5 "/>
<text text-anchor="start" x="8" y="-297.5" font-family="Helvetica,sans-Serif" font-size="10.00">&#45; elements</text>
<polyline fill="none" stroke="#bfbfbf" points="0,-291.5 180,-291.5 "/>
<text text-anchor="middle" x="90" y="-278.5" font-family="Helvetica,sans-Serif" font-size="10.00"> </text>
</g>
<!-- Node2&#45;&gt;Node1 -->
<g id="edge2" class="edge"><title>Node2&#45;&gt;Node1</title>
<path fill="none" stroke="#9a32cd" stroke-dasharray="5,2" d="M90,-262.149C90,-250.528 90,-237.163 90,-223.3"/>
<polygon fill="#9a32cd" stroke="#9a32cd" points="90,-272.295 85.5001,-262.295 90,-267.295 90.0001,-262.295 90.0001,-262.295 90.0001,-262.295 90,-267.295 94.5001,-262.295 90,-272.295 90,-272.295"/>
<text text-anchor="middle" x="110.5" y="-244.5" font-family="Helvetica,sans-Serif" font-size="10.00">collection</text>
</g>
<!-- Node3 -->
<g id="node4" class="node"><title>Node3</title>
<a xlink:title="STL class.">
<polygon fill="white" stroke="#bfbfbf" points="46.5,-378.5 46.5,-435.5 133.5,-435.5 133.5,-378.5 46.5,-378.5"/>
<text text-anchor="middle" x="90" y="-422.5" font-family="Helvetica,sans-Serif" font-size="10.00">std::vector&lt; T &gt;</text>
<polyline fill="none" stroke="#bfbfbf" points="46.5,-416.5 133.5,-416.5 "/>
<text text-anchor="start" x="54.5" y="-403.5" font-family="Helvetica,sans-Serif" font-size="10.00">&#45; elements</text>
<polyline fill="none" stroke="#bfbfbf" points="46.5,-397.5 133.5,-397.5 "/>
<text text-anchor="middle" x="90" y="-384.5" font-family="Helvetica,sans-Serif" font-size="10.00"> </text>
</a>
</g>
<!-- Node3&#45;&gt;Node2 -->
<g id="edge4" class="edge"><title>Node3&#45;&gt;Node2</title>
<path fill="none" stroke="orange" stroke-dasharray="5,2" d="M90,-368.005C90,-355.326 90,-341.494 90,-329.708"/>
<polygon fill="orange" stroke="orange" points="86.5001,-368.315 90,-378.315 93.5001,-368.315 86.5001,-368.315"/>
<text text-anchor="middle" x="149" y="-350.5" font-family="Helvetica,sans-Serif" font-size="10.00">&lt; boost::shared_ptr&lt; T &gt; &gt;</text>
</g>
<!-- Node4 -->
<g id="node6" class="node"><title>Node4</title>
<polygon fill="white" stroke="#bfbfbf" points="75.5,-484.5 75.5,-541.5 104.5,-541.5 104.5,-484.5 75.5,-484.5"/>
<text text-anchor="middle" x="90" y="-528.5" font-family="Helvetica,sans-Serif" font-size="10.00">T</text>
<polyline fill="none" stroke="#bfbfbf" points="75.5,-522.5 104.5,-522.5 "/>
<text text-anchor="middle" x="90" y="-509.5" font-family="Helvetica,sans-Serif" font-size="10.00"> </text>
<polyline fill="none" stroke="#bfbfbf" points="75.5,-503.5 104.5,-503.5 "/>
<text text-anchor="middle" x="90" y="-490.5" font-family="Helvetica,sans-Serif" font-size="10.00"> </text>
</g>
<!-- Node4&#45;&gt;Node3 -->
<g id="edge6" class="edge"><title>Node4&#45;&gt;Node3</title>
<path fill="none" stroke="#9a32cd" stroke-dasharray="5,2" d="M90,-474.005C90,-461.326 90,-447.494 90,-435.708"/>
<polygon fill="#9a32cd" stroke="#9a32cd" points="90,-484.315 85.5001,-474.315 90,-479.315 90.0001,-474.315 90.0001,-474.315 90.0001,-474.315 90,-479.315 94.5001,-474.315 90,-484.315 90,-484.315"/>
<text text-anchor="middle" x="110" y="-456.5" font-family="Helvetica,sans-Serif" font-size="10.00">elements</text>
</g>
</g>
</svg>
