<?xml version="1.0" encoding="UTF-8" standalone="no"?>
<!DOCTYPE svg PUBLIC "-//W3C//DTD SVG 1.1//EN"
 "http://www.w3.org/Graphics/SVG/1.1/DTD/svg11.dtd">
<!-- Generated by graphviz version 2.25.20091207.0545 (20091207.0545)
 -->
<!-- Title: G Pages: 1 -->
<svg width="351pt" height="808pt"
 viewBox="0.00 0.00 351.00 808.00" xmlns="http://www.w3.org/2000/svg" xmlns:xlink="http://www.w3.org/1999/xlink">
<g id="graph1" class="graph" transform="scale(1 1) rotate(0) translate(4 804)">
<title>G</title>
<polygon fill="white" stroke="white" points="-4,5 -4,-804 348,-804 348,5 -4,5"/>
<!-- Node1 -->
<g id="node1" class="node"><title>Node1</title>
<polygon fill="#bfbfbf" stroke="black" points="95,-0.5 95,-101.5 197,-101.5 197,-0.5 95,-0.5"/>
<text text-anchor="middle" x="146" y="-88.5" font-family="Helvetica,sans-Serif" font-size="10.00">vecCon</text>
<polyline fill="none" stroke="black" points="95,-82.5 197,-82.5 "/>
<text text-anchor="middle" x="146" y="-69.5" font-family="Helvetica,sans-Serif" font-size="10.00"> </text>
<polyline fill="none" stroke="black" points="95,-63.5 197,-63.5 "/>
<text text-anchor="start" x="103" y="-50.5" font-family="Helvetica,sans-Serif" font-size="10.00">+ numOfCons()</text>
<text text-anchor="start" x="103" y="-39.5" font-family="Helvetica,sans-Serif" font-size="10.00">+ getFromId()</text>
<text text-anchor="start" x="103" y="-28.5" font-family="Helvetica,sans-Serif" font-size="10.00">+ buildAndAppend()</text>
<text text-anchor="start" x="103" y="-17.5" font-family="Helvetica,sans-Serif" font-size="10.00">+ getWeight()</text>
<text text-anchor="start" x="103" y="-6.5" font-family="Helvetica,sans-Serif" font-size="10.00">+ getFromNeuron()</text>
</g>
<!-- Node2 -->
<g id="node2" class="node"><title>Node2</title>
<a xlink:href="classvec_a_m_o_r_e.html" target="_top" xlink:title="{vecAMORE\&lt; Con \&gt;\n|# ldata\l|+ getLdata()\l+ setLdata()\l+ size()\l+ push_back()\l+ append()\l+ show()\l+ validate()\l}">
<polygon fill="white" stroke="black" points="93.5,-140.5 93.5,-263.5 198.5,-263.5 198.5,-140.5 93.5,-140.5"/>
<text text-anchor="middle" x="146" y="-250.5" font-family="Helvetica,sans-Serif" font-size="10.00">vecAMORE&lt; Con &gt;</text>
<polyline fill="none" stroke="black" points="93.5,-244.5 198.5,-244.5 "/>
<text text-anchor="start" x="101.5" y="-231.5" font-family="Helvetica,sans-Serif" font-size="10.00"># ldata</text>
<polyline fill="none" stroke="black" points="93.5,-225.5 198.5,-225.5 "/>
<text text-anchor="start" x="101.5" y="-212.5" font-family="Helvetica,sans-Serif" font-size="10.00">+ getLdata()</text>
<text text-anchor="start" x="101.5" y="-201.5" font-family="Helvetica,sans-Serif" font-size="10.00">+ setLdata()</text>
<text text-anchor="start" x="101.5" y="-190.5" font-family="Helvetica,sans-Serif" font-size="10.00">+ size()</text>
<text text-anchor="start" x="101.5" y="-179.5" font-family="Helvetica,sans-Serif" font-size="10.00">+ push_back()</text>
<text text-anchor="start" x="101.5" y="-168.5" font-family="Helvetica,sans-Serif" font-size="10.00">+ append()</text>
<text text-anchor="start" x="101.5" y="-157.5" font-family="Helvetica,sans-Serif" font-size="10.00">+ show()</text>
<text text-anchor="start" x="101.5" y="-146.5" font-family="Helvetica,sans-Serif" font-size="10.00">+ validate()</text>
</a>
</g>
<!-- Node2&#45;&gt;Node1 -->
<g id="edge2" class="edge"><title>Node2&#45;&gt;Node1</title>
<path fill="none" stroke="midnightblue" d="M146,-129.937C146,-120.476 146,-110.943 146,-101.934"/>
<polygon fill="none" stroke="midnightblue" points="142.5,-130.147 146,-140.147 149.5,-130.147 142.5,-130.147"/>
</g>
<!-- Node3 -->
<g id="node4" class="node"><title>Node3</title>
<polygon fill="white" stroke="#bfbfbf" points="0,-454.5 0,-511.5 192,-511.5 192,-454.5 0,-454.5"/>
<text text-anchor="middle" x="96" y="-498.5" font-family="Helvetica,sans-Serif" font-size="10.00">std::vector&lt; boost::shared_ptr&lt; Con &gt; &gt;</text>
<polyline fill="none" stroke="#bfbfbf" points="0,-492.5 192,-492.5 "/>
<text text-anchor="start" x="8" y="-479.5" font-family="Helvetica,sans-Serif" font-size="10.00">&#45; elements</text>
<polyline fill="none" stroke="#bfbfbf" points="0,-473.5 192,-473.5 "/>
<text text-anchor="middle" x="96" y="-460.5" font-family="Helvetica,sans-Serif" font-size="10.00"> </text>
</g>
<!-- Node3&#45;&gt;Node2 -->
<g id="edge4" class="edge"><title>Node3&#45;&gt;Node2</title>
<path fill="none" stroke="#9a32cd" stroke-dasharray="5,2" d="M102.895,-444.25C111.189,-397.636 125.217,-318.799 135.01,-263.764"/>
<polygon fill="#9a32cd" stroke="#9a32cd" points="101.116,-454.249 98.4374,-443.615 101.992,-449.326 102.868,-444.403 102.868,-444.403 102.868,-444.403 101.992,-449.326 107.298,-445.192 101.116,-454.249 101.116,-454.249"/>
<text text-anchor="middle" x="137.5" y="-370.5" font-family="Helvetica,sans-Serif" font-size="10.00">ldata</text>
</g>
<!-- Node4 -->
<g id="node6" class="node"><title>Node4</title>
<a xlink:title="STL class.">
<polygon fill="white" stroke="#bfbfbf" points="120.5,-636.5 120.5,-693.5 207.5,-693.5 207.5,-636.5 120.5,-636.5"/>
<text text-anchor="middle" x="164" y="-680.5" font-family="Helvetica,sans-Serif" font-size="10.00">std::vector&lt; T &gt;</text>
<polyline fill="none" stroke="#bfbfbf" points="120.5,-674.5 207.5,-674.5 "/>
<text text-anchor="start" x="128.5" y="-661.5" font-family="Helvetica,sans-Serif" font-size="10.00">&#45; elements</text>
<polyline fill="none" stroke="#bfbfbf" points="120.5,-655.5 207.5,-655.5 "/>
<text text-anchor="middle" x="164" y="-642.5" font-family="Helvetica,sans-Serif" font-size="10.00"> </text>
</a>
</g>
<!-- Node4&#45;&gt;Node3 -->
<g id="edge6" class="edge"><title>Node4&#45;&gt;Node3</title>
<path fill="none" stroke="orange" stroke-dasharray="5,2" d="M111.191,-643.955C100.727,-637.266 91.1016,-628.73 85,-618 66.3434,-585.192 75.4042,-540.458 84.7607,-511.647"/>
<polygon fill="orange" stroke="orange" points="109.714,-647.145 120.118,-649.147 113.233,-641.094 109.714,-647.145"/>
<text text-anchor="middle" x="150" y="-608.5" font-family="Helvetica,sans-Serif" font-size="10.00">&lt; boost::shared_ptr&lt; Con &gt; &gt;</text>
</g>
<!-- Node7 -->
<g id="node12" class="node"><title>Node7</title>
<polygon fill="white" stroke="#bfbfbf" points="146,-530.5 146,-587.5 326,-587.5 326,-530.5 146,-530.5"/>
<text text-anchor="middle" x="236" y="-574.5" font-family="Helvetica,sans-Serif" font-size="10.00">std::vector&lt; boost::shared_ptr&lt; T &gt; &gt;</text>
<polyline fill="none" stroke="#bfbfbf" points="146,-568.5 326,-568.5 "/>
<text text-anchor="start" x="154" y="-555.5" font-family="Helvetica,sans-Serif" font-size="10.00">&#45; elements</text>
<polyline fill="none" stroke="#bfbfbf" points="146,-549.5 326,-549.5 "/>
<text text-anchor="middle" x="236" y="-536.5" font-family="Helvetica,sans-Serif" font-size="10.00"> </text>
</g>
<!-- Node4&#45;&gt;Node7 -->
<g id="edge14" class="edge"><title>Node4&#45;&gt;Node7</title>
<path fill="none" stroke="orange" stroke-dasharray="5,2" d="M210.511,-629.072C213.638,-625.549 216.523,-621.846 219,-618 224.829,-608.948 228.705,-597.855 231.261,-587.74"/>
<polygon fill="orange" stroke="orange" points="207.779,-626.862 203.342,-636.482 212.81,-631.729 207.779,-626.862"/>
<text text-anchor="middle" x="284" y="-608.5" font-family="Helvetica,sans-Serif" font-size="10.00">&lt; boost::shared_ptr&lt; T &gt; &gt;</text>
</g>
<!-- Node5 -->
<g id="node8" class="node"><title>Node5</title>
<polygon fill="white" stroke="#bfbfbf" points="149.5,-742.5 149.5,-799.5 178.5,-799.5 178.5,-742.5 149.5,-742.5"/>
<text text-anchor="middle" x="164" y="-786.5" font-family="Helvetica,sans-Serif" font-size="10.00">T</text>
<polyline fill="none" stroke="#bfbfbf" points="149.5,-780.5 178.5,-780.5 "/>
<text text-anchor="middle" x="164" y="-767.5" font-family="Helvetica,sans-Serif" font-size="10.00"> </text>
<polyline fill="none" stroke="#bfbfbf" points="149.5,-761.5 178.5,-761.5 "/>
<text text-anchor="middle" x="164" y="-748.5" font-family="Helvetica,sans-Serif" font-size="10.00"> </text>
</g>
<!-- Node5&#45;&gt;Node4 -->
<g id="edge8" class="edge"><title>Node5&#45;&gt;Node4</title>
<path fill="none" stroke="#9a32cd" stroke-dasharray="5,2" d="M164,-732.005C164,-719.326 164,-705.494 164,-693.708"/>
<polygon fill="#9a32cd" stroke="#9a32cd" points="164,-742.315 159.5,-732.315 164,-737.315 164,-732.315 164,-732.315 164,-732.315 164,-737.315 168.5,-732.315 164,-742.315 164,-742.315"/>
<text text-anchor="middle" x="184" y="-714.5" font-family="Helvetica,sans-Serif" font-size="10.00">elements</text>
</g>
<!-- Node6 -->
<g id="node10" class="node"><title>Node6</title>
<a xlink:href="classvec_a_m_o_r_e.html" target="_top" xlink:title="{vecAMORE\&lt; T \&gt;\n|# ldata\l|+ getLdata()\l+ setLdata()\l+ size()\l+ push_back()\l+ append()\l+ show()\l+ validate()\l}">
<polygon fill="white" stroke="black" points="162.5,-312.5 162.5,-435.5 255.5,-435.5 255.5,-312.5 162.5,-312.5"/>
<text text-anchor="middle" x="209" y="-422.5" font-family="Helvetica,sans-Serif" font-size="10.00">vecAMORE&lt; T &gt;</text>
<polyline fill="none" stroke="black" points="162.5,-416.5 255.5,-416.5 "/>
<text text-anchor="start" x="170.5" y="-403.5" font-family="Helvetica,sans-Serif" font-size="10.00"># ldata</text>
<polyline fill="none" stroke="black" points="162.5,-397.5 255.5,-397.5 "/>
<text text-anchor="start" x="170.5" y="-384.5" font-family="Helvetica,sans-Serif" font-size="10.00">+ getLdata()</text>
<text text-anchor="start" x="170.5" y="-373.5" font-family="Helvetica,sans-Serif" font-size="10.00">+ setLdata()</text>
<text text-anchor="start" x="170.5" y="-362.5" font-family="Helvetica,sans-Serif" font-size="10.00">+ size()</text>
<text text-anchor="start" x="170.5" y="-351.5" font-family="Helvetica,sans-Serif" font-size="10.00">+ push_back()</text>
<text text-anchor="start" x="170.5" y="-340.5" font-family="Helvetica,sans-Serif" font-size="10.00">+ append()</text>
<text text-anchor="start" x="170.5" y="-329.5" font-family="Helvetica,sans-Serif" font-size="10.00">+ show()</text>
<text text-anchor="start" x="170.5" y="-318.5" font-family="Helvetica,sans-Serif" font-size="10.00">+ validate()</text>
</a>
</g>
<!-- Node6&#45;&gt;Node2 -->
<g id="edge10" class="edge"><title>Node6&#45;&gt;Node2</title>
<path fill="none" stroke="orange" stroke-dasharray="5,2" d="M182.858,-302.628C178.13,-289.721 173.237,-276.361 168.621,-263.758"/>
<polygon fill="orange" stroke="orange" points="179.708,-304.204 186.433,-312.39 186.281,-301.796 179.708,-304.204"/>
<text text-anchor="middle" x="197" y="-284.5" font-family="Helvetica,sans-Serif" font-size="10.00">&lt; Con &gt;</text>
</g>
<!-- Node7&#45;&gt;Node6 -->
<g id="edge12" class="edge"><title>Node7&#45;&gt;Node6</title>
<path fill="none" stroke="#9a32cd" stroke-dasharray="5,2" d="M230.385,-520.528C226.816,-496.073 222.115,-463.861 218.029,-435.868"/>
<polygon fill="#9a32cd" stroke="#9a32cd" points="231.84,-530.499 225.943,-521.254 231.118,-525.552 230.396,-520.604 230.396,-520.604 230.396,-520.604 231.118,-525.552 234.849,-519.954 231.84,-530.499 231.84,-530.499"/>
<text text-anchor="middle" x="238.5" y="-479.5" font-family="Helvetica,sans-Serif" font-size="10.00">ldata</text>
</g>
</g>
</svg>
