<?xml version="1.0" encoding="UTF-8" standalone="no"?>
<!DOCTYPE svg PUBLIC "-//W3C//DTD SVG 1.1//EN"
 "http://www.w3.org/Graphics/SVG/1.1/DTD/svg11.dtd">
<!-- Generated by graphviz version 2.28.0 (20110610.2051)
 -->
<!-- Title: G Pages: 1 -->
<svg width="606pt" height="66pt"
 viewBox="0.00 0.00 606.00 66.00" xmlns="http://www.w3.org/2000/svg" xmlns:xlink="http://www.w3.org/1999/xlink">
<g id="graph1" class="graph" transform="scale(1 1) rotate(0) translate(4 62)">
<title>G</title>
<polygon fill="white" stroke="white" points="-4,5 -4,-62 603,-62 603,5 -4,5"/>
<!-- Node1 -->
<g id="node1" class="node"><title>Node1</title>
<polygon fill="#bfbfbf" stroke="black" points="0,-19.5 0,-38.5 132,-38.5 132,-19.5 0,-19.5"/>
<text text-anchor="middle" x="66" y="-26.5" font-family="Helvetica,sans-Serif" font-size="10.00">MLPfactory::makeNeuron</text>
</g>
<!-- Node2 -->
<g id="node3" class="node"><title>Node2</title>
<a xlink:href="class_m_l_pfactory.html#aba55f8dff50e23de43170ccbfffa4f89" target="_top" xlink:title="MLPfactory::makePredictBehavior">
<polygon fill="white" stroke="black" points="168.5,-19.5 168.5,-38.5 341.5,-38.5 341.5,-19.5 168.5,-19.5"/>
<text text-anchor="middle" x="255" y="-26.5" font-family="Helvetica,sans-Serif" font-size="10.00">MLPfactory::makePredictBehavior</text>
</a>
</g>
<!-- Node1&#45;&gt;Node2 -->
<g id="edge2" class="edge"><title>Node1&#45;&gt;Node2</title>
<path fill="none" stroke="midnightblue" d="M132.141,-29C140.642,-29 149.488,-29 158.36,-29"/>
<polygon fill="midnightblue" stroke="midnightblue" points="158.371,-32.5001 168.371,-29 158.371,-25.5001 158.371,-32.5001"/>
</g>
<!-- Node3 -->
<g id="node5" class="node"><title>Node3</title>
<a xlink:href="class_m_l_pfactory.html#a69562b8fd06c60a2d5db66d8b0f10299" target="_top" xlink:title="MLPfactory::makeConContainer">
<polygon fill="white" stroke="black" points="407,-38.5 407,-57.5 569,-57.5 569,-38.5 407,-38.5"/>
<text text-anchor="middle" x="488" y="-45.5" font-family="Helvetica,sans-Serif" font-size="10.00">MLPfactory::makeConContainer</text>
</a>
</g>
<!-- Node2&#45;&gt;Node3 -->
<g id="edge4" class="edge"><title>Node2&#45;&gt;Node3</title>
<path fill="none" stroke="midnightblue" d="M341.688,-36.0479C359.671,-37.5271 378.69,-39.0914 396.832,-40.5836"/>
<polygon fill="midnightblue" stroke="midnightblue" points="396.556,-44.0726 406.809,-41.4042 397.129,-37.0961 396.556,-44.0726"/>
</g>
<!-- Node4 -->
<g id="node7" class="node"><title>Node4</title>
<a xlink:href="class_m_l_pfactory.html#a2e0323210a1a086a8a646b060d4db1b3" target="_top" xlink:title="MLPfactory::makeIdentityActivationFunction">
<polygon fill="white" stroke="black" points="378.5,-0.5 378.5,-19.5 597.5,-19.5 597.5,-0.5 378.5,-0.5"/>
<text text-anchor="middle" x="488" y="-7.5" font-family="Helvetica,sans-Serif" font-size="10.00">MLPfactory::makeIdentityActivationFunction</text>
</a>
</g>
<!-- Node2&#45;&gt;Node4 -->
<g id="edge6" class="edge"><title>Node2&#45;&gt;Node4</title>
<path fill="none" stroke="midnightblue" d="M341.688,-21.9521C350.364,-21.2385 359.28,-20.5051 368.224,-19.7695"/>
<polygon fill="midnightblue" stroke="midnightblue" points="368.641,-23.2471 378.32,-18.939 368.067,-16.2706 368.641,-23.2471"/>
</g>
</g>
</svg>
