<?xml version="1.0" encoding="UTF-8" standalone="no"?>
<!DOCTYPE svg PUBLIC "-//W3C//DTD SVG 1.1//EN"
 "http://www.w3.org/Graphics/SVG/1.1/DTD/svg11.dtd">
<!-- Generated by graphviz version 2.28.0 (20110610.2051)
 -->
<!-- Title: G Pages: 1 -->
<svg width="363pt" height="1642pt"
 viewBox="0.00 0.00 363.00 1642.00" xmlns="http://www.w3.org/2000/svg" xmlns:xlink="http://www.w3.org/1999/xlink">
<g id="graph1" class="graph" transform="scale(1 1) rotate(0) translate(4 1638)">
<title>G</title>
<polygon fill="white" stroke="white" points="-4,5 -4,-1638 360,-1638 360,5 -4,5"/>
<!-- Node1 -->
<g id="node1" class="node"><title>Node1</title>
<polygon fill="#bfbfbf" stroke="black" points="81.5,-0.5 81.5,-145.5 206.5,-145.5 206.5,-0.5 81.5,-0.5"/>
<text text-anchor="middle" x="144" y="-133.5" font-family="Helvetica,sans-Serif" font-size="10.00">SimpleNeuron</text>
<polyline fill="none" stroke="black" points="81.5,-126.5 206.5,-126.5 "/>
<text text-anchor="start" x="89.5" y="-114.5" font-family="Helvetica,sans-Serif" font-size="10.00">&#45; d_Id</text>
<polyline fill="none" stroke="black" points="81.5,-107.5 206.5,-107.5 "/>
<text text-anchor="start" x="89.5" y="-95.5" font-family="Helvetica,sans-Serif" font-size="10.00">+ SimpleNeuron()</text>
<text text-anchor="start" x="89.5" y="-84.5" font-family="Helvetica,sans-Serif" font-size="10.00">+ getId()</text>
<text text-anchor="start" x="89.5" y="-73.5" font-family="Helvetica,sans-Serif" font-size="10.00">+ setId()</text>
<text text-anchor="start" x="89.5" y="-62.5" font-family="Helvetica,sans-Serif" font-size="10.00">+ setPredictBehavior()</text>
<text text-anchor="start" x="89.5" y="-51.5" font-family="Helvetica,sans-Serif" font-size="10.00">+ setTrainingBehavior()</text>
<text text-anchor="start" x="89.5" y="-40.5" font-family="Helvetica,sans-Serif" font-size="10.00">+ predict()</text>
<text text-anchor="start" x="89.5" y="-29.5" font-family="Helvetica,sans-Serif" font-size="10.00">+ adjustParameters()</text>
<text text-anchor="start" x="89.5" y="-18.5" font-family="Helvetica,sans-Serif" font-size="10.00">+ show()</text>
<text text-anchor="start" x="89.5" y="-7.5" font-family="Helvetica,sans-Serif" font-size="10.00">+ validate()</text>
</g>
<!-- Node2 -->
<g id="node2" class="node"><title>Node2</title>
<a xlink:href="class_neuron.html" target="_top" xlink:title="class Neuron &#45;">
<polygon fill="white" stroke="black" points="81.5,-184.5 81.5,-505.5 206.5,-505.5 206.5,-184.5 81.5,-184.5"/>
<text text-anchor="middle" x="144" y="-493.5" font-family="Helvetica,sans-Serif" font-size="10.00">Neuron</text>
<polyline fill="none" stroke="black" points="81.5,-486.5 206.5,-486.5 "/>
<text text-anchor="start" x="89.5" y="-474.5" font-family="Helvetica,sans-Serif" font-size="10.00">+ d_predictBehavior</text>
<text text-anchor="start" x="89.5" y="-463.5" font-family="Helvetica,sans-Serif" font-size="10.00">+ d_trainingBehavior</text>
<text text-anchor="start" x="89.5" y="-452.5" font-family="Helvetica,sans-Serif" font-size="10.00">&#45; Id</text>
<text text-anchor="start" x="89.5" y="-441.5" font-family="Helvetica,sans-Serif" font-size="10.00">&#45; con</text>
<text text-anchor="start" x="89.5" y="-430.5" font-family="Helvetica,sans-Serif" font-size="10.00">&#45; outputValue</text>
<polyline fill="none" stroke="black" points="81.5,-423.5 206.5,-423.5 "/>
<text text-anchor="start" x="89.5" y="-411.5" font-family="Helvetica,sans-Serif" font-size="10.00">+ getId()</text>
<text text-anchor="start" x="89.5" y="-400.5" font-family="Helvetica,sans-Serif" font-size="10.00">+ setId()</text>
<text text-anchor="start" x="89.5" y="-389.5" font-family="Helvetica,sans-Serif" font-size="10.00">+ setPredictBehavior()</text>
<text text-anchor="start" x="89.5" y="-378.5" font-family="Helvetica,sans-Serif" font-size="10.00">+ setTrainingBehavior()</text>
<text text-anchor="start" x="89.5" y="-367.5" font-family="Helvetica,sans-Serif" font-size="10.00">+ predict()</text>
<text text-anchor="start" x="89.5" y="-356.5" font-family="Helvetica,sans-Serif" font-size="10.00">+ adjustParameters()</text>
<text text-anchor="start" x="89.5" y="-345.5" font-family="Helvetica,sans-Serif" font-size="10.00">+ show()</text>
<text text-anchor="start" x="89.5" y="-334.5" font-family="Helvetica,sans-Serif" font-size="10.00">+ validate()</text>
<text text-anchor="start" x="89.5" y="-323.5" font-family="Helvetica,sans-Serif" font-size="10.00">+ Neuron()</text>
<text text-anchor="start" x="89.5" y="-312.5" font-family="Helvetica,sans-Serif" font-size="10.00">+ Neuron()</text>
<text text-anchor="start" x="89.5" y="-301.5" font-family="Helvetica,sans-Serif" font-size="10.00">+ Neuron()</text>
<text text-anchor="start" x="89.5" y="-290.5" font-family="Helvetica,sans-Serif" font-size="10.00">+ ~Neuron()</text>
<text text-anchor="start" x="89.5" y="-279.5" font-family="Helvetica,sans-Serif" font-size="10.00">+ getId()</text>
<text text-anchor="start" x="89.5" y="-268.5" font-family="Helvetica,sans-Serif" font-size="10.00">+ setId()</text>
<text text-anchor="start" x="89.5" y="-257.5" font-family="Helvetica,sans-Serif" font-size="10.00">+ getConId()</text>
<text text-anchor="start" x="89.5" y="-246.5" font-family="Helvetica,sans-Serif" font-size="10.00">+ getWeight()</text>
<text text-anchor="start" x="89.5" y="-235.5" font-family="Helvetica,sans-Serif" font-size="10.00">+ setFrom()</text>
<text text-anchor="start" x="89.5" y="-224.5" font-family="Helvetica,sans-Serif" font-size="10.00">+ setWeight()</text>
<text text-anchor="start" x="89.5" y="-213.5" font-family="Helvetica,sans-Serif" font-size="10.00">+ numOfCons()</text>
<text text-anchor="start" x="89.5" y="-202.5" font-family="Helvetica,sans-Serif" font-size="10.00">+ show()</text>
<text text-anchor="start" x="89.5" y="-191.5" font-family="Helvetica,sans-Serif" font-size="10.00">+ validate()</text>
</a>
</g>
<!-- Node2&#45;&gt;Node1 -->
<g id="edge2" class="edge"><title>Node2&#45;&gt;Node1</title>
<path fill="none" stroke="midnightblue" d="M144,-173.981C144,-164.248 144,-154.776 144,-145.787"/>
<polygon fill="none" stroke="midnightblue" points="140.5,-174.209 144,-184.209 147.5,-174.209 140.5,-174.209"/>
</g>
<!-- Node3 -->
<g id="node4" class="node"><title>Node3</title>
<a xlink:href="class_container.html" target="_top" xlink:title="{Container\&lt; Con \&gt;\n|# collection\l|+ ~Container()\l+ createIterator()\l+ push_back()\l+ push_back()\l+ reserve()\l+ reserve()\l+ empty()\l+ empty()\l+ size()\l+ size()\l+ clear()\l+ clear()\l+ show()\l+ show()\l+ validate()\l+ validate()\l+ Container()\l+ Container()\l+ begin()\l+ end()\l+ load()\l+ store()\l+ append()\l+ resize()\l+ operator[]()\l# Container()\l}">
<polygon fill="white" stroke="black" points="95.5,-555 95.5,-887 192.5,-887 192.5,-555 95.5,-555"/>
<text text-anchor="middle" x="144" y="-875" font-family="Helvetica,sans-Serif" font-size="10.00">Container&lt; Con &gt;</text>
<polyline fill="none" stroke="black" points="95.5,-868 192.5,-868 "/>
<text text-anchor="start" x="103.5" y="-856" font-family="Helvetica,sans-Serif" font-size="10.00"># collection</text>
<polyline fill="none" stroke="black" points="95.5,-849 192.5,-849 "/>
<text text-anchor="start" x="103.5" y="-837" font-family="Helvetica,sans-Serif" font-size="10.00">+ ~Container()</text>
<text text-anchor="start" x="103.5" y="-826" font-family="Helvetica,sans-Serif" font-size="10.00">+ createIterator()</text>
<text text-anchor="start" x="103.5" y="-815" font-family="Helvetica,sans-Serif" font-size="10.00">+ push_back()</text>
<text text-anchor="start" x="103.5" y="-804" font-family="Helvetica,sans-Serif" font-size="10.00">+ push_back()</text>
<text text-anchor="start" x="103.5" y="-793" font-family="Helvetica,sans-Serif" font-size="10.00">+ reserve()</text>
<text text-anchor="start" x="103.5" y="-782" font-family="Helvetica,sans-Serif" font-size="10.00">+ reserve()</text>
<text text-anchor="start" x="103.5" y="-771" font-family="Helvetica,sans-Serif" font-size="10.00">+ empty()</text>
<text text-anchor="start" x="103.5" y="-760" font-family="Helvetica,sans-Serif" font-size="10.00">+ empty()</text>
<text text-anchor="start" x="103.5" y="-749" font-family="Helvetica,sans-Serif" font-size="10.00">+ size()</text>
<text text-anchor="start" x="103.5" y="-738" font-family="Helvetica,sans-Serif" font-size="10.00">+ size()</text>
<text text-anchor="start" x="103.5" y="-727" font-family="Helvetica,sans-Serif" font-size="10.00">+ clear()</text>
<text text-anchor="start" x="103.5" y="-716" font-family="Helvetica,sans-Serif" font-size="10.00">+ clear()</text>
<text text-anchor="start" x="103.5" y="-705" font-family="Helvetica,sans-Serif" font-size="10.00">+ show()</text>
<text text-anchor="start" x="103.5" y="-694" font-family="Helvetica,sans-Serif" font-size="10.00">+ show()</text>
<text text-anchor="start" x="103.5" y="-683" font-family="Helvetica,sans-Serif" font-size="10.00">+ validate()</text>
<text text-anchor="start" x="103.5" y="-672" font-family="Helvetica,sans-Serif" font-size="10.00">+ validate()</text>
<text text-anchor="start" x="103.5" y="-661" font-family="Helvetica,sans-Serif" font-size="10.00">+ Container()</text>
<text text-anchor="start" x="103.5" y="-650" font-family="Helvetica,sans-Serif" font-size="10.00">+ Container()</text>
<text text-anchor="start" x="103.5" y="-639" font-family="Helvetica,sans-Serif" font-size="10.00">+ begin()</text>
<text text-anchor="start" x="103.5" y="-628" font-family="Helvetica,sans-Serif" font-size="10.00">+ end()</text>
<text text-anchor="start" x="103.5" y="-617" font-family="Helvetica,sans-Serif" font-size="10.00">+ load()</text>
<text text-anchor="start" x="103.5" y="-606" font-family="Helvetica,sans-Serif" font-size="10.00">+ store()</text>
<text text-anchor="start" x="103.5" y="-595" font-family="Helvetica,sans-Serif" font-size="10.00">+ append()</text>
<text text-anchor="start" x="103.5" y="-584" font-family="Helvetica,sans-Serif" font-size="10.00">+ resize()</text>
<text text-anchor="start" x="103.5" y="-573" font-family="Helvetica,sans-Serif" font-size="10.00">+ operator[]()</text>
<text text-anchor="start" x="103.5" y="-562" font-family="Helvetica,sans-Serif" font-size="10.00"># Container()</text>
</a>
</g>
<!-- Node3&#45;&gt;Node2 -->
<g id="edge4" class="edge"><title>Node3&#45;&gt;Node2</title>
<path fill="none" stroke="#9a32cd" stroke-dasharray="5,2" d="M144,-544.504C144,-531.554 144,-518.53 144,-505.682"/>
<polygon fill="#9a32cd" stroke="#9a32cd" points="144,-554.869 139.5,-544.869 144,-549.869 144,-544.869 144,-544.869 144,-544.869 144,-549.869 148.5,-544.87 144,-554.869 144,-554.869"/>
<text text-anchor="middle" x="152.5" y="-527.5" font-family="Helvetica,sans-Serif" font-size="10.00">con</text>
</g>
<!-- Node4 -->
<g id="node6" class="node"><title>Node4</title>
<polygon fill="white" stroke="#bfbfbf" points="0,-1288.5 0,-1345.5 200,-1345.5 200,-1288.5 0,-1288.5"/>
<text text-anchor="middle" x="100" y="-1333.5" font-family="Helvetica,sans-Serif" font-size="10.00">std::vector&lt; boost::shared_ptr&lt; Con &gt; &gt;</text>
<polyline fill="none" stroke="#bfbfbf" points="0,-1326.5 200,-1326.5 "/>
<text text-anchor="start" x="8" y="-1314.5" font-family="Helvetica,sans-Serif" font-size="10.00">&#45; elements</text>
<polyline fill="none" stroke="#bfbfbf" points="0,-1307.5 200,-1307.5 "/>
<text text-anchor="middle" x="100" y="-1295.5" font-family="Helvetica,sans-Serif" font-size="10.00"> </text>
</g>
<!-- Node4&#45;&gt;Node3 -->
<g id="edge6" class="edge"><title>Node4&#45;&gt;Node3</title>
<path fill="none" stroke="#9a32cd" stroke-dasharray="5,2" d="M101.255,-1278.03C103.683,-1209.58 109.711,-1060.99 120,-936 121.304,-920.165 122.836,-903.689 124.485,-887.222"/>
<polygon fill="#9a32cd" stroke="#9a32cd" points="100.896,-1288.31 96.748,-1278.16 101.071,-1283.31 101.245,-1278.31 101.245,-1278.31 101.245,-1278.31 101.071,-1283.31 105.742,-1278.47 100.896,-1288.31 100.896,-1288.31"/>
<text text-anchor="middle" x="142.5" y="-1100.5" font-family="Helvetica,sans-Serif" font-size="10.00">collection</text>
</g>
<!-- Node5 -->
<g id="node8" class="node"><title>Node5</title>
<a xlink:title="STL class.">
<polygon fill="white" stroke="#bfbfbf" points="125.5,-1470.5 125.5,-1527.5 214.5,-1527.5 214.5,-1470.5 125.5,-1470.5"/>
<text text-anchor="middle" x="170" y="-1515.5" font-family="Helvetica,sans-Serif" font-size="10.00">std::vector&lt; T &gt;</text>
<polyline fill="none" stroke="#bfbfbf" points="125.5,-1508.5 214.5,-1508.5 "/>
<text text-anchor="start" x="133.5" y="-1496.5" font-family="Helvetica,sans-Serif" font-size="10.00">&#45; elements</text>
<polyline fill="none" stroke="#bfbfbf" points="125.5,-1489.5 214.5,-1489.5 "/>
<text text-anchor="middle" x="170" y="-1477.5" font-family="Helvetica,sans-Serif" font-size="10.00"> </text>
</a>
</g>
<!-- Node5&#45;&gt;Node4 -->
<g id="edge8" class="edge"><title>Node5&#45;&gt;Node4</title>
<path fill="none" stroke="orange" stroke-dasharray="5,2" d="M116.558,-1478.25C105.577,-1471.63 95.4196,-1463.03 89,-1452 69.9765,-1419.32 79.4346,-1374.34 88.9452,-1345.71"/>
<polygon fill="orange" stroke="orange" points="115.035,-1481.41 125.486,-1483.14 118.4,-1475.27 115.035,-1481.41"/>
<text text-anchor="middle" x="156" y="-1443.5" font-family="Helvetica,sans-Serif" font-size="10.00">&lt; boost::shared_ptr&lt; Con &gt; &gt;</text>
</g>
<!-- Node8 -->
<g id="node14" class="node"><title>Node8</title>
<polygon fill="white" stroke="#bfbfbf" points="150,-1364.5 150,-1421.5 338,-1421.5 338,-1364.5 150,-1364.5"/>
<text text-anchor="middle" x="244" y="-1409.5" font-family="Helvetica,sans-Serif" font-size="10.00">std::vector&lt; boost::shared_ptr&lt; T &gt; &gt;</text>
<polyline fill="none" stroke="#bfbfbf" points="150,-1402.5 338,-1402.5 "/>
<text text-anchor="start" x="158" y="-1390.5" font-family="Helvetica,sans-Serif" font-size="10.00">&#45; elements</text>
<polyline fill="none" stroke="#bfbfbf" points="150,-1383.5 338,-1383.5 "/>
<text text-anchor="middle" x="244" y="-1371.5" font-family="Helvetica,sans-Serif" font-size="10.00"> </text>
</g>
<!-- Node5&#45;&gt;Node8 -->
<g id="edge16" class="edge"><title>Node5&#45;&gt;Node8</title>
<path fill="none" stroke="orange" stroke-dasharray="5,2" d="M217.929,-1463.31C221.274,-1459.74 224.36,-1455.96 227,-1452 232.999,-1443.01 236.923,-1431.87 239.47,-1421.75"/>
<polygon fill="orange" stroke="orange" points="215.446,-1460.85 210.76,-1470.35 220.349,-1465.84 215.446,-1460.85"/>
<text text-anchor="middle" x="294.5" y="-1443.5" font-family="Helvetica,sans-Serif" font-size="10.00">&lt; boost::shared_ptr&lt; T &gt; &gt;</text>
</g>
<!-- Node6 -->
<g id="node10" class="node"><title>Node6</title>
<polygon fill="white" stroke="#bfbfbf" points="155.5,-1576.5 155.5,-1633.5 184.5,-1633.5 184.5,-1576.5 155.5,-1576.5"/>
<text text-anchor="middle" x="170" y="-1621.5" font-family="Helvetica,sans-Serif" font-size="10.00">T</text>
<polyline fill="none" stroke="#bfbfbf" points="155.5,-1614.5 184.5,-1614.5 "/>
<text text-anchor="middle" x="170" y="-1602.5" font-family="Helvetica,sans-Serif" font-size="10.00"> </text>
<polyline fill="none" stroke="#bfbfbf" points="155.5,-1595.5 184.5,-1595.5 "/>
<text text-anchor="middle" x="170" y="-1583.5" font-family="Helvetica,sans-Serif" font-size="10.00"> </text>
</g>
<!-- Node6&#45;&gt;Node5 -->
<g id="edge10" class="edge"><title>Node6&#45;&gt;Node5</title>
<path fill="none" stroke="#9a32cd" stroke-dasharray="5,2" d="M170,-1566.1C170,-1553.4 170,-1539.49 170,-1527.73"/>
<polygon fill="#9a32cd" stroke="#9a32cd" points="170,-1576.4 165.5,-1566.4 170,-1571.4 170,-1566.4 170,-1566.4 170,-1566.4 170,-1571.4 174.5,-1566.4 170,-1576.4 170,-1576.4"/>
<text text-anchor="middle" x="191.5" y="-1549.5" font-family="Helvetica,sans-Serif" font-size="10.00">elements</text>
</g>
<!-- Node7 -->
<g id="node12" class="node"><title>Node7</title>
<a xlink:href="class_container.html" target="_top" xlink:title="class Container &#45;">
<polygon fill="white" stroke="black" points="174.5,-937 174.5,-1269 271.5,-1269 271.5,-937 174.5,-937"/>
<text text-anchor="middle" x="223" y="-1257" font-family="Helvetica,sans-Serif" font-size="10.00">Container&lt; T &gt;</text>
<polyline fill="none" stroke="black" points="174.5,-1250 271.5,-1250 "/>
<text text-anchor="start" x="182.5" y="-1238" font-family="Helvetica,sans-Serif" font-size="10.00"># collection</text>
<polyline fill="none" stroke="black" points="174.5,-1231 271.5,-1231 "/>
<text text-anchor="start" x="182.5" y="-1219" font-family="Helvetica,sans-Serif" font-size="10.00">+ ~Container()</text>
<text text-anchor="start" x="182.5" y="-1208" font-family="Helvetica,sans-Serif" font-size="10.00">+ createIterator()</text>
<text text-anchor="start" x="182.5" y="-1197" font-family="Helvetica,sans-Serif" font-size="10.00">+ push_back()</text>
<text text-anchor="start" x="182.5" y="-1186" font-family="Helvetica,sans-Serif" font-size="10.00">+ reserve()</text>
<text text-anchor="start" x="182.5" y="-1175" font-family="Helvetica,sans-Serif" font-size="10.00">+ empty()</text>
<text text-anchor="start" x="182.5" y="-1164" font-family="Helvetica,sans-Serif" font-size="10.00">+ size()</text>
<text text-anchor="start" x="182.5" y="-1153" font-family="Helvetica,sans-Serif" font-size="10.00">+ clear()</text>
<text text-anchor="start" x="182.5" y="-1142" font-family="Helvetica,sans-Serif" font-size="10.00">+ show()</text>
<text text-anchor="start" x="182.5" y="-1131" font-family="Helvetica,sans-Serif" font-size="10.00">+ validate()</text>
<text text-anchor="start" x="182.5" y="-1120" font-family="Helvetica,sans-Serif" font-size="10.00">+ Container()</text>
<text text-anchor="start" x="182.5" y="-1109" font-family="Helvetica,sans-Serif" font-size="10.00">+ Container()</text>
<text text-anchor="start" x="182.5" y="-1098" font-family="Helvetica,sans-Serif" font-size="10.00">+ begin()</text>
<text text-anchor="start" x="182.5" y="-1087" font-family="Helvetica,sans-Serif" font-size="10.00">+ end()</text>
<text text-anchor="start" x="182.5" y="-1076" font-family="Helvetica,sans-Serif" font-size="10.00">+ load()</text>
<text text-anchor="start" x="182.5" y="-1065" font-family="Helvetica,sans-Serif" font-size="10.00">+ store()</text>
<text text-anchor="start" x="182.5" y="-1054" font-family="Helvetica,sans-Serif" font-size="10.00">+ size()</text>
<text text-anchor="start" x="182.5" y="-1043" font-family="Helvetica,sans-Serif" font-size="10.00">+ push_back()</text>
<text text-anchor="start" x="182.5" y="-1032" font-family="Helvetica,sans-Serif" font-size="10.00">+ append()</text>
<text text-anchor="start" x="182.5" y="-1021" font-family="Helvetica,sans-Serif" font-size="10.00">+ show()</text>
<text text-anchor="start" x="182.5" y="-1010" font-family="Helvetica,sans-Serif" font-size="10.00">+ validate()</text>
<text text-anchor="start" x="182.5" y="-999" font-family="Helvetica,sans-Serif" font-size="10.00">+ reserve()</text>
<text text-anchor="start" x="182.5" y="-988" font-family="Helvetica,sans-Serif" font-size="10.00">+ resize()</text>
<text text-anchor="start" x="182.5" y="-977" font-family="Helvetica,sans-Serif" font-size="10.00">+ empty()</text>
<text text-anchor="start" x="182.5" y="-966" font-family="Helvetica,sans-Serif" font-size="10.00">+ clear()</text>
<text text-anchor="start" x="182.5" y="-955" font-family="Helvetica,sans-Serif" font-size="10.00">+ operator[]()</text>
<text text-anchor="start" x="182.5" y="-944" font-family="Helvetica,sans-Serif" font-size="10.00"># Container()</text>
</a>
</g>
<!-- Node7&#45;&gt;Node3 -->
<g id="edge12" class="edge"><title>Node7&#45;&gt;Node3</title>
<path fill="none" stroke="orange" stroke-dasharray="5,2" d="M186.595,-926.887C183.844,-913.653 181.072,-900.322 178.334,-887.153"/>
<polygon fill="orange" stroke="orange" points="183.232,-927.906 188.694,-936.984 190.085,-926.481 183.232,-927.906"/>
<text text-anchor="middle" x="202" y="-909.5" font-family="Helvetica,sans-Serif" font-size="10.00">&lt; Con &gt;</text>
</g>
<!-- Node8&#45;&gt;Node7 -->
<g id="edge14" class="edge"><title>Node8&#45;&gt;Node7</title>
<path fill="none" stroke="#9a32cd" stroke-dasharray="5,2" d="M241.247,-1354.24C239.594,-1331.58 237.365,-1301 235.032,-1269.02"/>
<polygon fill="#9a32cd" stroke="#9a32cd" points="241.986,-1364.39 236.771,-1354.74 241.623,-1359.4 241.259,-1354.41 241.259,-1354.41 241.259,-1354.41 241.623,-1359.4 245.747,-1354.08 241.986,-1364.39 241.986,-1364.39"/>
<text text-anchor="middle" x="263.5" y="-1314.5" font-family="Helvetica,sans-Serif" font-size="10.00">collection</text>
</g>
</g>
</svg>
