<?xml version="1.0" encoding="UTF-8" standalone="no"?>
<!DOCTYPE svg PUBLIC "-//W3C//DTD SVG 1.1//EN"
 "http://www.w3.org/Graphics/SVG/1.1/DTD/svg11.dtd">
<!-- Generated by graphviz version 2.28.0 (20110610.2051)
 -->
<!-- Title: G Pages: 1 -->
<svg width="363pt" height="1392pt"
 viewBox="0.00 0.00 363.00 1392.00" xmlns="http://www.w3.org/2000/svg" xmlns:xlink="http://www.w3.org/1999/xlink">
<g id="graph1" class="graph" transform="scale(1 1) rotate(0) translate(4 1388)">
<title>G</title>
<polygon fill="white" stroke="white" points="-4,5 -4,-1388 360,-1388 360,5 -4,5"/>
<!-- Node1 -->
<g id="node1" class="node"><title>Node1</title>
<polygon fill="#bfbfbf" stroke="black" points="100,-0.5 100,-255.5 188,-255.5 188,-0.5 100,-0.5"/>
<text text-anchor="middle" x="144" y="-243.5" font-family="Helvetica,sans-Serif" font-size="10.00">Neuron</text>
<polyline fill="none" stroke="black" points="100,-236.5 188,-236.5 "/>
<text text-anchor="start" x="108" y="-224.5" font-family="Helvetica,sans-Serif" font-size="10.00">&#45; Id</text>
<text text-anchor="start" x="108" y="-213.5" font-family="Helvetica,sans-Serif" font-size="10.00">&#45; con</text>
<text text-anchor="start" x="108" y="-202.5" font-family="Helvetica,sans-Serif" font-size="10.00">&#45; outputValue</text>
<polyline fill="none" stroke="black" points="100,-195.5 188,-195.5 "/>
<text text-anchor="start" x="108" y="-183.5" font-family="Helvetica,sans-Serif" font-size="10.00">+ getId()</text>
<text text-anchor="start" x="108" y="-172.5" font-family="Helvetica,sans-Serif" font-size="10.00">+ setId()</text>
<text text-anchor="start" x="108" y="-161.5" font-family="Helvetica,sans-Serif" font-size="10.00">+ show()</text>
<text text-anchor="start" x="108" y="-150.5" font-family="Helvetica,sans-Serif" font-size="10.00">+ validate()</text>
<text text-anchor="start" x="108" y="-139.5" font-family="Helvetica,sans-Serif" font-size="10.00">+ Neuron()</text>
<text text-anchor="start" x="108" y="-128.5" font-family="Helvetica,sans-Serif" font-size="10.00">+ Neuron()</text>
<text text-anchor="start" x="108" y="-117.5" font-family="Helvetica,sans-Serif" font-size="10.00">+ Neuron()</text>
<text text-anchor="start" x="108" y="-106.5" font-family="Helvetica,sans-Serif" font-size="10.00">+ ~Neuron()</text>
<text text-anchor="start" x="108" y="-95.5" font-family="Helvetica,sans-Serif" font-size="10.00">+ getId()</text>
<text text-anchor="start" x="108" y="-84.5" font-family="Helvetica,sans-Serif" font-size="10.00">+ setId()</text>
<text text-anchor="start" x="108" y="-73.5" font-family="Helvetica,sans-Serif" font-size="10.00">+ getConId()</text>
<text text-anchor="start" x="108" y="-62.5" font-family="Helvetica,sans-Serif" font-size="10.00">+ getWeight()</text>
<text text-anchor="start" x="108" y="-51.5" font-family="Helvetica,sans-Serif" font-size="10.00">+ setFrom()</text>
<text text-anchor="start" x="108" y="-40.5" font-family="Helvetica,sans-Serif" font-size="10.00">+ setWeight()</text>
<text text-anchor="start" x="108" y="-29.5" font-family="Helvetica,sans-Serif" font-size="10.00">+ numOfCons()</text>
<text text-anchor="start" x="108" y="-18.5" font-family="Helvetica,sans-Serif" font-size="10.00">+ show()</text>
<text text-anchor="start" x="108" y="-7.5" font-family="Helvetica,sans-Serif" font-size="10.00">+ validate()</text>
</g>
<!-- Node2 -->
<g id="node2" class="node"><title>Node2</title>
<a xlink:href="class_container.html" target="_top" xlink:title="{Container\&lt; Con \&gt;\n|# collection\l|+ ~Container()\l+ createIterator()\l+ push_back()\l+ push_back()\l+ reserve()\l+ reserve()\l+ empty()\l+ empty()\l+ size()\l+ size()\l+ clear()\l+ clear()\l+ show()\l+ show()\l+ validate()\l+ validate()\l+ Container()\l+ Container()\l+ begin()\l+ end()\l+ load()\l+ store()\l+ append()\l+ resize()\l+ operator[]()\l# Container()\l}">
<polygon fill="white" stroke="black" points="95.5,-305 95.5,-637 192.5,-637 192.5,-305 95.5,-305"/>
<text text-anchor="middle" x="144" y="-625" font-family="Helvetica,sans-Serif" font-size="10.00">Container&lt; Con &gt;</text>
<polyline fill="none" stroke="black" points="95.5,-618 192.5,-618 "/>
<text text-anchor="start" x="103.5" y="-606" font-family="Helvetica,sans-Serif" font-size="10.00"># collection</text>
<polyline fill="none" stroke="black" points="95.5,-599 192.5,-599 "/>
<text text-anchor="start" x="103.5" y="-587" font-family="Helvetica,sans-Serif" font-size="10.00">+ ~Container()</text>
<text text-anchor="start" x="103.5" y="-576" font-family="Helvetica,sans-Serif" font-size="10.00">+ createIterator()</text>
<text text-anchor="start" x="103.5" y="-565" font-family="Helvetica,sans-Serif" font-size="10.00">+ push_back()</text>
<text text-anchor="start" x="103.5" y="-554" font-family="Helvetica,sans-Serif" font-size="10.00">+ push_back()</text>
<text text-anchor="start" x="103.5" y="-543" font-family="Helvetica,sans-Serif" font-size="10.00">+ reserve()</text>
<text text-anchor="start" x="103.5" y="-532" font-family="Helvetica,sans-Serif" font-size="10.00">+ reserve()</text>
<text text-anchor="start" x="103.5" y="-521" font-family="Helvetica,sans-Serif" font-size="10.00">+ empty()</text>
<text text-anchor="start" x="103.5" y="-510" font-family="Helvetica,sans-Serif" font-size="10.00">+ empty()</text>
<text text-anchor="start" x="103.5" y="-499" font-family="Helvetica,sans-Serif" font-size="10.00">+ size()</text>
<text text-anchor="start" x="103.5" y="-488" font-family="Helvetica,sans-Serif" font-size="10.00">+ size()</text>
<text text-anchor="start" x="103.5" y="-477" font-family="Helvetica,sans-Serif" font-size="10.00">+ clear()</text>
<text text-anchor="start" x="103.5" y="-466" font-family="Helvetica,sans-Serif" font-size="10.00">+ clear()</text>
<text text-anchor="start" x="103.5" y="-455" font-family="Helvetica,sans-Serif" font-size="10.00">+ show()</text>
<text text-anchor="start" x="103.5" y="-444" font-family="Helvetica,sans-Serif" font-size="10.00">+ show()</text>
<text text-anchor="start" x="103.5" y="-433" font-family="Helvetica,sans-Serif" font-size="10.00">+ validate()</text>
<text text-anchor="start" x="103.5" y="-422" font-family="Helvetica,sans-Serif" font-size="10.00">+ validate()</text>
<text text-anchor="start" x="103.5" y="-411" font-family="Helvetica,sans-Serif" font-size="10.00">+ Container()</text>
<text text-anchor="start" x="103.5" y="-400" font-family="Helvetica,sans-Serif" font-size="10.00">+ Container()</text>
<text text-anchor="start" x="103.5" y="-389" font-family="Helvetica,sans-Serif" font-size="10.00">+ begin()</text>
<text text-anchor="start" x="103.5" y="-378" font-family="Helvetica,sans-Serif" font-size="10.00">+ end()</text>
<text text-anchor="start" x="103.5" y="-367" font-family="Helvetica,sans-Serif" font-size="10.00">+ load()</text>
<text text-anchor="start" x="103.5" y="-356" font-family="Helvetica,sans-Serif" font-size="10.00">+ store()</text>
<text text-anchor="start" x="103.5" y="-345" font-family="Helvetica,sans-Serif" font-size="10.00">+ append()</text>
<text text-anchor="start" x="103.5" y="-334" font-family="Helvetica,sans-Serif" font-size="10.00">+ resize()</text>
<text text-anchor="start" x="103.5" y="-323" font-family="Helvetica,sans-Serif" font-size="10.00">+ operator[]()</text>
<text text-anchor="start" x="103.5" y="-312" font-family="Helvetica,sans-Serif" font-size="10.00"># Container()</text>
</a>
</g>
<!-- Node2&#45;&gt;Node1 -->
<g id="edge2" class="edge"><title>Node2&#45;&gt;Node1</title>
<path fill="none" stroke="#9a32cd" stroke-dasharray="5,2" d="M144,-294.942C144,-281.799 144,-268.693 144,-255.935"/>
<polygon fill="#9a32cd" stroke="#9a32cd" points="144,-304.994 139.5,-294.994 144,-299.994 144,-294.994 144,-294.994 144,-294.994 144,-299.994 148.5,-294.994 144,-304.994 144,-304.994"/>
<text text-anchor="middle" x="152.5" y="-277.5" font-family="Helvetica,sans-Serif" font-size="10.00">con</text>
</g>
<!-- Node3 -->
<g id="node4" class="node"><title>Node3</title>
<polygon fill="white" stroke="#bfbfbf" points="0,-1038.5 0,-1095.5 200,-1095.5 200,-1038.5 0,-1038.5"/>
<text text-anchor="middle" x="100" y="-1083.5" font-family="Helvetica,sans-Serif" font-size="10.00">std::vector&lt; boost::shared_ptr&lt; Con &gt; &gt;</text>
<polyline fill="none" stroke="#bfbfbf" points="0,-1076.5 200,-1076.5 "/>
<text text-anchor="start" x="8" y="-1064.5" font-family="Helvetica,sans-Serif" font-size="10.00">&#45; elements</text>
<polyline fill="none" stroke="#bfbfbf" points="0,-1057.5 200,-1057.5 "/>
<text text-anchor="middle" x="100" y="-1045.5" font-family="Helvetica,sans-Serif" font-size="10.00"> </text>
</g>
<!-- Node3&#45;&gt;Node2 -->
<g id="edge4" class="edge"><title>Node3&#45;&gt;Node2</title>
<path fill="none" stroke="#9a32cd" stroke-dasharray="5,2" d="M101.255,-1028.03C103.683,-959.579 109.711,-810.995 120,-686 121.304,-670.165 122.836,-653.689 124.485,-637.222"/>
<polygon fill="#9a32cd" stroke="#9a32cd" points="100.896,-1038.31 96.748,-1028.16 101.071,-1033.31 101.245,-1028.31 101.245,-1028.31 101.245,-1028.31 101.071,-1033.31 105.742,-1028.47 100.896,-1038.31 100.896,-1038.31"/>
<text text-anchor="middle" x="142.5" y="-850.5" font-family="Helvetica,sans-Serif" font-size="10.00">collection</text>
</g>
<!-- Node4 -->
<g id="node6" class="node"><title>Node4</title>
<a xlink:title="STL class.">
<polygon fill="white" stroke="#bfbfbf" points="125.5,-1220.5 125.5,-1277.5 214.5,-1277.5 214.5,-1220.5 125.5,-1220.5"/>
<text text-anchor="middle" x="170" y="-1265.5" font-family="Helvetica,sans-Serif" font-size="10.00">std::vector&lt; T &gt;</text>
<polyline fill="none" stroke="#bfbfbf" points="125.5,-1258.5 214.5,-1258.5 "/>
<text text-anchor="start" x="133.5" y="-1246.5" font-family="Helvetica,sans-Serif" font-size="10.00">&#45; elements</text>
<polyline fill="none" stroke="#bfbfbf" points="125.5,-1239.5 214.5,-1239.5 "/>
<text text-anchor="middle" x="170" y="-1227.5" font-family="Helvetica,sans-Serif" font-size="10.00"> </text>
</a>
</g>
<!-- Node4&#45;&gt;Node3 -->
<g id="edge6" class="edge"><title>Node4&#45;&gt;Node3</title>
<path fill="none" stroke="orange" stroke-dasharray="5,2" d="M116.558,-1228.25C105.577,-1221.63 95.4196,-1213.03 89,-1202 69.9765,-1169.32 79.4346,-1124.34 88.9452,-1095.71"/>
<polygon fill="orange" stroke="orange" points="115.035,-1231.41 125.486,-1233.14 118.4,-1225.27 115.035,-1231.41"/>
<text text-anchor="middle" x="156" y="-1193.5" font-family="Helvetica,sans-Serif" font-size="10.00">&lt; boost::shared_ptr&lt; Con &gt; &gt;</text>
</g>
<!-- Node7 -->
<g id="node12" class="node"><title>Node7</title>
<polygon fill="white" stroke="#bfbfbf" points="150,-1114.5 150,-1171.5 338,-1171.5 338,-1114.5 150,-1114.5"/>
<text text-anchor="middle" x="244" y="-1159.5" font-family="Helvetica,sans-Serif" font-size="10.00">std::vector&lt; boost::shared_ptr&lt; T &gt; &gt;</text>
<polyline fill="none" stroke="#bfbfbf" points="150,-1152.5 338,-1152.5 "/>
<text text-anchor="start" x="158" y="-1140.5" font-family="Helvetica,sans-Serif" font-size="10.00">&#45; elements</text>
<polyline fill="none" stroke="#bfbfbf" points="150,-1133.5 338,-1133.5 "/>
<text text-anchor="middle" x="244" y="-1121.5" font-family="Helvetica,sans-Serif" font-size="10.00"> </text>
</g>
<!-- Node4&#45;&gt;Node7 -->
<g id="edge14" class="edge"><title>Node4&#45;&gt;Node7</title>
<path fill="none" stroke="orange" stroke-dasharray="5,2" d="M217.929,-1213.31C221.274,-1209.74 224.36,-1205.96 227,-1202 232.999,-1193.01 236.923,-1181.87 239.47,-1171.75"/>
<polygon fill="orange" stroke="orange" points="215.446,-1210.85 210.76,-1220.35 220.349,-1215.84 215.446,-1210.85"/>
<text text-anchor="middle" x="294.5" y="-1193.5" font-family="Helvetica,sans-Serif" font-size="10.00">&lt; boost::shared_ptr&lt; T &gt; &gt;</text>
</g>
<!-- Node5 -->
<g id="node8" class="node"><title>Node5</title>
<polygon fill="white" stroke="#bfbfbf" points="155.5,-1326.5 155.5,-1383.5 184.5,-1383.5 184.5,-1326.5 155.5,-1326.5"/>
<text text-anchor="middle" x="170" y="-1371.5" font-family="Helvetica,sans-Serif" font-size="10.00">T</text>
<polyline fill="none" stroke="#bfbfbf" points="155.5,-1364.5 184.5,-1364.5 "/>
<text text-anchor="middle" x="170" y="-1352.5" font-family="Helvetica,sans-Serif" font-size="10.00"> </text>
<polyline fill="none" stroke="#bfbfbf" points="155.5,-1345.5 184.5,-1345.5 "/>
<text text-anchor="middle" x="170" y="-1333.5" font-family="Helvetica,sans-Serif" font-size="10.00"> </text>
</g>
<!-- Node5&#45;&gt;Node4 -->
<g id="edge8" class="edge"><title>Node5&#45;&gt;Node4</title>
<path fill="none" stroke="#9a32cd" stroke-dasharray="5,2" d="M170,-1316.1C170,-1303.4 170,-1289.49 170,-1277.73"/>
<polygon fill="#9a32cd" stroke="#9a32cd" points="170,-1326.4 165.5,-1316.4 170,-1321.4 170,-1316.4 170,-1316.4 170,-1316.4 170,-1321.4 174.5,-1316.4 170,-1326.4 170,-1326.4"/>
<text text-anchor="middle" x="191.5" y="-1299.5" font-family="Helvetica,sans-Serif" font-size="10.00">elements</text>
</g>
<!-- Node6 -->
<g id="node10" class="node"><title>Node6</title>
<a xlink:href="class_container.html" target="_top" xlink:title="class Container &#45;">
<polygon fill="white" stroke="black" points="174.5,-687 174.5,-1019 271.5,-1019 271.5,-687 174.5,-687"/>
<text text-anchor="middle" x="223" y="-1007" font-family="Helvetica,sans-Serif" font-size="10.00">Container&lt; T &gt;</text>
<polyline fill="none" stroke="black" points="174.5,-1000 271.5,-1000 "/>
<text text-anchor="start" x="182.5" y="-988" font-family="Helvetica,sans-Serif" font-size="10.00"># collection</text>
<polyline fill="none" stroke="black" points="174.5,-981 271.5,-981 "/>
<text text-anchor="start" x="182.5" y="-969" font-family="Helvetica,sans-Serif" font-size="10.00">+ ~Container()</text>
<text text-anchor="start" x="182.5" y="-958" font-family="Helvetica,sans-Serif" font-size="10.00">+ createIterator()</text>
<text text-anchor="start" x="182.5" y="-947" font-family="Helvetica,sans-Serif" font-size="10.00">+ push_back()</text>
<text text-anchor="start" x="182.5" y="-936" font-family="Helvetica,sans-Serif" font-size="10.00">+ reserve()</text>
<text text-anchor="start" x="182.5" y="-925" font-family="Helvetica,sans-Serif" font-size="10.00">+ empty()</text>
<text text-anchor="start" x="182.5" y="-914" font-family="Helvetica,sans-Serif" font-size="10.00">+ size()</text>
<text text-anchor="start" x="182.5" y="-903" font-family="Helvetica,sans-Serif" font-size="10.00">+ clear()</text>
<text text-anchor="start" x="182.5" y="-892" font-family="Helvetica,sans-Serif" font-size="10.00">+ show()</text>
<text text-anchor="start" x="182.5" y="-881" font-family="Helvetica,sans-Serif" font-size="10.00">+ validate()</text>
<text text-anchor="start" x="182.5" y="-870" font-family="Helvetica,sans-Serif" font-size="10.00">+ Container()</text>
<text text-anchor="start" x="182.5" y="-859" font-family="Helvetica,sans-Serif" font-size="10.00">+ Container()</text>
<text text-anchor="start" x="182.5" y="-848" font-family="Helvetica,sans-Serif" font-size="10.00">+ begin()</text>
<text text-anchor="start" x="182.5" y="-837" font-family="Helvetica,sans-Serif" font-size="10.00">+ end()</text>
<text text-anchor="start" x="182.5" y="-826" font-family="Helvetica,sans-Serif" font-size="10.00">+ load()</text>
<text text-anchor="start" x="182.5" y="-815" font-family="Helvetica,sans-Serif" font-size="10.00">+ store()</text>
<text text-anchor="start" x="182.5" y="-804" font-family="Helvetica,sans-Serif" font-size="10.00">+ size()</text>
<text text-anchor="start" x="182.5" y="-793" font-family="Helvetica,sans-Serif" font-size="10.00">+ push_back()</text>
<text text-anchor="start" x="182.5" y="-782" font-family="Helvetica,sans-Serif" font-size="10.00">+ append()</text>
<text text-anchor="start" x="182.5" y="-771" font-family="Helvetica,sans-Serif" font-size="10.00">+ show()</text>
<text text-anchor="start" x="182.5" y="-760" font-family="Helvetica,sans-Serif" font-size="10.00">+ validate()</text>
<text text-anchor="start" x="182.5" y="-749" font-family="Helvetica,sans-Serif" font-size="10.00">+ reserve()</text>
<text text-anchor="start" x="182.5" y="-738" font-family="Helvetica,sans-Serif" font-size="10.00">+ resize()</text>
<text text-anchor="start" x="182.5" y="-727" font-family="Helvetica,sans-Serif" font-size="10.00">+ empty()</text>
<text text-anchor="start" x="182.5" y="-716" font-family="Helvetica,sans-Serif" font-size="10.00">+ clear()</text>
<text text-anchor="start" x="182.5" y="-705" font-family="Helvetica,sans-Serif" font-size="10.00">+ operator[]()</text>
<text text-anchor="start" x="182.5" y="-694" font-family="Helvetica,sans-Serif" font-size="10.00"># Container()</text>
</a>
</g>
<!-- Node6&#45;&gt;Node2 -->
<g id="edge10" class="edge"><title>Node6&#45;&gt;Node2</title>
<path fill="none" stroke="orange" stroke-dasharray="5,2" d="M186.595,-676.887C183.844,-663.653 181.072,-650.322 178.334,-637.153"/>
<polygon fill="orange" stroke="orange" points="183.232,-677.906 188.694,-686.984 190.085,-676.481 183.232,-677.906"/>
<text text-anchor="middle" x="202" y="-659.5" font-family="Helvetica,sans-Serif" font-size="10.00">&lt; Con &gt;</text>
</g>
<!-- Node7&#45;&gt;Node6 -->
<g id="edge12" class="edge"><title>Node7&#45;&gt;Node6</title>
<path fill="none" stroke="#9a32cd" stroke-dasharray="5,2" d="M241.247,-1104.24C239.594,-1081.58 237.365,-1051 235.032,-1019.02"/>
<polygon fill="#9a32cd" stroke="#9a32cd" points="241.986,-1114.39 236.771,-1104.74 241.623,-1109.4 241.259,-1104.41 241.259,-1104.41 241.259,-1104.41 241.623,-1109.4 245.747,-1104.08 241.986,-1114.39 241.986,-1114.39"/>
<text text-anchor="middle" x="263.5" y="-1064.5" font-family="Helvetica,sans-Serif" font-size="10.00">collection</text>
</g>
</g>
</svg>
