<?xml version="1.0" encoding="UTF-8" standalone="no"?>
<!DOCTYPE svg PUBLIC "-//W3C//DTD SVG 1.1//EN"
 "http://www.w3.org/Graphics/SVG/1.1/DTD/svg11.dtd">
<!-- Generated by graphviz version 2.25.20091207.0545 (20091207.0545)
 -->
<!-- Title: G Pages: 1 -->
<svg width="216pt" height="450pt"
 viewBox="0.00 0.00 216.00 450.00" xmlns="http://www.w3.org/2000/svg" xmlns:xlink="http://www.w3.org/1999/xlink">
<g id="graph1" class="graph" transform="scale(1 1) rotate(0) translate(4 446)">
<title>G</title>
<polygon fill="white" stroke="white" points="-4,5 -4,-446 213,-446 213,5 -4,5"/>
<!-- Node1 -->
<g id="node1" class="node"><title>Node1</title>
<polygon fill="#bfbfbf" stroke="black" points="43.5,-0.5 43.5,-123.5 136.5,-123.5 136.5,-0.5 43.5,-0.5"/>
<text text-anchor="middle" x="90" y="-110.5" font-family="Helvetica,sans-Serif" font-size="10.00">vecAMORE&lt; T &gt;</text>
<polyline fill="none" stroke="black" points="43.5,-104.5 136.5,-104.5 "/>
<text text-anchor="start" x="51.5" y="-91.5" font-family="Helvetica,sans-Serif" font-size="10.00"># ldata</text>
<polyline fill="none" stroke="black" points="43.5,-85.5 136.5,-85.5 "/>
<text text-anchor="start" x="51.5" y="-72.5" font-family="Helvetica,sans-Serif" font-size="10.00">+ getLdata()</text>
<text text-anchor="start" x="51.5" y="-61.5" font-family="Helvetica,sans-Serif" font-size="10.00">+ setLdata()</text>
<text text-anchor="start" x="51.5" y="-50.5" font-family="Helvetica,sans-Serif" font-size="10.00">+ size()</text>
<text text-anchor="start" x="51.5" y="-39.5" font-family="Helvetica,sans-Serif" font-size="10.00">+ push_back()</text>
<text text-anchor="start" x="51.5" y="-28.5" font-family="Helvetica,sans-Serif" font-size="10.00">+ append()</text>
<text text-anchor="start" x="51.5" y="-17.5" font-family="Helvetica,sans-Serif" font-size="10.00">+ show()</text>
<text text-anchor="start" x="51.5" y="-6.5" font-family="Helvetica,sans-Serif" font-size="10.00">+ validate()</text>
</g>
<!-- Node2 -->
<g id="node2" class="node"><title>Node2</title>
<polygon fill="white" stroke="#bfbfbf" points="0,-172.5 0,-229.5 180,-229.5 180,-172.5 0,-172.5"/>
<text text-anchor="middle" x="90" y="-216.5" font-family="Helvetica,sans-Serif" font-size="10.00">std::vector&lt; boost::shared_ptr&lt; T &gt; &gt;</text>
<polyline fill="none" stroke="#bfbfbf" points="0,-210.5 180,-210.5 "/>
<text text-anchor="start" x="8" y="-197.5" font-family="Helvetica,sans-Serif" font-size="10.00">&#45; elements</text>
<polyline fill="none" stroke="#bfbfbf" points="0,-191.5 180,-191.5 "/>
<text text-anchor="middle" x="90" y="-178.5" font-family="Helvetica,sans-Serif" font-size="10.00"> </text>
</g>
<!-- Node2&#45;&gt;Node1 -->
<g id="edge2" class="edge"><title>Node2&#45;&gt;Node1</title>
<path fill="none" stroke="#9a32cd" stroke-dasharray="5,2" d="M90,-162.15C90,-150.22 90,-136.784 90,-123.718"/>
<polygon fill="#9a32cd" stroke="#9a32cd" points="90,-172.199 85.5001,-162.199 90,-167.199 90.0001,-162.199 90.0001,-162.199 90.0001,-162.199 90,-167.199 94.5001,-162.199 90,-172.199 90,-172.199"/>
<text text-anchor="middle" x="100.5" y="-144.5" font-family="Helvetica,sans-Serif" font-size="10.00">ldata</text>
</g>
<!-- Node3 -->
<g id="node4" class="node"><title>Node3</title>
<a xlink:title="STL class.">
<polygon fill="white" stroke="#bfbfbf" points="46.5,-278.5 46.5,-335.5 133.5,-335.5 133.5,-278.5 46.5,-278.5"/>
<text text-anchor="middle" x="90" y="-322.5" font-family="Helvetica,sans-Serif" font-size="10.00">std::vector&lt; T &gt;</text>
<polyline fill="none" stroke="#bfbfbf" points="46.5,-316.5 133.5,-316.5 "/>
<text text-anchor="start" x="54.5" y="-303.5" font-family="Helvetica,sans-Serif" font-size="10.00">&#45; elements</text>
<polyline fill="none" stroke="#bfbfbf" points="46.5,-297.5 133.5,-297.5 "/>
<text text-anchor="middle" x="90" y="-284.5" font-family="Helvetica,sans-Serif" font-size="10.00"> </text>
</a>
</g>
<!-- Node3&#45;&gt;Node2 -->
<g id="edge4" class="edge"><title>Node3&#45;&gt;Node2</title>
<path fill="none" stroke="orange" stroke-dasharray="5,2" d="M90,-268.005C90,-255.326 90,-241.494 90,-229.708"/>
<polygon fill="orange" stroke="orange" points="86.5001,-268.315 90,-278.315 93.5001,-268.315 86.5001,-268.315"/>
<text text-anchor="middle" x="149" y="-250.5" font-family="Helvetica,sans-Serif" font-size="10.00">&lt; boost::shared_ptr&lt; T &gt; &gt;</text>
</g>
<!-- Node4 -->
<g id="node6" class="node"><title>Node4</title>
<polygon fill="white" stroke="#bfbfbf" points="75.5,-384.5 75.5,-441.5 104.5,-441.5 104.5,-384.5 75.5,-384.5"/>
<text text-anchor="middle" x="90" y="-428.5" font-family="Helvetica,sans-Serif" font-size="10.00">T</text>
<polyline fill="none" stroke="#bfbfbf" points="75.5,-422.5 104.5,-422.5 "/>
<text text-anchor="middle" x="90" y="-409.5" font-family="Helvetica,sans-Serif" font-size="10.00"> </text>
<polyline fill="none" stroke="#bfbfbf" points="75.5,-403.5 104.5,-403.5 "/>
<text text-anchor="middle" x="90" y="-390.5" font-family="Helvetica,sans-Serif" font-size="10.00"> </text>
</g>
<!-- Node4&#45;&gt;Node3 -->
<g id="edge6" class="edge"><title>Node4&#45;&gt;Node3</title>
<path fill="none" stroke="#9a32cd" stroke-dasharray="5,2" d="M90,-374.005C90,-361.326 90,-347.494 90,-335.708"/>
<polygon fill="#9a32cd" stroke="#9a32cd" points="90,-384.315 85.5001,-374.315 90,-379.315 90.0001,-374.315 90.0001,-374.315 90.0001,-374.315 90,-379.315 94.5001,-374.315 90,-384.315 90,-384.315"/>
<text text-anchor="middle" x="110" y="-356.5" font-family="Helvetica,sans-Serif" font-size="10.00">elements</text>
</g>
</g>
</svg>
