<?xml version="1.0" encoding="UTF-8" standalone="no"?>
<!DOCTYPE svg PUBLIC "-//W3C//DTD SVG 1.1//EN"
 "http://www.w3.org/Graphics/SVG/1.1/DTD/svg11.dtd">
<!-- Generated by graphviz version 2.28.0 (20110610.2051)
 -->
<!-- Title: G Pages: 1 -->
<svg width="208pt" height="104pt"
 viewBox="0.00 0.00 208.00 104.00" xmlns="http://www.w3.org/2000/svg" xmlns:xlink="http://www.w3.org/1999/xlink">
<g id="graph1" class="graph" transform="scale(1 1) rotate(0) translate(4 100)">
<title>G</title>
<polygon fill="white" stroke="white" points="-4,5 -4,-100 205,-100 205,5 -4,5"/>
<!-- Node1 -->
<g id="node1" class="node"><title>Node1</title>
<polygon fill="#bfbfbf" stroke="black" points="0.5,-38.5 0.5,-57.5 73.5,-57.5 73.5,-38.5 0.5,-38.5"/>
<text text-anchor="middle" x="37" y="-45.5" font-family="Helvetica,sans-Serif" font-size="10.00">Con::weight</text>
</g>
<!-- Node2 -->
<g id="node3" class="node"><title>Node2</title>
<a xlink:href="class_con.html#a385c5bf6eb9e2ffc94c5b427c287ccb2" target="_top" xlink:title="weight field accessor.">
<polygon fill="white" stroke="black" points="110,-76.5 110,-95.5 200,-95.5 200,-76.5 110,-76.5"/>
<text text-anchor="middle" x="155" y="-83.5" font-family="Helvetica,sans-Serif" font-size="10.00">Con::getWeight</text>
</a>
</g>
<!-- Node1&#45;&gt;Node2 -->
<g id="edge2" class="edge"><title>Node1&#45;&gt;Node2</title>
<path fill="none" stroke="midnightblue" d="M77.1528,-60.8259C92.7176,-65.9247 110.314,-71.6891 124.738,-76.4141"/>
<polygon fill="midnightblue" stroke="midnightblue" points="77.8644,-57.3761 67.2717,-57.589 75.6852,-64.0282 77.8644,-57.3761"/>
</g>
<!-- Node3 -->
<g id="node5" class="node"><title>Node3</title>
<a xlink:href="class_con.html#ad5c1a25a2ded72999bf5293f5e55d7d9" target="_top" xlink:title="weight field accessor.">
<polygon fill="white" stroke="black" points="110.5,-38.5 110.5,-57.5 199.5,-57.5 199.5,-38.5 110.5,-38.5"/>
<text text-anchor="middle" x="155" y="-45.5" font-family="Helvetica,sans-Serif" font-size="10.00">Con::setWeight</text>
</a>
</g>
<!-- Node1&#45;&gt;Node3 -->
<g id="edge4" class="edge"><title>Node1&#45;&gt;Node3</title>
<path fill="none" stroke="midnightblue" d="M83.8039,-48C92.5634,-48 101.712,-48 110.4,-48"/>
<polygon fill="midnightblue" stroke="midnightblue" points="83.7504,-44.5001 73.7503,-48 83.7503,-51.5001 83.7504,-44.5001"/>
</g>
<!-- Node4 -->
<g id="node7" class="node"><title>Node4</title>
<a xlink:href="class_con.html#af5f836a7b0988b3d9113589b2959d5e6" target="_top" xlink:title="Object validator.">
<polygon fill="white" stroke="black" points="116.5,-0.5 116.5,-19.5 193.5,-19.5 193.5,-0.5 116.5,-0.5"/>
<text text-anchor="middle" x="155" y="-7.5" font-family="Helvetica,sans-Serif" font-size="10.00">Con::validate</text>
</a>
</g>
<!-- Node1&#45;&gt;Node4 -->
<g id="edge6" class="edge"><title>Node1&#45;&gt;Node4</title>
<path fill="none" stroke="midnightblue" d="M77.1528,-35.1741C92.7176,-30.0753 110.314,-24.3109 124.738,-19.5859"/>
<polygon fill="midnightblue" stroke="midnightblue" points="75.6852,-31.9718 67.2717,-38.411 77.8644,-38.6239 75.6852,-31.9718"/>
</g>
</g>
</svg>
