<?xml version="1.0" encoding="UTF-8" standalone="no"?>
<!DOCTYPE svg PUBLIC "-//W3C//DTD SVG 1.1//EN"
 "http://www.w3.org/Graphics/SVG/1.1/DTD/svg11.dtd">
<!-- Generated by graphviz version 2.28.0 (20110610.2051)
 -->
<!-- Title: G Pages: 1 -->
<svg width="857pt" height="440pt"
 viewBox="0.00 0.00 857.00 440.00" xmlns="http://www.w3.org/2000/svg" xmlns:xlink="http://www.w3.org/1999/xlink">
<g id="graph1" class="graph" transform="scale(1 1) rotate(0) translate(4 436)">
<title>G</title>
<polygon fill="white" stroke="white" points="-4,5 -4,-436 854,-436 854,5 -4,5"/>
<!-- Node1 -->
<g id="node1" class="node"><title>Node1</title>
<polygon fill="#bfbfbf" stroke="black" points="327.5,-257 327.5,-325 496.5,-325 496.5,-257 327.5,-257"/>
<text text-anchor="middle" x="412" y="-313" font-family="Helvetica,sans-Serif" font-size="10.00">AdaptNeuronTrainBehavior</text>
<polyline fill="none" stroke="black" points="327.5,-306 496.5,-306 "/>
<text text-anchor="middle" x="412" y="-294" font-family="Helvetica,sans-Serif" font-size="10.00"> </text>
<polyline fill="none" stroke="black" points="327.5,-287 496.5,-287 "/>
<text text-anchor="start" x="335.5" y="-275" font-family="Helvetica,sans-Serif" font-size="10.00">+ singlePatternBackwardAction()</text>
<text text-anchor="start" x="335.5" y="-264" font-family="Helvetica,sans-Serif" font-size="10.00">+ endOfEpochAction()</text>
</g>
<!-- Node3 -->
<g id="node5" class="node"><title>Node3</title>
<a xlink:href="class_a_d_a_p_tgd_neuron_train_behavior.html" target="_top" xlink:title="class ADAPTgdNeuronTrainBehavior &#45;">
<polygon fill="white" stroke="black" points="219.5,-123.5 219.5,-202.5 388.5,-202.5 388.5,-123.5 219.5,-123.5"/>
<text text-anchor="middle" x="304" y="-190.5" font-family="Helvetica,sans-Serif" font-size="10.00">ADAPTgdNeuronTrainBehavior</text>
<polyline fill="none" stroke="black" points="219.5,-183.5 388.5,-183.5 "/>
<text text-anchor="start" x="227.5" y="-171.5" font-family="Helvetica,sans-Serif" font-size="10.00"># d_delta</text>
<text text-anchor="start" x="227.5" y="-160.5" font-family="Helvetica,sans-Serif" font-size="10.00"># d_learningRate</text>
<polyline fill="none" stroke="black" points="219.5,-153.5 388.5,-153.5 "/>
<text text-anchor="start" x="227.5" y="-141.5" font-family="Helvetica,sans-Serif" font-size="10.00">+ singlePatternBackwardAction()</text>
<text text-anchor="start" x="227.5" y="-130.5" font-family="Helvetica,sans-Serif" font-size="10.00">+ endOfEpochAction()</text>
</a>
</g>
<!-- Node1&#45;&gt;Node3 -->
<g id="edge4" class="edge"><title>Node1&#45;&gt;Node3</title>
<path fill="none" stroke="midnightblue" d="M377.092,-249.274C364.279,-234.326 349.821,-217.457 337.165,-202.693"/>
<polygon fill="none" stroke="midnightblue" points="374.459,-251.58 383.624,-256.895 379.774,-247.025 374.459,-251.58"/>
</g>
<!-- Node6 -->
<g id="node11" class="node"><title>Node6</title>
<a xlink:href="class_a_d_a_p_tgdwm_neuron_train_behavior.html" target="_top" xlink:title="class ADAPTgdwmNeuronTrainBehavior &#45;">
<polygon fill="white" stroke="black" points="434,-107 434,-219 608,-219 608,-107 434,-107"/>
<text text-anchor="middle" x="521" y="-207" font-family="Helvetica,sans-Serif" font-size="10.00">ADAPTgdwmNeuronTrainBehavior</text>
<polyline fill="none" stroke="black" points="434,-200 608,-200 "/>
<text text-anchor="start" x="442" y="-188" font-family="Helvetica,sans-Serif" font-size="10.00"># d_delta</text>
<text text-anchor="start" x="442" y="-177" font-family="Helvetica,sans-Serif" font-size="10.00"># d_learningRate</text>
<text text-anchor="start" x="442" y="-166" font-family="Helvetica,sans-Serif" font-size="10.00"># d_momentum</text>
<text text-anchor="start" x="442" y="-155" font-family="Helvetica,sans-Serif" font-size="10.00"># d_formerWeightChange</text>
<text text-anchor="start" x="442" y="-144" font-family="Helvetica,sans-Serif" font-size="10.00"># d_formerBiasChange</text>
<polyline fill="none" stroke="black" points="434,-137 608,-137 "/>
<text text-anchor="start" x="442" y="-125" font-family="Helvetica,sans-Serif" font-size="10.00">+ singlePatternBackwardAction()</text>
<text text-anchor="start" x="442" y="-114" font-family="Helvetica,sans-Serif" font-size="10.00">+ endOfEpochAction()</text>
</a>
</g>
<!-- Node1&#45;&gt;Node6 -->
<g id="edge10" class="edge"><title>Node1&#45;&gt;Node6</title>
<path fill="none" stroke="midnightblue" d="M447.375,-249.108C455.604,-239.596 464.499,-229.313 473.166,-219.294"/>
<polygon fill="none" stroke="midnightblue" points="444.534,-247.042 440.638,-256.895 449.828,-251.622 444.534,-247.042"/>
</g>
<!-- Node2 -->
<g id="node2" class="node"><title>Node2</title>
<a xlink:href="class_neuron_train_behavior.html" target="_top" xlink:title="class NeuronTrainBehavior &#45;">
<polygon fill="white" stroke="black" points="327.5,-363 327.5,-431 496.5,-431 496.5,-363 327.5,-363"/>
<text text-anchor="middle" x="412" y="-419" font-family="Helvetica,sans-Serif" font-size="10.00">NeuronTrainBehavior</text>
<polyline fill="none" stroke="black" points="327.5,-412 496.5,-412 "/>
<text text-anchor="start" x="335.5" y="-400" font-family="Helvetica,sans-Serif" font-size="10.00"># d_neuron</text>
<polyline fill="none" stroke="black" points="327.5,-393 496.5,-393 "/>
<text text-anchor="start" x="335.5" y="-381" font-family="Helvetica,sans-Serif" font-size="10.00">+ singlePatternBackwardAction()</text>
<text text-anchor="start" x="335.5" y="-370" font-family="Helvetica,sans-Serif" font-size="10.00">+ endOfEpochAction()</text>
</a>
</g>
<!-- Node2&#45;&gt;Node1 -->
<g id="edge2" class="edge"><title>Node2&#45;&gt;Node1</title>
<path fill="none" stroke="midnightblue" d="M412,-352.674C412,-343.502 412,-333.961 412,-325.234"/>
<polygon fill="none" stroke="midnightblue" points="408.5,-352.808 412,-362.808 415.5,-352.808 408.5,-352.808"/>
</g>
<!-- Node4 -->
<g id="node7" class="node"><title>Node4</title>
<a xlink:href="class_a_d_a_p_tgd_hidden_neuron_train_behavior.html" target="_top" xlink:title="class ADAPTgdHiddenNeuronTrainBehavior &#45;">
<polygon fill="white" stroke="black" points="-0.5,-1 -0.5,-69 190.5,-69 190.5,-1 -0.5,-1"/>
<text text-anchor="middle" x="95" y="-57" font-family="Helvetica,sans-Serif" font-size="10.00">ADAPTgdHiddenNeuronTrainBehavior</text>
<polyline fill="none" stroke="black" points="-0.5,-50 190.5,-50 "/>
<text text-anchor="middle" x="95" y="-38" font-family="Helvetica,sans-Serif" font-size="10.00"> </text>
<polyline fill="none" stroke="black" points="-0.5,-31 190.5,-31 "/>
<text text-anchor="start" x="7.5" y="-19" font-family="Helvetica,sans-Serif" font-size="10.00">&#45; singlePatternBackwardAction()</text>
<text text-anchor="start" x="7.5" y="-8" font-family="Helvetica,sans-Serif" font-size="10.00">&#45; endOfEpochAction()</text>
</a>
</g>
<!-- Node3&#45;&gt;Node4 -->
<g id="edge6" class="edge"><title>Node3&#45;&gt;Node4</title>
<path fill="none" stroke="midnightblue" d="M231.308,-118.176C204.563,-102.052 174.746,-84.0766 149.835,-69.0587"/>
<polygon fill="none" stroke="midnightblue" points="229.502,-121.174 239.873,-123.34 233.116,-115.179 229.502,-121.174"/>
</g>
<!-- Node5 -->
<g id="node9" class="node"><title>Node5</title>
<a xlink:href="class_a_d_a_p_tgd_output_neuron_train_behavior.html" target="_top" xlink:title="class ADAPTgdOutputNeuronTrainBehavior &#45;">
<polygon fill="white" stroke="black" points="209,-1 209,-69 399,-69 399,-1 209,-1"/>
<text text-anchor="middle" x="304" y="-57" font-family="Helvetica,sans-Serif" font-size="10.00">ADAPTgdOutputNeuronTrainBehavior</text>
<polyline fill="none" stroke="black" points="209,-50 399,-50 "/>
<text text-anchor="start" x="217" y="-38" font-family="Helvetica,sans-Serif" font-size="10.00">&#45; d_costFunction</text>
<polyline fill="none" stroke="black" points="209,-31 399,-31 "/>
<text text-anchor="start" x="217" y="-19" font-family="Helvetica,sans-Serif" font-size="10.00">&#45; singlePatternBackwardAction()</text>
<text text-anchor="start" x="217" y="-8" font-family="Helvetica,sans-Serif" font-size="10.00">&#45; endOfEpochAction()</text>
</a>
</g>
<!-- Node3&#45;&gt;Node5 -->
<g id="edge8" class="edge"><title>Node3&#45;&gt;Node5</title>
<path fill="none" stroke="midnightblue" d="M304,-112.807C304,-98.2625 304,-82.6854 304,-69.3872"/>
<polygon fill="none" stroke="midnightblue" points="300.5,-113.168 304,-123.168 307.5,-113.168 300.5,-113.168"/>
</g>
<!-- Node7 -->
<g id="node13" class="node"><title>Node7</title>
<a xlink:href="class_a_d_a_p_tgdwm_hidden_neuron_train_behavior.html" target="_top" xlink:title="class ADAPTgdwmHiddenNeuronTrainBehavior &#45;">
<polygon fill="white" stroke="black" points="417.5,-1 417.5,-69 624.5,-69 624.5,-1 417.5,-1"/>
<text text-anchor="middle" x="521" y="-57" font-family="Helvetica,sans-Serif" font-size="10.00">ADAPTgdwmHiddenNeuronTrainBehavior</text>
<polyline fill="none" stroke="black" points="417.5,-50 624.5,-50 "/>
<text text-anchor="middle" x="521" y="-38" font-family="Helvetica,sans-Serif" font-size="10.00"> </text>
<polyline fill="none" stroke="black" points="417.5,-31 624.5,-31 "/>
<text text-anchor="start" x="425.5" y="-19" font-family="Helvetica,sans-Serif" font-size="10.00">&#45; singlePatternBackwardAction()</text>
<text text-anchor="start" x="425.5" y="-8" font-family="Helvetica,sans-Serif" font-size="10.00">&#45; endOfEpochAction()</text>
</a>
</g>
<!-- Node6&#45;&gt;Node7 -->
<g id="edge12" class="edge"><title>Node6&#45;&gt;Node7</title>
<path fill="none" stroke="midnightblue" d="M521,-96.4612C521,-86.9839 521,-77.5833 521,-69.1192"/>
<polygon fill="none" stroke="midnightblue" points="517.5,-96.7345 521,-106.735 524.5,-96.7346 517.5,-96.7345"/>
</g>
<!-- Node8 -->
<g id="node15" class="node"><title>Node8</title>
<a xlink:href="class_a_d_a_p_tgdwm_output_neuron_train_behavior.html" target="_top" xlink:title="class ADAPTgdwmOutputNeuronTrainBehavior &#45;">
<polygon fill="white" stroke="black" points="643,-1 643,-69 849,-69 849,-1 643,-1"/>
<text text-anchor="middle" x="746" y="-57" font-family="Helvetica,sans-Serif" font-size="10.00">ADAPTgdwmOutputNeuronTrainBehavior</text>
<polyline fill="none" stroke="black" points="643,-50 849,-50 "/>
<text text-anchor="start" x="651" y="-38" font-family="Helvetica,sans-Serif" font-size="10.00">&#45; d_costFunction</text>
<polyline fill="none" stroke="black" points="643,-31 849,-31 "/>
<text text-anchor="start" x="651" y="-19" font-family="Helvetica,sans-Serif" font-size="10.00">&#45; singlePatternBackwardAction()</text>
<text text-anchor="start" x="651" y="-8" font-family="Helvetica,sans-Serif" font-size="10.00">&#45; endOfEpochAction()</text>
</a>
</g>
<!-- Node6&#45;&gt;Node8 -->
<g id="edge14" class="edge"><title>Node6&#45;&gt;Node8</title>
<path fill="none" stroke="midnightblue" d="M617.32,-108.061C640.97,-94.8168 665.594,-81.0273 686.894,-69.0995"/>
<polygon fill="none" stroke="midnightblue" points="615.328,-105.165 608.313,-113.105 618.748,-111.272 615.328,-105.165"/>
</g>
</g>
</svg>
