<?xml version="1.0" encoding="UTF-8" standalone="no"?>
<!DOCTYPE svg PUBLIC "-//W3C//DTD SVG 1.1//EN"
 "http://www.w3.org/Graphics/SVG/1.1/DTD/svg11.dtd">
<!-- Generated by graphviz version 2.28.0 (20110610.2051)
 -->
<!-- Title: G Pages: 1 -->
<svg width="216pt" height="462pt"
 viewBox="0.00 0.00 216.00 462.00" xmlns="http://www.w3.org/2000/svg" xmlns:xlink="http://www.w3.org/1999/xlink">
<g id="graph1" class="graph" transform="scale(1 1) rotate(0) translate(4 458)">
<title>G</title>
<polygon fill="white" stroke="white" points="-4,5 -4,-458 213,-458 213,5 -4,5"/>
<!-- Node1 -->
<g id="node1" class="node"><title>Node1</title>
<polygon fill="#bfbfbf" stroke="black" points="-0.5,-1 -0.5,-69 208.5,-69 208.5,-1 -0.5,-1"/>
<text text-anchor="middle" x="104" y="-57" font-family="Helvetica,sans-Serif" font-size="10.00">BATCHgdwmHiddenNeuronTrainBehavior</text>
<polyline fill="none" stroke="black" points="-0.5,-50 208.5,-50 "/>
<text text-anchor="middle" x="104" y="-38" font-family="Helvetica,sans-Serif" font-size="10.00"> </text>
<polyline fill="none" stroke="black" points="-0.5,-31 208.5,-31 "/>
<text text-anchor="start" x="7.5" y="-19" font-family="Helvetica,sans-Serif" font-size="10.00">&#45; singlePatternBackwardAction()</text>
<text text-anchor="start" x="7.5" y="-8" font-family="Helvetica,sans-Serif" font-size="10.00">&#45; endOfEpochAction()</text>
</g>
<!-- Node2 -->
<g id="node2" class="node"><title>Node2</title>
<a xlink:href="class_b_a_t_c_hgdwm_neuron_train_behavior.html" target="_top" xlink:title="class BATCHgdwmNeuronTrainBehavior &#45;">
<polygon fill="white" stroke="black" points="16,-107 16,-241 192,-241 192,-107 16,-107"/>
<text text-anchor="middle" x="104" y="-229" font-family="Helvetica,sans-Serif" font-size="10.00">BATCHgdwmNeuronTrainBehavior</text>
<polyline fill="none" stroke="black" points="16,-222 192,-222 "/>
<text text-anchor="start" x="24" y="-210" font-family="Helvetica,sans-Serif" font-size="10.00"># delta</text>
<text text-anchor="start" x="24" y="-199" font-family="Helvetica,sans-Serif" font-size="10.00"># rate</text>
<text text-anchor="start" x="24" y="-188" font-family="Helvetica,sans-Serif" font-size="10.00"># x</text>
<text text-anchor="start" x="24" y="-177" font-family="Helvetica,sans-Serif" font-size="10.00"># bias</text>
<text text-anchor="start" x="24" y="-166" font-family="Helvetica,sans-Serif" font-size="10.00"># momentum</text>
<text text-anchor="start" x="24" y="-155" font-family="Helvetica,sans-Serif" font-size="10.00"># change</text>
<text text-anchor="start" x="24" y="-144" font-family="Helvetica,sans-Serif" font-size="10.00"># change</text>
<polyline fill="none" stroke="black" points="16,-137 192,-137 "/>
<text text-anchor="start" x="24" y="-125" font-family="Helvetica,sans-Serif" font-size="10.00">&#45; singlePatternBackwardAction()</text>
<text text-anchor="start" x="24" y="-114" font-family="Helvetica,sans-Serif" font-size="10.00">&#45; endOfEpochAction()</text>
</a>
</g>
<!-- Node2&#45;&gt;Node1 -->
<g id="edge2" class="edge"><title>Node2&#45;&gt;Node1</title>
<path fill="none" stroke="midnightblue" d="M104,-96.7563C104,-87.056 104,-77.5656 104,-69.0765"/>
<polygon fill="none" stroke="midnightblue" points="100.5,-96.9077 104,-106.908 107.5,-96.9078 100.5,-96.9077"/>
</g>
<!-- Node3 -->
<g id="node4" class="node"><title>Node3</title>
<a xlink:href="class_batch_neuron_train_behavior.html" target="_top" xlink:title="class BatchNeuronTrainBehavior &#45;">
<polygon fill="white" stroke="black" points="19.5,-279 19.5,-347 188.5,-347 188.5,-279 19.5,-279"/>
<text text-anchor="middle" x="104" y="-335" font-family="Helvetica,sans-Serif" font-size="10.00">BatchNeuronTrainBehavior</text>
<polyline fill="none" stroke="black" points="19.5,-328 188.5,-328 "/>
<text text-anchor="middle" x="104" y="-316" font-family="Helvetica,sans-Serif" font-size="10.00"> </text>
<polyline fill="none" stroke="black" points="19.5,-309 188.5,-309 "/>
<text text-anchor="start" x="27.5" y="-297" font-family="Helvetica,sans-Serif" font-size="10.00">+ singlePatternBackwardAction()</text>
<text text-anchor="start" x="27.5" y="-286" font-family="Helvetica,sans-Serif" font-size="10.00">+ endOfEpochAction()</text>
</a>
</g>
<!-- Node3&#45;&gt;Node2 -->
<g id="edge4" class="edge"><title>Node3&#45;&gt;Node2</title>
<path fill="none" stroke="midnightblue" d="M104,-268.83C104,-260.015 104,-250.549 104,-241.142"/>
<polygon fill="none" stroke="midnightblue" points="100.5,-268.836 104,-278.836 107.5,-268.836 100.5,-268.836"/>
</g>
<!-- Node4 -->
<g id="node6" class="node"><title>Node4</title>
<a xlink:href="class_neuron_train_behavior.html" target="_top" xlink:title="class NeuronTrainBehavior &#45;">
<polygon fill="white" stroke="black" points="19.5,-385 19.5,-453 188.5,-453 188.5,-385 19.5,-385"/>
<text text-anchor="middle" x="104" y="-441" font-family="Helvetica,sans-Serif" font-size="10.00">NeuronTrainBehavior</text>
<polyline fill="none" stroke="black" points="19.5,-434 188.5,-434 "/>
<text text-anchor="start" x="27.5" y="-422" font-family="Helvetica,sans-Serif" font-size="10.00"># d_neuron</text>
<polyline fill="none" stroke="black" points="19.5,-415 188.5,-415 "/>
<text text-anchor="start" x="27.5" y="-403" font-family="Helvetica,sans-Serif" font-size="10.00">+ singlePatternBackwardAction()</text>
<text text-anchor="start" x="27.5" y="-392" font-family="Helvetica,sans-Serif" font-size="10.00">+ endOfEpochAction()</text>
</a>
</g>
<!-- Node4&#45;&gt;Node3 -->
<g id="edge6" class="edge"><title>Node4&#45;&gt;Node3</title>
<path fill="none" stroke="midnightblue" d="M104,-374.674C104,-365.502 104,-355.961 104,-347.234"/>
<polygon fill="none" stroke="midnightblue" points="100.5,-374.808 104,-384.808 107.5,-374.808 100.5,-374.808"/>
</g>
</g>
</svg>
