<?xml version="1.0" encoding="UTF-8" standalone="no"?>
<!DOCTYPE svg PUBLIC "-//W3C//DTD SVG 1.1//EN"
 "http://www.w3.org/Graphics/SVG/1.1/DTD/svg11.dtd">
<!-- Generated by graphviz version 2.28.0 (20110610.2051)
 -->
<!-- Title: G Pages: 1 -->
<svg width="244pt" height="172pt"
 viewBox="0.00 0.00 244.00 172.00" xmlns="http://www.w3.org/2000/svg" xmlns:xlink="http://www.w3.org/1999/xlink">
<g id="graph1" class="graph" transform="scale(1 1) rotate(0) translate(4 168)">
<title>G</title>
<polygon fill="white" stroke="white" points="-4,5 -4,-168 241,-168 241,5 -4,5"/>
<!-- Node1 -->
<g id="node1" class="node"><title>Node1</title>
<polygon fill="#bfbfbf" stroke="black" points="0,-106.5 0,-163.5 236,-163.5 236,-106.5 0,-106.5"/>
<text text-anchor="middle" x="118" y="-151.5" font-family="Helvetica,sans-Serif" font-size="10.00">NeuralCreator</text>
<polyline fill="none" stroke="black" points="0,-144.5 236,-144.5 "/>
<text text-anchor="middle" x="118" y="-132.5" font-family="Helvetica,sans-Serif" font-size="10.00"> </text>
<polyline fill="none" stroke="black" points="0,-125.5 236,-125.5 "/>
<text text-anchor="start" x="8" y="-113.5" font-family="Helvetica,sans-Serif" font-size="10.00">+ createFeedForwardFullyConnectedNetwork()</text>
</g>
<!-- Node2 -->
<g id="node3" class="node"><title>Node2</title>
<a xlink:href="class_simple_neural_creator.html" target="_top" xlink:title="class SimpleNeuralCreator &#45;">
<polygon fill="white" stroke="black" points="0,-1 0,-69 236,-69 236,-1 0,-1"/>
<text text-anchor="middle" x="118" y="-57" font-family="Helvetica,sans-Serif" font-size="10.00">SimpleNeuralCreator</text>
<polyline fill="none" stroke="black" points="0,-50 236,-50 "/>
<text text-anchor="middle" x="118" y="-38" font-family="Helvetica,sans-Serif" font-size="10.00"> </text>
<polyline fill="none" stroke="black" points="0,-31 236,-31 "/>
<text text-anchor="start" x="8" y="-19" font-family="Helvetica,sans-Serif" font-size="10.00">+ SimpleNeuralCreator()</text>
<text text-anchor="start" x="8" y="-8" font-family="Helvetica,sans-Serif" font-size="10.00">+ createFeedForwardFullyConnectedNetwork()</text>
</a>
</g>
<!-- Node1&#45;&gt;Node2 -->
<g id="edge2" class="edge"><title>Node1&#45;&gt;Node2</title>
<path fill="none" stroke="midnightblue" d="M118,-96.3023C118,-87.3951 118,-77.9608 118,-69.2659"/>
<polygon fill="none" stroke="midnightblue" points="114.5,-96.4407 118,-106.441 121.5,-96.4408 114.5,-96.4407"/>
</g>
</g>
</svg>
