<?xml version="1.0" encoding="UTF-8" standalone="no"?>
<!DOCTYPE svg PUBLIC "-//W3C//DTD SVG 1.1//EN"
 "http://www.w3.org/Graphics/SVG/1.1/DTD/svg11.dtd">
<!-- Generated by graphviz version 2.25.20091207.0545 (20091207.0545)
 -->
<!-- Title: G Pages: 1 -->
<svg width="342pt" height="66pt"
 viewBox="0.00 0.00 342.00 66.00" xmlns="http://www.w3.org/2000/svg" xmlns:xlink="http://www.w3.org/1999/xlink">
<g id="graph1" class="graph" transform="scale(1 1) rotate(0) translate(4 62)">
<title>G</title>
<polygon fill="white" stroke="white" points="-4,5 -4,-62 339,-62 339,5 -4,5"/>
<!-- Node1 -->
<g id="node1" class="node"><title>Node1</title>
<polygon fill="#bfbfbf" stroke="black" points="0.5,-19.5 0.5,-38.5 79.5,-38.5 79.5,-19.5 0.5,-19.5"/>
<text text-anchor="middle" x="40" y="-25.5" font-family="Helvetica,sans-Serif" font-size="10.00">VecCon::getId</text>
</g>
<!-- Node2 -->
<g id="node3" class="node"><title>Node2</title>
<a xlink:href="class_neuron.html#aac7d538b4a5087f730ba80f19852bced" target="_top" xlink:title="Neuron::getConId">
<polygon fill="white" stroke="black" points="116.5,-38.5 116.5,-57.5 209.5,-57.5 209.5,-38.5 116.5,-38.5"/>
<text text-anchor="middle" x="163" y="-44.5" font-family="Helvetica,sans-Serif" font-size="10.00">Neuron::getConId</text>
</a>
</g>
<!-- Node1&#45;&gt;Node2 -->
<g id="edge2" class="edge"><title>Node1&#45;&gt;Node2</title>
<path fill="none" stroke="midnightblue" d="M89.6733,-36.6731C98.4266,-38.0252 107.512,-39.4287 116.184,-40.7682"/>
<polygon fill="midnightblue" stroke="midnightblue" points="90.0122,-33.184 79.595,-35.1163 88.9435,-40.102 90.0122,-33.184"/>
</g>
<!-- Node3 -->
<g id="node5" class="node"><title>Node3</title>
<a xlink:href="class_vec_con.html#af008396d3982fb7ccf1af9618b89937c" target="_top" xlink:title="Object validator.">
<polygon fill="white" stroke="black" points="117.5,-0.5 117.5,-19.5 208.5,-19.5 208.5,-0.5 117.5,-0.5"/>
<text text-anchor="middle" x="163" y="-6.5" font-family="Helvetica,sans-Serif" font-size="10.00">VecCon::validate</text>
</a>
</g>
<!-- Node1&#45;&gt;Node3 -->
<g id="edge4" class="edge"><title>Node1&#45;&gt;Node3</title>
<path fill="none" stroke="midnightblue" d="M89.749,-21.3152C98.9192,-19.8987 108.451,-18.4262 117.489,-17.0302"/>
<polygon fill="midnightblue" stroke="midnightblue" points="88.9435,-17.898 79.595,-22.8837 90.0122,-24.816 88.9435,-17.898"/>
</g>
<!-- Node4 -->
<g id="node7" class="node"><title>Node4</title>
<a xlink:href="class_neuron.html#a95327aa80a9ec949491f214a0c159b5a" target="_top" xlink:title="Neuron::validate">
<polygon fill="white" stroke="black" points="246.5,-0.5 246.5,-19.5 333.5,-19.5 333.5,-0.5 246.5,-0.5"/>
<text text-anchor="middle" x="290" y="-6.5" font-family="Helvetica,sans-Serif" font-size="10.00">Neuron::validate</text>
</a>
</g>
<!-- Node3&#45;&gt;Node4 -->
<g id="edge6" class="edge"><title>Node3&#45;&gt;Node4</title>
<path fill="none" stroke="midnightblue" d="M219.046,-10C228.192,-10 237.547,-10 246.338,-10"/>
<polygon fill="midnightblue" stroke="midnightblue" points="218.85,-6.5001 208.85,-10 218.85,-13.5001 218.85,-6.5001"/>
</g>
</g>
</svg>
