<?xml version="1.0" encoding="UTF-8" standalone="no"?>
<!DOCTYPE svg PUBLIC "-//W3C//DTD SVG 1.1//EN"
 "http://www.w3.org/Graphics/SVG/1.1/DTD/svg11.dtd">
<!-- Generated by graphviz version 2.28.0 (20110610.2051)
 -->
<!-- Title: G Pages: 1 -->
<svg width="216pt" height="104pt"
 viewBox="0.00 0.00 216.00 104.00" xmlns="http://www.w3.org/2000/svg" xmlns:xlink="http://www.w3.org/1999/xlink">
<g id="graph1" class="graph" transform="scale(1 1) rotate(0) translate(4 100)">
<title>G</title>
<polygon fill="white" stroke="white" points="-4,5 -4,-100 213,-100 213,5 -4,5"/>
<!-- Node1 -->
<g id="node1" class="node"><title>Node1</title>
<polygon fill="#bfbfbf" stroke="black" points="0,-38.5 0,-57.5 80,-57.5 80,-38.5 0,-38.5"/>
<text text-anchor="middle" x="40" y="-45.5" font-family="Helvetica,sans-Serif" font-size="10.00">Neuron::show</text>
</g>
<!-- Node2 -->
<g id="node3" class="node"><title>Node2</title>
<a xlink:href="class_neuron.html#ad9211d55ea50ad6dfbd2676b9e2335e4" target="_top" xlink:title="Neuron::getId">
<polygon fill="white" stroke="black" points="122,-76.5 122,-95.5 202,-95.5 202,-76.5 122,-76.5"/>
<text text-anchor="middle" x="162" y="-83.5" font-family="Helvetica,sans-Serif" font-size="10.00">Neuron::getId</text>
</a>
</g>
<!-- Node1&#45;&gt;Node2 -->
<g id="edge2" class="edge"><title>Node1&#45;&gt;Node2</title>
<path fill="none" stroke="midnightblue" d="M71.2811,-57.589C86.3456,-62.3594 104.754,-68.1888 120.967,-73.3229"/>
<polygon fill="midnightblue" stroke="midnightblue" points="120.139,-76.7318 130.729,-76.4141 122.252,-70.0584 120.139,-76.7318"/>
</g>
<!-- Node3 -->
<g id="node5" class="node"><title>Node3</title>
<a xlink:href="class_container.html#ad72379ee222b073a5eecec7fc1bedfc2" target="_top" xlink:title="Pretty print of the Container&lt;T&gt;">
<polygon fill="white" stroke="black" points="116,-38.5 116,-57.5 208,-57.5 208,-38.5 116,-38.5"/>
<text text-anchor="middle" x="162" y="-45.5" font-family="Helvetica,sans-Serif" font-size="10.00">Container::show</text>
</a>
</g>
<!-- Node1&#45;&gt;Node3 -->
<g id="edge4" class="edge"><title>Node1&#45;&gt;Node3</title>
<path fill="none" stroke="midnightblue" d="M80.2925,-48C88.3593,-48 96.9953,-48 105.509,-48"/>
<polygon fill="midnightblue" stroke="midnightblue" points="105.788,-51.5001 115.788,-48 105.788,-44.5001 105.788,-51.5001"/>
</g>
<!-- Node4 -->
<g id="node7" class="node"><title>Node4</title>
<a xlink:href="class_container.html#a842c3d9eca81b78b59112fde9707b091" target="_top" xlink:title="Returns the size or length of the vector.">
<polygon fill="white" stroke="black" points="119.5,-0.5 119.5,-19.5 204.5,-19.5 204.5,-0.5 119.5,-0.5"/>
<text text-anchor="middle" x="162" y="-7.5" font-family="Helvetica,sans-Serif" font-size="10.00">Container::size</text>
</a>
</g>
<!-- Node1&#45;&gt;Node4 -->
<g id="edge6" class="edge"><title>Node1&#45;&gt;Node4</title>
<path fill="none" stroke="midnightblue" d="M71.2811,-38.411C86.3456,-33.6406 104.754,-27.8112 120.967,-22.6771"/>
<polygon fill="midnightblue" stroke="midnightblue" points="122.252,-25.9416 130.729,-19.5859 120.139,-19.2682 122.252,-25.9416"/>
</g>
</g>
</svg>
