<?xml version="1.0" encoding="UTF-8" standalone="no"?>
<!DOCTYPE svg PUBLIC "-//W3C//DTD SVG 1.1//EN"
 "http://www.w3.org/Graphics/SVG/1.1/DTD/svg11.dtd">
<!-- Generated by graphviz version 2.28.0 (20110610.2051)
 -->
<!-- Title: G Pages: 1 -->
<svg width="223pt" height="856pt"
 viewBox="0.00 0.00 223.00 856.00" xmlns="http://www.w3.org/2000/svg" xmlns:xlink="http://www.w3.org/1999/xlink">
<g id="graph1" class="graph" transform="scale(1 1) rotate(0) translate(4 852)">
<title>G</title>
<polygon fill="white" stroke="white" points="-4,5 -4,-852 220,-852 220,5 -4,5"/>
<!-- Node1 -->
<g id="node1" class="node"><title>Node1</title>
<polygon fill="#bfbfbf" stroke="black" points="36,-1 36,-157 152,-157 152,-1 36,-1"/>
<text text-anchor="middle" x="94" y="-145" font-family="Helvetica,sans-Serif" font-size="10.00">SimpleContainer&lt; T &gt;</text>
<polyline fill="none" stroke="black" points="36,-138 152,-138 "/>
<text text-anchor="start" x="44" y="-126" font-family="Helvetica,sans-Serif" font-size="10.00"># d_collection</text>
<polyline fill="none" stroke="black" points="36,-119 152,-119 "/>
<text text-anchor="start" x="44" y="-107" font-family="Helvetica,sans-Serif" font-size="10.00">+ SimpleContainer()</text>
<text text-anchor="start" x="44" y="-96" font-family="Helvetica,sans-Serif" font-size="10.00">+ ~SimpleContainer()</text>
<text text-anchor="start" x="44" y="-85" font-family="Helvetica,sans-Serif" font-size="10.00">&#45; createIterator()</text>
<text text-anchor="start" x="44" y="-74" font-family="Helvetica,sans-Serif" font-size="10.00">&#45; push_back()</text>
<text text-anchor="start" x="44" y="-63" font-family="Helvetica,sans-Serif" font-size="10.00">&#45; reserve()</text>
<text text-anchor="start" x="44" y="-52" font-family="Helvetica,sans-Serif" font-size="10.00">&#45; empty()</text>
<text text-anchor="start" x="44" y="-41" font-family="Helvetica,sans-Serif" font-size="10.00">&#45; size()</text>
<text text-anchor="start" x="44" y="-30" font-family="Helvetica,sans-Serif" font-size="10.00">&#45; clear()</text>
<text text-anchor="start" x="44" y="-19" font-family="Helvetica,sans-Serif" font-size="10.00">&#45; show()</text>
<text text-anchor="start" x="44" y="-8" font-family="Helvetica,sans-Serif" font-size="10.00">&#45; validate()</text>
</g>
<!-- Node2 -->
<g id="node2" class="node"><title>Node2</title>
<a xlink:href="class_container.html" target="_top" xlink:title="class Container &#45;">
<polygon fill="white" stroke="black" points="45.5,-197 45.5,-529 142.5,-529 142.5,-197 45.5,-197"/>
<text text-anchor="middle" x="94" y="-517" font-family="Helvetica,sans-Serif" font-size="10.00">Container&lt; T &gt;</text>
<polyline fill="none" stroke="black" points="45.5,-510 142.5,-510 "/>
<text text-anchor="start" x="53.5" y="-498" font-family="Helvetica,sans-Serif" font-size="10.00"># collection</text>
<polyline fill="none" stroke="black" points="45.5,-491 142.5,-491 "/>
<text text-anchor="start" x="53.5" y="-479" font-family="Helvetica,sans-Serif" font-size="10.00">+ ~Container()</text>
<text text-anchor="start" x="53.5" y="-468" font-family="Helvetica,sans-Serif" font-size="10.00">+ createIterator()</text>
<text text-anchor="start" x="53.5" y="-457" font-family="Helvetica,sans-Serif" font-size="10.00">+ push_back()</text>
<text text-anchor="start" x="53.5" y="-446" font-family="Helvetica,sans-Serif" font-size="10.00">+ reserve()</text>
<text text-anchor="start" x="53.5" y="-435" font-family="Helvetica,sans-Serif" font-size="10.00">+ empty()</text>
<text text-anchor="start" x="53.5" y="-424" font-family="Helvetica,sans-Serif" font-size="10.00">+ size()</text>
<text text-anchor="start" x="53.5" y="-413" font-family="Helvetica,sans-Serif" font-size="10.00">+ clear()</text>
<text text-anchor="start" x="53.5" y="-402" font-family="Helvetica,sans-Serif" font-size="10.00">+ show()</text>
<text text-anchor="start" x="53.5" y="-391" font-family="Helvetica,sans-Serif" font-size="10.00">+ validate()</text>
<text text-anchor="start" x="53.5" y="-380" font-family="Helvetica,sans-Serif" font-size="10.00">+ Container()</text>
<text text-anchor="start" x="53.5" y="-369" font-family="Helvetica,sans-Serif" font-size="10.00">+ Container()</text>
<text text-anchor="start" x="53.5" y="-358" font-family="Helvetica,sans-Serif" font-size="10.00">+ begin()</text>
<text text-anchor="start" x="53.5" y="-347" font-family="Helvetica,sans-Serif" font-size="10.00">+ end()</text>
<text text-anchor="start" x="53.5" y="-336" font-family="Helvetica,sans-Serif" font-size="10.00">+ load()</text>
<text text-anchor="start" x="53.5" y="-325" font-family="Helvetica,sans-Serif" font-size="10.00">+ store()</text>
<text text-anchor="start" x="53.5" y="-314" font-family="Helvetica,sans-Serif" font-size="10.00">+ size()</text>
<text text-anchor="start" x="53.5" y="-303" font-family="Helvetica,sans-Serif" font-size="10.00">+ push_back()</text>
<text text-anchor="start" x="53.5" y="-292" font-family="Helvetica,sans-Serif" font-size="10.00">+ append()</text>
<text text-anchor="start" x="53.5" y="-281" font-family="Helvetica,sans-Serif" font-size="10.00">+ show()</text>
<text text-anchor="start" x="53.5" y="-270" font-family="Helvetica,sans-Serif" font-size="10.00">+ validate()</text>
<text text-anchor="start" x="53.5" y="-259" font-family="Helvetica,sans-Serif" font-size="10.00">+ reserve()</text>
<text text-anchor="start" x="53.5" y="-248" font-family="Helvetica,sans-Serif" font-size="10.00">+ resize()</text>
<text text-anchor="start" x="53.5" y="-237" font-family="Helvetica,sans-Serif" font-size="10.00">+ empty()</text>
<text text-anchor="start" x="53.5" y="-226" font-family="Helvetica,sans-Serif" font-size="10.00">+ clear()</text>
<text text-anchor="start" x="53.5" y="-215" font-family="Helvetica,sans-Serif" font-size="10.00">+ operator[]()</text>
<text text-anchor="start" x="53.5" y="-204" font-family="Helvetica,sans-Serif" font-size="10.00"># Container()</text>
</a>
</g>
<!-- Node2&#45;&gt;Node1 -->
<g id="edge2" class="edge"><title>Node2&#45;&gt;Node1</title>
<path fill="none" stroke="midnightblue" d="M94,-186.525C94,-176.391 94,-166.51 94,-157.109"/>
<polygon fill="none" stroke="midnightblue" points="90.5001,-186.736 94,-196.736 97.5001,-186.736 90.5001,-186.736"/>
</g>
<!-- Node3 -->
<g id="node4" class="node"><title>Node3</title>
<polygon fill="white" stroke="#bfbfbf" points="0,-578.5 0,-635.5 188,-635.5 188,-578.5 0,-578.5"/>
<text text-anchor="middle" x="94" y="-623.5" font-family="Helvetica,sans-Serif" font-size="10.00">std::vector&lt; boost::shared_ptr&lt; T &gt; &gt;</text>
<polyline fill="none" stroke="#bfbfbf" points="0,-616.5 188,-616.5 "/>
<text text-anchor="start" x="8" y="-604.5" font-family="Helvetica,sans-Serif" font-size="10.00">&#45; elements</text>
<polyline fill="none" stroke="#bfbfbf" points="0,-597.5 188,-597.5 "/>
<text text-anchor="middle" x="94" y="-585.5" font-family="Helvetica,sans-Serif" font-size="10.00"> </text>
</g>
<!-- Node3&#45;&gt;Node2 -->
<g id="edge4" class="edge"><title>Node3&#45;&gt;Node2</title>
<path fill="none" stroke="#9a32cd" stroke-dasharray="5,2" d="M94,-567.949C94,-556.582 94,-543.332 94,-529.144"/>
<polygon fill="#9a32cd" stroke="#9a32cd" points="94,-578.24 89.5001,-568.239 94,-573.24 94.0001,-568.24 94.0001,-568.24 94.0001,-568.24 94,-573.24 98.5001,-568.24 94,-578.24 94,-578.24"/>
<text text-anchor="middle" x="116.5" y="-551.5" font-family="Helvetica,sans-Serif" font-size="10.00">collection</text>
</g>
<!-- Node4 -->
<g id="node6" class="node"><title>Node4</title>
<a xlink:title="STL class.">
<polygon fill="white" stroke="#bfbfbf" points="49.5,-684.5 49.5,-741.5 138.5,-741.5 138.5,-684.5 49.5,-684.5"/>
<text text-anchor="middle" x="94" y="-729.5" font-family="Helvetica,sans-Serif" font-size="10.00">std::vector&lt; T &gt;</text>
<polyline fill="none" stroke="#bfbfbf" points="49.5,-722.5 138.5,-722.5 "/>
<text text-anchor="start" x="57.5" y="-710.5" font-family="Helvetica,sans-Serif" font-size="10.00">&#45; elements</text>
<polyline fill="none" stroke="#bfbfbf" points="49.5,-703.5 138.5,-703.5 "/>
<text text-anchor="middle" x="94" y="-691.5" font-family="Helvetica,sans-Serif" font-size="10.00"> </text>
</a>
</g>
<!-- Node4&#45;&gt;Node3 -->
<g id="edge6" class="edge"><title>Node4&#45;&gt;Node3</title>
<path fill="none" stroke="orange" stroke-dasharray="5,2" d="M94,-674.098C94,-661.403 94,-647.495 94,-635.726"/>
<polygon fill="orange" stroke="orange" points="90.5001,-674.403 94,-684.403 97.5001,-674.403 90.5001,-674.403"/>
<text text-anchor="middle" x="154.5" y="-657.5" font-family="Helvetica,sans-Serif" font-size="10.00">&lt; boost::shared_ptr&lt; T &gt; &gt;</text>
</g>
<!-- Node5 -->
<g id="node8" class="node"><title>Node5</title>
<polygon fill="white" stroke="#bfbfbf" points="79.5,-790.5 79.5,-847.5 108.5,-847.5 108.5,-790.5 79.5,-790.5"/>
<text text-anchor="middle" x="94" y="-835.5" font-family="Helvetica,sans-Serif" font-size="10.00">T</text>
<polyline fill="none" stroke="#bfbfbf" points="79.5,-828.5 108.5,-828.5 "/>
<text text-anchor="middle" x="94" y="-816.5" font-family="Helvetica,sans-Serif" font-size="10.00"> </text>
<polyline fill="none" stroke="#bfbfbf" points="79.5,-809.5 108.5,-809.5 "/>
<text text-anchor="middle" x="94" y="-797.5" font-family="Helvetica,sans-Serif" font-size="10.00"> </text>
</g>
<!-- Node5&#45;&gt;Node4 -->
<g id="edge8" class="edge"><title>Node5&#45;&gt;Node4</title>
<path fill="none" stroke="#9a32cd" stroke-dasharray="5,2" d="M94,-780.098C94,-767.403 94,-753.495 94,-741.726"/>
<polygon fill="#9a32cd" stroke="#9a32cd" points="94,-790.403 89.5001,-780.403 94,-785.403 94.0001,-780.403 94.0001,-780.403 94.0001,-780.403 94,-785.403 98.5001,-780.403 94,-790.403 94,-790.403"/>
<text text-anchor="middle" x="115.5" y="-763.5" font-family="Helvetica,sans-Serif" font-size="10.00">elements</text>
</g>
</g>
</svg>
