<?xml version="1.0" encoding="UTF-8" standalone="no"?>
<!DOCTYPE svg PUBLIC "-//W3C//DTD SVG 1.1//EN"
 "http://www.w3.org/Graphics/SVG/1.1/DTD/svg11.dtd">
<!-- Generated by graphviz version 2.28.0 (20110610.2051)
 -->
<!-- Title: G Pages: 1 -->
<svg width="384pt" height="66pt"
 viewBox="0.00 0.00 384.00 66.00" xmlns="http://www.w3.org/2000/svg" xmlns:xlink="http://www.w3.org/1999/xlink">
<g id="graph1" class="graph" transform="scale(1 1) rotate(0) translate(4 62)">
<title>G</title>
<polygon fill="white" stroke="white" points="-4,5 -4,-62 381,-62 381,5 -4,5"/>
<!-- Node1 -->
<g id="node1" class="node"><title>Node1</title>
<polygon fill="#bfbfbf" stroke="black" points="0.5,-19.5 0.5,-38.5 159.5,-38.5 159.5,-19.5 0.5,-19.5"/>
<text text-anchor="middle" x="80" y="-26.5" font-family="Helvetica,sans-Serif" font-size="10.00">NeuralNetwork::NeuralNetwork</text>
</g>
<!-- Node2 -->
<g id="node3" class="node"><title>Node2</title>
<a xlink:href="class_neural_factory.html#a1a02bc2427430c4085654a72a03a5f4f" target="_top" xlink:title="NeuralFactory::makeLayer">
<polygon fill="white" stroke="black" points="218,-38.5 218,-57.5 354,-57.5 354,-38.5 218,-38.5"/>
<text text-anchor="middle" x="286" y="-45.5" font-family="Helvetica,sans-Serif" font-size="10.00">NeuralFactory::makeLayer</text>
</a>
</g>
<!-- Node1&#45;&gt;Node2 -->
<g id="edge2" class="edge"><title>Node1&#45;&gt;Node2</title>
<path fill="none" stroke="midnightblue" d="M159.58,-36.3187C175.324,-37.7851 191.856,-39.3248 207.561,-40.7876"/>
<polygon fill="midnightblue" stroke="midnightblue" points="207.465,-44.2936 217.746,-41.7362 208.114,-37.3238 207.465,-44.2936"/>
</g>
<!-- Node3 -->
<g id="node5" class="node"><title>Node3</title>
<a xlink:href="class_neural_factory.html#a10b5056a57cc3fef56c66da1ad367fc7" target="_top" xlink:title="NeuralFactory::makeLayerContainer">
<polygon fill="white" stroke="black" points="196,-0.5 196,-19.5 376,-19.5 376,-0.5 196,-0.5"/>
<text text-anchor="middle" x="286" y="-7.5" font-family="Helvetica,sans-Serif" font-size="10.00">NeuralFactory::makeLayerContainer</text>
</a>
</g>
<!-- Node1&#45;&gt;Node3 -->
<g id="edge4" class="edge"><title>Node1&#45;&gt;Node3</title>
<path fill="none" stroke="midnightblue" d="M159.58,-21.6813C168.224,-20.8762 177.106,-20.049 185.958,-19.2245"/>
<polygon fill="midnightblue" stroke="midnightblue" points="186.293,-22.7086 195.925,-18.2962 185.643,-15.7387 186.293,-22.7086"/>
</g>
</g>
</svg>
