<?xml version="1.0" encoding="UTF-8" standalone="no"?>
<!DOCTYPE svg PUBLIC "-//W3C//DTD SVG 1.1//EN"
 "http://www.w3.org/Graphics/SVG/1.1/DTD/svg11.dtd">
<!-- Generated by graphviz version 2.28.0 (20110610.2051)
 -->
<!-- Title: G Pages: 1 -->
<svg width="166pt" height="172pt"
 viewBox="0.00 0.00 166.00 172.00" xmlns="http://www.w3.org/2000/svg" xmlns:xlink="http://www.w3.org/1999/xlink">
<g id="graph1" class="graph" transform="scale(1 1) rotate(0) translate(4 168)">
<title>G</title>
<polygon fill="white" stroke="white" points="-4,5 -4,-168 163,-168 163,5 -4,5"/>
<!-- Node1 -->
<g id="node1" class="node"><title>Node1</title>
<polygon fill="#bfbfbf" stroke="black" points="0,-1 0,-69 158,-69 158,-1 0,-1"/>
<text text-anchor="middle" x="79" y="-57" font-family="Helvetica,sans-Serif" font-size="10.00">BATCHgdwmTrainingVariables</text>
<polyline fill="none" stroke="black" points="0,-50 158,-50 "/>
<text text-anchor="start" x="8" y="-38" font-family="Helvetica,sans-Serif" font-size="10.00"># output</text>
<text text-anchor="start" x="8" y="-27" font-family="Helvetica,sans-Serif" font-size="10.00"># outputDerivative</text>
<polyline fill="none" stroke="black" points="0,-20 158,-20 "/>
<text text-anchor="middle" x="79" y="-8" font-family="Helvetica,sans-Serif" font-size="10.00"> </text>
</g>
<!-- Node2 -->
<g id="node2" class="node"><title>Node2</title>
<a xlink:href="class_training_variables_set.html" target="_top" xlink:title="class TrainingVariablesSet &#45;">
<polygon fill="white" stroke="black" points="23.5,-106.5 23.5,-163.5 134.5,-163.5 134.5,-106.5 23.5,-106.5"/>
<text text-anchor="middle" x="79" y="-151.5" font-family="Helvetica,sans-Serif" font-size="10.00">TrainingVariablesSet</text>
<polyline fill="none" stroke="black" points="23.5,-144.5 134.5,-144.5 "/>
<text text-anchor="middle" x="79" y="-132.5" font-family="Helvetica,sans-Serif" font-size="10.00"> </text>
<polyline fill="none" stroke="black" points="23.5,-125.5 134.5,-125.5 "/>
<text text-anchor="middle" x="79" y="-113.5" font-family="Helvetica,sans-Serif" font-size="10.00"> </text>
</a>
</g>
<!-- Node2&#45;&gt;Node1 -->
<g id="edge2" class="edge"><title>Node2&#45;&gt;Node1</title>
<path fill="none" stroke="midnightblue" d="M79,-96.3023C79,-87.3951 79,-77.9608 79,-69.2659"/>
<polygon fill="none" stroke="midnightblue" points="75.5001,-96.4407 79,-106.441 82.5001,-96.4408 75.5001,-96.4407"/>
</g>
</g>
</svg>
