<?xml version="1.0" encoding="UTF-8" standalone="no"?>
<!DOCTYPE svg PUBLIC "-//W3C//DTD SVG 1.1//EN"
 "http://www.w3.org/Graphics/SVG/1.1/DTD/svg11.dtd">
<!-- Generated by graphviz version 2.25.20091207.0545 (20091207.0545)
 -->
<!-- Title: G Pages: 1 -->
<svg width="202pt" height="66pt"
 viewBox="0.00 0.00 202.00 66.00" xmlns="http://www.w3.org/2000/svg" xmlns:xlink="http://www.w3.org/1999/xlink">
<g id="graph1" class="graph" transform="scale(1 1) rotate(0) translate(4 62)">
<title>G</title>
<polygon fill="white" stroke="white" points="-4,5 -4,-62 199,-62 199,5 -4,5"/>
<!-- Node1 -->
<g id="node1" class="node"><title>Node1</title>
<polygon fill="#bfbfbf" stroke="black" points="0,-19.5 0,-38.5 74,-38.5 74,-19.5 0,-19.5"/>
<text text-anchor="middle" x="37" y="-25.5" font-family="Helvetica,sans-Serif" font-size="10.00">Con::validate</text>
</g>
<!-- Node2 -->
<g id="node3" class="node"><title>Node2</title>
<a xlink:href="class_con.html#aad72314592bebdcae6c68a67d2b4a505" target="_top" xlink:title="A getter of the Id of the Neuron pointed by the from field.">
<polygon fill="white" stroke="black" points="110,-38.5 110,-57.5 194,-57.5 194,-38.5 110,-38.5"/>
<text text-anchor="middle" x="152" y="-44.5" font-family="Helvetica,sans-Serif" font-size="10.00">Con::getFromId</text>
</a>
</g>
<!-- Node1&#45;&gt;Node2 -->
<g id="edge2" class="edge"><title>Node1&#45;&gt;Node2</title>
<path fill="none" stroke="midnightblue" d="M74.0197,-35.1163C82.2314,-36.473 91.0841,-37.9356 99.7747,-39.3715"/>
<polygon fill="midnightblue" stroke="midnightblue" points="99.4174,-42.8598 109.854,-41.0368 100.558,-35.9534 99.4174,-42.8598"/>
</g>
<!-- Node3 -->
<g id="node5" class="node"><title>Node3</title>
<a xlink:href="class_con.html#a385c5bf6eb9e2ffc94c5b427c287ccb2" target="_top" xlink:title="weight field accessor.">
<polygon fill="white" stroke="black" points="110,-0.5 110,-19.5 194,-19.5 194,-0.5 110,-0.5"/>
<text text-anchor="middle" x="152" y="-6.5" font-family="Helvetica,sans-Serif" font-size="10.00">Con::getWeight</text>
</a>
</g>
<!-- Node1&#45;&gt;Node3 -->
<g id="edge4" class="edge"><title>Node1&#45;&gt;Node3</title>
<path fill="none" stroke="midnightblue" d="M74.0197,-22.8837C82.2314,-21.527 91.0841,-20.0644 99.7747,-18.6285"/>
<polygon fill="midnightblue" stroke="midnightblue" points="100.558,-22.0466 109.854,-16.9632 99.4174,-15.1402 100.558,-22.0466"/>
</g>
</g>
</svg>
