<?xml version="1.0" encoding="UTF-8" standalone="no"?>
<!DOCTYPE svg PUBLIC "-//W3C//DTD SVG 1.1//EN"
 "http://www.w3.org/Graphics/SVG/1.1/DTD/svg11.dtd">
<!-- Generated by graphviz version 2.25.20091207.0545 (20091207.0545)
 -->
<!-- Title: G Pages: 1 -->
<svg width="414pt" height="28pt"
 viewBox="0.00 0.00 414.00 28.00" xmlns="http://www.w3.org/2000/svg" xmlns:xlink="http://www.w3.org/1999/xlink">
<g id="graph1" class="graph" transform="scale(1 1) rotate(0) translate(4 24)">
<title>G</title>
<polygon fill="white" stroke="white" points="-4,5 -4,-24 411,-24 411,5 -4,5"/>
<!-- Node1 -->
<g id="node1" class="node"><title>Node1</title>
<polygon fill="#bfbfbf" stroke="black" points="0,-0.5 0,-19.5 106,-19.5 106,-0.5 0,-0.5"/>
<text text-anchor="middle" x="53" y="-6.5" font-family="Helvetica,sans-Serif" font-size="10.00">Neuron::numOfCons</text>
</g>
<!-- Node2 -->
<g id="node3" class="node"><title>Node2</title>
<a xlink:href="class_vec_con.html#aa9a397520b07fbeead0b6d252c1ea882" target="_top" xlink:title="Size of the VecCon object.">
<polygon fill="white" stroke="black" points="142,-0.5 142,-19.5 252,-19.5 252,-0.5 142,-0.5"/>
<text text-anchor="middle" x="197" y="-6.5" font-family="Helvetica,sans-Serif" font-size="10.00">VecCon::numOfCons</text>
</a>
</g>
<!-- Node1&#45;&gt;Node2 -->
<g id="edge2" class="edge"><title>Node1&#45;&gt;Node2</title>
<path fill="none" stroke="midnightblue" d="M106.211,-10C114.413,-10 122.965,-10 131.399,-10"/>
<polygon fill="midnightblue" stroke="midnightblue" points="131.596,-13.5001 141.596,-10 131.596,-6.5001 131.596,-13.5001"/>
</g>
<!-- Node3 -->
<g id="node5" class="node"><title>Node3</title>
<a xlink:href="class_container.html#aef8dda28fbfe205ce25ae824d84bb1c9" target="_top" xlink:title="Container\&lt; Con \&gt;::size">
<polygon fill="white" stroke="black" points="288,-0.5 288,-19.5 406,-19.5 406,-0.5 288,-0.5"/>
<text text-anchor="middle" x="347" y="-6.5" font-family="Helvetica,sans-Serif" font-size="10.00">Container&lt; Con &gt;::size</text>
</a>
</g>
<!-- Node2&#45;&gt;Node3 -->
<g id="edge4" class="edge"><title>Node2&#45;&gt;Node3</title>
<path fill="none" stroke="midnightblue" d="M252.003,-10C260.416,-10 269.192,-10 277.863,-10"/>
<polygon fill="midnightblue" stroke="midnightblue" points="277.965,-13.5001 287.965,-10 277.965,-6.5001 277.965,-13.5001"/>
</g>
</g>
</svg>
