<?xml version="1.0" encoding="UTF-8" standalone="no"?>
<!DOCTYPE svg PUBLIC "-//W3C//DTD SVG 1.1//EN"
 "http://www.w3.org/Graphics/SVG/1.1/DTD/svg11.dtd">
<!-- Generated by graphviz version 2.25.20091207.0545 (20091207.0545)
 -->
<!-- Title: G Pages: 1 -->
<svg width="438pt" height="28pt"
 viewBox="0.00 0.00 438.00 28.00" xmlns="http://www.w3.org/2000/svg" xmlns:xlink="http://www.w3.org/1999/xlink">
<g id="graph1" class="graph" transform="scale(1 1) rotate(0) translate(4 24)">
<title>G</title>
<polygon fill="white" stroke="white" points="-4,5 -4,-24 435,-24 435,5 -4,5"/>
<!-- Node1 -->
<g id="node1" class="node"><title>Node1</title>
<polygon fill="#bfbfbf" stroke="black" points="0,-0.5 0,-19.5 104,-19.5 104,-0.5 0,-0.5"/>
<text text-anchor="middle" x="52" y="-6.5" font-family="Helvetica,sans-Serif" font-size="10.00">ConContainer::getId</text>
</g>
<!-- Node2 -->
<g id="node3" class="node"><title>Node2</title>
<a xlink:href="class_con_container.html#a8895e2c10e223e9950028f595588b9fe" target="_top" xlink:title="Size of the ConContainer object.">
<polygon fill="white" stroke="black" points="140.5,-0.5 140.5,-19.5 275.5,-19.5 275.5,-0.5 140.5,-0.5"/>
<text text-anchor="middle" x="208" y="-6.5" font-family="Helvetica,sans-Serif" font-size="10.00">ConContainer::numOfCons</text>
</a>
</g>
<!-- Node1&#45;&gt;Node2 -->
<g id="edge2" class="edge"><title>Node1&#45;&gt;Node2</title>
<path fill="none" stroke="midnightblue" d="M104.38,-10C112.65,-10 121.353,-10 130.055,-10"/>
<polygon fill="midnightblue" stroke="midnightblue" points="130.244,-13.5001 140.244,-10 130.244,-6.5001 130.244,-13.5001"/>
</g>
<!-- Node3 -->
<g id="node5" class="node"><title>Node3</title>
<a xlink:href="class_container.html#a842c3d9eca81b78b59112fde9707b091" target="_top" xlink:title="Container\&lt; Con \&gt;::size">
<polygon fill="white" stroke="black" points="312,-0.5 312,-19.5 430,-19.5 430,-0.5 312,-0.5"/>
<text text-anchor="middle" x="371" y="-6.5" font-family="Helvetica,sans-Serif" font-size="10.00">Container&lt; Con &gt;::size</text>
</a>
</g>
<!-- Node2&#45;&gt;Node3 -->
<g id="edge4" class="edge"><title>Node2&#45;&gt;Node3</title>
<path fill="none" stroke="midnightblue" d="M275.711,-10C284.324,-10 293.148,-10 301.784,-10"/>
<polygon fill="midnightblue" stroke="midnightblue" points="301.812,-13.5001 311.812,-10 301.812,-6.5001 301.812,-13.5001"/>
</g>
</g>
</svg>
