<?xml version="1.0" encoding="UTF-8" standalone="no"?>
<!DOCTYPE svg PUBLIC "-//W3C//DTD SVG 1.1//EN"
 "http://www.w3.org/Graphics/SVG/1.1/DTD/svg11.dtd">
<!-- Generated by graphviz version 2.28.0 (20110610.2051)
 -->
<!-- Title: G Pages: 1 -->
<svg width="395pt" height="1398pt"
 viewBox="0.00 0.00 395.00 1398.00" xmlns="http://www.w3.org/2000/svg" xmlns:xlink="http://www.w3.org/1999/xlink">
<g id="graph1" class="graph" transform="scale(1 1) rotate(0) translate(4 1394)">
<title>G</title>
<polygon fill="white" stroke="white" points="-4,5 -4,-1394 392,-1394 392,5 -4,5"/>
<!-- Node1 -->
<g id="node1" class="node"><title>Node1</title>
<polygon fill="#bfbfbf" stroke="black" points="52,-0.5 52,-57.5 134,-57.5 134,-0.5 52,-0.5"/>
<text text-anchor="middle" x="93" y="-45.5" font-family="Helvetica,sans-Serif" font-size="10.00">MLPneuralNet</text>
<polyline fill="none" stroke="black" points="52,-38.5 134,-38.5 "/>
<text text-anchor="start" x="60" y="-26.5" font-family="Helvetica,sans-Serif" font-size="10.00">&#45; nLayers</text>
<polyline fill="none" stroke="black" points="52,-19.5 134,-19.5 "/>
<text text-anchor="middle" x="93" y="-7.5" font-family="Helvetica,sans-Serif" font-size="10.00"> </text>
</g>
<!-- Node2 -->
<g id="node2" class="node"><title>Node2</title>
<a xlink:href="class_neural_net.html" target="_top" xlink:title="{NeuralNet\n||+ train()\l}">
<polygon fill="white" stroke="black" points="28.5,-106.5 28.5,-163.5 91.5,-163.5 91.5,-106.5 28.5,-106.5"/>
<text text-anchor="middle" x="60" y="-151.5" font-family="Helvetica,sans-Serif" font-size="10.00">NeuralNet</text>
<polyline fill="none" stroke="black" points="28.5,-144.5 91.5,-144.5 "/>
<text text-anchor="middle" x="60" y="-132.5" font-family="Helvetica,sans-Serif" font-size="10.00"> </text>
<polyline fill="none" stroke="black" points="28.5,-125.5 91.5,-125.5 "/>
<text text-anchor="start" x="36.5" y="-113.5" font-family="Helvetica,sans-Serif" font-size="10.00">+ train()</text>
</a>
</g>
<!-- Node2&#45;&gt;Node1 -->
<g id="edge2" class="edge"><title>Node2&#45;&gt;Node1</title>
<path fill="none" stroke="midnightblue" d="M71.7854,-96.8581C75.8781,-83.9599 80.3933,-69.7303 84.2023,-57.726"/>
<polygon fill="none" stroke="midnightblue" points="68.4452,-95.8127 68.7568,-106.403 75.1174,-97.9299 68.4452,-95.8127"/>
</g>
<!-- Node3 -->
<g id="node4" class="node"><title>Node3</title>
<a xlink:href="class_m_l_player_container.html" target="_top" xlink:title="{MLPlayerContainer\n||}">
<polygon fill="white" stroke="black" points="110,-106.5 110,-163.5 214,-163.5 214,-106.5 110,-106.5"/>
<text text-anchor="middle" x="162" y="-151.5" font-family="Helvetica,sans-Serif" font-size="10.00">MLPlayerContainer</text>
<polyline fill="none" stroke="black" points="110,-144.5 214,-144.5 "/>
<text text-anchor="middle" x="162" y="-132.5" font-family="Helvetica,sans-Serif" font-size="10.00"> </text>
<polyline fill="none" stroke="black" points="110,-125.5 214,-125.5 "/>
<text text-anchor="middle" x="162" y="-113.5" font-family="Helvetica,sans-Serif" font-size="10.00"> </text>
</a>
</g>
<!-- Node3&#45;&gt;Node1 -->
<g id="edge4" class="edge"><title>Node3&#45;&gt;Node1</title>
<path fill="none" stroke="#9a32cd" stroke-dasharray="5,2" d="M138.11,-97.9926C129.357,-84.7989 119.594,-70.0834 111.395,-57.726"/>
<polygon fill="#9a32cd" stroke="#9a32cd" points="143.69,-106.403 134.412,-100.558 140.926,-102.237 138.162,-98.0701 138.162,-98.0701 138.162,-98.0701 140.926,-102.237 141.912,-95.5823 143.69,-106.403 143.69,-106.403"/>
<text text-anchor="middle" x="147.5" y="-79.5" font-family="Helvetica,sans-Serif" font-size="10.00">nLayers</text>
</g>
<!-- Node4 -->
<g id="node6" class="node"><title>Node4</title>
<a xlink:href="class_container.html" target="_top" xlink:title="{Container\&lt; MLPlayer \&gt;\n|# collection\l|+ Container()\l+ Container()\l+ Container()\l+ Container()\l+ buildAndAppend()\l+ push_back()\l+ push_back()\l+ erase()\l+ begin()\l+ begin()\l+ end()\l+ end()\l+ reserve()\l+ reserve()\l+ resize()\l+ resize()\l+ empty()\l+ empty()\l+ size()\l+ size()\l+ clear()\l+ clear()\l+ insert()\l+ show()\l+ show()\l+ validate()\l+ validate()\l+ load()\l+ store()\l+ append()\l+ operator[]()\l}">
<polygon fill="white" stroke="black" points="102,-202.5 102,-589.5 222,-589.5 222,-202.5 102,-202.5"/>
<text text-anchor="middle" x="162" y="-577.5" font-family="Helvetica,sans-Serif" font-size="10.00">Container&lt; MLPlayer &gt;</text>
<polyline fill="none" stroke="black" points="102,-570.5 222,-570.5 "/>
<text text-anchor="start" x="110" y="-558.5" font-family="Helvetica,sans-Serif" font-size="10.00"># collection</text>
<polyline fill="none" stroke="black" points="102,-551.5 222,-551.5 "/>
<text text-anchor="start" x="110" y="-539.5" font-family="Helvetica,sans-Serif" font-size="10.00">+ Container()</text>
<text text-anchor="start" x="110" y="-528.5" font-family="Helvetica,sans-Serif" font-size="10.00">+ Container()</text>
<text text-anchor="start" x="110" y="-517.5" font-family="Helvetica,sans-Serif" font-size="10.00">+ Container()</text>
<text text-anchor="start" x="110" y="-506.5" font-family="Helvetica,sans-Serif" font-size="10.00">+ Container()</text>
<text text-anchor="start" x="110" y="-495.5" font-family="Helvetica,sans-Serif" font-size="10.00">+ buildAndAppend()</text>
<text text-anchor="start" x="110" y="-484.5" font-family="Helvetica,sans-Serif" font-size="10.00">+ push_back()</text>
<text text-anchor="start" x="110" y="-473.5" font-family="Helvetica,sans-Serif" font-size="10.00">+ push_back()</text>
<text text-anchor="start" x="110" y="-462.5" font-family="Helvetica,sans-Serif" font-size="10.00">+ erase()</text>
<text text-anchor="start" x="110" y="-451.5" font-family="Helvetica,sans-Serif" font-size="10.00">+ begin()</text>
<text text-anchor="start" x="110" y="-440.5" font-family="Helvetica,sans-Serif" font-size="10.00">+ begin()</text>
<text text-anchor="start" x="110" y="-429.5" font-family="Helvetica,sans-Serif" font-size="10.00">+ end()</text>
<text text-anchor="start" x="110" y="-418.5" font-family="Helvetica,sans-Serif" font-size="10.00">+ end()</text>
<text text-anchor="start" x="110" y="-407.5" font-family="Helvetica,sans-Serif" font-size="10.00">+ reserve()</text>
<text text-anchor="start" x="110" y="-396.5" font-family="Helvetica,sans-Serif" font-size="10.00">+ reserve()</text>
<text text-anchor="start" x="110" y="-385.5" font-family="Helvetica,sans-Serif" font-size="10.00">+ resize()</text>
<text text-anchor="start" x="110" y="-374.5" font-family="Helvetica,sans-Serif" font-size="10.00">+ resize()</text>
<text text-anchor="start" x="110" y="-363.5" font-family="Helvetica,sans-Serif" font-size="10.00">+ empty()</text>
<text text-anchor="start" x="110" y="-352.5" font-family="Helvetica,sans-Serif" font-size="10.00">+ empty()</text>
<text text-anchor="start" x="110" y="-341.5" font-family="Helvetica,sans-Serif" font-size="10.00">+ size()</text>
<text text-anchor="start" x="110" y="-330.5" font-family="Helvetica,sans-Serif" font-size="10.00">+ size()</text>
<text text-anchor="start" x="110" y="-319.5" font-family="Helvetica,sans-Serif" font-size="10.00">+ clear()</text>
<text text-anchor="start" x="110" y="-308.5" font-family="Helvetica,sans-Serif" font-size="10.00">+ clear()</text>
<text text-anchor="start" x="110" y="-297.5" font-family="Helvetica,sans-Serif" font-size="10.00">+ insert()</text>
<text text-anchor="start" x="110" y="-286.5" font-family="Helvetica,sans-Serif" font-size="10.00">+ show()</text>
<text text-anchor="start" x="110" y="-275.5" font-family="Helvetica,sans-Serif" font-size="10.00">+ show()</text>
<text text-anchor="start" x="110" y="-264.5" font-family="Helvetica,sans-Serif" font-size="10.00">+ validate()</text>
<text text-anchor="start" x="110" y="-253.5" font-family="Helvetica,sans-Serif" font-size="10.00">+ validate()</text>
<text text-anchor="start" x="110" y="-242.5" font-family="Helvetica,sans-Serif" font-size="10.00">+ load()</text>
<text text-anchor="start" x="110" y="-231.5" font-family="Helvetica,sans-Serif" font-size="10.00">+ store()</text>
<text text-anchor="start" x="110" y="-220.5" font-family="Helvetica,sans-Serif" font-size="10.00">+ append()</text>
<text text-anchor="start" x="110" y="-209.5" font-family="Helvetica,sans-Serif" font-size="10.00">+ operator[]()</text>
</a>
</g>
<!-- Node4&#45;&gt;Node3 -->
<g id="edge6" class="edge"><title>Node4&#45;&gt;Node3</title>
<path fill="none" stroke="midnightblue" d="M162,-192.287C162,-181.603 162,-171.909 162,-163.694"/>
<polygon fill="none" stroke="midnightblue" points="158.5,-192.363 162,-202.363 165.5,-192.363 158.5,-192.363"/>
</g>
<!-- Node5 -->
<g id="node8" class="node"><title>Node5</title>
<polygon fill="white" stroke="#bfbfbf" points="0,-1044.5 0,-1101.5 224,-1101.5 224,-1044.5 0,-1044.5"/>
<text text-anchor="middle" x="112" y="-1089.5" font-family="Helvetica,sans-Serif" font-size="10.00">std::vector&lt; boost::shared_ptr&lt; MLPlayer &gt; &gt;</text>
<polyline fill="none" stroke="#bfbfbf" points="0,-1082.5 224,-1082.5 "/>
<text text-anchor="start" x="8" y="-1070.5" font-family="Helvetica,sans-Serif" font-size="10.00">&#45; elements</text>
<polyline fill="none" stroke="#bfbfbf" points="0,-1063.5 224,-1063.5 "/>
<text text-anchor="middle" x="112" y="-1051.5" font-family="Helvetica,sans-Serif" font-size="10.00"> </text>
</g>
<!-- Node5&#45;&gt;Node4 -->
<g id="edge8" class="edge"><title>Node5&#45;&gt;Node4</title>
<path fill="none" stroke="#9a32cd" stroke-dasharray="5,2" d="M113.778,-1033.88C117.414,-958.3 126.352,-784.123 138,-638 139.253,-622.282 140.654,-605.998 142.132,-589.65"/>
<polygon fill="#9a32cd" stroke="#9a32cd" points="113.28,-1044.3 109.262,-1034.1 113.518,-1039.31 113.757,-1034.31 113.757,-1034.31 113.757,-1034.31 113.518,-1039.31 118.252,-1034.53 113.28,-1044.3 113.28,-1044.3"/>
<text text-anchor="middle" x="160.5" y="-829.5" font-family="Helvetica,sans-Serif" font-size="10.00">collection</text>
</g>
<!-- Node6 -->
<g id="node10" class="node"><title>Node6</title>
<a xlink:title="STL class.">
<polygon fill="white" stroke="#bfbfbf" points="146.5,-1226.5 146.5,-1283.5 235.5,-1283.5 235.5,-1226.5 146.5,-1226.5"/>
<text text-anchor="middle" x="191" y="-1271.5" font-family="Helvetica,sans-Serif" font-size="10.00">std::vector&lt; T &gt;</text>
<polyline fill="none" stroke="#bfbfbf" points="146.5,-1264.5 235.5,-1264.5 "/>
<text text-anchor="start" x="154.5" y="-1252.5" font-family="Helvetica,sans-Serif" font-size="10.00">&#45; elements</text>
<polyline fill="none" stroke="#bfbfbf" points="146.5,-1245.5 235.5,-1245.5 "/>
<text text-anchor="middle" x="191" y="-1233.5" font-family="Helvetica,sans-Serif" font-size="10.00"> </text>
</a>
</g>
<!-- Node6&#45;&gt;Node5 -->
<g id="edge10" class="edge"><title>Node6&#45;&gt;Node5</title>
<path fill="none" stroke="orange" stroke-dasharray="5,2" d="M136.934,-1239.24C121.711,-1232.32 106.893,-1222.32 98,-1208 77.9475,-1175.71 88.9933,-1130.42 99.7368,-1101.65"/>
<polygon fill="orange" stroke="orange" points="135.837,-1242.57 146.416,-1243.16 138.514,-1236.1 135.837,-1242.57"/>
<text text-anchor="middle" x="177" y="-1199.5" font-family="Helvetica,sans-Serif" font-size="10.00">&lt; boost::shared_ptr&lt; MLPlayer &gt; &gt;</text>
</g>
<!-- Node9 -->
<g id="node16" class="node"><title>Node9</title>
<polygon fill="white" stroke="#bfbfbf" points="182,-1120.5 182,-1177.5 370,-1177.5 370,-1120.5 182,-1120.5"/>
<text text-anchor="middle" x="276" y="-1165.5" font-family="Helvetica,sans-Serif" font-size="10.00">std::vector&lt; boost::shared_ptr&lt; T &gt; &gt;</text>
<polyline fill="none" stroke="#bfbfbf" points="182,-1158.5 370,-1158.5 "/>
<text text-anchor="start" x="190" y="-1146.5" font-family="Helvetica,sans-Serif" font-size="10.00">&#45; elements</text>
<polyline fill="none" stroke="#bfbfbf" points="182,-1139.5 370,-1139.5 "/>
<text text-anchor="middle" x="276" y="-1127.5" font-family="Helvetica,sans-Serif" font-size="10.00"> </text>
</g>
<!-- Node6&#45;&gt;Node9 -->
<g id="edge18" class="edge"><title>Node6&#45;&gt;Node9</title>
<path fill="none" stroke="orange" stroke-dasharray="5,2" d="M243.529,-1225.08C249.712,-1220.02 255.433,-1214.32 260,-1208 266.365,-1199.2 270.199,-1187.97 272.508,-1177.75"/>
<polygon fill="orange" stroke="orange" points="241.364,-1222.33 235.502,-1231.16 245.588,-1227.92 241.364,-1222.33"/>
<text text-anchor="middle" x="326.5" y="-1199.5" font-family="Helvetica,sans-Serif" font-size="10.00">&lt; boost::shared_ptr&lt; T &gt; &gt;</text>
</g>
<!-- Node7 -->
<g id="node12" class="node"><title>Node7</title>
<polygon fill="white" stroke="#bfbfbf" points="176.5,-1332.5 176.5,-1389.5 205.5,-1389.5 205.5,-1332.5 176.5,-1332.5"/>
<text text-anchor="middle" x="191" y="-1377.5" font-family="Helvetica,sans-Serif" font-size="10.00">T</text>
<polyline fill="none" stroke="#bfbfbf" points="176.5,-1370.5 205.5,-1370.5 "/>
<text text-anchor="middle" x="191" y="-1358.5" font-family="Helvetica,sans-Serif" font-size="10.00"> </text>
<polyline fill="none" stroke="#bfbfbf" points="176.5,-1351.5 205.5,-1351.5 "/>
<text text-anchor="middle" x="191" y="-1339.5" font-family="Helvetica,sans-Serif" font-size="10.00"> </text>
</g>
<!-- Node7&#45;&gt;Node6 -->
<g id="edge12" class="edge"><title>Node7&#45;&gt;Node6</title>
<path fill="none" stroke="#9a32cd" stroke-dasharray="5,2" d="M191,-1322.1C191,-1309.4 191,-1295.49 191,-1283.73"/>
<polygon fill="#9a32cd" stroke="#9a32cd" points="191,-1332.4 186.5,-1322.4 191,-1327.4 191,-1322.4 191,-1322.4 191,-1322.4 191,-1327.4 195.5,-1322.4 191,-1332.4 191,-1332.4"/>
<text text-anchor="middle" x="212.5" y="-1305.5" font-family="Helvetica,sans-Serif" font-size="10.00">elements</text>
</g>
<!-- Node8 -->
<g id="node14" class="node"><title>Node8</title>
<a xlink:href="class_container.html" target="_top" xlink:title="class Container &#45;">
<polygon fill="white" stroke="black" points="192,-638.5 192,-1025.5 302,-1025.5 302,-638.5 192,-638.5"/>
<text text-anchor="middle" x="247" y="-1013.5" font-family="Helvetica,sans-Serif" font-size="10.00">Container&lt; T &gt;</text>
<polyline fill="none" stroke="black" points="192,-1006.5 302,-1006.5 "/>
<text text-anchor="start" x="200" y="-994.5" font-family="Helvetica,sans-Serif" font-size="10.00"># collection</text>
<polyline fill="none" stroke="black" points="192,-987.5 302,-987.5 "/>
<text text-anchor="start" x="200" y="-975.5" font-family="Helvetica,sans-Serif" font-size="10.00">+ Container()</text>
<text text-anchor="start" x="200" y="-964.5" font-family="Helvetica,sans-Serif" font-size="10.00">+ Container()</text>
<text text-anchor="start" x="200" y="-953.5" font-family="Helvetica,sans-Serif" font-size="10.00">+ buildAndAppend()</text>
<text text-anchor="start" x="200" y="-942.5" font-family="Helvetica,sans-Serif" font-size="10.00">+ push_back()</text>
<text text-anchor="start" x="200" y="-931.5" font-family="Helvetica,sans-Serif" font-size="10.00">+ erase()</text>
<text text-anchor="start" x="200" y="-920.5" font-family="Helvetica,sans-Serif" font-size="10.00">+ begin()</text>
<text text-anchor="start" x="200" y="-909.5" font-family="Helvetica,sans-Serif" font-size="10.00">+ end()</text>
<text text-anchor="start" x="200" y="-898.5" font-family="Helvetica,sans-Serif" font-size="10.00">+ reserve()</text>
<text text-anchor="start" x="200" y="-887.5" font-family="Helvetica,sans-Serif" font-size="10.00">+ resize()</text>
<text text-anchor="start" x="200" y="-876.5" font-family="Helvetica,sans-Serif" font-size="10.00">+ empty()</text>
<text text-anchor="start" x="200" y="-865.5" font-family="Helvetica,sans-Serif" font-size="10.00">+ size()</text>
<text text-anchor="start" x="200" y="-854.5" font-family="Helvetica,sans-Serif" font-size="10.00">+ clear()</text>
<text text-anchor="start" x="200" y="-843.5" font-family="Helvetica,sans-Serif" font-size="10.00">+ insert()</text>
<text text-anchor="start" x="200" y="-832.5" font-family="Helvetica,sans-Serif" font-size="10.00">+ show()</text>
<text text-anchor="start" x="200" y="-821.5" font-family="Helvetica,sans-Serif" font-size="10.00">+ validate()</text>
<text text-anchor="start" x="200" y="-810.5" font-family="Helvetica,sans-Serif" font-size="10.00">+ Container()</text>
<text text-anchor="start" x="200" y="-799.5" font-family="Helvetica,sans-Serif" font-size="10.00">+ Container()</text>
<text text-anchor="start" x="200" y="-788.5" font-family="Helvetica,sans-Serif" font-size="10.00">+ begin()</text>
<text text-anchor="start" x="200" y="-777.5" font-family="Helvetica,sans-Serif" font-size="10.00">+ end()</text>
<text text-anchor="start" x="200" y="-766.5" font-family="Helvetica,sans-Serif" font-size="10.00">+ load()</text>
<text text-anchor="start" x="200" y="-755.5" font-family="Helvetica,sans-Serif" font-size="10.00">+ store()</text>
<text text-anchor="start" x="200" y="-744.5" font-family="Helvetica,sans-Serif" font-size="10.00">+ size()</text>
<text text-anchor="start" x="200" y="-733.5" font-family="Helvetica,sans-Serif" font-size="10.00">+ push_back()</text>
<text text-anchor="start" x="200" y="-722.5" font-family="Helvetica,sans-Serif" font-size="10.00">+ append()</text>
<text text-anchor="start" x="200" y="-711.5" font-family="Helvetica,sans-Serif" font-size="10.00">+ show()</text>
<text text-anchor="start" x="200" y="-700.5" font-family="Helvetica,sans-Serif" font-size="10.00">+ validate()</text>
<text text-anchor="start" x="200" y="-689.5" font-family="Helvetica,sans-Serif" font-size="10.00">+ reserve()</text>
<text text-anchor="start" x="200" y="-678.5" font-family="Helvetica,sans-Serif" font-size="10.00">+ resize()</text>
<text text-anchor="start" x="200" y="-667.5" font-family="Helvetica,sans-Serif" font-size="10.00">+ empty()</text>
<text text-anchor="start" x="200" y="-656.5" font-family="Helvetica,sans-Serif" font-size="10.00">+ clear()</text>
<text text-anchor="start" x="200" y="-645.5" font-family="Helvetica,sans-Serif" font-size="10.00">+ operator[]()</text>
</a>
</g>
<!-- Node8&#45;&gt;Node4 -->
<g id="edge14" class="edge"><title>Node8&#45;&gt;Node4</title>
<path fill="none" stroke="orange" stroke-dasharray="5,2" d="M207.347,-628.539C204.81,-615.583 202.259,-602.557 199.731,-589.648"/>
<polygon fill="orange" stroke="orange" points="203.928,-629.289 209.285,-638.43 210.797,-627.944 203.928,-629.289"/>
<text text-anchor="middle" x="234" y="-611.5" font-family="Helvetica,sans-Serif" font-size="10.00">&lt; MLPlayer &gt;</text>
</g>
<!-- Node9&#45;&gt;Node8 -->
<g id="edge16" class="edge"><title>Node9&#45;&gt;Node8</title>
<path fill="none" stroke="#9a32cd" stroke-dasharray="5,2" d="M272.532,-1110.33C270.475,-1087.99 267.696,-1057.8 264.726,-1025.54"/>
<polygon fill="#9a32cd" stroke="#9a32cd" points="273.452,-1120.32 268.054,-1110.78 272.993,-1115.34 272.535,-1110.36 272.535,-1110.36 272.535,-1110.36 272.993,-1115.34 277.016,-1109.95 273.452,-1120.32 273.452,-1120.32"/>
<text text-anchor="middle" x="293.5" y="-1070.5" font-family="Helvetica,sans-Serif" font-size="10.00">collection</text>
</g>
</g>
</svg>
