<?xml version="1.0" encoding="UTF-8" standalone="no"?>
<!DOCTYPE svg PUBLIC "-//W3C//DTD SVG 1.1//EN"
 "http://www.w3.org/Graphics/SVG/1.1/DTD/svg11.dtd">
<!-- Generated by graphviz version 2.25.20091207.0545 (20091207.0545)
 -->
<!-- Title: G Pages: 1 -->
<svg width="440pt" height="28pt"
 viewBox="0.00 0.00 440.00 28.00" xmlns="http://www.w3.org/2000/svg" xmlns:xlink="http://www.w3.org/1999/xlink">
<g id="graph1" class="graph" transform="scale(1 1) rotate(0) translate(4 24)">
<title>G</title>
<polygon fill="white" stroke="white" points="-4,5 -4,-24 437,-24 437,5 -4,5"/>
<!-- Node1 -->
<g id="node1" class="node"><title>Node1</title>
<polygon fill="#bfbfbf" stroke="black" points="0,-0.5 0,-19.5 106,-19.5 106,-0.5 0,-0.5"/>
<text text-anchor="middle" x="53" y="-6.5" font-family="Helvetica,sans-Serif" font-size="10.00">Neuron::numOfCons</text>
</g>
<!-- Node2 -->
<g id="node3" class="node"><title>Node2</title>
<a xlink:href="class_con_container.html#a8895e2c10e223e9950028f595588b9fe" target="_top" xlink:title="Size of the ConContainer object.">
<polygon fill="white" stroke="black" points="142.5,-0.5 142.5,-19.5 277.5,-19.5 277.5,-0.5 142.5,-0.5"/>
<text text-anchor="middle" x="210" y="-6.5" font-family="Helvetica,sans-Serif" font-size="10.00">ConContainer::numOfCons</text>
</a>
</g>
<!-- Node1&#45;&gt;Node2 -->
<g id="edge2" class="edge"><title>Node1&#45;&gt;Node2</title>
<path fill="none" stroke="midnightblue" d="M106.153,-10C114.62,-10 123.528,-10 132.42,-10"/>
<polygon fill="midnightblue" stroke="midnightblue" points="132.428,-13.5001 142.428,-10 132.428,-6.5001 132.428,-13.5001"/>
</g>
<!-- Node3 -->
<g id="node5" class="node"><title>Node3</title>
<a xlink:href="class_container.html#a842c3d9eca81b78b59112fde9707b091" target="_top" xlink:title="Container\&lt; Con \&gt;::size">
<polygon fill="white" stroke="black" points="314,-0.5 314,-19.5 432,-19.5 432,-0.5 314,-0.5"/>
<text text-anchor="middle" x="373" y="-6.5" font-family="Helvetica,sans-Serif" font-size="10.00">Container&lt; Con &gt;::size</text>
</a>
</g>
<!-- Node2&#45;&gt;Node3 -->
<g id="edge4" class="edge"><title>Node2&#45;&gt;Node3</title>
<path fill="none" stroke="midnightblue" d="M277.711,-10C286.324,-10 295.148,-10 303.784,-10"/>
<polygon fill="midnightblue" stroke="midnightblue" points="303.812,-13.5001 313.812,-10 303.812,-6.5001 303.812,-13.5001"/>
</g>
</g>
</svg>
