<?xml version="1.0" encoding="UTF-8" standalone="no"?>
<!DOCTYPE svg PUBLIC "-//W3C//DTD SVG 1.1//EN"
 "http://www.w3.org/Graphics/SVG/1.1/DTD/svg11.dtd">
<!-- Generated by graphviz version 2.25.20091207.0545 (20091207.0545)
 -->
<!-- Title: G Pages: 1 -->
<svg width="337pt" height="702pt"
 viewBox="0.00 0.00 337.00 702.00" xmlns="http://www.w3.org/2000/svg" xmlns:xlink="http://www.w3.org/1999/xlink">
<g id="graph1" class="graph" transform="scale(1 1) rotate(0) translate(4 698)">
<title>G</title>
<polygon fill="white" stroke="white" points="-4,5 -4,-698 334,-698 334,5 -4,5"/>
<!-- Node1 -->
<g id="node1" class="node"><title>Node1</title>
<polygon fill="#bfbfbf" stroke="black" points="212,-1 212,-69 296,-69 296,-1 212,-1"/>
<text text-anchor="middle" x="254" y="-56" font-family="Helvetica,sans-Serif" font-size="10.00">vecCon</text>
<polyline fill="none" stroke="black" points="212,-50 296,-50 "/>
<text text-anchor="middle" x="254" y="-37" font-family="Helvetica,sans-Serif" font-size="10.00"> </text>
<polyline fill="none" stroke="black" points="212,-31 296,-31 "/>
<text text-anchor="start" x="220" y="-18" font-family="Helvetica,sans-Serif" font-size="10.00">+ numOfCons()</text>
<text text-anchor="start" x="220" y="-7" font-family="Helvetica,sans-Serif" font-size="10.00">+ getFromId()</text>
</g>
<!-- Node2 -->
<g id="node2" class="node"><title>Node2</title>
<a xlink:href="classvec_a_m_o_r_e.html" target="_top" xlink:title="{vecAMORE\&lt; Con \&gt;\n|# ldata\l|+ getLdata()\l+ setLdata()\l+ size()\l+ push_back()\l+ append()\l+ show()\l+ validate()\l}">
<polygon fill="white" stroke="black" points="201.5,-108.5 201.5,-231.5 306.5,-231.5 306.5,-108.5 201.5,-108.5"/>
<text text-anchor="middle" x="254" y="-218.5" font-family="Helvetica,sans-Serif" font-size="10.00">vecAMORE&lt; Con &gt;</text>
<polyline fill="none" stroke="black" points="201.5,-212.5 306.5,-212.5 "/>
<text text-anchor="start" x="209.5" y="-199.5" font-family="Helvetica,sans-Serif" font-size="10.00"># ldata</text>
<polyline fill="none" stroke="black" points="201.5,-193.5 306.5,-193.5 "/>
<text text-anchor="start" x="209.5" y="-180.5" font-family="Helvetica,sans-Serif" font-size="10.00">+ getLdata()</text>
<text text-anchor="start" x="209.5" y="-169.5" font-family="Helvetica,sans-Serif" font-size="10.00">+ setLdata()</text>
<text text-anchor="start" x="209.5" y="-158.5" font-family="Helvetica,sans-Serif" font-size="10.00">+ size()</text>
<text text-anchor="start" x="209.5" y="-147.5" font-family="Helvetica,sans-Serif" font-size="10.00">+ push_back()</text>
<text text-anchor="start" x="209.5" y="-136.5" font-family="Helvetica,sans-Serif" font-size="10.00">+ append()</text>
<text text-anchor="start" x="209.5" y="-125.5" font-family="Helvetica,sans-Serif" font-size="10.00">+ show()</text>
<text text-anchor="start" x="209.5" y="-114.5" font-family="Helvetica,sans-Serif" font-size="10.00">+ validate()</text>
</a>
</g>
<!-- Node2&#45;&gt;Node1 -->
<g id="edge2" class="edge"><title>Node2&#45;&gt;Node1</title>
<path fill="none" stroke="midnightblue" d="M254,-98.282C254,-88.1466 254,-78.1385 254,-69.1766"/>
<polygon fill="none" stroke="midnightblue" points="250.5,-98.4258 254,-108.426 257.5,-98.4259 250.5,-98.4258"/>
</g>
<!-- Node3 -->
<g id="node4" class="node"><title>Node3</title>
<polygon fill="white" stroke="#bfbfbf" points="120.5,-313.5 120.5,-370.5 219.5,-370.5 219.5,-313.5 120.5,-313.5"/>
<text text-anchor="middle" x="170" y="-357.5" font-family="Helvetica,sans-Serif" font-size="10.00">std::vector&lt; Con &gt;</text>
<polyline fill="none" stroke="#bfbfbf" points="120.5,-351.5 219.5,-351.5 "/>
<text text-anchor="start" x="128.5" y="-338.5" font-family="Helvetica,sans-Serif" font-size="10.00">&#45; elements</text>
<polyline fill="none" stroke="#bfbfbf" points="120.5,-332.5 219.5,-332.5 "/>
<text text-anchor="middle" x="170" y="-319.5" font-family="Helvetica,sans-Serif" font-size="10.00"> </text>
</g>
<!-- Node3&#45;&gt;Node2 -->
<g id="edge4" class="edge"><title>Node3&#45;&gt;Node2</title>
<path fill="none" stroke="#9a32cd" stroke-dasharray="5,2" d="M188.463,-304.195C198.829,-282.968 212.021,-255.956 223.848,-231.739"/>
<polygon fill="#9a32cd" stroke="#9a32cd" points="184.06,-313.211 184.405,-302.251 186.254,-308.718 188.448,-304.225 188.448,-304.225 188.448,-304.225 186.254,-308.718 192.492,-306.2 184.06,-313.211 184.06,-313.211"/>
<text text-anchor="middle" x="225.5" y="-252.5" font-family="Helvetica,sans-Serif" font-size="10.00">ldata</text>
</g>
<!-- Node4 -->
<g id="node6" class="node"><title>Node4</title>
<a xlink:href="class_con.html" target="_top" xlink:title="A class to handle the information needed to describe an input connection.">
<polygon fill="white" stroke="black" points="28.5,-453 28.5,-587 127.5,-587 127.5,-453 28.5,-453"/>
<text text-anchor="middle" x="78" y="-574" font-family="Helvetica,sans-Serif" font-size="10.00">Con</text>
<polyline fill="none" stroke="black" points="28.5,-568 127.5,-568 "/>
<text text-anchor="start" x="36.5" y="-555" font-family="Helvetica,sans-Serif" font-size="10.00">&#45; from</text>
<text text-anchor="start" x="36.5" y="-544" font-family="Helvetica,sans-Serif" font-size="10.00">&#45; weight</text>
<polyline fill="none" stroke="black" points="28.5,-538 127.5,-538 "/>
<text text-anchor="start" x="36.5" y="-525" font-family="Helvetica,sans-Serif" font-size="10.00">+ getFromNeuron()</text>
<text text-anchor="start" x="36.5" y="-514" font-family="Helvetica,sans-Serif" font-size="10.00">+ setFromNeuron()</text>
<text text-anchor="start" x="36.5" y="-503" font-family="Helvetica,sans-Serif" font-size="10.00">+ getFromId()</text>
<text text-anchor="start" x="36.5" y="-492" font-family="Helvetica,sans-Serif" font-size="10.00">+ getWeight()</text>
<text text-anchor="start" x="36.5" y="-481" font-family="Helvetica,sans-Serif" font-size="10.00">+ setWeight()</text>
<text text-anchor="start" x="36.5" y="-470" font-family="Helvetica,sans-Serif" font-size="10.00">+ show()</text>
<text text-anchor="start" x="36.5" y="-459" font-family="Helvetica,sans-Serif" font-size="10.00">+ validate()</text>
</a>
</g>
<!-- Node4&#45;&gt;Node3 -->
<g id="edge6" class="edge"><title>Node4&#45;&gt;Node3</title>
<path fill="none" stroke="#9a32cd" stroke-dasharray="5,2" d="M117.339,-443.888C130.707,-418.024 144.841,-390.677 155.097,-370.834"/>
<polygon fill="#9a32cd" stroke="#9a32cd" points="112.65,-452.959 113.244,-442.01 114.946,-448.518 117.242,-444.076 117.242,-444.076 117.242,-444.076 114.946,-448.518 121.239,-446.142 112.65,-452.959 112.65,-452.959"/>
<text text-anchor="middle" x="147" y="-424.5" font-family="Helvetica,sans-Serif" font-size="10.00">elements</text>
</g>
<!-- Node5 -->
<g id="node8" class="node"><title>Node5</title>
<a xlink:href="class_neuron.html" target="_top" xlink:title="A class to handle the information contained in a general Neuron.">
<polygon fill="white" stroke="black" points="0,-297 0,-387 74,-387 74,-297 0,-297"/>
<text text-anchor="middle" x="37" y="-374" font-family="Helvetica,sans-Serif" font-size="10.00">Neuron</text>
<polyline fill="none" stroke="black" points="0,-368 74,-368 "/>
<text text-anchor="start" x="8" y="-355" font-family="Helvetica,sans-Serif" font-size="10.00">&#45; Id</text>
<text text-anchor="start" x="8" y="-344" font-family="Helvetica,sans-Serif" font-size="10.00">&#45; vecCon</text>
<text text-anchor="start" x="8" y="-333" font-family="Helvetica,sans-Serif" font-size="10.00">&#45; outputValue</text>
<polyline fill="none" stroke="black" points="0,-327 74,-327 "/>
<text text-anchor="start" x="8" y="-314" font-family="Helvetica,sans-Serif" font-size="10.00">+ getId()</text>
<text text-anchor="start" x="8" y="-303" font-family="Helvetica,sans-Serif" font-size="10.00">+ setId()</text>
</a>
</g>
<!-- Node4&#45;&gt;Node5 -->
<g id="edge10" class="edge"><title>Node4&#45;&gt;Node5</title>
<path fill="none" stroke="#9a32cd" stroke-dasharray="5,2" d="M23.951,-447.084C22.0394,-442.773 20.364,-438.399 19,-434 14.3731,-419.077 15.7476,-402.408 19.2731,-387.402"/>
<polygon fill="#9a32cd" stroke="#9a32cd" points="28.4836,-456.404 20.0632,-449.379 26.2968,-451.907 24.11,-447.411 24.11,-447.411 24.11,-447.411 26.2968,-451.907 28.1568,-445.443 28.4836,-456.404 28.4836,-456.404"/>
<text text-anchor="middle" x="36" y="-424.5" font-family="Helvetica,sans-Serif" font-size="10.00">vecCon</text>
</g>
<!-- Node5&#45;&gt;Node4 -->
<g id="edge8" class="edge"><title>Node5&#45;&gt;Node4</title>
<path fill="none" stroke="#9a32cd" stroke-dasharray="5,2" d="M50.9934,-396.931C53.0542,-405.317 55.1158,-413.881 57,-422 59.3208,-432 61.6873,-442.596 63.9551,-452.983"/>
<polygon fill="#9a32cd" stroke="#9a32cd" points="48.5852,-387.205 55.3569,-395.83 49.787,-392.059 50.9888,-396.912 50.9888,-396.912 50.9888,-396.912 49.787,-392.059 46.6207,-397.994 48.5852,-387.205 48.5852,-387.205"/>
<text text-anchor="middle" x="70" y="-424.5" font-family="Helvetica,sans-Serif" font-size="10.00">from</text>
</g>
<!-- Node6 -->
<g id="node11" class="node"><title>Node6</title>
<a xlink:title="STL class.">
<polygon fill="white" stroke="#bfbfbf" points="144.5,-491.5 144.5,-548.5 231.5,-548.5 231.5,-491.5 144.5,-491.5"/>
<text text-anchor="middle" x="188" y="-535.5" font-family="Helvetica,sans-Serif" font-size="10.00">std::vector&lt; T &gt;</text>
<polyline fill="none" stroke="#bfbfbf" points="144.5,-529.5 231.5,-529.5 "/>
<text text-anchor="start" x="152.5" y="-516.5" font-family="Helvetica,sans-Serif" font-size="10.00">&#45; elements</text>
<polyline fill="none" stroke="#bfbfbf" points="144.5,-510.5 231.5,-510.5 "/>
<text text-anchor="middle" x="188" y="-497.5" font-family="Helvetica,sans-Serif" font-size="10.00"> </text>
</a>
</g>
<!-- Node6&#45;&gt;Node3 -->
<g id="edge12" class="edge"><title>Node6&#45;&gt;Node3</title>
<path fill="none" stroke="orange" stroke-dasharray="5,2" d="M184.066,-481.101C180.694,-447.749 175.913,-400.473 172.885,-370.528"/>
<polygon fill="orange" stroke="orange" points="180.62,-481.804 185.108,-491.401 187.584,-481.1 180.62,-481.804"/>
<text text-anchor="middle" x="197" y="-424.5" font-family="Helvetica,sans-Serif" font-size="10.00">&lt; Con &gt;</text>
</g>
<!-- Node7 -->
<g id="node13" class="node"><title>Node7</title>
<polygon fill="white" stroke="#bfbfbf" points="173.5,-636.5 173.5,-693.5 202.5,-693.5 202.5,-636.5 173.5,-636.5"/>
<text text-anchor="middle" x="188" y="-680.5" font-family="Helvetica,sans-Serif" font-size="10.00">T</text>
<polyline fill="none" stroke="#bfbfbf" points="173.5,-674.5 202.5,-674.5 "/>
<text text-anchor="middle" x="188" y="-661.5" font-family="Helvetica,sans-Serif" font-size="10.00"> </text>
<polyline fill="none" stroke="#bfbfbf" points="173.5,-655.5 202.5,-655.5 "/>
<text text-anchor="middle" x="188" y="-642.5" font-family="Helvetica,sans-Serif" font-size="10.00"> </text>
</g>
<!-- Node7&#45;&gt;Node6 -->
<g id="edge14" class="edge"><title>Node7&#45;&gt;Node6</title>
<path fill="none" stroke="#9a32cd" stroke-dasharray="5,2" d="M188,-626.325C188,-601.877 188,-570.815 188,-548.588"/>
<polygon fill="#9a32cd" stroke="#9a32cd" points="188,-636.353 183.5,-626.353 188,-631.353 188,-626.353 188,-626.353 188,-626.353 188,-631.353 192.5,-626.353 188,-636.353 188,-636.353"/>
<text text-anchor="middle" x="208" y="-608.5" font-family="Helvetica,sans-Serif" font-size="10.00">elements</text>
</g>
<!-- Node8 -->
<g id="node15" class="node"><title>Node8</title>
<a xlink:href="classvec_a_m_o_r_e.html" target="_top" xlink:title="{vecAMORE\&lt; T \&gt;\n|# ldata\l|+ getLdata()\l+ setLdata()\l+ size()\l+ push_back()\l+ append()\l+ show()\l+ validate()\l}">
<polygon fill="white" stroke="black" points="236.5,-280.5 236.5,-403.5 329.5,-403.5 329.5,-280.5 236.5,-280.5"/>
<text text-anchor="middle" x="283" y="-390.5" font-family="Helvetica,sans-Serif" font-size="10.00">vecAMORE&lt; T &gt;</text>
<polyline fill="none" stroke="black" points="236.5,-384.5 329.5,-384.5 "/>
<text text-anchor="start" x="244.5" y="-371.5" font-family="Helvetica,sans-Serif" font-size="10.00"># ldata</text>
<polyline fill="none" stroke="black" points="236.5,-365.5 329.5,-365.5 "/>
<text text-anchor="start" x="244.5" y="-352.5" font-family="Helvetica,sans-Serif" font-size="10.00">+ getLdata()</text>
<text text-anchor="start" x="244.5" y="-341.5" font-family="Helvetica,sans-Serif" font-size="10.00">+ setLdata()</text>
<text text-anchor="start" x="244.5" y="-330.5" font-family="Helvetica,sans-Serif" font-size="10.00">+ size()</text>
<text text-anchor="start" x="244.5" y="-319.5" font-family="Helvetica,sans-Serif" font-size="10.00">+ push_back()</text>
<text text-anchor="start" x="244.5" y="-308.5" font-family="Helvetica,sans-Serif" font-size="10.00">+ append()</text>
<text text-anchor="start" x="244.5" y="-297.5" font-family="Helvetica,sans-Serif" font-size="10.00">+ show()</text>
<text text-anchor="start" x="244.5" y="-286.5" font-family="Helvetica,sans-Serif" font-size="10.00">+ validate()</text>
</a>
</g>
<!-- Node8&#45;&gt;Node2 -->
<g id="edge16" class="edge"><title>Node8&#45;&gt;Node2</title>
<path fill="none" stroke="orange" stroke-dasharray="5,2" d="M270.902,-270.248C268.746,-257.459 266.517,-244.238 264.413,-231.758"/>
<polygon fill="orange" stroke="orange" points="267.498,-271.111 272.612,-280.39 274.401,-269.947 267.498,-271.111"/>
<text text-anchor="middle" x="287" y="-252.5" font-family="Helvetica,sans-Serif" font-size="10.00">&lt; Con &gt;</text>
</g>
</g>
</svg>
