<?xml version="1.0" encoding="UTF-8" standalone="no"?>
<!DOCTYPE svg PUBLIC "-//W3C//DTD SVG 1.1//EN"
 "http://www.w3.org/Graphics/SVG/1.1/DTD/svg11.dtd">
<!-- Generated by graphviz version 2.25.20091207.0545 (20091207.0545)
 -->
<!-- Title: G Pages: 1 -->
<svg width="276pt" height="104pt"
 viewBox="0.00 0.00 276.00 104.00" xmlns="http://www.w3.org/2000/svg" xmlns:xlink="http://www.w3.org/1999/xlink">
<g id="graph1" class="graph" transform="scale(1 1) rotate(0) translate(4 100)">
<title>G</title>
<polygon fill="white" stroke="white" points="-4,5 -4,-100 273,-100 273,5 -4,5"/>
<!-- Node1 -->
<g id="node1" class="node"><title>Node1</title>
<polygon fill="#bfbfbf" stroke="black" points="0,-38.5 0,-57.5 108,-57.5 108,-38.5 0,-38.5"/>
<text text-anchor="middle" x="54" y="-44.5" font-family="Helvetica,sans-Serif" font-size="10.00">vecCon::numOfCons</text>
</g>
<!-- Node2 -->
<g id="node3" class="node"><title>Node2</title>
<a xlink:href="classvec_con.html#aa9f3f5df4c4060951c975c4c829b8471" target="_top" xlink:title="Getter of the Id values of the vector of Cons.">
<polygon fill="white" stroke="black" points="156,-76.5 156,-95.5 256,-95.5 256,-76.5 156,-76.5"/>
<text text-anchor="middle" x="206" y="-82.5" font-family="Helvetica,sans-Serif" font-size="10.00">vecCon::getFromId</text>
</a>
</g>
<!-- Node1&#45;&gt;Node2 -->
<g id="edge2" class="edge"><title>Node1&#45;&gt;Node2</title>
<path fill="none" stroke="midnightblue" d="M102.16,-60.04C123.395,-65.3488 147.995,-71.4988 167.92,-76.4799"/>
<polygon fill="midnightblue" stroke="midnightblue" points="102.906,-56.6189 92.356,-57.589 101.209,-63.4099 102.906,-56.6189"/>
</g>
<!-- Node3 -->
<g id="node5" class="node"><title>Node3</title>
<a xlink:href="classvec_con.html#ae72d00aedcd054e690f1dcf2ca5ac2c2" target="_top" xlink:title="Getter of the from field of the Con objects related to vecCon.">
<polygon fill="white" stroke="black" points="144.5,-38.5 144.5,-57.5 267.5,-57.5 267.5,-38.5 144.5,-38.5"/>
<text text-anchor="middle" x="206" y="-44.5" font-family="Helvetica,sans-Serif" font-size="10.00">vecCon::getFromNeuron</text>
</a>
</g>
<!-- Node1&#45;&gt;Node3 -->
<g id="edge4" class="edge"><title>Node1&#45;&gt;Node3</title>
<path fill="none" stroke="midnightblue" d="M118.108,-48C126.811,-48 135.727,-48 144.385,-48"/>
<polygon fill="midnightblue" stroke="midnightblue" points="118.018,-44.5001 108.017,-48 118.017,-51.5001 118.018,-44.5001"/>
</g>
<!-- Node4 -->
<g id="node7" class="node"><title>Node4</title>
<a xlink:href="classvec_con.html#a76f10669494f2247d036ae6a1f296873" target="_top" xlink:title="Getter of the weight field of the Con objects related to vecCon.">
<polygon fill="white" stroke="black" points="156,-0.5 156,-19.5 256,-19.5 256,-0.5 156,-0.5"/>
<text text-anchor="middle" x="206" y="-6.5" font-family="Helvetica,sans-Serif" font-size="10.00">vecCon::getWeight</text>
</a>
</g>
<!-- Node1&#45;&gt;Node4 -->
<g id="edge6" class="edge"><title>Node1&#45;&gt;Node4</title>
<path fill="none" stroke="midnightblue" d="M102.16,-35.96C123.395,-30.6512 147.995,-24.5012 167.92,-19.5201"/>
<polygon fill="midnightblue" stroke="midnightblue" points="101.209,-32.5901 92.356,-38.411 102.906,-39.3811 101.209,-32.5901"/>
</g>
</g>
</svg>
