<?xml version="1.0" encoding="UTF-8" standalone="no"?>
<!DOCTYPE svg PUBLIC "-//W3C//DTD SVG 1.1//EN"
 "http://www.w3.org/Graphics/SVG/1.1/DTD/svg11.dtd">
<!-- Generated by graphviz version 2.25.20091207.0545 (20091207.0545)
 -->
<!-- Title: G Pages: 1 -->
<svg width="369pt" height="832pt"
 viewBox="0.00 0.00 369.00 832.00" xmlns="http://www.w3.org/2000/svg" xmlns:xlink="http://www.w3.org/1999/xlink">
<g id="graph1" class="graph" transform="scale(1 1) rotate(0) translate(4 828)">
<title>G</title>
<polygon fill="white" stroke="white" points="-4,5 -4,-828 366,-828 366,5 -4,5"/>
<!-- Node1 -->
<g id="node1" class="node"><title>Node1</title>
<polygon fill="#bfbfbf" stroke="black" points="127.5,-0.5 127.5,-57.5 190.5,-57.5 190.5,-0.5 127.5,-0.5"/>
<text text-anchor="middle" x="159" y="-44.5" font-family="Helvetica,sans-Serif" font-size="10.00">vecNeuron</text>
<polyline fill="none" stroke="black" points="127.5,-38.5 190.5,-38.5 "/>
<text text-anchor="middle" x="159" y="-25.5" font-family="Helvetica,sans-Serif" font-size="10.00"> </text>
<polyline fill="none" stroke="black" points="127.5,-19.5 190.5,-19.5 "/>
<text text-anchor="middle" x="159" y="-6.5" font-family="Helvetica,sans-Serif" font-size="10.00"> </text>
</g>
<!-- Node2 -->
<g id="node2" class="node"><title>Node2</title>
<a xlink:href="class_container.html" target="_top" xlink:title="{Container\&lt; Neuron \&gt;\n|# ldata\l|+ begin()\l+ end()\l+ load()\l+ store()\l+ size()\l+ push_back()\l+ append()\l+ show()\l+ validate()\l+ reserve()\l}">
<polygon fill="white" stroke="black" points="105,-97 105,-253 213,-253 213,-97 105,-97"/>
<text text-anchor="middle" x="159" y="-240" font-family="Helvetica,sans-Serif" font-size="10.00">Container&lt; Neuron &gt;</text>
<polyline fill="none" stroke="black" points="105,-234 213,-234 "/>
<text text-anchor="start" x="113" y="-221" font-family="Helvetica,sans-Serif" font-size="10.00"># ldata</text>
<polyline fill="none" stroke="black" points="105,-215 213,-215 "/>
<text text-anchor="start" x="113" y="-202" font-family="Helvetica,sans-Serif" font-size="10.00">+ begin()</text>
<text text-anchor="start" x="113" y="-191" font-family="Helvetica,sans-Serif" font-size="10.00">+ end()</text>
<text text-anchor="start" x="113" y="-180" font-family="Helvetica,sans-Serif" font-size="10.00">+ load()</text>
<text text-anchor="start" x="113" y="-169" font-family="Helvetica,sans-Serif" font-size="10.00">+ store()</text>
<text text-anchor="start" x="113" y="-158" font-family="Helvetica,sans-Serif" font-size="10.00">+ size()</text>
<text text-anchor="start" x="113" y="-147" font-family="Helvetica,sans-Serif" font-size="10.00">+ push_back()</text>
<text text-anchor="start" x="113" y="-136" font-family="Helvetica,sans-Serif" font-size="10.00">+ append()</text>
<text text-anchor="start" x="113" y="-125" font-family="Helvetica,sans-Serif" font-size="10.00">+ show()</text>
<text text-anchor="start" x="113" y="-114" font-family="Helvetica,sans-Serif" font-size="10.00">+ validate()</text>
<text text-anchor="start" x="113" y="-103" font-family="Helvetica,sans-Serif" font-size="10.00">+ reserve()</text>
</a>
</g>
<!-- Node2&#45;&gt;Node1 -->
<g id="edge2" class="edge"><title>Node2&#45;&gt;Node1</title>
<path fill="none" stroke="midnightblue" d="M159,-86.797C159,-76.3969 159,-66.4277 159,-57.785"/>
<polygon fill="none" stroke="midnightblue" points="155.5,-86.8709 159,-96.8709 162.5,-86.871 155.5,-86.8709"/>
</g>
<!-- Node3 -->
<g id="node4" class="node"><title>Node3</title>
<polygon fill="white" stroke="#bfbfbf" points="0,-478.5 0,-535.5 206,-535.5 206,-478.5 0,-478.5"/>
<text text-anchor="middle" x="103" y="-522.5" font-family="Helvetica,sans-Serif" font-size="10.00">std::vector&lt; boost::shared_ptr&lt; Neuron &gt; &gt;</text>
<polyline fill="none" stroke="#bfbfbf" points="0,-516.5 206,-516.5 "/>
<text text-anchor="start" x="8" y="-503.5" font-family="Helvetica,sans-Serif" font-size="10.00">&#45; elements</text>
<polyline fill="none" stroke="#bfbfbf" points="0,-497.5 206,-497.5 "/>
<text text-anchor="middle" x="103" y="-484.5" font-family="Helvetica,sans-Serif" font-size="10.00"> </text>
</g>
<!-- Node3&#45;&gt;Node2 -->
<g id="edge4" class="edge"><title>Node3&#45;&gt;Node2</title>
<path fill="none" stroke="#9a32cd" stroke-dasharray="5,2" d="M109.493,-468.506C118.34,-416.055 134.387,-320.92 145.813,-253.183"/>
<polygon fill="#9a32cd" stroke="#9a32cd" points="107.823,-478.407 105.049,-467.797 108.655,-473.476 109.486,-468.546 109.486,-468.546 109.486,-468.546 108.655,-473.476 113.924,-469.294 107.823,-478.407 107.823,-478.407"/>
<text text-anchor="middle" x="147.5" y="-377.5" font-family="Helvetica,sans-Serif" font-size="10.00">ldata</text>
</g>
<!-- Node4 -->
<g id="node6" class="node"><title>Node4</title>
<a xlink:title="STL class.">
<polygon fill="white" stroke="#bfbfbf" points="132.5,-660.5 132.5,-717.5 219.5,-717.5 219.5,-660.5 132.5,-660.5"/>
<text text-anchor="middle" x="176" y="-704.5" font-family="Helvetica,sans-Serif" font-size="10.00">std::vector&lt; T &gt;</text>
<polyline fill="none" stroke="#bfbfbf" points="132.5,-698.5 219.5,-698.5 "/>
<text text-anchor="start" x="140.5" y="-685.5" font-family="Helvetica,sans-Serif" font-size="10.00">&#45; elements</text>
<polyline fill="none" stroke="#bfbfbf" points="132.5,-679.5 219.5,-679.5 "/>
<text text-anchor="middle" x="176" y="-666.5" font-family="Helvetica,sans-Serif" font-size="10.00"> </text>
</a>
</g>
<!-- Node4&#45;&gt;Node3 -->
<g id="edge6" class="edge"><title>Node4&#45;&gt;Node3</title>
<path fill="none" stroke="orange" stroke-dasharray="5,2" d="M123.256,-671.422C110.116,-664.402 97.6162,-654.842 90,-642 70.6621,-609.394 80.7895,-564.405 90.9689,-535.504"/>
<polygon fill="orange" stroke="orange" points="121.881,-674.645 132.403,-675.885 124.95,-668.354 121.881,-674.645"/>
<text text-anchor="middle" x="161.5" y="-632.5" font-family="Helvetica,sans-Serif" font-size="10.00">&lt; boost::shared_ptr&lt; Neuron &gt; &gt;</text>
</g>
<!-- Node7 -->
<g id="node12" class="node"><title>Node7</title>
<polygon fill="white" stroke="#bfbfbf" points="164,-554.5 164,-611.5 344,-611.5 344,-554.5 164,-554.5"/>
<text text-anchor="middle" x="254" y="-598.5" font-family="Helvetica,sans-Serif" font-size="10.00">std::vector&lt; boost::shared_ptr&lt; T &gt; &gt;</text>
<polyline fill="none" stroke="#bfbfbf" points="164,-592.5 344,-592.5 "/>
<text text-anchor="start" x="172" y="-579.5" font-family="Helvetica,sans-Serif" font-size="10.00">&#45; elements</text>
<polyline fill="none" stroke="#bfbfbf" points="164,-573.5 344,-573.5 "/>
<text text-anchor="middle" x="254" y="-560.5" font-family="Helvetica,sans-Serif" font-size="10.00"> </text>
</g>
<!-- Node4&#45;&gt;Node7 -->
<g id="edge14" class="edge"><title>Node4&#45;&gt;Node7</title>
<path fill="none" stroke="orange" stroke-dasharray="5,2" d="M227.038,-654.053C230.72,-650.271 234.113,-646.244 237,-642 243.116,-633.01 247.057,-621.818 249.586,-611.605"/>
<polygon fill="orange" stroke="orange" points="224.531,-651.605 219.657,-661.012 229.334,-656.698 224.531,-651.605"/>
<text text-anchor="middle" x="302" y="-632.5" font-family="Helvetica,sans-Serif" font-size="10.00">&lt; boost::shared_ptr&lt; T &gt; &gt;</text>
</g>
<!-- Node5 -->
<g id="node8" class="node"><title>Node5</title>
<polygon fill="white" stroke="#bfbfbf" points="161.5,-766.5 161.5,-823.5 190.5,-823.5 190.5,-766.5 161.5,-766.5"/>
<text text-anchor="middle" x="176" y="-810.5" font-family="Helvetica,sans-Serif" font-size="10.00">T</text>
<polyline fill="none" stroke="#bfbfbf" points="161.5,-804.5 190.5,-804.5 "/>
<text text-anchor="middle" x="176" y="-791.5" font-family="Helvetica,sans-Serif" font-size="10.00"> </text>
<polyline fill="none" stroke="#bfbfbf" points="161.5,-785.5 190.5,-785.5 "/>
<text text-anchor="middle" x="176" y="-772.5" font-family="Helvetica,sans-Serif" font-size="10.00"> </text>
</g>
<!-- Node5&#45;&gt;Node4 -->
<g id="edge8" class="edge"><title>Node5&#45;&gt;Node4</title>
<path fill="none" stroke="#9a32cd" stroke-dasharray="5,2" d="M176,-756.005C176,-743.326 176,-729.494 176,-717.708"/>
<polygon fill="#9a32cd" stroke="#9a32cd" points="176,-766.315 171.5,-756.315 176,-761.315 176,-756.315 176,-756.315 176,-756.315 176,-761.315 180.5,-756.315 176,-766.315 176,-766.315"/>
<text text-anchor="middle" x="196" y="-738.5" font-family="Helvetica,sans-Serif" font-size="10.00">elements</text>
</g>
<!-- Node6 -->
<g id="node10" class="node"><title>Node6</title>
<a xlink:href="class_container.html" target="_top" xlink:title="{Container\&lt; T \&gt;\n|# ldata\l|+ begin()\l+ end()\l+ load()\l+ store()\l+ size()\l+ push_back()\l+ append()\l+ show()\l+ validate()\l+ reserve()\l}">
<polygon fill="white" stroke="black" points="180,-303 180,-459 262,-459 262,-303 180,-303"/>
<text text-anchor="middle" x="221" y="-446" font-family="Helvetica,sans-Serif" font-size="10.00">Container&lt; T &gt;</text>
<polyline fill="none" stroke="black" points="180,-440 262,-440 "/>
<text text-anchor="start" x="188" y="-427" font-family="Helvetica,sans-Serif" font-size="10.00"># ldata</text>
<polyline fill="none" stroke="black" points="180,-421 262,-421 "/>
<text text-anchor="start" x="188" y="-408" font-family="Helvetica,sans-Serif" font-size="10.00">+ begin()</text>
<text text-anchor="start" x="188" y="-397" font-family="Helvetica,sans-Serif" font-size="10.00">+ end()</text>
<text text-anchor="start" x="188" y="-386" font-family="Helvetica,sans-Serif" font-size="10.00">+ load()</text>
<text text-anchor="start" x="188" y="-375" font-family="Helvetica,sans-Serif" font-size="10.00">+ store()</text>
<text text-anchor="start" x="188" y="-364" font-family="Helvetica,sans-Serif" font-size="10.00">+ size()</text>
<text text-anchor="start" x="188" y="-353" font-family="Helvetica,sans-Serif" font-size="10.00">+ push_back()</text>
<text text-anchor="start" x="188" y="-342" font-family="Helvetica,sans-Serif" font-size="10.00">+ append()</text>
<text text-anchor="start" x="188" y="-331" font-family="Helvetica,sans-Serif" font-size="10.00">+ show()</text>
<text text-anchor="start" x="188" y="-320" font-family="Helvetica,sans-Serif" font-size="10.00">+ validate()</text>
<text text-anchor="start" x="188" y="-309" font-family="Helvetica,sans-Serif" font-size="10.00">+ reserve()</text>
</a>
</g>
<!-- Node6&#45;&gt;Node2 -->
<g id="edge10" class="edge"><title>Node6&#45;&gt;Node2</title>
<path fill="none" stroke="orange" stroke-dasharray="5,2" d="M194.575,-293.202C190.567,-279.882 186.453,-266.216 182.512,-253.12"/>
<polygon fill="orange" stroke="orange" points="191.238,-294.26 197.472,-302.827 197.941,-292.242 191.238,-294.26"/>
<text text-anchor="middle" x="215" y="-274.5" font-family="Helvetica,sans-Serif" font-size="10.00">&lt; Neuron &gt;</text>
</g>
<!-- Node7&#45;&gt;Node6 -->
<g id="edge12" class="edge"><title>Node7&#45;&gt;Node6</title>
<path fill="none" stroke="#9a32cd" stroke-dasharray="5,2" d="M247.681,-544.318C243.738,-520.182 238.521,-488.252 233.748,-459.031"/>
<polygon fill="#9a32cd" stroke="#9a32cd" points="249.342,-554.487 243.288,-545.343 248.536,-549.552 247.73,-544.618 247.73,-544.618 247.73,-544.618 248.536,-549.552 252.171,-543.892 249.342,-554.487 249.342,-554.487"/>
<text text-anchor="middle" x="256.5" y="-503.5" font-family="Helvetica,sans-Serif" font-size="10.00">ldata</text>
</g>
</g>
</svg>
