<?xml version="1.0" encoding="UTF-8" standalone="no"?>
<!DOCTYPE svg PUBLIC "-//W3C//DTD SVG 1.1//EN"
 "http://www.w3.org/Graphics/SVG/1.1/DTD/svg11.dtd">
<!-- Generated by graphviz version 2.25.20091207.0545 (20091207.0545)
 -->
<!-- Title: G Pages: 1 -->
<svg width="351pt" height="1420pt"
 viewBox="0.00 0.00 351.00 1420.00" xmlns="http://www.w3.org/2000/svg" xmlns:xlink="http://www.w3.org/1999/xlink">
<g id="graph1" class="graph" transform="scale(1 1) rotate(0) translate(4 1416)">
<title>G</title>
<polygon fill="white" stroke="white" points="-4,5 -4,-1416 348,-1416 348,5 -4,5"/>
<!-- Node1 -->
<g id="node1" class="node"><title>Node1</title>
<polygon fill="#bfbfbf" stroke="black" points="108,-0.5 108,-57.5 174,-57.5 174,-0.5 108,-0.5"/>
<text text-anchor="middle" x="141" y="-44.5" font-family="Helvetica,sans-Serif" font-size="10.00">MLPneuron</text>
<polyline fill="none" stroke="black" points="108,-38.5 174,-38.5 "/>
<text text-anchor="start" x="116" y="-25.5" font-family="Helvetica,sans-Serif" font-size="10.00">&#45; bias</text>
<polyline fill="none" stroke="black" points="108,-19.5 174,-19.5 "/>
<text text-anchor="middle" x="141" y="-6.5" font-family="Helvetica,sans-Serif" font-size="10.00"> </text>
</g>
<!-- Node2 -->
<g id="node2" class="node"><title>Node2</title>
<a xlink:href="class_neuron.html" target="_top" xlink:title="A class to handle the information contained in a general Neuron.">
<polygon fill="white" stroke="black" points="99,-96.5 99,-307.5 183,-307.5 183,-96.5 99,-96.5"/>
<text text-anchor="middle" x="141" y="-294.5" font-family="Helvetica,sans-Serif" font-size="10.00">Neuron</text>
<polyline fill="none" stroke="black" points="99,-288.5 183,-288.5 "/>
<text text-anchor="start" x="107" y="-275.5" font-family="Helvetica,sans-Serif" font-size="10.00">&#45; Id</text>
<text text-anchor="start" x="107" y="-264.5" font-family="Helvetica,sans-Serif" font-size="10.00">&#45; con</text>
<text text-anchor="start" x="107" y="-253.5" font-family="Helvetica,sans-Serif" font-size="10.00">&#45; outputValue</text>
<polyline fill="none" stroke="black" points="99,-247.5 183,-247.5 "/>
<text text-anchor="start" x="107" y="-234.5" font-family="Helvetica,sans-Serif" font-size="10.00">+ Neuron()</text>
<text text-anchor="start" x="107" y="-223.5" font-family="Helvetica,sans-Serif" font-size="10.00">+ Neuron()</text>
<text text-anchor="start" x="107" y="-212.5" font-family="Helvetica,sans-Serif" font-size="10.00">+ Neuron()</text>
<text text-anchor="start" x="107" y="-201.5" font-family="Helvetica,sans-Serif" font-size="10.00">+ ~Neuron()</text>
<text text-anchor="start" x="107" y="-190.5" font-family="Helvetica,sans-Serif" font-size="10.00">+ getId()</text>
<text text-anchor="start" x="107" y="-179.5" font-family="Helvetica,sans-Serif" font-size="10.00">+ setId()</text>
<text text-anchor="start" x="107" y="-168.5" font-family="Helvetica,sans-Serif" font-size="10.00">+ getConId()</text>
<text text-anchor="start" x="107" y="-157.5" font-family="Helvetica,sans-Serif" font-size="10.00">+ getWeight()</text>
<text text-anchor="start" x="107" y="-146.5" font-family="Helvetica,sans-Serif" font-size="10.00">+ setFrom()</text>
<text text-anchor="start" x="107" y="-135.5" font-family="Helvetica,sans-Serif" font-size="10.00">+ setWeight()</text>
<text text-anchor="start" x="107" y="-124.5" font-family="Helvetica,sans-Serif" font-size="10.00">+ numOfCons()</text>
<text text-anchor="start" x="107" y="-113.5" font-family="Helvetica,sans-Serif" font-size="10.00">+ show()</text>
<text text-anchor="start" x="107" y="-102.5" font-family="Helvetica,sans-Serif" font-size="10.00">+ validate()</text>
</a>
</g>
<!-- Node2&#45;&gt;Node1 -->
<g id="edge2" class="edge"><title>Node2&#45;&gt;Node1</title>
<path fill="none" stroke="midnightblue" d="M141,-86.2077C141,-75.7778 141,-65.9921 141,-57.5644"/>
<polygon fill="none" stroke="midnightblue" points="137.5,-86.3817 141,-96.3817 144.5,-86.3817 137.5,-86.3817"/>
</g>
<!-- Node3 -->
<g id="node4" class="node"><title>Node3</title>
<a xlink:href="class_con_container.html" target="_top" xlink:title="A vector of connections.">
<polygon fill="white" stroke="black" points="95.5,-357 95.5,-513 186.5,-513 186.5,-357 95.5,-357"/>
<text text-anchor="middle" x="141" y="-500" font-family="Helvetica,sans-Serif" font-size="10.00">ConContainer</text>
<polyline fill="none" stroke="black" points="95.5,-494 186.5,-494 "/>
<text text-anchor="middle" x="141" y="-481" font-family="Helvetica,sans-Serif" font-size="10.00"> </text>
<polyline fill="none" stroke="black" points="95.5,-475 186.5,-475 "/>
<text text-anchor="start" x="103.5" y="-462" font-family="Helvetica,sans-Serif" font-size="10.00">+ ConContainer()</text>
<text text-anchor="start" x="103.5" y="-451" font-family="Helvetica,sans-Serif" font-size="10.00">+ ConContainer()</text>
<text text-anchor="start" x="103.5" y="-440" font-family="Helvetica,sans-Serif" font-size="10.00">+ numOfCons()</text>
<text text-anchor="start" x="103.5" y="-429" font-family="Helvetica,sans-Serif" font-size="10.00">+ getId()</text>
<text text-anchor="start" x="103.5" y="-418" font-family="Helvetica,sans-Serif" font-size="10.00">+ setWeight()</text>
<text text-anchor="start" x="103.5" y="-407" font-family="Helvetica,sans-Serif" font-size="10.00">+ setWeight()</text>
<text text-anchor="start" x="103.5" y="-396" font-family="Helvetica,sans-Serif" font-size="10.00">+ setFrom()</text>
<text text-anchor="start" x="103.5" y="-385" font-family="Helvetica,sans-Serif" font-size="10.00">+ erase()</text>
<text text-anchor="start" x="103.5" y="-374" font-family="Helvetica,sans-Serif" font-size="10.00">+ select()</text>
<text text-anchor="start" x="103.5" y="-363" font-family="Helvetica,sans-Serif" font-size="10.00">+ validate()</text>
</a>
</g>
<!-- Node3&#45;&gt;Node2 -->
<g id="edge4" class="edge"><title>Node3&#45;&gt;Node2</title>
<path fill="none" stroke="#9a32cd" stroke-dasharray="5,2" d="M141,-346.683C141,-333.968 141,-320.776 141,-307.764"/>
<polygon fill="#9a32cd" stroke="#9a32cd" points="141,-356.766 136.5,-346.766 141,-351.766 141,-346.766 141,-346.766 141,-346.766 141,-351.766 145.5,-346.766 141,-356.766 141,-356.766"/>
<text text-anchor="middle" x="149" y="-328.5" font-family="Helvetica,sans-Serif" font-size="10.00">con</text>
</g>
<!-- Node4 -->
<g id="node6" class="node"><title>Node4</title>
<a xlink:href="class_container.html" target="_top" xlink:title="{Container\&lt; Con \&gt;\n|# collection\l|+ Container()\l+ Container()\l+ begin()\l+ end()\l+ load()\l+ store()\l+ size()\l+ push_back()\l+ append()\l+ show()\l+ validate()\l+ reserve()\l+ resize()\l+ empty()\l+ clear()\l+ operator[]()\l}">
<polygon fill="white" stroke="black" points="94,-553 94,-775 188,-775 188,-553 94,-553"/>
<text text-anchor="middle" x="141" y="-762" font-family="Helvetica,sans-Serif" font-size="10.00">Container&lt; Con &gt;</text>
<polyline fill="none" stroke="black" points="94,-756 188,-756 "/>
<text text-anchor="start" x="102" y="-743" font-family="Helvetica,sans-Serif" font-size="10.00"># collection</text>
<polyline fill="none" stroke="black" points="94,-737 188,-737 "/>
<text text-anchor="start" x="102" y="-724" font-family="Helvetica,sans-Serif" font-size="10.00">+ Container()</text>
<text text-anchor="start" x="102" y="-713" font-family="Helvetica,sans-Serif" font-size="10.00">+ Container()</text>
<text text-anchor="start" x="102" y="-702" font-family="Helvetica,sans-Serif" font-size="10.00">+ begin()</text>
<text text-anchor="start" x="102" y="-691" font-family="Helvetica,sans-Serif" font-size="10.00">+ end()</text>
<text text-anchor="start" x="102" y="-680" font-family="Helvetica,sans-Serif" font-size="10.00">+ load()</text>
<text text-anchor="start" x="102" y="-669" font-family="Helvetica,sans-Serif" font-size="10.00">+ store()</text>
<text text-anchor="start" x="102" y="-658" font-family="Helvetica,sans-Serif" font-size="10.00">+ size()</text>
<text text-anchor="start" x="102" y="-647" font-family="Helvetica,sans-Serif" font-size="10.00">+ push_back()</text>
<text text-anchor="start" x="102" y="-636" font-family="Helvetica,sans-Serif" font-size="10.00">+ append()</text>
<text text-anchor="start" x="102" y="-625" font-family="Helvetica,sans-Serif" font-size="10.00">+ show()</text>
<text text-anchor="start" x="102" y="-614" font-family="Helvetica,sans-Serif" font-size="10.00">+ validate()</text>
<text text-anchor="start" x="102" y="-603" font-family="Helvetica,sans-Serif" font-size="10.00">+ reserve()</text>
<text text-anchor="start" x="102" y="-592" font-family="Helvetica,sans-Serif" font-size="10.00">+ resize()</text>
<text text-anchor="start" x="102" y="-581" font-family="Helvetica,sans-Serif" font-size="10.00">+ empty()</text>
<text text-anchor="start" x="102" y="-570" font-family="Helvetica,sans-Serif" font-size="10.00">+ clear()</text>
<text text-anchor="start" x="102" y="-559" font-family="Helvetica,sans-Serif" font-size="10.00">+ operator[]()</text>
</a>
</g>
<!-- Node4&#45;&gt;Node3 -->
<g id="edge6" class="edge"><title>Node4&#45;&gt;Node3</title>
<path fill="none" stroke="midnightblue" d="M141,-542.769C141,-532.695 141,-522.692 141,-513.071"/>
<polygon fill="none" stroke="midnightblue" points="137.5,-542.854 141,-552.854 144.5,-542.854 137.5,-542.854"/>
</g>
<!-- Node5 -->
<g id="node8" class="node"><title>Node5</title>
<polygon fill="white" stroke="#bfbfbf" points="0,-1066.5 0,-1123.5 192,-1123.5 192,-1066.5 0,-1066.5"/>
<text text-anchor="middle" x="96" y="-1110.5" font-family="Helvetica,sans-Serif" font-size="10.00">std::vector&lt; boost::shared_ptr&lt; Con &gt; &gt;</text>
<polyline fill="none" stroke="#bfbfbf" points="0,-1104.5 192,-1104.5 "/>
<text text-anchor="start" x="8" y="-1091.5" font-family="Helvetica,sans-Serif" font-size="10.00">&#45; elements</text>
<polyline fill="none" stroke="#bfbfbf" points="0,-1085.5 192,-1085.5 "/>
<text text-anchor="middle" x="96" y="-1072.5" font-family="Helvetica,sans-Serif" font-size="10.00"> </text>
</g>
<!-- Node5&#45;&gt;Node4 -->
<g id="edge8" class="edge"><title>Node5&#45;&gt;Node4</title>
<path fill="none" stroke="#9a32cd" stroke-dasharray="5,2" d="M99.4389,-1056.27C104.174,-1003.65 113.128,-906.656 122,-824 123.687,-808.286 125.554,-791.714 127.441,-775.429"/>
<polygon fill="#9a32cd" stroke="#9a32cd" points="98.5216,-1066.5 94.9333,-1056.13 98.9685,-1061.52 99.4153,-1056.54 99.4153,-1056.54 99.4153,-1056.54 98.9685,-1061.52 103.897,-1056.94 98.5216,-1066.5 98.5216,-1066.5"/>
<text text-anchor="middle" x="142.5" y="-932.5" font-family="Helvetica,sans-Serif" font-size="10.00">collection</text>
</g>
<!-- Node6 -->
<g id="node10" class="node"><title>Node6</title>
<a xlink:title="STL class.">
<polygon fill="white" stroke="#bfbfbf" points="120.5,-1248.5 120.5,-1305.5 207.5,-1305.5 207.5,-1248.5 120.5,-1248.5"/>
<text text-anchor="middle" x="164" y="-1292.5" font-family="Helvetica,sans-Serif" font-size="10.00">std::vector&lt; T &gt;</text>
<polyline fill="none" stroke="#bfbfbf" points="120.5,-1286.5 207.5,-1286.5 "/>
<text text-anchor="start" x="128.5" y="-1273.5" font-family="Helvetica,sans-Serif" font-size="10.00">&#45; elements</text>
<polyline fill="none" stroke="#bfbfbf" points="120.5,-1267.5 207.5,-1267.5 "/>
<text text-anchor="middle" x="164" y="-1254.5" font-family="Helvetica,sans-Serif" font-size="10.00"> </text>
</a>
</g>
<!-- Node6&#45;&gt;Node5 -->
<g id="edge10" class="edge"><title>Node6&#45;&gt;Node5</title>
<path fill="none" stroke="orange" stroke-dasharray="5,2" d="M111.191,-1255.96C100.727,-1249.27 91.1016,-1240.73 85,-1230 66.3434,-1197.19 75.4042,-1152.46 84.7607,-1123.65"/>
<polygon fill="orange" stroke="orange" points="109.714,-1259.15 120.118,-1261.15 113.233,-1253.09 109.714,-1259.15"/>
<text text-anchor="middle" x="150" y="-1220.5" font-family="Helvetica,sans-Serif" font-size="10.00">&lt; boost::shared_ptr&lt; Con &gt; &gt;</text>
</g>
<!-- Node9 -->
<g id="node16" class="node"><title>Node9</title>
<polygon fill="white" stroke="#bfbfbf" points="146,-1142.5 146,-1199.5 326,-1199.5 326,-1142.5 146,-1142.5"/>
<text text-anchor="middle" x="236" y="-1186.5" font-family="Helvetica,sans-Serif" font-size="10.00">std::vector&lt; boost::shared_ptr&lt; T &gt; &gt;</text>
<polyline fill="none" stroke="#bfbfbf" points="146,-1180.5 326,-1180.5 "/>
<text text-anchor="start" x="154" y="-1167.5" font-family="Helvetica,sans-Serif" font-size="10.00">&#45; elements</text>
<polyline fill="none" stroke="#bfbfbf" points="146,-1161.5 326,-1161.5 "/>
<text text-anchor="middle" x="236" y="-1148.5" font-family="Helvetica,sans-Serif" font-size="10.00"> </text>
</g>
<!-- Node6&#45;&gt;Node9 -->
<g id="edge18" class="edge"><title>Node6&#45;&gt;Node9</title>
<path fill="none" stroke="orange" stroke-dasharray="5,2" d="M210.511,-1241.07C213.638,-1237.55 216.523,-1233.85 219,-1230 224.829,-1220.95 228.705,-1209.85 231.261,-1199.74"/>
<polygon fill="orange" stroke="orange" points="207.779,-1238.86 203.342,-1248.48 212.81,-1243.73 207.779,-1238.86"/>
<text text-anchor="middle" x="284" y="-1220.5" font-family="Helvetica,sans-Serif" font-size="10.00">&lt; boost::shared_ptr&lt; T &gt; &gt;</text>
</g>
<!-- Node7 -->
<g id="node12" class="node"><title>Node7</title>
<polygon fill="white" stroke="#bfbfbf" points="149.5,-1354.5 149.5,-1411.5 178.5,-1411.5 178.5,-1354.5 149.5,-1354.5"/>
<text text-anchor="middle" x="164" y="-1398.5" font-family="Helvetica,sans-Serif" font-size="10.00">T</text>
<polyline fill="none" stroke="#bfbfbf" points="149.5,-1392.5 178.5,-1392.5 "/>
<text text-anchor="middle" x="164" y="-1379.5" font-family="Helvetica,sans-Serif" font-size="10.00"> </text>
<polyline fill="none" stroke="#bfbfbf" points="149.5,-1373.5 178.5,-1373.5 "/>
<text text-anchor="middle" x="164" y="-1360.5" font-family="Helvetica,sans-Serif" font-size="10.00"> </text>
</g>
<!-- Node7&#45;&gt;Node6 -->
<g id="edge12" class="edge"><title>Node7&#45;&gt;Node6</title>
<path fill="none" stroke="#9a32cd" stroke-dasharray="5,2" d="M164,-1344.01C164,-1331.33 164,-1317.49 164,-1305.71"/>
<polygon fill="#9a32cd" stroke="#9a32cd" points="164,-1354.31 159.5,-1344.31 164,-1349.31 164,-1344.31 164,-1344.31 164,-1344.31 164,-1349.31 168.5,-1344.31 164,-1354.31 164,-1354.31"/>
<text text-anchor="middle" x="184" y="-1326.5" font-family="Helvetica,sans-Serif" font-size="10.00">elements</text>
</g>
<!-- Node8 -->
<g id="node14" class="node"><title>Node8</title>
<a xlink:href="class_container.html" target="_top" xlink:title="{Container\&lt; T \&gt;\n|# collection\l|+ Container()\l+ Container()\l+ begin()\l+ end()\l+ load()\l+ store()\l+ size()\l+ push_back()\l+ append()\l+ show()\l+ validate()\l+ reserve()\l+ resize()\l+ empty()\l+ clear()\l+ operator[]()\l}">
<polygon fill="white" stroke="black" points="172,-825 172,-1047 254,-1047 254,-825 172,-825"/>
<text text-anchor="middle" x="213" y="-1034" font-family="Helvetica,sans-Serif" font-size="10.00">Container&lt; T &gt;</text>
<polyline fill="none" stroke="black" points="172,-1028 254,-1028 "/>
<text text-anchor="start" x="180" y="-1015" font-family="Helvetica,sans-Serif" font-size="10.00"># collection</text>
<polyline fill="none" stroke="black" points="172,-1009 254,-1009 "/>
<text text-anchor="start" x="180" y="-996" font-family="Helvetica,sans-Serif" font-size="10.00">+ Container()</text>
<text text-anchor="start" x="180" y="-985" font-family="Helvetica,sans-Serif" font-size="10.00">+ Container()</text>
<text text-anchor="start" x="180" y="-974" font-family="Helvetica,sans-Serif" font-size="10.00">+ begin()</text>
<text text-anchor="start" x="180" y="-963" font-family="Helvetica,sans-Serif" font-size="10.00">+ end()</text>
<text text-anchor="start" x="180" y="-952" font-family="Helvetica,sans-Serif" font-size="10.00">+ load()</text>
<text text-anchor="start" x="180" y="-941" font-family="Helvetica,sans-Serif" font-size="10.00">+ store()</text>
<text text-anchor="start" x="180" y="-930" font-family="Helvetica,sans-Serif" font-size="10.00">+ size()</text>
<text text-anchor="start" x="180" y="-919" font-family="Helvetica,sans-Serif" font-size="10.00">+ push_back()</text>
<text text-anchor="start" x="180" y="-908" font-family="Helvetica,sans-Serif" font-size="10.00">+ append()</text>
<text text-anchor="start" x="180" y="-897" font-family="Helvetica,sans-Serif" font-size="10.00">+ show()</text>
<text text-anchor="start" x="180" y="-886" font-family="Helvetica,sans-Serif" font-size="10.00">+ validate()</text>
<text text-anchor="start" x="180" y="-875" font-family="Helvetica,sans-Serif" font-size="10.00">+ reserve()</text>
<text text-anchor="start" x="180" y="-864" font-family="Helvetica,sans-Serif" font-size="10.00">+ resize()</text>
<text text-anchor="start" x="180" y="-853" font-family="Helvetica,sans-Serif" font-size="10.00">+ empty()</text>
<text text-anchor="start" x="180" y="-842" font-family="Helvetica,sans-Serif" font-size="10.00">+ clear()</text>
<text text-anchor="start" x="180" y="-831" font-family="Helvetica,sans-Serif" font-size="10.00">+ operator[]()</text>
</a>
</g>
<!-- Node8&#45;&gt;Node4 -->
<g id="edge14" class="edge"><title>Node8&#45;&gt;Node4</title>
<path fill="none" stroke="orange" stroke-dasharray="5,2" d="M181.046,-815.285C177.508,-801.918 173.917,-788.351 170.412,-775.111"/>
<polygon fill="orange" stroke="orange" points="177.669,-816.203 183.611,-824.975 184.435,-814.412 177.669,-816.203"/>
<text text-anchor="middle" x="195" y="-796.5" font-family="Helvetica,sans-Serif" font-size="10.00">&lt; Con &gt;</text>
</g>
<!-- Node9&#45;&gt;Node8 -->
<g id="edge16" class="edge"><title>Node9&#45;&gt;Node8</title>
<path fill="none" stroke="#9a32cd" stroke-dasharray="5,2" d="M232.185,-1132.02C229.898,-1108.65 226.864,-1077.66 223.885,-1047.22"/>
<polygon fill="#9a32cd" stroke="#9a32cd" points="233.18,-1142.18 227.727,-1132.67 232.693,-1137.21 232.206,-1132.23 232.206,-1132.23 232.206,-1132.23 232.693,-1137.21 236.684,-1131.79 233.18,-1142.18 233.18,-1142.18"/>
<text text-anchor="middle" x="251.5" y="-1091.5" font-family="Helvetica,sans-Serif" font-size="10.00">collection</text>
</g>
</g>
</svg>
