<?xml version="1.0" encoding="UTF-8" standalone="no"?>
<!DOCTYPE svg PUBLIC "-//W3C//DTD SVG 1.1//EN"
 "http://www.w3.org/Graphics/SVG/1.1/DTD/svg11.dtd">
<!-- Generated by graphviz version 2.28.0 (20110610.2051)
 -->
<!-- Title: G Pages: 1 -->
<svg width="290pt" height="282pt"
 viewBox="0.00 0.00 290.00 282.00" xmlns="http://www.w3.org/2000/svg" xmlns:xlink="http://www.w3.org/1999/xlink">
<g id="graph1" class="graph" transform="scale(1 1) rotate(0) translate(4 278)">
<title>G</title>
<polygon fill="white" stroke="white" points="-4,5 -4,-278 287,-278 287,5 -4,5"/>
<!-- Node1 -->
<g id="node1" class="node"><title>Node1</title>
<polygon fill="#bfbfbf" stroke="black" points="73.5,-161 73.5,-273 208.5,-273 208.5,-161 73.5,-161"/>
<text text-anchor="middle" x="141" y="-261" font-family="Helvetica,sans-Serif" font-size="10.00">NeuralFactory</text>
<polyline fill="none" stroke="black" points="73.5,-254 208.5,-254 "/>
<text text-anchor="middle" x="141" y="-242" font-family="Helvetica,sans-Serif" font-size="10.00"> </text>
<polyline fill="none" stroke="black" points="73.5,-235 208.5,-235 "/>
<text text-anchor="start" x="81.5" y="-223" font-family="Helvetica,sans-Serif" font-size="10.00">+ makeCon()</text>
<text text-anchor="start" x="81.5" y="-212" font-family="Helvetica,sans-Serif" font-size="10.00">+ makeCon()</text>
<text text-anchor="start" x="81.5" y="-201" font-family="Helvetica,sans-Serif" font-size="10.00">+ makeConContainer()</text>
<text text-anchor="start" x="81.5" y="-190" font-family="Helvetica,sans-Serif" font-size="10.00">+ makePredictBehavior()</text>
<text text-anchor="start" x="81.5" y="-179" font-family="Helvetica,sans-Serif" font-size="10.00">+ makeNeuron()</text>
<text text-anchor="start" x="81.5" y="-168" font-family="Helvetica,sans-Serif" font-size="10.00">+ makeNeuronContainer()</text>
</g>
<!-- Node2 -->
<g id="node3" class="node"><title>Node2</title>
<a xlink:href="class_m_l_pfactory.html" target="_top" xlink:title="class MLPfactory &#45;">
<polygon fill="white" stroke="black" points="0,-0.5 0,-123.5 132,-123.5 132,-0.5 0,-0.5"/>
<text text-anchor="middle" x="66" y="-111.5" font-family="Helvetica,sans-Serif" font-size="10.00">MLPfactory</text>
<polyline fill="none" stroke="black" points="0,-104.5 132,-104.5 "/>
<text text-anchor="middle" x="66" y="-92.5" font-family="Helvetica,sans-Serif" font-size="10.00"> </text>
<polyline fill="none" stroke="black" points="0,-85.5 132,-85.5 "/>
<text text-anchor="start" x="8" y="-73.5" font-family="Helvetica,sans-Serif" font-size="10.00">+ MLPfactory()</text>
<text text-anchor="start" x="8" y="-62.5" font-family="Helvetica,sans-Serif" font-size="10.00">&#45; makeCon()</text>
<text text-anchor="start" x="8" y="-51.5" font-family="Helvetica,sans-Serif" font-size="10.00">&#45; makeCon()</text>
<text text-anchor="start" x="8" y="-40.5" font-family="Helvetica,sans-Serif" font-size="10.00">&#45; makePredictBehavior()</text>
<text text-anchor="start" x="8" y="-29.5" font-family="Helvetica,sans-Serif" font-size="10.00">&#45; makeConContainer()</text>
<text text-anchor="start" x="8" y="-18.5" font-family="Helvetica,sans-Serif" font-size="10.00">&#45; makeNeuron()</text>
<text text-anchor="start" x="8" y="-7.5" font-family="Helvetica,sans-Serif" font-size="10.00">&#45; makeNeuronContainer()</text>
</a>
</g>
<!-- Node1&#45;&gt;Node2 -->
<g id="edge2" class="edge"><title>Node1&#45;&gt;Node2</title>
<path fill="none" stroke="midnightblue" d="M109.426,-151.589C104.879,-142.312 100.212,-132.792 95.7026,-123.593"/>
<polygon fill="none" stroke="midnightblue" points="106.379,-153.325 113.923,-160.763 112.664,-150.244 106.379,-153.325"/>
</g>
<!-- Node3 -->
<g id="node5" class="node"><title>Node3</title>
<a xlink:href="class_r_b_ffactory.html" target="_top" xlink:title="class RBFfactory &#45;">
<polygon fill="white" stroke="black" points="150,-0.5 150,-123.5 282,-123.5 282,-0.5 150,-0.5"/>
<text text-anchor="middle" x="216" y="-111.5" font-family="Helvetica,sans-Serif" font-size="10.00">RBFfactory</text>
<polyline fill="none" stroke="black" points="150,-104.5 282,-104.5 "/>
<text text-anchor="middle" x="216" y="-92.5" font-family="Helvetica,sans-Serif" font-size="10.00"> </text>
<polyline fill="none" stroke="black" points="150,-85.5 282,-85.5 "/>
<text text-anchor="start" x="158" y="-73.5" font-family="Helvetica,sans-Serif" font-size="10.00">+ RBFfactory()</text>
<text text-anchor="start" x="158" y="-62.5" font-family="Helvetica,sans-Serif" font-size="10.00">&#45; makeCon()</text>
<text text-anchor="start" x="158" y="-51.5" font-family="Helvetica,sans-Serif" font-size="10.00">&#45; makeCon()</text>
<text text-anchor="start" x="158" y="-40.5" font-family="Helvetica,sans-Serif" font-size="10.00">&#45; makeConContainer()</text>
<text text-anchor="start" x="158" y="-29.5" font-family="Helvetica,sans-Serif" font-size="10.00">&#45; makePredictBehavior()</text>
<text text-anchor="start" x="158" y="-18.5" font-family="Helvetica,sans-Serif" font-size="10.00">&#45; makeNeuron()</text>
<text text-anchor="start" x="158" y="-7.5" font-family="Helvetica,sans-Serif" font-size="10.00">&#45; makeNeuronContainer()</text>
</a>
</g>
<!-- Node1&#45;&gt;Node3 -->
<g id="edge4" class="edge"><title>Node1&#45;&gt;Node3</title>
<path fill="none" stroke="midnightblue" d="M172.574,-151.589C177.121,-142.312 181.788,-132.792 186.297,-123.593"/>
<polygon fill="none" stroke="midnightblue" points="169.336,-150.244 168.077,-160.763 175.621,-153.325 169.336,-150.244"/>
</g>
</g>
</svg>
