<?xml version="1.0" encoding="UTF-8" standalone="no"?>
<!DOCTYPE svg PUBLIC "-//W3C//DTD SVG 1.1//EN"
 "http://www.w3.org/Graphics/SVG/1.1/DTD/svg11.dtd">
<!-- Generated by graphviz version 2.28.0 (20110610.2051)
 -->
<!-- Title: G Pages: 1 -->
<svg width="342pt" height="282pt"
 viewBox="0.00 0.00 342.00 282.00" xmlns="http://www.w3.org/2000/svg" xmlns:xlink="http://www.w3.org/1999/xlink">
<g id="graph1" class="graph" transform="scale(1 1) rotate(0) translate(4 278)">
<title>G</title>
<polygon fill="white" stroke="white" points="-4,5 -4,-278 339,-278 339,5 -4,5"/>
<!-- Node1 -->
<g id="node1" class="node"><title>Node1</title>
<polygon fill="#bfbfbf" stroke="black" points="86.5,-128.5 86.5,-273.5 247.5,-273.5 247.5,-128.5 86.5,-128.5"/>
<text text-anchor="middle" x="167" y="-261.5" font-family="Helvetica,sans-Serif" font-size="10.00">PredictBehavior</text>
<polyline fill="none" stroke="black" points="86.5,-254.5 247.5,-254.5 "/>
<text text-anchor="start" x="94.5" y="-242.5" font-family="Helvetica,sans-Serif" font-size="10.00"># d_neuron</text>
<polyline fill="none" stroke="black" points="86.5,-235.5 247.5,-235.5 "/>
<text text-anchor="start" x="94.5" y="-223.5" font-family="Helvetica,sans-Serif" font-size="10.00">+ singlePatternForwardAction()</text>
<text text-anchor="start" x="94.5" y="-212.5" font-family="Helvetica,sans-Serif" font-size="10.00">+ show()</text>
<text text-anchor="start" x="94.5" y="-201.5" font-family="Helvetica,sans-Serif" font-size="10.00"># PredictBehavior()</text>
<text text-anchor="start" x="94.5" y="-190.5" font-family="Helvetica,sans-Serif" font-size="10.00"># useActivationFunctionf0()</text>
<text text-anchor="start" x="94.5" y="-179.5" font-family="Helvetica,sans-Serif" font-size="10.00"># useActivationFunctionf1()</text>
<text text-anchor="start" x="94.5" y="-168.5" font-family="Helvetica,sans-Serif" font-size="10.00"># getConIterator()</text>
<text text-anchor="start" x="94.5" y="-157.5" font-family="Helvetica,sans-Serif" font-size="10.00"># setOutput()</text>
<text text-anchor="start" x="94.5" y="-146.5" font-family="Helvetica,sans-Serif" font-size="10.00"># setOutputDerivative()</text>
<text text-anchor="start" x="94.5" y="-135.5" font-family="Helvetica,sans-Serif" font-size="10.00"># setInducedLocalField()</text>
</g>
<!-- Node2 -->
<g id="node3" class="node"><title>Node2</title>
<a xlink:href="class_m_l_pbehavior.html" target="_top" xlink:title="class MLPbehavior &#45;">
<polygon fill="white" stroke="black" points="0,-6.5 0,-85.5 158,-85.5 158,-6.5 0,-6.5"/>
<text text-anchor="middle" x="79" y="-73.5" font-family="Helvetica,sans-Serif" font-size="10.00">MLPbehavior</text>
<polyline fill="none" stroke="black" points="0,-66.5 158,-66.5 "/>
<text text-anchor="start" x="8" y="-54.5" font-family="Helvetica,sans-Serif" font-size="10.00">&#45; d_bias</text>
<polyline fill="none" stroke="black" points="0,-47.5 158,-47.5 "/>
<text text-anchor="start" x="8" y="-35.5" font-family="Helvetica,sans-Serif" font-size="10.00">+ MLPbehavior()</text>
<text text-anchor="start" x="8" y="-24.5" font-family="Helvetica,sans-Serif" font-size="10.00">&#45; singlePatternForwardAction()</text>
<text text-anchor="start" x="8" y="-13.5" font-family="Helvetica,sans-Serif" font-size="10.00">&#45; show()</text>
</a>
</g>
<!-- Node1&#45;&gt;Node2 -->
<g id="edge2" class="edge"><title>Node1&#45;&gt;Node2</title>
<path fill="none" stroke="midnightblue" d="M120.848,-119.758C114.003,-107.858 107.228,-96.0784 101.187,-85.5759"/>
<polygon fill="none" stroke="midnightblue" points="117.814,-121.504 125.834,-128.428 123.882,-118.014 117.814,-121.504"/>
</g>
<!-- Node3 -->
<g id="node5" class="node"><title>Node3</title>
<a xlink:href="class_r_b_fbehavior.html" target="_top" xlink:title="class RBFbehavior &#45;">
<polygon fill="white" stroke="black" points="176,-1 176,-91 334,-91 334,-1 176,-1"/>
<text text-anchor="middle" x="255" y="-79" font-family="Helvetica,sans-Serif" font-size="10.00">RBFbehavior</text>
<polyline fill="none" stroke="black" points="176,-72 334,-72 "/>
<text text-anchor="start" x="184" y="-60" font-family="Helvetica,sans-Serif" font-size="10.00">&#45; d_width</text>
<text text-anchor="start" x="184" y="-49" font-family="Helvetica,sans-Serif" font-size="10.00">&#45; d_altitude</text>
<polyline fill="none" stroke="black" points="176,-42 334,-42 "/>
<text text-anchor="start" x="184" y="-30" font-family="Helvetica,sans-Serif" font-size="10.00">+ RBFbehavior()</text>
<text text-anchor="start" x="184" y="-19" font-family="Helvetica,sans-Serif" font-size="10.00">&#45; singlePatternForwardAction()</text>
<text text-anchor="start" x="184" y="-8" font-family="Helvetica,sans-Serif" font-size="10.00">&#45; show()</text>
</a>
</g>
<!-- Node1&#45;&gt;Node3 -->
<g id="edge4" class="edge"><title>Node1&#45;&gt;Node3</title>
<path fill="none" stroke="midnightblue" d="M213.159,-119.747C218.837,-109.874 224.468,-100.085 229.67,-91.0391"/>
<polygon fill="none" stroke="midnightblue" points="210.118,-118.014 208.166,-128.428 216.186,-121.504 210.118,-118.014"/>
</g>
</g>
</svg>
