<?xml version="1.0" encoding="UTF-8" standalone="no"?>
<!DOCTYPE svg PUBLIC "-//W3C//DTD SVG 1.1//EN"
 "http://www.w3.org/Graphics/SVG/1.1/DTD/svg11.dtd">
<!-- Generated by graphviz version 2.28.0 (20110610.2051)
 -->
<!-- Title: G Pages: 1 -->
<svg width="172pt" height="66pt"
 viewBox="0.00 0.00 172.00 66.00" xmlns="http://www.w3.org/2000/svg" xmlns:xlink="http://www.w3.org/1999/xlink">
<g id="graph1" class="graph" transform="scale(1 1) rotate(0) translate(4 62)">
<title>G</title>
<polygon fill="white" stroke="white" points="-4,5 -4,-62 169,-62 169,5 -4,5"/>
<!-- Node1 -->
<g id="node1" class="node"><title>Node1</title>
<polygon fill="#bfbfbf" stroke="black" points="0,-19.5 0,-38.5 50,-38.5 50,-19.5 0,-19.5"/>
<text text-anchor="middle" x="25" y="-26.5" font-family="Helvetica,sans-Serif" font-size="10.00">Con::Id</text>
</g>
<!-- Node2 -->
<g id="node3" class="node"><title>Node2</title>
<a xlink:href="class_con.html#ab85838575b5e01f3b8073136f2102922" target="_top" xlink:title="Pretty print of the Con information.">
<polygon fill="white" stroke="black" points="92,-38.5 92,-57.5 158,-57.5 158,-38.5 92,-38.5"/>
<text text-anchor="middle" x="125" y="-45.5" font-family="Helvetica,sans-Serif" font-size="10.00">Con::show</text>
</a>
</g>
<!-- Node1&#45;&gt;Node2 -->
<g id="edge2" class="edge"><title>Node1&#45;&gt;Node2</title>
<path fill="none" stroke="midnightblue" d="M60.1397,-35.6189C70.4552,-37.6189 81.7412,-39.807 91.9175,-41.7799"/>
<polygon fill="midnightblue" stroke="midnightblue" points="60.7081,-32.164 50.2247,-33.6966 59.3757,-39.0361 60.7081,-32.164"/>
</g>
<!-- Node3 -->
<g id="node5" class="node"><title>Node3</title>
<a xlink:href="class_con.html#af5f836a7b0988b3d9113589b2959d5e6" target="_top" xlink:title="Object validator.">
<polygon fill="white" stroke="black" points="86.5,-0.5 86.5,-19.5 163.5,-19.5 163.5,-0.5 86.5,-0.5"/>
<text text-anchor="middle" x="125" y="-7.5" font-family="Helvetica,sans-Serif" font-size="10.00">Con::validate</text>
</a>
</g>
<!-- Node1&#45;&gt;Node3 -->
<g id="edge4" class="edge"><title>Node1&#45;&gt;Node3</title>
<path fill="none" stroke="midnightblue" d="M60.1397,-22.3811C68.5965,-20.7415 77.7057,-18.9754 86.3209,-17.3051"/>
<polygon fill="midnightblue" stroke="midnightblue" points="59.3757,-18.9639 50.2247,-24.3034 60.7081,-25.836 59.3757,-18.9639"/>
</g>
</g>
</svg>
