<?xml version="1.0" encoding="UTF-8" standalone="no"?>
<!DOCTYPE svg PUBLIC "-//W3C//DTD SVG 1.1//EN"
 "http://www.w3.org/Graphics/SVG/1.1/DTD/svg11.dtd">
<!-- Generated by graphviz version 2.25.20091207.0545 (20091207.0545)
 -->
<!-- Title: G Pages: 1 -->
<svg width="337pt" height="626pt"
 viewBox="0.00 0.00 337.00 626.00" xmlns="http://www.w3.org/2000/svg" xmlns:xlink="http://www.w3.org/1999/xlink">
<g id="graph1" class="graph" transform="scale(1 1) rotate(0) translate(4 622)">
<title>G</title>
<polygon fill="white" stroke="white" points="-4,5 -4,-622 334,-622 334,5 -4,5"/>
<!-- Node1 -->
<g id="node1" class="node"><title>Node1</title>
<polygon fill="#bfbfbf" stroke="black" points="212,-1 212,-69 296,-69 296,-1 212,-1"/>
<text text-anchor="middle" x="254" y="-56" font-family="Helvetica,sans-Serif" font-size="10.00">vecCon</text>
<polyline fill="none" stroke="black" points="212,-50 296,-50 "/>
<text text-anchor="middle" x="254" y="-37" font-family="Helvetica,sans-Serif" font-size="10.00"> </text>
<polyline fill="none" stroke="black" points="212,-31 296,-31 "/>
<text text-anchor="start" x="220" y="-18" font-family="Helvetica,sans-Serif" font-size="10.00">+ numOfCons()</text>
<text text-anchor="start" x="220" y="-7" font-family="Helvetica,sans-Serif" font-size="10.00">+ getFromId()</text>
</g>
<!-- Node2 -->
<g id="node2" class="node"><title>Node2</title>
<a xlink:href="classvec_a_m_o_r_e.html" target="_top" xlink:title="{vecAMORE\&lt; Con \&gt;\n|# ldata\l|+ push_back()\l+ show()\l+ validate()\l}">
<polygon fill="white" stroke="black" points="201.5,-108.5 201.5,-187.5 306.5,-187.5 306.5,-108.5 201.5,-108.5"/>
<text text-anchor="middle" x="254" y="-174.5" font-family="Helvetica,sans-Serif" font-size="10.00">vecAMORE&lt; Con &gt;</text>
<polyline fill="none" stroke="black" points="201.5,-168.5 306.5,-168.5 "/>
<text text-anchor="start" x="209.5" y="-155.5" font-family="Helvetica,sans-Serif" font-size="10.00"># ldata</text>
<polyline fill="none" stroke="black" points="201.5,-149.5 306.5,-149.5 "/>
<text text-anchor="start" x="209.5" y="-136.5" font-family="Helvetica,sans-Serif" font-size="10.00">+ push_back()</text>
<text text-anchor="start" x="209.5" y="-125.5" font-family="Helvetica,sans-Serif" font-size="10.00">+ show()</text>
<text text-anchor="start" x="209.5" y="-114.5" font-family="Helvetica,sans-Serif" font-size="10.00">+ validate()</text>
</a>
</g>
<!-- Node2&#45;&gt;Node1 -->
<g id="edge2" class="edge"><title>Node2&#45;&gt;Node1</title>
<path fill="none" stroke="midnightblue" d="M254,-98.3286C254,-88.4412 254,-78.2706 254,-69.0522"/>
<polygon fill="none" stroke="midnightblue" points="250.5,-98.478 254,-108.478 257.5,-98.4781 250.5,-98.478"/>
</g>
<!-- Node3 -->
<g id="node4" class="node"><title>Node3</title>
<polygon fill="white" stroke="#bfbfbf" points="120.5,-253.5 120.5,-310.5 219.5,-310.5 219.5,-253.5 120.5,-253.5"/>
<text text-anchor="middle" x="170" y="-297.5" font-family="Helvetica,sans-Serif" font-size="10.00">std::vector&lt; Con &gt;</text>
<polyline fill="none" stroke="#bfbfbf" points="120.5,-291.5 219.5,-291.5 "/>
<text text-anchor="start" x="128.5" y="-278.5" font-family="Helvetica,sans-Serif" font-size="10.00">&#45; elements</text>
<polyline fill="none" stroke="#bfbfbf" points="120.5,-272.5 219.5,-272.5 "/>
<text text-anchor="middle" x="170" y="-259.5" font-family="Helvetica,sans-Serif" font-size="10.00"> </text>
</g>
<!-- Node3&#45;&gt;Node2 -->
<g id="edge4" class="edge"><title>Node3&#45;&gt;Node2</title>
<path fill="none" stroke="#9a32cd" stroke-dasharray="5,2" d="M193.603,-244.347C204.694,-226.655 217.917,-205.561 229.159,-187.627"/>
<polygon fill="#9a32cd" stroke="#9a32cd" points="188.02,-253.254 189.519,-242.391 190.676,-249.017 193.332,-244.781 193.332,-244.781 193.332,-244.781 190.676,-249.017 197.144,-247.171 188.02,-253.254 188.02,-253.254"/>
<text text-anchor="middle" x="228.5" y="-208.5" font-family="Helvetica,sans-Serif" font-size="10.00">ldata</text>
</g>
<!-- Node4 -->
<g id="node6" class="node"><title>Node4</title>
<a xlink:href="class_con.html" target="_top" xlink:title="A class to handle the information needed to describe an input connection.">
<polygon fill="white" stroke="black" points="28.5,-377 28.5,-511 127.5,-511 127.5,-377 28.5,-377"/>
<text text-anchor="middle" x="78" y="-498" font-family="Helvetica,sans-Serif" font-size="10.00">Con</text>
<polyline fill="none" stroke="black" points="28.5,-492 127.5,-492 "/>
<text text-anchor="start" x="36.5" y="-479" font-family="Helvetica,sans-Serif" font-size="10.00">&#45; from</text>
<text text-anchor="start" x="36.5" y="-468" font-family="Helvetica,sans-Serif" font-size="10.00">&#45; weight</text>
<polyline fill="none" stroke="black" points="28.5,-462 127.5,-462 "/>
<text text-anchor="start" x="36.5" y="-449" font-family="Helvetica,sans-Serif" font-size="10.00">+ getFromNeuron()</text>
<text text-anchor="start" x="36.5" y="-438" font-family="Helvetica,sans-Serif" font-size="10.00">+ setFromNeuron()</text>
<text text-anchor="start" x="36.5" y="-427" font-family="Helvetica,sans-Serif" font-size="10.00">+ getFromId()</text>
<text text-anchor="start" x="36.5" y="-416" font-family="Helvetica,sans-Serif" font-size="10.00">+ getWeight()</text>
<text text-anchor="start" x="36.5" y="-405" font-family="Helvetica,sans-Serif" font-size="10.00">+ setWeight()</text>
<text text-anchor="start" x="36.5" y="-394" font-family="Helvetica,sans-Serif" font-size="10.00">+ show()</text>
<text text-anchor="start" x="36.5" y="-383" font-family="Helvetica,sans-Serif" font-size="10.00">+ validate()</text>
</a>
</g>
<!-- Node4&#45;&gt;Node3 -->
<g id="edge6" class="edge"><title>Node4&#45;&gt;Node3</title>
<path fill="none" stroke="#9a32cd" stroke-dasharray="5,2" d="M121.174,-367.977C132.794,-347.515 144.656,-326.627 153.778,-310.565"/>
<polygon fill="#9a32cd" stroke="#9a32cd" points="116.217,-376.705 117.242,-365.787 118.686,-372.357 121.155,-368.009 121.155,-368.009 121.155,-368.009 118.686,-372.357 125.068,-370.231 116.217,-376.705 116.217,-376.705"/>
<text text-anchor="middle" x="153" y="-348.5" font-family="Helvetica,sans-Serif" font-size="10.00">elements</text>
</g>
<!-- Node5 -->
<g id="node8" class="node"><title>Node5</title>
<a xlink:href="class_neuron.html" target="_top" xlink:title="A class to handle the information contained in a general Neuron.">
<polygon fill="white" stroke="black" points="0,-237 0,-327 74,-327 74,-237 0,-237"/>
<text text-anchor="middle" x="37" y="-314" font-family="Helvetica,sans-Serif" font-size="10.00">Neuron</text>
<polyline fill="none" stroke="black" points="0,-308 74,-308 "/>
<text text-anchor="start" x="8" y="-295" font-family="Helvetica,sans-Serif" font-size="10.00">&#45; Id</text>
<text text-anchor="start" x="8" y="-284" font-family="Helvetica,sans-Serif" font-size="10.00">&#45; vecCon</text>
<text text-anchor="start" x="8" y="-273" font-family="Helvetica,sans-Serif" font-size="10.00">&#45; outputValue</text>
<polyline fill="none" stroke="black" points="0,-267 74,-267 "/>
<text text-anchor="start" x="8" y="-254" font-family="Helvetica,sans-Serif" font-size="10.00">+ getId()</text>
<text text-anchor="start" x="8" y="-243" font-family="Helvetica,sans-Serif" font-size="10.00">+ setId()</text>
</a>
</g>
<!-- Node4&#45;&gt;Node5 -->
<g id="edge10" class="edge"><title>Node4&#45;&gt;Node5</title>
<path fill="none" stroke="#9a32cd" stroke-dasharray="5,2" d="M23.951,-371.084C22.0394,-366.773 20.364,-362.399 19,-358 15.9482,-348.157 16.2948,-337.46 18.2911,-327.284"/>
<polygon fill="#9a32cd" stroke="#9a32cd" points="28.4836,-380.404 20.0632,-373.379 26.2968,-375.907 24.11,-371.411 24.11,-371.411 24.11,-371.411 26.2968,-375.907 28.1568,-369.443 28.4836,-380.404 28.4836,-380.404"/>
<text text-anchor="middle" x="36" y="-348.5" font-family="Helvetica,sans-Serif" font-size="10.00">vecCon</text>
</g>
<!-- Node5&#45;&gt;Node4 -->
<g id="edge8" class="edge"><title>Node5&#45;&gt;Node4</title>
<path fill="none" stroke="#9a32cd" stroke-dasharray="5,2" d="M54.5448,-337.011C55.4015,-340.044 56.2261,-343.055 57,-346 59.6093,-355.929 62.1313,-366.487 64.4677,-376.856"/>
<polygon fill="#9a32cd" stroke="#9a32cd" points="51.7214,-327.302 58.835,-335.648 53.1177,-332.103 54.514,-336.905 54.514,-336.905 54.514,-336.905 53.1177,-332.103 50.193,-338.161 51.7214,-327.302 51.7214,-327.302"/>
<text text-anchor="middle" x="70" y="-348.5" font-family="Helvetica,sans-Serif" font-size="10.00">from</text>
</g>
<!-- Node6 -->
<g id="node11" class="node"><title>Node6</title>
<a xlink:title="STL class.">
<polygon fill="white" stroke="#bfbfbf" points="144.5,-415.5 144.5,-472.5 231.5,-472.5 231.5,-415.5 144.5,-415.5"/>
<text text-anchor="middle" x="188" y="-459.5" font-family="Helvetica,sans-Serif" font-size="10.00">std::vector&lt; T &gt;</text>
<polyline fill="none" stroke="#bfbfbf" points="144.5,-453.5 231.5,-453.5 "/>
<text text-anchor="start" x="152.5" y="-440.5" font-family="Helvetica,sans-Serif" font-size="10.00">&#45; elements</text>
<polyline fill="none" stroke="#bfbfbf" points="144.5,-434.5 231.5,-434.5 "/>
<text text-anchor="middle" x="188" y="-421.5" font-family="Helvetica,sans-Serif" font-size="10.00"> </text>
</a>
</g>
<!-- Node6&#45;&gt;Node3 -->
<g id="edge12" class="edge"><title>Node6&#45;&gt;Node3</title>
<path fill="none" stroke="orange" stroke-dasharray="5,2" d="M183.687,-405.182C180.452,-376.066 176.096,-336.863 173.175,-310.576"/>
<polygon fill="orange" stroke="orange" points="180.24,-405.858 184.823,-415.411 187.198,-405.085 180.24,-405.858"/>
<text text-anchor="middle" x="196" y="-348.5" font-family="Helvetica,sans-Serif" font-size="10.00">&lt; Con &gt;</text>
</g>
<!-- Node7 -->
<g id="node13" class="node"><title>Node7</title>
<polygon fill="white" stroke="#bfbfbf" points="173.5,-560.5 173.5,-617.5 202.5,-617.5 202.5,-560.5 173.5,-560.5"/>
<text text-anchor="middle" x="188" y="-604.5" font-family="Helvetica,sans-Serif" font-size="10.00">T</text>
<polyline fill="none" stroke="#bfbfbf" points="173.5,-598.5 202.5,-598.5 "/>
<text text-anchor="middle" x="188" y="-585.5" font-family="Helvetica,sans-Serif" font-size="10.00"> </text>
<polyline fill="none" stroke="#bfbfbf" points="173.5,-579.5 202.5,-579.5 "/>
<text text-anchor="middle" x="188" y="-566.5" font-family="Helvetica,sans-Serif" font-size="10.00"> </text>
</g>
<!-- Node7&#45;&gt;Node6 -->
<g id="edge14" class="edge"><title>Node7&#45;&gt;Node6</title>
<path fill="none" stroke="#9a32cd" stroke-dasharray="5,2" d="M188,-550.325C188,-525.877 188,-494.815 188,-472.588"/>
<polygon fill="#9a32cd" stroke="#9a32cd" points="188,-560.353 183.5,-550.353 188,-555.353 188,-550.353 188,-550.353 188,-550.353 188,-555.353 192.5,-550.353 188,-560.353 188,-560.353"/>
<text text-anchor="middle" x="208" y="-532.5" font-family="Helvetica,sans-Serif" font-size="10.00">elements</text>
</g>
<!-- Node8 -->
<g id="node15" class="node"><title>Node8</title>
<a xlink:href="classvec_a_m_o_r_e.html" target="_top" xlink:title="{vecAMORE\&lt; T \&gt;\n|# ldata\l|+ push_back()\l+ show()\l+ validate()\l}">
<polygon fill="white" stroke="black" points="236.5,-242.5 236.5,-321.5 329.5,-321.5 329.5,-242.5 236.5,-242.5"/>
<text text-anchor="middle" x="283" y="-308.5" font-family="Helvetica,sans-Serif" font-size="10.00">vecAMORE&lt; T &gt;</text>
<polyline fill="none" stroke="black" points="236.5,-302.5 329.5,-302.5 "/>
<text text-anchor="start" x="244.5" y="-289.5" font-family="Helvetica,sans-Serif" font-size="10.00"># ldata</text>
<polyline fill="none" stroke="black" points="236.5,-283.5 329.5,-283.5 "/>
<text text-anchor="start" x="244.5" y="-270.5" font-family="Helvetica,sans-Serif" font-size="10.00">+ push_back()</text>
<text text-anchor="start" x="244.5" y="-259.5" font-family="Helvetica,sans-Serif" font-size="10.00">+ show()</text>
<text text-anchor="start" x="244.5" y="-248.5" font-family="Helvetica,sans-Serif" font-size="10.00">+ validate()</text>
</a>
</g>
<!-- Node8&#45;&gt;Node2 -->
<g id="edge16" class="edge"><title>Node8&#45;&gt;Node2</title>
<path fill="none" stroke="orange" stroke-dasharray="5,2" d="M272.236,-232.262C269.071,-217.64 265.652,-201.842 262.639,-187.919"/>
<polygon fill="orange" stroke="orange" points="268.841,-233.125 274.378,-242.158 275.683,-231.644 268.841,-233.125"/>
<text text-anchor="middle" x="286" y="-208.5" font-family="Helvetica,sans-Serif" font-size="10.00">&lt; Con &gt;</text>
</g>
</g>
</svg>
