<?xml version="1.0" encoding="UTF-8" standalone="no"?>
<!DOCTYPE svg PUBLIC "-//W3C//DTD SVG 1.1//EN"
 "http://www.w3.org/Graphics/SVG/1.1/DTD/svg11.dtd">
<!-- Generated by graphviz version 2.25.20091207.0545 (20091207.0545)
 -->
<!-- Title: G Pages: 1 -->
<svg width="369pt" height="972pt"
 viewBox="0.00 0.00 369.00 972.00" xmlns="http://www.w3.org/2000/svg" xmlns:xlink="http://www.w3.org/1999/xlink">
<g id="graph1" class="graph" transform="scale(1 1) rotate(0) translate(4 968)">
<title>G</title>
<polygon fill="white" stroke="white" points="-4,5 -4,-968 366,-968 366,5 -4,5"/>
<!-- Node1 -->
<g id="node1" class="node"><title>Node1</title>
<polygon fill="#bfbfbf" stroke="black" points="102,-0.5 102,-57.5 204,-57.5 204,-0.5 102,-0.5"/>
<text text-anchor="middle" x="153" y="-44.5" font-family="Helvetica,sans-Serif" font-size="10.00">vecMLPneuron</text>
<polyline fill="none" stroke="black" points="102,-38.5 204,-38.5 "/>
<text text-anchor="middle" x="153" y="-25.5" font-family="Helvetica,sans-Serif" font-size="10.00"> </text>
<polyline fill="none" stroke="black" points="102,-19.5 204,-19.5 "/>
<text text-anchor="start" x="110" y="-6.5" font-family="Helvetica,sans-Serif" font-size="10.00">+ buildAndAppend()</text>
</g>
<!-- Node2 -->
<g id="node2" class="node"><title>Node2</title>
<a xlink:href="classvec_neuron.html" target="_top" xlink:title="A vector of neurons.">
<polygon fill="white" stroke="black" points="121.5,-96.5 121.5,-153.5 184.5,-153.5 184.5,-96.5 121.5,-96.5"/>
<text text-anchor="middle" x="153" y="-140.5" font-family="Helvetica,sans-Serif" font-size="10.00">vecNeuron</text>
<polyline fill="none" stroke="black" points="121.5,-134.5 184.5,-134.5 "/>
<text text-anchor="middle" x="153" y="-121.5" font-family="Helvetica,sans-Serif" font-size="10.00"> </text>
<polyline fill="none" stroke="black" points="121.5,-115.5 184.5,-115.5 "/>
<text text-anchor="middle" x="153" y="-102.5" font-family="Helvetica,sans-Serif" font-size="10.00"> </text>
</a>
</g>
<!-- Node2&#45;&gt;Node1 -->
<g id="edge2" class="edge"><title>Node2&#45;&gt;Node1</title>
<path fill="none" stroke="midnightblue" d="M153,-86.3234C153,-76.7274 153,-66.6143 153,-57.599"/>
<polygon fill="none" stroke="midnightblue" points="149.5,-86.4567 153,-96.4568 156.5,-86.4568 149.5,-86.4567"/>
</g>
<!-- Node3 -->
<g id="node4" class="node"><title>Node3</title>
<a xlink:href="class_container.html" target="_top" xlink:title="{Container\&lt; Neuron \&gt;\n|# collection\l|+ begin()\l+ end()\l+ load()\l+ store()\l+ size()\l+ push_back()\l+ append()\l+ show()\l+ validate()\l+ reserve()\l+ resize()\l+ operator[]()\l}">
<polygon fill="white" stroke="black" points="99,-193 99,-371 207,-371 207,-193 99,-193"/>
<text text-anchor="middle" x="153" y="-358" font-family="Helvetica,sans-Serif" font-size="10.00">Container&lt; Neuron &gt;</text>
<polyline fill="none" stroke="black" points="99,-352 207,-352 "/>
<text text-anchor="start" x="107" y="-339" font-family="Helvetica,sans-Serif" font-size="10.00"># collection</text>
<polyline fill="none" stroke="black" points="99,-333 207,-333 "/>
<text text-anchor="start" x="107" y="-320" font-family="Helvetica,sans-Serif" font-size="10.00">+ begin()</text>
<text text-anchor="start" x="107" y="-309" font-family="Helvetica,sans-Serif" font-size="10.00">+ end()</text>
<text text-anchor="start" x="107" y="-298" font-family="Helvetica,sans-Serif" font-size="10.00">+ load()</text>
<text text-anchor="start" x="107" y="-287" font-family="Helvetica,sans-Serif" font-size="10.00">+ store()</text>
<text text-anchor="start" x="107" y="-276" font-family="Helvetica,sans-Serif" font-size="10.00">+ size()</text>
<text text-anchor="start" x="107" y="-265" font-family="Helvetica,sans-Serif" font-size="10.00">+ push_back()</text>
<text text-anchor="start" x="107" y="-254" font-family="Helvetica,sans-Serif" font-size="10.00">+ append()</text>
<text text-anchor="start" x="107" y="-243" font-family="Helvetica,sans-Serif" font-size="10.00">+ show()</text>
<text text-anchor="start" x="107" y="-232" font-family="Helvetica,sans-Serif" font-size="10.00">+ validate()</text>
<text text-anchor="start" x="107" y="-221" font-family="Helvetica,sans-Serif" font-size="10.00">+ reserve()</text>
<text text-anchor="start" x="107" y="-210" font-family="Helvetica,sans-Serif" font-size="10.00">+ resize()</text>
<text text-anchor="start" x="107" y="-199" font-family="Helvetica,sans-Serif" font-size="10.00">+ operator[]()</text>
</a>
</g>
<!-- Node3&#45;&gt;Node2 -->
<g id="edge4" class="edge"><title>Node3&#45;&gt;Node2</title>
<path fill="none" stroke="midnightblue" d="M153,-182.701C153,-172.156 153,-162.151 153,-153.524"/>
<polygon fill="none" stroke="midnightblue" points="149.5,-182.949 153,-192.949 156.5,-182.949 149.5,-182.949"/>
</g>
<!-- Node4 -->
<g id="node6" class="node"><title>Node4</title>
<polygon fill="white" stroke="#bfbfbf" points="0,-618.5 0,-675.5 206,-675.5 206,-618.5 0,-618.5"/>
<text text-anchor="middle" x="103" y="-662.5" font-family="Helvetica,sans-Serif" font-size="10.00">std::vector&lt; boost::shared_ptr&lt; Neuron &gt; &gt;</text>
<polyline fill="none" stroke="#bfbfbf" points="0,-656.5 206,-656.5 "/>
<text text-anchor="start" x="8" y="-643.5" font-family="Helvetica,sans-Serif" font-size="10.00">&#45; elements</text>
<polyline fill="none" stroke="#bfbfbf" points="0,-637.5 206,-637.5 "/>
<text text-anchor="middle" x="103" y="-624.5" font-family="Helvetica,sans-Serif" font-size="10.00"> </text>
</g>
<!-- Node4&#45;&gt;Node3 -->
<g id="edge6" class="edge"><title>Node4&#45;&gt;Node3</title>
<path fill="none" stroke="#9a32cd" stroke-dasharray="5,2" d="M108.322,-608.15C116.003,-552.076 130.414,-446.88 140.795,-371.099"/>
<polygon fill="#9a32cd" stroke="#9a32cd" points="106.923,-618.359 103.822,-607.841 107.602,-613.405 108.281,-608.452 108.281,-608.452 108.281,-608.452 107.602,-613.405 112.739,-609.062 106.923,-618.359 106.923,-618.359"/>
<text text-anchor="middle" x="154.5" y="-506.5" font-family="Helvetica,sans-Serif" font-size="10.00">collection</text>
</g>
<!-- Node5 -->
<g id="node8" class="node"><title>Node5</title>
<a xlink:title="STL class.">
<polygon fill="white" stroke="#bfbfbf" points="132.5,-800.5 132.5,-857.5 219.5,-857.5 219.5,-800.5 132.5,-800.5"/>
<text text-anchor="middle" x="176" y="-844.5" font-family="Helvetica,sans-Serif" font-size="10.00">std::vector&lt; T &gt;</text>
<polyline fill="none" stroke="#bfbfbf" points="132.5,-838.5 219.5,-838.5 "/>
<text text-anchor="start" x="140.5" y="-825.5" font-family="Helvetica,sans-Serif" font-size="10.00">&#45; elements</text>
<polyline fill="none" stroke="#bfbfbf" points="132.5,-819.5 219.5,-819.5 "/>
<text text-anchor="middle" x="176" y="-806.5" font-family="Helvetica,sans-Serif" font-size="10.00"> </text>
</a>
</g>
<!-- Node5&#45;&gt;Node4 -->
<g id="edge8" class="edge"><title>Node5&#45;&gt;Node4</title>
<path fill="none" stroke="orange" stroke-dasharray="5,2" d="M123.256,-811.422C110.116,-804.402 97.6162,-794.842 90,-782 70.6621,-749.394 80.7895,-704.405 90.9689,-675.504"/>
<polygon fill="orange" stroke="orange" points="121.881,-814.645 132.403,-815.885 124.95,-808.354 121.881,-814.645"/>
<text text-anchor="middle" x="161.5" y="-772.5" font-family="Helvetica,sans-Serif" font-size="10.00">&lt; boost::shared_ptr&lt; Neuron &gt; &gt;</text>
</g>
<!-- Node8 -->
<g id="node14" class="node"><title>Node8</title>
<polygon fill="white" stroke="#bfbfbf" points="164,-694.5 164,-751.5 344,-751.5 344,-694.5 164,-694.5"/>
<text text-anchor="middle" x="254" y="-738.5" font-family="Helvetica,sans-Serif" font-size="10.00">std::vector&lt; boost::shared_ptr&lt; T &gt; &gt;</text>
<polyline fill="none" stroke="#bfbfbf" points="164,-732.5 344,-732.5 "/>
<text text-anchor="start" x="172" y="-719.5" font-family="Helvetica,sans-Serif" font-size="10.00">&#45; elements</text>
<polyline fill="none" stroke="#bfbfbf" points="164,-713.5 344,-713.5 "/>
<text text-anchor="middle" x="254" y="-700.5" font-family="Helvetica,sans-Serif" font-size="10.00"> </text>
</g>
<!-- Node5&#45;&gt;Node8 -->
<g id="edge16" class="edge"><title>Node5&#45;&gt;Node8</title>
<path fill="none" stroke="orange" stroke-dasharray="5,2" d="M227.038,-794.053C230.72,-790.271 234.113,-786.244 237,-782 243.116,-773.01 247.057,-761.818 249.586,-751.605"/>
<polygon fill="orange" stroke="orange" points="224.531,-791.605 219.657,-801.012 229.334,-796.698 224.531,-791.605"/>
<text text-anchor="middle" x="302" y="-772.5" font-family="Helvetica,sans-Serif" font-size="10.00">&lt; boost::shared_ptr&lt; T &gt; &gt;</text>
</g>
<!-- Node6 -->
<g id="node10" class="node"><title>Node6</title>
<polygon fill="white" stroke="#bfbfbf" points="161.5,-906.5 161.5,-963.5 190.5,-963.5 190.5,-906.5 161.5,-906.5"/>
<text text-anchor="middle" x="176" y="-950.5" font-family="Helvetica,sans-Serif" font-size="10.00">T</text>
<polyline fill="none" stroke="#bfbfbf" points="161.5,-944.5 190.5,-944.5 "/>
<text text-anchor="middle" x="176" y="-931.5" font-family="Helvetica,sans-Serif" font-size="10.00"> </text>
<polyline fill="none" stroke="#bfbfbf" points="161.5,-925.5 190.5,-925.5 "/>
<text text-anchor="middle" x="176" y="-912.5" font-family="Helvetica,sans-Serif" font-size="10.00"> </text>
</g>
<!-- Node6&#45;&gt;Node5 -->
<g id="edge10" class="edge"><title>Node6&#45;&gt;Node5</title>
<path fill="none" stroke="#9a32cd" stroke-dasharray="5,2" d="M176,-896.005C176,-883.326 176,-869.494 176,-857.708"/>
<polygon fill="#9a32cd" stroke="#9a32cd" points="176,-906.315 171.5,-896.315 176,-901.315 176,-896.315 176,-896.315 176,-896.315 176,-901.315 180.5,-896.315 176,-906.315 176,-906.315"/>
<text text-anchor="middle" x="196" y="-878.5" font-family="Helvetica,sans-Serif" font-size="10.00">elements</text>
</g>
<!-- Node7 -->
<g id="node12" class="node"><title>Node7</title>
<a xlink:href="class_container.html" target="_top" xlink:title="{Container\&lt; T \&gt;\n|# collection\l|+ begin()\l+ end()\l+ load()\l+ store()\l+ size()\l+ push_back()\l+ append()\l+ show()\l+ validate()\l+ reserve()\l+ resize()\l+ operator[]()\l}">
<polygon fill="white" stroke="black" points="185,-421 185,-599 267,-599 267,-421 185,-421"/>
<text text-anchor="middle" x="226" y="-586" font-family="Helvetica,sans-Serif" font-size="10.00">Container&lt; T &gt;</text>
<polyline fill="none" stroke="black" points="185,-580 267,-580 "/>
<text text-anchor="start" x="193" y="-567" font-family="Helvetica,sans-Serif" font-size="10.00"># collection</text>
<polyline fill="none" stroke="black" points="185,-561 267,-561 "/>
<text text-anchor="start" x="193" y="-548" font-family="Helvetica,sans-Serif" font-size="10.00">+ begin()</text>
<text text-anchor="start" x="193" y="-537" font-family="Helvetica,sans-Serif" font-size="10.00">+ end()</text>
<text text-anchor="start" x="193" y="-526" font-family="Helvetica,sans-Serif" font-size="10.00">+ load()</text>
<text text-anchor="start" x="193" y="-515" font-family="Helvetica,sans-Serif" font-size="10.00">+ store()</text>
<text text-anchor="start" x="193" y="-504" font-family="Helvetica,sans-Serif" font-size="10.00">+ size()</text>
<text text-anchor="start" x="193" y="-493" font-family="Helvetica,sans-Serif" font-size="10.00">+ push_back()</text>
<text text-anchor="start" x="193" y="-482" font-family="Helvetica,sans-Serif" font-size="10.00">+ append()</text>
<text text-anchor="start" x="193" y="-471" font-family="Helvetica,sans-Serif" font-size="10.00">+ show()</text>
<text text-anchor="start" x="193" y="-460" font-family="Helvetica,sans-Serif" font-size="10.00">+ validate()</text>
<text text-anchor="start" x="193" y="-449" font-family="Helvetica,sans-Serif" font-size="10.00">+ reserve()</text>
<text text-anchor="start" x="193" y="-438" font-family="Helvetica,sans-Serif" font-size="10.00">+ resize()</text>
<text text-anchor="start" x="193" y="-427" font-family="Helvetica,sans-Serif" font-size="10.00">+ operator[]()</text>
</a>
</g>
<!-- Node7&#45;&gt;Node3 -->
<g id="edge12" class="edge"><title>Node7&#45;&gt;Node3</title>
<path fill="none" stroke="orange" stroke-dasharray="5,2" d="M194.37,-411.211C190.097,-397.864 185.732,-384.233 181.518,-371.068"/>
<polygon fill="orange" stroke="orange" points="191.08,-412.413 197.463,-420.87 197.747,-410.279 191.08,-412.413"/>
<text text-anchor="middle" x="214" y="-392.5" font-family="Helvetica,sans-Serif" font-size="10.00">&lt; Neuron &gt;</text>
</g>
<!-- Node8&#45;&gt;Node7 -->
<g id="edge14" class="edge"><title>Node8&#45;&gt;Node7</title>
<path fill="none" stroke="#9a32cd" stroke-dasharray="5,2" d="M248.908,-684.266C245.786,-660.514 241.652,-629.07 237.757,-599.437"/>
<polygon fill="#9a32cd" stroke="#9a32cd" points="250.224,-694.274 244.459,-684.946 249.572,-689.317 248.92,-684.359 248.92,-684.359 248.92,-684.359 249.572,-689.317 253.382,-683.773 250.224,-694.274 250.224,-694.274"/>
<text text-anchor="middle" x="267.5" y="-643.5" font-family="Helvetica,sans-Serif" font-size="10.00">collection</text>
</g>
</g>
</svg>
