<?xml version="1.0" encoding="UTF-8" standalone="no"?>
<!DOCTYPE svg PUBLIC "-//W3C//DTD SVG 1.1//EN"
 "http://www.w3.org/Graphics/SVG/1.1/DTD/svg11.dtd">
<!-- Generated by graphviz version 2.25.20091207.0545 (20091207.0545)
 -->
<!-- Title: G Pages: 1 -->
<svg width="320pt" height="142pt"
 viewBox="0.00 0.00 320.00 142.00" xmlns="http://www.w3.org/2000/svg" xmlns:xlink="http://www.w3.org/1999/xlink">
<g id="graph1" class="graph" transform="scale(1 1) rotate(0) translate(4 138)">
<title>G</title>
<polygon fill="white" stroke="white" points="-4,5 -4,-138 317,-138 317,5 -4,5"/>
<!-- Node1 -->
<g id="node1" class="node"><title>Node1</title>
<polygon fill="#bfbfbf" stroke="black" points="0,-38.5 0,-57.5 128,-57.5 128,-38.5 0,-38.5"/>
<text text-anchor="middle" x="64" y="-44.5" font-family="Helvetica,sans-Serif" font-size="10.00">VecCon::buildAndAppend</text>
</g>
<!-- Node2 -->
<g id="node3" class="node"><title>Node2</title>
<a xlink:href="class_container.html#ab8e09c25f519687468ef5b9f0fae9b3e" target="_top" xlink:title="Container::empty">
<polygon fill="white" stroke="black" points="192.5,-114.5 192.5,-133.5 283.5,-133.5 283.5,-114.5 192.5,-114.5"/>
<text text-anchor="middle" x="238" y="-120.5" font-family="Helvetica,sans-Serif" font-size="10.00">Container::empty</text>
</a>
</g>
<!-- Node1&#45;&gt;Node2 -->
<g id="edge2" class="edge"><title>Node1&#45;&gt;Node2</title>
<path fill="none" stroke="midnightblue" d="M77.9631,-57.5666C96.7574,-70.0589 131.585,-91.8761 164,-105 169.971,-107.417 176.339,-109.601 182.739,-111.553"/>
<polygon fill="midnightblue" stroke="midnightblue" points="182.193,-115.038 192.77,-114.43 184.123,-108.309 182.193,-115.038"/>
</g>
<!-- Node3 -->
<g id="node5" class="node"><title>Node3</title>
<a xlink:href="class_container.html#afd87c69cb799ed7b434c29090083a285" target="_top" xlink:title="Container\&lt; Con \&gt;::push_back">
<polygon fill="white" stroke="black" points="164.5,-76.5 164.5,-95.5 311.5,-95.5 311.5,-76.5 164.5,-76.5"/>
<text text-anchor="middle" x="238" y="-82.5" font-family="Helvetica,sans-Serif" font-size="10.00">Container&lt; Con &gt;::push_back</text>
</a>
</g>
<!-- Node1&#45;&gt;Node3 -->
<g id="edge4" class="edge"><title>Node1&#45;&gt;Node3</title>
<path fill="none" stroke="midnightblue" d="M107.908,-57.589C131.179,-62.6713 159.954,-68.9554 184.519,-74.3203"/>
<polygon fill="midnightblue" stroke="midnightblue" points="183.892,-77.7657 194.408,-76.4799 185.385,-70.9268 183.892,-77.7657"/>
</g>
<!-- Node4 -->
<g id="node7" class="node"><title>Node4</title>
<a xlink:href="class_container.html#aa3cbae68ebeed649c52eb3805a30fb75" target="_top" xlink:title="Container\&lt; Con \&gt;::reserve">
<polygon fill="white" stroke="black" points="172,-38.5 172,-57.5 304,-57.5 304,-38.5 172,-38.5"/>
<text text-anchor="middle" x="238" y="-44.5" font-family="Helvetica,sans-Serif" font-size="10.00">Container&lt; Con &gt;::reserve</text>
</a>
</g>
<!-- Node1&#45;&gt;Node4 -->
<g id="edge6" class="edge"><title>Node1&#45;&gt;Node4</title>
<path fill="none" stroke="midnightblue" d="M128.297,-48C139.192,-48 150.599,-48 161.765,-48"/>
<polygon fill="midnightblue" stroke="midnightblue" points="161.93,-51.5001 171.93,-48 161.93,-44.5001 161.93,-51.5001"/>
</g>
<!-- Node5 -->
<g id="node9" class="node"><title>Node5</title>
<a xlink:href="class_container.html#a842c3d9eca81b78b59112fde9707b091" target="_top" xlink:title="Container\&lt; Con \&gt;::size">
<polygon fill="white" stroke="black" points="179,-0.5 179,-19.5 297,-19.5 297,-0.5 179,-0.5"/>
<text text-anchor="middle" x="238" y="-6.5" font-family="Helvetica,sans-Serif" font-size="10.00">Container&lt; Con &gt;::size</text>
</a>
</g>
<!-- Node1&#45;&gt;Node5 -->
<g id="edge8" class="edge"><title>Node1&#45;&gt;Node5</title>
<path fill="none" stroke="midnightblue" d="M86.3912,-38.4076C107.255,-32.1448 139.475,-24.4684 168.856,-18.4785"/>
<polygon fill="midnightblue" stroke="midnightblue" points="169.568,-21.9053 178.69,-16.5162 168.199,-15.0406 169.568,-21.9053"/>
</g>
<!-- Node1&#45;&gt;Node5 -->
<g id="edge10" class="edge"><title>Node1&#45;&gt;Node5</title>
<path fill="none" stroke="midnightblue" d="M128.297,-40.4996C154.706,-35.2276 184.116,-28.4173 205.832,-22.4042"/>
<polygon fill="midnightblue" stroke="midnightblue" points="206.885,-25.7434 215.528,-19.6165 204.95,-19.0159 206.885,-25.7434"/>
</g>
</g>
</svg>
