<?xml version="1.0" encoding="UTF-8" standalone="no"?>
<!DOCTYPE svg PUBLIC "-//W3C//DTD SVG 1.1//EN"
 "http://www.w3.org/Graphics/SVG/1.1/DTD/svg11.dtd">
<!-- Generated by graphviz version 2.25.20091207.0545 (20091207.0545)
 -->
<!-- Title: G Pages: 1 -->
<svg width="351pt" height="1084pt"
 viewBox="0.00 0.00 351.00 1084.00" xmlns="http://www.w3.org/2000/svg" xmlns:xlink="http://www.w3.org/1999/xlink">
<g id="graph1" class="graph" transform="scale(1 1) rotate(0) translate(4 1080)">
<title>G</title>
<polygon fill="white" stroke="white" points="-4,5 -4,-1080 348,-1080 348,5 -4,5"/>
<!-- Node1 -->
<g id="node1" class="node"><title>Node1</title>
<polygon fill="#bfbfbf" stroke="black" points="90,-1 90,-201 192,-201 192,-1 90,-1"/>
<text text-anchor="middle" x="141" y="-188" font-family="Helvetica,sans-Serif" font-size="10.00">VecCon</text>
<polyline fill="none" stroke="black" points="90,-182 192,-182 "/>
<text text-anchor="middle" x="141" y="-169" font-family="Helvetica,sans-Serif" font-size="10.00"> </text>
<polyline fill="none" stroke="black" points="90,-163 192,-163 "/>
<text text-anchor="start" x="98" y="-150" font-family="Helvetica,sans-Serif" font-size="10.00">+ VecCon()</text>
<text text-anchor="start" x="98" y="-139" font-family="Helvetica,sans-Serif" font-size="10.00">+ VecCon()</text>
<text text-anchor="start" x="98" y="-128" font-family="Helvetica,sans-Serif" font-size="10.00">+ numOfCons()</text>
<text text-anchor="start" x="98" y="-117" font-family="Helvetica,sans-Serif" font-size="10.00">+ getId()</text>
<text text-anchor="start" x="98" y="-106" font-family="Helvetica,sans-Serif" font-size="10.00">+ buildAndAppend()</text>
<text text-anchor="start" x="98" y="-95" font-family="Helvetica,sans-Serif" font-size="10.00">+ getWeight()</text>
<text text-anchor="start" x="98" y="-84" font-family="Helvetica,sans-Serif" font-size="10.00">+ getWeight()</text>
<text text-anchor="start" x="98" y="-73" font-family="Helvetica,sans-Serif" font-size="10.00">+ getFrom()</text>
<text text-anchor="start" x="98" y="-62" font-family="Helvetica,sans-Serif" font-size="10.00">+ setWeight()</text>
<text text-anchor="start" x="98" y="-51" font-family="Helvetica,sans-Serif" font-size="10.00">+ setWeight()</text>
<text text-anchor="start" x="98" y="-40" font-family="Helvetica,sans-Serif" font-size="10.00">+ setFrom()</text>
<text text-anchor="start" x="98" y="-29" font-family="Helvetica,sans-Serif" font-size="10.00">+ erase()</text>
<text text-anchor="start" x="98" y="-18" font-family="Helvetica,sans-Serif" font-size="10.00">+ select()</text>
<text text-anchor="start" x="98" y="-7" font-family="Helvetica,sans-Serif" font-size="10.00">+ validate()</text>
</g>
<!-- Node2 -->
<g id="node2" class="node"><title>Node2</title>
<a xlink:href="class_container.html" target="_top" xlink:title="{Container\&lt; Con \&gt;\n|# collection\l|+ Container()\l+ Container()\l+ begin()\l+ end()\l+ load()\l+ store()\l+ size()\l+ push_back()\l+ append()\l+ show()\l+ validate()\l+ reserve()\l+ resize()\l+ empty()\l+ operator[]()\l}">
<polygon fill="white" stroke="black" points="94,-240.5 94,-451.5 188,-451.5 188,-240.5 94,-240.5"/>
<text text-anchor="middle" x="141" y="-438.5" font-family="Helvetica,sans-Serif" font-size="10.00">Container&lt; Con &gt;</text>
<polyline fill="none" stroke="black" points="94,-432.5 188,-432.5 "/>
<text text-anchor="start" x="102" y="-419.5" font-family="Helvetica,sans-Serif" font-size="10.00"># collection</text>
<polyline fill="none" stroke="black" points="94,-413.5 188,-413.5 "/>
<text text-anchor="start" x="102" y="-400.5" font-family="Helvetica,sans-Serif" font-size="10.00">+ Container()</text>
<text text-anchor="start" x="102" y="-389.5" font-family="Helvetica,sans-Serif" font-size="10.00">+ Container()</text>
<text text-anchor="start" x="102" y="-378.5" font-family="Helvetica,sans-Serif" font-size="10.00">+ begin()</text>
<text text-anchor="start" x="102" y="-367.5" font-family="Helvetica,sans-Serif" font-size="10.00">+ end()</text>
<text text-anchor="start" x="102" y="-356.5" font-family="Helvetica,sans-Serif" font-size="10.00">+ load()</text>
<text text-anchor="start" x="102" y="-345.5" font-family="Helvetica,sans-Serif" font-size="10.00">+ store()</text>
<text text-anchor="start" x="102" y="-334.5" font-family="Helvetica,sans-Serif" font-size="10.00">+ size()</text>
<text text-anchor="start" x="102" y="-323.5" font-family="Helvetica,sans-Serif" font-size="10.00">+ push_back()</text>
<text text-anchor="start" x="102" y="-312.5" font-family="Helvetica,sans-Serif" font-size="10.00">+ append()</text>
<text text-anchor="start" x="102" y="-301.5" font-family="Helvetica,sans-Serif" font-size="10.00">+ show()</text>
<text text-anchor="start" x="102" y="-290.5" font-family="Helvetica,sans-Serif" font-size="10.00">+ validate()</text>
<text text-anchor="start" x="102" y="-279.5" font-family="Helvetica,sans-Serif" font-size="10.00">+ reserve()</text>
<text text-anchor="start" x="102" y="-268.5" font-family="Helvetica,sans-Serif" font-size="10.00">+ resize()</text>
<text text-anchor="start" x="102" y="-257.5" font-family="Helvetica,sans-Serif" font-size="10.00">+ empty()</text>
<text text-anchor="start" x="102" y="-246.5" font-family="Helvetica,sans-Serif" font-size="10.00">+ operator[]()</text>
</a>
</g>
<!-- Node2&#45;&gt;Node1 -->
<g id="edge2" class="edge"><title>Node2&#45;&gt;Node1</title>
<path fill="none" stroke="midnightblue" d="M141,-230.263C141,-220.582 141,-210.845 141,-201.294"/>
<polygon fill="none" stroke="midnightblue" points="137.5,-230.32 141,-240.32 144.5,-230.32 137.5,-230.32"/>
</g>
<!-- Node3 -->
<g id="node4" class="node"><title>Node3</title>
<polygon fill="white" stroke="#bfbfbf" points="0,-730.5 0,-787.5 192,-787.5 192,-730.5 0,-730.5"/>
<text text-anchor="middle" x="96" y="-774.5" font-family="Helvetica,sans-Serif" font-size="10.00">std::vector&lt; boost::shared_ptr&lt; Con &gt; &gt;</text>
<polyline fill="none" stroke="#bfbfbf" points="0,-768.5 192,-768.5 "/>
<text text-anchor="start" x="8" y="-755.5" font-family="Helvetica,sans-Serif" font-size="10.00">&#45; elements</text>
<polyline fill="none" stroke="#bfbfbf" points="0,-749.5 192,-749.5 "/>
<text text-anchor="middle" x="96" y="-736.5" font-family="Helvetica,sans-Serif" font-size="10.00"> </text>
</g>
<!-- Node3&#45;&gt;Node2 -->
<g id="edge4" class="edge"><title>Node3&#45;&gt;Node2</title>
<path fill="none" stroke="#9a32cd" stroke-dasharray="5,2" d="M99.6322,-720.049C104.424,-669.343 113.276,-577.987 122,-500 123.752,-484.338 125.695,-467.793 127.651,-451.585"/>
<polygon fill="#9a32cd" stroke="#9a32cd" points="98.6727,-730.233 95.1307,-719.855 99.1418,-725.255 99.6108,-720.277 99.6108,-720.277 99.6108,-720.277 99.1418,-725.255 104.091,-720.699 98.6727,-730.233 98.6727,-730.233"/>
<text text-anchor="middle" x="142.5" y="-602.5" font-family="Helvetica,sans-Serif" font-size="10.00">collection</text>
</g>
<!-- Node4 -->
<g id="node6" class="node"><title>Node4</title>
<a xlink:title="STL class.">
<polygon fill="white" stroke="#bfbfbf" points="120.5,-912.5 120.5,-969.5 207.5,-969.5 207.5,-912.5 120.5,-912.5"/>
<text text-anchor="middle" x="164" y="-956.5" font-family="Helvetica,sans-Serif" font-size="10.00">std::vector&lt; T &gt;</text>
<polyline fill="none" stroke="#bfbfbf" points="120.5,-950.5 207.5,-950.5 "/>
<text text-anchor="start" x="128.5" y="-937.5" font-family="Helvetica,sans-Serif" font-size="10.00">&#45; elements</text>
<polyline fill="none" stroke="#bfbfbf" points="120.5,-931.5 207.5,-931.5 "/>
<text text-anchor="middle" x="164" y="-918.5" font-family="Helvetica,sans-Serif" font-size="10.00"> </text>
</a>
</g>
<!-- Node4&#45;&gt;Node3 -->
<g id="edge6" class="edge"><title>Node4&#45;&gt;Node3</title>
<path fill="none" stroke="orange" stroke-dasharray="5,2" d="M111.191,-919.955C100.727,-913.266 91.1016,-904.73 85,-894 66.3434,-861.192 75.4042,-816.458 84.7607,-787.647"/>
<polygon fill="orange" stroke="orange" points="109.714,-923.145 120.118,-925.147 113.233,-917.094 109.714,-923.145"/>
<text text-anchor="middle" x="150" y="-884.5" font-family="Helvetica,sans-Serif" font-size="10.00">&lt; boost::shared_ptr&lt; Con &gt; &gt;</text>
</g>
<!-- Node7 -->
<g id="node12" class="node"><title>Node7</title>
<polygon fill="white" stroke="#bfbfbf" points="146,-806.5 146,-863.5 326,-863.5 326,-806.5 146,-806.5"/>
<text text-anchor="middle" x="236" y="-850.5" font-family="Helvetica,sans-Serif" font-size="10.00">std::vector&lt; boost::shared_ptr&lt; T &gt; &gt;</text>
<polyline fill="none" stroke="#bfbfbf" points="146,-844.5 326,-844.5 "/>
<text text-anchor="start" x="154" y="-831.5" font-family="Helvetica,sans-Serif" font-size="10.00">&#45; elements</text>
<polyline fill="none" stroke="#bfbfbf" points="146,-825.5 326,-825.5 "/>
<text text-anchor="middle" x="236" y="-812.5" font-family="Helvetica,sans-Serif" font-size="10.00"> </text>
</g>
<!-- Node4&#45;&gt;Node7 -->
<g id="edge14" class="edge"><title>Node4&#45;&gt;Node7</title>
<path fill="none" stroke="orange" stroke-dasharray="5,2" d="M210.511,-905.072C213.638,-901.549 216.523,-897.846 219,-894 224.829,-884.948 228.705,-873.855 231.261,-863.74"/>
<polygon fill="orange" stroke="orange" points="207.779,-902.862 203.342,-912.482 212.81,-907.729 207.779,-902.862"/>
<text text-anchor="middle" x="284" y="-884.5" font-family="Helvetica,sans-Serif" font-size="10.00">&lt; boost::shared_ptr&lt; T &gt; &gt;</text>
</g>
<!-- Node5 -->
<g id="node8" class="node"><title>Node5</title>
<polygon fill="white" stroke="#bfbfbf" points="149.5,-1018.5 149.5,-1075.5 178.5,-1075.5 178.5,-1018.5 149.5,-1018.5"/>
<text text-anchor="middle" x="164" y="-1062.5" font-family="Helvetica,sans-Serif" font-size="10.00">T</text>
<polyline fill="none" stroke="#bfbfbf" points="149.5,-1056.5 178.5,-1056.5 "/>
<text text-anchor="middle" x="164" y="-1043.5" font-family="Helvetica,sans-Serif" font-size="10.00"> </text>
<polyline fill="none" stroke="#bfbfbf" points="149.5,-1037.5 178.5,-1037.5 "/>
<text text-anchor="middle" x="164" y="-1024.5" font-family="Helvetica,sans-Serif" font-size="10.00"> </text>
</g>
<!-- Node5&#45;&gt;Node4 -->
<g id="edge8" class="edge"><title>Node5&#45;&gt;Node4</title>
<path fill="none" stroke="#9a32cd" stroke-dasharray="5,2" d="M164,-1008.01C164,-995.326 164,-981.494 164,-969.708"/>
<polygon fill="#9a32cd" stroke="#9a32cd" points="164,-1018.31 159.5,-1008.31 164,-1013.31 164,-1008.31 164,-1008.31 164,-1008.31 164,-1013.31 168.5,-1008.31 164,-1018.31 164,-1018.31"/>
<text text-anchor="middle" x="184" y="-990.5" font-family="Helvetica,sans-Serif" font-size="10.00">elements</text>
</g>
<!-- Node6 -->
<g id="node10" class="node"><title>Node6</title>
<a xlink:href="class_container.html" target="_top" xlink:title="{Container\&lt; T \&gt;\n|# collection\l|+ Container()\l+ Container()\l+ begin()\l+ end()\l+ load()\l+ store()\l+ size()\l+ push_back()\l+ append()\l+ show()\l+ validate()\l+ reserve()\l+ resize()\l+ empty()\l+ operator[]()\l}">
<polygon fill="white" stroke="black" points="172,-500.5 172,-711.5 254,-711.5 254,-500.5 172,-500.5"/>
<text text-anchor="middle" x="213" y="-698.5" font-family="Helvetica,sans-Serif" font-size="10.00">Container&lt; T &gt;</text>
<polyline fill="none" stroke="black" points="172,-692.5 254,-692.5 "/>
<text text-anchor="start" x="180" y="-679.5" font-family="Helvetica,sans-Serif" font-size="10.00"># collection</text>
<polyline fill="none" stroke="black" points="172,-673.5 254,-673.5 "/>
<text text-anchor="start" x="180" y="-660.5" font-family="Helvetica,sans-Serif" font-size="10.00">+ Container()</text>
<text text-anchor="start" x="180" y="-649.5" font-family="Helvetica,sans-Serif" font-size="10.00">+ Container()</text>
<text text-anchor="start" x="180" y="-638.5" font-family="Helvetica,sans-Serif" font-size="10.00">+ begin()</text>
<text text-anchor="start" x="180" y="-627.5" font-family="Helvetica,sans-Serif" font-size="10.00">+ end()</text>
<text text-anchor="start" x="180" y="-616.5" font-family="Helvetica,sans-Serif" font-size="10.00">+ load()</text>
<text text-anchor="start" x="180" y="-605.5" font-family="Helvetica,sans-Serif" font-size="10.00">+ store()</text>
<text text-anchor="start" x="180" y="-594.5" font-family="Helvetica,sans-Serif" font-size="10.00">+ size()</text>
<text text-anchor="start" x="180" y="-583.5" font-family="Helvetica,sans-Serif" font-size="10.00">+ push_back()</text>
<text text-anchor="start" x="180" y="-572.5" font-family="Helvetica,sans-Serif" font-size="10.00">+ append()</text>
<text text-anchor="start" x="180" y="-561.5" font-family="Helvetica,sans-Serif" font-size="10.00">+ show()</text>
<text text-anchor="start" x="180" y="-550.5" font-family="Helvetica,sans-Serif" font-size="10.00">+ validate()</text>
<text text-anchor="start" x="180" y="-539.5" font-family="Helvetica,sans-Serif" font-size="10.00">+ reserve()</text>
<text text-anchor="start" x="180" y="-528.5" font-family="Helvetica,sans-Serif" font-size="10.00">+ resize()</text>
<text text-anchor="start" x="180" y="-517.5" font-family="Helvetica,sans-Serif" font-size="10.00">+ empty()</text>
<text text-anchor="start" x="180" y="-506.5" font-family="Helvetica,sans-Serif" font-size="10.00">+ operator[]()</text>
</a>
</g>
<!-- Node6&#45;&gt;Node2 -->
<g id="edge10" class="edge"><title>Node6&#45;&gt;Node2</title>
<path fill="none" stroke="orange" stroke-dasharray="5,2" d="M180.995,-490.427C177.422,-477.524 173.796,-464.428 170.259,-451.658"/>
<polygon fill="orange" stroke="orange" points="177.673,-491.545 183.715,-500.248 184.419,-489.677 177.673,-491.545"/>
<text text-anchor="middle" x="195" y="-472.5" font-family="Helvetica,sans-Serif" font-size="10.00">&lt; Con &gt;</text>
</g>
<!-- Node7&#45;&gt;Node6 -->
<g id="edge12" class="edge"><title>Node7&#45;&gt;Node6</title>
<path fill="none" stroke="#9a32cd" stroke-dasharray="5,2" d="M232.111,-796.282C229.762,-772.89 226.643,-741.84 223.608,-711.619"/>
<polygon fill="#9a32cd" stroke="#9a32cd" points="233.134,-806.46 227.657,-796.96 232.634,-801.485 232.134,-796.51 232.134,-796.51 232.134,-796.51 232.634,-801.485 236.612,-796.06 233.134,-806.46 233.134,-806.46"/>
<text text-anchor="middle" x="251.5" y="-755.5" font-family="Helvetica,sans-Serif" font-size="10.00">collection</text>
</g>
</g>
</svg>
