<?xml version="1.0" encoding="UTF-8" standalone="no"?>
<!DOCTYPE svg PUBLIC "-//W3C//DTD SVG 1.1//EN"
 "http://www.w3.org/Graphics/SVG/1.1/DTD/svg11.dtd">
<!-- Generated by graphviz version 2.25.20091207.0545 (20091207.0545)
 -->
<!-- Title: G Pages: 1 -->
<svg width="378pt" height="28pt"
 viewBox="0.00 0.00 378.00 28.00" xmlns="http://www.w3.org/2000/svg" xmlns:xlink="http://www.w3.org/1999/xlink">
<g id="graph1" class="graph" transform="scale(1 1) rotate(0) translate(4 24)">
<title>G</title>
<polygon fill="white" stroke="white" points="-4,5 -4,-24 375,-24 375,5 -4,5"/>
<!-- Node1 -->
<g id="node1" class="node"><title>Node1</title>
<polygon fill="#bfbfbf" stroke="black" points="0,-0.5 0,-19.5 90,-19.5 90,-0.5 0,-0.5"/>
<text text-anchor="middle" x="45" y="-6.5" font-family="Helvetica,sans-Serif" font-size="10.00">VecCon::validate</text>
</g>
<!-- Node2 -->
<g id="node3" class="node"><title>Node2</title>
<a xlink:href="classvec_con.html#aa9f3f5df4c4060951c975c4c829b8471" target="_top" xlink:title="Getter of the Id values of the vector of Cons.">
<polygon fill="white" stroke="black" points="126,-0.5 126,-19.5 226,-19.5 226,-0.5 126,-0.5"/>
<text text-anchor="middle" x="176" y="-6.5" font-family="Helvetica,sans-Serif" font-size="10.00">VecCon::getId</text>
</a>
</g>
<!-- Node1&#45;&gt;Node2 -->
<g id="edge2" class="edge"><title>Node1&#45;&gt;Node2</title>
<path fill="none" stroke="midnightblue" d="M90.0828,-10C98.3813,-10 107.166,-10 115.825,-10"/>
<polygon fill="midnightblue" stroke="midnightblue" points="115.896,-13.5001 125.896,-10 115.896,-6.5001 115.896,-13.5001"/>
</g>
<!-- Node3 -->
<g id="node5" class="node"><title>Node3</title>
<a xlink:href="classvec_con.html#a1e39a5e78c40ae8af9bbd2fd7f0dc749" target="_top" xlink:title="Size of the VecCon object.">
<polygon fill="white" stroke="black" points="262,-0.5 262,-19.5 370,-19.5 370,-0.5 262,-0.5"/>
<text text-anchor="middle" x="316" y="-6.5" font-family="Helvetica,sans-Serif" font-size="10.00">VecCon::numOfCons</text>
</a>
</g>
<!-- Node2&#45;&gt;Node3 -->
<g id="edge4" class="edge"><title>Node2&#45;&gt;Node3</title>
<path fill="none" stroke="midnightblue" d="M226.148,-10C234.494,-10 243.251,-10 251.887,-10"/>
<polygon fill="midnightblue" stroke="midnightblue" points="251.938,-13.5001 261.938,-10 251.938,-6.5001 251.938,-13.5001"/>
</g>
</g>
</svg>
