<?xml version="1.0" encoding="UTF-8" standalone="no"?>
<!DOCTYPE svg PUBLIC "-//W3C//DTD SVG 1.1//EN"
 "http://www.w3.org/Graphics/SVG/1.1/DTD/svg11.dtd">
<!-- Generated by graphviz version 2.25.20091207.0545 (20091207.0545)
 -->
<!-- Title: G Pages: 1 -->
<svg width="228pt" height="104pt"
 viewBox="0.00 0.00 228.00 104.00" xmlns="http://www.w3.org/2000/svg" xmlns:xlink="http://www.w3.org/1999/xlink">
<g id="graph1" class="graph" transform="scale(1 1) rotate(0) translate(4 100)">
<title>G</title>
<polygon fill="white" stroke="white" points="-4,5 -4,-100 225,-100 225,5 -4,5"/>
<!-- Node1 -->
<g id="node1" class="node"><title>Node1</title>
<polygon fill="#bfbfbf" stroke="black" points="0,-38.5 0,-57.5 96,-57.5 96,-38.5 0,-38.5"/>
<text text-anchor="middle" x="48" y="-44.5" font-family="Helvetica,sans-Serif" font-size="10.00">Container::append</text>
</g>
<!-- Node2 -->
<g id="node3" class="node"><title>Node2</title>
<a xlink:href="class_container.html#a9ad6802d12bf5f48400bc346de37ad0f" target="_top" xlink:title="Container::begin">
<polygon fill="white" stroke="black" points="132.5,-76.5 132.5,-95.5 219.5,-95.5 219.5,-76.5 132.5,-76.5"/>
<text text-anchor="middle" x="176" y="-82.5" font-family="Helvetica,sans-Serif" font-size="10.00">Container::begin</text>
</a>
</g>
<!-- Node1&#45;&gt;Node2 -->
<g id="edge2" class="edge"><title>Node1&#45;&gt;Node2</title>
<path fill="none" stroke="midnightblue" d="M80.2998,-57.589C96.5202,-62.4044 116.375,-68.2988 133.787,-73.468"/>
<polygon fill="midnightblue" stroke="midnightblue" points="133.128,-76.9233 143.711,-76.4141 135.12,-70.2127 133.128,-76.9233"/>
</g>
<!-- Node3 -->
<g id="node5" class="node"><title>Node3</title>
<a xlink:href="class_container.html#a769250b7546b782007f1adaba8a07336" target="_top" xlink:title="Container::end">
<polygon fill="white" stroke="black" points="136,-38.5 136,-57.5 216,-57.5 216,-38.5 136,-38.5"/>
<text text-anchor="middle" x="176" y="-44.5" font-family="Helvetica,sans-Serif" font-size="10.00">Container::end</text>
</a>
</g>
<!-- Node1&#45;&gt;Node3 -->
<g id="edge4" class="edge"><title>Node1&#45;&gt;Node3</title>
<path fill="none" stroke="midnightblue" d="M96.0266,-48C105.612,-48 115.708,-48 125.378,-48"/>
<polygon fill="midnightblue" stroke="midnightblue" points="125.659,-51.5001 135.659,-48 125.659,-44.5001 125.659,-51.5001"/>
</g>
<!-- Node4 -->
<g id="node7" class="node"><title>Node4</title>
<a xlink:href="class_container.html#a842c3d9eca81b78b59112fde9707b091" target="_top" xlink:title="Returns the size or length of the vector.">
<polygon fill="white" stroke="black" points="135,-0.5 135,-19.5 217,-19.5 217,-0.5 135,-0.5"/>
<text text-anchor="middle" x="176" y="-6.5" font-family="Helvetica,sans-Serif" font-size="10.00">Container::size</text>
</a>
</g>
<!-- Node1&#45;&gt;Node4 -->
<g id="edge6" class="edge"><title>Node1&#45;&gt;Node4</title>
<path fill="none" stroke="midnightblue" d="M80.2998,-38.411C96.5202,-33.5956 116.375,-27.7012 133.787,-22.532"/>
<polygon fill="midnightblue" stroke="midnightblue" points="135.12,-25.7873 143.711,-19.5859 133.128,-19.0767 135.12,-25.7873"/>
</g>
</g>
</svg>
