<?xml version="1.0" encoding="UTF-8" standalone="no"?>
<!DOCTYPE svg PUBLIC "-//W3C//DTD SVG 1.1//EN"
 "http://www.w3.org/Graphics/SVG/1.1/DTD/svg11.dtd">
<!-- Generated by graphviz version 2.28.0 (20110610.2051)
 -->
<!-- Title: G Pages: 1 -->
<svg width="363pt" height="1554pt"
 viewBox="0.00 0.00 363.00 1554.00" xmlns="http://www.w3.org/2000/svg" xmlns:xlink="http://www.w3.org/1999/xlink">
<g id="graph1" class="graph" transform="scale(1 1) rotate(0) translate(4 1550)">
<title>G</title>
<polygon fill="white" stroke="white" points="-4,5 -4,-1550 360,-1550 360,5 -4,5"/>
<!-- Node1 -->
<g id="node1" class="node"><title>Node1</title>
<polygon fill="#bfbfbf" stroke="black" points="110,-0.5 110,-57.5 178,-57.5 178,-0.5 110,-0.5"/>
<text text-anchor="middle" x="144" y="-45.5" font-family="Helvetica,sans-Serif" font-size="10.00">MLPneuron</text>
<polyline fill="none" stroke="black" points="110,-38.5 178,-38.5 "/>
<text text-anchor="start" x="118" y="-26.5" font-family="Helvetica,sans-Serif" font-size="10.00">&#45; bias</text>
<polyline fill="none" stroke="black" points="110,-19.5 178,-19.5 "/>
<text text-anchor="middle" x="144" y="-7.5" font-family="Helvetica,sans-Serif" font-size="10.00"> </text>
</g>
<!-- Node2 -->
<g id="node2" class="node"><title>Node2</title>
<a xlink:href="class_neuron.html" target="_top" xlink:title="class Neuron &#45;">
<polygon fill="white" stroke="black" points="81.5,-96.5 81.5,-417.5 206.5,-417.5 206.5,-96.5 81.5,-96.5"/>
<text text-anchor="middle" x="144" y="-405.5" font-family="Helvetica,sans-Serif" font-size="10.00">Neuron</text>
<polyline fill="none" stroke="black" points="81.5,-398.5 206.5,-398.5 "/>
<text text-anchor="start" x="89.5" y="-386.5" font-family="Helvetica,sans-Serif" font-size="10.00">+ d_predictBehavior</text>
<text text-anchor="start" x="89.5" y="-375.5" font-family="Helvetica,sans-Serif" font-size="10.00">+ d_trainingBehavior</text>
<text text-anchor="start" x="89.5" y="-364.5" font-family="Helvetica,sans-Serif" font-size="10.00">&#45; Id</text>
<text text-anchor="start" x="89.5" y="-353.5" font-family="Helvetica,sans-Serif" font-size="10.00">&#45; con</text>
<text text-anchor="start" x="89.5" y="-342.5" font-family="Helvetica,sans-Serif" font-size="10.00">&#45; outputValue</text>
<polyline fill="none" stroke="black" points="81.5,-335.5 206.5,-335.5 "/>
<text text-anchor="start" x="89.5" y="-323.5" font-family="Helvetica,sans-Serif" font-size="10.00">+ getId()</text>
<text text-anchor="start" x="89.5" y="-312.5" font-family="Helvetica,sans-Serif" font-size="10.00">+ setId()</text>
<text text-anchor="start" x="89.5" y="-301.5" font-family="Helvetica,sans-Serif" font-size="10.00">+ setPredictBehavior()</text>
<text text-anchor="start" x="89.5" y="-290.5" font-family="Helvetica,sans-Serif" font-size="10.00">+ setTrainingBehavior()</text>
<text text-anchor="start" x="89.5" y="-279.5" font-family="Helvetica,sans-Serif" font-size="10.00">+ predict()</text>
<text text-anchor="start" x="89.5" y="-268.5" font-family="Helvetica,sans-Serif" font-size="10.00">+ adjustParameters()</text>
<text text-anchor="start" x="89.5" y="-257.5" font-family="Helvetica,sans-Serif" font-size="10.00">+ show()</text>
<text text-anchor="start" x="89.5" y="-246.5" font-family="Helvetica,sans-Serif" font-size="10.00">+ validate()</text>
<text text-anchor="start" x="89.5" y="-235.5" font-family="Helvetica,sans-Serif" font-size="10.00">+ Neuron()</text>
<text text-anchor="start" x="89.5" y="-224.5" font-family="Helvetica,sans-Serif" font-size="10.00">+ Neuron()</text>
<text text-anchor="start" x="89.5" y="-213.5" font-family="Helvetica,sans-Serif" font-size="10.00">+ Neuron()</text>
<text text-anchor="start" x="89.5" y="-202.5" font-family="Helvetica,sans-Serif" font-size="10.00">+ ~Neuron()</text>
<text text-anchor="start" x="89.5" y="-191.5" font-family="Helvetica,sans-Serif" font-size="10.00">+ getId()</text>
<text text-anchor="start" x="89.5" y="-180.5" font-family="Helvetica,sans-Serif" font-size="10.00">+ setId()</text>
<text text-anchor="start" x="89.5" y="-169.5" font-family="Helvetica,sans-Serif" font-size="10.00">+ getConId()</text>
<text text-anchor="start" x="89.5" y="-158.5" font-family="Helvetica,sans-Serif" font-size="10.00">+ getWeight()</text>
<text text-anchor="start" x="89.5" y="-147.5" font-family="Helvetica,sans-Serif" font-size="10.00">+ setFrom()</text>
<text text-anchor="start" x="89.5" y="-136.5" font-family="Helvetica,sans-Serif" font-size="10.00">+ setWeight()</text>
<text text-anchor="start" x="89.5" y="-125.5" font-family="Helvetica,sans-Serif" font-size="10.00">+ numOfCons()</text>
<text text-anchor="start" x="89.5" y="-114.5" font-family="Helvetica,sans-Serif" font-size="10.00">+ show()</text>
<text text-anchor="start" x="89.5" y="-103.5" font-family="Helvetica,sans-Serif" font-size="10.00">+ validate()</text>
</a>
</g>
<!-- Node2&#45;&gt;Node1 -->
<g id="edge2" class="edge"><title>Node2&#45;&gt;Node1</title>
<path fill="none" stroke="midnightblue" d="M144,-86.2719C144,-75.6335 144,-65.901 144,-57.6308"/>
<polygon fill="none" stroke="midnightblue" points="140.5,-86.2804 144,-96.2804 147.5,-86.2804 140.5,-86.2804"/>
</g>
<!-- Node3 -->
<g id="node4" class="node"><title>Node3</title>
<a xlink:href="class_container.html" target="_top" xlink:title="{Container\&lt; Con \&gt;\n|# collection\l|+ ~Container()\l+ createIterator()\l+ push_back()\l+ push_back()\l+ reserve()\l+ reserve()\l+ empty()\l+ empty()\l+ size()\l+ size()\l+ clear()\l+ clear()\l+ show()\l+ show()\l+ validate()\l+ validate()\l+ Container()\l+ Container()\l+ begin()\l+ end()\l+ load()\l+ store()\l+ append()\l+ resize()\l+ operator[]()\l# Container()\l}">
<polygon fill="white" stroke="black" points="95.5,-467 95.5,-799 192.5,-799 192.5,-467 95.5,-467"/>
<text text-anchor="middle" x="144" y="-787" font-family="Helvetica,sans-Serif" font-size="10.00">Container&lt; Con &gt;</text>
<polyline fill="none" stroke="black" points="95.5,-780 192.5,-780 "/>
<text text-anchor="start" x="103.5" y="-768" font-family="Helvetica,sans-Serif" font-size="10.00"># collection</text>
<polyline fill="none" stroke="black" points="95.5,-761 192.5,-761 "/>
<text text-anchor="start" x="103.5" y="-749" font-family="Helvetica,sans-Serif" font-size="10.00">+ ~Container()</text>
<text text-anchor="start" x="103.5" y="-738" font-family="Helvetica,sans-Serif" font-size="10.00">+ createIterator()</text>
<text text-anchor="start" x="103.5" y="-727" font-family="Helvetica,sans-Serif" font-size="10.00">+ push_back()</text>
<text text-anchor="start" x="103.5" y="-716" font-family="Helvetica,sans-Serif" font-size="10.00">+ push_back()</text>
<text text-anchor="start" x="103.5" y="-705" font-family="Helvetica,sans-Serif" font-size="10.00">+ reserve()</text>
<text text-anchor="start" x="103.5" y="-694" font-family="Helvetica,sans-Serif" font-size="10.00">+ reserve()</text>
<text text-anchor="start" x="103.5" y="-683" font-family="Helvetica,sans-Serif" font-size="10.00">+ empty()</text>
<text text-anchor="start" x="103.5" y="-672" font-family="Helvetica,sans-Serif" font-size="10.00">+ empty()</text>
<text text-anchor="start" x="103.5" y="-661" font-family="Helvetica,sans-Serif" font-size="10.00">+ size()</text>
<text text-anchor="start" x="103.5" y="-650" font-family="Helvetica,sans-Serif" font-size="10.00">+ size()</text>
<text text-anchor="start" x="103.5" y="-639" font-family="Helvetica,sans-Serif" font-size="10.00">+ clear()</text>
<text text-anchor="start" x="103.5" y="-628" font-family="Helvetica,sans-Serif" font-size="10.00">+ clear()</text>
<text text-anchor="start" x="103.5" y="-617" font-family="Helvetica,sans-Serif" font-size="10.00">+ show()</text>
<text text-anchor="start" x="103.5" y="-606" font-family="Helvetica,sans-Serif" font-size="10.00">+ show()</text>
<text text-anchor="start" x="103.5" y="-595" font-family="Helvetica,sans-Serif" font-size="10.00">+ validate()</text>
<text text-anchor="start" x="103.5" y="-584" font-family="Helvetica,sans-Serif" font-size="10.00">+ validate()</text>
<text text-anchor="start" x="103.5" y="-573" font-family="Helvetica,sans-Serif" font-size="10.00">+ Container()</text>
<text text-anchor="start" x="103.5" y="-562" font-family="Helvetica,sans-Serif" font-size="10.00">+ Container()</text>
<text text-anchor="start" x="103.5" y="-551" font-family="Helvetica,sans-Serif" font-size="10.00">+ begin()</text>
<text text-anchor="start" x="103.5" y="-540" font-family="Helvetica,sans-Serif" font-size="10.00">+ end()</text>
<text text-anchor="start" x="103.5" y="-529" font-family="Helvetica,sans-Serif" font-size="10.00">+ load()</text>
<text text-anchor="start" x="103.5" y="-518" font-family="Helvetica,sans-Serif" font-size="10.00">+ store()</text>
<text text-anchor="start" x="103.5" y="-507" font-family="Helvetica,sans-Serif" font-size="10.00">+ append()</text>
<text text-anchor="start" x="103.5" y="-496" font-family="Helvetica,sans-Serif" font-size="10.00">+ resize()</text>
<text text-anchor="start" x="103.5" y="-485" font-family="Helvetica,sans-Serif" font-size="10.00">+ operator[]()</text>
<text text-anchor="start" x="103.5" y="-474" font-family="Helvetica,sans-Serif" font-size="10.00"># Container()</text>
</a>
</g>
<!-- Node3&#45;&gt;Node2 -->
<g id="edge4" class="edge"><title>Node3&#45;&gt;Node2</title>
<path fill="none" stroke="#9a32cd" stroke-dasharray="5,2" d="M144,-456.504C144,-443.554 144,-430.53 144,-417.682"/>
<polygon fill="#9a32cd" stroke="#9a32cd" points="144,-466.869 139.5,-456.869 144,-461.869 144,-456.869 144,-456.869 144,-456.869 144,-461.869 148.5,-456.87 144,-466.869 144,-466.869"/>
<text text-anchor="middle" x="152.5" y="-439.5" font-family="Helvetica,sans-Serif" font-size="10.00">con</text>
</g>
<!-- Node4 -->
<g id="node6" class="node"><title>Node4</title>
<polygon fill="white" stroke="#bfbfbf" points="0,-1200.5 0,-1257.5 200,-1257.5 200,-1200.5 0,-1200.5"/>
<text text-anchor="middle" x="100" y="-1245.5" font-family="Helvetica,sans-Serif" font-size="10.00">std::vector&lt; boost::shared_ptr&lt; Con &gt; &gt;</text>
<polyline fill="none" stroke="#bfbfbf" points="0,-1238.5 200,-1238.5 "/>
<text text-anchor="start" x="8" y="-1226.5" font-family="Helvetica,sans-Serif" font-size="10.00">&#45; elements</text>
<polyline fill="none" stroke="#bfbfbf" points="0,-1219.5 200,-1219.5 "/>
<text text-anchor="middle" x="100" y="-1207.5" font-family="Helvetica,sans-Serif" font-size="10.00"> </text>
</g>
<!-- Node4&#45;&gt;Node3 -->
<g id="edge6" class="edge"><title>Node4&#45;&gt;Node3</title>
<path fill="none" stroke="#9a32cd" stroke-dasharray="5,2" d="M101.255,-1190.03C103.683,-1121.58 109.711,-972.995 120,-848 121.304,-832.165 122.836,-815.689 124.485,-799.222"/>
<polygon fill="#9a32cd" stroke="#9a32cd" points="100.896,-1200.31 96.748,-1190.16 101.071,-1195.31 101.245,-1190.31 101.245,-1190.31 101.245,-1190.31 101.071,-1195.31 105.742,-1190.47 100.896,-1200.31 100.896,-1200.31"/>
<text text-anchor="middle" x="142.5" y="-1012.5" font-family="Helvetica,sans-Serif" font-size="10.00">collection</text>
</g>
<!-- Node5 -->
<g id="node8" class="node"><title>Node5</title>
<a xlink:title="STL class.">
<polygon fill="white" stroke="#bfbfbf" points="125.5,-1382.5 125.5,-1439.5 214.5,-1439.5 214.5,-1382.5 125.5,-1382.5"/>
<text text-anchor="middle" x="170" y="-1427.5" font-family="Helvetica,sans-Serif" font-size="10.00">std::vector&lt; T &gt;</text>
<polyline fill="none" stroke="#bfbfbf" points="125.5,-1420.5 214.5,-1420.5 "/>
<text text-anchor="start" x="133.5" y="-1408.5" font-family="Helvetica,sans-Serif" font-size="10.00">&#45; elements</text>
<polyline fill="none" stroke="#bfbfbf" points="125.5,-1401.5 214.5,-1401.5 "/>
<text text-anchor="middle" x="170" y="-1389.5" font-family="Helvetica,sans-Serif" font-size="10.00"> </text>
</a>
</g>
<!-- Node5&#45;&gt;Node4 -->
<g id="edge8" class="edge"><title>Node5&#45;&gt;Node4</title>
<path fill="none" stroke="orange" stroke-dasharray="5,2" d="M116.558,-1390.25C105.577,-1383.63 95.4196,-1375.03 89,-1364 69.9765,-1331.32 79.4346,-1286.34 88.9452,-1257.71"/>
<polygon fill="orange" stroke="orange" points="115.035,-1393.41 125.486,-1395.14 118.4,-1387.27 115.035,-1393.41"/>
<text text-anchor="middle" x="156" y="-1355.5" font-family="Helvetica,sans-Serif" font-size="10.00">&lt; boost::shared_ptr&lt; Con &gt; &gt;</text>
</g>
<!-- Node8 -->
<g id="node14" class="node"><title>Node8</title>
<polygon fill="white" stroke="#bfbfbf" points="150,-1276.5 150,-1333.5 338,-1333.5 338,-1276.5 150,-1276.5"/>
<text text-anchor="middle" x="244" y="-1321.5" font-family="Helvetica,sans-Serif" font-size="10.00">std::vector&lt; boost::shared_ptr&lt; T &gt; &gt;</text>
<polyline fill="none" stroke="#bfbfbf" points="150,-1314.5 338,-1314.5 "/>
<text text-anchor="start" x="158" y="-1302.5" font-family="Helvetica,sans-Serif" font-size="10.00">&#45; elements</text>
<polyline fill="none" stroke="#bfbfbf" points="150,-1295.5 338,-1295.5 "/>
<text text-anchor="middle" x="244" y="-1283.5" font-family="Helvetica,sans-Serif" font-size="10.00"> </text>
</g>
<!-- Node5&#45;&gt;Node8 -->
<g id="edge16" class="edge"><title>Node5&#45;&gt;Node8</title>
<path fill="none" stroke="orange" stroke-dasharray="5,2" d="M217.929,-1375.31C221.274,-1371.74 224.36,-1367.96 227,-1364 232.999,-1355.01 236.923,-1343.87 239.47,-1333.75"/>
<polygon fill="orange" stroke="orange" points="215.446,-1372.85 210.76,-1382.35 220.349,-1377.84 215.446,-1372.85"/>
<text text-anchor="middle" x="294.5" y="-1355.5" font-family="Helvetica,sans-Serif" font-size="10.00">&lt; boost::shared_ptr&lt; T &gt; &gt;</text>
</g>
<!-- Node6 -->
<g id="node10" class="node"><title>Node6</title>
<polygon fill="white" stroke="#bfbfbf" points="155.5,-1488.5 155.5,-1545.5 184.5,-1545.5 184.5,-1488.5 155.5,-1488.5"/>
<text text-anchor="middle" x="170" y="-1533.5" font-family="Helvetica,sans-Serif" font-size="10.00">T</text>
<polyline fill="none" stroke="#bfbfbf" points="155.5,-1526.5 184.5,-1526.5 "/>
<text text-anchor="middle" x="170" y="-1514.5" font-family="Helvetica,sans-Serif" font-size="10.00"> </text>
<polyline fill="none" stroke="#bfbfbf" points="155.5,-1507.5 184.5,-1507.5 "/>
<text text-anchor="middle" x="170" y="-1495.5" font-family="Helvetica,sans-Serif" font-size="10.00"> </text>
</g>
<!-- Node6&#45;&gt;Node5 -->
<g id="edge10" class="edge"><title>Node6&#45;&gt;Node5</title>
<path fill="none" stroke="#9a32cd" stroke-dasharray="5,2" d="M170,-1478.1C170,-1465.4 170,-1451.49 170,-1439.73"/>
<polygon fill="#9a32cd" stroke="#9a32cd" points="170,-1488.4 165.5,-1478.4 170,-1483.4 170,-1478.4 170,-1478.4 170,-1478.4 170,-1483.4 174.5,-1478.4 170,-1488.4 170,-1488.4"/>
<text text-anchor="middle" x="191.5" y="-1461.5" font-family="Helvetica,sans-Serif" font-size="10.00">elements</text>
</g>
<!-- Node7 -->
<g id="node12" class="node"><title>Node7</title>
<a xlink:href="class_container.html" target="_top" xlink:title="class Container &#45;">
<polygon fill="white" stroke="black" points="174.5,-849 174.5,-1181 271.5,-1181 271.5,-849 174.5,-849"/>
<text text-anchor="middle" x="223" y="-1169" font-family="Helvetica,sans-Serif" font-size="10.00">Container&lt; T &gt;</text>
<polyline fill="none" stroke="black" points="174.5,-1162 271.5,-1162 "/>
<text text-anchor="start" x="182.5" y="-1150" font-family="Helvetica,sans-Serif" font-size="10.00"># collection</text>
<polyline fill="none" stroke="black" points="174.5,-1143 271.5,-1143 "/>
<text text-anchor="start" x="182.5" y="-1131" font-family="Helvetica,sans-Serif" font-size="10.00">+ ~Container()</text>
<text text-anchor="start" x="182.5" y="-1120" font-family="Helvetica,sans-Serif" font-size="10.00">+ createIterator()</text>
<text text-anchor="start" x="182.5" y="-1109" font-family="Helvetica,sans-Serif" font-size="10.00">+ push_back()</text>
<text text-anchor="start" x="182.5" y="-1098" font-family="Helvetica,sans-Serif" font-size="10.00">+ reserve()</text>
<text text-anchor="start" x="182.5" y="-1087" font-family="Helvetica,sans-Serif" font-size="10.00">+ empty()</text>
<text text-anchor="start" x="182.5" y="-1076" font-family="Helvetica,sans-Serif" font-size="10.00">+ size()</text>
<text text-anchor="start" x="182.5" y="-1065" font-family="Helvetica,sans-Serif" font-size="10.00">+ clear()</text>
<text text-anchor="start" x="182.5" y="-1054" font-family="Helvetica,sans-Serif" font-size="10.00">+ show()</text>
<text text-anchor="start" x="182.5" y="-1043" font-family="Helvetica,sans-Serif" font-size="10.00">+ validate()</text>
<text text-anchor="start" x="182.5" y="-1032" font-family="Helvetica,sans-Serif" font-size="10.00">+ Container()</text>
<text text-anchor="start" x="182.5" y="-1021" font-family="Helvetica,sans-Serif" font-size="10.00">+ Container()</text>
<text text-anchor="start" x="182.5" y="-1010" font-family="Helvetica,sans-Serif" font-size="10.00">+ begin()</text>
<text text-anchor="start" x="182.5" y="-999" font-family="Helvetica,sans-Serif" font-size="10.00">+ end()</text>
<text text-anchor="start" x="182.5" y="-988" font-family="Helvetica,sans-Serif" font-size="10.00">+ load()</text>
<text text-anchor="start" x="182.5" y="-977" font-family="Helvetica,sans-Serif" font-size="10.00">+ store()</text>
<text text-anchor="start" x="182.5" y="-966" font-family="Helvetica,sans-Serif" font-size="10.00">+ size()</text>
<text text-anchor="start" x="182.5" y="-955" font-family="Helvetica,sans-Serif" font-size="10.00">+ push_back()</text>
<text text-anchor="start" x="182.5" y="-944" font-family="Helvetica,sans-Serif" font-size="10.00">+ append()</text>
<text text-anchor="start" x="182.5" y="-933" font-family="Helvetica,sans-Serif" font-size="10.00">+ show()</text>
<text text-anchor="start" x="182.5" y="-922" font-family="Helvetica,sans-Serif" font-size="10.00">+ validate()</text>
<text text-anchor="start" x="182.5" y="-911" font-family="Helvetica,sans-Serif" font-size="10.00">+ reserve()</text>
<text text-anchor="start" x="182.5" y="-900" font-family="Helvetica,sans-Serif" font-size="10.00">+ resize()</text>
<text text-anchor="start" x="182.5" y="-889" font-family="Helvetica,sans-Serif" font-size="10.00">+ empty()</text>
<text text-anchor="start" x="182.5" y="-878" font-family="Helvetica,sans-Serif" font-size="10.00">+ clear()</text>
<text text-anchor="start" x="182.5" y="-867" font-family="Helvetica,sans-Serif" font-size="10.00">+ operator[]()</text>
<text text-anchor="start" x="182.5" y="-856" font-family="Helvetica,sans-Serif" font-size="10.00"># Container()</text>
</a>
</g>
<!-- Node7&#45;&gt;Node3 -->
<g id="edge12" class="edge"><title>Node7&#45;&gt;Node3</title>
<path fill="none" stroke="orange" stroke-dasharray="5,2" d="M186.595,-838.887C183.844,-825.653 181.072,-812.322 178.334,-799.153"/>
<polygon fill="orange" stroke="orange" points="183.232,-839.906 188.694,-848.984 190.085,-838.481 183.232,-839.906"/>
<text text-anchor="middle" x="202" y="-821.5" font-family="Helvetica,sans-Serif" font-size="10.00">&lt; Con &gt;</text>
</g>
<!-- Node8&#45;&gt;Node7 -->
<g id="edge14" class="edge"><title>Node8&#45;&gt;Node7</title>
<path fill="none" stroke="#9a32cd" stroke-dasharray="5,2" d="M241.247,-1266.24C239.594,-1243.58 237.365,-1213 235.032,-1181.02"/>
<polygon fill="#9a32cd" stroke="#9a32cd" points="241.986,-1276.39 236.771,-1266.74 241.623,-1271.4 241.259,-1266.41 241.259,-1266.41 241.259,-1266.41 241.623,-1271.4 245.747,-1266.08 241.986,-1276.39 241.986,-1276.39"/>
<text text-anchor="middle" x="263.5" y="-1226.5" font-family="Helvetica,sans-Serif" font-size="10.00">collection</text>
</g>
</g>
</svg>
