<?xml version="1.0" encoding="UTF-8" standalone="no"?>
<!DOCTYPE svg PUBLIC "-//W3C//DTD SVG 1.1//EN"
 "http://www.w3.org/Graphics/SVG/1.1/DTD/svg11.dtd">
<!-- Generated by graphviz version 2.28.0 (20110610.2051)
 -->
<!-- Title: G Pages: 1 -->
<svg width="98pt" height="194pt"
 viewBox="0.00 0.00 98.00 194.00" xmlns="http://www.w3.org/2000/svg" xmlns:xlink="http://www.w3.org/1999/xlink">
<g id="graph1" class="graph" transform="scale(1 1) rotate(0) translate(4 190)">
<title>G</title>
<polygon fill="white" stroke="white" points="-4,5 -4,-190 95,-190 95,5 -4,5"/>
<!-- Node1 -->
<g id="node1" class="node"><title>Node1</title>
<polygon fill="#bfbfbf" stroke="black" points="-0.5,-0.5 -0.5,-79.5 90.5,-79.5 90.5,-0.5 -0.5,-0.5"/>
<text text-anchor="middle" x="45" y="-67.5" font-family="Helvetica,sans-Serif" font-size="10.00">MLPfactory</text>
<polyline fill="none" stroke="black" points="-0.5,-60.5 90.5,-60.5 "/>
<text text-anchor="middle" x="45" y="-48.5" font-family="Helvetica,sans-Serif" font-size="10.00"> </text>
<polyline fill="none" stroke="black" points="-0.5,-41.5 90.5,-41.5 "/>
<text text-anchor="start" x="7.5" y="-29.5" font-family="Helvetica,sans-Serif" font-size="10.00">+ MLPfactory()</text>
<text text-anchor="start" x="7.5" y="-18.5" font-family="Helvetica,sans-Serif" font-size="10.00">+ makeCon()</text>
<text text-anchor="start" x="7.5" y="-7.5" font-family="Helvetica,sans-Serif" font-size="10.00">+ makeNeuron()</text>
</g>
<!-- Node2 -->
<g id="node2" class="node"><title>Node2</title>
<a xlink:href="class_neural_factory.html" target="_top" xlink:title="class NeuralFactory &#45;">
<polygon fill="white" stroke="black" points="-0.5,-117 -0.5,-185 90.5,-185 90.5,-117 -0.5,-117"/>
<text text-anchor="middle" x="45" y="-173" font-family="Helvetica,sans-Serif" font-size="10.00">NeuralFactory</text>
<polyline fill="none" stroke="black" points="-0.5,-166 90.5,-166 "/>
<text text-anchor="middle" x="45" y="-154" font-family="Helvetica,sans-Serif" font-size="10.00"> </text>
<polyline fill="none" stroke="black" points="-0.5,-147 90.5,-147 "/>
<text text-anchor="start" x="7.5" y="-135" font-family="Helvetica,sans-Serif" font-size="10.00">+ makeCon()</text>
<text text-anchor="start" x="7.5" y="-124" font-family="Helvetica,sans-Serif" font-size="10.00">+ makeNeuron()</text>
</a>
</g>
<!-- Node2&#45;&gt;Node1 -->
<g id="edge2" class="edge"><title>Node2&#45;&gt;Node1</title>
<path fill="none" stroke="midnightblue" d="M45,-106.575C45,-97.7367 45,-88.4932 45,-79.8274"/>
<polygon fill="none" stroke="midnightblue" points="41.5001,-106.704 45,-116.704 48.5001,-106.704 41.5001,-106.704"/>
</g>
</g>
</svg>
