<?xml version="1.0" encoding="UTF-8" standalone="no"?>
<!DOCTYPE svg PUBLIC "-//W3C//DTD SVG 1.1//EN"
 "http://www.w3.org/Graphics/SVG/1.1/DTD/svg11.dtd">
<!-- Generated by graphviz version 2.25.20091207.0545 (20091207.0545)
 -->
<!-- Title: G Pages: 1 -->
<svg width="337pt" height="614pt"
 viewBox="0.00 0.00 337.00 614.00" xmlns="http://www.w3.org/2000/svg" xmlns:xlink="http://www.w3.org/1999/xlink">
<g id="graph1" class="graph" transform="scale(1 1) rotate(0) translate(4 610)">
<title>G</title>
<polygon fill="white" stroke="white" points="-4,5 -4,-610 334,-610 334,5 -4,5"/>
<!-- Node1 -->
<g id="node1" class="node"><title>Node1</title>
<polygon fill="#bfbfbf" stroke="black" points="216.5,-0.5 216.5,-57.5 291.5,-57.5 291.5,-0.5 216.5,-0.5"/>
<text text-anchor="middle" x="254" y="-44.5" font-family="Helvetica,sans-Serif" font-size="10.00">vecCon</text>
<polyline fill="none" stroke="black" points="216.5,-38.5 291.5,-38.5 "/>
<text text-anchor="middle" x="254" y="-25.5" font-family="Helvetica,sans-Serif" font-size="10.00"> </text>
<polyline fill="none" stroke="black" points="216.5,-19.5 291.5,-19.5 "/>
<text text-anchor="start" x="224.5" y="-6.5" font-family="Helvetica,sans-Serif" font-size="10.00">+ getFromId()</text>
</g>
<!-- Node2 -->
<g id="node2" class="node"><title>Node2</title>
<a xlink:href="classvec_a_m_o_r_e.html" target="_top" xlink:title="{vecAMORE\&lt; Con \&gt;\n|# ldata\l|+ push_back()\l+ show()\l+ validate()\l}">
<polygon fill="white" stroke="black" points="201.5,-96.5 201.5,-175.5 306.5,-175.5 306.5,-96.5 201.5,-96.5"/>
<text text-anchor="middle" x="254" y="-162.5" font-family="Helvetica,sans-Serif" font-size="10.00">vecAMORE&lt; Con &gt;</text>
<polyline fill="none" stroke="black" points="201.5,-156.5 306.5,-156.5 "/>
<text text-anchor="start" x="209.5" y="-143.5" font-family="Helvetica,sans-Serif" font-size="10.00"># ldata</text>
<polyline fill="none" stroke="black" points="201.5,-137.5 306.5,-137.5 "/>
<text text-anchor="start" x="209.5" y="-124.5" font-family="Helvetica,sans-Serif" font-size="10.00">+ push_back()</text>
<text text-anchor="start" x="209.5" y="-113.5" font-family="Helvetica,sans-Serif" font-size="10.00">+ show()</text>
<text text-anchor="start" x="209.5" y="-102.5" font-family="Helvetica,sans-Serif" font-size="10.00">+ validate()</text>
</a>
</g>
<!-- Node2&#45;&gt;Node1 -->
<g id="edge2" class="edge"><title>Node2&#45;&gt;Node1</title>
<path fill="none" stroke="midnightblue" d="M254,-86.3409C254,-76.5155 254,-66.5164 254,-57.6784"/>
<polygon fill="none" stroke="midnightblue" points="250.5,-86.4611 254,-96.4612 257.5,-86.4612 250.5,-86.4611"/>
</g>
<!-- Node3 -->
<g id="node4" class="node"><title>Node3</title>
<polygon fill="white" stroke="#bfbfbf" points="120.5,-241.5 120.5,-298.5 219.5,-298.5 219.5,-241.5 120.5,-241.5"/>
<text text-anchor="middle" x="170" y="-285.5" font-family="Helvetica,sans-Serif" font-size="10.00">std::vector&lt; Con &gt;</text>
<polyline fill="none" stroke="#bfbfbf" points="120.5,-279.5 219.5,-279.5 "/>
<text text-anchor="start" x="128.5" y="-266.5" font-family="Helvetica,sans-Serif" font-size="10.00">&#45; elements</text>
<polyline fill="none" stroke="#bfbfbf" points="120.5,-260.5 219.5,-260.5 "/>
<text text-anchor="middle" x="170" y="-247.5" font-family="Helvetica,sans-Serif" font-size="10.00"> </text>
</g>
<!-- Node3&#45;&gt;Node2 -->
<g id="edge4" class="edge"><title>Node3&#45;&gt;Node2</title>
<path fill="none" stroke="#9a32cd" stroke-dasharray="5,2" d="M193.603,-232.347C204.694,-214.655 217.917,-193.561 229.159,-175.627"/>
<polygon fill="#9a32cd" stroke="#9a32cd" points="188.02,-241.254 189.519,-230.391 190.676,-237.017 193.332,-232.781 193.332,-232.781 193.332,-232.781 190.676,-237.017 197.144,-235.171 188.02,-241.254 188.02,-241.254"/>
<text text-anchor="middle" x="228.5" y="-196.5" font-family="Helvetica,sans-Serif" font-size="10.00">ldata</text>
</g>
<!-- Node4 -->
<g id="node6" class="node"><title>Node4</title>
<a xlink:href="class_con.html" target="_top" xlink:title="A class to handle the information needed to describe an input connection.">
<polygon fill="white" stroke="black" points="28.5,-365 28.5,-499 127.5,-499 127.5,-365 28.5,-365"/>
<text text-anchor="middle" x="78" y="-486" font-family="Helvetica,sans-Serif" font-size="10.00">Con</text>
<polyline fill="none" stroke="black" points="28.5,-480 127.5,-480 "/>
<text text-anchor="start" x="36.5" y="-467" font-family="Helvetica,sans-Serif" font-size="10.00">&#45; from</text>
<text text-anchor="start" x="36.5" y="-456" font-family="Helvetica,sans-Serif" font-size="10.00">&#45; weight</text>
<polyline fill="none" stroke="black" points="28.5,-450 127.5,-450 "/>
<text text-anchor="start" x="36.5" y="-437" font-family="Helvetica,sans-Serif" font-size="10.00">+ getFromNeuron()</text>
<text text-anchor="start" x="36.5" y="-426" font-family="Helvetica,sans-Serif" font-size="10.00">+ setFromNeuron()</text>
<text text-anchor="start" x="36.5" y="-415" font-family="Helvetica,sans-Serif" font-size="10.00">+ getFromId()</text>
<text text-anchor="start" x="36.5" y="-404" font-family="Helvetica,sans-Serif" font-size="10.00">+ getWeight()</text>
<text text-anchor="start" x="36.5" y="-393" font-family="Helvetica,sans-Serif" font-size="10.00">+ setWeight()</text>
<text text-anchor="start" x="36.5" y="-382" font-family="Helvetica,sans-Serif" font-size="10.00">+ show()</text>
<text text-anchor="start" x="36.5" y="-371" font-family="Helvetica,sans-Serif" font-size="10.00">+ validate()</text>
</a>
</g>
<!-- Node4&#45;&gt;Node3 -->
<g id="edge6" class="edge"><title>Node4&#45;&gt;Node3</title>
<path fill="none" stroke="#9a32cd" stroke-dasharray="5,2" d="M121.174,-355.977C132.794,-335.515 144.656,-314.627 153.778,-298.565"/>
<polygon fill="#9a32cd" stroke="#9a32cd" points="116.217,-364.705 117.242,-353.787 118.686,-360.357 121.155,-356.009 121.155,-356.009 121.155,-356.009 118.686,-360.357 125.068,-358.231 116.217,-364.705 116.217,-364.705"/>
<text text-anchor="middle" x="153" y="-336.5" font-family="Helvetica,sans-Serif" font-size="10.00">elements</text>
</g>
<!-- Node5 -->
<g id="node8" class="node"><title>Node5</title>
<a xlink:href="class_neuron.html" target="_top" xlink:title="A class to handle the information contained in a general Neuron.">
<polygon fill="white" stroke="black" points="0,-225 0,-315 74,-315 74,-225 0,-225"/>
<text text-anchor="middle" x="37" y="-302" font-family="Helvetica,sans-Serif" font-size="10.00">Neuron</text>
<polyline fill="none" stroke="black" points="0,-296 74,-296 "/>
<text text-anchor="start" x="8" y="-283" font-family="Helvetica,sans-Serif" font-size="10.00">&#45; Id</text>
<text text-anchor="start" x="8" y="-272" font-family="Helvetica,sans-Serif" font-size="10.00">&#45; vecCon</text>
<text text-anchor="start" x="8" y="-261" font-family="Helvetica,sans-Serif" font-size="10.00">&#45; outputValue</text>
<polyline fill="none" stroke="black" points="0,-255 74,-255 "/>
<text text-anchor="start" x="8" y="-242" font-family="Helvetica,sans-Serif" font-size="10.00">+ getId()</text>
<text text-anchor="start" x="8" y="-231" font-family="Helvetica,sans-Serif" font-size="10.00">+ setId()</text>
</a>
</g>
<!-- Node4&#45;&gt;Node5 -->
<g id="edge10" class="edge"><title>Node4&#45;&gt;Node5</title>
<path fill="none" stroke="#9a32cd" stroke-dasharray="5,2" d="M23.951,-359.084C22.0394,-354.773 20.364,-350.399 19,-346 15.9482,-336.157 16.2948,-325.46 18.2911,-315.284"/>
<polygon fill="#9a32cd" stroke="#9a32cd" points="28.4836,-368.404 20.0632,-361.379 26.2968,-363.907 24.11,-359.411 24.11,-359.411 24.11,-359.411 26.2968,-363.907 28.1568,-357.443 28.4836,-368.404 28.4836,-368.404"/>
<text text-anchor="middle" x="36" y="-336.5" font-family="Helvetica,sans-Serif" font-size="10.00">vecCon</text>
</g>
<!-- Node5&#45;&gt;Node4 -->
<g id="edge8" class="edge"><title>Node5&#45;&gt;Node4</title>
<path fill="none" stroke="#9a32cd" stroke-dasharray="5,2" d="M54.5448,-325.011C55.4015,-328.044 56.2261,-331.055 57,-334 59.6093,-343.929 62.1313,-354.487 64.4677,-364.856"/>
<polygon fill="#9a32cd" stroke="#9a32cd" points="51.7214,-315.302 58.835,-323.648 53.1177,-320.103 54.514,-324.905 54.514,-324.905 54.514,-324.905 53.1177,-320.103 50.193,-326.161 51.7214,-315.302 51.7214,-315.302"/>
<text text-anchor="middle" x="70" y="-336.5" font-family="Helvetica,sans-Serif" font-size="10.00">from</text>
</g>
<!-- Node6 -->
<g id="node11" class="node"><title>Node6</title>
<a xlink:title="STL class.">
<polygon fill="white" stroke="#bfbfbf" points="144.5,-403.5 144.5,-460.5 231.5,-460.5 231.5,-403.5 144.5,-403.5"/>
<text text-anchor="middle" x="188" y="-447.5" font-family="Helvetica,sans-Serif" font-size="10.00">std::vector&lt; T &gt;</text>
<polyline fill="none" stroke="#bfbfbf" points="144.5,-441.5 231.5,-441.5 "/>
<text text-anchor="start" x="152.5" y="-428.5" font-family="Helvetica,sans-Serif" font-size="10.00">&#45; elements</text>
<polyline fill="none" stroke="#bfbfbf" points="144.5,-422.5 231.5,-422.5 "/>
<text text-anchor="middle" x="188" y="-409.5" font-family="Helvetica,sans-Serif" font-size="10.00"> </text>
</a>
</g>
<!-- Node6&#45;&gt;Node3 -->
<g id="edge12" class="edge"><title>Node6&#45;&gt;Node3</title>
<path fill="none" stroke="orange" stroke-dasharray="5,2" d="M183.687,-393.182C180.452,-364.066 176.096,-324.863 173.175,-298.576"/>
<polygon fill="orange" stroke="orange" points="180.24,-393.858 184.823,-403.411 187.198,-393.085 180.24,-393.858"/>
<text text-anchor="middle" x="196" y="-336.5" font-family="Helvetica,sans-Serif" font-size="10.00">&lt; Con &gt;</text>
</g>
<!-- Node7 -->
<g id="node13" class="node"><title>Node7</title>
<polygon fill="white" stroke="#bfbfbf" points="173.5,-548.5 173.5,-605.5 202.5,-605.5 202.5,-548.5 173.5,-548.5"/>
<text text-anchor="middle" x="188" y="-592.5" font-family="Helvetica,sans-Serif" font-size="10.00">T</text>
<polyline fill="none" stroke="#bfbfbf" points="173.5,-586.5 202.5,-586.5 "/>
<text text-anchor="middle" x="188" y="-573.5" font-family="Helvetica,sans-Serif" font-size="10.00"> </text>
<polyline fill="none" stroke="#bfbfbf" points="173.5,-567.5 202.5,-567.5 "/>
<text text-anchor="middle" x="188" y="-554.5" font-family="Helvetica,sans-Serif" font-size="10.00"> </text>
</g>
<!-- Node7&#45;&gt;Node6 -->
<g id="edge14" class="edge"><title>Node7&#45;&gt;Node6</title>
<path fill="none" stroke="#9a32cd" stroke-dasharray="5,2" d="M188,-538.325C188,-513.877 188,-482.815 188,-460.588"/>
<polygon fill="#9a32cd" stroke="#9a32cd" points="188,-548.353 183.5,-538.353 188,-543.353 188,-538.353 188,-538.353 188,-538.353 188,-543.353 192.5,-538.353 188,-548.353 188,-548.353"/>
<text text-anchor="middle" x="208" y="-520.5" font-family="Helvetica,sans-Serif" font-size="10.00">elements</text>
</g>
<!-- Node8 -->
<g id="node15" class="node"><title>Node8</title>
<a xlink:href="classvec_a_m_o_r_e.html" target="_top" xlink:title="{vecAMORE\&lt; T \&gt;\n|# ldata\l|+ push_back()\l+ show()\l+ validate()\l}">
<polygon fill="white" stroke="black" points="236.5,-230.5 236.5,-309.5 329.5,-309.5 329.5,-230.5 236.5,-230.5"/>
<text text-anchor="middle" x="283" y="-296.5" font-family="Helvetica,sans-Serif" font-size="10.00">vecAMORE&lt; T &gt;</text>
<polyline fill="none" stroke="black" points="236.5,-290.5 329.5,-290.5 "/>
<text text-anchor="start" x="244.5" y="-277.5" font-family="Helvetica,sans-Serif" font-size="10.00"># ldata</text>
<polyline fill="none" stroke="black" points="236.5,-271.5 329.5,-271.5 "/>
<text text-anchor="start" x="244.5" y="-258.5" font-family="Helvetica,sans-Serif" font-size="10.00">+ push_back()</text>
<text text-anchor="start" x="244.5" y="-247.5" font-family="Helvetica,sans-Serif" font-size="10.00">+ show()</text>
<text text-anchor="start" x="244.5" y="-236.5" font-family="Helvetica,sans-Serif" font-size="10.00">+ validate()</text>
</a>
</g>
<!-- Node8&#45;&gt;Node2 -->
<g id="edge16" class="edge"><title>Node8&#45;&gt;Node2</title>
<path fill="none" stroke="orange" stroke-dasharray="5,2" d="M272.236,-220.262C269.071,-205.64 265.652,-189.842 262.639,-175.919"/>
<polygon fill="orange" stroke="orange" points="268.841,-221.125 274.378,-230.158 275.683,-219.644 268.841,-221.125"/>
<text text-anchor="middle" x="286" y="-196.5" font-family="Helvetica,sans-Serif" font-size="10.00">&lt; Con &gt;</text>
</g>
</g>
</svg>
