<?xml version="1.0" encoding="UTF-8" standalone="no"?>
<!DOCTYPE svg PUBLIC "-//W3C//DTD SVG 1.1//EN"
 "http://www.w3.org/Graphics/SVG/1.1/DTD/svg11.dtd">
<!-- Generated by graphviz version 2.28.0 (20110610.2051)
 -->
<!-- Title: G Pages: 1 -->
<svg width="213pt" height="542pt"
 viewBox="0.00 0.00 213.00 542.00" xmlns="http://www.w3.org/2000/svg" xmlns:xlink="http://www.w3.org/1999/xlink">
<g id="graph1" class="graph" transform="scale(1 1) rotate(0) translate(4 538)">
<title>G</title>
<polygon fill="white" stroke="white" points="-4,5 -4,-538 210,-538 210,5 -4,5"/>
<!-- Node1 -->
<g id="node1" class="node"><title>Node1</title>
<polygon fill="#bfbfbf" stroke="black" points="36.5,-0.5 36.5,-101.5 125.5,-101.5 125.5,-0.5 36.5,-0.5"/>
<text text-anchor="middle" x="81" y="-89.5" font-family="Helvetica,sans-Serif" font-size="10.00">RBFbehavior</text>
<polyline fill="none" stroke="black" points="36.5,-82.5 125.5,-82.5 "/>
<text text-anchor="start" x="44.5" y="-70.5" font-family="Helvetica,sans-Serif" font-size="10.00">&#45; d_width</text>
<text text-anchor="start" x="44.5" y="-59.5" font-family="Helvetica,sans-Serif" font-size="10.00">&#45; d_altitude</text>
<text text-anchor="start" x="44.5" y="-48.5" font-family="Helvetica,sans-Serif" font-size="10.00">&#45; d_output</text>
<text text-anchor="start" x="44.5" y="-37.5" font-family="Helvetica,sans-Serif" font-size="10.00">&#45; d_nCons</text>
<text text-anchor="start" x="44.5" y="-26.5" font-family="Helvetica,sans-Serif" font-size="10.00">&#45; d_accumulator</text>
<polyline fill="none" stroke="black" points="36.5,-19.5 125.5,-19.5 "/>
<text text-anchor="start" x="44.5" y="-7.5" font-family="Helvetica,sans-Serif" font-size="10.00">+ predict()</text>
</g>
<!-- Node2 -->
<g id="node2" class="node"><title>Node2</title>
<a xlink:href="class_predict_behavior.html" target="_top" xlink:title="class PredictBehavior &#45;">
<polygon fill="white" stroke="black" points="0,-205.5 0,-262.5 90,-262.5 90,-205.5 0,-205.5"/>
<text text-anchor="middle" x="45" y="-250.5" font-family="Helvetica,sans-Serif" font-size="10.00">PredictBehavior</text>
<polyline fill="none" stroke="black" points="0,-243.5 90,-243.5 "/>
<text text-anchor="middle" x="45" y="-231.5" font-family="Helvetica,sans-Serif" font-size="10.00"> </text>
<polyline fill="none" stroke="black" points="0,-224.5 90,-224.5 "/>
<text text-anchor="start" x="8" y="-212.5" font-family="Helvetica,sans-Serif" font-size="10.00">+ predict()</text>
</a>
</g>
<!-- Node2&#45;&gt;Node1 -->
<g id="edge2" class="edge"><title>Node2&#45;&gt;Node1</title>
<path fill="none" stroke="midnightblue" d="M52.5113,-195.235C57.9037,-168.123 65.225,-131.313 71.0953,-101.799"/>
<polygon fill="none" stroke="midnightblue" points="49.0642,-194.625 50.5461,-205.115 55.9297,-195.99 49.0642,-194.625"/>
</g>
<!-- Node3 -->
<g id="node4" class="node"><title>Node3</title>
<a xlink:href="class_container.html" target="_top" xlink:title="{Container\&lt; Con \&gt;\n||+ ~Container()\l+ createIterator()\l+ at()\l+ push_back()\l+ reserve()\l+ empty()\l+ size()\l+ clear()\l+ show()\l+ validate()\l# Container()\l}">
<polygon fill="white" stroke="black" points="108.5,-150.5 108.5,-317.5 205.5,-317.5 205.5,-150.5 108.5,-150.5"/>
<text text-anchor="middle" x="157" y="-305.5" font-family="Helvetica,sans-Serif" font-size="10.00">Container&lt; Con &gt;</text>
<polyline fill="none" stroke="black" points="108.5,-298.5 205.5,-298.5 "/>
<text text-anchor="middle" x="157" y="-286.5" font-family="Helvetica,sans-Serif" font-size="10.00"> </text>
<polyline fill="none" stroke="black" points="108.5,-279.5 205.5,-279.5 "/>
<text text-anchor="start" x="116.5" y="-267.5" font-family="Helvetica,sans-Serif" font-size="10.00">+ ~Container()</text>
<text text-anchor="start" x="116.5" y="-256.5" font-family="Helvetica,sans-Serif" font-size="10.00">+ createIterator()</text>
<text text-anchor="start" x="116.5" y="-245.5" font-family="Helvetica,sans-Serif" font-size="10.00">+ at()</text>
<text text-anchor="start" x="116.5" y="-234.5" font-family="Helvetica,sans-Serif" font-size="10.00">+ push_back()</text>
<text text-anchor="start" x="116.5" y="-223.5" font-family="Helvetica,sans-Serif" font-size="10.00">+ reserve()</text>
<text text-anchor="start" x="116.5" y="-212.5" font-family="Helvetica,sans-Serif" font-size="10.00">+ empty()</text>
<text text-anchor="start" x="116.5" y="-201.5" font-family="Helvetica,sans-Serif" font-size="10.00">+ size()</text>
<text text-anchor="start" x="116.5" y="-190.5" font-family="Helvetica,sans-Serif" font-size="10.00">+ clear()</text>
<text text-anchor="start" x="116.5" y="-179.5" font-family="Helvetica,sans-Serif" font-size="10.00">+ show()</text>
<text text-anchor="start" x="116.5" y="-168.5" font-family="Helvetica,sans-Serif" font-size="10.00">+ validate()</text>
<text text-anchor="start" x="116.5" y="-157.5" font-family="Helvetica,sans-Serif" font-size="10.00"># Container()</text>
</a>
</g>
<!-- Node3&#45;&gt;Node1 -->
<g id="edge4" class="edge"><title>Node3&#45;&gt;Node1</title>
<path fill="none" stroke="#9a32cd" stroke-dasharray="5,2" d="M118.384,-141.034C112.672,-127.429 106.978,-113.868 101.819,-101.582"/>
<polygon fill="#9a32cd" stroke="#9a32cd" points="122.336,-150.445 114.315,-142.967 120.4,-145.835 118.465,-141.225 118.465,-141.225 118.465,-141.225 120.4,-145.835 122.614,-139.483 122.336,-150.445 122.336,-150.445"/>
<text text-anchor="middle" x="134.5" y="-123.5" font-family="Helvetica,sans-Serif" font-size="10.00">d_nCons</text>
</g>
<!-- Node4 -->
<g id="node6" class="node"><title>Node4</title>
<a xlink:href="class_container.html" target="_top" xlink:title="class Container &#45;">
<polygon fill="white" stroke="black" points="108.5,-366.5 108.5,-533.5 205.5,-533.5 205.5,-366.5 108.5,-366.5"/>
<text text-anchor="middle" x="157" y="-521.5" font-family="Helvetica,sans-Serif" font-size="10.00">Container&lt; T &gt;</text>
<polyline fill="none" stroke="black" points="108.5,-514.5 205.5,-514.5 "/>
<text text-anchor="middle" x="157" y="-502.5" font-family="Helvetica,sans-Serif" font-size="10.00"> </text>
<polyline fill="none" stroke="black" points="108.5,-495.5 205.5,-495.5 "/>
<text text-anchor="start" x="116.5" y="-483.5" font-family="Helvetica,sans-Serif" font-size="10.00">+ ~Container()</text>
<text text-anchor="start" x="116.5" y="-472.5" font-family="Helvetica,sans-Serif" font-size="10.00">+ createIterator()</text>
<text text-anchor="start" x="116.5" y="-461.5" font-family="Helvetica,sans-Serif" font-size="10.00">+ at()</text>
<text text-anchor="start" x="116.5" y="-450.5" font-family="Helvetica,sans-Serif" font-size="10.00">+ push_back()</text>
<text text-anchor="start" x="116.5" y="-439.5" font-family="Helvetica,sans-Serif" font-size="10.00">+ reserve()</text>
<text text-anchor="start" x="116.5" y="-428.5" font-family="Helvetica,sans-Serif" font-size="10.00">+ empty()</text>
<text text-anchor="start" x="116.5" y="-417.5" font-family="Helvetica,sans-Serif" font-size="10.00">+ size()</text>
<text text-anchor="start" x="116.5" y="-406.5" font-family="Helvetica,sans-Serif" font-size="10.00">+ clear()</text>
<text text-anchor="start" x="116.5" y="-395.5" font-family="Helvetica,sans-Serif" font-size="10.00">+ show()</text>
<text text-anchor="start" x="116.5" y="-384.5" font-family="Helvetica,sans-Serif" font-size="10.00">+ validate()</text>
<text text-anchor="start" x="116.5" y="-373.5" font-family="Helvetica,sans-Serif" font-size="10.00"># Container()</text>
</a>
</g>
<!-- Node4&#45;&gt;Node3 -->
<g id="edge6" class="edge"><title>Node4&#45;&gt;Node3</title>
<path fill="none" stroke="orange" stroke-dasharray="5,2" d="M157,-356.052C157,-343.23 157,-330.134 157,-317.518"/>
<polygon fill="orange" stroke="orange" points="153.5,-356.262 157,-366.262 160.5,-356.262 153.5,-356.262"/>
<text text-anchor="middle" x="175" y="-339.5" font-family="Helvetica,sans-Serif" font-size="10.00">&lt; Con &gt;</text>
</g>
</g>
</svg>
