<?xml version="1.0" encoding="UTF-8" standalone="no"?>
<!DOCTYPE svg PUBLIC "-//W3C//DTD SVG 1.1//EN"
 "http://www.w3.org/Graphics/SVG/1.1/DTD/svg11.dtd">
<!-- Generated by graphviz version 2.28.0 (20110610.2051)
 -->
<!-- Title: G Pages: 1 -->
<svg width="207pt" height="204pt"
 viewBox="0.00 0.00 207.00 204.00" xmlns="http://www.w3.org/2000/svg" xmlns:xlink="http://www.w3.org/1999/xlink">
<g id="graph1" class="graph" transform="scale(1 1) rotate(0) translate(4 200)">
<title>G</title>
<polygon fill="white" stroke="white" points="-4,5 -4,-200 204,-200 204,5 -4,5"/>
<!-- Node1 -->
<g id="node1" class="node"><title>Node1</title>
<polygon fill="#bfbfbf" stroke="black" points="55,-138.5 55,-195.5 145,-195.5 145,-138.5 55,-138.5"/>
<text text-anchor="middle" x="100" y="-183.5" font-family="Helvetica,sans-Serif" font-size="10.00">PredictBehavior</text>
<polyline fill="none" stroke="black" points="55,-176.5 145,-176.5 "/>
<text text-anchor="middle" x="100" y="-164.5" font-family="Helvetica,sans-Serif" font-size="10.00"> </text>
<polyline fill="none" stroke="black" points="55,-157.5 145,-157.5 "/>
<text text-anchor="start" x="63" y="-145.5" font-family="Helvetica,sans-Serif" font-size="10.00">+ predict()</text>
</g>
<!-- Node2 -->
<g id="node3" class="node"><title>Node2</title>
<a xlink:href="class_m_l_pbehavior.html" target="_top" xlink:title="class MLPbehavior &#45;">
<polygon fill="white" stroke="black" points="0,-6 0,-96 92,-96 92,-6 0,-6"/>
<text text-anchor="middle" x="46" y="-84" font-family="Helvetica,sans-Serif" font-size="10.00">MLPbehavior</text>
<polyline fill="none" stroke="black" points="0,-77 92,-77 "/>
<text text-anchor="start" x="8" y="-65" font-family="Helvetica,sans-Serif" font-size="10.00">+ d_accumulator</text>
<text text-anchor="start" x="8" y="-54" font-family="Helvetica,sans-Serif" font-size="10.00">&#45; d_bias</text>
<text text-anchor="start" x="8" y="-43" font-family="Helvetica,sans-Serif" font-size="10.00">&#45; d_output</text>
<text text-anchor="start" x="8" y="-32" font-family="Helvetica,sans-Serif" font-size="10.00">&#45; d_nCons</text>
<polyline fill="none" stroke="black" points="0,-25 92,-25 "/>
<text text-anchor="start" x="8" y="-13" font-family="Helvetica,sans-Serif" font-size="10.00">+ predict()</text>
</a>
</g>
<!-- Node1&#45;&gt;Node2 -->
<g id="edge2" class="edge"><title>Node1&#45;&gt;Node2</title>
<path fill="none" stroke="midnightblue" d="M82.5295,-129.118C77.5638,-118.635 72.1048,-107.11 66.9551,-96.2385"/>
<polygon fill="none" stroke="midnightblue" points="79.4841,-130.865 86.9281,-138.404 85.8103,-127.868 79.4841,-130.865"/>
</g>
<!-- Node3 -->
<g id="node5" class="node"><title>Node3</title>
<a xlink:href="class_r_b_fbehavior.html" target="_top" xlink:title="class RBFbehavior &#45;">
<polygon fill="white" stroke="black" points="110.5,-0.5 110.5,-101.5 199.5,-101.5 199.5,-0.5 110.5,-0.5"/>
<text text-anchor="middle" x="155" y="-89.5" font-family="Helvetica,sans-Serif" font-size="10.00">RBFbehavior</text>
<polyline fill="none" stroke="black" points="110.5,-82.5 199.5,-82.5 "/>
<text text-anchor="start" x="118.5" y="-70.5" font-family="Helvetica,sans-Serif" font-size="10.00">&#45; d_width</text>
<text text-anchor="start" x="118.5" y="-59.5" font-family="Helvetica,sans-Serif" font-size="10.00">&#45; d_altitude</text>
<text text-anchor="start" x="118.5" y="-48.5" font-family="Helvetica,sans-Serif" font-size="10.00">&#45; d_output</text>
<text text-anchor="start" x="118.5" y="-37.5" font-family="Helvetica,sans-Serif" font-size="10.00">&#45; d_nCons</text>
<text text-anchor="start" x="118.5" y="-26.5" font-family="Helvetica,sans-Serif" font-size="10.00">&#45; d_accumulator</text>
<polyline fill="none" stroke="black" points="110.5,-19.5 199.5,-19.5 "/>
<text text-anchor="start" x="118.5" y="-7.5" font-family="Helvetica,sans-Serif" font-size="10.00">+ predict()</text>
</a>
</g>
<!-- Node1&#45;&gt;Node3 -->
<g id="edge4" class="edge"><title>Node1&#45;&gt;Node3</title>
<path fill="none" stroke="midnightblue" d="M117.755,-129.198C121.998,-120.404 126.596,-110.874 131.066,-101.608"/>
<polygon fill="none" stroke="midnightblue" points="114.507,-127.876 113.314,-138.404 120.812,-130.918 114.507,-127.876"/>
</g>
</g>
</svg>
