<?xml version="1.0" encoding="UTF-8" standalone="no"?>
<!DOCTYPE svg PUBLIC "-//W3C//DTD SVG 1.1//EN"
 "http://www.w3.org/Graphics/SVG/1.1/DTD/svg11.dtd">
<!-- Generated by graphviz version 2.25.20091207.0545 (20091207.0545)
 -->
<!-- Title: G Pages: 1 -->
<svg width="126pt" height="520pt"
 viewBox="0.00 0.00 126.00 520.00" xmlns="http://www.w3.org/2000/svg" xmlns:xlink="http://www.w3.org/1999/xlink">
<g id="graph1" class="graph" transform="scale(1 1) rotate(0) translate(4 516)">
<title>G</title>
<polygon fill="white" stroke="white" points="-4,5 -4,-516 123,-516 123,5 -4,5"/>
<!-- Node1 -->
<g id="node1" class="node"><title>Node1</title>
<polygon fill="#bfbfbf" stroke="black" points="8,-0.5 8,-57.5 110,-57.5 110,-0.5 8,-0.5"/>
<text text-anchor="middle" x="59" y="-44.5" font-family="Helvetica,sans-Serif" font-size="10.00">vecMLPneuron</text>
<polyline fill="none" stroke="black" points="8,-38.5 110,-38.5 "/>
<text text-anchor="middle" x="59" y="-25.5" font-family="Helvetica,sans-Serif" font-size="10.00"> </text>
<polyline fill="none" stroke="black" points="8,-19.5 110,-19.5 "/>
<text text-anchor="start" x="16" y="-6.5" font-family="Helvetica,sans-Serif" font-size="10.00">+ buildAndAppend()</text>
</g>
<!-- Node2 -->
<g id="node2" class="node"><title>Node2</title>
<a xlink:href="classvec_neuron.html" target="_top" xlink:title="A vector of neurons.">
<polygon fill="white" stroke="black" points="27.5,-96.5 27.5,-153.5 90.5,-153.5 90.5,-96.5 27.5,-96.5"/>
<text text-anchor="middle" x="59" y="-140.5" font-family="Helvetica,sans-Serif" font-size="10.00">vecNeuron</text>
<polyline fill="none" stroke="black" points="27.5,-134.5 90.5,-134.5 "/>
<text text-anchor="middle" x="59" y="-121.5" font-family="Helvetica,sans-Serif" font-size="10.00"> </text>
<polyline fill="none" stroke="black" points="27.5,-115.5 90.5,-115.5 "/>
<text text-anchor="middle" x="59" y="-102.5" font-family="Helvetica,sans-Serif" font-size="10.00"> </text>
</a>
</g>
<!-- Node2&#45;&gt;Node1 -->
<g id="edge2" class="edge"><title>Node2&#45;&gt;Node1</title>
<path fill="none" stroke="midnightblue" d="M59,-86.3234C59,-76.7274 59,-66.6143 59,-57.599"/>
<polygon fill="none" stroke="midnightblue" points="55.5001,-86.4567 59,-96.4568 62.5001,-86.4568 55.5001,-86.4567"/>
</g>
<!-- Node3 -->
<g id="node4" class="node"><title>Node3</title>
<a xlink:href="classvec_a_m_o_r_e.html" target="_top" xlink:title="{vecAMORE\&lt; Neuron \&gt;\n|# ldata\l|+ getLdata()\l+ setLdata()\l+ size()\l+ push_back()\l+ append()\l+ show()\l+ validate()\l+ reserve()\l}">
<polygon fill="white" stroke="black" points="0,-193 0,-327 118,-327 118,-193 0,-193"/>
<text text-anchor="middle" x="59" y="-314" font-family="Helvetica,sans-Serif" font-size="10.00">vecAMORE&lt; Neuron &gt;</text>
<polyline fill="none" stroke="black" points="0,-308 118,-308 "/>
<text text-anchor="start" x="8" y="-295" font-family="Helvetica,sans-Serif" font-size="10.00"># ldata</text>
<polyline fill="none" stroke="black" points="0,-289 118,-289 "/>
<text text-anchor="start" x="8" y="-276" font-family="Helvetica,sans-Serif" font-size="10.00">+ getLdata()</text>
<text text-anchor="start" x="8" y="-265" font-family="Helvetica,sans-Serif" font-size="10.00">+ setLdata()</text>
<text text-anchor="start" x="8" y="-254" font-family="Helvetica,sans-Serif" font-size="10.00">+ size()</text>
<text text-anchor="start" x="8" y="-243" font-family="Helvetica,sans-Serif" font-size="10.00">+ push_back()</text>
<text text-anchor="start" x="8" y="-232" font-family="Helvetica,sans-Serif" font-size="10.00">+ append()</text>
<text text-anchor="start" x="8" y="-221" font-family="Helvetica,sans-Serif" font-size="10.00">+ show()</text>
<text text-anchor="start" x="8" y="-210" font-family="Helvetica,sans-Serif" font-size="10.00">+ validate()</text>
<text text-anchor="start" x="8" y="-199" font-family="Helvetica,sans-Serif" font-size="10.00">+ reserve()</text>
</a>
</g>
<!-- Node3&#45;&gt;Node2 -->
<g id="edge4" class="edge"><title>Node3&#45;&gt;Node2</title>
<path fill="none" stroke="midnightblue" d="M59,-182.604C59,-172.38 59,-162.465 59,-153.826"/>
<polygon fill="none" stroke="midnightblue" points="55.5001,-182.895 59,-192.896 62.5001,-182.896 55.5001,-182.895"/>
</g>
<!-- Node4 -->
<g id="node6" class="node"><title>Node4</title>
<a xlink:href="classvec_a_m_o_r_e.html" target="_top" xlink:title="{vecAMORE\&lt; T \&gt;\n|# ldata\l|+ getLdata()\l+ setLdata()\l+ size()\l+ push_back()\l+ append()\l+ show()\l+ validate()\l+ reserve()\l}">
<polygon fill="white" stroke="black" points="12.5,-377 12.5,-511 105.5,-511 105.5,-377 12.5,-377"/>
<text text-anchor="middle" x="59" y="-498" font-family="Helvetica,sans-Serif" font-size="10.00">vecAMORE&lt; T &gt;</text>
<polyline fill="none" stroke="black" points="12.5,-492 105.5,-492 "/>
<text text-anchor="start" x="20.5" y="-479" font-family="Helvetica,sans-Serif" font-size="10.00"># ldata</text>
<polyline fill="none" stroke="black" points="12.5,-473 105.5,-473 "/>
<text text-anchor="start" x="20.5" y="-460" font-family="Helvetica,sans-Serif" font-size="10.00">+ getLdata()</text>
<text text-anchor="start" x="20.5" y="-449" font-family="Helvetica,sans-Serif" font-size="10.00">+ setLdata()</text>
<text text-anchor="start" x="20.5" y="-438" font-family="Helvetica,sans-Serif" font-size="10.00">+ size()</text>
<text text-anchor="start" x="20.5" y="-427" font-family="Helvetica,sans-Serif" font-size="10.00">+ push_back()</text>
<text text-anchor="start" x="20.5" y="-416" font-family="Helvetica,sans-Serif" font-size="10.00">+ append()</text>
<text text-anchor="start" x="20.5" y="-405" font-family="Helvetica,sans-Serif" font-size="10.00">+ show()</text>
<text text-anchor="start" x="20.5" y="-394" font-family="Helvetica,sans-Serif" font-size="10.00">+ validate()</text>
<text text-anchor="start" x="20.5" y="-383" font-family="Helvetica,sans-Serif" font-size="10.00">+ reserve()</text>
</a>
</g>
<!-- Node4&#45;&gt;Node3 -->
<g id="edge6" class="edge"><title>Node4&#45;&gt;Node3</title>
<path fill="none" stroke="orange" stroke-dasharray="5,2" d="M59,-366.788C59,-353.576 59,-339.946 59,-327.027"/>
<polygon fill="orange" stroke="orange" points="55.5001,-366.791 59,-376.791 62.5001,-366.791 55.5001,-366.791"/>
<text text-anchor="middle" x="84" y="-348.5" font-family="Helvetica,sans-Serif" font-size="10.00">&lt; Neuron &gt;</text>
</g>
</g>
</svg>
