<?xml version="1.0" encoding="UTF-8" standalone="no"?>
<!DOCTYPE svg PUBLIC "-//W3C//DTD SVG 1.1//EN"
 "http://www.w3.org/Graphics/SVG/1.1/DTD/svg11.dtd">
<!-- Generated by graphviz version 2.28.0 (20110610.2051)
 -->
<!-- Title: G Pages: 1 -->
<svg width="190pt" height="204pt"
 viewBox="0.00 0.00 190.00 204.00" xmlns="http://www.w3.org/2000/svg" xmlns:xlink="http://www.w3.org/1999/xlink">
<g id="graph1" class="graph" transform="scale(1 1) rotate(0) translate(4 200)">
<title>G</title>
<polygon fill="white" stroke="white" points="-4,5 -4,-200 187,-200 187,5 -4,5"/>
<!-- Node1 -->
<g id="node1" class="node"><title>Node1</title>
<polygon fill="#bfbfbf" stroke="black" points="56,-116.5 56,-195.5 126,-195.5 126,-116.5 56,-116.5"/>
<text text-anchor="middle" x="91" y="-183.5" font-family="Helvetica,sans-Serif" font-size="10.00">NeuralNet</text>
<polyline fill="none" stroke="black" points="56,-176.5 126,-176.5 "/>
<text text-anchor="middle" x="91" y="-164.5" font-family="Helvetica,sans-Serif" font-size="10.00"> </text>
<polyline fill="none" stroke="black" points="56,-157.5 126,-157.5 "/>
<text text-anchor="start" x="64" y="-145.5" font-family="Helvetica,sans-Serif" font-size="10.00">+ show()</text>
<text text-anchor="start" x="64" y="-134.5" font-family="Helvetica,sans-Serif" font-size="10.00">+ validate()</text>
<text text-anchor="start" x="64" y="-123.5" font-family="Helvetica,sans-Serif" font-size="10.00">+ train()</text>
</g>
<!-- Node2 -->
<g id="node3" class="node"><title>Node2</title>
<a xlink:href="class_m_l_pneural_net.html" target="_top" xlink:title="class MLPneuralNet &#45;">
<polygon fill="white" stroke="black" points="0,-0.5 0,-79.5 82,-79.5 82,-0.5 0,-0.5"/>
<text text-anchor="middle" x="41" y="-67.5" font-family="Helvetica,sans-Serif" font-size="10.00">MLPneuralNet</text>
<polyline fill="none" stroke="black" points="0,-60.5 82,-60.5 "/>
<text text-anchor="start" x="8" y="-48.5" font-family="Helvetica,sans-Serif" font-size="10.00">+ nLayers</text>
<text text-anchor="start" x="8" y="-37.5" font-family="Helvetica,sans-Serif" font-size="10.00">&#45; nLayers</text>
<polyline fill="none" stroke="black" points="0,-30.5 82,-30.5 "/>
<text text-anchor="start" x="8" y="-18.5" font-family="Helvetica,sans-Serif" font-size="10.00">+ show()</text>
<text text-anchor="start" x="8" y="-7.5" font-family="Helvetica,sans-Serif" font-size="10.00">+ validate()</text>
</a>
</g>
<!-- Node1&#45;&gt;Node2 -->
<g id="edge2" class="edge"><title>Node1&#45;&gt;Node2</title>
<path fill="none" stroke="midnightblue" d="M63.4113,-107.304C59.1926,-98.0537 55.0694,-88.4675 51.4847,-79.5555"/>
<polygon fill="none" stroke="midnightblue" points="60.2536,-108.814 67.6453,-116.405 66.6004,-105.862 60.2536,-108.814"/>
</g>
<!-- Node1&#45;&gt;Node2 -->
<g id="edge4" class="edge"><title>Node1&#45;&gt;Node2</title>
<path fill="none" stroke="midnightblue" d="M76.6282,-107.015C72.7652,-97.8541 68.5246,-88.3746 64.3358,-79.5555"/>
<polygon fill="none" stroke="midnightblue" points="73.4521,-108.494 80.4993,-116.405 79.9237,-105.826 73.4521,-108.494"/>
</g>
<!-- Node3 -->
<g id="node6" class="node"><title>Node3</title>
<a xlink:href="class_r_b_fneural_net.html" target="_top" xlink:title="class RBFneuralNet &#45;">
<polygon fill="white" stroke="black" points="100,-6 100,-74 182,-74 182,-6 100,-6"/>
<text text-anchor="middle" x="141" y="-62" font-family="Helvetica,sans-Serif" font-size="10.00">RBFneuralNet</text>
<polyline fill="none" stroke="black" points="100,-55 182,-55 "/>
<text text-anchor="start" x="108" y="-43" font-family="Helvetica,sans-Serif" font-size="10.00"># nLayers</text>
<polyline fill="none" stroke="black" points="100,-36 182,-36 "/>
<text text-anchor="start" x="108" y="-24" font-family="Helvetica,sans-Serif" font-size="10.00">+ show()</text>
<text text-anchor="start" x="108" y="-13" font-family="Helvetica,sans-Serif" font-size="10.00">+ validate()</text>
</a>
</g>
<!-- Node1&#45;&gt;Node3 -->
<g id="edge6" class="edge"><title>Node1&#45;&gt;Node3</title>
<path fill="none" stroke="midnightblue" d="M105.422,-106.895C110.064,-95.8928 115.248,-84.437 120.23,-74.2225"/>
<polygon fill="none" stroke="midnightblue" points="102.077,-105.826 101.501,-116.405 108.549,-108.494 102.077,-105.826"/>
</g>
<!-- Node1&#45;&gt;Node3 -->
<g id="edge8" class="edge"><title>Node1&#45;&gt;Node3</title>
<path fill="none" stroke="midnightblue" d="M118.623,-107.229C123.686,-96.1244 128.609,-84.5402 132.627,-74.2225"/>
<polygon fill="none" stroke="midnightblue" points="115.399,-105.862 114.355,-116.405 121.746,-108.814 115.399,-105.862"/>
</g>
</g>
</svg>
