<?xml version="1.0" encoding="UTF-8" standalone="no"?>
<!DOCTYPE svg PUBLIC "-//W3C//DTD SVG 1.1//EN"
 "http://www.w3.org/Graphics/SVG/1.1/DTD/svg11.dtd">
<!-- Generated by graphviz version 2.28.0 (20110610.2051)
 -->
<!-- Title: G Pages: 1 -->
<svg width="213pt" height="532pt"
 viewBox="0.00 0.00 213.00 532.00" xmlns="http://www.w3.org/2000/svg" xmlns:xlink="http://www.w3.org/1999/xlink">
<g id="graph1" class="graph" transform="scale(1 1) rotate(0) translate(4 528)">
<title>G</title>
<polygon fill="white" stroke="white" points="-4,5 -4,-528 210,-528 210,5 -4,5"/>
<!-- Node1 -->
<g id="node1" class="node"><title>Node1</title>
<polygon fill="#bfbfbf" stroke="black" points="35,-1 35,-91 127,-91 127,-1 35,-1"/>
<text text-anchor="middle" x="81" y="-79" font-family="Helvetica,sans-Serif" font-size="10.00">MLPbehavior</text>
<polyline fill="none" stroke="black" points="35,-72 127,-72 "/>
<text text-anchor="start" x="43" y="-60" font-family="Helvetica,sans-Serif" font-size="10.00">+ d_accumulator</text>
<text text-anchor="start" x="43" y="-49" font-family="Helvetica,sans-Serif" font-size="10.00">&#45; d_bias</text>
<text text-anchor="start" x="43" y="-38" font-family="Helvetica,sans-Serif" font-size="10.00">&#45; d_output</text>
<text text-anchor="start" x="43" y="-27" font-family="Helvetica,sans-Serif" font-size="10.00">&#45; d_nCons</text>
<polyline fill="none" stroke="black" points="35,-20 127,-20 "/>
<text text-anchor="start" x="43" y="-8" font-family="Helvetica,sans-Serif" font-size="10.00">+ predict()</text>
</g>
<!-- Node2 -->
<g id="node2" class="node"><title>Node2</title>
<a xlink:href="class_predict_behavior.html" target="_top" xlink:title="class PredictBehavior &#45;">
<polygon fill="white" stroke="black" points="0,-195.5 0,-252.5 90,-252.5 90,-195.5 0,-195.5"/>
<text text-anchor="middle" x="45" y="-240.5" font-family="Helvetica,sans-Serif" font-size="10.00">PredictBehavior</text>
<polyline fill="none" stroke="black" points="0,-233.5 90,-233.5 "/>
<text text-anchor="middle" x="45" y="-221.5" font-family="Helvetica,sans-Serif" font-size="10.00"> </text>
<polyline fill="none" stroke="black" points="0,-214.5 90,-214.5 "/>
<text text-anchor="start" x="8" y="-202.5" font-family="Helvetica,sans-Serif" font-size="10.00">+ predict()</text>
</a>
</g>
<!-- Node2&#45;&gt;Node1 -->
<g id="edge2" class="edge"><title>Node2&#45;&gt;Node1</title>
<path fill="none" stroke="midnightblue" d="M52.7587,-185.068C58.3961,-157.508 66.0419,-120.129 71.9563,-91.2134"/>
<polygon fill="none" stroke="midnightblue" points="49.2793,-184.614 50.7043,-195.112 56.1374,-186.017 49.2793,-184.614"/>
</g>
<!-- Node3 -->
<g id="node4" class="node"><title>Node3</title>
<a xlink:href="class_container.html" target="_top" xlink:title="{Container\&lt; Con \&gt;\n||+ ~Container()\l+ createIterator()\l+ at()\l+ push_back()\l+ reserve()\l+ empty()\l+ size()\l+ clear()\l+ show()\l+ validate()\l# Container()\l}">
<polygon fill="white" stroke="black" points="108.5,-140.5 108.5,-307.5 205.5,-307.5 205.5,-140.5 108.5,-140.5"/>
<text text-anchor="middle" x="157" y="-295.5" font-family="Helvetica,sans-Serif" font-size="10.00">Container&lt; Con &gt;</text>
<polyline fill="none" stroke="black" points="108.5,-288.5 205.5,-288.5 "/>
<text text-anchor="middle" x="157" y="-276.5" font-family="Helvetica,sans-Serif" font-size="10.00"> </text>
<polyline fill="none" stroke="black" points="108.5,-269.5 205.5,-269.5 "/>
<text text-anchor="start" x="116.5" y="-257.5" font-family="Helvetica,sans-Serif" font-size="10.00">+ ~Container()</text>
<text text-anchor="start" x="116.5" y="-246.5" font-family="Helvetica,sans-Serif" font-size="10.00">+ createIterator()</text>
<text text-anchor="start" x="116.5" y="-235.5" font-family="Helvetica,sans-Serif" font-size="10.00">+ at()</text>
<text text-anchor="start" x="116.5" y="-224.5" font-family="Helvetica,sans-Serif" font-size="10.00">+ push_back()</text>
<text text-anchor="start" x="116.5" y="-213.5" font-family="Helvetica,sans-Serif" font-size="10.00">+ reserve()</text>
<text text-anchor="start" x="116.5" y="-202.5" font-family="Helvetica,sans-Serif" font-size="10.00">+ empty()</text>
<text text-anchor="start" x="116.5" y="-191.5" font-family="Helvetica,sans-Serif" font-size="10.00">+ size()</text>
<text text-anchor="start" x="116.5" y="-180.5" font-family="Helvetica,sans-Serif" font-size="10.00">+ clear()</text>
<text text-anchor="start" x="116.5" y="-169.5" font-family="Helvetica,sans-Serif" font-size="10.00">+ show()</text>
<text text-anchor="start" x="116.5" y="-158.5" font-family="Helvetica,sans-Serif" font-size="10.00">+ validate()</text>
<text text-anchor="start" x="116.5" y="-147.5" font-family="Helvetica,sans-Serif" font-size="10.00"># Container()</text>
</a>
</g>
<!-- Node3&#45;&gt;Node1 -->
<g id="edge4" class="edge"><title>Node3&#45;&gt;Node1</title>
<path fill="none" stroke="#9a32cd" stroke-dasharray="5,2" d="M117.21,-130.854C111.252,-117.057 105.353,-103.396 100.1,-91.2321"/>
<polygon fill="#9a32cd" stroke="#9a32cd" points="121.337,-140.411 113.241,-133.014 119.354,-135.821 117.372,-131.23 117.372,-131.23 117.372,-131.23 119.354,-135.821 121.503,-129.446 121.337,-140.411 121.337,-140.411"/>
<text text-anchor="middle" x="132.5" y="-113.5" font-family="Helvetica,sans-Serif" font-size="10.00">d_nCons</text>
</g>
<!-- Node4 -->
<g id="node6" class="node"><title>Node4</title>
<a xlink:href="class_container.html" target="_top" xlink:title="class Container &#45;">
<polygon fill="white" stroke="black" points="108.5,-356.5 108.5,-523.5 205.5,-523.5 205.5,-356.5 108.5,-356.5"/>
<text text-anchor="middle" x="157" y="-511.5" font-family="Helvetica,sans-Serif" font-size="10.00">Container&lt; T &gt;</text>
<polyline fill="none" stroke="black" points="108.5,-504.5 205.5,-504.5 "/>
<text text-anchor="middle" x="157" y="-492.5" font-family="Helvetica,sans-Serif" font-size="10.00"> </text>
<polyline fill="none" stroke="black" points="108.5,-485.5 205.5,-485.5 "/>
<text text-anchor="start" x="116.5" y="-473.5" font-family="Helvetica,sans-Serif" font-size="10.00">+ ~Container()</text>
<text text-anchor="start" x="116.5" y="-462.5" font-family="Helvetica,sans-Serif" font-size="10.00">+ createIterator()</text>
<text text-anchor="start" x="116.5" y="-451.5" font-family="Helvetica,sans-Serif" font-size="10.00">+ at()</text>
<text text-anchor="start" x="116.5" y="-440.5" font-family="Helvetica,sans-Serif" font-size="10.00">+ push_back()</text>
<text text-anchor="start" x="116.5" y="-429.5" font-family="Helvetica,sans-Serif" font-size="10.00">+ reserve()</text>
<text text-anchor="start" x="116.5" y="-418.5" font-family="Helvetica,sans-Serif" font-size="10.00">+ empty()</text>
<text text-anchor="start" x="116.5" y="-407.5" font-family="Helvetica,sans-Serif" font-size="10.00">+ size()</text>
<text text-anchor="start" x="116.5" y="-396.5" font-family="Helvetica,sans-Serif" font-size="10.00">+ clear()</text>
<text text-anchor="start" x="116.5" y="-385.5" font-family="Helvetica,sans-Serif" font-size="10.00">+ show()</text>
<text text-anchor="start" x="116.5" y="-374.5" font-family="Helvetica,sans-Serif" font-size="10.00">+ validate()</text>
<text text-anchor="start" x="116.5" y="-363.5" font-family="Helvetica,sans-Serif" font-size="10.00"># Container()</text>
</a>
</g>
<!-- Node4&#45;&gt;Node3 -->
<g id="edge6" class="edge"><title>Node4&#45;&gt;Node3</title>
<path fill="none" stroke="orange" stroke-dasharray="5,2" d="M157,-346.052C157,-333.23 157,-320.134 157,-307.518"/>
<polygon fill="orange" stroke="orange" points="153.5,-346.262 157,-356.262 160.5,-346.262 153.5,-346.262"/>
<text text-anchor="middle" x="175" y="-329.5" font-family="Helvetica,sans-Serif" font-size="10.00">&lt; Con &gt;</text>
</g>
</g>
</svg>
