<?xml version="1.0" encoding="UTF-8" standalone="no"?>
<!DOCTYPE svg PUBLIC "-//W3C//DTD SVG 1.1//EN"
 "http://www.w3.org/Graphics/SVG/1.1/DTD/svg11.dtd">
<!-- Generated by graphviz version 2.28.0 (20110610.2051)
 -->
<!-- Title: G Pages: 1 -->
<svg width="98pt" height="260pt"
 viewBox="0.00 0.00 98.00 260.00" xmlns="http://www.w3.org/2000/svg" xmlns:xlink="http://www.w3.org/1999/xlink">
<g id="graph1" class="graph" transform="scale(1 1) rotate(0) translate(4 256)">
<title>G</title>
<polygon fill="white" stroke="white" points="-4,5 -4,-256 95,-256 95,5 -4,5"/>
<!-- Node1 -->
<g id="node1" class="node"><title>Node1</title>
<polygon fill="#bfbfbf" stroke="black" points="0.5,-0.5 0.5,-123.5 89.5,-123.5 89.5,-0.5 0.5,-0.5"/>
<text text-anchor="middle" x="45" y="-111.5" font-family="Helvetica,sans-Serif" font-size="10.00">MLPbehavior</text>
<polyline fill="none" stroke="black" points="0.5,-104.5 89.5,-104.5 "/>
<text text-anchor="start" x="8.5" y="-92.5" font-family="Helvetica,sans-Serif" font-size="10.00">&#45; d_bias</text>
<text text-anchor="start" x="8.5" y="-81.5" font-family="Helvetica,sans-Serif" font-size="10.00">&#45; d_output</text>
<text text-anchor="start" x="8.5" y="-70.5" font-family="Helvetica,sans-Serif" font-size="10.00">&#45; d_nCons</text>
<text text-anchor="start" x="8.5" y="-59.5" font-family="Helvetica,sans-Serif" font-size="10.00">&#45; d_accumulator</text>
<polyline fill="none" stroke="black" points="0.5,-52.5 89.5,-52.5 "/>
<text text-anchor="start" x="8.5" y="-40.5" font-family="Helvetica,sans-Serif" font-size="10.00">+ predict()</text>
<text text-anchor="start" x="8.5" y="-29.5" font-family="Helvetica,sans-Serif" font-size="10.00">+ show()</text>
<text text-anchor="start" x="8.5" y="-18.5" font-family="Helvetica,sans-Serif" font-size="10.00">+ getOutput()</text>
<text text-anchor="start" x="8.5" y="-7.5" font-family="Helvetica,sans-Serif" font-size="10.00">+ setOutput()</text>
</g>
<!-- Node2 -->
<g id="node2" class="node"><title>Node2</title>
<a xlink:href="class_predict_behavior.html" target="_top" xlink:title="class PredictBehavior &#45;">
<polygon fill="white" stroke="black" points="0,-161 0,-251 90,-251 90,-161 0,-161"/>
<text text-anchor="middle" x="45" y="-239" font-family="Helvetica,sans-Serif" font-size="10.00">PredictBehavior</text>
<polyline fill="none" stroke="black" points="0,-232 90,-232 "/>
<text text-anchor="middle" x="45" y="-220" font-family="Helvetica,sans-Serif" font-size="10.00"> </text>
<polyline fill="none" stroke="black" points="0,-213 90,-213 "/>
<text text-anchor="start" x="8" y="-201" font-family="Helvetica,sans-Serif" font-size="10.00">+ predict()</text>
<text text-anchor="start" x="8" y="-190" font-family="Helvetica,sans-Serif" font-size="10.00">+ show()</text>
<text text-anchor="start" x="8" y="-179" font-family="Helvetica,sans-Serif" font-size="10.00">+ getOutput()</text>
<text text-anchor="start" x="8" y="-168" font-family="Helvetica,sans-Serif" font-size="10.00">+ setOutput()</text>
</a>
</g>
<!-- Node2&#45;&gt;Node1 -->
<g id="edge2" class="edge"><title>Node2&#45;&gt;Node1</title>
<path fill="none" stroke="midnightblue" d="M45,-150.648C45,-141.785 45,-132.555 45,-123.554"/>
<polygon fill="none" stroke="midnightblue" points="41.5001,-150.849 45,-160.849 48.5001,-150.849 41.5001,-150.849"/>
</g>
</g>
</svg>
