<?xml version="1.0" encoding="UTF-8" standalone="no"?>
<!DOCTYPE svg PUBLIC "-//W3C//DTD SVG 1.1//EN"
 "http://www.w3.org/Graphics/SVG/1.1/DTD/svg11.dtd">
<!-- Generated by graphviz version 2.25.20091207.0545 (20091207.0545)
 -->
<!-- Title: G Pages: 1 -->
<svg width="384pt" height="104pt"
 viewBox="0.00 0.00 384.00 104.00" xmlns="http://www.w3.org/2000/svg" xmlns:xlink="http://www.w3.org/1999/xlink">
<g id="graph1" class="graph" transform="scale(1 1) rotate(0) translate(4 100)">
<title>G</title>
<polygon fill="white" stroke="white" points="-4,5 -4,-100 381,-100 381,5 -4,5"/>
<!-- Node1 -->
<g id="node1" class="node"><title>Node1</title>
<polygon fill="#bfbfbf" stroke="black" points="0,-38.5 0,-57.5 110,-57.5 110,-38.5 0,-38.5"/>
<text text-anchor="middle" x="55" y="-44.5" font-family="Helvetica,sans-Serif" font-size="10.00">VecCon::numOfCons</text>
</g>
<!-- Node2 -->
<g id="node3" class="node"><title>Node2</title>
<a xlink:href="class_vec_con.html#aee24ad1e9f3a8af771bef14cac0bf71d" target="_top" xlink:title="Getter of the from field of the Con objects related to VecCon.">
<polygon fill="white" stroke="black" points="150.5,-76.5 150.5,-95.5 243.5,-95.5 243.5,-76.5 150.5,-76.5"/>
<text text-anchor="middle" x="197" y="-82.5" font-family="Helvetica,sans-Serif" font-size="10.00">VecCon::getFrom</text>
</a>
</g>
<!-- Node1&#45;&gt;Node2 -->
<g id="edge2" class="edge"><title>Node1&#45;&gt;Node2</title>
<path fill="none" stroke="midnightblue" d="M100.493,-60.1742C120.128,-65.4287 142.766,-71.4866 161.179,-76.4141"/>
<polygon fill="midnightblue" stroke="midnightblue" points="101.397,-56.7931 90.8326,-57.589 99.5879,-63.5552 101.397,-56.7931"/>
</g>
<!-- Node3 -->
<g id="node5" class="node"><title>Node3</title>
<a xlink:href="class_vec_con.html#a03d5dde143e166e68b01c9596573eb5f" target="_top" xlink:title="Getter of the Id values of the vector of Cons.">
<polygon fill="white" stroke="black" points="157.5,-38.5 157.5,-57.5 236.5,-57.5 236.5,-38.5 157.5,-38.5"/>
<text text-anchor="middle" x="197" y="-44.5" font-family="Helvetica,sans-Serif" font-size="10.00">VecCon::getId</text>
</a>
</g>
<!-- Node1&#45;&gt;Node3 -->
<g id="edge4" class="edge"><title>Node1&#45;&gt;Node3</title>
<path fill="none" stroke="midnightblue" d="M120.375,-48C133.032,-48 145.928,-48 157.442,-48"/>
<polygon fill="midnightblue" stroke="midnightblue" points="120.308,-44.5001 110.308,-48 120.307,-51.5001 120.308,-44.5001"/>
</g>
<!-- Node5 -->
<g id="node9" class="node"><title>Node5</title>
<a xlink:href="class_vec_con.html#aafa37c30d566b8784ac84d23a14b5638" target="_top" xlink:title="Getter of the weight field of the Con objects related to VecCon.">
<polygon fill="white" stroke="black" points="146,-0.5 146,-19.5 248,-19.5 248,-0.5 146,-0.5"/>
<text text-anchor="middle" x="197" y="-6.5" font-family="Helvetica,sans-Serif" font-size="10.00">VecCon::getWeight</text>
</a>
</g>
<!-- Node1&#45;&gt;Node5 -->
<g id="edge8" class="edge"><title>Node1&#45;&gt;Node5</title>
<path fill="none" stroke="midnightblue" d="M100.493,-35.8258C120.128,-30.5713 142.766,-24.5134 161.179,-19.5859"/>
<polygon fill="midnightblue" stroke="midnightblue" points="99.5879,-32.4448 90.8326,-38.411 101.397,-39.2069 99.5879,-32.4448"/>
</g>
<!-- Node4 -->
<g id="node7" class="node"><title>Node4</title>
<a xlink:href="class_vec_con.html#af008396d3982fb7ccf1af9618b89937c" target="_top" xlink:title="Object validator.">
<polygon fill="white" stroke="black" points="284.5,-38.5 284.5,-57.5 375.5,-57.5 375.5,-38.5 284.5,-38.5"/>
<text text-anchor="middle" x="330" y="-44.5" font-family="Helvetica,sans-Serif" font-size="10.00">VecCon::validate</text>
</a>
</g>
<!-- Node3&#45;&gt;Node4 -->
<g id="edge6" class="edge"><title>Node3&#45;&gt;Node4</title>
<path fill="none" stroke="midnightblue" d="M246.669,-48C259.003,-48 272.163,-48 284.296,-48"/>
<polygon fill="midnightblue" stroke="midnightblue" points="246.544,-44.5001 236.544,-48 246.544,-51.5001 246.544,-44.5001"/>
</g>
</g>
</svg>
