<?xml version="1.0" encoding="UTF-8" standalone="no"?>
<!DOCTYPE svg PUBLIC "-//W3C//DTD SVG 1.1//EN"
 "http://www.w3.org/Graphics/SVG/1.1/DTD/svg11.dtd">
<!-- Generated by graphviz version 2.25.20091207.0545 (20091207.0545)
 -->
<!-- Title: G Pages: 1 -->
<svg width="390pt" height="66pt"
 viewBox="0.00 0.00 390.00 66.00" xmlns="http://www.w3.org/2000/svg" xmlns:xlink="http://www.w3.org/1999/xlink">
<g id="graph1" class="graph" transform="scale(1 1) rotate(0) translate(4 62)">
<title>G</title>
<polygon fill="white" stroke="white" points="-4,5 -4,-62 387,-62 387,5 -4,5"/>
<!-- Node1 -->
<g id="node1" class="node"><title>Node1</title>
<polygon fill="#bfbfbf" stroke="black" points="0.5,-19.5 0.5,-38.5 91.5,-38.5 91.5,-19.5 0.5,-19.5"/>
<text text-anchor="middle" x="46" y="-25.5" font-family="Helvetica,sans-Serif" font-size="10.00">Container::empty</text>
</g>
<!-- Node2 -->
<g id="node3" class="node"><title>Node2</title>
<a xlink:href="class_vec_con.html#a7234c09d040d7114209137176d384566" target="_top" xlink:title="Builds Con objects and appends them to collection.">
<polygon fill="white" stroke="black" points="128,-38.5 128,-57.5 256,-57.5 256,-38.5 128,-38.5"/>
<text text-anchor="middle" x="192" y="-44.5" font-family="Helvetica,sans-Serif" font-size="10.00">VecCon::buildAndAppend</text>
</a>
</g>
<!-- Node1&#45;&gt;Node2 -->
<g id="edge2" class="edge"><title>Node1&#45;&gt;Node2</title>
<path fill="none" stroke="midnightblue" d="M101.958,-36.2822C110.45,-37.3874 119.268,-38.5349 127.917,-39.6604"/>
<polygon fill="midnightblue" stroke="midnightblue" points="102.163,-32.7794 91.7947,-34.9596 101.259,-39.7209 102.163,-32.7794"/>
</g>
<!-- Node3 -->
<g id="node5" class="node"><title>Node3</title>
<a xlink:href="class_vec_con.html#a280ee1e24c44c8aeff1c4c4076322b71" target="_top" xlink:title="Setter of the from fields of the Con objects related to VecCon.">
<polygon fill="white" stroke="black" points="145.5,-0.5 145.5,-19.5 238.5,-19.5 238.5,-0.5 145.5,-0.5"/>
<text text-anchor="middle" x="192" y="-6.5" font-family="Helvetica,sans-Serif" font-size="10.00">VecCon::setFrom</text>
</a>
</g>
<!-- Node1&#45;&gt;Node3 -->
<g id="edge4" class="edge"><title>Node1&#45;&gt;Node3</title>
<path fill="none" stroke="midnightblue" d="M102.022,-21.7095C116.337,-19.8466 131.574,-17.8636 145.362,-16.0693"/>
<polygon fill="midnightblue" stroke="midnightblue" points="101.259,-18.2791 91.7947,-23.0404 102.163,-25.2206 101.259,-18.2791"/>
</g>
<!-- Node4 -->
<g id="node7" class="node"><title>Node4</title>
<a xlink:href="class_neuron.html#a2aa3a89c77ac950559689d6d48a044f9" target="_top" xlink:title="Neuron::setFrom">
<polygon fill="white" stroke="black" points="292,-0.5 292,-19.5 382,-19.5 382,-0.5 292,-0.5"/>
<text text-anchor="middle" x="337" y="-6.5" font-family="Helvetica,sans-Serif" font-size="10.00">Neuron::setFrom</text>
</a>
</g>
<!-- Node3&#45;&gt;Node4 -->
<g id="edge6" class="edge"><title>Node3&#45;&gt;Node4</title>
<path fill="none" stroke="midnightblue" d="M248.887,-10C263.161,-10 278.283,-10 291.894,-10"/>
<polygon fill="midnightblue" stroke="midnightblue" points="248.677,-6.5001 238.677,-10 248.677,-13.5001 248.677,-6.5001"/>
</g>
</g>
</svg>
