<?xml version="1.0" encoding="UTF-8" standalone="no"?>
<!DOCTYPE svg PUBLIC "-//W3C//DTD SVG 1.1//EN"
 "http://www.w3.org/Graphics/SVG/1.1/DTD/svg11.dtd">
<!-- Generated by graphviz version 2.25.20091207.0545 (20091207.0545)
 -->
<!-- Title: G Pages: 1 -->
<svg width="351pt" height="974pt"
 viewBox="0.00 0.00 351.00 974.00" xmlns="http://www.w3.org/2000/svg" xmlns:xlink="http://www.w3.org/1999/xlink">
<g id="graph1" class="graph" transform="scale(1 1) rotate(0) translate(4 970)">
<title>G</title>
<polygon fill="white" stroke="white" points="-4,5 -4,-970 348,-970 348,5 -4,5"/>
<!-- Node1 -->
<g id="node1" class="node"><title>Node1</title>
<polygon fill="#bfbfbf" stroke="black" points="97,-1 97,-179 199,-179 199,-1 97,-1"/>
<text text-anchor="middle" x="148" y="-166" font-family="Helvetica,sans-Serif" font-size="10.00">VecCon</text>
<polyline fill="none" stroke="black" points="97,-160 199,-160 "/>
<text text-anchor="middle" x="148" y="-147" font-family="Helvetica,sans-Serif" font-size="10.00"> </text>
<polyline fill="none" stroke="black" points="97,-141 199,-141 "/>
<text text-anchor="start" x="105" y="-128" font-family="Helvetica,sans-Serif" font-size="10.00">+ numOfCons()</text>
<text text-anchor="start" x="105" y="-117" font-family="Helvetica,sans-Serif" font-size="10.00">+ getId()</text>
<text text-anchor="start" x="105" y="-106" font-family="Helvetica,sans-Serif" font-size="10.00">+ buildAndAppend()</text>
<text text-anchor="start" x="105" y="-95" font-family="Helvetica,sans-Serif" font-size="10.00">+ getWeight()</text>
<text text-anchor="start" x="105" y="-84" font-family="Helvetica,sans-Serif" font-size="10.00">+ getWeight()</text>
<text text-anchor="start" x="105" y="-73" font-family="Helvetica,sans-Serif" font-size="10.00">+ getFrom()</text>
<text text-anchor="start" x="105" y="-62" font-family="Helvetica,sans-Serif" font-size="10.00">+ setWeight()</text>
<text text-anchor="start" x="105" y="-51" font-family="Helvetica,sans-Serif" font-size="10.00">+ setWeight()</text>
<text text-anchor="start" x="105" y="-40" font-family="Helvetica,sans-Serif" font-size="10.00">+ setFrom()</text>
<text text-anchor="start" x="105" y="-29" font-family="Helvetica,sans-Serif" font-size="10.00">+ erase()</text>
<text text-anchor="start" x="105" y="-18" font-family="Helvetica,sans-Serif" font-size="10.00">+ select()</text>
<text text-anchor="start" x="105" y="-7" font-family="Helvetica,sans-Serif" font-size="10.00">+ validate()</text>
</g>
<!-- Node2 -->
<g id="node2" class="node"><title>Node2</title>
<a xlink:href="class_container.html" target="_top" xlink:title="{Container\&lt; Con \&gt;\n|# ldata\l|+ begin()\l+ end()\l+ load()\l+ store()\l+ size()\l+ push_back()\l+ append()\l+ show()\l+ validate()\l+ reserve()\l+ resize()\l}">
<polygon fill="white" stroke="black" points="101,-218.5 101,-385.5 195,-385.5 195,-218.5 101,-218.5"/>
<text text-anchor="middle" x="148" y="-372.5" font-family="Helvetica,sans-Serif" font-size="10.00">Container&lt; Con &gt;</text>
<polyline fill="none" stroke="black" points="101,-366.5 195,-366.5 "/>
<text text-anchor="start" x="109" y="-353.5" font-family="Helvetica,sans-Serif" font-size="10.00"># ldata</text>
<polyline fill="none" stroke="black" points="101,-347.5 195,-347.5 "/>
<text text-anchor="start" x="109" y="-334.5" font-family="Helvetica,sans-Serif" font-size="10.00">+ begin()</text>
<text text-anchor="start" x="109" y="-323.5" font-family="Helvetica,sans-Serif" font-size="10.00">+ end()</text>
<text text-anchor="start" x="109" y="-312.5" font-family="Helvetica,sans-Serif" font-size="10.00">+ load()</text>
<text text-anchor="start" x="109" y="-301.5" font-family="Helvetica,sans-Serif" font-size="10.00">+ store()</text>
<text text-anchor="start" x="109" y="-290.5" font-family="Helvetica,sans-Serif" font-size="10.00">+ size()</text>
<text text-anchor="start" x="109" y="-279.5" font-family="Helvetica,sans-Serif" font-size="10.00">+ push_back()</text>
<text text-anchor="start" x="109" y="-268.5" font-family="Helvetica,sans-Serif" font-size="10.00">+ append()</text>
<text text-anchor="start" x="109" y="-257.5" font-family="Helvetica,sans-Serif" font-size="10.00">+ show()</text>
<text text-anchor="start" x="109" y="-246.5" font-family="Helvetica,sans-Serif" font-size="10.00">+ validate()</text>
<text text-anchor="start" x="109" y="-235.5" font-family="Helvetica,sans-Serif" font-size="10.00">+ reserve()</text>
<text text-anchor="start" x="109" y="-224.5" font-family="Helvetica,sans-Serif" font-size="10.00">+ resize()</text>
</a>
</g>
<!-- Node2&#45;&gt;Node1 -->
<g id="edge2" class="edge"><title>Node2&#45;&gt;Node1</title>
<path fill="none" stroke="midnightblue" d="M148,-208.199C148,-198.529 148,-188.722 148,-179.106"/>
<polygon fill="none" stroke="midnightblue" points="144.5,-208.212 148,-218.212 151.5,-208.212 144.5,-208.212"/>
</g>
<!-- Node3 -->
<g id="node4" class="node"><title>Node3</title>
<polygon fill="white" stroke="#bfbfbf" points="0,-620.5 0,-677.5 192,-677.5 192,-620.5 0,-620.5"/>
<text text-anchor="middle" x="96" y="-664.5" font-family="Helvetica,sans-Serif" font-size="10.00">std::vector&lt; boost::shared_ptr&lt; Con &gt; &gt;</text>
<polyline fill="none" stroke="#bfbfbf" points="0,-658.5 192,-658.5 "/>
<text text-anchor="start" x="8" y="-645.5" font-family="Helvetica,sans-Serif" font-size="10.00">&#45; elements</text>
<polyline fill="none" stroke="#bfbfbf" points="0,-639.5 192,-639.5 "/>
<text text-anchor="middle" x="96" y="-626.5" font-family="Helvetica,sans-Serif" font-size="10.00"> </text>
</g>
<!-- Node3&#45;&gt;Node2 -->
<g id="edge4" class="edge"><title>Node3&#45;&gt;Node2</title>
<path fill="none" stroke="#9a32cd" stroke-dasharray="5,2" d="M101.824,-610.135C109.914,-556.153 124.759,-457.092 135.435,-385.844"/>
<polygon fill="#9a32cd" stroke="#9a32cd" points="100.3,-620.308 97.3314,-609.752 101.041,-615.364 101.782,-610.419 101.782,-610.419 101.782,-610.419 101.041,-615.364 106.232,-611.086 100.3,-620.308 100.3,-620.308"/>
<text text-anchor="middle" x="138.5" y="-514.5" font-family="Helvetica,sans-Serif" font-size="10.00">ldata</text>
</g>
<!-- Node4 -->
<g id="node6" class="node"><title>Node4</title>
<a xlink:title="STL class.">
<polygon fill="white" stroke="#bfbfbf" points="120.5,-802.5 120.5,-859.5 207.5,-859.5 207.5,-802.5 120.5,-802.5"/>
<text text-anchor="middle" x="164" y="-846.5" font-family="Helvetica,sans-Serif" font-size="10.00">std::vector&lt; T &gt;</text>
<polyline fill="none" stroke="#bfbfbf" points="120.5,-840.5 207.5,-840.5 "/>
<text text-anchor="start" x="128.5" y="-827.5" font-family="Helvetica,sans-Serif" font-size="10.00">&#45; elements</text>
<polyline fill="none" stroke="#bfbfbf" points="120.5,-821.5 207.5,-821.5 "/>
<text text-anchor="middle" x="164" y="-808.5" font-family="Helvetica,sans-Serif" font-size="10.00"> </text>
</a>
</g>
<!-- Node4&#45;&gt;Node3 -->
<g id="edge6" class="edge"><title>Node4&#45;&gt;Node3</title>
<path fill="none" stroke="orange" stroke-dasharray="5,2" d="M111.191,-809.955C100.727,-803.266 91.1016,-794.73 85,-784 66.3434,-751.192 75.4042,-706.458 84.7607,-677.647"/>
<polygon fill="orange" stroke="orange" points="109.714,-813.145 120.118,-815.147 113.233,-807.094 109.714,-813.145"/>
<text text-anchor="middle" x="150" y="-774.5" font-family="Helvetica,sans-Serif" font-size="10.00">&lt; boost::shared_ptr&lt; Con &gt; &gt;</text>
</g>
<!-- Node7 -->
<g id="node12" class="node"><title>Node7</title>
<polygon fill="white" stroke="#bfbfbf" points="146,-696.5 146,-753.5 326,-753.5 326,-696.5 146,-696.5"/>
<text text-anchor="middle" x="236" y="-740.5" font-family="Helvetica,sans-Serif" font-size="10.00">std::vector&lt; boost::shared_ptr&lt; T &gt; &gt;</text>
<polyline fill="none" stroke="#bfbfbf" points="146,-734.5 326,-734.5 "/>
<text text-anchor="start" x="154" y="-721.5" font-family="Helvetica,sans-Serif" font-size="10.00">&#45; elements</text>
<polyline fill="none" stroke="#bfbfbf" points="146,-715.5 326,-715.5 "/>
<text text-anchor="middle" x="236" y="-702.5" font-family="Helvetica,sans-Serif" font-size="10.00"> </text>
</g>
<!-- Node4&#45;&gt;Node7 -->
<g id="edge14" class="edge"><title>Node4&#45;&gt;Node7</title>
<path fill="none" stroke="orange" stroke-dasharray="5,2" d="M210.511,-795.072C213.638,-791.549 216.523,-787.846 219,-784 224.829,-774.948 228.705,-763.855 231.261,-753.74"/>
<polygon fill="orange" stroke="orange" points="207.779,-792.862 203.342,-802.482 212.81,-797.729 207.779,-792.862"/>
<text text-anchor="middle" x="284" y="-774.5" font-family="Helvetica,sans-Serif" font-size="10.00">&lt; boost::shared_ptr&lt; T &gt; &gt;</text>
</g>
<!-- Node5 -->
<g id="node8" class="node"><title>Node5</title>
<polygon fill="white" stroke="#bfbfbf" points="149.5,-908.5 149.5,-965.5 178.5,-965.5 178.5,-908.5 149.5,-908.5"/>
<text text-anchor="middle" x="164" y="-952.5" font-family="Helvetica,sans-Serif" font-size="10.00">T</text>
<polyline fill="none" stroke="#bfbfbf" points="149.5,-946.5 178.5,-946.5 "/>
<text text-anchor="middle" x="164" y="-933.5" font-family="Helvetica,sans-Serif" font-size="10.00"> </text>
<polyline fill="none" stroke="#bfbfbf" points="149.5,-927.5 178.5,-927.5 "/>
<text text-anchor="middle" x="164" y="-914.5" font-family="Helvetica,sans-Serif" font-size="10.00"> </text>
</g>
<!-- Node5&#45;&gt;Node4 -->
<g id="edge8" class="edge"><title>Node5&#45;&gt;Node4</title>
<path fill="none" stroke="#9a32cd" stroke-dasharray="5,2" d="M164,-898.005C164,-885.326 164,-871.494 164,-859.708"/>
<polygon fill="#9a32cd" stroke="#9a32cd" points="164,-908.315 159.5,-898.315 164,-903.315 164,-898.315 164,-898.315 164,-898.315 164,-903.315 168.5,-898.315 164,-908.315 164,-908.315"/>
<text text-anchor="middle" x="184" y="-880.5" font-family="Helvetica,sans-Serif" font-size="10.00">elements</text>
</g>
<!-- Node6 -->
<g id="node10" class="node"><title>Node6</title>
<a xlink:href="class_container.html" target="_top" xlink:title="{Container\&lt; T \&gt;\n|# ldata\l|+ begin()\l+ end()\l+ load()\l+ store()\l+ size()\l+ push_back()\l+ append()\l+ show()\l+ validate()\l+ reserve()\l+ resize()\l}">
<polygon fill="white" stroke="black" points="167,-434.5 167,-601.5 249,-601.5 249,-434.5 167,-434.5"/>
<text text-anchor="middle" x="208" y="-588.5" font-family="Helvetica,sans-Serif" font-size="10.00">Container&lt; T &gt;</text>
<polyline fill="none" stroke="black" points="167,-582.5 249,-582.5 "/>
<text text-anchor="start" x="175" y="-569.5" font-family="Helvetica,sans-Serif" font-size="10.00"># ldata</text>
<polyline fill="none" stroke="black" points="167,-563.5 249,-563.5 "/>
<text text-anchor="start" x="175" y="-550.5" font-family="Helvetica,sans-Serif" font-size="10.00">+ begin()</text>
<text text-anchor="start" x="175" y="-539.5" font-family="Helvetica,sans-Serif" font-size="10.00">+ end()</text>
<text text-anchor="start" x="175" y="-528.5" font-family="Helvetica,sans-Serif" font-size="10.00">+ load()</text>
<text text-anchor="start" x="175" y="-517.5" font-family="Helvetica,sans-Serif" font-size="10.00">+ store()</text>
<text text-anchor="start" x="175" y="-506.5" font-family="Helvetica,sans-Serif" font-size="10.00">+ size()</text>
<text text-anchor="start" x="175" y="-495.5" font-family="Helvetica,sans-Serif" font-size="10.00">+ push_back()</text>
<text text-anchor="start" x="175" y="-484.5" font-family="Helvetica,sans-Serif" font-size="10.00">+ append()</text>
<text text-anchor="start" x="175" y="-473.5" font-family="Helvetica,sans-Serif" font-size="10.00">+ show()</text>
<text text-anchor="start" x="175" y="-462.5" font-family="Helvetica,sans-Serif" font-size="10.00">+ validate()</text>
<text text-anchor="start" x="175" y="-451.5" font-family="Helvetica,sans-Serif" font-size="10.00">+ reserve()</text>
<text text-anchor="start" x="175" y="-440.5" font-family="Helvetica,sans-Serif" font-size="10.00">+ resize()</text>
</a>
</g>
<!-- Node6&#45;&gt;Node2 -->
<g id="edge10" class="edge"><title>Node6&#45;&gt;Node2</title>
<path fill="none" stroke="orange" stroke-dasharray="5,2" d="M182.067,-424.641C178.465,-411.674 174.783,-398.42 171.235,-385.645"/>
<polygon fill="orange" stroke="orange" points="178.754,-425.79 184.802,-434.489 185.498,-423.917 178.754,-425.79"/>
<text text-anchor="middle" x="196" y="-406.5" font-family="Helvetica,sans-Serif" font-size="10.00">&lt; Con &gt;</text>
</g>
<!-- Node7&#45;&gt;Node6 -->
<g id="edge12" class="edge"><title>Node7&#45;&gt;Node6</title>
<path fill="none" stroke="#9a32cd" stroke-dasharray="5,2" d="M230.752,-686.205C227.54,-662.456 223.301,-631.118 219.353,-601.934"/>
<polygon fill="#9a32cd" stroke="#9a32cd" points="232.107,-696.218 226.307,-686.911 231.436,-691.263 230.766,-686.308 230.766,-686.308 230.766,-686.308 231.436,-691.263 235.226,-685.705 232.107,-696.218 232.107,-696.218"/>
<text text-anchor="middle" x="239.5" y="-645.5" font-family="Helvetica,sans-Serif" font-size="10.00">ldata</text>
</g>
</g>
</svg>
