<?xml version="1.0" encoding="UTF-8" standalone="no"?>
<!DOCTYPE svg PUBLIC "-//W3C//DTD SVG 1.1//EN"
 "http://www.w3.org/Graphics/SVG/1.1/DTD/svg11.dtd">
<!-- Generated by graphviz version 2.28.0 (20110610.2051)
 -->
<!-- Title: G Pages: 1 -->
<svg width="521pt" height="254pt"
 viewBox="0.00 0.00 521.00 254.00" xmlns="http://www.w3.org/2000/svg" xmlns:xlink="http://www.w3.org/1999/xlink">
<g id="graph1" class="graph" transform="scale(1 1) rotate(0) translate(4 250)">
<title>G</title>
<polygon fill="white" stroke="white" points="-4,5 -4,-250 518,-250 518,5 -4,5"/>
<!-- Node1 -->
<g id="node1" class="node"><title>Node1</title>
<polygon fill="#bfbfbf" stroke="black" points="198.5,-188.5 198.5,-245.5 313.5,-245.5 313.5,-188.5 198.5,-188.5"/>
<text text-anchor="middle" x="256" y="-233.5" font-family="Helvetica,sans-Serif" font-size="10.00">TrainingBehavior</text>
<polyline fill="none" stroke="black" points="198.5,-226.5 313.5,-226.5 "/>
<text text-anchor="middle" x="256" y="-214.5" font-family="Helvetica,sans-Serif" font-size="10.00"> </text>
<polyline fill="none" stroke="black" points="198.5,-207.5 313.5,-207.5 "/>
<text text-anchor="start" x="206.5" y="-195.5" font-family="Helvetica,sans-Serif" font-size="10.00">+ adjustParameters()</text>
</g>
<!-- Node2 -->
<g id="node3" class="node"><title>Node2</title>
<a xlink:href="class_adapt_behavior.html" target="_top" xlink:title="class AdaptBehavior &#45;">
<polygon fill="white" stroke="black" points="132.5,-94.5 132.5,-151.5 247.5,-151.5 247.5,-94.5 132.5,-94.5"/>
<text text-anchor="middle" x="190" y="-139.5" font-family="Helvetica,sans-Serif" font-size="10.00">AdaptBehavior</text>
<polyline fill="none" stroke="black" points="132.5,-132.5 247.5,-132.5 "/>
<text text-anchor="middle" x="190" y="-120.5" font-family="Helvetica,sans-Serif" font-size="10.00"> </text>
<polyline fill="none" stroke="black" points="132.5,-113.5 247.5,-113.5 "/>
<text text-anchor="start" x="140.5" y="-101.5" font-family="Helvetica,sans-Serif" font-size="10.00">+ adjustParameters()</text>
</a>
</g>
<!-- Node1&#45;&gt;Node2 -->
<g id="edge2" class="edge"><title>Node1&#45;&gt;Node2</title>
<path fill="none" stroke="midnightblue" d="M230.344,-180.236C223.517,-170.72 216.248,-160.588 209.788,-151.584"/>
<polygon fill="none" stroke="midnightblue" points="227.525,-182.312 236.198,-188.397 233.213,-178.231 227.525,-182.312"/>
</g>
<!-- Node5 -->
<g id="node9" class="node"><title>Node5</title>
<a xlink:href="class_batch_behavior.html" target="_top" xlink:title="class BatchBehavior &#45;">
<polygon fill="white" stroke="black" points="265.5,-94.5 265.5,-151.5 380.5,-151.5 380.5,-94.5 265.5,-94.5"/>
<text text-anchor="middle" x="323" y="-139.5" font-family="Helvetica,sans-Serif" font-size="10.00">BatchBehavior</text>
<polyline fill="none" stroke="black" points="265.5,-132.5 380.5,-132.5 "/>
<text text-anchor="middle" x="323" y="-120.5" font-family="Helvetica,sans-Serif" font-size="10.00"> </text>
<polyline fill="none" stroke="black" points="265.5,-113.5 380.5,-113.5 "/>
<text text-anchor="start" x="273.5" y="-101.5" font-family="Helvetica,sans-Serif" font-size="10.00">+ adjustParameters()</text>
</a>
</g>
<!-- Node1&#45;&gt;Node5 -->
<g id="edge8" class="edge"><title>Node1&#45;&gt;Node5</title>
<path fill="none" stroke="midnightblue" d="M282.045,-180.236C288.976,-170.72 296.354,-160.588 302.912,-151.584"/>
<polygon fill="none" stroke="midnightblue" points="279.16,-178.253 276.102,-188.397 284.818,-182.374 279.16,-178.253"/>
</g>
<!-- Node3 -->
<g id="node5" class="node"><title>Node3</title>
<a xlink:href="class_a_d_a_p_tgd.html" target="_top" xlink:title="class ADAPTgd &#45;">
<polygon fill="white" stroke="black" points="-0.5,-0.5 -0.5,-57.5 114.5,-57.5 114.5,-0.5 -0.5,-0.5"/>
<text text-anchor="middle" x="57" y="-45.5" font-family="Helvetica,sans-Serif" font-size="10.00">ADAPTgd</text>
<polyline fill="none" stroke="black" points="-0.5,-38.5 114.5,-38.5 "/>
<text text-anchor="start" x="7.5" y="-26.5" font-family="Helvetica,sans-Serif" font-size="10.00">&#45; outputDerivative</text>
<polyline fill="none" stroke="black" points="-0.5,-19.5 114.5,-19.5 "/>
<text text-anchor="start" x="7.5" y="-7.5" font-family="Helvetica,sans-Serif" font-size="10.00">+ adjustParameters()</text>
</a>
</g>
<!-- Node2&#45;&gt;Node3 -->
<g id="edge4" class="edge"><title>Node2&#45;&gt;Node3</title>
<path fill="none" stroke="midnightblue" d="M141.615,-88.5304C126.919,-78.3649 110.945,-67.3156 96.8762,-57.5836"/>
<polygon fill="none" stroke="midnightblue" points="139.88,-91.5865 150.096,-94.397 143.863,-85.8296 139.88,-91.5865"/>
</g>
<!-- Node4 -->
<g id="node7" class="node"><title>Node4</title>
<a xlink:href="class_a_d_a_p_tgdwm.html" target="_top" xlink:title="class ADAPTgdwm &#45;">
<polygon fill="white" stroke="black" points="132.5,-0.5 132.5,-57.5 247.5,-57.5 247.5,-0.5 132.5,-0.5"/>
<text text-anchor="middle" x="190" y="-45.5" font-family="Helvetica,sans-Serif" font-size="10.00">ADAPTgdwm</text>
<polyline fill="none" stroke="black" points="132.5,-38.5 247.5,-38.5 "/>
<text text-anchor="start" x="140.5" y="-26.5" font-family="Helvetica,sans-Serif" font-size="10.00">&#45; outputDerivative</text>
<polyline fill="none" stroke="black" points="132.5,-19.5 247.5,-19.5 "/>
<text text-anchor="start" x="140.5" y="-7.5" font-family="Helvetica,sans-Serif" font-size="10.00">+ adjustParameters()</text>
</a>
</g>
<!-- Node2&#45;&gt;Node4 -->
<g id="edge6" class="edge"><title>Node2&#45;&gt;Node4</title>
<path fill="none" stroke="midnightblue" d="M190,-84.2092C190,-75.2929 190,-65.9513 190,-57.5836"/>
<polygon fill="none" stroke="midnightblue" points="186.5,-84.3969 190,-94.397 193.5,-84.397 186.5,-84.3969"/>
</g>
<!-- Node6 -->
<g id="node11" class="node"><title>Node6</title>
<a xlink:href="class_b_a_t_c_hgd.html" target="_top" xlink:title="class BATCHgd &#45;">
<polygon fill="white" stroke="black" points="265.5,-0.5 265.5,-57.5 380.5,-57.5 380.5,-0.5 265.5,-0.5"/>
<text text-anchor="middle" x="323" y="-45.5" font-family="Helvetica,sans-Serif" font-size="10.00">BATCHgd</text>
<polyline fill="none" stroke="black" points="265.5,-38.5 380.5,-38.5 "/>
<text text-anchor="start" x="273.5" y="-26.5" font-family="Helvetica,sans-Serif" font-size="10.00">&#45; outputDerivative</text>
<polyline fill="none" stroke="black" points="265.5,-19.5 380.5,-19.5 "/>
<text text-anchor="start" x="273.5" y="-7.5" font-family="Helvetica,sans-Serif" font-size="10.00">+ adjustParameters()</text>
</a>
</g>
<!-- Node5&#45;&gt;Node6 -->
<g id="edge10" class="edge"><title>Node5&#45;&gt;Node6</title>
<path fill="none" stroke="midnightblue" d="M323,-84.2092C323,-75.2929 323,-65.9513 323,-57.5836"/>
<polygon fill="none" stroke="midnightblue" points="319.5,-84.3969 323,-94.397 326.5,-84.397 319.5,-84.3969"/>
</g>
<!-- Node7 -->
<g id="node13" class="node"><title>Node7</title>
<a xlink:href="class_b_a_t_c_hgdwm.html" target="_top" xlink:title="class BATCHgdwm &#45;">
<polygon fill="white" stroke="black" points="398.5,-0.5 398.5,-57.5 513.5,-57.5 513.5,-0.5 398.5,-0.5"/>
<text text-anchor="middle" x="456" y="-45.5" font-family="Helvetica,sans-Serif" font-size="10.00">BATCHgdwm</text>
<polyline fill="none" stroke="black" points="398.5,-38.5 513.5,-38.5 "/>
<text text-anchor="start" x="406.5" y="-26.5" font-family="Helvetica,sans-Serif" font-size="10.00">&#45; outputDerivative</text>
<polyline fill="none" stroke="black" points="398.5,-19.5 513.5,-19.5 "/>
<text text-anchor="start" x="406.5" y="-7.5" font-family="Helvetica,sans-Serif" font-size="10.00">+ adjustParameters()</text>
</a>
</g>
<!-- Node5&#45;&gt;Node7 -->
<g id="edge12" class="edge"><title>Node5&#45;&gt;Node7</title>
<path fill="none" stroke="midnightblue" d="M371.385,-88.5304C386.081,-78.3649 402.055,-67.3156 416.124,-57.5836"/>
<polygon fill="none" stroke="midnightblue" points="369.137,-85.8296 362.904,-94.397 373.12,-91.5865 369.137,-85.8296"/>
</g>
</g>
</svg>
