<?xml version="1.0" encoding="UTF-8" standalone="no"?>
<!DOCTYPE svg PUBLIC "-//W3C//DTD SVG 1.1//EN"
 "http://www.w3.org/Graphics/SVG/1.1/DTD/svg11.dtd">
<!-- Generated by graphviz version 2.25.20091207.0545 (20091207.0545)
 -->
<!-- Title: G Pages: 1 -->
<svg width="530pt" height="104pt"
 viewBox="0.00 0.00 530.00 104.00" xmlns="http://www.w3.org/2000/svg" xmlns:xlink="http://www.w3.org/1999/xlink">
<g id="graph1" class="graph" transform="scale(1 1) rotate(0) translate(4 100)">
<title>G</title>
<polygon fill="white" stroke="white" points="-4,5 -4,-100 527,-100 527,5 -4,5"/>
<!-- Node1 -->
<g id="node1" class="node"><title>Node1</title>
<polygon fill="#bfbfbf" stroke="black" points="0,-38.5 0,-57.5 90,-57.5 90,-38.5 0,-38.5"/>
<text text-anchor="middle" x="45" y="-44.5" font-family="Helvetica,sans-Serif" font-size="10.00">Neuron::getFrom</text>
</g>
<!-- Node2 -->
<g id="node3" class="node"><title>Node2</title>
<a xlink:href="class_vec_con.html#ad9dc02872d29a1a58f5079457c3f8001" target="_top" xlink:title="Getter of the from field of the Con objects related to VecCon.">
<polygon fill="white" stroke="black" points="126.5,-38.5 126.5,-57.5 219.5,-57.5 219.5,-38.5 126.5,-38.5"/>
<text text-anchor="middle" x="173" y="-44.5" font-family="Helvetica,sans-Serif" font-size="10.00">VecCon::getFrom</text>
</a>
</g>
<!-- Node1&#45;&gt;Node2 -->
<g id="edge2" class="edge"><title>Node1&#45;&gt;Node2</title>
<path fill="none" stroke="midnightblue" d="M90.128,-48C98.5088,-48 107.364,-48 116.044,-48"/>
<polygon fill="midnightblue" stroke="midnightblue" points="116.114,-51.5001 126.114,-48 116.114,-44.5001 116.114,-51.5001"/>
</g>
<!-- Node3 -->
<g id="node5" class="node"><title>Node3</title>
<a xlink:href="class_vec_con.html#aa9a397520b07fbeead0b6d252c1ea882" target="_top" xlink:title="Size of the VecCon object.">
<polygon fill="white" stroke="black" points="257,-76.5 257,-95.5 367,-95.5 367,-76.5 257,-76.5"/>
<text text-anchor="middle" x="312" y="-82.5" font-family="Helvetica,sans-Serif" font-size="10.00">VecCon::numOfCons</text>
</a>
</g>
<!-- Node2&#45;&gt;Node3 -->
<g id="edge4" class="edge"><title>Node2&#45;&gt;Node3</title>
<path fill="none" stroke="midnightblue" d="M208.076,-57.589C226.019,-62.4944 248.058,-68.5196 267.217,-73.7571"/>
<polygon fill="midnightblue" stroke="midnightblue" points="266.367,-77.1531 276.936,-76.4141 268.213,-70.4008 266.367,-77.1531"/>
</g>
<!-- Node5 -->
<g id="node9" class="node"><title>Node5</title>
<a xlink:href="class_container.html#afd87c69cb799ed7b434c29090083a285" target="_top" xlink:title="Append a shared_ptr at the end of collection.">
<polygon fill="white" stroke="black" points="256.5,-38.5 256.5,-57.5 367.5,-57.5 367.5,-38.5 256.5,-38.5"/>
<text text-anchor="middle" x="312" y="-44.5" font-family="Helvetica,sans-Serif" font-size="10.00">Container::push_back</text>
</a>
</g>
<!-- Node2&#45;&gt;Node5 -->
<g id="edge8" class="edge"><title>Node2&#45;&gt;Node5</title>
<path fill="none" stroke="midnightblue" d="M219.672,-48C228.061,-48 236.95,-48 245.769,-48"/>
<polygon fill="midnightblue" stroke="midnightblue" points="246.055,-51.5001 256.055,-48 246.055,-44.5001 246.055,-51.5001"/>
</g>
<!-- Node6 -->
<g id="node11" class="node"><title>Node6</title>
<a xlink:href="class_container.html#aa3cbae68ebeed649c52eb3805a30fb75" target="_top" xlink:title="Container::reserve">
<polygon fill="white" stroke="black" points="264,-0.5 264,-19.5 360,-19.5 360,-0.5 264,-0.5"/>
<text text-anchor="middle" x="312" y="-6.5" font-family="Helvetica,sans-Serif" font-size="10.00">Container::reserve</text>
</a>
</g>
<!-- Node2&#45;&gt;Node6 -->
<g id="edge10" class="edge"><title>Node2&#45;&gt;Node6</title>
<path fill="none" stroke="midnightblue" d="M208.076,-38.411C226.019,-33.5056 248.058,-27.4804 267.217,-22.2429"/>
<polygon fill="midnightblue" stroke="midnightblue" points="268.213,-25.5992 276.936,-19.5859 266.367,-18.8469 268.213,-25.5992"/>
</g>
<!-- Node4 -->
<g id="node7" class="node"><title>Node4</title>
<a xlink:href="class_container.html#a842c3d9eca81b78b59112fde9707b091" target="_top" xlink:title="Container\&lt; Con \&gt;::size">
<polygon fill="white" stroke="black" points="404,-76.5 404,-95.5 522,-95.5 522,-76.5 404,-76.5"/>
<text text-anchor="middle" x="463" y="-82.5" font-family="Helvetica,sans-Serif" font-size="10.00">Container&lt; Con &gt;::size</text>
</a>
</g>
<!-- Node3&#45;&gt;Node4 -->
<g id="edge6" class="edge"><title>Node3&#45;&gt;Node4</title>
<path fill="none" stroke="midnightblue" d="M367.369,-86C375.9,-86 384.8,-86 393.589,-86"/>
<polygon fill="midnightblue" stroke="midnightblue" points="393.827,-89.5001 403.827,-86 393.827,-82.5001 393.827,-89.5001"/>
</g>
</g>
</svg>
