<?xml version="1.0" encoding="UTF-8" standalone="no"?>
<!DOCTYPE svg PUBLIC "-//W3C//DTD SVG 1.1//EN"
 "http://www.w3.org/Graphics/SVG/1.1/DTD/svg11.dtd">
<!-- Generated by graphviz version 2.28.0 (20110610.2051)
 -->
<!-- Title: G Pages: 1 -->
<svg width="589pt" height="1872pt"
 viewBox="0.00 0.00 589.00 1872.00" xmlns="http://www.w3.org/2000/svg" xmlns:xlink="http://www.w3.org/1999/xlink">
<g id="graph1" class="graph" transform="scale(1 1) rotate(0) translate(4 1868)">
<title>G</title>
<polygon fill="white" stroke="white" points="-4,5 -4,-1868 586,-1868 586,5 -4,5"/>
<!-- Node1 -->
<g id="node1" class="node"><title>Node1</title>
<polygon fill="#bfbfbf" stroke="black" points="178,-0.5 178,-79.5 248,-79.5 248,-0.5 178,-0.5"/>
<text text-anchor="middle" x="213" y="-67.5" font-family="Helvetica,sans-Serif" font-size="10.00">RBFneuron</text>
<polyline fill="none" stroke="black" points="178,-60.5 248,-60.5 "/>
<text text-anchor="start" x="186" y="-48.5" font-family="Helvetica,sans-Serif" font-size="10.00"># width</text>
<text text-anchor="start" x="186" y="-37.5" font-family="Helvetica,sans-Serif" font-size="10.00"># altitude</text>
<polyline fill="none" stroke="black" points="178,-30.5 248,-30.5 "/>
<text text-anchor="start" x="186" y="-18.5" font-family="Helvetica,sans-Serif" font-size="10.00">+ show()</text>
<text text-anchor="start" x="186" y="-7.5" font-family="Helvetica,sans-Serif" font-size="10.00">+ validate()</text>
</g>
<!-- Node2 -->
<g id="node2" class="node"><title>Node2</title>
<a xlink:href="class_neuron.html" target="_top" xlink:title="class Neuron &#45;">
<polygon fill="white" stroke="black" points="169,-118.5 169,-395.5 257,-395.5 257,-118.5 169,-118.5"/>
<text text-anchor="middle" x="213" y="-383.5" font-family="Helvetica,sans-Serif" font-size="10.00">Neuron</text>
<polyline fill="none" stroke="black" points="169,-376.5 257,-376.5 "/>
<text text-anchor="start" x="177" y="-364.5" font-family="Helvetica,sans-Serif" font-size="10.00"># d_Id</text>
<text text-anchor="start" x="177" y="-353.5" font-family="Helvetica,sans-Serif" font-size="10.00">&#45; Id</text>
<text text-anchor="start" x="177" y="-342.5" font-family="Helvetica,sans-Serif" font-size="10.00">&#45; con</text>
<text text-anchor="start" x="177" y="-331.5" font-family="Helvetica,sans-Serif" font-size="10.00">&#45; outputValue</text>
<polyline fill="none" stroke="black" points="169,-324.5 257,-324.5 "/>
<text text-anchor="start" x="177" y="-312.5" font-family="Helvetica,sans-Serif" font-size="10.00">+ Neuron()</text>
<text text-anchor="start" x="177" y="-301.5" font-family="Helvetica,sans-Serif" font-size="10.00">+ Neuron()</text>
<text text-anchor="start" x="177" y="-290.5" font-family="Helvetica,sans-Serif" font-size="10.00">+ Id()</text>
<text text-anchor="start" x="177" y="-279.5" font-family="Helvetica,sans-Serif" font-size="10.00">+ show()</text>
<text text-anchor="start" x="177" y="-268.5" font-family="Helvetica,sans-Serif" font-size="10.00">+ validate()</text>
<text text-anchor="start" x="177" y="-257.5" font-family="Helvetica,sans-Serif" font-size="10.00">+ Neuron()</text>
<text text-anchor="start" x="177" y="-246.5" font-family="Helvetica,sans-Serif" font-size="10.00">+ Neuron()</text>
<text text-anchor="start" x="177" y="-235.5" font-family="Helvetica,sans-Serif" font-size="10.00">+ Neuron()</text>
<text text-anchor="start" x="177" y="-224.5" font-family="Helvetica,sans-Serif" font-size="10.00">+ ~Neuron()</text>
<text text-anchor="start" x="177" y="-213.5" font-family="Helvetica,sans-Serif" font-size="10.00">+ getId()</text>
<text text-anchor="start" x="177" y="-202.5" font-family="Helvetica,sans-Serif" font-size="10.00">+ setId()</text>
<text text-anchor="start" x="177" y="-191.5" font-family="Helvetica,sans-Serif" font-size="10.00">+ getConId()</text>
<text text-anchor="start" x="177" y="-180.5" font-family="Helvetica,sans-Serif" font-size="10.00">+ getWeight()</text>
<text text-anchor="start" x="177" y="-169.5" font-family="Helvetica,sans-Serif" font-size="10.00">+ setFrom()</text>
<text text-anchor="start" x="177" y="-158.5" font-family="Helvetica,sans-Serif" font-size="10.00">+ setWeight()</text>
<text text-anchor="start" x="177" y="-147.5" font-family="Helvetica,sans-Serif" font-size="10.00">+ numOfCons()</text>
<text text-anchor="start" x="177" y="-136.5" font-family="Helvetica,sans-Serif" font-size="10.00">+ show()</text>
<text text-anchor="start" x="177" y="-125.5" font-family="Helvetica,sans-Serif" font-size="10.00">+ validate()</text>
</a>
</g>
<!-- Node2&#45;&gt;Node1 -->
<g id="edge2" class="edge"><title>Node2&#45;&gt;Node1</title>
<path fill="none" stroke="midnightblue" d="M213,-108.011C213,-97.877 213,-88.3051 213,-79.7375"/>
<polygon fill="none" stroke="midnightblue" points="209.5,-108.316 213,-118.316 216.5,-108.316 209.5,-108.316"/>
</g>
<!-- Node3 -->
<g id="node4" class="node"><title>Node3</title>
<a xlink:href="class_container.html" target="_top" xlink:title="{Container\&lt; Con \&gt;\n|# collection\l# collection\l|+ Container()\l+ Container()\l+ Container()\l+ ~Container()\l+ createIterator()\l+ push_back()\l+ push_back()\l+ reserve()\l+ reserve()\l+ empty()\l+ empty()\l+ size()\l+ size()\l+ clear()\l+ clear()\l+ show()\l+ show()\l+ validate()\l+ validate()\l+ begin()\l+ end()\l+ load()\l+ store()\l+ append()\l+ resize()\l+ operator[]()\l}">
<polygon fill="white" stroke="black" points="164.5,-444.5 164.5,-787.5 261.5,-787.5 261.5,-444.5 164.5,-444.5"/>
<text text-anchor="middle" x="213" y="-775.5" font-family="Helvetica,sans-Serif" font-size="10.00">Container&lt; Con &gt;</text>
<polyline fill="none" stroke="black" points="164.5,-768.5 261.5,-768.5 "/>
<text text-anchor="start" x="172.5" y="-756.5" font-family="Helvetica,sans-Serif" font-size="10.00"># collection</text>
<text text-anchor="start" x="172.5" y="-745.5" font-family="Helvetica,sans-Serif" font-size="10.00"># collection</text>
<polyline fill="none" stroke="black" points="164.5,-738.5 261.5,-738.5 "/>
<text text-anchor="start" x="172.5" y="-726.5" font-family="Helvetica,sans-Serif" font-size="10.00">+ Container()</text>
<text text-anchor="start" x="172.5" y="-715.5" font-family="Helvetica,sans-Serif" font-size="10.00">+ Container()</text>
<text text-anchor="start" x="172.5" y="-704.5" font-family="Helvetica,sans-Serif" font-size="10.00">+ Container()</text>
<text text-anchor="start" x="172.5" y="-693.5" font-family="Helvetica,sans-Serif" font-size="10.00">+ ~Container()</text>
<text text-anchor="start" x="172.5" y="-682.5" font-family="Helvetica,sans-Serif" font-size="10.00">+ createIterator()</text>
<text text-anchor="start" x="172.5" y="-671.5" font-family="Helvetica,sans-Serif" font-size="10.00">+ push_back()</text>
<text text-anchor="start" x="172.5" y="-660.5" font-family="Helvetica,sans-Serif" font-size="10.00">+ push_back()</text>
<text text-anchor="start" x="172.5" y="-649.5" font-family="Helvetica,sans-Serif" font-size="10.00">+ reserve()</text>
<text text-anchor="start" x="172.5" y="-638.5" font-family="Helvetica,sans-Serif" font-size="10.00">+ reserve()</text>
<text text-anchor="start" x="172.5" y="-627.5" font-family="Helvetica,sans-Serif" font-size="10.00">+ empty()</text>
<text text-anchor="start" x="172.5" y="-616.5" font-family="Helvetica,sans-Serif" font-size="10.00">+ empty()</text>
<text text-anchor="start" x="172.5" y="-605.5" font-family="Helvetica,sans-Serif" font-size="10.00">+ size()</text>
<text text-anchor="start" x="172.5" y="-594.5" font-family="Helvetica,sans-Serif" font-size="10.00">+ size()</text>
<text text-anchor="start" x="172.5" y="-583.5" font-family="Helvetica,sans-Serif" font-size="10.00">+ clear()</text>
<text text-anchor="start" x="172.5" y="-572.5" font-family="Helvetica,sans-Serif" font-size="10.00">+ clear()</text>
<text text-anchor="start" x="172.5" y="-561.5" font-family="Helvetica,sans-Serif" font-size="10.00">+ show()</text>
<text text-anchor="start" x="172.5" y="-550.5" font-family="Helvetica,sans-Serif" font-size="10.00">+ show()</text>
<text text-anchor="start" x="172.5" y="-539.5" font-family="Helvetica,sans-Serif" font-size="10.00">+ validate()</text>
<text text-anchor="start" x="172.5" y="-528.5" font-family="Helvetica,sans-Serif" font-size="10.00">+ validate()</text>
<text text-anchor="start" x="172.5" y="-517.5" font-family="Helvetica,sans-Serif" font-size="10.00">+ begin()</text>
<text text-anchor="start" x="172.5" y="-506.5" font-family="Helvetica,sans-Serif" font-size="10.00">+ end()</text>
<text text-anchor="start" x="172.5" y="-495.5" font-family="Helvetica,sans-Serif" font-size="10.00">+ load()</text>
<text text-anchor="start" x="172.5" y="-484.5" font-family="Helvetica,sans-Serif" font-size="10.00">+ store()</text>
<text text-anchor="start" x="172.5" y="-473.5" font-family="Helvetica,sans-Serif" font-size="10.00">+ append()</text>
<text text-anchor="start" x="172.5" y="-462.5" font-family="Helvetica,sans-Serif" font-size="10.00">+ resize()</text>
<text text-anchor="start" x="172.5" y="-451.5" font-family="Helvetica,sans-Serif" font-size="10.00">+ operator[]()</text>
</a>
</g>
<!-- Node3&#45;&gt;Node2 -->
<g id="edge4" class="edge"><title>Node3&#45;&gt;Node2</title>
<path fill="none" stroke="#9a32cd" stroke-dasharray="5,2" d="M213,-434.012C213,-421.13 213,-408.265 213,-395.685"/>
<polygon fill="#9a32cd" stroke="#9a32cd" points="213,-444.342 208.5,-434.342 213,-439.342 213,-434.342 213,-434.342 213,-434.342 213,-439.342 217.5,-434.342 213,-444.342 213,-444.342"/>
<text text-anchor="middle" x="221.5" y="-417.5" font-family="Helvetica,sans-Serif" font-size="10.00">con</text>
</g>
<!-- Node4 -->
<g id="node6" class="node"><title>Node4</title>
<a xlink:href="class_container_interface.html" target="_top" xlink:title="class ContainerInterface &#45;">
<polygon fill="white" stroke="black" points="3.5,-930 3.5,-1086 140.5,-1086 140.5,-930 3.5,-930"/>
<text text-anchor="middle" x="72" y="-1074" font-family="Helvetica,sans-Serif" font-size="10.00">ContainerInterface&lt; Con &gt;</text>
<polyline fill="none" stroke="black" points="3.5,-1067 140.5,-1067 "/>
<text text-anchor="middle" x="72" y="-1055" font-family="Helvetica,sans-Serif" font-size="10.00"> </text>
<polyline fill="none" stroke="black" points="3.5,-1048 140.5,-1048 "/>
<text text-anchor="start" x="11.5" y="-1036" font-family="Helvetica,sans-Serif" font-size="10.00">+ ~ContainerInterface()</text>
<text text-anchor="start" x="11.5" y="-1025" font-family="Helvetica,sans-Serif" font-size="10.00">+ createIterator()</text>
<text text-anchor="start" x="11.5" y="-1014" font-family="Helvetica,sans-Serif" font-size="10.00">+ push_back()</text>
<text text-anchor="start" x="11.5" y="-1003" font-family="Helvetica,sans-Serif" font-size="10.00">+ reserve()</text>
<text text-anchor="start" x="11.5" y="-992" font-family="Helvetica,sans-Serif" font-size="10.00">+ empty()</text>
<text text-anchor="start" x="11.5" y="-981" font-family="Helvetica,sans-Serif" font-size="10.00">+ size()</text>
<text text-anchor="start" x="11.5" y="-970" font-family="Helvetica,sans-Serif" font-size="10.00">+ clear()</text>
<text text-anchor="start" x="11.5" y="-959" font-family="Helvetica,sans-Serif" font-size="10.00">+ show()</text>
<text text-anchor="start" x="11.5" y="-948" font-family="Helvetica,sans-Serif" font-size="10.00">+ validate()</text>
<text text-anchor="start" x="11.5" y="-937" font-family="Helvetica,sans-Serif" font-size="10.00"># ContainerInterface()</text>
</a>
</g>
<!-- Node4&#45;&gt;Node3 -->
<g id="edge6" class="edge"><title>Node4&#45;&gt;Node3</title>
<path fill="none" stroke="midnightblue" d="M103.269,-920.511C121.249,-870.781 144.222,-807.236 164.498,-751.154"/>
<polygon fill="none" stroke="midnightblue" points="99.9656,-919.354 99.8571,-929.949 106.549,-921.734 99.9656,-919.354"/>
</g>
<!-- Node5 -->
<g id="node8" class="node"><title>Node5</title>
<polygon fill="white" stroke="#bfbfbf" points="380,-1198.5 380,-1255.5 580,-1255.5 580,-1198.5 380,-1198.5"/>
<text text-anchor="middle" x="480" y="-1243.5" font-family="Helvetica,sans-Serif" font-size="10.00">std::vector&lt; boost::shared_ptr&lt; Con &gt; &gt;</text>
<polyline fill="none" stroke="#bfbfbf" points="380,-1236.5 580,-1236.5 "/>
<text text-anchor="start" x="388" y="-1224.5" font-family="Helvetica,sans-Serif" font-size="10.00">&#45; elements</text>
<polyline fill="none" stroke="#bfbfbf" points="380,-1217.5 580,-1217.5 "/>
<text text-anchor="middle" x="480" y="-1205.5" font-family="Helvetica,sans-Serif" font-size="10.00"> </text>
</g>
<!-- Node5&#45;&gt;Node3 -->
<g id="edge8" class="edge"><title>Node5&#45;&gt;Node3</title>
<path fill="none" stroke="#9a32cd" stroke-dasharray="5,2" d="M470.019,-1188.46C450.574,-1117.7 404.362,-960.498 346,-836 321.926,-784.647 288.842,-730.123 261.693,-688.325"/>
<polygon fill="#9a32cd" stroke="#9a32cd" points="472.692,-1198.26 465.719,-1189.8 471.376,-1193.44 470.06,-1188.61 470.06,-1188.61 470.06,-1188.61 471.376,-1193.44 474.402,-1187.43 472.692,-1198.26 472.692,-1198.26"/>
<text text-anchor="middle" x="489.5" y="-1005.5" font-family="Helvetica,sans-Serif" font-size="10.00">collection</text>
</g>
<!-- Node6 -->
<g id="node10" class="node"><title>Node6</title>
<a xlink:title="STL class.">
<polygon fill="white" stroke="#bfbfbf" points="169.5,-1590.5 169.5,-1647.5 258.5,-1647.5 258.5,-1590.5 169.5,-1590.5"/>
<text text-anchor="middle" x="214" y="-1635.5" font-family="Helvetica,sans-Serif" font-size="10.00">std::vector&lt; T &gt;</text>
<polyline fill="none" stroke="#bfbfbf" points="169.5,-1628.5 258.5,-1628.5 "/>
<text text-anchor="start" x="177.5" y="-1616.5" font-family="Helvetica,sans-Serif" font-size="10.00">&#45; elements</text>
<polyline fill="none" stroke="#bfbfbf" points="169.5,-1609.5 258.5,-1609.5 "/>
<text text-anchor="middle" x="214" y="-1597.5" font-family="Helvetica,sans-Serif" font-size="10.00"> </text>
</a>
</g>
<!-- Node6&#45;&gt;Node5 -->
<g id="edge10" class="edge"><title>Node6&#45;&gt;Node5</title>
<path fill="none" stroke="orange" stroke-dasharray="5,2" d="M267.612,-1594.01C325.902,-1564.81 416.537,-1509.6 460,-1432 491.476,-1375.8 488.441,-1297.09 483.961,-1255.8"/>
<polygon fill="orange" stroke="orange" points="265.972,-1590.92 258.547,-1598.47 269.064,-1597.2 265.972,-1590.92"/>
<text text-anchor="middle" x="514" y="-1453.5" font-family="Helvetica,sans-Serif" font-size="10.00">&lt; boost::shared_ptr&lt; Con &gt; &gt;</text>
</g>
<!-- Node8 -->
<g id="node14" class="node"><title>Node8</title>
<polygon fill="white" stroke="#bfbfbf" points="0,-1324.5 0,-1381.5 102,-1381.5 102,-1324.5 0,-1324.5"/>
<text text-anchor="middle" x="51" y="-1369.5" font-family="Helvetica,sans-Serif" font-size="10.00">std::vector&lt; Con &gt;</text>
<polyline fill="none" stroke="#bfbfbf" points="0,-1362.5 102,-1362.5 "/>
<text text-anchor="start" x="8" y="-1350.5" font-family="Helvetica,sans-Serif" font-size="10.00">&#45; elements</text>
<polyline fill="none" stroke="#bfbfbf" points="0,-1343.5 102,-1343.5 "/>
<text text-anchor="middle" x="51" y="-1331.5" font-family="Helvetica,sans-Serif" font-size="10.00"> </text>
</g>
<!-- Node6&#45;&gt;Node8 -->
<g id="edge18" class="edge"><title>Node6&#45;&gt;Node8</title>
<path fill="none" stroke="orange" stroke-dasharray="5,2" d="M191.427,-1581.44C158.434,-1528 97.7547,-1429.73 68.1508,-1381.78"/>
<polygon fill="orange" stroke="orange" points="188.633,-1583.58 196.864,-1590.25 194.589,-1579.9 188.633,-1583.58"/>
<text text-anchor="middle" x="132" y="-1453.5" font-family="Helvetica,sans-Serif" font-size="10.00">&lt; Con &gt;</text>
</g>
<!-- Node12 -->
<g id="node23" class="node"><title>Node12</title>
<polygon fill="white" stroke="#bfbfbf" points="120,-1324.5 120,-1381.5 308,-1381.5 308,-1324.5 120,-1324.5"/>
<text text-anchor="middle" x="214" y="-1369.5" font-family="Helvetica,sans-Serif" font-size="10.00">std::vector&lt; boost::shared_ptr&lt; T &gt; &gt;</text>
<polyline fill="none" stroke="#bfbfbf" points="120,-1362.5 308,-1362.5 "/>
<text text-anchor="start" x="128" y="-1350.5" font-family="Helvetica,sans-Serif" font-size="10.00">&#45; elements</text>
<polyline fill="none" stroke="#bfbfbf" points="120,-1343.5 308,-1343.5 "/>
<text text-anchor="middle" x="214" y="-1331.5" font-family="Helvetica,sans-Serif" font-size="10.00"> </text>
</g>
<!-- Node6&#45;&gt;Node12 -->
<g id="edge26" class="edge"><title>Node6&#45;&gt;Node12</title>
<path fill="none" stroke="orange" stroke-dasharray="5,2" d="M214,-1580.11C214,-1526.38 214,-1429.33 214,-1381.78"/>
<polygon fill="orange" stroke="orange" points="210.5,-1580.25 214,-1590.25 217.5,-1580.25 210.5,-1580.25"/>
<text text-anchor="middle" x="274.5" y="-1453.5" font-family="Helvetica,sans-Serif" font-size="10.00">&lt; boost::shared_ptr&lt; T &gt; &gt;</text>
</g>
<!-- Node7 -->
<g id="node12" class="node"><title>Node7</title>
<polygon fill="white" stroke="#bfbfbf" points="199.5,-1806.5 199.5,-1863.5 228.5,-1863.5 228.5,-1806.5 199.5,-1806.5"/>
<text text-anchor="middle" x="214" y="-1851.5" font-family="Helvetica,sans-Serif" font-size="10.00">T</text>
<polyline fill="none" stroke="#bfbfbf" points="199.5,-1844.5 228.5,-1844.5 "/>
<text text-anchor="middle" x="214" y="-1832.5" font-family="Helvetica,sans-Serif" font-size="10.00"> </text>
<polyline fill="none" stroke="#bfbfbf" points="199.5,-1825.5 228.5,-1825.5 "/>
<text text-anchor="middle" x="214" y="-1813.5" font-family="Helvetica,sans-Serif" font-size="10.00"> </text>
</g>
<!-- Node7&#45;&gt;Node6 -->
<g id="edge12" class="edge"><title>Node7&#45;&gt;Node6</title>
<path fill="none" stroke="#9a32cd" stroke-dasharray="5,2" d="M214,-1796.24C214,-1753.73 214,-1685.67 214,-1647.77"/>
<polygon fill="#9a32cd" stroke="#9a32cd" points="214,-1806.46 209.5,-1796.46 214,-1801.46 214,-1796.46 214,-1796.46 214,-1796.46 214,-1801.46 218.5,-1796.46 214,-1806.46 214,-1806.46"/>
<text text-anchor="middle" x="235.5" y="-1779.5" font-family="Helvetica,sans-Serif" font-size="10.00">elements</text>
</g>
<!-- Node8&#45;&gt;Node3 -->
<g id="edge14" class="edge"><title>Node8&#45;&gt;Node3</title>
<path fill="none" stroke="#9a32cd" stroke-dasharray="5,2" d="M77.3932,-1315.96C100.42,-1282.51 132.632,-1230.41 149,-1180 196.503,-1033.7 169.488,-988.819 187,-836 188.798,-820.309 190.692,-803.989 192.603,-787.649"/>
<polygon fill="#9a32cd" stroke="#9a32cd" points="71.458,-1324.47 73.4889,-1313.69 74.3188,-1320.37 77.1796,-1316.27 77.1796,-1316.27 77.1796,-1316.27 74.3188,-1320.37 80.8702,-1318.84 71.458,-1324.47 71.458,-1324.47"/>
<text text-anchor="middle" x="209.5" y="-1005.5" font-family="Helvetica,sans-Serif" font-size="10.00">collection</text>
</g>
<!-- Node9 -->
<g id="node16" class="node"><title>Node9</title>
<a xlink:href="class_con.html" target="_top" xlink:title="class Con &#45;">
<polygon fill="white" stroke="black" points="9.5,-1480.5 9.5,-1757.5 92.5,-1757.5 92.5,-1480.5 9.5,-1480.5"/>
<text text-anchor="middle" x="51" y="-1745.5" font-family="Helvetica,sans-Serif" font-size="10.00">Con</text>
<polyline fill="none" stroke="black" points="9.5,-1738.5 92.5,-1738.5 "/>
<text text-anchor="start" x="17.5" y="-1726.5" font-family="Helvetica,sans-Serif" font-size="10.00"># d_neuron</text>
<text text-anchor="start" x="17.5" y="-1715.5" font-family="Helvetica,sans-Serif" font-size="10.00"># d_weight</text>
<text text-anchor="start" x="17.5" y="-1704.5" font-family="Helvetica,sans-Serif" font-size="10.00">&#45; from</text>
<text text-anchor="start" x="17.5" y="-1693.5" font-family="Helvetica,sans-Serif" font-size="10.00">&#45; weight</text>
<polyline fill="none" stroke="black" points="9.5,-1686.5 92.5,-1686.5 "/>
<text text-anchor="start" x="17.5" y="-1674.5" font-family="Helvetica,sans-Serif" font-size="10.00">+ Con()</text>
<text text-anchor="start" x="17.5" y="-1663.5" font-family="Helvetica,sans-Serif" font-size="10.00">+ Con()</text>
<text text-anchor="start" x="17.5" y="-1652.5" font-family="Helvetica,sans-Serif" font-size="10.00">+ neuron()</text>
<text text-anchor="start" x="17.5" y="-1641.5" font-family="Helvetica,sans-Serif" font-size="10.00">+ Id()</text>
<text text-anchor="start" x="17.5" y="-1630.5" font-family="Helvetica,sans-Serif" font-size="10.00">+ weight()</text>
<text text-anchor="start" x="17.5" y="-1619.5" font-family="Helvetica,sans-Serif" font-size="10.00">+ show()</text>
<text text-anchor="start" x="17.5" y="-1608.5" font-family="Helvetica,sans-Serif" font-size="10.00">+ validate()</text>
<text text-anchor="start" x="17.5" y="-1597.5" font-family="Helvetica,sans-Serif" font-size="10.00">+ Con()</text>
<text text-anchor="start" x="17.5" y="-1586.5" font-family="Helvetica,sans-Serif" font-size="10.00">+ Con()</text>
<text text-anchor="start" x="17.5" y="-1575.5" font-family="Helvetica,sans-Serif" font-size="10.00">+ Con()</text>
<text text-anchor="start" x="17.5" y="-1564.5" font-family="Helvetica,sans-Serif" font-size="10.00">+ ~Con()</text>
<text text-anchor="start" x="17.5" y="-1553.5" font-family="Helvetica,sans-Serif" font-size="10.00">+ getFrom()</text>
<text text-anchor="start" x="17.5" y="-1542.5" font-family="Helvetica,sans-Serif" font-size="10.00">+ setFrom()</text>
<text text-anchor="start" x="17.5" y="-1531.5" font-family="Helvetica,sans-Serif" font-size="10.00">+ getId()</text>
<text text-anchor="start" x="17.5" y="-1520.5" font-family="Helvetica,sans-Serif" font-size="10.00">+ getWeight()</text>
<text text-anchor="start" x="17.5" y="-1509.5" font-family="Helvetica,sans-Serif" font-size="10.00">+ setWeight()</text>
<text text-anchor="start" x="17.5" y="-1498.5" font-family="Helvetica,sans-Serif" font-size="10.00">+ show()</text>
<text text-anchor="start" x="17.5" y="-1487.5" font-family="Helvetica,sans-Serif" font-size="10.00">+ validate()</text>
</a>
</g>
<!-- Node9&#45;&gt;Node8 -->
<g id="edge16" class="edge"><title>Node9&#45;&gt;Node8</title>
<path fill="none" stroke="#9a32cd" stroke-dasharray="5,2" d="M51,-1470.12C51,-1436.17 51,-1403.65 51,-1381.7"/>
<polygon fill="#9a32cd" stroke="#9a32cd" points="51,-1480.2 46.5001,-1470.2 51,-1475.2 51.0001,-1470.2 51.0001,-1470.2 51.0001,-1470.2 51,-1475.2 55.5001,-1470.2 51,-1480.2 51,-1480.2"/>
<text text-anchor="middle" x="72.5" y="-1453.5" font-family="Helvetica,sans-Serif" font-size="10.00">elements</text>
</g>
<!-- Node10 -->
<g id="node19" class="node"><title>Node10</title>
<a xlink:href="class_container.html" target="_top" xlink:title="class Container &#45;">
<polygon fill="white" stroke="black" points="240.5,-836.5 240.5,-1179.5 337.5,-1179.5 337.5,-836.5 240.5,-836.5"/>
<text text-anchor="middle" x="289" y="-1167.5" font-family="Helvetica,sans-Serif" font-size="10.00">Container&lt; T &gt;</text>
<polyline fill="none" stroke="black" points="240.5,-1160.5 337.5,-1160.5 "/>
<text text-anchor="start" x="248.5" y="-1148.5" font-family="Helvetica,sans-Serif" font-size="10.00"># collection</text>
<text text-anchor="start" x="248.5" y="-1137.5" font-family="Helvetica,sans-Serif" font-size="10.00"># collection</text>
<polyline fill="none" stroke="black" points="240.5,-1130.5 337.5,-1130.5 "/>
<text text-anchor="start" x="248.5" y="-1118.5" font-family="Helvetica,sans-Serif" font-size="10.00">+ Container()</text>
<text text-anchor="start" x="248.5" y="-1107.5" font-family="Helvetica,sans-Serif" font-size="10.00">+ ~Container()</text>
<text text-anchor="start" x="248.5" y="-1096.5" font-family="Helvetica,sans-Serif" font-size="10.00">+ createIterator()</text>
<text text-anchor="start" x="248.5" y="-1085.5" font-family="Helvetica,sans-Serif" font-size="10.00">+ push_back()</text>
<text text-anchor="start" x="248.5" y="-1074.5" font-family="Helvetica,sans-Serif" font-size="10.00">+ reserve()</text>
<text text-anchor="start" x="248.5" y="-1063.5" font-family="Helvetica,sans-Serif" font-size="10.00">+ empty()</text>
<text text-anchor="start" x="248.5" y="-1052.5" font-family="Helvetica,sans-Serif" font-size="10.00">+ size()</text>
<text text-anchor="start" x="248.5" y="-1041.5" font-family="Helvetica,sans-Serif" font-size="10.00">+ clear()</text>
<text text-anchor="start" x="248.5" y="-1030.5" font-family="Helvetica,sans-Serif" font-size="10.00">+ show()</text>
<text text-anchor="start" x="248.5" y="-1019.5" font-family="Helvetica,sans-Serif" font-size="10.00">+ validate()</text>
<text text-anchor="start" x="248.5" y="-1008.5" font-family="Helvetica,sans-Serif" font-size="10.00">+ Container()</text>
<text text-anchor="start" x="248.5" y="-997.5" font-family="Helvetica,sans-Serif" font-size="10.00">+ Container()</text>
<text text-anchor="start" x="248.5" y="-986.5" font-family="Helvetica,sans-Serif" font-size="10.00">+ begin()</text>
<text text-anchor="start" x="248.5" y="-975.5" font-family="Helvetica,sans-Serif" font-size="10.00">+ end()</text>
<text text-anchor="start" x="248.5" y="-964.5" font-family="Helvetica,sans-Serif" font-size="10.00">+ load()</text>
<text text-anchor="start" x="248.5" y="-953.5" font-family="Helvetica,sans-Serif" font-size="10.00">+ store()</text>
<text text-anchor="start" x="248.5" y="-942.5" font-family="Helvetica,sans-Serif" font-size="10.00">+ size()</text>
<text text-anchor="start" x="248.5" y="-931.5" font-family="Helvetica,sans-Serif" font-size="10.00">+ push_back()</text>
<text text-anchor="start" x="248.5" y="-920.5" font-family="Helvetica,sans-Serif" font-size="10.00">+ append()</text>
<text text-anchor="start" x="248.5" y="-909.5" font-family="Helvetica,sans-Serif" font-size="10.00">+ show()</text>
<text text-anchor="start" x="248.5" y="-898.5" font-family="Helvetica,sans-Serif" font-size="10.00">+ validate()</text>
<text text-anchor="start" x="248.5" y="-887.5" font-family="Helvetica,sans-Serif" font-size="10.00">+ reserve()</text>
<text text-anchor="start" x="248.5" y="-876.5" font-family="Helvetica,sans-Serif" font-size="10.00">+ resize()</text>
<text text-anchor="start" x="248.5" y="-865.5" font-family="Helvetica,sans-Serif" font-size="10.00">+ empty()</text>
<text text-anchor="start" x="248.5" y="-854.5" font-family="Helvetica,sans-Serif" font-size="10.00">+ clear()</text>
<text text-anchor="start" x="248.5" y="-843.5" font-family="Helvetica,sans-Serif" font-size="10.00">+ operator[]()</text>
</a>
</g>
<!-- Node10&#45;&gt;Node3 -->
<g id="edge20" class="edge"><title>Node10&#45;&gt;Node3</title>
<path fill="none" stroke="orange" stroke-dasharray="5,2" d="M253.807,-826.403C251.299,-813.533 248.774,-800.579 246.278,-787.767"/>
<polygon fill="orange" stroke="orange" points="250.372,-827.078 255.721,-836.224 257.243,-825.739 250.372,-827.078"/>
<text text-anchor="middle" x="269" y="-809.5" font-family="Helvetica,sans-Serif" font-size="10.00">&lt; Con &gt;</text>
</g>
<!-- Node11 -->
<g id="node21" class="node"><title>Node11</title>
<a xlink:href="class_container_interface.html" target="_top" xlink:title="class ContainerInterface &#45;">
<polygon fill="white" stroke="black" points="326.5,-1275 326.5,-1431 451.5,-1431 451.5,-1275 326.5,-1275"/>
<text text-anchor="middle" x="389" y="-1419" font-family="Helvetica,sans-Serif" font-size="10.00">ContainerInterface&lt; T &gt;</text>
<polyline fill="none" stroke="black" points="326.5,-1412 451.5,-1412 "/>
<text text-anchor="middle" x="389" y="-1400" font-family="Helvetica,sans-Serif" font-size="10.00"> </text>
<polyline fill="none" stroke="black" points="326.5,-1393 451.5,-1393 "/>
<text text-anchor="start" x="334.5" y="-1381" font-family="Helvetica,sans-Serif" font-size="10.00">+ ~ContainerInterface()</text>
<text text-anchor="start" x="334.5" y="-1370" font-family="Helvetica,sans-Serif" font-size="10.00">+ createIterator()</text>
<text text-anchor="start" x="334.5" y="-1359" font-family="Helvetica,sans-Serif" font-size="10.00">+ push_back()</text>
<text text-anchor="start" x="334.5" y="-1348" font-family="Helvetica,sans-Serif" font-size="10.00">+ reserve()</text>
<text text-anchor="start" x="334.5" y="-1337" font-family="Helvetica,sans-Serif" font-size="10.00">+ empty()</text>
<text text-anchor="start" x="334.5" y="-1326" font-family="Helvetica,sans-Serif" font-size="10.00">+ size()</text>
<text text-anchor="start" x="334.5" y="-1315" font-family="Helvetica,sans-Serif" font-size="10.00">+ clear()</text>
<text text-anchor="start" x="334.5" y="-1304" font-family="Helvetica,sans-Serif" font-size="10.00">+ show()</text>
<text text-anchor="start" x="334.5" y="-1293" font-family="Helvetica,sans-Serif" font-size="10.00">+ validate()</text>
<text text-anchor="start" x="334.5" y="-1282" font-family="Helvetica,sans-Serif" font-size="10.00"># ContainerInterface()</text>
</a>
</g>
<!-- Node11&#45;&gt;Node10 -->
<g id="edge22" class="edge"><title>Node11&#45;&gt;Node10</title>
<path fill="none" stroke="midnightblue" d="M363.553,-1264.72C355.594,-1237.42 346.532,-1206.33 337.532,-1175.46"/>
<polygon fill="none" stroke="midnightblue" points="360.274,-1265.98 366.433,-1274.6 366.994,-1264.02 360.274,-1265.98"/>
</g>
<!-- Node12&#45;&gt;Node10 -->
<g id="edge24" class="edge"><title>Node12&#45;&gt;Node10</title>
<path fill="none" stroke="#9a32cd" stroke-dasharray="5,2" d="M222.287,-1314.1C229.53,-1280.98 240.589,-1230.4 251.632,-1179.9"/>
<polygon fill="#9a32cd" stroke="#9a32cd" points="220.074,-1324.22 217.814,-1313.49 221.142,-1319.34 222.21,-1314.45 222.21,-1314.45 222.21,-1314.45 221.142,-1319.34 226.606,-1315.41 220.074,-1324.22 220.074,-1324.22"/>
<text text-anchor="middle" x="269.5" y="-1224.5" font-family="Helvetica,sans-Serif" font-size="10.00">collection</text>
</g>
</g>
</svg>
