<?xml version="1.0" encoding="UTF-8" standalone="no"?>
<!DOCTYPE svg PUBLIC "-//W3C//DTD SVG 1.1//EN"
 "http://www.w3.org/Graphics/SVG/1.1/DTD/svg11.dtd">
<!-- Generated by graphviz version 2.25.20091207.0545 (20091207.0545)
 -->
<!-- Title: G Pages: 1 -->
<svg width="568pt" height="28pt"
 viewBox="0.00 0.00 568.00 28.00" xmlns="http://www.w3.org/2000/svg" xmlns:xlink="http://www.w3.org/1999/xlink">
<g id="graph1" class="graph" transform="scale(1 1) rotate(0) translate(4 24)">
<title>G</title>
<polygon fill="white" stroke="white" points="-4,5 -4,-24 565,-24 565,5 -4,5"/>
<!-- Node1 -->
<g id="node1" class="node"><title>Node1</title>
<polygon fill="#bfbfbf" stroke="black" points="0.5,-0.5 0.5,-19.5 93.5,-19.5 93.5,-0.5 0.5,-0.5"/>
<text text-anchor="middle" x="47" y="-6.5" font-family="Helvetica,sans-Serif" font-size="10.00">Neuron::getConId</text>
</g>
<!-- Node2 -->
<g id="node3" class="node"><title>Node2</title>
<a xlink:href="class_con_container.html#a387ac09ab154d21c5ad597d32b32dbc2" target="_top" xlink:title="Getter of the Id values of the vector of Cons.">
<polygon fill="white" stroke="black" points="130,-0.5 130,-19.5 234,-19.5 234,-0.5 130,-0.5"/>
<text text-anchor="middle" x="182" y="-6.5" font-family="Helvetica,sans-Serif" font-size="10.00">ConContainer::getId</text>
</a>
</g>
<!-- Node1&#45;&gt;Node2 -->
<g id="edge2" class="edge"><title>Node1&#45;&gt;Node2</title>
<path fill="none" stroke="midnightblue" d="M93.8376,-10C102.157,-10 110.941,-10 119.611,-10"/>
<polygon fill="midnightblue" stroke="midnightblue" points="119.703,-13.5001 129.703,-10 119.703,-6.5001 119.703,-13.5001"/>
</g>
<!-- Node3 -->
<g id="node5" class="node"><title>Node3</title>
<a xlink:href="class_con_container.html#a8895e2c10e223e9950028f595588b9fe" target="_top" xlink:title="Size of the ConContainer object.">
<polygon fill="white" stroke="black" points="270.5,-0.5 270.5,-19.5 405.5,-19.5 405.5,-0.5 270.5,-0.5"/>
<text text-anchor="middle" x="338" y="-6.5" font-family="Helvetica,sans-Serif" font-size="10.00">ConContainer::numOfCons</text>
</a>
</g>
<!-- Node2&#45;&gt;Node3 -->
<g id="edge4" class="edge"><title>Node2&#45;&gt;Node3</title>
<path fill="none" stroke="midnightblue" d="M234.38,-10C242.65,-10 251.353,-10 260.055,-10"/>
<polygon fill="midnightblue" stroke="midnightblue" points="260.244,-13.5001 270.244,-10 260.244,-6.5001 260.244,-13.5001"/>
</g>
<!-- Node4 -->
<g id="node7" class="node"><title>Node4</title>
<a xlink:href="class_container.html#a842c3d9eca81b78b59112fde9707b091" target="_top" xlink:title="Container\&lt; Con \&gt;::size">
<polygon fill="white" stroke="black" points="442,-0.5 442,-19.5 560,-19.5 560,-0.5 442,-0.5"/>
<text text-anchor="middle" x="501" y="-6.5" font-family="Helvetica,sans-Serif" font-size="10.00">Container&lt; Con &gt;::size</text>
</a>
</g>
<!-- Node3&#45;&gt;Node4 -->
<g id="edge6" class="edge"><title>Node3&#45;&gt;Node4</title>
<path fill="none" stroke="midnightblue" d="M405.711,-10C414.324,-10 423.148,-10 431.784,-10"/>
<polygon fill="midnightblue" stroke="midnightblue" points="431.812,-13.5001 441.812,-10 431.812,-6.5001 431.812,-13.5001"/>
</g>
</g>
</svg>
