<?xml version="1.0" encoding="UTF-8" standalone="no"?>
<!DOCTYPE svg PUBLIC "-//W3C//DTD SVG 1.1//EN"
 "http://www.w3.org/Graphics/SVG/1.1/DTD/svg11.dtd">
<!-- Generated by graphviz version 2.25.20091207.0545 (20091207.0545)
 -->
<!-- Title: G Pages: 1 -->
<svg width="383pt" height="1070pt"
 viewBox="0.00 0.00 383.00 1070.00" xmlns="http://www.w3.org/2000/svg" xmlns:xlink="http://www.w3.org/1999/xlink">
<g id="graph1" class="graph" transform="scale(1 1) rotate(0) translate(4 1066)">
<title>G</title>
<polygon fill="white" stroke="white" points="-4,5 -4,-1066 380,-1066 380,5 -4,5"/>
<!-- Node1 -->
<g id="node1" class="node"><title>Node1</title>
<polygon fill="#bfbfbf" stroke="black" points="120.5,-0.5 120.5,-57.5 201.5,-57.5 201.5,-0.5 120.5,-0.5"/>
<text text-anchor="middle" x="161" y="-44.5" font-family="Helvetica,sans-Serif" font-size="10.00">MLPNeuralNet</text>
<polyline fill="none" stroke="black" points="120.5,-38.5 201.5,-38.5 "/>
<text text-anchor="start" x="128.5" y="-25.5" font-family="Helvetica,sans-Serif" font-size="10.00">&#45; nLayers</text>
<polyline fill="none" stroke="black" points="120.5,-19.5 201.5,-19.5 "/>
<text text-anchor="middle" x="161" y="-6.5" font-family="Helvetica,sans-Serif" font-size="10.00"> </text>
</g>
<!-- Node2 -->
<g id="node2" class="node"><title>Node2</title>
<a xlink:href="class_m_l_player_container.html" target="_top" xlink:title="{MLPlayerContainer\n||}">
<polygon fill="white" stroke="black" points="111.5,-106.5 111.5,-163.5 210.5,-163.5 210.5,-106.5 111.5,-106.5"/>
<text text-anchor="middle" x="161" y="-150.5" font-family="Helvetica,sans-Serif" font-size="10.00">MLPlayerContainer</text>
<polyline fill="none" stroke="black" points="111.5,-144.5 210.5,-144.5 "/>
<text text-anchor="middle" x="161" y="-131.5" font-family="Helvetica,sans-Serif" font-size="10.00"> </text>
<polyline fill="none" stroke="black" points="111.5,-125.5 210.5,-125.5 "/>
<text text-anchor="middle" x="161" y="-112.5" font-family="Helvetica,sans-Serif" font-size="10.00"> </text>
</a>
</g>
<!-- Node2&#45;&gt;Node1 -->
<g id="edge2" class="edge"><title>Node2&#45;&gt;Node1</title>
<path fill="none" stroke="#9a32cd" stroke-dasharray="5,2" d="M161,-96.0053C161,-83.3258 161,-69.4943 161,-57.7081"/>
<polygon fill="#9a32cd" stroke="#9a32cd" points="161,-106.315 156.5,-96.3148 161,-101.315 161,-96.3149 161,-96.3149 161,-96.3149 161,-101.315 165.5,-96.3149 161,-106.315 161,-106.315"/>
<text text-anchor="middle" x="178.5" y="-78.5" font-family="Helvetica,sans-Serif" font-size="10.00">nLayers</text>
</g>
<!-- Node3 -->
<g id="node4" class="node"><title>Node3</title>
<a xlink:href="class_container.html" target="_top" xlink:title="{Container\&lt; MLPlayer \&gt;\n|# collection\l|+ Container()\l+ Container()\l+ begin()\l+ end()\l+ load()\l+ store()\l+ size()\l+ push_back()\l+ append()\l+ show()\l+ validate()\l+ reserve()\l+ resize()\l+ empty()\l+ clear()\l+ operator[]()\l}">
<polygon fill="white" stroke="black" points="102.5,-203 102.5,-425 219.5,-425 219.5,-203 102.5,-203"/>
<text text-anchor="middle" x="161" y="-412" font-family="Helvetica,sans-Serif" font-size="10.00">Container&lt; MLPlayer &gt;</text>
<polyline fill="none" stroke="black" points="102.5,-406 219.5,-406 "/>
<text text-anchor="start" x="110.5" y="-393" font-family="Helvetica,sans-Serif" font-size="10.00"># collection</text>
<polyline fill="none" stroke="black" points="102.5,-387 219.5,-387 "/>
<text text-anchor="start" x="110.5" y="-374" font-family="Helvetica,sans-Serif" font-size="10.00">+ Container()</text>
<text text-anchor="start" x="110.5" y="-363" font-family="Helvetica,sans-Serif" font-size="10.00">+ Container()</text>
<text text-anchor="start" x="110.5" y="-352" font-family="Helvetica,sans-Serif" font-size="10.00">+ begin()</text>
<text text-anchor="start" x="110.5" y="-341" font-family="Helvetica,sans-Serif" font-size="10.00">+ end()</text>
<text text-anchor="start" x="110.5" y="-330" font-family="Helvetica,sans-Serif" font-size="10.00">+ load()</text>
<text text-anchor="start" x="110.5" y="-319" font-family="Helvetica,sans-Serif" font-size="10.00">+ store()</text>
<text text-anchor="start" x="110.5" y="-308" font-family="Helvetica,sans-Serif" font-size="10.00">+ size()</text>
<text text-anchor="start" x="110.5" y="-297" font-family="Helvetica,sans-Serif" font-size="10.00">+ push_back()</text>
<text text-anchor="start" x="110.5" y="-286" font-family="Helvetica,sans-Serif" font-size="10.00">+ append()</text>
<text text-anchor="start" x="110.5" y="-275" font-family="Helvetica,sans-Serif" font-size="10.00">+ show()</text>
<text text-anchor="start" x="110.5" y="-264" font-family="Helvetica,sans-Serif" font-size="10.00">+ validate()</text>
<text text-anchor="start" x="110.5" y="-253" font-family="Helvetica,sans-Serif" font-size="10.00">+ reserve()</text>
<text text-anchor="start" x="110.5" y="-242" font-family="Helvetica,sans-Serif" font-size="10.00">+ resize()</text>
<text text-anchor="start" x="110.5" y="-231" font-family="Helvetica,sans-Serif" font-size="10.00">+ empty()</text>
<text text-anchor="start" x="110.5" y="-220" font-family="Helvetica,sans-Serif" font-size="10.00">+ clear()</text>
<text text-anchor="start" x="110.5" y="-209" font-family="Helvetica,sans-Serif" font-size="10.00">+ operator[]()</text>
</a>
</g>
<!-- Node3&#45;&gt;Node2 -->
<g id="edge4" class="edge"><title>Node3&#45;&gt;Node2</title>
<path fill="none" stroke="midnightblue" d="M161,-192.624C161,-182.071 161,-172.198 161,-163.709"/>
<polygon fill="none" stroke="midnightblue" points="157.5,-192.927 161,-202.927 164.5,-192.927 157.5,-192.927"/>
</g>
<!-- Node4 -->
<g id="node6" class="node"><title>Node4</title>
<polygon fill="white" stroke="#bfbfbf" points="0,-716.5 0,-773.5 216,-773.5 216,-716.5 0,-716.5"/>
<text text-anchor="middle" x="108" y="-760.5" font-family="Helvetica,sans-Serif" font-size="10.00">std::vector&lt; boost::shared_ptr&lt; MLPlayer &gt; &gt;</text>
<polyline fill="none" stroke="#bfbfbf" points="0,-754.5 216,-754.5 "/>
<text text-anchor="start" x="8" y="-741.5" font-family="Helvetica,sans-Serif" font-size="10.00">&#45; elements</text>
<polyline fill="none" stroke="#bfbfbf" points="0,-735.5 216,-735.5 "/>
<text text-anchor="middle" x="108" y="-722.5" font-family="Helvetica,sans-Serif" font-size="10.00"> </text>
</g>
<!-- Node4&#45;&gt;Node3 -->
<g id="edge6" class="edge"><title>Node4&#45;&gt;Node3</title>
<path fill="none" stroke="#9a32cd" stroke-dasharray="5,2" d="M112.777,-706.153C120.49,-643.426 135.97,-517.547 147.318,-425.262"/>
<polygon fill="#9a32cd" stroke="#9a32cd" points="111.519,-716.387 108.273,-705.913 112.129,-711.424 112.739,-706.462 112.739,-706.462 112.739,-706.462 112.129,-711.424 117.205,-707.011 111.519,-716.387 111.519,-716.387"/>
<text text-anchor="middle" x="162.5" y="-582.5" font-family="Helvetica,sans-Serif" font-size="10.00">collection</text>
</g>
<!-- Node5 -->
<g id="node8" class="node"><title>Node5</title>
<a xlink:title="STL class.">
<polygon fill="white" stroke="#bfbfbf" points="141.5,-898.5 141.5,-955.5 228.5,-955.5 228.5,-898.5 141.5,-898.5"/>
<text text-anchor="middle" x="185" y="-942.5" font-family="Helvetica,sans-Serif" font-size="10.00">std::vector&lt; T &gt;</text>
<polyline fill="none" stroke="#bfbfbf" points="141.5,-936.5 228.5,-936.5 "/>
<text text-anchor="start" x="149.5" y="-923.5" font-family="Helvetica,sans-Serif" font-size="10.00">&#45; elements</text>
<polyline fill="none" stroke="#bfbfbf" points="141.5,-917.5 228.5,-917.5 "/>
<text text-anchor="middle" x="185" y="-904.5" font-family="Helvetica,sans-Serif" font-size="10.00"> </text>
</a>
</g>
<!-- Node5&#45;&gt;Node4 -->
<g id="edge8" class="edge"><title>Node5&#45;&gt;Node4</title>
<path fill="none" stroke="orange" stroke-dasharray="5,2" d="M132.041,-911.411C117.142,-904.313 102.655,-894.211 94,-880 74.2673,-847.599 84.8919,-802.557 95.4948,-773.589"/>
<polygon fill="orange" stroke="orange" points="130.756,-914.669 141.322,-915.452 133.55,-908.251 130.756,-914.669"/>
<text text-anchor="middle" x="170.5" y="-870.5" font-family="Helvetica,sans-Serif" font-size="10.00">&lt; boost::shared_ptr&lt; MLPlayer &gt; &gt;</text>
</g>
<!-- Node8 -->
<g id="node14" class="node"><title>Node8</title>
<polygon fill="white" stroke="#bfbfbf" points="177,-792.5 177,-849.5 357,-849.5 357,-792.5 177,-792.5"/>
<text text-anchor="middle" x="267" y="-836.5" font-family="Helvetica,sans-Serif" font-size="10.00">std::vector&lt; boost::shared_ptr&lt; T &gt; &gt;</text>
<polyline fill="none" stroke="#bfbfbf" points="177,-830.5 357,-830.5 "/>
<text text-anchor="start" x="185" y="-817.5" font-family="Helvetica,sans-Serif" font-size="10.00">&#45; elements</text>
<polyline fill="none" stroke="#bfbfbf" points="177,-811.5 357,-811.5 "/>
<text text-anchor="middle" x="267" y="-798.5" font-family="Helvetica,sans-Serif" font-size="10.00"> </text>
</g>
<!-- Node5&#45;&gt;Node8 -->
<g id="edge16" class="edge"><title>Node5&#45;&gt;Node8</title>
<path fill="none" stroke="orange" stroke-dasharray="5,2" d="M236.712,-895.808C242.069,-891.021 247.003,-885.739 251,-880 257.187,-871.117 260.984,-859.946 263.313,-849.721"/>
<polygon fill="orange" stroke="orange" points="234.122,-893.407 228.623,-902.463 238.569,-898.813 234.122,-893.407"/>
<text text-anchor="middle" x="316" y="-870.5" font-family="Helvetica,sans-Serif" font-size="10.00">&lt; boost::shared_ptr&lt; T &gt; &gt;</text>
</g>
<!-- Node6 -->
<g id="node10" class="node"><title>Node6</title>
<polygon fill="white" stroke="#bfbfbf" points="170.5,-1004.5 170.5,-1061.5 199.5,-1061.5 199.5,-1004.5 170.5,-1004.5"/>
<text text-anchor="middle" x="185" y="-1048.5" font-family="Helvetica,sans-Serif" font-size="10.00">T</text>
<polyline fill="none" stroke="#bfbfbf" points="170.5,-1042.5 199.5,-1042.5 "/>
<text text-anchor="middle" x="185" y="-1029.5" font-family="Helvetica,sans-Serif" font-size="10.00"> </text>
<polyline fill="none" stroke="#bfbfbf" points="170.5,-1023.5 199.5,-1023.5 "/>
<text text-anchor="middle" x="185" y="-1010.5" font-family="Helvetica,sans-Serif" font-size="10.00"> </text>
</g>
<!-- Node6&#45;&gt;Node5 -->
<g id="edge10" class="edge"><title>Node6&#45;&gt;Node5</title>
<path fill="none" stroke="#9a32cd" stroke-dasharray="5,2" d="M185,-994.005C185,-981.326 185,-967.494 185,-955.708"/>
<polygon fill="#9a32cd" stroke="#9a32cd" points="185,-1004.31 180.5,-994.315 185,-999.315 185,-994.315 185,-994.315 185,-994.315 185,-999.315 189.5,-994.315 185,-1004.31 185,-1004.31"/>
<text text-anchor="middle" x="205" y="-976.5" font-family="Helvetica,sans-Serif" font-size="10.00">elements</text>
</g>
<!-- Node7 -->
<g id="node12" class="node"><title>Node7</title>
<a xlink:href="class_container.html" target="_top" xlink:title="{Container\&lt; T \&gt;\n|# collection\l|+ Container()\l+ Container()\l+ begin()\l+ end()\l+ load()\l+ store()\l+ size()\l+ push_back()\l+ append()\l+ show()\l+ validate()\l+ reserve()\l+ resize()\l+ empty()\l+ clear()\l+ operator[]()\l}">
<polygon fill="white" stroke="black" points="194,-475 194,-697 276,-697 276,-475 194,-475"/>
<text text-anchor="middle" x="235" y="-684" font-family="Helvetica,sans-Serif" font-size="10.00">Container&lt; T &gt;</text>
<polyline fill="none" stroke="black" points="194,-678 276,-678 "/>
<text text-anchor="start" x="202" y="-665" font-family="Helvetica,sans-Serif" font-size="10.00"># collection</text>
<polyline fill="none" stroke="black" points="194,-659 276,-659 "/>
<text text-anchor="start" x="202" y="-646" font-family="Helvetica,sans-Serif" font-size="10.00">+ Container()</text>
<text text-anchor="start" x="202" y="-635" font-family="Helvetica,sans-Serif" font-size="10.00">+ Container()</text>
<text text-anchor="start" x="202" y="-624" font-family="Helvetica,sans-Serif" font-size="10.00">+ begin()</text>
<text text-anchor="start" x="202" y="-613" font-family="Helvetica,sans-Serif" font-size="10.00">+ end()</text>
<text text-anchor="start" x="202" y="-602" font-family="Helvetica,sans-Serif" font-size="10.00">+ load()</text>
<text text-anchor="start" x="202" y="-591" font-family="Helvetica,sans-Serif" font-size="10.00">+ store()</text>
<text text-anchor="start" x="202" y="-580" font-family="Helvetica,sans-Serif" font-size="10.00">+ size()</text>
<text text-anchor="start" x="202" y="-569" font-family="Helvetica,sans-Serif" font-size="10.00">+ push_back()</text>
<text text-anchor="start" x="202" y="-558" font-family="Helvetica,sans-Serif" font-size="10.00">+ append()</text>
<text text-anchor="start" x="202" y="-547" font-family="Helvetica,sans-Serif" font-size="10.00">+ show()</text>
<text text-anchor="start" x="202" y="-536" font-family="Helvetica,sans-Serif" font-size="10.00">+ validate()</text>
<text text-anchor="start" x="202" y="-525" font-family="Helvetica,sans-Serif" font-size="10.00">+ reserve()</text>
<text text-anchor="start" x="202" y="-514" font-family="Helvetica,sans-Serif" font-size="10.00">+ resize()</text>
<text text-anchor="start" x="202" y="-503" font-family="Helvetica,sans-Serif" font-size="10.00">+ empty()</text>
<text text-anchor="start" x="202" y="-492" font-family="Helvetica,sans-Serif" font-size="10.00">+ clear()</text>
<text text-anchor="start" x="202" y="-481" font-family="Helvetica,sans-Serif" font-size="10.00">+ operator[]()</text>
</a>
</g>
<!-- Node7&#45;&gt;Node3 -->
<g id="edge12" class="edge"><title>Node7&#45;&gt;Node3</title>
<path fill="none" stroke="orange" stroke-dasharray="5,2" d="M202.158,-465.285C198.522,-451.918 194.831,-438.351 191.229,-425.111"/>
<polygon fill="orange" stroke="orange" points="198.792,-466.244 204.795,-474.975 205.547,-464.407 198.792,-466.244"/>
<text text-anchor="middle" x="227.5" y="-446.5" font-family="Helvetica,sans-Serif" font-size="10.00">&lt; MLPlayer &gt;</text>
</g>
<!-- Node8&#45;&gt;Node7 -->
<g id="edge14" class="edge"><title>Node8&#45;&gt;Node7</title>
<path fill="none" stroke="#9a32cd" stroke-dasharray="5,2" d="M261.692,-782.017C258.51,-758.654 254.289,-727.655 250.145,-697.22"/>
<polygon fill="#9a32cd" stroke="#9a32cd" points="263.076,-792.184 257.268,-782.883 262.402,-787.23 261.727,-782.276 261.727,-782.276 261.727,-782.276 262.402,-787.23 266.186,-781.669 263.076,-792.184 263.076,-792.184"/>
<text text-anchor="middle" x="280.5" y="-741.5" font-family="Helvetica,sans-Serif" font-size="10.00">collection</text>
</g>
</g>
</svg>
