<?xml version="1.0" encoding="UTF-8" standalone="no"?>
<!DOCTYPE svg PUBLIC "-//W3C//DTD SVG 1.1//EN"
 "http://www.w3.org/Graphics/SVG/1.1/DTD/svg11.dtd">
<!-- Generated by graphviz version 2.25.20091207.0545 (20091207.0545)
 -->
<!-- Title: G Pages: 1 -->
<svg width="438pt" height="104pt"
 viewBox="0.00 0.00 438.00 104.00" xmlns="http://www.w3.org/2000/svg" xmlns:xlink="http://www.w3.org/1999/xlink">
<g id="graph1" class="graph" transform="scale(1 1) rotate(0) translate(4 100)">
<title>G</title>
<polygon fill="white" stroke="white" points="-4,5 -4,-100 435,-100 435,5 -4,5"/>
<!-- Node1 -->
<g id="node1" class="node"><title>Node1</title>
<polygon fill="#bfbfbf" stroke="black" points="0,-38.5 0,-57.5 126,-57.5 126,-38.5 0,-38.5"/>
<text text-anchor="middle" x="63" y="-44.5" font-family="Helvetica,sans-Serif" font-size="10.00">ConContainer::setWeight</text>
</g>
<!-- Node2 -->
<g id="node3" class="node"><title>Node2</title>
<a xlink:href="class_con_container.html#a7fb490683bd4733cae3c6428bad9328c" target="_top" xlink:title="Selects the specified elements from the vecCom object.">
<polygon fill="white" stroke="black" points="162,-38.5 162,-57.5 270,-57.5 270,-38.5 162,-38.5"/>
<text text-anchor="middle" x="216" y="-44.5" font-family="Helvetica,sans-Serif" font-size="10.00">ConContainer::select</text>
</a>
</g>
<!-- Node1&#45;&gt;Node2 -->
<g id="edge2" class="edge"><title>Node1&#45;&gt;Node2</title>
<path fill="none" stroke="midnightblue" d="M126.114,-48C134.541,-48 143.192,-48 151.64,-48"/>
<polygon fill="midnightblue" stroke="midnightblue" points="151.816,-51.5001 161.816,-48 151.816,-44.5001 151.816,-51.5001"/>
</g>
<!-- Node3 -->
<g id="node5" class="node"><title>Node3</title>
<a xlink:href="class_container.html#ac5e2a75311f6e6a690ca67603490ddb1" target="_top" xlink:title="Container\&lt; Con \&gt;::begin">
<polygon fill="white" stroke="black" points="306.5,-76.5 306.5,-95.5 429.5,-95.5 429.5,-76.5 306.5,-76.5"/>
<text text-anchor="middle" x="368" y="-82.5" font-family="Helvetica,sans-Serif" font-size="10.00">Container&lt; Con &gt;::begin</text>
</a>
</g>
<!-- Node2&#45;&gt;Node3 -->
<g id="edge4" class="edge"><title>Node2&#45;&gt;Node3</title>
<path fill="none" stroke="midnightblue" d="M254.356,-57.589C274.324,-62.5809 298.93,-68.7324 320.133,-74.0334"/>
<polygon fill="midnightblue" stroke="midnightblue" points="319.369,-77.45 329.92,-76.4799 321.067,-70.659 319.369,-77.45"/>
</g>
<!-- Node4 -->
<g id="node7" class="node"><title>Node4</title>
<a xlink:href="class_container.html#a266eabe62963d6909d3aca7f105e203e" target="_top" xlink:title="Container\&lt; Con \&gt;::end">
<polygon fill="white" stroke="black" points="310,-38.5 310,-57.5 426,-57.5 426,-38.5 310,-38.5"/>
<text text-anchor="middle" x="368" y="-44.5" font-family="Helvetica,sans-Serif" font-size="10.00">Container&lt; Con &gt;::end</text>
</a>
</g>
<!-- Node2&#45;&gt;Node4 -->
<g id="edge6" class="edge"><title>Node2&#45;&gt;Node4</title>
<path fill="none" stroke="midnightblue" d="M270.017,-48C279.581,-48 289.652,-48 299.55,-48"/>
<polygon fill="midnightblue" stroke="midnightblue" points="299.774,-51.5001 309.774,-48 299.774,-44.5001 299.774,-51.5001"/>
</g>
<!-- Node5 -->
<g id="node9" class="node"><title>Node5</title>
<a xlink:href="class_container.html#a842c3d9eca81b78b59112fde9707b091" target="_top" xlink:title="Container\&lt; Con \&gt;::size">
<polygon fill="white" stroke="black" points="309,-0.5 309,-19.5 427,-19.5 427,-0.5 309,-0.5"/>
<text text-anchor="middle" x="368" y="-6.5" font-family="Helvetica,sans-Serif" font-size="10.00">Container&lt; Con &gt;::size</text>
</a>
</g>
<!-- Node2&#45;&gt;Node5 -->
<g id="edge8" class="edge"><title>Node2&#45;&gt;Node5</title>
<path fill="none" stroke="midnightblue" d="M254.356,-38.411C274.324,-33.4191 298.93,-27.2676 320.133,-21.9666"/>
<polygon fill="midnightblue" stroke="midnightblue" points="321.067,-25.341 329.92,-19.5201 319.369,-18.55 321.067,-25.341"/>
</g>
</g>
</svg>
