<?xml version="1.0" encoding="UTF-8" standalone="no"?>
<!DOCTYPE svg PUBLIC "-//W3C//DTD SVG 1.1//EN"
 "http://www.w3.org/Graphics/SVG/1.1/DTD/svg11.dtd">
<!-- Generated by graphviz version 2.25.20091207.0545 (20091207.0545)
 -->
<!-- Title: G Pages: 1 -->
<svg width="380pt" height="104pt"
 viewBox="0.00 0.00 380.00 104.00" xmlns="http://www.w3.org/2000/svg" xmlns:xlink="http://www.w3.org/1999/xlink">
<g id="graph1" class="graph" transform="scale(1 1) rotate(0) translate(4 100)">
<title>G</title>
<polygon fill="white" stroke="white" points="-4,5 -4,-100 377,-100 377,5 -4,5"/>
<!-- Node1 -->
<g id="node1" class="node"><title>Node1</title>
<polygon fill="#bfbfbf" stroke="black" points="0,-38.5 0,-57.5 82,-57.5 82,-38.5 0,-38.5"/>
<text text-anchor="middle" x="41" y="-44.5" font-family="Helvetica,sans-Serif" font-size="10.00">Container::size</text>
</g>
<!-- Node2 -->
<g id="node3" class="node"><title>Node2</title>
<a xlink:href="class_container.html#ae763eb37b721d401327c97016fb2fa54" target="_top" xlink:title="Appends a Container&lt;T&gt; object.">
<polygon fill="white" stroke="black" points="134,-76.5 134,-95.5 230,-95.5 230,-76.5 134,-76.5"/>
<text text-anchor="middle" x="182" y="-82.5" font-family="Helvetica,sans-Serif" font-size="10.00">Container::append</text>
</a>
</g>
<!-- Node1&#45;&gt;Node2 -->
<g id="edge2" class="edge"><title>Node1&#45;&gt;Node2</title>
<path fill="none" stroke="midnightblue" d="M86.4398,-60.2462C105.875,-65.484 128.231,-71.5091 146.431,-76.4141"/>
<polygon fill="midnightblue" stroke="midnightblue" points="87.1465,-56.8118 76.5803,-57.589 85.325,-63.5707 87.1465,-56.8118"/>
</g>
<!-- Node3 -->
<g id="node5" class="node"><title>Node3</title>
<a xlink:href="class_vec_con.html#a7234c09d040d7114209137176d384566" target="_top" xlink:title="Builds Con objects and appends them to collection.">
<polygon fill="white" stroke="black" points="118,-38.5 118,-57.5 246,-57.5 246,-38.5 118,-38.5"/>
<text text-anchor="middle" x="182" y="-44.5" font-family="Helvetica,sans-Serif" font-size="10.00">VecCon::buildAndAppend</text>
</a>
</g>
<!-- Node1&#45;&gt;Node3 -->
<g id="edge4" class="edge"><title>Node1&#45;&gt;Node3</title>
<path fill="none" stroke="midnightblue" d="M92.4331,-48C100.733,-48 109.414,-48 117.967,-48"/>
<polygon fill="midnightblue" stroke="midnightblue" points="92.1621,-44.5001 82.1621,-48 92.162,-51.5001 92.1621,-44.5001"/>
</g>
<!-- Node4 -->
<g id="node7" class="node"><title>Node4</title>
<a xlink:href="class_vec_con.html#a280ee1e24c44c8aeff1c4c4076322b71" target="_top" xlink:title="Setter of the from fields of the Con objects related to VecCon.">
<polygon fill="white" stroke="black" points="135.5,-0.5 135.5,-19.5 228.5,-19.5 228.5,-0.5 135.5,-0.5"/>
<text text-anchor="middle" x="182" y="-6.5" font-family="Helvetica,sans-Serif" font-size="10.00">VecCon::setFrom</text>
</a>
</g>
<!-- Node1&#45;&gt;Node4 -->
<g id="edge6" class="edge"><title>Node1&#45;&gt;Node4</title>
<path fill="none" stroke="midnightblue" d="M86.4398,-35.7538C105.875,-30.516 128.231,-24.4909 146.431,-19.5859"/>
<polygon fill="midnightblue" stroke="midnightblue" points="85.325,-32.4293 76.5803,-38.411 87.1465,-39.1882 85.325,-32.4293"/>
</g>
<!-- Node5 -->
<g id="node9" class="node"><title>Node5</title>
<a xlink:href="class_neuron.html#a2aa3a89c77ac950559689d6d48a044f9" target="_top" xlink:title="Neuron::setFrom">
<polygon fill="white" stroke="black" points="282,-0.5 282,-19.5 372,-19.5 372,-0.5 282,-0.5"/>
<text text-anchor="middle" x="327" y="-6.5" font-family="Helvetica,sans-Serif" font-size="10.00">Neuron::setFrom</text>
</a>
</g>
<!-- Node4&#45;&gt;Node5 -->
<g id="edge8" class="edge"><title>Node4&#45;&gt;Node5</title>
<path fill="none" stroke="midnightblue" d="M238.887,-10C253.161,-10 268.283,-10 281.894,-10"/>
<polygon fill="midnightblue" stroke="midnightblue" points="238.677,-6.5001 228.677,-10 238.677,-13.5001 238.677,-6.5001"/>
</g>
</g>
</svg>
