<?xml version="1.0" encoding="UTF-8" standalone="no"?>
<!DOCTYPE svg PUBLIC "-//W3C//DTD SVG 1.1//EN"
 "http://www.w3.org/Graphics/SVG/1.1/DTD/svg11.dtd">
<!-- Generated by graphviz version 2.25.20091207.0545 (20091207.0545)
 -->
<!-- Title: G Pages: 1 -->
<svg width="116pt" height="584pt"
 viewBox="0.00 0.00 116.00 584.00" xmlns="http://www.w3.org/2000/svg" xmlns:xlink="http://www.w3.org/1999/xlink">
<g id="graph1" class="graph" transform="scale(1 1) rotate(0) translate(4 580)">
<title>G</title>
<polygon fill="white" stroke="white" points="-4,5 -4,-580 113,-580 113,5 -4,5"/>
<!-- Node1 -->
<g id="node1" class="node"><title>Node1</title>
<polygon fill="#bfbfbf" stroke="black" points="3,-0.5 3,-57.5 105,-57.5 105,-0.5 3,-0.5"/>
<text text-anchor="middle" x="54" y="-44.5" font-family="Helvetica,sans-Serif" font-size="10.00">vecMLPneuron</text>
<polyline fill="none" stroke="black" points="3,-38.5 105,-38.5 "/>
<text text-anchor="middle" x="54" y="-25.5" font-family="Helvetica,sans-Serif" font-size="10.00"> </text>
<polyline fill="none" stroke="black" points="3,-19.5 105,-19.5 "/>
<text text-anchor="start" x="11" y="-6.5" font-family="Helvetica,sans-Serif" font-size="10.00">+ buildAndAppend()</text>
</g>
<!-- Node2 -->
<g id="node2" class="node"><title>Node2</title>
<a xlink:href="classvec_neuron.html" target="_top" xlink:title="A vector of neurons.">
<polygon fill="white" stroke="black" points="22.5,-96.5 22.5,-153.5 85.5,-153.5 85.5,-96.5 22.5,-96.5"/>
<text text-anchor="middle" x="54" y="-140.5" font-family="Helvetica,sans-Serif" font-size="10.00">vecNeuron</text>
<polyline fill="none" stroke="black" points="22.5,-134.5 85.5,-134.5 "/>
<text text-anchor="middle" x="54" y="-121.5" font-family="Helvetica,sans-Serif" font-size="10.00"> </text>
<polyline fill="none" stroke="black" points="22.5,-115.5 85.5,-115.5 "/>
<text text-anchor="middle" x="54" y="-102.5" font-family="Helvetica,sans-Serif" font-size="10.00"> </text>
</a>
</g>
<!-- Node2&#45;&gt;Node1 -->
<g id="edge2" class="edge"><title>Node2&#45;&gt;Node1</title>
<path fill="none" stroke="midnightblue" d="M54,-86.3234C54,-76.7274 54,-66.6143 54,-57.599"/>
<polygon fill="none" stroke="midnightblue" points="50.5001,-86.4567 54,-96.4568 57.5001,-86.4568 50.5001,-86.4567"/>
</g>
<!-- Node3 -->
<g id="node4" class="node"><title>Node3</title>
<a xlink:href="class_container.html" target="_top" xlink:title="{Container\&lt; Neuron \&gt;\n|# ldata\l|+ begin()\l+ end()\l+ load()\l+ store()\l+ size()\l+ push_back()\l+ append()\l+ show()\l+ validate()\l+ reserve()\l+ resize()\l}">
<polygon fill="white" stroke="black" points="0,-192.5 0,-359.5 108,-359.5 108,-192.5 0,-192.5"/>
<text text-anchor="middle" x="54" y="-346.5" font-family="Helvetica,sans-Serif" font-size="10.00">Container&lt; Neuron &gt;</text>
<polyline fill="none" stroke="black" points="0,-340.5 108,-340.5 "/>
<text text-anchor="start" x="8" y="-327.5" font-family="Helvetica,sans-Serif" font-size="10.00"># ldata</text>
<polyline fill="none" stroke="black" points="0,-321.5 108,-321.5 "/>
<text text-anchor="start" x="8" y="-308.5" font-family="Helvetica,sans-Serif" font-size="10.00">+ begin()</text>
<text text-anchor="start" x="8" y="-297.5" font-family="Helvetica,sans-Serif" font-size="10.00">+ end()</text>
<text text-anchor="start" x="8" y="-286.5" font-family="Helvetica,sans-Serif" font-size="10.00">+ load()</text>
<text text-anchor="start" x="8" y="-275.5" font-family="Helvetica,sans-Serif" font-size="10.00">+ store()</text>
<text text-anchor="start" x="8" y="-264.5" font-family="Helvetica,sans-Serif" font-size="10.00">+ size()</text>
<text text-anchor="start" x="8" y="-253.5" font-family="Helvetica,sans-Serif" font-size="10.00">+ push_back()</text>
<text text-anchor="start" x="8" y="-242.5" font-family="Helvetica,sans-Serif" font-size="10.00">+ append()</text>
<text text-anchor="start" x="8" y="-231.5" font-family="Helvetica,sans-Serif" font-size="10.00">+ show()</text>
<text text-anchor="start" x="8" y="-220.5" font-family="Helvetica,sans-Serif" font-size="10.00">+ validate()</text>
<text text-anchor="start" x="8" y="-209.5" font-family="Helvetica,sans-Serif" font-size="10.00">+ reserve()</text>
<text text-anchor="start" x="8" y="-198.5" font-family="Helvetica,sans-Serif" font-size="10.00">+ resize()</text>
</a>
</g>
<!-- Node3&#45;&gt;Node2 -->
<g id="edge4" class="edge"><title>Node3&#45;&gt;Node2</title>
<path fill="none" stroke="midnightblue" d="M54,-181.825C54,-171.671 54,-161.998 54,-153.604"/>
<polygon fill="none" stroke="midnightblue" points="50.5001,-182.11 54,-192.11 57.5001,-182.11 50.5001,-182.11"/>
</g>
<!-- Node4 -->
<g id="node6" class="node"><title>Node4</title>
<a xlink:href="class_container.html" target="_top" xlink:title="{Container\&lt; T \&gt;\n|# ldata\l|+ begin()\l+ end()\l+ load()\l+ store()\l+ size()\l+ push_back()\l+ append()\l+ show()\l+ validate()\l+ reserve()\l+ resize()\l}">
<polygon fill="white" stroke="black" points="13,-408.5 13,-575.5 95,-575.5 95,-408.5 13,-408.5"/>
<text text-anchor="middle" x="54" y="-562.5" font-family="Helvetica,sans-Serif" font-size="10.00">Container&lt; T &gt;</text>
<polyline fill="none" stroke="black" points="13,-556.5 95,-556.5 "/>
<text text-anchor="start" x="21" y="-543.5" font-family="Helvetica,sans-Serif" font-size="10.00"># ldata</text>
<polyline fill="none" stroke="black" points="13,-537.5 95,-537.5 "/>
<text text-anchor="start" x="21" y="-524.5" font-family="Helvetica,sans-Serif" font-size="10.00">+ begin()</text>
<text text-anchor="start" x="21" y="-513.5" font-family="Helvetica,sans-Serif" font-size="10.00">+ end()</text>
<text text-anchor="start" x="21" y="-502.5" font-family="Helvetica,sans-Serif" font-size="10.00">+ load()</text>
<text text-anchor="start" x="21" y="-491.5" font-family="Helvetica,sans-Serif" font-size="10.00">+ store()</text>
<text text-anchor="start" x="21" y="-480.5" font-family="Helvetica,sans-Serif" font-size="10.00">+ size()</text>
<text text-anchor="start" x="21" y="-469.5" font-family="Helvetica,sans-Serif" font-size="10.00">+ push_back()</text>
<text text-anchor="start" x="21" y="-458.5" font-family="Helvetica,sans-Serif" font-size="10.00">+ append()</text>
<text text-anchor="start" x="21" y="-447.5" font-family="Helvetica,sans-Serif" font-size="10.00">+ show()</text>
<text text-anchor="start" x="21" y="-436.5" font-family="Helvetica,sans-Serif" font-size="10.00">+ validate()</text>
<text text-anchor="start" x="21" y="-425.5" font-family="Helvetica,sans-Serif" font-size="10.00">+ reserve()</text>
<text text-anchor="start" x="21" y="-414.5" font-family="Helvetica,sans-Serif" font-size="10.00">+ resize()</text>
</a>
</g>
<!-- Node4&#45;&gt;Node3 -->
<g id="edge6" class="edge"><title>Node4&#45;&gt;Node3</title>
<path fill="none" stroke="orange" stroke-dasharray="5,2" d="M54,-398.26C54,-385.414 54,-372.295 54,-359.645"/>
<polygon fill="orange" stroke="orange" points="50.5001,-398.489 54,-408.489 57.5001,-398.489 50.5001,-398.489"/>
<text text-anchor="middle" x="79" y="-380.5" font-family="Helvetica,sans-Serif" font-size="10.00">&lt; Neuron &gt;</text>
</g>
</g>
</svg>
