<?xml version="1.0" encoding="UTF-8" standalone="no"?>
<!DOCTYPE svg PUBLIC "-//W3C//DTD SVG 1.1//EN"
 "http://www.w3.org/Graphics/SVG/1.1/DTD/svg11.dtd">
<!-- Generated by graphviz version 2.25.20091207.0545 (20091207.0545)
 -->
<!-- Title: G Pages: 1 -->
<svg width="388pt" height="66pt"
 viewBox="0.00 0.00 388.00 66.00" xmlns="http://www.w3.org/2000/svg" xmlns:xlink="http://www.w3.org/1999/xlink">
<g id="graph1" class="graph" transform="scale(1 1) rotate(0) translate(4 62)">
<title>G</title>
<polygon fill="white" stroke="white" points="-4,5 -4,-62 385,-62 385,5 -4,5"/>
<!-- Node1 -->
<g id="node1" class="node"><title>Node1</title>
<polygon fill="#bfbfbf" stroke="black" points="0,-19.5 0,-38.5 104,-38.5 104,-19.5 0,-19.5"/>
<text text-anchor="middle" x="52" y="-25.5" font-family="Helvetica,sans-Serif" font-size="10.00">ConContainer::getId</text>
</g>
<!-- Node2 -->
<g id="node3" class="node"><title>Node2</title>
<a xlink:href="class_neuron.html#aac7d538b4a5087f730ba80f19852bced" target="_top" xlink:title="Neuron::getConId">
<polygon fill="white" stroke="black" points="151.5,-38.5 151.5,-57.5 244.5,-57.5 244.5,-38.5 151.5,-38.5"/>
<text text-anchor="middle" x="198" y="-44.5" font-family="Helvetica,sans-Serif" font-size="10.00">Neuron::getConId</text>
</a>
</g>
<!-- Node1&#45;&gt;Node2 -->
<g id="edge2" class="edge"><title>Node1&#45;&gt;Node2</title>
<path fill="none" stroke="midnightblue" d="M114.552,-37.1403C126.912,-38.7489 139.681,-40.4105 151.4,-41.9356"/>
<polygon fill="midnightblue" stroke="midnightblue" points="114.665,-33.6256 104.297,-35.8058 113.762,-40.5671 114.665,-33.6256"/>
</g>
<!-- Node3 -->
<g id="node5" class="node"><title>Node3</title>
<a xlink:href="class_con_container.html#aac12a3d3604db9ff715503816109470c" target="_top" xlink:title="Object validator.">
<polygon fill="white" stroke="black" points="140,-0.5 140,-19.5 256,-19.5 256,-0.5 140,-0.5"/>
<text text-anchor="middle" x="198" y="-6.5" font-family="Helvetica,sans-Serif" font-size="10.00">ConContainer::validate</text>
</a>
</g>
<!-- Node1&#45;&gt;Node3 -->
<g id="edge4" class="edge"><title>Node1&#45;&gt;Node3</title>
<path fill="none" stroke="midnightblue" d="M114.459,-20.8718C122.894,-19.7741 131.52,-18.6515 139.875,-17.5642"/>
<polygon fill="midnightblue" stroke="midnightblue" points="113.762,-17.4329 104.297,-22.1942 114.665,-24.3744 113.762,-17.4329"/>
</g>
<!-- Node4 -->
<g id="node7" class="node"><title>Node4</title>
<a xlink:href="class_neuron.html#a95327aa80a9ec949491f214a0c159b5a" target="_top" xlink:title="Neuron::validate">
<polygon fill="white" stroke="black" points="292.5,-0.5 292.5,-19.5 379.5,-19.5 379.5,-0.5 292.5,-0.5"/>
<text text-anchor="middle" x="336" y="-6.5" font-family="Helvetica,sans-Serif" font-size="10.00">Neuron::validate</text>
</a>
</g>
<!-- Node3&#45;&gt;Node4 -->
<g id="edge6" class="edge"><title>Node3&#45;&gt;Node4</title>
<path fill="none" stroke="midnightblue" d="M266.391,-10C275.172,-10 283.965,-10 292.203,-10"/>
<polygon fill="midnightblue" stroke="midnightblue" points="266.124,-6.5001 256.124,-10 266.124,-13.5001 266.124,-6.5001"/>
</g>
</g>
</svg>
