<?xml version="1.0" encoding="UTF-8" standalone="no"?>
<!DOCTYPE svg PUBLIC "-//W3C//DTD SVG 1.1//EN"
 "http://www.w3.org/Graphics/SVG/1.1/DTD/svg11.dtd">
<!-- Generated by graphviz version 2.28.0 (20110610.2051)
 -->
<!-- Title: G Pages: 1 -->
<svg width="98pt" height="216pt"
 viewBox="0.00 0.00 98.00 216.00" xmlns="http://www.w3.org/2000/svg" xmlns:xlink="http://www.w3.org/1999/xlink">
<g id="graph1" class="graph" transform="scale(1 1) rotate(0) translate(4 212)">
<title>G</title>
<polygon fill="white" stroke="white" points="-4,5 -4,-212 95,-212 95,5 -4,5"/>
<!-- Node1 -->
<g id="node1" class="node"><title>Node1</title>
<polygon fill="#bfbfbf" stroke="black" points="0.5,-0.5 0.5,-101.5 89.5,-101.5 89.5,-0.5 0.5,-0.5"/>
<text text-anchor="middle" x="45" y="-89.5" font-family="Helvetica,sans-Serif" font-size="10.00">MLPbehavior</text>
<polyline fill="none" stroke="black" points="0.5,-82.5 89.5,-82.5 "/>
<text text-anchor="start" x="8.5" y="-70.5" font-family="Helvetica,sans-Serif" font-size="10.00">&#45; d_bias</text>
<text text-anchor="start" x="8.5" y="-59.5" font-family="Helvetica,sans-Serif" font-size="10.00">&#45; d_output</text>
<text text-anchor="start" x="8.5" y="-48.5" font-family="Helvetica,sans-Serif" font-size="10.00">&#45; d_nCons</text>
<text text-anchor="start" x="8.5" y="-37.5" font-family="Helvetica,sans-Serif" font-size="10.00">&#45; d_accumulator</text>
<polyline fill="none" stroke="black" points="0.5,-30.5 89.5,-30.5 "/>
<text text-anchor="start" x="8.5" y="-18.5" font-family="Helvetica,sans-Serif" font-size="10.00">+ predict()</text>
<text text-anchor="start" x="8.5" y="-7.5" font-family="Helvetica,sans-Serif" font-size="10.00">+ show()</text>
</g>
<!-- Node2 -->
<g id="node2" class="node"><title>Node2</title>
<a xlink:href="class_predict_behavior.html" target="_top" xlink:title="class PredictBehavior &#45;">
<polygon fill="white" stroke="black" points="0,-139 0,-207 90,-207 90,-139 0,-139"/>
<text text-anchor="middle" x="45" y="-195" font-family="Helvetica,sans-Serif" font-size="10.00">PredictBehavior</text>
<polyline fill="none" stroke="black" points="0,-188 90,-188 "/>
<text text-anchor="middle" x="45" y="-176" font-family="Helvetica,sans-Serif" font-size="10.00"> </text>
<polyline fill="none" stroke="black" points="0,-169 90,-169 "/>
<text text-anchor="start" x="8" y="-157" font-family="Helvetica,sans-Serif" font-size="10.00">+ predict()</text>
<text text-anchor="start" x="8" y="-146" font-family="Helvetica,sans-Serif" font-size="10.00">+ show()</text>
</a>
</g>
<!-- Node2&#45;&gt;Node1 -->
<g id="edge2" class="edge"><title>Node2&#45;&gt;Node1</title>
<path fill="none" stroke="midnightblue" d="M45,-128.831C45,-120.01 45,-110.661 45,-101.636"/>
<polygon fill="none" stroke="midnightblue" points="41.5001,-128.892 45,-138.892 48.5001,-128.892 41.5001,-128.892"/>
</g>
</g>
</svg>
