<?xml version="1.0" encoding="UTF-8" standalone="no"?>
<!DOCTYPE svg PUBLIC "-//W3C//DTD SVG 1.1//EN"
 "http://www.w3.org/Graphics/SVG/1.1/DTD/svg11.dtd">
<!-- Generated by graphviz version 2.25.20091207.0545 (20091207.0545)
 -->
<!-- Title: G Pages: 1 -->
<svg width="406pt" height="104pt"
 viewBox="0.00 0.00 406.00 104.00" xmlns="http://www.w3.org/2000/svg" xmlns:xlink="http://www.w3.org/1999/xlink">
<g id="graph1" class="graph" transform="scale(1 1) rotate(0) translate(4 100)">
<title>G</title>
<polygon fill="white" stroke="white" points="-4,5 -4,-100 403,-100 403,5 -4,5"/>
<!-- Node1 -->
<g id="node1" class="node"><title>Node1</title>
<polygon fill="#bfbfbf" stroke="black" points="0,-19.5 0,-38.5 90,-38.5 90,-19.5 0,-19.5"/>
<text text-anchor="middle" x="45" y="-25.5" font-family="Helvetica,sans-Serif" font-size="10.00">Neuron::setFrom</text>
</g>
<!-- Node2 -->
<g id="node3" class="node"><title>Node2</title>
<a xlink:href="class_con_container.html#aa7f1bbd910afe9c4241e8bd4d5fbc497" target="_top" xlink:title="Setter of the from fields of the Con objects related to ConContainer.">
<polygon fill="white" stroke="black" points="126,-19.5 126,-38.5 244,-38.5 244,-19.5 126,-19.5"/>
<text text-anchor="middle" x="185" y="-25.5" font-family="Helvetica,sans-Serif" font-size="10.00">ConContainer::setFrom</text>
</a>
</g>
<!-- Node1&#45;&gt;Node2 -->
<g id="edge2" class="edge"><title>Node1&#45;&gt;Node2</title>
<path fill="none" stroke="midnightblue" d="M90.0675,-29C98.2833,-29 107.026,-29 115.753,-29"/>
<polygon fill="midnightblue" stroke="midnightblue" points="115.959,-32.5001 125.959,-29 115.959,-25.5001 115.959,-32.5001"/>
</g>
<!-- Node3 -->
<g id="node5" class="node"><title>Node3</title>
<a xlink:href="class_container.html#ac5e2a75311f6e6a690ca67603490ddb1" target="_top" xlink:title="Container::begin">
<polygon fill="white" stroke="black" points="295.5,-76.5 295.5,-95.5 382.5,-95.5 382.5,-76.5 295.5,-76.5"/>
<text text-anchor="middle" x="339" y="-82.5" font-family="Helvetica,sans-Serif" font-size="10.00">Container::begin</text>
</a>
</g>
<!-- Node2&#45;&gt;Node3 -->
<g id="edge4" class="edge"><title>Node2&#45;&gt;Node3</title>
<path fill="none" stroke="midnightblue" d="M207.482,-38.5016C226.627,-46.4699 254.934,-57.9629 280,-67 285.913,-69.1317 292.198,-71.2797 298.379,-73.3256"/>
<polygon fill="midnightblue" stroke="midnightblue" points="297.345,-76.6695 307.937,-76.4395 299.513,-70.0139 297.345,-76.6695"/>
</g>
<!-- Node4 -->
<g id="node7" class="node"><title>Node4</title>
<a xlink:href="class_container.html#ab8e09c25f519687468ef5b9f0fae9b3e" target="_top" xlink:title="Container::empty">
<polygon fill="white" stroke="black" points="293.5,-38.5 293.5,-57.5 384.5,-57.5 384.5,-38.5 293.5,-38.5"/>
<text text-anchor="middle" x="339" y="-44.5" font-family="Helvetica,sans-Serif" font-size="10.00">Container::empty</text>
</a>
</g>
<!-- Node2&#45;&gt;Node4 -->
<g id="edge6" class="edge"><title>Node2&#45;&gt;Node4</title>
<path fill="none" stroke="midnightblue" d="M244.1,-36.2916C256.951,-37.877 270.505,-39.5493 283.222,-41.1183"/>
<polygon fill="midnightblue" stroke="midnightblue" points="282.859,-44.5999 293.212,-42.3508 283.716,-37.6526 282.859,-44.5999"/>
</g>
<!-- Node5 -->
<g id="node9" class="node"><title>Node5</title>
<a xlink:href="class_container.html#a842c3d9eca81b78b59112fde9707b091" target="_top" xlink:title="Container\&lt; Con \&gt;::size">
<polygon fill="white" stroke="black" points="280,-0.5 280,-19.5 398,-19.5 398,-0.5 280,-0.5"/>
<text text-anchor="middle" x="339" y="-6.5" font-family="Helvetica,sans-Serif" font-size="10.00">Container&lt; Con &gt;::size</text>
</a>
</g>
<!-- Node2&#45;&gt;Node5 -->
<g id="edge8" class="edge"><title>Node2&#45;&gt;Node5</title>
<path fill="none" stroke="midnightblue" d="M216.909,-19.4705C232.222,-16.6867 251.208,-13.9683 269.61,-11.8405"/>
<polygon fill="midnightblue" stroke="midnightblue" points="270.189,-15.2979 279.745,-10.7226 269.422,-8.34011 270.189,-15.2979"/>
</g>
<!-- Node2&#45;&gt;Node5 -->
<g id="edge10" class="edge"><title>Node2&#45;&gt;Node5</title>
<path fill="none" stroke="midnightblue" d="M244.1,-28.2936C261.634,-26.4586 280.48,-23.9714 296.719,-21.3154"/>
<polygon fill="midnightblue" stroke="midnightblue" points="297.713,-24.6959 306.974,-19.5508 296.525,-17.7973 297.713,-24.6959"/>
</g>
</g>
</svg>
