<?xml version="1.0" encoding="UTF-8" standalone="no"?>
<!DOCTYPE svg PUBLIC "-//W3C//DTD SVG 1.1//EN"
 "http://www.w3.org/Graphics/SVG/1.1/DTD/svg11.dtd">
<!-- Generated by graphviz version 2.28.0 (20110610.2051)
 -->
<!-- Title: G Pages: 1 -->
<svg width="207pt" height="194pt"
 viewBox="0.00 0.00 207.00 194.00" xmlns="http://www.w3.org/2000/svg" xmlns:xlink="http://www.w3.org/1999/xlink">
<g id="graph1" class="graph" transform="scale(1 1) rotate(0) translate(4 190)">
<title>G</title>
<polygon fill="white" stroke="white" points="-4,5 -4,-190 204,-190 204,5 -4,5"/>
<!-- Node1 -->
<g id="node1" class="node"><title>Node1</title>
<polygon fill="#bfbfbf" stroke="black" points="53.5,-117 53.5,-185 144.5,-185 144.5,-117 53.5,-117"/>
<text text-anchor="middle" x="99" y="-173" font-family="Helvetica,sans-Serif" font-size="10.00">NeuralFactory</text>
<polyline fill="none" stroke="black" points="53.5,-166 144.5,-166 "/>
<text text-anchor="middle" x="99" y="-154" font-family="Helvetica,sans-Serif" font-size="10.00"> </text>
<polyline fill="none" stroke="black" points="53.5,-147 144.5,-147 "/>
<text text-anchor="start" x="61.5" y="-135" font-family="Helvetica,sans-Serif" font-size="10.00">+ makeCon()</text>
<text text-anchor="start" x="61.5" y="-124" font-family="Helvetica,sans-Serif" font-size="10.00">+ makeNeuron()</text>
</g>
<!-- Node2 -->
<g id="node3" class="node"><title>Node2</title>
<a xlink:href="class_m_l_pfactory.html" target="_top" xlink:title="class MLPfactory &#45;">
<polygon fill="white" stroke="black" points="-0.5,-0.5 -0.5,-79.5 90.5,-79.5 90.5,-0.5 -0.5,-0.5"/>
<text text-anchor="middle" x="45" y="-67.5" font-family="Helvetica,sans-Serif" font-size="10.00">MLPfactory</text>
<polyline fill="none" stroke="black" points="-0.5,-60.5 90.5,-60.5 "/>
<text text-anchor="middle" x="45" y="-48.5" font-family="Helvetica,sans-Serif" font-size="10.00"> </text>
<polyline fill="none" stroke="black" points="-0.5,-41.5 90.5,-41.5 "/>
<text text-anchor="start" x="7.5" y="-29.5" font-family="Helvetica,sans-Serif" font-size="10.00">+ MLPfactory()</text>
<text text-anchor="start" x="7.5" y="-18.5" font-family="Helvetica,sans-Serif" font-size="10.00">+ makeCon()</text>
<text text-anchor="start" x="7.5" y="-7.5" font-family="Helvetica,sans-Serif" font-size="10.00">+ makeNeuron()</text>
</a>
</g>
<!-- Node1&#45;&gt;Node2 -->
<g id="edge2" class="edge"><title>Node1&#45;&gt;Node2</title>
<path fill="none" stroke="midnightblue" d="M78.0564,-107.725C73.5068,-98.5415 68.7154,-88.8699 64.2356,-79.8274"/>
<polygon fill="none" stroke="midnightblue" points="74.9293,-109.297 82.5048,-116.704 81.2018,-106.19 74.9293,-109.297"/>
</g>
<!-- Node3 -->
<g id="node5" class="node"><title>Node3</title>
<a xlink:href="class_r_b_ffactory.html" target="_top" xlink:title="class RBFfactory &#45;">
<polygon fill="white" stroke="black" points="108.5,-0.5 108.5,-79.5 199.5,-79.5 199.5,-0.5 108.5,-0.5"/>
<text text-anchor="middle" x="154" y="-67.5" font-family="Helvetica,sans-Serif" font-size="10.00">RBFfactory</text>
<polyline fill="none" stroke="black" points="108.5,-60.5 199.5,-60.5 "/>
<text text-anchor="middle" x="154" y="-48.5" font-family="Helvetica,sans-Serif" font-size="10.00"> </text>
<polyline fill="none" stroke="black" points="108.5,-41.5 199.5,-41.5 "/>
<text text-anchor="start" x="116.5" y="-29.5" font-family="Helvetica,sans-Serif" font-size="10.00">+ RBFfactory()</text>
<text text-anchor="start" x="116.5" y="-18.5" font-family="Helvetica,sans-Serif" font-size="10.00">+ makeCon()</text>
<text text-anchor="start" x="116.5" y="-7.5" font-family="Helvetica,sans-Serif" font-size="10.00">+ makeNeuron()</text>
</a>
</g>
<!-- Node1&#45;&gt;Node3 -->
<g id="edge4" class="edge"><title>Node1&#45;&gt;Node3</title>
<path fill="none" stroke="midnightblue" d="M120.331,-107.725C124.965,-98.5415 129.845,-88.8699 134.408,-79.8274"/>
<polygon fill="none" stroke="midnightblue" points="117.181,-106.2 115.801,-116.704 123.43,-109.353 117.181,-106.2"/>
</g>
</g>
</svg>
