<?xml version="1.0" encoding="UTF-8" standalone="no"?>
<!DOCTYPE svg PUBLIC "-//W3C//DTD SVG 1.1//EN"
 "http://www.w3.org/Graphics/SVG/1.1/DTD/svg11.dtd">
<!-- Generated by graphviz version 2.25.20091207.0545 (20091207.0545)
 -->
<!-- Title: G Pages: 1 -->
<svg width="280pt" height="104pt"
 viewBox="0.00 0.00 280.00 104.00" xmlns="http://www.w3.org/2000/svg" xmlns:xlink="http://www.w3.org/1999/xlink">
<g id="graph1" class="graph" transform="scale(1 1) rotate(0) translate(4 100)">
<title>G</title>
<polygon fill="white" stroke="white" points="-4,5 -4,-100 277,-100 277,5 -4,5"/>
<!-- Node1 -->
<g id="node1" class="node"><title>Node1</title>
<polygon fill="#bfbfbf" stroke="black" points="0,-19.5 0,-38.5 118,-38.5 118,-19.5 0,-19.5"/>
<text text-anchor="middle" x="59" y="-25.5" font-family="Helvetica,sans-Serif" font-size="10.00">ConContainer::setFrom</text>
</g>
<!-- Node2 -->
<g id="node3" class="node"><title>Node2</title>
<a xlink:href="class_container.html#ac5e2a75311f6e6a690ca67603490ddb1" target="_top" xlink:title="Container::begin">
<polygon fill="white" stroke="black" points="169.5,-76.5 169.5,-95.5 256.5,-95.5 256.5,-76.5 169.5,-76.5"/>
<text text-anchor="middle" x="213" y="-82.5" font-family="Helvetica,sans-Serif" font-size="10.00">Container::begin</text>
</a>
</g>
<!-- Node1&#45;&gt;Node2 -->
<g id="edge2" class="edge"><title>Node1&#45;&gt;Node2</title>
<path fill="none" stroke="midnightblue" d="M81.482,-38.5016C100.627,-46.4699 128.934,-57.9629 154,-67 159.913,-69.1317 166.198,-71.2797 172.379,-73.3256"/>
<polygon fill="midnightblue" stroke="midnightblue" points="171.345,-76.6695 181.937,-76.4395 173.513,-70.0139 171.345,-76.6695"/>
</g>
<!-- Node3 -->
<g id="node5" class="node"><title>Node3</title>
<a xlink:href="class_container.html#ab8e09c25f519687468ef5b9f0fae9b3e" target="_top" xlink:title="Container::empty">
<polygon fill="white" stroke="black" points="167.5,-38.5 167.5,-57.5 258.5,-57.5 258.5,-38.5 167.5,-38.5"/>
<text text-anchor="middle" x="213" y="-44.5" font-family="Helvetica,sans-Serif" font-size="10.00">Container::empty</text>
</a>
</g>
<!-- Node1&#45;&gt;Node3 -->
<g id="edge4" class="edge"><title>Node1&#45;&gt;Node3</title>
<path fill="none" stroke="midnightblue" d="M118.1,-36.2916C130.951,-37.877 144.505,-39.5493 157.222,-41.1183"/>
<polygon fill="midnightblue" stroke="midnightblue" points="156.859,-44.5999 167.212,-42.3508 157.716,-37.6526 156.859,-44.5999"/>
</g>
<!-- Node4 -->
<g id="node7" class="node"><title>Node4</title>
<a xlink:href="class_container.html#a842c3d9eca81b78b59112fde9707b091" target="_top" xlink:title="Container\&lt; Con \&gt;::size">
<polygon fill="white" stroke="black" points="154,-0.5 154,-19.5 272,-19.5 272,-0.5 154,-0.5"/>
<text text-anchor="middle" x="213" y="-6.5" font-family="Helvetica,sans-Serif" font-size="10.00">Container&lt; Con &gt;::size</text>
</a>
</g>
<!-- Node1&#45;&gt;Node4 -->
<g id="edge6" class="edge"><title>Node1&#45;&gt;Node4</title>
<path fill="none" stroke="midnightblue" d="M90.9089,-19.4705C106.222,-16.6867 125.208,-13.9683 143.61,-11.8405"/>
<polygon fill="midnightblue" stroke="midnightblue" points="144.189,-15.2979 153.745,-10.7226 143.422,-8.34011 144.189,-15.2979"/>
</g>
<!-- Node1&#45;&gt;Node4 -->
<g id="edge8" class="edge"><title>Node1&#45;&gt;Node4</title>
<path fill="none" stroke="midnightblue" d="M118.1,-28.2936C135.634,-26.4586 154.48,-23.9714 170.719,-21.3154"/>
<polygon fill="midnightblue" stroke="midnightblue" points="171.713,-24.6959 180.974,-19.5508 170.525,-17.7973 171.713,-24.6959"/>
</g>
</g>
</svg>
