<?xml version="1.0" encoding="UTF-8" standalone="no"?>
<!DOCTYPE svg PUBLIC "-//W3C//DTD SVG 1.1//EN"
 "http://www.w3.org/Graphics/SVG/1.1/DTD/svg11.dtd">
<!-- Generated by graphviz version 2.28.0 (20110610.2051)
 -->
<!-- Title: G Pages: 1 -->
<svg width="262pt" height="180pt"
 viewBox="0.00 0.00 262.00 180.00" xmlns="http://www.w3.org/2000/svg" xmlns:xlink="http://www.w3.org/1999/xlink">
<g id="graph1" class="graph" transform="scale(1 1) rotate(0) translate(4 176)">
<title>G</title>
<polygon fill="white" stroke="white" points="-4,5 -4,-176 259,-176 259,5 -4,5"/>
<!-- Node1 -->
<g id="node1" class="node"><title>Node1</title>
<polygon fill="#bfbfbf" stroke="black" points="0,-76.5 0,-95.5 92,-95.5 92,-76.5 0,-76.5"/>
<text text-anchor="middle" x="46" y="-83.5" font-family="Helvetica,sans-Serif" font-size="10.00">Container::begin</text>
</g>
<!-- Node2 -->
<g id="node3" class="node"><title>Node2</title>
<a xlink:href="class_container.html#a86d42cf807e073724bd2f8e08dcdfefa" target="_top" xlink:title="Appends a Container&lt;T&gt; object.">
<polygon fill="white" stroke="black" points="140.5,-152.5 140.5,-171.5 241.5,-171.5 241.5,-152.5 140.5,-152.5"/>
<text text-anchor="middle" x="191" y="-159.5" font-family="Helvetica,sans-Serif" font-size="10.00">Container::append</text>
</a>
</g>
<!-- Node1&#45;&gt;Node2 -->
<g id="edge2" class="edge"><title>Node1&#45;&gt;Node2</title>
<path fill="none" stroke="midnightblue" d="M65.9909,-101.988C81.7512,-114.587 105.196,-131.835 128,-143 135.482,-146.663 143.819,-149.796 151.892,-152.4"/>
<polygon fill="midnightblue" stroke="midnightblue" points="68.0402,-99.1425 58.0787,-95.5341 63.6158,-104.567 68.0402,-99.1425"/>
</g>
<!-- Node3 -->
<g id="node5" class="node"><title>Node3</title>
<a xlink:href="class_neuron.html#af8810437bb06adacf4c6e4eb15293d36" target="_top" xlink:title="Neuron::const_iterators">
<polygon fill="white" stroke="black" points="128.5,-114.5 128.5,-133.5 253.5,-133.5 253.5,-114.5 128.5,-114.5"/>
<text text-anchor="middle" x="191" y="-121.5" font-family="Helvetica,sans-Serif" font-size="10.00">Neuron::const_iterators</text>
</a>
</g>
<!-- Node1&#45;&gt;Node3 -->
<g id="edge4" class="edge"><title>Node1&#45;&gt;Node3</title>
<path fill="none" stroke="midnightblue" d="M92.8133,-98.1742C112.587,-103.429 135.384,-109.487 153.927,-114.414"/>
<polygon fill="midnightblue" stroke="midnightblue" points="93.6484,-94.7747 83.0849,-95.589 91.8506,-101.54 93.6484,-94.7747"/>
</g>
<!-- Node4 -->
<g id="node7" class="node"><title>Node4</title>
<a xlink:href="class_neuron.html#a017ef6451c019cb31e65ace87151184e" target="_top" xlink:title="Neuron::iterators">
<polygon fill="white" stroke="black" points="144,-76.5 144,-95.5 238,-95.5 238,-76.5 144,-76.5"/>
<text text-anchor="middle" x="191" y="-83.5" font-family="Helvetica,sans-Serif" font-size="10.00">Neuron::iterators</text>
</a>
</g>
<!-- Node1&#45;&gt;Node4 -->
<g id="edge6" class="edge"><title>Node1&#45;&gt;Node4</title>
<path fill="none" stroke="midnightblue" d="M102.447,-86C116.041,-86 130.452,-86 143.572,-86"/>
<polygon fill="midnightblue" stroke="midnightblue" points="102.246,-82.5001 92.2461,-86 102.246,-89.5001 102.246,-82.5001"/>
</g>
<!-- Node5 -->
<g id="node9" class="node"><title>Node5</title>
<a xlink:href="class_neuron.html#ae611283a65aeb48cc9691211ca8926d7" target="_top" xlink:title="Neuron::Neuron">
<polygon fill="white" stroke="black" points="146.5,-38.5 146.5,-57.5 235.5,-57.5 235.5,-38.5 146.5,-38.5"/>
<text text-anchor="middle" x="191" y="-45.5" font-family="Helvetica,sans-Serif" font-size="10.00">Neuron::Neuron</text>
</a>
</g>
<!-- Node1&#45;&gt;Node5 -->
<g id="edge8" class="edge"><title>Node1&#45;&gt;Node5</title>
<path fill="none" stroke="midnightblue" d="M92.8133,-73.8258C112.587,-68.5713 135.384,-62.5134 153.927,-57.5859"/>
<polygon fill="midnightblue" stroke="midnightblue" points="91.8506,-70.4601 83.0849,-76.411 93.6484,-77.2253 91.8506,-70.4601"/>
</g>
<!-- Node6 -->
<g id="node11" class="node"><title>Node6</title>
<a xlink:href="class_con_container.html#aa7f1bbd910afe9c4241e8bd4d5fbc497" target="_top" xlink:title="Setter of the from fields of the Con objects related to ConContainer.">
<polygon fill="white" stroke="black" points="129,-0.5 129,-19.5 253,-19.5 253,-0.5 129,-0.5"/>
<text text-anchor="middle" x="191" y="-7.5" font-family="Helvetica,sans-Serif" font-size="10.00">ConContainer::setFrom</text>
</a>
</g>
<!-- Node1&#45;&gt;Node6 -->
<g id="edge10" class="edge"><title>Node1&#45;&gt;Node6</title>
<path fill="none" stroke="midnightblue" d="M65.9909,-70.0124C81.7512,-57.4127 105.196,-40.1645 128,-29 135.482,-25.3367 143.819,-22.2037 151.892,-19.6005"/>
<polygon fill="midnightblue" stroke="midnightblue" points="63.6158,-67.4331 58.0787,-76.4659 68.0402,-72.8575 63.6158,-67.4331"/>
</g>
</g>
</svg>
