<?xml version="1.0" encoding="UTF-8" standalone="no"?>
<!DOCTYPE svg PUBLIC "-//W3C//DTD SVG 1.1//EN"
 "http://www.w3.org/Graphics/SVG/1.1/DTD/svg11.dtd">
<!-- Generated by graphviz version 2.28.0 (20110610.2051)
 -->
<!-- Title: G Pages: 1 -->
<svg width="254pt" height="104pt"
 viewBox="0.00 0.00 254.00 104.00" xmlns="http://www.w3.org/2000/svg" xmlns:xlink="http://www.w3.org/1999/xlink">
<g id="graph1" class="graph" transform="scale(1 1) rotate(0) translate(4 100)">
<title>G</title>
<polygon fill="white" stroke="white" points="-4,5 -4,-100 251,-100 251,5 -4,5"/>
<!-- Node1 -->
<g id="node1" class="node"><title>Node1</title>
<polygon fill="#bfbfbf" stroke="black" points="0,-38.5 0,-57.5 84,-57.5 84,-38.5 0,-38.5"/>
<text text-anchor="middle" x="42" y="-45.5" font-family="Helvetica,sans-Serif" font-size="10.00">Container::end</text>
</g>
<!-- Node2 -->
<g id="node3" class="node"><title>Node2</title>
<a xlink:href="class_container.html#a86d42cf807e073724bd2f8e08dcdfefa" target="_top" xlink:title="Appends a Container&lt;T&gt; object.">
<polygon fill="white" stroke="black" points="132.5,-76.5 132.5,-95.5 233.5,-95.5 233.5,-76.5 132.5,-76.5"/>
<text text-anchor="middle" x="183" y="-83.5" font-family="Helvetica,sans-Serif" font-size="10.00">Container::append</text>
</a>
</g>
<!-- Node1&#45;&gt;Node2 -->
<g id="edge2" class="edge"><title>Node1&#45;&gt;Node2</title>
<path fill="none" stroke="midnightblue" d="M87.7953,-60.2462C106.955,-65.484 128.994,-71.5091 146.936,-76.4141"/>
<polygon fill="midnightblue" stroke="midnightblue" points="88.6446,-56.85 78.0756,-57.589 86.7986,-63.6022 88.6446,-56.85"/>
</g>
<!-- Node3 -->
<g id="node5" class="node"><title>Node3</title>
<a xlink:href="class_neuron.html#af8810437bb06adacf4c6e4eb15293d36" target="_top" xlink:title="Neuron::const_iterators">
<polygon fill="white" stroke="black" points="120.5,-38.5 120.5,-57.5 245.5,-57.5 245.5,-38.5 120.5,-38.5"/>
<text text-anchor="middle" x="183" y="-45.5" font-family="Helvetica,sans-Serif" font-size="10.00">Neuron::const_iterators</text>
</a>
</g>
<!-- Node1&#45;&gt;Node3 -->
<g id="edge4" class="edge"><title>Node1&#45;&gt;Node3</title>
<path fill="none" stroke="midnightblue" d="M94.3757,-48C102.798,-48 111.602,-48 120.244,-48"/>
<polygon fill="midnightblue" stroke="midnightblue" points="94.3283,-44.5001 84.3282,-48 94.3282,-51.5001 94.3283,-44.5001"/>
</g>
<!-- Node4 -->
<g id="node7" class="node"><title>Node4</title>
<a xlink:href="class_neuron.html#a017ef6451c019cb31e65ace87151184e" target="_top" xlink:title="Neuron::iterators">
<polygon fill="white" stroke="black" points="136,-0.5 136,-19.5 230,-19.5 230,-0.5 136,-0.5"/>
<text text-anchor="middle" x="183" y="-7.5" font-family="Helvetica,sans-Serif" font-size="10.00">Neuron::iterators</text>
</a>
</g>
<!-- Node1&#45;&gt;Node4 -->
<g id="edge6" class="edge"><title>Node1&#45;&gt;Node4</title>
<path fill="none" stroke="midnightblue" d="M87.7953,-35.7538C106.955,-30.516 128.994,-24.4909 146.936,-19.5859"/>
<polygon fill="midnightblue" stroke="midnightblue" points="86.7986,-32.3978 78.0756,-38.411 88.6446,-39.15 86.7986,-32.3978"/>
</g>
</g>
</svg>
