<?xml version="1.0" encoding="UTF-8" standalone="no"?>
<!DOCTYPE svg PUBLIC "-//W3C//DTD SVG 1.1//EN"
 "http://www.w3.org/Graphics/SVG/1.1/DTD/svg11.dtd">
<!-- Generated by graphviz version 2.28.0 (20110610.2051)
 -->
<!-- Title: G Pages: 1 -->
<svg width="142pt" height="304pt"
 viewBox="0.00 0.00 142.00 304.00" xmlns="http://www.w3.org/2000/svg" xmlns:xlink="http://www.w3.org/1999/xlink">
<g id="graph1" class="graph" transform="scale(1 1) rotate(0) translate(4 300)">
<title>G</title>
<polygon fill="white" stroke="white" points="-4,5 -4,-300 139,-300 139,5 -4,5"/>
<!-- Node1 -->
<g id="node1" class="node"><title>Node1</title>
<polygon fill="#bfbfbf" stroke="black" points="1,-1 1,-135 133,-135 133,-1 1,-1"/>
<text text-anchor="middle" x="67" y="-123" font-family="Helvetica,sans-Serif" font-size="10.00">RBFfactory</text>
<polyline fill="none" stroke="black" points="1,-116 133,-116 "/>
<text text-anchor="middle" x="67" y="-104" font-family="Helvetica,sans-Serif" font-size="10.00"> </text>
<polyline fill="none" stroke="black" points="1,-97 133,-97 "/>
<text text-anchor="start" x="9" y="-85" font-family="Helvetica,sans-Serif" font-size="10.00">+ RBFfactory()</text>
<text text-anchor="start" x="9" y="-74" font-family="Helvetica,sans-Serif" font-size="10.00">&#45; makeCon()</text>
<text text-anchor="start" x="9" y="-63" font-family="Helvetica,sans-Serif" font-size="10.00">&#45; makeCon()</text>
<text text-anchor="start" x="9" y="-52" font-family="Helvetica,sans-Serif" font-size="10.00">&#45; makeConContainer()</text>
<text text-anchor="start" x="9" y="-41" font-family="Helvetica,sans-Serif" font-size="10.00">&#45; makePredictBehavior()</text>
<text text-anchor="start" x="9" y="-30" font-family="Helvetica,sans-Serif" font-size="10.00">&#45; makePredictBehavior()</text>
<text text-anchor="start" x="9" y="-19" font-family="Helvetica,sans-Serif" font-size="10.00">&#45; makeNeuron()</text>
<text text-anchor="start" x="9" y="-8" font-family="Helvetica,sans-Serif" font-size="10.00">&#45; makeNeuronContainer()</text>
</g>
<!-- Node2 -->
<g id="node2" class="node"><title>Node2</title>
<a xlink:href="class_neural_factory.html" target="_top" xlink:title="class NeuralFactory &#45;">
<polygon fill="white" stroke="black" points="-0.5,-172.5 -0.5,-295.5 134.5,-295.5 134.5,-172.5 -0.5,-172.5"/>
<text text-anchor="middle" x="67" y="-283.5" font-family="Helvetica,sans-Serif" font-size="10.00">NeuralFactory</text>
<polyline fill="none" stroke="black" points="-0.5,-276.5 134.5,-276.5 "/>
<text text-anchor="middle" x="67" y="-264.5" font-family="Helvetica,sans-Serif" font-size="10.00"> </text>
<polyline fill="none" stroke="black" points="-0.5,-257.5 134.5,-257.5 "/>
<text text-anchor="start" x="7.5" y="-245.5" font-family="Helvetica,sans-Serif" font-size="10.00">+ makeCon()</text>
<text text-anchor="start" x="7.5" y="-234.5" font-family="Helvetica,sans-Serif" font-size="10.00">+ makeCon()</text>
<text text-anchor="start" x="7.5" y="-223.5" font-family="Helvetica,sans-Serif" font-size="10.00">+ makeConContainer()</text>
<text text-anchor="start" x="7.5" y="-212.5" font-family="Helvetica,sans-Serif" font-size="10.00">+ makePredictBehavior()</text>
<text text-anchor="start" x="7.5" y="-201.5" font-family="Helvetica,sans-Serif" font-size="10.00">+ makePredictBehavior()</text>
<text text-anchor="start" x="7.5" y="-190.5" font-family="Helvetica,sans-Serif" font-size="10.00">+ makeNeuron()</text>
<text text-anchor="start" x="7.5" y="-179.5" font-family="Helvetica,sans-Serif" font-size="10.00">+ makeNeuronContainer()</text>
</a>
</g>
<!-- Node2&#45;&gt;Node1 -->
<g id="edge2" class="edge"><title>Node2&#45;&gt;Node1</title>
<path fill="none" stroke="midnightblue" d="M67,-162.317C67,-153.296 67,-144.088 67,-135.143"/>
<polygon fill="none" stroke="midnightblue" points="63.5001,-162.398 67,-172.398 70.5001,-162.398 63.5001,-162.398"/>
</g>
</g>
</svg>
