<?xml version="1.0" encoding="UTF-8" standalone="no"?>
<!DOCTYPE svg PUBLIC "-//W3C//DTD SVG 1.1//EN"
 "http://www.w3.org/Graphics/SVG/1.1/DTD/svg11.dtd">
<!-- Generated by graphviz version 2.28.0 (20110610.2051)
 -->
<!-- Title: G Pages: 1 -->
<svg width="366pt" height="142pt"
 viewBox="0.00 0.00 366.00 142.00" xmlns="http://www.w3.org/2000/svg" xmlns:xlink="http://www.w3.org/1999/xlink">
<g id="graph1" class="graph" transform="scale(1 1) rotate(0) translate(4 138)">
<title>G</title>
<polygon fill="white" stroke="white" points="-4,5 -4,-138 363,-138 363,5 -4,5"/>
<!-- Node1 -->
<g id="node1" class="node"><title>Node1</title>
<polygon fill="#bfbfbf" stroke="black" points="0.5,-57.5 0.5,-76.5 115.5,-76.5 115.5,-57.5 0.5,-57.5"/>
<text text-anchor="middle" x="58" y="-64.5" font-family="Helvetica,sans-Serif" font-size="10.00">MLPbehavior::predict</text>
</g>
<!-- Node2 -->
<g id="node3" class="node"><title>Node2</title>
<a xlink:href="class_predict_behavior.html#ae13310624d8ea02168c15e86759758fc" target="_top" xlink:title="PredictBehavior::getConIterator">
<polygon fill="white" stroke="black" points="173,-114.5 173,-133.5 337,-133.5 337,-114.5 173,-114.5"/>
<text text-anchor="middle" x="255" y="-121.5" font-family="Helvetica,sans-Serif" font-size="10.00">PredictBehavior::getConIterator</text>
</a>
</g>
<!-- Node1&#45;&gt;Node2 -->
<g id="edge2" class="edge"><title>Node1&#45;&gt;Node2</title>
<path fill="none" stroke="midnightblue" d="M78.894,-76.5156C97.4416,-85.0507 126.064,-97.3723 152,-105 161.526,-107.802 171.679,-110.278 181.748,-112.438"/>
<polygon fill="midnightblue" stroke="midnightblue" points="181.262,-115.912 191.761,-114.495 182.67,-109.055 181.262,-115.912"/>
</g>
<!-- Node3 -->
<g id="node5" class="node"><title>Node3</title>
<a xlink:href="class_predict_behavior.html#ae0c61e493d55b658161b96a8d7b62819" target="_top" xlink:title="PredictBehavior::setInducedLocalField">
<polygon fill="white" stroke="black" points="157.5,-76.5 157.5,-95.5 352.5,-95.5 352.5,-76.5 157.5,-76.5"/>
<text text-anchor="middle" x="255" y="-83.5" font-family="Helvetica,sans-Serif" font-size="10.00">PredictBehavior::setInducedLocalField</text>
</a>
</g>
<!-- Node1&#45;&gt;Node3 -->
<g id="edge4" class="edge"><title>Node1&#45;&gt;Node3</title>
<path fill="none" stroke="midnightblue" d="M115.664,-72.5211C125.651,-73.4942 136.336,-74.5353 147.175,-75.5914"/>
<polygon fill="midnightblue" stroke="midnightblue" points="146.866,-79.0778 157.158,-76.5641 147.545,-72.1108 146.866,-79.0778"/>
</g>
<!-- Node4 -->
<g id="node7" class="node"><title>Node4</title>
<a xlink:href="class_predict_behavior.html#afeabe1f543e46d41909b41816d8210a6" target="_top" xlink:title="PredictBehavior::setOutput">
<polygon fill="white" stroke="black" points="183.5,-38.5 183.5,-57.5 326.5,-57.5 326.5,-38.5 183.5,-38.5"/>
<text text-anchor="middle" x="255" y="-45.5" font-family="Helvetica,sans-Serif" font-size="10.00">PredictBehavior::setOutput</text>
</a>
</g>
<!-- Node1&#45;&gt;Node4 -->
<g id="edge6" class="edge"><title>Node1&#45;&gt;Node4</title>
<path fill="none" stroke="midnightblue" d="M115.664,-61.4789C133.667,-59.7248 153.936,-57.7498 173.295,-55.8636"/>
<polygon fill="midnightblue" stroke="midnightblue" points="173.705,-59.3403 183.318,-54.8869 173.026,-52.3733 173.705,-59.3403"/>
</g>
<!-- Node5 -->
<g id="node9" class="node"><title>Node5</title>
<a xlink:href="class_predict_behavior.html#a699f23b6abd42f900ef991ac172a6f64" target="_top" xlink:title="PredictBehavior::useActivationFunctionf0">
<polygon fill="white" stroke="black" points="152,-0.5 152,-19.5 358,-19.5 358,-0.5 152,-0.5"/>
<text text-anchor="middle" x="255" y="-7.5" font-family="Helvetica,sans-Serif" font-size="10.00">PredictBehavior::useActivationFunctionf0</text>
</a>
</g>
<!-- Node1&#45;&gt;Node5 -->
<g id="edge8" class="edge"><title>Node1&#45;&gt;Node5</title>
<path fill="none" stroke="midnightblue" d="M78.894,-57.4844C97.4416,-48.9493 126.064,-36.6277 152,-29 161.526,-26.1984 171.679,-23.7223 181.748,-21.5615"/>
<polygon fill="midnightblue" stroke="midnightblue" points="182.67,-24.9453 191.761,-19.5054 181.262,-18.0884 182.67,-24.9453"/>
</g>
</g>
</svg>
