<?xml version="1.0" encoding="UTF-8" standalone="no"?>
<!DOCTYPE svg PUBLIC "-//W3C//DTD SVG 1.1//EN"
 "http://www.w3.org/Graphics/SVG/1.1/DTD/svg11.dtd">
<!-- Generated by graphviz version 2.28.0 (20110610.2051)
 -->
<!-- Title: G Pages: 1 -->
<svg width="90pt" height="160pt"
 viewBox="0.00 0.00 90.00 160.00" xmlns="http://www.w3.org/2000/svg" xmlns:xlink="http://www.w3.org/1999/xlink">
<g id="graph1" class="graph" transform="scale(1 1) rotate(0) translate(4 156)">
<title>G</title>
<polygon fill="white" stroke="white" points="-4,5 -4,-156 87,-156 87,5 -4,5"/>
<!-- Node1 -->
<g id="node1" class="node"><title>Node1</title>
<polygon fill="#bfbfbf" stroke="black" points="0,-0.5 0,-57.5 82,-57.5 82,-0.5 0,-0.5"/>
<text text-anchor="middle" x="41" y="-45.5" font-family="Helvetica,sans-Serif" font-size="10.00">MLPneuralNet</text>
<polyline fill="none" stroke="black" points="0,-38.5 82,-38.5 "/>
<text text-anchor="start" x="8" y="-26.5" font-family="Helvetica,sans-Serif" font-size="10.00">&#45; nLayers</text>
<polyline fill="none" stroke="black" points="0,-19.5 82,-19.5 "/>
<text text-anchor="middle" x="41" y="-7.5" font-family="Helvetica,sans-Serif" font-size="10.00"> </text>
</g>
<!-- Node2 -->
<g id="node2" class="node"><title>Node2</title>
<a xlink:href="class_neural_net.html" target="_top" xlink:title="{NeuralNet\n||+ train()\l}">
<polygon fill="white" stroke="black" points="9.5,-94.5 9.5,-151.5 72.5,-151.5 72.5,-94.5 9.5,-94.5"/>
<text text-anchor="middle" x="41" y="-139.5" font-family="Helvetica,sans-Serif" font-size="10.00">NeuralNet</text>
<polyline fill="none" stroke="black" points="9.5,-132.5 72.5,-132.5 "/>
<text text-anchor="middle" x="41" y="-120.5" font-family="Helvetica,sans-Serif" font-size="10.00"> </text>
<polyline fill="none" stroke="black" points="9.5,-113.5 72.5,-113.5 "/>
<text text-anchor="start" x="17.5" y="-101.5" font-family="Helvetica,sans-Serif" font-size="10.00">+ train()</text>
</a>
</g>
<!-- Node2&#45;&gt;Node1 -->
<g id="edge2" class="edge"><title>Node2&#45;&gt;Node1</title>
<path fill="none" stroke="midnightblue" d="M41,-84.2092C41,-75.2929 41,-65.9513 41,-57.5836"/>
<polygon fill="none" stroke="midnightblue" points="37.5001,-84.3969 41,-94.397 44.5001,-84.397 37.5001,-84.3969"/>
</g>
</g>
</svg>
