<?xml version="1.0" encoding="UTF-8" standalone="no"?>
<!DOCTYPE svg PUBLIC "-//W3C//DTD SVG 1.1//EN"
 "http://www.w3.org/Graphics/SVG/1.1/DTD/svg11.dtd">
<!-- Generated by graphviz version 2.28.0 (20110610.2051)
 -->
<!-- Title: G Pages: 1 -->
<svg width="336pt" height="572pt"
 viewBox="0.00 0.00 336.00 572.00" xmlns="http://www.w3.org/2000/svg" xmlns:xlink="http://www.w3.org/1999/xlink">
<g id="graph1" class="graph" transform="scale(1 1) rotate(0) translate(4 568)">
<title>G</title>
<polygon fill="white" stroke="white" points="-4,5 -4,-568 333,-568 333,5 -4,5"/>
<!-- Node1 -->
<g id="node1" class="node"><title>Node1</title>
<polygon fill="#bfbfbf" stroke="black" points="76,-1 76,-69 282,-69 282,-1 76,-1"/>
<text text-anchor="middle" x="179" y="-57" font-family="Helvetica,sans-Serif" font-size="10.00">ADAPTgdwmOutputNeuronTrainBehavior</text>
<polyline fill="none" stroke="black" points="76,-50 282,-50 "/>
<text text-anchor="start" x="84" y="-38" font-family="Helvetica,sans-Serif" font-size="10.00">&#45; d_costFunction</text>
<polyline fill="none" stroke="black" points="76,-31 282,-31 "/>
<text text-anchor="start" x="84" y="-19" font-family="Helvetica,sans-Serif" font-size="10.00">&#45; singlePatternBackwardAction()</text>
<text text-anchor="start" x="84" y="-8" font-family="Helvetica,sans-Serif" font-size="10.00">&#45; endOfEpochAction()</text>
</g>
<!-- Node2 -->
<g id="node2" class="node"><title>Node2</title>
<a xlink:href="class_a_d_a_p_tgdwm_neuron_train_behavior.html" target="_top" xlink:title="class ADAPTgdwmNeuronTrainBehavior &#45;">
<polygon fill="white" stroke="black" points="92,-109 92,-221 266,-221 266,-109 92,-109"/>
<text text-anchor="middle" x="179" y="-209" font-family="Helvetica,sans-Serif" font-size="10.00">ADAPTgdwmNeuronTrainBehavior</text>
<polyline fill="none" stroke="black" points="92,-202 266,-202 "/>
<text text-anchor="start" x="100" y="-190" font-family="Helvetica,sans-Serif" font-size="10.00"># d_delta</text>
<text text-anchor="start" x="100" y="-179" font-family="Helvetica,sans-Serif" font-size="10.00"># d_learningRate</text>
<text text-anchor="start" x="100" y="-168" font-family="Helvetica,sans-Serif" font-size="10.00"># d_momentum</text>
<text text-anchor="start" x="100" y="-157" font-family="Helvetica,sans-Serif" font-size="10.00"># d_formerWeightChange</text>
<text text-anchor="start" x="100" y="-146" font-family="Helvetica,sans-Serif" font-size="10.00"># d_formerBiasChange</text>
<polyline fill="none" stroke="black" points="92,-139 266,-139 "/>
<text text-anchor="start" x="100" y="-127" font-family="Helvetica,sans-Serif" font-size="10.00">+ singlePatternBackwardAction()</text>
<text text-anchor="start" x="100" y="-116" font-family="Helvetica,sans-Serif" font-size="10.00">+ endOfEpochAction()</text>
</a>
</g>
<!-- Node2&#45;&gt;Node1 -->
<g id="edge2" class="edge"><title>Node2&#45;&gt;Node1</title>
<path fill="none" stroke="midnightblue" d="M179,-98.7462C179,-88.494 179,-78.2848 179,-69.1713"/>
<polygon fill="none" stroke="midnightblue" points="175.5,-98.9736 179,-108.974 182.5,-98.9737 175.5,-98.9736"/>
</g>
<!-- Node3 -->
<g id="node4" class="node"><title>Node3</title>
<a xlink:href="class_adapt_neuron_train_behavior.html" target="_top" xlink:title="class AdaptNeuronTrainBehavior &#45;">
<polygon fill="white" stroke="black" points="-0.5,-271 -0.5,-339 168.5,-339 168.5,-271 -0.5,-271"/>
<text text-anchor="middle" x="84" y="-327" font-family="Helvetica,sans-Serif" font-size="10.00">AdaptNeuronTrainBehavior</text>
<polyline fill="none" stroke="black" points="-0.5,-320 168.5,-320 "/>
<text text-anchor="middle" x="84" y="-308" font-family="Helvetica,sans-Serif" font-size="10.00"> </text>
<polyline fill="none" stroke="black" points="-0.5,-301 168.5,-301 "/>
<text text-anchor="start" x="7.5" y="-289" font-family="Helvetica,sans-Serif" font-size="10.00">+ singlePatternBackwardAction()</text>
<text text-anchor="start" x="7.5" y="-278" font-family="Helvetica,sans-Serif" font-size="10.00">+ endOfEpochAction()</text>
</a>
</g>
<!-- Node3&#45;&gt;Node2 -->
<g id="edge4" class="edge"><title>Node3&#45;&gt;Node2</title>
<path fill="none" stroke="midnightblue" d="M112.478,-262.631C121.452,-249.596 131.51,-234.985 141.035,-221.149"/>
<polygon fill="none" stroke="midnightblue" points="109.542,-260.724 106.755,-270.946 115.308,-264.693 109.542,-260.724"/>
</g>
<!-- Node4 -->
<g id="node6" class="node"><title>Node4</title>
<a xlink:href="class_neuron_train_behavior.html" target="_top" xlink:title="class NeuronTrainBehavior &#45;">
<polygon fill="white" stroke="black" points="-0.5,-389 -0.5,-457 168.5,-457 168.5,-389 -0.5,-389"/>
<text text-anchor="middle" x="84" y="-445" font-family="Helvetica,sans-Serif" font-size="10.00">NeuronTrainBehavior</text>
<polyline fill="none" stroke="black" points="-0.5,-438 168.5,-438 "/>
<text text-anchor="start" x="7.5" y="-426" font-family="Helvetica,sans-Serif" font-size="10.00"># d_neuron</text>
<polyline fill="none" stroke="black" points="-0.5,-419 168.5,-419 "/>
<text text-anchor="start" x="7.5" y="-407" font-family="Helvetica,sans-Serif" font-size="10.00">+ singlePatternBackwardAction()</text>
<text text-anchor="start" x="7.5" y="-396" font-family="Helvetica,sans-Serif" font-size="10.00">+ endOfEpochAction()</text>
</a>
</g>
<!-- Node4&#45;&gt;Node3 -->
<g id="edge6" class="edge"><title>Node4&#45;&gt;Node3</title>
<path fill="none" stroke="midnightblue" d="M84,-378.596C84,-365.574 84,-351.502 84,-339.246"/>
<polygon fill="none" stroke="midnightblue" points="80.5001,-378.759 84,-388.759 87.5001,-378.759 80.5001,-378.759"/>
</g>
<!-- Node5 -->
<g id="node8" class="node"><title>Node5</title>
<polygon fill="white" stroke="#bfbfbf" points="186.5,-276.5 186.5,-333.5 301.5,-333.5 301.5,-276.5 186.5,-276.5"/>
<text text-anchor="middle" x="244" y="-321.5" font-family="Helvetica,sans-Serif" font-size="10.00">std::vector&lt; double &gt;</text>
<polyline fill="none" stroke="#bfbfbf" points="186.5,-314.5 301.5,-314.5 "/>
<text text-anchor="start" x="194.5" y="-302.5" font-family="Helvetica,sans-Serif" font-size="10.00">&#45; elements</text>
<polyline fill="none" stroke="#bfbfbf" points="186.5,-295.5 301.5,-295.5 "/>
<text text-anchor="middle" x="244" y="-283.5" font-family="Helvetica,sans-Serif" font-size="10.00"> </text>
</g>
<!-- Node5&#45;&gt;Node2 -->
<g id="edge8" class="edge"><title>Node5&#45;&gt;Node2</title>
<path fill="none" stroke="#9a32cd" stroke-dasharray="5,2" d="M226.604,-267.067C219.974,-252.992 212.267,-236.628 205.009,-221.219"/>
<polygon fill="#9a32cd" stroke="#9a32cd" points="231.003,-276.405 222.67,-269.276 228.872,-271.882 226.741,-267.359 226.741,-267.359 226.741,-267.359 228.872,-271.882 230.812,-265.441 231.003,-276.405 231.003,-276.405"/>
<text text-anchor="middle" x="273.5" y="-243.5" font-family="Helvetica,sans-Serif" font-size="10.00">d_formerWeightChange</text>
</g>
<!-- Node6 -->
<g id="node10" class="node"><title>Node6</title>
<a xlink:title="STL class.">
<polygon fill="white" stroke="#bfbfbf" points="199.5,-394.5 199.5,-451.5 288.5,-451.5 288.5,-394.5 199.5,-394.5"/>
<text text-anchor="middle" x="244" y="-439.5" font-family="Helvetica,sans-Serif" font-size="10.00">std::vector&lt; T &gt;</text>
<polyline fill="none" stroke="#bfbfbf" points="199.5,-432.5 288.5,-432.5 "/>
<text text-anchor="start" x="207.5" y="-420.5" font-family="Helvetica,sans-Serif" font-size="10.00">&#45; elements</text>
<polyline fill="none" stroke="#bfbfbf" points="199.5,-413.5 288.5,-413.5 "/>
<text text-anchor="middle" x="244" y="-401.5" font-family="Helvetica,sans-Serif" font-size="10.00"> </text>
</a>
</g>
<!-- Node6&#45;&gt;Node5 -->
<g id="edge10" class="edge"><title>Node6&#45;&gt;Node5</title>
<path fill="none" stroke="orange" stroke-dasharray="5,2" d="M244,-383.837C244,-367.417 244,-348.585 244,-333.558"/>
<polygon fill="orange" stroke="orange" points="240.5,-384.215 244,-394.215 247.5,-384.215 240.5,-384.215"/>
<text text-anchor="middle" x="268.5" y="-361.5" font-family="Helvetica,sans-Serif" font-size="10.00">&lt; double &gt;</text>
</g>
<!-- Node7 -->
<g id="node12" class="node"><title>Node7</title>
<polygon fill="white" stroke="#bfbfbf" points="229.5,-506.5 229.5,-563.5 258.5,-563.5 258.5,-506.5 229.5,-506.5"/>
<text text-anchor="middle" x="244" y="-551.5" font-family="Helvetica,sans-Serif" font-size="10.00">T</text>
<polyline fill="none" stroke="#bfbfbf" points="229.5,-544.5 258.5,-544.5 "/>
<text text-anchor="middle" x="244" y="-532.5" font-family="Helvetica,sans-Serif" font-size="10.00"> </text>
<polyline fill="none" stroke="#bfbfbf" points="229.5,-525.5 258.5,-525.5 "/>
<text text-anchor="middle" x="244" y="-513.5" font-family="Helvetica,sans-Serif" font-size="10.00"> </text>
</g>
<!-- Node7&#45;&gt;Node6 -->
<g id="edge12" class="edge"><title>Node7&#45;&gt;Node6</title>
<path fill="none" stroke="#9a32cd" stroke-dasharray="5,2" d="M244,-496.027C244,-481.478 244,-465.166 244,-451.749"/>
<polygon fill="#9a32cd" stroke="#9a32cd" points="244,-506.242 239.5,-496.242 244,-501.242 244,-496.242 244,-496.242 244,-496.242 244,-501.242 248.5,-496.242 244,-506.242 244,-506.242"/>
<text text-anchor="middle" x="265.5" y="-479.5" font-family="Helvetica,sans-Serif" font-size="10.00">elements</text>
</g>
</g>
</svg>
