<?xml version="1.0" encoding="UTF-8" standalone="no"?>
<!DOCTYPE svg PUBLIC "-//W3C//DTD SVG 1.1//EN"
 "http://www.w3.org/Graphics/SVG/1.1/DTD/svg11.dtd">
<!-- Generated by graphviz version 2.25.20091207.0545 (20091207.0545)
 -->
<!-- Title: G Pages: 1 -->
<svg width="562pt" height="104pt"
 viewBox="0.00 0.00 562.00 104.00" xmlns="http://www.w3.org/2000/svg" xmlns:xlink="http://www.w3.org/1999/xlink">
<g id="graph1" class="graph" transform="scale(1 1) rotate(0) translate(4 100)">
<title>G</title>
<polygon fill="white" stroke="white" points="-4,5 -4,-100 559,-100 559,5 -4,5"/>
<!-- Node1 -->
<g id="node1" class="node"><title>Node1</title>
<polygon fill="#bfbfbf" stroke="black" points="0.5,-19.5 0.5,-38.5 135.5,-38.5 135.5,-19.5 0.5,-19.5"/>
<text text-anchor="middle" x="68" y="-25.5" font-family="Helvetica,sans-Serif" font-size="10.00">ConContainer::numOfCons</text>
</g>
<!-- Node2 -->
<g id="node3" class="node"><title>Node2</title>
<a xlink:href="class_con_container.html#a387ac09ab154d21c5ad597d32b32dbc2" target="_top" xlink:title="Getter of the Id values of the vector of Cons.">
<polygon fill="white" stroke="black" points="173,-38.5 173,-57.5 277,-57.5 277,-38.5 173,-38.5"/>
<text text-anchor="middle" x="225" y="-44.5" font-family="Helvetica,sans-Serif" font-size="10.00">ConContainer::getId</text>
</a>
</g>
<!-- Node1&#45;&gt;Node2 -->
<g id="edge2" class="edge"><title>Node1&#45;&gt;Node2</title>
<path fill="none" stroke="midnightblue" d="M146.064,-38.4472C155.048,-39.5345 164.039,-40.6226 172.568,-41.6547"/>
<polygon fill="midnightblue" stroke="midnightblue" points="146.297,-34.95 135.949,-37.2232 145.456,-41.8993 146.297,-34.95"/>
</g>
<!-- Node6 -->
<g id="node11" class="node"><title>Node6</title>
<a xlink:href="class_neuron.html#ae447dce39ed04581609a83d742b585d1" target="_top" xlink:title="Neuron::numOfCons">
<polygon fill="white" stroke="black" points="172,-0.5 172,-19.5 278,-19.5 278,-0.5 172,-0.5"/>
<text text-anchor="middle" x="225" y="-6.5" font-family="Helvetica,sans-Serif" font-size="10.00">Neuron::numOfCons</text>
</a>
</g>
<!-- Node1&#45;&gt;Node6 -->
<g id="edge10" class="edge"><title>Node1&#45;&gt;Node6</title>
<path fill="none" stroke="midnightblue" d="M146.072,-19.5518C154.719,-18.5053 163.373,-17.458 171.614,-16.4607"/>
<polygon fill="midnightblue" stroke="midnightblue" points="145.456,-16.1007 135.949,-20.7768 146.297,-23.05 145.456,-16.1007"/>
</g>
<!-- Node3 -->
<g id="node5" class="node"><title>Node3</title>
<a xlink:href="class_neuron.html#aac7d538b4a5087f730ba80f19852bced" target="_top" xlink:title="Neuron::getConId">
<polygon fill="white" stroke="black" points="325.5,-76.5 325.5,-95.5 418.5,-95.5 418.5,-76.5 325.5,-76.5"/>
<text text-anchor="middle" x="372" y="-82.5" font-family="Helvetica,sans-Serif" font-size="10.00">Neuron::getConId</text>
</a>
</g>
<!-- Node2&#45;&gt;Node3 -->
<g id="edge4" class="edge"><title>Node2&#45;&gt;Node3</title>
<path fill="none" stroke="midnightblue" d="M271.855,-60.1121C292.328,-65.4044 315.99,-71.5213 335.172,-76.4799"/>
<polygon fill="midnightblue" stroke="midnightblue" points="272.652,-56.7032 262.094,-57.589 270.9,-63.4805 272.652,-56.7032"/>
</g>
<!-- Node4 -->
<g id="node7" class="node"><title>Node4</title>
<a xlink:href="class_con_container.html#aac12a3d3604db9ff715503816109470c" target="_top" xlink:title="Object validator.">
<polygon fill="white" stroke="black" points="314,-38.5 314,-57.5 430,-57.5 430,-38.5 314,-38.5"/>
<text text-anchor="middle" x="372" y="-44.5" font-family="Helvetica,sans-Serif" font-size="10.00">ConContainer::validate</text>
</a>
</g>
<!-- Node2&#45;&gt;Node4 -->
<g id="edge6" class="edge"><title>Node2&#45;&gt;Node4</title>
<path fill="none" stroke="midnightblue" d="M287.429,-48C296.218,-48 305.224,-48 313.928,-48"/>
<polygon fill="midnightblue" stroke="midnightblue" points="287.241,-44.5001 277.241,-48 287.241,-51.5001 287.241,-44.5001"/>
</g>
<!-- Node5 -->
<g id="node9" class="node"><title>Node5</title>
<a xlink:href="class_neuron.html#a95327aa80a9ec949491f214a0c159b5a" target="_top" xlink:title="Neuron::validate">
<polygon fill="white" stroke="black" points="466.5,-38.5 466.5,-57.5 553.5,-57.5 553.5,-38.5 466.5,-38.5"/>
<text text-anchor="middle" x="510" y="-44.5" font-family="Helvetica,sans-Serif" font-size="10.00">Neuron::validate</text>
</a>
</g>
<!-- Node4&#45;&gt;Node5 -->
<g id="edge8" class="edge"><title>Node4&#45;&gt;Node5</title>
<path fill="none" stroke="midnightblue" d="M440.391,-48C449.172,-48 457.965,-48 466.203,-48"/>
<polygon fill="midnightblue" stroke="midnightblue" points="440.124,-44.5001 430.124,-48 440.124,-51.5001 440.124,-44.5001"/>
</g>
<!-- Node7 -->
<g id="node13" class="node"><title>Node7</title>
<a xlink:href="class_neuron.html#a255c3597520c730d798218f7174eff1b" target="_top" xlink:title="Neuron::show">
<polygon fill="white" stroke="black" points="333.5,-0.5 333.5,-19.5 410.5,-19.5 410.5,-0.5 333.5,-0.5"/>
<text text-anchor="middle" x="372" y="-6.5" font-family="Helvetica,sans-Serif" font-size="10.00">Neuron::show</text>
</a>
</g>
<!-- Node6&#45;&gt;Node7 -->
<g id="edge12" class="edge"><title>Node6&#45;&gt;Node7</title>
<path fill="none" stroke="midnightblue" d="M288.5,-10C303.747,-10 319.579,-10 333.305,-10"/>
<polygon fill="midnightblue" stroke="midnightblue" points="288.07,-6.5001 278.07,-10 288.07,-13.5001 288.07,-6.5001"/>
</g>
</g>
</svg>
