<?xml version="1.0" encoding="UTF-8" standalone="no"?>
<!DOCTYPE svg PUBLIC "-//W3C//DTD SVG 1.1//EN"
 "http://www.w3.org/Graphics/SVG/1.1/DTD/svg11.dtd">
<!-- Generated by graphviz version 2.28.0 (20110610.2051)
 -->
<!-- Title: G Pages: 1 -->
<svg width="130pt" height="326pt"
 viewBox="0.00 0.00 130.00 326.00" xmlns="http://www.w3.org/2000/svg" xmlns:xlink="http://www.w3.org/1999/xlink">
<g id="graph1" class="graph" transform="scale(1 1) rotate(0) translate(4 322)">
<title>G</title>
<polygon fill="white" stroke="white" points="-4,5 -4,-322 127,-322 127,5 -4,5"/>
<!-- Node1 -->
<g id="node1" class="node"><title>Node1</title>
<polygon fill="#bfbfbf" stroke="black" points="0,-183 0,-317 122,-317 122,-183 0,-183"/>
<text text-anchor="middle" x="61" y="-305" font-family="Helvetica,sans-Serif" font-size="10.00">Neuron</text>
<polyline fill="none" stroke="black" points="0,-298 122,-298 "/>
<text text-anchor="start" x="8" y="-286" font-family="Helvetica,sans-Serif" font-size="10.00"># d_predictBehavior</text>
<polyline fill="none" stroke="black" points="0,-279 122,-279 "/>
<text text-anchor="start" x="8" y="-267" font-family="Helvetica,sans-Serif" font-size="10.00">+ getOutput()</text>
<text text-anchor="start" x="8" y="-256" font-family="Helvetica,sans-Serif" font-size="10.00">+ setOutput()</text>
<text text-anchor="start" x="8" y="-245" font-family="Helvetica,sans-Serif" font-size="10.00">+ getId()</text>
<text text-anchor="start" x="8" y="-234" font-family="Helvetica,sans-Serif" font-size="10.00">+ setId()</text>
<text text-anchor="start" x="8" y="-223" font-family="Helvetica,sans-Serif" font-size="10.00">+ setPredictBehavior()</text>
<text text-anchor="start" x="8" y="-212" font-family="Helvetica,sans-Serif" font-size="10.00">+ predict()</text>
<text text-anchor="start" x="8" y="-201" font-family="Helvetica,sans-Serif" font-size="10.00">+ show()</text>
<text text-anchor="start" x="8" y="-190" font-family="Helvetica,sans-Serif" font-size="10.00">+ validate()</text>
</g>
<!-- Node2 -->
<g id="node3" class="node"><title>Node2</title>
<a xlink:href="class_simple_neuron.html" target="_top" xlink:title="class SimpleNeuron &#45;">
<polygon fill="white" stroke="black" points="1.5,-0.5 1.5,-145.5 120.5,-145.5 120.5,-0.5 1.5,-0.5"/>
<text text-anchor="middle" x="61" y="-133.5" font-family="Helvetica,sans-Serif" font-size="10.00">SimpleNeuron</text>
<polyline fill="none" stroke="black" points="1.5,-126.5 120.5,-126.5 "/>
<text text-anchor="start" x="9.5" y="-114.5" font-family="Helvetica,sans-Serif" font-size="10.00">&#45; d_Id</text>
<polyline fill="none" stroke="black" points="1.5,-107.5 120.5,-107.5 "/>
<text text-anchor="start" x="9.5" y="-95.5" font-family="Helvetica,sans-Serif" font-size="10.00">+ SimpleNeuron()</text>
<text text-anchor="start" x="9.5" y="-84.5" font-family="Helvetica,sans-Serif" font-size="10.00">&#45; getOutput()</text>
<text text-anchor="start" x="9.5" y="-73.5" font-family="Helvetica,sans-Serif" font-size="10.00">&#45; setOutput()</text>
<text text-anchor="start" x="9.5" y="-62.5" font-family="Helvetica,sans-Serif" font-size="10.00">&#45; getId()</text>
<text text-anchor="start" x="9.5" y="-51.5" font-family="Helvetica,sans-Serif" font-size="10.00">&#45; setId()</text>
<text text-anchor="start" x="9.5" y="-40.5" font-family="Helvetica,sans-Serif" font-size="10.00">&#45; setPredictBehavior()</text>
<text text-anchor="start" x="9.5" y="-29.5" font-family="Helvetica,sans-Serif" font-size="10.00">&#45; predict()</text>
<text text-anchor="start" x="9.5" y="-18.5" font-family="Helvetica,sans-Serif" font-size="10.00">&#45; show()</text>
<text text-anchor="start" x="9.5" y="-7.5" font-family="Helvetica,sans-Serif" font-size="10.00">&#45; validate()</text>
</a>
</g>
<!-- Node1&#45;&gt;Node2 -->
<g id="edge2" class="edge"><title>Node1&#45;&gt;Node2</title>
<path fill="none" stroke="midnightblue" d="M61,-172.725C61,-163.686 61,-154.484 61,-145.514"/>
<polygon fill="none" stroke="midnightblue" points="57.5001,-172.84 61,-182.84 64.5001,-172.84 57.5001,-172.84"/>
</g>
</g>
</svg>
