<?xml version="1.0" encoding="UTF-8" standalone="no"?>
<!DOCTYPE svg PUBLIC "-//W3C//DTD SVG 1.1//EN"
 "http://www.w3.org/Graphics/SVG/1.1/DTD/svg11.dtd">
<!-- Generated by graphviz version 2.25.20091207.0545 (20091207.0545)
 -->
<!-- Title: G Pages: 1 -->
<svg width="382pt" height="104pt"
 viewBox="0.00 0.00 382.00 104.00" xmlns="http://www.w3.org/2000/svg" xmlns:xlink="http://www.w3.org/1999/xlink">
<g id="graph1" class="graph" transform="scale(1 1) rotate(0) translate(4 100)">
<title>G</title>
<polygon fill="white" stroke="white" points="-4,5 -4,-100 379,-100 379,5 -4,5"/>
<!-- Node1 -->
<g id="node1" class="node"><title>Node1</title>
<polygon fill="#bfbfbf" stroke="black" points="0,-19.5 0,-38.5 90,-38.5 90,-19.5 0,-19.5"/>
<text text-anchor="middle" x="45" y="-25.5" font-family="Helvetica,sans-Serif" font-size="10.00">Neuron::setFrom</text>
</g>
<!-- Node2 -->
<g id="node3" class="node"><title>Node2</title>
<a xlink:href="class_vec_con.html#a280ee1e24c44c8aeff1c4c4076322b71" target="_top" xlink:title="Setter of the from fields of the Con objects related to VecCon.">
<polygon fill="white" stroke="black" points="126.5,-19.5 126.5,-38.5 219.5,-38.5 219.5,-19.5 126.5,-19.5"/>
<text text-anchor="middle" x="173" y="-25.5" font-family="Helvetica,sans-Serif" font-size="10.00">VecCon::setFrom</text>
</a>
</g>
<!-- Node1&#45;&gt;Node2 -->
<g id="edge2" class="edge"><title>Node1&#45;&gt;Node2</title>
<path fill="none" stroke="midnightblue" d="M90.128,-29C98.5088,-29 107.364,-29 116.044,-29"/>
<polygon fill="midnightblue" stroke="midnightblue" points="116.114,-32.5001 126.114,-29 116.114,-25.5001 116.114,-32.5001"/>
</g>
<!-- Node3 -->
<g id="node5" class="node"><title>Node3</title>
<a xlink:href="class_container.html#ac5e2a75311f6e6a690ca67603490ddb1" target="_top" xlink:title="Container::begin">
<polygon fill="white" stroke="black" points="271.5,-76.5 271.5,-95.5 358.5,-95.5 358.5,-76.5 271.5,-76.5"/>
<text text-anchor="middle" x="315" y="-82.5" font-family="Helvetica,sans-Serif" font-size="10.00">Container::begin</text>
</a>
</g>
<!-- Node2&#45;&gt;Node3 -->
<g id="edge4" class="edge"><title>Node2&#45;&gt;Node3</title>
<path fill="none" stroke="midnightblue" d="M192.177,-38.5616C208.824,-46.6723 233.693,-58.3363 256,-67 261.527,-69.1464 267.407,-71.2489 273.233,-73.227"/>
<polygon fill="midnightblue" stroke="midnightblue" points="272.321,-76.6118 282.914,-76.4244 274.516,-69.9649 272.321,-76.6118"/>
</g>
<!-- Node4 -->
<g id="node7" class="node"><title>Node4</title>
<a xlink:href="class_container.html#ab8e09c25f519687468ef5b9f0fae9b3e" target="_top" xlink:title="Container::empty">
<polygon fill="white" stroke="black" points="269.5,-38.5 269.5,-57.5 360.5,-57.5 360.5,-38.5 269.5,-38.5"/>
<text text-anchor="middle" x="315" y="-44.5" font-family="Helvetica,sans-Serif" font-size="10.00">Container::empty</text>
</a>
</g>
<!-- Node2&#45;&gt;Node4 -->
<g id="edge6" class="edge"><title>Node2&#45;&gt;Node4</title>
<path fill="none" stroke="midnightblue" d="M219.89,-35.274C232.383,-36.9457 246.007,-38.7686 258.939,-40.4989"/>
<polygon fill="midnightblue" stroke="midnightblue" points="258.751,-44.0048 269.126,-41.862 259.679,-37.0666 258.751,-44.0048"/>
</g>
<!-- Node5 -->
<g id="node9" class="node"><title>Node5</title>
<a xlink:href="class_container.html#a842c3d9eca81b78b59112fde9707b091" target="_top" xlink:title="Container\&lt; Con \&gt;::size">
<polygon fill="white" stroke="black" points="256,-0.5 256,-19.5 374,-19.5 374,-0.5 256,-0.5"/>
<text text-anchor="middle" x="315" y="-6.5" font-family="Helvetica,sans-Serif" font-size="10.00">Container&lt; Con &gt;::size</text>
</a>
</g>
<!-- Node2&#45;&gt;Node5 -->
<g id="edge8" class="edge"><title>Node2&#45;&gt;Node5</title>
<path fill="none" stroke="midnightblue" d="M202.422,-19.4705C215.084,-16.9743 230.469,-14.5306 245.746,-12.5182"/>
<polygon fill="midnightblue" stroke="midnightblue" points="246.255,-15.9819 255.74,-11.2618 245.382,-9.03654 246.255,-15.9819"/>
</g>
<!-- Node2&#45;&gt;Node5 -->
<g id="edge10" class="edge"><title>Node2&#45;&gt;Node5</title>
<path fill="none" stroke="midnightblue" d="M219.89,-29.1175C237.819,-27.2717 258.075,-24.4744 275.273,-21.4463"/>
<polygon fill="midnightblue" stroke="midnightblue" points="276.346,-24.8069 285.537,-19.5375 275.066,-17.9249 276.346,-24.8069"/>
</g>
</g>
</svg>
