<?xml version="1.0" encoding="UTF-8" standalone="no"?>
<!DOCTYPE svg PUBLIC "-//W3C//DTD SVG 1.1//EN"
 "http://www.w3.org/Graphics/SVG/1.1/DTD/svg11.dtd">
<!-- Generated by graphviz version 2.25.20091207.0545 (20091207.0545)
 -->
<!-- Title: G Pages: 1 -->
<svg width="202pt" height="66pt"
 viewBox="0.00 0.00 202.00 66.00" xmlns="http://www.w3.org/2000/svg" xmlns:xlink="http://www.w3.org/1999/xlink">
<g id="graph1" class="graph" transform="scale(1 1) rotate(0) translate(4 62)">
<title>G</title>
<polygon fill="white" stroke="white" points="-4,5 -4,-62 199,-62 199,5 -4,5"/>
<!-- Node1 -->
<g id="node1" class="node"><title>Node1</title>
<polygon fill="#bfbfbf" stroke="black" points="0,-19.5 0,-38.5 84,-38.5 84,-19.5 0,-19.5"/>
<text text-anchor="middle" x="42" y="-25.5" font-family="Helvetica,sans-Serif" font-size="10.00">Con::getFromId</text>
</g>
<!-- Node2 -->
<g id="node3" class="node"><title>Node2</title>
<a xlink:href="class_con.html#ab85838575b5e01f3b8073136f2102922" target="_top" xlink:title="Pretty print of the Con information.">
<polygon fill="white" stroke="black" points="125.5,-38.5 125.5,-57.5 188.5,-57.5 188.5,-38.5 125.5,-38.5"/>
<text text-anchor="middle" x="157" y="-44.5" font-family="Helvetica,sans-Serif" font-size="10.00">Con::show</text>
</a>
</g>
<!-- Node1&#45;&gt;Node2 -->
<g id="edge2" class="edge"><title>Node1&#45;&gt;Node2</title>
<path fill="none" stroke="midnightblue" d="M94.212,-37.6263C104.814,-39.378 115.658,-41.1696 125.286,-42.7602"/>
<polygon fill="midnightblue" stroke="midnightblue" points="94.6056,-34.144 84.1688,-35.967 93.4644,-41.0504 94.6056,-34.144"/>
</g>
<!-- Node3 -->
<g id="node5" class="node"><title>Node3</title>
<a xlink:href="class_con.html#af5f836a7b0988b3d9113589b2959d5e6" target="_top" xlink:title="Object validator.">
<polygon fill="white" stroke="black" points="120,-0.5 120,-19.5 194,-19.5 194,-0.5 120,-0.5"/>
<text text-anchor="middle" x="157" y="-6.5" font-family="Helvetica,sans-Serif" font-size="10.00">Con::validate</text>
</a>
</g>
<!-- Node1&#45;&gt;Node3 -->
<g id="edge4" class="edge"><title>Node1&#45;&gt;Node3</title>
<path fill="none" stroke="midnightblue" d="M94.181,-20.3788C102.813,-18.9526 111.607,-17.4997 119.774,-16.1503"/>
<polygon fill="midnightblue" stroke="midnightblue" points="93.4644,-16.9496 84.1688,-22.033 94.6056,-23.856 93.4644,-16.9496"/>
</g>
</g>
</svg>
