<?xml version="1.0" encoding="UTF-8" standalone="no"?>
<!DOCTYPE svg PUBLIC "-//W3C//DTD SVG 1.1//EN"
 "http://www.w3.org/Graphics/SVG/1.1/DTD/svg11.dtd">
<!-- Generated by graphviz version 2.28.0 (20110610.2051)
 -->
<!-- Title: G Pages: 1 -->
<svg width="198pt" height="428pt"
 viewBox="0.00 0.00 198.00 428.00" xmlns="http://www.w3.org/2000/svg" xmlns:xlink="http://www.w3.org/1999/xlink">
<g id="graph1" class="graph" transform="scale(1 1) rotate(0) translate(4 424)">
<title>G</title>
<polygon fill="white" stroke="white" points="-4,5 -4,-424 195,-424 195,5 -4,5"/>
<!-- Node1 -->
<g id="node1" class="node"><title>Node1</title>
<polygon fill="#bfbfbf" stroke="black" points="-0.5,-1 -0.5,-69 190.5,-69 190.5,-1 -0.5,-1"/>
<text text-anchor="middle" x="95" y="-57" font-family="Helvetica,sans-Serif" font-size="10.00">BATCHgdOutputNeuronTrainBehavior</text>
<polyline fill="none" stroke="black" points="-0.5,-50 190.5,-50 "/>
<text text-anchor="start" x="7.5" y="-38" font-family="Helvetica,sans-Serif" font-size="10.00"># d_costFunction</text>
<polyline fill="none" stroke="black" points="-0.5,-31 190.5,-31 "/>
<text text-anchor="start" x="7.5" y="-19" font-family="Helvetica,sans-Serif" font-size="10.00">&#45; singlePatternBackwardAction()</text>
<text text-anchor="start" x="7.5" y="-8" font-family="Helvetica,sans-Serif" font-size="10.00">&#45; endOfEpochAction()</text>
</g>
<!-- Node2 -->
<g id="node2" class="node"><title>Node2</title>
<a xlink:href="class_b_a_t_c_hgd_neuron_train_behavior.html" target="_top" xlink:title="class BATCHgdNeuronTrainBehavior &#45;">
<polygon fill="white" stroke="black" points="10.5,-106.5 10.5,-207.5 179.5,-207.5 179.5,-106.5 10.5,-106.5"/>
<text text-anchor="middle" x="95" y="-195.5" font-family="Helvetica,sans-Serif" font-size="10.00">BATCHgdNeuronTrainBehavior</text>
<polyline fill="none" stroke="black" points="10.5,-188.5 179.5,-188.5 "/>
<text text-anchor="start" x="18.5" y="-176.5" font-family="Helvetica,sans-Serif" font-size="10.00"># d_delta</text>
<text text-anchor="start" x="18.5" y="-165.5" font-family="Helvetica,sans-Serif" font-size="10.00"># d_learningRate</text>
<text text-anchor="start" x="18.5" y="-154.5" font-family="Helvetica,sans-Serif" font-size="10.00"># d_sum_delta_x</text>
<text text-anchor="start" x="18.5" y="-143.5" font-family="Helvetica,sans-Serif" font-size="10.00"># d_sum_delta_bias</text>
<polyline fill="none" stroke="black" points="10.5,-136.5 179.5,-136.5 "/>
<text text-anchor="start" x="18.5" y="-124.5" font-family="Helvetica,sans-Serif" font-size="10.00">+ singlePatternBackwardAction()</text>
<text text-anchor="start" x="18.5" y="-113.5" font-family="Helvetica,sans-Serif" font-size="10.00">+ endOfEpochAction()</text>
</a>
</g>
<!-- Node2&#45;&gt;Node1 -->
<g id="edge2" class="edge"><title>Node2&#45;&gt;Node1</title>
<path fill="none" stroke="midnightblue" d="M95,-96.4271C95,-87.1013 95,-77.7617 95,-69.3096"/>
<polygon fill="none" stroke="midnightblue" points="91.5001,-96.4986 95,-106.499 98.5001,-96.4986 91.5001,-96.4986"/>
</g>
<!-- Node3 -->
<g id="node4" class="node"><title>Node3</title>
<a xlink:href="class_batch_neuron_train_behavior.html" target="_top" xlink:title="class BatchNeuronTrainBehavior &#45;">
<polygon fill="white" stroke="black" points="10.5,-245 10.5,-313 179.5,-313 179.5,-245 10.5,-245"/>
<text text-anchor="middle" x="95" y="-301" font-family="Helvetica,sans-Serif" font-size="10.00">BatchNeuronTrainBehavior</text>
<polyline fill="none" stroke="black" points="10.5,-294 179.5,-294 "/>
<text text-anchor="middle" x="95" y="-282" font-family="Helvetica,sans-Serif" font-size="10.00"> </text>
<polyline fill="none" stroke="black" points="10.5,-275 179.5,-275 "/>
<text text-anchor="start" x="18.5" y="-263" font-family="Helvetica,sans-Serif" font-size="10.00">+ singlePatternBackwardAction()</text>
<text text-anchor="start" x="18.5" y="-252" font-family="Helvetica,sans-Serif" font-size="10.00">+ endOfEpochAction()</text>
</a>
</g>
<!-- Node3&#45;&gt;Node2 -->
<g id="edge4" class="edge"><title>Node3&#45;&gt;Node2</title>
<path fill="none" stroke="midnightblue" d="M95,-234.831C95,-226.01 95,-216.661 95,-207.636"/>
<polygon fill="none" stroke="midnightblue" points="91.5001,-234.892 95,-244.892 98.5001,-234.892 91.5001,-234.892"/>
</g>
<!-- Node4 -->
<g id="node6" class="node"><title>Node4</title>
<a xlink:href="class_neuron_train_behavior.html" target="_top" xlink:title="class NeuronTrainBehavior &#45;">
<polygon fill="white" stroke="black" points="10.5,-351 10.5,-419 179.5,-419 179.5,-351 10.5,-351"/>
<text text-anchor="middle" x="95" y="-407" font-family="Helvetica,sans-Serif" font-size="10.00">NeuronTrainBehavior</text>
<polyline fill="none" stroke="black" points="10.5,-400 179.5,-400 "/>
<text text-anchor="start" x="18.5" y="-388" font-family="Helvetica,sans-Serif" font-size="10.00"># d_neuron</text>
<polyline fill="none" stroke="black" points="10.5,-381 179.5,-381 "/>
<text text-anchor="start" x="18.5" y="-369" font-family="Helvetica,sans-Serif" font-size="10.00">+ singlePatternBackwardAction()</text>
<text text-anchor="start" x="18.5" y="-358" font-family="Helvetica,sans-Serif" font-size="10.00">+ endOfEpochAction()</text>
</a>
</g>
<!-- Node4&#45;&gt;Node3 -->
<g id="edge6" class="edge"><title>Node4&#45;&gt;Node3</title>
<path fill="none" stroke="midnightblue" d="M95,-340.674C95,-331.502 95,-321.961 95,-313.234"/>
<polygon fill="none" stroke="midnightblue" points="91.5001,-340.808 95,-350.808 98.5001,-340.808 91.5001,-340.808"/>
</g>
</g>
</svg>
