<?xml version="1.0" encoding="UTF-8" standalone="no"?>
<!DOCTYPE svg PUBLIC "-//W3C//DTD SVG 1.1//EN"
 "http://www.w3.org/Graphics/SVG/1.1/DTD/svg11.dtd">
<!-- Generated by graphviz version 2.28.0 (20110610.2051)
 -->
<!-- Title: G Pages: 1 -->
<svg width="470pt" height="47pt"
 viewBox="0.00 0.00 470.00 47.00" xmlns="http://www.w3.org/2000/svg" xmlns:xlink="http://www.w3.org/1999/xlink">
<g id="graph1" class="graph" transform="scale(1 1) rotate(0) translate(4 43)">
<title>G</title>
<polygon fill="white" stroke="white" points="-4,5 -4,-43 467,-43 467,5 -4,5"/>
<!-- Node1 -->
<g id="node1" class="node"><title>Node1</title>
<polygon fill="#bfbfbf" stroke="black" points="0,-0.5 0,-19.5 152,-19.5 152,-0.5 0,-0.5"/>
<text text-anchor="middle" x="76" y="-7.5" font-family="Helvetica,sans-Serif" font-size="10.00">NetworkRinterface::inputSize</text>
</g>
<!-- Node2 -->
<g id="node3" class="node"><title>Node2</title>
<a xlink:href="class_network_rinterface.html#a28c63ea70e49d8771e8242107b65d62c" target="_top" xlink:title="NetworkRinterface::predict">
<polygon fill="white" stroke="black" points="188.5,-19.5 188.5,-38.5 329.5,-38.5 329.5,-19.5 188.5,-19.5"/>
<text text-anchor="middle" x="259" y="-26.5" font-family="Helvetica,sans-Serif" font-size="10.00">NetworkRinterface::predict</text>
</a>
</g>
<!-- Node1&#45;&gt;Node2 -->
<g id="edge2" class="edge"><title>Node1&#45;&gt;Node2</title>
<path fill="none" stroke="midnightblue" d="M162.336,-18.9579C171.021,-19.8697 179.771,-20.7881 188.262,-21.6795"/>
<polygon fill="midnightblue" stroke="midnightblue" points="162.499,-15.4558 152.188,-17.8926 161.768,-22.4176 162.499,-15.4558"/>
</g>
<!-- Node3 -->
<g id="node5" class="node"><title>Node3</title>
<a xlink:href="_rcpp_modules_8cpp.html#a94171cf88107253b6fcd1059f004673c" target="_top" xlink:title="RCPP_MODULE">
<polygon fill="white" stroke="black" points="366.5,-0.5 366.5,-19.5 461.5,-19.5 461.5,-0.5 366.5,-0.5"/>
<text text-anchor="middle" x="414" y="-7.5" font-family="Helvetica,sans-Serif" font-size="10.00">RCPP_MODULE</text>
</a>
</g>
<!-- Node1&#45;&gt;Node3 -->
<g id="edge6" class="edge"><title>Node1&#45;&gt;Node3</title>
<path fill="none" stroke="midnightblue" d="M162.601,-10C227.342,-10 313.783,-10 366.315,-10"/>
<polygon fill="midnightblue" stroke="midnightblue" points="162.405,-6.5001 152.405,-10 162.405,-13.5001 162.405,-6.5001"/>
</g>
<!-- Node2&#45;&gt;Node3 -->
<g id="edge4" class="edge"><title>Node2&#45;&gt;Node3</title>
<path fill="none" stroke="midnightblue" d="M339.896,-19.0783C348.852,-17.9661 357.745,-16.8617 366.085,-15.8261"/>
<polygon fill="midnightblue" stroke="midnightblue" points="339.276,-15.6282 329.784,-20.334 340.139,-22.5749 339.276,-15.6282"/>
</g>
</g>
</svg>
