<?xml version="1.0" encoding="UTF-8" standalone="no"?>
<!DOCTYPE svg PUBLIC "-//W3C//DTD SVG 1.1//EN"
 "http://www.w3.org/Graphics/SVG/1.1/DTD/svg11.dtd">
<!-- Generated by graphviz version 2.28.0 (20110610.2051)
 -->
<!-- Title: G Pages: 1 -->
<svg width="196pt" height="66pt"
 viewBox="0.00 0.00 196.00 66.00" xmlns="http://www.w3.org/2000/svg" xmlns:xlink="http://www.w3.org/1999/xlink">
<g id="graph1" class="graph" transform="scale(1 1) rotate(0) translate(4 62)">
<title>G</title>
<polygon fill="white" stroke="white" points="-4,5 -4,-62 193,-62 193,5 -4,5"/>
<!-- Node1 -->
<g id="node1" class="node"><title>Node1</title>
<polygon fill="#bfbfbf" stroke="black" points="0.5,-19.5 0.5,-38.5 77.5,-38.5 77.5,-19.5 0.5,-19.5"/>
<text text-anchor="middle" x="39" y="-26.5" font-family="Helvetica,sans-Serif" font-size="10.00">Con::validate</text>
</g>
<!-- Node2 -->
<g id="node3" class="node"><title>Node2</title>
<a xlink:href="class_con.html#aee0a0b6c5beff6e227f9ebf33af2d209" target="_top" xlink:title="A getter of the Id of the Neuron pointed by the from field.">
<polygon fill="white" stroke="black" points="126,-38.5 126,-57.5 176,-57.5 176,-38.5 126,-38.5"/>
<text text-anchor="middle" x="151" y="-45.5" font-family="Helvetica,sans-Serif" font-size="10.00">Con::Id</text>
</a>
</g>
<!-- Node1&#45;&gt;Node2 -->
<g id="edge2" class="edge"><title>Node1&#45;&gt;Node2</title>
<path fill="none" stroke="midnightblue" d="M77.5481,-35.4856C89.8713,-37.6141 103.499,-39.9679 115.578,-42.0544"/>
<polygon fill="midnightblue" stroke="midnightblue" points="115.274,-45.5536 125.724,-43.8068 116.466,-38.6558 115.274,-45.5536"/>
</g>
<!-- Node3 -->
<g id="node5" class="node"><title>Node3</title>
<a xlink:href="class_con.html#a96b1b0389be5f86d706ac9baf8fe5c49" target="_top" xlink:title="Con::weight">
<polygon fill="white" stroke="black" points="114.5,-0.5 114.5,-19.5 187.5,-19.5 187.5,-0.5 114.5,-0.5"/>
<text text-anchor="middle" x="151" y="-7.5" font-family="Helvetica,sans-Serif" font-size="10.00">Con::weight</text>
</a>
</g>
<!-- Node1&#45;&gt;Node3 -->
<g id="edge4" class="edge"><title>Node1&#45;&gt;Node3</title>
<path fill="none" stroke="midnightblue" d="M77.5481,-22.5144C86.2304,-21.0148 95.56,-19.4033 104.54,-17.8523"/>
<polygon fill="midnightblue" stroke="midnightblue" points="105.218,-21.287 114.476,-16.136 104.026,-14.3892 105.218,-21.287"/>
</g>
</g>
</svg>
