<?xml version="1.0" encoding="UTF-8" standalone="no"?>
<!DOCTYPE svg PUBLIC "-//W3C//DTD SVG 1.1//EN"
 "http://www.w3.org/Graphics/SVG/1.1/DTD/svg11.dtd">
<!-- Generated by graphviz version 2.25.20091207.0545 (20091207.0545)
 -->
<!-- Title: G Pages: 1 -->
<svg width="106pt" height="284pt"
 viewBox="0.00 0.00 106.00 284.00" xmlns="http://www.w3.org/2000/svg" xmlns:xlink="http://www.w3.org/1999/xlink">
<g id="graph1" class="graph" transform="scale(1 1) rotate(0) translate(4 280)">
<title>G</title>
<polygon fill="white" stroke="white" points="-4,5 -4,-280 103,-280 103,5 -4,5"/>
<!-- Node1 -->
<g id="node1" class="node"><title>Node1</title>
<polygon fill="#bfbfbf" stroke="black" points="12,-185 12,-275 86,-275 86,-185 12,-185"/>
<text text-anchor="middle" x="49" y="-262" font-family="Helvetica,sans-Serif" font-size="10.00">Neuron</text>
<polyline fill="none" stroke="black" points="12,-256 86,-256 "/>
<text text-anchor="start" x="20" y="-243" font-family="Helvetica,sans-Serif" font-size="10.00">&#45; Id</text>
<text text-anchor="start" x="20" y="-232" font-family="Helvetica,sans-Serif" font-size="10.00">&#45; VecCon</text>
<text text-anchor="start" x="20" y="-221" font-family="Helvetica,sans-Serif" font-size="10.00">&#45; outputValue</text>
<polyline fill="none" stroke="black" points="12,-215 86,-215 "/>
<text text-anchor="start" x="20" y="-202" font-family="Helvetica,sans-Serif" font-size="10.00">+ getId()</text>
<text text-anchor="start" x="20" y="-191" font-family="Helvetica,sans-Serif" font-size="10.00">+ setId()</text>
</g>
<!-- Node2 -->
<g id="node2" class="node"><title>Node2</title>
<a xlink:href="class_con.html" target="_top" xlink:title="A class to handle the information needed to describe an input connection.">
<polygon fill="white" stroke="black" points="-0.5,-1 -0.5,-135 98.5,-135 98.5,-1 -0.5,-1"/>
<text text-anchor="middle" x="49" y="-122" font-family="Helvetica,sans-Serif" font-size="10.00">Con</text>
<polyline fill="none" stroke="black" points="-0.5,-116 98.5,-116 "/>
<text text-anchor="start" x="7.5" y="-103" font-family="Helvetica,sans-Serif" font-size="10.00">&#45; from</text>
<text text-anchor="start" x="7.5" y="-92" font-family="Helvetica,sans-Serif" font-size="10.00">&#45; weight</text>
<polyline fill="none" stroke="black" points="-0.5,-86 98.5,-86 "/>
<text text-anchor="start" x="7.5" y="-73" font-family="Helvetica,sans-Serif" font-size="10.00">+ getFrom()</text>
<text text-anchor="start" x="7.5" y="-62" font-family="Helvetica,sans-Serif" font-size="10.00">+ setFrom()</text>
<text text-anchor="start" x="7.5" y="-51" font-family="Helvetica,sans-Serif" font-size="10.00">+ getId()</text>
<text text-anchor="start" x="7.5" y="-40" font-family="Helvetica,sans-Serif" font-size="10.00">+ getWeight()</text>
<text text-anchor="start" x="7.5" y="-29" font-family="Helvetica,sans-Serif" font-size="10.00">+ setWeight()</text>
<text text-anchor="start" x="7.5" y="-18" font-family="Helvetica,sans-Serif" font-size="10.00">+ show()</text>
<text text-anchor="start" x="7.5" y="-7" font-family="Helvetica,sans-Serif" font-size="10.00">+ validate()</text>
</a>
</g>
<!-- Node1&#45;&gt;Node2 -->
<g id="edge4" class="edge"><title>Node1&#45;&gt;Node2</title>
<path fill="none" stroke="#9a32cd" stroke-dasharray="5,2" d="M26.9957,-175.081C26.2194,-172.037 25.5436,-168.998 25,-166 23.1873,-156.003 23.4279,-145.506 24.8844,-135.248"/>
<polygon fill="#9a32cd" stroke="#9a32cd" points="29.777,-184.767 22.6918,-176.398 28.397,-179.962 27.017,-175.156 27.017,-175.156 27.017,-175.156 28.397,-179.962 31.3423,-173.914 29.777,-184.767 29.777,-184.767"/>
<text text-anchor="middle" x="35" y="-156.5" font-family="Helvetica,sans-Serif" font-size="10.00">from</text>
</g>
<!-- Node2&#45;&gt;Node1 -->
<g id="edge2" class="edge"><title>Node2&#45;&gt;Node1</title>
<path fill="none" stroke="#9a32cd" stroke-dasharray="5,2" d="M49,-145.558C49,-159.035 49,-172.639 49,-184.874"/>
<polygon fill="#9a32cd" stroke="#9a32cd" points="49,-135.303 53.5001,-145.302 49,-140.303 49.0001,-145.303 49.0001,-145.303 49.0001,-145.303 49,-140.303 44.5001,-145.303 49,-135.303 49,-135.303"/>
<text text-anchor="middle" x="66" y="-156.5" font-family="Helvetica,sans-Serif" font-size="10.00">VecCon</text>
</g>
</g>
</svg>
