<?xml version="1.0" encoding="UTF-8" standalone="no"?>
<!DOCTYPE svg PUBLIC "-//W3C//DTD SVG 1.1//EN"
 "http://www.w3.org/Graphics/SVG/1.1/DTD/svg11.dtd">
<!-- Generated by graphviz version 2.28.0 (20110610.2051)
 -->
<!-- Title: G Pages: 1 -->
<svg width="1132pt" height="216pt"
 viewBox="0.00 0.00 1132.00 216.00" xmlns="http://www.w3.org/2000/svg" xmlns:xlink="http://www.w3.org/1999/xlink">
<g id="graph1" class="graph" transform="scale(1 1) rotate(0) translate(4 212)">
<title>G</title>
<polygon fill="white" stroke="white" points="-4,5 -4,-212 1129,-212 1129,5 -4,5"/>
<!-- Node1 -->
<g id="node1" class="node"><title>Node1</title>
<polygon fill="#bfbfbf" stroke="black" points="485,-117 485,-207 617,-207 617,-117 485,-117"/>
<text text-anchor="middle" x="551" y="-195" font-family="Helvetica,sans-Serif" font-size="10.00">ActivationFunction</text>
<polyline fill="none" stroke="black" points="485,-188 617,-188 "/>
<text text-anchor="start" x="493" y="-176" font-family="Helvetica,sans-Serif" font-size="10.00"># d_neuron</text>
<polyline fill="none" stroke="black" points="485,-169 617,-169 "/>
<text text-anchor="start" x="493" y="-157" font-family="Helvetica,sans-Serif" font-size="10.00">+ f0()</text>
<text text-anchor="start" x="493" y="-146" font-family="Helvetica,sans-Serif" font-size="10.00">+ f1()</text>
<text text-anchor="start" x="493" y="-135" font-family="Helvetica,sans-Serif" font-size="10.00"># ActivationFunction()</text>
<text text-anchor="start" x="493" y="-124" font-family="Helvetica,sans-Serif" font-size="10.00"># getInducedLocalField()</text>
</g>
<!-- Node2 -->
<g id="node3" class="node"><title>Node2</title>
<a xlink:href="class_arc_tan.html" target="_top" xlink:title="class ArcTan &#45;">
<polygon fill="white" stroke="black" points="-0.5,-0.5 -0.5,-79.5 62.5,-79.5 62.5,-0.5 -0.5,-0.5"/>
<text text-anchor="middle" x="31" y="-67.5" font-family="Helvetica,sans-Serif" font-size="10.00">ArcTan</text>
<polyline fill="none" stroke="black" points="-0.5,-60.5 62.5,-60.5 "/>
<text text-anchor="middle" x="31" y="-48.5" font-family="Helvetica,sans-Serif" font-size="10.00"> </text>
<polyline fill="none" stroke="black" points="-0.5,-41.5 62.5,-41.5 "/>
<text text-anchor="start" x="7.5" y="-29.5" font-family="Helvetica,sans-Serif" font-size="10.00">+ Arctan()</text>
<text text-anchor="start" x="7.5" y="-18.5" font-family="Helvetica,sans-Serif" font-size="10.00">+ f0()</text>
<text text-anchor="start" x="7.5" y="-7.5" font-family="Helvetica,sans-Serif" font-size="10.00">+ f1()</text>
</a>
</g>
<!-- Node1&#45;&gt;Node2 -->
<g id="edge2" class="edge"><title>Node1&#45;&gt;Node2</title>
<path fill="none" stroke="midnightblue" d="M474.776,-161.591C376.573,-159.427 202.942,-145.522 72,-80 68.8372,-78.4174 65.7532,-76.5086 62.7883,-74.3968"/>
<polygon fill="none" stroke="midnightblue" points="474.85,-165.093 484.913,-161.778 474.979,-158.094 474.85,-165.093"/>
</g>
<!-- Node3 -->
<g id="node5" class="node"><title>Node3</title>
<a xlink:href="class_cosine.html" target="_top" xlink:title="class Cosine &#45;">
<polygon fill="white" stroke="black" points="81,-0.5 81,-79.5 147,-79.5 147,-0.5 81,-0.5"/>
<text text-anchor="middle" x="114" y="-67.5" font-family="Helvetica,sans-Serif" font-size="10.00">Cosine</text>
<polyline fill="none" stroke="black" points="81,-60.5 147,-60.5 "/>
<text text-anchor="middle" x="114" y="-48.5" font-family="Helvetica,sans-Serif" font-size="10.00"> </text>
<polyline fill="none" stroke="black" points="81,-41.5 147,-41.5 "/>
<text text-anchor="start" x="89" y="-29.5" font-family="Helvetica,sans-Serif" font-size="10.00">+ Cosine()</text>
<text text-anchor="start" x="89" y="-18.5" font-family="Helvetica,sans-Serif" font-size="10.00">+ f0()</text>
<text text-anchor="start" x="89" y="-7.5" font-family="Helvetica,sans-Serif" font-size="10.00">+ f1()</text>
</a>
</g>
<!-- Node1&#45;&gt;Node3 -->
<g id="edge4" class="edge"><title>Node1&#45;&gt;Node3</title>
<path fill="none" stroke="midnightblue" d="M474.768,-157.538C392.117,-151.092 258.324,-132.664 156,-80 152.992,-78.4518 150.042,-76.6269 147.188,-74.6261"/>
<polygon fill="none" stroke="midnightblue" points="474.606,-161.035 484.837,-158.283 475.123,-154.054 474.606,-161.035"/>
</g>
<!-- Node4 -->
<g id="node7" class="node"><title>Node4</title>
<a xlink:href="class_elliot.html" target="_top" xlink:title="class Elliot &#45;">
<polygon fill="white" stroke="black" points="165.5,-0.5 165.5,-79.5 222.5,-79.5 222.5,-0.5 165.5,-0.5"/>
<text text-anchor="middle" x="194" y="-67.5" font-family="Helvetica,sans-Serif" font-size="10.00">Elliot</text>
<polyline fill="none" stroke="black" points="165.5,-60.5 222.5,-60.5 "/>
<text text-anchor="middle" x="194" y="-48.5" font-family="Helvetica,sans-Serif" font-size="10.00"> </text>
<polyline fill="none" stroke="black" points="165.5,-41.5 222.5,-41.5 "/>
<text text-anchor="start" x="173.5" y="-29.5" font-family="Helvetica,sans-Serif" font-size="10.00">+ Elliot()</text>
<text text-anchor="start" x="173.5" y="-18.5" font-family="Helvetica,sans-Serif" font-size="10.00">+ f0()</text>
<text text-anchor="start" x="173.5" y="-7.5" font-family="Helvetica,sans-Serif" font-size="10.00">+ f1()</text>
</a>
</g>
<!-- Node1&#45;&gt;Node4 -->
<g id="edge6" class="edge"><title>Node1&#45;&gt;Node4</title>
<path fill="none" stroke="midnightblue" d="M474.523,-153.801C406.674,-144.689 306.846,-124.42 231,-80 228.101,-78.302 225.285,-76.3103 222.587,-74.1411"/>
<polygon fill="none" stroke="midnightblue" points="474.345,-157.307 484.711,-155.118 475.242,-150.365 474.345,-157.307"/>
</g>
<!-- Node5 -->
<g id="node9" class="node"><title>Node5</title>
<a xlink:href="class_exponential.html" target="_top" xlink:title="class Exponential &#45;">
<polygon fill="white" stroke="black" points="240.5,-0.5 240.5,-79.5 329.5,-79.5 329.5,-0.5 240.5,-0.5"/>
<text text-anchor="middle" x="285" y="-67.5" font-family="Helvetica,sans-Serif" font-size="10.00">Exponential</text>
<polyline fill="none" stroke="black" points="240.5,-60.5 329.5,-60.5 "/>
<text text-anchor="middle" x="285" y="-48.5" font-family="Helvetica,sans-Serif" font-size="10.00"> </text>
<polyline fill="none" stroke="black" points="240.5,-41.5 329.5,-41.5 "/>
<text text-anchor="start" x="248.5" y="-29.5" font-family="Helvetica,sans-Serif" font-size="10.00">+ Exponential()</text>
<text text-anchor="start" x="248.5" y="-18.5" font-family="Helvetica,sans-Serif" font-size="10.00">+ f0()</text>
<text text-anchor="start" x="248.5" y="-7.5" font-family="Helvetica,sans-Serif" font-size="10.00">+ f1()</text>
</a>
</g>
<!-- Node1&#45;&gt;Node5 -->
<g id="edge8" class="edge"><title>Node1&#45;&gt;Node5</title>
<path fill="none" stroke="midnightblue" d="M475.114,-137.747C433.429,-123.605 381.511,-103.707 338,-80 335.191,-78.4696 332.363,-76.8074 329.553,-75.0605"/>
<polygon fill="none" stroke="midnightblue" points="474.067,-141.087 484.66,-140.945 476.291,-134.449 474.067,-141.087"/>
</g>
<!-- Node6 -->
<g id="node11" class="node"><title>Node6</title>
<a xlink:href="class_gauss.html" target="_top" xlink:title="class Gauss &#45;">
<polygon fill="white" stroke="black" points="347.5,-0.5 347.5,-79.5 410.5,-79.5 410.5,-0.5 347.5,-0.5"/>
<text text-anchor="middle" x="379" y="-67.5" font-family="Helvetica,sans-Serif" font-size="10.00">Gauss</text>
<polyline fill="none" stroke="black" points="347.5,-60.5 410.5,-60.5 "/>
<text text-anchor="middle" x="379" y="-48.5" font-family="Helvetica,sans-Serif" font-size="10.00"> </text>
<polyline fill="none" stroke="black" points="347.5,-41.5 410.5,-41.5 "/>
<text text-anchor="start" x="355.5" y="-29.5" font-family="Helvetica,sans-Serif" font-size="10.00">+ Gauss()</text>
<text text-anchor="start" x="355.5" y="-18.5" font-family="Helvetica,sans-Serif" font-size="10.00">+ f0()</text>
<text text-anchor="start" x="355.5" y="-7.5" font-family="Helvetica,sans-Serif" font-size="10.00">+ f1()</text>
</a>
</g>
<!-- Node1&#45;&gt;Node6 -->
<g id="edge10" class="edge"><title>Node1&#45;&gt;Node6</title>
<path fill="none" stroke="midnightblue" d="M476.225,-119.096C457.005,-107.264 436.753,-93.8231 419,-80 416.245,-77.8549 413.474,-75.5419 410.746,-73.1506"/>
<polygon fill="none" stroke="midnightblue" points="474.607,-122.209 484.97,-124.415 478.245,-116.228 474.607,-122.209"/>
</g>
<!-- Node7 -->
<g id="node13" class="node"><title>Node7</title>
<a xlink:href="class_identity.html" target="_top" xlink:title="class Identity &#45;">
<polygon fill="white" stroke="black" points="428.5,-0.5 428.5,-79.5 497.5,-79.5 497.5,-0.5 428.5,-0.5"/>
<text text-anchor="middle" x="463" y="-67.5" font-family="Helvetica,sans-Serif" font-size="10.00">Identity</text>
<polyline fill="none" stroke="black" points="428.5,-60.5 497.5,-60.5 "/>
<text text-anchor="middle" x="463" y="-48.5" font-family="Helvetica,sans-Serif" font-size="10.00"> </text>
<polyline fill="none" stroke="black" points="428.5,-41.5 497.5,-41.5 "/>
<text text-anchor="start" x="436.5" y="-29.5" font-family="Helvetica,sans-Serif" font-size="10.00">+ Identity()</text>
<text text-anchor="start" x="436.5" y="-18.5" font-family="Helvetica,sans-Serif" font-size="10.00">+ f0()</text>
<text text-anchor="start" x="436.5" y="-7.5" font-family="Helvetica,sans-Serif" font-size="10.00">+ f1()</text>
</a>
</g>
<!-- Node1&#45;&gt;Node7 -->
<g id="edge12" class="edge"><title>Node1&#45;&gt;Node7</title>
<path fill="none" stroke="midnightblue" d="M512.79,-108.896C505.638,-99.1434 498.279,-89.1079 491.486,-79.844"/>
<polygon fill="none" stroke="midnightblue" points="509.996,-111.004 518.732,-116.998 515.64,-106.864 509.996,-111.004"/>
</g>
<!-- Node8 -->
<g id="node15" class="node"><title>Node8</title>
<a xlink:href="class_logistic.html" target="_top" xlink:title="class Logistic &#45;">
<polygon fill="white" stroke="black" points="515.5,-0.5 515.5,-79.5 586.5,-79.5 586.5,-0.5 515.5,-0.5"/>
<text text-anchor="middle" x="551" y="-67.5" font-family="Helvetica,sans-Serif" font-size="10.00">Logistic</text>
<polyline fill="none" stroke="black" points="515.5,-60.5 586.5,-60.5 "/>
<text text-anchor="middle" x="551" y="-48.5" font-family="Helvetica,sans-Serif" font-size="10.00"> </text>
<polyline fill="none" stroke="black" points="515.5,-41.5 586.5,-41.5 "/>
<text text-anchor="start" x="523.5" y="-29.5" font-family="Helvetica,sans-Serif" font-size="10.00">+ Logistic()</text>
<text text-anchor="start" x="523.5" y="-18.5" font-family="Helvetica,sans-Serif" font-size="10.00">+ f0()</text>
<text text-anchor="start" x="523.5" y="-7.5" font-family="Helvetica,sans-Serif" font-size="10.00">+ f1()</text>
</a>
</g>
<!-- Node1&#45;&gt;Node8 -->
<g id="edge14" class="edge"><title>Node1&#45;&gt;Node8</title>
<path fill="none" stroke="midnightblue" d="M551,-106.844C551,-97.7422 551,-88.4594 551,-79.844"/>
<polygon fill="none" stroke="midnightblue" points="547.5,-106.998 551,-116.998 554.5,-106.998 547.5,-106.998"/>
</g>
<!-- Node9 -->
<g id="node17" class="node"><title>Node9</title>
<a xlink:href="class_radial_basis.html" target="_top" xlink:title="class RadialBasis &#45;">
<polygon fill="white" stroke="black" points="605,-0.5 605,-79.5 693,-79.5 693,-0.5 605,-0.5"/>
<text text-anchor="middle" x="649" y="-67.5" font-family="Helvetica,sans-Serif" font-size="10.00">RadialBasis</text>
<polyline fill="none" stroke="black" points="605,-60.5 693,-60.5 "/>
<text text-anchor="middle" x="649" y="-48.5" font-family="Helvetica,sans-Serif" font-size="10.00"> </text>
<polyline fill="none" stroke="black" points="605,-41.5 693,-41.5 "/>
<text text-anchor="start" x="613" y="-29.5" font-family="Helvetica,sans-Serif" font-size="10.00">+ RadialBasis()</text>
<text text-anchor="start" x="613" y="-18.5" font-family="Helvetica,sans-Serif" font-size="10.00">+ f0()</text>
<text text-anchor="start" x="613" y="-7.5" font-family="Helvetica,sans-Serif" font-size="10.00">+ f1()</text>
</a>
</g>
<!-- Node1&#45;&gt;Node9 -->
<g id="edge16" class="edge"><title>Node1&#45;&gt;Node9</title>
<path fill="none" stroke="midnightblue" d="M593.313,-109.188C601.352,-99.3442 609.636,-89.2005 617.277,-79.844"/>
<polygon fill="none" stroke="midnightblue" points="590.55,-107.039 586.935,-116.998 595.971,-111.466 590.55,-107.039"/>
</g>
<!-- Node10 -->
<g id="node19" class="node"><title>Node10</title>
<a xlink:href="class_reciprocal.html" target="_top" xlink:title="class Reciprocal &#45;">
<polygon fill="white" stroke="black" points="711.5,-0.5 711.5,-79.5 794.5,-79.5 794.5,-0.5 711.5,-0.5"/>
<text text-anchor="middle" x="753" y="-67.5" font-family="Helvetica,sans-Serif" font-size="10.00">Reciprocal</text>
<polyline fill="none" stroke="black" points="711.5,-60.5 794.5,-60.5 "/>
<text text-anchor="middle" x="753" y="-48.5" font-family="Helvetica,sans-Serif" font-size="10.00"> </text>
<polyline fill="none" stroke="black" points="711.5,-41.5 794.5,-41.5 "/>
<text text-anchor="start" x="719.5" y="-29.5" font-family="Helvetica,sans-Serif" font-size="10.00">+ Reciprocal()</text>
<text text-anchor="start" x="719.5" y="-18.5" font-family="Helvetica,sans-Serif" font-size="10.00">+ f0()</text>
<text text-anchor="start" x="719.5" y="-7.5" font-family="Helvetica,sans-Serif" font-size="10.00">+ f1()</text>
</a>
</g>
<!-- Node1&#45;&gt;Node10 -->
<g id="edge18" class="edge"><title>Node1&#45;&gt;Node10</title>
<path fill="none" stroke="midnightblue" d="M626.292,-123.657C650.907,-110.651 678.061,-95.4323 702,-80 705.092,-78.007 708.234,-75.8798 711.362,-73.6861"/>
<polygon fill="none" stroke="midnightblue" points="624.581,-120.603 617.349,-128.345 627.831,-126.802 624.581,-120.603"/>
</g>
<!-- Node11 -->
<g id="node21" class="node"><title>Node11</title>
<a xlink:href="class_sine.html" target="_top" xlink:title="class Sine &#45;">
<polygon fill="white" stroke="black" points="812.5,-0.5 812.5,-79.5 867.5,-79.5 867.5,-0.5 812.5,-0.5"/>
<text text-anchor="middle" x="840" y="-67.5" font-family="Helvetica,sans-Serif" font-size="10.00">Sine</text>
<polyline fill="none" stroke="black" points="812.5,-60.5 867.5,-60.5 "/>
<text text-anchor="middle" x="840" y="-48.5" font-family="Helvetica,sans-Serif" font-size="10.00"> </text>
<polyline fill="none" stroke="black" points="812.5,-41.5 867.5,-41.5 "/>
<text text-anchor="start" x="820.5" y="-29.5" font-family="Helvetica,sans-Serif" font-size="10.00">+ Sine()</text>
<text text-anchor="start" x="820.5" y="-18.5" font-family="Helvetica,sans-Serif" font-size="10.00">+ f0()</text>
<text text-anchor="start" x="820.5" y="-7.5" font-family="Helvetica,sans-Serif" font-size="10.00">+ f1()</text>
</a>
</g>
<!-- Node1&#45;&gt;Node11 -->
<g id="edge20" class="edge"><title>Node1&#45;&gt;Node11</title>
<path fill="none" stroke="midnightblue" d="M627.135,-146.965C679.476,-134.902 749.002,-113.956 803,-80 806.16,-78.0127 809.236,-75.6942 812.177,-73.1967"/>
<polygon fill="none" stroke="midnightblue" points="626.228,-143.581 617.238,-149.187 627.762,-150.411 626.228,-143.581"/>
</g>
<!-- Node12 -->
<g id="node23" class="node"><title>Node12</title>
<a xlink:href="class_square.html" target="_top" xlink:title="class Square &#45;">
<polygon fill="white" stroke="black" points="885.5,-0.5 885.5,-79.5 952.5,-79.5 952.5,-0.5 885.5,-0.5"/>
<text text-anchor="middle" x="919" y="-67.5" font-family="Helvetica,sans-Serif" font-size="10.00">Square</text>
<polyline fill="none" stroke="black" points="885.5,-60.5 952.5,-60.5 "/>
<text text-anchor="middle" x="919" y="-48.5" font-family="Helvetica,sans-Serif" font-size="10.00"> </text>
<polyline fill="none" stroke="black" points="885.5,-41.5 952.5,-41.5 "/>
<text text-anchor="start" x="893.5" y="-29.5" font-family="Helvetica,sans-Serif" font-size="10.00">+ Square()</text>
<text text-anchor="start" x="893.5" y="-18.5" font-family="Helvetica,sans-Serif" font-size="10.00">+ f0()</text>
<text text-anchor="start" x="893.5" y="-7.5" font-family="Helvetica,sans-Serif" font-size="10.00">+ f1()</text>
</a>
</g>
<!-- Node1&#45;&gt;Node12 -->
<g id="edge22" class="edge"><title>Node1&#45;&gt;Node12</title>
<path fill="none" stroke="midnightblue" d="M627.562,-152.685C695.95,-142.821 797.204,-122.075 876,-80 879.201,-78.291 882.351,-76.2914 885.403,-74.1168"/>
<polygon fill="none" stroke="midnightblue" points="626.717,-149.269 617.298,-154.119 627.686,-156.202 626.717,-149.269"/>
</g>
<!-- Node13 -->
<g id="node25" class="node"><title>Node13</title>
<a xlink:href="class_tanh.html" target="_top" xlink:title="class Tanh &#45;">
<polygon fill="white" stroke="black" points="971,-0.5 971,-79.5 1027,-79.5 1027,-0.5 971,-0.5"/>
<text text-anchor="middle" x="999" y="-67.5" font-family="Helvetica,sans-Serif" font-size="10.00">Tanh</text>
<polyline fill="none" stroke="black" points="971,-60.5 1027,-60.5 "/>
<text text-anchor="middle" x="999" y="-48.5" font-family="Helvetica,sans-Serif" font-size="10.00"> </text>
<polyline fill="none" stroke="black" points="971,-41.5 1027,-41.5 "/>
<text text-anchor="start" x="979" y="-29.5" font-family="Helvetica,sans-Serif" font-size="10.00">+ Tanh()</text>
<text text-anchor="start" x="979" y="-18.5" font-family="Helvetica,sans-Serif" font-size="10.00">+ f0()</text>
<text text-anchor="start" x="979" y="-7.5" font-family="Helvetica,sans-Serif" font-size="10.00">+ f1()</text>
</a>
</g>
<!-- Node1&#45;&gt;Node13 -->
<g id="edge24" class="edge"><title>Node1&#45;&gt;Node13</title>
<path fill="none" stroke="midnightblue" d="M627.382,-159.329C713.335,-154.514 854.804,-137.563 961,-80 964.324,-78.198 967.538,-76.007 970.593,-73.5925"/>
<polygon fill="none" stroke="midnightblue" points="626.987,-155.845 617.181,-159.858 627.349,-162.836 626.987,-155.845"/>
</g>
<!-- Node14 -->
<g id="node27" class="node"><title>Node14</title>
<a xlink:href="class_threshold.html" target="_top" xlink:title="class Threshold &#45;">
<polygon fill="white" stroke="black" points="1045.5,-0.5 1045.5,-79.5 1124.5,-79.5 1124.5,-0.5 1045.5,-0.5"/>
<text text-anchor="middle" x="1085" y="-67.5" font-family="Helvetica,sans-Serif" font-size="10.00">Threshold</text>
<polyline fill="none" stroke="black" points="1045.5,-60.5 1124.5,-60.5 "/>
<text text-anchor="middle" x="1085" y="-48.5" font-family="Helvetica,sans-Serif" font-size="10.00"> </text>
<polyline fill="none" stroke="black" points="1045.5,-41.5 1124.5,-41.5 "/>
<text text-anchor="start" x="1053.5" y="-29.5" font-family="Helvetica,sans-Serif" font-size="10.00">+ Threshold()</text>
<text text-anchor="start" x="1053.5" y="-18.5" font-family="Helvetica,sans-Serif" font-size="10.00">+ f0()</text>
<text text-anchor="start" x="1053.5" y="-7.5" font-family="Helvetica,sans-Serif" font-size="10.00">+ f1()</text>
</a>
</g>
<!-- Node1&#45;&gt;Node14 -->
<g id="edge26" class="edge"><title>Node1&#45;&gt;Node14</title>
<path fill="none" stroke="midnightblue" d="M627.306,-159.961C725.803,-156.052 900.609,-140.278 1036,-80 1039.18,-78.5849 1042.33,-76.9142 1045.41,-75.074"/>
<polygon fill="none" stroke="midnightblue" points="627.006,-156.47 617.141,-160.333 627.262,-163.465 627.006,-156.47"/>
</g>
</g>
</svg>
