<?xml version="1.0" encoding="UTF-8" standalone="no"?>
<!DOCTYPE svg PUBLIC "-//W3C//DTD SVG 1.1//EN"
 "http://www.w3.org/Graphics/SVG/1.1/DTD/svg11.dtd">
<!-- Generated by graphviz version 2.28.0 (20110610.2051)
 -->
<!-- Title: G Pages: 1 -->
<svg width="375pt" height="1228pt"
 viewBox="0.00 0.00 375.00 1228.00" xmlns="http://www.w3.org/2000/svg" xmlns:xlink="http://www.w3.org/1999/xlink">
<g id="graph1" class="graph" transform="scale(1 1) rotate(0) translate(4 1224)">
<title>G</title>
<polygon fill="white" stroke="white" points="-4,5 -4,-1224 372,-1224 372,5 -4,5"/>
<!-- Node1 -->
<g id="node1" class="node"><title>Node1</title>
<polygon fill="#bfbfbf" stroke="black" points="35,-1 35,-91 127,-91 127,-1 35,-1"/>
<text text-anchor="middle" x="81" y="-79" font-family="Helvetica,sans-Serif" font-size="10.00">MLPbehavior</text>
<polyline fill="none" stroke="black" points="35,-72 127,-72 "/>
<text text-anchor="start" x="43" y="-60" font-family="Helvetica,sans-Serif" font-size="10.00">+ d_accumulator</text>
<text text-anchor="start" x="43" y="-49" font-family="Helvetica,sans-Serif" font-size="10.00">&#45; d_bias</text>
<text text-anchor="start" x="43" y="-38" font-family="Helvetica,sans-Serif" font-size="10.00">&#45; d_output</text>
<text text-anchor="start" x="43" y="-27" font-family="Helvetica,sans-Serif" font-size="10.00">&#45; d_nCons</text>
<polyline fill="none" stroke="black" points="35,-20 127,-20 "/>
<text text-anchor="start" x="43" y="-8" font-family="Helvetica,sans-Serif" font-size="10.00">+ predict()</text>
</g>
<!-- Node2 -->
<g id="node2" class="node"><title>Node2</title>
<a xlink:href="class_predict_behavior.html" target="_top" xlink:title="class PredictBehavior &#45;">
<polygon fill="white" stroke="black" points="0,-278.5 0,-335.5 90,-335.5 90,-278.5 0,-278.5"/>
<text text-anchor="middle" x="45" y="-323.5" font-family="Helvetica,sans-Serif" font-size="10.00">PredictBehavior</text>
<polyline fill="none" stroke="black" points="0,-316.5 90,-316.5 "/>
<text text-anchor="middle" x="45" y="-304.5" font-family="Helvetica,sans-Serif" font-size="10.00"> </text>
<polyline fill="none" stroke="black" points="0,-297.5 90,-297.5 "/>
<text text-anchor="start" x="8" y="-285.5" font-family="Helvetica,sans-Serif" font-size="10.00">+ predict()</text>
</a>
</g>
<!-- Node2&#45;&gt;Node1 -->
<g id="edge2" class="edge"><title>Node2&#45;&gt;Node1</title>
<path fill="none" stroke="midnightblue" d="M50.2515,-268.218C56.7817,-221.237 67.9113,-141.166 74.8382,-91.3305"/>
<polygon fill="none" stroke="midnightblue" points="46.7628,-267.896 48.8526,-278.282 53.6961,-268.86 46.7628,-267.896"/>
</g>
<!-- Node3 -->
<g id="node4" class="node"><title>Node3</title>
<a xlink:href="class_container.html" target="_top" xlink:title="{Container\&lt; Con \&gt;\n|# collection\l|+ ~Container()\l+ createIterator()\l+ push_back()\l+ push_back()\l+ reserve()\l+ reserve()\l+ empty()\l+ empty()\l+ size()\l+ size()\l+ clear()\l+ clear()\l+ show()\l+ show()\l+ validate()\l+ validate()\l+ Container()\l+ Container()\l+ begin()\l+ end()\l+ load()\l+ store()\l+ append()\l+ resize()\l+ operator[]()\l# Container()\l}">
<polygon fill="white" stroke="black" points="108.5,-141 108.5,-473 205.5,-473 205.5,-141 108.5,-141"/>
<text text-anchor="middle" x="157" y="-461" font-family="Helvetica,sans-Serif" font-size="10.00">Container&lt; Con &gt;</text>
<polyline fill="none" stroke="black" points="108.5,-454 205.5,-454 "/>
<text text-anchor="start" x="116.5" y="-442" font-family="Helvetica,sans-Serif" font-size="10.00"># collection</text>
<polyline fill="none" stroke="black" points="108.5,-435 205.5,-435 "/>
<text text-anchor="start" x="116.5" y="-423" font-family="Helvetica,sans-Serif" font-size="10.00">+ ~Container()</text>
<text text-anchor="start" x="116.5" y="-412" font-family="Helvetica,sans-Serif" font-size="10.00">+ createIterator()</text>
<text text-anchor="start" x="116.5" y="-401" font-family="Helvetica,sans-Serif" font-size="10.00">+ push_back()</text>
<text text-anchor="start" x="116.5" y="-390" font-family="Helvetica,sans-Serif" font-size="10.00">+ push_back()</text>
<text text-anchor="start" x="116.5" y="-379" font-family="Helvetica,sans-Serif" font-size="10.00">+ reserve()</text>
<text text-anchor="start" x="116.5" y="-368" font-family="Helvetica,sans-Serif" font-size="10.00">+ reserve()</text>
<text text-anchor="start" x="116.5" y="-357" font-family="Helvetica,sans-Serif" font-size="10.00">+ empty()</text>
<text text-anchor="start" x="116.5" y="-346" font-family="Helvetica,sans-Serif" font-size="10.00">+ empty()</text>
<text text-anchor="start" x="116.5" y="-335" font-family="Helvetica,sans-Serif" font-size="10.00">+ size()</text>
<text text-anchor="start" x="116.5" y="-324" font-family="Helvetica,sans-Serif" font-size="10.00">+ size()</text>
<text text-anchor="start" x="116.5" y="-313" font-family="Helvetica,sans-Serif" font-size="10.00">+ clear()</text>
<text text-anchor="start" x="116.5" y="-302" font-family="Helvetica,sans-Serif" font-size="10.00">+ clear()</text>
<text text-anchor="start" x="116.5" y="-291" font-family="Helvetica,sans-Serif" font-size="10.00">+ show()</text>
<text text-anchor="start" x="116.5" y="-280" font-family="Helvetica,sans-Serif" font-size="10.00">+ show()</text>
<text text-anchor="start" x="116.5" y="-269" font-family="Helvetica,sans-Serif" font-size="10.00">+ validate()</text>
<text text-anchor="start" x="116.5" y="-258" font-family="Helvetica,sans-Serif" font-size="10.00">+ validate()</text>
<text text-anchor="start" x="116.5" y="-247" font-family="Helvetica,sans-Serif" font-size="10.00">+ Container()</text>
<text text-anchor="start" x="116.5" y="-236" font-family="Helvetica,sans-Serif" font-size="10.00">+ Container()</text>
<text text-anchor="start" x="116.5" y="-225" font-family="Helvetica,sans-Serif" font-size="10.00">+ begin()</text>
<text text-anchor="start" x="116.5" y="-214" font-family="Helvetica,sans-Serif" font-size="10.00">+ end()</text>
<text text-anchor="start" x="116.5" y="-203" font-family="Helvetica,sans-Serif" font-size="10.00">+ load()</text>
<text text-anchor="start" x="116.5" y="-192" font-family="Helvetica,sans-Serif" font-size="10.00">+ store()</text>
<text text-anchor="start" x="116.5" y="-181" font-family="Helvetica,sans-Serif" font-size="10.00">+ append()</text>
<text text-anchor="start" x="116.5" y="-170" font-family="Helvetica,sans-Serif" font-size="10.00">+ resize()</text>
<text text-anchor="start" x="116.5" y="-159" font-family="Helvetica,sans-Serif" font-size="10.00">+ operator[]()</text>
<text text-anchor="start" x="116.5" y="-148" font-family="Helvetica,sans-Serif" font-size="10.00"># Container()</text>
</a>
</g>
<!-- Node3&#45;&gt;Node1 -->
<g id="edge4" class="edge"><title>Node3&#45;&gt;Node1</title>
<path fill="none" stroke="#9a32cd" stroke-dasharray="5,2" d="M105.713,-131.22C101.456,-116.711 97.4526,-103.069 93.9586,-91.1617"/>
<polygon fill="#9a32cd" stroke="#9a32cd" points="108.545,-140.871 101.412,-132.543 107.137,-136.073 105.729,-131.276 105.729,-131.276 105.729,-131.276 107.137,-136.073 110.047,-130.009 108.545,-140.871 108.545,-140.871"/>
<text text-anchor="middle" x="122.5" y="-113.5" font-family="Helvetica,sans-Serif" font-size="10.00">d_nCons</text>
</g>
<!-- Node4 -->
<g id="node6" class="node"><title>Node4</title>
<polygon fill="white" stroke="#bfbfbf" points="13,-874.5 13,-931.5 213,-931.5 213,-874.5 13,-874.5"/>
<text text-anchor="middle" x="113" y="-919.5" font-family="Helvetica,sans-Serif" font-size="10.00">std::vector&lt; boost::shared_ptr&lt; Con &gt; &gt;</text>
<polyline fill="none" stroke="#bfbfbf" points="13,-912.5 213,-912.5 "/>
<text text-anchor="start" x="21" y="-900.5" font-family="Helvetica,sans-Serif" font-size="10.00">&#45; elements</text>
<polyline fill="none" stroke="#bfbfbf" points="13,-893.5 213,-893.5 "/>
<text text-anchor="middle" x="113" y="-881.5" font-family="Helvetica,sans-Serif" font-size="10.00"> </text>
</g>
<!-- Node4&#45;&gt;Node3 -->
<g id="edge6" class="edge"><title>Node4&#45;&gt;Node3</title>
<path fill="none" stroke="#9a32cd" stroke-dasharray="5,2" d="M114.446,-864.032C117.197,-795.593 123.834,-647.023 134,-522 135.287,-506.171 136.781,-489.7 138.377,-473.236"/>
<polygon fill="#9a32cd" stroke="#9a32cd" points="114.038,-874.312 109.938,-864.142 114.236,-869.316 114.434,-864.32 114.434,-864.32 114.434,-864.32 114.236,-869.316 118.931,-864.499 114.038,-874.312 114.038,-874.312"/>
<text text-anchor="middle" x="156.5" y="-686.5" font-family="Helvetica,sans-Serif" font-size="10.00">collection</text>
</g>
<!-- Node5 -->
<g id="node8" class="node"><title>Node5</title>
<a xlink:title="STL class.">
<polygon fill="white" stroke="#bfbfbf" points="138.5,-1056.5 138.5,-1113.5 227.5,-1113.5 227.5,-1056.5 138.5,-1056.5"/>
<text text-anchor="middle" x="183" y="-1101.5" font-family="Helvetica,sans-Serif" font-size="10.00">std::vector&lt; T &gt;</text>
<polyline fill="none" stroke="#bfbfbf" points="138.5,-1094.5 227.5,-1094.5 "/>
<text text-anchor="start" x="146.5" y="-1082.5" font-family="Helvetica,sans-Serif" font-size="10.00">&#45; elements</text>
<polyline fill="none" stroke="#bfbfbf" points="138.5,-1075.5 227.5,-1075.5 "/>
<text text-anchor="middle" x="183" y="-1063.5" font-family="Helvetica,sans-Serif" font-size="10.00"> </text>
</a>
</g>
<!-- Node5&#45;&gt;Node4 -->
<g id="edge8" class="edge"><title>Node5&#45;&gt;Node4</title>
<path fill="none" stroke="orange" stroke-dasharray="5,2" d="M129.558,-1064.25C118.577,-1057.63 108.42,-1049.03 102,-1038 82.9765,-1005.32 92.4346,-960.34 101.945,-931.714"/>
<polygon fill="orange" stroke="orange" points="128.035,-1067.41 138.486,-1069.14 131.4,-1061.27 128.035,-1067.41"/>
<text text-anchor="middle" x="169" y="-1029.5" font-family="Helvetica,sans-Serif" font-size="10.00">&lt; boost::shared_ptr&lt; Con &gt; &gt;</text>
</g>
<!-- Node8 -->
<g id="node14" class="node"><title>Node8</title>
<polygon fill="white" stroke="#bfbfbf" points="163,-950.5 163,-1007.5 351,-1007.5 351,-950.5 163,-950.5"/>
<text text-anchor="middle" x="257" y="-995.5" font-family="Helvetica,sans-Serif" font-size="10.00">std::vector&lt; boost::shared_ptr&lt; T &gt; &gt;</text>
<polyline fill="none" stroke="#bfbfbf" points="163,-988.5 351,-988.5 "/>
<text text-anchor="start" x="171" y="-976.5" font-family="Helvetica,sans-Serif" font-size="10.00">&#45; elements</text>
<polyline fill="none" stroke="#bfbfbf" points="163,-969.5 351,-969.5 "/>
<text text-anchor="middle" x="257" y="-957.5" font-family="Helvetica,sans-Serif" font-size="10.00"> </text>
</g>
<!-- Node5&#45;&gt;Node8 -->
<g id="edge16" class="edge"><title>Node5&#45;&gt;Node8</title>
<path fill="none" stroke="orange" stroke-dasharray="5,2" d="M230.929,-1049.31C234.274,-1045.74 237.36,-1041.96 240,-1038 245.999,-1029.01 249.923,-1017.87 252.47,-1007.75"/>
<polygon fill="orange" stroke="orange" points="228.446,-1046.85 223.76,-1056.35 233.349,-1051.84 228.446,-1046.85"/>
<text text-anchor="middle" x="306.5" y="-1029.5" font-family="Helvetica,sans-Serif" font-size="10.00">&lt; boost::shared_ptr&lt; T &gt; &gt;</text>
</g>
<!-- Node6 -->
<g id="node10" class="node"><title>Node6</title>
<polygon fill="white" stroke="#bfbfbf" points="168.5,-1162.5 168.5,-1219.5 197.5,-1219.5 197.5,-1162.5 168.5,-1162.5"/>
<text text-anchor="middle" x="183" y="-1207.5" font-family="Helvetica,sans-Serif" font-size="10.00">T</text>
<polyline fill="none" stroke="#bfbfbf" points="168.5,-1200.5 197.5,-1200.5 "/>
<text text-anchor="middle" x="183" y="-1188.5" font-family="Helvetica,sans-Serif" font-size="10.00"> </text>
<polyline fill="none" stroke="#bfbfbf" points="168.5,-1181.5 197.5,-1181.5 "/>
<text text-anchor="middle" x="183" y="-1169.5" font-family="Helvetica,sans-Serif" font-size="10.00"> </text>
</g>
<!-- Node6&#45;&gt;Node5 -->
<g id="edge10" class="edge"><title>Node6&#45;&gt;Node5</title>
<path fill="none" stroke="#9a32cd" stroke-dasharray="5,2" d="M183,-1152.1C183,-1139.4 183,-1125.49 183,-1113.73"/>
<polygon fill="#9a32cd" stroke="#9a32cd" points="183,-1162.4 178.5,-1152.4 183,-1157.4 183,-1152.4 183,-1152.4 183,-1152.4 183,-1157.4 187.5,-1152.4 183,-1162.4 183,-1162.4"/>
<text text-anchor="middle" x="204.5" y="-1135.5" font-family="Helvetica,sans-Serif" font-size="10.00">elements</text>
</g>
<!-- Node7 -->
<g id="node12" class="node"><title>Node7</title>
<a xlink:href="class_container.html" target="_top" xlink:title="class Container &#45;">
<polygon fill="white" stroke="black" points="187.5,-523 187.5,-855 284.5,-855 284.5,-523 187.5,-523"/>
<text text-anchor="middle" x="236" y="-843" font-family="Helvetica,sans-Serif" font-size="10.00">Container&lt; T &gt;</text>
<polyline fill="none" stroke="black" points="187.5,-836 284.5,-836 "/>
<text text-anchor="start" x="195.5" y="-824" font-family="Helvetica,sans-Serif" font-size="10.00"># collection</text>
<polyline fill="none" stroke="black" points="187.5,-817 284.5,-817 "/>
<text text-anchor="start" x="195.5" y="-805" font-family="Helvetica,sans-Serif" font-size="10.00">+ ~Container()</text>
<text text-anchor="start" x="195.5" y="-794" font-family="Helvetica,sans-Serif" font-size="10.00">+ createIterator()</text>
<text text-anchor="start" x="195.5" y="-783" font-family="Helvetica,sans-Serif" font-size="10.00">+ push_back()</text>
<text text-anchor="start" x="195.5" y="-772" font-family="Helvetica,sans-Serif" font-size="10.00">+ reserve()</text>
<text text-anchor="start" x="195.5" y="-761" font-family="Helvetica,sans-Serif" font-size="10.00">+ empty()</text>
<text text-anchor="start" x="195.5" y="-750" font-family="Helvetica,sans-Serif" font-size="10.00">+ size()</text>
<text text-anchor="start" x="195.5" y="-739" font-family="Helvetica,sans-Serif" font-size="10.00">+ clear()</text>
<text text-anchor="start" x="195.5" y="-728" font-family="Helvetica,sans-Serif" font-size="10.00">+ show()</text>
<text text-anchor="start" x="195.5" y="-717" font-family="Helvetica,sans-Serif" font-size="10.00">+ validate()</text>
<text text-anchor="start" x="195.5" y="-706" font-family="Helvetica,sans-Serif" font-size="10.00">+ Container()</text>
<text text-anchor="start" x="195.5" y="-695" font-family="Helvetica,sans-Serif" font-size="10.00">+ Container()</text>
<text text-anchor="start" x="195.5" y="-684" font-family="Helvetica,sans-Serif" font-size="10.00">+ begin()</text>
<text text-anchor="start" x="195.5" y="-673" font-family="Helvetica,sans-Serif" font-size="10.00">+ end()</text>
<text text-anchor="start" x="195.5" y="-662" font-family="Helvetica,sans-Serif" font-size="10.00">+ load()</text>
<text text-anchor="start" x="195.5" y="-651" font-family="Helvetica,sans-Serif" font-size="10.00">+ store()</text>
<text text-anchor="start" x="195.5" y="-640" font-family="Helvetica,sans-Serif" font-size="10.00">+ size()</text>
<text text-anchor="start" x="195.5" y="-629" font-family="Helvetica,sans-Serif" font-size="10.00">+ push_back()</text>
<text text-anchor="start" x="195.5" y="-618" font-family="Helvetica,sans-Serif" font-size="10.00">+ append()</text>
<text text-anchor="start" x="195.5" y="-607" font-family="Helvetica,sans-Serif" font-size="10.00">+ show()</text>
<text text-anchor="start" x="195.5" y="-596" font-family="Helvetica,sans-Serif" font-size="10.00">+ validate()</text>
<text text-anchor="start" x="195.5" y="-585" font-family="Helvetica,sans-Serif" font-size="10.00">+ reserve()</text>
<text text-anchor="start" x="195.5" y="-574" font-family="Helvetica,sans-Serif" font-size="10.00">+ resize()</text>
<text text-anchor="start" x="195.5" y="-563" font-family="Helvetica,sans-Serif" font-size="10.00">+ empty()</text>
<text text-anchor="start" x="195.5" y="-552" font-family="Helvetica,sans-Serif" font-size="10.00">+ clear()</text>
<text text-anchor="start" x="195.5" y="-541" font-family="Helvetica,sans-Serif" font-size="10.00">+ operator[]()</text>
<text text-anchor="start" x="195.5" y="-530" font-family="Helvetica,sans-Serif" font-size="10.00"># Container()</text>
</a>
</g>
<!-- Node7&#45;&gt;Node3 -->
<g id="edge12" class="edge"><title>Node7&#45;&gt;Node3</title>
<path fill="none" stroke="orange" stroke-dasharray="5,2" d="M199.595,-512.887C196.844,-499.653 194.072,-486.322 191.334,-473.153"/>
<polygon fill="orange" stroke="orange" points="196.232,-513.906 201.694,-522.984 203.085,-512.481 196.232,-513.906"/>
<text text-anchor="middle" x="214" y="-495.5" font-family="Helvetica,sans-Serif" font-size="10.00">&lt; Con &gt;</text>
</g>
<!-- Node8&#45;&gt;Node7 -->
<g id="edge14" class="edge"><title>Node8&#45;&gt;Node7</title>
<path fill="none" stroke="#9a32cd" stroke-dasharray="5,2" d="M254.247,-940.239C252.594,-917.577 250.365,-887.003 248.032,-855.015"/>
<polygon fill="#9a32cd" stroke="#9a32cd" points="254.986,-950.385 249.771,-940.739 254.623,-945.399 254.259,-940.412 254.259,-940.412 254.259,-940.412 254.623,-945.399 258.747,-940.085 254.986,-950.385 254.986,-950.385"/>
<text text-anchor="middle" x="275.5" y="-900.5" font-family="Helvetica,sans-Serif" font-size="10.00">collection</text>
</g>
</g>
</svg>
