<?xml version="1.0" encoding="UTF-8" standalone="no"?>
<!DOCTYPE svg PUBLIC "-//W3C//DTD SVG 1.1//EN"
 "http://www.w3.org/Graphics/SVG/1.1/DTD/svg11.dtd">
<!-- Generated by graphviz version 2.28.0 (20110610.2051)
 -->
<!-- Title: G Pages: 1 -->
<svg width="382pt" height="1750pt"
 viewBox="0.00 0.00 382.00 1750.00" xmlns="http://www.w3.org/2000/svg" xmlns:xlink="http://www.w3.org/1999/xlink">
<g id="graph1" class="graph" transform="scale(1 1) rotate(0) translate(4 1746)">
<title>G</title>
<polygon fill="white" stroke="white" points="-4,5 -4,-1746 379,-1746 379,5 -4,5"/>
<!-- Node1 -->
<g id="node1" class="node"><title>Node1</title>
<polygon fill="#bfbfbf" stroke="black" points="97.5,-1 97.5,-69 210.5,-69 210.5,-1 97.5,-1"/>
<text text-anchor="middle" x="154" y="-57" font-family="Helvetica,sans-Serif" font-size="10.00">MLPneuronContainer</text>
<polyline fill="none" stroke="black" points="97.5,-50 210.5,-50 "/>
<text text-anchor="middle" x="154" y="-38" font-family="Helvetica,sans-Serif" font-size="10.00"> </text>
<polyline fill="none" stroke="black" points="97.5,-31 210.5,-31 "/>
<text text-anchor="start" x="105.5" y="-19" font-family="Helvetica,sans-Serif" font-size="10.00">+ getId()</text>
<text text-anchor="start" x="105.5" y="-8" font-family="Helvetica,sans-Serif" font-size="10.00">+ buildAndAppend()</text>
</g>
<!-- Node2 -->
<g id="node2" class="node"><title>Node2</title>
<a xlink:href="class_neuron_container.html" target="_top" xlink:title="{NeuronContainer\&lt; MLP \&gt;\n||+ NeuronContainer()\l+ NeuronContainer()\l+ ~NeuronContainer()\l+ numOfNeurons()\l+ numOfCons()\l+ getId()\l+ setId()\l+ getConId()\l+ getWeight()\l+ getFrom()\l+ setFrom()\l+ setWeight()\l}">
<polygon fill="white" stroke="black" points="88.5,-109 88.5,-287 219.5,-287 219.5,-109 88.5,-109"/>
<text text-anchor="middle" x="154" y="-275" font-family="Helvetica,sans-Serif" font-size="10.00">NeuronContainer&lt; MLP &gt;</text>
<polyline fill="none" stroke="black" points="88.5,-268 219.5,-268 "/>
<text text-anchor="middle" x="154" y="-256" font-family="Helvetica,sans-Serif" font-size="10.00"> </text>
<polyline fill="none" stroke="black" points="88.5,-249 219.5,-249 "/>
<text text-anchor="start" x="96.5" y="-237" font-family="Helvetica,sans-Serif" font-size="10.00">+ NeuronContainer()</text>
<text text-anchor="start" x="96.5" y="-226" font-family="Helvetica,sans-Serif" font-size="10.00">+ NeuronContainer()</text>
<text text-anchor="start" x="96.5" y="-215" font-family="Helvetica,sans-Serif" font-size="10.00">+ ~NeuronContainer()</text>
<text text-anchor="start" x="96.5" y="-204" font-family="Helvetica,sans-Serif" font-size="10.00">+ numOfNeurons()</text>
<text text-anchor="start" x="96.5" y="-193" font-family="Helvetica,sans-Serif" font-size="10.00">+ numOfCons()</text>
<text text-anchor="start" x="96.5" y="-182" font-family="Helvetica,sans-Serif" font-size="10.00">+ getId()</text>
<text text-anchor="start" x="96.5" y="-171" font-family="Helvetica,sans-Serif" font-size="10.00">+ setId()</text>
<text text-anchor="start" x="96.5" y="-160" font-family="Helvetica,sans-Serif" font-size="10.00">+ getConId()</text>
<text text-anchor="start" x="96.5" y="-149" font-family="Helvetica,sans-Serif" font-size="10.00">+ getWeight()</text>
<text text-anchor="start" x="96.5" y="-138" font-family="Helvetica,sans-Serif" font-size="10.00">+ getFrom()</text>
<text text-anchor="start" x="96.5" y="-127" font-family="Helvetica,sans-Serif" font-size="10.00">+ setFrom()</text>
<text text-anchor="start" x="96.5" y="-116" font-family="Helvetica,sans-Serif" font-size="10.00">+ setWeight()</text>
</a>
</g>
<!-- Node2&#45;&gt;Node1 -->
<g id="edge2" class="edge"><title>Node2&#45;&gt;Node1</title>
<path fill="none" stroke="midnightblue" d="M154,-98.8015C154,-88.3119 154,-78.2442 154,-69.3593"/>
<polygon fill="none" stroke="midnightblue" points="150.5,-98.9629 154,-108.963 157.5,-98.963 150.5,-98.9629"/>
</g>
<!-- Node3 -->
<g id="node4" class="node"><title>Node3</title>
<a xlink:href="class_neuron_container.html" target="_top" xlink:title="A vector of neurons.">
<polygon fill="white" stroke="black" points="95.5,-337 95.5,-515 212.5,-515 212.5,-337 95.5,-337"/>
<text text-anchor="middle" x="154" y="-503" font-family="Helvetica,sans-Serif" font-size="10.00">NeuronContainer</text>
<polyline fill="none" stroke="black" points="95.5,-496 212.5,-496 "/>
<text text-anchor="middle" x="154" y="-484" font-family="Helvetica,sans-Serif" font-size="10.00"> </text>
<polyline fill="none" stroke="black" points="95.5,-477 212.5,-477 "/>
<text text-anchor="start" x="103.5" y="-465" font-family="Helvetica,sans-Serif" font-size="10.00">+ NeuronContainer()</text>
<text text-anchor="start" x="103.5" y="-454" font-family="Helvetica,sans-Serif" font-size="10.00">+ NeuronContainer()</text>
<text text-anchor="start" x="103.5" y="-443" font-family="Helvetica,sans-Serif" font-size="10.00">+ ~NeuronContainer()</text>
<text text-anchor="start" x="103.5" y="-432" font-family="Helvetica,sans-Serif" font-size="10.00">+ numOfNeurons()</text>
<text text-anchor="start" x="103.5" y="-421" font-family="Helvetica,sans-Serif" font-size="10.00">+ numOfCons()</text>
<text text-anchor="start" x="103.5" y="-410" font-family="Helvetica,sans-Serif" font-size="10.00">+ getId()</text>
<text text-anchor="start" x="103.5" y="-399" font-family="Helvetica,sans-Serif" font-size="10.00">+ setId()</text>
<text text-anchor="start" x="103.5" y="-388" font-family="Helvetica,sans-Serif" font-size="10.00">+ getConId()</text>
<text text-anchor="start" x="103.5" y="-377" font-family="Helvetica,sans-Serif" font-size="10.00">+ getWeight()</text>
<text text-anchor="start" x="103.5" y="-366" font-family="Helvetica,sans-Serif" font-size="10.00">+ getFrom()</text>
<text text-anchor="start" x="103.5" y="-355" font-family="Helvetica,sans-Serif" font-size="10.00">+ setFrom()</text>
<text text-anchor="start" x="103.5" y="-344" font-family="Helvetica,sans-Serif" font-size="10.00">+ setWeight()</text>
</a>
</g>
<!-- Node3&#45;&gt;Node2 -->
<g id="edge4" class="edge"><title>Node3&#45;&gt;Node2</title>
<path fill="none" stroke="orange" stroke-dasharray="5,2" d="M154,-326.927C154,-313.701 154,-300.196 154,-287.156"/>
<polygon fill="orange" stroke="orange" points="150.5,-326.975 154,-336.975 157.5,-326.975 150.5,-326.975"/>
<text text-anchor="middle" x="173" y="-309.5" font-family="Helvetica,sans-Serif" font-size="10.00">&lt; MLP &gt;</text>
</g>
<!-- Node4 -->
<g id="node6" class="node"><title>Node4</title>
<a xlink:href="class_container.html" target="_top" xlink:title="{Container\&lt; Neuron \&gt;\n|# collection\l|+ Container()\l+ Container()\l+ Container()\l+ Container()\l+ buildAndAppend()\l+ push_back()\l+ push_back()\l+ erase()\l+ begin()\l+ begin()\l+ end()\l+ end()\l+ reserve()\l+ reserve()\l+ resize()\l+ resize()\l+ empty()\l+ empty()\l+ size()\l+ size()\l+ clear()\l+ clear()\l+ insert()\l+ show()\l+ show()\l+ validate()\l+ validate()\l+ load()\l+ store()\l+ append()\l+ operator[]()\l}">
<polygon fill="white" stroke="black" points="99,-554.5 99,-941.5 209,-941.5 209,-554.5 99,-554.5"/>
<text text-anchor="middle" x="154" y="-929.5" font-family="Helvetica,sans-Serif" font-size="10.00">Container&lt; Neuron &gt;</text>
<polyline fill="none" stroke="black" points="99,-922.5 209,-922.5 "/>
<text text-anchor="start" x="107" y="-910.5" font-family="Helvetica,sans-Serif" font-size="10.00"># collection</text>
<polyline fill="none" stroke="black" points="99,-903.5 209,-903.5 "/>
<text text-anchor="start" x="107" y="-891.5" font-family="Helvetica,sans-Serif" font-size="10.00">+ Container()</text>
<text text-anchor="start" x="107" y="-880.5" font-family="Helvetica,sans-Serif" font-size="10.00">+ Container()</text>
<text text-anchor="start" x="107" y="-869.5" font-family="Helvetica,sans-Serif" font-size="10.00">+ Container()</text>
<text text-anchor="start" x="107" y="-858.5" font-family="Helvetica,sans-Serif" font-size="10.00">+ Container()</text>
<text text-anchor="start" x="107" y="-847.5" font-family="Helvetica,sans-Serif" font-size="10.00">+ buildAndAppend()</text>
<text text-anchor="start" x="107" y="-836.5" font-family="Helvetica,sans-Serif" font-size="10.00">+ push_back()</text>
<text text-anchor="start" x="107" y="-825.5" font-family="Helvetica,sans-Serif" font-size="10.00">+ push_back()</text>
<text text-anchor="start" x="107" y="-814.5" font-family="Helvetica,sans-Serif" font-size="10.00">+ erase()</text>
<text text-anchor="start" x="107" y="-803.5" font-family="Helvetica,sans-Serif" font-size="10.00">+ begin()</text>
<text text-anchor="start" x="107" y="-792.5" font-family="Helvetica,sans-Serif" font-size="10.00">+ begin()</text>
<text text-anchor="start" x="107" y="-781.5" font-family="Helvetica,sans-Serif" font-size="10.00">+ end()</text>
<text text-anchor="start" x="107" y="-770.5" font-family="Helvetica,sans-Serif" font-size="10.00">+ end()</text>
<text text-anchor="start" x="107" y="-759.5" font-family="Helvetica,sans-Serif" font-size="10.00">+ reserve()</text>
<text text-anchor="start" x="107" y="-748.5" font-family="Helvetica,sans-Serif" font-size="10.00">+ reserve()</text>
<text text-anchor="start" x="107" y="-737.5" font-family="Helvetica,sans-Serif" font-size="10.00">+ resize()</text>
<text text-anchor="start" x="107" y="-726.5" font-family="Helvetica,sans-Serif" font-size="10.00">+ resize()</text>
<text text-anchor="start" x="107" y="-715.5" font-family="Helvetica,sans-Serif" font-size="10.00">+ empty()</text>
<text text-anchor="start" x="107" y="-704.5" font-family="Helvetica,sans-Serif" font-size="10.00">+ empty()</text>
<text text-anchor="start" x="107" y="-693.5" font-family="Helvetica,sans-Serif" font-size="10.00">+ size()</text>
<text text-anchor="start" x="107" y="-682.5" font-family="Helvetica,sans-Serif" font-size="10.00">+ size()</text>
<text text-anchor="start" x="107" y="-671.5" font-family="Helvetica,sans-Serif" font-size="10.00">+ clear()</text>
<text text-anchor="start" x="107" y="-660.5" font-family="Helvetica,sans-Serif" font-size="10.00">+ clear()</text>
<text text-anchor="start" x="107" y="-649.5" font-family="Helvetica,sans-Serif" font-size="10.00">+ insert()</text>
<text text-anchor="start" x="107" y="-638.5" font-family="Helvetica,sans-Serif" font-size="10.00">+ show()</text>
<text text-anchor="start" x="107" y="-627.5" font-family="Helvetica,sans-Serif" font-size="10.00">+ show()</text>
<text text-anchor="start" x="107" y="-616.5" font-family="Helvetica,sans-Serif" font-size="10.00">+ validate()</text>
<text text-anchor="start" x="107" y="-605.5" font-family="Helvetica,sans-Serif" font-size="10.00">+ validate()</text>
<text text-anchor="start" x="107" y="-594.5" font-family="Helvetica,sans-Serif" font-size="10.00">+ load()</text>
<text text-anchor="start" x="107" y="-583.5" font-family="Helvetica,sans-Serif" font-size="10.00">+ store()</text>
<text text-anchor="start" x="107" y="-572.5" font-family="Helvetica,sans-Serif" font-size="10.00">+ append()</text>
<text text-anchor="start" x="107" y="-561.5" font-family="Helvetica,sans-Serif" font-size="10.00">+ operator[]()</text>
</a>
</g>
<!-- Node4&#45;&gt;Node3 -->
<g id="edge6" class="edge"><title>Node4&#45;&gt;Node3</title>
<path fill="none" stroke="midnightblue" d="M154,-544.333C154,-534.347 154,-524.601 154,-515.265"/>
<polygon fill="none" stroke="midnightblue" points="150.5,-544.392 154,-554.392 157.5,-544.392 150.5,-544.392"/>
</g>
<!-- Node5 -->
<g id="node8" class="node"><title>Node5</title>
<polygon fill="white" stroke="#bfbfbf" points="-0.5,-1396.5 -0.5,-1453.5 214.5,-1453.5 214.5,-1396.5 -0.5,-1396.5"/>
<text text-anchor="middle" x="107" y="-1441.5" font-family="Helvetica,sans-Serif" font-size="10.00">std::vector&lt; boost::shared_ptr&lt; Neuron &gt; &gt;</text>
<polyline fill="none" stroke="#bfbfbf" points="-0.5,-1434.5 214.5,-1434.5 "/>
<text text-anchor="start" x="7.5" y="-1422.5" font-family="Helvetica,sans-Serif" font-size="10.00">&#45; elements</text>
<polyline fill="none" stroke="#bfbfbf" points="-0.5,-1415.5 214.5,-1415.5 "/>
<text text-anchor="middle" x="107" y="-1403.5" font-family="Helvetica,sans-Serif" font-size="10.00"> </text>
</g>
<!-- Node5&#45;&gt;Node4 -->
<g id="edge8" class="edge"><title>Node5&#45;&gt;Node4</title>
<path fill="none" stroke="#9a32cd" stroke-dasharray="5,2" d="M108.257,-1385.87C110.898,-1310.28 117.729,-1136.08 129,-990 130.214,-974.272 131.608,-957.981 133.104,-941.629"/>
<polygon fill="#9a32cd" stroke="#9a32cd" points="107.897,-1396.3 103.745,-1386.15 108.07,-1391.3 108.242,-1386.3 108.242,-1386.3 108.242,-1386.3 108.07,-1391.3 112.739,-1386.46 107.897,-1396.3 107.897,-1396.3"/>
<text text-anchor="middle" x="151.5" y="-1181.5" font-family="Helvetica,sans-Serif" font-size="10.00">collection</text>
</g>
<!-- Node6 -->
<g id="node10" class="node"><title>Node6</title>
<a xlink:title="STL class.">
<polygon fill="white" stroke="#bfbfbf" points="137.5,-1578.5 137.5,-1635.5 226.5,-1635.5 226.5,-1578.5 137.5,-1578.5"/>
<text text-anchor="middle" x="182" y="-1623.5" font-family="Helvetica,sans-Serif" font-size="10.00">std::vector&lt; T &gt;</text>
<polyline fill="none" stroke="#bfbfbf" points="137.5,-1616.5 226.5,-1616.5 "/>
<text text-anchor="start" x="145.5" y="-1604.5" font-family="Helvetica,sans-Serif" font-size="10.00">&#45; elements</text>
<polyline fill="none" stroke="#bfbfbf" points="137.5,-1597.5 226.5,-1597.5 "/>
<text text-anchor="middle" x="182" y="-1585.5" font-family="Helvetica,sans-Serif" font-size="10.00"> </text>
</a>
</g>
<!-- Node6&#45;&gt;Node5 -->
<g id="edge10" class="edge"><title>Node6&#45;&gt;Node5</title>
<path fill="none" stroke="orange" stroke-dasharray="5,2" d="M128.085,-1589.28C114.64,-1582.41 101.837,-1572.94 94,-1560 74.3239,-1527.51 84.8653,-1482.28 95.1901,-1453.57"/>
<polygon fill="orange" stroke="orange" points="126.899,-1592.58 137.442,-1593.62 129.847,-1586.24 126.899,-1592.58"/>
<text text-anchor="middle" x="168" y="-1551.5" font-family="Helvetica,sans-Serif" font-size="10.00">&lt; boost::shared_ptr&lt; Neuron &gt; &gt;</text>
</g>
<!-- Node9 -->
<g id="node16" class="node"><title>Node9</title>
<polygon fill="white" stroke="#bfbfbf" points="169,-1472.5 169,-1529.5 357,-1529.5 357,-1472.5 169,-1472.5"/>
<text text-anchor="middle" x="263" y="-1517.5" font-family="Helvetica,sans-Serif" font-size="10.00">std::vector&lt; boost::shared_ptr&lt; T &gt; &gt;</text>
<polyline fill="none" stroke="#bfbfbf" points="169,-1510.5 357,-1510.5 "/>
<text text-anchor="start" x="177" y="-1498.5" font-family="Helvetica,sans-Serif" font-size="10.00">&#45; elements</text>
<polyline fill="none" stroke="#bfbfbf" points="169,-1491.5 357,-1491.5 "/>
<text text-anchor="middle" x="263" y="-1479.5" font-family="Helvetica,sans-Serif" font-size="10.00"> </text>
</g>
<!-- Node6&#45;&gt;Node9 -->
<g id="edge18" class="edge"><title>Node6&#45;&gt;Node9</title>
<path fill="none" stroke="orange" stroke-dasharray="5,2" d="M234.662,-1572.92C238.864,-1568.92 242.737,-1564.61 246,-1560 252.308,-1551.1 256.297,-1539.85 258.809,-1529.64"/>
<polygon fill="orange" stroke="orange" points="232.041,-1570.56 226.805,-1579.77 236.642,-1575.84 232.041,-1570.56"/>
<text text-anchor="middle" x="313.5" y="-1551.5" font-family="Helvetica,sans-Serif" font-size="10.00">&lt; boost::shared_ptr&lt; T &gt; &gt;</text>
</g>
<!-- Node7 -->
<g id="node12" class="node"><title>Node7</title>
<polygon fill="white" stroke="#bfbfbf" points="167.5,-1684.5 167.5,-1741.5 196.5,-1741.5 196.5,-1684.5 167.5,-1684.5"/>
<text text-anchor="middle" x="182" y="-1729.5" font-family="Helvetica,sans-Serif" font-size="10.00">T</text>
<polyline fill="none" stroke="#bfbfbf" points="167.5,-1722.5 196.5,-1722.5 "/>
<text text-anchor="middle" x="182" y="-1710.5" font-family="Helvetica,sans-Serif" font-size="10.00"> </text>
<polyline fill="none" stroke="#bfbfbf" points="167.5,-1703.5 196.5,-1703.5 "/>
<text text-anchor="middle" x="182" y="-1691.5" font-family="Helvetica,sans-Serif" font-size="10.00"> </text>
</g>
<!-- Node7&#45;&gt;Node6 -->
<g id="edge12" class="edge"><title>Node7&#45;&gt;Node6</title>
<path fill="none" stroke="#9a32cd" stroke-dasharray="5,2" d="M182,-1674.1C182,-1661.4 182,-1647.49 182,-1635.73"/>
<polygon fill="#9a32cd" stroke="#9a32cd" points="182,-1684.4 177.5,-1674.4 182,-1679.4 182,-1674.4 182,-1674.4 182,-1674.4 182,-1679.4 186.5,-1674.4 182,-1684.4 182,-1684.4"/>
<text text-anchor="middle" x="203.5" y="-1657.5" font-family="Helvetica,sans-Serif" font-size="10.00">elements</text>
</g>
<!-- Node8 -->
<g id="node14" class="node"><title>Node8</title>
<a xlink:href="class_container.html" target="_top" xlink:title="class Container &#45;">
<polygon fill="white" stroke="black" points="183,-990.5 183,-1377.5 293,-1377.5 293,-990.5 183,-990.5"/>
<text text-anchor="middle" x="238" y="-1365.5" font-family="Helvetica,sans-Serif" font-size="10.00">Container&lt; T &gt;</text>
<polyline fill="none" stroke="black" points="183,-1358.5 293,-1358.5 "/>
<text text-anchor="start" x="191" y="-1346.5" font-family="Helvetica,sans-Serif" font-size="10.00"># collection</text>
<polyline fill="none" stroke="black" points="183,-1339.5 293,-1339.5 "/>
<text text-anchor="start" x="191" y="-1327.5" font-family="Helvetica,sans-Serif" font-size="10.00">+ Container()</text>
<text text-anchor="start" x="191" y="-1316.5" font-family="Helvetica,sans-Serif" font-size="10.00">+ Container()</text>
<text text-anchor="start" x="191" y="-1305.5" font-family="Helvetica,sans-Serif" font-size="10.00">+ buildAndAppend()</text>
<text text-anchor="start" x="191" y="-1294.5" font-family="Helvetica,sans-Serif" font-size="10.00">+ push_back()</text>
<text text-anchor="start" x="191" y="-1283.5" font-family="Helvetica,sans-Serif" font-size="10.00">+ erase()</text>
<text text-anchor="start" x="191" y="-1272.5" font-family="Helvetica,sans-Serif" font-size="10.00">+ begin()</text>
<text text-anchor="start" x="191" y="-1261.5" font-family="Helvetica,sans-Serif" font-size="10.00">+ end()</text>
<text text-anchor="start" x="191" y="-1250.5" font-family="Helvetica,sans-Serif" font-size="10.00">+ reserve()</text>
<text text-anchor="start" x="191" y="-1239.5" font-family="Helvetica,sans-Serif" font-size="10.00">+ resize()</text>
<text text-anchor="start" x="191" y="-1228.5" font-family="Helvetica,sans-Serif" font-size="10.00">+ empty()</text>
<text text-anchor="start" x="191" y="-1217.5" font-family="Helvetica,sans-Serif" font-size="10.00">+ size()</text>
<text text-anchor="start" x="191" y="-1206.5" font-family="Helvetica,sans-Serif" font-size="10.00">+ clear()</text>
<text text-anchor="start" x="191" y="-1195.5" font-family="Helvetica,sans-Serif" font-size="10.00">+ insert()</text>
<text text-anchor="start" x="191" y="-1184.5" font-family="Helvetica,sans-Serif" font-size="10.00">+ show()</text>
<text text-anchor="start" x="191" y="-1173.5" font-family="Helvetica,sans-Serif" font-size="10.00">+ validate()</text>
<text text-anchor="start" x="191" y="-1162.5" font-family="Helvetica,sans-Serif" font-size="10.00">+ Container()</text>
<text text-anchor="start" x="191" y="-1151.5" font-family="Helvetica,sans-Serif" font-size="10.00">+ Container()</text>
<text text-anchor="start" x="191" y="-1140.5" font-family="Helvetica,sans-Serif" font-size="10.00">+ begin()</text>
<text text-anchor="start" x="191" y="-1129.5" font-family="Helvetica,sans-Serif" font-size="10.00">+ end()</text>
<text text-anchor="start" x="191" y="-1118.5" font-family="Helvetica,sans-Serif" font-size="10.00">+ load()</text>
<text text-anchor="start" x="191" y="-1107.5" font-family="Helvetica,sans-Serif" font-size="10.00">+ store()</text>
<text text-anchor="start" x="191" y="-1096.5" font-family="Helvetica,sans-Serif" font-size="10.00">+ size()</text>
<text text-anchor="start" x="191" y="-1085.5" font-family="Helvetica,sans-Serif" font-size="10.00">+ push_back()</text>
<text text-anchor="start" x="191" y="-1074.5" font-family="Helvetica,sans-Serif" font-size="10.00">+ append()</text>
<text text-anchor="start" x="191" y="-1063.5" font-family="Helvetica,sans-Serif" font-size="10.00">+ show()</text>
<text text-anchor="start" x="191" y="-1052.5" font-family="Helvetica,sans-Serif" font-size="10.00">+ validate()</text>
<text text-anchor="start" x="191" y="-1041.5" font-family="Helvetica,sans-Serif" font-size="10.00">+ reserve()</text>
<text text-anchor="start" x="191" y="-1030.5" font-family="Helvetica,sans-Serif" font-size="10.00">+ resize()</text>
<text text-anchor="start" x="191" y="-1019.5" font-family="Helvetica,sans-Serif" font-size="10.00">+ empty()</text>
<text text-anchor="start" x="191" y="-1008.5" font-family="Helvetica,sans-Serif" font-size="10.00">+ clear()</text>
<text text-anchor="start" x="191" y="-997.5" font-family="Helvetica,sans-Serif" font-size="10.00">+ operator[]()</text>
</a>
</g>
<!-- Node8&#45;&gt;Node4 -->
<g id="edge14" class="edge"><title>Node8&#45;&gt;Node4</title>
<path fill="none" stroke="orange" stroke-dasharray="5,2" d="M198.814,-980.539C196.306,-967.583 193.785,-954.557 191.287,-941.648"/>
<polygon fill="orange" stroke="orange" points="195.392,-981.277 200.728,-990.43 202.264,-979.947 195.392,-981.277"/>
<text text-anchor="middle" x="221" y="-963.5" font-family="Helvetica,sans-Serif" font-size="10.00">&lt; Neuron &gt;</text>
</g>
<!-- Node9&#45;&gt;Node8 -->
<g id="edge16" class="edge"><title>Node9&#45;&gt;Node8</title>
<path fill="none" stroke="#9a32cd" stroke-dasharray="5,2" d="M260.01,-1462.33C258.237,-1439.99 255.841,-1409.8 253.281,-1377.54"/>
<polygon fill="#9a32cd" stroke="#9a32cd" points="260.803,-1472.32 255.526,-1462.71 260.408,-1467.34 260.012,-1462.35 260.012,-1462.35 260.012,-1462.35 260.408,-1467.34 264.498,-1462 260.803,-1472.32 260.803,-1472.32"/>
<text text-anchor="middle" x="281.5" y="-1422.5" font-family="Helvetica,sans-Serif" font-size="10.00">collection</text>
</g>
</g>
</svg>
