<?xml version="1.0" encoding="UTF-8" standalone="no"?>
<!DOCTYPE svg PUBLIC "-//W3C//DTD SVG 1.1//EN"
 "http://www.w3.org/Graphics/SVG/1.1/DTD/svg11.dtd">
<!-- Generated by graphviz version 2.25.20091207.0545 (20091207.0545)
 -->
<!-- Title: G Pages: 1 -->
<svg width="369pt" height="928pt"
 viewBox="0.00 0.00 369.00 928.00" xmlns="http://www.w3.org/2000/svg" xmlns:xlink="http://www.w3.org/1999/xlink">
<g id="graph1" class="graph" transform="scale(1 1) rotate(0) translate(4 924)">
<title>G</title>
<polygon fill="white" stroke="white" points="-4,5 -4,-924 366,-924 366,5 -4,5"/>
<!-- Node1 -->
<g id="node1" class="node"><title>Node1</title>
<polygon fill="#bfbfbf" stroke="black" points="108,-0.5 108,-57.5 210,-57.5 210,-0.5 108,-0.5"/>
<text text-anchor="middle" x="159" y="-44.5" font-family="Helvetica,sans-Serif" font-size="10.00">vecMLPneuron</text>
<polyline fill="none" stroke="black" points="108,-38.5 210,-38.5 "/>
<text text-anchor="middle" x="159" y="-25.5" font-family="Helvetica,sans-Serif" font-size="10.00"> </text>
<polyline fill="none" stroke="black" points="108,-19.5 210,-19.5 "/>
<text text-anchor="start" x="116" y="-6.5" font-family="Helvetica,sans-Serif" font-size="10.00">+ buildAndAppend()</text>
</g>
<!-- Node2 -->
<g id="node2" class="node"><title>Node2</title>
<a xlink:href="classvec_neuron.html" target="_top" xlink:title="A vector of neurons.">
<polygon fill="white" stroke="black" points="127.5,-96.5 127.5,-153.5 190.5,-153.5 190.5,-96.5 127.5,-96.5"/>
<text text-anchor="middle" x="159" y="-140.5" font-family="Helvetica,sans-Serif" font-size="10.00">vecNeuron</text>
<polyline fill="none" stroke="black" points="127.5,-134.5 190.5,-134.5 "/>
<text text-anchor="middle" x="159" y="-121.5" font-family="Helvetica,sans-Serif" font-size="10.00"> </text>
<polyline fill="none" stroke="black" points="127.5,-115.5 190.5,-115.5 "/>
<text text-anchor="middle" x="159" y="-102.5" font-family="Helvetica,sans-Serif" font-size="10.00"> </text>
</a>
</g>
<!-- Node2&#45;&gt;Node1 -->
<g id="edge2" class="edge"><title>Node2&#45;&gt;Node1</title>
<path fill="none" stroke="midnightblue" d="M159,-86.3234C159,-76.7274 159,-66.6143 159,-57.599"/>
<polygon fill="none" stroke="midnightblue" points="155.5,-86.4567 159,-96.4568 162.5,-86.4568 155.5,-86.4567"/>
</g>
<!-- Node3 -->
<g id="node4" class="node"><title>Node3</title>
<a xlink:href="class_container.html" target="_top" xlink:title="{Container\&lt; Neuron \&gt;\n|# ldata\l|+ begin()\l+ end()\l+ getLdata()\l+ setLdata()\l+ size()\l+ push_back()\l+ append()\l+ show()\l+ validate()\l+ reserve()\l}">
<polygon fill="white" stroke="black" points="105,-193 105,-349 213,-349 213,-193 105,-193"/>
<text text-anchor="middle" x="159" y="-336" font-family="Helvetica,sans-Serif" font-size="10.00">Container&lt; Neuron &gt;</text>
<polyline fill="none" stroke="black" points="105,-330 213,-330 "/>
<text text-anchor="start" x="113" y="-317" font-family="Helvetica,sans-Serif" font-size="10.00"># ldata</text>
<polyline fill="none" stroke="black" points="105,-311 213,-311 "/>
<text text-anchor="start" x="113" y="-298" font-family="Helvetica,sans-Serif" font-size="10.00">+ begin()</text>
<text text-anchor="start" x="113" y="-287" font-family="Helvetica,sans-Serif" font-size="10.00">+ end()</text>
<text text-anchor="start" x="113" y="-276" font-family="Helvetica,sans-Serif" font-size="10.00">+ getLdata()</text>
<text text-anchor="start" x="113" y="-265" font-family="Helvetica,sans-Serif" font-size="10.00">+ setLdata()</text>
<text text-anchor="start" x="113" y="-254" font-family="Helvetica,sans-Serif" font-size="10.00">+ size()</text>
<text text-anchor="start" x="113" y="-243" font-family="Helvetica,sans-Serif" font-size="10.00">+ push_back()</text>
<text text-anchor="start" x="113" y="-232" font-family="Helvetica,sans-Serif" font-size="10.00">+ append()</text>
<text text-anchor="start" x="113" y="-221" font-family="Helvetica,sans-Serif" font-size="10.00">+ show()</text>
<text text-anchor="start" x="113" y="-210" font-family="Helvetica,sans-Serif" font-size="10.00">+ validate()</text>
<text text-anchor="start" x="113" y="-199" font-family="Helvetica,sans-Serif" font-size="10.00">+ reserve()</text>
</a>
</g>
<!-- Node3&#45;&gt;Node2 -->
<g id="edge4" class="edge"><title>Node3&#45;&gt;Node2</title>
<path fill="none" stroke="midnightblue" d="M159,-182.797C159,-172.397 159,-162.428 159,-153.785"/>
<polygon fill="none" stroke="midnightblue" points="155.5,-182.871 159,-192.871 162.5,-182.871 155.5,-182.871"/>
</g>
<!-- Node4 -->
<g id="node6" class="node"><title>Node4</title>
<polygon fill="white" stroke="#bfbfbf" points="0,-574.5 0,-631.5 206,-631.5 206,-574.5 0,-574.5"/>
<text text-anchor="middle" x="103" y="-618.5" font-family="Helvetica,sans-Serif" font-size="10.00">std::vector&lt; boost::shared_ptr&lt; Neuron &gt; &gt;</text>
<polyline fill="none" stroke="#bfbfbf" points="0,-612.5 206,-612.5 "/>
<text text-anchor="start" x="8" y="-599.5" font-family="Helvetica,sans-Serif" font-size="10.00">&#45; elements</text>
<polyline fill="none" stroke="#bfbfbf" points="0,-593.5 206,-593.5 "/>
<text text-anchor="middle" x="103" y="-580.5" font-family="Helvetica,sans-Serif" font-size="10.00"> </text>
</g>
<!-- Node4&#45;&gt;Node3 -->
<g id="edge6" class="edge"><title>Node4&#45;&gt;Node3</title>
<path fill="none" stroke="#9a32cd" stroke-dasharray="5,2" d="M109.493,-564.506C118.34,-512.055 134.387,-416.92 145.813,-349.183"/>
<polygon fill="#9a32cd" stroke="#9a32cd" points="107.823,-574.407 105.049,-563.797 108.655,-569.476 109.486,-564.546 109.486,-564.546 109.486,-564.546 108.655,-569.476 113.924,-565.294 107.823,-574.407 107.823,-574.407"/>
<text text-anchor="middle" x="147.5" y="-473.5" font-family="Helvetica,sans-Serif" font-size="10.00">ldata</text>
</g>
<!-- Node5 -->
<g id="node8" class="node"><title>Node5</title>
<a xlink:title="STL class.">
<polygon fill="white" stroke="#bfbfbf" points="132.5,-756.5 132.5,-813.5 219.5,-813.5 219.5,-756.5 132.5,-756.5"/>
<text text-anchor="middle" x="176" y="-800.5" font-family="Helvetica,sans-Serif" font-size="10.00">std::vector&lt; T &gt;</text>
<polyline fill="none" stroke="#bfbfbf" points="132.5,-794.5 219.5,-794.5 "/>
<text text-anchor="start" x="140.5" y="-781.5" font-family="Helvetica,sans-Serif" font-size="10.00">&#45; elements</text>
<polyline fill="none" stroke="#bfbfbf" points="132.5,-775.5 219.5,-775.5 "/>
<text text-anchor="middle" x="176" y="-762.5" font-family="Helvetica,sans-Serif" font-size="10.00"> </text>
</a>
</g>
<!-- Node5&#45;&gt;Node4 -->
<g id="edge8" class="edge"><title>Node5&#45;&gt;Node4</title>
<path fill="none" stroke="orange" stroke-dasharray="5,2" d="M123.256,-767.422C110.116,-760.402 97.6162,-750.842 90,-738 70.6621,-705.394 80.7895,-660.405 90.9689,-631.504"/>
<polygon fill="orange" stroke="orange" points="121.881,-770.645 132.403,-771.885 124.95,-764.354 121.881,-770.645"/>
<text text-anchor="middle" x="161.5" y="-728.5" font-family="Helvetica,sans-Serif" font-size="10.00">&lt; boost::shared_ptr&lt; Neuron &gt; &gt;</text>
</g>
<!-- Node8 -->
<g id="node14" class="node"><title>Node8</title>
<polygon fill="white" stroke="#bfbfbf" points="164,-650.5 164,-707.5 344,-707.5 344,-650.5 164,-650.5"/>
<text text-anchor="middle" x="254" y="-694.5" font-family="Helvetica,sans-Serif" font-size="10.00">std::vector&lt; boost::shared_ptr&lt; T &gt; &gt;</text>
<polyline fill="none" stroke="#bfbfbf" points="164,-688.5 344,-688.5 "/>
<text text-anchor="start" x="172" y="-675.5" font-family="Helvetica,sans-Serif" font-size="10.00">&#45; elements</text>
<polyline fill="none" stroke="#bfbfbf" points="164,-669.5 344,-669.5 "/>
<text text-anchor="middle" x="254" y="-656.5" font-family="Helvetica,sans-Serif" font-size="10.00"> </text>
</g>
<!-- Node5&#45;&gt;Node8 -->
<g id="edge16" class="edge"><title>Node5&#45;&gt;Node8</title>
<path fill="none" stroke="orange" stroke-dasharray="5,2" d="M227.038,-750.053C230.72,-746.271 234.113,-742.244 237,-738 243.116,-729.01 247.057,-717.818 249.586,-707.605"/>
<polygon fill="orange" stroke="orange" points="224.531,-747.605 219.657,-757.012 229.334,-752.698 224.531,-747.605"/>
<text text-anchor="middle" x="302" y="-728.5" font-family="Helvetica,sans-Serif" font-size="10.00">&lt; boost::shared_ptr&lt; T &gt; &gt;</text>
</g>
<!-- Node6 -->
<g id="node10" class="node"><title>Node6</title>
<polygon fill="white" stroke="#bfbfbf" points="161.5,-862.5 161.5,-919.5 190.5,-919.5 190.5,-862.5 161.5,-862.5"/>
<text text-anchor="middle" x="176" y="-906.5" font-family="Helvetica,sans-Serif" font-size="10.00">T</text>
<polyline fill="none" stroke="#bfbfbf" points="161.5,-900.5 190.5,-900.5 "/>
<text text-anchor="middle" x="176" y="-887.5" font-family="Helvetica,sans-Serif" font-size="10.00"> </text>
<polyline fill="none" stroke="#bfbfbf" points="161.5,-881.5 190.5,-881.5 "/>
<text text-anchor="middle" x="176" y="-868.5" font-family="Helvetica,sans-Serif" font-size="10.00"> </text>
</g>
<!-- Node6&#45;&gt;Node5 -->
<g id="edge10" class="edge"><title>Node6&#45;&gt;Node5</title>
<path fill="none" stroke="#9a32cd" stroke-dasharray="5,2" d="M176,-852.005C176,-839.326 176,-825.494 176,-813.708"/>
<polygon fill="#9a32cd" stroke="#9a32cd" points="176,-862.315 171.5,-852.315 176,-857.315 176,-852.315 176,-852.315 176,-852.315 176,-857.315 180.5,-852.315 176,-862.315 176,-862.315"/>
<text text-anchor="middle" x="196" y="-834.5" font-family="Helvetica,sans-Serif" font-size="10.00">elements</text>
</g>
<!-- Node7 -->
<g id="node12" class="node"><title>Node7</title>
<a xlink:href="class_container.html" target="_top" xlink:title="{Container\&lt; T \&gt;\n|# ldata\l|+ begin()\l+ end()\l+ getLdata()\l+ setLdata()\l+ size()\l+ push_back()\l+ append()\l+ show()\l+ validate()\l+ reserve()\l}">
<polygon fill="white" stroke="black" points="180,-399 180,-555 262,-555 262,-399 180,-399"/>
<text text-anchor="middle" x="221" y="-542" font-family="Helvetica,sans-Serif" font-size="10.00">Container&lt; T &gt;</text>
<polyline fill="none" stroke="black" points="180,-536 262,-536 "/>
<text text-anchor="start" x="188" y="-523" font-family="Helvetica,sans-Serif" font-size="10.00"># ldata</text>
<polyline fill="none" stroke="black" points="180,-517 262,-517 "/>
<text text-anchor="start" x="188" y="-504" font-family="Helvetica,sans-Serif" font-size="10.00">+ begin()</text>
<text text-anchor="start" x="188" y="-493" font-family="Helvetica,sans-Serif" font-size="10.00">+ end()</text>
<text text-anchor="start" x="188" y="-482" font-family="Helvetica,sans-Serif" font-size="10.00">+ getLdata()</text>
<text text-anchor="start" x="188" y="-471" font-family="Helvetica,sans-Serif" font-size="10.00">+ setLdata()</text>
<text text-anchor="start" x="188" y="-460" font-family="Helvetica,sans-Serif" font-size="10.00">+ size()</text>
<text text-anchor="start" x="188" y="-449" font-family="Helvetica,sans-Serif" font-size="10.00">+ push_back()</text>
<text text-anchor="start" x="188" y="-438" font-family="Helvetica,sans-Serif" font-size="10.00">+ append()</text>
<text text-anchor="start" x="188" y="-427" font-family="Helvetica,sans-Serif" font-size="10.00">+ show()</text>
<text text-anchor="start" x="188" y="-416" font-family="Helvetica,sans-Serif" font-size="10.00">+ validate()</text>
<text text-anchor="start" x="188" y="-405" font-family="Helvetica,sans-Serif" font-size="10.00">+ reserve()</text>
</a>
</g>
<!-- Node7&#45;&gt;Node3 -->
<g id="edge12" class="edge"><title>Node7&#45;&gt;Node3</title>
<path fill="none" stroke="orange" stroke-dasharray="5,2" d="M194.575,-389.202C190.567,-375.882 186.453,-362.216 182.512,-349.12"/>
<polygon fill="orange" stroke="orange" points="191.238,-390.26 197.472,-398.827 197.941,-388.242 191.238,-390.26"/>
<text text-anchor="middle" x="215" y="-370.5" font-family="Helvetica,sans-Serif" font-size="10.00">&lt; Neuron &gt;</text>
</g>
<!-- Node8&#45;&gt;Node7 -->
<g id="edge14" class="edge"><title>Node8&#45;&gt;Node7</title>
<path fill="none" stroke="#9a32cd" stroke-dasharray="5,2" d="M247.681,-640.318C243.738,-616.182 238.521,-584.252 233.748,-555.031"/>
<polygon fill="#9a32cd" stroke="#9a32cd" points="249.342,-650.487 243.288,-641.343 248.536,-645.552 247.73,-640.618 247.73,-640.618 247.73,-640.618 248.536,-645.552 252.171,-639.892 249.342,-650.487 249.342,-650.487"/>
<text text-anchor="middle" x="256.5" y="-599.5" font-family="Helvetica,sans-Serif" font-size="10.00">ldata</text>
</g>
</g>
</svg>
