<?xml version="1.0" encoding="UTF-8" standalone="no"?>
<!DOCTYPE svg PUBLIC "-//W3C//DTD SVG 1.1//EN"
 "http://www.w3.org/Graphics/SVG/1.1/DTD/svg11.dtd">
<!-- Generated by graphviz version 2.28.0 (20110610.2051)
 -->
<!-- Title: G Pages: 1 -->
<svg width="382pt" height="1642pt"
 viewBox="0.00 0.00 382.00 1642.00" xmlns="http://www.w3.org/2000/svg" xmlns:xlink="http://www.w3.org/1999/xlink">
<g id="graph1" class="graph" transform="scale(1 1) rotate(0) translate(4 1638)">
<title>G</title>
<polygon fill="white" stroke="white" points="-4,5 -4,-1638 379,-1638 379,5 -4,5"/>
<!-- Node1 -->
<g id="node1" class="node"><title>Node1</title>
<polygon fill="#bfbfbf" stroke="black" points="99.5,-1 99.5,-69 212.5,-69 212.5,-1 99.5,-1"/>
<text text-anchor="middle" x="156" y="-57" font-family="Helvetica,sans-Serif" font-size="10.00">MLPneuronContainer</text>
<polyline fill="none" stroke="black" points="99.5,-50 212.5,-50 "/>
<text text-anchor="middle" x="156" y="-38" font-family="Helvetica,sans-Serif" font-size="10.00"> </text>
<polyline fill="none" stroke="black" points="99.5,-31 212.5,-31 "/>
<text text-anchor="start" x="107.5" y="-19" font-family="Helvetica,sans-Serif" font-size="10.00">+ getId()</text>
<text text-anchor="start" x="107.5" y="-8" font-family="Helvetica,sans-Serif" font-size="10.00">+ buildAndAppend()</text>
</g>
<!-- Node2 -->
<g id="node2" class="node"><title>Node2</title>
<a xlink:href="class_neuron_container.html" target="_top" xlink:title="{NeuronContainer\&lt; MLP \&gt;\n||+ NeuronContainer()\l+ NeuronContainer()\l+ ~NeuronContainer()\l+ numOfNeurons()\l+ numOfCons()\l+ getId()\l+ setId()\l+ getConId()\l+ getWeight()\l+ getFrom()\l+ setFrom()\l+ setWeight()\l}">
<polygon fill="white" stroke="black" points="90.5,-109 90.5,-287 221.5,-287 221.5,-109 90.5,-109"/>
<text text-anchor="middle" x="156" y="-275" font-family="Helvetica,sans-Serif" font-size="10.00">NeuronContainer&lt; MLP &gt;</text>
<polyline fill="none" stroke="black" points="90.5,-268 221.5,-268 "/>
<text text-anchor="middle" x="156" y="-256" font-family="Helvetica,sans-Serif" font-size="10.00"> </text>
<polyline fill="none" stroke="black" points="90.5,-249 221.5,-249 "/>
<text text-anchor="start" x="98.5" y="-237" font-family="Helvetica,sans-Serif" font-size="10.00">+ NeuronContainer()</text>
<text text-anchor="start" x="98.5" y="-226" font-family="Helvetica,sans-Serif" font-size="10.00">+ NeuronContainer()</text>
<text text-anchor="start" x="98.5" y="-215" font-family="Helvetica,sans-Serif" font-size="10.00">+ ~NeuronContainer()</text>
<text text-anchor="start" x="98.5" y="-204" font-family="Helvetica,sans-Serif" font-size="10.00">+ numOfNeurons()</text>
<text text-anchor="start" x="98.5" y="-193" font-family="Helvetica,sans-Serif" font-size="10.00">+ numOfCons()</text>
<text text-anchor="start" x="98.5" y="-182" font-family="Helvetica,sans-Serif" font-size="10.00">+ getId()</text>
<text text-anchor="start" x="98.5" y="-171" font-family="Helvetica,sans-Serif" font-size="10.00">+ setId()</text>
<text text-anchor="start" x="98.5" y="-160" font-family="Helvetica,sans-Serif" font-size="10.00">+ getConId()</text>
<text text-anchor="start" x="98.5" y="-149" font-family="Helvetica,sans-Serif" font-size="10.00">+ getWeight()</text>
<text text-anchor="start" x="98.5" y="-138" font-family="Helvetica,sans-Serif" font-size="10.00">+ getFrom()</text>
<text text-anchor="start" x="98.5" y="-127" font-family="Helvetica,sans-Serif" font-size="10.00">+ setFrom()</text>
<text text-anchor="start" x="98.5" y="-116" font-family="Helvetica,sans-Serif" font-size="10.00">+ setWeight()</text>
</a>
</g>
<!-- Node2&#45;&gt;Node1 -->
<g id="edge2" class="edge"><title>Node2&#45;&gt;Node1</title>
<path fill="none" stroke="midnightblue" d="M156,-98.8015C156,-88.3119 156,-78.2442 156,-69.3593"/>
<polygon fill="none" stroke="midnightblue" points="152.5,-98.9629 156,-108.963 159.5,-98.963 152.5,-98.9629"/>
</g>
<!-- Node3 -->
<g id="node4" class="node"><title>Node3</title>
<a xlink:href="class_neuron_container.html" target="_top" xlink:title="A vector of neurons.">
<polygon fill="white" stroke="black" points="97.5,-337 97.5,-515 214.5,-515 214.5,-337 97.5,-337"/>
<text text-anchor="middle" x="156" y="-503" font-family="Helvetica,sans-Serif" font-size="10.00">NeuronContainer</text>
<polyline fill="none" stroke="black" points="97.5,-496 214.5,-496 "/>
<text text-anchor="middle" x="156" y="-484" font-family="Helvetica,sans-Serif" font-size="10.00"> </text>
<polyline fill="none" stroke="black" points="97.5,-477 214.5,-477 "/>
<text text-anchor="start" x="105.5" y="-465" font-family="Helvetica,sans-Serif" font-size="10.00">+ NeuronContainer()</text>
<text text-anchor="start" x="105.5" y="-454" font-family="Helvetica,sans-Serif" font-size="10.00">+ NeuronContainer()</text>
<text text-anchor="start" x="105.5" y="-443" font-family="Helvetica,sans-Serif" font-size="10.00">+ ~NeuronContainer()</text>
<text text-anchor="start" x="105.5" y="-432" font-family="Helvetica,sans-Serif" font-size="10.00">+ numOfNeurons()</text>
<text text-anchor="start" x="105.5" y="-421" font-family="Helvetica,sans-Serif" font-size="10.00">+ numOfCons()</text>
<text text-anchor="start" x="105.5" y="-410" font-family="Helvetica,sans-Serif" font-size="10.00">+ getId()</text>
<text text-anchor="start" x="105.5" y="-399" font-family="Helvetica,sans-Serif" font-size="10.00">+ setId()</text>
<text text-anchor="start" x="105.5" y="-388" font-family="Helvetica,sans-Serif" font-size="10.00">+ getConId()</text>
<text text-anchor="start" x="105.5" y="-377" font-family="Helvetica,sans-Serif" font-size="10.00">+ getWeight()</text>
<text text-anchor="start" x="105.5" y="-366" font-family="Helvetica,sans-Serif" font-size="10.00">+ getFrom()</text>
<text text-anchor="start" x="105.5" y="-355" font-family="Helvetica,sans-Serif" font-size="10.00">+ setFrom()</text>
<text text-anchor="start" x="105.5" y="-344" font-family="Helvetica,sans-Serif" font-size="10.00">+ setWeight()</text>
</a>
</g>
<!-- Node3&#45;&gt;Node2 -->
<g id="edge4" class="edge"><title>Node3&#45;&gt;Node2</title>
<path fill="none" stroke="orange" stroke-dasharray="5,2" d="M156,-326.927C156,-313.701 156,-300.196 156,-287.156"/>
<polygon fill="orange" stroke="orange" points="152.5,-326.975 156,-336.975 159.5,-326.975 152.5,-326.975"/>
<text text-anchor="middle" x="175" y="-309.5" font-family="Helvetica,sans-Serif" font-size="10.00">&lt; MLP &gt;</text>
</g>
<!-- Node4 -->
<g id="node6" class="node"><title>Node4</title>
<a xlink:href="class_container.html" target="_top" xlink:title="{Container\&lt; Neuron \&gt;\n|# collection\l|+ ~Container()\l+ createIterator()\l+ push_back()\l+ push_back()\l+ reserve()\l+ reserve()\l+ empty()\l+ empty()\l+ size()\l+ size()\l+ clear()\l+ clear()\l+ show()\l+ show()\l+ validate()\l+ validate()\l+ Container()\l+ Container()\l+ begin()\l+ end()\l+ load()\l+ store()\l+ append()\l+ resize()\l+ operator[]()\l# Container()\l}">
<polygon fill="white" stroke="black" points="101,-555 101,-887 211,-887 211,-555 101,-555"/>
<text text-anchor="middle" x="156" y="-875" font-family="Helvetica,sans-Serif" font-size="10.00">Container&lt; Neuron &gt;</text>
<polyline fill="none" stroke="black" points="101,-868 211,-868 "/>
<text text-anchor="start" x="109" y="-856" font-family="Helvetica,sans-Serif" font-size="10.00"># collection</text>
<polyline fill="none" stroke="black" points="101,-849 211,-849 "/>
<text text-anchor="start" x="109" y="-837" font-family="Helvetica,sans-Serif" font-size="10.00">+ ~Container()</text>
<text text-anchor="start" x="109" y="-826" font-family="Helvetica,sans-Serif" font-size="10.00">+ createIterator()</text>
<text text-anchor="start" x="109" y="-815" font-family="Helvetica,sans-Serif" font-size="10.00">+ push_back()</text>
<text text-anchor="start" x="109" y="-804" font-family="Helvetica,sans-Serif" font-size="10.00">+ push_back()</text>
<text text-anchor="start" x="109" y="-793" font-family="Helvetica,sans-Serif" font-size="10.00">+ reserve()</text>
<text text-anchor="start" x="109" y="-782" font-family="Helvetica,sans-Serif" font-size="10.00">+ reserve()</text>
<text text-anchor="start" x="109" y="-771" font-family="Helvetica,sans-Serif" font-size="10.00">+ empty()</text>
<text text-anchor="start" x="109" y="-760" font-family="Helvetica,sans-Serif" font-size="10.00">+ empty()</text>
<text text-anchor="start" x="109" y="-749" font-family="Helvetica,sans-Serif" font-size="10.00">+ size()</text>
<text text-anchor="start" x="109" y="-738" font-family="Helvetica,sans-Serif" font-size="10.00">+ size()</text>
<text text-anchor="start" x="109" y="-727" font-family="Helvetica,sans-Serif" font-size="10.00">+ clear()</text>
<text text-anchor="start" x="109" y="-716" font-family="Helvetica,sans-Serif" font-size="10.00">+ clear()</text>
<text text-anchor="start" x="109" y="-705" font-family="Helvetica,sans-Serif" font-size="10.00">+ show()</text>
<text text-anchor="start" x="109" y="-694" font-family="Helvetica,sans-Serif" font-size="10.00">+ show()</text>
<text text-anchor="start" x="109" y="-683" font-family="Helvetica,sans-Serif" font-size="10.00">+ validate()</text>
<text text-anchor="start" x="109" y="-672" font-family="Helvetica,sans-Serif" font-size="10.00">+ validate()</text>
<text text-anchor="start" x="109" y="-661" font-family="Helvetica,sans-Serif" font-size="10.00">+ Container()</text>
<text text-anchor="start" x="109" y="-650" font-family="Helvetica,sans-Serif" font-size="10.00">+ Container()</text>
<text text-anchor="start" x="109" y="-639" font-family="Helvetica,sans-Serif" font-size="10.00">+ begin()</text>
<text text-anchor="start" x="109" y="-628" font-family="Helvetica,sans-Serif" font-size="10.00">+ end()</text>
<text text-anchor="start" x="109" y="-617" font-family="Helvetica,sans-Serif" font-size="10.00">+ load()</text>
<text text-anchor="start" x="109" y="-606" font-family="Helvetica,sans-Serif" font-size="10.00">+ store()</text>
<text text-anchor="start" x="109" y="-595" font-family="Helvetica,sans-Serif" font-size="10.00">+ append()</text>
<text text-anchor="start" x="109" y="-584" font-family="Helvetica,sans-Serif" font-size="10.00">+ resize()</text>
<text text-anchor="start" x="109" y="-573" font-family="Helvetica,sans-Serif" font-size="10.00">+ operator[]()</text>
<text text-anchor="start" x="109" y="-562" font-family="Helvetica,sans-Serif" font-size="10.00"># Container()</text>
</a>
</g>
<!-- Node4&#45;&gt;Node3 -->
<g id="edge6" class="edge"><title>Node4&#45;&gt;Node3</title>
<path fill="none" stroke="midnightblue" d="M156,-544.585C156,-534.563 156,-524.73 156,-515.282"/>
<polygon fill="none" stroke="midnightblue" points="152.5,-544.662 156,-554.662 159.5,-544.662 152.5,-544.662"/>
</g>
<!-- Node5 -->
<g id="node8" class="node"><title>Node5</title>
<polygon fill="white" stroke="#bfbfbf" points="-0.5,-1288.5 -0.5,-1345.5 214.5,-1345.5 214.5,-1288.5 -0.5,-1288.5"/>
<text text-anchor="middle" x="107" y="-1333.5" font-family="Helvetica,sans-Serif" font-size="10.00">std::vector&lt; boost::shared_ptr&lt; Neuron &gt; &gt;</text>
<polyline fill="none" stroke="#bfbfbf" points="-0.5,-1326.5 214.5,-1326.5 "/>
<text text-anchor="start" x="7.5" y="-1314.5" font-family="Helvetica,sans-Serif" font-size="10.00">&#45; elements</text>
<polyline fill="none" stroke="#bfbfbf" points="-0.5,-1307.5 214.5,-1307.5 "/>
<text text-anchor="middle" x="107" y="-1295.5" font-family="Helvetica,sans-Serif" font-size="10.00"> </text>
</g>
<!-- Node5&#45;&gt;Node4 -->
<g id="edge8" class="edge"><title>Node5&#45;&gt;Node4</title>
<path fill="none" stroke="#9a32cd" stroke-dasharray="5,2" d="M109.299,-1278.05C113.533,-1209.63 123.129,-1061.09 134,-936 135.374,-920.186 136.899,-903.725 138.485,-887.268"/>
<polygon fill="#9a32cd" stroke="#9a32cd" points="108.667,-1288.32 104.79,-1278.06 108.974,-1283.33 109.281,-1278.34 109.281,-1278.34 109.281,-1278.34 108.974,-1283.33 113.773,-1278.62 108.667,-1288.32 108.667,-1288.32"/>
<text text-anchor="middle" x="156.5" y="-1100.5" font-family="Helvetica,sans-Serif" font-size="10.00">collection</text>
</g>
<!-- Node6 -->
<g id="node10" class="node"><title>Node6</title>
<a xlink:title="STL class.">
<polygon fill="white" stroke="#bfbfbf" points="137.5,-1470.5 137.5,-1527.5 226.5,-1527.5 226.5,-1470.5 137.5,-1470.5"/>
<text text-anchor="middle" x="182" y="-1515.5" font-family="Helvetica,sans-Serif" font-size="10.00">std::vector&lt; T &gt;</text>
<polyline fill="none" stroke="#bfbfbf" points="137.5,-1508.5 226.5,-1508.5 "/>
<text text-anchor="start" x="145.5" y="-1496.5" font-family="Helvetica,sans-Serif" font-size="10.00">&#45; elements</text>
<polyline fill="none" stroke="#bfbfbf" points="137.5,-1489.5 226.5,-1489.5 "/>
<text text-anchor="middle" x="182" y="-1477.5" font-family="Helvetica,sans-Serif" font-size="10.00"> </text>
</a>
</g>
<!-- Node6&#45;&gt;Node5 -->
<g id="edge10" class="edge"><title>Node6&#45;&gt;Node5</title>
<path fill="none" stroke="orange" stroke-dasharray="5,2" d="M128.085,-1481.28C114.64,-1474.41 101.837,-1464.94 94,-1452 74.3239,-1419.51 84.8653,-1374.28 95.1901,-1345.57"/>
<polygon fill="orange" stroke="orange" points="126.899,-1484.58 137.442,-1485.62 129.847,-1478.24 126.899,-1484.58"/>
<text text-anchor="middle" x="168" y="-1443.5" font-family="Helvetica,sans-Serif" font-size="10.00">&lt; boost::shared_ptr&lt; Neuron &gt; &gt;</text>
</g>
<!-- Node9 -->
<g id="node16" class="node"><title>Node9</title>
<polygon fill="white" stroke="#bfbfbf" points="169,-1364.5 169,-1421.5 357,-1421.5 357,-1364.5 169,-1364.5"/>
<text text-anchor="middle" x="263" y="-1409.5" font-family="Helvetica,sans-Serif" font-size="10.00">std::vector&lt; boost::shared_ptr&lt; T &gt; &gt;</text>
<polyline fill="none" stroke="#bfbfbf" points="169,-1402.5 357,-1402.5 "/>
<text text-anchor="start" x="177" y="-1390.5" font-family="Helvetica,sans-Serif" font-size="10.00">&#45; elements</text>
<polyline fill="none" stroke="#bfbfbf" points="169,-1383.5 357,-1383.5 "/>
<text text-anchor="middle" x="263" y="-1371.5" font-family="Helvetica,sans-Serif" font-size="10.00"> </text>
</g>
<!-- Node6&#45;&gt;Node9 -->
<g id="edge18" class="edge"><title>Node6&#45;&gt;Node9</title>
<path fill="none" stroke="orange" stroke-dasharray="5,2" d="M234.662,-1464.92C238.864,-1460.92 242.737,-1456.61 246,-1452 252.308,-1443.1 256.297,-1431.85 258.809,-1421.64"/>
<polygon fill="orange" stroke="orange" points="232.041,-1462.56 226.805,-1471.77 236.642,-1467.84 232.041,-1462.56"/>
<text text-anchor="middle" x="313.5" y="-1443.5" font-family="Helvetica,sans-Serif" font-size="10.00">&lt; boost::shared_ptr&lt; T &gt; &gt;</text>
</g>
<!-- Node7 -->
<g id="node12" class="node"><title>Node7</title>
<polygon fill="white" stroke="#bfbfbf" points="167.5,-1576.5 167.5,-1633.5 196.5,-1633.5 196.5,-1576.5 167.5,-1576.5"/>
<text text-anchor="middle" x="182" y="-1621.5" font-family="Helvetica,sans-Serif" font-size="10.00">T</text>
<polyline fill="none" stroke="#bfbfbf" points="167.5,-1614.5 196.5,-1614.5 "/>
<text text-anchor="middle" x="182" y="-1602.5" font-family="Helvetica,sans-Serif" font-size="10.00"> </text>
<polyline fill="none" stroke="#bfbfbf" points="167.5,-1595.5 196.5,-1595.5 "/>
<text text-anchor="middle" x="182" y="-1583.5" font-family="Helvetica,sans-Serif" font-size="10.00"> </text>
</g>
<!-- Node7&#45;&gt;Node6 -->
<g id="edge12" class="edge"><title>Node7&#45;&gt;Node6</title>
<path fill="none" stroke="#9a32cd" stroke-dasharray="5,2" d="M182,-1566.1C182,-1553.4 182,-1539.49 182,-1527.73"/>
<polygon fill="#9a32cd" stroke="#9a32cd" points="182,-1576.4 177.5,-1566.4 182,-1571.4 182,-1566.4 182,-1566.4 182,-1566.4 182,-1571.4 186.5,-1566.4 182,-1576.4 182,-1576.4"/>
<text text-anchor="middle" x="203.5" y="-1549.5" font-family="Helvetica,sans-Serif" font-size="10.00">elements</text>
</g>
<!-- Node8 -->
<g id="node14" class="node"><title>Node8</title>
<a xlink:href="class_container.html" target="_top" xlink:title="class Container &#45;">
<polygon fill="white" stroke="black" points="188.5,-937 188.5,-1269 285.5,-1269 285.5,-937 188.5,-937"/>
<text text-anchor="middle" x="237" y="-1257" font-family="Helvetica,sans-Serif" font-size="10.00">Container&lt; T &gt;</text>
<polyline fill="none" stroke="black" points="188.5,-1250 285.5,-1250 "/>
<text text-anchor="start" x="196.5" y="-1238" font-family="Helvetica,sans-Serif" font-size="10.00"># collection</text>
<polyline fill="none" stroke="black" points="188.5,-1231 285.5,-1231 "/>
<text text-anchor="start" x="196.5" y="-1219" font-family="Helvetica,sans-Serif" font-size="10.00">+ ~Container()</text>
<text text-anchor="start" x="196.5" y="-1208" font-family="Helvetica,sans-Serif" font-size="10.00">+ createIterator()</text>
<text text-anchor="start" x="196.5" y="-1197" font-family="Helvetica,sans-Serif" font-size="10.00">+ push_back()</text>
<text text-anchor="start" x="196.5" y="-1186" font-family="Helvetica,sans-Serif" font-size="10.00">+ reserve()</text>
<text text-anchor="start" x="196.5" y="-1175" font-family="Helvetica,sans-Serif" font-size="10.00">+ empty()</text>
<text text-anchor="start" x="196.5" y="-1164" font-family="Helvetica,sans-Serif" font-size="10.00">+ size()</text>
<text text-anchor="start" x="196.5" y="-1153" font-family="Helvetica,sans-Serif" font-size="10.00">+ clear()</text>
<text text-anchor="start" x="196.5" y="-1142" font-family="Helvetica,sans-Serif" font-size="10.00">+ show()</text>
<text text-anchor="start" x="196.5" y="-1131" font-family="Helvetica,sans-Serif" font-size="10.00">+ validate()</text>
<text text-anchor="start" x="196.5" y="-1120" font-family="Helvetica,sans-Serif" font-size="10.00">+ Container()</text>
<text text-anchor="start" x="196.5" y="-1109" font-family="Helvetica,sans-Serif" font-size="10.00">+ Container()</text>
<text text-anchor="start" x="196.5" y="-1098" font-family="Helvetica,sans-Serif" font-size="10.00">+ begin()</text>
<text text-anchor="start" x="196.5" y="-1087" font-family="Helvetica,sans-Serif" font-size="10.00">+ end()</text>
<text text-anchor="start" x="196.5" y="-1076" font-family="Helvetica,sans-Serif" font-size="10.00">+ load()</text>
<text text-anchor="start" x="196.5" y="-1065" font-family="Helvetica,sans-Serif" font-size="10.00">+ store()</text>
<text text-anchor="start" x="196.5" y="-1054" font-family="Helvetica,sans-Serif" font-size="10.00">+ size()</text>
<text text-anchor="start" x="196.5" y="-1043" font-family="Helvetica,sans-Serif" font-size="10.00">+ push_back()</text>
<text text-anchor="start" x="196.5" y="-1032" font-family="Helvetica,sans-Serif" font-size="10.00">+ append()</text>
<text text-anchor="start" x="196.5" y="-1021" font-family="Helvetica,sans-Serif" font-size="10.00">+ show()</text>
<text text-anchor="start" x="196.5" y="-1010" font-family="Helvetica,sans-Serif" font-size="10.00">+ validate()</text>
<text text-anchor="start" x="196.5" y="-999" font-family="Helvetica,sans-Serif" font-size="10.00">+ reserve()</text>
<text text-anchor="start" x="196.5" y="-988" font-family="Helvetica,sans-Serif" font-size="10.00">+ resize()</text>
<text text-anchor="start" x="196.5" y="-977" font-family="Helvetica,sans-Serif" font-size="10.00">+ empty()</text>
<text text-anchor="start" x="196.5" y="-966" font-family="Helvetica,sans-Serif" font-size="10.00">+ clear()</text>
<text text-anchor="start" x="196.5" y="-955" font-family="Helvetica,sans-Serif" font-size="10.00">+ operator[]()</text>
<text text-anchor="start" x="196.5" y="-944" font-family="Helvetica,sans-Serif" font-size="10.00"># Container()</text>
</a>
</g>
<!-- Node8&#45;&gt;Node4 -->
<g id="edge14" class="edge"><title>Node8&#45;&gt;Node4</title>
<path fill="none" stroke="orange" stroke-dasharray="5,2" d="M199.673,-926.887C196.852,-913.653 194.011,-900.322 191.204,-887.153"/>
<polygon fill="orange" stroke="orange" points="196.318,-927.934 201.826,-936.984 203.164,-926.474 196.318,-927.934"/>
<text text-anchor="middle" x="222" y="-909.5" font-family="Helvetica,sans-Serif" font-size="10.00">&lt; Neuron &gt;</text>
</g>
<!-- Node9&#45;&gt;Node8 -->
<g id="edge16" class="edge"><title>Node9&#45;&gt;Node8</title>
<path fill="none" stroke="#9a32cd" stroke-dasharray="5,2" d="M259.591,-1354.24C257.545,-1331.58 254.785,-1301 251.897,-1269.02"/>
<polygon fill="#9a32cd" stroke="#9a32cd" points="260.507,-1364.39 255.126,-1354.83 260.057,-1359.41 259.608,-1354.43 259.608,-1354.43 259.608,-1354.43 260.057,-1359.41 264.09,-1354.02 260.507,-1364.39 260.507,-1364.39"/>
<text text-anchor="middle" x="281.5" y="-1314.5" font-family="Helvetica,sans-Serif" font-size="10.00">collection</text>
</g>
</g>
</svg>
