<?xml version="1.0" encoding="UTF-8" standalone="no"?>
<!DOCTYPE svg PUBLIC "-//W3C//DTD SVG 1.1//EN"
 "http://www.w3.org/Graphics/SVG/1.1/DTD/svg11.dtd">
<!-- Generated by graphviz version 2.28.0 (20110610.2051)
 -->
<!-- Title: G Pages: 1 -->
<svg width="98pt" height="272pt"
 viewBox="0.00 0.00 98.00 272.00" xmlns="http://www.w3.org/2000/svg" xmlns:xlink="http://www.w3.org/1999/xlink">
<g id="graph1" class="graph" transform="scale(1 1) rotate(0) translate(4 268)">
<title>G</title>
<polygon fill="white" stroke="white" points="-4,5 -4,-268 95,-268 95,5 -4,5"/>
<!-- Node1 -->
<g id="node1" class="node"><title>Node1</title>
<polygon fill="#bfbfbf" stroke="black" points="0.5,-1 0.5,-135 89.5,-135 89.5,-1 0.5,-1"/>
<text text-anchor="middle" x="45" y="-123" font-family="Helvetica,sans-Serif" font-size="10.00">RBFbehavior</text>
<polyline fill="none" stroke="black" points="0.5,-116 89.5,-116 "/>
<text text-anchor="start" x="8.5" y="-104" font-family="Helvetica,sans-Serif" font-size="10.00">&#45; d_width</text>
<text text-anchor="start" x="8.5" y="-93" font-family="Helvetica,sans-Serif" font-size="10.00">&#45; d_altitude</text>
<text text-anchor="start" x="8.5" y="-82" font-family="Helvetica,sans-Serif" font-size="10.00">&#45; d_output</text>
<text text-anchor="start" x="8.5" y="-71" font-family="Helvetica,sans-Serif" font-size="10.00">&#45; d_nCons</text>
<text text-anchor="start" x="8.5" y="-60" font-family="Helvetica,sans-Serif" font-size="10.00">&#45; d_accumulator</text>
<polyline fill="none" stroke="black" points="0.5,-53 89.5,-53 "/>
<text text-anchor="start" x="8.5" y="-41" font-family="Helvetica,sans-Serif" font-size="10.00">+ predict()</text>
<text text-anchor="start" x="8.5" y="-30" font-family="Helvetica,sans-Serif" font-size="10.00">+ show()</text>
<text text-anchor="start" x="8.5" y="-19" font-family="Helvetica,sans-Serif" font-size="10.00">+ getOutput()</text>
<text text-anchor="start" x="8.5" y="-8" font-family="Helvetica,sans-Serif" font-size="10.00">+ setOutput()</text>
</g>
<!-- Node2 -->
<g id="node2" class="node"><title>Node2</title>
<a xlink:href="class_predict_behavior.html" target="_top" xlink:title="class PredictBehavior &#45;">
<polygon fill="white" stroke="black" points="0,-173 0,-263 90,-263 90,-173 0,-173"/>
<text text-anchor="middle" x="45" y="-251" font-family="Helvetica,sans-Serif" font-size="10.00">PredictBehavior</text>
<polyline fill="none" stroke="black" points="0,-244 90,-244 "/>
<text text-anchor="middle" x="45" y="-232" font-family="Helvetica,sans-Serif" font-size="10.00"> </text>
<polyline fill="none" stroke="black" points="0,-225 90,-225 "/>
<text text-anchor="start" x="8" y="-213" font-family="Helvetica,sans-Serif" font-size="10.00">+ predict()</text>
<text text-anchor="start" x="8" y="-202" font-family="Helvetica,sans-Serif" font-size="10.00">+ show()</text>
<text text-anchor="start" x="8" y="-191" font-family="Helvetica,sans-Serif" font-size="10.00">+ getOutput()</text>
<text text-anchor="start" x="8" y="-180" font-family="Helvetica,sans-Serif" font-size="10.00">+ setOutput()</text>
</a>
</g>
<!-- Node2&#45;&gt;Node1 -->
<g id="edge2" class="edge"><title>Node2&#45;&gt;Node1</title>
<path fill="none" stroke="midnightblue" d="M45,-162.962C45,-153.883 45,-144.37 45,-135.03"/>
<polygon fill="none" stroke="midnightblue" points="41.5001,-162.996 45,-172.996 48.5001,-162.996 41.5001,-162.996"/>
</g>
</g>
</svg>
