<?xml version="1.0" encoding="UTF-8" standalone="no"?>
<!DOCTYPE svg PUBLIC "-//W3C//DTD SVG 1.1//EN"
 "http://www.w3.org/Graphics/SVG/1.1/DTD/svg11.dtd">
<!-- Generated by graphviz version 2.28.0 (20110610.2051)
 -->
<!-- Title: G Pages: 1 -->
<svg width="106pt" height="206pt"
 viewBox="0.00 0.00 106.00 206.00" xmlns="http://www.w3.org/2000/svg" xmlns:xlink="http://www.w3.org/1999/xlink">
<g id="graph1" class="graph" transform="scale(1 1) rotate(0) translate(4 202)">
<title>G</title>
<polygon fill="white" stroke="white" points="-4,5 -4,-202 103,-202 103,5 -4,5"/>
<!-- Node1 -->
<g id="node1" class="node"><title>Node1</title>
<polygon fill="#bfbfbf" stroke="black" points="5,-1 5,-69 93,-69 93,-1 5,-1"/>
<text text-anchor="middle" x="49" y="-57" font-family="Helvetica,sans-Serif" font-size="10.00">SimpleNetwork</text>
<polyline fill="none" stroke="black" points="5,-50 93,-50 "/>
<text text-anchor="middle" x="49" y="-38" font-family="Helvetica,sans-Serif" font-size="10.00"> </text>
<polyline fill="none" stroke="black" points="5,-31 93,-31 "/>
<text text-anchor="start" x="13" y="-19" font-family="Helvetica,sans-Serif" font-size="10.00">+ show()</text>
<text text-anchor="start" x="13" y="-8" font-family="Helvetica,sans-Serif" font-size="10.00">+ validate()</text>
</g>
<!-- Node2 -->
<g id="node2" class="node"><title>Node2</title>
<a xlink:href="class_neural_network.html" target="_top" xlink:title="class NeuralNetwork &#45;">
<polygon fill="white" stroke="black" points="0,-107 0,-197 98,-197 98,-107 0,-107"/>
<text text-anchor="middle" x="49" y="-185" font-family="Helvetica,sans-Serif" font-size="10.00">NeuralNetwork</text>
<polyline fill="none" stroke="black" points="0,-178 98,-178 "/>
<text text-anchor="start" x="8" y="-166" font-family="Helvetica,sans-Serif" font-size="10.00"># d_inputLayer</text>
<text text-anchor="start" x="8" y="-155" font-family="Helvetica,sans-Serif" font-size="10.00"># d_hiddenLayers</text>
<text text-anchor="start" x="8" y="-144" font-family="Helvetica,sans-Serif" font-size="10.00"># d_outputLayer</text>
<polyline fill="none" stroke="black" points="0,-137 98,-137 "/>
<text text-anchor="start" x="8" y="-125" font-family="Helvetica,sans-Serif" font-size="10.00">+ show()</text>
<text text-anchor="start" x="8" y="-114" font-family="Helvetica,sans-Serif" font-size="10.00">+ validate()</text>
</a>
</g>
<!-- Node2&#45;&gt;Node1 -->
<g id="edge2" class="edge"><title>Node2&#45;&gt;Node1</title>
<path fill="none" stroke="midnightblue" d="M49,-96.7309C49,-87.3035 49,-77.7599 49,-69.1181"/>
<polygon fill="none" stroke="midnightblue" points="45.5001,-96.8669 49,-106.867 52.5001,-96.8669 45.5001,-96.8669"/>
</g>
</g>
</svg>
