<?xml version="1.0" encoding="UTF-8" standalone="no"?>
<!DOCTYPE svg PUBLIC "-//W3C//DTD SVG 1.1//EN"
 "http://www.w3.org/Graphics/SVG/1.1/DTD/svg11.dtd">
<!-- Generated by graphviz version 2.25.20091207.0545 (20091207.0545)
 -->
<!-- Title: G Pages: 1 -->
<svg width="112pt" height="466pt"
 viewBox="0.00 0.00 112.00 466.00" xmlns="http://www.w3.org/2000/svg" xmlns:xlink="http://www.w3.org/1999/xlink">
<g id="graph1" class="graph" transform="scale(1 1) rotate(0) translate(4 462)">
<title>G</title>
<polygon fill="white" stroke="white" points="-4,5 -4,-462 109,-462 109,5 -4,5"/>
<!-- Node1 -->
<g id="node1" class="node"><title>Node1</title>
<polygon fill="#bfbfbf" stroke="black" points="1,-0.5 1,-123.5 103,-123.5 103,-0.5 1,-0.5"/>
<text text-anchor="middle" x="52" y="-110.5" font-family="Helvetica,sans-Serif" font-size="10.00">vecCon</text>
<polyline fill="none" stroke="black" points="1,-104.5 103,-104.5 "/>
<text text-anchor="middle" x="52" y="-91.5" font-family="Helvetica,sans-Serif" font-size="10.00"> </text>
<polyline fill="none" stroke="black" points="1,-85.5 103,-85.5 "/>
<text text-anchor="start" x="9" y="-72.5" font-family="Helvetica,sans-Serif" font-size="10.00">+ numOfCons()</text>
<text text-anchor="start" x="9" y="-61.5" font-family="Helvetica,sans-Serif" font-size="10.00">+ getFromId()</text>
<text text-anchor="start" x="9" y="-50.5" font-family="Helvetica,sans-Serif" font-size="10.00">+ buildAndAppend()</text>
<text text-anchor="start" x="9" y="-39.5" font-family="Helvetica,sans-Serif" font-size="10.00">+ getWeight()</text>
<text text-anchor="start" x="9" y="-28.5" font-family="Helvetica,sans-Serif" font-size="10.00">+ getFromNeuron()</text>
<text text-anchor="start" x="9" y="-17.5" font-family="Helvetica,sans-Serif" font-size="10.00">+ setWeight()</text>
<text text-anchor="start" x="9" y="-6.5" font-family="Helvetica,sans-Serif" font-size="10.00">+ setFromNeuron()</text>
</g>
<!-- Node2 -->
<g id="node2" class="node"><title>Node2</title>
<a xlink:href="classvec_a_m_o_r_e.html" target="_top" xlink:title="{vecAMORE\&lt; Con \&gt;\n|# ldata\l|+ getLdata()\l+ setLdata()\l+ size()\l+ push_back()\l+ append()\l+ show()\l+ validate()\l}">
<polygon fill="white" stroke="black" points="-0.5,-162.5 -0.5,-285.5 104.5,-285.5 104.5,-162.5 -0.5,-162.5"/>
<text text-anchor="middle" x="52" y="-272.5" font-family="Helvetica,sans-Serif" font-size="10.00">vecAMORE&lt; Con &gt;</text>
<polyline fill="none" stroke="black" points="-0.5,-266.5 104.5,-266.5 "/>
<text text-anchor="start" x="7.5" y="-253.5" font-family="Helvetica,sans-Serif" font-size="10.00"># ldata</text>
<polyline fill="none" stroke="black" points="-0.5,-247.5 104.5,-247.5 "/>
<text text-anchor="start" x="7.5" y="-234.5" font-family="Helvetica,sans-Serif" font-size="10.00">+ getLdata()</text>
<text text-anchor="start" x="7.5" y="-223.5" font-family="Helvetica,sans-Serif" font-size="10.00">+ setLdata()</text>
<text text-anchor="start" x="7.5" y="-212.5" font-family="Helvetica,sans-Serif" font-size="10.00">+ size()</text>
<text text-anchor="start" x="7.5" y="-201.5" font-family="Helvetica,sans-Serif" font-size="10.00">+ push_back()</text>
<text text-anchor="start" x="7.5" y="-190.5" font-family="Helvetica,sans-Serif" font-size="10.00">+ append()</text>
<text text-anchor="start" x="7.5" y="-179.5" font-family="Helvetica,sans-Serif" font-size="10.00">+ show()</text>
<text text-anchor="start" x="7.5" y="-168.5" font-family="Helvetica,sans-Serif" font-size="10.00">+ validate()</text>
</a>
</g>
<!-- Node2&#45;&gt;Node1 -->
<g id="edge2" class="edge"><title>Node2&#45;&gt;Node1</title>
<path fill="none" stroke="midnightblue" d="M52,-152.058C52,-142.541 52,-132.856 52,-123.536"/>
<polygon fill="none" stroke="midnightblue" points="48.5001,-152.293 52,-162.293 55.5001,-152.293 48.5001,-152.293"/>
</g>
<!-- Node3 -->
<g id="node4" class="node"><title>Node3</title>
<a xlink:href="classvec_a_m_o_r_e.html" target="_top" xlink:title="{vecAMORE\&lt; T \&gt;\n|# ldata\l|+ getLdata()\l+ setLdata()\l+ size()\l+ push_back()\l+ append()\l+ show()\l+ validate()\l}">
<polygon fill="white" stroke="black" points="5.5,-334.5 5.5,-457.5 98.5,-457.5 98.5,-334.5 5.5,-334.5"/>
<text text-anchor="middle" x="52" y="-444.5" font-family="Helvetica,sans-Serif" font-size="10.00">vecAMORE&lt; T &gt;</text>
<polyline fill="none" stroke="black" points="5.5,-438.5 98.5,-438.5 "/>
<text text-anchor="start" x="13.5" y="-425.5" font-family="Helvetica,sans-Serif" font-size="10.00"># ldata</text>
<polyline fill="none" stroke="black" points="5.5,-419.5 98.5,-419.5 "/>
<text text-anchor="start" x="13.5" y="-406.5" font-family="Helvetica,sans-Serif" font-size="10.00">+ getLdata()</text>
<text text-anchor="start" x="13.5" y="-395.5" font-family="Helvetica,sans-Serif" font-size="10.00">+ setLdata()</text>
<text text-anchor="start" x="13.5" y="-384.5" font-family="Helvetica,sans-Serif" font-size="10.00">+ size()</text>
<text text-anchor="start" x="13.5" y="-373.5" font-family="Helvetica,sans-Serif" font-size="10.00">+ push_back()</text>
<text text-anchor="start" x="13.5" y="-362.5" font-family="Helvetica,sans-Serif" font-size="10.00">+ append()</text>
<text text-anchor="start" x="13.5" y="-351.5" font-family="Helvetica,sans-Serif" font-size="10.00">+ show()</text>
<text text-anchor="start" x="13.5" y="-340.5" font-family="Helvetica,sans-Serif" font-size="10.00">+ validate()</text>
</a>
</g>
<!-- Node3&#45;&gt;Node2 -->
<g id="edge4" class="edge"><title>Node3&#45;&gt;Node2</title>
<path fill="none" stroke="orange" stroke-dasharray="5,2" d="M52,-324.248C52,-311.459 52,-298.238 52,-285.758"/>
<polygon fill="orange" stroke="orange" points="48.5001,-324.39 52,-334.39 55.5001,-324.39 48.5001,-324.39"/>
<text text-anchor="middle" x="70" y="-306.5" font-family="Helvetica,sans-Serif" font-size="10.00">&lt; Con &gt;</text>
</g>
</g>
</svg>
