<?xml version="1.0" encoding="UTF-8" standalone="no"?>
<!DOCTYPE svg PUBLIC "-//W3C//DTD SVG 1.1//EN"
 "http://www.w3.org/Graphics/SVG/1.1/DTD/svg11.dtd">
<!-- Generated by graphviz version 2.28.0 (20110610.2051)
 -->
<!-- Title: G Pages: 1 -->
<svg width="142pt" height="260pt"
 viewBox="0.00 0.00 142.00 260.00" xmlns="http://www.w3.org/2000/svg" xmlns:xlink="http://www.w3.org/1999/xlink">
<g id="graph1" class="graph" transform="scale(1 1) rotate(0) translate(4 256)">
<title>G</title>
<polygon fill="white" stroke="white" points="-4,5 -4,-256 139,-256 139,5 -4,5"/>
<!-- Node1 -->
<g id="node1" class="node"><title>Node1</title>
<polygon fill="#bfbfbf" stroke="black" points="1,-1 1,-113 133,-113 133,-1 1,-1"/>
<text text-anchor="middle" x="67" y="-101" font-family="Helvetica,sans-Serif" font-size="10.00">RBFfactory</text>
<polyline fill="none" stroke="black" points="1,-94 133,-94 "/>
<text text-anchor="middle" x="67" y="-82" font-family="Helvetica,sans-Serif" font-size="10.00"> </text>
<polyline fill="none" stroke="black" points="1,-75 133,-75 "/>
<text text-anchor="start" x="9" y="-63" font-family="Helvetica,sans-Serif" font-size="10.00">+ RBFfactory()</text>
<text text-anchor="start" x="9" y="-52" font-family="Helvetica,sans-Serif" font-size="10.00">&#45; makeCon()</text>
<text text-anchor="start" x="9" y="-41" font-family="Helvetica,sans-Serif" font-size="10.00">&#45; makeCon()</text>
<text text-anchor="start" x="9" y="-30" font-family="Helvetica,sans-Serif" font-size="10.00">&#45; makeConContainer()</text>
<text text-anchor="start" x="9" y="-19" font-family="Helvetica,sans-Serif" font-size="10.00">&#45; makeNeuronContainer()</text>
<text text-anchor="start" x="9" y="-8" font-family="Helvetica,sans-Serif" font-size="10.00">&#45; makeNeuron()</text>
</g>
<!-- Node2 -->
<g id="node2" class="node"><title>Node2</title>
<a xlink:href="class_neural_factory.html" target="_top" xlink:title="class NeuralFactory &#45;">
<polygon fill="white" stroke="black" points="-0.5,-150.5 -0.5,-251.5 134.5,-251.5 134.5,-150.5 -0.5,-150.5"/>
<text text-anchor="middle" x="67" y="-239.5" font-family="Helvetica,sans-Serif" font-size="10.00">NeuralFactory</text>
<polyline fill="none" stroke="black" points="-0.5,-232.5 134.5,-232.5 "/>
<text text-anchor="middle" x="67" y="-220.5" font-family="Helvetica,sans-Serif" font-size="10.00"> </text>
<polyline fill="none" stroke="black" points="-0.5,-213.5 134.5,-213.5 "/>
<text text-anchor="start" x="7.5" y="-201.5" font-family="Helvetica,sans-Serif" font-size="10.00">+ makeCon()</text>
<text text-anchor="start" x="7.5" y="-190.5" font-family="Helvetica,sans-Serif" font-size="10.00">+ makeCon()</text>
<text text-anchor="start" x="7.5" y="-179.5" font-family="Helvetica,sans-Serif" font-size="10.00">+ makeConContainer()</text>
<text text-anchor="start" x="7.5" y="-168.5" font-family="Helvetica,sans-Serif" font-size="10.00">+ makeNeuronContainer()</text>
<text text-anchor="start" x="7.5" y="-157.5" font-family="Helvetica,sans-Serif" font-size="10.00">+ makeNeuron()</text>
</a>
</g>
<!-- Node2&#45;&gt;Node1 -->
<g id="edge2" class="edge"><title>Node2&#45;&gt;Node1</title>
<path fill="none" stroke="midnightblue" d="M67,-140.325C67,-131.337 67,-122.101 67,-113.212"/>
<polygon fill="none" stroke="midnightblue" points="63.5001,-140.335 67,-150.335 70.5001,-140.335 63.5001,-140.335"/>
</g>
</g>
</svg>
