<?xml version="1.0" encoding="UTF-8" standalone="no"?>
<!DOCTYPE svg PUBLIC "-//W3C//DTD SVG 1.1//EN"
 "http://www.w3.org/Graphics/SVG/1.1/DTD/svg11.dtd">
<!-- Generated by graphviz version 2.25.20091207.0545 (20091207.0545)
 -->
<!-- Title: G Pages: 1 -->
<svg width="351pt" height="898pt"
 viewBox="0.00 0.00 351.00 898.00" xmlns="http://www.w3.org/2000/svg" xmlns:xlink="http://www.w3.org/1999/xlink">
<g id="graph1" class="graph" transform="scale(1 1) rotate(0) translate(4 894)">
<title>G</title>
<polygon fill="white" stroke="white" points="-4,5 -4,-894 348,-894 348,5 -4,5"/>
<!-- Node1 -->
<g id="node1" class="node"><title>Node1</title>
<polygon fill="#bfbfbf" stroke="black" points="95,-0.5 95,-167.5 197,-167.5 197,-0.5 95,-0.5"/>
<text text-anchor="middle" x="146" y="-154.5" font-family="Helvetica,sans-Serif" font-size="10.00">vecCon</text>
<polyline fill="none" stroke="black" points="95,-148.5 197,-148.5 "/>
<text text-anchor="middle" x="146" y="-135.5" font-family="Helvetica,sans-Serif" font-size="10.00"> </text>
<polyline fill="none" stroke="black" points="95,-129.5 197,-129.5 "/>
<text text-anchor="start" x="103" y="-116.5" font-family="Helvetica,sans-Serif" font-size="10.00">+ numOfCons()</text>
<text text-anchor="start" x="103" y="-105.5" font-family="Helvetica,sans-Serif" font-size="10.00">+ getFromId()</text>
<text text-anchor="start" x="103" y="-94.5" font-family="Helvetica,sans-Serif" font-size="10.00">+ buildAndAppend()</text>
<text text-anchor="start" x="103" y="-83.5" font-family="Helvetica,sans-Serif" font-size="10.00">+ getWeight()</text>
<text text-anchor="start" x="103" y="-72.5" font-family="Helvetica,sans-Serif" font-size="10.00">+ getWeight()</text>
<text text-anchor="start" x="103" y="-61.5" font-family="Helvetica,sans-Serif" font-size="10.00">+ getFromNeuron()</text>
<text text-anchor="start" x="103" y="-50.5" font-family="Helvetica,sans-Serif" font-size="10.00">+ setWeight()</text>
<text text-anchor="start" x="103" y="-39.5" font-family="Helvetica,sans-Serif" font-size="10.00">+ setWeight()</text>
<text text-anchor="start" x="103" y="-28.5" font-family="Helvetica,sans-Serif" font-size="10.00">+ setFromNeuron()</text>
<text text-anchor="start" x="103" y="-17.5" font-family="Helvetica,sans-Serif" font-size="10.00">+ erase()</text>
<text text-anchor="start" x="103" y="-6.5" font-family="Helvetica,sans-Serif" font-size="10.00">+ select()</text>
</g>
<!-- Node2 -->
<g id="node2" class="node"><title>Node2</title>
<a xlink:href="classvec_a_m_o_r_e.html" target="_top" xlink:title="{vecAMORE\&lt; Con \&gt;\n|# ldata\l|+ getLdata()\l+ setLdata()\l+ size()\l+ push_back()\l+ append()\l+ show()\l+ validate()\l+ reserve()\l}">
<polygon fill="white" stroke="black" points="93.5,-207 93.5,-341 198.5,-341 198.5,-207 93.5,-207"/>
<text text-anchor="middle" x="146" y="-328" font-family="Helvetica,sans-Serif" font-size="10.00">vecAMORE&lt; Con &gt;</text>
<polyline fill="none" stroke="black" points="93.5,-322 198.5,-322 "/>
<text text-anchor="start" x="101.5" y="-309" font-family="Helvetica,sans-Serif" font-size="10.00"># ldata</text>
<polyline fill="none" stroke="black" points="93.5,-303 198.5,-303 "/>
<text text-anchor="start" x="101.5" y="-290" font-family="Helvetica,sans-Serif" font-size="10.00">+ getLdata()</text>
<text text-anchor="start" x="101.5" y="-279" font-family="Helvetica,sans-Serif" font-size="10.00">+ setLdata()</text>
<text text-anchor="start" x="101.5" y="-268" font-family="Helvetica,sans-Serif" font-size="10.00">+ size()</text>
<text text-anchor="start" x="101.5" y="-257" font-family="Helvetica,sans-Serif" font-size="10.00">+ push_back()</text>
<text text-anchor="start" x="101.5" y="-246" font-family="Helvetica,sans-Serif" font-size="10.00">+ append()</text>
<text text-anchor="start" x="101.5" y="-235" font-family="Helvetica,sans-Serif" font-size="10.00">+ show()</text>
<text text-anchor="start" x="101.5" y="-224" font-family="Helvetica,sans-Serif" font-size="10.00">+ validate()</text>
<text text-anchor="start" x="101.5" y="-213" font-family="Helvetica,sans-Serif" font-size="10.00">+ reserve()</text>
</a>
</g>
<!-- Node2&#45;&gt;Node1 -->
<g id="edge2" class="edge"><title>Node2&#45;&gt;Node1</title>
<path fill="none" stroke="midnightblue" d="M146,-196.575C146,-187.098 146,-177.379 146,-167.813"/>
<polygon fill="none" stroke="midnightblue" points="142.5,-196.746 146,-206.746 149.5,-196.746 142.5,-196.746"/>
</g>
<!-- Node3 -->
<g id="node4" class="node"><title>Node3</title>
<polygon fill="white" stroke="#bfbfbf" points="0,-544.5 0,-601.5 192,-601.5 192,-544.5 0,-544.5"/>
<text text-anchor="middle" x="96" y="-588.5" font-family="Helvetica,sans-Serif" font-size="10.00">std::vector&lt; boost::shared_ptr&lt; Con &gt; &gt;</text>
<polyline fill="none" stroke="#bfbfbf" points="0,-582.5 192,-582.5 "/>
<text text-anchor="start" x="8" y="-569.5" font-family="Helvetica,sans-Serif" font-size="10.00">&#45; elements</text>
<polyline fill="none" stroke="#bfbfbf" points="0,-563.5 192,-563.5 "/>
<text text-anchor="middle" x="96" y="-550.5" font-family="Helvetica,sans-Serif" font-size="10.00"> </text>
</g>
<!-- Node3&#45;&gt;Node2 -->
<g id="edge4" class="edge"><title>Node3&#45;&gt;Node2</title>
<path fill="none" stroke="#9a32cd" stroke-dasharray="5,2" d="M102.493,-534.17C110.671,-485.268 124.853,-400.462 134.796,-341.003"/>
<polygon fill="#9a32cd" stroke="#9a32cd" points="100.794,-544.331 98.0053,-533.725 101.619,-539.399 102.444,-534.468 102.444,-534.468 102.444,-534.468 101.619,-539.399 106.882,-535.21 100.794,-544.331 100.794,-544.331"/>
<text text-anchor="middle" x="137.5" y="-454.5" font-family="Helvetica,sans-Serif" font-size="10.00">ldata</text>
</g>
<!-- Node4 -->
<g id="node6" class="node"><title>Node4</title>
<a xlink:title="STL class.">
<polygon fill="white" stroke="#bfbfbf" points="120.5,-726.5 120.5,-783.5 207.5,-783.5 207.5,-726.5 120.5,-726.5"/>
<text text-anchor="middle" x="164" y="-770.5" font-family="Helvetica,sans-Serif" font-size="10.00">std::vector&lt; T &gt;</text>
<polyline fill="none" stroke="#bfbfbf" points="120.5,-764.5 207.5,-764.5 "/>
<text text-anchor="start" x="128.5" y="-751.5" font-family="Helvetica,sans-Serif" font-size="10.00">&#45; elements</text>
<polyline fill="none" stroke="#bfbfbf" points="120.5,-745.5 207.5,-745.5 "/>
<text text-anchor="middle" x="164" y="-732.5" font-family="Helvetica,sans-Serif" font-size="10.00"> </text>
</a>
</g>
<!-- Node4&#45;&gt;Node3 -->
<g id="edge6" class="edge"><title>Node4&#45;&gt;Node3</title>
<path fill="none" stroke="orange" stroke-dasharray="5,2" d="M111.191,-733.955C100.727,-727.266 91.1016,-718.73 85,-708 66.3434,-675.192 75.4042,-630.458 84.7607,-601.647"/>
<polygon fill="orange" stroke="orange" points="109.714,-737.145 120.118,-739.147 113.233,-731.094 109.714,-737.145"/>
<text text-anchor="middle" x="150" y="-698.5" font-family="Helvetica,sans-Serif" font-size="10.00">&lt; boost::shared_ptr&lt; Con &gt; &gt;</text>
</g>
<!-- Node7 -->
<g id="node12" class="node"><title>Node7</title>
<polygon fill="white" stroke="#bfbfbf" points="146,-620.5 146,-677.5 326,-677.5 326,-620.5 146,-620.5"/>
<text text-anchor="middle" x="236" y="-664.5" font-family="Helvetica,sans-Serif" font-size="10.00">std::vector&lt; boost::shared_ptr&lt; T &gt; &gt;</text>
<polyline fill="none" stroke="#bfbfbf" points="146,-658.5 326,-658.5 "/>
<text text-anchor="start" x="154" y="-645.5" font-family="Helvetica,sans-Serif" font-size="10.00">&#45; elements</text>
<polyline fill="none" stroke="#bfbfbf" points="146,-639.5 326,-639.5 "/>
<text text-anchor="middle" x="236" y="-626.5" font-family="Helvetica,sans-Serif" font-size="10.00"> </text>
</g>
<!-- Node4&#45;&gt;Node7 -->
<g id="edge14" class="edge"><title>Node4&#45;&gt;Node7</title>
<path fill="none" stroke="orange" stroke-dasharray="5,2" d="M210.511,-719.072C213.638,-715.549 216.523,-711.846 219,-708 224.829,-698.948 228.705,-687.855 231.261,-677.74"/>
<polygon fill="orange" stroke="orange" points="207.779,-716.862 203.342,-726.482 212.81,-721.729 207.779,-716.862"/>
<text text-anchor="middle" x="284" y="-698.5" font-family="Helvetica,sans-Serif" font-size="10.00">&lt; boost::shared_ptr&lt; T &gt; &gt;</text>
</g>
<!-- Node5 -->
<g id="node8" class="node"><title>Node5</title>
<polygon fill="white" stroke="#bfbfbf" points="149.5,-832.5 149.5,-889.5 178.5,-889.5 178.5,-832.5 149.5,-832.5"/>
<text text-anchor="middle" x="164" y="-876.5" font-family="Helvetica,sans-Serif" font-size="10.00">T</text>
<polyline fill="none" stroke="#bfbfbf" points="149.5,-870.5 178.5,-870.5 "/>
<text text-anchor="middle" x="164" y="-857.5" font-family="Helvetica,sans-Serif" font-size="10.00"> </text>
<polyline fill="none" stroke="#bfbfbf" points="149.5,-851.5 178.5,-851.5 "/>
<text text-anchor="middle" x="164" y="-838.5" font-family="Helvetica,sans-Serif" font-size="10.00"> </text>
</g>
<!-- Node5&#45;&gt;Node4 -->
<g id="edge8" class="edge"><title>Node5&#45;&gt;Node4</title>
<path fill="none" stroke="#9a32cd" stroke-dasharray="5,2" d="M164,-822.005C164,-809.326 164,-795.494 164,-783.708"/>
<polygon fill="#9a32cd" stroke="#9a32cd" points="164,-832.315 159.5,-822.315 164,-827.315 164,-822.315 164,-822.315 164,-822.315 164,-827.315 168.5,-822.315 164,-832.315 164,-832.315"/>
<text text-anchor="middle" x="184" y="-804.5" font-family="Helvetica,sans-Serif" font-size="10.00">elements</text>
</g>
<!-- Node6 -->
<g id="node10" class="node"><title>Node6</title>
<a xlink:href="classvec_a_m_o_r_e.html" target="_top" xlink:title="{vecAMORE\&lt; T \&gt;\n|# ldata\l|+ getLdata()\l+ setLdata()\l+ size()\l+ push_back()\l+ append()\l+ show()\l+ validate()\l+ reserve()\l}">
<polygon fill="white" stroke="black" points="162.5,-391 162.5,-525 255.5,-525 255.5,-391 162.5,-391"/>
<text text-anchor="middle" x="209" y="-512" font-family="Helvetica,sans-Serif" font-size="10.00">vecAMORE&lt; T &gt;</text>
<polyline fill="none" stroke="black" points="162.5,-506 255.5,-506 "/>
<text text-anchor="start" x="170.5" y="-493" font-family="Helvetica,sans-Serif" font-size="10.00"># ldata</text>
<polyline fill="none" stroke="black" points="162.5,-487 255.5,-487 "/>
<text text-anchor="start" x="170.5" y="-474" font-family="Helvetica,sans-Serif" font-size="10.00">+ getLdata()</text>
<text text-anchor="start" x="170.5" y="-463" font-family="Helvetica,sans-Serif" font-size="10.00">+ setLdata()</text>
<text text-anchor="start" x="170.5" y="-452" font-family="Helvetica,sans-Serif" font-size="10.00">+ size()</text>
<text text-anchor="start" x="170.5" y="-441" font-family="Helvetica,sans-Serif" font-size="10.00">+ push_back()</text>
<text text-anchor="start" x="170.5" y="-430" font-family="Helvetica,sans-Serif" font-size="10.00">+ append()</text>
<text text-anchor="start" x="170.5" y="-419" font-family="Helvetica,sans-Serif" font-size="10.00">+ show()</text>
<text text-anchor="start" x="170.5" y="-408" font-family="Helvetica,sans-Serif" font-size="10.00">+ validate()</text>
<text text-anchor="start" x="170.5" y="-397" font-family="Helvetica,sans-Serif" font-size="10.00">+ reserve()</text>
</a>
</g>
<!-- Node6&#45;&gt;Node2 -->
<g id="edge10" class="edge"><title>Node6&#45;&gt;Node2</title>
<path fill="none" stroke="orange" stroke-dasharray="5,2" d="M182.696,-381.176C178.131,-367.843 173.416,-354.073 168.949,-341.027"/>
<polygon fill="orange" stroke="orange" points="179.437,-382.464 185.988,-390.791 186.06,-380.196 179.437,-382.464"/>
<text text-anchor="middle" x="197" y="-362.5" font-family="Helvetica,sans-Serif" font-size="10.00">&lt; Con &gt;</text>
</g>
<!-- Node7&#45;&gt;Node6 -->
<g id="edge12" class="edge"><title>Node7&#45;&gt;Node6</title>
<path fill="none" stroke="#9a32cd" stroke-dasharray="5,2" d="M230.551,-610.454C227.1,-586.038 222.542,-553.795 218.507,-525.252"/>
<polygon fill="#9a32cd" stroke="#9a32cd" points="231.958,-620.405 226.102,-611.134 231.258,-615.455 230.558,-610.504 230.558,-610.504 230.558,-610.504 231.258,-615.455 235.014,-609.874 231.958,-620.405 231.958,-620.405"/>
<text text-anchor="middle" x="238.5" y="-569.5" font-family="Helvetica,sans-Serif" font-size="10.00">ldata</text>
</g>
</g>
</svg>
