<?xml version="1.0" encoding="UTF-8" standalone="no"?>
<!DOCTYPE svg PUBLIC "-//W3C//DTD SVG 1.1//EN"
 "http://www.w3.org/Graphics/SVG/1.1/DTD/svg11.dtd">
<!-- Generated by graphviz version 2.28.0 (20110610.2051)
 -->
<!-- Title: G Pages: 1 -->
<svg width="2044pt" height="398pt"
 viewBox="0.00 0.00 2044.00 398.00" xmlns="http://www.w3.org/2000/svg" xmlns:xlink="http://www.w3.org/1999/xlink">
<g id="graph1" class="graph" transform="scale(1 1) rotate(0) translate(4 394)">
<title>G</title>
<polygon fill="white" stroke="white" points="-4,5 -4,-394 2041,-394 2041,5 -4,5"/>
<!-- Node1 -->
<g id="node1" class="node"><title>Node1</title>
<polygon fill="#bfbfbf" stroke="black" points="1222.5,-266.5 1222.5,-389.5 1365.5,-389.5 1365.5,-266.5 1222.5,-266.5"/>
<text text-anchor="middle" x="1294" y="-377.5" font-family="Helvetica,sans-Serif" font-size="10.00">NeuralFactory</text>
<polyline fill="none" stroke="black" points="1222.5,-370.5 1365.5,-370.5 "/>
<text text-anchor="middle" x="1294" y="-358.5" font-family="Helvetica,sans-Serif" font-size="10.00"> </text>
<polyline fill="none" stroke="black" points="1222.5,-351.5 1365.5,-351.5 "/>
<text text-anchor="start" x="1230.5" y="-339.5" font-family="Helvetica,sans-Serif" font-size="10.00">+ makeCon()</text>
<text text-anchor="start" x="1230.5" y="-328.5" font-family="Helvetica,sans-Serif" font-size="10.00">+ makeConContainer()</text>
<text text-anchor="start" x="1230.5" y="-317.5" font-family="Helvetica,sans-Serif" font-size="10.00">+ makeActivationFunction()</text>
<text text-anchor="start" x="1230.5" y="-306.5" font-family="Helvetica,sans-Serif" font-size="10.00">+ makePredictBehavior()</text>
<text text-anchor="start" x="1230.5" y="-295.5" font-family="Helvetica,sans-Serif" font-size="10.00">+ makeNeuron()</text>
<text text-anchor="start" x="1230.5" y="-284.5" font-family="Helvetica,sans-Serif" font-size="10.00">+ makeNeuron()</text>
<text text-anchor="start" x="1230.5" y="-273.5" font-family="Helvetica,sans-Serif" font-size="10.00">+ makeNeuronContainer()</text>
</g>
<!-- Node2 -->
<g id="node3" class="node"><title>Node2</title>
<a xlink:href="class_m_l_pfactory.html" target="_top" xlink:title="class MLPfactory &#45;">
<polygon fill="white" stroke="black" points="947.5,-95 947.5,-229 1088.5,-229 1088.5,-95 947.5,-95"/>
<text text-anchor="middle" x="1018" y="-217" font-family="Helvetica,sans-Serif" font-size="10.00">MLPfactory</text>
<polyline fill="none" stroke="black" points="947.5,-210 1088.5,-210 "/>
<text text-anchor="middle" x="1018" y="-198" font-family="Helvetica,sans-Serif" font-size="10.00"> </text>
<polyline fill="none" stroke="black" points="947.5,-191 1088.5,-191 "/>
<text text-anchor="start" x="955.5" y="-179" font-family="Helvetica,sans-Serif" font-size="10.00">+ MLPfactory()</text>
<text text-anchor="start" x="955.5" y="-168" font-family="Helvetica,sans-Serif" font-size="10.00"># makeCon()</text>
<text text-anchor="start" x="955.5" y="-157" font-family="Helvetica,sans-Serif" font-size="10.00"># makeConContainer()</text>
<text text-anchor="start" x="955.5" y="-146" font-family="Helvetica,sans-Serif" font-size="10.00"># makeActivationFunction()</text>
<text text-anchor="start" x="955.5" y="-135" font-family="Helvetica,sans-Serif" font-size="10.00"># makePredictBehavior()</text>
<text text-anchor="start" x="955.5" y="-124" font-family="Helvetica,sans-Serif" font-size="10.00"># makeNeuron()</text>
<text text-anchor="start" x="955.5" y="-113" font-family="Helvetica,sans-Serif" font-size="10.00"># makeNeuron()</text>
<text text-anchor="start" x="955.5" y="-102" font-family="Helvetica,sans-Serif" font-size="10.00"># makeNeuronContainer()</text>
</a>
</g>
<!-- Node1&#45;&gt;Node2 -->
<g id="edge2" class="edge"><title>Node1&#45;&gt;Node2</title>
<path fill="none" stroke="midnightblue" d="M1213.4,-279.108C1173.99,-255.693 1126.99,-227.762 1088.96,-205.163"/>
<polygon fill="none" stroke="midnightblue" points="1211.82,-282.24 1222.2,-284.339 1215.4,-276.222 1211.82,-282.24"/>
</g>
<!-- Node15 -->
<g id="node29" class="node"><title>Node15</title>
<a xlink:href="class_r_b_ffactory.html" target="_top" xlink:title="class RBFfactory &#45;">
<polygon fill="white" stroke="black" points="1500.5,-95 1500.5,-229 1641.5,-229 1641.5,-95 1500.5,-95"/>
<text text-anchor="middle" x="1571" y="-217" font-family="Helvetica,sans-Serif" font-size="10.00">RBFfactory</text>
<polyline fill="none" stroke="black" points="1500.5,-210 1641.5,-210 "/>
<text text-anchor="middle" x="1571" y="-198" font-family="Helvetica,sans-Serif" font-size="10.00"> </text>
<polyline fill="none" stroke="black" points="1500.5,-191 1641.5,-191 "/>
<text text-anchor="start" x="1508.5" y="-179" font-family="Helvetica,sans-Serif" font-size="10.00">+ RBFfactory()</text>
<text text-anchor="start" x="1508.5" y="-168" font-family="Helvetica,sans-Serif" font-size="10.00"># makeCon()</text>
<text text-anchor="start" x="1508.5" y="-157" font-family="Helvetica,sans-Serif" font-size="10.00"># makeConContainer()</text>
<text text-anchor="start" x="1508.5" y="-146" font-family="Helvetica,sans-Serif" font-size="10.00"># makeActivationFunction()</text>
<text text-anchor="start" x="1508.5" y="-135" font-family="Helvetica,sans-Serif" font-size="10.00"># makePredictBehavior()</text>
<text text-anchor="start" x="1508.5" y="-124" font-family="Helvetica,sans-Serif" font-size="10.00"># makeNeuron()</text>
<text text-anchor="start" x="1508.5" y="-113" font-family="Helvetica,sans-Serif" font-size="10.00"># makeNeuron()</text>
<text text-anchor="start" x="1508.5" y="-102" font-family="Helvetica,sans-Serif" font-size="10.00"># makeNeuronContainer()</text>
</a>
</g>
<!-- Node1&#45;&gt;Node15 -->
<g id="edge28" class="edge"><title>Node1&#45;&gt;Node15</title>
<path fill="none" stroke="midnightblue" d="M1374.32,-279.448C1414.09,-255.902 1461.68,-227.725 1500.09,-204.985"/>
<polygon fill="none" stroke="midnightblue" points="1372.52,-276.446 1365.69,-284.553 1376.08,-282.47 1372.52,-276.446"/>
</g>
<!-- Node3 -->
<g id="node5" class="node"><title>Node3</title>
<a xlink:href="class_arc_tan_factory.html" target="_top" xlink:title="class ArcTanFactory &#45;">
<polygon fill="white" stroke="black" points="0,-0.5 0,-57.5 140,-57.5 140,-0.5 0,-0.5"/>
<text text-anchor="middle" x="70" y="-45.5" font-family="Helvetica,sans-Serif" font-size="10.00">ArcTanFactory</text>
<polyline fill="none" stroke="black" points="0,-38.5 140,-38.5 "/>
<text text-anchor="middle" x="70" y="-26.5" font-family="Helvetica,sans-Serif" font-size="10.00"> </text>
<polyline fill="none" stroke="black" points="0,-19.5 140,-19.5 "/>
<text text-anchor="start" x="8" y="-7.5" font-family="Helvetica,sans-Serif" font-size="10.00">&#45; makeActivationFunction()</text>
</a>
</g>
<!-- Node2&#45;&gt;Node3 -->
<g id="edge4" class="edge"><title>Node2&#45;&gt;Node3</title>
<path fill="none" stroke="midnightblue" d="M936.874,-157.411C781.921,-149.236 433.911,-124.499 149,-58 146.166,-57.3385 143.292,-56.6095 140.403,-55.8275"/>
<polygon fill="none" stroke="midnightblue" points="937.078,-160.926 947.246,-157.949 937.44,-153.936 937.078,-160.926"/>
</g>
<!-- Node4 -->
<g id="node7" class="node"><title>Node4</title>
<a xlink:href="class_cosine_factory.html" target="_top" xlink:title="class CosineFactory &#45;">
<polygon fill="white" stroke="black" points="158,-0.5 158,-57.5 298,-57.5 298,-0.5 158,-0.5"/>
<text text-anchor="middle" x="228" y="-45.5" font-family="Helvetica,sans-Serif" font-size="10.00">CosineFactory</text>
<polyline fill="none" stroke="black" points="158,-38.5 298,-38.5 "/>
<text text-anchor="middle" x="228" y="-26.5" font-family="Helvetica,sans-Serif" font-size="10.00"> </text>
<polyline fill="none" stroke="black" points="158,-19.5 298,-19.5 "/>
<text text-anchor="start" x="166" y="-7.5" font-family="Helvetica,sans-Serif" font-size="10.00">&#45; makeActivationFunction()</text>
</a>
</g>
<!-- Node2&#45;&gt;Node4 -->
<g id="edge6" class="edge"><title>Node2&#45;&gt;Node4</title>
<path fill="none" stroke="midnightblue" d="M937.387,-154.526C804.508,-142.701 531.809,-113.549 307,-58 304.175,-57.3019 301.309,-56.542 298.426,-55.7341"/>
<polygon fill="none" stroke="midnightblue" points="937.216,-158.025 947.484,-155.416 937.83,-151.052 937.216,-158.025"/>
</g>
<!-- Node5 -->
<g id="node9" class="node"><title>Node5</title>
<a xlink:href="class_elliot_factory.html" target="_top" xlink:title="class ElliotFactory &#45;">
<polygon fill="white" stroke="black" points="316,-0.5 316,-57.5 456,-57.5 456,-0.5 316,-0.5"/>
<text text-anchor="middle" x="386" y="-45.5" font-family="Helvetica,sans-Serif" font-size="10.00">ElliotFactory</text>
<polyline fill="none" stroke="black" points="316,-38.5 456,-38.5 "/>
<text text-anchor="middle" x="386" y="-26.5" font-family="Helvetica,sans-Serif" font-size="10.00"> </text>
<polyline fill="none" stroke="black" points="316,-19.5 456,-19.5 "/>
<text text-anchor="start" x="324" y="-7.5" font-family="Helvetica,sans-Serif" font-size="10.00">&#45; makeActivationFunction()</text>
</a>
</g>
<!-- Node2&#45;&gt;Node5 -->
<g id="edge8" class="edge"><title>Node2&#45;&gt;Node5</title>
<path fill="none" stroke="midnightblue" d="M937.158,-149.997C828.642,-134.309 630.377,-102.416 465,-58 462.049,-57.2074 459.05,-56.3564 456.032,-55.462"/>
<polygon fill="none" stroke="midnightblue" points="936.979,-153.507 947.375,-151.464 937.974,-146.578 936.979,-153.507"/>
</g>
<!-- Node6 -->
<g id="node11" class="node"><title>Node6</title>
<a xlink:href="class_exponential_factory.html" target="_top" xlink:title="class ExponentialFactory &#45;">
<polygon fill="white" stroke="black" points="474,-0.5 474,-57.5 614,-57.5 614,-0.5 474,-0.5"/>
<text text-anchor="middle" x="544" y="-45.5" font-family="Helvetica,sans-Serif" font-size="10.00">ExponentialFactory</text>
<polyline fill="none" stroke="black" points="474,-38.5 614,-38.5 "/>
<text text-anchor="middle" x="544" y="-26.5" font-family="Helvetica,sans-Serif" font-size="10.00"> </text>
<polyline fill="none" stroke="black" points="474,-19.5 614,-19.5 "/>
<text text-anchor="start" x="482" y="-7.5" font-family="Helvetica,sans-Serif" font-size="10.00">&#45; makeActivationFunction()</text>
</a>
</g>
<!-- Node2&#45;&gt;Node6 -->
<g id="edge10" class="edge"><title>Node2&#45;&gt;Node6</title>
<path fill="none" stroke="midnightblue" d="M937.169,-142.068C856.93,-122.773 730.688,-91.0581 623,-58 620.079,-57.1032 617.105,-56.1652 614.108,-55.1987"/>
<polygon fill="none" stroke="midnightblue" points="936.666,-145.547 947.207,-144.475 938.298,-138.74 936.666,-145.547"/>
</g>
<!-- Node7 -->
<g id="node13" class="node"><title>Node7</title>
<a xlink:href="class_gauss_factory.html" target="_top" xlink:title="class GaussFactory &#45;">
<polygon fill="white" stroke="black" points="632,-0.5 632,-57.5 772,-57.5 772,-0.5 632,-0.5"/>
<text text-anchor="middle" x="702" y="-45.5" font-family="Helvetica,sans-Serif" font-size="10.00">GaussFactory</text>
<polyline fill="none" stroke="black" points="632,-38.5 772,-38.5 "/>
<text text-anchor="middle" x="702" y="-26.5" font-family="Helvetica,sans-Serif" font-size="10.00"> </text>
<polyline fill="none" stroke="black" points="632,-19.5 772,-19.5 "/>
<text text-anchor="start" x="640" y="-7.5" font-family="Helvetica,sans-Serif" font-size="10.00">&#45; makeActivationFunction()</text>
</a>
</g>
<!-- Node2&#45;&gt;Node7 -->
<g id="edge12" class="edge"><title>Node2&#45;&gt;Node7</title>
<path fill="none" stroke="midnightblue" d="M938.209,-127.922C885.794,-106.193 818.024,-78.0987 768.525,-57.5786"/>
<polygon fill="none" stroke="midnightblue" points="936.899,-131.168 947.477,-131.764 939.579,-124.701 936.899,-131.168"/>
</g>
<!-- Node8 -->
<g id="node15" class="node"><title>Node8</title>
<a xlink:href="class_identity_factory.html" target="_top" xlink:title="class IdentityFactory &#45;">
<polygon fill="white" stroke="black" points="790,-0.5 790,-57.5 930,-57.5 930,-0.5 790,-0.5"/>
<text text-anchor="middle" x="860" y="-45.5" font-family="Helvetica,sans-Serif" font-size="10.00">IdentityFactory</text>
<polyline fill="none" stroke="black" points="790,-38.5 930,-38.5 "/>
<text text-anchor="middle" x="860" y="-26.5" font-family="Helvetica,sans-Serif" font-size="10.00"> </text>
<polyline fill="none" stroke="black" points="790,-19.5 930,-19.5 "/>
<text text-anchor="start" x="798" y="-7.5" font-family="Helvetica,sans-Serif" font-size="10.00">&#45; makeActivationFunction()</text>
</a>
</g>
<!-- Node2&#45;&gt;Node8 -->
<g id="edge14" class="edge"><title>Node2&#45;&gt;Node8</title>
<path fill="none" stroke="midnightblue" d="M939.39,-95.823C923.211,-82.4088 907.01,-68.9765 893.502,-57.7767"/>
<polygon fill="none" stroke="midnightblue" points="937.386,-98.7085 947.318,-102.397 941.854,-93.3198 937.386,-98.7085"/>
</g>
<!-- Node9 -->
<g id="node17" class="node"><title>Node9</title>
<a xlink:href="class_logistic_factory.html" target="_top" xlink:title="class LogisticFactory &#45;">
<polygon fill="white" stroke="black" points="948,-0.5 948,-57.5 1088,-57.5 1088,-0.5 948,-0.5"/>
<text text-anchor="middle" x="1018" y="-45.5" font-family="Helvetica,sans-Serif" font-size="10.00">LogisticFactory</text>
<polyline fill="none" stroke="black" points="948,-38.5 1088,-38.5 "/>
<text text-anchor="middle" x="1018" y="-26.5" font-family="Helvetica,sans-Serif" font-size="10.00"> </text>
<polyline fill="none" stroke="black" points="948,-19.5 1088,-19.5 "/>
<text text-anchor="start" x="956" y="-7.5" font-family="Helvetica,sans-Serif" font-size="10.00">&#45; makeActivationFunction()</text>
</a>
</g>
<!-- Node2&#45;&gt;Node9 -->
<g id="edge16" class="edge"><title>Node2&#45;&gt;Node9</title>
<path fill="none" stroke="midnightblue" d="M1018,-84.6651C1018,-75.0809 1018,-65.815 1018,-57.7192"/>
<polygon fill="none" stroke="midnightblue" points="1014.5,-84.7324 1018,-94.7324 1021.5,-84.7325 1014.5,-84.7324"/>
</g>
<!-- Node10 -->
<g id="node19" class="node"><title>Node10</title>
<a xlink:href="class_reciprocal_factory.html" target="_top" xlink:title="class ReciprocalFactory &#45;">
<polygon fill="white" stroke="black" points="1106,-0.5 1106,-57.5 1246,-57.5 1246,-0.5 1106,-0.5"/>
<text text-anchor="middle" x="1176" y="-45.5" font-family="Helvetica,sans-Serif" font-size="10.00">ReciprocalFactory</text>
<polyline fill="none" stroke="black" points="1106,-38.5 1246,-38.5 "/>
<text text-anchor="middle" x="1176" y="-26.5" font-family="Helvetica,sans-Serif" font-size="10.00"> </text>
<polyline fill="none" stroke="black" points="1106,-19.5 1246,-19.5 "/>
<text text-anchor="start" x="1114" y="-7.5" font-family="Helvetica,sans-Serif" font-size="10.00">&#45; makeActivationFunction()</text>
</a>
</g>
<!-- Node2&#45;&gt;Node10 -->
<g id="edge18" class="edge"><title>Node2&#45;&gt;Node10</title>
<path fill="none" stroke="midnightblue" d="M1096.61,-95.823C1112.79,-82.4088 1128.99,-68.9765 1142.5,-57.7767"/>
<polygon fill="none" stroke="midnightblue" points="1094.15,-93.3198 1088.68,-102.397 1098.61,-98.7085 1094.15,-93.3198"/>
</g>
<!-- Node11 -->
<g id="node21" class="node"><title>Node11</title>
<a xlink:href="class_sine_factory.html" target="_top" xlink:title="class SineFactory &#45;">
<polygon fill="white" stroke="black" points="1264,-0.5 1264,-57.5 1404,-57.5 1404,-0.5 1264,-0.5"/>
<text text-anchor="middle" x="1334" y="-45.5" font-family="Helvetica,sans-Serif" font-size="10.00">SineFactory</text>
<polyline fill="none" stroke="black" points="1264,-38.5 1404,-38.5 "/>
<text text-anchor="middle" x="1334" y="-26.5" font-family="Helvetica,sans-Serif" font-size="10.00"> </text>
<polyline fill="none" stroke="black" points="1264,-19.5 1404,-19.5 "/>
<text text-anchor="start" x="1272" y="-7.5" font-family="Helvetica,sans-Serif" font-size="10.00">&#45; makeActivationFunction()</text>
</a>
</g>
<!-- Node2&#45;&gt;Node11 -->
<g id="edge20" class="edge"><title>Node2&#45;&gt;Node11</title>
<path fill="none" stroke="midnightblue" d="M1097.79,-127.922C1150.21,-106.193 1217.98,-78.0987 1267.47,-57.5786"/>
<polygon fill="none" stroke="midnightblue" points="1096.42,-124.701 1088.52,-131.764 1099.1,-131.168 1096.42,-124.701"/>
</g>
<!-- Node12 -->
<g id="node23" class="node"><title>Node12</title>
<a xlink:href="class_square_factory.html" target="_top" xlink:title="class SquareFactory &#45;">
<polygon fill="white" stroke="black" points="1422,-0.5 1422,-57.5 1562,-57.5 1562,-0.5 1422,-0.5"/>
<text text-anchor="middle" x="1492" y="-45.5" font-family="Helvetica,sans-Serif" font-size="10.00">SquareFactory</text>
<polyline fill="none" stroke="black" points="1422,-38.5 1562,-38.5 "/>
<text text-anchor="middle" x="1492" y="-26.5" font-family="Helvetica,sans-Serif" font-size="10.00"> </text>
<polyline fill="none" stroke="black" points="1422,-19.5 1562,-19.5 "/>
<text text-anchor="start" x="1430" y="-7.5" font-family="Helvetica,sans-Serif" font-size="10.00">&#45; makeActivationFunction()</text>
</a>
</g>
<!-- Node2&#45;&gt;Node12 -->
<g id="edge22" class="edge"><title>Node2&#45;&gt;Node12</title>
<path fill="none" stroke="midnightblue" d="M1098.83,-142.068C1179.07,-122.773 1305.31,-91.0581 1413,-58 1415.92,-57.1032 1418.89,-56.1652 1421.89,-55.1987"/>
<polygon fill="none" stroke="midnightblue" points="1097.7,-138.74 1088.79,-144.475 1099.33,-145.547 1097.7,-138.74"/>
</g>
<!-- Node13 -->
<g id="node25" class="node"><title>Node13</title>
<a xlink:href="class_tanh_factory.html" target="_top" xlink:title="class TanhFactory &#45;">
<polygon fill="white" stroke="black" points="1580,-0.5 1580,-57.5 1720,-57.5 1720,-0.5 1580,-0.5"/>
<text text-anchor="middle" x="1650" y="-45.5" font-family="Helvetica,sans-Serif" font-size="10.00">TanhFactory</text>
<polyline fill="none" stroke="black" points="1580,-38.5 1720,-38.5 "/>
<text text-anchor="middle" x="1650" y="-26.5" font-family="Helvetica,sans-Serif" font-size="10.00"> </text>
<polyline fill="none" stroke="black" points="1580,-19.5 1720,-19.5 "/>
<text text-anchor="start" x="1588" y="-7.5" font-family="Helvetica,sans-Serif" font-size="10.00">&#45; makeActivationFunction()</text>
</a>
</g>
<!-- Node2&#45;&gt;Node13 -->
<g id="edge24" class="edge"><title>Node2&#45;&gt;Node13</title>
<path fill="none" stroke="midnightblue" d="M1098.84,-149.997C1207.36,-134.309 1405.62,-102.416 1571,-58 1573.95,-57.2074 1576.95,-56.3564 1579.97,-55.462"/>
<polygon fill="none" stroke="midnightblue" points="1098.03,-146.578 1088.63,-151.464 1099.02,-153.507 1098.03,-146.578"/>
</g>
<!-- Node14 -->
<g id="node27" class="node"><title>Node14</title>
<a xlink:href="class_threshold_factory.html" target="_top" xlink:title="class ThresholdFactory &#45;">
<polygon fill="white" stroke="black" points="1738,-0.5 1738,-57.5 1878,-57.5 1878,-0.5 1738,-0.5"/>
<text text-anchor="middle" x="1808" y="-45.5" font-family="Helvetica,sans-Serif" font-size="10.00">ThresholdFactory</text>
<polyline fill="none" stroke="black" points="1738,-38.5 1878,-38.5 "/>
<text text-anchor="middle" x="1808" y="-26.5" font-family="Helvetica,sans-Serif" font-size="10.00"> </text>
<polyline fill="none" stroke="black" points="1738,-19.5 1878,-19.5 "/>
<text text-anchor="start" x="1746" y="-7.5" font-family="Helvetica,sans-Serif" font-size="10.00">&#45; makeActivationFunction()</text>
</a>
</g>
<!-- Node2&#45;&gt;Node14 -->
<g id="edge26" class="edge"><title>Node2&#45;&gt;Node14</title>
<path fill="none" stroke="midnightblue" d="M1098.7,-149.52C1281.74,-123.456 1713.75,-61.7691 1729,-58 1731.83,-57.3019 1734.69,-56.542 1737.57,-55.7341"/>
<polygon fill="none" stroke="midnightblue" points="1098,-146.085 1088.59,-150.96 1098.99,-153.015 1098,-146.085"/>
</g>
<!-- Node16 -->
<g id="node31" class="node"><title>Node16</title>
<a xlink:href="class_radial_basis_factory.html" target="_top" xlink:title="class RadialBasisFactory &#45;">
<polygon fill="white" stroke="black" points="1896,-0.5 1896,-57.5 2036,-57.5 2036,-0.5 1896,-0.5"/>
<text text-anchor="middle" x="1966" y="-45.5" font-family="Helvetica,sans-Serif" font-size="10.00">RadialBasisFactory</text>
<polyline fill="none" stroke="black" points="1896,-38.5 2036,-38.5 "/>
<text text-anchor="middle" x="1966" y="-26.5" font-family="Helvetica,sans-Serif" font-size="10.00"> </text>
<polyline fill="none" stroke="black" points="1896,-19.5 2036,-19.5 "/>
<text text-anchor="start" x="1904" y="-7.5" font-family="Helvetica,sans-Serif" font-size="10.00">&#45; makeActivationFunction()</text>
</a>
</g>
<!-- Node15&#45;&gt;Node16 -->
<g id="edge30" class="edge"><title>Node15&#45;&gt;Node16</title>
<path fill="none" stroke="midnightblue" d="M1651.4,-135.42C1715.37,-114.913 1807.11,-85.1729 1887,-58 1889.89,-57.016 1892.84,-56.005 1895.82,-54.9781"/>
<polygon fill="none" stroke="midnightblue" points="1650.22,-132.12 1641.77,-138.503 1652.36,-138.786 1650.22,-132.12"/>
</g>
</g>
</svg>
