<?xml version="1.0" encoding="UTF-8" standalone="no"?>
<!DOCTYPE svg PUBLIC "-//W3C//DTD SVG 1.1//EN"
 "http://www.w3.org/Graphics/SVG/1.1/DTD/svg11.dtd">
<!-- Generated by graphviz version 2.28.0 (20110610.2051)
 -->
<!-- Title: G Pages: 1 -->
<svg width="1730pt" height="462pt"
 viewBox="0.00 0.00 1730.00 462.00" xmlns="http://www.w3.org/2000/svg" xmlns:xlink="http://www.w3.org/1999/xlink">
<g id="graph1" class="graph" transform="scale(1 1) rotate(0) translate(4 458)">
<title>G</title>
<polygon fill="white" stroke="white" points="-4,5 -4,-458 1727,-458 1727,5 -4,5"/>
<!-- Node1 -->
<g id="node1" class="node"><title>Node1</title>
<polygon fill="#bfbfbf" stroke="black" points="767.5,-385 767.5,-453 936.5,-453 936.5,-385 767.5,-385"/>
<text text-anchor="middle" x="852" y="-441" font-family="Helvetica,sans-Serif" font-size="10.00">NeuronTrainBehavior</text>
<polyline fill="none" stroke="black" points="767.5,-434 936.5,-434 "/>
<text text-anchor="start" x="775.5" y="-422" font-family="Helvetica,sans-Serif" font-size="10.00"># d_neuron</text>
<polyline fill="none" stroke="black" points="767.5,-415 936.5,-415 "/>
<text text-anchor="start" x="775.5" y="-403" font-family="Helvetica,sans-Serif" font-size="10.00">+ singlePatternBackwardAction()</text>
<text text-anchor="start" x="775.5" y="-392" font-family="Helvetica,sans-Serif" font-size="10.00">+ endOfEpochAction()</text>
</g>
<!-- Node2 -->
<g id="node3" class="node"><title>Node2</title>
<a xlink:href="class_adapt_neuron_train_behavior.html" target="_top" xlink:title="class AdaptNeuronTrainBehavior &#45;">
<polygon fill="white" stroke="black" points="546.5,-279 546.5,-347 715.5,-347 715.5,-279 546.5,-279"/>
<text text-anchor="middle" x="631" y="-335" font-family="Helvetica,sans-Serif" font-size="10.00">AdaptNeuronTrainBehavior</text>
<polyline fill="none" stroke="black" points="546.5,-328 715.5,-328 "/>
<text text-anchor="middle" x="631" y="-316" font-family="Helvetica,sans-Serif" font-size="10.00"> </text>
<polyline fill="none" stroke="black" points="546.5,-309 715.5,-309 "/>
<text text-anchor="start" x="554.5" y="-297" font-family="Helvetica,sans-Serif" font-size="10.00">+ singlePatternBackwardAction()</text>
<text text-anchor="start" x="554.5" y="-286" font-family="Helvetica,sans-Serif" font-size="10.00">+ endOfEpochAction()</text>
</a>
</g>
<!-- Node1&#45;&gt;Node2 -->
<g id="edge2" class="edge"><title>Node1&#45;&gt;Node2</title>
<path fill="none" stroke="midnightblue" d="M772.623,-380.646C749.359,-369.698 724.092,-357.808 701.426,-347.142"/>
<polygon fill="none" stroke="midnightblue" points="771.232,-383.86 781.771,-384.951 774.213,-377.526 771.232,-383.86"/>
</g>
<!-- Node9 -->
<g id="node17" class="node"><title>Node9</title>
<a xlink:href="class_batch_neuron_train_behavior.html" target="_top" xlink:title="class BatchNeuronTrainBehavior &#45;">
<polygon fill="white" stroke="black" points="983.5,-279 983.5,-347 1152.5,-347 1152.5,-279 983.5,-279"/>
<text text-anchor="middle" x="1068" y="-335" font-family="Helvetica,sans-Serif" font-size="10.00">BatchNeuronTrainBehavior</text>
<polyline fill="none" stroke="black" points="983.5,-328 1152.5,-328 "/>
<text text-anchor="middle" x="1068" y="-316" font-family="Helvetica,sans-Serif" font-size="10.00"> </text>
<polyline fill="none" stroke="black" points="983.5,-309 1152.5,-309 "/>
<text text-anchor="start" x="991.5" y="-297" font-family="Helvetica,sans-Serif" font-size="10.00">+ singlePatternBackwardAction()</text>
<text text-anchor="start" x="991.5" y="-286" font-family="Helvetica,sans-Serif" font-size="10.00">+ endOfEpochAction()</text>
</a>
</g>
<!-- Node1&#45;&gt;Node9 -->
<g id="edge16" class="edge"><title>Node1&#45;&gt;Node9</title>
<path fill="none" stroke="midnightblue" d="M929.883,-380.501C952.537,-369.593 977.113,-357.761 999.167,-347.142"/>
<polygon fill="none" stroke="midnightblue" points="928.132,-377.459 920.641,-384.951 931.169,-383.766 928.132,-377.459"/>
</g>
<!-- Node3 -->
<g id="node5" class="node"><title>Node3</title>
<a xlink:href="class_a_d_a_p_tgd_neuron_train_behavior.html" target="_top" xlink:title="class ADAPTgdNeuronTrainBehavior &#45;">
<polygon fill="white" stroke="black" points="219.5,-134.5 219.5,-213.5 388.5,-213.5 388.5,-134.5 219.5,-134.5"/>
<text text-anchor="middle" x="304" y="-201.5" font-family="Helvetica,sans-Serif" font-size="10.00">ADAPTgdNeuronTrainBehavior</text>
<polyline fill="none" stroke="black" points="219.5,-194.5 388.5,-194.5 "/>
<text text-anchor="start" x="227.5" y="-182.5" font-family="Helvetica,sans-Serif" font-size="10.00"># d_delta</text>
<text text-anchor="start" x="227.5" y="-171.5" font-family="Helvetica,sans-Serif" font-size="10.00"># d_learningRate</text>
<polyline fill="none" stroke="black" points="219.5,-164.5 388.5,-164.5 "/>
<text text-anchor="start" x="227.5" y="-152.5" font-family="Helvetica,sans-Serif" font-size="10.00">+ singlePatternBackwardAction()</text>
<text text-anchor="start" x="227.5" y="-141.5" font-family="Helvetica,sans-Serif" font-size="10.00">+ endOfEpochAction()</text>
</a>
</g>
<!-- Node2&#45;&gt;Node3 -->
<g id="edge4" class="edge"><title>Node2&#45;&gt;Node3</title>
<path fill="none" stroke="midnightblue" d="M542.434,-274.894C494.63,-254.866 435.921,-230.27 388.722,-210.495"/>
<polygon fill="none" stroke="midnightblue" points="541.267,-278.2 551.842,-278.836 543.972,-271.744 541.267,-278.2"/>
</g>
<!-- Node6 -->
<g id="node11" class="node"><title>Node6</title>
<a xlink:href="class_a_d_a_p_tgdwm_neuron_train_behavior.html" target="_top" xlink:title="class ADAPTgdwmNeuronTrainBehavior &#45;">
<polygon fill="white" stroke="black" points="544,-118 544,-230 718,-230 718,-118 544,-118"/>
<text text-anchor="middle" x="631" y="-218" font-family="Helvetica,sans-Serif" font-size="10.00">ADAPTgdwmNeuronTrainBehavior</text>
<polyline fill="none" stroke="black" points="544,-211 718,-211 "/>
<text text-anchor="start" x="552" y="-199" font-family="Helvetica,sans-Serif" font-size="10.00"># d_delta</text>
<text text-anchor="start" x="552" y="-188" font-family="Helvetica,sans-Serif" font-size="10.00"># d_learningRate</text>
<text text-anchor="start" x="552" y="-177" font-family="Helvetica,sans-Serif" font-size="10.00"># d_momentum</text>
<text text-anchor="start" x="552" y="-166" font-family="Helvetica,sans-Serif" font-size="10.00"># d_formerWeightChange</text>
<text text-anchor="start" x="552" y="-155" font-family="Helvetica,sans-Serif" font-size="10.00"># d_formerBiasChange</text>
<polyline fill="none" stroke="black" points="544,-148 718,-148 "/>
<text text-anchor="start" x="552" y="-136" font-family="Helvetica,sans-Serif" font-size="10.00">+ singlePatternBackwardAction()</text>
<text text-anchor="start" x="552" y="-125" font-family="Helvetica,sans-Serif" font-size="10.00">+ endOfEpochAction()</text>
</a>
</g>
<!-- Node2&#45;&gt;Node6 -->
<g id="edge10" class="edge"><title>Node2&#45;&gt;Node6</title>
<path fill="none" stroke="midnightblue" d="M631,-268.468C631,-256.258 631,-242.821 631,-230.035"/>
<polygon fill="none" stroke="midnightblue" points="627.5,-268.836 631,-278.836 634.5,-268.836 627.5,-268.836"/>
</g>
<!-- Node4 -->
<g id="node7" class="node"><title>Node4</title>
<a xlink:href="class_a_d_a_p_tgd_hidden_neuron_train_behavior.html" target="_top" xlink:title="class ADAPTgdHiddenNeuronTrainBehavior &#45;">
<polygon fill="white" stroke="black" points="-0.5,-1 -0.5,-69 190.5,-69 190.5,-1 -0.5,-1"/>
<text text-anchor="middle" x="95" y="-57" font-family="Helvetica,sans-Serif" font-size="10.00">ADAPTgdHiddenNeuronTrainBehavior</text>
<polyline fill="none" stroke="black" points="-0.5,-50 190.5,-50 "/>
<text text-anchor="middle" x="95" y="-38" font-family="Helvetica,sans-Serif" font-size="10.00"> </text>
<polyline fill="none" stroke="black" points="-0.5,-31 190.5,-31 "/>
<text text-anchor="start" x="7.5" y="-19" font-family="Helvetica,sans-Serif" font-size="10.00">&#45; singlePatternBackwardAction()</text>
<text text-anchor="start" x="7.5" y="-8" font-family="Helvetica,sans-Serif" font-size="10.00">&#45; endOfEpochAction()</text>
</a>
</g>
<!-- Node3&#45;&gt;Node4 -->
<g id="edge6" class="edge"><title>Node3&#45;&gt;Node4</title>
<path fill="none" stroke="midnightblue" d="M236.61,-128.825C207.028,-109.434 172.886,-87.0545 145.539,-69.1284"/>
<polygon fill="none" stroke="midnightblue" points="234.944,-131.918 245.226,-134.473 238.781,-126.064 234.944,-131.918"/>
</g>
<!-- Node5 -->
<g id="node9" class="node"><title>Node5</title>
<a xlink:href="class_a_d_a_p_tgd_output_neuron_train_behavior.html" target="_top" xlink:title="class ADAPTgdOutputNeuronTrainBehavior &#45;">
<polygon fill="white" stroke="black" points="209,-1 209,-69 399,-69 399,-1 209,-1"/>
<text text-anchor="middle" x="304" y="-57" font-family="Helvetica,sans-Serif" font-size="10.00">ADAPTgdOutputNeuronTrainBehavior</text>
<polyline fill="none" stroke="black" points="209,-50 399,-50 "/>
<text text-anchor="start" x="217" y="-38" font-family="Helvetica,sans-Serif" font-size="10.00">&#45; d_costFunction</text>
<polyline fill="none" stroke="black" points="209,-31 399,-31 "/>
<text text-anchor="start" x="217" y="-19" font-family="Helvetica,sans-Serif" font-size="10.00">&#45; singlePatternBackwardAction()</text>
<text text-anchor="start" x="217" y="-8" font-family="Helvetica,sans-Serif" font-size="10.00">&#45; endOfEpochAction()</text>
</a>
</g>
<!-- Node3&#45;&gt;Node5 -->
<g id="edge8" class="edge"><title>Node3&#45;&gt;Node5</title>
<path fill="none" stroke="midnightblue" d="M304,-124.281C304,-106.003 304,-85.6696 304,-69.1284"/>
<polygon fill="none" stroke="midnightblue" points="300.5,-124.473 304,-134.473 307.5,-124.473 300.5,-124.473"/>
</g>
<!-- Node7 -->
<g id="node13" class="node"><title>Node7</title>
<a xlink:href="class_a_d_a_p_tgdwm_hidden_neuron_train_behavior.html" target="_top" xlink:title="class ADAPTgdwmHiddenNeuronTrainBehavior &#45;">
<polygon fill="white" stroke="black" points="417.5,-1 417.5,-69 624.5,-69 624.5,-1 417.5,-1"/>
<text text-anchor="middle" x="521" y="-57" font-family="Helvetica,sans-Serif" font-size="10.00">ADAPTgdwmHiddenNeuronTrainBehavior</text>
<polyline fill="none" stroke="black" points="417.5,-50 624.5,-50 "/>
<text text-anchor="middle" x="521" y="-38" font-family="Helvetica,sans-Serif" font-size="10.00"> </text>
<polyline fill="none" stroke="black" points="417.5,-31 624.5,-31 "/>
<text text-anchor="start" x="425.5" y="-19" font-family="Helvetica,sans-Serif" font-size="10.00">&#45; singlePatternBackwardAction()</text>
<text text-anchor="start" x="425.5" y="-8" font-family="Helvetica,sans-Serif" font-size="10.00">&#45; endOfEpochAction()</text>
</a>
</g>
<!-- Node6&#45;&gt;Node7 -->
<g id="edge12" class="edge"><title>Node6&#45;&gt;Node7</title>
<path fill="none" stroke="midnightblue" d="M580.006,-109.49C568.78,-95.5084 557.331,-81.2484 547.541,-69.0561"/>
<polygon fill="none" stroke="midnightblue" points="577.586,-112.065 586.576,-117.672 583.044,-107.683 577.586,-112.065"/>
</g>
<!-- Node8 -->
<g id="node15" class="node"><title>Node8</title>
<a xlink:href="class_a_d_a_p_tgdwm_output_neuron_train_behavior.html" target="_top" xlink:title="class ADAPTgdwmOutputNeuronTrainBehavior &#45;">
<polygon fill="white" stroke="black" points="643,-1 643,-69 849,-69 849,-1 643,-1"/>
<text text-anchor="middle" x="746" y="-57" font-family="Helvetica,sans-Serif" font-size="10.00">ADAPTgdwmOutputNeuronTrainBehavior</text>
<polyline fill="none" stroke="black" points="643,-50 849,-50 "/>
<text text-anchor="start" x="651" y="-38" font-family="Helvetica,sans-Serif" font-size="10.00">&#45; d_costFunction</text>
<polyline fill="none" stroke="black" points="643,-31 849,-31 "/>
<text text-anchor="start" x="651" y="-19" font-family="Helvetica,sans-Serif" font-size="10.00">&#45; singlePatternBackwardAction()</text>
<text text-anchor="start" x="651" y="-8" font-family="Helvetica,sans-Serif" font-size="10.00">&#45; endOfEpochAction()</text>
</a>
</g>
<!-- Node6&#45;&gt;Node8 -->
<g id="edge14" class="edge"><title>Node6&#45;&gt;Node8</title>
<path fill="none" stroke="midnightblue" d="M683.983,-109.882C695.824,-95.7751 707.922,-81.3623 718.252,-69.0561"/>
<polygon fill="none" stroke="midnightblue" points="681.192,-107.762 677.443,-117.672 686.553,-112.263 681.192,-107.762"/>
</g>
<!-- Node10 -->
<g id="node19" class="node"><title>Node10</title>
<a xlink:href="class_b_a_t_c_hgd_neuron_train_behavior.html" target="_top" xlink:title="class BATCHgdNeuronTrainBehavior &#45;">
<polygon fill="white" stroke="black" points="983.5,-123.5 983.5,-224.5 1152.5,-224.5 1152.5,-123.5 983.5,-123.5"/>
<text text-anchor="middle" x="1068" y="-212.5" font-family="Helvetica,sans-Serif" font-size="10.00">BATCHgdNeuronTrainBehavior</text>
<polyline fill="none" stroke="black" points="983.5,-205.5 1152.5,-205.5 "/>
<text text-anchor="start" x="991.5" y="-193.5" font-family="Helvetica,sans-Serif" font-size="10.00"># d_delta</text>
<text text-anchor="start" x="991.5" y="-182.5" font-family="Helvetica,sans-Serif" font-size="10.00"># d_learningRate</text>
<text text-anchor="start" x="991.5" y="-171.5" font-family="Helvetica,sans-Serif" font-size="10.00"># d_sum_delta_x</text>
<text text-anchor="start" x="991.5" y="-160.5" font-family="Helvetica,sans-Serif" font-size="10.00"># d_sum_delta_bias</text>
<polyline fill="none" stroke="black" points="983.5,-153.5 1152.5,-153.5 "/>
<text text-anchor="start" x="991.5" y="-141.5" font-family="Helvetica,sans-Serif" font-size="10.00">+ singlePatternBackwardAction()</text>
<text text-anchor="start" x="991.5" y="-130.5" font-family="Helvetica,sans-Serif" font-size="10.00">+ endOfEpochAction()</text>
</a>
</g>
<!-- Node9&#45;&gt;Node10 -->
<g id="edge18" class="edge"><title>Node9&#45;&gt;Node10</title>
<path fill="none" stroke="midnightblue" d="M1068,-268.538C1068,-254.603 1068,-239.065 1068,-224.717"/>
<polygon fill="none" stroke="midnightblue" points="1064.5,-268.836 1068,-278.836 1071.5,-268.836 1064.5,-268.836"/>
</g>
<!-- Node13 -->
<g id="node25" class="node"><title>Node13</title>
<a xlink:href="class_b_a_t_c_hgdwm_neuron_train_behavior.html" target="_top" xlink:title="class BATCHgdwmNeuronTrainBehavior &#45;">
<polygon fill="white" stroke="black" points="1303,-107 1303,-241 1479,-241 1479,-107 1303,-107"/>
<text text-anchor="middle" x="1391" y="-229" font-family="Helvetica,sans-Serif" font-size="10.00">BATCHgdwmNeuronTrainBehavior</text>
<polyline fill="none" stroke="black" points="1303,-222 1479,-222 "/>
<text text-anchor="start" x="1311" y="-210" font-family="Helvetica,sans-Serif" font-size="10.00"># delta</text>
<text text-anchor="start" x="1311" y="-199" font-family="Helvetica,sans-Serif" font-size="10.00"># rate</text>
<text text-anchor="start" x="1311" y="-188" font-family="Helvetica,sans-Serif" font-size="10.00"># x</text>
<text text-anchor="start" x="1311" y="-177" font-family="Helvetica,sans-Serif" font-size="10.00"># bias</text>
<text text-anchor="start" x="1311" y="-166" font-family="Helvetica,sans-Serif" font-size="10.00"># momentum</text>
<text text-anchor="start" x="1311" y="-155" font-family="Helvetica,sans-Serif" font-size="10.00"># change</text>
<text text-anchor="start" x="1311" y="-144" font-family="Helvetica,sans-Serif" font-size="10.00"># change</text>
<polyline fill="none" stroke="black" points="1303,-137 1479,-137 "/>
<text text-anchor="start" x="1311" y="-125" font-family="Helvetica,sans-Serif" font-size="10.00">&#45; singlePatternBackwardAction()</text>
<text text-anchor="start" x="1311" y="-114" font-family="Helvetica,sans-Serif" font-size="10.00">&#45; endOfEpochAction()</text>
</a>
</g>
<!-- Node9&#45;&gt;Node13 -->
<g id="edge24" class="edge"><title>Node9&#45;&gt;Node13</title>
<path fill="none" stroke="midnightblue" d="M1155.5,-274.888C1201.27,-255.475 1257.15,-231.771 1303,-212.327"/>
<polygon fill="none" stroke="midnightblue" points="1154.03,-271.709 1146.19,-278.836 1156.76,-278.153 1154.03,-271.709"/>
</g>
<!-- Node11 -->
<g id="node21" class="node"><title>Node11</title>
<a xlink:href="class_b_a_t_c_hgd_hidden_neuron_train_behavior.html" target="_top" xlink:title="class BATCHgdHiddenNeuronTrainBehavior &#45;">
<polygon fill="white" stroke="black" points="867,-1 867,-69 1059,-69 1059,-1 867,-1"/>
<text text-anchor="middle" x="963" y="-57" font-family="Helvetica,sans-Serif" font-size="10.00">BATCHgdHiddenNeuronTrainBehavior</text>
<polyline fill="none" stroke="black" points="867,-50 1059,-50 "/>
<text text-anchor="middle" x="963" y="-38" font-family="Helvetica,sans-Serif" font-size="10.00"> </text>
<polyline fill="none" stroke="black" points="867,-31 1059,-31 "/>
<text text-anchor="start" x="875" y="-19" font-family="Helvetica,sans-Serif" font-size="10.00">&#45; singlePatternBackwardAction()</text>
<text text-anchor="start" x="875" y="-8" font-family="Helvetica,sans-Serif" font-size="10.00">&#45; endOfEpochAction()</text>
</a>
</g>
<!-- Node10&#45;&gt;Node11 -->
<g id="edge20" class="edge"><title>Node10&#45;&gt;Node11</title>
<path fill="none" stroke="midnightblue" d="M1023.61,-115.076C1011.64,-99.4674 999.105,-83.108 988.557,-69.3456"/>
<polygon fill="none" stroke="midnightblue" points="1020.93,-117.344 1029.8,-123.152 1026.49,-113.086 1020.93,-117.344"/>
</g>
<!-- Node12 -->
<g id="node23" class="node"><title>Node12</title>
<a xlink:href="class_b_a_t_c_hgd_output_neuron_train_behavior.html" target="_top" xlink:title="class BATCHgdOutputNeuronTrainBehavior &#45;">
<polygon fill="white" stroke="black" points="1077.5,-1 1077.5,-69 1268.5,-69 1268.5,-1 1077.5,-1"/>
<text text-anchor="middle" x="1173" y="-57" font-family="Helvetica,sans-Serif" font-size="10.00">BATCHgdOutputNeuronTrainBehavior</text>
<polyline fill="none" stroke="black" points="1077.5,-50 1268.5,-50 "/>
<text text-anchor="start" x="1085.5" y="-38" font-family="Helvetica,sans-Serif" font-size="10.00"># d_costFunction</text>
<polyline fill="none" stroke="black" points="1077.5,-31 1268.5,-31 "/>
<text text-anchor="start" x="1085.5" y="-19" font-family="Helvetica,sans-Serif" font-size="10.00">&#45; singlePatternBackwardAction()</text>
<text text-anchor="start" x="1085.5" y="-8" font-family="Helvetica,sans-Serif" font-size="10.00">&#45; endOfEpochAction()</text>
</a>
</g>
<!-- Node10&#45;&gt;Node12 -->
<g id="edge22" class="edge"><title>Node10&#45;&gt;Node12</title>
<path fill="none" stroke="midnightblue" d="M1112.39,-115.076C1124.36,-99.4674 1136.9,-83.108 1147.44,-69.3456"/>
<polygon fill="none" stroke="midnightblue" points="1109.51,-113.086 1106.2,-123.152 1115.07,-117.344 1109.51,-113.086"/>
</g>
<!-- Node14 -->
<g id="node27" class="node"><title>Node14</title>
<a xlink:href="class_b_a_t_c_hgdwm_hidden_neuron_train_behavior.html" target="_top" xlink:title="class BATCHgdwmHiddenNeuronTrainBehavior &#45;">
<polygon fill="white" stroke="black" points="1286.5,-1 1286.5,-69 1495.5,-69 1495.5,-1 1286.5,-1"/>
<text text-anchor="middle" x="1391" y="-57" font-family="Helvetica,sans-Serif" font-size="10.00">BATCHgdwmHiddenNeuronTrainBehavior</text>
<polyline fill="none" stroke="black" points="1286.5,-50 1495.5,-50 "/>
<text text-anchor="middle" x="1391" y="-38" font-family="Helvetica,sans-Serif" font-size="10.00"> </text>
<polyline fill="none" stroke="black" points="1286.5,-31 1495.5,-31 "/>
<text text-anchor="start" x="1294.5" y="-19" font-family="Helvetica,sans-Serif" font-size="10.00">&#45; singlePatternBackwardAction()</text>
<text text-anchor="start" x="1294.5" y="-8" font-family="Helvetica,sans-Serif" font-size="10.00">&#45; endOfEpochAction()</text>
</a>
</g>
<!-- Node13&#45;&gt;Node14 -->
<g id="edge26" class="edge"><title>Node13&#45;&gt;Node14</title>
<path fill="none" stroke="midnightblue" d="M1391,-96.7563C1391,-87.056 1391,-77.5656 1391,-69.0765"/>
<polygon fill="none" stroke="midnightblue" points="1387.5,-96.9077 1391,-106.908 1394.5,-96.9078 1387.5,-96.9077"/>
</g>
<!-- Node15 -->
<g id="node29" class="node"><title>Node15</title>
<a xlink:href="class_b_a_t_c_hgdwm_output_neuron_train_behavior.html" target="_top" xlink:title="class BATCHgdwmOutputNeuronTrainBehavior &#45;">
<polygon fill="white" stroke="black" points="1514,-1 1514,-69 1722,-69 1722,-1 1514,-1"/>
<text text-anchor="middle" x="1618" y="-57" font-family="Helvetica,sans-Serif" font-size="10.00">BATCHgdwmOutputNeuronTrainBehavior</text>
<polyline fill="none" stroke="black" points="1514,-50 1722,-50 "/>
<text text-anchor="start" x="1522" y="-38" font-family="Helvetica,sans-Serif" font-size="10.00"># d_costFunction</text>
<polyline fill="none" stroke="black" points="1514,-31 1722,-31 "/>
<text text-anchor="start" x="1522" y="-19" font-family="Helvetica,sans-Serif" font-size="10.00">&#45; singlePatternBackwardAction()</text>
<text text-anchor="start" x="1522" y="-8" font-family="Helvetica,sans-Serif" font-size="10.00">&#45; endOfEpochAction()</text>
</a>
</g>
<!-- Node13&#45;&gt;Node15 -->
<g id="edge28" class="edge"><title>Node13&#45;&gt;Node15</title>
<path fill="none" stroke="midnightblue" d="M1487.77,-114.597C1513.52,-99.0553 1540.45,-82.8042 1563.09,-69.1396"/>
<polygon fill="none" stroke="midnightblue" points="1485.84,-111.672 1479.09,-119.836 1489.46,-117.666 1485.84,-111.672"/>
</g>
</g>
</svg>
