<?xml version="1.0" encoding="UTF-8" standalone="no"?>
<!DOCTYPE svg PUBLIC "-//W3C//DTD SVG 1.1//EN"
 "http://www.w3.org/Graphics/SVG/1.1/DTD/svg11.dtd">
<!-- Generated by graphviz version 2.25.20091207.0545 (20091207.0545)
 -->
<!-- Title: G Pages: 1 -->
<svg width="248pt" height="608pt"
 viewBox="0.00 0.00 248.00 608.00" xmlns="http://www.w3.org/2000/svg" xmlns:xlink="http://www.w3.org/1999/xlink">
<g id="graph1" class="graph" transform="scale(1 1) rotate(0) translate(4 604)">
<title>G</title>
<polygon fill="white" stroke="white" points="-4,5 -4,-604 245,-604 245,5 -4,5"/>
<!-- Node1 -->
<g id="node1" class="node"><title>Node1</title>
<polygon fill="#bfbfbf" stroke="black" points="78.5,-465 78.5,-599 171.5,-599 171.5,-465 78.5,-465"/>
<text text-anchor="middle" x="125" y="-586" font-family="Helvetica,sans-Serif" font-size="10.00">vecAMORE&lt; T &gt;</text>
<polyline fill="none" stroke="black" points="78.5,-580 171.5,-580 "/>
<text text-anchor="start" x="86.5" y="-567" font-family="Helvetica,sans-Serif" font-size="10.00"># ldata</text>
<polyline fill="none" stroke="black" points="78.5,-561 171.5,-561 "/>
<text text-anchor="start" x="86.5" y="-548" font-family="Helvetica,sans-Serif" font-size="10.00">+ getLdata()</text>
<text text-anchor="start" x="86.5" y="-537" font-family="Helvetica,sans-Serif" font-size="10.00">+ setLdata()</text>
<text text-anchor="start" x="86.5" y="-526" font-family="Helvetica,sans-Serif" font-size="10.00">+ size()</text>
<text text-anchor="start" x="86.5" y="-515" font-family="Helvetica,sans-Serif" font-size="10.00">+ push_back()</text>
<text text-anchor="start" x="86.5" y="-504" font-family="Helvetica,sans-Serif" font-size="10.00">+ append()</text>
<text text-anchor="start" x="86.5" y="-493" font-family="Helvetica,sans-Serif" font-size="10.00">+ show()</text>
<text text-anchor="start" x="86.5" y="-482" font-family="Helvetica,sans-Serif" font-size="10.00">+ validate()</text>
<text text-anchor="start" x="86.5" y="-471" font-family="Helvetica,sans-Serif" font-size="10.00">+ reserve()</text>
</g>
<!-- Node2 -->
<g id="node3" class="node"><title>Node2</title>
<a xlink:href="classvec_a_m_o_r_e.html" target="_top" xlink:title="{vecAMORE\&lt; Con \&gt;\n|# ldata\l|+ getLdata()\l+ setLdata()\l+ size()\l+ push_back()\l+ append()\l+ show()\l+ validate()\l+ reserve()\l}">
<polygon fill="white" stroke="black" points="-0.5,-281 -0.5,-415 104.5,-415 104.5,-281 -0.5,-281"/>
<text text-anchor="middle" x="52" y="-402" font-family="Helvetica,sans-Serif" font-size="10.00">vecAMORE&lt; Con &gt;</text>
<polyline fill="none" stroke="black" points="-0.5,-396 104.5,-396 "/>
<text text-anchor="start" x="7.5" y="-383" font-family="Helvetica,sans-Serif" font-size="10.00"># ldata</text>
<polyline fill="none" stroke="black" points="-0.5,-377 104.5,-377 "/>
<text text-anchor="start" x="7.5" y="-364" font-family="Helvetica,sans-Serif" font-size="10.00">+ getLdata()</text>
<text text-anchor="start" x="7.5" y="-353" font-family="Helvetica,sans-Serif" font-size="10.00">+ setLdata()</text>
<text text-anchor="start" x="7.5" y="-342" font-family="Helvetica,sans-Serif" font-size="10.00">+ size()</text>
<text text-anchor="start" x="7.5" y="-331" font-family="Helvetica,sans-Serif" font-size="10.00">+ push_back()</text>
<text text-anchor="start" x="7.5" y="-320" font-family="Helvetica,sans-Serif" font-size="10.00">+ append()</text>
<text text-anchor="start" x="7.5" y="-309" font-family="Helvetica,sans-Serif" font-size="10.00">+ show()</text>
<text text-anchor="start" x="7.5" y="-298" font-family="Helvetica,sans-Serif" font-size="10.00">+ validate()</text>
<text text-anchor="start" x="7.5" y="-287" font-family="Helvetica,sans-Serif" font-size="10.00">+ reserve()</text>
</a>
</g>
<!-- Node1&#45;&gt;Node2 -->
<g id="edge2" class="edge"><title>Node1&#45;&gt;Node2</title>
<path fill="none" stroke="orange" stroke-dasharray="5,2" d="M94.521,-455.176C89.2312,-441.843 83.768,-428.073 78.5923,-415.027"/>
<polygon fill="orange" stroke="orange" points="91.3943,-456.786 98.3355,-464.791 97.9009,-454.205 91.3943,-456.786"/>
<text text-anchor="middle" x="108" y="-436.5" font-family="Helvetica,sans-Serif" font-size="10.00">&lt; Con &gt;</text>
</g>
<!-- Node4 -->
<g id="node7" class="node"><title>Node4</title>
<a xlink:href="classvec_a_m_o_r_e.html" target="_top" xlink:title="{vecAMORE\&lt; Neuron \&gt;\n|# ldata\l|+ getLdata()\l+ setLdata()\l+ size()\l+ push_back()\l+ append()\l+ show()\l+ validate()\l+ reserve()\l}">
<polygon fill="white" stroke="black" points="122,-281 122,-415 240,-415 240,-281 122,-281"/>
<text text-anchor="middle" x="181" y="-402" font-family="Helvetica,sans-Serif" font-size="10.00">vecAMORE&lt; Neuron &gt;</text>
<polyline fill="none" stroke="black" points="122,-396 240,-396 "/>
<text text-anchor="start" x="130" y="-383" font-family="Helvetica,sans-Serif" font-size="10.00"># ldata</text>
<polyline fill="none" stroke="black" points="122,-377 240,-377 "/>
<text text-anchor="start" x="130" y="-364" font-family="Helvetica,sans-Serif" font-size="10.00">+ getLdata()</text>
<text text-anchor="start" x="130" y="-353" font-family="Helvetica,sans-Serif" font-size="10.00">+ setLdata()</text>
<text text-anchor="start" x="130" y="-342" font-family="Helvetica,sans-Serif" font-size="10.00">+ size()</text>
<text text-anchor="start" x="130" y="-331" font-family="Helvetica,sans-Serif" font-size="10.00">+ push_back()</text>
<text text-anchor="start" x="130" y="-320" font-family="Helvetica,sans-Serif" font-size="10.00">+ append()</text>
<text text-anchor="start" x="130" y="-309" font-family="Helvetica,sans-Serif" font-size="10.00">+ show()</text>
<text text-anchor="start" x="130" y="-298" font-family="Helvetica,sans-Serif" font-size="10.00">+ validate()</text>
<text text-anchor="start" x="130" y="-287" font-family="Helvetica,sans-Serif" font-size="10.00">+ reserve()</text>
</a>
</g>
<!-- Node1&#45;&gt;Node4 -->
<g id="edge6" class="edge"><title>Node1&#45;&gt;Node4</title>
<path fill="none" stroke="orange" stroke-dasharray="5,2" d="M148.381,-455.176C152.439,-441.843 156.63,-428.073 160.6,-415.027"/>
<polygon fill="orange" stroke="orange" points="145.018,-454.205 145.455,-464.791 151.715,-456.243 145.018,-454.205"/>
<text text-anchor="middle" x="179" y="-436.5" font-family="Helvetica,sans-Serif" font-size="10.00">&lt; Neuron &gt;</text>
</g>
<!-- Node3 -->
<g id="node5" class="node"><title>Node3</title>
<a xlink:href="classvec_con.html" target="_top" xlink:title="A vector of connections.">
<polygon fill="white" stroke="black" points="1,-96.5 1,-241.5 103,-241.5 103,-96.5 1,-96.5"/>
<text text-anchor="middle" x="52" y="-228.5" font-family="Helvetica,sans-Serif" font-size="10.00">vecCon</text>
<polyline fill="none" stroke="black" points="1,-222.5 103,-222.5 "/>
<text text-anchor="middle" x="52" y="-209.5" font-family="Helvetica,sans-Serif" font-size="10.00"> </text>
<polyline fill="none" stroke="black" points="1,-203.5 103,-203.5 "/>
<text text-anchor="start" x="9" y="-190.5" font-family="Helvetica,sans-Serif" font-size="10.00">+ numOfCons()</text>
<text text-anchor="start" x="9" y="-179.5" font-family="Helvetica,sans-Serif" font-size="10.00">+ getFromId()</text>
<text text-anchor="start" x="9" y="-168.5" font-family="Helvetica,sans-Serif" font-size="10.00">+ buildAndAppend()</text>
<text text-anchor="start" x="9" y="-157.5" font-family="Helvetica,sans-Serif" font-size="10.00">+ getWeight()</text>
<text text-anchor="start" x="9" y="-146.5" font-family="Helvetica,sans-Serif" font-size="10.00">+ getFromNeuron()</text>
<text text-anchor="start" x="9" y="-135.5" font-family="Helvetica,sans-Serif" font-size="10.00">+ setWeight()</text>
<text text-anchor="start" x="9" y="-124.5" font-family="Helvetica,sans-Serif" font-size="10.00">+ setFromNeuron()</text>
<text text-anchor="start" x="9" y="-113.5" font-family="Helvetica,sans-Serif" font-size="10.00">+ erase()</text>
<text text-anchor="start" x="9" y="-102.5" font-family="Helvetica,sans-Serif" font-size="10.00">+ select()</text>
</a>
</g>
<!-- Node2&#45;&gt;Node3 -->
<g id="edge4" class="edge"><title>Node2&#45;&gt;Node3</title>
<path fill="none" stroke="midnightblue" d="M52,-270.83C52,-261.139 52,-251.252 52,-241.634"/>
<polygon fill="none" stroke="midnightblue" points="48.5001,-270.838 52,-280.838 55.5001,-270.838 48.5001,-270.838"/>
</g>
<!-- Node5 -->
<g id="node9" class="node"><title>Node5</title>
<a xlink:href="classvec_neuron.html" target="_top" xlink:title="A vector of neurons.">
<polygon fill="white" stroke="black" points="149.5,-140.5 149.5,-197.5 212.5,-197.5 212.5,-140.5 149.5,-140.5"/>
<text text-anchor="middle" x="181" y="-184.5" font-family="Helvetica,sans-Serif" font-size="10.00">vecNeuron</text>
<polyline fill="none" stroke="black" points="149.5,-178.5 212.5,-178.5 "/>
<text text-anchor="middle" x="181" y="-165.5" font-family="Helvetica,sans-Serif" font-size="10.00"> </text>
<polyline fill="none" stroke="black" points="149.5,-159.5 212.5,-159.5 "/>
<text text-anchor="middle" x="181" y="-146.5" font-family="Helvetica,sans-Serif" font-size="10.00"> </text>
</a>
</g>
<!-- Node4&#45;&gt;Node5 -->
<g id="edge8" class="edge"><title>Node4&#45;&gt;Node5</title>
<path fill="none" stroke="midnightblue" d="M181,-270.609C181,-244.688 181,-217.386 181,-197.618"/>
<polygon fill="none" stroke="midnightblue" points="177.5,-270.838 181,-280.838 184.5,-270.838 177.5,-270.838"/>
</g>
<!-- Node6 -->
<g id="node11" class="node"><title>Node6</title>
<a xlink:href="classvec_m_l_pneuron.html" target="_top" xlink:title="A vector of connections.">
<polygon fill="white" stroke="black" points="130,-0.5 130,-57.5 232,-57.5 232,-0.5 130,-0.5"/>
<text text-anchor="middle" x="181" y="-44.5" font-family="Helvetica,sans-Serif" font-size="10.00">vecMLPneuron</text>
<polyline fill="none" stroke="black" points="130,-38.5 232,-38.5 "/>
<text text-anchor="middle" x="181" y="-25.5" font-family="Helvetica,sans-Serif" font-size="10.00"> </text>
<polyline fill="none" stroke="black" points="130,-19.5 232,-19.5 "/>
<text text-anchor="start" x="138" y="-6.5" font-family="Helvetica,sans-Serif" font-size="10.00">+ buildAndAppend()</text>
</a>
</g>
<!-- Node5&#45;&gt;Node6 -->
<g id="edge10" class="edge"><title>Node5&#45;&gt;Node6</title>
<path fill="none" stroke="midnightblue" d="M181,-130.212C181,-107.217 181,-78.5718 181,-57.6306"/>
<polygon fill="none" stroke="midnightblue" points="177.5,-130.331 181,-140.331 184.5,-130.331 177.5,-130.331"/>
</g>
</g>
</svg>
