<?xml version="1.0" encoding="UTF-8" standalone="no"?>
<!DOCTYPE svg PUBLIC "-//W3C//DTD SVG 1.1//EN"
 "http://www.w3.org/Graphics/SVG/1.1/DTD/svg11.dtd">
<!-- Generated by graphviz version 2.25.20091207.0545 (20091207.0545)
 -->
<!-- Title: G Pages: 1 -->
<svg width="248pt" height="630pt"
 viewBox="0.00 0.00 248.00 630.00" xmlns="http://www.w3.org/2000/svg" xmlns:xlink="http://www.w3.org/1999/xlink">
<g id="graph1" class="graph" transform="scale(1 1) rotate(0) translate(4 626)">
<title>G</title>
<polygon fill="white" stroke="white" points="-4,5 -4,-626 245,-626 245,5 -4,5"/>
<!-- Node1 -->
<g id="node1" class="node"><title>Node1</title>
<polygon fill="#bfbfbf" stroke="black" points="78.5,-487 78.5,-621 171.5,-621 171.5,-487 78.5,-487"/>
<text text-anchor="middle" x="125" y="-608" font-family="Helvetica,sans-Serif" font-size="10.00">vecAMORE&lt; T &gt;</text>
<polyline fill="none" stroke="black" points="78.5,-602 171.5,-602 "/>
<text text-anchor="start" x="86.5" y="-589" font-family="Helvetica,sans-Serif" font-size="10.00"># ldata</text>
<polyline fill="none" stroke="black" points="78.5,-583 171.5,-583 "/>
<text text-anchor="start" x="86.5" y="-570" font-family="Helvetica,sans-Serif" font-size="10.00">+ getLdata()</text>
<text text-anchor="start" x="86.5" y="-559" font-family="Helvetica,sans-Serif" font-size="10.00">+ setLdata()</text>
<text text-anchor="start" x="86.5" y="-548" font-family="Helvetica,sans-Serif" font-size="10.00">+ size()</text>
<text text-anchor="start" x="86.5" y="-537" font-family="Helvetica,sans-Serif" font-size="10.00">+ push_back()</text>
<text text-anchor="start" x="86.5" y="-526" font-family="Helvetica,sans-Serif" font-size="10.00">+ append()</text>
<text text-anchor="start" x="86.5" y="-515" font-family="Helvetica,sans-Serif" font-size="10.00">+ show()</text>
<text text-anchor="start" x="86.5" y="-504" font-family="Helvetica,sans-Serif" font-size="10.00">+ validate()</text>
<text text-anchor="start" x="86.5" y="-493" font-family="Helvetica,sans-Serif" font-size="10.00">+ reserve()</text>
</g>
<!-- Node2 -->
<g id="node3" class="node"><title>Node2</title>
<a xlink:href="classvec_a_m_o_r_e.html" target="_top" xlink:title="{vecAMORE\&lt; Con \&gt;\n|# ldata\l|+ getLdata()\l+ setLdata()\l+ size()\l+ push_back()\l+ append()\l+ show()\l+ validate()\l+ reserve()\l}">
<polygon fill="white" stroke="black" points="-0.5,-303 -0.5,-437 104.5,-437 104.5,-303 -0.5,-303"/>
<text text-anchor="middle" x="52" y="-424" font-family="Helvetica,sans-Serif" font-size="10.00">vecAMORE&lt; Con &gt;</text>
<polyline fill="none" stroke="black" points="-0.5,-418 104.5,-418 "/>
<text text-anchor="start" x="7.5" y="-405" font-family="Helvetica,sans-Serif" font-size="10.00"># ldata</text>
<polyline fill="none" stroke="black" points="-0.5,-399 104.5,-399 "/>
<text text-anchor="start" x="7.5" y="-386" font-family="Helvetica,sans-Serif" font-size="10.00">+ getLdata()</text>
<text text-anchor="start" x="7.5" y="-375" font-family="Helvetica,sans-Serif" font-size="10.00">+ setLdata()</text>
<text text-anchor="start" x="7.5" y="-364" font-family="Helvetica,sans-Serif" font-size="10.00">+ size()</text>
<text text-anchor="start" x="7.5" y="-353" font-family="Helvetica,sans-Serif" font-size="10.00">+ push_back()</text>
<text text-anchor="start" x="7.5" y="-342" font-family="Helvetica,sans-Serif" font-size="10.00">+ append()</text>
<text text-anchor="start" x="7.5" y="-331" font-family="Helvetica,sans-Serif" font-size="10.00">+ show()</text>
<text text-anchor="start" x="7.5" y="-320" font-family="Helvetica,sans-Serif" font-size="10.00">+ validate()</text>
<text text-anchor="start" x="7.5" y="-309" font-family="Helvetica,sans-Serif" font-size="10.00">+ reserve()</text>
</a>
</g>
<!-- Node1&#45;&gt;Node2 -->
<g id="edge2" class="edge"><title>Node1&#45;&gt;Node2</title>
<path fill="none" stroke="orange" stroke-dasharray="5,2" d="M94.521,-477.176C89.2312,-463.843 83.768,-450.073 78.5923,-437.027"/>
<polygon fill="orange" stroke="orange" points="91.3943,-478.786 98.3355,-486.791 97.9009,-476.205 91.3943,-478.786"/>
<text text-anchor="middle" x="108" y="-458.5" font-family="Helvetica,sans-Serif" font-size="10.00">&lt; Con &gt;</text>
</g>
<!-- Node4 -->
<g id="node7" class="node"><title>Node4</title>
<a xlink:href="classvec_a_m_o_r_e.html" target="_top" xlink:title="{vecAMORE\&lt; Neuron \&gt;\n|# ldata\l|+ getLdata()\l+ setLdata()\l+ size()\l+ push_back()\l+ append()\l+ show()\l+ validate()\l+ reserve()\l}">
<polygon fill="white" stroke="black" points="122,-303 122,-437 240,-437 240,-303 122,-303"/>
<text text-anchor="middle" x="181" y="-424" font-family="Helvetica,sans-Serif" font-size="10.00">vecAMORE&lt; Neuron &gt;</text>
<polyline fill="none" stroke="black" points="122,-418 240,-418 "/>
<text text-anchor="start" x="130" y="-405" font-family="Helvetica,sans-Serif" font-size="10.00"># ldata</text>
<polyline fill="none" stroke="black" points="122,-399 240,-399 "/>
<text text-anchor="start" x="130" y="-386" font-family="Helvetica,sans-Serif" font-size="10.00">+ getLdata()</text>
<text text-anchor="start" x="130" y="-375" font-family="Helvetica,sans-Serif" font-size="10.00">+ setLdata()</text>
<text text-anchor="start" x="130" y="-364" font-family="Helvetica,sans-Serif" font-size="10.00">+ size()</text>
<text text-anchor="start" x="130" y="-353" font-family="Helvetica,sans-Serif" font-size="10.00">+ push_back()</text>
<text text-anchor="start" x="130" y="-342" font-family="Helvetica,sans-Serif" font-size="10.00">+ append()</text>
<text text-anchor="start" x="130" y="-331" font-family="Helvetica,sans-Serif" font-size="10.00">+ show()</text>
<text text-anchor="start" x="130" y="-320" font-family="Helvetica,sans-Serif" font-size="10.00">+ validate()</text>
<text text-anchor="start" x="130" y="-309" font-family="Helvetica,sans-Serif" font-size="10.00">+ reserve()</text>
</a>
</g>
<!-- Node1&#45;&gt;Node4 -->
<g id="edge6" class="edge"><title>Node1&#45;&gt;Node4</title>
<path fill="none" stroke="orange" stroke-dasharray="5,2" d="M148.381,-477.176C152.439,-463.843 156.63,-450.073 160.6,-437.027"/>
<polygon fill="orange" stroke="orange" points="145.018,-476.205 145.455,-486.791 151.715,-478.243 145.018,-476.205"/>
<text text-anchor="middle" x="179" y="-458.5" font-family="Helvetica,sans-Serif" font-size="10.00">&lt; Neuron &gt;</text>
</g>
<!-- Node3 -->
<g id="node5" class="node"><title>Node3</title>
<a xlink:href="classvec_con.html" target="_top" xlink:title="A vector of connections.">
<polygon fill="white" stroke="black" points="1,-96.5 1,-263.5 103,-263.5 103,-96.5 1,-96.5"/>
<text text-anchor="middle" x="52" y="-250.5" font-family="Helvetica,sans-Serif" font-size="10.00">vecCon</text>
<polyline fill="none" stroke="black" points="1,-244.5 103,-244.5 "/>
<text text-anchor="middle" x="52" y="-231.5" font-family="Helvetica,sans-Serif" font-size="10.00"> </text>
<polyline fill="none" stroke="black" points="1,-225.5 103,-225.5 "/>
<text text-anchor="start" x="9" y="-212.5" font-family="Helvetica,sans-Serif" font-size="10.00">+ numOfCons()</text>
<text text-anchor="start" x="9" y="-201.5" font-family="Helvetica,sans-Serif" font-size="10.00">+ getFromId()</text>
<text text-anchor="start" x="9" y="-190.5" font-family="Helvetica,sans-Serif" font-size="10.00">+ buildAndAppend()</text>
<text text-anchor="start" x="9" y="-179.5" font-family="Helvetica,sans-Serif" font-size="10.00">+ getWeight()</text>
<text text-anchor="start" x="9" y="-168.5" font-family="Helvetica,sans-Serif" font-size="10.00">+ getWeight()</text>
<text text-anchor="start" x="9" y="-157.5" font-family="Helvetica,sans-Serif" font-size="10.00">+ getFromNeuron()</text>
<text text-anchor="start" x="9" y="-146.5" font-family="Helvetica,sans-Serif" font-size="10.00">+ setWeight()</text>
<text text-anchor="start" x="9" y="-135.5" font-family="Helvetica,sans-Serif" font-size="10.00">+ setWeight()</text>
<text text-anchor="start" x="9" y="-124.5" font-family="Helvetica,sans-Serif" font-size="10.00">+ setFromNeuron()</text>
<text text-anchor="start" x="9" y="-113.5" font-family="Helvetica,sans-Serif" font-size="10.00">+ erase()</text>
<text text-anchor="start" x="9" y="-102.5" font-family="Helvetica,sans-Serif" font-size="10.00">+ select()</text>
</a>
</g>
<!-- Node2&#45;&gt;Node3 -->
<g id="edge4" class="edge"><title>Node2&#45;&gt;Node3</title>
<path fill="none" stroke="midnightblue" d="M52,-292.575C52,-283.098 52,-273.379 52,-263.813"/>
<polygon fill="none" stroke="midnightblue" points="48.5001,-292.746 52,-302.746 55.5001,-292.746 48.5001,-292.746"/>
</g>
<!-- Node5 -->
<g id="node9" class="node"><title>Node5</title>
<a xlink:href="classvec_neuron.html" target="_top" xlink:title="A vector of neurons.">
<polygon fill="white" stroke="black" points="149.5,-151.5 149.5,-208.5 212.5,-208.5 212.5,-151.5 149.5,-151.5"/>
<text text-anchor="middle" x="181" y="-195.5" font-family="Helvetica,sans-Serif" font-size="10.00">vecNeuron</text>
<polyline fill="none" stroke="black" points="149.5,-189.5 212.5,-189.5 "/>
<text text-anchor="middle" x="181" y="-176.5" font-family="Helvetica,sans-Serif" font-size="10.00"> </text>
<polyline fill="none" stroke="black" points="149.5,-170.5 212.5,-170.5 "/>
<text text-anchor="middle" x="181" y="-157.5" font-family="Helvetica,sans-Serif" font-size="10.00"> </text>
</a>
</g>
<!-- Node4&#45;&gt;Node5 -->
<g id="edge8" class="edge"><title>Node4&#45;&gt;Node5</title>
<path fill="none" stroke="midnightblue" d="M181,-292.409C181,-262.855 181,-230.973 181,-208.738"/>
<polygon fill="none" stroke="midnightblue" points="177.5,-292.746 181,-302.746 184.5,-292.746 177.5,-292.746"/>
</g>
<!-- Node6 -->
<g id="node11" class="node"><title>Node6</title>
<a xlink:href="classvec_m_l_pneuron.html" target="_top" xlink:title="A vector of connections.">
<polygon fill="white" stroke="black" points="130,-0.5 130,-57.5 232,-57.5 232,-0.5 130,-0.5"/>
<text text-anchor="middle" x="181" y="-44.5" font-family="Helvetica,sans-Serif" font-size="10.00">vecMLPneuron</text>
<polyline fill="none" stroke="black" points="130,-38.5 232,-38.5 "/>
<text text-anchor="middle" x="181" y="-25.5" font-family="Helvetica,sans-Serif" font-size="10.00"> </text>
<polyline fill="none" stroke="black" points="130,-19.5 232,-19.5 "/>
<text text-anchor="start" x="138" y="-6.5" font-family="Helvetica,sans-Serif" font-size="10.00">+ buildAndAppend()</text>
</a>
</g>
<!-- Node5&#45;&gt;Node6 -->
<g id="edge10" class="edge"><title>Node5&#45;&gt;Node6</title>
<path fill="none" stroke="midnightblue" d="M181,-140.955C181,-114.905 181,-81.2348 181,-57.6503"/>
<polygon fill="none" stroke="midnightblue" points="177.5,-141.243 181,-151.243 184.5,-141.243 177.5,-141.243"/>
</g>
</g>
</svg>
