<?xml version="1.0" encoding="UTF-8" standalone="no"?>
<!DOCTYPE svg PUBLIC "-//W3C//DTD SVG 1.1//EN"
 "http://www.w3.org/Graphics/SVG/1.1/DTD/svg11.dtd">
<!-- Generated by graphviz version 2.28.0 (20110610.2051)
 -->
<!-- Title: G Pages: 1 -->
<svg width="370pt" height="266pt"
 viewBox="0.00 0.00 370.00 266.00" xmlns="http://www.w3.org/2000/svg" xmlns:xlink="http://www.w3.org/1999/xlink">
<g id="graph1" class="graph" transform="scale(1 1) rotate(0) translate(4 262)">
<title>G</title>
<polygon fill="white" stroke="white" points="-4,5 -4,-262 367,-262 367,5 -4,5"/>
<!-- Node1 -->
<g id="node1" class="node"><title>Node1</title>
<polygon fill="#bfbfbf" stroke="black" points="104,-94.5 104,-151.5 250,-151.5 250,-94.5 104,-94.5"/>
<text text-anchor="middle" x="177" y="-139.5" font-family="Helvetica,sans-Serif" font-size="10.00">AdaptNetworkTrainBehavior</text>
<polyline fill="none" stroke="black" points="104,-132.5 250,-132.5 "/>
<text text-anchor="middle" x="177" y="-120.5" font-family="Helvetica,sans-Serif" font-size="10.00"> </text>
<polyline fill="none" stroke="black" points="104,-113.5 250,-113.5 "/>
<text text-anchor="start" x="112" y="-101.5" font-family="Helvetica,sans-Serif" font-size="10.00">+ train()</text>
</g>
<!-- Node3 -->
<g id="node5" class="node"><title>Node3</title>
<a xlink:href="class_a_d_a_p_tgd_network_train_behavior.html" target="_top" xlink:title="class ADAPTgdNetworkTrainBehavior &#45;">
<polygon fill="white" stroke="black" points="0,-0.5 0,-57.5 164,-57.5 164,-0.5 0,-0.5"/>
<text text-anchor="middle" x="82" y="-45.5" font-family="Helvetica,sans-Serif" font-size="10.00">ADAPTgdNetworkTrainBehavior</text>
<polyline fill="none" stroke="black" points="0,-38.5 164,-38.5 "/>
<text text-anchor="middle" x="82" y="-26.5" font-family="Helvetica,sans-Serif" font-size="10.00"> </text>
<polyline fill="none" stroke="black" points="0,-19.5 164,-19.5 "/>
<text text-anchor="start" x="8" y="-7.5" font-family="Helvetica,sans-Serif" font-size="10.00">+ train()</text>
</a>
</g>
<!-- Node1&#45;&gt;Node3 -->
<g id="edge4" class="edge"><title>Node1&#45;&gt;Node3</title>
<path fill="none" stroke="midnightblue" d="M141.258,-87.3868C131.091,-77.5407 120.157,-66.9518 110.483,-57.5836"/>
<polygon fill="none" stroke="midnightblue" points="138.878,-89.9545 148.497,-94.397 143.748,-84.9259 138.878,-89.9545"/>
</g>
<!-- Node4 -->
<g id="node7" class="node"><title>Node4</title>
<a xlink:href="class_a_d_a_p_tgdwm_network_train_behavior.html" target="_top" xlink:title="class ADAPTgdwmNetworkTrainBehavior &#45;">
<polygon fill="white" stroke="black" points="182,-0.5 182,-57.5 362,-57.5 362,-0.5 182,-0.5"/>
<text text-anchor="middle" x="272" y="-45.5" font-family="Helvetica,sans-Serif" font-size="10.00">ADAPTgdwmNetworkTrainBehavior</text>
<polyline fill="none" stroke="black" points="182,-38.5 362,-38.5 "/>
<text text-anchor="middle" x="272" y="-26.5" font-family="Helvetica,sans-Serif" font-size="10.00"> </text>
<polyline fill="none" stroke="black" points="182,-19.5 362,-19.5 "/>
<text text-anchor="start" x="190" y="-7.5" font-family="Helvetica,sans-Serif" font-size="10.00">+ train()</text>
</a>
</g>
<!-- Node1&#45;&gt;Node4 -->
<g id="edge6" class="edge"><title>Node1&#45;&gt;Node4</title>
<path fill="none" stroke="midnightblue" d="M212.742,-87.3868C222.909,-77.5407 233.843,-66.9518 243.517,-57.5836"/>
<polygon fill="none" stroke="midnightblue" points="210.252,-84.9259 205.503,-94.397 215.122,-89.9545 210.252,-84.9259"/>
</g>
<!-- Node2 -->
<g id="node2" class="node"><title>Node2</title>
<a xlink:href="class_network_train_behavior.html" target="_top" xlink:title="class NetworkTrainBehavior &#45;">
<polygon fill="white" stroke="black" points="118,-189 118,-257 236,-257 236,-189 118,-189"/>
<text text-anchor="middle" x="177" y="-245" font-family="Helvetica,sans-Serif" font-size="10.00">NetworkTrainBehavior</text>
<polyline fill="none" stroke="black" points="118,-238 236,-238 "/>
<text text-anchor="start" x="126" y="-226" font-family="Helvetica,sans-Serif" font-size="10.00"># d_neuralNetwork</text>
<text text-anchor="start" x="126" y="-215" font-family="Helvetica,sans-Serif" font-size="10.00"># d_costFunction</text>
<polyline fill="none" stroke="black" points="118,-208 236,-208 "/>
<text text-anchor="start" x="126" y="-196" font-family="Helvetica,sans-Serif" font-size="10.00">+ train()</text>
</a>
</g>
<!-- Node2&#45;&gt;Node1 -->
<g id="edge2" class="edge"><title>Node2&#45;&gt;Node1</title>
<path fill="none" stroke="midnightblue" d="M177,-178.638C177,-169.455 177,-160.005 177,-151.6"/>
<polygon fill="none" stroke="midnightblue" points="173.5,-178.822 177,-188.822 180.5,-178.822 173.5,-178.822"/>
</g>
</g>
</svg>
