<?xml version="1.0" encoding="UTF-8" standalone="no"?>
<!DOCTYPE svg PUBLIC "-//W3C//DTD SVG 1.1//EN"
 "http://www.w3.org/Graphics/SVG/1.1/DTD/svg11.dtd">
<!-- Generated by graphviz version 2.28.0 (20110610.2051)
 -->
<!-- Title: G Pages: 1 -->
<svg width="138pt" height="194pt"
 viewBox="0.00 0.00 138.00 194.00" xmlns="http://www.w3.org/2000/svg" xmlns:xlink="http://www.w3.org/1999/xlink">
<g id="graph1" class="graph" transform="scale(1 1) rotate(0) translate(4 190)">
<title>G</title>
<polygon fill="white" stroke="white" points="-4,5 -4,-190 135,-190 135,5 -4,5"/>
<!-- Node1 -->
<g id="node1" class="node"><title>Node1</title>
<polygon fill="#bfbfbf" stroke="black" points="0,-0.5 0,-79.5 130,-79.5 130,-0.5 0,-0.5"/>
<text text-anchor="middle" x="65" y="-67.5" font-family="Helvetica,sans-Serif" font-size="10.00">SimpleNeuralCreator</text>
<polyline fill="none" stroke="black" points="0,-60.5 130,-60.5 "/>
<text text-anchor="middle" x="65" y="-48.5" font-family="Helvetica,sans-Serif" font-size="10.00"> </text>
<polyline fill="none" stroke="black" points="0,-41.5 130,-41.5 "/>
<text text-anchor="start" x="8" y="-29.5" font-family="Helvetica,sans-Serif" font-size="10.00">+ SimpleNeuralCreator()</text>
<text text-anchor="start" x="8" y="-18.5" font-family="Helvetica,sans-Serif" font-size="10.00">+ createCon()</text>
<text text-anchor="start" x="8" y="-7.5" font-family="Helvetica,sans-Serif" font-size="10.00">+ createNeuron()</text>
</g>
<!-- Node2 -->
<g id="node2" class="node"><title>Node2</title>
<a xlink:href="class_neural_creator.html" target="_top" xlink:title="class NeuralCreator &#45;">
<polygon fill="white" stroke="black" points="17,-117 17,-185 113,-185 113,-117 17,-117"/>
<text text-anchor="middle" x="65" y="-173" font-family="Helvetica,sans-Serif" font-size="10.00">NeuralCreator</text>
<polyline fill="none" stroke="black" points="17,-166 113,-166 "/>
<text text-anchor="middle" x="65" y="-154" font-family="Helvetica,sans-Serif" font-size="10.00"> </text>
<polyline fill="none" stroke="black" points="17,-147 113,-147 "/>
<text text-anchor="start" x="25" y="-135" font-family="Helvetica,sans-Serif" font-size="10.00">+ createCon()</text>
<text text-anchor="start" x="25" y="-124" font-family="Helvetica,sans-Serif" font-size="10.00">+ createNeuron()</text>
</a>
</g>
<!-- Node2&#45;&gt;Node1 -->
<g id="edge2" class="edge"><title>Node2&#45;&gt;Node1</title>
<path fill="none" stroke="midnightblue" d="M65,-106.575C65,-97.7367 65,-88.4932 65,-79.8274"/>
<polygon fill="none" stroke="midnightblue" points="61.5001,-106.704 65,-116.704 68.5001,-106.704 61.5001,-106.704"/>
</g>
</g>
</svg>
