<?xml version="1.0" encoding="UTF-8" standalone="no"?>
<!DOCTYPE svg PUBLIC "-//W3C//DTD SVG 1.1//EN"
 "http://www.w3.org/Graphics/SVG/1.1/DTD/svg11.dtd">
<!-- Generated by graphviz version 2.28.0 (20110610.2051)
 -->
<!-- Title: G Pages: 1 -->
<svg width="189pt" height="184pt"
 viewBox="0.00 0.00 189.00 184.00" xmlns="http://www.w3.org/2000/svg" xmlns:xlink="http://www.w3.org/1999/xlink">
<g id="graph1" class="graph" transform="scale(1 1) rotate(0) translate(4 180)">
<title>G</title>
<polygon fill="white" stroke="white" points="-4,5 -4,-180 186,-180 186,5 -4,5"/>
<!-- Node1 -->
<g id="node1" class="node"><title>Node1</title>
<polygon fill="#bfbfbf" stroke="black" points="44,-107 44,-175 122,-175 122,-107 44,-107"/>
<text text-anchor="middle" x="83" y="-163" font-family="Helvetica,sans-Serif" font-size="10.00">CostFunction</text>
<polyline fill="none" stroke="black" points="44,-156 122,-156 "/>
<text text-anchor="middle" x="83" y="-144" font-family="Helvetica,sans-Serif" font-size="10.00"> </text>
<polyline fill="none" stroke="black" points="44,-137 122,-137 "/>
<text text-anchor="start" x="52" y="-125" font-family="Helvetica,sans-Serif" font-size="10.00">+ f0()</text>
<text text-anchor="start" x="52" y="-114" font-family="Helvetica,sans-Serif" font-size="10.00">+ f1()</text>
</g>
<!-- Node2 -->
<g id="node3" class="node"><title>Node2</title>
<a xlink:href="class_l_m_l_s.html" target="_top" xlink:title="class LMLS &#45;">
<polygon fill="white" stroke="black" points="0,-1 0,-69 44,-69 44,-1 0,-1"/>
<text text-anchor="middle" x="22" y="-57" font-family="Helvetica,sans-Serif" font-size="10.00">LMLS</text>
<polyline fill="none" stroke="black" points="0,-50 44,-50 "/>
<text text-anchor="middle" x="22" y="-38" font-family="Helvetica,sans-Serif" font-size="10.00"> </text>
<polyline fill="none" stroke="black" points="0,-31 44,-31 "/>
<text text-anchor="start" x="8" y="-19" font-family="Helvetica,sans-Serif" font-size="10.00">+ f0()</text>
<text text-anchor="start" x="8" y="-8" font-family="Helvetica,sans-Serif" font-size="10.00">+ f1()</text>
</a>
</g>
<!-- Node1&#45;&gt;Node2 -->
<g id="edge2" class="edge"><title>Node1&#45;&gt;Node2</title>
<path fill="none" stroke="midnightblue" d="M58.4531,-98.1496C52.8113,-88.5308 46.8868,-78.43 41.4928,-69.2336"/>
<polygon fill="none" stroke="midnightblue" points="55.4531,-99.9528 63.5315,-106.808 61.4911,-96.4113 55.4531,-99.9528"/>
</g>
<!-- Node3 -->
<g id="node5" class="node"><title>Node3</title>
<a xlink:href="class_l_m_s.html" target="_top" xlink:title="class LMS &#45;">
<polygon fill="white" stroke="black" points="62,-1 62,-69 104,-69 104,-1 62,-1"/>
<text text-anchor="middle" x="83" y="-57" font-family="Helvetica,sans-Serif" font-size="10.00">LMS</text>
<polyline fill="none" stroke="black" points="62,-50 104,-50 "/>
<text text-anchor="middle" x="83" y="-38" font-family="Helvetica,sans-Serif" font-size="10.00"> </text>
<polyline fill="none" stroke="black" points="62,-31 104,-31 "/>
<text text-anchor="start" x="70" y="-19" font-family="Helvetica,sans-Serif" font-size="10.00">+ f0()</text>
<text text-anchor="start" x="70" y="-8" font-family="Helvetica,sans-Serif" font-size="10.00">+ f1()</text>
</a>
</g>
<!-- Node1&#45;&gt;Node3 -->
<g id="edge4" class="edge"><title>Node1&#45;&gt;Node3</title>
<path fill="none" stroke="midnightblue" d="M83,-96.6737C83,-87.5025 83,-77.9608 83,-69.2336"/>
<polygon fill="none" stroke="midnightblue" points="79.5001,-96.8078 83,-106.808 86.5001,-96.8078 79.5001,-96.8078"/>
</g>
<!-- Node4 -->
<g id="node7" class="node"><title>Node4</title>
<a xlink:href="class_tao.html" target="_top" xlink:title="class Tao &#45;">
<polygon fill="white" stroke="black" points="122.5,-1 122.5,-69 181.5,-69 181.5,-1 122.5,-1"/>
<text text-anchor="middle" x="152" y="-57" font-family="Helvetica,sans-Serif" font-size="10.00">Tao</text>
<polyline fill="none" stroke="black" points="122.5,-50 181.5,-50 "/>
<text text-anchor="start" x="130.5" y="-38" font-family="Helvetica,sans-Serif" font-size="10.00">&#45; d_STao</text>
<polyline fill="none" stroke="black" points="122.5,-31 181.5,-31 "/>
<text text-anchor="start" x="130.5" y="-19" font-family="Helvetica,sans-Serif" font-size="10.00">+ f0()</text>
<text text-anchor="start" x="130.5" y="-8" font-family="Helvetica,sans-Serif" font-size="10.00">+ f1()</text>
</a>
</g>
<!-- Node1&#45;&gt;Node4 -->
<g id="edge6" class="edge"><title>Node1&#45;&gt;Node4</title>
<path fill="none" stroke="midnightblue" d="M110.571,-98.4439C117.011,-88.737 123.787,-78.5238 129.951,-69.2336"/>
<polygon fill="none" stroke="midnightblue" points="107.634,-96.54 105.022,-106.808 113.467,-100.41 107.634,-96.54"/>
</g>
</g>
</svg>
