<?xml version="1.0" encoding="UTF-8" standalone="no"?>
<!DOCTYPE svg PUBLIC "-//W3C//DTD SVG 1.1//EN"
 "http://www.w3.org/Graphics/SVG/1.1/DTD/svg11.dtd">
<!-- Generated by graphviz version 2.28.0 (20110610.2051)
 -->
<!-- Title: G Pages: 1 -->
<svg width="589pt" height="1754pt"
 viewBox="0.00 0.00 589.00 1754.00" xmlns="http://www.w3.org/2000/svg" xmlns:xlink="http://www.w3.org/1999/xlink">
<g id="graph1" class="graph" transform="scale(1 1) rotate(0) translate(4 1750)">
<title>G</title>
<polygon fill="white" stroke="white" points="-4,5 -4,-1750 586,-1750 586,5 -4,5"/>
<!-- Node1 -->
<g id="node1" class="node"><title>Node1</title>
<polygon fill="#bfbfbf" stroke="black" points="169,-0.5 169,-277.5 257,-277.5 257,-0.5 169,-0.5"/>
<text text-anchor="middle" x="213" y="-265.5" font-family="Helvetica,sans-Serif" font-size="10.00">Neuron</text>
<polyline fill="none" stroke="black" points="169,-258.5 257,-258.5 "/>
<text text-anchor="start" x="177" y="-246.5" font-family="Helvetica,sans-Serif" font-size="10.00"># d_Id</text>
<text text-anchor="start" x="177" y="-235.5" font-family="Helvetica,sans-Serif" font-size="10.00">&#45; Id</text>
<text text-anchor="start" x="177" y="-224.5" font-family="Helvetica,sans-Serif" font-size="10.00">&#45; con</text>
<text text-anchor="start" x="177" y="-213.5" font-family="Helvetica,sans-Serif" font-size="10.00">&#45; outputValue</text>
<polyline fill="none" stroke="black" points="169,-206.5 257,-206.5 "/>
<text text-anchor="start" x="177" y="-194.5" font-family="Helvetica,sans-Serif" font-size="10.00">+ Neuron()</text>
<text text-anchor="start" x="177" y="-183.5" font-family="Helvetica,sans-Serif" font-size="10.00">+ Neuron()</text>
<text text-anchor="start" x="177" y="-172.5" font-family="Helvetica,sans-Serif" font-size="10.00">+ Id()</text>
<text text-anchor="start" x="177" y="-161.5" font-family="Helvetica,sans-Serif" font-size="10.00">+ show()</text>
<text text-anchor="start" x="177" y="-150.5" font-family="Helvetica,sans-Serif" font-size="10.00">+ validate()</text>
<text text-anchor="start" x="177" y="-139.5" font-family="Helvetica,sans-Serif" font-size="10.00">+ Neuron()</text>
<text text-anchor="start" x="177" y="-128.5" font-family="Helvetica,sans-Serif" font-size="10.00">+ Neuron()</text>
<text text-anchor="start" x="177" y="-117.5" font-family="Helvetica,sans-Serif" font-size="10.00">+ Neuron()</text>
<text text-anchor="start" x="177" y="-106.5" font-family="Helvetica,sans-Serif" font-size="10.00">+ ~Neuron()</text>
<text text-anchor="start" x="177" y="-95.5" font-family="Helvetica,sans-Serif" font-size="10.00">+ getId()</text>
<text text-anchor="start" x="177" y="-84.5" font-family="Helvetica,sans-Serif" font-size="10.00">+ setId()</text>
<text text-anchor="start" x="177" y="-73.5" font-family="Helvetica,sans-Serif" font-size="10.00">+ getConId()</text>
<text text-anchor="start" x="177" y="-62.5" font-family="Helvetica,sans-Serif" font-size="10.00">+ getWeight()</text>
<text text-anchor="start" x="177" y="-51.5" font-family="Helvetica,sans-Serif" font-size="10.00">+ setFrom()</text>
<text text-anchor="start" x="177" y="-40.5" font-family="Helvetica,sans-Serif" font-size="10.00">+ setWeight()</text>
<text text-anchor="start" x="177" y="-29.5" font-family="Helvetica,sans-Serif" font-size="10.00">+ numOfCons()</text>
<text text-anchor="start" x="177" y="-18.5" font-family="Helvetica,sans-Serif" font-size="10.00">+ show()</text>
<text text-anchor="start" x="177" y="-7.5" font-family="Helvetica,sans-Serif" font-size="10.00">+ validate()</text>
</g>
<!-- Node2 -->
<g id="node2" class="node"><title>Node2</title>
<a xlink:href="class_container.html" target="_top" xlink:title="{Container\&lt; Con \&gt;\n|# collection\l# collection\l|+ Container()\l+ Container()\l+ Container()\l+ ~Container()\l+ createIterator()\l+ push_back()\l+ push_back()\l+ reserve()\l+ reserve()\l+ empty()\l+ empty()\l+ size()\l+ size()\l+ clear()\l+ clear()\l+ show()\l+ show()\l+ validate()\l+ validate()\l+ begin()\l+ end()\l+ load()\l+ store()\l+ append()\l+ resize()\l+ operator[]()\l}">
<polygon fill="white" stroke="black" points="164.5,-326.5 164.5,-669.5 261.5,-669.5 261.5,-326.5 164.5,-326.5"/>
<text text-anchor="middle" x="213" y="-657.5" font-family="Helvetica,sans-Serif" font-size="10.00">Container&lt; Con &gt;</text>
<polyline fill="none" stroke="black" points="164.5,-650.5 261.5,-650.5 "/>
<text text-anchor="start" x="172.5" y="-638.5" font-family="Helvetica,sans-Serif" font-size="10.00"># collection</text>
<text text-anchor="start" x="172.5" y="-627.5" font-family="Helvetica,sans-Serif" font-size="10.00"># collection</text>
<polyline fill="none" stroke="black" points="164.5,-620.5 261.5,-620.5 "/>
<text text-anchor="start" x="172.5" y="-608.5" font-family="Helvetica,sans-Serif" font-size="10.00">+ Container()</text>
<text text-anchor="start" x="172.5" y="-597.5" font-family="Helvetica,sans-Serif" font-size="10.00">+ Container()</text>
<text text-anchor="start" x="172.5" y="-586.5" font-family="Helvetica,sans-Serif" font-size="10.00">+ Container()</text>
<text text-anchor="start" x="172.5" y="-575.5" font-family="Helvetica,sans-Serif" font-size="10.00">+ ~Container()</text>
<text text-anchor="start" x="172.5" y="-564.5" font-family="Helvetica,sans-Serif" font-size="10.00">+ createIterator()</text>
<text text-anchor="start" x="172.5" y="-553.5" font-family="Helvetica,sans-Serif" font-size="10.00">+ push_back()</text>
<text text-anchor="start" x="172.5" y="-542.5" font-family="Helvetica,sans-Serif" font-size="10.00">+ push_back()</text>
<text text-anchor="start" x="172.5" y="-531.5" font-family="Helvetica,sans-Serif" font-size="10.00">+ reserve()</text>
<text text-anchor="start" x="172.5" y="-520.5" font-family="Helvetica,sans-Serif" font-size="10.00">+ reserve()</text>
<text text-anchor="start" x="172.5" y="-509.5" font-family="Helvetica,sans-Serif" font-size="10.00">+ empty()</text>
<text text-anchor="start" x="172.5" y="-498.5" font-family="Helvetica,sans-Serif" font-size="10.00">+ empty()</text>
<text text-anchor="start" x="172.5" y="-487.5" font-family="Helvetica,sans-Serif" font-size="10.00">+ size()</text>
<text text-anchor="start" x="172.5" y="-476.5" font-family="Helvetica,sans-Serif" font-size="10.00">+ size()</text>
<text text-anchor="start" x="172.5" y="-465.5" font-family="Helvetica,sans-Serif" font-size="10.00">+ clear()</text>
<text text-anchor="start" x="172.5" y="-454.5" font-family="Helvetica,sans-Serif" font-size="10.00">+ clear()</text>
<text text-anchor="start" x="172.5" y="-443.5" font-family="Helvetica,sans-Serif" font-size="10.00">+ show()</text>
<text text-anchor="start" x="172.5" y="-432.5" font-family="Helvetica,sans-Serif" font-size="10.00">+ show()</text>
<text text-anchor="start" x="172.5" y="-421.5" font-family="Helvetica,sans-Serif" font-size="10.00">+ validate()</text>
<text text-anchor="start" x="172.5" y="-410.5" font-family="Helvetica,sans-Serif" font-size="10.00">+ validate()</text>
<text text-anchor="start" x="172.5" y="-399.5" font-family="Helvetica,sans-Serif" font-size="10.00">+ begin()</text>
<text text-anchor="start" x="172.5" y="-388.5" font-family="Helvetica,sans-Serif" font-size="10.00">+ end()</text>
<text text-anchor="start" x="172.5" y="-377.5" font-family="Helvetica,sans-Serif" font-size="10.00">+ load()</text>
<text text-anchor="start" x="172.5" y="-366.5" font-family="Helvetica,sans-Serif" font-size="10.00">+ store()</text>
<text text-anchor="start" x="172.5" y="-355.5" font-family="Helvetica,sans-Serif" font-size="10.00">+ append()</text>
<text text-anchor="start" x="172.5" y="-344.5" font-family="Helvetica,sans-Serif" font-size="10.00">+ resize()</text>
<text text-anchor="start" x="172.5" y="-333.5" font-family="Helvetica,sans-Serif" font-size="10.00">+ operator[]()</text>
</a>
</g>
<!-- Node2&#45;&gt;Node1 -->
<g id="edge2" class="edge"><title>Node2&#45;&gt;Node1</title>
<path fill="none" stroke="#9a32cd" stroke-dasharray="5,2" d="M213,-316.012C213,-303.13 213,-290.265 213,-277.685"/>
<polygon fill="#9a32cd" stroke="#9a32cd" points="213,-326.342 208.5,-316.342 213,-321.342 213,-316.342 213,-316.342 213,-316.342 213,-321.342 217.5,-316.342 213,-326.342 213,-326.342"/>
<text text-anchor="middle" x="221.5" y="-299.5" font-family="Helvetica,sans-Serif" font-size="10.00">con</text>
</g>
<!-- Node3 -->
<g id="node4" class="node"><title>Node3</title>
<a xlink:href="class_container_interface.html" target="_top" xlink:title="class ContainerInterface &#45;">
<polygon fill="white" stroke="black" points="3.5,-812 3.5,-968 140.5,-968 140.5,-812 3.5,-812"/>
<text text-anchor="middle" x="72" y="-956" font-family="Helvetica,sans-Serif" font-size="10.00">ContainerInterface&lt; Con &gt;</text>
<polyline fill="none" stroke="black" points="3.5,-949 140.5,-949 "/>
<text text-anchor="middle" x="72" y="-937" font-family="Helvetica,sans-Serif" font-size="10.00"> </text>
<polyline fill="none" stroke="black" points="3.5,-930 140.5,-930 "/>
<text text-anchor="start" x="11.5" y="-918" font-family="Helvetica,sans-Serif" font-size="10.00">+ ~ContainerInterface()</text>
<text text-anchor="start" x="11.5" y="-907" font-family="Helvetica,sans-Serif" font-size="10.00">+ createIterator()</text>
<text text-anchor="start" x="11.5" y="-896" font-family="Helvetica,sans-Serif" font-size="10.00">+ push_back()</text>
<text text-anchor="start" x="11.5" y="-885" font-family="Helvetica,sans-Serif" font-size="10.00">+ reserve()</text>
<text text-anchor="start" x="11.5" y="-874" font-family="Helvetica,sans-Serif" font-size="10.00">+ empty()</text>
<text text-anchor="start" x="11.5" y="-863" font-family="Helvetica,sans-Serif" font-size="10.00">+ size()</text>
<text text-anchor="start" x="11.5" y="-852" font-family="Helvetica,sans-Serif" font-size="10.00">+ clear()</text>
<text text-anchor="start" x="11.5" y="-841" font-family="Helvetica,sans-Serif" font-size="10.00">+ show()</text>
<text text-anchor="start" x="11.5" y="-830" font-family="Helvetica,sans-Serif" font-size="10.00">+ validate()</text>
<text text-anchor="start" x="11.5" y="-819" font-family="Helvetica,sans-Serif" font-size="10.00"># ContainerInterface()</text>
</a>
</g>
<!-- Node3&#45;&gt;Node2 -->
<g id="edge4" class="edge"><title>Node3&#45;&gt;Node2</title>
<path fill="none" stroke="midnightblue" d="M103.269,-802.511C121.249,-752.781 144.222,-689.236 164.498,-633.154"/>
<polygon fill="none" stroke="midnightblue" points="99.9656,-801.354 99.8571,-811.949 106.549,-803.734 99.9656,-801.354"/>
</g>
<!-- Node4 -->
<g id="node6" class="node"><title>Node4</title>
<polygon fill="white" stroke="#bfbfbf" points="380,-1080.5 380,-1137.5 580,-1137.5 580,-1080.5 380,-1080.5"/>
<text text-anchor="middle" x="480" y="-1125.5" font-family="Helvetica,sans-Serif" font-size="10.00">std::vector&lt; boost::shared_ptr&lt; Con &gt; &gt;</text>
<polyline fill="none" stroke="#bfbfbf" points="380,-1118.5 580,-1118.5 "/>
<text text-anchor="start" x="388" y="-1106.5" font-family="Helvetica,sans-Serif" font-size="10.00">&#45; elements</text>
<polyline fill="none" stroke="#bfbfbf" points="380,-1099.5 580,-1099.5 "/>
<text text-anchor="middle" x="480" y="-1087.5" font-family="Helvetica,sans-Serif" font-size="10.00"> </text>
</g>
<!-- Node4&#45;&gt;Node2 -->
<g id="edge6" class="edge"><title>Node4&#45;&gt;Node2</title>
<path fill="none" stroke="#9a32cd" stroke-dasharray="5,2" d="M470.019,-1070.46C450.574,-999.696 404.362,-842.498 346,-718 321.926,-666.647 288.842,-612.123 261.693,-570.325"/>
<polygon fill="#9a32cd" stroke="#9a32cd" points="472.692,-1080.26 465.719,-1071.8 471.376,-1075.44 470.06,-1070.61 470.06,-1070.61 470.06,-1070.61 471.376,-1075.44 474.402,-1069.43 472.692,-1080.26 472.692,-1080.26"/>
<text text-anchor="middle" x="489.5" y="-887.5" font-family="Helvetica,sans-Serif" font-size="10.00">collection</text>
</g>
<!-- Node5 -->
<g id="node8" class="node"><title>Node5</title>
<a xlink:title="STL class.">
<polygon fill="white" stroke="#bfbfbf" points="169.5,-1472.5 169.5,-1529.5 258.5,-1529.5 258.5,-1472.5 169.5,-1472.5"/>
<text text-anchor="middle" x="214" y="-1517.5" font-family="Helvetica,sans-Serif" font-size="10.00">std::vector&lt; T &gt;</text>
<polyline fill="none" stroke="#bfbfbf" points="169.5,-1510.5 258.5,-1510.5 "/>
<text text-anchor="start" x="177.5" y="-1498.5" font-family="Helvetica,sans-Serif" font-size="10.00">&#45; elements</text>
<polyline fill="none" stroke="#bfbfbf" points="169.5,-1491.5 258.5,-1491.5 "/>
<text text-anchor="middle" x="214" y="-1479.5" font-family="Helvetica,sans-Serif" font-size="10.00"> </text>
</a>
</g>
<!-- Node5&#45;&gt;Node4 -->
<g id="edge8" class="edge"><title>Node5&#45;&gt;Node4</title>
<path fill="none" stroke="orange" stroke-dasharray="5,2" d="M267.612,-1476.01C325.902,-1446.81 416.537,-1391.6 460,-1314 491.476,-1257.8 488.441,-1179.09 483.961,-1137.8"/>
<polygon fill="orange" stroke="orange" points="265.972,-1472.92 258.547,-1480.47 269.064,-1479.2 265.972,-1472.92"/>
<text text-anchor="middle" x="514" y="-1335.5" font-family="Helvetica,sans-Serif" font-size="10.00">&lt; boost::shared_ptr&lt; Con &gt; &gt;</text>
</g>
<!-- Node7 -->
<g id="node12" class="node"><title>Node7</title>
<polygon fill="white" stroke="#bfbfbf" points="0,-1206.5 0,-1263.5 102,-1263.5 102,-1206.5 0,-1206.5"/>
<text text-anchor="middle" x="51" y="-1251.5" font-family="Helvetica,sans-Serif" font-size="10.00">std::vector&lt; Con &gt;</text>
<polyline fill="none" stroke="#bfbfbf" points="0,-1244.5 102,-1244.5 "/>
<text text-anchor="start" x="8" y="-1232.5" font-family="Helvetica,sans-Serif" font-size="10.00">&#45; elements</text>
<polyline fill="none" stroke="#bfbfbf" points="0,-1225.5 102,-1225.5 "/>
<text text-anchor="middle" x="51" y="-1213.5" font-family="Helvetica,sans-Serif" font-size="10.00"> </text>
</g>
<!-- Node5&#45;&gt;Node7 -->
<g id="edge16" class="edge"><title>Node5&#45;&gt;Node7</title>
<path fill="none" stroke="orange" stroke-dasharray="5,2" d="M191.427,-1463.44C158.434,-1410 97.7547,-1311.73 68.1508,-1263.78"/>
<polygon fill="orange" stroke="orange" points="188.633,-1465.58 196.864,-1472.25 194.589,-1461.9 188.633,-1465.58"/>
<text text-anchor="middle" x="132" y="-1335.5" font-family="Helvetica,sans-Serif" font-size="10.00">&lt; Con &gt;</text>
</g>
<!-- Node11 -->
<g id="node21" class="node"><title>Node11</title>
<polygon fill="white" stroke="#bfbfbf" points="120,-1206.5 120,-1263.5 308,-1263.5 308,-1206.5 120,-1206.5"/>
<text text-anchor="middle" x="214" y="-1251.5" font-family="Helvetica,sans-Serif" font-size="10.00">std::vector&lt; boost::shared_ptr&lt; T &gt; &gt;</text>
<polyline fill="none" stroke="#bfbfbf" points="120,-1244.5 308,-1244.5 "/>
<text text-anchor="start" x="128" y="-1232.5" font-family="Helvetica,sans-Serif" font-size="10.00">&#45; elements</text>
<polyline fill="none" stroke="#bfbfbf" points="120,-1225.5 308,-1225.5 "/>
<text text-anchor="middle" x="214" y="-1213.5" font-family="Helvetica,sans-Serif" font-size="10.00"> </text>
</g>
<!-- Node5&#45;&gt;Node11 -->
<g id="edge24" class="edge"><title>Node5&#45;&gt;Node11</title>
<path fill="none" stroke="orange" stroke-dasharray="5,2" d="M214,-1462.11C214,-1408.38 214,-1311.33 214,-1263.78"/>
<polygon fill="orange" stroke="orange" points="210.5,-1462.25 214,-1472.25 217.5,-1462.25 210.5,-1462.25"/>
<text text-anchor="middle" x="274.5" y="-1335.5" font-family="Helvetica,sans-Serif" font-size="10.00">&lt; boost::shared_ptr&lt; T &gt; &gt;</text>
</g>
<!-- Node6 -->
<g id="node10" class="node"><title>Node6</title>
<polygon fill="white" stroke="#bfbfbf" points="199.5,-1688.5 199.5,-1745.5 228.5,-1745.5 228.5,-1688.5 199.5,-1688.5"/>
<text text-anchor="middle" x="214" y="-1733.5" font-family="Helvetica,sans-Serif" font-size="10.00">T</text>
<polyline fill="none" stroke="#bfbfbf" points="199.5,-1726.5 228.5,-1726.5 "/>
<text text-anchor="middle" x="214" y="-1714.5" font-family="Helvetica,sans-Serif" font-size="10.00"> </text>
<polyline fill="none" stroke="#bfbfbf" points="199.5,-1707.5 228.5,-1707.5 "/>
<text text-anchor="middle" x="214" y="-1695.5" font-family="Helvetica,sans-Serif" font-size="10.00"> </text>
</g>
<!-- Node6&#45;&gt;Node5 -->
<g id="edge10" class="edge"><title>Node6&#45;&gt;Node5</title>
<path fill="none" stroke="#9a32cd" stroke-dasharray="5,2" d="M214,-1678.24C214,-1635.73 214,-1567.67 214,-1529.77"/>
<polygon fill="#9a32cd" stroke="#9a32cd" points="214,-1688.46 209.5,-1678.46 214,-1683.46 214,-1678.46 214,-1678.46 214,-1678.46 214,-1683.46 218.5,-1678.46 214,-1688.46 214,-1688.46"/>
<text text-anchor="middle" x="235.5" y="-1661.5" font-family="Helvetica,sans-Serif" font-size="10.00">elements</text>
</g>
<!-- Node7&#45;&gt;Node2 -->
<g id="edge12" class="edge"><title>Node7&#45;&gt;Node2</title>
<path fill="none" stroke="#9a32cd" stroke-dasharray="5,2" d="M77.3932,-1197.96C100.42,-1164.51 132.632,-1112.41 149,-1062 196.503,-915.7 169.488,-870.819 187,-718 188.798,-702.309 190.692,-685.989 192.603,-669.649"/>
<polygon fill="#9a32cd" stroke="#9a32cd" points="71.458,-1206.47 73.4889,-1195.69 74.3188,-1202.37 77.1796,-1198.27 77.1796,-1198.27 77.1796,-1198.27 74.3188,-1202.37 80.8702,-1200.84 71.458,-1206.47 71.458,-1206.47"/>
<text text-anchor="middle" x="209.5" y="-887.5" font-family="Helvetica,sans-Serif" font-size="10.00">collection</text>
</g>
<!-- Node8 -->
<g id="node14" class="node"><title>Node8</title>
<a xlink:href="class_con.html" target="_top" xlink:title="class Con &#45;">
<polygon fill="white" stroke="black" points="9.5,-1362.5 9.5,-1639.5 92.5,-1639.5 92.5,-1362.5 9.5,-1362.5"/>
<text text-anchor="middle" x="51" y="-1627.5" font-family="Helvetica,sans-Serif" font-size="10.00">Con</text>
<polyline fill="none" stroke="black" points="9.5,-1620.5 92.5,-1620.5 "/>
<text text-anchor="start" x="17.5" y="-1608.5" font-family="Helvetica,sans-Serif" font-size="10.00"># d_neuron</text>
<text text-anchor="start" x="17.5" y="-1597.5" font-family="Helvetica,sans-Serif" font-size="10.00"># d_weight</text>
<text text-anchor="start" x="17.5" y="-1586.5" font-family="Helvetica,sans-Serif" font-size="10.00">&#45; from</text>
<text text-anchor="start" x="17.5" y="-1575.5" font-family="Helvetica,sans-Serif" font-size="10.00">&#45; weight</text>
<polyline fill="none" stroke="black" points="9.5,-1568.5 92.5,-1568.5 "/>
<text text-anchor="start" x="17.5" y="-1556.5" font-family="Helvetica,sans-Serif" font-size="10.00">+ Con()</text>
<text text-anchor="start" x="17.5" y="-1545.5" font-family="Helvetica,sans-Serif" font-size="10.00">+ Con()</text>
<text text-anchor="start" x="17.5" y="-1534.5" font-family="Helvetica,sans-Serif" font-size="10.00">+ neuron()</text>
<text text-anchor="start" x="17.5" y="-1523.5" font-family="Helvetica,sans-Serif" font-size="10.00">+ Id()</text>
<text text-anchor="start" x="17.5" y="-1512.5" font-family="Helvetica,sans-Serif" font-size="10.00">+ weight()</text>
<text text-anchor="start" x="17.5" y="-1501.5" font-family="Helvetica,sans-Serif" font-size="10.00">+ show()</text>
<text text-anchor="start" x="17.5" y="-1490.5" font-family="Helvetica,sans-Serif" font-size="10.00">+ validate()</text>
<text text-anchor="start" x="17.5" y="-1479.5" font-family="Helvetica,sans-Serif" font-size="10.00">+ Con()</text>
<text text-anchor="start" x="17.5" y="-1468.5" font-family="Helvetica,sans-Serif" font-size="10.00">+ Con()</text>
<text text-anchor="start" x="17.5" y="-1457.5" font-family="Helvetica,sans-Serif" font-size="10.00">+ Con()</text>
<text text-anchor="start" x="17.5" y="-1446.5" font-family="Helvetica,sans-Serif" font-size="10.00">+ ~Con()</text>
<text text-anchor="start" x="17.5" y="-1435.5" font-family="Helvetica,sans-Serif" font-size="10.00">+ getFrom()</text>
<text text-anchor="start" x="17.5" y="-1424.5" font-family="Helvetica,sans-Serif" font-size="10.00">+ setFrom()</text>
<text text-anchor="start" x="17.5" y="-1413.5" font-family="Helvetica,sans-Serif" font-size="10.00">+ getId()</text>
<text text-anchor="start" x="17.5" y="-1402.5" font-family="Helvetica,sans-Serif" font-size="10.00">+ getWeight()</text>
<text text-anchor="start" x="17.5" y="-1391.5" font-family="Helvetica,sans-Serif" font-size="10.00">+ setWeight()</text>
<text text-anchor="start" x="17.5" y="-1380.5" font-family="Helvetica,sans-Serif" font-size="10.00">+ show()</text>
<text text-anchor="start" x="17.5" y="-1369.5" font-family="Helvetica,sans-Serif" font-size="10.00">+ validate()</text>
</a>
</g>
<!-- Node8&#45;&gt;Node7 -->
<g id="edge14" class="edge"><title>Node8&#45;&gt;Node7</title>
<path fill="none" stroke="#9a32cd" stroke-dasharray="5,2" d="M51,-1352.12C51,-1318.17 51,-1285.65 51,-1263.7"/>
<polygon fill="#9a32cd" stroke="#9a32cd" points="51,-1362.2 46.5001,-1352.2 51,-1357.2 51.0001,-1352.2 51.0001,-1352.2 51.0001,-1352.2 51,-1357.2 55.5001,-1352.2 51,-1362.2 51,-1362.2"/>
<text text-anchor="middle" x="72.5" y="-1335.5" font-family="Helvetica,sans-Serif" font-size="10.00">elements</text>
</g>
<!-- Node9 -->
<g id="node17" class="node"><title>Node9</title>
<a xlink:href="class_container.html" target="_top" xlink:title="class Container &#45;">
<polygon fill="white" stroke="black" points="240.5,-718.5 240.5,-1061.5 337.5,-1061.5 337.5,-718.5 240.5,-718.5"/>
<text text-anchor="middle" x="289" y="-1049.5" font-family="Helvetica,sans-Serif" font-size="10.00">Container&lt; T &gt;</text>
<polyline fill="none" stroke="black" points="240.5,-1042.5 337.5,-1042.5 "/>
<text text-anchor="start" x="248.5" y="-1030.5" font-family="Helvetica,sans-Serif" font-size="10.00"># collection</text>
<text text-anchor="start" x="248.5" y="-1019.5" font-family="Helvetica,sans-Serif" font-size="10.00"># collection</text>
<polyline fill="none" stroke="black" points="240.5,-1012.5 337.5,-1012.5 "/>
<text text-anchor="start" x="248.5" y="-1000.5" font-family="Helvetica,sans-Serif" font-size="10.00">+ Container()</text>
<text text-anchor="start" x="248.5" y="-989.5" font-family="Helvetica,sans-Serif" font-size="10.00">+ ~Container()</text>
<text text-anchor="start" x="248.5" y="-978.5" font-family="Helvetica,sans-Serif" font-size="10.00">+ createIterator()</text>
<text text-anchor="start" x="248.5" y="-967.5" font-family="Helvetica,sans-Serif" font-size="10.00">+ push_back()</text>
<text text-anchor="start" x="248.5" y="-956.5" font-family="Helvetica,sans-Serif" font-size="10.00">+ reserve()</text>
<text text-anchor="start" x="248.5" y="-945.5" font-family="Helvetica,sans-Serif" font-size="10.00">+ empty()</text>
<text text-anchor="start" x="248.5" y="-934.5" font-family="Helvetica,sans-Serif" font-size="10.00">+ size()</text>
<text text-anchor="start" x="248.5" y="-923.5" font-family="Helvetica,sans-Serif" font-size="10.00">+ clear()</text>
<text text-anchor="start" x="248.5" y="-912.5" font-family="Helvetica,sans-Serif" font-size="10.00">+ show()</text>
<text text-anchor="start" x="248.5" y="-901.5" font-family="Helvetica,sans-Serif" font-size="10.00">+ validate()</text>
<text text-anchor="start" x="248.5" y="-890.5" font-family="Helvetica,sans-Serif" font-size="10.00">+ Container()</text>
<text text-anchor="start" x="248.5" y="-879.5" font-family="Helvetica,sans-Serif" font-size="10.00">+ Container()</text>
<text text-anchor="start" x="248.5" y="-868.5" font-family="Helvetica,sans-Serif" font-size="10.00">+ begin()</text>
<text text-anchor="start" x="248.5" y="-857.5" font-family="Helvetica,sans-Serif" font-size="10.00">+ end()</text>
<text text-anchor="start" x="248.5" y="-846.5" font-family="Helvetica,sans-Serif" font-size="10.00">+ load()</text>
<text text-anchor="start" x="248.5" y="-835.5" font-family="Helvetica,sans-Serif" font-size="10.00">+ store()</text>
<text text-anchor="start" x="248.5" y="-824.5" font-family="Helvetica,sans-Serif" font-size="10.00">+ size()</text>
<text text-anchor="start" x="248.5" y="-813.5" font-family="Helvetica,sans-Serif" font-size="10.00">+ push_back()</text>
<text text-anchor="start" x="248.5" y="-802.5" font-family="Helvetica,sans-Serif" font-size="10.00">+ append()</text>
<text text-anchor="start" x="248.5" y="-791.5" font-family="Helvetica,sans-Serif" font-size="10.00">+ show()</text>
<text text-anchor="start" x="248.5" y="-780.5" font-family="Helvetica,sans-Serif" font-size="10.00">+ validate()</text>
<text text-anchor="start" x="248.5" y="-769.5" font-family="Helvetica,sans-Serif" font-size="10.00">+ reserve()</text>
<text text-anchor="start" x="248.5" y="-758.5" font-family="Helvetica,sans-Serif" font-size="10.00">+ resize()</text>
<text text-anchor="start" x="248.5" y="-747.5" font-family="Helvetica,sans-Serif" font-size="10.00">+ empty()</text>
<text text-anchor="start" x="248.5" y="-736.5" font-family="Helvetica,sans-Serif" font-size="10.00">+ clear()</text>
<text text-anchor="start" x="248.5" y="-725.5" font-family="Helvetica,sans-Serif" font-size="10.00">+ operator[]()</text>
</a>
</g>
<!-- Node9&#45;&gt;Node2 -->
<g id="edge18" class="edge"><title>Node9&#45;&gt;Node2</title>
<path fill="none" stroke="orange" stroke-dasharray="5,2" d="M253.807,-708.403C251.299,-695.533 248.774,-682.579 246.278,-669.767"/>
<polygon fill="orange" stroke="orange" points="250.372,-709.078 255.721,-718.224 257.243,-707.739 250.372,-709.078"/>
<text text-anchor="middle" x="269" y="-691.5" font-family="Helvetica,sans-Serif" font-size="10.00">&lt; Con &gt;</text>
</g>
<!-- Node10 -->
<g id="node19" class="node"><title>Node10</title>
<a xlink:href="class_container_interface.html" target="_top" xlink:title="class ContainerInterface &#45;">
<polygon fill="white" stroke="black" points="326.5,-1157 326.5,-1313 451.5,-1313 451.5,-1157 326.5,-1157"/>
<text text-anchor="middle" x="389" y="-1301" font-family="Helvetica,sans-Serif" font-size="10.00">ContainerInterface&lt; T &gt;</text>
<polyline fill="none" stroke="black" points="326.5,-1294 451.5,-1294 "/>
<text text-anchor="middle" x="389" y="-1282" font-family="Helvetica,sans-Serif" font-size="10.00"> </text>
<polyline fill="none" stroke="black" points="326.5,-1275 451.5,-1275 "/>
<text text-anchor="start" x="334.5" y="-1263" font-family="Helvetica,sans-Serif" font-size="10.00">+ ~ContainerInterface()</text>
<text text-anchor="start" x="334.5" y="-1252" font-family="Helvetica,sans-Serif" font-size="10.00">+ createIterator()</text>
<text text-anchor="start" x="334.5" y="-1241" font-family="Helvetica,sans-Serif" font-size="10.00">+ push_back()</text>
<text text-anchor="start" x="334.5" y="-1230" font-family="Helvetica,sans-Serif" font-size="10.00">+ reserve()</text>
<text text-anchor="start" x="334.5" y="-1219" font-family="Helvetica,sans-Serif" font-size="10.00">+ empty()</text>
<text text-anchor="start" x="334.5" y="-1208" font-family="Helvetica,sans-Serif" font-size="10.00">+ size()</text>
<text text-anchor="start" x="334.5" y="-1197" font-family="Helvetica,sans-Serif" font-size="10.00">+ clear()</text>
<text text-anchor="start" x="334.5" y="-1186" font-family="Helvetica,sans-Serif" font-size="10.00">+ show()</text>
<text text-anchor="start" x="334.5" y="-1175" font-family="Helvetica,sans-Serif" font-size="10.00">+ validate()</text>
<text text-anchor="start" x="334.5" y="-1164" font-family="Helvetica,sans-Serif" font-size="10.00"># ContainerInterface()</text>
</a>
</g>
<!-- Node10&#45;&gt;Node9 -->
<g id="edge20" class="edge"><title>Node10&#45;&gt;Node9</title>
<path fill="none" stroke="midnightblue" d="M363.553,-1146.72C355.594,-1119.42 346.532,-1088.33 337.532,-1057.46"/>
<polygon fill="none" stroke="midnightblue" points="360.274,-1147.98 366.433,-1156.6 366.994,-1146.02 360.274,-1147.98"/>
</g>
<!-- Node11&#45;&gt;Node9 -->
<g id="edge22" class="edge"><title>Node11&#45;&gt;Node9</title>
<path fill="none" stroke="#9a32cd" stroke-dasharray="5,2" d="M222.287,-1196.1C229.53,-1162.98 240.589,-1112.4 251.632,-1061.9"/>
<polygon fill="#9a32cd" stroke="#9a32cd" points="220.074,-1206.22 217.814,-1195.49 221.142,-1201.34 222.21,-1196.45 222.21,-1196.45 222.21,-1196.45 221.142,-1201.34 226.606,-1197.41 220.074,-1206.22 220.074,-1206.22"/>
<text text-anchor="middle" x="269.5" y="-1106.5" font-family="Helvetica,sans-Serif" font-size="10.00">collection</text>
</g>
</g>
</svg>
