<?xml version="1.0" encoding="UTF-8" standalone="no"?>
<!DOCTYPE svg PUBLIC "-//W3C//DTD SVG 1.1//EN"
 "http://www.w3.org/Graphics/SVG/1.1/DTD/svg11.dtd">
<!-- Generated by graphviz version 2.25.20091207.0545 (20091207.0545)
 -->
<!-- Title: G Pages: 1 -->
<svg width="406pt" height="104pt"
 viewBox="0.00 0.00 406.00 104.00" xmlns="http://www.w3.org/2000/svg" xmlns:xlink="http://www.w3.org/1999/xlink">
<g id="graph1" class="graph" transform="scale(1 1) rotate(0) translate(4 100)">
<title>G</title>
<polygon fill="white" stroke="white" points="-4,5 -4,-100 403,-100 403,5 -4,5"/>
<!-- Node1 -->
<g id="node1" class="node"><title>Node1</title>
<polygon fill="#bfbfbf" stroke="black" points="0,-38.5 0,-57.5 82,-57.5 82,-38.5 0,-38.5"/>
<text text-anchor="middle" x="41" y="-44.5" font-family="Helvetica,sans-Serif" font-size="10.00">Container::size</text>
</g>
<!-- Node2 -->
<g id="node3" class="node"><title>Node2</title>
<a xlink:href="class_container.html#a86d42cf807e073724bd2f8e08dcdfefa" target="_top" xlink:title="Appends a Container&lt;T&gt; object.">
<polygon fill="white" stroke="black" points="147,-76.5 147,-95.5 243,-95.5 243,-76.5 147,-76.5"/>
<text text-anchor="middle" x="195" y="-82.5" font-family="Helvetica,sans-Serif" font-size="10.00">Container::append</text>
</a>
</g>
<!-- Node1&#45;&gt;Node2 -->
<g id="edge2" class="edge"><title>Node1&#45;&gt;Node2</title>
<path fill="none" stroke="midnightblue" d="M89.7937,-60.04C111.308,-65.3488 136.232,-71.4988 156.419,-76.4799"/>
<polygon fill="midnightblue" stroke="midnightblue" points="90.408,-56.5867 79.8607,-57.589 88.731,-63.3828 90.408,-56.5867"/>
</g>
<!-- Node3 -->
<g id="node5" class="node"><title>Node3</title>
<a xlink:href="class_con_container.html#a7a4303c5597439ae3be57fa9707a6fd4" target="_top" xlink:title="Builds Con objects and appends them to collection.">
<polygon fill="white" stroke="black" points="118.5,-38.5 118.5,-57.5 271.5,-57.5 271.5,-38.5 118.5,-38.5"/>
<text text-anchor="middle" x="195" y="-44.5" font-family="Helvetica,sans-Serif" font-size="10.00">ConContainer::buildAndAppend</text>
</a>
</g>
<!-- Node1&#45;&gt;Node3 -->
<g id="edge4" class="edge"><title>Node1&#45;&gt;Node3</title>
<path fill="none" stroke="midnightblue" d="M92.493,-48C100.779,-48 109.509,-48 118.234,-48"/>
<polygon fill="midnightblue" stroke="midnightblue" points="92.2692,-44.5001 82.2692,-48 92.2691,-51.5001 92.2692,-44.5001"/>
</g>
<!-- Node4 -->
<g id="node7" class="node"><title>Node4</title>
<a xlink:href="class_con_container.html#aa7f1bbd910afe9c4241e8bd4d5fbc497" target="_top" xlink:title="Setter of the from fields of the Con objects related to ConContainer.">
<polygon fill="white" stroke="black" points="136,-0.5 136,-19.5 254,-19.5 254,-0.5 136,-0.5"/>
<text text-anchor="middle" x="195" y="-6.5" font-family="Helvetica,sans-Serif" font-size="10.00">ConContainer::setFrom</text>
</a>
</g>
<!-- Node1&#45;&gt;Node4 -->
<g id="edge6" class="edge"><title>Node1&#45;&gt;Node4</title>
<path fill="none" stroke="midnightblue" d="M89.7937,-35.96C111.308,-30.6512 136.232,-24.5012 156.419,-19.5201"/>
<polygon fill="midnightblue" stroke="midnightblue" points="88.731,-32.6172 79.8607,-38.411 90.408,-39.4133 88.731,-32.6172"/>
</g>
<!-- Node5 -->
<g id="node9" class="node"><title>Node5</title>
<a xlink:href="class_neuron.html#ac8129f5de3ec1c143f40d507b6843649" target="_top" xlink:title="Neuron::setFrom">
<polygon fill="white" stroke="black" points="308,-0.5 308,-19.5 398,-19.5 398,-0.5 308,-0.5"/>
<text text-anchor="middle" x="353" y="-6.5" font-family="Helvetica,sans-Serif" font-size="10.00">Neuron::setFrom</text>
</a>
</g>
<!-- Node4&#45;&gt;Node5 -->
<g id="edge8" class="edge"><title>Node4&#45;&gt;Node5</title>
<path fill="none" stroke="midnightblue" d="M264.356,-10C279.046,-10 294.188,-10 307.709,-10"/>
<polygon fill="midnightblue" stroke="midnightblue" points="264.283,-6.5001 254.283,-10 264.283,-13.5001 264.283,-6.5001"/>
</g>
</g>
</svg>
