<?xml version="1.0" encoding="UTF-8" standalone="no"?>
<!DOCTYPE svg PUBLIC "-//W3C//DTD SVG 1.1//EN"
 "http://www.w3.org/Graphics/SVG/1.1/DTD/svg11.dtd">
<!-- Generated by graphviz version 2.28.0 (20110610.2051)
 -->
<!-- Title: G Pages: 1 -->
<svg width="112pt" height="338pt"
 viewBox="0.00 0.00 112.00 338.00" xmlns="http://www.w3.org/2000/svg" xmlns:xlink="http://www.w3.org/1999/xlink">
<g id="graph1" class="graph" transform="scale(1 1) rotate(0) translate(4 334)">
<title>G</title>
<polygon fill="white" stroke="white" points="-4,5 -4,-334 109,-334 109,5 -4,5"/>
<!-- Node1 -->
<g id="node1" class="node"><title>Node1</title>
<polygon fill="#bfbfbf" stroke="black" points="1.5,-173 1.5,-329 102.5,-329 102.5,-173 1.5,-173"/>
<text text-anchor="middle" x="52" y="-317" font-family="Helvetica,sans-Serif" font-size="10.00">NeuralNetwork</text>
<polyline fill="none" stroke="black" points="1.5,-310 102.5,-310 "/>
<text text-anchor="start" x="9.5" y="-298" font-family="Helvetica,sans-Serif" font-size="10.00"># d_inputLayer</text>
<text text-anchor="start" x="9.5" y="-287" font-family="Helvetica,sans-Serif" font-size="10.00"># d_hiddenLayers</text>
<text text-anchor="start" x="9.5" y="-276" font-family="Helvetica,sans-Serif" font-size="10.00"># d_outputLayer</text>
<polyline fill="none" stroke="black" points="1.5,-269 102.5,-269 "/>
<text text-anchor="start" x="9.5" y="-257" font-family="Helvetica,sans-Serif" font-size="10.00">+ writeInput()</text>
<text text-anchor="start" x="9.5" y="-246" font-family="Helvetica,sans-Serif" font-size="10.00">+ predict()</text>
<text text-anchor="start" x="9.5" y="-235" font-family="Helvetica,sans-Serif" font-size="10.00">+ readOutput()</text>
<text text-anchor="start" x="9.5" y="-224" font-family="Helvetica,sans-Serif" font-size="10.00">+ inputSize()</text>
<text text-anchor="start" x="9.5" y="-213" font-family="Helvetica,sans-Serif" font-size="10.00">+ outputSize()</text>
<text text-anchor="start" x="9.5" y="-202" font-family="Helvetica,sans-Serif" font-size="10.00">+ show()</text>
<text text-anchor="start" x="9.5" y="-191" font-family="Helvetica,sans-Serif" font-size="10.00">+ validate()</text>
<text text-anchor="start" x="9.5" y="-180" font-family="Helvetica,sans-Serif" font-size="10.00"># NeuralNetwork()</text>
</g>
<!-- Node2 -->
<g id="node3" class="node"><title>Node2</title>
<a xlink:href="class_simple_network.html" target="_top" xlink:title="class SimpleNetwork &#45;">
<polygon fill="white" stroke="black" points="-0.5,-1 -0.5,-135 104.5,-135 104.5,-1 -0.5,-1"/>
<text text-anchor="middle" x="52" y="-123" font-family="Helvetica,sans-Serif" font-size="10.00">SimpleNetwork</text>
<polyline fill="none" stroke="black" points="-0.5,-116 104.5,-116 "/>
<text text-anchor="middle" x="52" y="-104" font-family="Helvetica,sans-Serif" font-size="10.00"> </text>
<polyline fill="none" stroke="black" points="-0.5,-97 104.5,-97 "/>
<text text-anchor="start" x="7.5" y="-85" font-family="Helvetica,sans-Serif" font-size="10.00">+ SimpleNetwork()</text>
<text text-anchor="start" x="7.5" y="-74" font-family="Helvetica,sans-Serif" font-size="10.00">&#45; writeInput()</text>
<text text-anchor="start" x="7.5" y="-63" font-family="Helvetica,sans-Serif" font-size="10.00">&#45; predict()</text>
<text text-anchor="start" x="7.5" y="-52" font-family="Helvetica,sans-Serif" font-size="10.00">&#45; readOutput()</text>
<text text-anchor="start" x="7.5" y="-41" font-family="Helvetica,sans-Serif" font-size="10.00">&#45; inputSize()</text>
<text text-anchor="start" x="7.5" y="-30" font-family="Helvetica,sans-Serif" font-size="10.00">&#45; outputSize()</text>
<text text-anchor="start" x="7.5" y="-19" font-family="Helvetica,sans-Serif" font-size="10.00">&#45; show()</text>
<text text-anchor="start" x="7.5" y="-8" font-family="Helvetica,sans-Serif" font-size="10.00">&#45; validate()</text>
</a>
</g>
<!-- Node1&#45;&gt;Node2 -->
<g id="edge2" class="edge"><title>Node1&#45;&gt;Node2</title>
<path fill="none" stroke="midnightblue" d="M52,-162.876C52,-153.533 52,-144.141 52,-135.101"/>
<polygon fill="none" stroke="midnightblue" points="48.5001,-162.977 52,-172.977 55.5001,-162.977 48.5001,-162.977"/>
</g>
</g>
</svg>
