<?xml version="1.0" encoding="UTF-8" standalone="no"?>
<!DOCTYPE svg PUBLIC "-//W3C//DTD SVG 1.1//EN"
 "http://www.w3.org/Graphics/SVG/1.1/DTD/svg11.dtd">
<!-- Generated by graphviz version 2.25.20091207.0545 (20091207.0545)
 -->
<!-- Title: G Pages: 1 -->
<svg width="351pt" height="910pt"
 viewBox="0.00 0.00 351.00 910.00" xmlns="http://www.w3.org/2000/svg" xmlns:xlink="http://www.w3.org/1999/xlink">
<g id="graph1" class="graph" transform="scale(1 1) rotate(0) translate(4 906)">
<title>G</title>
<polygon fill="white" stroke="white" points="-4,5 -4,-906 348,-906 348,5 -4,5"/>
<!-- Node1 -->
<g id="node1" class="node"><title>Node1</title>
<polygon fill="#bfbfbf" stroke="black" points="95,-1 95,-179 197,-179 197,-1 95,-1"/>
<text text-anchor="middle" x="146" y="-166" font-family="Helvetica,sans-Serif" font-size="10.00">VecCon</text>
<polyline fill="none" stroke="black" points="95,-160 197,-160 "/>
<text text-anchor="middle" x="146" y="-147" font-family="Helvetica,sans-Serif" font-size="10.00"> </text>
<polyline fill="none" stroke="black" points="95,-141 197,-141 "/>
<text text-anchor="start" x="103" y="-128" font-family="Helvetica,sans-Serif" font-size="10.00">+ numOfCons()</text>
<text text-anchor="start" x="103" y="-117" font-family="Helvetica,sans-Serif" font-size="10.00">+ getId()</text>
<text text-anchor="start" x="103" y="-106" font-family="Helvetica,sans-Serif" font-size="10.00">+ buildAndAppend()</text>
<text text-anchor="start" x="103" y="-95" font-family="Helvetica,sans-Serif" font-size="10.00">+ getWeight()</text>
<text text-anchor="start" x="103" y="-84" font-family="Helvetica,sans-Serif" font-size="10.00">+ getWeight()</text>
<text text-anchor="start" x="103" y="-73" font-family="Helvetica,sans-Serif" font-size="10.00">+ getFrom()</text>
<text text-anchor="start" x="103" y="-62" font-family="Helvetica,sans-Serif" font-size="10.00">+ setWeight()</text>
<text text-anchor="start" x="103" y="-51" font-family="Helvetica,sans-Serif" font-size="10.00">+ setWeight()</text>
<text text-anchor="start" x="103" y="-40" font-family="Helvetica,sans-Serif" font-size="10.00">+ setFrom()</text>
<text text-anchor="start" x="103" y="-29" font-family="Helvetica,sans-Serif" font-size="10.00">+ erase()</text>
<text text-anchor="start" x="103" y="-18" font-family="Helvetica,sans-Serif" font-size="10.00">+ select()</text>
<text text-anchor="start" x="103" y="-7" font-family="Helvetica,sans-Serif" font-size="10.00">+ validate()</text>
</g>
<!-- Node2 -->
<g id="node2" class="node"><title>Node2</title>
<a xlink:href="classvec_a_m_o_r_e.html" target="_top" xlink:title="{Container\&lt; Con \&gt;\n|# ldata\l|+ load()\l+ store()\l+ size()\l+ push_back()\l+ append()\l+ show()\l+ validate()\l+ reserve()\l}">
<polygon fill="white" stroke="black" points="93.5,-219 93.5,-353 198.5,-353 198.5,-219 93.5,-219"/>
<text text-anchor="middle" x="146" y="-340" font-family="Helvetica,sans-Serif" font-size="10.00">Container&lt; Con &gt;</text>
<polyline fill="none" stroke="black" points="93.5,-334 198.5,-334 "/>
<text text-anchor="start" x="101.5" y="-321" font-family="Helvetica,sans-Serif" font-size="10.00"># ldata</text>
<polyline fill="none" stroke="black" points="93.5,-315 198.5,-315 "/>
<text text-anchor="start" x="101.5" y="-302" font-family="Helvetica,sans-Serif" font-size="10.00">+ load()</text>
<text text-anchor="start" x="101.5" y="-291" font-family="Helvetica,sans-Serif" font-size="10.00">+ store()</text>
<text text-anchor="start" x="101.5" y="-280" font-family="Helvetica,sans-Serif" font-size="10.00">+ size()</text>
<text text-anchor="start" x="101.5" y="-269" font-family="Helvetica,sans-Serif" font-size="10.00">+ push_back()</text>
<text text-anchor="start" x="101.5" y="-258" font-family="Helvetica,sans-Serif" font-size="10.00">+ append()</text>
<text text-anchor="start" x="101.5" y="-247" font-family="Helvetica,sans-Serif" font-size="10.00">+ show()</text>
<text text-anchor="start" x="101.5" y="-236" font-family="Helvetica,sans-Serif" font-size="10.00">+ validate()</text>
<text text-anchor="start" x="101.5" y="-225" font-family="Helvetica,sans-Serif" font-size="10.00">+ reserve()</text>
</a>
</g>
<!-- Node2&#45;&gt;Node1 -->
<g id="edge2" class="edge"><title>Node2&#45;&gt;Node1</title>
<path fill="none" stroke="midnightblue" d="M146,-208.522C146,-198.912 146,-189.027 146,-179.259"/>
<polygon fill="none" stroke="midnightblue" points="142.5,-208.822 146,-218.822 149.5,-208.822 142.5,-208.822"/>
</g>
<!-- Node3 -->
<g id="node4" class="node"><title>Node3</title>
<polygon fill="white" stroke="#bfbfbf" points="0,-556.5 0,-613.5 192,-613.5 192,-556.5 0,-556.5"/>
<text text-anchor="middle" x="96" y="-600.5" font-family="Helvetica,sans-Serif" font-size="10.00">std::vector&lt; boost::shared_ptr&lt; Con &gt; &gt;</text>
<polyline fill="none" stroke="#bfbfbf" points="0,-594.5 192,-594.5 "/>
<text text-anchor="start" x="8" y="-581.5" font-family="Helvetica,sans-Serif" font-size="10.00">&#45; elements</text>
<polyline fill="none" stroke="#bfbfbf" points="0,-575.5 192,-575.5 "/>
<text text-anchor="middle" x="96" y="-562.5" font-family="Helvetica,sans-Serif" font-size="10.00"> </text>
</g>
<!-- Node3&#45;&gt;Node2 -->
<g id="edge4" class="edge"><title>Node3&#45;&gt;Node2</title>
<path fill="none" stroke="#9a32cd" stroke-dasharray="5,2" d="M102.493,-546.17C110.671,-497.268 124.853,-412.462 134.796,-353.003"/>
<polygon fill="#9a32cd" stroke="#9a32cd" points="100.794,-556.331 98.0053,-545.725 101.619,-551.399 102.444,-546.468 102.444,-546.468 102.444,-546.468 101.619,-551.399 106.882,-547.21 100.794,-556.331 100.794,-556.331"/>
<text text-anchor="middle" x="137.5" y="-466.5" font-family="Helvetica,sans-Serif" font-size="10.00">ldata</text>
</g>
<!-- Node4 -->
<g id="node6" class="node"><title>Node4</title>
<a xlink:title="STL class.">
<polygon fill="white" stroke="#bfbfbf" points="120.5,-738.5 120.5,-795.5 207.5,-795.5 207.5,-738.5 120.5,-738.5"/>
<text text-anchor="middle" x="164" y="-782.5" font-family="Helvetica,sans-Serif" font-size="10.00">std::vector&lt; T &gt;</text>
<polyline fill="none" stroke="#bfbfbf" points="120.5,-776.5 207.5,-776.5 "/>
<text text-anchor="start" x="128.5" y="-763.5" font-family="Helvetica,sans-Serif" font-size="10.00">&#45; elements</text>
<polyline fill="none" stroke="#bfbfbf" points="120.5,-757.5 207.5,-757.5 "/>
<text text-anchor="middle" x="164" y="-744.5" font-family="Helvetica,sans-Serif" font-size="10.00"> </text>
</a>
</g>
<!-- Node4&#45;&gt;Node3 -->
<g id="edge6" class="edge"><title>Node4&#45;&gt;Node3</title>
<path fill="none" stroke="orange" stroke-dasharray="5,2" d="M111.191,-745.955C100.727,-739.266 91.1016,-730.73 85,-720 66.3434,-687.192 75.4042,-642.458 84.7607,-613.647"/>
<polygon fill="orange" stroke="orange" points="109.714,-749.145 120.118,-751.147 113.233,-743.094 109.714,-749.145"/>
<text text-anchor="middle" x="150" y="-710.5" font-family="Helvetica,sans-Serif" font-size="10.00">&lt; boost::shared_ptr&lt; Con &gt; &gt;</text>
</g>
<!-- Node7 -->
<g id="node12" class="node"><title>Node7</title>
<polygon fill="white" stroke="#bfbfbf" points="146,-632.5 146,-689.5 326,-689.5 326,-632.5 146,-632.5"/>
<text text-anchor="middle" x="236" y="-676.5" font-family="Helvetica,sans-Serif" font-size="10.00">std::vector&lt; boost::shared_ptr&lt; T &gt; &gt;</text>
<polyline fill="none" stroke="#bfbfbf" points="146,-670.5 326,-670.5 "/>
<text text-anchor="start" x="154" y="-657.5" font-family="Helvetica,sans-Serif" font-size="10.00">&#45; elements</text>
<polyline fill="none" stroke="#bfbfbf" points="146,-651.5 326,-651.5 "/>
<text text-anchor="middle" x="236" y="-638.5" font-family="Helvetica,sans-Serif" font-size="10.00"> </text>
</g>
<!-- Node4&#45;&gt;Node7 -->
<g id="edge14" class="edge"><title>Node4&#45;&gt;Node7</title>
<path fill="none" stroke="orange" stroke-dasharray="5,2" d="M210.511,-731.072C213.638,-727.549 216.523,-723.846 219,-720 224.829,-710.948 228.705,-699.855 231.261,-689.74"/>
<polygon fill="orange" stroke="orange" points="207.779,-728.862 203.342,-738.482 212.81,-733.729 207.779,-728.862"/>
<text text-anchor="middle" x="284" y="-710.5" font-family="Helvetica,sans-Serif" font-size="10.00">&lt; boost::shared_ptr&lt; T &gt; &gt;</text>
</g>
<!-- Node5 -->
<g id="node8" class="node"><title>Node5</title>
<polygon fill="white" stroke="#bfbfbf" points="149.5,-844.5 149.5,-901.5 178.5,-901.5 178.5,-844.5 149.5,-844.5"/>
<text text-anchor="middle" x="164" y="-888.5" font-family="Helvetica,sans-Serif" font-size="10.00">T</text>
<polyline fill="none" stroke="#bfbfbf" points="149.5,-882.5 178.5,-882.5 "/>
<text text-anchor="middle" x="164" y="-869.5" font-family="Helvetica,sans-Serif" font-size="10.00"> </text>
<polyline fill="none" stroke="#bfbfbf" points="149.5,-863.5 178.5,-863.5 "/>
<text text-anchor="middle" x="164" y="-850.5" font-family="Helvetica,sans-Serif" font-size="10.00"> </text>
</g>
<!-- Node5&#45;&gt;Node4 -->
<g id="edge8" class="edge"><title>Node5&#45;&gt;Node4</title>
<path fill="none" stroke="#9a32cd" stroke-dasharray="5,2" d="M164,-834.005C164,-821.326 164,-807.494 164,-795.708"/>
<polygon fill="#9a32cd" stroke="#9a32cd" points="164,-844.315 159.5,-834.315 164,-839.315 164,-834.315 164,-834.315 164,-834.315 164,-839.315 168.5,-834.315 164,-844.315 164,-844.315"/>
<text text-anchor="middle" x="184" y="-816.5" font-family="Helvetica,sans-Serif" font-size="10.00">elements</text>
</g>
<!-- Node6 -->
<g id="node10" class="node"><title>Node6</title>
<a xlink:href="classvec_a_m_o_r_e.html" target="_top" xlink:title="{Container\&lt; T \&gt;\n|# ldata\l|+ load()\l+ store()\l+ size()\l+ push_back()\l+ append()\l+ show()\l+ validate()\l+ reserve()\l}">
<polygon fill="white" stroke="black" points="162.5,-403 162.5,-537 255.5,-537 255.5,-403 162.5,-403"/>
<text text-anchor="middle" x="209" y="-524" font-family="Helvetica,sans-Serif" font-size="10.00">Container&lt; T &gt;</text>
<polyline fill="none" stroke="black" points="162.5,-518 255.5,-518 "/>
<text text-anchor="start" x="170.5" y="-505" font-family="Helvetica,sans-Serif" font-size="10.00"># ldata</text>
<polyline fill="none" stroke="black" points="162.5,-499 255.5,-499 "/>
<text text-anchor="start" x="170.5" y="-486" font-family="Helvetica,sans-Serif" font-size="10.00">+ load()</text>
<text text-anchor="start" x="170.5" y="-475" font-family="Helvetica,sans-Serif" font-size="10.00">+ store()</text>
<text text-anchor="start" x="170.5" y="-464" font-family="Helvetica,sans-Serif" font-size="10.00">+ size()</text>
<text text-anchor="start" x="170.5" y="-453" font-family="Helvetica,sans-Serif" font-size="10.00">+ push_back()</text>
<text text-anchor="start" x="170.5" y="-442" font-family="Helvetica,sans-Serif" font-size="10.00">+ append()</text>
<text text-anchor="start" x="170.5" y="-431" font-family="Helvetica,sans-Serif" font-size="10.00">+ show()</text>
<text text-anchor="start" x="170.5" y="-420" font-family="Helvetica,sans-Serif" font-size="10.00">+ validate()</text>
<text text-anchor="start" x="170.5" y="-409" font-family="Helvetica,sans-Serif" font-size="10.00">+ reserve()</text>
</a>
</g>
<!-- Node6&#45;&gt;Node2 -->
<g id="edge10" class="edge"><title>Node6&#45;&gt;Node2</title>
<path fill="none" stroke="orange" stroke-dasharray="5,2" d="M182.696,-393.176C178.131,-379.843 173.416,-366.073 168.949,-353.027"/>
<polygon fill="orange" stroke="orange" points="179.437,-394.464 185.988,-402.791 186.06,-392.196 179.437,-394.464"/>
<text text-anchor="middle" x="197" y="-374.5" font-family="Helvetica,sans-Serif" font-size="10.00">&lt; Con &gt;</text>
</g>
<!-- Node7&#45;&gt;Node6 -->
<g id="edge12" class="edge"><title>Node7&#45;&gt;Node6</title>
<path fill="none" stroke="#9a32cd" stroke-dasharray="5,2" d="M230.551,-622.454C227.1,-598.038 222.542,-565.795 218.507,-537.252"/>
<polygon fill="#9a32cd" stroke="#9a32cd" points="231.958,-632.405 226.102,-623.134 231.258,-627.455 230.558,-622.504 230.558,-622.504 230.558,-622.504 231.258,-627.455 235.014,-621.874 231.958,-632.405 231.958,-632.405"/>
<text text-anchor="middle" x="238.5" y="-581.5" font-family="Helvetica,sans-Serif" font-size="10.00">ldata</text>
</g>
</g>
</svg>
