<?xml version="1.0" encoding="UTF-8" standalone="no"?>
<!DOCTYPE svg PUBLIC "-//W3C//DTD SVG 1.1//EN"
 "http://www.w3.org/Graphics/SVG/1.1/DTD/svg11.dtd">
<!-- Generated by graphviz version 2.25.20091207.0545 (20091207.0545)
 -->
<!-- Title: G Pages: 1 -->
<svg width="351pt" height="1270pt"
 viewBox="0.00 0.00 351.00 1270.00" xmlns="http://www.w3.org/2000/svg" xmlns:xlink="http://www.w3.org/1999/xlink">
<g id="graph1" class="graph" transform="scale(1 1) rotate(0) translate(4 1266)">
<title>G</title>
<polygon fill="white" stroke="white" points="-4,5 -4,-1266 348,-1266 348,5 -4,5"/>
<!-- Node1 -->
<g id="node1" class="node"><title>Node1</title>
<polygon fill="#bfbfbf" stroke="black" points="99,-1 99,-223 183,-223 183,-1 99,-1"/>
<text text-anchor="middle" x="141" y="-210" font-family="Helvetica,sans-Serif" font-size="10.00">Neuron</text>
<polyline fill="none" stroke="black" points="99,-204 183,-204 "/>
<text text-anchor="start" x="107" y="-191" font-family="Helvetica,sans-Serif" font-size="10.00">&#45; Id</text>
<text text-anchor="start" x="107" y="-180" font-family="Helvetica,sans-Serif" font-size="10.00">&#45; con</text>
<text text-anchor="start" x="107" y="-169" font-family="Helvetica,sans-Serif" font-size="10.00">&#45; outputValue</text>
<polyline fill="none" stroke="black" points="99,-163 183,-163 "/>
<text text-anchor="start" x="107" y="-150" font-family="Helvetica,sans-Serif" font-size="10.00">+ Neuron()</text>
<text text-anchor="start" x="107" y="-139" font-family="Helvetica,sans-Serif" font-size="10.00">+ Neuron()</text>
<text text-anchor="start" x="107" y="-128" font-family="Helvetica,sans-Serif" font-size="10.00">+ Neuron()</text>
<text text-anchor="start" x="107" y="-117" font-family="Helvetica,sans-Serif" font-size="10.00">+ ~Neuron()</text>
<text text-anchor="start" x="107" y="-106" font-family="Helvetica,sans-Serif" font-size="10.00">+ getId()</text>
<text text-anchor="start" x="107" y="-95" font-family="Helvetica,sans-Serif" font-size="10.00">+ setId()</text>
<text text-anchor="start" x="107" y="-84" font-family="Helvetica,sans-Serif" font-size="10.00">+ getFrom()</text>
<text text-anchor="start" x="107" y="-73" font-family="Helvetica,sans-Serif" font-size="10.00">+ getConId()</text>
<text text-anchor="start" x="107" y="-62" font-family="Helvetica,sans-Serif" font-size="10.00">+ getWeight()</text>
<text text-anchor="start" x="107" y="-51" font-family="Helvetica,sans-Serif" font-size="10.00">+ setFrom()</text>
<text text-anchor="start" x="107" y="-40" font-family="Helvetica,sans-Serif" font-size="10.00">+ setWeight()</text>
<text text-anchor="start" x="107" y="-29" font-family="Helvetica,sans-Serif" font-size="10.00">+ numOfCons()</text>
<text text-anchor="start" x="107" y="-18" font-family="Helvetica,sans-Serif" font-size="10.00">+ show()</text>
<text text-anchor="start" x="107" y="-7" font-family="Helvetica,sans-Serif" font-size="10.00">+ validate()</text>
</g>
<!-- Node2 -->
<g id="node2" class="node"><title>Node2</title>
<a xlink:href="class_vec_con.html" target="_top" xlink:title="A vector of connections.">
<polygon fill="white" stroke="black" points="90,-273 90,-451 192,-451 192,-273 90,-273"/>
<text text-anchor="middle" x="141" y="-438" font-family="Helvetica,sans-Serif" font-size="10.00">VecCon</text>
<polyline fill="none" stroke="black" points="90,-432 192,-432 "/>
<text text-anchor="middle" x="141" y="-419" font-family="Helvetica,sans-Serif" font-size="10.00"> </text>
<polyline fill="none" stroke="black" points="90,-413 192,-413 "/>
<text text-anchor="start" x="98" y="-400" font-family="Helvetica,sans-Serif" font-size="10.00">+ numOfCons()</text>
<text text-anchor="start" x="98" y="-389" font-family="Helvetica,sans-Serif" font-size="10.00">+ getId()</text>
<text text-anchor="start" x="98" y="-378" font-family="Helvetica,sans-Serif" font-size="10.00">+ buildAndAppend()</text>
<text text-anchor="start" x="98" y="-367" font-family="Helvetica,sans-Serif" font-size="10.00">+ getWeight()</text>
<text text-anchor="start" x="98" y="-356" font-family="Helvetica,sans-Serif" font-size="10.00">+ getWeight()</text>
<text text-anchor="start" x="98" y="-345" font-family="Helvetica,sans-Serif" font-size="10.00">+ getFrom()</text>
<text text-anchor="start" x="98" y="-334" font-family="Helvetica,sans-Serif" font-size="10.00">+ setWeight()</text>
<text text-anchor="start" x="98" y="-323" font-family="Helvetica,sans-Serif" font-size="10.00">+ setWeight()</text>
<text text-anchor="start" x="98" y="-312" font-family="Helvetica,sans-Serif" font-size="10.00">+ setFrom()</text>
<text text-anchor="start" x="98" y="-301" font-family="Helvetica,sans-Serif" font-size="10.00">+ erase()</text>
<text text-anchor="start" x="98" y="-290" font-family="Helvetica,sans-Serif" font-size="10.00">+ select()</text>
<text text-anchor="start" x="98" y="-279" font-family="Helvetica,sans-Serif" font-size="10.00">+ validate()</text>
</a>
</g>
<!-- Node2&#45;&gt;Node1 -->
<g id="edge2" class="edge"><title>Node2&#45;&gt;Node1</title>
<path fill="none" stroke="#9a32cd" stroke-dasharray="5,2" d="M141,-262.494C141,-249.522 141,-236.169 141,-223.023"/>
<polygon fill="#9a32cd" stroke="#9a32cd" points="141,-272.803 136.5,-262.803 141,-267.803 141,-262.803 141,-262.803 141,-262.803 141,-267.803 145.5,-262.803 141,-272.803 141,-272.803"/>
<text text-anchor="middle" x="149" y="-244.5" font-family="Helvetica,sans-Serif" font-size="10.00">con</text>
</g>
<!-- Node3 -->
<g id="node4" class="node"><title>Node3</title>
<a xlink:href="class_container.html" target="_top" xlink:title="{Container\&lt; Con \&gt;\n|# collection\l|+ begin()\l+ end()\l+ load()\l+ store()\l+ size()\l+ push_back()\l+ append()\l+ show()\l+ validate()\l+ reserve()\l+ resize()\l+ operator[]()\l}">
<polygon fill="white" stroke="black" points="94,-491 94,-669 188,-669 188,-491 94,-491"/>
<text text-anchor="middle" x="141" y="-656" font-family="Helvetica,sans-Serif" font-size="10.00">Container&lt; Con &gt;</text>
<polyline fill="none" stroke="black" points="94,-650 188,-650 "/>
<text text-anchor="start" x="102" y="-637" font-family="Helvetica,sans-Serif" font-size="10.00"># collection</text>
<polyline fill="none" stroke="black" points="94,-631 188,-631 "/>
<text text-anchor="start" x="102" y="-618" font-family="Helvetica,sans-Serif" font-size="10.00">+ begin()</text>
<text text-anchor="start" x="102" y="-607" font-family="Helvetica,sans-Serif" font-size="10.00">+ end()</text>
<text text-anchor="start" x="102" y="-596" font-family="Helvetica,sans-Serif" font-size="10.00">+ load()</text>
<text text-anchor="start" x="102" y="-585" font-family="Helvetica,sans-Serif" font-size="10.00">+ store()</text>
<text text-anchor="start" x="102" y="-574" font-family="Helvetica,sans-Serif" font-size="10.00">+ size()</text>
<text text-anchor="start" x="102" y="-563" font-family="Helvetica,sans-Serif" font-size="10.00">+ push_back()</text>
<text text-anchor="start" x="102" y="-552" font-family="Helvetica,sans-Serif" font-size="10.00">+ append()</text>
<text text-anchor="start" x="102" y="-541" font-family="Helvetica,sans-Serif" font-size="10.00">+ show()</text>
<text text-anchor="start" x="102" y="-530" font-family="Helvetica,sans-Serif" font-size="10.00">+ validate()</text>
<text text-anchor="start" x="102" y="-519" font-family="Helvetica,sans-Serif" font-size="10.00">+ reserve()</text>
<text text-anchor="start" x="102" y="-508" font-family="Helvetica,sans-Serif" font-size="10.00">+ resize()</text>
<text text-anchor="start" x="102" y="-497" font-family="Helvetica,sans-Serif" font-size="10.00">+ operator[]()</text>
</a>
</g>
<!-- Node3&#45;&gt;Node2 -->
<g id="edge4" class="edge"><title>Node3&#45;&gt;Node2</title>
<path fill="none" stroke="midnightblue" d="M141,-480.543C141,-470.745 141,-460.844 141,-451.159"/>
<polygon fill="none" stroke="midnightblue" points="137.5,-480.702 141,-490.702 144.5,-480.702 137.5,-480.702"/>
</g>
<!-- Node4 -->
<g id="node6" class="node"><title>Node4</title>
<polygon fill="white" stroke="#bfbfbf" points="0,-916.5 0,-973.5 192,-973.5 192,-916.5 0,-916.5"/>
<text text-anchor="middle" x="96" y="-960.5" font-family="Helvetica,sans-Serif" font-size="10.00">std::vector&lt; boost::shared_ptr&lt; Con &gt; &gt;</text>
<polyline fill="none" stroke="#bfbfbf" points="0,-954.5 192,-954.5 "/>
<text text-anchor="start" x="8" y="-941.5" font-family="Helvetica,sans-Serif" font-size="10.00">&#45; elements</text>
<polyline fill="none" stroke="#bfbfbf" points="0,-935.5 192,-935.5 "/>
<text text-anchor="middle" x="96" y="-922.5" font-family="Helvetica,sans-Serif" font-size="10.00"> </text>
</g>
<!-- Node4&#45;&gt;Node3 -->
<g id="edge6" class="edge"><title>Node4&#45;&gt;Node3</title>
<path fill="none" stroke="#9a32cd" stroke-dasharray="5,2" d="M100.156,-906.345C105.079,-861.143 113.667,-784.086 122,-718 123.997,-702.164 126.227,-685.321 128.437,-669.042"/>
<polygon fill="#9a32cd" stroke="#9a32cd" points="99.0744,-916.308 95.6803,-905.88 99.6142,-911.337 100.154,-906.366 100.154,-906.366 100.154,-906.366 99.6142,-911.337 104.628,-906.852 99.0744,-916.308 99.0744,-916.308"/>
<text text-anchor="middle" x="142.5" y="-804.5" font-family="Helvetica,sans-Serif" font-size="10.00">collection</text>
</g>
<!-- Node5 -->
<g id="node8" class="node"><title>Node5</title>
<a xlink:title="STL class.">
<polygon fill="white" stroke="#bfbfbf" points="120.5,-1098.5 120.5,-1155.5 207.5,-1155.5 207.5,-1098.5 120.5,-1098.5"/>
<text text-anchor="middle" x="164" y="-1142.5" font-family="Helvetica,sans-Serif" font-size="10.00">std::vector&lt; T &gt;</text>
<polyline fill="none" stroke="#bfbfbf" points="120.5,-1136.5 207.5,-1136.5 "/>
<text text-anchor="start" x="128.5" y="-1123.5" font-family="Helvetica,sans-Serif" font-size="10.00">&#45; elements</text>
<polyline fill="none" stroke="#bfbfbf" points="120.5,-1117.5 207.5,-1117.5 "/>
<text text-anchor="middle" x="164" y="-1104.5" font-family="Helvetica,sans-Serif" font-size="10.00"> </text>
</a>
</g>
<!-- Node5&#45;&gt;Node4 -->
<g id="edge8" class="edge"><title>Node5&#45;&gt;Node4</title>
<path fill="none" stroke="orange" stroke-dasharray="5,2" d="M111.191,-1105.96C100.727,-1099.27 91.1016,-1090.73 85,-1080 66.3434,-1047.19 75.4042,-1002.46 84.7607,-973.647"/>
<polygon fill="orange" stroke="orange" points="109.714,-1109.15 120.118,-1111.15 113.233,-1103.09 109.714,-1109.15"/>
<text text-anchor="middle" x="150" y="-1070.5" font-family="Helvetica,sans-Serif" font-size="10.00">&lt; boost::shared_ptr&lt; Con &gt; &gt;</text>
</g>
<!-- Node8 -->
<g id="node14" class="node"><title>Node8</title>
<polygon fill="white" stroke="#bfbfbf" points="146,-992.5 146,-1049.5 326,-1049.5 326,-992.5 146,-992.5"/>
<text text-anchor="middle" x="236" y="-1036.5" font-family="Helvetica,sans-Serif" font-size="10.00">std::vector&lt; boost::shared_ptr&lt; T &gt; &gt;</text>
<polyline fill="none" stroke="#bfbfbf" points="146,-1030.5 326,-1030.5 "/>
<text text-anchor="start" x="154" y="-1017.5" font-family="Helvetica,sans-Serif" font-size="10.00">&#45; elements</text>
<polyline fill="none" stroke="#bfbfbf" points="146,-1011.5 326,-1011.5 "/>
<text text-anchor="middle" x="236" y="-998.5" font-family="Helvetica,sans-Serif" font-size="10.00"> </text>
</g>
<!-- Node5&#45;&gt;Node8 -->
<g id="edge16" class="edge"><title>Node5&#45;&gt;Node8</title>
<path fill="none" stroke="orange" stroke-dasharray="5,2" d="M210.511,-1091.07C213.638,-1087.55 216.523,-1083.85 219,-1080 224.829,-1070.95 228.705,-1059.85 231.261,-1049.74"/>
<polygon fill="orange" stroke="orange" points="207.779,-1088.86 203.342,-1098.48 212.81,-1093.73 207.779,-1088.86"/>
<text text-anchor="middle" x="284" y="-1070.5" font-family="Helvetica,sans-Serif" font-size="10.00">&lt; boost::shared_ptr&lt; T &gt; &gt;</text>
</g>
<!-- Node6 -->
<g id="node10" class="node"><title>Node6</title>
<polygon fill="white" stroke="#bfbfbf" points="149.5,-1204.5 149.5,-1261.5 178.5,-1261.5 178.5,-1204.5 149.5,-1204.5"/>
<text text-anchor="middle" x="164" y="-1248.5" font-family="Helvetica,sans-Serif" font-size="10.00">T</text>
<polyline fill="none" stroke="#bfbfbf" points="149.5,-1242.5 178.5,-1242.5 "/>
<text text-anchor="middle" x="164" y="-1229.5" font-family="Helvetica,sans-Serif" font-size="10.00"> </text>
<polyline fill="none" stroke="#bfbfbf" points="149.5,-1223.5 178.5,-1223.5 "/>
<text text-anchor="middle" x="164" y="-1210.5" font-family="Helvetica,sans-Serif" font-size="10.00"> </text>
</g>
<!-- Node6&#45;&gt;Node5 -->
<g id="edge10" class="edge"><title>Node6&#45;&gt;Node5</title>
<path fill="none" stroke="#9a32cd" stroke-dasharray="5,2" d="M164,-1194.01C164,-1181.33 164,-1167.49 164,-1155.71"/>
<polygon fill="#9a32cd" stroke="#9a32cd" points="164,-1204.31 159.5,-1194.31 164,-1199.31 164,-1194.31 164,-1194.31 164,-1194.31 164,-1199.31 168.5,-1194.31 164,-1204.31 164,-1204.31"/>
<text text-anchor="middle" x="184" y="-1176.5" font-family="Helvetica,sans-Serif" font-size="10.00">elements</text>
</g>
<!-- Node7 -->
<g id="node12" class="node"><title>Node7</title>
<a xlink:href="class_container.html" target="_top" xlink:title="{Container\&lt; T \&gt;\n|# collection\l|+ begin()\l+ end()\l+ load()\l+ store()\l+ size()\l+ push_back()\l+ append()\l+ show()\l+ validate()\l+ reserve()\l+ resize()\l+ operator[]()\l}">
<polygon fill="white" stroke="black" points="172,-719 172,-897 254,-897 254,-719 172,-719"/>
<text text-anchor="middle" x="213" y="-884" font-family="Helvetica,sans-Serif" font-size="10.00">Container&lt; T &gt;</text>
<polyline fill="none" stroke="black" points="172,-878 254,-878 "/>
<text text-anchor="start" x="180" y="-865" font-family="Helvetica,sans-Serif" font-size="10.00"># collection</text>
<polyline fill="none" stroke="black" points="172,-859 254,-859 "/>
<text text-anchor="start" x="180" y="-846" font-family="Helvetica,sans-Serif" font-size="10.00">+ begin()</text>
<text text-anchor="start" x="180" y="-835" font-family="Helvetica,sans-Serif" font-size="10.00">+ end()</text>
<text text-anchor="start" x="180" y="-824" font-family="Helvetica,sans-Serif" font-size="10.00">+ load()</text>
<text text-anchor="start" x="180" y="-813" font-family="Helvetica,sans-Serif" font-size="10.00">+ store()</text>
<text text-anchor="start" x="180" y="-802" font-family="Helvetica,sans-Serif" font-size="10.00">+ size()</text>
<text text-anchor="start" x="180" y="-791" font-family="Helvetica,sans-Serif" font-size="10.00">+ push_back()</text>
<text text-anchor="start" x="180" y="-780" font-family="Helvetica,sans-Serif" font-size="10.00">+ append()</text>
<text text-anchor="start" x="180" y="-769" font-family="Helvetica,sans-Serif" font-size="10.00">+ show()</text>
<text text-anchor="start" x="180" y="-758" font-family="Helvetica,sans-Serif" font-size="10.00">+ validate()</text>
<text text-anchor="start" x="180" y="-747" font-family="Helvetica,sans-Serif" font-size="10.00">+ reserve()</text>
<text text-anchor="start" x="180" y="-736" font-family="Helvetica,sans-Serif" font-size="10.00">+ resize()</text>
<text text-anchor="start" x="180" y="-725" font-family="Helvetica,sans-Serif" font-size="10.00">+ operator[]()</text>
</a>
</g>
<!-- Node7&#45;&gt;Node3 -->
<g id="edge12" class="edge"><title>Node7&#45;&gt;Node3</title>
<path fill="none" stroke="orange" stroke-dasharray="5,2" d="M181.804,-709.211C177.589,-695.864 173.284,-682.233 169.127,-669.068"/>
<polygon fill="orange" stroke="orange" points="178.505,-710.388 184.854,-718.87 185.18,-708.28 178.505,-710.388"/>
<text text-anchor="middle" x="195" y="-690.5" font-family="Helvetica,sans-Serif" font-size="10.00">&lt; Con &gt;</text>
</g>
<!-- Node8&#45;&gt;Node7 -->
<g id="edge14" class="edge"><title>Node8&#45;&gt;Node7</title>
<path fill="none" stroke="#9a32cd" stroke-dasharray="5,2" d="M231.817,-982.266C229.253,-958.514 225.857,-927.07 222.657,-897.437"/>
<polygon fill="#9a32cd" stroke="#9a32cd" points="232.898,-992.274 227.35,-982.815 232.361,-987.303 231.824,-982.332 231.824,-982.332 231.824,-982.332 232.361,-987.303 236.298,-981.849 232.898,-992.274 232.898,-992.274"/>
<text text-anchor="middle" x="250.5" y="-941.5" font-family="Helvetica,sans-Serif" font-size="10.00">collection</text>
</g>
</g>
</svg>
