<?xml version="1.0" encoding="UTF-8" standalone="no"?>
<!DOCTYPE svg PUBLIC "-//W3C//DTD SVG 1.1//EN"
 "http://www.w3.org/Graphics/SVG/1.1/DTD/svg11.dtd">
<!-- Generated by graphviz version 2.28.0 (20110610.2051)
 -->
<!-- Title: G Pages: 1 -->
<svg width="589pt" height="1624pt"
 viewBox="0.00 0.00 589.00 1624.00" xmlns="http://www.w3.org/2000/svg" xmlns:xlink="http://www.w3.org/1999/xlink">
<g id="graph1" class="graph" transform="scale(1 1) rotate(0) translate(4 1620)">
<title>G</title>
<polygon fill="white" stroke="white" points="-4,5 -4,-1620 586,-1620 586,5 -4,5"/>
<!-- Node1 -->
<g id="node1" class="node"><title>Node1</title>
<polygon fill="#bfbfbf" stroke="black" points="164.5,-1 164.5,-157 261.5,-157 261.5,-1 164.5,-1"/>
<text text-anchor="middle" x="213" y="-145" font-family="Helvetica,sans-Serif" font-size="10.00">ConContainer</text>
<polyline fill="none" stroke="black" points="164.5,-138 261.5,-138 "/>
<text text-anchor="middle" x="213" y="-126" font-family="Helvetica,sans-Serif" font-size="10.00"> </text>
<polyline fill="none" stroke="black" points="164.5,-119 261.5,-119 "/>
<text text-anchor="start" x="172.5" y="-107" font-family="Helvetica,sans-Serif" font-size="10.00">+ ConContainer()</text>
<text text-anchor="start" x="172.5" y="-96" font-family="Helvetica,sans-Serif" font-size="10.00">+ ConContainer()</text>
<text text-anchor="start" x="172.5" y="-85" font-family="Helvetica,sans-Serif" font-size="10.00">+ numOfCons()</text>
<text text-anchor="start" x="172.5" y="-74" font-family="Helvetica,sans-Serif" font-size="10.00">+ getId()</text>
<text text-anchor="start" x="172.5" y="-63" font-family="Helvetica,sans-Serif" font-size="10.00">+ setWeight()</text>
<text text-anchor="start" x="172.5" y="-52" font-family="Helvetica,sans-Serif" font-size="10.00">+ setWeight()</text>
<text text-anchor="start" x="172.5" y="-41" font-family="Helvetica,sans-Serif" font-size="10.00">+ setFrom()</text>
<text text-anchor="start" x="172.5" y="-30" font-family="Helvetica,sans-Serif" font-size="10.00">+ erase()</text>
<text text-anchor="start" x="172.5" y="-19" font-family="Helvetica,sans-Serif" font-size="10.00">+ select()</text>
<text text-anchor="start" x="172.5" y="-8" font-family="Helvetica,sans-Serif" font-size="10.00">+ validate()</text>
</g>
<!-- Node2 -->
<g id="node2" class="node"><title>Node2</title>
<a xlink:href="class_container.html" target="_top" xlink:title="{Container\&lt; Con \&gt;\n|# collection\l# collection\l|+ Container()\l+ Container()\l+ Container()\l+ ~Container()\l+ createIterator()\l+ push_back()\l+ push_back()\l+ reserve()\l+ reserve()\l+ empty()\l+ empty()\l+ size()\l+ size()\l+ clear()\l+ clear()\l+ show()\l+ show()\l+ validate()\l+ validate()\l+ begin()\l+ end()\l+ load()\l+ store()\l+ append()\l+ resize()\l+ operator[]()\l}">
<polygon fill="white" stroke="black" points="164.5,-196.5 164.5,-539.5 261.5,-539.5 261.5,-196.5 164.5,-196.5"/>
<text text-anchor="middle" x="213" y="-527.5" font-family="Helvetica,sans-Serif" font-size="10.00">Container&lt; Con &gt;</text>
<polyline fill="none" stroke="black" points="164.5,-520.5 261.5,-520.5 "/>
<text text-anchor="start" x="172.5" y="-508.5" font-family="Helvetica,sans-Serif" font-size="10.00"># collection</text>
<text text-anchor="start" x="172.5" y="-497.5" font-family="Helvetica,sans-Serif" font-size="10.00"># collection</text>
<polyline fill="none" stroke="black" points="164.5,-490.5 261.5,-490.5 "/>
<text text-anchor="start" x="172.5" y="-478.5" font-family="Helvetica,sans-Serif" font-size="10.00">+ Container()</text>
<text text-anchor="start" x="172.5" y="-467.5" font-family="Helvetica,sans-Serif" font-size="10.00">+ Container()</text>
<text text-anchor="start" x="172.5" y="-456.5" font-family="Helvetica,sans-Serif" font-size="10.00">+ Container()</text>
<text text-anchor="start" x="172.5" y="-445.5" font-family="Helvetica,sans-Serif" font-size="10.00">+ ~Container()</text>
<text text-anchor="start" x="172.5" y="-434.5" font-family="Helvetica,sans-Serif" font-size="10.00">+ createIterator()</text>
<text text-anchor="start" x="172.5" y="-423.5" font-family="Helvetica,sans-Serif" font-size="10.00">+ push_back()</text>
<text text-anchor="start" x="172.5" y="-412.5" font-family="Helvetica,sans-Serif" font-size="10.00">+ push_back()</text>
<text text-anchor="start" x="172.5" y="-401.5" font-family="Helvetica,sans-Serif" font-size="10.00">+ reserve()</text>
<text text-anchor="start" x="172.5" y="-390.5" font-family="Helvetica,sans-Serif" font-size="10.00">+ reserve()</text>
<text text-anchor="start" x="172.5" y="-379.5" font-family="Helvetica,sans-Serif" font-size="10.00">+ empty()</text>
<text text-anchor="start" x="172.5" y="-368.5" font-family="Helvetica,sans-Serif" font-size="10.00">+ empty()</text>
<text text-anchor="start" x="172.5" y="-357.5" font-family="Helvetica,sans-Serif" font-size="10.00">+ size()</text>
<text text-anchor="start" x="172.5" y="-346.5" font-family="Helvetica,sans-Serif" font-size="10.00">+ size()</text>
<text text-anchor="start" x="172.5" y="-335.5" font-family="Helvetica,sans-Serif" font-size="10.00">+ clear()</text>
<text text-anchor="start" x="172.5" y="-324.5" font-family="Helvetica,sans-Serif" font-size="10.00">+ clear()</text>
<text text-anchor="start" x="172.5" y="-313.5" font-family="Helvetica,sans-Serif" font-size="10.00">+ show()</text>
<text text-anchor="start" x="172.5" y="-302.5" font-family="Helvetica,sans-Serif" font-size="10.00">+ show()</text>
<text text-anchor="start" x="172.5" y="-291.5" font-family="Helvetica,sans-Serif" font-size="10.00">+ validate()</text>
<text text-anchor="start" x="172.5" y="-280.5" font-family="Helvetica,sans-Serif" font-size="10.00">+ validate()</text>
<text text-anchor="start" x="172.5" y="-269.5" font-family="Helvetica,sans-Serif" font-size="10.00">+ begin()</text>
<text text-anchor="start" x="172.5" y="-258.5" font-family="Helvetica,sans-Serif" font-size="10.00">+ end()</text>
<text text-anchor="start" x="172.5" y="-247.5" font-family="Helvetica,sans-Serif" font-size="10.00">+ load()</text>
<text text-anchor="start" x="172.5" y="-236.5" font-family="Helvetica,sans-Serif" font-size="10.00">+ store()</text>
<text text-anchor="start" x="172.5" y="-225.5" font-family="Helvetica,sans-Serif" font-size="10.00">+ append()</text>
<text text-anchor="start" x="172.5" y="-214.5" font-family="Helvetica,sans-Serif" font-size="10.00">+ resize()</text>
<text text-anchor="start" x="172.5" y="-203.5" font-family="Helvetica,sans-Serif" font-size="10.00">+ operator[]()</text>
</a>
</g>
<!-- Node2&#45;&gt;Node1 -->
<g id="edge2" class="edge"><title>Node2&#45;&gt;Node1</title>
<path fill="none" stroke="midnightblue" d="M213,-186.19C213,-176.139 213,-166.351 213,-157.041"/>
<polygon fill="none" stroke="midnightblue" points="209.5,-186.32 213,-196.32 216.5,-186.32 209.5,-186.32"/>
</g>
<!-- Node3 -->
<g id="node4" class="node"><title>Node3</title>
<a xlink:href="class_container_interface.html" target="_top" xlink:title="class ContainerInterface &#45;">
<polygon fill="white" stroke="black" points="3.5,-682 3.5,-838 140.5,-838 140.5,-682 3.5,-682"/>
<text text-anchor="middle" x="72" y="-826" font-family="Helvetica,sans-Serif" font-size="10.00">ContainerInterface&lt; Con &gt;</text>
<polyline fill="none" stroke="black" points="3.5,-819 140.5,-819 "/>
<text text-anchor="middle" x="72" y="-807" font-family="Helvetica,sans-Serif" font-size="10.00"> </text>
<polyline fill="none" stroke="black" points="3.5,-800 140.5,-800 "/>
<text text-anchor="start" x="11.5" y="-788" font-family="Helvetica,sans-Serif" font-size="10.00">+ ~ContainerInterface()</text>
<text text-anchor="start" x="11.5" y="-777" font-family="Helvetica,sans-Serif" font-size="10.00">+ createIterator()</text>
<text text-anchor="start" x="11.5" y="-766" font-family="Helvetica,sans-Serif" font-size="10.00">+ push_back()</text>
<text text-anchor="start" x="11.5" y="-755" font-family="Helvetica,sans-Serif" font-size="10.00">+ reserve()</text>
<text text-anchor="start" x="11.5" y="-744" font-family="Helvetica,sans-Serif" font-size="10.00">+ empty()</text>
<text text-anchor="start" x="11.5" y="-733" font-family="Helvetica,sans-Serif" font-size="10.00">+ size()</text>
<text text-anchor="start" x="11.5" y="-722" font-family="Helvetica,sans-Serif" font-size="10.00">+ clear()</text>
<text text-anchor="start" x="11.5" y="-711" font-family="Helvetica,sans-Serif" font-size="10.00">+ show()</text>
<text text-anchor="start" x="11.5" y="-700" font-family="Helvetica,sans-Serif" font-size="10.00">+ validate()</text>
<text text-anchor="start" x="11.5" y="-689" font-family="Helvetica,sans-Serif" font-size="10.00"># ContainerInterface()</text>
</a>
</g>
<!-- Node3&#45;&gt;Node2 -->
<g id="edge4" class="edge"><title>Node3&#45;&gt;Node2</title>
<path fill="none" stroke="midnightblue" d="M103.269,-672.511C121.249,-622.781 144.222,-559.236 164.498,-503.154"/>
<polygon fill="none" stroke="midnightblue" points="99.9656,-671.354 99.8571,-681.949 106.549,-673.734 99.9656,-671.354"/>
</g>
<!-- Node4 -->
<g id="node6" class="node"><title>Node4</title>
<polygon fill="white" stroke="#bfbfbf" points="380,-950.5 380,-1007.5 580,-1007.5 580,-950.5 380,-950.5"/>
<text text-anchor="middle" x="480" y="-995.5" font-family="Helvetica,sans-Serif" font-size="10.00">std::vector&lt; boost::shared_ptr&lt; Con &gt; &gt;</text>
<polyline fill="none" stroke="#bfbfbf" points="380,-988.5 580,-988.5 "/>
<text text-anchor="start" x="388" y="-976.5" font-family="Helvetica,sans-Serif" font-size="10.00">&#45; elements</text>
<polyline fill="none" stroke="#bfbfbf" points="380,-969.5 580,-969.5 "/>
<text text-anchor="middle" x="480" y="-957.5" font-family="Helvetica,sans-Serif" font-size="10.00"> </text>
</g>
<!-- Node4&#45;&gt;Node2 -->
<g id="edge6" class="edge"><title>Node4&#45;&gt;Node2</title>
<path fill="none" stroke="#9a32cd" stroke-dasharray="5,2" d="M470.019,-940.46C450.574,-869.696 404.362,-712.498 346,-588 321.926,-536.647 288.842,-482.123 261.693,-440.325"/>
<polygon fill="#9a32cd" stroke="#9a32cd" points="472.692,-950.259 465.719,-941.796 471.376,-945.435 470.06,-940.611 470.06,-940.611 470.06,-940.611 471.376,-945.435 474.402,-939.427 472.692,-950.259 472.692,-950.259"/>
<text text-anchor="middle" x="489.5" y="-757.5" font-family="Helvetica,sans-Serif" font-size="10.00">collection</text>
</g>
<!-- Node5 -->
<g id="node8" class="node"><title>Node5</title>
<a xlink:title="STL class.">
<polygon fill="white" stroke="#bfbfbf" points="169.5,-1342.5 169.5,-1399.5 258.5,-1399.5 258.5,-1342.5 169.5,-1342.5"/>
<text text-anchor="middle" x="214" y="-1387.5" font-family="Helvetica,sans-Serif" font-size="10.00">std::vector&lt; T &gt;</text>
<polyline fill="none" stroke="#bfbfbf" points="169.5,-1380.5 258.5,-1380.5 "/>
<text text-anchor="start" x="177.5" y="-1368.5" font-family="Helvetica,sans-Serif" font-size="10.00">&#45; elements</text>
<polyline fill="none" stroke="#bfbfbf" points="169.5,-1361.5 258.5,-1361.5 "/>
<text text-anchor="middle" x="214" y="-1349.5" font-family="Helvetica,sans-Serif" font-size="10.00"> </text>
</a>
</g>
<!-- Node5&#45;&gt;Node4 -->
<g id="edge8" class="edge"><title>Node5&#45;&gt;Node4</title>
<path fill="none" stroke="orange" stroke-dasharray="5,2" d="M267.612,-1346.01C325.902,-1316.81 416.537,-1261.6 460,-1184 491.476,-1127.8 488.441,-1049.09 483.961,-1007.8"/>
<polygon fill="orange" stroke="orange" points="265.972,-1342.92 258.547,-1350.47 269.064,-1349.2 265.972,-1342.92"/>
<text text-anchor="middle" x="514" y="-1205.5" font-family="Helvetica,sans-Serif" font-size="10.00">&lt; boost::shared_ptr&lt; Con &gt; &gt;</text>
</g>
<!-- Node7 -->
<g id="node12" class="node"><title>Node7</title>
<polygon fill="white" stroke="#bfbfbf" points="0,-1076.5 0,-1133.5 102,-1133.5 102,-1076.5 0,-1076.5"/>
<text text-anchor="middle" x="51" y="-1121.5" font-family="Helvetica,sans-Serif" font-size="10.00">std::vector&lt; Con &gt;</text>
<polyline fill="none" stroke="#bfbfbf" points="0,-1114.5 102,-1114.5 "/>
<text text-anchor="start" x="8" y="-1102.5" font-family="Helvetica,sans-Serif" font-size="10.00">&#45; elements</text>
<polyline fill="none" stroke="#bfbfbf" points="0,-1095.5 102,-1095.5 "/>
<text text-anchor="middle" x="51" y="-1083.5" font-family="Helvetica,sans-Serif" font-size="10.00"> </text>
</g>
<!-- Node5&#45;&gt;Node7 -->
<g id="edge16" class="edge"><title>Node5&#45;&gt;Node7</title>
<path fill="none" stroke="orange" stroke-dasharray="5,2" d="M191.427,-1333.44C158.434,-1280 97.7547,-1181.73 68.1508,-1133.78"/>
<polygon fill="orange" stroke="orange" points="188.633,-1335.58 196.864,-1342.25 194.589,-1331.9 188.633,-1335.58"/>
<text text-anchor="middle" x="132" y="-1205.5" font-family="Helvetica,sans-Serif" font-size="10.00">&lt; Con &gt;</text>
</g>
<!-- Node11 -->
<g id="node21" class="node"><title>Node11</title>
<polygon fill="white" stroke="#bfbfbf" points="120,-1076.5 120,-1133.5 308,-1133.5 308,-1076.5 120,-1076.5"/>
<text text-anchor="middle" x="214" y="-1121.5" font-family="Helvetica,sans-Serif" font-size="10.00">std::vector&lt; boost::shared_ptr&lt; T &gt; &gt;</text>
<polyline fill="none" stroke="#bfbfbf" points="120,-1114.5 308,-1114.5 "/>
<text text-anchor="start" x="128" y="-1102.5" font-family="Helvetica,sans-Serif" font-size="10.00">&#45; elements</text>
<polyline fill="none" stroke="#bfbfbf" points="120,-1095.5 308,-1095.5 "/>
<text text-anchor="middle" x="214" y="-1083.5" font-family="Helvetica,sans-Serif" font-size="10.00"> </text>
</g>
<!-- Node5&#45;&gt;Node11 -->
<g id="edge24" class="edge"><title>Node5&#45;&gt;Node11</title>
<path fill="none" stroke="orange" stroke-dasharray="5,2" d="M214,-1332.11C214,-1278.38 214,-1181.33 214,-1133.78"/>
<polygon fill="orange" stroke="orange" points="210.5,-1332.25 214,-1342.25 217.5,-1332.25 210.5,-1332.25"/>
<text text-anchor="middle" x="274.5" y="-1205.5" font-family="Helvetica,sans-Serif" font-size="10.00">&lt; boost::shared_ptr&lt; T &gt; &gt;</text>
</g>
<!-- Node6 -->
<g id="node10" class="node"><title>Node6</title>
<polygon fill="white" stroke="#bfbfbf" points="199.5,-1558.5 199.5,-1615.5 228.5,-1615.5 228.5,-1558.5 199.5,-1558.5"/>
<text text-anchor="middle" x="214" y="-1603.5" font-family="Helvetica,sans-Serif" font-size="10.00">T</text>
<polyline fill="none" stroke="#bfbfbf" points="199.5,-1596.5 228.5,-1596.5 "/>
<text text-anchor="middle" x="214" y="-1584.5" font-family="Helvetica,sans-Serif" font-size="10.00"> </text>
<polyline fill="none" stroke="#bfbfbf" points="199.5,-1577.5 228.5,-1577.5 "/>
<text text-anchor="middle" x="214" y="-1565.5" font-family="Helvetica,sans-Serif" font-size="10.00"> </text>
</g>
<!-- Node6&#45;&gt;Node5 -->
<g id="edge10" class="edge"><title>Node6&#45;&gt;Node5</title>
<path fill="none" stroke="#9a32cd" stroke-dasharray="5,2" d="M214,-1548.24C214,-1505.73 214,-1437.67 214,-1399.77"/>
<polygon fill="#9a32cd" stroke="#9a32cd" points="214,-1558.46 209.5,-1548.46 214,-1553.46 214,-1548.46 214,-1548.46 214,-1548.46 214,-1553.46 218.5,-1548.46 214,-1558.46 214,-1558.46"/>
<text text-anchor="middle" x="235.5" y="-1531.5" font-family="Helvetica,sans-Serif" font-size="10.00">elements</text>
</g>
<!-- Node7&#45;&gt;Node2 -->
<g id="edge12" class="edge"><title>Node7&#45;&gt;Node2</title>
<path fill="none" stroke="#9a32cd" stroke-dasharray="5,2" d="M77.3932,-1067.96C100.42,-1034.51 132.632,-982.411 149,-932 196.503,-785.7 169.488,-740.819 187,-588 188.798,-572.309 190.692,-555.989 192.603,-539.649"/>
<polygon fill="#9a32cd" stroke="#9a32cd" points="71.458,-1076.47 73.4889,-1065.69 74.3188,-1072.37 77.1796,-1068.27 77.1796,-1068.27 77.1796,-1068.27 74.3188,-1072.37 80.8702,-1070.84 71.458,-1076.47 71.458,-1076.47"/>
<text text-anchor="middle" x="209.5" y="-757.5" font-family="Helvetica,sans-Serif" font-size="10.00">collection</text>
</g>
<!-- Node8 -->
<g id="node14" class="node"><title>Node8</title>
<a xlink:href="class_con.html" target="_top" xlink:title="class Con &#45;">
<polygon fill="white" stroke="black" points="9.5,-1232.5 9.5,-1509.5 92.5,-1509.5 92.5,-1232.5 9.5,-1232.5"/>
<text text-anchor="middle" x="51" y="-1497.5" font-family="Helvetica,sans-Serif" font-size="10.00">Con</text>
<polyline fill="none" stroke="black" points="9.5,-1490.5 92.5,-1490.5 "/>
<text text-anchor="start" x="17.5" y="-1478.5" font-family="Helvetica,sans-Serif" font-size="10.00"># d_neuron</text>
<text text-anchor="start" x="17.5" y="-1467.5" font-family="Helvetica,sans-Serif" font-size="10.00"># d_weight</text>
<text text-anchor="start" x="17.5" y="-1456.5" font-family="Helvetica,sans-Serif" font-size="10.00">&#45; from</text>
<text text-anchor="start" x="17.5" y="-1445.5" font-family="Helvetica,sans-Serif" font-size="10.00">&#45; weight</text>
<polyline fill="none" stroke="black" points="9.5,-1438.5 92.5,-1438.5 "/>
<text text-anchor="start" x="17.5" y="-1426.5" font-family="Helvetica,sans-Serif" font-size="10.00">+ Con()</text>
<text text-anchor="start" x="17.5" y="-1415.5" font-family="Helvetica,sans-Serif" font-size="10.00">+ Con()</text>
<text text-anchor="start" x="17.5" y="-1404.5" font-family="Helvetica,sans-Serif" font-size="10.00">+ neuron()</text>
<text text-anchor="start" x="17.5" y="-1393.5" font-family="Helvetica,sans-Serif" font-size="10.00">+ Id()</text>
<text text-anchor="start" x="17.5" y="-1382.5" font-family="Helvetica,sans-Serif" font-size="10.00">+ weight()</text>
<text text-anchor="start" x="17.5" y="-1371.5" font-family="Helvetica,sans-Serif" font-size="10.00">+ show()</text>
<text text-anchor="start" x="17.5" y="-1360.5" font-family="Helvetica,sans-Serif" font-size="10.00">+ validate()</text>
<text text-anchor="start" x="17.5" y="-1349.5" font-family="Helvetica,sans-Serif" font-size="10.00">+ Con()</text>
<text text-anchor="start" x="17.5" y="-1338.5" font-family="Helvetica,sans-Serif" font-size="10.00">+ Con()</text>
<text text-anchor="start" x="17.5" y="-1327.5" font-family="Helvetica,sans-Serif" font-size="10.00">+ Con()</text>
<text text-anchor="start" x="17.5" y="-1316.5" font-family="Helvetica,sans-Serif" font-size="10.00">+ ~Con()</text>
<text text-anchor="start" x="17.5" y="-1305.5" font-family="Helvetica,sans-Serif" font-size="10.00">+ getFrom()</text>
<text text-anchor="start" x="17.5" y="-1294.5" font-family="Helvetica,sans-Serif" font-size="10.00">+ setFrom()</text>
<text text-anchor="start" x="17.5" y="-1283.5" font-family="Helvetica,sans-Serif" font-size="10.00">+ getId()</text>
<text text-anchor="start" x="17.5" y="-1272.5" font-family="Helvetica,sans-Serif" font-size="10.00">+ getWeight()</text>
<text text-anchor="start" x="17.5" y="-1261.5" font-family="Helvetica,sans-Serif" font-size="10.00">+ setWeight()</text>
<text text-anchor="start" x="17.5" y="-1250.5" font-family="Helvetica,sans-Serif" font-size="10.00">+ show()</text>
<text text-anchor="start" x="17.5" y="-1239.5" font-family="Helvetica,sans-Serif" font-size="10.00">+ validate()</text>
</a>
</g>
<!-- Node8&#45;&gt;Node7 -->
<g id="edge14" class="edge"><title>Node8&#45;&gt;Node7</title>
<path fill="none" stroke="#9a32cd" stroke-dasharray="5,2" d="M51,-1222.12C51,-1188.17 51,-1155.65 51,-1133.7"/>
<polygon fill="#9a32cd" stroke="#9a32cd" points="51,-1232.2 46.5001,-1222.2 51,-1227.2 51.0001,-1222.2 51.0001,-1222.2 51.0001,-1222.2 51,-1227.2 55.5001,-1222.2 51,-1232.2 51,-1232.2"/>
<text text-anchor="middle" x="72.5" y="-1205.5" font-family="Helvetica,sans-Serif" font-size="10.00">elements</text>
</g>
<!-- Node9 -->
<g id="node17" class="node"><title>Node9</title>
<a xlink:href="class_container.html" target="_top" xlink:title="class Container &#45;">
<polygon fill="white" stroke="black" points="240.5,-588.5 240.5,-931.5 337.5,-931.5 337.5,-588.5 240.5,-588.5"/>
<text text-anchor="middle" x="289" y="-919.5" font-family="Helvetica,sans-Serif" font-size="10.00">Container&lt; T &gt;</text>
<polyline fill="none" stroke="black" points="240.5,-912.5 337.5,-912.5 "/>
<text text-anchor="start" x="248.5" y="-900.5" font-family="Helvetica,sans-Serif" font-size="10.00"># collection</text>
<text text-anchor="start" x="248.5" y="-889.5" font-family="Helvetica,sans-Serif" font-size="10.00"># collection</text>
<polyline fill="none" stroke="black" points="240.5,-882.5 337.5,-882.5 "/>
<text text-anchor="start" x="248.5" y="-870.5" font-family="Helvetica,sans-Serif" font-size="10.00">+ Container()</text>
<text text-anchor="start" x="248.5" y="-859.5" font-family="Helvetica,sans-Serif" font-size="10.00">+ ~Container()</text>
<text text-anchor="start" x="248.5" y="-848.5" font-family="Helvetica,sans-Serif" font-size="10.00">+ createIterator()</text>
<text text-anchor="start" x="248.5" y="-837.5" font-family="Helvetica,sans-Serif" font-size="10.00">+ push_back()</text>
<text text-anchor="start" x="248.5" y="-826.5" font-family="Helvetica,sans-Serif" font-size="10.00">+ reserve()</text>
<text text-anchor="start" x="248.5" y="-815.5" font-family="Helvetica,sans-Serif" font-size="10.00">+ empty()</text>
<text text-anchor="start" x="248.5" y="-804.5" font-family="Helvetica,sans-Serif" font-size="10.00">+ size()</text>
<text text-anchor="start" x="248.5" y="-793.5" font-family="Helvetica,sans-Serif" font-size="10.00">+ clear()</text>
<text text-anchor="start" x="248.5" y="-782.5" font-family="Helvetica,sans-Serif" font-size="10.00">+ show()</text>
<text text-anchor="start" x="248.5" y="-771.5" font-family="Helvetica,sans-Serif" font-size="10.00">+ validate()</text>
<text text-anchor="start" x="248.5" y="-760.5" font-family="Helvetica,sans-Serif" font-size="10.00">+ Container()</text>
<text text-anchor="start" x="248.5" y="-749.5" font-family="Helvetica,sans-Serif" font-size="10.00">+ Container()</text>
<text text-anchor="start" x="248.5" y="-738.5" font-family="Helvetica,sans-Serif" font-size="10.00">+ begin()</text>
<text text-anchor="start" x="248.5" y="-727.5" font-family="Helvetica,sans-Serif" font-size="10.00">+ end()</text>
<text text-anchor="start" x="248.5" y="-716.5" font-family="Helvetica,sans-Serif" font-size="10.00">+ load()</text>
<text text-anchor="start" x="248.5" y="-705.5" font-family="Helvetica,sans-Serif" font-size="10.00">+ store()</text>
<text text-anchor="start" x="248.5" y="-694.5" font-family="Helvetica,sans-Serif" font-size="10.00">+ size()</text>
<text text-anchor="start" x="248.5" y="-683.5" font-family="Helvetica,sans-Serif" font-size="10.00">+ push_back()</text>
<text text-anchor="start" x="248.5" y="-672.5" font-family="Helvetica,sans-Serif" font-size="10.00">+ append()</text>
<text text-anchor="start" x="248.5" y="-661.5" font-family="Helvetica,sans-Serif" font-size="10.00">+ show()</text>
<text text-anchor="start" x="248.5" y="-650.5" font-family="Helvetica,sans-Serif" font-size="10.00">+ validate()</text>
<text text-anchor="start" x="248.5" y="-639.5" font-family="Helvetica,sans-Serif" font-size="10.00">+ reserve()</text>
<text text-anchor="start" x="248.5" y="-628.5" font-family="Helvetica,sans-Serif" font-size="10.00">+ resize()</text>
<text text-anchor="start" x="248.5" y="-617.5" font-family="Helvetica,sans-Serif" font-size="10.00">+ empty()</text>
<text text-anchor="start" x="248.5" y="-606.5" font-family="Helvetica,sans-Serif" font-size="10.00">+ clear()</text>
<text text-anchor="start" x="248.5" y="-595.5" font-family="Helvetica,sans-Serif" font-size="10.00">+ operator[]()</text>
</a>
</g>
<!-- Node9&#45;&gt;Node2 -->
<g id="edge18" class="edge"><title>Node9&#45;&gt;Node2</title>
<path fill="none" stroke="orange" stroke-dasharray="5,2" d="M253.807,-578.403C251.299,-565.533 248.774,-552.579 246.278,-539.767"/>
<polygon fill="orange" stroke="orange" points="250.372,-579.078 255.721,-588.224 257.243,-577.739 250.372,-579.078"/>
<text text-anchor="middle" x="269" y="-561.5" font-family="Helvetica,sans-Serif" font-size="10.00">&lt; Con &gt;</text>
</g>
<!-- Node10 -->
<g id="node19" class="node"><title>Node10</title>
<a xlink:href="class_container_interface.html" target="_top" xlink:title="class ContainerInterface &#45;">
<polygon fill="white" stroke="black" points="326.5,-1027 326.5,-1183 451.5,-1183 451.5,-1027 326.5,-1027"/>
<text text-anchor="middle" x="389" y="-1171" font-family="Helvetica,sans-Serif" font-size="10.00">ContainerInterface&lt; T &gt;</text>
<polyline fill="none" stroke="black" points="326.5,-1164 451.5,-1164 "/>
<text text-anchor="middle" x="389" y="-1152" font-family="Helvetica,sans-Serif" font-size="10.00"> </text>
<polyline fill="none" stroke="black" points="326.5,-1145 451.5,-1145 "/>
<text text-anchor="start" x="334.5" y="-1133" font-family="Helvetica,sans-Serif" font-size="10.00">+ ~ContainerInterface()</text>
<text text-anchor="start" x="334.5" y="-1122" font-family="Helvetica,sans-Serif" font-size="10.00">+ createIterator()</text>
<text text-anchor="start" x="334.5" y="-1111" font-family="Helvetica,sans-Serif" font-size="10.00">+ push_back()</text>
<text text-anchor="start" x="334.5" y="-1100" font-family="Helvetica,sans-Serif" font-size="10.00">+ reserve()</text>
<text text-anchor="start" x="334.5" y="-1089" font-family="Helvetica,sans-Serif" font-size="10.00">+ empty()</text>
<text text-anchor="start" x="334.5" y="-1078" font-family="Helvetica,sans-Serif" font-size="10.00">+ size()</text>
<text text-anchor="start" x="334.5" y="-1067" font-family="Helvetica,sans-Serif" font-size="10.00">+ clear()</text>
<text text-anchor="start" x="334.5" y="-1056" font-family="Helvetica,sans-Serif" font-size="10.00">+ show()</text>
<text text-anchor="start" x="334.5" y="-1045" font-family="Helvetica,sans-Serif" font-size="10.00">+ validate()</text>
<text text-anchor="start" x="334.5" y="-1034" font-family="Helvetica,sans-Serif" font-size="10.00"># ContainerInterface()</text>
</a>
</g>
<!-- Node10&#45;&gt;Node9 -->
<g id="edge20" class="edge"><title>Node10&#45;&gt;Node9</title>
<path fill="none" stroke="midnightblue" d="M363.553,-1016.72C355.594,-989.419 346.532,-958.333 337.532,-927.465"/>
<polygon fill="none" stroke="midnightblue" points="360.274,-1017.98 366.433,-1026.6 366.994,-1016.02 360.274,-1017.98"/>
</g>
<!-- Node11&#45;&gt;Node9 -->
<g id="edge22" class="edge"><title>Node11&#45;&gt;Node9</title>
<path fill="none" stroke="#9a32cd" stroke-dasharray="5,2" d="M222.287,-1066.1C229.53,-1032.98 240.589,-982.401 251.632,-931.895"/>
<polygon fill="#9a32cd" stroke="#9a32cd" points="220.074,-1076.22 217.814,-1065.49 221.142,-1071.34 222.21,-1066.45 222.21,-1066.45 222.21,-1066.45 221.142,-1071.34 226.606,-1067.41 220.074,-1076.22 220.074,-1076.22"/>
<text text-anchor="middle" x="269.5" y="-976.5" font-family="Helvetica,sans-Serif" font-size="10.00">collection</text>
</g>
</g>
</svg>
