<?xml version="1.0" encoding="UTF-8" standalone="no"?>
<!DOCTYPE svg PUBLIC "-//W3C//DTD SVG 1.1//EN"
 "http://www.w3.org/Graphics/SVG/1.1/DTD/svg11.dtd">
<!-- Generated by graphviz version 2.25.20091207.0545 (20091207.0545)
 -->
<!-- Title: G Pages: 1 -->
<svg width="216pt" height="506pt"
 viewBox="0.00 0.00 216.00 506.00" xmlns="http://www.w3.org/2000/svg" xmlns:xlink="http://www.w3.org/1999/xlink">
<g id="graph1" class="graph" transform="scale(1 1) rotate(0) translate(4 502)">
<title>G</title>
<polygon fill="white" stroke="white" points="-4,5 -4,-502 213,-502 213,5 -4,5"/>
<!-- Node1 -->
<g id="node1" class="node"><title>Node1</title>
<polygon fill="#bfbfbf" stroke="black" points="49,-1 49,-179 131,-179 131,-1 49,-1"/>
<text text-anchor="middle" x="90" y="-166" font-family="Helvetica,sans-Serif" font-size="10.00">Container&lt; T &gt;</text>
<polyline fill="none" stroke="black" points="49,-160 131,-160 "/>
<text text-anchor="start" x="57" y="-147" font-family="Helvetica,sans-Serif" font-size="10.00"># collection</text>
<polyline fill="none" stroke="black" points="49,-141 131,-141 "/>
<text text-anchor="start" x="57" y="-128" font-family="Helvetica,sans-Serif" font-size="10.00">+ begin()</text>
<text text-anchor="start" x="57" y="-117" font-family="Helvetica,sans-Serif" font-size="10.00">+ end()</text>
<text text-anchor="start" x="57" y="-106" font-family="Helvetica,sans-Serif" font-size="10.00">+ load()</text>
<text text-anchor="start" x="57" y="-95" font-family="Helvetica,sans-Serif" font-size="10.00">+ store()</text>
<text text-anchor="start" x="57" y="-84" font-family="Helvetica,sans-Serif" font-size="10.00">+ size()</text>
<text text-anchor="start" x="57" y="-73" font-family="Helvetica,sans-Serif" font-size="10.00">+ push_back()</text>
<text text-anchor="start" x="57" y="-62" font-family="Helvetica,sans-Serif" font-size="10.00">+ append()</text>
<text text-anchor="start" x="57" y="-51" font-family="Helvetica,sans-Serif" font-size="10.00">+ show()</text>
<text text-anchor="start" x="57" y="-40" font-family="Helvetica,sans-Serif" font-size="10.00">+ validate()</text>
<text text-anchor="start" x="57" y="-29" font-family="Helvetica,sans-Serif" font-size="10.00">+ reserve()</text>
<text text-anchor="start" x="57" y="-18" font-family="Helvetica,sans-Serif" font-size="10.00">+ resize()</text>
<text text-anchor="start" x="57" y="-7" font-family="Helvetica,sans-Serif" font-size="10.00">+ operator[]()</text>
</g>
<!-- Node2 -->
<g id="node2" class="node"><title>Node2</title>
<polygon fill="white" stroke="#bfbfbf" points="0,-228.5 0,-285.5 180,-285.5 180,-228.5 0,-228.5"/>
<text text-anchor="middle" x="90" y="-272.5" font-family="Helvetica,sans-Serif" font-size="10.00">std::vector&lt; boost::shared_ptr&lt; T &gt; &gt;</text>
<polyline fill="none" stroke="#bfbfbf" points="0,-266.5 180,-266.5 "/>
<text text-anchor="start" x="8" y="-253.5" font-family="Helvetica,sans-Serif" font-size="10.00">&#45; elements</text>
<polyline fill="none" stroke="#bfbfbf" points="0,-247.5 180,-247.5 "/>
<text text-anchor="middle" x="90" y="-234.5" font-family="Helvetica,sans-Serif" font-size="10.00"> </text>
</g>
<!-- Node2&#45;&gt;Node1 -->
<g id="edge2" class="edge"><title>Node2&#45;&gt;Node1</title>
<path fill="none" stroke="#9a32cd" stroke-dasharray="5,2" d="M90,-217.967C90,-206.165 90,-192.691 90,-179.019"/>
<polygon fill="#9a32cd" stroke="#9a32cd" points="90,-228.292 85.5001,-218.292 90,-223.292 90.0001,-218.292 90.0001,-218.292 90.0001,-218.292 90,-223.292 94.5001,-218.292 90,-228.292 90,-228.292"/>
<text text-anchor="middle" x="110.5" y="-200.5" font-family="Helvetica,sans-Serif" font-size="10.00">collection</text>
</g>
<!-- Node3 -->
<g id="node4" class="node"><title>Node3</title>
<a xlink:title="STL class.">
<polygon fill="white" stroke="#bfbfbf" points="46.5,-334.5 46.5,-391.5 133.5,-391.5 133.5,-334.5 46.5,-334.5"/>
<text text-anchor="middle" x="90" y="-378.5" font-family="Helvetica,sans-Serif" font-size="10.00">std::vector&lt; T &gt;</text>
<polyline fill="none" stroke="#bfbfbf" points="46.5,-372.5 133.5,-372.5 "/>
<text text-anchor="start" x="54.5" y="-359.5" font-family="Helvetica,sans-Serif" font-size="10.00">&#45; elements</text>
<polyline fill="none" stroke="#bfbfbf" points="46.5,-353.5 133.5,-353.5 "/>
<text text-anchor="middle" x="90" y="-340.5" font-family="Helvetica,sans-Serif" font-size="10.00"> </text>
</a>
</g>
<!-- Node3&#45;&gt;Node2 -->
<g id="edge4" class="edge"><title>Node3&#45;&gt;Node2</title>
<path fill="none" stroke="orange" stroke-dasharray="5,2" d="M90,-324.005C90,-311.326 90,-297.494 90,-285.708"/>
<polygon fill="orange" stroke="orange" points="86.5001,-324.315 90,-334.315 93.5001,-324.315 86.5001,-324.315"/>
<text text-anchor="middle" x="149" y="-306.5" font-family="Helvetica,sans-Serif" font-size="10.00">&lt; boost::shared_ptr&lt; T &gt; &gt;</text>
</g>
<!-- Node4 -->
<g id="node6" class="node"><title>Node4</title>
<polygon fill="white" stroke="#bfbfbf" points="75.5,-440.5 75.5,-497.5 104.5,-497.5 104.5,-440.5 75.5,-440.5"/>
<text text-anchor="middle" x="90" y="-484.5" font-family="Helvetica,sans-Serif" font-size="10.00">T</text>
<polyline fill="none" stroke="#bfbfbf" points="75.5,-478.5 104.5,-478.5 "/>
<text text-anchor="middle" x="90" y="-465.5" font-family="Helvetica,sans-Serif" font-size="10.00"> </text>
<polyline fill="none" stroke="#bfbfbf" points="75.5,-459.5 104.5,-459.5 "/>
<text text-anchor="middle" x="90" y="-446.5" font-family="Helvetica,sans-Serif" font-size="10.00"> </text>
</g>
<!-- Node4&#45;&gt;Node3 -->
<g id="edge6" class="edge"><title>Node4&#45;&gt;Node3</title>
<path fill="none" stroke="#9a32cd" stroke-dasharray="5,2" d="M90,-430.005C90,-417.326 90,-403.494 90,-391.708"/>
<polygon fill="#9a32cd" stroke="#9a32cd" points="90,-440.315 85.5001,-430.315 90,-435.315 90.0001,-430.315 90.0001,-430.315 90.0001,-430.315 90,-435.315 94.5001,-430.315 90,-440.315 90,-440.315"/>
<text text-anchor="middle" x="110" y="-412.5" font-family="Helvetica,sans-Serif" font-size="10.00">elements</text>
</g>
</g>
</svg>
