<?xml version="1.0" encoding="UTF-8" standalone="no"?>
<!DOCTYPE svg PUBLIC "-//W3C//DTD SVG 1.1//EN"
 "http://www.w3.org/Graphics/SVG/1.1/DTD/svg11.dtd">
<!-- Generated by graphviz version 2.25.20091207.0545 (20091207.0545)
 -->
<!-- Title: G Pages: 1 -->
<svg width="376pt" height="66pt"
 viewBox="0.00 0.00 376.00 66.00" xmlns="http://www.w3.org/2000/svg" xmlns:xlink="http://www.w3.org/1999/xlink">
<g id="graph1" class="graph" transform="scale(1 1) rotate(0) translate(4 62)">
<title>G</title>
<polygon fill="white" stroke="white" points="-4,5 -4,-62 373,-62 373,5 -4,5"/>
<!-- Node1 -->
<g id="node1" class="node"><title>Node1</title>
<polygon fill="#bfbfbf" stroke="black" points="0.5,-19.5 0.5,-38.5 87.5,-38.5 87.5,-19.5 0.5,-19.5"/>
<text text-anchor="middle" x="44" y="-25.5" font-family="Helvetica,sans-Serif" font-size="10.00">Container::begin</text>
</g>
<!-- Node2 -->
<g id="node3" class="node"><title>Node2</title>
<a xlink:href="class_container.html#a86d42cf807e073724bd2f8e08dcdfefa" target="_top" xlink:title="Appends a Container&lt;T&gt; object.">
<polygon fill="white" stroke="black" points="135,-38.5 135,-57.5 231,-57.5 231,-38.5 135,-38.5"/>
<text text-anchor="middle" x="183" y="-44.5" font-family="Helvetica,sans-Serif" font-size="10.00">Container::append</text>
</a>
</g>
<!-- Node1&#45;&gt;Node2 -->
<g id="edge2" class="edge"><title>Node1&#45;&gt;Node2</title>
<path fill="none" stroke="midnightblue" d="M97.6549,-36.3341C109.861,-38.0026 122.756,-39.7652 134.723,-41.401"/>
<polygon fill="midnightblue" stroke="midnightblue" points="97.981,-32.8462 87.5991,-34.9596 97.0329,-39.7817 97.981,-32.8462"/>
</g>
<!-- Node3 -->
<g id="node5" class="node"><title>Node3</title>
<a xlink:href="class_con_container.html#aa7f1bbd910afe9c4241e8bd4d5fbc497" target="_top" xlink:title="Setter of the from fields of the Con objects related to ConContainer.">
<polygon fill="white" stroke="black" points="124,-0.5 124,-19.5 242,-19.5 242,-0.5 124,-0.5"/>
<text text-anchor="middle" x="183" y="-6.5" font-family="Helvetica,sans-Serif" font-size="10.00">ConContainer::setFrom</text>
</a>
</g>
<!-- Node1&#45;&gt;Node3 -->
<g id="edge4" class="edge"><title>Node1&#45;&gt;Node3</title>
<path fill="none" stroke="midnightblue" d="M97.7796,-21.6488C106.291,-20.4854 115.134,-19.2766 123.762,-18.0973"/>
<polygon fill="midnightblue" stroke="midnightblue" points="97.0329,-18.2183 87.5991,-23.0404 97.981,-25.1538 97.0329,-18.2183"/>
</g>
<!-- Node4 -->
<g id="node7" class="node"><title>Node4</title>
<a xlink:href="class_neuron.html#ac8129f5de3ec1c143f40d507b6843649" target="_top" xlink:title="Neuron::setFrom">
<polygon fill="white" stroke="black" points="278,-0.5 278,-19.5 368,-19.5 368,-0.5 278,-0.5"/>
<text text-anchor="middle" x="323" y="-6.5" font-family="Helvetica,sans-Serif" font-size="10.00">Neuron::setFrom</text>
</a>
</g>
<!-- Node3&#45;&gt;Node4 -->
<g id="edge6" class="edge"><title>Node3&#45;&gt;Node4</title>
<path fill="none" stroke="midnightblue" d="M252.502,-10C261.161,-10 269.831,-10 277.981,-10"/>
<polygon fill="midnightblue" stroke="midnightblue" points="252.373,-6.5001 242.373,-10 252.373,-13.5001 252.373,-6.5001"/>
</g>
</g>
</svg>
