<?xml version="1.0" encoding="UTF-8" standalone="no"?>
<!DOCTYPE svg PUBLIC "-//W3C//DTD SVG 1.1//EN"
 "http://www.w3.org/Graphics/SVG/1.1/DTD/svg11.dtd">
<!-- Generated by graphviz version 2.25.20091207.0545 (20091207.0545)
 -->
<!-- Title: G Pages: 1 -->
<svg width="112pt" height="412pt"
 viewBox="0.00 0.00 112.00 412.00" xmlns="http://www.w3.org/2000/svg" xmlns:xlink="http://www.w3.org/1999/xlink">
<g id="graph1" class="graph" transform="scale(1 1) rotate(0) translate(4 408)">
<title>G</title>
<polygon fill="white" stroke="white" points="-4,5 -4,-408 109,-408 109,5 -4,5"/>
<!-- Node1 -->
<g id="node1" class="node"><title>Node1</title>
<polygon fill="#bfbfbf" stroke="black" points="5.5,-280.5 5.5,-403.5 98.5,-403.5 98.5,-280.5 5.5,-280.5"/>
<text text-anchor="middle" x="52" y="-390.5" font-family="Helvetica,sans-Serif" font-size="10.00">vecAMORE&lt; T &gt;</text>
<polyline fill="none" stroke="black" points="5.5,-384.5 98.5,-384.5 "/>
<text text-anchor="start" x="13.5" y="-371.5" font-family="Helvetica,sans-Serif" font-size="10.00"># ldata</text>
<polyline fill="none" stroke="black" points="5.5,-365.5 98.5,-365.5 "/>
<text text-anchor="start" x="13.5" y="-352.5" font-family="Helvetica,sans-Serif" font-size="10.00">+ getLdata()</text>
<text text-anchor="start" x="13.5" y="-341.5" font-family="Helvetica,sans-Serif" font-size="10.00">+ setLdata()</text>
<text text-anchor="start" x="13.5" y="-330.5" font-family="Helvetica,sans-Serif" font-size="10.00">+ size()</text>
<text text-anchor="start" x="13.5" y="-319.5" font-family="Helvetica,sans-Serif" font-size="10.00">+ push_back()</text>
<text text-anchor="start" x="13.5" y="-308.5" font-family="Helvetica,sans-Serif" font-size="10.00">+ append()</text>
<text text-anchor="start" x="13.5" y="-297.5" font-family="Helvetica,sans-Serif" font-size="10.00">+ show()</text>
<text text-anchor="start" x="13.5" y="-286.5" font-family="Helvetica,sans-Serif" font-size="10.00">+ validate()</text>
</g>
<!-- Node2 -->
<g id="node3" class="node"><title>Node2</title>
<a xlink:href="classvec_a_m_o_r_e.html" target="_top" xlink:title="{vecAMORE\&lt; Con \&gt;\n|# ldata\l|+ getLdata()\l+ setLdata()\l+ size()\l+ push_back()\l+ append()\l+ show()\l+ validate()\l}">
<polygon fill="white" stroke="black" points="-0.5,-108.5 -0.5,-231.5 104.5,-231.5 104.5,-108.5 -0.5,-108.5"/>
<text text-anchor="middle" x="52" y="-218.5" font-family="Helvetica,sans-Serif" font-size="10.00">vecAMORE&lt; Con &gt;</text>
<polyline fill="none" stroke="black" points="-0.5,-212.5 104.5,-212.5 "/>
<text text-anchor="start" x="7.5" y="-199.5" font-family="Helvetica,sans-Serif" font-size="10.00"># ldata</text>
<polyline fill="none" stroke="black" points="-0.5,-193.5 104.5,-193.5 "/>
<text text-anchor="start" x="7.5" y="-180.5" font-family="Helvetica,sans-Serif" font-size="10.00">+ getLdata()</text>
<text text-anchor="start" x="7.5" y="-169.5" font-family="Helvetica,sans-Serif" font-size="10.00">+ setLdata()</text>
<text text-anchor="start" x="7.5" y="-158.5" font-family="Helvetica,sans-Serif" font-size="10.00">+ size()</text>
<text text-anchor="start" x="7.5" y="-147.5" font-family="Helvetica,sans-Serif" font-size="10.00">+ push_back()</text>
<text text-anchor="start" x="7.5" y="-136.5" font-family="Helvetica,sans-Serif" font-size="10.00">+ append()</text>
<text text-anchor="start" x="7.5" y="-125.5" font-family="Helvetica,sans-Serif" font-size="10.00">+ show()</text>
<text text-anchor="start" x="7.5" y="-114.5" font-family="Helvetica,sans-Serif" font-size="10.00">+ validate()</text>
</a>
</g>
<!-- Node1&#45;&gt;Node2 -->
<g id="edge2" class="edge"><title>Node1&#45;&gt;Node2</title>
<path fill="none" stroke="orange" stroke-dasharray="5,2" d="M52,-270.248C52,-257.459 52,-244.238 52,-231.758"/>
<polygon fill="orange" stroke="orange" points="48.5001,-270.39 52,-280.39 55.5001,-270.39 48.5001,-270.39"/>
<text text-anchor="middle" x="70" y="-252.5" font-family="Helvetica,sans-Serif" font-size="10.00">&lt; Con &gt;</text>
</g>
<!-- Node3 -->
<g id="node5" class="node"><title>Node3</title>
<a xlink:href="classvec_con.html" target="_top" xlink:title="A vector of connections.">
<polygon fill="white" stroke="black" points="10,-1 10,-69 94,-69 94,-1 10,-1"/>
<text text-anchor="middle" x="52" y="-56" font-family="Helvetica,sans-Serif" font-size="10.00">vecCon</text>
<polyline fill="none" stroke="black" points="10,-50 94,-50 "/>
<text text-anchor="middle" x="52" y="-37" font-family="Helvetica,sans-Serif" font-size="10.00"> </text>
<polyline fill="none" stroke="black" points="10,-31 94,-31 "/>
<text text-anchor="start" x="18" y="-18" font-family="Helvetica,sans-Serif" font-size="10.00">+ numOfCons()</text>
<text text-anchor="start" x="18" y="-7" font-family="Helvetica,sans-Serif" font-size="10.00">+ getFromId()</text>
</a>
</g>
<!-- Node2&#45;&gt;Node3 -->
<g id="edge4" class="edge"><title>Node2&#45;&gt;Node3</title>
<path fill="none" stroke="midnightblue" d="M52,-98.282C52,-88.1466 52,-78.1385 52,-69.1766"/>
<polygon fill="none" stroke="midnightblue" points="48.5001,-98.4258 52,-108.426 55.5001,-98.4259 48.5001,-98.4258"/>
</g>
</g>
</svg>
