<?xml version="1.0" encoding="UTF-8" standalone="no"?>
<!DOCTYPE svg PUBLIC "-//W3C//DTD SVG 1.1//EN"
 "http://www.w3.org/Graphics/SVG/1.1/DTD/svg11.dtd">
<!-- Generated by graphviz version 2.28.0 (20110610.2051)
 -->
<!-- Title: G Pages: 1 -->
<svg width="255pt" height="254pt"
 viewBox="0.00 0.00 255.00 254.00" xmlns="http://www.w3.org/2000/svg" xmlns:xlink="http://www.w3.org/1999/xlink">
<g id="graph1" class="graph" transform="scale(1 1) rotate(0) translate(4 250)">
<title>G</title>
<polygon fill="white" stroke="white" points="-4,5 -4,-250 252,-250 252,5 -4,5"/>
<!-- Node1 -->
<g id="node1" class="node"><title>Node1</title>
<polygon fill="#bfbfbf" stroke="black" points="65.5,-94.5 65.5,-151.5 180.5,-151.5 180.5,-94.5 65.5,-94.5"/>
<text text-anchor="middle" x="123" y="-139.5" font-family="Helvetica,sans-Serif" font-size="10.00">BatchBehavior</text>
<polyline fill="none" stroke="black" points="65.5,-132.5 180.5,-132.5 "/>
<text text-anchor="middle" x="123" y="-120.5" font-family="Helvetica,sans-Serif" font-size="10.00"> </text>
<polyline fill="none" stroke="black" points="65.5,-113.5 180.5,-113.5 "/>
<text text-anchor="start" x="73.5" y="-101.5" font-family="Helvetica,sans-Serif" font-size="10.00">+ adjustParameters()</text>
</g>
<!-- Node3 -->
<g id="node5" class="node"><title>Node3</title>
<a xlink:href="class_b_a_t_c_hgd.html" target="_top" xlink:title="class BATCHgd &#45;">
<polygon fill="white" stroke="black" points="-0.5,-0.5 -0.5,-57.5 114.5,-57.5 114.5,-0.5 -0.5,-0.5"/>
<text text-anchor="middle" x="57" y="-45.5" font-family="Helvetica,sans-Serif" font-size="10.00">BATCHgd</text>
<polyline fill="none" stroke="black" points="-0.5,-38.5 114.5,-38.5 "/>
<text text-anchor="start" x="7.5" y="-26.5" font-family="Helvetica,sans-Serif" font-size="10.00">&#45; outputDerivative</text>
<polyline fill="none" stroke="black" points="-0.5,-19.5 114.5,-19.5 "/>
<text text-anchor="start" x="7.5" y="-7.5" font-family="Helvetica,sans-Serif" font-size="10.00">+ adjustParameters()</text>
</a>
</g>
<!-- Node1&#45;&gt;Node3 -->
<g id="edge4" class="edge"><title>Node1&#45;&gt;Node3</title>
<path fill="none" stroke="midnightblue" d="M97.3435,-86.2364C90.5166,-76.7201 83.2479,-66.588 76.7882,-57.5836"/>
<polygon fill="none" stroke="midnightblue" points="94.5248,-88.3118 103.198,-94.397 100.213,-84.2314 94.5248,-88.3118"/>
</g>
<!-- Node4 -->
<g id="node7" class="node"><title>Node4</title>
<a xlink:href="class_b_a_t_c_hgdwm.html" target="_top" xlink:title="class BATCHgdwm &#45;">
<polygon fill="white" stroke="black" points="132.5,-0.5 132.5,-57.5 247.5,-57.5 247.5,-0.5 132.5,-0.5"/>
<text text-anchor="middle" x="190" y="-45.5" font-family="Helvetica,sans-Serif" font-size="10.00">BATCHgdwm</text>
<polyline fill="none" stroke="black" points="132.5,-38.5 247.5,-38.5 "/>
<text text-anchor="start" x="140.5" y="-26.5" font-family="Helvetica,sans-Serif" font-size="10.00">&#45; outputDerivative</text>
<polyline fill="none" stroke="black" points="132.5,-19.5 247.5,-19.5 "/>
<text text-anchor="start" x="140.5" y="-7.5" font-family="Helvetica,sans-Serif" font-size="10.00">+ adjustParameters()</text>
</a>
</g>
<!-- Node1&#45;&gt;Node4 -->
<g id="edge6" class="edge"><title>Node1&#45;&gt;Node4</title>
<path fill="none" stroke="midnightblue" d="M149.045,-86.2364C155.976,-76.7201 163.354,-66.588 169.912,-57.5836"/>
<polygon fill="none" stroke="midnightblue" points="146.16,-84.2529 143.102,-94.397 151.818,-88.3738 146.16,-84.2529"/>
</g>
<!-- Node2 -->
<g id="node2" class="node"><title>Node2</title>
<a xlink:href="class_training_behavior.html" target="_top" xlink:title="class TrainingBehavior &#45;">
<polygon fill="white" stroke="black" points="65.5,-188.5 65.5,-245.5 180.5,-245.5 180.5,-188.5 65.5,-188.5"/>
<text text-anchor="middle" x="123" y="-233.5" font-family="Helvetica,sans-Serif" font-size="10.00">TrainingBehavior</text>
<polyline fill="none" stroke="black" points="65.5,-226.5 180.5,-226.5 "/>
<text text-anchor="middle" x="123" y="-214.5" font-family="Helvetica,sans-Serif" font-size="10.00"> </text>
<polyline fill="none" stroke="black" points="65.5,-207.5 180.5,-207.5 "/>
<text text-anchor="start" x="73.5" y="-195.5" font-family="Helvetica,sans-Serif" font-size="10.00">+ adjustParameters()</text>
</a>
</g>
<!-- Node2&#45;&gt;Node1 -->
<g id="edge2" class="edge"><title>Node2&#45;&gt;Node1</title>
<path fill="none" stroke="midnightblue" d="M123,-178.209C123,-169.293 123,-159.951 123,-151.584"/>
<polygon fill="none" stroke="midnightblue" points="119.5,-178.397 123,-188.397 126.5,-178.397 119.5,-178.397"/>
</g>
</g>
</svg>
