<?xml version="1.0" encoding="UTF-8" standalone="no"?>
<!DOCTYPE svg PUBLIC "-//W3C//DTD SVG 1.1//EN"
 "http://www.w3.org/Graphics/SVG/1.1/DTD/svg11.dtd">
<!-- Generated by graphviz version 2.25.20091207.0545 (20091207.0545)
 -->
<!-- Title: G Pages: 1 -->
<svg width="518pt" height="170pt"
 viewBox="0.00 0.00 518.00 170.00" xmlns="http://www.w3.org/2000/svg" xmlns:xlink="http://www.w3.org/1999/xlink">
<g id="graph1" class="graph" transform="scale(1 1) rotate(0) translate(4 166)">
<title>G</title>
<polygon fill="white" stroke="white" points="-4,5 -4,-166 515,-166 515,5 -4,5"/>
<!-- Node1 -->
<g id="node1" class="node"><title>Node1</title>
<polygon fill="#bfbfbf" stroke="black" points="0,-57.5 0,-76.5 110,-76.5 110,-57.5 0,-57.5"/>
<text text-anchor="middle" x="55" y="-63.5" font-family="Helvetica,sans-Serif" font-size="10.00">VecCon::numOfCons</text>
</g>
<!-- Node2 -->
<g id="node3" class="node"><title>Node2</title>
<a xlink:href="class_vec_con.html#aee24ad1e9f3a8af771bef14cac0bf71d" target="_top" xlink:title="Getter of the from field of the Con objects related to VecCon.">
<polygon fill="white" stroke="black" points="152.5,-123.5 152.5,-142.5 245.5,-142.5 245.5,-123.5 152.5,-123.5"/>
<text text-anchor="middle" x="199" y="-129.5" font-family="Helvetica,sans-Serif" font-size="10.00">VecCon::getFrom</text>
</a>
</g>
<!-- Node1&#45;&gt;Node2 -->
<g id="edge2" class="edge"><title>Node1&#45;&gt;Node2</title>
<path fill="none" stroke="midnightblue" d="M85.2033,-80.8432C113.032,-93.5978 153.603,-112.193 178.036,-123.391"/>
<polygon fill="midnightblue" stroke="midnightblue" points="86.4878,-77.5818 75.9388,-76.597 83.5712,-83.9453 86.4878,-77.5818"/>
</g>
<!-- Node4 -->
<g id="node7" class="node"><title>Node4</title>
<a xlink:href="class_vec_con.html#a03d5dde143e166e68b01c9596573eb5f" target="_top" xlink:title="Getter of the Id values of the vector of Cons.">
<polygon fill="white" stroke="black" points="159.5,-76.5 159.5,-95.5 238.5,-95.5 238.5,-76.5 159.5,-76.5"/>
<text text-anchor="middle" x="199" y="-82.5" font-family="Helvetica,sans-Serif" font-size="10.00">VecCon::getId</text>
</a>
</g>
<!-- Node1&#45;&gt;Node4 -->
<g id="edge6" class="edge"><title>Node1&#45;&gt;Node4</title>
<path fill="none" stroke="midnightblue" d="M120.339,-75.6211C133.634,-77.3753 147.234,-79.1698 159.306,-80.7626"/>
<polygon fill="midnightblue" stroke="midnightblue" points="120.634,-72.1298 110.262,-74.2916 119.719,-79.0697 120.634,-72.1298"/>
</g>
<!-- Node8 -->
<g id="node15" class="node"><title>Node8</title>
<a xlink:href="class_vec_con.html#aafa37c30d566b8784ac84d23a14b5638" target="_top" xlink:title="Getter of the weight field of the Con objects related to VecCon.">
<polygon fill="white" stroke="black" points="148,-38.5 148,-57.5 250,-57.5 250,-38.5 148,-38.5"/>
<text text-anchor="middle" x="199" y="-44.5" font-family="Helvetica,sans-Serif" font-size="10.00">VecCon::getWeight</text>
</a>
</g>
<!-- Node1&#45;&gt;Node8 -->
<g id="edge14" class="edge"><title>Node1&#45;&gt;Node8</title>
<path fill="none" stroke="midnightblue" d="M120.24,-58.3919C129.518,-57.1678 138.946,-55.9238 147.902,-54.7421"/>
<polygon fill="midnightblue" stroke="midnightblue" points="119.719,-54.9303 110.262,-59.7084 120.634,-61.8702 119.719,-54.9303"/>
</g>
<!-- Node10 -->
<g id="node19" class="node"><title>Node10</title>
<a xlink:href="class_neuron.html#ae447dce39ed04581609a83d742b585d1" target="_top" xlink:title="Neuron::numOfCons">
<polygon fill="white" stroke="black" points="146,-0.5 146,-19.5 252,-19.5 252,-0.5 146,-0.5"/>
<text text-anchor="middle" x="199" y="-6.5" font-family="Helvetica,sans-Serif" font-size="10.00">Neuron::numOfCons</text>
</a>
</g>
<!-- Node1&#45;&gt;Node10 -->
<g id="edge18" class="edge"><title>Node1&#45;&gt;Node10</title>
<path fill="none" stroke="midnightblue" d="M86.6113,-53.3304C104.041,-45.9122 126.118,-36.7092 146,-29 154.202,-25.8196 163.188,-22.5271 171.392,-19.5944"/>
<polygon fill="midnightblue" stroke="midnightblue" points="84.7562,-50.3171 76.9379,-57.4672 87.5086,-56.7533 84.7562,-50.3171"/>
</g>
<!-- Node3 -->
<g id="node5" class="node"><title>Node3</title>
<a xlink:href="class_neuron.html#a66e3800037d2789a8fe7b73996c14f84" target="_top" xlink:title="Neuron::getFrom">
<polygon fill="white" stroke="black" points="292,-142.5 292,-161.5 382,-161.5 382,-142.5 292,-142.5"/>
<text text-anchor="middle" x="337" y="-148.5" font-family="Helvetica,sans-Serif" font-size="10.00">Neuron::getFrom</text>
</a>
</g>
<!-- Node2&#45;&gt;Node3 -->
<g id="edge4" class="edge"><title>Node2&#45;&gt;Node3</title>
<path fill="none" stroke="midnightblue" d="M255.658,-140.801C267.674,-142.455 280.205,-144.18 291.73,-145.767"/>
<polygon fill="midnightblue" stroke="midnightblue" points="256.104,-137.329 245.721,-139.433 255.15,-144.264 256.104,-137.329"/>
</g>
<!-- Node5 -->
<g id="node9" class="node"><title>Node5</title>
<a xlink:href="class_neuron.html#aac7d538b4a5087f730ba80f19852bced" target="_top" xlink:title="Neuron::getConId">
<polygon fill="white" stroke="black" points="290.5,-104.5 290.5,-123.5 383.5,-123.5 383.5,-104.5 290.5,-104.5"/>
<text text-anchor="middle" x="337" y="-110.5" font-family="Helvetica,sans-Serif" font-size="10.00">Neuron::getConId</text>
</a>
</g>
<!-- Node4&#45;&gt;Node5 -->
<g id="edge8" class="edge"><title>Node4&#45;&gt;Node5</title>
<path fill="none" stroke="midnightblue" d="M248.636,-96.0711C262.158,-98.8146 276.759,-101.777 290.122,-104.488"/>
<polygon fill="midnightblue" stroke="midnightblue" points="249.042,-92.5821 238.545,-94.0237 247.65,-99.4423 249.042,-92.5821"/>
</g>
<!-- Node6 -->
<g id="node11" class="node"><title>Node6</title>
<a xlink:href="class_vec_con.html#af008396d3982fb7ccf1af9618b89937c" target="_top" xlink:title="Object validator.">
<polygon fill="white" stroke="black" points="291.5,-66.5 291.5,-85.5 382.5,-85.5 382.5,-66.5 291.5,-66.5"/>
<text text-anchor="middle" x="337" y="-72.5" font-family="Helvetica,sans-Serif" font-size="10.00">VecCon::validate</text>
</a>
</g>
<!-- Node4&#45;&gt;Node6 -->
<g id="edge10" class="edge"><title>Node4&#45;&gt;Node6</title>
<path fill="none" stroke="midnightblue" d="M248.841,-82.3883C262.641,-81.3883 277.552,-80.3078 291.115,-79.325"/>
<polygon fill="midnightblue" stroke="midnightblue" points="248.266,-78.9207 238.545,-83.1344 248.772,-85.9024 248.266,-78.9207"/>
</g>
<!-- Node7 -->
<g id="node13" class="node"><title>Node7</title>
<a xlink:href="class_neuron.html#a95327aa80a9ec949491f214a0c159b5a" target="_top" xlink:title="Neuron::validate">
<polygon fill="white" stroke="black" points="422.5,-66.5 422.5,-85.5 509.5,-85.5 509.5,-66.5 422.5,-66.5"/>
<text text-anchor="middle" x="466" y="-72.5" font-family="Helvetica,sans-Serif" font-size="10.00">Neuron::validate</text>
</a>
</g>
<!-- Node6&#45;&gt;Node7 -->
<g id="edge12" class="edge"><title>Node6&#45;&gt;Node7</title>
<path fill="none" stroke="midnightblue" d="M392.991,-76C402.86,-76 413,-76 422.464,-76"/>
<polygon fill="midnightblue" stroke="midnightblue" points="392.844,-72.5001 382.844,-76 392.844,-79.5001 392.844,-72.5001"/>
</g>
<!-- Node9 -->
<g id="node17" class="node"><title>Node9</title>
<a xlink:href="class_neuron.html#a3349c0a2053e35afa5b7036bb816f8c6" target="_top" xlink:title="Neuron::getWeight">
<polygon fill="white" stroke="black" points="288,-28.5 288,-47.5 386,-47.5 386,-28.5 288,-28.5"/>
<text text-anchor="middle" x="337" y="-34.5" font-family="Helvetica,sans-Serif" font-size="10.00">Neuron::getWeight</text>
</a>
</g>
<!-- Node8&#45;&gt;Node9 -->
<g id="edge16" class="edge"><title>Node8&#45;&gt;Node9</title>
<path fill="none" stroke="midnightblue" d="M260.588,-43.5371C269.72,-42.8754 279.028,-42.2009 287.861,-41.5608"/>
<polygon fill="midnightblue" stroke="midnightblue" points="260.107,-40.0627 250.386,-44.2764 260.613,-47.0444 260.107,-40.0627"/>
</g>
</g>
</svg>
