<?xml version="1.0" encoding="UTF-8" standalone="no"?>
<!DOCTYPE svg PUBLIC "-//W3C//DTD SVG 1.1//EN"
 "http://www.w3.org/Graphics/SVG/1.1/DTD/svg11.dtd">
<!-- Generated by graphviz version 2.28.0 (20110610.2051)
 -->
<!-- Title: G Pages: 1 -->
<svg width="214pt" height="440pt"
 viewBox="0.00 0.00 214.00 440.00" xmlns="http://www.w3.org/2000/svg" xmlns:xlink="http://www.w3.org/1999/xlink">
<g id="graph1" class="graph" transform="scale(1 1) rotate(0) translate(4 436)">
<title>G</title>
<polygon fill="white" stroke="white" points="-4,5 -4,-436 211,-436 211,5 -4,5"/>
<!-- Node1 -->
<g id="node1" class="node"><title>Node1</title>
<polygon fill="#bfbfbf" stroke="black" points="-0.5,-1 -0.5,-69 206.5,-69 206.5,-1 -0.5,-1"/>
<text text-anchor="middle" x="103" y="-57" font-family="Helvetica,sans-Serif" font-size="10.00">ADAPTgdwmHiddenNeuronTrainBehavior</text>
<polyline fill="none" stroke="black" points="-0.5,-50 206.5,-50 "/>
<text text-anchor="middle" x="103" y="-38" font-family="Helvetica,sans-Serif" font-size="10.00"> </text>
<polyline fill="none" stroke="black" points="-0.5,-31 206.5,-31 "/>
<text text-anchor="start" x="7.5" y="-19" font-family="Helvetica,sans-Serif" font-size="10.00">&#45; singlePatternBackwardAction()</text>
<text text-anchor="start" x="7.5" y="-8" font-family="Helvetica,sans-Serif" font-size="10.00">&#45; endOfEpochAction()</text>
</g>
<!-- Node2 -->
<g id="node2" class="node"><title>Node2</title>
<a xlink:href="class_a_d_a_p_tgdwm_neuron_train_behavior.html" target="_top" xlink:title="class ADAPTgdwmNeuronTrainBehavior &#45;">
<polygon fill="white" stroke="black" points="16,-107 16,-219 190,-219 190,-107 16,-107"/>
<text text-anchor="middle" x="103" y="-207" font-family="Helvetica,sans-Serif" font-size="10.00">ADAPTgdwmNeuronTrainBehavior</text>
<polyline fill="none" stroke="black" points="16,-200 190,-200 "/>
<text text-anchor="start" x="24" y="-188" font-family="Helvetica,sans-Serif" font-size="10.00"># d_delta</text>
<text text-anchor="start" x="24" y="-177" font-family="Helvetica,sans-Serif" font-size="10.00"># d_learningRate</text>
<text text-anchor="start" x="24" y="-166" font-family="Helvetica,sans-Serif" font-size="10.00"># d_momentum</text>
<text text-anchor="start" x="24" y="-155" font-family="Helvetica,sans-Serif" font-size="10.00"># d_formerWeightChange</text>
<text text-anchor="start" x="24" y="-144" font-family="Helvetica,sans-Serif" font-size="10.00"># d_formerBiasChange</text>
<polyline fill="none" stroke="black" points="16,-137 190,-137 "/>
<text text-anchor="start" x="24" y="-125" font-family="Helvetica,sans-Serif" font-size="10.00">+ singlePatternBackwardAction()</text>
<text text-anchor="start" x="24" y="-114" font-family="Helvetica,sans-Serif" font-size="10.00">+ endOfEpochAction()</text>
</a>
</g>
<!-- Node2&#45;&gt;Node1 -->
<g id="edge2" class="edge"><title>Node2&#45;&gt;Node1</title>
<path fill="none" stroke="midnightblue" d="M103,-96.4612C103,-86.9839 103,-77.5833 103,-69.1192"/>
<polygon fill="none" stroke="midnightblue" points="99.5001,-96.7345 103,-106.735 106.5,-96.7346 99.5001,-96.7345"/>
</g>
<!-- Node3 -->
<g id="node4" class="node"><title>Node3</title>
<a xlink:href="class_adapt_neuron_train_behavior.html" target="_top" xlink:title="class AdaptNeuronTrainBehavior &#45;">
<polygon fill="white" stroke="black" points="18.5,-257 18.5,-325 187.5,-325 187.5,-257 18.5,-257"/>
<text text-anchor="middle" x="103" y="-313" font-family="Helvetica,sans-Serif" font-size="10.00">AdaptNeuronTrainBehavior</text>
<polyline fill="none" stroke="black" points="18.5,-306 187.5,-306 "/>
<text text-anchor="middle" x="103" y="-294" font-family="Helvetica,sans-Serif" font-size="10.00"> </text>
<polyline fill="none" stroke="black" points="18.5,-287 187.5,-287 "/>
<text text-anchor="start" x="26.5" y="-275" font-family="Helvetica,sans-Serif" font-size="10.00">+ singlePatternBackwardAction()</text>
<text text-anchor="start" x="26.5" y="-264" font-family="Helvetica,sans-Serif" font-size="10.00">+ endOfEpochAction()</text>
</a>
</g>
<!-- Node3&#45;&gt;Node2 -->
<g id="edge4" class="edge"><title>Node3&#45;&gt;Node2</title>
<path fill="none" stroke="midnightblue" d="M103,-246.811C103,-237.952 103,-228.511 103,-219.294"/>
<polygon fill="none" stroke="midnightblue" points="99.5001,-246.895 103,-256.895 106.5,-246.895 99.5001,-246.895"/>
</g>
<!-- Node4 -->
<g id="node6" class="node"><title>Node4</title>
<a xlink:href="class_neuron_train_behavior.html" target="_top" xlink:title="class NeuronTrainBehavior &#45;">
<polygon fill="white" stroke="black" points="18.5,-363 18.5,-431 187.5,-431 187.5,-363 18.5,-363"/>
<text text-anchor="middle" x="103" y="-419" font-family="Helvetica,sans-Serif" font-size="10.00">NeuronTrainBehavior</text>
<polyline fill="none" stroke="black" points="18.5,-412 187.5,-412 "/>
<text text-anchor="start" x="26.5" y="-400" font-family="Helvetica,sans-Serif" font-size="10.00"># d_neuron</text>
<polyline fill="none" stroke="black" points="18.5,-393 187.5,-393 "/>
<text text-anchor="start" x="26.5" y="-381" font-family="Helvetica,sans-Serif" font-size="10.00">+ singlePatternBackwardAction()</text>
<text text-anchor="start" x="26.5" y="-370" font-family="Helvetica,sans-Serif" font-size="10.00">+ endOfEpochAction()</text>
</a>
</g>
<!-- Node4&#45;&gt;Node3 -->
<g id="edge6" class="edge"><title>Node4&#45;&gt;Node3</title>
<path fill="none" stroke="midnightblue" d="M103,-352.674C103,-343.502 103,-333.961 103,-325.234"/>
<polygon fill="none" stroke="midnightblue" points="99.5001,-352.808 103,-362.808 106.5,-352.808 99.5001,-352.808"/>
</g>
</g>
</svg>
