<?xml version="1.0" encoding="UTF-8" standalone="no"?>
<!DOCTYPE svg PUBLIC "-//W3C//DTD SVG 1.1//EN"
 "http://www.w3.org/Graphics/SVG/1.1/DTD/svg11.dtd">
<!-- Generated by graphviz version 2.28.0 (20110610.2051)
 -->
<!-- Title: G Pages: 1 -->
<svg width="106pt" height="238pt"
 viewBox="0.00 0.00 106.00 238.00" xmlns="http://www.w3.org/2000/svg" xmlns:xlink="http://www.w3.org/1999/xlink">
<g id="graph1" class="graph" transform="scale(1 1) rotate(0) translate(4 234)">
<title>G</title>
<polygon fill="white" stroke="white" points="-4,5 -4,-234 103,-234 103,5 -4,5"/>
<!-- Node1 -->
<g id="node1" class="node"><title>Node1</title>
<polygon fill="#bfbfbf" stroke="black" points="14,-139 14,-229 84,-229 84,-139 14,-139"/>
<text text-anchor="middle" x="49" y="-217" font-family="Helvetica,sans-Serif" font-size="10.00">Neuron</text>
<polyline fill="none" stroke="black" points="14,-210 84,-210 "/>
<text text-anchor="middle" x="49" y="-198" font-family="Helvetica,sans-Serif" font-size="10.00"> </text>
<polyline fill="none" stroke="black" points="14,-191 84,-191 "/>
<text text-anchor="start" x="22" y="-179" font-family="Helvetica,sans-Serif" font-size="10.00">+ getId()</text>
<text text-anchor="start" x="22" y="-168" font-family="Helvetica,sans-Serif" font-size="10.00">+ setId()</text>
<text text-anchor="start" x="22" y="-157" font-family="Helvetica,sans-Serif" font-size="10.00">+ show()</text>
<text text-anchor="start" x="22" y="-146" font-family="Helvetica,sans-Serif" font-size="10.00">+ validate()</text>
</g>
<!-- Node2 -->
<g id="node3" class="node"><title>Node2</title>
<a xlink:href="class_simple_neuron.html" target="_top" xlink:title="class SimpleNeuron &#45;">
<polygon fill="white" stroke="black" points="-0.5,-0.5 -0.5,-101.5 98.5,-101.5 98.5,-0.5 -0.5,-0.5"/>
<text text-anchor="middle" x="49" y="-89.5" font-family="Helvetica,sans-Serif" font-size="10.00">SimpleNeuron</text>
<polyline fill="none" stroke="black" points="-0.5,-82.5 98.5,-82.5 "/>
<text text-anchor="start" x="7.5" y="-70.5" font-family="Helvetica,sans-Serif" font-size="10.00">&#45; d_Id</text>
<polyline fill="none" stroke="black" points="-0.5,-63.5 98.5,-63.5 "/>
<text text-anchor="start" x="7.5" y="-51.5" font-family="Helvetica,sans-Serif" font-size="10.00">+ SimpleNeuron()</text>
<text text-anchor="start" x="7.5" y="-40.5" font-family="Helvetica,sans-Serif" font-size="10.00">+ getId()</text>
<text text-anchor="start" x="7.5" y="-29.5" font-family="Helvetica,sans-Serif" font-size="10.00">+ setId()</text>
<text text-anchor="start" x="7.5" y="-18.5" font-family="Helvetica,sans-Serif" font-size="10.00">+ show()</text>
<text text-anchor="start" x="7.5" y="-7.5" font-family="Helvetica,sans-Serif" font-size="10.00">+ validate()</text>
</a>
</g>
<!-- Node1&#45;&gt;Node2 -->
<g id="edge2" class="edge"><title>Node1&#45;&gt;Node2</title>
<path fill="none" stroke="midnightblue" d="M49,-128.422C49,-119.569 49,-110.442 49,-101.712"/>
<polygon fill="none" stroke="midnightblue" points="45.5001,-128.649 49,-138.649 52.5001,-128.649 45.5001,-128.649"/>
</g>
</g>
</svg>
