<?xml version="1.0" encoding="UTF-8" standalone="no"?>
<!DOCTYPE svg PUBLIC "-//W3C//DTD SVG 1.1//EN"
 "http://www.w3.org/Graphics/SVG/1.1/DTD/svg11.dtd">
<!-- Generated by graphviz version 2.25.20091207.0545 (20091207.0545)
 -->
<!-- Title: G Pages: 1 -->
<svg width="256pt" height="104pt"
 viewBox="0.00 0.00 256.00 104.00" xmlns="http://www.w3.org/2000/svg" xmlns:xlink="http://www.w3.org/1999/xlink">
<g id="graph1" class="graph" transform="scale(1 1) rotate(0) translate(4 100)">
<title>G</title>
<polygon fill="white" stroke="white" points="-4,5 -4,-100 253,-100 253,5 -4,5"/>
<!-- Node1 -->
<g id="node1" class="node"><title>Node1</title>
<polygon fill="#bfbfbf" stroke="black" points="0.5,-19.5 0.5,-38.5 93.5,-38.5 93.5,-19.5 0.5,-19.5"/>
<text text-anchor="middle" x="47" y="-25.5" font-family="Helvetica,sans-Serif" font-size="10.00">VecCon::setFrom</text>
</g>
<!-- Node2 -->
<g id="node3" class="node"><title>Node2</title>
<a xlink:href="class_container.html#ac5e2a75311f6e6a690ca67603490ddb1" target="_top" xlink:title="Container::begin">
<polygon fill="white" stroke="black" points="145.5,-76.5 145.5,-95.5 232.5,-95.5 232.5,-76.5 145.5,-76.5"/>
<text text-anchor="middle" x="189" y="-82.5" font-family="Helvetica,sans-Serif" font-size="10.00">Container::begin</text>
</a>
</g>
<!-- Node1&#45;&gt;Node2 -->
<g id="edge2" class="edge"><title>Node1&#45;&gt;Node2</title>
<path fill="none" stroke="midnightblue" d="M66.1767,-38.5616C82.824,-46.6723 107.693,-58.3363 130,-67 135.527,-69.1464 141.407,-71.2489 147.233,-73.227"/>
<polygon fill="midnightblue" stroke="midnightblue" points="146.321,-76.6118 156.914,-76.4244 148.516,-69.9649 146.321,-76.6118"/>
</g>
<!-- Node3 -->
<g id="node5" class="node"><title>Node3</title>
<a xlink:href="class_container.html#ab8e09c25f519687468ef5b9f0fae9b3e" target="_top" xlink:title="Container::empty">
<polygon fill="white" stroke="black" points="143.5,-38.5 143.5,-57.5 234.5,-57.5 234.5,-38.5 143.5,-38.5"/>
<text text-anchor="middle" x="189" y="-44.5" font-family="Helvetica,sans-Serif" font-size="10.00">Container::empty</text>
</a>
</g>
<!-- Node1&#45;&gt;Node3 -->
<g id="edge4" class="edge"><title>Node1&#45;&gt;Node3</title>
<path fill="none" stroke="midnightblue" d="M93.8897,-35.274C106.383,-36.9457 120.007,-38.7686 132.939,-40.4989"/>
<polygon fill="midnightblue" stroke="midnightblue" points="132.751,-44.0048 143.126,-41.862 133.679,-37.0666 132.751,-44.0048"/>
</g>
<!-- Node4 -->
<g id="node7" class="node"><title>Node4</title>
<a xlink:href="class_container.html#a842c3d9eca81b78b59112fde9707b091" target="_top" xlink:title="Container\&lt; Con \&gt;::size">
<polygon fill="white" stroke="black" points="130,-0.5 130,-19.5 248,-19.5 248,-0.5 130,-0.5"/>
<text text-anchor="middle" x="189" y="-6.5" font-family="Helvetica,sans-Serif" font-size="10.00">Container&lt; Con &gt;::size</text>
</a>
</g>
<!-- Node1&#45;&gt;Node4 -->
<g id="edge6" class="edge"><title>Node1&#45;&gt;Node4</title>
<path fill="none" stroke="midnightblue" d="M76.4225,-19.4705C89.0838,-16.9743 104.469,-14.5306 119.746,-12.5182"/>
<polygon fill="midnightblue" stroke="midnightblue" points="120.255,-15.9819 129.74,-11.2618 119.382,-9.03654 120.255,-15.9819"/>
</g>
<!-- Node1&#45;&gt;Node4 -->
<g id="edge8" class="edge"><title>Node1&#45;&gt;Node4</title>
<path fill="none" stroke="midnightblue" d="M93.8897,-29.1175C111.819,-27.2717 132.075,-24.4744 149.273,-21.4463"/>
<polygon fill="midnightblue" stroke="midnightblue" points="150.346,-24.8069 159.537,-19.5375 149.066,-17.9249 150.346,-24.8069"/>
</g>
</g>
</svg>
