<?xml version="1.0" encoding="UTF-8" standalone="no"?>
<!DOCTYPE svg PUBLIC "-//W3C//DTD SVG 1.1//EN"
 "http://www.w3.org/Graphics/SVG/1.1/DTD/svg11.dtd">
<!-- Generated by graphviz version 2.28.0 (20110610.2051)
 -->
<!-- Title: G Pages: 1 -->
<svg width="290pt" height="260pt"
 viewBox="0.00 0.00 290.00 260.00" xmlns="http://www.w3.org/2000/svg" xmlns:xlink="http://www.w3.org/1999/xlink">
<g id="graph1" class="graph" transform="scale(1 1) rotate(0) translate(4 256)">
<title>G</title>
<polygon fill="white" stroke="white" points="-4,5 -4,-256 287,-256 287,5 -4,5"/>
<!-- Node1 -->
<g id="node1" class="node"><title>Node1</title>
<polygon fill="#bfbfbf" stroke="black" points="73.5,-150.5 73.5,-251.5 208.5,-251.5 208.5,-150.5 73.5,-150.5"/>
<text text-anchor="middle" x="141" y="-239.5" font-family="Helvetica,sans-Serif" font-size="10.00">NeuralFactory</text>
<polyline fill="none" stroke="black" points="73.5,-232.5 208.5,-232.5 "/>
<text text-anchor="middle" x="141" y="-220.5" font-family="Helvetica,sans-Serif" font-size="10.00"> </text>
<polyline fill="none" stroke="black" points="73.5,-213.5 208.5,-213.5 "/>
<text text-anchor="start" x="81.5" y="-201.5" font-family="Helvetica,sans-Serif" font-size="10.00">+ makeCon()</text>
<text text-anchor="start" x="81.5" y="-190.5" font-family="Helvetica,sans-Serif" font-size="10.00">+ makeCon()</text>
<text text-anchor="start" x="81.5" y="-179.5" font-family="Helvetica,sans-Serif" font-size="10.00">+ makeConContainer()</text>
<text text-anchor="start" x="81.5" y="-168.5" font-family="Helvetica,sans-Serif" font-size="10.00">+ makeNeuronContainer()</text>
<text text-anchor="start" x="81.5" y="-157.5" font-family="Helvetica,sans-Serif" font-size="10.00">+ makeNeuron()</text>
</g>
<!-- Node2 -->
<g id="node3" class="node"><title>Node2</title>
<a xlink:href="class_m_l_pfactory.html" target="_top" xlink:title="class MLPfactory &#45;">
<polygon fill="white" stroke="black" points="0,-1 0,-113 132,-113 132,-1 0,-1"/>
<text text-anchor="middle" x="66" y="-101" font-family="Helvetica,sans-Serif" font-size="10.00">MLPfactory</text>
<polyline fill="none" stroke="black" points="0,-94 132,-94 "/>
<text text-anchor="middle" x="66" y="-82" font-family="Helvetica,sans-Serif" font-size="10.00"> </text>
<polyline fill="none" stroke="black" points="0,-75 132,-75 "/>
<text text-anchor="start" x="8" y="-63" font-family="Helvetica,sans-Serif" font-size="10.00">+ MLPfactory()</text>
<text text-anchor="start" x="8" y="-52" font-family="Helvetica,sans-Serif" font-size="10.00">&#45; makeCon()</text>
<text text-anchor="start" x="8" y="-41" font-family="Helvetica,sans-Serif" font-size="10.00">&#45; makeCon()</text>
<text text-anchor="start" x="8" y="-30" font-family="Helvetica,sans-Serif" font-size="10.00">&#45; makeConContainer()</text>
<text text-anchor="start" x="8" y="-19" font-family="Helvetica,sans-Serif" font-size="10.00">&#45; makeNeuronContainer()</text>
<text text-anchor="start" x="8" y="-8" font-family="Helvetica,sans-Serif" font-size="10.00">&#45; makeNeuron()</text>
</a>
</g>
<!-- Node1&#45;&gt;Node2 -->
<g id="edge2" class="edge"><title>Node1&#45;&gt;Node2</title>
<path fill="none" stroke="midnightblue" d="M110.093,-141.483C105.154,-132.132 100.058,-122.483 95.1614,-113.212"/>
<polygon fill="none" stroke="midnightblue" points="107.003,-143.127 114.769,-150.335 113.193,-139.858 107.003,-143.127"/>
</g>
<!-- Node3 -->
<g id="node5" class="node"><title>Node3</title>
<a xlink:href="class_r_b_ffactory.html" target="_top" xlink:title="class RBFfactory &#45;">
<polygon fill="white" stroke="black" points="150,-1 150,-113 282,-113 282,-1 150,-1"/>
<text text-anchor="middle" x="216" y="-101" font-family="Helvetica,sans-Serif" font-size="10.00">RBFfactory</text>
<polyline fill="none" stroke="black" points="150,-94 282,-94 "/>
<text text-anchor="middle" x="216" y="-82" font-family="Helvetica,sans-Serif" font-size="10.00"> </text>
<polyline fill="none" stroke="black" points="150,-75 282,-75 "/>
<text text-anchor="start" x="158" y="-63" font-family="Helvetica,sans-Serif" font-size="10.00">+ RBFfactory()</text>
<text text-anchor="start" x="158" y="-52" font-family="Helvetica,sans-Serif" font-size="10.00">&#45; makeCon()</text>
<text text-anchor="start" x="158" y="-41" font-family="Helvetica,sans-Serif" font-size="10.00">&#45; makeCon()</text>
<text text-anchor="start" x="158" y="-30" font-family="Helvetica,sans-Serif" font-size="10.00">&#45; makeConContainer()</text>
<text text-anchor="start" x="158" y="-19" font-family="Helvetica,sans-Serif" font-size="10.00">&#45; makeNeuronContainer()</text>
<text text-anchor="start" x="158" y="-8" font-family="Helvetica,sans-Serif" font-size="10.00">&#45; makeNeuron()</text>
</a>
</g>
<!-- Node1&#45;&gt;Node3 -->
<g id="edge4" class="edge"><title>Node1&#45;&gt;Node3</title>
<path fill="none" stroke="midnightblue" d="M171.907,-141.483C176.846,-132.132 181.942,-122.483 186.839,-113.212"/>
<polygon fill="none" stroke="midnightblue" points="168.807,-139.858 167.231,-150.335 174.997,-143.127 168.807,-139.858"/>
</g>
</g>
</svg>
