<?xml version="1.0" encoding="UTF-8" standalone="no"?>
<!DOCTYPE svg PUBLIC "-//W3C//DTD SVG 1.1//EN"
 "http://www.w3.org/Graphics/SVG/1.1/DTD/svg11.dtd">
<!-- Generated by graphviz version 2.28.0 (20110610.2051)
 -->
<!-- Title: G Pages: 1 -->
<svg width="90pt" height="194pt"
 viewBox="0.00 0.00 90.00 194.00" xmlns="http://www.w3.org/2000/svg" xmlns:xlink="http://www.w3.org/1999/xlink">
<g id="graph1" class="graph" transform="scale(1 1) rotate(0) translate(4 190)">
<title>G</title>
<polygon fill="white" stroke="white" points="-4,5 -4,-190 87,-190 87,5 -4,5"/>
<!-- Node1 -->
<g id="node1" class="node"><title>Node1</title>
<polygon fill="#bfbfbf" stroke="black" points="0,-1 0,-69 82,-69 82,-1 0,-1"/>
<text text-anchor="middle" x="41" y="-57" font-family="Helvetica,sans-Serif" font-size="10.00">RBFneuralNet</text>
<polyline fill="none" stroke="black" points="0,-50 82,-50 "/>
<text text-anchor="start" x="8" y="-38" font-family="Helvetica,sans-Serif" font-size="10.00"># nLayers</text>
<polyline fill="none" stroke="black" points="0,-31 82,-31 "/>
<text text-anchor="start" x="8" y="-19" font-family="Helvetica,sans-Serif" font-size="10.00">+ show()</text>
<text text-anchor="start" x="8" y="-8" font-family="Helvetica,sans-Serif" font-size="10.00">+ validate()</text>
</g>
<!-- Node2 -->
<g id="node2" class="node"><title>Node2</title>
<a xlink:href="class_neural_net.html" target="_top" xlink:title="class NeuralNet &#45;">
<polygon fill="white" stroke="black" points="6,-106.5 6,-185.5 76,-185.5 76,-106.5 6,-106.5"/>
<text text-anchor="middle" x="41" y="-173.5" font-family="Helvetica,sans-Serif" font-size="10.00">NeuralNet</text>
<polyline fill="none" stroke="black" points="6,-166.5 76,-166.5 "/>
<text text-anchor="middle" x="41" y="-154.5" font-family="Helvetica,sans-Serif" font-size="10.00"> </text>
<polyline fill="none" stroke="black" points="6,-147.5 76,-147.5 "/>
<text text-anchor="start" x="14" y="-135.5" font-family="Helvetica,sans-Serif" font-size="10.00">+ show()</text>
<text text-anchor="start" x="14" y="-124.5" font-family="Helvetica,sans-Serif" font-size="10.00">+ validate()</text>
<text text-anchor="start" x="14" y="-113.5" font-family="Helvetica,sans-Serif" font-size="10.00">+ train()</text>
</a>
</g>
<!-- Node2&#45;&gt;Node1 -->
<g id="edge2" class="edge"><title>Node2&#45;&gt;Node1</title>
<path fill="none" stroke="midnightblue" d="M34.2821,-96.125C34.1779,-87.0164 34.3275,-77.6961 34.731,-69.1962"/>
<polygon fill="none" stroke="midnightblue" points="30.786,-96.3441 34.5075,-106.264 37.7842,-96.1884 30.786,-96.3441"/>
</g>
<!-- Node2&#45;&gt;Node1 -->
<g id="edge4" class="edge"><title>Node2&#45;&gt;Node1</title>
<path fill="none" stroke="midnightblue" d="M47.7179,-96.125C47.8221,-87.0164 47.6725,-77.6961 47.269,-69.1962"/>
<polygon fill="none" stroke="midnightblue" points="44.2158,-96.1884 47.4925,-106.264 51.214,-96.3441 44.2158,-96.1884"/>
</g>
</g>
</svg>
