<?xml version="1.0" encoding="UTF-8" standalone="no"?>
<!DOCTYPE svg PUBLIC "-//W3C//DTD SVG 1.1//EN"
 "http://www.w3.org/Graphics/SVG/1.1/DTD/svg11.dtd">
<!-- Generated by graphviz version 2.25.20091207.0545 (20091207.0545)
 -->
<!-- Title: G Pages: 1 -->
<svg width="404pt" height="104pt"
 viewBox="0.00 0.00 404.00 104.00" xmlns="http://www.w3.org/2000/svg" xmlns:xlink="http://www.w3.org/1999/xlink">
<g id="graph1" class="graph" transform="scale(1 1) rotate(0) translate(4 100)">
<title>G</title>
<polygon fill="white" stroke="white" points="-4,5 -4,-100 401,-100 401,5 -4,5"/>
<!-- Node1 -->
<g id="node1" class="node"><title>Node1</title>
<polygon fill="#bfbfbf" stroke="black" points="0.5,-38.5 0.5,-57.5 93.5,-57.5 93.5,-38.5 0.5,-38.5"/>
<text text-anchor="middle" x="47" y="-44.5" font-family="Helvetica,sans-Serif" font-size="10.00">VecCon::getFrom</text>
</g>
<!-- Node2 -->
<g id="node3" class="node"><title>Node2</title>
<a xlink:href="class_vec_con.html#aa9a397520b07fbeead0b6d252c1ea882" target="_top" xlink:title="Size of the VecCon object.">
<polygon fill="white" stroke="black" points="131,-76.5 131,-95.5 241,-95.5 241,-76.5 131,-76.5"/>
<text text-anchor="middle" x="186" y="-82.5" font-family="Helvetica,sans-Serif" font-size="10.00">VecCon::numOfCons</text>
</a>
</g>
<!-- Node1&#45;&gt;Node2 -->
<g id="edge2" class="edge"><title>Node1&#45;&gt;Node2</title>
<path fill="none" stroke="midnightblue" d="M82.0756,-57.589C100.019,-62.4944 122.058,-68.5196 141.217,-73.7571"/>
<polygon fill="midnightblue" stroke="midnightblue" points="140.367,-77.1531 150.936,-76.4141 142.213,-70.4008 140.367,-77.1531"/>
</g>
<!-- Node4 -->
<g id="node7" class="node"><title>Node4</title>
<a xlink:href="class_container.html#afd87c69cb799ed7b434c29090083a285" target="_top" xlink:title="Append a shared_ptr at the end of collection.">
<polygon fill="white" stroke="black" points="130.5,-38.5 130.5,-57.5 241.5,-57.5 241.5,-38.5 130.5,-38.5"/>
<text text-anchor="middle" x="186" y="-44.5" font-family="Helvetica,sans-Serif" font-size="10.00">Container::push_back</text>
</a>
</g>
<!-- Node1&#45;&gt;Node4 -->
<g id="edge6" class="edge"><title>Node1&#45;&gt;Node4</title>
<path fill="none" stroke="midnightblue" d="M93.6717,-48C102.061,-48 110.95,-48 119.769,-48"/>
<polygon fill="midnightblue" stroke="midnightblue" points="120.055,-51.5001 130.055,-48 120.055,-44.5001 120.055,-51.5001"/>
</g>
<!-- Node5 -->
<g id="node9" class="node"><title>Node5</title>
<a xlink:href="class_container.html#aa3cbae68ebeed649c52eb3805a30fb75" target="_top" xlink:title="Container::reserve">
<polygon fill="white" stroke="black" points="138,-0.5 138,-19.5 234,-19.5 234,-0.5 138,-0.5"/>
<text text-anchor="middle" x="186" y="-6.5" font-family="Helvetica,sans-Serif" font-size="10.00">Container::reserve</text>
</a>
</g>
<!-- Node1&#45;&gt;Node5 -->
<g id="edge8" class="edge"><title>Node1&#45;&gt;Node5</title>
<path fill="none" stroke="midnightblue" d="M82.0756,-38.411C100.019,-33.5056 122.058,-27.4804 141.217,-22.2429"/>
<polygon fill="midnightblue" stroke="midnightblue" points="142.213,-25.5992 150.936,-19.5859 140.367,-18.8469 142.213,-25.5992"/>
</g>
<!-- Node3 -->
<g id="node5" class="node"><title>Node3</title>
<a xlink:href="class_container.html#a842c3d9eca81b78b59112fde9707b091" target="_top" xlink:title="Container\&lt; Con \&gt;::size">
<polygon fill="white" stroke="black" points="278,-76.5 278,-95.5 396,-95.5 396,-76.5 278,-76.5"/>
<text text-anchor="middle" x="337" y="-82.5" font-family="Helvetica,sans-Serif" font-size="10.00">Container&lt; Con &gt;::size</text>
</a>
</g>
<!-- Node2&#45;&gt;Node3 -->
<g id="edge4" class="edge"><title>Node2&#45;&gt;Node3</title>
<path fill="none" stroke="midnightblue" d="M241.369,-86C249.9,-86 258.8,-86 267.589,-86"/>
<polygon fill="midnightblue" stroke="midnightblue" points="267.827,-89.5001 277.827,-86 267.827,-82.5001 267.827,-89.5001"/>
</g>
</g>
</svg>
