<?xml version="1.0" encoding="UTF-8" standalone="no"?>
<!DOCTYPE svg PUBLIC "-//W3C//DTD SVG 1.1//EN"
 "http://www.w3.org/Graphics/SVG/1.1/DTD/svg11.dtd">
<!-- Generated by graphviz version 2.25.20091207.0545 (20091207.0545)
 -->
<!-- Title: G Pages: 1 -->
<svg width="369pt" height="884pt"
 viewBox="0.00 0.00 369.00 884.00" xmlns="http://www.w3.org/2000/svg" xmlns:xlink="http://www.w3.org/1999/xlink">
<g id="graph1" class="graph" transform="scale(1 1) rotate(0) translate(4 880)">
<title>G</title>
<polygon fill="white" stroke="white" points="-4,5 -4,-880 366,-880 366,5 -4,5"/>
<!-- Node1 -->
<g id="node1" class="node"><title>Node1</title>
<polygon fill="#bfbfbf" stroke="black" points="107,-0.5 107,-57.5 209,-57.5 209,-0.5 107,-0.5"/>
<text text-anchor="middle" x="158" y="-44.5" font-family="Helvetica,sans-Serif" font-size="10.00">vecMLPneuron</text>
<polyline fill="none" stroke="black" points="107,-38.5 209,-38.5 "/>
<text text-anchor="middle" x="158" y="-25.5" font-family="Helvetica,sans-Serif" font-size="10.00"> </text>
<polyline fill="none" stroke="black" points="107,-19.5 209,-19.5 "/>
<text text-anchor="start" x="115" y="-6.5" font-family="Helvetica,sans-Serif" font-size="10.00">+ buildAndAppend()</text>
</g>
<!-- Node2 -->
<g id="node2" class="node"><title>Node2</title>
<a xlink:href="classvec_neuron.html" target="_top" xlink:title="A vector of neurons.">
<polygon fill="white" stroke="black" points="126.5,-96.5 126.5,-153.5 189.5,-153.5 189.5,-96.5 126.5,-96.5"/>
<text text-anchor="middle" x="158" y="-140.5" font-family="Helvetica,sans-Serif" font-size="10.00">vecNeuron</text>
<polyline fill="none" stroke="black" points="126.5,-134.5 189.5,-134.5 "/>
<text text-anchor="middle" x="158" y="-121.5" font-family="Helvetica,sans-Serif" font-size="10.00"> </text>
<polyline fill="none" stroke="black" points="126.5,-115.5 189.5,-115.5 "/>
<text text-anchor="middle" x="158" y="-102.5" font-family="Helvetica,sans-Serif" font-size="10.00"> </text>
</a>
</g>
<!-- Node2&#45;&gt;Node1 -->
<g id="edge2" class="edge"><title>Node2&#45;&gt;Node1</title>
<path fill="none" stroke="midnightblue" d="M158,-86.3234C158,-76.7274 158,-66.6143 158,-57.599"/>
<polygon fill="none" stroke="midnightblue" points="154.5,-86.4567 158,-96.4568 161.5,-86.4568 154.5,-86.4567"/>
</g>
<!-- Node3 -->
<g id="node4" class="node"><title>Node3</title>
<a xlink:href="classvec_a_m_o_r_e.html" target="_top" xlink:title="{Container\&lt; Neuron \&gt;\n|# ldata\l|+ getLdata()\l+ setLdata()\l+ size()\l+ push_back()\l+ append()\l+ show()\l+ validate()\l+ reserve()\l}">
<polygon fill="white" stroke="black" points="99,-193 99,-327 217,-327 217,-193 99,-193"/>
<text text-anchor="middle" x="158" y="-314" font-family="Helvetica,sans-Serif" font-size="10.00">Container&lt; Neuron &gt;</text>
<polyline fill="none" stroke="black" points="99,-308 217,-308 "/>
<text text-anchor="start" x="107" y="-295" font-family="Helvetica,sans-Serif" font-size="10.00"># ldata</text>
<polyline fill="none" stroke="black" points="99,-289 217,-289 "/>
<text text-anchor="start" x="107" y="-276" font-family="Helvetica,sans-Serif" font-size="10.00">+ getLdata()</text>
<text text-anchor="start" x="107" y="-265" font-family="Helvetica,sans-Serif" font-size="10.00">+ setLdata()</text>
<text text-anchor="start" x="107" y="-254" font-family="Helvetica,sans-Serif" font-size="10.00">+ size()</text>
<text text-anchor="start" x="107" y="-243" font-family="Helvetica,sans-Serif" font-size="10.00">+ push_back()</text>
<text text-anchor="start" x="107" y="-232" font-family="Helvetica,sans-Serif" font-size="10.00">+ append()</text>
<text text-anchor="start" x="107" y="-221" font-family="Helvetica,sans-Serif" font-size="10.00">+ show()</text>
<text text-anchor="start" x="107" y="-210" font-family="Helvetica,sans-Serif" font-size="10.00">+ validate()</text>
<text text-anchor="start" x="107" y="-199" font-family="Helvetica,sans-Serif" font-size="10.00">+ reserve()</text>
</a>
</g>
<!-- Node3&#45;&gt;Node2 -->
<g id="edge4" class="edge"><title>Node3&#45;&gt;Node2</title>
<path fill="none" stroke="midnightblue" d="M158,-182.604C158,-172.38 158,-162.465 158,-153.826"/>
<polygon fill="none" stroke="midnightblue" points="154.5,-182.895 158,-192.896 161.5,-182.896 154.5,-182.895"/>
</g>
<!-- Node4 -->
<g id="node6" class="node"><title>Node4</title>
<polygon fill="white" stroke="#bfbfbf" points="0,-530.5 0,-587.5 206,-587.5 206,-530.5 0,-530.5"/>
<text text-anchor="middle" x="103" y="-574.5" font-family="Helvetica,sans-Serif" font-size="10.00">std::vector&lt; boost::shared_ptr&lt; Neuron &gt; &gt;</text>
<polyline fill="none" stroke="#bfbfbf" points="0,-568.5 206,-568.5 "/>
<text text-anchor="start" x="8" y="-555.5" font-family="Helvetica,sans-Serif" font-size="10.00">&#45; elements</text>
<polyline fill="none" stroke="#bfbfbf" points="0,-549.5 206,-549.5 "/>
<text text-anchor="middle" x="103" y="-536.5" font-family="Helvetica,sans-Serif" font-size="10.00"> </text>
</g>
<!-- Node4&#45;&gt;Node3 -->
<g id="edge6" class="edge"><title>Node4&#45;&gt;Node3</title>
<path fill="none" stroke="#9a32cd" stroke-dasharray="5,2" d="M110.086,-520.477C119.073,-471.624 134.715,-386.587 145.675,-327.003"/>
<polygon fill="#9a32cd" stroke="#9a32cd" points="108.274,-530.331 105.657,-519.681 109.178,-525.413 110.083,-520.496 110.083,-520.496 110.083,-520.496 109.178,-525.413 114.509,-521.31 108.274,-530.331 108.274,-530.331"/>
<text text-anchor="middle" x="147.5" y="-440.5" font-family="Helvetica,sans-Serif" font-size="10.00">ldata</text>
</g>
<!-- Node5 -->
<g id="node8" class="node"><title>Node5</title>
<a xlink:title="STL class.">
<polygon fill="white" stroke="#bfbfbf" points="132.5,-712.5 132.5,-769.5 219.5,-769.5 219.5,-712.5 132.5,-712.5"/>
<text text-anchor="middle" x="176" y="-756.5" font-family="Helvetica,sans-Serif" font-size="10.00">std::vector&lt; T &gt;</text>
<polyline fill="none" stroke="#bfbfbf" points="132.5,-750.5 219.5,-750.5 "/>
<text text-anchor="start" x="140.5" y="-737.5" font-family="Helvetica,sans-Serif" font-size="10.00">&#45; elements</text>
<polyline fill="none" stroke="#bfbfbf" points="132.5,-731.5 219.5,-731.5 "/>
<text text-anchor="middle" x="176" y="-718.5" font-family="Helvetica,sans-Serif" font-size="10.00"> </text>
</a>
</g>
<!-- Node5&#45;&gt;Node4 -->
<g id="edge8" class="edge"><title>Node5&#45;&gt;Node4</title>
<path fill="none" stroke="orange" stroke-dasharray="5,2" d="M123.256,-723.422C110.116,-716.402 97.6162,-706.842 90,-694 70.6621,-661.394 80.7895,-616.405 90.9689,-587.504"/>
<polygon fill="orange" stroke="orange" points="121.881,-726.645 132.403,-727.885 124.95,-720.354 121.881,-726.645"/>
<text text-anchor="middle" x="161.5" y="-684.5" font-family="Helvetica,sans-Serif" font-size="10.00">&lt; boost::shared_ptr&lt; Neuron &gt; &gt;</text>
</g>
<!-- Node8 -->
<g id="node14" class="node"><title>Node8</title>
<polygon fill="white" stroke="#bfbfbf" points="164,-606.5 164,-663.5 344,-663.5 344,-606.5 164,-606.5"/>
<text text-anchor="middle" x="254" y="-650.5" font-family="Helvetica,sans-Serif" font-size="10.00">std::vector&lt; boost::shared_ptr&lt; T &gt; &gt;</text>
<polyline fill="none" stroke="#bfbfbf" points="164,-644.5 344,-644.5 "/>
<text text-anchor="start" x="172" y="-631.5" font-family="Helvetica,sans-Serif" font-size="10.00">&#45; elements</text>
<polyline fill="none" stroke="#bfbfbf" points="164,-625.5 344,-625.5 "/>
<text text-anchor="middle" x="254" y="-612.5" font-family="Helvetica,sans-Serif" font-size="10.00"> </text>
</g>
<!-- Node5&#45;&gt;Node8 -->
<g id="edge16" class="edge"><title>Node5&#45;&gt;Node8</title>
<path fill="none" stroke="orange" stroke-dasharray="5,2" d="M227.038,-706.053C230.72,-702.271 234.113,-698.244 237,-694 243.116,-685.01 247.057,-673.818 249.586,-663.605"/>
<polygon fill="orange" stroke="orange" points="224.531,-703.605 219.657,-713.012 229.334,-708.698 224.531,-703.605"/>
<text text-anchor="middle" x="302" y="-684.5" font-family="Helvetica,sans-Serif" font-size="10.00">&lt; boost::shared_ptr&lt; T &gt; &gt;</text>
</g>
<!-- Node6 -->
<g id="node10" class="node"><title>Node6</title>
<polygon fill="white" stroke="#bfbfbf" points="161.5,-818.5 161.5,-875.5 190.5,-875.5 190.5,-818.5 161.5,-818.5"/>
<text text-anchor="middle" x="176" y="-862.5" font-family="Helvetica,sans-Serif" font-size="10.00">T</text>
<polyline fill="none" stroke="#bfbfbf" points="161.5,-856.5 190.5,-856.5 "/>
<text text-anchor="middle" x="176" y="-843.5" font-family="Helvetica,sans-Serif" font-size="10.00"> </text>
<polyline fill="none" stroke="#bfbfbf" points="161.5,-837.5 190.5,-837.5 "/>
<text text-anchor="middle" x="176" y="-824.5" font-family="Helvetica,sans-Serif" font-size="10.00"> </text>
</g>
<!-- Node6&#45;&gt;Node5 -->
<g id="edge10" class="edge"><title>Node6&#45;&gt;Node5</title>
<path fill="none" stroke="#9a32cd" stroke-dasharray="5,2" d="M176,-808.005C176,-795.326 176,-781.494 176,-769.708"/>
<polygon fill="#9a32cd" stroke="#9a32cd" points="176,-818.315 171.5,-808.315 176,-813.315 176,-808.315 176,-808.315 176,-808.315 176,-813.315 180.5,-808.315 176,-818.315 176,-818.315"/>
<text text-anchor="middle" x="196" y="-790.5" font-family="Helvetica,sans-Serif" font-size="10.00">elements</text>
</g>
<!-- Node7 -->
<g id="node12" class="node"><title>Node7</title>
<a xlink:href="classvec_a_m_o_r_e.html" target="_top" xlink:title="{Container\&lt; T \&gt;\n|# ldata\l|+ getLdata()\l+ setLdata()\l+ size()\l+ push_back()\l+ append()\l+ show()\l+ validate()\l+ reserve()\l}">
<polygon fill="white" stroke="black" points="175.5,-377 175.5,-511 268.5,-511 268.5,-377 175.5,-377"/>
<text text-anchor="middle" x="222" y="-498" font-family="Helvetica,sans-Serif" font-size="10.00">Container&lt; T &gt;</text>
<polyline fill="none" stroke="black" points="175.5,-492 268.5,-492 "/>
<text text-anchor="start" x="183.5" y="-479" font-family="Helvetica,sans-Serif" font-size="10.00"># ldata</text>
<polyline fill="none" stroke="black" points="175.5,-473 268.5,-473 "/>
<text text-anchor="start" x="183.5" y="-460" font-family="Helvetica,sans-Serif" font-size="10.00">+ getLdata()</text>
<text text-anchor="start" x="183.5" y="-449" font-family="Helvetica,sans-Serif" font-size="10.00">+ setLdata()</text>
<text text-anchor="start" x="183.5" y="-438" font-family="Helvetica,sans-Serif" font-size="10.00">+ size()</text>
<text text-anchor="start" x="183.5" y="-427" font-family="Helvetica,sans-Serif" font-size="10.00">+ push_back()</text>
<text text-anchor="start" x="183.5" y="-416" font-family="Helvetica,sans-Serif" font-size="10.00">+ append()</text>
<text text-anchor="start" x="183.5" y="-405" font-family="Helvetica,sans-Serif" font-size="10.00">+ show()</text>
<text text-anchor="start" x="183.5" y="-394" font-family="Helvetica,sans-Serif" font-size="10.00">+ validate()</text>
<text text-anchor="start" x="183.5" y="-383" font-family="Helvetica,sans-Serif" font-size="10.00">+ reserve()</text>
</a>
</g>
<!-- Node7&#45;&gt;Node3 -->
<g id="edge12" class="edge"><title>Node7&#45;&gt;Node3</title>
<path fill="none" stroke="orange" stroke-dasharray="5,2" d="M195.279,-367.176C190.641,-353.843 185.851,-340.073 181.314,-327.027"/>
<polygon fill="orange" stroke="orange" points="192.032,-368.496 198.623,-376.791 198.643,-366.196 192.032,-368.496"/>
<text text-anchor="middle" x="216" y="-348.5" font-family="Helvetica,sans-Serif" font-size="10.00">&lt; Neuron &gt;</text>
</g>
<!-- Node8&#45;&gt;Node7 -->
<g id="edge14" class="edge"><title>Node8&#45;&gt;Node7</title>
<path fill="none" stroke="#9a32cd" stroke-dasharray="5,2" d="M247.542,-596.454C243.451,-572.038 238.049,-539.795 233.267,-511.252"/>
<polygon fill="#9a32cd" stroke="#9a32cd" points="249.209,-606.405 243.119,-597.286 248.383,-601.474 247.557,-596.543 247.557,-596.543 247.557,-596.543 248.383,-601.474 251.995,-595.799 249.209,-606.405 249.209,-606.405"/>
<text text-anchor="middle" x="255.5" y="-555.5" font-family="Helvetica,sans-Serif" font-size="10.00">ldata</text>
</g>
</g>
</svg>
