<?xml version="1.0" encoding="UTF-8" standalone="no"?>
<!DOCTYPE svg PUBLIC "-//W3C//DTD SVG 1.1//EN"
 "http://www.w3.org/Graphics/SVG/1.1/DTD/svg11.dtd">
<!-- Generated by graphviz version 2.25.20091207.0545 (20091207.0545)
 -->
<!-- Title: G Pages: 1 -->
<svg width="354pt" height="66pt"
 viewBox="0.00 0.00 354.00 66.00" xmlns="http://www.w3.org/2000/svg" xmlns:xlink="http://www.w3.org/1999/xlink">
<g id="graph1" class="graph" transform="scale(1 1) rotate(0) translate(4 62)">
<title>G</title>
<polygon fill="white" stroke="white" points="-4,5 -4,-62 351,-62 351,5 -4,5"/>
<!-- Node1 -->
<g id="node1" class="node"><title>Node1</title>
<polygon fill="#bfbfbf" stroke="black" points="0.5,-19.5 0.5,-38.5 87.5,-38.5 87.5,-19.5 0.5,-19.5"/>
<text text-anchor="middle" x="44" y="-25.5" font-family="Helvetica,sans-Serif" font-size="10.00">Container::begin</text>
</g>
<!-- Node2 -->
<g id="node3" class="node"><title>Node2</title>
<a xlink:href="class_container.html#ae763eb37b721d401327c97016fb2fa54" target="_top" xlink:title="Appends a Container&lt;T&gt; object.">
<polygon fill="white" stroke="black" points="124,-38.5 124,-57.5 220,-57.5 220,-38.5 124,-38.5"/>
<text text-anchor="middle" x="172" y="-44.5" font-family="Helvetica,sans-Serif" font-size="10.00">Container::append</text>
</a>
</g>
<!-- Node1&#45;&gt;Node2 -->
<g id="edge2" class="edge"><title>Node1&#45;&gt;Node2</title>
<path fill="none" stroke="midnightblue" d="M97.6656,-36.966C106.295,-38.247 115.183,-39.5662 123.677,-40.8271"/>
<polygon fill="midnightblue" stroke="midnightblue" points="98.0979,-33.4919 87.6923,-35.4856 97.07,-40.416 98.0979,-33.4919"/>
</g>
<!-- Node3 -->
<g id="node5" class="node"><title>Node3</title>
<a xlink:href="class_vec_con.html#a280ee1e24c44c8aeff1c4c4076322b71" target="_top" xlink:title="Setter of the from fields of the Con objects related to VecCon.">
<polygon fill="white" stroke="black" points="125.5,-0.5 125.5,-19.5 218.5,-19.5 218.5,-0.5 125.5,-0.5"/>
<text text-anchor="middle" x="172" y="-6.5" font-family="Helvetica,sans-Serif" font-size="10.00">VecCon::setFrom</text>
</a>
</g>
<!-- Node1&#45;&gt;Node3 -->
<g id="edge4" class="edge"><title>Node1&#45;&gt;Node3</title>
<path fill="none" stroke="midnightblue" d="M97.8767,-21.0027C107.041,-19.6424 116.489,-18.2399 125.444,-16.9107"/>
<polygon fill="midnightblue" stroke="midnightblue" points="97.07,-17.584 87.6923,-22.5144 98.0979,-24.5081 97.07,-17.584"/>
</g>
<!-- Node4 -->
<g id="node7" class="node"><title>Node4</title>
<a xlink:href="class_neuron.html#a2aa3a89c77ac950559689d6d48a044f9" target="_top" xlink:title="Neuron::setFrom">
<polygon fill="white" stroke="black" points="256,-0.5 256,-19.5 346,-19.5 346,-0.5 256,-0.5"/>
<text text-anchor="middle" x="301" y="-6.5" font-family="Helvetica,sans-Serif" font-size="10.00">Neuron::setFrom</text>
</a>
</g>
<!-- Node3&#45;&gt;Node4 -->
<g id="edge6" class="edge"><title>Node3&#45;&gt;Node4</title>
<path fill="none" stroke="midnightblue" d="M228.685,-10C237.755,-10 247.034,-10 255.791,-10"/>
<polygon fill="midnightblue" stroke="midnightblue" points="228.572,-6.5001 218.572,-10 228.572,-13.5001 228.572,-6.5001"/>
</g>
</g>
</svg>
