<?xml version="1.0" encoding="UTF-8" standalone="no"?>
<!DOCTYPE svg PUBLIC "-//W3C//DTD SVG 1.1//EN"
 "http://www.w3.org/Graphics/SVG/1.1/DTD/svg11.dtd">
<!-- Generated by graphviz version 2.28.0 (20110610.2051)
 -->
<!-- Title: G Pages: 1 -->
<svg width="844pt" height="2516pt"
 viewBox="0.00 0.00 844.00 2516.00" xmlns="http://www.w3.org/2000/svg" xmlns:xlink="http://www.w3.org/1999/xlink">
<g id="graph1" class="graph" transform="scale(1 1) rotate(0) translate(4 2512)">
<title>G</title>
<polygon fill="white" stroke="white" points="-4,5 -4,-2512 841,-2512 841,5 -4,5"/>
<!-- Node1 -->
<g id="node1" class="node"><title>Node1</title>
<polygon fill="#bfbfbf" stroke="black" points="425,-1 425,-69 495,-69 495,-1 425,-1"/>
<text text-anchor="middle" x="460" y="-57" font-family="Helvetica,sans-Serif" font-size="10.00">Layer</text>
<polyline fill="none" stroke="black" points="425,-50 495,-50 "/>
<text text-anchor="start" x="433" y="-38" font-family="Helvetica,sans-Serif" font-size="10.00"># nNeurons</text>
<polyline fill="none" stroke="black" points="425,-31 495,-31 "/>
<text text-anchor="start" x="433" y="-19" font-family="Helvetica,sans-Serif" font-size="10.00">+ show()</text>
<text text-anchor="start" x="433" y="-8" font-family="Helvetica,sans-Serif" font-size="10.00">+ validate()</text>
</g>
<!-- Node2 -->
<g id="node2" class="node"><title>Node2</title>
<a xlink:href="class_container.html" target="_top" xlink:title="{Container\&lt; Neuron \&gt;\n|# collection\l# collection\l|+ Container()\l+ Container()\l+ Container()\l+ ~Container()\l+ createIterator()\l+ push_back()\l+ push_back()\l+ reserve()\l+ reserve()\l+ empty()\l+ empty()\l+ size()\l+ size()\l+ clear()\l+ clear()\l+ show()\l+ show()\l+ validate()\l+ validate()\l+ begin()\l+ end()\l+ load()\l+ store()\l+ append()\l+ resize()\l+ operator[]()\l}">
<polygon fill="white" stroke="black" points="405,-118.5 405,-461.5 515,-461.5 515,-118.5 405,-118.5"/>
<text text-anchor="middle" x="460" y="-449.5" font-family="Helvetica,sans-Serif" font-size="10.00">Container&lt; Neuron &gt;</text>
<polyline fill="none" stroke="black" points="405,-442.5 515,-442.5 "/>
<text text-anchor="start" x="413" y="-430.5" font-family="Helvetica,sans-Serif" font-size="10.00"># collection</text>
<text text-anchor="start" x="413" y="-419.5" font-family="Helvetica,sans-Serif" font-size="10.00"># collection</text>
<polyline fill="none" stroke="black" points="405,-412.5 515,-412.5 "/>
<text text-anchor="start" x="413" y="-400.5" font-family="Helvetica,sans-Serif" font-size="10.00">+ Container()</text>
<text text-anchor="start" x="413" y="-389.5" font-family="Helvetica,sans-Serif" font-size="10.00">+ Container()</text>
<text text-anchor="start" x="413" y="-378.5" font-family="Helvetica,sans-Serif" font-size="10.00">+ Container()</text>
<text text-anchor="start" x="413" y="-367.5" font-family="Helvetica,sans-Serif" font-size="10.00">+ ~Container()</text>
<text text-anchor="start" x="413" y="-356.5" font-family="Helvetica,sans-Serif" font-size="10.00">+ createIterator()</text>
<text text-anchor="start" x="413" y="-345.5" font-family="Helvetica,sans-Serif" font-size="10.00">+ push_back()</text>
<text text-anchor="start" x="413" y="-334.5" font-family="Helvetica,sans-Serif" font-size="10.00">+ push_back()</text>
<text text-anchor="start" x="413" y="-323.5" font-family="Helvetica,sans-Serif" font-size="10.00">+ reserve()</text>
<text text-anchor="start" x="413" y="-312.5" font-family="Helvetica,sans-Serif" font-size="10.00">+ reserve()</text>
<text text-anchor="start" x="413" y="-301.5" font-family="Helvetica,sans-Serif" font-size="10.00">+ empty()</text>
<text text-anchor="start" x="413" y="-290.5" font-family="Helvetica,sans-Serif" font-size="10.00">+ empty()</text>
<text text-anchor="start" x="413" y="-279.5" font-family="Helvetica,sans-Serif" font-size="10.00">+ size()</text>
<text text-anchor="start" x="413" y="-268.5" font-family="Helvetica,sans-Serif" font-size="10.00">+ size()</text>
<text text-anchor="start" x="413" y="-257.5" font-family="Helvetica,sans-Serif" font-size="10.00">+ clear()</text>
<text text-anchor="start" x="413" y="-246.5" font-family="Helvetica,sans-Serif" font-size="10.00">+ clear()</text>
<text text-anchor="start" x="413" y="-235.5" font-family="Helvetica,sans-Serif" font-size="10.00">+ show()</text>
<text text-anchor="start" x="413" y="-224.5" font-family="Helvetica,sans-Serif" font-size="10.00">+ show()</text>
<text text-anchor="start" x="413" y="-213.5" font-family="Helvetica,sans-Serif" font-size="10.00">+ validate()</text>
<text text-anchor="start" x="413" y="-202.5" font-family="Helvetica,sans-Serif" font-size="10.00">+ validate()</text>
<text text-anchor="start" x="413" y="-191.5" font-family="Helvetica,sans-Serif" font-size="10.00">+ begin()</text>
<text text-anchor="start" x="413" y="-180.5" font-family="Helvetica,sans-Serif" font-size="10.00">+ end()</text>
<text text-anchor="start" x="413" y="-169.5" font-family="Helvetica,sans-Serif" font-size="10.00">+ load()</text>
<text text-anchor="start" x="413" y="-158.5" font-family="Helvetica,sans-Serif" font-size="10.00">+ store()</text>
<text text-anchor="start" x="413" y="-147.5" font-family="Helvetica,sans-Serif" font-size="10.00">+ append()</text>
<text text-anchor="start" x="413" y="-136.5" font-family="Helvetica,sans-Serif" font-size="10.00">+ resize()</text>
<text text-anchor="start" x="413" y="-125.5" font-family="Helvetica,sans-Serif" font-size="10.00">+ operator[]()</text>
</a>
</g>
<!-- Node2&#45;&gt;Node1 -->
<g id="edge2" class="edge"><title>Node2&#45;&gt;Node1</title>
<path fill="none" stroke="#9a32cd" stroke-dasharray="5,2" d="M460,-108.234C460,-93.6737 460,-80.2965 460,-69.1159"/>
<polygon fill="#9a32cd" stroke="#9a32cd" points="460,-118.492 455.5,-108.492 460,-113.492 460,-108.492 460,-108.492 460,-108.492 460,-113.492 464.5,-108.492 460,-118.492 460,-118.492"/>
<text text-anchor="middle" x="482" y="-91.5" font-family="Helvetica,sans-Serif" font-size="10.00">nNeurons</text>
</g>
<!-- Node3 -->
<g id="node4" class="node"><title>Node3</title>
<a xlink:href="class_container_interface.html" target="_top" xlink:title="class ContainerInterface &#45;">
<polygon fill="white" stroke="black" points="181.5,-511 181.5,-667 332.5,-667 332.5,-511 181.5,-511"/>
<text text-anchor="middle" x="257" y="-655" font-family="Helvetica,sans-Serif" font-size="10.00">ContainerInterface&lt; Neuron &gt;</text>
<polyline fill="none" stroke="black" points="181.5,-648 332.5,-648 "/>
<text text-anchor="middle" x="257" y="-636" font-family="Helvetica,sans-Serif" font-size="10.00"> </text>
<polyline fill="none" stroke="black" points="181.5,-629 332.5,-629 "/>
<text text-anchor="start" x="189.5" y="-617" font-family="Helvetica,sans-Serif" font-size="10.00">+ ~ContainerInterface()</text>
<text text-anchor="start" x="189.5" y="-606" font-family="Helvetica,sans-Serif" font-size="10.00">+ createIterator()</text>
<text text-anchor="start" x="189.5" y="-595" font-family="Helvetica,sans-Serif" font-size="10.00">+ push_back()</text>
<text text-anchor="start" x="189.5" y="-584" font-family="Helvetica,sans-Serif" font-size="10.00">+ reserve()</text>
<text text-anchor="start" x="189.5" y="-573" font-family="Helvetica,sans-Serif" font-size="10.00">+ empty()</text>
<text text-anchor="start" x="189.5" y="-562" font-family="Helvetica,sans-Serif" font-size="10.00">+ size()</text>
<text text-anchor="start" x="189.5" y="-551" font-family="Helvetica,sans-Serif" font-size="10.00">+ clear()</text>
<text text-anchor="start" x="189.5" y="-540" font-family="Helvetica,sans-Serif" font-size="10.00">+ show()</text>
<text text-anchor="start" x="189.5" y="-529" font-family="Helvetica,sans-Serif" font-size="10.00">+ validate()</text>
<text text-anchor="start" x="189.5" y="-518" font-family="Helvetica,sans-Serif" font-size="10.00"># ContainerInterface()</text>
</a>
</g>
<!-- Node3&#45;&gt;Node2 -->
<g id="edge4" class="edge"><title>Node3&#45;&gt;Node2</title>
<path fill="none" stroke="midnightblue" d="M315.546,-502.343C343.712,-461.136 377.288,-412.012 404.978,-371.499"/>
<polygon fill="none" stroke="midnightblue" points="312.559,-500.511 309.806,-510.742 318.338,-504.461 312.559,-500.511"/>
</g>
<!-- Node4 -->
<g id="node6" class="node"><title>Node4</title>
<polygon fill="white" stroke="#bfbfbf" points="351,-560.5 351,-617.5 467,-617.5 467,-560.5 351,-560.5"/>
<text text-anchor="middle" x="409" y="-605.5" font-family="Helvetica,sans-Serif" font-size="10.00">std::vector&lt; Neuron &gt;</text>
<polyline fill="none" stroke="#bfbfbf" points="351,-598.5 467,-598.5 "/>
<text text-anchor="start" x="359" y="-586.5" font-family="Helvetica,sans-Serif" font-size="10.00">&#45; elements</text>
<polyline fill="none" stroke="#bfbfbf" points="351,-579.5 467,-579.5 "/>
<text text-anchor="middle" x="409" y="-567.5" font-family="Helvetica,sans-Serif" font-size="10.00"> </text>
</g>
<!-- Node4&#45;&gt;Node2 -->
<g id="edge6" class="edge"><title>Node4&#45;&gt;Node2</title>
<path fill="none" stroke="#9a32cd" stroke-dasharray="5,2" d="M415.489,-550.214C419.5,-526.856 424.963,-495.041 430.688,-461.7"/>
<polygon fill="#9a32cd" stroke="#9a32cd" points="413.752,-560.326 411.01,-549.708 414.598,-555.398 415.445,-550.47 415.445,-550.47 415.445,-550.47 414.598,-555.398 419.88,-551.232 413.752,-560.326 413.752,-560.326"/>
<text text-anchor="middle" x="448.5" y="-483.5" font-family="Helvetica,sans-Serif" font-size="10.00">collection</text>
</g>
<!-- Node5 -->
<g id="node8" class="node"><title>Node5</title>
<a xlink:href="class_neuron.html" target="_top" xlink:title="class Neuron &#45;">
<polygon fill="white" stroke="black" points="360,-716.5 360,-993.5 448,-993.5 448,-716.5 360,-716.5"/>
<text text-anchor="middle" x="404" y="-981.5" font-family="Helvetica,sans-Serif" font-size="10.00">Neuron</text>
<polyline fill="none" stroke="black" points="360,-974.5 448,-974.5 "/>
<text text-anchor="start" x="368" y="-962.5" font-family="Helvetica,sans-Serif" font-size="10.00"># d_Id</text>
<text text-anchor="start" x="368" y="-951.5" font-family="Helvetica,sans-Serif" font-size="10.00">&#45; Id</text>
<text text-anchor="start" x="368" y="-940.5" font-family="Helvetica,sans-Serif" font-size="10.00">&#45; con</text>
<text text-anchor="start" x="368" y="-929.5" font-family="Helvetica,sans-Serif" font-size="10.00">&#45; outputValue</text>
<polyline fill="none" stroke="black" points="360,-922.5 448,-922.5 "/>
<text text-anchor="start" x="368" y="-910.5" font-family="Helvetica,sans-Serif" font-size="10.00">+ Neuron()</text>
<text text-anchor="start" x="368" y="-899.5" font-family="Helvetica,sans-Serif" font-size="10.00">+ Neuron()</text>
<text text-anchor="start" x="368" y="-888.5" font-family="Helvetica,sans-Serif" font-size="10.00">+ Id()</text>
<text text-anchor="start" x="368" y="-877.5" font-family="Helvetica,sans-Serif" font-size="10.00">+ show()</text>
<text text-anchor="start" x="368" y="-866.5" font-family="Helvetica,sans-Serif" font-size="10.00">+ validate()</text>
<text text-anchor="start" x="368" y="-855.5" font-family="Helvetica,sans-Serif" font-size="10.00">+ Neuron()</text>
<text text-anchor="start" x="368" y="-844.5" font-family="Helvetica,sans-Serif" font-size="10.00">+ Neuron()</text>
<text text-anchor="start" x="368" y="-833.5" font-family="Helvetica,sans-Serif" font-size="10.00">+ Neuron()</text>
<text text-anchor="start" x="368" y="-822.5" font-family="Helvetica,sans-Serif" font-size="10.00">+ ~Neuron()</text>
<text text-anchor="start" x="368" y="-811.5" font-family="Helvetica,sans-Serif" font-size="10.00">+ getId()</text>
<text text-anchor="start" x="368" y="-800.5" font-family="Helvetica,sans-Serif" font-size="10.00">+ setId()</text>
<text text-anchor="start" x="368" y="-789.5" font-family="Helvetica,sans-Serif" font-size="10.00">+ getConId()</text>
<text text-anchor="start" x="368" y="-778.5" font-family="Helvetica,sans-Serif" font-size="10.00">+ getWeight()</text>
<text text-anchor="start" x="368" y="-767.5" font-family="Helvetica,sans-Serif" font-size="10.00">+ setFrom()</text>
<text text-anchor="start" x="368" y="-756.5" font-family="Helvetica,sans-Serif" font-size="10.00">+ setWeight()</text>
<text text-anchor="start" x="368" y="-745.5" font-family="Helvetica,sans-Serif" font-size="10.00">+ numOfCons()</text>
<text text-anchor="start" x="368" y="-734.5" font-family="Helvetica,sans-Serif" font-size="10.00">+ show()</text>
<text text-anchor="start" x="368" y="-723.5" font-family="Helvetica,sans-Serif" font-size="10.00">+ validate()</text>
</a>
</g>
<!-- Node5&#45;&gt;Node4 -->
<g id="edge8" class="edge"><title>Node5&#45;&gt;Node4</title>
<path fill="none" stroke="#9a32cd" stroke-dasharray="5,2" d="M406.801,-706.116C407.444,-672.17 408.06,-639.647 408.475,-617.701"/>
<polygon fill="#9a32cd" stroke="#9a32cd" points="406.61,-716.201 402.3,-706.117 406.705,-711.202 406.799,-706.203 406.799,-706.203 406.799,-706.203 406.705,-711.202 411.298,-706.288 406.61,-716.201 406.61,-716.201"/>
<text text-anchor="middle" x="428.5" y="-689.5" font-family="Helvetica,sans-Serif" font-size="10.00">elements</text>
</g>
<!-- Node6 -->
<g id="node10" class="node"><title>Node6</title>
<a xlink:href="class_container.html" target="_top" xlink:title="{Container\&lt; Con \&gt;\n|# collection\l# collection\l|+ Container()\l+ Container()\l+ Container()\l+ ~Container()\l+ createIterator()\l+ push_back()\l+ push_back()\l+ reserve()\l+ reserve()\l+ empty()\l+ empty()\l+ size()\l+ size()\l+ clear()\l+ clear()\l+ show()\l+ show()\l+ validate()\l+ validate()\l+ begin()\l+ end()\l+ load()\l+ store()\l+ append()\l+ resize()\l+ operator[]()\l}">
<polygon fill="white" stroke="black" points="333.5,-1042.5 333.5,-1385.5 430.5,-1385.5 430.5,-1042.5 333.5,-1042.5"/>
<text text-anchor="middle" x="382" y="-1373.5" font-family="Helvetica,sans-Serif" font-size="10.00">Container&lt; Con &gt;</text>
<polyline fill="none" stroke="black" points="333.5,-1366.5 430.5,-1366.5 "/>
<text text-anchor="start" x="341.5" y="-1354.5" font-family="Helvetica,sans-Serif" font-size="10.00"># collection</text>
<text text-anchor="start" x="341.5" y="-1343.5" font-family="Helvetica,sans-Serif" font-size="10.00"># collection</text>
<polyline fill="none" stroke="black" points="333.5,-1336.5 430.5,-1336.5 "/>
<text text-anchor="start" x="341.5" y="-1324.5" font-family="Helvetica,sans-Serif" font-size="10.00">+ Container()</text>
<text text-anchor="start" x="341.5" y="-1313.5" font-family="Helvetica,sans-Serif" font-size="10.00">+ Container()</text>
<text text-anchor="start" x="341.5" y="-1302.5" font-family="Helvetica,sans-Serif" font-size="10.00">+ Container()</text>
<text text-anchor="start" x="341.5" y="-1291.5" font-family="Helvetica,sans-Serif" font-size="10.00">+ ~Container()</text>
<text text-anchor="start" x="341.5" y="-1280.5" font-family="Helvetica,sans-Serif" font-size="10.00">+ createIterator()</text>
<text text-anchor="start" x="341.5" y="-1269.5" font-family="Helvetica,sans-Serif" font-size="10.00">+ push_back()</text>
<text text-anchor="start" x="341.5" y="-1258.5" font-family="Helvetica,sans-Serif" font-size="10.00">+ push_back()</text>
<text text-anchor="start" x="341.5" y="-1247.5" font-family="Helvetica,sans-Serif" font-size="10.00">+ reserve()</text>
<text text-anchor="start" x="341.5" y="-1236.5" font-family="Helvetica,sans-Serif" font-size="10.00">+ reserve()</text>
<text text-anchor="start" x="341.5" y="-1225.5" font-family="Helvetica,sans-Serif" font-size="10.00">+ empty()</text>
<text text-anchor="start" x="341.5" y="-1214.5" font-family="Helvetica,sans-Serif" font-size="10.00">+ empty()</text>
<text text-anchor="start" x="341.5" y="-1203.5" font-family="Helvetica,sans-Serif" font-size="10.00">+ size()</text>
<text text-anchor="start" x="341.5" y="-1192.5" font-family="Helvetica,sans-Serif" font-size="10.00">+ size()</text>
<text text-anchor="start" x="341.5" y="-1181.5" font-family="Helvetica,sans-Serif" font-size="10.00">+ clear()</text>
<text text-anchor="start" x="341.5" y="-1170.5" font-family="Helvetica,sans-Serif" font-size="10.00">+ clear()</text>
<text text-anchor="start" x="341.5" y="-1159.5" font-family="Helvetica,sans-Serif" font-size="10.00">+ show()</text>
<text text-anchor="start" x="341.5" y="-1148.5" font-family="Helvetica,sans-Serif" font-size="10.00">+ show()</text>
<text text-anchor="start" x="341.5" y="-1137.5" font-family="Helvetica,sans-Serif" font-size="10.00">+ validate()</text>
<text text-anchor="start" x="341.5" y="-1126.5" font-family="Helvetica,sans-Serif" font-size="10.00">+ validate()</text>
<text text-anchor="start" x="341.5" y="-1115.5" font-family="Helvetica,sans-Serif" font-size="10.00">+ begin()</text>
<text text-anchor="start" x="341.5" y="-1104.5" font-family="Helvetica,sans-Serif" font-size="10.00">+ end()</text>
<text text-anchor="start" x="341.5" y="-1093.5" font-family="Helvetica,sans-Serif" font-size="10.00">+ load()</text>
<text text-anchor="start" x="341.5" y="-1082.5" font-family="Helvetica,sans-Serif" font-size="10.00">+ store()</text>
<text text-anchor="start" x="341.5" y="-1071.5" font-family="Helvetica,sans-Serif" font-size="10.00">+ append()</text>
<text text-anchor="start" x="341.5" y="-1060.5" font-family="Helvetica,sans-Serif" font-size="10.00">+ resize()</text>
<text text-anchor="start" x="341.5" y="-1049.5" font-family="Helvetica,sans-Serif" font-size="10.00">+ operator[]()</text>
</a>
</g>
<!-- Node6&#45;&gt;Node5 -->
<g id="edge10" class="edge"><title>Node6&#45;&gt;Node5</title>
<path fill="none" stroke="#9a32cd" stroke-dasharray="5,2" d="M393.153,-1032.01C393.947,-1019.13 394.74,-1006.26 395.515,-993.685"/>
<polygon fill="#9a32cd" stroke="#9a32cd" points="392.517,-1042.34 388.64,-1032.08 392.824,-1037.35 393.132,-1032.36 393.132,-1032.36 393.132,-1032.36 392.824,-1037.35 397.623,-1032.64 392.517,-1042.34 392.517,-1042.34"/>
<text text-anchor="middle" x="402.5" y="-1015.5" font-family="Helvetica,sans-Serif" font-size="10.00">con</text>
</g>
<!-- Node7 -->
<g id="node12" class="node"><title>Node7</title>
<a xlink:href="class_container_interface.html" target="_top" xlink:title="class ContainerInterface &#45;">
<polygon fill="white" stroke="black" points="127.5,-1574 127.5,-1730 264.5,-1730 264.5,-1574 127.5,-1574"/>
<text text-anchor="middle" x="196" y="-1718" font-family="Helvetica,sans-Serif" font-size="10.00">ContainerInterface&lt; Con &gt;</text>
<polyline fill="none" stroke="black" points="127.5,-1711 264.5,-1711 "/>
<text text-anchor="middle" x="196" y="-1699" font-family="Helvetica,sans-Serif" font-size="10.00"> </text>
<polyline fill="none" stroke="black" points="127.5,-1692 264.5,-1692 "/>
<text text-anchor="start" x="135.5" y="-1680" font-family="Helvetica,sans-Serif" font-size="10.00">+ ~ContainerInterface()</text>
<text text-anchor="start" x="135.5" y="-1669" font-family="Helvetica,sans-Serif" font-size="10.00">+ createIterator()</text>
<text text-anchor="start" x="135.5" y="-1658" font-family="Helvetica,sans-Serif" font-size="10.00">+ push_back()</text>
<text text-anchor="start" x="135.5" y="-1647" font-family="Helvetica,sans-Serif" font-size="10.00">+ reserve()</text>
<text text-anchor="start" x="135.5" y="-1636" font-family="Helvetica,sans-Serif" font-size="10.00">+ empty()</text>
<text text-anchor="start" x="135.5" y="-1625" font-family="Helvetica,sans-Serif" font-size="10.00">+ size()</text>
<text text-anchor="start" x="135.5" y="-1614" font-family="Helvetica,sans-Serif" font-size="10.00">+ clear()</text>
<text text-anchor="start" x="135.5" y="-1603" font-family="Helvetica,sans-Serif" font-size="10.00">+ show()</text>
<text text-anchor="start" x="135.5" y="-1592" font-family="Helvetica,sans-Serif" font-size="10.00">+ validate()</text>
<text text-anchor="start" x="135.5" y="-1581" font-family="Helvetica,sans-Serif" font-size="10.00"># ContainerInterface()</text>
</a>
</g>
<!-- Node7&#45;&gt;Node6 -->
<g id="edge12" class="edge"><title>Node7&#45;&gt;Node6</title>
<path fill="none" stroke="midnightblue" d="M225.279,-1564.21C242.07,-1516.42 264.281,-1456.36 287,-1404 300.96,-1371.83 317.725,-1337.36 333.26,-1306.78"/>
<polygon fill="none" stroke="midnightblue" points="221.886,-1563.31 221.888,-1573.9 228.494,-1565.62 221.886,-1563.31"/>
</g>
<!-- Node8 -->
<g id="node14" class="node"><title>Node8</title>
<polygon fill="white" stroke="#bfbfbf" points="279,-1842.5 279,-1899.5 479,-1899.5 479,-1842.5 279,-1842.5"/>
<text text-anchor="middle" x="379" y="-1887.5" font-family="Helvetica,sans-Serif" font-size="10.00">std::vector&lt; boost::shared_ptr&lt; Con &gt; &gt;</text>
<polyline fill="none" stroke="#bfbfbf" points="279,-1880.5 479,-1880.5 "/>
<text text-anchor="start" x="287" y="-1868.5" font-family="Helvetica,sans-Serif" font-size="10.00">&#45; elements</text>
<polyline fill="none" stroke="#bfbfbf" points="279,-1861.5 479,-1861.5 "/>
<text text-anchor="middle" x="379" y="-1849.5" font-family="Helvetica,sans-Serif" font-size="10.00"> </text>
</g>
<!-- Node8&#45;&gt;Node6 -->
<g id="edge14" class="edge"><title>Node8&#45;&gt;Node6</title>
<path fill="none" stroke="#9a32cd" stroke-dasharray="5,2" d="M379.174,-1832.08C379.563,-1747.15 380.524,-1537.25 381.218,-1385.82"/>
<polygon fill="#9a32cd" stroke="#9a32cd" points="379.127,-1842.27 374.673,-1832.25 379.15,-1837.27 379.173,-1832.27 379.173,-1832.27 379.173,-1832.27 379.15,-1837.27 383.673,-1832.29 379.127,-1842.27 379.127,-1842.27"/>
<text text-anchor="middle" x="402.5" y="-1649.5" font-family="Helvetica,sans-Serif" font-size="10.00">collection</text>
</g>
<!-- Node9 -->
<g id="node16" class="node"><title>Node9</title>
<a xlink:title="STL class.">
<polygon fill="white" stroke="#bfbfbf" points="217.5,-2234.5 217.5,-2291.5 306.5,-2291.5 306.5,-2234.5 217.5,-2234.5"/>
<text text-anchor="middle" x="262" y="-2279.5" font-family="Helvetica,sans-Serif" font-size="10.00">std::vector&lt; T &gt;</text>
<polyline fill="none" stroke="#bfbfbf" points="217.5,-2272.5 306.5,-2272.5 "/>
<text text-anchor="start" x="225.5" y="-2260.5" font-family="Helvetica,sans-Serif" font-size="10.00">&#45; elements</text>
<polyline fill="none" stroke="#bfbfbf" points="217.5,-2253.5 306.5,-2253.5 "/>
<text text-anchor="middle" x="262" y="-2241.5" font-family="Helvetica,sans-Serif" font-size="10.00"> </text>
</a>
</g>
<!-- Node9&#45;&gt;Node4 -->
<g id="edge34" class="edge"><title>Node9&#45;&gt;Node4</title>
<path fill="none" stroke="orange" stroke-dasharray="5,2" d="M222.693,-2227.09C174.459,-2180.19 99,-2091.82 99,-1998 99,-1998 99,-1998 99,-854 99,-718.346 242.164,-760.917 341,-668 357.623,-652.372 374.489,-633.054 387.265,-617.552"/>
<polygon fill="orange" stroke="orange" points="220.539,-2229.87 230.185,-2234.25 225.378,-2224.81 220.539,-2229.87"/>
<text text-anchor="middle" x="124" y="-1430.5" font-family="Helvetica,sans-Serif" font-size="10.00">&lt; Neuron &gt;</text>
</g>
<!-- Node9&#45;&gt;Node8 -->
<g id="edge16" class="edge"><title>Node9&#45;&gt;Node8</title>
<path fill="none" stroke="orange" stroke-dasharray="5,2" d="M259.489,-2224.24C255.005,-2145.22 249.096,-1965.82 284,-1918 289.185,-1910.9 295.766,-1904.84 303.037,-1899.68"/>
<polygon fill="orange" stroke="orange" points="255.996,-2224.48 260.08,-2234.25 262.984,-2224.06 255.996,-2224.48"/>
<text text-anchor="middle" x="323" y="-2097.5" font-family="Helvetica,sans-Serif" font-size="10.00">&lt; boost::shared_ptr&lt; Con &gt; &gt;</text>
</g>
<!-- Node11 -->
<g id="node20" class="node"><title>Node11</title>
<polygon fill="white" stroke="#bfbfbf" points="132,-1968.5 132,-2025.5 234,-2025.5 234,-1968.5 132,-1968.5"/>
<text text-anchor="middle" x="183" y="-2013.5" font-family="Helvetica,sans-Serif" font-size="10.00">std::vector&lt; Con &gt;</text>
<polyline fill="none" stroke="#bfbfbf" points="132,-2006.5 234,-2006.5 "/>
<text text-anchor="start" x="140" y="-1994.5" font-family="Helvetica,sans-Serif" font-size="10.00">&#45; elements</text>
<polyline fill="none" stroke="#bfbfbf" points="132,-1987.5 234,-1987.5 "/>
<text text-anchor="middle" x="183" y="-1975.5" font-family="Helvetica,sans-Serif" font-size="10.00"> </text>
</g>
<!-- Node9&#45;&gt;Node11 -->
<g id="edge24" class="edge"><title>Node9&#45;&gt;Node11</title>
<path fill="none" stroke="orange" stroke-dasharray="5,2" d="M246.149,-2224.67C233.359,-2193.42 215.641,-2147.42 204,-2106 196.454,-2079.15 190.685,-2047.8 187.12,-2025.81"/>
<polygon fill="orange" stroke="orange" points="243.063,-2226.37 250.114,-2234.28 249.533,-2223.7 243.063,-2226.37"/>
<text text-anchor="middle" x="222" y="-2097.5" font-family="Helvetica,sans-Serif" font-size="10.00">&lt; Con &gt;</text>
</g>
<!-- Node15 -->
<g id="node29" class="node"><title>Node15</title>
<polygon fill="white" stroke="#bfbfbf" points="293,-1968.5 293,-2025.5 481,-2025.5 481,-1968.5 293,-1968.5"/>
<text text-anchor="middle" x="387" y="-2013.5" font-family="Helvetica,sans-Serif" font-size="10.00">std::vector&lt; boost::shared_ptr&lt; T &gt; &gt;</text>
<polyline fill="none" stroke="#bfbfbf" points="293,-2006.5 481,-2006.5 "/>
<text text-anchor="start" x="301" y="-1994.5" font-family="Helvetica,sans-Serif" font-size="10.00">&#45; elements</text>
<polyline fill="none" stroke="#bfbfbf" points="293,-1987.5 481,-1987.5 "/>
<text text-anchor="middle" x="387" y="-1975.5" font-family="Helvetica,sans-Serif" font-size="10.00"> </text>
</g>
<!-- Node9&#45;&gt;Node15 -->
<g id="edge32" class="edge"><title>Node9&#45;&gt;Node15</title>
<path fill="none" stroke="orange" stroke-dasharray="5,2" d="M305.062,-2227.65C337.245,-2199.01 378.707,-2155.09 397,-2106 406.731,-2079.89 401.868,-2047.87 396.033,-2025.5"/>
<polygon fill="orange" stroke="orange" points="302.749,-2225.02 297.517,-2234.23 307.352,-2230.29 302.749,-2225.02"/>
<text text-anchor="middle" x="460.5" y="-2097.5" font-family="Helvetica,sans-Serif" font-size="10.00">&lt; boost::shared_ptr&lt; T &gt; &gt;</text>
</g>
<!-- Node16 -->
<g id="node33" class="node"><title>Node16</title>
<polygon fill="white" stroke="#bfbfbf" points="518.5,-1404.5 518.5,-1461.5 733.5,-1461.5 733.5,-1404.5 518.5,-1404.5"/>
<text text-anchor="middle" x="626" y="-1449.5" font-family="Helvetica,sans-Serif" font-size="10.00">std::vector&lt; boost::shared_ptr&lt; Neuron &gt; &gt;</text>
<polyline fill="none" stroke="#bfbfbf" points="518.5,-1442.5 733.5,-1442.5 "/>
<text text-anchor="start" x="526.5" y="-1430.5" font-family="Helvetica,sans-Serif" font-size="10.00">&#45; elements</text>
<polyline fill="none" stroke="#bfbfbf" points="518.5,-1423.5 733.5,-1423.5 "/>
<text text-anchor="middle" x="626" y="-1411.5" font-family="Helvetica,sans-Serif" font-size="10.00"> </text>
</g>
<!-- Node9&#45;&gt;Node16 -->
<g id="edge38" class="edge"><title>Node9&#45;&gt;Node16</title>
<path fill="none" stroke="orange" stroke-dasharray="5,2" d="M316.647,-2252.98C401.714,-2235.68 563.264,-2188.97 633,-2076 759.174,-1871.6 667.962,-1556.39 635.944,-1461.77"/>
<polygon fill="orange" stroke="orange" points="315.798,-2249.58 306.663,-2254.95 317.151,-2256.45 315.798,-2249.58"/>
<text text-anchor="middle" x="762" y="-1994.5" font-family="Helvetica,sans-Serif" font-size="10.00">&lt; boost::shared_ptr&lt; Neuron &gt; &gt;</text>
</g>
<!-- Node10 -->
<g id="node18" class="node"><title>Node10</title>
<polygon fill="white" stroke="#bfbfbf" points="247.5,-2450.5 247.5,-2507.5 276.5,-2507.5 276.5,-2450.5 247.5,-2450.5"/>
<text text-anchor="middle" x="262" y="-2495.5" font-family="Helvetica,sans-Serif" font-size="10.00">T</text>
<polyline fill="none" stroke="#bfbfbf" points="247.5,-2488.5 276.5,-2488.5 "/>
<text text-anchor="middle" x="262" y="-2476.5" font-family="Helvetica,sans-Serif" font-size="10.00"> </text>
<polyline fill="none" stroke="#bfbfbf" points="247.5,-2469.5 276.5,-2469.5 "/>
<text text-anchor="middle" x="262" y="-2457.5" font-family="Helvetica,sans-Serif" font-size="10.00"> </text>
</g>
<!-- Node10&#45;&gt;Node9 -->
<g id="edge18" class="edge"><title>Node10&#45;&gt;Node9</title>
<path fill="none" stroke="#9a32cd" stroke-dasharray="5,2" d="M262,-2440.24C262,-2397.73 262,-2329.67 262,-2291.77"/>
<polygon fill="#9a32cd" stroke="#9a32cd" points="262,-2450.46 257.5,-2440.46 262,-2445.46 262,-2440.46 262,-2440.46 262,-2440.46 262,-2445.46 266.5,-2440.46 262,-2450.46 262,-2450.46"/>
<text text-anchor="middle" x="283.5" y="-2423.5" font-family="Helvetica,sans-Serif" font-size="10.00">elements</text>
</g>
<!-- Node11&#45;&gt;Node6 -->
<g id="edge20" class="edge"><title>Node11&#45;&gt;Node6</title>
<path fill="none" stroke="#9a32cd" stroke-dasharray="5,2" d="M206.356,-1959.73C227.04,-1925.92 256.446,-1873.43 273,-1824 322.211,-1677.05 302.41,-1632.5 330,-1480 335.53,-1449.44 341.68,-1416.94 347.759,-1385.57"/>
<polygon fill="#9a32cd" stroke="#9a32cd" points="201.035,-1968.33 202.47,-1957.46 203.666,-1964.07 206.297,-1959.82 206.297,-1959.82 206.297,-1959.82 203.666,-1964.07 210.124,-1962.19 201.035,-1968.33 201.035,-1968.33"/>
<text text-anchor="middle" x="352.5" y="-1649.5" font-family="Helvetica,sans-Serif" font-size="10.00">collection</text>
</g>
<!-- Node12 -->
<g id="node22" class="node"><title>Node12</title>
<a xlink:href="class_con.html" target="_top" xlink:title="class Con &#45;">
<polygon fill="white" stroke="black" points="-0.5,-2124.5 -0.5,-2401.5 82.5,-2401.5 82.5,-2124.5 -0.5,-2124.5"/>
<text text-anchor="middle" x="41" y="-2389.5" font-family="Helvetica,sans-Serif" font-size="10.00">Con</text>
<polyline fill="none" stroke="black" points="-0.5,-2382.5 82.5,-2382.5 "/>
<text text-anchor="start" x="7.5" y="-2370.5" font-family="Helvetica,sans-Serif" font-size="10.00"># d_neuron</text>
<text text-anchor="start" x="7.5" y="-2359.5" font-family="Helvetica,sans-Serif" font-size="10.00"># d_weight</text>
<text text-anchor="start" x="7.5" y="-2348.5" font-family="Helvetica,sans-Serif" font-size="10.00">&#45; from</text>
<text text-anchor="start" x="7.5" y="-2337.5" font-family="Helvetica,sans-Serif" font-size="10.00">&#45; weight</text>
<polyline fill="none" stroke="black" points="-0.5,-2330.5 82.5,-2330.5 "/>
<text text-anchor="start" x="7.5" y="-2318.5" font-family="Helvetica,sans-Serif" font-size="10.00">+ Con()</text>
<text text-anchor="start" x="7.5" y="-2307.5" font-family="Helvetica,sans-Serif" font-size="10.00">+ Con()</text>
<text text-anchor="start" x="7.5" y="-2296.5" font-family="Helvetica,sans-Serif" font-size="10.00">+ neuron()</text>
<text text-anchor="start" x="7.5" y="-2285.5" font-family="Helvetica,sans-Serif" font-size="10.00">+ Id()</text>
<text text-anchor="start" x="7.5" y="-2274.5" font-family="Helvetica,sans-Serif" font-size="10.00">+ weight()</text>
<text text-anchor="start" x="7.5" y="-2263.5" font-family="Helvetica,sans-Serif" font-size="10.00">+ show()</text>
<text text-anchor="start" x="7.5" y="-2252.5" font-family="Helvetica,sans-Serif" font-size="10.00">+ validate()</text>
<text text-anchor="start" x="7.5" y="-2241.5" font-family="Helvetica,sans-Serif" font-size="10.00">+ Con()</text>
<text text-anchor="start" x="7.5" y="-2230.5" font-family="Helvetica,sans-Serif" font-size="10.00">+ Con()</text>
<text text-anchor="start" x="7.5" y="-2219.5" font-family="Helvetica,sans-Serif" font-size="10.00">+ Con()</text>
<text text-anchor="start" x="7.5" y="-2208.5" font-family="Helvetica,sans-Serif" font-size="10.00">+ ~Con()</text>
<text text-anchor="start" x="7.5" y="-2197.5" font-family="Helvetica,sans-Serif" font-size="10.00">+ getFrom()</text>
<text text-anchor="start" x="7.5" y="-2186.5" font-family="Helvetica,sans-Serif" font-size="10.00">+ setFrom()</text>
<text text-anchor="start" x="7.5" y="-2175.5" font-family="Helvetica,sans-Serif" font-size="10.00">+ getId()</text>
<text text-anchor="start" x="7.5" y="-2164.5" font-family="Helvetica,sans-Serif" font-size="10.00">+ getWeight()</text>
<text text-anchor="start" x="7.5" y="-2153.5" font-family="Helvetica,sans-Serif" font-size="10.00">+ setWeight()</text>
<text text-anchor="start" x="7.5" y="-2142.5" font-family="Helvetica,sans-Serif" font-size="10.00">+ show()</text>
<text text-anchor="start" x="7.5" y="-2131.5" font-family="Helvetica,sans-Serif" font-size="10.00">+ validate()</text>
</a>
</g>
<!-- Node12&#45;&gt;Node11 -->
<g id="edge22" class="edge"><title>Node12&#45;&gt;Node11</title>
<path fill="none" stroke="#9a32cd" stroke-dasharray="5,2" d="M87.4375,-2175.67C115.409,-2123.66 149.181,-2060.88 168.164,-2025.58"/>
<polygon fill="#9a32cd" stroke="#9a32cd" points="82.6452,-2184.58 83.4192,-2173.64 85.0138,-2180.17 87.3823,-2175.77 87.3823,-2175.77 87.3823,-2175.77 85.0138,-2180.17 91.3454,-2177.9 82.6452,-2184.58 82.6452,-2184.58"/>
<text text-anchor="middle" x="150.5" y="-2097.5" font-family="Helvetica,sans-Serif" font-size="10.00">elements</text>
</g>
<!-- Node13 -->
<g id="node25" class="node"><title>Node13</title>
<a xlink:href="class_container.html" target="_top" xlink:title="class Container &#45;">
<polygon fill="white" stroke="black" points="449.5,-1480.5 449.5,-1823.5 546.5,-1823.5 546.5,-1480.5 449.5,-1480.5"/>
<text text-anchor="middle" x="498" y="-1811.5" font-family="Helvetica,sans-Serif" font-size="10.00">Container&lt; T &gt;</text>
<polyline fill="none" stroke="black" points="449.5,-1804.5 546.5,-1804.5 "/>
<text text-anchor="start" x="457.5" y="-1792.5" font-family="Helvetica,sans-Serif" font-size="10.00"># collection</text>
<text text-anchor="start" x="457.5" y="-1781.5" font-family="Helvetica,sans-Serif" font-size="10.00"># collection</text>
<polyline fill="none" stroke="black" points="449.5,-1774.5 546.5,-1774.5 "/>
<text text-anchor="start" x="457.5" y="-1762.5" font-family="Helvetica,sans-Serif" font-size="10.00">+ Container()</text>
<text text-anchor="start" x="457.5" y="-1751.5" font-family="Helvetica,sans-Serif" font-size="10.00">+ ~Container()</text>
<text text-anchor="start" x="457.5" y="-1740.5" font-family="Helvetica,sans-Serif" font-size="10.00">+ createIterator()</text>
<text text-anchor="start" x="457.5" y="-1729.5" font-family="Helvetica,sans-Serif" font-size="10.00">+ push_back()</text>
<text text-anchor="start" x="457.5" y="-1718.5" font-family="Helvetica,sans-Serif" font-size="10.00">+ reserve()</text>
<text text-anchor="start" x="457.5" y="-1707.5" font-family="Helvetica,sans-Serif" font-size="10.00">+ empty()</text>
<text text-anchor="start" x="457.5" y="-1696.5" font-family="Helvetica,sans-Serif" font-size="10.00">+ size()</text>
<text text-anchor="start" x="457.5" y="-1685.5" font-family="Helvetica,sans-Serif" font-size="10.00">+ clear()</text>
<text text-anchor="start" x="457.5" y="-1674.5" font-family="Helvetica,sans-Serif" font-size="10.00">+ show()</text>
<text text-anchor="start" x="457.5" y="-1663.5" font-family="Helvetica,sans-Serif" font-size="10.00">+ validate()</text>
<text text-anchor="start" x="457.5" y="-1652.5" font-family="Helvetica,sans-Serif" font-size="10.00">+ Container()</text>
<text text-anchor="start" x="457.5" y="-1641.5" font-family="Helvetica,sans-Serif" font-size="10.00">+ Container()</text>
<text text-anchor="start" x="457.5" y="-1630.5" font-family="Helvetica,sans-Serif" font-size="10.00">+ begin()</text>
<text text-anchor="start" x="457.5" y="-1619.5" font-family="Helvetica,sans-Serif" font-size="10.00">+ end()</text>
<text text-anchor="start" x="457.5" y="-1608.5" font-family="Helvetica,sans-Serif" font-size="10.00">+ load()</text>
<text text-anchor="start" x="457.5" y="-1597.5" font-family="Helvetica,sans-Serif" font-size="10.00">+ store()</text>
<text text-anchor="start" x="457.5" y="-1586.5" font-family="Helvetica,sans-Serif" font-size="10.00">+ size()</text>
<text text-anchor="start" x="457.5" y="-1575.5" font-family="Helvetica,sans-Serif" font-size="10.00">+ push_back()</text>
<text text-anchor="start" x="457.5" y="-1564.5" font-family="Helvetica,sans-Serif" font-size="10.00">+ append()</text>
<text text-anchor="start" x="457.5" y="-1553.5" font-family="Helvetica,sans-Serif" font-size="10.00">+ show()</text>
<text text-anchor="start" x="457.5" y="-1542.5" font-family="Helvetica,sans-Serif" font-size="10.00">+ validate()</text>
<text text-anchor="start" x="457.5" y="-1531.5" font-family="Helvetica,sans-Serif" font-size="10.00">+ reserve()</text>
<text text-anchor="start" x="457.5" y="-1520.5" font-family="Helvetica,sans-Serif" font-size="10.00">+ resize()</text>
<text text-anchor="start" x="457.5" y="-1509.5" font-family="Helvetica,sans-Serif" font-size="10.00">+ empty()</text>
<text text-anchor="start" x="457.5" y="-1498.5" font-family="Helvetica,sans-Serif" font-size="10.00">+ clear()</text>
<text text-anchor="start" x="457.5" y="-1487.5" font-family="Helvetica,sans-Serif" font-size="10.00">+ operator[]()</text>
</a>
</g>
<!-- Node13&#45;&gt;Node2 -->
<g id="edge40" class="edge"><title>Node13&#45;&gt;Node2</title>
<path fill="none" stroke="orange" stroke-dasharray="5,2" d="M497.399,-1469.96C497.187,-1391.57 497,-1298.76 497,-1215 497,-1215 497,-1215 497,-588 497,-546.951 493.476,-502.953 488.604,-461.736"/>
<polygon fill="orange" stroke="orange" points="493.9,-1470.44 497.428,-1480.43 500.9,-1470.42 493.9,-1470.44"/>
<text text-anchor="middle" x="522" y="-852.5" font-family="Helvetica,sans-Serif" font-size="10.00">&lt; Neuron &gt;</text>
</g>
<!-- Node13&#45;&gt;Node6 -->
<g id="edge26" class="edge"><title>Node13&#45;&gt;Node6</title>
<path fill="none" stroke="orange" stroke-dasharray="5,2" d="M449.265,-1470.49C448.504,-1467.64 447.749,-1464.81 447,-1462 440.434,-1437.36 433.539,-1411.33 426.793,-1385.78"/>
<polygon fill="orange" stroke="orange" points="445.91,-1471.49 451.873,-1480.25 452.673,-1469.69 445.91,-1471.49"/>
<text text-anchor="middle" x="465" y="-1430.5" font-family="Helvetica,sans-Serif" font-size="10.00">&lt; Con &gt;</text>
</g>
<!-- Node14 -->
<g id="node27" class="node"><title>Node14</title>
<a xlink:href="class_container_interface.html" target="_top" xlink:title="class ContainerInterface &#45;">
<polygon fill="white" stroke="black" points="499.5,-1919 499.5,-2075 624.5,-2075 624.5,-1919 499.5,-1919"/>
<text text-anchor="middle" x="562" y="-2063" font-family="Helvetica,sans-Serif" font-size="10.00">ContainerInterface&lt; T &gt;</text>
<polyline fill="none" stroke="black" points="499.5,-2056 624.5,-2056 "/>
<text text-anchor="middle" x="562" y="-2044" font-family="Helvetica,sans-Serif" font-size="10.00"> </text>
<polyline fill="none" stroke="black" points="499.5,-2037 624.5,-2037 "/>
<text text-anchor="start" x="507.5" y="-2025" font-family="Helvetica,sans-Serif" font-size="10.00">+ ~ContainerInterface()</text>
<text text-anchor="start" x="507.5" y="-2014" font-family="Helvetica,sans-Serif" font-size="10.00">+ createIterator()</text>
<text text-anchor="start" x="507.5" y="-2003" font-family="Helvetica,sans-Serif" font-size="10.00">+ push_back()</text>
<text text-anchor="start" x="507.5" y="-1992" font-family="Helvetica,sans-Serif" font-size="10.00">+ reserve()</text>
<text text-anchor="start" x="507.5" y="-1981" font-family="Helvetica,sans-Serif" font-size="10.00">+ empty()</text>
<text text-anchor="start" x="507.5" y="-1970" font-family="Helvetica,sans-Serif" font-size="10.00">+ size()</text>
<text text-anchor="start" x="507.5" y="-1959" font-family="Helvetica,sans-Serif" font-size="10.00">+ clear()</text>
<text text-anchor="start" x="507.5" y="-1948" font-family="Helvetica,sans-Serif" font-size="10.00">+ show()</text>
<text text-anchor="start" x="507.5" y="-1937" font-family="Helvetica,sans-Serif" font-size="10.00">+ validate()</text>
<text text-anchor="start" x="507.5" y="-1926" font-family="Helvetica,sans-Serif" font-size="10.00"># ContainerInterface()</text>
</a>
</g>
<!-- Node14&#45;&gt;Node13 -->
<g id="edge28" class="edge"><title>Node14&#45;&gt;Node13</title>
<path fill="none" stroke="midnightblue" d="M556.654,-1908.93C554.603,-1886.99 551.802,-1863.55 548,-1842 546.938,-1835.98 545.779,-1829.88 544.541,-1823.73"/>
<polygon fill="none" stroke="midnightblue" points="553.168,-1909.25 557.544,-1918.9 560.14,-1908.63 553.168,-1909.25"/>
</g>
<!-- Node15&#45;&gt;Node13 -->
<g id="edge30" class="edge"><title>Node15&#45;&gt;Node13</title>
<path fill="none" stroke="#9a32cd" stroke-dasharray="5,2" d="M432.088,-1961.56C450.247,-1945.06 469.376,-1923.72 480,-1900 490.634,-1876.26 497.247,-1849.95 501.146,-1823.6"/>
<polygon fill="#9a32cd" stroke="#9a32cd" points="424.393,-1968.33 428.929,-1958.35 428.148,-1965.03 431.902,-1961.73 431.902,-1961.73 431.902,-1961.73 428.148,-1965.03 434.874,-1965.1 424.393,-1968.33 424.393,-1968.33"/>
<text text-anchor="middle" x="519.5" y="-1868.5" font-family="Helvetica,sans-Serif" font-size="10.00">collection</text>
</g>
<!-- Node16&#45;&gt;Node2 -->
<g id="edge36" class="edge"><title>Node16&#45;&gt;Node2</title>
<path fill="none" stroke="#9a32cd" stroke-dasharray="5,2" d="M623.267,-1394.45C618.232,-1321.93 608,-1157.52 608,-1019 608,-1019 608,-1019 608,-588 608,-501.585 557.188,-414.471 515.11,-357.145"/>
<polygon fill="#9a32cd" stroke="#9a32cd" points="623.97,-1404.47 618.781,-1394.81 623.62,-1399.48 623.27,-1394.49 623.27,-1394.49 623.27,-1394.49 623.62,-1399.48 627.759,-1394.18 623.97,-1404.47 623.97,-1404.47"/>
<text text-anchor="middle" x="630.5" y="-852.5" font-family="Helvetica,sans-Serif" font-size="10.00">collection</text>
</g>
</g>
</svg>
