<?xml version="1.0" encoding="UTF-8" standalone="no"?>
<!DOCTYPE svg PUBLIC "-//W3C//DTD SVG 1.1//EN"
 "http://www.w3.org/Graphics/SVG/1.1/DTD/svg11.dtd">
<!-- Generated by graphviz version 2.25.20091207.0545 (20091207.0545)
 -->
<!-- Title: G Pages: 1 -->
<svg width="369pt" height="788pt"
 viewBox="0.00 0.00 369.00 788.00" xmlns="http://www.w3.org/2000/svg" xmlns:xlink="http://www.w3.org/1999/xlink">
<g id="graph1" class="graph" transform="scale(1 1) rotate(0) translate(4 784)">
<title>G</title>
<polygon fill="white" stroke="white" points="-4,5 -4,-784 366,-784 366,5 -4,5"/>
<!-- Node1 -->
<g id="node1" class="node"><title>Node1</title>
<polygon fill="#bfbfbf" stroke="black" points="126.5,-0.5 126.5,-57.5 189.5,-57.5 189.5,-0.5 126.5,-0.5"/>
<text text-anchor="middle" x="158" y="-44.5" font-family="Helvetica,sans-Serif" font-size="10.00">vecNeuron</text>
<polyline fill="none" stroke="black" points="126.5,-38.5 189.5,-38.5 "/>
<text text-anchor="middle" x="158" y="-25.5" font-family="Helvetica,sans-Serif" font-size="10.00"> </text>
<polyline fill="none" stroke="black" points="126.5,-19.5 189.5,-19.5 "/>
<text text-anchor="middle" x="158" y="-6.5" font-family="Helvetica,sans-Serif" font-size="10.00"> </text>
</g>
<!-- Node2 -->
<g id="node2" class="node"><title>Node2</title>
<a xlink:href="classvec_a_m_o_r_e.html" target="_top" xlink:title="{vecAMORE\&lt; Neuron \&gt;\n|# ldata\l|+ getLdata()\l+ setLdata()\l+ size()\l+ push_back()\l+ append()\l+ show()\l+ validate()\l+ reserve()\l}">
<polygon fill="white" stroke="black" points="99,-97 99,-231 217,-231 217,-97 99,-97"/>
<text text-anchor="middle" x="158" y="-218" font-family="Helvetica,sans-Serif" font-size="10.00">vecAMORE&lt; Neuron &gt;</text>
<polyline fill="none" stroke="black" points="99,-212 217,-212 "/>
<text text-anchor="start" x="107" y="-199" font-family="Helvetica,sans-Serif" font-size="10.00"># ldata</text>
<polyline fill="none" stroke="black" points="99,-193 217,-193 "/>
<text text-anchor="start" x="107" y="-180" font-family="Helvetica,sans-Serif" font-size="10.00">+ getLdata()</text>
<text text-anchor="start" x="107" y="-169" font-family="Helvetica,sans-Serif" font-size="10.00">+ setLdata()</text>
<text text-anchor="start" x="107" y="-158" font-family="Helvetica,sans-Serif" font-size="10.00">+ size()</text>
<text text-anchor="start" x="107" y="-147" font-family="Helvetica,sans-Serif" font-size="10.00">+ push_back()</text>
<text text-anchor="start" x="107" y="-136" font-family="Helvetica,sans-Serif" font-size="10.00">+ append()</text>
<text text-anchor="start" x="107" y="-125" font-family="Helvetica,sans-Serif" font-size="10.00">+ show()</text>
<text text-anchor="start" x="107" y="-114" font-family="Helvetica,sans-Serif" font-size="10.00">+ validate()</text>
<text text-anchor="start" x="107" y="-103" font-family="Helvetica,sans-Serif" font-size="10.00">+ reserve()</text>
</a>
</g>
<!-- Node2&#45;&gt;Node1 -->
<g id="edge2" class="edge"><title>Node2&#45;&gt;Node1</title>
<path fill="none" stroke="midnightblue" d="M158,-86.604C158,-76.3798 158,-66.4653 158,-57.8263"/>
<polygon fill="none" stroke="midnightblue" points="154.5,-86.8955 158,-96.8955 161.5,-86.8955 154.5,-86.8955"/>
</g>
<!-- Node3 -->
<g id="node4" class="node"><title>Node3</title>
<polygon fill="white" stroke="#bfbfbf" points="0,-434.5 0,-491.5 206,-491.5 206,-434.5 0,-434.5"/>
<text text-anchor="middle" x="103" y="-478.5" font-family="Helvetica,sans-Serif" font-size="10.00">std::vector&lt; boost::shared_ptr&lt; Neuron &gt; &gt;</text>
<polyline fill="none" stroke="#bfbfbf" points="0,-472.5 206,-472.5 "/>
<text text-anchor="start" x="8" y="-459.5" font-family="Helvetica,sans-Serif" font-size="10.00">&#45; elements</text>
<polyline fill="none" stroke="#bfbfbf" points="0,-453.5 206,-453.5 "/>
<text text-anchor="middle" x="103" y="-440.5" font-family="Helvetica,sans-Serif" font-size="10.00"> </text>
</g>
<!-- Node3&#45;&gt;Node2 -->
<g id="edge4" class="edge"><title>Node3&#45;&gt;Node2</title>
<path fill="none" stroke="#9a32cd" stroke-dasharray="5,2" d="M110.086,-424.477C119.073,-375.624 134.715,-290.587 145.675,-231.003"/>
<polygon fill="#9a32cd" stroke="#9a32cd" points="108.274,-434.331 105.657,-423.681 109.178,-429.413 110.083,-424.496 110.083,-424.496 110.083,-424.496 109.178,-429.413 114.509,-425.31 108.274,-434.331 108.274,-434.331"/>
<text text-anchor="middle" x="147.5" y="-344.5" font-family="Helvetica,sans-Serif" font-size="10.00">ldata</text>
</g>
<!-- Node4 -->
<g id="node6" class="node"><title>Node4</title>
<a xlink:title="STL class.">
<polygon fill="white" stroke="#bfbfbf" points="132.5,-616.5 132.5,-673.5 219.5,-673.5 219.5,-616.5 132.5,-616.5"/>
<text text-anchor="middle" x="176" y="-660.5" font-family="Helvetica,sans-Serif" font-size="10.00">std::vector&lt; T &gt;</text>
<polyline fill="none" stroke="#bfbfbf" points="132.5,-654.5 219.5,-654.5 "/>
<text text-anchor="start" x="140.5" y="-641.5" font-family="Helvetica,sans-Serif" font-size="10.00">&#45; elements</text>
<polyline fill="none" stroke="#bfbfbf" points="132.5,-635.5 219.5,-635.5 "/>
<text text-anchor="middle" x="176" y="-622.5" font-family="Helvetica,sans-Serif" font-size="10.00"> </text>
</a>
</g>
<!-- Node4&#45;&gt;Node3 -->
<g id="edge6" class="edge"><title>Node4&#45;&gt;Node3</title>
<path fill="none" stroke="orange" stroke-dasharray="5,2" d="M123.256,-627.422C110.116,-620.402 97.6162,-610.842 90,-598 70.6621,-565.394 80.7895,-520.405 90.9689,-491.504"/>
<polygon fill="orange" stroke="orange" points="121.881,-630.645 132.403,-631.885 124.95,-624.354 121.881,-630.645"/>
<text text-anchor="middle" x="161.5" y="-588.5" font-family="Helvetica,sans-Serif" font-size="10.00">&lt; boost::shared_ptr&lt; Neuron &gt; &gt;</text>
</g>
<!-- Node7 -->
<g id="node12" class="node"><title>Node7</title>
<polygon fill="white" stroke="#bfbfbf" points="164,-510.5 164,-567.5 344,-567.5 344,-510.5 164,-510.5"/>
<text text-anchor="middle" x="254" y="-554.5" font-family="Helvetica,sans-Serif" font-size="10.00">std::vector&lt; boost::shared_ptr&lt; T &gt; &gt;</text>
<polyline fill="none" stroke="#bfbfbf" points="164,-548.5 344,-548.5 "/>
<text text-anchor="start" x="172" y="-535.5" font-family="Helvetica,sans-Serif" font-size="10.00">&#45; elements</text>
<polyline fill="none" stroke="#bfbfbf" points="164,-529.5 344,-529.5 "/>
<text text-anchor="middle" x="254" y="-516.5" font-family="Helvetica,sans-Serif" font-size="10.00"> </text>
</g>
<!-- Node4&#45;&gt;Node7 -->
<g id="edge14" class="edge"><title>Node4&#45;&gt;Node7</title>
<path fill="none" stroke="orange" stroke-dasharray="5,2" d="M227.038,-610.053C230.72,-606.271 234.113,-602.244 237,-598 243.116,-589.01 247.057,-577.818 249.586,-567.605"/>
<polygon fill="orange" stroke="orange" points="224.531,-607.605 219.657,-617.012 229.334,-612.698 224.531,-607.605"/>
<text text-anchor="middle" x="302" y="-588.5" font-family="Helvetica,sans-Serif" font-size="10.00">&lt; boost::shared_ptr&lt; T &gt; &gt;</text>
</g>
<!-- Node5 -->
<g id="node8" class="node"><title>Node5</title>
<polygon fill="white" stroke="#bfbfbf" points="161.5,-722.5 161.5,-779.5 190.5,-779.5 190.5,-722.5 161.5,-722.5"/>
<text text-anchor="middle" x="176" y="-766.5" font-family="Helvetica,sans-Serif" font-size="10.00">T</text>
<polyline fill="none" stroke="#bfbfbf" points="161.5,-760.5 190.5,-760.5 "/>
<text text-anchor="middle" x="176" y="-747.5" font-family="Helvetica,sans-Serif" font-size="10.00"> </text>
<polyline fill="none" stroke="#bfbfbf" points="161.5,-741.5 190.5,-741.5 "/>
<text text-anchor="middle" x="176" y="-728.5" font-family="Helvetica,sans-Serif" font-size="10.00"> </text>
</g>
<!-- Node5&#45;&gt;Node4 -->
<g id="edge8" class="edge"><title>Node5&#45;&gt;Node4</title>
<path fill="none" stroke="#9a32cd" stroke-dasharray="5,2" d="M176,-712.005C176,-699.326 176,-685.494 176,-673.708"/>
<polygon fill="#9a32cd" stroke="#9a32cd" points="176,-722.315 171.5,-712.315 176,-717.315 176,-712.315 176,-712.315 176,-712.315 176,-717.315 180.5,-712.315 176,-722.315 176,-722.315"/>
<text text-anchor="middle" x="196" y="-694.5" font-family="Helvetica,sans-Serif" font-size="10.00">elements</text>
</g>
<!-- Node6 -->
<g id="node10" class="node"><title>Node6</title>
<a xlink:href="classvec_a_m_o_r_e.html" target="_top" xlink:title="{vecAMORE\&lt; T \&gt;\n|# ldata\l|+ getLdata()\l+ setLdata()\l+ size()\l+ push_back()\l+ append()\l+ show()\l+ validate()\l+ reserve()\l}">
<polygon fill="white" stroke="black" points="175.5,-281 175.5,-415 268.5,-415 268.5,-281 175.5,-281"/>
<text text-anchor="middle" x="222" y="-402" font-family="Helvetica,sans-Serif" font-size="10.00">vecAMORE&lt; T &gt;</text>
<polyline fill="none" stroke="black" points="175.5,-396 268.5,-396 "/>
<text text-anchor="start" x="183.5" y="-383" font-family="Helvetica,sans-Serif" font-size="10.00"># ldata</text>
<polyline fill="none" stroke="black" points="175.5,-377 268.5,-377 "/>
<text text-anchor="start" x="183.5" y="-364" font-family="Helvetica,sans-Serif" font-size="10.00">+ getLdata()</text>
<text text-anchor="start" x="183.5" y="-353" font-family="Helvetica,sans-Serif" font-size="10.00">+ setLdata()</text>
<text text-anchor="start" x="183.5" y="-342" font-family="Helvetica,sans-Serif" font-size="10.00">+ size()</text>
<text text-anchor="start" x="183.5" y="-331" font-family="Helvetica,sans-Serif" font-size="10.00">+ push_back()</text>
<text text-anchor="start" x="183.5" y="-320" font-family="Helvetica,sans-Serif" font-size="10.00">+ append()</text>
<text text-anchor="start" x="183.5" y="-309" font-family="Helvetica,sans-Serif" font-size="10.00">+ show()</text>
<text text-anchor="start" x="183.5" y="-298" font-family="Helvetica,sans-Serif" font-size="10.00">+ validate()</text>
<text text-anchor="start" x="183.5" y="-287" font-family="Helvetica,sans-Serif" font-size="10.00">+ reserve()</text>
</a>
</g>
<!-- Node6&#45;&gt;Node2 -->
<g id="edge10" class="edge"><title>Node6&#45;&gt;Node2</title>
<path fill="none" stroke="orange" stroke-dasharray="5,2" d="M195.279,-271.176C190.641,-257.843 185.851,-244.073 181.314,-231.027"/>
<polygon fill="orange" stroke="orange" points="192.032,-272.496 198.623,-280.791 198.643,-270.196 192.032,-272.496"/>
<text text-anchor="middle" x="216" y="-252.5" font-family="Helvetica,sans-Serif" font-size="10.00">&lt; Neuron &gt;</text>
</g>
<!-- Node7&#45;&gt;Node6 -->
<g id="edge12" class="edge"><title>Node7&#45;&gt;Node6</title>
<path fill="none" stroke="#9a32cd" stroke-dasharray="5,2" d="M247.542,-500.454C243.451,-476.038 238.049,-443.795 233.267,-415.252"/>
<polygon fill="#9a32cd" stroke="#9a32cd" points="249.209,-510.405 243.119,-501.286 248.383,-505.474 247.557,-500.543 247.557,-500.543 247.557,-500.543 248.383,-505.474 251.995,-499.799 249.209,-510.405 249.209,-510.405"/>
<text text-anchor="middle" x="255.5" y="-459.5" font-family="Helvetica,sans-Serif" font-size="10.00">ldata</text>
</g>
</g>
</svg>
