<?xml version="1.0" encoding="UTF-8" standalone="no"?>
<!DOCTYPE svg PUBLIC "-//W3C//DTD SVG 1.1//EN"
 "http://www.w3.org/Graphics/SVG/1.1/DTD/svg11.dtd">
<!-- Generated by graphviz version 2.28.0 (20110610.2051)
 -->
<!-- Title: G Pages: 1 -->
<svg width="1886pt" height="398pt"
 viewBox="0.00 0.00 1886.00 398.00" xmlns="http://www.w3.org/2000/svg" xmlns:xlink="http://www.w3.org/1999/xlink">
<g id="graph1" class="graph" transform="scale(1 1) rotate(0) translate(4 394)">
<title>G</title>
<polygon fill="white" stroke="white" points="-4,5 -4,-394 1883,-394 1883,5 -4,5"/>
<!-- Node1 -->
<g id="node1" class="node"><title>Node1</title>
<polygon fill="#bfbfbf" stroke="black" points="868.5,-95 868.5,-229 1009.5,-229 1009.5,-95 868.5,-95"/>
<text text-anchor="middle" x="939" y="-217" font-family="Helvetica,sans-Serif" font-size="10.00">MLPfactory</text>
<polyline fill="none" stroke="black" points="868.5,-210 1009.5,-210 "/>
<text text-anchor="middle" x="939" y="-198" font-family="Helvetica,sans-Serif" font-size="10.00"> </text>
<polyline fill="none" stroke="black" points="868.5,-191 1009.5,-191 "/>
<text text-anchor="start" x="876.5" y="-179" font-family="Helvetica,sans-Serif" font-size="10.00">+ MLPfactory()</text>
<text text-anchor="start" x="876.5" y="-168" font-family="Helvetica,sans-Serif" font-size="10.00"># makeCon()</text>
<text text-anchor="start" x="876.5" y="-157" font-family="Helvetica,sans-Serif" font-size="10.00"># makeConContainer()</text>
<text text-anchor="start" x="876.5" y="-146" font-family="Helvetica,sans-Serif" font-size="10.00"># makeActivationFunction()</text>
<text text-anchor="start" x="876.5" y="-135" font-family="Helvetica,sans-Serif" font-size="10.00"># makePredictBehavior()</text>
<text text-anchor="start" x="876.5" y="-124" font-family="Helvetica,sans-Serif" font-size="10.00"># makeNeuron()</text>
<text text-anchor="start" x="876.5" y="-113" font-family="Helvetica,sans-Serif" font-size="10.00"># makeNeuron()</text>
<text text-anchor="start" x="876.5" y="-102" font-family="Helvetica,sans-Serif" font-size="10.00"># makeNeuronContainer()</text>
</g>
<!-- Node3 -->
<g id="node5" class="node"><title>Node3</title>
<a xlink:href="class_arc_tan_factory.html" target="_top" xlink:title="class ArcTanFactory &#45;">
<polygon fill="white" stroke="black" points="0,-0.5 0,-57.5 140,-57.5 140,-0.5 0,-0.5"/>
<text text-anchor="middle" x="70" y="-45.5" font-family="Helvetica,sans-Serif" font-size="10.00">ArcTanFactory</text>
<polyline fill="none" stroke="black" points="0,-38.5 140,-38.5 "/>
<text text-anchor="middle" x="70" y="-26.5" font-family="Helvetica,sans-Serif" font-size="10.00"> </text>
<polyline fill="none" stroke="black" points="0,-19.5 140,-19.5 "/>
<text text-anchor="start" x="8" y="-7.5" font-family="Helvetica,sans-Serif" font-size="10.00">&#45; makeActivationFunction()</text>
</a>
</g>
<!-- Node1&#45;&gt;Node3 -->
<g id="edge4" class="edge"><title>Node1&#45;&gt;Node3</title>
<path fill="none" stroke="midnightblue" d="M858.264,-156.114C714.149,-146.149 403.829,-119.048 149,-58 146.17,-57.322 143.3,-56.579 140.413,-55.7854"/>
<polygon fill="none" stroke="midnightblue" points="858.135,-159.613 868.35,-156.802 858.611,-152.629 858.135,-159.613"/>
</g>
<!-- Node4 -->
<g id="node7" class="node"><title>Node4</title>
<a xlink:href="class_cosine_factory.html" target="_top" xlink:title="class CosineFactory &#45;">
<polygon fill="white" stroke="black" points="158,-0.5 158,-57.5 298,-57.5 298,-0.5 158,-0.5"/>
<text text-anchor="middle" x="228" y="-45.5" font-family="Helvetica,sans-Serif" font-size="10.00">CosineFactory</text>
<polyline fill="none" stroke="black" points="158,-38.5 298,-38.5 "/>
<text text-anchor="middle" x="228" y="-26.5" font-family="Helvetica,sans-Serif" font-size="10.00"> </text>
<polyline fill="none" stroke="black" points="158,-19.5 298,-19.5 "/>
<text text-anchor="start" x="166" y="-7.5" font-family="Helvetica,sans-Serif" font-size="10.00">&#45; makeActivationFunction()</text>
</a>
</g>
<!-- Node1&#45;&gt;Node4 -->
<g id="edge6" class="edge"><title>Node1&#45;&gt;Node4</title>
<path fill="none" stroke="midnightblue" d="M858.187,-152.526C737.072,-138.774 501.881,-107.987 307,-58 304.04,-57.2408 301.034,-56.4177 298.01,-55.5464"/>
<polygon fill="none" stroke="midnightblue" points="858.153,-156.044 868.482,-153.685 858.937,-149.088 858.153,-156.044"/>
</g>
<!-- Node5 -->
<g id="node9" class="node"><title>Node5</title>
<a xlink:href="class_elliot_factory.html" target="_top" xlink:title="class ElliotFactory &#45;">
<polygon fill="white" stroke="black" points="316,-0.5 316,-57.5 456,-57.5 456,-0.5 316,-0.5"/>
<text text-anchor="middle" x="386" y="-45.5" font-family="Helvetica,sans-Serif" font-size="10.00">ElliotFactory</text>
<polyline fill="none" stroke="black" points="316,-38.5 456,-38.5 "/>
<text text-anchor="middle" x="386" y="-26.5" font-family="Helvetica,sans-Serif" font-size="10.00"> </text>
<polyline fill="none" stroke="black" points="316,-19.5 456,-19.5 "/>
<text text-anchor="start" x="324" y="-7.5" font-family="Helvetica,sans-Serif" font-size="10.00">&#45; makeActivationFunction()</text>
</a>
</g>
<!-- Node1&#45;&gt;Node5 -->
<g id="edge8" class="edge"><title>Node1&#45;&gt;Node5</title>
<path fill="none" stroke="midnightblue" d="M858.333,-146.699C763.387,-129.125 601.368,-96.814 465,-58 462.061,-57.1635 459.073,-56.2758 456.063,-55.3509"/>
<polygon fill="none" stroke="midnightblue" points="857.971,-150.191 868.44,-148.561 859.239,-143.307 857.971,-150.191"/>
</g>
<!-- Node6 -->
<g id="node11" class="node"><title>Node6</title>
<a xlink:href="class_exponential_factory.html" target="_top" xlink:title="class ExponentialFactory &#45;">
<polygon fill="white" stroke="black" points="474,-0.5 474,-57.5 614,-57.5 614,-0.5 474,-0.5"/>
<text text-anchor="middle" x="544" y="-45.5" font-family="Helvetica,sans-Serif" font-size="10.00">ExponentialFactory</text>
<polyline fill="none" stroke="black" points="474,-38.5 614,-38.5 "/>
<text text-anchor="middle" x="544" y="-26.5" font-family="Helvetica,sans-Serif" font-size="10.00"> </text>
<polyline fill="none" stroke="black" points="474,-19.5 614,-19.5 "/>
<text text-anchor="start" x="482" y="-7.5" font-family="Helvetica,sans-Serif" font-size="10.00">&#45; makeActivationFunction()</text>
</a>
</g>
<!-- Node1&#45;&gt;Node6 -->
<g id="edge10" class="edge"><title>Node1&#45;&gt;Node6</title>
<path fill="none" stroke="midnightblue" d="M858.604,-135.42C794.627,-114.913 702.89,-85.1729 623,-58 620.107,-57.016 617.157,-56.005 614.179,-54.9781"/>
<polygon fill="none" stroke="midnightblue" points="857.641,-138.786 868.232,-138.503 859.776,-132.12 857.641,-138.786"/>
</g>
<!-- Node7 -->
<g id="node13" class="node"><title>Node7</title>
<a xlink:href="class_gauss_factory.html" target="_top" xlink:title="class GaussFactory &#45;">
<polygon fill="white" stroke="black" points="632,-0.5 632,-57.5 772,-57.5 772,-0.5 632,-0.5"/>
<text text-anchor="middle" x="702" y="-45.5" font-family="Helvetica,sans-Serif" font-size="10.00">GaussFactory</text>
<polyline fill="none" stroke="black" points="632,-38.5 772,-38.5 "/>
<text text-anchor="middle" x="702" y="-26.5" font-family="Helvetica,sans-Serif" font-size="10.00"> </text>
<polyline fill="none" stroke="black" points="632,-19.5 772,-19.5 "/>
<text text-anchor="start" x="640" y="-7.5" font-family="Helvetica,sans-Serif" font-size="10.00">&#45; makeActivationFunction()</text>
</a>
</g>
<!-- Node1&#45;&gt;Node7 -->
<g id="edge12" class="edge"><title>Node1&#45;&gt;Node7</title>
<path fill="none" stroke="midnightblue" d="M859.291,-116.941C823.716,-97.2776 782.899,-74.7161 751.76,-57.5046"/>
<polygon fill="none" stroke="midnightblue" points="857.768,-120.099 868.213,-121.873 861.154,-113.972 857.768,-120.099"/>
</g>
<!-- Node8 -->
<g id="node15" class="node"><title>Node8</title>
<a xlink:href="class_identity_factory.html" target="_top" xlink:title="class IdentityFactory &#45;">
<polygon fill="white" stroke="black" points="790,-0.5 790,-57.5 930,-57.5 930,-0.5 790,-0.5"/>
<text text-anchor="middle" x="860" y="-45.5" font-family="Helvetica,sans-Serif" font-size="10.00">IdentityFactory</text>
<polyline fill="none" stroke="black" points="790,-38.5 930,-38.5 "/>
<text text-anchor="middle" x="860" y="-26.5" font-family="Helvetica,sans-Serif" font-size="10.00"> </text>
<polyline fill="none" stroke="black" points="790,-19.5 930,-19.5 "/>
<text text-anchor="start" x="798" y="-7.5" font-family="Helvetica,sans-Serif" font-size="10.00">&#45; makeActivationFunction()</text>
</a>
</g>
<!-- Node1&#45;&gt;Node8 -->
<g id="edge14" class="edge"><title>Node1&#45;&gt;Node8</title>
<path fill="none" stroke="midnightblue" d="M893.697,-85.8774C887.658,-75.8632 881.804,-66.1558 876.716,-57.7192"/>
<polygon fill="none" stroke="midnightblue" points="890.876,-87.9765 899.037,-94.7324 896.87,-84.3616 890.876,-87.9765"/>
</g>
<!-- Node9 -->
<g id="node17" class="node"><title>Node9</title>
<a xlink:href="class_logistic_factory.html" target="_top" xlink:title="class LogisticFactory &#45;">
<polygon fill="white" stroke="black" points="948,-0.5 948,-57.5 1088,-57.5 1088,-0.5 948,-0.5"/>
<text text-anchor="middle" x="1018" y="-45.5" font-family="Helvetica,sans-Serif" font-size="10.00">LogisticFactory</text>
<polyline fill="none" stroke="black" points="948,-38.5 1088,-38.5 "/>
<text text-anchor="middle" x="1018" y="-26.5" font-family="Helvetica,sans-Serif" font-size="10.00"> </text>
<polyline fill="none" stroke="black" points="948,-19.5 1088,-19.5 "/>
<text text-anchor="start" x="956" y="-7.5" font-family="Helvetica,sans-Serif" font-size="10.00">&#45; makeActivationFunction()</text>
</a>
</g>
<!-- Node1&#45;&gt;Node9 -->
<g id="edge16" class="edge"><title>Node1&#45;&gt;Node9</title>
<path fill="none" stroke="midnightblue" d="M984.303,-85.8774C990.342,-75.8632 996.196,-66.1558 1001.28,-57.7192"/>
<polygon fill="none" stroke="midnightblue" points="981.13,-84.3616 978.963,-94.7324 987.124,-87.9765 981.13,-84.3616"/>
</g>
<!-- Node10 -->
<g id="node19" class="node"><title>Node10</title>
<a xlink:href="class_reciprocal_factory.html" target="_top" xlink:title="class ReciprocalFactory &#45;">
<polygon fill="white" stroke="black" points="1106,-0.5 1106,-57.5 1246,-57.5 1246,-0.5 1106,-0.5"/>
<text text-anchor="middle" x="1176" y="-45.5" font-family="Helvetica,sans-Serif" font-size="10.00">ReciprocalFactory</text>
<polyline fill="none" stroke="black" points="1106,-38.5 1246,-38.5 "/>
<text text-anchor="middle" x="1176" y="-26.5" font-family="Helvetica,sans-Serif" font-size="10.00"> </text>
<polyline fill="none" stroke="black" points="1106,-19.5 1246,-19.5 "/>
<text text-anchor="start" x="1114" y="-7.5" font-family="Helvetica,sans-Serif" font-size="10.00">&#45; makeActivationFunction()</text>
</a>
</g>
<!-- Node1&#45;&gt;Node10 -->
<g id="edge18" class="edge"><title>Node1&#45;&gt;Node10</title>
<path fill="none" stroke="midnightblue" d="M1018.71,-116.941C1054.28,-97.2776 1095.1,-74.7161 1126.24,-57.5046"/>
<polygon fill="none" stroke="midnightblue" points="1016.85,-113.972 1009.79,-121.873 1020.23,-120.099 1016.85,-113.972"/>
</g>
<!-- Node11 -->
<g id="node21" class="node"><title>Node11</title>
<a xlink:href="class_sine_factory.html" target="_top" xlink:title="class SineFactory &#45;">
<polygon fill="white" stroke="black" points="1264,-0.5 1264,-57.5 1404,-57.5 1404,-0.5 1264,-0.5"/>
<text text-anchor="middle" x="1334" y="-45.5" font-family="Helvetica,sans-Serif" font-size="10.00">SineFactory</text>
<polyline fill="none" stroke="black" points="1264,-38.5 1404,-38.5 "/>
<text text-anchor="middle" x="1334" y="-26.5" font-family="Helvetica,sans-Serif" font-size="10.00"> </text>
<polyline fill="none" stroke="black" points="1264,-19.5 1404,-19.5 "/>
<text text-anchor="start" x="1272" y="-7.5" font-family="Helvetica,sans-Serif" font-size="10.00">&#45; makeActivationFunction()</text>
</a>
</g>
<!-- Node1&#45;&gt;Node11 -->
<g id="edge20" class="edge"><title>Node1&#45;&gt;Node11</title>
<path fill="none" stroke="midnightblue" d="M1019.4,-135.42C1083.37,-114.913 1175.11,-85.1729 1255,-58 1257.89,-57.016 1260.84,-56.005 1263.82,-54.9781"/>
<polygon fill="none" stroke="midnightblue" points="1018.22,-132.12 1009.77,-138.503 1020.36,-138.786 1018.22,-132.12"/>
</g>
<!-- Node12 -->
<g id="node23" class="node"><title>Node12</title>
<a xlink:href="class_square_factory.html" target="_top" xlink:title="class SquareFactory &#45;">
<polygon fill="white" stroke="black" points="1422,-0.5 1422,-57.5 1562,-57.5 1562,-0.5 1422,-0.5"/>
<text text-anchor="middle" x="1492" y="-45.5" font-family="Helvetica,sans-Serif" font-size="10.00">SquareFactory</text>
<polyline fill="none" stroke="black" points="1422,-38.5 1562,-38.5 "/>
<text text-anchor="middle" x="1492" y="-26.5" font-family="Helvetica,sans-Serif" font-size="10.00"> </text>
<polyline fill="none" stroke="black" points="1422,-19.5 1562,-19.5 "/>
<text text-anchor="start" x="1430" y="-7.5" font-family="Helvetica,sans-Serif" font-size="10.00">&#45; makeActivationFunction()</text>
</a>
</g>
<!-- Node1&#45;&gt;Node12 -->
<g id="edge22" class="edge"><title>Node1&#45;&gt;Node12</title>
<path fill="none" stroke="midnightblue" d="M1019.67,-146.699C1114.61,-129.125 1276.63,-96.814 1413,-58 1415.94,-57.1635 1418.93,-56.2758 1421.94,-55.3509"/>
<polygon fill="none" stroke="midnightblue" points="1018.76,-143.307 1009.56,-148.561 1020.03,-150.191 1018.76,-143.307"/>
</g>
<!-- Node13 -->
<g id="node25" class="node"><title>Node13</title>
<a xlink:href="class_tanh_factory.html" target="_top" xlink:title="class TanhFactory &#45;">
<polygon fill="white" stroke="black" points="1580,-0.5 1580,-57.5 1720,-57.5 1720,-0.5 1580,-0.5"/>
<text text-anchor="middle" x="1650" y="-45.5" font-family="Helvetica,sans-Serif" font-size="10.00">TanhFactory</text>
<polyline fill="none" stroke="black" points="1580,-38.5 1720,-38.5 "/>
<text text-anchor="middle" x="1650" y="-26.5" font-family="Helvetica,sans-Serif" font-size="10.00"> </text>
<polyline fill="none" stroke="black" points="1580,-19.5 1720,-19.5 "/>
<text text-anchor="start" x="1588" y="-7.5" font-family="Helvetica,sans-Serif" font-size="10.00">&#45; makeActivationFunction()</text>
</a>
</g>
<!-- Node1&#45;&gt;Node13 -->
<g id="edge24" class="edge"><title>Node1&#45;&gt;Node13</title>
<path fill="none" stroke="midnightblue" d="M1019.81,-152.526C1140.93,-138.774 1376.12,-107.987 1571,-58 1573.96,-57.2408 1576.97,-56.4177 1579.99,-55.5464"/>
<polygon fill="none" stroke="midnightblue" points="1019.06,-149.088 1009.52,-153.685 1019.85,-156.044 1019.06,-149.088"/>
</g>
<!-- Node14 -->
<g id="node27" class="node"><title>Node14</title>
<a xlink:href="class_threshold_factory.html" target="_top" xlink:title="class ThresholdFactory &#45;">
<polygon fill="white" stroke="black" points="1738,-0.5 1738,-57.5 1878,-57.5 1878,-0.5 1738,-0.5"/>
<text text-anchor="middle" x="1808" y="-45.5" font-family="Helvetica,sans-Serif" font-size="10.00">ThresholdFactory</text>
<polyline fill="none" stroke="black" points="1738,-38.5 1878,-38.5 "/>
<text text-anchor="middle" x="1808" y="-26.5" font-family="Helvetica,sans-Serif" font-size="10.00"> </text>
<polyline fill="none" stroke="black" points="1738,-19.5 1878,-19.5 "/>
<text text-anchor="start" x="1746" y="-7.5" font-family="Helvetica,sans-Serif" font-size="10.00">&#45; makeActivationFunction()</text>
</a>
</g>
<!-- Node1&#45;&gt;Node14 -->
<g id="edge26" class="edge"><title>Node1&#45;&gt;Node14</title>
<path fill="none" stroke="midnightblue" d="M1019.74,-156.114C1163.85,-146.149 1474.17,-119.048 1729,-58 1731.83,-57.322 1734.7,-56.579 1737.59,-55.7854"/>
<polygon fill="none" stroke="midnightblue" points="1019.39,-152.629 1009.65,-156.802 1019.87,-159.613 1019.39,-152.629"/>
</g>
<!-- Node2 -->
<g id="node2" class="node"><title>Node2</title>
<a xlink:href="class_neural_factory.html" target="_top" xlink:title="class NeuralFactory &#45;">
<polygon fill="white" stroke="black" points="867.5,-266.5 867.5,-389.5 1010.5,-389.5 1010.5,-266.5 867.5,-266.5"/>
<text text-anchor="middle" x="939" y="-377.5" font-family="Helvetica,sans-Serif" font-size="10.00">NeuralFactory</text>
<polyline fill="none" stroke="black" points="867.5,-370.5 1010.5,-370.5 "/>
<text text-anchor="middle" x="939" y="-358.5" font-family="Helvetica,sans-Serif" font-size="10.00"> </text>
<polyline fill="none" stroke="black" points="867.5,-351.5 1010.5,-351.5 "/>
<text text-anchor="start" x="875.5" y="-339.5" font-family="Helvetica,sans-Serif" font-size="10.00">+ makeCon()</text>
<text text-anchor="start" x="875.5" y="-328.5" font-family="Helvetica,sans-Serif" font-size="10.00">+ makeConContainer()</text>
<text text-anchor="start" x="875.5" y="-317.5" font-family="Helvetica,sans-Serif" font-size="10.00">+ makeActivationFunction()</text>
<text text-anchor="start" x="875.5" y="-306.5" font-family="Helvetica,sans-Serif" font-size="10.00">+ makePredictBehavior()</text>
<text text-anchor="start" x="875.5" y="-295.5" font-family="Helvetica,sans-Serif" font-size="10.00">+ makeNeuron()</text>
<text text-anchor="start" x="875.5" y="-284.5" font-family="Helvetica,sans-Serif" font-size="10.00">+ makeNeuron()</text>
<text text-anchor="start" x="875.5" y="-273.5" font-family="Helvetica,sans-Serif" font-size="10.00">+ makeNeuronContainer()</text>
</a>
</g>
<!-- Node2&#45;&gt;Node1 -->
<g id="edge2" class="edge"><title>Node2&#45;&gt;Node1</title>
<path fill="none" stroke="midnightblue" d="M939,-256.317C939,-247.296 939,-238.088 939,-229.143"/>
<polygon fill="none" stroke="midnightblue" points="935.5,-256.398 939,-266.398 942.5,-256.398 935.5,-256.398"/>
</g>
</g>
</svg>
