<?xml version="1.0" encoding="UTF-8" standalone="no"?>
<!DOCTYPE svg PUBLIC "-//W3C//DTD SVG 1.1//EN"
 "http://www.w3.org/Graphics/SVG/1.1/DTD/svg11.dtd">
<!-- Generated by graphviz version 2.25.20091207.0545 (20091207.0545)
 -->
<!-- Title: G Pages: 1 -->
<svg width="369pt" height="1086pt"
 viewBox="0.00 0.00 369.00 1086.00" xmlns="http://www.w3.org/2000/svg" xmlns:xlink="http://www.w3.org/1999/xlink">
<g id="graph1" class="graph" transform="scale(1 1) rotate(0) translate(4 1082)">
<title>G</title>
<polygon fill="white" stroke="white" points="-4,5 -4,-1082 366,-1082 366,5 -4,5"/>
<!-- Node1 -->
<g id="node1" class="node"><title>Node1</title>
<polygon fill="#bfbfbf" stroke="black" points="104.5,-1 104.5,-179 201.5,-179 201.5,-1 104.5,-1"/>
<text text-anchor="middle" x="153" y="-166" font-family="Helvetica,sans-Serif" font-size="10.00">VecNeuron</text>
<polyline fill="none" stroke="black" points="104.5,-160 201.5,-160 "/>
<text text-anchor="middle" x="153" y="-147" font-family="Helvetica,sans-Serif" font-size="10.00"> </text>
<polyline fill="none" stroke="black" points="104.5,-141 201.5,-141 "/>
<text text-anchor="start" x="112.5" y="-128" font-family="Helvetica,sans-Serif" font-size="10.00">+ VecNeuron()</text>
<text text-anchor="start" x="112.5" y="-117" font-family="Helvetica,sans-Serif" font-size="10.00">+ VecNeuron()</text>
<text text-anchor="start" x="112.5" y="-106" font-family="Helvetica,sans-Serif" font-size="10.00">+ ~VecNeuron()</text>
<text text-anchor="start" x="112.5" y="-95" font-family="Helvetica,sans-Serif" font-size="10.00">+ numOfNeurons()</text>
<text text-anchor="start" x="112.5" y="-84" font-family="Helvetica,sans-Serif" font-size="10.00">+ numOfCons()</text>
<text text-anchor="start" x="112.5" y="-73" font-family="Helvetica,sans-Serif" font-size="10.00">+ getId()</text>
<text text-anchor="start" x="112.5" y="-62" font-family="Helvetica,sans-Serif" font-size="10.00">+ setId()</text>
<text text-anchor="start" x="112.5" y="-51" font-family="Helvetica,sans-Serif" font-size="10.00">+ getConId()</text>
<text text-anchor="start" x="112.5" y="-40" font-family="Helvetica,sans-Serif" font-size="10.00">+ getWeight()</text>
<text text-anchor="start" x="112.5" y="-29" font-family="Helvetica,sans-Serif" font-size="10.00">+ getFrom()</text>
<text text-anchor="start" x="112.5" y="-18" font-family="Helvetica,sans-Serif" font-size="10.00">+ setFrom()</text>
<text text-anchor="start" x="112.5" y="-7" font-family="Helvetica,sans-Serif" font-size="10.00">+ setWeight()</text>
</g>
<!-- Node2 -->
<g id="node2" class="node"><title>Node2</title>
<a xlink:href="class_container.html" target="_top" xlink:title="{Container\&lt; Neuron \&gt;\n|# collection\l|+ Container()\l+ Container()\l+ begin()\l+ end()\l+ load()\l+ store()\l+ size()\l+ push_back()\l+ append()\l+ show()\l+ validate()\l+ reserve()\l+ resize()\l+ empty()\l+ clear()\l+ operator[]()\l}">
<polygon fill="white" stroke="black" points="99,-219 99,-441 207,-441 207,-219 99,-219"/>
<text text-anchor="middle" x="153" y="-428" font-family="Helvetica,sans-Serif" font-size="10.00">Container&lt; Neuron &gt;</text>
<polyline fill="none" stroke="black" points="99,-422 207,-422 "/>
<text text-anchor="start" x="107" y="-409" font-family="Helvetica,sans-Serif" font-size="10.00"># collection</text>
<polyline fill="none" stroke="black" points="99,-403 207,-403 "/>
<text text-anchor="start" x="107" y="-390" font-family="Helvetica,sans-Serif" font-size="10.00">+ Container()</text>
<text text-anchor="start" x="107" y="-379" font-family="Helvetica,sans-Serif" font-size="10.00">+ Container()</text>
<text text-anchor="start" x="107" y="-368" font-family="Helvetica,sans-Serif" font-size="10.00">+ begin()</text>
<text text-anchor="start" x="107" y="-357" font-family="Helvetica,sans-Serif" font-size="10.00">+ end()</text>
<text text-anchor="start" x="107" y="-346" font-family="Helvetica,sans-Serif" font-size="10.00">+ load()</text>
<text text-anchor="start" x="107" y="-335" font-family="Helvetica,sans-Serif" font-size="10.00">+ store()</text>
<text text-anchor="start" x="107" y="-324" font-family="Helvetica,sans-Serif" font-size="10.00">+ size()</text>
<text text-anchor="start" x="107" y="-313" font-family="Helvetica,sans-Serif" font-size="10.00">+ push_back()</text>
<text text-anchor="start" x="107" y="-302" font-family="Helvetica,sans-Serif" font-size="10.00">+ append()</text>
<text text-anchor="start" x="107" y="-291" font-family="Helvetica,sans-Serif" font-size="10.00">+ show()</text>
<text text-anchor="start" x="107" y="-280" font-family="Helvetica,sans-Serif" font-size="10.00">+ validate()</text>
<text text-anchor="start" x="107" y="-269" font-family="Helvetica,sans-Serif" font-size="10.00">+ reserve()</text>
<text text-anchor="start" x="107" y="-258" font-family="Helvetica,sans-Serif" font-size="10.00">+ resize()</text>
<text text-anchor="start" x="107" y="-247" font-family="Helvetica,sans-Serif" font-size="10.00">+ empty()</text>
<text text-anchor="start" x="107" y="-236" font-family="Helvetica,sans-Serif" font-size="10.00">+ clear()</text>
<text text-anchor="start" x="107" y="-225" font-family="Helvetica,sans-Serif" font-size="10.00">+ operator[]()</text>
</a>
</g>
<!-- Node2&#45;&gt;Node1 -->
<g id="edge2" class="edge"><title>Node2&#45;&gt;Node1</title>
<path fill="none" stroke="midnightblue" d="M153,-208.522C153,-198.671 153,-188.833 153,-179.274"/>
<polygon fill="none" stroke="midnightblue" points="149.5,-208.782 153,-218.782 156.5,-208.782 149.5,-208.782"/>
</g>
<!-- Node3 -->
<g id="node4" class="node"><title>Node3</title>
<polygon fill="white" stroke="#bfbfbf" points="0,-732.5 0,-789.5 206,-789.5 206,-732.5 0,-732.5"/>
<text text-anchor="middle" x="103" y="-776.5" font-family="Helvetica,sans-Serif" font-size="10.00">std::vector&lt; boost::shared_ptr&lt; Neuron &gt; &gt;</text>
<polyline fill="none" stroke="#bfbfbf" points="0,-770.5 206,-770.5 "/>
<text text-anchor="start" x="8" y="-757.5" font-family="Helvetica,sans-Serif" font-size="10.00">&#45; elements</text>
<polyline fill="none" stroke="#bfbfbf" points="0,-751.5 206,-751.5 "/>
<text text-anchor="middle" x="103" y="-738.5" font-family="Helvetica,sans-Serif" font-size="10.00"> </text>
</g>
<!-- Node3&#45;&gt;Node2 -->
<g id="edge4" class="edge"><title>Node3&#45;&gt;Node2</title>
<path fill="none" stroke="#9a32cd" stroke-dasharray="5,2" d="M107.507,-722.153C114.783,-659.426 129.387,-533.547 140.093,-441.262"/>
<polygon fill="#9a32cd" stroke="#9a32cd" points="106.319,-732.387 103.002,-721.935 106.896,-727.42 107.472,-722.454 107.472,-722.454 107.472,-722.454 106.896,-727.42 111.942,-722.972 106.319,-732.387 106.319,-732.387"/>
<text text-anchor="middle" x="155.5" y="-598.5" font-family="Helvetica,sans-Serif" font-size="10.00">collection</text>
</g>
<!-- Node4 -->
<g id="node6" class="node"><title>Node4</title>
<a xlink:title="STL class.">
<polygon fill="white" stroke="#bfbfbf" points="132.5,-914.5 132.5,-971.5 219.5,-971.5 219.5,-914.5 132.5,-914.5"/>
<text text-anchor="middle" x="176" y="-958.5" font-family="Helvetica,sans-Serif" font-size="10.00">std::vector&lt; T &gt;</text>
<polyline fill="none" stroke="#bfbfbf" points="132.5,-952.5 219.5,-952.5 "/>
<text text-anchor="start" x="140.5" y="-939.5" font-family="Helvetica,sans-Serif" font-size="10.00">&#45; elements</text>
<polyline fill="none" stroke="#bfbfbf" points="132.5,-933.5 219.5,-933.5 "/>
<text text-anchor="middle" x="176" y="-920.5" font-family="Helvetica,sans-Serif" font-size="10.00"> </text>
</a>
</g>
<!-- Node4&#45;&gt;Node3 -->
<g id="edge6" class="edge"><title>Node4&#45;&gt;Node3</title>
<path fill="none" stroke="orange" stroke-dasharray="5,2" d="M123.256,-925.422C110.116,-918.402 97.6162,-908.842 90,-896 70.6621,-863.394 80.7895,-818.405 90.9689,-789.504"/>
<polygon fill="orange" stroke="orange" points="121.881,-928.645 132.403,-929.885 124.95,-922.354 121.881,-928.645"/>
<text text-anchor="middle" x="161.5" y="-886.5" font-family="Helvetica,sans-Serif" font-size="10.00">&lt; boost::shared_ptr&lt; Neuron &gt; &gt;</text>
</g>
<!-- Node7 -->
<g id="node12" class="node"><title>Node7</title>
<polygon fill="white" stroke="#bfbfbf" points="164,-808.5 164,-865.5 344,-865.5 344,-808.5 164,-808.5"/>
<text text-anchor="middle" x="254" y="-852.5" font-family="Helvetica,sans-Serif" font-size="10.00">std::vector&lt; boost::shared_ptr&lt; T &gt; &gt;</text>
<polyline fill="none" stroke="#bfbfbf" points="164,-846.5 344,-846.5 "/>
<text text-anchor="start" x="172" y="-833.5" font-family="Helvetica,sans-Serif" font-size="10.00">&#45; elements</text>
<polyline fill="none" stroke="#bfbfbf" points="164,-827.5 344,-827.5 "/>
<text text-anchor="middle" x="254" y="-814.5" font-family="Helvetica,sans-Serif" font-size="10.00"> </text>
</g>
<!-- Node4&#45;&gt;Node7 -->
<g id="edge14" class="edge"><title>Node4&#45;&gt;Node7</title>
<path fill="none" stroke="orange" stroke-dasharray="5,2" d="M227.038,-908.053C230.72,-904.271 234.113,-900.244 237,-896 243.116,-887.01 247.057,-875.818 249.586,-865.605"/>
<polygon fill="orange" stroke="orange" points="224.531,-905.605 219.657,-915.012 229.334,-910.698 224.531,-905.605"/>
<text text-anchor="middle" x="302" y="-886.5" font-family="Helvetica,sans-Serif" font-size="10.00">&lt; boost::shared_ptr&lt; T &gt; &gt;</text>
</g>
<!-- Node5 -->
<g id="node8" class="node"><title>Node5</title>
<polygon fill="white" stroke="#bfbfbf" points="161.5,-1020.5 161.5,-1077.5 190.5,-1077.5 190.5,-1020.5 161.5,-1020.5"/>
<text text-anchor="middle" x="176" y="-1064.5" font-family="Helvetica,sans-Serif" font-size="10.00">T</text>
<polyline fill="none" stroke="#bfbfbf" points="161.5,-1058.5 190.5,-1058.5 "/>
<text text-anchor="middle" x="176" y="-1045.5" font-family="Helvetica,sans-Serif" font-size="10.00"> </text>
<polyline fill="none" stroke="#bfbfbf" points="161.5,-1039.5 190.5,-1039.5 "/>
<text text-anchor="middle" x="176" y="-1026.5" font-family="Helvetica,sans-Serif" font-size="10.00"> </text>
</g>
<!-- Node5&#45;&gt;Node4 -->
<g id="edge8" class="edge"><title>Node5&#45;&gt;Node4</title>
<path fill="none" stroke="#9a32cd" stroke-dasharray="5,2" d="M176,-1010.01C176,-997.326 176,-983.494 176,-971.708"/>
<polygon fill="#9a32cd" stroke="#9a32cd" points="176,-1020.31 171.5,-1010.31 176,-1015.31 176,-1010.31 176,-1010.31 176,-1010.31 176,-1015.31 180.5,-1010.31 176,-1020.31 176,-1020.31"/>
<text text-anchor="middle" x="196" y="-992.5" font-family="Helvetica,sans-Serif" font-size="10.00">elements</text>
</g>
<!-- Node6 -->
<g id="node10" class="node"><title>Node6</title>
<a xlink:href="class_container.html" target="_top" xlink:title="{Container\&lt; T \&gt;\n|# collection\l|+ Container()\l+ Container()\l+ begin()\l+ end()\l+ load()\l+ store()\l+ size()\l+ push_back()\l+ append()\l+ show()\l+ validate()\l+ reserve()\l+ resize()\l+ empty()\l+ clear()\l+ operator[]()\l}">
<polygon fill="white" stroke="black" points="185,-491 185,-713 267,-713 267,-491 185,-491"/>
<text text-anchor="middle" x="226" y="-700" font-family="Helvetica,sans-Serif" font-size="10.00">Container&lt; T &gt;</text>
<polyline fill="none" stroke="black" points="185,-694 267,-694 "/>
<text text-anchor="start" x="193" y="-681" font-family="Helvetica,sans-Serif" font-size="10.00"># collection</text>
<polyline fill="none" stroke="black" points="185,-675 267,-675 "/>
<text text-anchor="start" x="193" y="-662" font-family="Helvetica,sans-Serif" font-size="10.00">+ Container()</text>
<text text-anchor="start" x="193" y="-651" font-family="Helvetica,sans-Serif" font-size="10.00">+ Container()</text>
<text text-anchor="start" x="193" y="-640" font-family="Helvetica,sans-Serif" font-size="10.00">+ begin()</text>
<text text-anchor="start" x="193" y="-629" font-family="Helvetica,sans-Serif" font-size="10.00">+ end()</text>
<text text-anchor="start" x="193" y="-618" font-family="Helvetica,sans-Serif" font-size="10.00">+ load()</text>
<text text-anchor="start" x="193" y="-607" font-family="Helvetica,sans-Serif" font-size="10.00">+ store()</text>
<text text-anchor="start" x="193" y="-596" font-family="Helvetica,sans-Serif" font-size="10.00">+ size()</text>
<text text-anchor="start" x="193" y="-585" font-family="Helvetica,sans-Serif" font-size="10.00">+ push_back()</text>
<text text-anchor="start" x="193" y="-574" font-family="Helvetica,sans-Serif" font-size="10.00">+ append()</text>
<text text-anchor="start" x="193" y="-563" font-family="Helvetica,sans-Serif" font-size="10.00">+ show()</text>
<text text-anchor="start" x="193" y="-552" font-family="Helvetica,sans-Serif" font-size="10.00">+ validate()</text>
<text text-anchor="start" x="193" y="-541" font-family="Helvetica,sans-Serif" font-size="10.00">+ reserve()</text>
<text text-anchor="start" x="193" y="-530" font-family="Helvetica,sans-Serif" font-size="10.00">+ resize()</text>
<text text-anchor="start" x="193" y="-519" font-family="Helvetica,sans-Serif" font-size="10.00">+ empty()</text>
<text text-anchor="start" x="193" y="-508" font-family="Helvetica,sans-Serif" font-size="10.00">+ clear()</text>
<text text-anchor="start" x="193" y="-497" font-family="Helvetica,sans-Serif" font-size="10.00">+ operator[]()</text>
</a>
</g>
<!-- Node6&#45;&gt;Node2 -->
<g id="edge10" class="edge"><title>Node6&#45;&gt;Node2</title>
<path fill="none" stroke="orange" stroke-dasharray="5,2" d="M193.602,-481.285C190.015,-467.918 186.374,-454.351 182.82,-441.111"/>
<polygon fill="orange" stroke="orange" points="190.23,-482.224 196.203,-490.975 196.991,-480.409 190.23,-482.224"/>
<text text-anchor="middle" x="214" y="-462.5" font-family="Helvetica,sans-Serif" font-size="10.00">&lt; Neuron &gt;</text>
</g>
<!-- Node7&#45;&gt;Node6 -->
<g id="edge12" class="edge"><title>Node7&#45;&gt;Node6</title>
<path fill="none" stroke="#9a32cd" stroke-dasharray="5,2" d="M249.355,-798.017C246.572,-774.654 242.878,-743.655 239.252,-713.22"/>
<polygon fill="#9a32cd" stroke="#9a32cd" points="250.567,-808.184 244.915,-798.787 249.975,-803.22 249.383,-798.255 249.383,-798.255 249.383,-798.255 249.975,-803.22 253.852,-797.722 250.567,-808.184 250.567,-808.184"/>
<text text-anchor="middle" x="267.5" y="-757.5" font-family="Helvetica,sans-Serif" font-size="10.00">collection</text>
</g>
</g>
</svg>
