<?xml version="1.0" encoding="UTF-8" standalone="no"?>
<!DOCTYPE svg PUBLIC "-//W3C//DTD SVG 1.1//EN"
 "http://www.w3.org/Graphics/SVG/1.1/DTD/svg11.dtd">
<!-- Generated by graphviz version 2.28.0 (20110610.2051)
 -->
<!-- Title: G Pages: 1 -->
<svg width="217pt" height="140pt"
 viewBox="0.00 0.00 217.00 140.00" xmlns="http://www.w3.org/2000/svg" xmlns:xlink="http://www.w3.org/1999/xlink">
<g id="graph1" class="graph" transform="scale(1 1) rotate(0) translate(4 136)">
<title>G</title>
<polygon fill="white" stroke="white" points="-4,5 -4,-136 214,-136 214,5 -4,5"/>
<!-- Node1 -->
<g id="node1" class="node"><title>Node1</title>
<polygon fill="#bfbfbf" stroke="black" points="-0.5,-112.5 -0.5,-131.5 158.5,-131.5 158.5,-112.5 -0.5,-112.5"/>
<text text-anchor="middle" x="79" y="-119.5" font-family="Helvetica,sans-Serif" font-size="10.00">pkg/AMORE/src/dia/Container.h</text>
</g>
<!-- Node2 -->
<g id="node3" class="node"><title>Node2</title>
<a xlink:href="_a_m_o_r_e_8h.html" target="_top" xlink:title="pkg/AMORE/src/AMORE.h">
<polygon fill="white" stroke="black" points="10.5,-0.5 10.5,-19.5 147.5,-19.5 147.5,-0.5 10.5,-0.5"/>
<text text-anchor="middle" x="79" y="-7.5" font-family="Helvetica,sans-Serif" font-size="10.00">pkg/AMORE/src/AMORE.h</text>
</a>
</g>
<!-- Node1&#45;&gt;Node2 -->
<g id="edge2" class="edge"><title>Node1&#45;&gt;Node2</title>
<path fill="none" stroke="midnightblue" d="M62.817,-104.962C55.9028,-96.9796 48.6041,-86.7488 45,-76 37.8743,-54.7487 56.6168,-31.9953 69.0267,-19.8497"/>
<polygon fill="midnightblue" stroke="midnightblue" points="60.3451,-107.444 69.7121,-112.395 65.4769,-102.683 60.3451,-107.444"/>
</g>
<!-- Node3 -->
<g id="node5" class="node"><title>Node3</title>
<a xlink:href="_container_8cpp.html" target="_top" xlink:title="pkg/AMORE/src/Container.cpp">
<polygon fill="white" stroke="black" points="54.5,-56.5 54.5,-75.5 209.5,-75.5 209.5,-56.5 54.5,-56.5"/>
<text text-anchor="middle" x="132" y="-63.5" font-family="Helvetica,sans-Serif" font-size="10.00">pkg/AMORE/src/Container.cpp</text>
</a>
</g>
<!-- Node1&#45;&gt;Node3 -->
<g id="edge4" class="edge"><title>Node1&#45;&gt;Node3</title>
<path fill="none" stroke="midnightblue" d="M94.9809,-104.718C104.322,-95.1997 115.746,-83.5608 123.411,-75.7511"/>
<polygon fill="midnightblue" stroke="midnightblue" points="92.2587,-102.494 87.7519,-112.083 97.2545,-107.398 92.2587,-102.494"/>
</g>
<!-- Node3&#45;&gt;Node2 -->
<g id="edge6" class="edge"><title>Node3&#45;&gt;Node2</title>
<path fill="none" stroke="midnightblue" d="M116.019,-48.7175C106.678,-39.1997 95.2541,-27.5608 87.589,-19.7511"/>
<polygon fill="midnightblue" stroke="midnightblue" points="113.746,-51.3978 123.248,-56.083 118.741,-46.4945 113.746,-51.3978"/>
</g>
</g>
</svg>
