<?xml version="1.0" encoding="UTF-8" standalone="no"?>
<!DOCTYPE svg PUBLIC "-//W3C//DTD SVG 1.1//EN"
 "http://www.w3.org/Graphics/SVG/1.1/DTD/svg11.dtd">
<!-- Generated by graphviz version 2.28.0 (20110610.2051)
 -->
<!-- Title: G Pages: 1 -->
<svg width="303pt" height="140pt"
 viewBox="0.00 0.00 303.00 140.00" xmlns="http://www.w3.org/2000/svg" xmlns:xlink="http://www.w3.org/1999/xlink">
<g id="graph1" class="graph" transform="scale(1 1) rotate(0) translate(4 136)">
<title>G</title>
<polygon fill="white" stroke="white" points="-4,5 -4,-136 300,-136 300,5 -4,5"/>
<!-- Node1 -->
<g id="node1" class="node"><title>Node1</title>
<polygon fill="#bfbfbf" stroke="black" points="71,-112.5 71,-131.5 219,-131.5 219,-112.5 71,-112.5"/>
<text text-anchor="middle" x="145" y="-119.5" font-family="Helvetica,sans-Serif" font-size="10.00">pkg/AMORE/src/dia/Neuron.h</text>
</g>
<!-- Node2 -->
<g id="node3" class="node"><title>Node2</title>
<a xlink:href="_con_8cpp.html" target="_top" xlink:title="pkg/AMORE/src/Con.cpp">
<polygon fill="white" stroke="black" points="3,-56.5 3,-75.5 133,-75.5 133,-56.5 3,-56.5"/>
<text text-anchor="middle" x="68" y="-63.5" font-family="Helvetica,sans-Serif" font-size="10.00">pkg/AMORE/src/Con.cpp</text>
</a>
</g>
<!-- Node1&#45;&gt;Node2 -->
<g id="edge2" class="edge"><title>Node1&#45;&gt;Node2</title>
<path fill="none" stroke="midnightblue" d="M124.099,-106.342C110.089,-96.5169 92.117,-83.9132 80.3407,-75.6545"/>
<polygon fill="midnightblue" stroke="midnightblue" points="122.432,-109.448 132.629,-112.324 126.451,-103.717 122.432,-109.448"/>
</g>
<!-- Node4 -->
<g id="node7" class="node"><title>Node4</title>
<a xlink:href="_neuron_8cpp.html" target="_top" xlink:title="pkg/AMORE/src/Neuron.cpp">
<polygon fill="white" stroke="black" points="151,-56.5 151,-75.5 295,-75.5 295,-56.5 151,-56.5"/>
<text text-anchor="middle" x="223" y="-63.5" font-family="Helvetica,sans-Serif" font-size="10.00">pkg/AMORE/src/Neuron.cpp</text>
</a>
</g>
<!-- Node1&#45;&gt;Node4 -->
<g id="edge6" class="edge"><title>Node1&#45;&gt;Node4</title>
<path fill="none" stroke="midnightblue" d="M165.768,-106.622C180.017,-96.7574 198.456,-83.9919 210.499,-75.6545"/>
<polygon fill="midnightblue" stroke="midnightblue" points="163.762,-103.754 157.532,-112.324 167.746,-109.51 163.762,-103.754"/>
</g>
<!-- Node3 -->
<g id="node5" class="node"><title>Node3</title>
<a xlink:href="_a_m_o_r_e_8h.html" target="_top" xlink:title="pkg/AMORE/src/AMORE.h">
<polygon fill="white" stroke="black" points="-0.5,-0.5 -0.5,-19.5 136.5,-19.5 136.5,-0.5 -0.5,-0.5"/>
<text text-anchor="middle" x="68" y="-7.5" font-family="Helvetica,sans-Serif" font-size="10.00">pkg/AMORE/src/AMORE.h</text>
</a>
</g>
<!-- Node2&#45;&gt;Node3 -->
<g id="edge4" class="edge"><title>Node2&#45;&gt;Node3</title>
<path fill="none" stroke="midnightblue" d="M68,-45.8045C68,-36.9102 68,-26.7798 68,-19.7511"/>
<polygon fill="midnightblue" stroke="midnightblue" points="64.5001,-46.083 68,-56.083 71.5001,-46.083 64.5001,-46.083"/>
</g>
</g>
</svg>
