<?xml version="1.0" encoding="UTF-8" standalone="no"?>
<!DOCTYPE svg PUBLIC "-//W3C//DTD SVG 1.1//EN"
 "http://www.w3.org/Graphics/SVG/1.1/DTD/svg11.dtd">
<!-- Generated by graphviz version 2.28.0 (20110610.2051)
 -->
<!-- Title: G Pages: 1 -->
<svg width="312pt" height="140pt"
 viewBox="0.00 0.00 312.34 140.00" xmlns="http://www.w3.org/2000/svg" xmlns:xlink="http://www.w3.org/1999/xlink">
<g id="graph1" class="graph" transform="scale(1 1) rotate(0) translate(4 136)">
<title>G</title>
<polygon fill="white" stroke="white" points="-4,5 -4,-136 309.34,-136 309.34,5 -4,5"/>
<!-- Node1 -->
<g id="node1" class="node"><title>Node1</title>
<polygon fill="#bfbfbf" stroke="black" points="3.33991,-112.5 3.33991,-131.5 151.34,-131.5 151.34,-112.5 3.33991,-112.5"/>
<text text-anchor="middle" x="77.3399" y="-119.5" font-family="Helvetica,sans-Serif" font-size="10.00">pkg/AMORE/src/dia/Neuron.h</text>
</g>
<!-- Node2 -->
<g id="node3" class="node"><title>Node2</title>
<a xlink:href="_a_m_o_r_e_8h.html" target="_top" xlink:title="pkg/AMORE/src/AMORE.h">
<polygon fill="white" stroke="black" points="8.83991,-0.5 8.83991,-19.5 145.84,-19.5 145.84,-0.5 8.83991,-0.5"/>
<text text-anchor="middle" x="77.3399" y="-7.5" font-family="Helvetica,sans-Serif" font-size="10.00">pkg/AMORE/src/AMORE.h</text>
</a>
</g>
<!-- Node1&#45;&gt;Node2 -->
<g id="edge2" class="edge"><title>Node1&#45;&gt;Node2</title>
<path fill="none" stroke="midnightblue" d="M41.1034,-108.154C26.6708,-101.046 11.5614,-90.6218 3.33991,-76 -10.8235,-50.8105 25.9629,-30.5516 52.6019,-19.6911"/>
<polygon fill="midnightblue" stroke="midnightblue" points="39.8564,-111.431 50.4107,-112.356 42.7372,-105.051 39.8564,-111.431"/>
</g>
<!-- Node3 -->
<g id="node5" class="node"><title>Node3</title>
<a xlink:href="_con_8cpp.html" target="_top" xlink:title="pkg/AMORE/src/Con.cpp">
<polygon fill="white" stroke="black" points="12.3399,-56.5 12.3399,-75.5 142.34,-75.5 142.34,-56.5 12.3399,-56.5"/>
<text text-anchor="middle" x="77.3399" y="-63.5" font-family="Helvetica,sans-Serif" font-size="10.00">pkg/AMORE/src/Con.cpp</text>
</a>
</g>
<!-- Node1&#45;&gt;Node3 -->
<g id="edge4" class="edge"><title>Node1&#45;&gt;Node3</title>
<path fill="none" stroke="midnightblue" d="M77.3399,-101.805C77.3399,-92.9102 77.3399,-82.7798 77.3399,-75.7511"/>
<polygon fill="midnightblue" stroke="midnightblue" points="73.84,-102.083 77.3399,-112.083 80.84,-102.083 73.84,-102.083"/>
</g>
<!-- Node4 -->
<g id="node8" class="node"><title>Node4</title>
<a xlink:href="_neuron_8cpp.html" target="_top" xlink:title="pkg/AMORE/src/Neuron.cpp">
<polygon fill="white" stroke="black" points="160.34,-56.5 160.34,-75.5 304.34,-75.5 304.34,-56.5 160.34,-56.5"/>
<text text-anchor="middle" x="232.34" y="-63.5" font-family="Helvetica,sans-Serif" font-size="10.00">pkg/AMORE/src/Neuron.cpp</text>
</a>
</g>
<!-- Node1&#45;&gt;Node4 -->
<g id="edge8" class="edge"><title>Node1&#45;&gt;Node4</title>
<path fill="none" stroke="midnightblue" d="M111.672,-109.039C140.836,-98.8786 181.977,-84.5457 207.895,-75.5164"/>
<polygon fill="midnightblue" stroke="midnightblue" points="110.192,-105.848 101.9,-112.444 112.495,-112.459 110.192,-105.848"/>
</g>
<!-- Node3&#45;&gt;Node2 -->
<g id="edge6" class="edge"><title>Node3&#45;&gt;Node2</title>
<path fill="none" stroke="midnightblue" d="M77.3399,-45.8045C77.3399,-36.9102 77.3399,-26.7798 77.3399,-19.7511"/>
<polygon fill="midnightblue" stroke="midnightblue" points="73.84,-46.083 77.3399,-56.083 80.84,-46.083 73.84,-46.083"/>
</g>
<!-- Node4&#45;&gt;Node2 -->
<g id="edge10" class="edge"><title>Node4&#45;&gt;Node2</title>
<path fill="none" stroke="midnightblue" d="M198.008,-53.0392C168.843,-42.8786 127.703,-28.5457 101.785,-19.5164"/>
<polygon fill="midnightblue" stroke="midnightblue" points="197.185,-56.4587 207.78,-56.4435 199.488,-49.8484 197.185,-56.4587"/>
</g>
</g>
</svg>
