<?xml version="1.0" encoding="UTF-8" standalone="no"?>
<!DOCTYPE svg PUBLIC "-//W3C//DTD SVG 1.1//EN"
 "http://www.w3.org/Graphics/SVG/1.1/DTD/svg11.dtd">
<!-- Generated by graphviz version 2.28.0 (20110610.2051)
 -->
<!-- Title: G Pages: 1 -->
<svg width="306pt" height="66pt"
 viewBox="0.00 0.00 306.00 66.00" xmlns="http://www.w3.org/2000/svg" xmlns:xlink="http://www.w3.org/1999/xlink">
<g id="graph1" class="graph" transform="scale(1 1) rotate(0) translate(4 62)">
<title>G</title>
<polygon fill="white" stroke="white" points="-4,5 -4,-62 303,-62 303,5 -4,5"/>
<!-- Node1 -->
<g id="node1" class="node"><title>Node1</title>
<a xlink:href="class_iterator.html" target="_top" xlink:title="class Iterator &#45;">
<polygon fill="white" stroke="black" points="0.5,-19.5 0.5,-38.5 73.5,-38.5 73.5,-19.5 0.5,-19.5"/>
<text text-anchor="middle" x="37" y="-26.5" font-family="Helvetica,sans-Serif" font-size="10.00">Iterator&lt; T &gt;</text>
</a>
</g>
<!-- Node2 -->
<g id="node3" class="node"><title>Node2</title>
<a xlink:href="class_simple_container_iterator.html" target="_top" xlink:title="class SimpleContainerIterator &#45;">
<polygon fill="white" stroke="black" points="129.5,-38.5 129.5,-57.5 278.5,-57.5 278.5,-38.5 129.5,-38.5"/>
<text text-anchor="middle" x="204" y="-45.5" font-family="Helvetica,sans-Serif" font-size="10.00">SimpleContainerIterator&lt; T &gt;</text>
</a>
</g>
<!-- Node1&#45;&gt;Node2 -->
<g id="edge2" class="edge"><title>Node1&#45;&gt;Node2</title>
<path fill="none" stroke="midnightblue" d="M83.7379,-34.2668C97.8651,-35.8936 113.8,-37.7285 129.315,-39.515"/>
<polygon fill="midnightblue" stroke="midnightblue" points="84.1373,-30.7897 73.8025,-33.1227 83.3365,-37.7438 84.1373,-30.7897"/>
</g>
<!-- Node3 -->
<g id="node5" class="node"><title>Node3</title>
<a xlink:href="class_simple_container_reverse_iterator.html" target="_top" xlink:title="class SimpleContainerReverseIterator &#45;">
<polygon fill="white" stroke="black" points="110,-0.5 110,-19.5 298,-19.5 298,-0.5 110,-0.5"/>
<text text-anchor="middle" x="204" y="-7.5" font-family="Helvetica,sans-Serif" font-size="10.00">SimpleContainerReverseIterator&lt; T &gt;</text>
</a>
</g>
<!-- Node1&#45;&gt;Node3 -->
<g id="edge4" class="edge"><title>Node1&#45;&gt;Node3</title>
<path fill="none" stroke="midnightblue" d="M83.8576,-23.7194C95.1972,-22.4137 107.696,-20.9744 120.204,-19.5341"/>
<polygon fill="midnightblue" stroke="midnightblue" points="83.3365,-20.2562 73.8025,-24.8773 84.1373,-27.2103 83.3365,-20.2562"/>
</g>
</g>
</svg>
