<?xml version="1.0" encoding="UTF-8" standalone="no"?>
<!DOCTYPE svg PUBLIC "-//W3C//DTD SVG 1.1//EN"
 "http://www.w3.org/Graphics/SVG/1.1/DTD/svg11.dtd">
<!-- Generated by graphviz version 2.28.0 (20110610.2051)
 -->
<!-- Title: G Pages: 1 -->
<svg width="754pt" height="294pt"
 viewBox="0.00 0.00 754.00 294.00" xmlns="http://www.w3.org/2000/svg" xmlns:xlink="http://www.w3.org/1999/xlink">
<g id="graph1" class="graph" transform="scale(1 1) rotate(0) translate(4 290)">
<title>G</title>
<polygon fill="white" stroke="white" points="-4,5 -4,-290 751,-290 751,5 -4,5"/>
<!-- Node1 -->
<g id="node1" class="node"><title>Node1</title>
<a xlink:href="class_neuron_train_behavior.html" target="_top" xlink:title="class NeuronTrainBehavior &#45;">
<polygon fill="white" stroke="black" points="0,-132.5 0,-151.5 112,-151.5 112,-132.5 0,-132.5"/>
<text text-anchor="middle" x="56" y="-139.5" font-family="Helvetica,sans-Serif" font-size="10.00">NeuronTrainBehavior</text>
</a>
</g>
<!-- Node2 -->
<g id="node3" class="node"><title>Node2</title>
<a xlink:href="class_adapt_neuron_train_behavior.html" target="_top" xlink:title="class AdaptNeuronTrainBehavior &#45;">
<polygon fill="white" stroke="black" points="148,-161.5 148,-180.5 288,-180.5 288,-161.5 148,-161.5"/>
<text text-anchor="middle" x="218" y="-168.5" font-family="Helvetica,sans-Serif" font-size="10.00">AdaptNeuronTrainBehavior</text>
</a>
</g>
<!-- Node1&#45;&gt;Node2 -->
<g id="edge2" class="edge"><title>Node1&#45;&gt;Node2</title>
<path fill="none" stroke="midnightblue" d="M119.898,-153.4C134.662,-156.076 150.241,-158.9 164.495,-161.483"/>
<polygon fill="midnightblue" stroke="midnightblue" points="120.297,-149.916 109.833,-151.576 119.049,-156.803 120.297,-149.916"/>
</g>
<!-- Node9 -->
<g id="node17" class="node"><title>Node9</title>
<a xlink:href="class_batch_neuron_train_behavior.html" target="_top" xlink:title="class BatchNeuronTrainBehavior &#45;">
<polygon fill="white" stroke="black" points="148.5,-104.5 148.5,-123.5 287.5,-123.5 287.5,-104.5 148.5,-104.5"/>
<text text-anchor="middle" x="218" y="-111.5" font-family="Helvetica,sans-Serif" font-size="10.00">BatchNeuronTrainBehavior</text>
</a>
</g>
<!-- Node1&#45;&gt;Node9 -->
<g id="edge16" class="edge"><title>Node1&#45;&gt;Node9</title>
<path fill="none" stroke="midnightblue" d="M121.827,-130.655C135.369,-128.285 149.514,-125.81 162.631,-123.515"/>
<polygon fill="midnightblue" stroke="midnightblue" points="120.862,-127.271 111.615,-132.442 122.069,-134.166 120.862,-127.271"/>
</g>
<!-- Node3 -->
<g id="node5" class="node"><title>Node3</title>
<a xlink:href="class_a_d_a_p_tgd_neuron_train_behavior.html" target="_top" xlink:title="class ADAPTgdNeuronTrainBehavior &#45;">
<polygon fill="white" stroke="black" points="333,-228.5 333,-247.5 491,-247.5 491,-228.5 333,-228.5"/>
<text text-anchor="middle" x="412" y="-235.5" font-family="Helvetica,sans-Serif" font-size="10.00">ADAPTgdNeuronTrainBehavior</text>
</a>
</g>
<!-- Node2&#45;&gt;Node3 -->
<g id="edge4" class="edge"><title>Node2&#45;&gt;Node3</title>
<path fill="none" stroke="midnightblue" d="M256.017,-183.917C293.332,-196.939 350.061,-216.735 383.542,-228.418"/>
<polygon fill="midnightblue" stroke="midnightblue" points="257.104,-180.59 246.509,-180.599 254.797,-187.199 257.104,-180.59"/>
</g>
<!-- Node6 -->
<g id="node11" class="node"><title>Node6</title>
<a xlink:href="class_a_d_a_p_tgdwm_neuron_train_behavior.html" target="_top" xlink:title="class ADAPTgdwmNeuronTrainBehavior &#45;">
<polygon fill="white" stroke="black" points="325,-161.5 325,-180.5 499,-180.5 499,-161.5 325,-161.5"/>
<text text-anchor="middle" x="412" y="-168.5" font-family="Helvetica,sans-Serif" font-size="10.00">ADAPTgdwmNeuronTrainBehavior</text>
</a>
</g>
<!-- Node2&#45;&gt;Node6 -->
<g id="edge10" class="edge"><title>Node2&#45;&gt;Node6</title>
<path fill="none" stroke="midnightblue" d="M298.239,-171C307.014,-171 315.982,-171 324.837,-171"/>
<polygon fill="midnightblue" stroke="midnightblue" points="298.045,-167.5 288.045,-171 298.045,-174.5 298.045,-167.5"/>
</g>
<!-- Node4 -->
<g id="node7" class="node"><title>Node4</title>
<a xlink:href="class_a_d_a_p_tgd_hidden_neuron_train_behavior.html" target="_top" xlink:title="class ADAPTgdHiddenNeuronTrainBehavior &#45;">
<polygon fill="white" stroke="black" points="545.5,-266.5 545.5,-285.5 736.5,-285.5 736.5,-266.5 545.5,-266.5"/>
<text text-anchor="middle" x="641" y="-273.5" font-family="Helvetica,sans-Serif" font-size="10.00">ADAPTgdHiddenNeuronTrainBehavior</text>
</a>
</g>
<!-- Node3&#45;&gt;Node4 -->
<g id="edge6" class="edge"><title>Node3&#45;&gt;Node4</title>
<path fill="none" stroke="midnightblue" d="M479.935,-249.205C512.681,-254.687 551.682,-261.215 582.988,-266.456"/>
<polygon fill="midnightblue" stroke="midnightblue" points="480.429,-245.739 469.989,-247.54 479.274,-252.643 480.429,-245.739"/>
</g>
<!-- Node5 -->
<g id="node9" class="node"><title>Node5</title>
<a xlink:href="class_a_d_a_p_tgd_output_neuron_train_behavior.html" target="_top" xlink:title="class ADAPTgdOutputNeuronTrainBehavior &#45;">
<polygon fill="white" stroke="black" points="546,-228.5 546,-247.5 736,-247.5 736,-228.5 546,-228.5"/>
<text text-anchor="middle" x="641" y="-235.5" font-family="Helvetica,sans-Serif" font-size="10.00">ADAPTgdOutputNeuronTrainBehavior</text>
</a>
</g>
<!-- Node3&#45;&gt;Node5 -->
<g id="edge8" class="edge"><title>Node3&#45;&gt;Node5</title>
<path fill="none" stroke="midnightblue" d="M501.123,-238C515.727,-238 530.921,-238 545.67,-238"/>
<polygon fill="midnightblue" stroke="midnightblue" points="501.121,-234.5 491.121,-238 501.12,-241.5 501.121,-234.5"/>
</g>
<!-- Node7 -->
<g id="node13" class="node"><title>Node7</title>
<a xlink:href="class_a_d_a_p_tgdwm_hidden_neuron_train_behavior.html" target="_top" xlink:title="class ADAPTgdwmHiddenNeuronTrainBehavior &#45;">
<polygon fill="white" stroke="black" points="537.5,-190.5 537.5,-209.5 744.5,-209.5 744.5,-190.5 537.5,-190.5"/>
<text text-anchor="middle" x="641" y="-197.5" font-family="Helvetica,sans-Serif" font-size="10.00">ADAPTgdwmHiddenNeuronTrainBehavior</text>
</a>
</g>
<!-- Node6&#45;&gt;Node7 -->
<g id="edge12" class="edge"><title>Node6&#45;&gt;Node7</title>
<path fill="none" stroke="midnightblue" d="M497.717,-181.823C519.913,-184.659 543.682,-187.695 565.312,-190.458"/>
<polygon fill="midnightblue" stroke="midnightblue" points="498.006,-178.331 487.643,-180.536 497.119,-185.275 498.006,-178.331"/>
</g>
<!-- Node8 -->
<g id="node15" class="node"><title>Node8</title>
<a xlink:href="class_a_d_a_p_tgdwm_output_neuron_train_behavior.html" target="_top" xlink:title="class ADAPTgdwmOutputNeuronTrainBehavior &#45;">
<polygon fill="white" stroke="black" points="538,-152.5 538,-171.5 744,-171.5 744,-152.5 538,-152.5"/>
<text text-anchor="middle" x="641" y="-159.5" font-family="Helvetica,sans-Serif" font-size="10.00">ADAPTgdwmOutputNeuronTrainBehavior</text>
</a>
</g>
<!-- Node6&#45;&gt;Node8 -->
<g id="edge14" class="edge"><title>Node6&#45;&gt;Node8</title>
<path fill="none" stroke="midnightblue" d="M509.327,-167.181C518.783,-166.806 528.402,-166.425 537.913,-166.048"/>
<polygon fill="midnightblue" stroke="midnightblue" points="508.996,-163.691 499.143,-167.585 509.273,-170.686 508.996,-163.691"/>
</g>
<!-- Node10 -->
<g id="node19" class="node"><title>Node10</title>
<a xlink:href="class_b_a_t_c_hgd_neuron_train_behavior.html" target="_top" xlink:title="class BATCHgdNeuronTrainBehavior &#45;">
<polygon fill="white" stroke="black" points="332.5,-104.5 332.5,-123.5 491.5,-123.5 491.5,-104.5 332.5,-104.5"/>
<text text-anchor="middle" x="412" y="-111.5" font-family="Helvetica,sans-Serif" font-size="10.00">BATCHgdNeuronTrainBehavior</text>
</a>
</g>
<!-- Node9&#45;&gt;Node10 -->
<g id="edge18" class="edge"><title>Node9&#45;&gt;Node10</title>
<path fill="none" stroke="midnightblue" d="M297.509,-114C309.017,-114 320.871,-114 332.381,-114"/>
<polygon fill="midnightblue" stroke="midnightblue" points="297.503,-110.5 287.503,-114 297.503,-117.5 297.503,-110.5"/>
</g>
<!-- Node13 -->
<g id="node25" class="node"><title>Node13</title>
<a xlink:href="class_b_a_t_c_hgdwm_neuron_train_behavior.html" target="_top" xlink:title="class BATCHgdwmNeuronTrainBehavior &#45;">
<polygon fill="white" stroke="black" points="324,-38.5 324,-57.5 500,-57.5 500,-38.5 324,-38.5"/>
<text text-anchor="middle" x="412" y="-45.5" font-family="Helvetica,sans-Serif" font-size="10.00">BATCHgdwmNeuronTrainBehavior</text>
</a>
</g>
<!-- Node9&#45;&gt;Node13 -->
<g id="edge24" class="edge"><title>Node9&#45;&gt;Node13</title>
<path fill="none" stroke="midnightblue" d="M256.419,-101.137C293.67,-88.3321 349.975,-68.9775 383.359,-57.5015"/>
<polygon fill="midnightblue" stroke="midnightblue" points="255.238,-97.8423 246.918,-104.403 257.513,-104.462 255.238,-97.8423"/>
</g>
<!-- Node11 -->
<g id="node21" class="node"><title>Node11</title>
<a xlink:href="class_b_a_t_c_hgd_hidden_neuron_train_behavior.html" target="_top" xlink:title="class BATCHgdHiddenNeuronTrainBehavior &#45;">
<polygon fill="white" stroke="black" points="545,-114.5 545,-133.5 737,-133.5 737,-114.5 545,-114.5"/>
<text text-anchor="middle" x="641" y="-121.5" font-family="Helvetica,sans-Serif" font-size="10.00">BATCHgdHiddenNeuronTrainBehavior</text>
</a>
</g>
<!-- Node10&#45;&gt;Node11 -->
<g id="edge20" class="edge"><title>Node10&#45;&gt;Node11</title>
<path fill="none" stroke="midnightblue" d="M501.932,-117.918C516.053,-118.54 530.707,-119.185 544.962,-119.813"/>
<polygon fill="midnightblue" stroke="midnightblue" points="501.901,-114.413 491.757,-117.469 501.593,-121.406 501.901,-114.413"/>
</g>
<!-- Node12 -->
<g id="node23" class="node"><title>Node12</title>
<a xlink:href="class_b_a_t_c_hgd_output_neuron_train_behavior.html" target="_top" xlink:title="class BATCHgdOutputNeuronTrainBehavior &#45;">
<polygon fill="white" stroke="black" points="545.5,-76.5 545.5,-95.5 736.5,-95.5 736.5,-76.5 545.5,-76.5"/>
<text text-anchor="middle" x="641" y="-83.5" font-family="Helvetica,sans-Serif" font-size="10.00">BATCHgdOutputNeuronTrainBehavior</text>
</a>
</g>
<!-- Node10&#45;&gt;Node12 -->
<g id="edge22" class="edge"><title>Node10&#45;&gt;Node12</title>
<path fill="none" stroke="midnightblue" d="M500.161,-103.249C520.742,-100.71 542.547,-98.0207 562.659,-95.5398"/>
<polygon fill="midnightblue" stroke="midnightblue" points="499.665,-99.7834 490.169,-104.481 500.522,-106.731 499.665,-99.7834"/>
</g>
<!-- Node14 -->
<g id="node27" class="node"><title>Node14</title>
<a xlink:href="class_b_a_t_c_hgdwm_hidden_neuron_train_behavior.html" target="_top" xlink:title="class BATCHgdwmHiddenNeuronTrainBehavior &#45;">
<polygon fill="white" stroke="black" points="536.5,-38.5 536.5,-57.5 745.5,-57.5 745.5,-38.5 536.5,-38.5"/>
<text text-anchor="middle" x="641" y="-45.5" font-family="Helvetica,sans-Serif" font-size="10.00">BATCHgdwmHiddenNeuronTrainBehavior</text>
</a>
</g>
<!-- Node13&#45;&gt;Node14 -->
<g id="edge26" class="edge"><title>Node13&#45;&gt;Node14</title>
<path fill="none" stroke="midnightblue" d="M510.221,-48C518.892,-48 527.691,-48 536.412,-48"/>
<polygon fill="midnightblue" stroke="midnightblue" points="510.115,-44.5001 500.115,-48 510.115,-51.5001 510.115,-44.5001"/>
</g>
<!-- Node15 -->
<g id="node29" class="node"><title>Node15</title>
<a xlink:href="class_b_a_t_c_hgdwm_output_neuron_train_behavior.html" target="_top" xlink:title="class BATCHgdwmOutputNeuronTrainBehavior &#45;">
<polygon fill="white" stroke="black" points="537,-0.5 537,-19.5 745,-19.5 745,-0.5 537,-0.5"/>
<text text-anchor="middle" x="641" y="-7.5" font-family="Helvetica,sans-Serif" font-size="10.00">BATCHgdwmOutputNeuronTrainBehavior</text>
</a>
</g>
<!-- Node13&#45;&gt;Node15 -->
<g id="edge28" class="edge"><title>Node13&#45;&gt;Node15</title>
<path fill="none" stroke="midnightblue" d="M479.935,-36.795C512.681,-31.3134 551.682,-24.7845 582.988,-19.5439"/>
<polygon fill="midnightblue" stroke="midnightblue" points="479.274,-33.357 469.989,-38.46 480.429,-40.2609 479.274,-33.357"/>
</g>
</g>
</svg>
