<?xml version="1.0" encoding="UTF-8" standalone="no"?>
<!DOCTYPE svg PUBLIC "-//W3C//DTD SVG 1.1//EN"
 "http://www.w3.org/Graphics/SVG/1.1/DTD/svg11.dtd">
<!-- Generated by graphviz version 2.25.20091207.0545 (20091207.0545)
 -->
<!-- Title: G Pages: 1 -->
<svg width="480pt" height="28pt"
 viewBox="0.00 0.00 480.00 28.00" xmlns="http://www.w3.org/2000/svg" xmlns:xlink="http://www.w3.org/1999/xlink">
<g id="graph1" class="graph" transform="scale(1 1) rotate(0) translate(4 24)">
<title>G</title>
<polygon fill="white" stroke="white" points="-4,5 -4,-24 477,-24 477,5 -4,5"/>
<!-- Node1 -->
<g id="node1" class="node"><title>Node1</title>
<a xlink:href="class_container.html" target="_top" xlink:title="Container\&lt; Neuron \&gt;">
<polygon fill="white" stroke="black" points="0,-0.5 0,-19.5 108,-19.5 108,-0.5 0,-0.5"/>
<text text-anchor="middle" x="54" y="-6.5" font-family="Helvetica,sans-Serif" font-size="10.00">Container&lt; Neuron &gt;</text>
</a>
</g>
<!-- Node2 -->
<g id="node3" class="node"><title>Node2</title>
<a xlink:href="class_neuron_container.html" target="_top" xlink:title="A vector of neurons.">
<polygon fill="white" stroke="black" points="144,-0.5 144,-19.5 234,-19.5 234,-0.5 144,-0.5"/>
<text text-anchor="middle" x="189" y="-6.5" font-family="Helvetica,sans-Serif" font-size="10.00">NeuronContainer</text>
</a>
</g>
<!-- Node1&#45;&gt;Node2 -->
<g id="edge2" class="edge"><title>Node1&#45;&gt;Node2</title>
<path fill="none" stroke="midnightblue" d="M118.261,-10C126.946,-10 135.704,-10 143.956,-10"/>
<polygon fill="midnightblue" stroke="midnightblue" points="118.132,-6.5001 108.132,-10 118.132,-13.5001 118.132,-6.5001"/>
</g>
<!-- Node3 -->
<g id="node5" class="node"><title>Node3</title>
<a xlink:href="class_m_l_pneuron_container.html" target="_top" xlink:title="A vector of connections.">
<polygon fill="white" stroke="black" points="270,-0.5 270,-19.5 378,-19.5 378,-0.5 270,-0.5"/>
<text text-anchor="middle" x="324" y="-6.5" font-family="Helvetica,sans-Serif" font-size="10.00">MLPneuronContainer</text>
</a>
</g>
<!-- Node2&#45;&gt;Node3 -->
<g id="edge4" class="edge"><title>Node2&#45;&gt;Node3</title>
<path fill="none" stroke="midnightblue" d="M244.359,-10C252.716,-10 261.33,-10 269.665,-10"/>
<polygon fill="midnightblue" stroke="midnightblue" points="244.329,-6.5001 234.329,-10 244.329,-13.5001 244.329,-6.5001"/>
</g>
<!-- Node4 -->
<g id="node7" class="node"><title>Node4</title>
<a xlink:href="class_m_l_player.html" target="_top" xlink:title="MLPlayer">
<polygon fill="white" stroke="black" points="414.5,-0.5 414.5,-19.5 471.5,-19.5 471.5,-0.5 414.5,-0.5"/>
<text text-anchor="middle" x="443" y="-6.5" font-family="Helvetica,sans-Serif" font-size="10.00">MLPlayer</text>
</a>
</g>
<!-- Node3&#45;&gt;Node4 -->
<g id="edge6" class="edge"><title>Node3&#45;&gt;Node4</title>
<path fill="none" stroke="midnightblue" d="M388.558,-10C397.646,-10 406.575,-10 414.489,-10"/>
<polygon fill="midnightblue" stroke="midnightblue" points="388.277,-6.5001 378.276,-10 388.276,-13.5001 388.277,-6.5001"/>
</g>
</g>
</svg>
