<?xml version="1.0" encoding="UTF-8" standalone="no"?>
<!DOCTYPE svg PUBLIC "-//W3C//DTD SVG 1.1//EN"
 "http://www.w3.org/Graphics/SVG/1.1/DTD/svg11.dtd">
<!-- Generated by graphviz version 2.28.0 (20110610.2051)
 -->
<!-- Title: G Pages: 1 -->
<svg width="176pt" height="66pt"
 viewBox="0.00 0.00 176.00 66.00" xmlns="http://www.w3.org/2000/svg" xmlns:xlink="http://www.w3.org/1999/xlink">
<g id="graph1" class="graph" transform="scale(1 1) rotate(0) translate(4 62)">
<title>G</title>
<polygon fill="white" stroke="white" points="-4,5 -4,-62 173,-62 173,5 -4,5"/>
<!-- Node1 -->
<g id="node1" class="node"><title>Node1</title>
<a xlink:href="class_neuron.html" target="_top" xlink:title="class Neuron &#45;">
<polygon fill="white" stroke="black" points="0,-19.5 0,-38.5 50,-38.5 50,-19.5 0,-19.5"/>
<text text-anchor="middle" x="25" y="-26.5" font-family="Helvetica,sans-Serif" font-size="10.00">Neuron</text>
</a>
</g>
<!-- Node2 -->
<g id="node3" class="node"><title>Node2</title>
<a xlink:href="class_m_l_pneuron.html" target="_top" xlink:title="MLPneuron">
<polygon fill="white" stroke="black" points="93,-38.5 93,-57.5 161,-57.5 161,-38.5 93,-38.5"/>
<text text-anchor="middle" x="127" y="-45.5" font-family="Helvetica,sans-Serif" font-size="10.00">MLPneuron</text>
</a>
</g>
<!-- Node1&#45;&gt;Node2 -->
<g id="edge2" class="edge"><title>Node1&#45;&gt;Node2</title>
<path fill="none" stroke="midnightblue" d="M60.3367,-35.524C70.8915,-37.5294 82.4821,-39.7316 92.9488,-41.7203"/>
<polygon fill="midnightblue" stroke="midnightblue" points="60.6848,-32.0276 50.2072,-33.5994 59.3781,-38.9045 60.6848,-32.0276"/>
</g>
<!-- Node3 -->
<g id="node5" class="node"><title>Node3</title>
<a xlink:href="class_simple_neuron.html" target="_top" xlink:title="class SimpleNeuron &#45;">
<polygon fill="white" stroke="black" points="86,-0.5 86,-19.5 168,-19.5 168,-0.5 86,-0.5"/>
<text text-anchor="middle" x="127" y="-7.5" font-family="Helvetica,sans-Serif" font-size="10.00">SimpleNeuron</text>
</a>
</g>
<!-- Node1&#45;&gt;Node3 -->
<g id="edge4" class="edge"><title>Node1&#45;&gt;Node3</title>
<path fill="none" stroke="midnightblue" d="M60.1704,-22.5076C68.3632,-20.951 77.1883,-19.2742 85.6324,-17.6698"/>
<polygon fill="midnightblue" stroke="midnightblue" points="59.3781,-19.0955 50.2072,-24.4006 60.6848,-25.9724 59.3781,-19.0955"/>
</g>
</g>
</svg>
