<?xml version="1.0" encoding="UTF-8" standalone="no"?>
<!DOCTYPE svg PUBLIC "-//W3C//DTD SVG 1.1//EN"
 "http://www.w3.org/Graphics/SVG/1.1/DTD/svg11.dtd">
<!-- Generated by graphviz version 2.28.0 (20110610.2051)
 -->
<!-- Title: G Pages: 1 -->
<svg width="166pt" height="104pt"
 viewBox="0.00 0.00 166.00 104.00" xmlns="http://www.w3.org/2000/svg" xmlns:xlink="http://www.w3.org/1999/xlink">
<g id="graph1" class="graph" transform="scale(1 1) rotate(0) translate(4 100)">
<title>G</title>
<polygon fill="white" stroke="white" points="-4,5 -4,-100 163,-100 163,5 -4,5"/>
<!-- Node1 -->
<g id="node1" class="node"><title>Node1</title>
<a xlink:href="class_cost_function.html" target="_top" xlink:title="class CostFunction &#45;">
<polygon fill="white" stroke="black" points="0,-38.5 0,-57.5 78,-57.5 78,-38.5 0,-38.5"/>
<text text-anchor="middle" x="39" y="-45.5" font-family="Helvetica,sans-Serif" font-size="10.00">CostFunction</text>
</a>
</g>
<!-- Node2 -->
<g id="node3" class="node"><title>Node2</title>
<a xlink:href="class_l_m_l_s.html" target="_top" xlink:title="class LMLS &#45;">
<polygon fill="white" stroke="black" points="114,-76.5 114,-95.5 158,-95.5 158,-76.5 114,-76.5"/>
<text text-anchor="middle" x="136" y="-83.5" font-family="Helvetica,sans-Serif" font-size="10.00">LMLS</text>
</a>
</g>
<!-- Node1&#45;&gt;Node2 -->
<g id="edge2" class="edge"><title>Node1&#45;&gt;Node2</title>
<path fill="none" stroke="midnightblue" d="M73.4248,-61.3699C86.906,-66.7624 102.05,-72.82 113.946,-77.5784"/>
<polygon fill="midnightblue" stroke="midnightblue" points="74.5572,-58.0533 63.9725,-57.589 71.9574,-64.5526 74.5572,-58.0533"/>
</g>
<!-- Node3 -->
<g id="node5" class="node"><title>Node3</title>
<a xlink:href="class_l_m_s.html" target="_top" xlink:title="class LMS &#45;">
<polygon fill="white" stroke="black" points="117,-38.5 117,-57.5 155,-57.5 155,-38.5 117,-38.5"/>
<text text-anchor="middle" x="136" y="-45.5" font-family="Helvetica,sans-Serif" font-size="10.00">LMS</text>
</a>
</g>
<!-- Node1&#45;&gt;Node3 -->
<g id="edge4" class="edge"><title>Node1&#45;&gt;Node3</title>
<path fill="none" stroke="midnightblue" d="M88.2838,-48C98.5293,-48 108.726,-48 116.967,-48"/>
<polygon fill="midnightblue" stroke="midnightblue" points="88.0928,-44.5001 78.0927,-48 88.0927,-51.5001 88.0928,-44.5001"/>
</g>
<!-- Node4 -->
<g id="node7" class="node"><title>Node4</title>
<a xlink:href="class_tao.html" target="_top" xlink:title="class Tao &#45;">
<polygon fill="white" stroke="black" points="119,-0.5 119,-19.5 153,-19.5 153,-0.5 119,-0.5"/>
<text text-anchor="middle" x="136" y="-7.5" font-family="Helvetica,sans-Serif" font-size="10.00">Tao</text>
</a>
</g>
<!-- Node1&#45;&gt;Node4 -->
<g id="edge6" class="edge"><title>Node1&#45;&gt;Node4</title>
<path fill="none" stroke="midnightblue" d="M73.6718,-34.5313C89.0083,-28.3967 106.452,-21.4194 118.804,-16.4785"/>
<polygon fill="midnightblue" stroke="midnightblue" points="71.9574,-31.4474 63.9725,-38.411 74.5572,-37.9467 71.9574,-31.4474"/>
</g>
</g>
</svg>
