<?xml version="1.0" encoding="UTF-8" standalone="no"?>
<!DOCTYPE svg PUBLIC "-//W3C//DTD SVG 1.1//EN"
 "http://www.w3.org/Graphics/SVG/1.1/DTD/svg11.dtd">
<!-- Generated by graphviz version 2.28.0 (20110610.2051)
 -->
<!-- Title: G Pages: 1 -->
<svg width="428pt" height="142pt"
 viewBox="0.00 0.00 428.00 142.00" xmlns="http://www.w3.org/2000/svg" xmlns:xlink="http://www.w3.org/1999/xlink">
<g id="graph1" class="graph" transform="scale(1 1) rotate(0) translate(4 138)">
<title>G</title>
<polygon fill="white" stroke="white" points="-4,5 -4,-138 425,-138 425,5 -4,5"/>
<!-- Node1 -->
<g id="node1" class="node"><title>Node1</title>
<a xlink:href="class_container_interface.html" target="_top" xlink:title="class ContainerInterface &#45;">
<polygon fill="white" stroke="black" points="0,-57.5 0,-76.5 124,-76.5 124,-57.5 0,-57.5"/>
<text text-anchor="middle" x="62" y="-64.5" font-family="Helvetica,sans-Serif" font-size="10.00">ContainerInterface&lt; T &gt;</text>
</a>
</g>
<!-- Node2 -->
<g id="node3" class="node"><title>Node2</title>
<a xlink:href="class_container.html" target="_top" xlink:title="class Container &#45;">
<polygon fill="white" stroke="black" points="178.5,-114.5 178.5,-133.5 261.5,-133.5 261.5,-114.5 178.5,-114.5"/>
<text text-anchor="middle" x="220" y="-121.5" font-family="Helvetica,sans-Serif" font-size="10.00">Container&lt; T &gt;</text>
</a>
</g>
<!-- Node1&#45;&gt;Node2 -->
<g id="edge2" class="edge"><title>Node1&#45;&gt;Node2</title>
<path fill="none" stroke="midnightblue" d="M95.8968,-80.4714C114.587,-87.9778 138.483,-97.3291 160,-105 169.123,-108.252 179.123,-111.566 188.257,-114.496"/>
<polygon fill="midnightblue" stroke="midnightblue" points="96.9511,-77.1225 86.368,-76.6233 94.3299,-83.6133 96.9511,-77.1225"/>
</g>
<!-- Node3 -->
<g id="node5" class="node"><title>Node3</title>
<a xlink:href="class_container.html" target="_top" xlink:title="Container\&lt; Con \&gt;">
<polygon fill="white" stroke="black" points="172,-76.5 172,-95.5 268,-95.5 268,-76.5 172,-76.5"/>
<text text-anchor="middle" x="220" y="-83.5" font-family="Helvetica,sans-Serif" font-size="10.00">Container&lt; Con &gt;</text>
</a>
</g>
<!-- Node1&#45;&gt;Node3 -->
<g id="edge4" class="edge"><title>Node1&#45;&gt;Node3</title>
<path fill="none" stroke="midnightblue" d="M134.358,-75.6911C147.112,-77.2445 160.105,-78.8269 171.958,-80.2706"/>
<polygon fill="midnightblue" stroke="midnightblue" points="134.557,-72.1895 124.208,-74.4548 133.711,-79.1382 134.557,-72.1895"/>
</g>
<!-- Node5 -->
<g id="node9" class="node"><title>Node5</title>
<a xlink:href="class_container.html" target="_top" xlink:title="Container\&lt; MLPlayer \&gt;">
<polygon fill="white" stroke="black" points="160,-38.5 160,-57.5 280,-57.5 280,-38.5 160,-38.5"/>
<text text-anchor="middle" x="220" y="-45.5" font-family="Helvetica,sans-Serif" font-size="10.00">Container&lt; MLPlayer &gt;</text>
</a>
</g>
<!-- Node1&#45;&gt;Node5 -->
<g id="edge8" class="edge"><title>Node1&#45;&gt;Node5</title>
<path fill="none" stroke="midnightblue" d="M134.175,-58.3312C142.731,-57.2892 151.396,-56.2338 159.756,-55.2156"/>
<polygon fill="midnightblue" stroke="midnightblue" points="133.711,-54.8618 124.208,-59.5452 134.557,-61.8105 133.711,-54.8618"/>
</g>
<!-- Node7 -->
<g id="node13" class="node"><title>Node7</title>
<a xlink:href="class_container.html" target="_top" xlink:title="Container\&lt; Neuron \&gt;">
<polygon fill="white" stroke="black" points="165,-0.5 165,-19.5 275,-19.5 275,-0.5 165,-0.5"/>
<text text-anchor="middle" x="220" y="-7.5" font-family="Helvetica,sans-Serif" font-size="10.00">Container&lt; Neuron &gt;</text>
</a>
</g>
<!-- Node1&#45;&gt;Node7 -->
<g id="edge12" class="edge"><title>Node1&#45;&gt;Node7</title>
<path fill="none" stroke="midnightblue" d="M95.8968,-53.5286C114.587,-46.0222 138.483,-36.6709 160,-29 169.123,-25.7477 179.123,-22.4339 188.257,-19.5037"/>
<polygon fill="midnightblue" stroke="midnightblue" points="94.3299,-50.3867 86.368,-57.3767 96.9511,-56.8775 94.3299,-50.3867"/>
</g>
<!-- Node4 -->
<g id="node7" class="node"><title>Node4</title>
<a xlink:href="class_con_container.html" target="_top" xlink:title="A vector of connections.">
<polygon fill="white" stroke="black" points="328,-76.5 328,-95.5 408,-95.5 408,-76.5 328,-76.5"/>
<text text-anchor="middle" x="368" y="-83.5" font-family="Helvetica,sans-Serif" font-size="10.00">ConContainer</text>
</a>
</g>
<!-- Node3&#45;&gt;Node4 -->
<g id="edge6" class="edge"><title>Node3&#45;&gt;Node4</title>
<path fill="none" stroke="midnightblue" d="M278.483,-86C294.955,-86 312.531,-86 327.645,-86"/>
<polygon fill="midnightblue" stroke="midnightblue" points="278.402,-82.5001 268.402,-86 278.402,-89.5001 278.402,-82.5001"/>
</g>
<!-- Node6 -->
<g id="node11" class="node"><title>Node6</title>
<a xlink:href="class_m_l_player_container.html" target="_top" xlink:title="MLPlayerContainer">
<polygon fill="white" stroke="black" points="316,-38.5 316,-57.5 420,-57.5 420,-38.5 316,-38.5"/>
<text text-anchor="middle" x="368" y="-45.5" font-family="Helvetica,sans-Serif" font-size="10.00">MLPlayerContainer</text>
</a>
</g>
<!-- Node5&#45;&gt;Node6 -->
<g id="edge10" class="edge"><title>Node5&#45;&gt;Node6</title>
<path fill="none" stroke="midnightblue" d="M290.607,-48C299.037,-48 307.528,-48 315.629,-48"/>
<polygon fill="midnightblue" stroke="midnightblue" points="290.384,-44.5001 280.384,-48 290.384,-51.5001 290.384,-44.5001"/>
</g>
<!-- Node8 -->
<g id="node15" class="node"><title>Node8</title>
<a xlink:href="class_neuron_container.html" target="_top" xlink:title="A vector of neurons.">
<polygon fill="white" stroke="black" points="321,-0.5 321,-19.5 415,-19.5 415,-0.5 321,-0.5"/>
<text text-anchor="middle" x="368" y="-7.5" font-family="Helvetica,sans-Serif" font-size="10.00">NeuronContainer</text>
</a>
</g>
<!-- Node7&#45;&gt;Node8 -->
<g id="edge14" class="edge"><title>Node7&#45;&gt;Node8</title>
<path fill="none" stroke="midnightblue" d="M285.644,-10C297.464,-10 309.579,-10 320.729,-10"/>
<polygon fill="midnightblue" stroke="midnightblue" points="285.365,-6.5001 275.365,-10 285.365,-13.5001 285.365,-6.5001"/>
</g>
</g>
</svg>
