<?xml version="1.0" encoding="UTF-8" standalone="no"?>
<!DOCTYPE svg PUBLIC "-//W3C//DTD SVG 1.1//EN"
 "http://www.w3.org/Graphics/SVG/1.1/DTD/svg11.dtd">
<!-- Generated by graphviz version 2.28.0 (20110610.2051)
 -->
<!-- Title: G Pages: 1 -->
<svg width="314pt" height="142pt"
 viewBox="0.00 0.00 314.00 142.00" xmlns="http://www.w3.org/2000/svg" xmlns:xlink="http://www.w3.org/1999/xlink">
<g id="graph1" class="graph" transform="scale(1 1) rotate(0) translate(4 138)">
<title>G</title>
<polygon fill="white" stroke="white" points="-4,5 -4,-138 311,-138 311,5 -4,5"/>
<!-- Node1 -->
<g id="node1" class="node"><title>Node1</title>
<a xlink:href="class_training_variables_set.html" target="_top" xlink:title="class TrainingVariablesSet &#45;">
<polygon fill="white" stroke="black" points="0.5,-57.5 0.5,-76.5 111.5,-76.5 111.5,-57.5 0.5,-57.5"/>
<text text-anchor="middle" x="56" y="-64.5" font-family="Helvetica,sans-Serif" font-size="10.00">TrainingVariablesSet</text>
</a>
</g>
<!-- Node2 -->
<g id="node3" class="node"><title>Node2</title>
<a xlink:href="class_a_d_a_p_tgd_training_variables.html" target="_top" xlink:title="class ADAPTgdTrainingVariables &#45;">
<polygon fill="white" stroke="black" points="157,-114.5 157,-133.5 297,-133.5 297,-114.5 157,-114.5"/>
<text text-anchor="middle" x="227" y="-121.5" font-family="Helvetica,sans-Serif" font-size="10.00">ADAPTgdTrainingVariables</text>
</a>
</g>
<!-- Node1&#45;&gt;Node2 -->
<g id="edge2" class="edge"><title>Node1&#45;&gt;Node2</title>
<path fill="none" stroke="midnightblue" d="M86.4357,-80.6733C104.04,-88.501 127.001,-98.1052 148,-105 158.726,-108.522 170.473,-111.717 181.522,-114.44"/>
<polygon fill="midnightblue" stroke="midnightblue" points="87.8081,-77.4529 77.253,-76.5359 84.9325,-83.835 87.8081,-77.4529"/>
</g>
<!-- Node3 -->
<g id="node5" class="node"><title>Node3</title>
<a xlink:href="class_a_d_a_p_tgdwm_training_variables.html" target="_top" xlink:title="class ADAPTgdwmTrainingVariables &#45;">
<polygon fill="white" stroke="black" points="149,-76.5 149,-95.5 305,-95.5 305,-76.5 149,-76.5"/>
<text text-anchor="middle" x="227" y="-83.5" font-family="Helvetica,sans-Serif" font-size="10.00">ADAPTgdwmTrainingVariables</text>
</a>
</g>
<!-- Node1&#45;&gt;Node3 -->
<g id="edge4" class="edge"><title>Node1&#45;&gt;Node3</title>
<path fill="none" stroke="midnightblue" d="M122.059,-74.3143C130.876,-75.3056 139.992,-76.3305 148.994,-77.3426"/>
<polygon fill="midnightblue" stroke="midnightblue" points="122.198,-70.808 111.869,-73.1688 121.416,-77.7642 122.198,-70.808"/>
</g>
<!-- Node4 -->
<g id="node7" class="node"><title>Node4</title>
<a xlink:href="class_b_a_t_c_hgd_training_variables.html" target="_top" xlink:title="class BATCHgdTrainingVariables &#45;">
<polygon fill="white" stroke="black" points="156.5,-38.5 156.5,-57.5 297.5,-57.5 297.5,-38.5 156.5,-38.5"/>
<text text-anchor="middle" x="227" y="-45.5" font-family="Helvetica,sans-Serif" font-size="10.00">BATCHgdTrainingVariables</text>
</a>
</g>
<!-- Node1&#45;&gt;Node4 -->
<g id="edge6" class="edge"><title>Node1&#45;&gt;Node4</title>
<path fill="none" stroke="midnightblue" d="M122.017,-59.6904C133.241,-58.4286 144.95,-57.1121 156.292,-55.837"/>
<polygon fill="midnightblue" stroke="midnightblue" points="121.416,-56.2358 111.869,-60.8312 122.198,-63.192 121.416,-56.2358"/>
</g>
<!-- Node5 -->
<g id="node9" class="node"><title>Node5</title>
<a xlink:href="class_b_a_t_c_hgdwm_training_variables.html" target="_top" xlink:title="class BATCHgdwmTrainingVariables &#45;">
<polygon fill="white" stroke="black" points="148,-0.5 148,-19.5 306,-19.5 306,-0.5 148,-0.5"/>
<text text-anchor="middle" x="227" y="-7.5" font-family="Helvetica,sans-Serif" font-size="10.00">BATCHgdwmTrainingVariables</text>
</a>
</g>
<!-- Node1&#45;&gt;Node5 -->
<g id="edge8" class="edge"><title>Node1&#45;&gt;Node5</title>
<path fill="none" stroke="midnightblue" d="M86.4357,-53.3267C104.04,-45.499 127.001,-35.8948 148,-29 158.726,-25.4781 170.473,-22.2828 181.522,-19.56"/>
<polygon fill="midnightblue" stroke="midnightblue" points="84.9325,-50.165 77.253,-57.4641 87.8081,-56.5471 84.9325,-50.165"/>
</g>
</g>
</svg>
