<?xml version="1.0" encoding="UTF-8" standalone="no"?>
<!DOCTYPE svg PUBLIC "-//W3C//DTD SVG 1.1//EN"
 "http://www.w3.org/Graphics/SVG/1.1/DTD/svg11.dtd">
<!-- Generated by graphviz version 2.28.0 (20110610.2051)
 -->
<!-- Title: G Pages: 1 -->
<svg width="338pt" height="142pt"
 viewBox="0.00 0.00 338.00 142.00" xmlns="http://www.w3.org/2000/svg" xmlns:xlink="http://www.w3.org/1999/xlink">
<g id="graph1" class="graph" transform="scale(1 1) rotate(0) translate(4 138)">
<title>G</title>
<polygon fill="white" stroke="white" points="-4,5 -4,-138 335,-138 335,5 -4,5"/>
<!-- Node1 -->
<g id="node1" class="node"><title>Node1</title>
<a xlink:href="class_training_behavior.html" target="_top" xlink:title="class TrainingBehavior &#45;">
<polygon fill="white" stroke="black" points="0,-57.5 0,-76.5 92,-76.5 92,-57.5 0,-57.5"/>
<text text-anchor="middle" x="46" y="-64.5" font-family="Helvetica,sans-Serif" font-size="10.00">TrainingBehavior</text>
</a>
</g>
<!-- Node2 -->
<g id="node3" class="node"><title>Node2</title>
<a xlink:href="class_adapt_behavior.html" target="_top" xlink:title="class AdaptBehavior &#45;">
<polygon fill="white" stroke="black" points="128.5,-76.5 128.5,-95.5 213.5,-95.5 213.5,-76.5 128.5,-76.5"/>
<text text-anchor="middle" x="171" y="-83.5" font-family="Helvetica,sans-Serif" font-size="10.00">AdaptBehavior</text>
</a>
</g>
<!-- Node1&#45;&gt;Node2 -->
<g id="edge2" class="edge"><title>Node1&#45;&gt;Node2</title>
<path fill="none" stroke="midnightblue" d="M102.216,-75.5293C110.934,-76.876 119.822,-78.249 128.17,-79.5385"/>
<polygon fill="midnightblue" stroke="midnightblue" points="102.519,-72.0347 92.1022,-73.967 101.451,-78.9527 102.519,-72.0347"/>
</g>
<!-- Node5 -->
<g id="node9" class="node"><title>Node5</title>
<a xlink:href="class_batch_behavior.html" target="_top" xlink:title="class BatchBehavior &#45;">
<polygon fill="white" stroke="black" points="129,-38.5 129,-57.5 213,-57.5 213,-38.5 129,-38.5"/>
<text text-anchor="middle" x="171" y="-45.5" font-family="Helvetica,sans-Serif" font-size="10.00">BatchBehavior</text>
</a>
</g>
<!-- Node1&#45;&gt;Node5 -->
<g id="edge8" class="edge"><title>Node1&#45;&gt;Node5</title>
<path fill="none" stroke="midnightblue" d="M102.163,-58.4789C111.18,-57.086 120.381,-55.6648 128.979,-54.3366"/>
<polygon fill="midnightblue" stroke="midnightblue" points="101.451,-55.0473 92.1022,-60.033 102.519,-61.9653 101.451,-55.0473"/>
</g>
<!-- Node3 -->
<g id="node5" class="node"><title>Node3</title>
<a xlink:href="class_a_d_a_p_tgd.html" target="_top" xlink:title="class ADAPTgd &#45;">
<polygon fill="white" stroke="black" points="259,-114.5 259,-133.5 321,-133.5 321,-114.5 259,-114.5"/>
<text text-anchor="middle" x="290" y="-121.5" font-family="Helvetica,sans-Serif" font-size="10.00">ADAPTgd</text>
</a>
</g>
<!-- Node2&#45;&gt;Node3 -->
<g id="edge4" class="edge"><title>Node2&#45;&gt;Node3</title>
<path fill="none" stroke="midnightblue" d="M211.042,-98.6804C226.851,-103.815 244.799,-109.644 259.485,-114.414"/>
<polygon fill="midnightblue" stroke="midnightblue" points="212.116,-95.3493 201.524,-95.589 209.954,-102.007 212.116,-95.3493"/>
</g>
<!-- Node4 -->
<g id="node7" class="node"><title>Node4</title>
<a xlink:href="class_a_d_a_p_tgdwm.html" target="_top" xlink:title="class ADAPTgdwm &#45;">
<polygon fill="white" stroke="black" points="250.5,-76.5 250.5,-95.5 329.5,-95.5 329.5,-76.5 250.5,-76.5"/>
<text text-anchor="middle" x="290" y="-83.5" font-family="Helvetica,sans-Serif" font-size="10.00">ADAPTgdwm</text>
</a>
</g>
<!-- Node2&#45;&gt;Node4 -->
<g id="edge6" class="edge"><title>Node2&#45;&gt;Node4</title>
<path fill="none" stroke="midnightblue" d="M223.86,-86C232.742,-86 241.83,-86 250.292,-86"/>
<polygon fill="midnightblue" stroke="midnightblue" points="223.579,-82.5001 213.579,-86 223.579,-89.5001 223.579,-82.5001"/>
</g>
<!-- Node6 -->
<g id="node11" class="node"><title>Node6</title>
<a xlink:href="class_b_a_t_c_hgd.html" target="_top" xlink:title="class BATCHgd &#45;">
<polygon fill="white" stroke="black" points="258,-38.5 258,-57.5 322,-57.5 322,-38.5 258,-38.5"/>
<text text-anchor="middle" x="290" y="-45.5" font-family="Helvetica,sans-Serif" font-size="10.00">BATCHgd</text>
</a>
</g>
<!-- Node5&#45;&gt;Node6 -->
<g id="edge10" class="edge"><title>Node5&#45;&gt;Node6</title>
<path fill="none" stroke="midnightblue" d="M223.372,-48C235.057,-48 247.128,-48 257.681,-48"/>
<polygon fill="midnightblue" stroke="midnightblue" points="223.25,-44.5001 213.25,-48 223.25,-51.5001 223.25,-44.5001"/>
</g>
<!-- Node7 -->
<g id="node13" class="node"><title>Node7</title>
<a xlink:href="class_b_a_t_c_hgdwm.html" target="_top" xlink:title="class BATCHgdwm &#45;">
<polygon fill="white" stroke="black" points="250,-0.5 250,-19.5 330,-19.5 330,-0.5 250,-0.5"/>
<text text-anchor="middle" x="290" y="-7.5" font-family="Helvetica,sans-Serif" font-size="10.00">BATCHgdwm</text>
</a>
</g>
<!-- Node5&#45;&gt;Node7 -->
<g id="edge12" class="edge"><title>Node5&#45;&gt;Node7</title>
<path fill="none" stroke="midnightblue" d="M211.042,-35.3196C226.851,-30.1852 244.799,-24.3559 259.485,-19.5859"/>
<polygon fill="midnightblue" stroke="midnightblue" points="209.954,-31.9931 201.524,-38.411 212.116,-38.6507 209.954,-31.9931"/>
</g>
</g>
</svg>
