<?xml version="1.0" encoding="UTF-8" standalone="no"?>
<!DOCTYPE svg PUBLIC "-//W3C//DTD SVG 1.1//EN"
 "http://www.w3.org/Graphics/SVG/1.1/DTD/svg11.dtd">
<!-- Generated by graphviz version 2.28.0 (20110610.2051)
 -->
<!-- Title: G Pages: 1 -->
<svg width="190pt" height="66pt"
 viewBox="0.00 0.00 190.00 66.00" xmlns="http://www.w3.org/2000/svg" xmlns:xlink="http://www.w3.org/1999/xlink">
<g id="graph1" class="graph" transform="scale(1 1) rotate(0) translate(4 62)">
<title>G</title>
<polygon fill="white" stroke="white" points="-4,5 -4,-62 187,-62 187,5 -4,5"/>
<!-- Node1 -->
<g id="node1" class="node"><title>Node1</title>
<a xlink:href="class_neural_net.html" target="_top" xlink:title="NeuralNet">
<polygon fill="white" stroke="black" points="0.5,-19.5 0.5,-38.5 63.5,-38.5 63.5,-19.5 0.5,-19.5"/>
<text text-anchor="middle" x="32" y="-26.5" font-family="Helvetica,sans-Serif" font-size="10.00">NeuralNet</text>
</a>
</g>
<!-- Node2 -->
<g id="node3" class="node"><title>Node2</title>
<a xlink:href="class_m_l_pneural_net.html" target="_top" xlink:title="MLPneuralNet">
<polygon fill="white" stroke="black" points="100,-38.5 100,-57.5 182,-57.5 182,-38.5 100,-38.5"/>
<text text-anchor="middle" x="141" y="-45.5" font-family="Helvetica,sans-Serif" font-size="10.00">MLPneuralNet</text>
</a>
</g>
<!-- Node1&#45;&gt;Node2 -->
<g id="edge2" class="edge"><title>Node1&#45;&gt;Node2</title>
<path fill="none" stroke="midnightblue" d="M73.7608,-36.2379C82.2773,-37.7502 91.2512,-39.3437 99.7492,-40.8527"/>
<polygon fill="midnightblue" stroke="midnightblue" points="74.1198,-32.747 63.6619,-34.4446 72.8959,-39.6392 74.1198,-32.747"/>
</g>
<!-- Node3 -->
<g id="node5" class="node"><title>Node3</title>
<a xlink:href="class_r_b_fneural_net.html" target="_top" xlink:title="RBFneuralNet">
<polygon fill="white" stroke="black" points="100,-0.5 100,-19.5 182,-19.5 182,-0.5 100,-0.5"/>
<text text-anchor="middle" x="141" y="-7.5" font-family="Helvetica,sans-Serif" font-size="10.00">RBFneuralNet</text>
</a>
</g>
<!-- Node1&#45;&gt;Node3 -->
<g id="edge4" class="edge"><title>Node1&#45;&gt;Node3</title>
<path fill="none" stroke="midnightblue" d="M73.7608,-21.7621C82.2773,-20.2498 91.2512,-18.6563 99.7492,-17.1473"/>
<polygon fill="midnightblue" stroke="midnightblue" points="72.8959,-18.3608 63.6619,-23.5554 74.1198,-25.253 72.8959,-18.3608"/>
</g>
</g>
</svg>
