<?xml version="1.0" encoding="UTF-8" standalone="no"?>
<!DOCTYPE svg PUBLIC "-//W3C//DTD SVG 1.1//EN"
 "http://www.w3.org/Graphics/SVG/1.1/DTD/svg11.dtd">
<!-- Generated by graphviz version 2.28.0 (20110610.2051)
 -->
<!-- Title: G Pages: 1 -->
<svg width="526pt" height="142pt"
 viewBox="0.00 0.00 526.00 142.00" xmlns="http://www.w3.org/2000/svg" xmlns:xlink="http://www.w3.org/1999/xlink">
<g id="graph1" class="graph" transform="scale(1 1) rotate(0) translate(4 138)">
<title>G</title>
<polygon fill="white" stroke="white" points="-4,5 -4,-138 523,-138 523,5 -4,5"/>
<!-- Node1 -->
<g id="node1" class="node"><title>Node1</title>
<a xlink:href="class_network_train_behavior.html" target="_top" xlink:title="class NetworkTrainBehavior &#45;">
<polygon fill="white" stroke="black" points="0,-57.5 0,-76.5 118,-76.5 118,-57.5 0,-57.5"/>
<text text-anchor="middle" x="59" y="-64.5" font-family="Helvetica,sans-Serif" font-size="10.00">NetworkTrainBehavior</text>
</a>
</g>
<!-- Node2 -->
<g id="node3" class="node"><title>Node2</title>
<a xlink:href="class_adapt_network_train_behavior.html" target="_top" xlink:title="class AdaptNetworkTrainBehavior &#45;">
<polygon fill="white" stroke="black" points="154,-76.5 154,-95.5 300,-95.5 300,-76.5 154,-76.5"/>
<text text-anchor="middle" x="227" y="-83.5" font-family="Helvetica,sans-Serif" font-size="10.00">AdaptNetworkTrainBehavior</text>
</a>
</g>
<!-- Node1&#45;&gt;Node2 -->
<g id="edge2" class="edge"><title>Node1&#45;&gt;Node2</title>
<path fill="none" stroke="midnightblue" d="M128.267,-74.8137C136.742,-75.7838 145.43,-76.7781 153.959,-77.7544"/>
<polygon fill="midnightblue" stroke="midnightblue" points="128.392,-71.3052 118.059,-73.6453 127.596,-78.2598 128.392,-71.3052"/>
</g>
<!-- Node5 -->
<g id="node9" class="node"><title>Node5</title>
<a xlink:href="class_batch_network_train_behavior.html" target="_top" xlink:title="class BatchNetworkTrainBehavior &#45;">
<polygon fill="white" stroke="black" points="154.5,-38.5 154.5,-57.5 299.5,-57.5 299.5,-38.5 154.5,-38.5"/>
<text text-anchor="middle" x="227" y="-45.5" font-family="Helvetica,sans-Serif" font-size="10.00">BatchNetworkTrainBehavior</text>
</a>
</g>
<!-- Node1&#45;&gt;Node5 -->
<g id="edge8" class="edge"><title>Node1&#45;&gt;Node5</title>
<path fill="none" stroke="midnightblue" d="M128.069,-59.209C136.703,-58.2207 145.56,-57.207 154.25,-56.2124"/>
<polygon fill="midnightblue" stroke="midnightblue" points="127.596,-55.7402 118.059,-60.3547 128.392,-62.6948 127.596,-55.7402"/>
</g>
<!-- Node3 -->
<g id="node5" class="node"><title>Node3</title>
<a xlink:href="class_a_d_a_p_tgd_network_train_behavior.html" target="_top" xlink:title="class ADAPTgdNetworkTrainBehavior &#45;">
<polygon fill="white" stroke="black" points="345,-114.5 345,-133.5 509,-133.5 509,-114.5 345,-114.5"/>
<text text-anchor="middle" x="427" y="-121.5" font-family="Helvetica,sans-Serif" font-size="10.00">ADAPTgdNetworkTrainBehavior</text>
</a>
</g>
<!-- Node2&#45;&gt;Node3 -->
<g id="edge4" class="edge"><title>Node2&#45;&gt;Node3</title>
<path fill="none" stroke="midnightblue" d="M287.866,-97.4894C316.117,-102.911 349.436,-109.306 376.271,-114.456"/>
<polygon fill="midnightblue" stroke="midnightblue" points="288.189,-93.9876 277.708,-95.54 286.869,-100.862 288.189,-93.9876"/>
</g>
<!-- Node4 -->
<g id="node7" class="node"><title>Node4</title>
<a xlink:href="class_a_d_a_p_tgdwm_network_train_behavior.html" target="_top" xlink:title="class ADAPTgdwmNetworkTrainBehavior &#45;">
<polygon fill="white" stroke="black" points="337,-76.5 337,-95.5 517,-95.5 517,-76.5 337,-76.5"/>
<text text-anchor="middle" x="427" y="-83.5" font-family="Helvetica,sans-Serif" font-size="10.00">ADAPTgdwmNetworkTrainBehavior</text>
</a>
</g>
<!-- Node2&#45;&gt;Node4 -->
<g id="edge6" class="edge"><title>Node2&#45;&gt;Node4</title>
<path fill="none" stroke="midnightblue" d="M310.236,-86C319.004,-86 327.953,-86 336.797,-86"/>
<polygon fill="midnightblue" stroke="midnightblue" points="310.043,-82.5001 300.043,-86 310.043,-89.5001 310.043,-82.5001"/>
</g>
<!-- Node6 -->
<g id="node11" class="node"><title>Node6</title>
<a xlink:href="class_b_a_t_c_hgd_network_train_behavior.html" target="_top" xlink:title="class BATCHgdNetworkTrainBehavior &#45;">
<polygon fill="white" stroke="black" points="344.5,-38.5 344.5,-57.5 509.5,-57.5 509.5,-38.5 344.5,-38.5"/>
<text text-anchor="middle" x="427" y="-45.5" font-family="Helvetica,sans-Serif" font-size="10.00">BATCHgdNetworkTrainBehavior</text>
</a>
</g>
<!-- Node5&#45;&gt;Node6 -->
<g id="edge10" class="edge"><title>Node5&#45;&gt;Node6</title>
<path fill="none" stroke="midnightblue" d="M310.078,-48C321.423,-48 333.074,-48 344.41,-48"/>
<polygon fill="midnightblue" stroke="midnightblue" points="309.763,-44.5001 299.762,-48 309.762,-51.5001 309.763,-44.5001"/>
</g>
<!-- Node7 -->
<g id="node13" class="node"><title>Node7</title>
<a xlink:href="class_b_a_t_c_hgdwm_network_train_behavior.html" target="_top" xlink:title="class BATCHgdwmNetworkTrainBehavior &#45;">
<polygon fill="white" stroke="black" points="336,-0.5 336,-19.5 518,-19.5 518,-0.5 336,-0.5"/>
<text text-anchor="middle" x="427" y="-7.5" font-family="Helvetica,sans-Serif" font-size="10.00">BATCHgdwmNetworkTrainBehavior</text>
</a>
</g>
<!-- Node5&#45;&gt;Node7 -->
<g id="edge12" class="edge"><title>Node5&#45;&gt;Node7</title>
<path fill="none" stroke="midnightblue" d="M287.866,-36.5106C316.117,-31.0886 349.436,-24.6942 376.271,-19.5439"/>
<polygon fill="midnightblue" stroke="midnightblue" points="286.869,-33.1379 277.708,-38.46 288.189,-40.0124 286.869,-33.1379"/>
</g>
</g>
</svg>
