<?xml version="1.0" encoding="UTF-8" standalone="no"?>
<!DOCTYPE svg PUBLIC "-//W3C//DTD SVG 1.1//EN"
 "http://www.w3.org/Graphics/SVG/1.1/DTD/svg11.dtd">
<!-- Generated by graphviz version 2.28.0 (20110610.2051)
 -->
<!-- Title: G Pages: 1 -->
<svg width="218pt" height="484pt"
 viewBox="0.00 0.00 218.00 484.00" xmlns="http://www.w3.org/2000/svg" xmlns:xlink="http://www.w3.org/1999/xlink">
<g id="graph1" class="graph" transform="scale(1 1) rotate(0) translate(4 480)">
<title>G</title>
<polygon fill="white" stroke="white" points="-4,5 -4,-480 215,-480 215,5 -4,5"/>
<!-- Node1 -->
<g id="node1" class="node"><title>Node1</title>
<a xlink:href="class_activation_function.html" target="_top" xlink:title="class ActivationFunction &#45;">
<polygon fill="white" stroke="black" points="0.5,-228.5 0.5,-247.5 101.5,-247.5 101.5,-228.5 0.5,-228.5"/>
<text text-anchor="middle" x="51" y="-235.5" font-family="Helvetica,sans-Serif" font-size="10.00">ActivationFunction</text>
</a>
</g>
<!-- Node2 -->
<g id="node3" class="node"><title>Node2</title>
<a xlink:href="class_arc_tan.html" target="_top" xlink:title="class ArcTan &#45;">
<polygon fill="white" stroke="black" points="150,-456.5 150,-475.5 198,-475.5 198,-456.5 150,-456.5"/>
<text text-anchor="middle" x="174" y="-463.5" font-family="Helvetica,sans-Serif" font-size="10.00">ArcTan</text>
</a>
</g>
<!-- Node1&#45;&gt;Node2 -->
<g id="edge2" class="edge"><title>Node1&#45;&gt;Node2</title>
<path fill="none" stroke="midnightblue" d="M55.4758,-257.569C63.473,-297.574 86.5789,-389.761 138,-447 141.327,-450.703 145.551,-453.826 149.904,-456.403"/>
<polygon fill="midnightblue" stroke="midnightblue" points="58.8751,-256.709 53.573,-247.536 51.9977,-258.014 58.8751,-256.709"/>
</g>
<!-- Node3 -->
<g id="node5" class="node"><title>Node3</title>
<a xlink:href="class_cosine.html" target="_top" xlink:title="class Cosine &#45;">
<polygon fill="white" stroke="black" points="149.5,-418.5 149.5,-437.5 198.5,-437.5 198.5,-418.5 149.5,-418.5"/>
<text text-anchor="middle" x="174" y="-425.5" font-family="Helvetica,sans-Serif" font-size="10.00">Cosine</text>
</a>
</g>
<!-- Node1&#45;&gt;Node3 -->
<g id="edge4" class="edge"><title>Node1&#45;&gt;Node3</title>
<path fill="none" stroke="midnightblue" d="M57.5242,-257.472C68.1107,-291.814 94.1776,-363.781 138,-409 141.561,-412.674 145.987,-415.812 150.482,-418.416"/>
<polygon fill="midnightblue" stroke="midnightblue" points="60.8316,-256.314 54.6282,-247.725 54.1216,-258.308 60.8316,-256.314"/>
</g>
<!-- Node4 -->
<g id="node7" class="node"><title>Node4</title>
<a xlink:href="class_elliot.html" target="_top" xlink:title="class Elliot &#45;">
<polygon fill="white" stroke="black" points="154,-380.5 154,-399.5 194,-399.5 194,-380.5 154,-380.5"/>
<text text-anchor="middle" x="174" y="-387.5" font-family="Helvetica,sans-Serif" font-size="10.00">Elliot</text>
</a>
</g>
<!-- Node1&#45;&gt;Node4 -->
<g id="edge6" class="edge"><title>Node1&#45;&gt;Node4</title>
<path fill="none" stroke="midnightblue" d="M60.4409,-256.9C73.6474,-284.762 101.507,-337.202 138,-371 142.565,-375.228 148.247,-378.832 153.695,-381.727"/>
<polygon fill="midnightblue" stroke="midnightblue" points="63.4779,-255.128 56.1094,-247.515 57.1222,-258.062 63.4779,-255.128"/>
</g>
<!-- Node5 -->
<g id="node9" class="node"><title>Node5</title>
<a xlink:href="class_exponential.html" target="_top" xlink:title="class Exponential &#45;">
<polygon fill="white" stroke="black" points="138.5,-342.5 138.5,-361.5 209.5,-361.5 209.5,-342.5 138.5,-342.5"/>
<text text-anchor="middle" x="174" y="-349.5" font-family="Helvetica,sans-Serif" font-size="10.00">Exponential</text>
</a>
</g>
<!-- Node1&#45;&gt;Node5 -->
<g id="edge8" class="edge"><title>Node1&#45;&gt;Node5</title>
<path fill="none" stroke="midnightblue" d="M65.0498,-255.727C80.7216,-276.158 108.595,-309.885 138,-333 142.457,-336.504 147.65,-339.712 152.65,-342.455"/>
<polygon fill="midnightblue" stroke="midnightblue" points="67.7433,-253.485 58.9286,-247.607 62.1537,-257.699 67.7433,-253.485"/>
</g>
<!-- Node6 -->
<g id="node11" class="node"><title>Node6</title>
<a xlink:href="class_gauss.html" target="_top" xlink:title="class Gauss &#45;">
<polygon fill="white" stroke="black" points="151,-304.5 151,-323.5 197,-323.5 197,-304.5 151,-304.5"/>
<text text-anchor="middle" x="174" y="-311.5" font-family="Helvetica,sans-Serif" font-size="10.00">Gauss</text>
</a>
</g>
<!-- Node1&#45;&gt;Node6 -->
<g id="edge10" class="edge"><title>Node1&#45;&gt;Node6</title>
<path fill="none" stroke="midnightblue" d="M74.0128,-253.365C91.1865,-265.161 115.777,-281.639 138,-295 143.333,-298.206 149.242,-301.507 154.663,-304.438"/>
<polygon fill="midnightblue" stroke="midnightblue" points="75.9771,-250.468 65.76,-247.664 71.9986,-256.227 75.9771,-250.468"/>
</g>
<!-- Node7 -->
<g id="node13" class="node"><title>Node7</title>
<a xlink:href="class_identity.html" target="_top" xlink:title="class Identity &#45;">
<polygon fill="white" stroke="black" points="148,-266.5 148,-285.5 200,-285.5 200,-266.5 148,-266.5"/>
<text text-anchor="middle" x="174" y="-273.5" font-family="Helvetica,sans-Serif" font-size="10.00">Identity</text>
</a>
</g>
<!-- Node1&#45;&gt;Node7 -->
<g id="edge12" class="edge"><title>Node1&#45;&gt;Node7</title>
<path fill="none" stroke="midnightblue" d="M92.116,-250.598C110.485,-256.367 131.692,-263.027 147.782,-268.08"/>
<polygon fill="midnightblue" stroke="midnightblue" points="93.1227,-247.246 82.5334,-247.589 91.0253,-253.924 93.1227,-247.246"/>
</g>
<!-- Node8 -->
<g id="node15" class="node"><title>Node8</title>
<a xlink:href="class_logistic.html" target="_top" xlink:title="class Logistic &#45;">
<polygon fill="white" stroke="black" points="147.5,-228.5 147.5,-247.5 200.5,-247.5 200.5,-228.5 147.5,-228.5"/>
<text text-anchor="middle" x="174" y="-235.5" font-family="Helvetica,sans-Serif" font-size="10.00">Logistic</text>
</a>
</g>
<!-- Node1&#45;&gt;Node8 -->
<g id="edge14" class="edge"><title>Node1&#45;&gt;Node8</title>
<path fill="none" stroke="midnightblue" d="M111.57,-238C124.113,-238 136.708,-238 147.2,-238"/>
<polygon fill="midnightblue" stroke="midnightblue" points="111.564,-234.5 101.564,-238 111.564,-241.5 111.564,-234.5"/>
</g>
<!-- Node9 -->
<g id="node17" class="node"><title>Node9</title>
<a xlink:href="class_radial_basis.html" target="_top" xlink:title="class RadialBasis &#45;">
<polygon fill="white" stroke="black" points="138.5,-190.5 138.5,-209.5 209.5,-209.5 209.5,-190.5 138.5,-190.5"/>
<text text-anchor="middle" x="174" y="-197.5" font-family="Helvetica,sans-Serif" font-size="10.00">RadialBasis</text>
</a>
</g>
<!-- Node1&#45;&gt;Node9 -->
<g id="edge16" class="edge"><title>Node1&#45;&gt;Node9</title>
<path fill="none" stroke="midnightblue" d="M92.3771,-225.32C108.726,-220.185 127.288,-214.356 142.476,-209.586"/>
<polygon fill="midnightblue" stroke="midnightblue" points="91.0253,-222.076 82.5334,-228.411 93.1227,-228.754 91.0253,-222.076"/>
</g>
<!-- Node10 -->
<g id="node19" class="node"><title>Node10</title>
<a xlink:href="class_reciprocal.html" target="_top" xlink:title="class Reciprocal &#45;">
<polygon fill="white" stroke="black" points="141.5,-152.5 141.5,-171.5 206.5,-171.5 206.5,-152.5 141.5,-152.5"/>
<text text-anchor="middle" x="174" y="-159.5" font-family="Helvetica,sans-Serif" font-size="10.00">Reciprocal</text>
</a>
</g>
<!-- Node1&#45;&gt;Node10 -->
<g id="edge18" class="edge"><title>Node1&#45;&gt;Node10</title>
<path fill="none" stroke="midnightblue" d="M74.0128,-222.635C91.1865,-210.839 115.777,-194.361 138,-181 143.333,-177.794 149.242,-174.493 154.663,-171.562"/>
<polygon fill="midnightblue" stroke="midnightblue" points="71.9986,-219.773 65.76,-228.336 75.9771,-225.532 71.9986,-219.773"/>
</g>
<!-- Node11 -->
<g id="node21" class="node"><title>Node11</title>
<a xlink:href="class_sine.html" target="_top" xlink:title="class Sine &#45;">
<polygon fill="white" stroke="black" points="155,-114.5 155,-133.5 193,-133.5 193,-114.5 155,-114.5"/>
<text text-anchor="middle" x="174" y="-121.5" font-family="Helvetica,sans-Serif" font-size="10.00">Sine</text>
</a>
</g>
<!-- Node1&#45;&gt;Node11 -->
<g id="edge20" class="edge"><title>Node1&#45;&gt;Node11</title>
<path fill="none" stroke="midnightblue" d="M65.0498,-220.273C80.7216,-199.842 108.595,-166.115 138,-143 143.109,-138.983 149.186,-135.355 154.83,-132.371"/>
<polygon fill="midnightblue" stroke="midnightblue" points="62.1537,-218.301 58.9286,-228.393 67.7433,-222.515 62.1537,-218.301"/>
</g>
<!-- Node12 -->
<g id="node23" class="node"><title>Node12</title>
<a xlink:href="class_square.html" target="_top" xlink:title="class Square &#45;">
<polygon fill="white" stroke="black" points="149,-76.5 149,-95.5 199,-95.5 199,-76.5 149,-76.5"/>
<text text-anchor="middle" x="174" y="-83.5" font-family="Helvetica,sans-Serif" font-size="10.00">Square</text>
</a>
</g>
<!-- Node1&#45;&gt;Node12 -->
<g id="edge22" class="edge"><title>Node1&#45;&gt;Node12</title>
<path fill="none" stroke="midnightblue" d="M60.4409,-219.1C73.6474,-191.238 101.507,-138.798 138,-105 141.855,-101.43 146.506,-98.3044 151.14,-95.675"/>
<polygon fill="midnightblue" stroke="midnightblue" points="57.1222,-217.938 56.1094,-228.485 63.4779,-220.872 57.1222,-217.938"/>
</g>
<!-- Node13 -->
<g id="node25" class="node"><title>Node13</title>
<a xlink:href="class_tanh.html" target="_top" xlink:title="class Tanh &#45;">
<polygon fill="white" stroke="black" points="155,-38.5 155,-57.5 193,-57.5 193,-38.5 155,-38.5"/>
<text text-anchor="middle" x="174" y="-45.5" font-family="Helvetica,sans-Serif" font-size="10.00">Tanh</text>
</a>
</g>
<!-- Node1&#45;&gt;Node13 -->
<g id="edge24" class="edge"><title>Node1&#45;&gt;Node13</title>
<path fill="none" stroke="midnightblue" d="M57.5242,-218.528C68.1107,-184.186 94.1776,-112.219 138,-67 142.715,-62.1343 148.95,-58.2096 154.849,-55.2184"/>
<polygon fill="midnightblue" stroke="midnightblue" points="54.1216,-217.692 54.6282,-228.275 60.8316,-219.686 54.1216,-217.692"/>
</g>
<!-- Node14 -->
<g id="node27" class="node"><title>Node14</title>
<a xlink:href="class_threshold.html" target="_top" xlink:title="class Threshold &#45;">
<polygon fill="white" stroke="black" points="143,-0.5 143,-19.5 205,-19.5 205,-0.5 143,-0.5"/>
<text text-anchor="middle" x="174" y="-7.5" font-family="Helvetica,sans-Serif" font-size="10.00">Threshold</text>
</a>
</g>
<!-- Node1&#45;&gt;Node14 -->
<g id="edge26" class="edge"><title>Node1&#45;&gt;Node14</title>
<path fill="none" stroke="midnightblue" d="M55.4758,-218.431C63.473,-178.426 86.5789,-86.2387 138,-29 141.327,-25.2968 145.551,-22.1737 149.904,-19.5974"/>
<polygon fill="midnightblue" stroke="midnightblue" points="51.9977,-217.986 53.573,-228.464 58.8751,-219.291 51.9977,-217.986"/>
</g>
</g>
</svg>
