<?xml version="1.0" encoding="UTF-8" standalone="no"?>
<!DOCTYPE svg PUBLIC "-//W3C//DTD SVG 1.1//EN"
 "http://www.w3.org/Graphics/SVG/1.1/DTD/svg11.dtd">
<!-- Generated by graphviz version 2.28.0 (20110610.2051)
 -->
<!-- Title: G Pages: 1 -->
<svg width="212pt" height="66pt"
 viewBox="0.00 0.00 212.00 66.00" xmlns="http://www.w3.org/2000/svg" xmlns:xlink="http://www.w3.org/1999/xlink">
<g id="graph1" class="graph" transform="scale(1 1) rotate(0) translate(4 62)">
<title>G</title>
<polygon fill="white" stroke="white" points="-4,5 -4,-62 209,-62 209,5 -4,5"/>
<!-- Node1 -->
<g id="node1" class="node"><title>Node1</title>
<a xlink:href="class_predict_behavior.html" target="_top" xlink:title="class PredictBehavior &#45;">
<polygon fill="white" stroke="black" points="0,-19.5 0,-38.5 90,-38.5 90,-19.5 0,-19.5"/>
<text text-anchor="middle" x="45" y="-26.5" font-family="Helvetica,sans-Serif" font-size="10.00">PredictBehavior</text>
</a>
</g>
<!-- Node2 -->
<g id="node3" class="node"><title>Node2</title>
<a xlink:href="class_m_l_pbehavior.html" target="_top" xlink:title="class MLPbehavior &#45;">
<polygon fill="white" stroke="black" points="126.5,-38.5 126.5,-57.5 203.5,-57.5 203.5,-38.5 126.5,-38.5"/>
<text text-anchor="middle" x="165" y="-45.5" font-family="Helvetica,sans-Serif" font-size="10.00">MLPbehavior</text>
</a>
</g>
<!-- Node1&#45;&gt;Node2 -->
<g id="edge2" class="edge"><title>Node1&#45;&gt;Node2</title>
<path fill="none" stroke="midnightblue" d="M100.186,-37.7249C109.059,-39.1535 118.077,-40.6057 126.432,-41.9509"/>
<polygon fill="midnightblue" stroke="midnightblue" points="100.704,-34.2632 90.2746,-36.129 99.591,-41.1742 100.704,-34.2632"/>
</g>
<!-- Node3 -->
<g id="node5" class="node"><title>Node3</title>
<a xlink:href="class_r_b_fbehavior.html" target="_top" xlink:title="class RBFbehavior &#45;">
<polygon fill="white" stroke="black" points="126.5,-0.5 126.5,-19.5 203.5,-19.5 203.5,-0.5 126.5,-0.5"/>
<text text-anchor="middle" x="165" y="-7.5" font-family="Helvetica,sans-Serif" font-size="10.00">RBFbehavior</text>
</a>
</g>
<!-- Node1&#45;&gt;Node3 -->
<g id="edge4" class="edge"><title>Node1&#45;&gt;Node3</title>
<path fill="none" stroke="midnightblue" d="M100.186,-20.2751C109.059,-18.8465 118.077,-17.3943 126.432,-16.0491"/>
<polygon fill="midnightblue" stroke="midnightblue" points="99.591,-16.8258 90.2746,-21.871 100.704,-23.7368 99.591,-16.8258"/>
</g>
</g>
</svg>
