<?xml version="1.0" encoding="UTF-8" standalone="no"?>
<!DOCTYPE svg PUBLIC "-//W3C//DTD SVG 1.1//EN"
 "http://www.w3.org/Graphics/SVG/1.1/DTD/svg11.dtd">
<!-- Generated by graphviz version 2.28.0 (20110610.2051)
 -->
<!-- Title: G Pages: 1 -->
<svg width="508pt" height="142pt"
 viewBox="0.00 0.00 508.00 142.00" xmlns="http://www.w3.org/2000/svg" xmlns:xlink="http://www.w3.org/1999/xlink">
<g id="graph1" class="graph" transform="scale(1 1) rotate(0) translate(4 138)">
<title>G</title>
<polygon fill="white" stroke="white" points="-4,5 -4,-138 505,-138 505,5 -4,5"/>
<!-- Node1 -->
<g id="node1" class="node"><title>Node1</title>
<a xlink:href="class_neuron_train_behavior.html" target="_top" xlink:title="class NeuronTrainBehavior &#45;">
<polygon fill="white" stroke="black" points="0,-57.5 0,-76.5 112,-76.5 112,-57.5 0,-57.5"/>
<text text-anchor="middle" x="56" y="-64.5" font-family="Helvetica,sans-Serif" font-size="10.00">NeuronTrainBehavior</text>
</a>
</g>
<!-- Node2 -->
<g id="node3" class="node"><title>Node2</title>
<a xlink:href="class_adapt_neuron_train_behavior.html" target="_top" xlink:title="class AdaptNeuronTrainBehavior &#45;">
<polygon fill="white" stroke="black" points="148,-76.5 148,-95.5 288,-95.5 288,-76.5 148,-76.5"/>
<text text-anchor="middle" x="218" y="-83.5" font-family="Helvetica,sans-Serif" font-size="10.00">AdaptNeuronTrainBehavior</text>
</a>
</g>
<!-- Node1&#45;&gt;Node2 -->
<g id="edge2" class="edge"><title>Node1&#45;&gt;Node2</title>
<path fill="none" stroke="midnightblue" d="M122.264,-74.7501C130.742,-75.7568 139.448,-76.7907 147.985,-77.8044"/>
<polygon fill="midnightblue" stroke="midnightblue" points="122.406,-71.2424 112.063,-73.5387 121.58,-78.1936 122.406,-71.2424"/>
</g>
<!-- Node5 -->
<g id="node9" class="node"><title>Node5</title>
<a xlink:href="class_batch_neuron_train_behavior.html" target="_top" xlink:title="class BatchNeuronTrainBehavior &#45;">
<polygon fill="white" stroke="black" points="148.5,-38.5 148.5,-57.5 287.5,-57.5 287.5,-38.5 148.5,-38.5"/>
<text text-anchor="middle" x="218" y="-45.5" font-family="Helvetica,sans-Serif" font-size="10.00">BatchNeuronTrainBehavior</text>
</a>
</g>
<!-- Node1&#45;&gt;Node5 -->
<g id="edge8" class="edge"><title>Node1&#45;&gt;Node5</title>
<path fill="none" stroke="midnightblue" d="M122.063,-59.2738C130.697,-58.2485 139.572,-57.1946 148.266,-56.1622"/>
<polygon fill="midnightblue" stroke="midnightblue" points="121.58,-55.8064 112.063,-60.4613 122.406,-62.7576 121.58,-55.8064"/>
</g>
<!-- Node3 -->
<g id="node5" class="node"><title>Node3</title>
<a xlink:href="class_a_d_a_p_tgd_neuron_train_behavior.html" target="_top" xlink:title="class ADAPTgdNeuronTrainBehavior &#45;">
<polygon fill="white" stroke="black" points="333,-114.5 333,-133.5 491,-133.5 491,-114.5 333,-114.5"/>
<text text-anchor="middle" x="412" y="-121.5" font-family="Helvetica,sans-Serif" font-size="10.00">ADAPTgdNeuronTrainBehavior</text>
</a>
</g>
<!-- Node2&#45;&gt;Node3 -->
<g id="edge4" class="edge"><title>Node2&#45;&gt;Node3</title>
<path fill="none" stroke="midnightblue" d="M277.298,-97.5381C304.683,-102.958 336.933,-109.341 362.899,-114.48"/>
<polygon fill="midnightblue" stroke="midnightblue" points="277.939,-94.0972 267.45,-95.589 276.58,-100.964 277.939,-94.0972"/>
</g>
<!-- Node4 -->
<g id="node7" class="node"><title>Node4</title>
<a xlink:href="class_a_d_a_p_tgdwm_neuron_train_behavior.html" target="_top" xlink:title="class ADAPTgdwmNeuronTrainBehavior &#45;">
<polygon fill="white" stroke="black" points="325,-76.5 325,-95.5 499,-95.5 499,-76.5 325,-76.5"/>
<text text-anchor="middle" x="412" y="-83.5" font-family="Helvetica,sans-Serif" font-size="10.00">ADAPTgdwmNeuronTrainBehavior</text>
</a>
</g>
<!-- Node2&#45;&gt;Node4 -->
<g id="edge6" class="edge"><title>Node2&#45;&gt;Node4</title>
<path fill="none" stroke="midnightblue" d="M298.239,-86C307.014,-86 315.982,-86 324.837,-86"/>
<polygon fill="midnightblue" stroke="midnightblue" points="298.045,-82.5001 288.045,-86 298.045,-89.5001 298.045,-82.5001"/>
</g>
<!-- Node6 -->
<g id="node11" class="node"><title>Node6</title>
<a xlink:href="class_b_a_t_c_hgd_neuron_train_behavior.html" target="_top" xlink:title="class BATCHgdNeuronTrainBehavior &#45;">
<polygon fill="white" stroke="black" points="332.5,-38.5 332.5,-57.5 491.5,-57.5 491.5,-38.5 332.5,-38.5"/>
<text text-anchor="middle" x="412" y="-45.5" font-family="Helvetica,sans-Serif" font-size="10.00">BATCHgdNeuronTrainBehavior</text>
</a>
</g>
<!-- Node5&#45;&gt;Node6 -->
<g id="edge10" class="edge"><title>Node5&#45;&gt;Node6</title>
<path fill="none" stroke="midnightblue" d="M297.509,-48C309.017,-48 320.871,-48 332.381,-48"/>
<polygon fill="midnightblue" stroke="midnightblue" points="297.503,-44.5001 287.503,-48 297.503,-51.5001 297.503,-44.5001"/>
</g>
<!-- Node7 -->
<g id="node13" class="node"><title>Node7</title>
<a xlink:href="class_b_a_t_c_hgdwm_neuron_train_behavior.html" target="_top" xlink:title="class BATCHgdwmNeuronTrainBehavior &#45;">
<polygon fill="white" stroke="black" points="324,-0.5 324,-19.5 500,-19.5 500,-0.5 324,-0.5"/>
<text text-anchor="middle" x="412" y="-7.5" font-family="Helvetica,sans-Serif" font-size="10.00">BATCHgdwmNeuronTrainBehavior</text>
</a>
</g>
<!-- Node5&#45;&gt;Node7 -->
<g id="edge12" class="edge"><title>Node5&#45;&gt;Node7</title>
<path fill="none" stroke="midnightblue" d="M277.298,-36.4619C304.683,-31.042 336.933,-24.659 362.899,-19.5201"/>
<polygon fill="midnightblue" stroke="midnightblue" points="276.58,-33.036 267.45,-38.411 277.939,-39.9028 276.58,-33.036"/>
</g>
</g>
</svg>
