<?xml version="1.0" encoding="UTF-8" standalone="no"?>
<!DOCTYPE svg PUBLIC "-//W3C//DTD SVG 1.1//EN"
 "http://www.w3.org/Graphics/SVG/1.1/DTD/svg11.dtd">
<!-- Generated by graphviz version 2.25.20091207.0545 (20091207.0545)
 -->
<!-- Title: G Pages: 1 -->
<svg width="334pt" height="28pt"
 viewBox="0.00 0.00 334.00 28.00" xmlns="http://www.w3.org/2000/svg" xmlns:xlink="http://www.w3.org/1999/xlink">
<g id="graph1" class="graph" transform="scale(1 1) rotate(0) translate(4 24)">
<title>G</title>
<polygon fill="white" stroke="white" points="-4,5 -4,-24 331,-24 331,5 -4,5"/>
<!-- Node1 -->
<g id="node1" class="node"><title>Node1</title>
<a xlink:href="class_container.html" target="_top" xlink:title="Container\&lt; Neuron \&gt;">
<polygon fill="white" stroke="black" points="0,-0.5 0,-19.5 108,-19.5 108,-0.5 0,-0.5"/>
<text text-anchor="middle" x="54" y="-6.5" font-family="Helvetica,sans-Serif" font-size="10.00">Container&lt; Neuron &gt;</text>
</a>
</g>
<!-- Node2 -->
<g id="node3" class="node"><title>Node2</title>
<a xlink:href="classvec_neuron.html" target="_top" xlink:title="A vector of neurons.">
<polygon fill="white" stroke="black" points="144.5,-0.5 144.5,-19.5 207.5,-19.5 207.5,-0.5 144.5,-0.5"/>
<text text-anchor="middle" x="176" y="-6.5" font-family="Helvetica,sans-Serif" font-size="10.00">vecNeuron</text>
</a>
</g>
<!-- Node1&#45;&gt;Node2 -->
<g id="edge2" class="edge"><title>Node1&#45;&gt;Node2</title>
<path fill="none" stroke="midnightblue" d="M118.391,-10C127.398,-10 136.307,-10 144.328,-10"/>
<polygon fill="midnightblue" stroke="midnightblue" points="118.221,-6.5001 108.221,-10 118.221,-13.5001 118.221,-6.5001"/>
</g>
<!-- Node3 -->
<g id="node5" class="node"><title>Node3</title>
<a xlink:href="classvec_m_l_pneuron.html" target="_top" xlink:title="A vector of connections.">
<polygon fill="white" stroke="black" points="244.5,-0.5 244.5,-19.5 325.5,-19.5 325.5,-0.5 244.5,-0.5"/>
<text text-anchor="middle" x="285" y="-6.5" font-family="Helvetica,sans-Serif" font-size="10.00">vecMLPneuron</text>
</a>
</g>
<!-- Node2&#45;&gt;Node3 -->
<g id="edge4" class="edge"><title>Node2&#45;&gt;Node3</title>
<path fill="none" stroke="midnightblue" d="M217.802,-10C226.461,-10 235.574,-10 244.197,-10"/>
<polygon fill="midnightblue" stroke="midnightblue" points="217.527,-6.5001 207.527,-10 217.527,-13.5001 217.527,-6.5001"/>
</g>
</g>
</svg>
