<?xml version="1.0" encoding="UTF-8" standalone="no"?>
<!DOCTYPE svg PUBLIC "-//W3C//DTD SVG 1.1//EN"
 "http://www.w3.org/Graphics/SVG/1.1/DTD/svg11.dtd">
<!-- Generated by graphviz version 2.28.0 (20110610.2051)
 -->
<!-- Title: G Pages: 1 -->
<svg width="538pt" height="84pt"
 viewBox="0.00 0.00 538.00 84.00" xmlns="http://www.w3.org/2000/svg" xmlns:xlink="http://www.w3.org/1999/xlink">
<g id="graph1" class="graph" transform="scale(1 1) rotate(0) translate(4 80)">
<title>G</title>
<polygon fill="white" stroke="white" points="-4,5 -4,-80 535,-80 535,5 -4,5"/>
<!-- Node1 -->
<g id="node1" class="node"><title>Node1</title>
<polygon fill="#bfbfbf" stroke="black" points="193.5,-56.5 193.5,-75.5 342.5,-75.5 342.5,-56.5 193.5,-56.5"/>
<text text-anchor="middle" x="268" y="-63.5" font-family="Helvetica,sans-Serif" font-size="10.00">pkg/AMORE/src/old/Neuron.h</text>
</g>
<!-- Node2 -->
<g id="node3" class="node"><title>Node2</title>
<a xlink:href="dia_2_m_l_pneuron_8h.html" target="_top" xlink:title="pkg/AMORE/src/dia/MLPneuron.h">
<polygon fill="white" stroke="black" points="-0.5,-0.5 -0.5,-19.5 166.5,-19.5 166.5,-0.5 -0.5,-0.5"/>
<text text-anchor="middle" x="83" y="-7.5" font-family="Helvetica,sans-Serif" font-size="10.00">pkg/AMORE/src/dia/MLPneuron.h</text>
</a>
</g>
<!-- Node1&#45;&gt;Node2 -->
<g id="edge2" class="edge"><title>Node1&#45;&gt;Node2</title>
<path fill="none" stroke="midnightblue" d="M228.834,-53.5677C193.935,-43.381 143.651,-28.7034 112.177,-19.5164"/>
<polygon fill="midnightblue" stroke="midnightblue" points="228.106,-57.0013 238.686,-56.4435 230.067,-50.2817 228.106,-57.0013"/>
</g>
<!-- Node3 -->
<g id="node5" class="node"><title>Node3</title>
<a xlink:href="_r_b_fneuron_8h.html" target="_top" xlink:title="pkg/AMORE/src/dia/RBFneuron.h">
<polygon fill="white" stroke="black" points="184.5,-0.5 184.5,-19.5 351.5,-19.5 351.5,-0.5 184.5,-0.5"/>
<text text-anchor="middle" x="268" y="-7.5" font-family="Helvetica,sans-Serif" font-size="10.00">pkg/AMORE/src/dia/RBFneuron.h</text>
</a>
</g>
<!-- Node1&#45;&gt;Node3 -->
<g id="edge4" class="edge"><title>Node1&#45;&gt;Node3</title>
<path fill="none" stroke="midnightblue" d="M268,-45.8045C268,-36.9102 268,-26.7798 268,-19.7511"/>
<polygon fill="midnightblue" stroke="midnightblue" points="264.5,-46.083 268,-56.083 271.5,-46.083 264.5,-46.083"/>
</g>
<!-- Node4 -->
<g id="node7" class="node"><title>Node4</title>
<a xlink:href="old_2_neuron_8cpp.html" target="_top" xlink:title="pkg/AMORE/src/old/Neuron.cpp">
<polygon fill="white" stroke="black" points="369.5,-0.5 369.5,-19.5 530.5,-19.5 530.5,-0.5 369.5,-0.5"/>
<text text-anchor="middle" x="450" y="-7.5" font-family="Helvetica,sans-Serif" font-size="10.00">pkg/AMORE/src/old/Neuron.cpp</text>
</a>
</g>
<!-- Node1&#45;&gt;Node4 -->
<g id="edge6" class="edge"><title>Node1&#45;&gt;Node4</title>
<path fill="none" stroke="midnightblue" d="M306.531,-53.5677C340.864,-43.381 390.333,-28.7034 421.296,-19.5164"/>
<polygon fill="midnightblue" stroke="midnightblue" points="305.43,-50.2436 296.838,-56.4435 307.421,-56.9544 305.43,-50.2436"/>
</g>
</g>
</svg>
