<?xml version="1.0" encoding="UTF-8" standalone="no"?>
<!DOCTYPE svg PUBLIC "-//W3C//DTD SVG 1.1//EN"
 "http://www.w3.org/Graphics/SVG/1.1/DTD/svg11.dtd">
<!-- Generated by graphviz version 2.28.0 (20110610.2051)
 -->
<!-- Title: G Pages: 1 -->
<svg width="479pt" height="140pt"
 viewBox="0.00 0.00 479.00 140.00" xmlns="http://www.w3.org/2000/svg" xmlns:xlink="http://www.w3.org/1999/xlink">
<g id="graph1" class="graph" transform="scale(1 1) rotate(0) translate(4 136)">
<title>G</title>
<polygon fill="white" stroke="white" points="-4,5 -4,-136 476,-136 476,5 -4,5"/>
<!-- Node1 -->
<g id="node1" class="node"><title>Node1</title>
<polygon fill="#bfbfbf" stroke="black" points="145.5,-112.5 145.5,-131.5 294.5,-131.5 294.5,-112.5 145.5,-112.5"/>
<text text-anchor="middle" x="220" y="-119.5" font-family="Helvetica,sans-Serif" font-size="10.00">pkg/AMORE/src/old/Neuron.h</text>
</g>
<!-- Node2 -->
<g id="node3" class="node"><title>Node2</title>
<a xlink:href="_con_8cpp.html" target="_top" xlink:title="pkg/AMORE/src/Con.cpp">
<polygon fill="white" stroke="black" points="0,-56.5 0,-75.5 130,-75.5 130,-56.5 0,-56.5"/>
<text text-anchor="middle" x="65" y="-63.5" font-family="Helvetica,sans-Serif" font-size="10.00">pkg/AMORE/src/Con.cpp</text>
</a>
</g>
<!-- Node1&#45;&gt;Node2 -->
<g id="edge2" class="edge"><title>Node1&#45;&gt;Node2</title>
<path fill="none" stroke="midnightblue" d="M185.668,-109.039C156.503,-98.8786 115.363,-84.5457 89.4453,-75.5164"/>
<polygon fill="midnightblue" stroke="midnightblue" points="184.845,-112.459 195.44,-112.444 187.148,-105.848 184.845,-112.459"/>
</g>
<!-- Node4 -->
<g id="node7" class="node"><title>Node4</title>
<a xlink:href="_neuron_8cpp.html" target="_top" xlink:title="pkg/AMORE/src/Neuron.cpp">
<polygon fill="white" stroke="black" points="148,-56.5 148,-75.5 292,-75.5 292,-56.5 148,-56.5"/>
<text text-anchor="middle" x="220" y="-63.5" font-family="Helvetica,sans-Serif" font-size="10.00">pkg/AMORE/src/Neuron.cpp</text>
</a>
</g>
<!-- Node1&#45;&gt;Node4 -->
<g id="edge6" class="edge"><title>Node1&#45;&gt;Node4</title>
<path fill="none" stroke="midnightblue" d="M220,-101.805C220,-92.9102 220,-82.7798 220,-75.7511"/>
<polygon fill="midnightblue" stroke="midnightblue" points="216.5,-102.083 220,-112.083 223.5,-102.083 216.5,-102.083"/>
</g>
<!-- Node5 -->
<g id="node10" class="node"><title>Node5</title>
<a xlink:href="old_2_neuron_8cpp.html" target="_top" xlink:title="pkg/AMORE/src/old/Neuron.cpp">
<polygon fill="white" stroke="black" points="310.5,-56.5 310.5,-75.5 471.5,-75.5 471.5,-56.5 310.5,-56.5"/>
<text text-anchor="middle" x="391" y="-63.5" font-family="Helvetica,sans-Serif" font-size="10.00">pkg/AMORE/src/old/Neuron.cpp</text>
</a>
</g>
<!-- Node1&#45;&gt;Node5 -->
<g id="edge10" class="edge"><title>Node1&#45;&gt;Node5</title>
<path fill="none" stroke="midnightblue" d="M257.036,-109.304C289.257,-99.1294 335.189,-84.6246 364.031,-75.5164"/>
<polygon fill="midnightblue" stroke="midnightblue" points="255.577,-106.095 247.095,-112.444 257.685,-112.77 255.577,-106.095"/>
</g>
<!-- Node3 -->
<g id="node5" class="node"><title>Node3</title>
<a xlink:href="_a_m_o_r_e_8h.html" target="_top" xlink:title="pkg/AMORE/src/AMORE.h">
<polygon fill="white" stroke="black" points="73.5,-0.5 73.5,-19.5 210.5,-19.5 210.5,-0.5 73.5,-0.5"/>
<text text-anchor="middle" x="142" y="-7.5" font-family="Helvetica,sans-Serif" font-size="10.00">pkg/AMORE/src/AMORE.h</text>
</a>
</g>
<!-- Node2&#45;&gt;Node3 -->
<g id="edge4" class="edge"><title>Node2&#45;&gt;Node3</title>
<path fill="none" stroke="midnightblue" d="M85.901,-50.3422C99.9111,-40.5169 117.883,-27.9132 129.659,-19.6545"/>
<polygon fill="midnightblue" stroke="midnightblue" points="83.5491,-47.7166 77.3714,-56.324 87.5683,-53.4477 83.5491,-47.7166"/>
</g>
<!-- Node4&#45;&gt;Node3 -->
<g id="edge8" class="edge"><title>Node4&#45;&gt;Node3</title>
<path fill="none" stroke="midnightblue" d="M199.232,-50.6221C184.983,-40.7574 166.544,-27.9919 154.501,-19.6545"/>
<polygon fill="midnightblue" stroke="midnightblue" points="197.254,-53.5095 207.468,-56.324 201.238,-47.7541 197.254,-53.5095"/>
</g>
</g>
</svg>
