<?xml version="1.0" encoding="UTF-8" standalone="no"?>
<!DOCTYPE svg PUBLIC "-//W3C//DTD SVG 1.1//EN"
 "http://www.w3.org/Graphics/SVG/1.1/DTD/svg11.dtd">
<!-- Generated by graphviz version 2.28.0 (20110610.2051)
 -->
<!-- Title: G Pages: 1 -->
<svg width="367pt" height="84pt"
 viewBox="0.00 0.00 367.00 84.00" xmlns="http://www.w3.org/2000/svg" xmlns:xlink="http://www.w3.org/1999/xlink">
<g id="graph1" class="graph" transform="scale(1 1) rotate(0) translate(4 80)">
<title>G</title>
<polygon fill="white" stroke="white" points="-4,5 -4,-80 364,-80 364,5 -4,5"/>
<!-- Node1 -->
<g id="node1" class="node"><title>Node1</title>
<polygon fill="#bfbfbf" stroke="black" points="109.5,-56.5 109.5,-75.5 258.5,-75.5 258.5,-56.5 109.5,-56.5"/>
<text text-anchor="middle" x="184" y="-63.5" font-family="Helvetica,sans-Serif" font-size="10.00">pkg/AMORE/src/old/Neuron.h</text>
</g>
<!-- Node2 -->
<g id="node3" class="node"><title>Node2</title>
<a xlink:href="_simple_neuron_8h.html" target="_top" xlink:title="pkg/AMORE/src/dia/SimpleNeuron.h">
<polygon fill="white" stroke="black" points="0,-0.5 0,-19.5 180,-19.5 180,-0.5 0,-0.5"/>
<text text-anchor="middle" x="90" y="-7.5" font-family="Helvetica,sans-Serif" font-size="10.00">pkg/AMORE/src/dia/SimpleNeuron.h</text>
</a>
</g>
<!-- Node1&#45;&gt;Node2 -->
<g id="edge2" class="edge"><title>Node1&#45;&gt;Node2</title>
<path fill="none" stroke="midnightblue" d="M159.938,-51.1774C142.641,-41.2407 119.852,-28.1492 105.065,-19.6545"/>
<polygon fill="midnightblue" stroke="midnightblue" points="158.483,-54.3775 168.897,-56.324 161.97,-48.3078 158.483,-54.3775"/>
</g>
<!-- Node3 -->
<g id="node5" class="node"><title>Node3</title>
<a xlink:href="old_2_neuron_8cpp.html" target="_top" xlink:title="pkg/AMORE/src/old/Neuron.cpp">
<polygon fill="white" stroke="black" points="198.5,-0.5 198.5,-19.5 359.5,-19.5 359.5,-0.5 198.5,-0.5"/>
<text text-anchor="middle" x="279" y="-7.5" font-family="Helvetica,sans-Serif" font-size="10.00">pkg/AMORE/src/old/Neuron.cpp</text>
</a>
</g>
<!-- Node1&#45;&gt;Node3 -->
<g id="edge4" class="edge"><title>Node1&#45;&gt;Node3</title>
<path fill="none" stroke="midnightblue" d="M208.318,-51.1774C225.799,-41.2407 248.83,-28.1492 263.774,-19.6545"/>
<polygon fill="midnightblue" stroke="midnightblue" points="206.227,-48.3395 199.263,-56.324 209.687,-54.425 206.227,-48.3395"/>
</g>
</g>
</svg>
