<?xml version="1.0" encoding="UTF-8" standalone="no"?>
<!DOCTYPE svg PUBLIC "-//W3C//DTD SVG 1.1//EN"
 "http://www.w3.org/Graphics/SVG/1.1/DTD/svg11.dtd">
<!-- Generated by graphviz version 2.28.0 (20110610.2051)
 -->
<!-- Title: G Pages: 1 -->
<svg width="8664pt" height="140pt"
 viewBox="0.00 0.00 8664.00 140.00" xmlns="http://www.w3.org/2000/svg" xmlns:xlink="http://www.w3.org/1999/xlink">
<g id="graph1" class="graph" transform="scale(1 1) rotate(0) translate(4 136)">
<title>G</title>
<polygon fill="white" stroke="white" points="-4,5 -4,-136 8661,-136 8661,5 -4,5"/>
<!-- Node1 -->
<g id="node1" class="node"><title>Node1</title>
<polygon fill="#bfbfbf" stroke="black" points="4012,-112.5 4012,-131.5 4500,-131.5 4500,-112.5 4012,-112.5"/>
<text text-anchor="middle" x="4256" y="-119.5" font-family="Helvetica,sans-Serif" font-size="10.00">/Users/mcasl/pc&#45;ule/Trabajo/investigacion/AMORE/AMORE&#45;WC/AMORE&#45;WC/pkg/AMORE/src/package.h</text>
</g>
<!-- Node2 -->
<g id="node3" class="node"><title>Node2</title>
<a xlink:href="_activation_function_8cpp.html" target="_top" xlink:title="/Users/mcasl/pc&#45;ule/Trabajo/investigacion/AMORE/AMORE&#45;WC/AMORE&#45;WC/pkg/AMORE/src/ActivationFunction.cpp">
<polygon fill="white" stroke="black" points="-0.5,-56.5 -0.5,-75.5 546.5,-75.5 546.5,-56.5 -0.5,-56.5"/>
<text text-anchor="middle" x="273" y="-63.5" font-family="Helvetica,sans-Serif" font-size="10.00">/Users/mcasl/pc&#45;ule/Trabajo/investigacion/AMORE/AMORE&#45;WC/AMORE&#45;WC/pkg/AMORE/src/ActivationFunction.cpp</text>
</a>
</g>
<!-- Node1&#45;&gt;Node2 -->
<g id="edge2" class="edge"><title>Node1&#45;&gt;Node2</title>
<path fill="none" stroke="midnightblue" d="M4001.77,-119.637C3401.76,-116.044 1850.6,-104.548 555,-76 548.022,-75.8462 540.946,-75.6817 533.807,-75.5081"/>
<polygon fill="midnightblue" stroke="midnightblue" points="4001.82,-123.138 4011.84,-119.698 4001.86,-116.138 4001.82,-123.138"/>
</g>
<!-- Node4 -->
<g id="node7" class="node"><title>Node4</title>
<a xlink:href="_connection_8cpp.html" target="_top" xlink:title="/Users/mcasl/pc&#45;ule/Trabajo/investigacion/AMORE/AMORE&#45;WC/AMORE&#45;WC/pkg/AMORE/src/Connection.cpp">
<polygon fill="white" stroke="black" points="564.5,-56.5 564.5,-75.5 1079.5,-75.5 1079.5,-56.5 564.5,-56.5"/>
<text text-anchor="middle" x="822" y="-63.5" font-family="Helvetica,sans-Serif" font-size="10.00">/Users/mcasl/pc&#45;ule/Trabajo/investigacion/AMORE/AMORE&#45;WC/AMORE&#45;WC/pkg/AMORE/src/Connection.cpp</text>
</a>
</g>
<!-- Node1&#45;&gt;Node4 -->
<g id="edge6" class="edge"><title>Node1&#45;&gt;Node4</title>
<path fill="none" stroke="midnightblue" d="M4001.64,-119.067C3463.9,-114.609 2172.08,-101.946 1089,-76 1082.51,-75.8445 1075.93,-75.6791 1069.29,-75.5053"/>
<polygon fill="midnightblue" stroke="midnightblue" points="4001.82,-122.568 4011.85,-119.151 4001.88,-115.568 4001.82,-122.568"/>
</g>
<!-- Node5 -->
<g id="node10" class="node"><title>Node5</title>
<a xlink:href="_tanh_8cpp.html" target="_top" xlink:title="/Users/mcasl/pc&#45;ule/Trabajo/investigacion/AMORE/AMORE&#45;WC/AMORE&#45;WC/pkg/AMORE/src/Tanh.cpp">
<polygon fill="white" stroke="black" points="1098,-56.5 1098,-75.5 1582,-75.5 1582,-56.5 1098,-56.5"/>
<text text-anchor="middle" x="1340" y="-63.5" font-family="Helvetica,sans-Serif" font-size="10.00">/Users/mcasl/pc&#45;ule/Trabajo/investigacion/AMORE/AMORE&#45;WC/AMORE&#45;WC/pkg/AMORE/src/Tanh.cpp</text>
</a>
</g>
<!-- Node1&#45;&gt;Node5 -->
<g id="edge10" class="edge"><title>Node1&#45;&gt;Node5</title>
<path fill="none" stroke="midnightblue" d="M4001.57,-118.308C3527.38,-112.935 2476.31,-99.3444 1591,-76 1585.01,-75.842 1578.93,-75.6749 1572.8,-75.5003"/>
<polygon fill="midnightblue" stroke="midnightblue" points="4001.59,-121.809 4011.63,-118.422 4001.67,-114.809 4001.59,-121.809"/>
</g>
<!-- Node6 -->
<g id="node13" class="node"><title>Node6</title>
<a xlink:href="_identity_8cpp.html" target="_top" xlink:title="/Users/mcasl/pc&#45;ule/Trabajo/investigacion/AMORE/AMORE&#45;WC/AMORE&#45;WC/pkg/AMORE/src/Identity.cpp">
<polygon fill="white" stroke="black" points="1600.5,-56.5 1600.5,-75.5 2097.5,-75.5 2097.5,-56.5 1600.5,-56.5"/>
<text text-anchor="middle" x="1849" y="-63.5" font-family="Helvetica,sans-Serif" font-size="10.00">/Users/mcasl/pc&#45;ule/Trabajo/investigacion/AMORE/AMORE&#45;WC/AMORE&#45;WC/pkg/AMORE/src/Identity.cpp</text>
</a>
</g>
<!-- Node1&#45;&gt;Node6 -->
<g id="edge14" class="edge"><title>Node1&#45;&gt;Node6</title>
<path fill="none" stroke="midnightblue" d="M4001.83,-116.823C3599.64,-109.956 2791.83,-95.114 2107,-76 2101.29,-75.8406 2095.5,-75.6747 2089.67,-75.5034"/>
<polygon fill="midnightblue" stroke="midnightblue" points="4001.79,-120.323 4011.84,-116.994 4001.91,-113.324 4001.79,-120.323"/>
</g>
<!-- Node7 -->
<g id="node16" class="node"><title>Node7</title>
<a xlink:href="_predict_behavior_8cpp.html" target="_top" xlink:title="/Users/mcasl/pc&#45;ule/Trabajo/investigacion/AMORE/AMORE&#45;WC/AMORE&#45;WC/pkg/AMORE/src/PredictBehavior.cpp">
<polygon fill="white" stroke="black" points="2116,-56.5 2116,-75.5 2652,-75.5 2652,-56.5 2116,-56.5"/>
<text text-anchor="middle" x="2384" y="-63.5" font-family="Helvetica,sans-Serif" font-size="10.00">/Users/mcasl/pc&#45;ule/Trabajo/investigacion/AMORE/AMORE&#45;WC/AMORE&#45;WC/pkg/AMORE/src/PredictBehavior.cpp</text>
</a>
</g>
<!-- Node1&#45;&gt;Node7 -->
<g id="edge18" class="edge"><title>Node1&#45;&gt;Node7</title>
<path fill="none" stroke="midnightblue" d="M4001.6,-114.158C3686.8,-105.614 3134.36,-90.3675 2661,-76 2655.71,-75.8394 2650.36,-75.676 2644.97,-75.5104"/>
<polygon fill="midnightblue" stroke="midnightblue" points="4001.68,-117.661 4011.77,-114.434 4001.87,-110.664 4001.68,-117.661"/>
</g>
<!-- Node8 -->
<g id="node19" class="node"><title>Node8</title>
<a xlink:href="_m_l_pbehavior_8cpp.html" target="_top" xlink:title="/Users/mcasl/pc&#45;ule/Trabajo/investigacion/AMORE/AMORE&#45;WC/AMORE&#45;WC/pkg/AMORE/src/MLPbehavior.cpp">
<polygon fill="white" stroke="black" points="2670,-56.5 2670,-75.5 3192,-75.5 3192,-56.5 2670,-56.5"/>
<text text-anchor="middle" x="2931" y="-63.5" font-family="Helvetica,sans-Serif" font-size="10.00">/Users/mcasl/pc&#45;ule/Trabajo/investigacion/AMORE/AMORE&#45;WC/AMORE&#45;WC/pkg/AMORE/src/MLPbehavior.cpp</text>
</a>
</g>
<!-- Node1&#45;&gt;Node8 -->
<g id="edge22" class="edge"><title>Node1&#45;&gt;Node8</title>
<path fill="none" stroke="midnightblue" d="M4036.88,-112.07C3787.88,-101.922 3384.42,-85.4789 3139.79,-75.5091"/>
<polygon fill="midnightblue" stroke="midnightblue" points="4037.01,-115.578 4047.15,-112.488 4037.3,-108.584 4037.01,-115.578"/>
</g>
<!-- Node9 -->
<g id="node22" class="node"><title>Node9</title>
<a xlink:href="_neuron_8cpp.html" target="_top" xlink:title="/Users/mcasl/pc&#45;ule/Trabajo/investigacion/AMORE/AMORE&#45;WC/AMORE&#45;WC/pkg/AMORE/src/Neuron.cpp">
<polygon fill="white" stroke="black" points="3210.5,-56.5 3210.5,-75.5 3705.5,-75.5 3705.5,-56.5 3210.5,-56.5"/>
<text text-anchor="middle" x="3458" y="-63.5" font-family="Helvetica,sans-Serif" font-size="10.00">/Users/mcasl/pc&#45;ule/Trabajo/investigacion/AMORE/AMORE&#45;WC/AMORE&#45;WC/pkg/AMORE/src/Neuron.cpp</text>
</a>
</g>
<!-- Node1&#45;&gt;Node9 -->
<g id="edge26" class="edge"><title>Node1&#45;&gt;Node9</title>
<path fill="none" stroke="midnightblue" d="M4119.78,-111.782C3969.48,-101.612 3729.61,-85.3798 3583.67,-75.5042"/>
<polygon fill="midnightblue" stroke="midnightblue" points="4119.78,-115.29 4129.99,-112.473 4120.25,-108.306 4119.78,-115.29"/>
</g>
<!-- Node10 -->
<g id="node25" class="node"><title>Node10</title>
<a xlink:href="_simple_neuron_8cpp.html" target="_top" xlink:title="/Users/mcasl/pc&#45;ule/Trabajo/investigacion/AMORE/AMORE&#45;WC/AMORE&#45;WC/pkg/AMORE/src/SimpleNeuron.cpp">
<polygon fill="white" stroke="black" points="3723.5,-56.5 3723.5,-75.5 4250.5,-75.5 4250.5,-56.5 3723.5,-56.5"/>
<text text-anchor="middle" x="3987" y="-63.5" font-family="Helvetica,sans-Serif" font-size="10.00">/Users/mcasl/pc&#45;ule/Trabajo/investigacion/AMORE/AMORE&#45;WC/AMORE&#45;WC/pkg/AMORE/src/SimpleNeuron.cpp</text>
</a>
</g>
<!-- Node1&#45;&gt;Node10 -->
<g id="edge30" class="edge"><title>Node1&#45;&gt;Node10</title>
<path fill="none" stroke="midnightblue" d="M4203.56,-110.473C4152.72,-100.268 4076.56,-84.9794 4029.42,-75.5164"/>
<polygon fill="midnightblue" stroke="midnightblue" points="4202.88,-113.907 4213.38,-112.444 4204.26,-107.044 4202.88,-113.907"/>
</g>
<!-- Node11 -->
<g id="node28" class="node"><title>Node11</title>
<a xlink:href="_m_l_pfactory_8cpp.html" target="_top" xlink:title="/Users/mcasl/pc&#45;ule/Trabajo/investigacion/AMORE/AMORE&#45;WC/AMORE&#45;WC/pkg/AMORE/src/MLPfactory.cpp">
<polygon fill="white" stroke="black" points="4268.5,-56.5 4268.5,-75.5 4783.5,-75.5 4783.5,-56.5 4268.5,-56.5"/>
<text text-anchor="middle" x="4526" y="-63.5" font-family="Helvetica,sans-Serif" font-size="10.00">/Users/mcasl/pc&#45;ule/Trabajo/investigacion/AMORE/AMORE&#45;WC/AMORE&#45;WC/pkg/AMORE/src/MLPfactory.cpp</text>
</a>
</g>
<!-- Node1&#45;&gt;Node11 -->
<g id="edge34" class="edge"><title>Node1&#45;&gt;Node11</title>
<path fill="none" stroke="midnightblue" d="M4308.63,-110.473C4359.66,-100.268 4436.1,-84.9794 4483.42,-75.5164"/>
<polygon fill="midnightblue" stroke="midnightblue" points="4307.9,-107.05 4298.78,-112.444 4309.27,-113.914 4307.9,-107.05"/>
</g>
<!-- Node12 -->
<g id="node31" class="node"><title>Node12</title>
<a xlink:href="_tanh_factory_8cpp.html" target="_top" xlink:title="/Users/mcasl/pc&#45;ule/Trabajo/investigacion/AMORE/AMORE&#45;WC/AMORE&#45;WC/pkg/AMORE/src/TanhFactory.cpp">
<polygon fill="white" stroke="black" points="4802,-56.5 4802,-75.5 5320,-75.5 5320,-56.5 4802,-56.5"/>
<text text-anchor="middle" x="5061" y="-63.5" font-family="Helvetica,sans-Serif" font-size="10.00">/Users/mcasl/pc&#45;ule/Trabajo/investigacion/AMORE/AMORE&#45;WC/AMORE&#45;WC/pkg/AMORE/src/TanhFactory.cpp</text>
</a>
</g>
<!-- Node1&#45;&gt;Node12 -->
<g id="edge38" class="edge"><title>Node1&#45;&gt;Node12</title>
<path fill="none" stroke="midnightblue" d="M4393.42,-111.782C4545.03,-101.612 4787.01,-85.3798 4934.23,-75.5042"/>
<polygon fill="midnightblue" stroke="midnightblue" points="4392.85,-108.312 4383.11,-112.473 4393.32,-115.296 4392.85,-108.312"/>
</g>
<!-- Node13 -->
<g id="node34" class="node"><title>Node13</title>
<a xlink:href="_identity_factory_8cpp.html" target="_top" xlink:title="/Users/mcasl/pc&#45;ule/Trabajo/investigacion/AMORE/AMORE&#45;WC/AMORE&#45;WC/pkg/AMORE/src/IdentityFactory.cpp">
<polygon fill="white" stroke="black" points="5338,-56.5 5338,-75.5 5870,-75.5 5870,-56.5 5338,-56.5"/>
<text text-anchor="middle" x="5604" y="-63.5" font-family="Helvetica,sans-Serif" font-size="10.00">/Users/mcasl/pc&#45;ule/Trabajo/investigacion/AMORE/AMORE&#45;WC/AMORE&#45;WC/pkg/AMORE/src/IdentityFactory.cpp</text>
</a>
</g>
<!-- Node1&#45;&gt;Node13 -->
<g id="edge42" class="edge"><title>Node1&#45;&gt;Node13</title>
<path fill="none" stroke="midnightblue" d="M4478.55,-112.085C4731.84,-101.938 5142.59,-85.4839 5391.59,-75.5091"/>
<polygon fill="midnightblue" stroke="midnightblue" points="4478.33,-108.591 4468.48,-112.488 4478.61,-115.585 4478.33,-108.591"/>
</g>
<!-- Node14 -->
<g id="node37" class="node"><title>Node14</title>
<a xlink:href="_neural_network_8cpp.html" target="_top" xlink:title="/Users/mcasl/pc&#45;ule/Trabajo/investigacion/AMORE/AMORE&#45;WC/AMORE&#45;WC/pkg/AMORE/src/NeuralNetwork.cpp">
<polygon fill="white" stroke="black" points="5888,-56.5 5888,-75.5 6418,-75.5 6418,-56.5 5888,-56.5"/>
<text text-anchor="middle" x="6153" y="-63.5" font-family="Helvetica,sans-Serif" font-size="10.00">/Users/mcasl/pc&#45;ule/Trabajo/investigacion/AMORE/AMORE&#45;WC/AMORE&#45;WC/pkg/AMORE/src/NeuralNetwork.cpp</text>
</a>
</g>
<!-- Node1&#45;&gt;Node14 -->
<g id="edge46" class="edge"><title>Node1&#45;&gt;Node14</title>
<path fill="none" stroke="midnightblue" d="M4510.36,-114.35C4829.91,-105.903 5395.07,-90.6566 5879,-76 5884.35,-75.8379 5889.76,-75.6727 5895.22,-75.5049"/>
<polygon fill="midnightblue" stroke="midnightblue" points="4509.94,-110.86 4500.04,-114.623 4510.13,-117.857 4509.94,-110.86"/>
</g>
<!-- Node15 -->
<g id="node40" class="node"><title>Node15</title>
<a xlink:href="_simple_network_8cpp.html" target="_top" xlink:title="/Users/mcasl/pc&#45;ule/Trabajo/investigacion/AMORE/AMORE&#45;WC/AMORE&#45;WC/pkg/AMORE/src/SimpleNetwork.cpp">
<polygon fill="white" stroke="black" points="6436.5,-56.5 6436.5,-75.5 6969.5,-75.5 6969.5,-56.5 6436.5,-56.5"/>
<text text-anchor="middle" x="6703" y="-63.5" font-family="Helvetica,sans-Serif" font-size="10.00">/Users/mcasl/pc&#45;ule/Trabajo/investigacion/AMORE/AMORE&#45;WC/AMORE&#45;WC/pkg/AMORE/src/SimpleNetwork.cpp</text>
</a>
</g>
<!-- Node1&#45;&gt;Node15 -->
<g id="edge50" class="edge"><title>Node1&#45;&gt;Node15</title>
<path fill="none" stroke="midnightblue" d="M4510.3,-116.707C4915.77,-109.642 5733.73,-94.4875 6427,-76 6432.99,-75.8402 6439.05,-75.6746 6445.17,-75.5041"/>
<polygon fill="midnightblue" stroke="midnightblue" points="4510.15,-113.209 4500.21,-116.883 4510.27,-120.208 4510.15,-113.209"/>
</g>
<!-- Node16 -->
<g id="node43" class="node"><title>Node16</title>
<a xlink:href="_simple_neural_creator_8cpp.html" target="_top" xlink:title="/Users/mcasl/pc&#45;ule/Trabajo/investigacion/AMORE/AMORE&#45;WC/AMORE&#45;WC/pkg/AMORE/src/SimpleNeuralCreator.cpp">
<polygon fill="white" stroke="black" points="6988,-56.5 6988,-75.5 7546,-75.5 7546,-56.5 6988,-56.5"/>
<text text-anchor="middle" x="7267" y="-63.5" font-family="Helvetica,sans-Serif" font-size="10.00">/Users/mcasl/pc&#45;ule/Trabajo/investigacion/AMORE/AMORE&#45;WC/AMORE&#45;WC/pkg/AMORE/src/SimpleNeuralCreator.cpp</text>
</a>
</g>
<!-- Node1&#45;&gt;Node16 -->
<g id="edge54" class="edge"><title>Node1&#45;&gt;Node16</title>
<path fill="none" stroke="midnightblue" d="M4510.23,-118.035C4991.82,-112.144 6070.19,-97.6383 6978,-76 6984.65,-75.8415 6991.38,-75.6753 6998.18,-75.5026"/>
<polygon fill="midnightblue" stroke="midnightblue" points="4509.98,-114.538 4500.02,-118.16 4510.07,-121.537 4509.98,-114.538"/>
</g>
<!-- Node17 -->
<g id="node46" class="node"><title>Node17</title>
<a xlink:href="_network_rinterface_8cpp.html" target="_top" xlink:title="/Users/mcasl/pc&#45;ule/Trabajo/investigacion/AMORE/AMORE&#45;WC/AMORE&#45;WC/pkg/AMORE/src/NetworkRinterface.cpp">
<polygon fill="white" stroke="black" points="7564,-56.5 7564,-75.5 8112,-75.5 8112,-56.5 7564,-56.5"/>
<text text-anchor="middle" x="7838" y="-63.5" font-family="Helvetica,sans-Serif" font-size="10.00">/Users/mcasl/pc&#45;ule/Trabajo/investigacion/AMORE/AMORE&#45;WC/AMORE&#45;WC/pkg/AMORE/src/NetworkRinterface.cpp</text>
</a>
</g>
<!-- Node1&#45;&gt;Node17 -->
<g id="edge58" class="edge"><title>Node1&#45;&gt;Node17</title>
<path fill="none" stroke="midnightblue" d="M4510.31,-119.103C5063.89,-114.628 6419.54,-101.797 7555,-76 7561.88,-75.8437 7568.85,-75.6776 7575.89,-75.5031"/>
<polygon fill="midnightblue" stroke="midnightblue" points="4510.18,-115.604 4500.21,-119.185 4510.23,-122.604 4510.18,-115.604"/>
</g>
<!-- Node18 -->
<g id="node49" class="node"><title>Node18</title>
<a xlink:href="_rcpp_modules_8cpp.html" target="_top" xlink:title="/Users/mcasl/pc&#45;ule/Trabajo/investigacion/AMORE/AMORE&#45;WC/AMORE&#45;WC/pkg/AMORE/src/RcppModules.cpp">
<polygon fill="white" stroke="black" points="8130,-56.5 8130,-75.5 8656,-75.5 8656,-56.5 8130,-56.5"/>
<text text-anchor="middle" x="8393" y="-63.5" font-family="Helvetica,sans-Serif" font-size="10.00">/Users/mcasl/pc&#45;ule/Trabajo/investigacion/AMORE/AMORE&#45;WC/AMORE&#45;WC/pkg/AMORE/src/RcppModules.cpp</text>
</a>
</g>
<!-- Node1&#45;&gt;Node18 -->
<g id="edge62" class="edge"><title>Node1&#45;&gt;Node18</title>
<path fill="none" stroke="midnightblue" d="M4510.6,-119.922C5129.12,-116.892 6760.08,-106.434 8121,-76 8127.85,-75.8468 8134.8,-75.6821 8141.81,-75.5077"/>
<polygon fill="midnightblue" stroke="midnightblue" points="4510.2,-116.424 4500.22,-119.973 4510.23,-123.424 4510.2,-116.424"/>
</g>
<!-- Node3 -->
<g id="node5" class="node"><title>Node3</title>
<a xlink:href="_a_m_o_r_e_8h.html" target="_top" xlink:title="/Users/mcasl/pc&#45;ule/Trabajo/investigacion/AMORE/AMORE&#45;WC/AMORE&#45;WC/pkg/AMORE/src/AMORE.h">
<polygon fill="white" stroke="black" points="4012,-0.5 4012,-19.5 4500,-19.5 4500,-0.5 4012,-0.5"/>
<text text-anchor="middle" x="4256" y="-7.5" font-family="Helvetica,sans-Serif" font-size="10.00">/Users/mcasl/pc&#45;ule/Trabajo/investigacion/AMORE/AMORE&#45;WC/AMORE&#45;WC/pkg/AMORE/src/AMORE.h</text>
</a>
</g>
<!-- Node2&#45;&gt;Node3 -->
<g id="edge4" class="edge"><title>Node2&#45;&gt;Node3</title>
<path fill="none" stroke="midnightblue" d="M544.132,-56.2462C547.778,-56.1614 551.402,-56.0793 555,-56 1857.92,-27.2905 3419.29,-15.8267 4011.84,-12.3024"/>
<polygon fill="midnightblue" stroke="midnightblue" points="543.72,-52.7549 533.807,-56.4919 543.887,-59.753 543.72,-52.7549"/>
</g>
<!-- Node4&#45;&gt;Node3 -->
<g id="edge8" class="edge"><title>Node4&#45;&gt;Node3</title>
<path fill="none" stroke="midnightblue" d="M1079.51,-56.2328C1082.69,-56.153 1085.86,-56.0753 1089,-56 2179,-29.8878 3480.41,-17.2295 4011.85,-12.8489"/>
<polygon fill="midnightblue" stroke="midnightblue" points="1079.2,-52.7395 1069.29,-56.4947 1079.38,-59.7372 1079.2,-52.7395"/>
</g>
<!-- Node5&#45;&gt;Node3 -->
<g id="edge12" class="edge"><title>Node5&#45;&gt;Node3</title>
<path fill="none" stroke="midnightblue" d="M1582.81,-56.2202C1585.55,-56.1451 1588.28,-56.0716 1591,-56 2482.62,-32.4891 3542.38,-18.8717 4011.63,-13.5779"/>
<polygon fill="midnightblue" stroke="midnightblue" points="1582.7,-52.7216 1572.8,-56.4997 1582.9,-59.7189 1582.7,-52.7216"/>
</g>
<!-- Node6&#45;&gt;Node3 -->
<g id="edge16" class="edge"><title>Node6&#45;&gt;Node3</title>
<path fill="none" stroke="midnightblue" d="M2099.73,-56.2051C2102.17,-56.1357 2104.59,-56.0673 2107,-56 2797.57,-36.726 3613.17,-21.7955 4011.84,-15.0057"/>
<polygon fill="midnightblue" stroke="midnightblue" points="2099.57,-52.7084 2089.67,-56.4966 2099.77,-59.7055 2099.57,-52.7084"/>
</g>
<!-- Node7&#45;&gt;Node3 -->
<g id="edge20" class="edge"><title>Node7&#45;&gt;Node3</title>
<path fill="none" stroke="midnightblue" d="M2655.03,-56.1818C2657.02,-56.1208 2659.02,-56.0602 2661,-56 3139.5,-41.4765 3698.81,-26.055 4011.77,-17.5662"/>
<polygon fill="midnightblue" stroke="midnightblue" points="2654.86,-52.6851 2644.97,-56.4896 2655.08,-59.6818 2654.86,-52.6851"/>
</g>
<!-- Node8&#45;&gt;Node3 -->
<g id="edge24" class="edge"><title>Node8&#45;&gt;Node3</title>
<path fill="none" stroke="midnightblue" d="M3150.12,-56.0699C3399.12,-45.922 3802.58,-29.4789 4047.21,-19.5091"/>
<polygon fill="midnightblue" stroke="midnightblue" points="3149.7,-52.5838 3139.85,-56.4882 3149.99,-59.578 3149.7,-52.5838"/>
</g>
<!-- Node9&#45;&gt;Node3 -->
<g id="edge28" class="edge"><title>Node9&#45;&gt;Node3</title>
<path fill="none" stroke="midnightblue" d="M3594.22,-55.782C3744.52,-45.6117 3984.39,-29.3798 4130.33,-19.5042"/>
<polygon fill="midnightblue" stroke="midnightblue" points="3593.75,-52.3061 3584.01,-56.4733 3594.22,-59.2901 3593.75,-52.3061"/>
</g>
<!-- Node10&#45;&gt;Node3 -->
<g id="edge32" class="edge"><title>Node10&#45;&gt;Node3</title>
<path fill="none" stroke="midnightblue" d="M4039.44,-54.4734C4090.28,-44.2678 4166.44,-28.9794 4213.58,-19.5164"/>
<polygon fill="midnightblue" stroke="midnightblue" points="4038.74,-51.0437 4029.62,-56.4435 4040.12,-57.9068 4038.74,-51.0437"/>
</g>
<!-- Node11&#45;&gt;Node3 -->
<g id="edge36" class="edge"><title>Node11&#45;&gt;Node3</title>
<path fill="none" stroke="midnightblue" d="M4473.37,-54.4734C4422.34,-44.2678 4345.9,-28.9794 4298.58,-19.5164"/>
<polygon fill="midnightblue" stroke="midnightblue" points="4472.73,-57.9143 4483.22,-56.4435 4474.1,-51.0503 4472.73,-57.9143"/>
</g>
<!-- Node12&#45;&gt;Node3 -->
<g id="edge40" class="edge"><title>Node12&#45;&gt;Node3</title>
<path fill="none" stroke="midnightblue" d="M4923.58,-55.782C4771.97,-45.6117 4529.99,-29.3798 4382.77,-19.5042"/>
<polygon fill="midnightblue" stroke="midnightblue" points="4923.68,-59.2961 4933.89,-56.4733 4924.15,-52.3118 4923.68,-59.2961"/>
</g>
<!-- Node13&#45;&gt;Node3 -->
<g id="edge44" class="edge"><title>Node13&#45;&gt;Node3</title>
<path fill="none" stroke="midnightblue" d="M5381.45,-56.085C5128.16,-45.9383 4717.41,-29.4839 4468.41,-19.5091"/>
<polygon fill="midnightblue" stroke="midnightblue" points="5381.39,-59.585 5391.52,-56.4882 5381.67,-52.5907 5381.39,-59.585"/>
</g>
<!-- Node14&#45;&gt;Node3 -->
<g id="edge48" class="edge"><title>Node14&#45;&gt;Node3</title>
<path fill="none" stroke="midnightblue" d="M5885.04,-56.1836C5883.02,-56.122 5881.01,-56.0608 5879,-56 5389.81,-41.1843 4817.62,-25.7659 4500.04,-17.3774"/>
<polygon fill="midnightblue" stroke="midnightblue" points="5885.11,-59.6873 5895.22,-56.4951 5885.33,-52.6906 5885.11,-59.6873"/>
</g>
<!-- Node15&#45;&gt;Node3 -->
<g id="edge52" class="edge"><title>Node15&#45;&gt;Node3</title>
<path fill="none" stroke="midnightblue" d="M6434.9,-56.213C6432.26,-56.1409 6429.62,-56.0699 6427,-56 5727.93,-37.3577 4902.06,-22.1045 4500.21,-15.1172"/>
<polygon fill="midnightblue" stroke="midnightblue" points="6435.08,-59.719 6445.17,-56.4959 6435.27,-52.7216 6435.08,-59.719"/>
</g>
<!-- Node16&#45;&gt;Node3 -->
<g id="edge56" class="edge"><title>Node16&#45;&gt;Node3</title>
<path fill="none" stroke="midnightblue" d="M6988.04,-56.2434C6984.67,-56.1604 6981.32,-56.0792 6978,-56 6063.71,-34.2074 4976.43,-19.6495 4500.02,-13.8401"/>
<polygon fill="midnightblue" stroke="midnightblue" points="6988.09,-59.7459 6998.18,-56.4974 6988.27,-52.748 6988.09,-59.7459"/>
</g>
<!-- Node17&#45;&gt;Node3 -->
<g id="edge60" class="edge"><title>Node17&#45;&gt;Node3</title>
<path fill="none" stroke="midnightblue" d="M7565.71,-56.2494C7562.12,-56.1638 7558.55,-56.0806 7555,-56 6412.57,-30.0445 5047.23,-17.2144 4500.21,-12.8154"/>
<polygon fill="midnightblue" stroke="midnightblue" points="7565.81,-59.7527 7575.89,-56.4969 7565.98,-52.7548 7565.81,-59.7527"/>
</g>
<!-- Node18&#45;&gt;Node3 -->
<g id="edge64" class="edge"><title>Node18&#45;&gt;Node3</title>
<path fill="none" stroke="midnightblue" d="M8131.67,-56.2459C8128.09,-56.161 8124.53,-56.079 8121,-56 6752.4,-25.3939 5110.69,-14.9908 4500.22,-12.0274"/>
<polygon fill="midnightblue" stroke="midnightblue" points="8131.72,-59.7482 8141.81,-56.4923 8131.89,-52.7502 8131.72,-59.7482"/>
</g>
</g>
</svg>
