<?xml version="1.0" encoding="UTF-8" standalone="no"?>
<!DOCTYPE svg PUBLIC "-//W3C//DTD SVG 1.1//EN"
 "http://www.w3.org/Graphics/SVG/1.1/DTD/svg11.dtd">
<!-- Generated by graphviz version 2.28.0 (20110610.2051)
 -->
<!-- Title: G Pages: 1 -->
<svg width="8664pt" height="140pt"
 viewBox="0.00 0.00 8664.00 140.00" xmlns="http://www.w3.org/2000/svg" xmlns:xlink="http://www.w3.org/1999/xlink">
<g id="graph1" class="graph" transform="scale(1 1) rotate(0) translate(4 136)">
<title>G</title>
<polygon fill="white" stroke="white" points="-4,5 -4,-136 8661,-136 8661,5 -4,5"/>
<!-- Node1 -->
<g id="node1" class="node"><title>Node1</title>
<polygon fill="#bfbfbf" stroke="black" points="4016,-112.5 4016,-131.5 4504,-131.5 4504,-112.5 4016,-112.5"/>
<text text-anchor="middle" x="4260" y="-119.5" font-family="Helvetica,sans-Serif" font-size="10.00">/Users/mcasl/pc&#45;ule/Trabajo/investigacion/AMORE/AMORE&#45;WC/AMORE&#45;WC/pkg/AMORE/src/package.h</text>
</g>
<!-- Node2 -->
<g id="node3" class="node"><title>Node2</title>
<a xlink:href="_activation_function_8cpp.html" target="_top" xlink:title="/Users/mcasl/pc&#45;ule/Trabajo/investigacion/AMORE/AMORE&#45;WC/AMORE&#45;WC/pkg/AMORE/src/ActivationFunction.cpp">
<polygon fill="white" stroke="black" points="-0.5,-56.5 -0.5,-75.5 546.5,-75.5 546.5,-56.5 -0.5,-56.5"/>
<text text-anchor="middle" x="273" y="-63.5" font-family="Helvetica,sans-Serif" font-size="10.00">/Users/mcasl/pc&#45;ule/Trabajo/investigacion/AMORE/AMORE&#45;WC/AMORE&#45;WC/pkg/AMORE/src/ActivationFunction.cpp</text>
</a>
</g>
<!-- Node1&#45;&gt;Node2 -->
<g id="edge2" class="edge"><title>Node1&#45;&gt;Node2</title>
<path fill="none" stroke="midnightblue" d="M4005.84,-119.632C3405.55,-116.024 1852.86,-104.496 556,-76 548.997,-75.8461 541.896,-75.6815 534.731,-75.5078"/>
<polygon fill="midnightblue" stroke="midnightblue" points="4005.89,-123.132 4015.91,-119.692 4005.94,-116.132 4005.89,-123.132"/>
</g>
<!-- Node4 -->
<g id="node7" class="node"><title>Node4</title>
<a xlink:href="_tanh_8cpp.html" target="_top" xlink:title="/Users/mcasl/pc&#45;ule/Trabajo/investigacion/AMORE/AMORE&#45;WC/AMORE&#45;WC/pkg/AMORE/src/Tanh.cpp">
<polygon fill="white" stroke="black" points="565,-56.5 565,-75.5 1049,-75.5 1049,-56.5 565,-56.5"/>
<text text-anchor="middle" x="807" y="-63.5" font-family="Helvetica,sans-Serif" font-size="10.00">/Users/mcasl/pc&#45;ule/Trabajo/investigacion/AMORE/AMORE&#45;WC/AMORE&#45;WC/pkg/AMORE/src/Tanh.cpp</text>
</a>
</g>
<!-- Node1&#45;&gt;Node4 -->
<g id="edge6" class="edge"><title>Node1&#45;&gt;Node4</title>
<path fill="none" stroke="midnightblue" d="M4005.64,-119.307C3463.66,-115.285 2154.92,-103.371 1058,-76 1051.79,-75.845 1045.49,-75.6794 1039.14,-75.5048"/>
<polygon fill="midnightblue" stroke="midnightblue" points="4005.91,-122.809 4015.93,-119.383 4005.96,-115.809 4005.91,-122.809"/>
</g>
<!-- Node5 -->
<g id="node10" class="node"><title>Node5</title>
<a xlink:href="_identity_8cpp.html" target="_top" xlink:title="/Users/mcasl/pc&#45;ule/Trabajo/investigacion/AMORE/AMORE&#45;WC/AMORE&#45;WC/pkg/AMORE/src/Identity.cpp">
<polygon fill="white" stroke="black" points="1067.5,-56.5 1067.5,-75.5 1564.5,-75.5 1564.5,-56.5 1067.5,-56.5"/>
<text text-anchor="middle" x="1316" y="-63.5" font-family="Helvetica,sans-Serif" font-size="10.00">/Users/mcasl/pc&#45;ule/Trabajo/investigacion/AMORE/AMORE&#45;WC/AMORE&#45;WC/pkg/AMORE/src/Identity.cpp</text>
</a>
</g>
<!-- Node1&#45;&gt;Node5 -->
<g id="edge10" class="edge"><title>Node1&#45;&gt;Node5</title>
<path fill="none" stroke="midnightblue" d="M4005.89,-118.276C3529.08,-112.824 2467.74,-99.0733 1574,-76 1567.95,-75.8438 1561.82,-75.6791 1555.64,-75.5072"/>
<polygon fill="midnightblue" stroke="midnightblue" points="4005.96,-121.777 4016,-118.391 4006.04,-114.777 4005.96,-121.777"/>
</g>
<!-- Node6 -->
<g id="node13" class="node"><title>Node6</title>
<a xlink:href="_predict_behavior_8cpp.html" target="_top" xlink:title="/Users/mcasl/pc&#45;ule/Trabajo/investigacion/AMORE/AMORE&#45;WC/AMORE&#45;WC/pkg/AMORE/src/PredictBehavior.cpp">
<polygon fill="white" stroke="black" points="1583,-56.5 1583,-75.5 2119,-75.5 2119,-56.5 1583,-56.5"/>
<text text-anchor="middle" x="1851" y="-63.5" font-family="Helvetica,sans-Serif" font-size="10.00">/Users/mcasl/pc&#45;ule/Trabajo/investigacion/AMORE/AMORE&#45;WC/AMORE&#45;WC/pkg/AMORE/src/PredictBehavior.cpp</text>
</a>
</g>
<!-- Node1&#45;&gt;Node6 -->
<g id="edge14" class="edge"><title>Node1&#45;&gt;Node6</title>
<path fill="none" stroke="midnightblue" d="M4005.53,-116.564C3605.74,-109.385 2806.13,-94.1725 2128,-76 2121.99,-75.8389 2115.9,-75.672 2109.76,-75.5004"/>
<polygon fill="midnightblue" stroke="midnightblue" points="4005.71,-120.068 4015.77,-116.748 4005.84,-113.069 4005.71,-120.068"/>
</g>
<!-- Node7 -->
<g id="node16" class="node"><title>Node7</title>
<a xlink:href="_m_l_pbehavior_8cpp.html" target="_top" xlink:title="/Users/mcasl/pc&#45;ule/Trabajo/investigacion/AMORE/AMORE&#45;WC/AMORE&#45;WC/pkg/AMORE/src/MLPbehavior.cpp">
<polygon fill="white" stroke="black" points="2137,-56.5 2137,-75.5 2659,-75.5 2659,-56.5 2137,-56.5"/>
<text text-anchor="middle" x="2398" y="-63.5" font-family="Helvetica,sans-Serif" font-size="10.00">/Users/mcasl/pc&#45;ule/Trabajo/investigacion/AMORE/AMORE&#45;WC/AMORE&#45;WC/pkg/AMORE/src/MLPbehavior.cpp</text>
</a>
</g>
<!-- Node1&#45;&gt;Node7 -->
<g id="edge18" class="edge"><title>Node1&#45;&gt;Node7</title>
<path fill="none" stroke="midnightblue" d="M4005.74,-114.21C3691.47,-105.725 3140.3,-90.5466 2668,-76 2662.73,-75.8376 2657.39,-75.672 2652.02,-75.504"/>
<polygon fill="midnightblue" stroke="midnightblue" points="4005.8,-117.713 4015.89,-114.484 4005.99,-110.715 4005.8,-117.713"/>
</g>
<!-- Node8 -->
<g id="node19" class="node"><title>Node8</title>
<a xlink:href="_neuron_8cpp.html" target="_top" xlink:title="/Users/mcasl/pc&#45;ule/Trabajo/investigacion/AMORE/AMORE&#45;WC/AMORE&#45;WC/pkg/AMORE/src/Neuron.cpp">
<polygon fill="white" stroke="black" points="2677.5,-56.5 2677.5,-75.5 3172.5,-75.5 3172.5,-56.5 2677.5,-56.5"/>
<text text-anchor="middle" x="2925" y="-63.5" font-family="Helvetica,sans-Serif" font-size="10.00">/Users/mcasl/pc&#45;ule/Trabajo/investigacion/AMORE/AMORE&#45;WC/AMORE&#45;WC/pkg/AMORE/src/Neuron.cpp</text>
</a>
</g>
<!-- Node1&#45;&gt;Node8 -->
<g id="edge22" class="edge"><title>Node1&#45;&gt;Node8</title>
<path fill="none" stroke="midnightblue" d="M4039.23,-112.07C3788.35,-101.922 3381.84,-85.4789 3135.36,-75.5091"/>
<polygon fill="midnightblue" stroke="midnightblue" points="4039.44,-115.581 4049.57,-112.488 4039.72,-108.587 4039.44,-115.581"/>
</g>
<!-- Node9 -->
<g id="node22" class="node"><title>Node9</title>
<a xlink:href="_simple_neuron_8cpp.html" target="_top" xlink:title="/Users/mcasl/pc&#45;ule/Trabajo/investigacion/AMORE/AMORE&#45;WC/AMORE&#45;WC/pkg/AMORE/src/SimpleNeuron.cpp">
<polygon fill="white" stroke="black" points="3190.5,-56.5 3190.5,-75.5 3717.5,-75.5 3717.5,-56.5 3190.5,-56.5"/>
<text text-anchor="middle" x="3454" y="-63.5" font-family="Helvetica,sans-Serif" font-size="10.00">/Users/mcasl/pc&#45;ule/Trabajo/investigacion/AMORE/AMORE&#45;WC/AMORE&#45;WC/pkg/AMORE/src/SimpleNeuron.cpp</text>
</a>
</g>
<!-- Node1&#45;&gt;Node9 -->
<g id="edge26" class="edge"><title>Node1&#45;&gt;Node9</title>
<path fill="none" stroke="midnightblue" d="M4122.41,-111.782C3970.61,-101.612 3728.33,-85.3798 3580.93,-75.5042"/>
<polygon fill="midnightblue" stroke="midnightblue" points="4122.52,-115.297 4132.73,-112.473 4122.99,-108.313 4122.52,-115.297"/>
</g>
<!-- Node10 -->
<g id="node25" class="node"><title>Node10</title>
<a xlink:href="_m_l_pfactory_8cpp.html" target="_top" xlink:title="/Users/mcasl/pc&#45;ule/Trabajo/investigacion/AMORE/AMORE&#45;WC/AMORE&#45;WC/pkg/AMORE/src/MLPfactory.cpp">
<polygon fill="white" stroke="black" points="3735.5,-56.5 3735.5,-75.5 4250.5,-75.5 4250.5,-56.5 3735.5,-56.5"/>
<text text-anchor="middle" x="3993" y="-63.5" font-family="Helvetica,sans-Serif" font-size="10.00">/Users/mcasl/pc&#45;ule/Trabajo/investigacion/AMORE/AMORE&#45;WC/AMORE&#45;WC/pkg/AMORE/src/MLPfactory.cpp</text>
</a>
</g>
<!-- Node1&#45;&gt;Node10 -->
<g id="edge30" class="edge"><title>Node1&#45;&gt;Node10</title>
<path fill="none" stroke="midnightblue" d="M4207.64,-110.41C4157.18,-100.204 4081.8,-84.9597 4035.11,-75.5164"/>
<polygon fill="midnightblue" stroke="midnightblue" points="4207.2,-113.892 4217.69,-112.444 4208.59,-107.031 4207.2,-113.892"/>
</g>
<!-- Node11 -->
<g id="node28" class="node"><title>Node11</title>
<a xlink:href="_tanh_factory_8cpp.html" target="_top" xlink:title="/Users/mcasl/pc&#45;ule/Trabajo/investigacion/AMORE/AMORE&#45;WC/AMORE&#45;WC/pkg/AMORE/src/TanhFactory.cpp">
<polygon fill="white" stroke="black" points="4269,-56.5 4269,-75.5 4787,-75.5 4787,-56.5 4269,-56.5"/>
<text text-anchor="middle" x="4528" y="-63.5" font-family="Helvetica,sans-Serif" font-size="10.00">/Users/mcasl/pc&#45;ule/Trabajo/investigacion/AMORE/AMORE&#45;WC/AMORE&#45;WC/pkg/AMORE/src/TanhFactory.cpp</text>
</a>
</g>
<!-- Node1&#45;&gt;Node11 -->
<g id="edge34" class="edge"><title>Node1&#45;&gt;Node11</title>
<path fill="none" stroke="midnightblue" d="M4312.56,-110.41C4363.21,-100.204 4438.87,-84.9597 4485.73,-75.5164"/>
<polygon fill="midnightblue" stroke="midnightblue" points="4311.58,-107.037 4302.47,-112.444 4312.96,-113.899 4311.58,-107.037"/>
</g>
<!-- Node12 -->
<g id="node31" class="node"><title>Node12</title>
<a xlink:href="_identity_factory_8cpp.html" target="_top" xlink:title="/Users/mcasl/pc&#45;ule/Trabajo/investigacion/AMORE/AMORE&#45;WC/AMORE&#45;WC/pkg/AMORE/src/IdentityFactory.cpp">
<polygon fill="white" stroke="black" points="4805,-56.5 4805,-75.5 5337,-75.5 5337,-56.5 4805,-56.5"/>
<text text-anchor="middle" x="5071" y="-63.5" font-family="Helvetica,sans-Serif" font-size="10.00">/Users/mcasl/pc&#45;ule/Trabajo/investigacion/AMORE/AMORE&#45;WC/AMORE&#45;WC/pkg/AMORE/src/IdentityFactory.cpp</text>
</a>
</g>
<!-- Node1&#45;&gt;Node12 -->
<g id="edge38" class="edge"><title>Node1&#45;&gt;Node12</title>
<path fill="none" stroke="midnightblue" d="M4398.44,-111.782C4551.18,-101.612 4794.96,-85.3798 4943.28,-75.5042"/>
<polygon fill="midnightblue" stroke="midnightblue" points="4397.8,-108.317 4388.06,-112.473 4398.27,-115.301 4397.8,-108.317"/>
</g>
<!-- Node13 -->
<g id="node34" class="node"><title>Node13</title>
<a xlink:href="_neural_network_8cpp.html" target="_top" xlink:title="/Users/mcasl/pc&#45;ule/Trabajo/investigacion/AMORE/AMORE&#45;WC/AMORE&#45;WC/pkg/AMORE/src/NeuralNetwork.cpp">
<polygon fill="white" stroke="black" points="5355,-56.5 5355,-75.5 5885,-75.5 5885,-56.5 5355,-56.5"/>
<text text-anchor="middle" x="5620" y="-63.5" font-family="Helvetica,sans-Serif" font-size="10.00">/Users/mcasl/pc&#45;ule/Trabajo/investigacion/AMORE/AMORE&#45;WC/AMORE&#45;WC/pkg/AMORE/src/NeuralNetwork.cpp</text>
</a>
</g>
<!-- Node1&#45;&gt;Node13 -->
<g id="edge42" class="edge"><title>Node1&#45;&gt;Node13</title>
<path fill="none" stroke="midnightblue" d="M4484.53,-112.085C4740.07,-101.938 5154.48,-85.4839 5405.7,-75.5091"/>
<polygon fill="midnightblue" stroke="midnightblue" points="4484.22,-108.594 4474.37,-112.488 4484.5,-115.589 4484.22,-108.594"/>
</g>
<!-- Node14 -->
<g id="node37" class="node"><title>Node14</title>
<a xlink:href="_simple_network_8cpp.html" target="_top" xlink:title="/Users/mcasl/pc&#45;ule/Trabajo/investigacion/AMORE/AMORE&#45;WC/AMORE&#45;WC/pkg/AMORE/src/SimpleNetwork.cpp">
<polygon fill="white" stroke="black" points="5903.5,-56.5 5903.5,-75.5 6436.5,-75.5 6436.5,-56.5 5903.5,-56.5"/>
<text text-anchor="middle" x="6170" y="-63.5" font-family="Helvetica,sans-Serif" font-size="10.00">/Users/mcasl/pc&#45;ule/Trabajo/investigacion/AMORE/AMORE&#45;WC/AMORE&#45;WC/pkg/AMORE/src/SimpleNetwork.cpp</text>
</a>
</g>
<!-- Node1&#45;&gt;Node14 -->
<g id="edge46" class="edge"><title>Node1&#45;&gt;Node14</title>
<path fill="none" stroke="midnightblue" d="M4514.7,-114.385C4836.16,-105.944 5406.08,-90.6736 5894,-76 5899.39,-75.8379 5904.84,-75.6726 5910.34,-75.5048"/>
<polygon fill="midnightblue" stroke="midnightblue" points="4514.22,-110.896 4504.31,-114.658 4514.4,-117.894 4514.22,-110.896"/>
</g>
<!-- Node15 -->
<g id="node40" class="node"><title>Node15</title>
<a xlink:href="_simple_neural_creator_8cpp.html" target="_top" xlink:title="/Users/mcasl/pc&#45;ule/Trabajo/investigacion/AMORE/AMORE&#45;WC/AMORE&#45;WC/pkg/AMORE/src/SimpleNeuralCreator.cpp">
<polygon fill="white" stroke="black" points="6455,-56.5 6455,-75.5 7013,-75.5 7013,-56.5 6455,-56.5"/>
<text text-anchor="middle" x="6734" y="-63.5" font-family="Helvetica,sans-Serif" font-size="10.00">/Users/mcasl/pc&#45;ule/Trabajo/investigacion/AMORE/AMORE&#45;WC/AMORE&#45;WC/pkg/AMORE/src/SimpleNeuralCreator.cpp</text>
</a>
</g>
<!-- Node1&#45;&gt;Node15 -->
<g id="edge50" class="edge"><title>Node1&#45;&gt;Node15</title>
<path fill="none" stroke="midnightblue" d="M4514.29,-116.632C4921.79,-109.437 5746.31,-94.0735 6445,-76 6451.15,-75.841 6457.37,-75.6766 6463.64,-75.5077"/>
<polygon fill="midnightblue" stroke="midnightblue" points="4514.08,-113.135 4504.15,-116.811 4514.21,-120.134 4514.08,-113.135"/>
</g>
<!-- Node16 -->
<g id="node43" class="node"><title>Node16</title>
<a xlink:href="_network_rinterface_8cpp.html" target="_top" xlink:title="/Users/mcasl/pc&#45;ule/Trabajo/investigacion/AMORE/AMORE&#45;WC/AMORE&#45;WC/pkg/AMORE/src/NetworkRinterface.cpp">
<polygon fill="white" stroke="black" points="7031,-56.5 7031,-75.5 7579,-75.5 7579,-56.5 7031,-56.5"/>
<text text-anchor="middle" x="7305" y="-63.5" font-family="Helvetica,sans-Serif" font-size="10.00">/Users/mcasl/pc&#45;ule/Trabajo/investigacion/AMORE/AMORE&#45;WC/AMORE&#45;WC/pkg/AMORE/src/NetworkRinterface.cpp</text>
</a>
</g>
<!-- Node1&#45;&gt;Node16 -->
<g id="edge54" class="edge"><title>Node1&#45;&gt;Node16</title>
<path fill="none" stroke="midnightblue" d="M4514.67,-118.169C5001.68,-112.464 6098.77,-98.1999 7022,-76 7028.51,-75.8434 7035.11,-75.679 7041.76,-75.5078"/>
<polygon fill="midnightblue" stroke="midnightblue" points="4514.3,-114.673 4504.34,-118.29 4514.38,-121.673 4514.3,-114.673"/>
</g>
<!-- Node17 -->
<g id="node46" class="node"><title>Node17</title>
<a xlink:href="_rcpp_modules_8cpp.html" target="_top" xlink:title="/Users/mcasl/pc&#45;ule/Trabajo/investigacion/AMORE/AMORE&#45;WC/AMORE&#45;WC/pkg/AMORE/src/RcppModules.cpp">
<polygon fill="white" stroke="black" points="7597,-56.5 7597,-75.5 8123,-75.5 8123,-56.5 7597,-56.5"/>
<text text-anchor="middle" x="7860" y="-63.5" font-family="Helvetica,sans-Serif" font-size="10.00">/Users/mcasl/pc&#45;ule/Trabajo/investigacion/AMORE/AMORE&#45;WC/AMORE&#45;WC/pkg/AMORE/src/RcppModules.cpp</text>
</a>
</g>
<!-- Node1&#45;&gt;Node17 -->
<g id="edge58" class="edge"><title>Node1&#45;&gt;Node17</title>
<path fill="none" stroke="midnightblue" d="M4514.2,-119.257C5071.14,-115.067 6440.96,-102.729 7588,-76 7594.61,-75.8459 7601.32,-75.6817 7608.08,-75.5091"/>
<polygon fill="midnightblue" stroke="midnightblue" points="4514,-115.758 4504.03,-119.334 4514.05,-122.758 4514,-115.758"/>
</g>
<!-- Node18 -->
<g id="node49" class="node"><title>Node18</title>
<a xlink:href="_connection_8cpp.html" target="_top" xlink:title="/Users/mcasl/pc&#45;ule/Trabajo/investigacion/AMORE/AMORE&#45;WC/AMORE&#45;WC/pkg/AMORE/src/Connection.cpp">
<polygon fill="white" stroke="black" points="8141.5,-56.5 8141.5,-75.5 8656.5,-75.5 8656.5,-56.5 8141.5,-56.5"/>
<text text-anchor="middle" x="8399" y="-63.5" font-family="Helvetica,sans-Serif" font-size="10.00">/Users/mcasl/pc&#45;ule/Trabajo/investigacion/AMORE/AMORE&#45;WC/AMORE&#45;WC/pkg/AMORE/src/Connection.cpp</text>
</a>
</g>
<!-- Node1&#45;&gt;Node18 -->
<g id="edge62" class="edge"><title>Node1&#45;&gt;Node18</title>
<path fill="none" stroke="midnightblue" d="M4514.49,-119.984C5133.7,-117.09 6768.21,-106.906 8132,-76 8138.84,-75.845 8145.78,-75.678 8152.78,-75.5009"/>
<polygon fill="midnightblue" stroke="midnightblue" points="4514.08,-116.486 4504.1,-120.033 4514.12,-123.486 4514.08,-116.486"/>
</g>
<!-- Node3 -->
<g id="node5" class="node"><title>Node3</title>
<a xlink:href="_a_m_o_r_e_8h.html" target="_top" xlink:title="/Users/mcasl/pc&#45;ule/Trabajo/investigacion/AMORE/AMORE&#45;WC/AMORE&#45;WC/pkg/AMORE/src/AMORE.h">
<polygon fill="white" stroke="black" points="3749,-0.5 3749,-19.5 4237,-19.5 4237,-0.5 3749,-0.5"/>
<text text-anchor="middle" x="3993" y="-7.5" font-family="Helvetica,sans-Serif" font-size="10.00">/Users/mcasl/pc&#45;ule/Trabajo/investigacion/AMORE/AMORE&#45;WC/AMORE&#45;WC/pkg/AMORE/src/AMORE.h</text>
</a>
</g>
<!-- Node2&#45;&gt;Node3 -->
<g id="edge4" class="edge"><title>Node2&#45;&gt;Node3</title>
<path fill="none" stroke="midnightblue" d="M545.287,-56.2467C548.88,-56.1619 552.452,-56.0796 556,-56 1753.49,-29.1217 3186.06,-16.7281 3748.93,-12.6288"/>
<polygon fill="midnightblue" stroke="midnightblue" points="545.021,-52.7519 535.109,-56.4918 545.19,-59.7499 545.021,-52.7519"/>
</g>
<!-- Node4&#45;&gt;Node3 -->
<g id="edge8" class="edge"><title>Node4&#45;&gt;Node3</title>
<path fill="none" stroke="midnightblue" d="M1049.66,-56.2182C1052.45,-56.1436 1055.23,-56.0708 1058,-56 2056.19,-30.4547 3245.73,-17.6518 3748.97,-13.0504"/>
<polygon fill="midnightblue" stroke="midnightblue" points="1049.37,-52.7246 1039.47,-56.4965 1049.56,-59.722 1049.37,-52.7246"/>
</g>
<!-- Node5&#45;&gt;Node3 -->
<g id="edge12" class="edge"><title>Node5&#45;&gt;Node3</title>
<path fill="none" stroke="midnightblue" d="M1566.17,-56.2127C1568.79,-56.1404 1571.4,-56.0695 1574,-56 2369.43,-34.7292 3312.25,-20.2974 3748.76,-14.2306"/>
<polygon fill="midnightblue" stroke="midnightblue" points="1565.88,-52.7191 1555.98,-56.4981 1566.08,-59.7164 1565.88,-52.7191"/>
</g>
<!-- Node6&#45;&gt;Node3 -->
<g id="edge16" class="edge"><title>Node6&#45;&gt;Node3</title>
<path fill="none" stroke="midnightblue" d="M2121.08,-56.197C2123.4,-56.1307 2125.7,-56.065 2128,-56 2709.33,-39.5429 3392.7,-24.033 3748.96,-16.2382"/>
<polygon fill="midnightblue" stroke="midnightblue" points="2120.76,-52.7047 2110.87,-56.492 2120.97,-59.7017 2120.76,-52.7047"/>
</g>
<!-- Node7&#45;&gt;Node3 -->
<g id="edge20" class="edge"><title>Node7&#45;&gt;Node3</title>
<path fill="none" stroke="midnightblue" d="M2659.63,-56.1423C2961.64,-45.9175 3454.46,-29.2326 3748.87,-19.2654"/>
<polygon fill="midnightblue" stroke="midnightblue" points="2659.29,-52.6518 2649.41,-56.4882 2659.53,-59.6478 2659.29,-52.6518"/>
</g>
<!-- Node8&#45;&gt;Node3 -->
<g id="edge24" class="edge"><title>Node8&#45;&gt;Node3</title>
<path fill="none" stroke="midnightblue" d="M3103.41,-55.9793C3304.25,-45.8243 3628.11,-29.4493 3824.71,-19.5091"/>
<polygon fill="midnightblue" stroke="midnightblue" points="3103.15,-52.4876 3093.34,-56.4882 3103.51,-59.4787 3103.15,-52.4876"/>
</g>
<!-- Node9&#45;&gt;Node3 -->
<g id="edge28" class="edge"><title>Node9&#45;&gt;Node3</title>
<path fill="none" stroke="midnightblue" d="M3549.06,-55.4762C3650.67,-45.2965 3810.28,-29.3056 3907.89,-19.5264"/>
<polygon fill="midnightblue" stroke="midnightblue" points="3548.71,-51.9938 3539.11,-56.4733 3549.41,-58.9589 3548.71,-51.9938"/>
</g>
<!-- Node10&#45;&gt;Node3 -->
<g id="edge32" class="edge"><title>Node10&#45;&gt;Node3</title>
<path fill="none" stroke="midnightblue" d="M3993,-45.8045C3993,-36.9102 3993,-26.7798 3993,-19.7511"/>
<polygon fill="midnightblue" stroke="midnightblue" points="3989.5,-46.083 3993,-56.083 3996.5,-46.083 3989.5,-46.083"/>
</g>
<!-- Node11&#45;&gt;Node3 -->
<g id="edge36" class="edge"><title>Node11&#45;&gt;Node3</title>
<path fill="none" stroke="midnightblue" d="M4433.34,-55.4453C4332.47,-45.2642 4174.26,-29.2958 4077.47,-19.5264"/>
<polygon fill="midnightblue" stroke="midnightblue" points="4433.22,-58.9513 4443.52,-56.4733 4433.92,-51.9867 4433.22,-58.9513"/>
</g>
<!-- Node12&#45;&gt;Node3 -->
<g id="edge40" class="edge"><title>Node12&#45;&gt;Node3</title>
<path fill="none" stroke="midnightblue" d="M4890.92,-55.9793C4688.2,-45.8243 4361.3,-29.4493 4162.87,-19.5091"/>
<polygon fill="midnightblue" stroke="midnightblue" points="4890.92,-59.4834 4901.08,-56.4882 4891.27,-52.4922 4890.92,-59.4834"/>
</g>
<!-- Node13&#45;&gt;Node3 -->
<g id="edge44" class="edge"><title>Node13&#45;&gt;Node3</title>
<path fill="none" stroke="midnightblue" d="M5353.52,-56.1557C5043.79,-45.8755 4536.91,-29.0522 4237.07,-19.1007"/>
<polygon fill="midnightblue" stroke="midnightblue" points="5353.43,-59.6545 5363.54,-56.4882 5353.66,-52.6583 5353.43,-59.6545"/>
</g>
<!-- Node14&#45;&gt;Node3 -->
<g id="edge48" class="edge"><title>Node14&#45;&gt;Node3</title>
<path fill="none" stroke="midnightblue" d="M5901.31,-56.2072C5898.86,-56.1374 5896.43,-56.0683 5894,-56 5298.97,-39.2562 4599.07,-23.7746 4237.21,-16.0838"/>
<polygon fill="midnightblue" stroke="midnightblue" points="5901.34,-59.7093 5911.44,-56.4985 5901.54,-52.7122 5901.34,-59.7093"/>
</g>
<!-- Node15&#45;&gt;Node3 -->
<g id="edge52" class="edge"><title>Node15&#45;&gt;Node3</title>
<path fill="none" stroke="midnightblue" d="M6454.35,-56.2346C6451.22,-56.1549 6448.1,-56.0767 6445,-56 5636.56,-35.9942 4677.98,-20.9031 4237.08,-14.4467"/>
<polygon fill="midnightblue" stroke="midnightblue" points="6454.32,-59.7349 6464.41,-56.4936 6454.5,-52.7372 6454.32,-59.7349"/>
</g>
<!-- Node16&#45;&gt;Node3 -->
<g id="edge56" class="edge"><title>Node16&#45;&gt;Node3</title>
<path fill="none" stroke="midnightblue" d="M7032.2,-56.243C7028.78,-56.1599 7025.38,-56.0788 7022,-56 5986.86,-31.8528 4752.42,-18.2318 4237.43,-13.2282"/>
<polygon fill="midnightblue" stroke="midnightblue" points="7032.43,-59.7497 7042.51,-56.4986 7032.6,-52.7519 7032.43,-59.7497"/>
</g>
<!-- Node17&#45;&gt;Node3 -->
<g id="edge60" class="edge"><title>Node17&#45;&gt;Node3</title>
<path fill="none" stroke="midnightblue" d="M7598.16,-56.2381C7594.75,-56.1562 7591.37,-56.0767 7588,-56 6327.48,-27.2597 4817.9,-15.8573 4237.13,-12.3257"/>
<polygon fill="midnightblue" stroke="midnightblue" points="7598.36,-59.7439 7608.44,-56.4911 7598.53,-52.746 7598.36,-59.7439"/>
</g>
</g>
</svg>
