<?xml version="1.0" encoding="UTF-8" standalone="no"?>
<!DOCTYPE svg PUBLIC "-//W3C//DTD SVG 1.1//EN"
 "http://www.w3.org/Graphics/SVG/1.1/DTD/svg11.dtd">
<!-- Generated by graphviz version 2.25.20091207.0545 (20091207.0545)
 -->
<!-- Title: G Pages: 1 -->
<svg width="350pt" height="140pt"
 viewBox="0.00 0.00 350.00 140.00" xmlns="http://www.w3.org/2000/svg" xmlns:xlink="http://www.w3.org/1999/xlink">
<g id="graph1" class="graph" transform="scale(1 1) rotate(0) translate(4 136)">
<title>G</title>
<polygon fill="white" stroke="white" points="-4,5 -4,-136 347,-136 347,5 -4,5"/>
<!-- Node1 -->
<g id="node1" class="node"><title>Node1</title>
<polygon fill="#bfbfbf" stroke="black" points="96,-112.5 96,-131.5 232,-131.5 232,-112.5 96,-112.5"/>
<text text-anchor="middle" x="164" y="-118.5" font-family="Helvetica,sans-Serif" font-size="10.00">pkg/AMORE/src/AMORE.h</text>
</g>
<!-- Node2 -->
<g id="node3" class="node"><title>Node2</title>
<polygon fill="white" stroke="#bfbfbf" points="0,-56.5 0,-75.5 54,-75.5 54,-56.5 0,-56.5"/>
<text text-anchor="middle" x="27" y="-62.5" font-family="Helvetica,sans-Serif" font-size="10.00">iostream</text>
</g>
<!-- Node1&#45;&gt;Node2 -->
<g id="edge2" class="edge"><title>Node1&#45;&gt;Node2</title>
<path fill="none" stroke="midnightblue" d="M140.449,-112.373C118.161,-103.263 84.5063,-89.5062 59.6363,-79.3404"/>
<polygon fill="midnightblue" stroke="midnightblue" points="60.8247,-76.0451 50.2438,-75.5011 58.1761,-82.5247 60.8247,-76.0451"/>
</g>
<!-- Node3 -->
<g id="node5" class="node"><title>Node3</title>
<polygon fill="white" stroke="#bfbfbf" points="71.5,-56.5 71.5,-75.5 122.5,-75.5 122.5,-56.5 71.5,-56.5"/>
<text text-anchor="middle" x="97" y="-62.5" font-family="Helvetica,sans-Serif" font-size="10.00">sstream</text>
</g>
<!-- Node1&#45;&gt;Node3 -->
<g id="edge4" class="edge"><title>Node1&#45;&gt;Node3</title>
<path fill="none" stroke="midnightblue" d="M152.329,-112.246C142.434,-103.975 128.037,-91.9416 116.41,-82.2232"/>
<polygon fill="midnightblue" stroke="midnightblue" points="118.454,-79.3703 108.537,-75.6427 113.965,-84.7413 118.454,-79.3703"/>
</g>
<!-- Node4 -->
<g id="node7" class="node"><title>Node4</title>
<polygon fill="white" stroke="#bfbfbf" points="140,-56.5 140,-75.5 188,-75.5 188,-56.5 140,-56.5"/>
<text text-anchor="middle" x="164" y="-62.5" font-family="Helvetica,sans-Serif" font-size="10.00">Rcpp.h</text>
</g>
<!-- Node1&#45;&gt;Node4 -->
<g id="edge6" class="edge"><title>Node1&#45;&gt;Node4</title>
<path fill="none" stroke="midnightblue" d="M164,-112.246C164,-104.938 164,-94.6944 164,-85.7046"/>
<polygon fill="midnightblue" stroke="midnightblue" points="167.5,-85.6426 164,-75.6427 160.5,-85.6427 167.5,-85.6426"/>
</g>
<!-- Node5 -->
<g id="node9" class="node"><title>Node5</title>
<a xlink:href="../../d6/d2c/_con_8cpp.html" target="_top" xlink:title="Con.cpp">
<polygon fill="white" stroke="black" points="205.5,-56.5 205.5,-75.5 258.5,-75.5 258.5,-56.5 205.5,-56.5"/>
<text text-anchor="middle" x="232" y="-62.5" font-family="Helvetica,sans-Serif" font-size="10.00">Con.cpp</text>
</a>
</g>
<!-- Node1&#45;&gt;Node5 -->
<g id="edge8" class="edge"><title>Node1&#45;&gt;Node5</title>
<path fill="none" stroke="midnightblue" d="M175.845,-112.246C185.888,-103.975 200.499,-91.9416 212.3,-82.2232"/>
<polygon fill="midnightblue" stroke="midnightblue" points="214.797,-84.7015 220.291,-75.6427 210.347,-79.298 214.797,-84.7015"/>
</g>
<!-- Node7 -->
<g id="node13" class="node"><title>Node7</title>
<a xlink:href="../../d7/deb/_neuron_8cpp.html" target="_top" xlink:title="Neuron.cpp">
<polygon fill="white" stroke="black" points="276,-56.5 276,-75.5 342,-75.5 342,-56.5 276,-56.5"/>
<text text-anchor="middle" x="309" y="-62.5" font-family="Helvetica,sans-Serif" font-size="10.00">Neuron.cpp</text>
</a>
</g>
<!-- Node1&#45;&gt;Node7 -->
<g id="edge12" class="edge"><title>Node1&#45;&gt;Node7</title>
<path fill="none" stroke="midnightblue" d="M188.926,-112.373C212.62,-103.223 248.451,-89.3844 274.807,-79.2057"/>
<polygon fill="midnightblue" stroke="midnightblue" points="276.331,-82.3689 284.399,-75.5011 273.809,-75.8389 276.331,-82.3689"/>
</g>
<!-- Node6 -->
<g id="node11" class="node"><title>Node6</title>
<a xlink:href="../../dd/de0/_con_8h.html" target="_top" xlink:title="Con.h">
<polygon fill="white" stroke="black" points="211,-0.5 211,-19.5 253,-19.5 253,-0.5 211,-0.5"/>
<text text-anchor="middle" x="232" y="-6.5" font-family="Helvetica,sans-Serif" font-size="10.00">Con.h</text>
</a>
</g>
<!-- Node5&#45;&gt;Node6 -->
<g id="edge10" class="edge"><title>Node5&#45;&gt;Node6</title>
<path fill="none" stroke="midnightblue" d="M232,-56.2455C232,-48.9382 232,-38.6944 232,-29.7046"/>
<polygon fill="midnightblue" stroke="midnightblue" points="235.5,-29.6426 232,-19.6427 228.5,-29.6427 235.5,-29.6426"/>
</g>
<!-- Node8 -->
<g id="node15" class="node"><title>Node8</title>
<a xlink:href="../../d5/d87/_neuron_8h.html" target="_top" xlink:title="Neuron.h">
<polygon fill="white" stroke="black" points="281,-0.5 281,-19.5 337,-19.5 337,-0.5 281,-0.5"/>
<text text-anchor="middle" x="309" y="-6.5" font-family="Helvetica,sans-Serif" font-size="10.00">Neuron.h</text>
</a>
</g>
<!-- Node7&#45;&gt;Node8 -->
<g id="edge14" class="edge"><title>Node7&#45;&gt;Node8</title>
<path fill="none" stroke="midnightblue" d="M309,-56.2455C309,-48.9382 309,-38.6944 309,-29.7046"/>
<polygon fill="midnightblue" stroke="midnightblue" points="312.5,-29.6426 309,-19.6427 305.5,-29.6427 312.5,-29.6426"/>
</g>
</g>
</svg>
